<svg xmlns="http://www.w3.org/2000/svg" xmlns:rdkit="http://www.rdkit.org/xml" xmlns:xlink="http://www.w3.org/1999/xlink" version="1.1" baseProfile="full" xml:space="preserve" width="800px" height="400px" viewBox="0 0 800 400">
<!-- END OF HEADER -->
<rect style="opacity:1.0;fill:#FFFFFF;stroke:none" width="800.0" height="400.0" x="0.0" y="0.0"> </rect>
<path class="bond-0 atom-0 atom-1" d="M 68.8,85.8 L 86.9,75.3" style="fill:none;fill-rule:evenodd;stroke:#000000;stroke-width:2.0px;stroke-linecap:butt;stroke-linejoin:miter;stroke-opacity:1"/>
<path class="bond-1 atom-1 atom-2" d="M 86.9,75.3 L 104.9,85.8" style="fill:none;fill-rule:evenodd;stroke:#000000;stroke-width:2.0px;stroke-linecap:butt;stroke-linejoin:miter;stroke-opacity:1"/>
<path class="bond-2 atom-2 atom-3" d="M 103.3,84.8 L 103.3,93.9" style="fill:none;fill-rule:evenodd;stroke:#000000;stroke-width:2.0px;stroke-linecap:butt;stroke-linejoin:miter;stroke-opacity:1"/>
<path class="bond-2 atom-2 atom-3" d="M 103.3,93.9 L 103.3,102.9" style="fill:none;fill-rule:evenodd;stroke:#FF0000;stroke-width:2.0px;stroke-linecap:butt;stroke-linejoin:miter;stroke-opacity:1"/>
<path class="bond-2 atom-2 atom-3" d="M 106.5,84.8 L 106.5,93.9" style="fill:none;fill-rule:evenodd;stroke:#000000;stroke-width:2.0px;stroke-linecap:butt;stroke-linejoin:miter;stroke-opacity:1"/>
<path class="bond-2 atom-2 atom-3" d="M 106.5,93.9 L 106.5,102.9" style="fill:none;fill-rule:evenodd;stroke:#FF0000;stroke-width:2.0px;stroke-linecap:butt;stroke-linejoin:miter;stroke-opacity:1"/>
<path class="bond-3 atom-2 atom-4" d="M 104.9,85.8 L 112.2,81.5" style="fill:none;fill-rule:evenodd;stroke:#000000;stroke-width:2.0px;stroke-linecap:butt;stroke-linejoin:miter;stroke-opacity:1"/>
<path class="bond-3 atom-2 atom-4" d="M 112.2,81.5 L 119.5,77.3" style="fill:none;fill-rule:evenodd;stroke:#FF0000;stroke-width:2.0px;stroke-linecap:butt;stroke-linejoin:miter;stroke-opacity:1"/>
<path d="M 86.0,75.9 L 86.9,75.3 L 87.8,75.9" style="fill:none;stroke:#000000;stroke-width:2.0px;stroke-linecap:butt;stroke-linejoin:miter;stroke-opacity:1;"/>
<path d="M 104.0,85.2 L 104.9,85.8 L 105.3,85.5" style="fill:none;stroke:#000000;stroke-width:2.0px;stroke-linecap:butt;stroke-linejoin:miter;stroke-opacity:1;"/>
<path class="atom-3" d="M 102.2 106.6 Q 102.2 105.2, 102.9 104.4 Q 103.6 103.6, 104.9 103.6 Q 106.2 103.6, 106.9 104.4 Q 107.6 105.2, 107.6 106.6 Q 107.6 108.0, 106.9 108.8 Q 106.2 109.6, 104.9 109.6 Q 103.6 109.6, 102.9 108.8 Q 102.2 108.0, 102.2 106.6 M 104.9 109.0 Q 105.8 109.0, 106.3 108.4 Q 106.8 107.8, 106.8 106.6 Q 106.8 105.4, 106.3 104.8 Q 105.8 104.2, 104.9 104.2 Q 104.0 104.2, 103.5 104.8 Q 103.0 105.4, 103.0 106.6 Q 103.0 107.8, 103.5 108.4 Q 104.0 109.0, 104.9 109.0 " fill="#FF0000"/>
<path class="atom-4" d="M 120.2 75.4 Q 120.2 73.9, 120.9 73.2 Q 121.6 72.4, 122.9 72.4 Q 124.2 72.4, 124.9 73.2 Q 125.6 73.9, 125.6 75.4 Q 125.6 76.8, 124.9 77.6 Q 124.2 78.4, 122.9 78.4 Q 121.6 78.4, 120.9 77.6 Q 120.2 76.8, 120.2 75.4 M 122.9 77.8 Q 123.8 77.8, 124.3 77.2 Q 124.8 76.5, 124.8 75.4 Q 124.8 74.2, 124.3 73.6 Q 123.8 73.0, 122.9 73.0 Q 122.0 73.0, 121.5 73.6 Q 121.0 74.2, 121.0 75.4 Q 121.0 76.6, 121.5 77.2 Q 122.0 77.8, 122.9 77.8 " fill="#FF0000"/>
<path class="atom-4" d="M 126.5 72.4 L 127.3 72.4 L 127.3 74.9 L 130.4 74.9 L 130.4 72.4 L 131.2 72.4 L 131.2 78.3 L 130.4 78.3 L 130.4 75.6 L 127.3 75.6 L 127.3 78.3 L 126.5 78.3 L 126.5 72.4 " fill="#FF0000"/>
<path class="legend" d="M 103.4 190.0 L 102.2 186.7 L 97.8 186.7 L 96.6 190.0 L 95.1 190.0 L 99.0 178.7 L 100.9 178.7 L 104.9 190.0 L 103.4 190.0 M 98.2 185.4 L 101.8 185.4 L 100.0 180.3 L 98.2 185.4 " fill="#000000"/>
<path class="bond-0 atom-0 atom-1" d="M 264.0,96.2 L 282.0,85.8" style="fill:none;fill-rule:evenodd;stroke:#000000;stroke-width:2.0px;stroke-linecap:butt;stroke-linejoin:miter;stroke-opacity:1"/>
<path class="bond-1 atom-1 atom-2" d="M 282.0,85.8 L 300.0,96.2" style="fill:none;fill-rule:evenodd;stroke:#000000;stroke-width:2.0px;stroke-linecap:butt;stroke-linejoin:miter;stroke-opacity:1"/>
<path class="bond-2 atom-2 atom-3" d="M 300.0,96.2 L 318.0,85.8" style="fill:none;fill-rule:evenodd;stroke:#000000;stroke-width:2.0px;stroke-linecap:butt;stroke-linejoin:miter;stroke-opacity:1"/>
<path class="bond-3 atom-3 atom-4" d="M 318.0,85.8 L 336.0,96.2" style="fill:none;fill-rule:evenodd;stroke:#000000;stroke-width:2.0px;stroke-linecap:butt;stroke-linejoin:miter;stroke-opacity:1"/>
<path d="M 281.1,86.3 L 282.0,85.8 L 282.9,86.3" style="fill:none;stroke:#000000;stroke-width:2.0px;stroke-linecap:butt;stroke-linejoin:miter;stroke-opacity:1;"/>
<path d="M 299.1,95.7 L 300.0,96.2 L 300.9,95.7" style="fill:none;stroke:#000000;stroke-width:2.0px;stroke-linecap:butt;stroke-linejoin:miter;stroke-opacity:1;"/>
<path d="M 317.1,86.3 L 318.0,85.8 L 318.9,86.3" style="fill:none;stroke:#000000;stroke-width:2.0px;stroke-linecap:butt;stroke-linejoin:miter;stroke-opacity:1;"/>
<path class="legend" d="M 301.7 184.0 Q 302.7 184.4, 303.3 185.0 Q 303.8 185.7, 303.8 186.7 Q 303.8 188.2, 302.8 189.1 Q 301.8 190.0, 300.0 190.0 L 296.2 190.0 L 296.2 178.7 L 299.5 178.7 Q 301.4 178.7, 302.4 179.5 Q 303.4 180.2, 303.4 181.7 Q 303.4 183.4, 301.7 184.0 M 297.7 180.0 L 297.7 183.5 L 299.5 183.5 Q 300.6 183.5, 301.2 183.1 Q 301.8 182.6, 301.8 181.7 Q 301.8 180.0, 299.5 180.0 L 297.7 180.0 M 300.0 188.7 Q 301.1 188.7, 301.7 188.2 Q 302.2 187.7, 302.2 186.7 Q 302.2 185.7, 301.6 185.3 Q 301.0 184.8, 299.7 184.8 L 297.7 184.8 L 297.7 188.7 L 300.0 188.7 " fill="#000000"/>
<path class="bond-0 atom-0 atom-1" d="M 503.2,125.1 L 498.0,119.0" style="fill:none;fill-rule:evenodd;stroke:#FF0000;stroke-width:2.0px;stroke-linecap:butt;stroke-linejoin:miter;stroke-opacity:1"/>
<path class="bond-0 atom-0 atom-1" d="M 498.0,119.0 L 492.8,112.9" style="fill:none;fill-rule:evenodd;stroke:#000000;stroke-width:2.0px;stroke-linecap:butt;stroke-linejoin:miter;stroke-opacity:1"/>
<path class="bond-1 atom-1 atom-2" d="M 492.8,112.9 L 472.4,116.6" style="fill:none;fill-rule:evenodd;stroke:#000000;stroke-width:2.0px;stroke-linecap:butt;stroke-linejoin:miter;stroke-opacity:1"/>
<path class="bond-2 atom-2 atom-3" d="M 472.4,116.6 L 458.9,100.8" style="fill:none;fill-rule:evenodd;stroke:#000000;stroke-width:2.0px;stroke-linecap:butt;stroke-linejoin:miter;stroke-opacity:1"/>
<path class="bond-3 atom-3 atom-4" d="M 458.9,100.8 L 438.4,104.5" style="fill:none;fill-rule:evenodd;stroke:#000000;stroke-width:2.0px;stroke-linecap:butt;stroke-linejoin:miter;stroke-opacity:1"/>
<path class="bond-3 atom-3 atom-4" d="M 456.6,98.0 L 439.6,101.1" style="fill:none;fill-rule:evenodd;stroke:#000000;stroke-width:2.0px;stroke-linecap:butt;stroke-linejoin:miter;stroke-opacity:1"/>
<path class="bond-4 atom-4 atom-5" d="M 438.4,104.5 L 435.6,112.4" style="fill:none;fill-rule:evenodd;stroke:#000000;stroke-width:2.0px;stroke-linecap:butt;stroke-linejoin:miter;stroke-opacity:1"/>
<path class="bond-4 atom-4 atom-5" d="M 435.6,112.4 L 432.7,120.4" style="fill:none;fill-rule:evenodd;stroke:#FF0000;stroke-width:2.0px;stroke-linecap:butt;stroke-linejoin:miter;stroke-opacity:1"/>
<path class="bond-5 atom-4 atom-6" d="M 438.4,104.5 L 425.0,88.6" style="fill:none;fill-rule:evenodd;stroke:#000000;stroke-width:2.0px;stroke-linecap:butt;stroke-linejoin:miter;stroke-opacity:1"/>
<path class="bond-6 atom-6 atom-7" d="M 425.0,88.6 L 432.0,69.0" style="fill:none;fill-rule:evenodd;stroke:#000000;stroke-width:2.0px;stroke-linecap:butt;stroke-linejoin:miter;stroke-opacity:1"/>
<path class="bond-6 atom-6 atom-7" d="M 428.5,87.9 L 434.3,71.7" style="fill:none;fill-rule:evenodd;stroke:#000000;stroke-width:2.0px;stroke-linecap:butt;stroke-linejoin:miter;stroke-opacity:1"/>
<path class="bond-7 atom-7 atom-8" d="M 432.0,69.0 L 426.8,62.9" style="fill:none;fill-rule:evenodd;stroke:#000000;stroke-width:2.0px;stroke-linecap:butt;stroke-linejoin:miter;stroke-opacity:1"/>
<path class="bond-7 atom-7 atom-8" d="M 426.8,62.9 L 421.7,56.9" style="fill:none;fill-rule:evenodd;stroke:#FF0000;stroke-width:2.0px;stroke-linecap:butt;stroke-linejoin:miter;stroke-opacity:1"/>
<path class="bond-8 atom-7 atom-9" d="M 432.0,69.0 L 452.5,65.3" style="fill:none;fill-rule:evenodd;stroke:#000000;stroke-width:2.0px;stroke-linecap:butt;stroke-linejoin:miter;stroke-opacity:1"/>
<path class="bond-9 atom-9 atom-10" d="M 452.5,65.3 L 465.9,81.2" style="fill:none;fill-rule:evenodd;stroke:#000000;stroke-width:2.0px;stroke-linecap:butt;stroke-linejoin:miter;stroke-opacity:1"/>
<path class="bond-9 atom-9 atom-10" d="M 451.2,68.7 L 462.4,81.8" style="fill:none;fill-rule:evenodd;stroke:#000000;stroke-width:2.0px;stroke-linecap:butt;stroke-linejoin:miter;stroke-opacity:1"/>
<path class="bond-10 atom-10 atom-11" d="M 465.9,81.2 L 474.5,79.6" style="fill:none;fill-rule:evenodd;stroke:#000000;stroke-width:2.0px;stroke-linecap:butt;stroke-linejoin:miter;stroke-opacity:1"/>
<path class="bond-10 atom-10 atom-11" d="M 474.5,79.6 L 483.0,78.1" style="fill:none;fill-rule:evenodd;stroke:#FF0000;stroke-width:2.0px;stroke-linecap:butt;stroke-linejoin:miter;stroke-opacity:1"/>
<path class="bond-11 atom-11 atom-12" d="M 489.6,81.2 L 494.7,87.3" style="fill:none;fill-rule:evenodd;stroke:#FF0000;stroke-width:2.0px;stroke-linecap:butt;stroke-linejoin:miter;stroke-opacity:1"/>
<path class="bond-11 atom-11 atom-12" d="M 494.7,87.3 L 499.9,93.3" style="fill:none;fill-rule:evenodd;stroke:#000000;stroke-width:2.0px;stroke-linecap:butt;stroke-linejoin:miter;stroke-opacity:1"/>
<path class="bond-12 atom-12 atom-13" d="M 499.9,93.3 L 520.3,89.6" style="fill:none;fill-rule:evenodd;stroke:#000000;stroke-width:2.0px;stroke-linecap:butt;stroke-linejoin:miter;stroke-opacity:1"/>
<path class="bond-13 atom-13 atom-14" d="M 520.3,89.6 L 533.8,105.5" style="fill:none;fill-rule:evenodd;stroke:#000000;stroke-width:2.0px;stroke-linecap:butt;stroke-linejoin:miter;stroke-opacity:1"/>
<path class="bond-13 atom-13 atom-14" d="M 523.9,89.0 L 535.0,102.1" style="fill:none;fill-rule:evenodd;stroke:#000000;stroke-width:2.0px;stroke-linecap:butt;stroke-linejoin:miter;stroke-opacity:1"/>
<path class="bond-14 atom-14 atom-15" d="M 533.8,105.5 L 554.3,101.8" style="fill:none;fill-rule:evenodd;stroke:#000000;stroke-width:2.0px;stroke-linecap:butt;stroke-linejoin:miter;stroke-opacity:1"/>
<path class="bond-15 atom-15 atom-16" d="M 554.3,101.8 L 561.3,82.2" style="fill:none;fill-rule:evenodd;stroke:#000000;stroke-width:2.0px;stroke-linecap:butt;stroke-linejoin:miter;stroke-opacity:1"/>
<path class="bond-15 atom-15 atom-16" d="M 551.9,99.0 L 557.7,82.8" style="fill:none;fill-rule:evenodd;stroke:#000000;stroke-width:2.0px;stroke-linecap:butt;stroke-linejoin:miter;stroke-opacity:1"/>
<path class="bond-16 atom-16 atom-17" d="M 561.3,82.2 L 569.8,80.6" style="fill:none;fill-rule:evenodd;stroke:#000000;stroke-width:2.0px;stroke-linecap:butt;stroke-linejoin:miter;stroke-opacity:1"/>
<path class="bond-16 atom-16 atom-17" d="M 569.8,80.6 L 578.4,79.1" style="fill:none;fill-rule:evenodd;stroke:#FF0000;stroke-width:2.0px;stroke-linecap:butt;stroke-linejoin:miter;stroke-opacity:1"/>
<path class="bond-17 atom-16 atom-18" d="M 561.3,82.2 L 547.8,66.3" style="fill:none;fill-rule:evenodd;stroke:#000000;stroke-width:2.0px;stroke-linecap:butt;stroke-linejoin:miter;stroke-opacity:1"/>
<path class="bond-18 atom-18 atom-19" d="M 547.8,66.3 L 527.4,70.0" style="fill:none;fill-rule:evenodd;stroke:#000000;stroke-width:2.0px;stroke-linecap:butt;stroke-linejoin:miter;stroke-opacity:1"/>
<path class="bond-18 atom-18 atom-19" d="M 546.6,69.7 L 529.7,72.8" style="fill:none;fill-rule:evenodd;stroke:#000000;stroke-width:2.0px;stroke-linecap:butt;stroke-linejoin:miter;stroke-opacity:1"/>
<path class="bond-19 atom-12 atom-1" d="M 499.9,93.3 L 492.8,112.9" style="fill:none;fill-rule:evenodd;stroke:#000000;stroke-width:2.0px;stroke-linecap:butt;stroke-linejoin:miter;stroke-opacity:1"/>
<path class="bond-20 atom-19 atom-13" d="M 527.4,70.0 L 520.3,89.6" style="fill:none;fill-rule:evenodd;stroke:#000000;stroke-width:2.0px;stroke-linecap:butt;stroke-linejoin:miter;stroke-opacity:1"/>
<path class="bond-21 atom-10 atom-3" d="M 465.9,81.2 L 458.9,100.8" style="fill:none;fill-rule:evenodd;stroke:#000000;stroke-width:2.0px;stroke-linecap:butt;stroke-linejoin:miter;stroke-opacity:1"/>
<path d="M 473.4,116.4 L 472.4,116.6 L 471.7,115.8" style="fill:none;stroke:#000000;stroke-width:2.0px;stroke-linecap:butt;stroke-linejoin:miter;stroke-opacity:1;"/>
<path d="M 425.6,89.4 L 425.0,88.6 L 425.3,87.6" style="fill:none;stroke:#000000;stroke-width:2.0px;stroke-linecap:butt;stroke-linejoin:miter;stroke-opacity:1;"/>
<path d="M 451.4,65.5 L 452.5,65.3 L 453.1,66.1" style="fill:none;stroke:#000000;stroke-width:2.0px;stroke-linecap:butt;stroke-linejoin:miter;stroke-opacity:1;"/>
<path d="M 533.1,104.7 L 533.8,105.5 L 534.8,105.3" style="fill:none;stroke:#000000;stroke-width:2.0px;stroke-linecap:butt;stroke-linejoin:miter;stroke-opacity:1;"/>
<path d="M 553.2,102.0 L 554.3,101.8 L 554.6,100.8" style="fill:none;stroke:#000000;stroke-width:2.0px;stroke-linecap:butt;stroke-linejoin:miter;stroke-opacity:1;"/>
<path d="M 548.5,67.1 L 547.8,66.3 L 546.8,66.5" style="fill:none;stroke:#000000;stroke-width:2.0px;stroke-linecap:butt;stroke-linejoin:miter;stroke-opacity:1;"/>
<path d="M 528.4,69.8 L 527.4,70.0 L 527.0,71.0" style="fill:none;stroke:#000000;stroke-width:2.0px;stroke-linecap:butt;stroke-linejoin:miter;stroke-opacity:1;"/>
<path class="atom-0" d="M 503.6 128.8 Q 503.6 127.4, 504.3 126.6 Q 505.0 125.8, 506.3 125.8 Q 507.6 125.8, 508.3 126.6 Q 509.0 127.4, 509.0 128.8 Q 509.0 130.2, 508.3 131.1 Q 507.6 131.9, 506.3 131.9 Q 505.0 131.9, 504.3 131.1 Q 503.6 130.2, 503.6 128.8 M 506.3 131.2 Q 507.2 131.2, 507.7 130.6 Q 508.2 130.0, 508.2 128.8 Q 508.2 127.6, 507.7 127.1 Q 507.2 126.5, 506.3 126.5 Q 505.4 126.5, 504.9 127.1 Q 504.4 127.6, 504.4 128.8 Q 504.4 130.0, 504.9 130.6 Q 505.4 131.2, 506.3 131.2 " fill="#FF0000"/>
<path class="atom-0" d="M 509.9 125.9 L 510.7 125.9 L 510.7 128.4 L 513.7 128.4 L 513.7 125.9 L 514.5 125.9 L 514.5 131.8 L 513.7 131.8 L 513.7 129.0 L 510.7 129.0 L 510.7 131.8 L 509.9 131.8 L 509.9 125.9 " fill="#FF0000"/>
<path class="atom-5" d="M 428.7 124.1 Q 428.7 122.7, 429.4 121.9 Q 430.1 121.1, 431.4 121.1 Q 432.7 121.1, 433.4 121.9 Q 434.1 122.7, 434.1 124.1 Q 434.1 125.5, 433.4 126.3 Q 432.7 127.1, 431.4 127.1 Q 430.1 127.1, 429.4 126.3 Q 428.7 125.5, 428.7 124.1 M 431.4 126.5 Q 432.3 126.5, 432.8 125.9 Q 433.3 125.3, 433.3 124.1 Q 433.3 122.9, 432.8 122.3 Q 432.3 121.7, 431.4 121.7 Q 430.5 121.7, 430.0 122.3 Q 429.5 122.9, 429.5 124.1 Q 429.5 125.3, 430.0 125.9 Q 430.5 126.5, 431.4 126.5 " fill="#FF0000"/>
<path class="atom-5" d="M 435.0 121.1 L 435.8 121.1 L 435.8 123.6 L 438.8 123.6 L 438.8 121.1 L 439.6 121.1 L 439.6 127.0 L 438.8 127.0 L 438.8 124.3 L 435.8 124.3 L 435.8 127.0 L 435.0 127.0 L 435.0 121.1 " fill="#FF0000"/>
<path class="atom-8" d="M 410.0 50.2 L 410.8 50.2 L 410.8 52.7 L 413.8 52.7 L 413.8 50.2 L 414.6 50.2 L 414.6 56.1 L 413.8 56.1 L 413.8 53.4 L 410.8 53.4 L 410.8 56.1 L 410.0 56.1 L 410.0 50.2 " fill="#FF0000"/>
<path class="atom-8" d="M 415.8 53.1 Q 415.8 51.7, 416.5 50.9 Q 417.2 50.1, 418.5 50.1 Q 419.8 50.1, 420.5 50.9 Q 421.2 51.7, 421.2 53.1 Q 421.2 54.6, 420.5 55.4 Q 419.8 56.2, 418.5 56.2 Q 417.2 56.2, 416.5 55.4 Q 415.8 54.6, 415.8 53.1 M 418.5 55.5 Q 419.4 55.5, 419.9 54.9 Q 420.4 54.3, 420.4 53.1 Q 420.4 52.0, 419.9 51.4 Q 419.4 50.8, 418.5 50.8 Q 417.6 50.8, 417.1 51.4 Q 416.7 52.0, 416.7 53.1 Q 416.7 54.3, 417.1 54.9 Q 417.6 55.5, 418.5 55.5 " fill="#FF0000"/>
<path class="atom-11" d="M 483.7 77.5 Q 483.7 76.0, 484.4 75.3 Q 485.1 74.5, 486.4 74.5 Q 487.7 74.5, 488.4 75.3 Q 489.1 76.0, 489.1 77.5 Q 489.1 78.9, 488.4 79.7 Q 487.7 80.5, 486.4 80.5 Q 485.1 80.5, 484.4 79.7 Q 483.7 78.9, 483.7 77.5 M 486.4 79.8 Q 487.3 79.8, 487.8 79.2 Q 488.3 78.6, 488.3 77.5 Q 488.3 76.3, 487.8 75.7 Q 487.3 75.1, 486.4 75.1 Q 485.5 75.1, 485.0 75.7 Q 484.5 76.3, 484.5 77.5 Q 484.5 78.6, 485.0 79.2 Q 485.5 79.8, 486.4 79.8 " fill="#FF0000"/>
<path class="atom-17" d="M 579.1 78.5 Q 579.1 77.1, 579.8 76.3 Q 580.5 75.5, 581.8 75.5 Q 583.1 75.5, 583.8 76.3 Q 584.5 77.1, 584.5 78.5 Q 584.5 79.9, 583.8 80.7 Q 583.1 81.5, 581.8 81.5 Q 580.5 81.5, 579.8 80.7 Q 579.1 79.9, 579.1 78.5 M 581.8 80.9 Q 582.7 80.9, 583.1 80.3 Q 583.6 79.7, 583.6 78.5 Q 583.6 77.3, 583.1 76.7 Q 582.7 76.1, 581.8 76.1 Q 580.9 76.1, 580.4 76.7 Q 579.9 77.3, 579.9 78.5 Q 579.9 79.7, 580.4 80.3 Q 580.9 80.9, 581.8 80.9 " fill="#FF0000"/>
<path class="atom-17" d="M 585.4 75.5 L 586.2 75.5 L 586.2 78.1 L 589.2 78.1 L 589.2 75.5 L 590.0 75.5 L 590.0 81.4 L 589.2 81.4 L 589.2 78.7 L 586.2 78.7 L 586.2 81.4 L 585.4 81.4 L 585.4 75.5 " fill="#FF0000"/>
<path class="legend" d="M 495.6 184.2 Q 495.6 181.4, 496.9 179.9 Q 498.3 178.4, 500.8 178.4 Q 503.1 178.4, 504.4 180.0 L 503.3 180.9 Q 502.4 179.7, 500.8 179.7 Q 499.1 179.7, 498.2 180.9 Q 497.3 182.0, 497.3 184.2 Q 497.3 186.4, 498.2 187.6 Q 499.1 188.7, 501.0 188.7 Q 502.2 188.7, 503.7 188.0 L 504.1 189.2 Q 503.5 189.6, 502.6 189.8 Q 501.7 190.0, 500.7 190.0 Q 498.3 190.0, 496.9 188.5 Q 495.6 187.0, 495.6 184.2 " fill="#000000"/>
<path class="bond-0 atom-0 atom-1" d="M 744.7,91.5 L 727.3,103.0" style="fill:none;fill-rule:evenodd;stroke:#000000;stroke-width:2.0px;stroke-linecap:butt;stroke-linejoin:miter;stroke-opacity:1"/>
<path class="bond-0 atom-0 atom-1" d="M 743.0,88.9 L 727.1,99.4" style="fill:none;fill-rule:evenodd;stroke:#000000;stroke-width:2.0px;stroke-linecap:butt;stroke-linejoin:miter;stroke-opacity:1"/>
<path class="bond-1 atom-1 atom-2" d="M 727.3,103.0 L 708.7,93.6" style="fill:none;fill-rule:evenodd;stroke:#000000;stroke-width:2.0px;stroke-linecap:butt;stroke-linejoin:miter;stroke-opacity:1"/>
<path class="bond-2 atom-2 atom-3" d="M 708.7,93.6 L 691.3,105.0" style="fill:none;fill-rule:evenodd;stroke:#000000;stroke-width:2.0px;stroke-linecap:butt;stroke-linejoin:miter;stroke-opacity:1"/>
<path class="bond-3 atom-3 atom-4" d="M 691.3,105.0 L 672.7,95.7" style="fill:none;fill-rule:evenodd;stroke:#000000;stroke-width:2.0px;stroke-linecap:butt;stroke-linejoin:miter;stroke-opacity:1"/>
<path class="bond-4 atom-4 atom-5" d="M 672.7,95.7 L 655.3,107.1" style="fill:none;fill-rule:evenodd;stroke:#000000;stroke-width:2.0px;stroke-linecap:butt;stroke-linejoin:miter;stroke-opacity:1"/>
<path class="bond-5 atom-4 atom-6" d="M 672.7,95.7 L 671.5,74.9" style="fill:none;fill-rule:evenodd;stroke:#000000;stroke-width:2.0px;stroke-linecap:butt;stroke-linejoin:miter;stroke-opacity:1"/>
<path d="M 728.2,102.4 L 727.3,103.0 L 726.4,102.5" style="fill:none;stroke:#000000;stroke-width:2.0px;stroke-linecap:butt;stroke-linejoin:miter;stroke-opacity:1;"/>
<path d="M 709.6,94.1 L 708.7,93.6 L 707.8,94.2" style="fill:none;stroke:#000000;stroke-width:2.0px;stroke-linecap:butt;stroke-linejoin:miter;stroke-opacity:1;"/>
<path d="M 692.2,104.5 L 691.3,105.0 L 690.4,104.6" style="fill:none;stroke:#000000;stroke-width:2.0px;stroke-linecap:butt;stroke-linejoin:miter;stroke-opacity:1;"/>
<path class="legend" d="M 696.5 178.7 L 703.3 178.7 L 703.3 180.0 L 698.1 180.0 L 698.1 183.4 L 702.8 183.4 L 702.8 184.7 L 698.1 184.7 L 698.1 188.7 L 703.5 188.7 L 703.5 190.0 L 696.5 190.0 L 696.5 178.7 " fill="#000000"/>
<path class="bond-0 atom-0 atom-1" d="M 114.1,222.3 L 107.1,242.0" style="fill:none;fill-rule:evenodd;stroke:#000000;stroke-width:2.0px;stroke-linecap:butt;stroke-linejoin:miter;stroke-opacity:1"/>
<path class="bond-1 atom-1 atom-2" d="M 107.1,242.0 L 86.7,245.7" style="fill:none;fill-rule:evenodd;stroke:#000000;stroke-width:2.0px;stroke-linecap:butt;stroke-linejoin:miter;stroke-opacity:1"/>
<path class="bond-2 atom-2 atom-3" d="M 86.7,245.7 L 79.7,265.4" style="fill:none;fill-rule:evenodd;stroke:#000000;stroke-width:2.0px;stroke-linecap:butt;stroke-linejoin:miter;stroke-opacity:1"/>
<path class="bond-3 atom-3 atom-4" d="M 79.7,265.4 L 59.3,269.1" style="fill:none;fill-rule:evenodd;stroke:#000000;stroke-width:2.0px;stroke-linecap:butt;stroke-linejoin:miter;stroke-opacity:1"/>
<path class="bond-4 atom-4 atom-5" d="M 59.3,269.1 L 52.3,288.8" style="fill:none;fill-rule:evenodd;stroke:#000000;stroke-width:2.0px;stroke-linecap:butt;stroke-linejoin:miter;stroke-opacity:1"/>
<path class="bond-5 atom-5 atom-6" d="M 52.3,288.8 L 31.8,292.6" style="fill:none;fill-rule:evenodd;stroke:#000000;stroke-width:2.0px;stroke-linecap:butt;stroke-linejoin:miter;stroke-opacity:1"/>
<path class="bond-6 atom-5 atom-7" d="M 52.3,288.8 L 65.8,304.6" style="fill:none;fill-rule:evenodd;stroke:#000000;stroke-width:2.0px;stroke-linecap:butt;stroke-linejoin:miter;stroke-opacity:1"/>
<path class="bond-7 atom-7 atom-8" d="M 65.8,304.6 L 58.9,324.2" style="fill:none;fill-rule:evenodd;stroke:#000000;stroke-width:2.0px;stroke-linecap:butt;stroke-linejoin:miter;stroke-opacity:1"/>
<path class="bond-8 atom-8 atom-9" d="M 58.9,324.2 L 72.4,340.0" style="fill:none;fill-rule:evenodd;stroke:#000000;stroke-width:2.0px;stroke-linecap:butt;stroke-linejoin:miter;stroke-opacity:1"/>
<path class="bond-9 atom-9 atom-10" d="M 72.4,340.0 L 65.4,359.7" style="fill:none;fill-rule:evenodd;stroke:#000000;stroke-width:2.0px;stroke-linecap:butt;stroke-linejoin:miter;stroke-opacity:1"/>
<path class="bond-10 atom-7 atom-11" d="M 65.8,304.6 L 86.3,300.8" style="fill:none;fill-rule:evenodd;stroke:#000000;stroke-width:2.0px;stroke-linecap:butt;stroke-linejoin:miter;stroke-opacity:1"/>
<path class="bond-11 atom-11 atom-12" d="M 86.3,300.8 L 99.8,316.6" style="fill:none;fill-rule:evenodd;stroke:#000000;stroke-width:2.0px;stroke-linecap:butt;stroke-linejoin:miter;stroke-opacity:1"/>
<path class="bond-12 atom-12 atom-13" d="M 99.8,316.6 L 120.3,312.9" style="fill:none;fill-rule:evenodd;stroke:#000000;stroke-width:2.0px;stroke-linecap:butt;stroke-linejoin:miter;stroke-opacity:1"/>
<path class="bond-13 atom-13 atom-14" d="M 120.3,312.9 L 116.5,292.4" style="fill:none;fill-rule:evenodd;stroke:#000000;stroke-width:2.0px;stroke-linecap:butt;stroke-linejoin:miter;stroke-opacity:1"/>
<path class="bond-14 atom-13 atom-15" d="M 120.3,312.9 L 124.1,333.3" style="fill:none;fill-rule:evenodd;stroke:#000000;stroke-width:2.0px;stroke-linecap:butt;stroke-linejoin:miter;stroke-opacity:1"/>
<path class="bond-15 atom-15 atom-16" d="M 124.1,333.3 L 143.7,340.3" style="fill:none;fill-rule:evenodd;stroke:#000000;stroke-width:2.0px;stroke-linecap:butt;stroke-linejoin:miter;stroke-opacity:1"/>
<path class="bond-16 atom-13 atom-17" d="M 120.3,312.9 L 140.7,309.1" style="fill:none;fill-rule:evenodd;stroke:#000000;stroke-width:2.0px;stroke-linecap:butt;stroke-linejoin:miter;stroke-opacity:1"/>
<path class="bond-17 atom-17 atom-18" d="M 140.7,309.1 L 154.2,324.9" style="fill:none;fill-rule:evenodd;stroke:#000000;stroke-width:2.0px;stroke-linecap:butt;stroke-linejoin:miter;stroke-opacity:1"/>
<path class="bond-18 atom-17 atom-19" d="M 140.7,309.1 L 147.7,289.4" style="fill:none;fill-rule:evenodd;stroke:#000000;stroke-width:2.0px;stroke-linecap:butt;stroke-linejoin:miter;stroke-opacity:1"/>
<path class="bond-19 atom-19 atom-20" d="M 147.7,289.4 L 168.2,285.7" style="fill:none;fill-rule:evenodd;stroke:#000000;stroke-width:2.0px;stroke-linecap:butt;stroke-linejoin:miter;stroke-opacity:1"/>
<path class="bond-20 atom-19 atom-21" d="M 147.7,289.4 L 134.2,273.6" style="fill:none;fill-rule:evenodd;stroke:#000000;stroke-width:2.0px;stroke-linecap:butt;stroke-linejoin:miter;stroke-opacity:1"/>
<path d="M 107.5,241.0 L 107.1,242.0 L 106.1,242.1" style="fill:none;stroke:#000000;stroke-width:2.0px;stroke-linecap:butt;stroke-linejoin:miter;stroke-opacity:1;"/>
<path d="M 87.7,245.6 L 86.7,245.7 L 86.3,246.7" style="fill:none;stroke:#000000;stroke-width:2.0px;stroke-linecap:butt;stroke-linejoin:miter;stroke-opacity:1;"/>
<path d="M 80.1,264.4 L 79.7,265.4 L 78.7,265.6" style="fill:none;stroke:#000000;stroke-width:2.0px;stroke-linecap:butt;stroke-linejoin:miter;stroke-opacity:1;"/>
<path d="M 60.3,269.0 L 59.3,269.1 L 58.9,270.1" style="fill:none;stroke:#000000;stroke-width:2.0px;stroke-linecap:butt;stroke-linejoin:miter;stroke-opacity:1;"/>
<path d="M 59.2,323.2 L 58.9,324.2 L 59.5,325.0" style="fill:none;stroke:#000000;stroke-width:2.0px;stroke-linecap:butt;stroke-linejoin:miter;stroke-opacity:1;"/>
<path d="M 71.7,339.3 L 72.4,340.0 L 72.0,341.0" style="fill:none;stroke:#000000;stroke-width:2.0px;stroke-linecap:butt;stroke-linejoin:miter;stroke-opacity:1;"/>
<path d="M 85.3,301.0 L 86.3,300.8 L 87.0,301.6" style="fill:none;stroke:#000000;stroke-width:2.0px;stroke-linecap:butt;stroke-linejoin:miter;stroke-opacity:1;"/>
<path d="M 99.1,315.8 L 99.8,316.6 L 100.8,316.4" style="fill:none;stroke:#000000;stroke-width:2.0px;stroke-linecap:butt;stroke-linejoin:miter;stroke-opacity:1;"/>
<path d="M 123.9,332.3 L 124.1,333.3 L 125.0,333.7" style="fill:none;stroke:#000000;stroke-width:2.0px;stroke-linecap:butt;stroke-linejoin:miter;stroke-opacity:1;"/>
<path class="legend" d="M 96.6 378.7 L 103.4 378.7 L 103.4 380.0 L 98.2 380.0 L 98.2 383.4 L 102.8 383.4 L 102.8 384.7 L 98.2 384.7 L 98.2 390.0 L 96.6 390.0 L 96.6 378.7 " fill="#000000"/>
</svg>