<svg xmlns="http://www.w3.org/2000/svg" xmlns:rdkit="http://www.rdkit.org/xml" xmlns:xlink="http://www.w3.org/1999/xlink" version="1.1" baseProfile="full" xml:space="preserve" width="800px" height="200px" viewBox="0 0 800 200">
<!-- END OF HEADER -->
<rect style="opacity:1.0;fill:#FFFFFF;stroke:none" width="800.0" height="200.0" x="0.0" y="0.0"> </rect>
<path class="bond-0 atom-0 atom-1" d="M 132.8,127.8 L 129.6,120.1" style="fill:none;fill-rule:evenodd;stroke:#FF0000;stroke-width:2.0px;stroke-linecap:butt;stroke-linejoin:miter;stroke-opacity:1"/>
<path class="bond-0 atom-0 atom-1" d="M 129.6,120.1 L 126.5,112.5" style="fill:none;fill-rule:evenodd;stroke:#000000;stroke-width:2.0px;stroke-linecap:butt;stroke-linejoin:miter;stroke-opacity:1"/>
<path class="bond-0 atom-0 atom-1" d="M 135.4,126.7 L 132.3,119.0" style="fill:none;fill-rule:evenodd;stroke:#FF0000;stroke-width:2.0px;stroke-linecap:butt;stroke-linejoin:miter;stroke-opacity:1"/>
<path class="bond-0 atom-0 atom-1" d="M 132.3,119.0 L 129.2,111.3" style="fill:none;fill-rule:evenodd;stroke:#000000;stroke-width:2.0px;stroke-linecap:butt;stroke-linejoin:miter;stroke-opacity:1"/>
<path class="bond-1 atom-1 atom-2" d="M 128.1,112.7 L 108.9,110.1" style="fill:none;fill-rule:evenodd;stroke:#000000;stroke-width:2.0px;stroke-linecap:butt;stroke-linejoin:miter;stroke-opacity:1"/>
<path class="bond-2 atom-2 atom-3" d="M 108.9,110.1 L 101.6,92.1" style="fill:none;fill-rule:evenodd;stroke:#000000;stroke-width:2.0px;stroke-linecap:butt;stroke-linejoin:miter;stroke-opacity:1"/>
<path class="bond-2 atom-2 atom-3" d="M 111.0,107.4 L 104.9,92.6" style="fill:none;fill-rule:evenodd;stroke:#000000;stroke-width:2.0px;stroke-linecap:butt;stroke-linejoin:miter;stroke-opacity:1"/>
<path class="bond-3 atom-3 atom-4" d="M 101.6,92.1 L 82.3,89.5" style="fill:none;fill-rule:evenodd;stroke:#000000;stroke-width:2.0px;stroke-linecap:butt;stroke-linejoin:miter;stroke-opacity:1"/>
<path class="bond-4 atom-4 atom-5" d="M 82.3,89.5 L 75.0,71.5" style="fill:none;fill-rule:evenodd;stroke:#000000;stroke-width:2.0px;stroke-linecap:butt;stroke-linejoin:miter;stroke-opacity:1"/>
<path class="bond-4 atom-4 atom-5" d="M 79.0,89.0 L 72.9,74.2" style="fill:none;fill-rule:evenodd;stroke:#000000;stroke-width:2.0px;stroke-linecap:butt;stroke-linejoin:miter;stroke-opacity:1"/>
<path class="bond-5 atom-5 atom-6" d="M 75.0,71.5 L 55.7,68.9" style="fill:none;fill-rule:evenodd;stroke:#000000;stroke-width:2.0px;stroke-linecap:butt;stroke-linejoin:miter;stroke-opacity:1"/>
<path class="bond-6 atom-6 atom-7" d="M 55.7,68.9 L 43.9,84.3" style="fill:none;fill-rule:evenodd;stroke:#000000;stroke-width:2.0px;stroke-linecap:butt;stroke-linejoin:miter;stroke-opacity:1"/>
<path class="bond-6 atom-6 atom-7" d="M 57.0,72.0 L 47.2,84.7" style="fill:none;fill-rule:evenodd;stroke:#000000;stroke-width:2.0px;stroke-linecap:butt;stroke-linejoin:miter;stroke-opacity:1"/>
<path class="bond-7 atom-7 atom-8" d="M 43.9,84.3 L 35.8,83.2" style="fill:none;fill-rule:evenodd;stroke:#000000;stroke-width:2.0px;stroke-linecap:butt;stroke-linejoin:miter;stroke-opacity:1"/>
<path class="bond-7 atom-7 atom-8" d="M 35.8,83.2 L 27.8,82.1" style="fill:none;fill-rule:evenodd;stroke:#FF0000;stroke-width:2.0px;stroke-linecap:butt;stroke-linejoin:miter;stroke-opacity:1"/>
<path class="bond-8 atom-7 atom-9" d="M 43.9,84.3 L 51.2,102.2" style="fill:none;fill-rule:evenodd;stroke:#000000;stroke-width:2.0px;stroke-linecap:butt;stroke-linejoin:miter;stroke-opacity:1"/>
<path class="bond-9 atom-9 atom-10" d="M 51.2,102.2 L 70.4,104.9" style="fill:none;fill-rule:evenodd;stroke:#000000;stroke-width:2.0px;stroke-linecap:butt;stroke-linejoin:miter;stroke-opacity:1"/>
<path class="bond-9 atom-9 atom-10" d="M 53.3,99.6 L 69.2,101.7" style="fill:none;fill-rule:evenodd;stroke:#000000;stroke-width:2.0px;stroke-linecap:butt;stroke-linejoin:miter;stroke-opacity:1"/>
<path class="bond-10 atom-3 atom-11" d="M 101.6,92.1 L 106.1,86.2" style="fill:none;fill-rule:evenodd;stroke:#000000;stroke-width:2.0px;stroke-linecap:butt;stroke-linejoin:miter;stroke-opacity:1"/>
<path class="bond-10 atom-3 atom-11" d="M 106.1,86.2 L 110.7,80.3" style="fill:none;fill-rule:evenodd;stroke:#FF0000;stroke-width:2.0px;stroke-linecap:butt;stroke-linejoin:miter;stroke-opacity:1"/>
<path class="bond-11 atom-11 atom-12" d="M 116.6,77.2 L 124.6,78.3" style="fill:none;fill-rule:evenodd;stroke:#FF0000;stroke-width:2.0px;stroke-linecap:butt;stroke-linejoin:miter;stroke-opacity:1"/>
<path class="bond-11 atom-11 atom-12" d="M 124.6,78.3 L 132.7,79.4" style="fill:none;fill-rule:evenodd;stroke:#000000;stroke-width:2.0px;stroke-linecap:butt;stroke-linejoin:miter;stroke-opacity:1"/>
<path class="bond-12 atom-12 atom-13" d="M 132.7,79.4 L 144.5,64.0" style="fill:none;fill-rule:evenodd;stroke:#000000;stroke-width:2.0px;stroke-linecap:butt;stroke-linejoin:miter;stroke-opacity:1"/>
<path class="bond-12 atom-12 atom-13" d="M 136.0,79.8 L 145.8,67.1" style="fill:none;fill-rule:evenodd;stroke:#000000;stroke-width:2.0px;stroke-linecap:butt;stroke-linejoin:miter;stroke-opacity:1"/>
<path class="bond-13 atom-13 atom-14" d="M 144.5,64.0 L 163.8,66.6" style="fill:none;fill-rule:evenodd;stroke:#000000;stroke-width:2.0px;stroke-linecap:butt;stroke-linejoin:miter;stroke-opacity:1"/>
<path class="bond-14 atom-14 atom-15" d="M 163.8,66.6 L 168.4,60.7" style="fill:none;fill-rule:evenodd;stroke:#000000;stroke-width:2.0px;stroke-linecap:butt;stroke-linejoin:miter;stroke-opacity:1"/>
<path class="bond-14 atom-14 atom-15" d="M 168.4,60.7 L 172.9,54.8" style="fill:none;fill-rule:evenodd;stroke:#FF0000;stroke-width:2.0px;stroke-linecap:butt;stroke-linejoin:miter;stroke-opacity:1"/>
<path class="bond-15 atom-14 atom-16" d="M 163.8,66.6 L 171.1,84.6" style="fill:none;fill-rule:evenodd;stroke:#000000;stroke-width:2.0px;stroke-linecap:butt;stroke-linejoin:miter;stroke-opacity:1"/>
<path class="bond-15 atom-14 atom-16" d="M 161.7,69.3 L 167.8,84.1" style="fill:none;fill-rule:evenodd;stroke:#000000;stroke-width:2.0px;stroke-linecap:butt;stroke-linejoin:miter;stroke-opacity:1"/>
<path class="bond-16 atom-16 atom-17" d="M 171.1,84.6 L 159.3,99.9" style="fill:none;fill-rule:evenodd;stroke:#000000;stroke-width:2.0px;stroke-linecap:butt;stroke-linejoin:miter;stroke-opacity:1"/>
<path class="bond-17 atom-17 atom-18" d="M 159.3,99.9 L 162.2,107.2" style="fill:none;fill-rule:evenodd;stroke:#000000;stroke-width:2.0px;stroke-linecap:butt;stroke-linejoin:miter;stroke-opacity:1"/>
<path class="bond-17 atom-17 atom-18" d="M 162.2,107.2 L 165.2,114.5" style="fill:none;fill-rule:evenodd;stroke:#FF0000;stroke-width:2.0px;stroke-linecap:butt;stroke-linejoin:miter;stroke-opacity:1"/>
<path class="bond-18 atom-17 atom-19" d="M 159.3,99.9 L 140.0,97.3" style="fill:none;fill-rule:evenodd;stroke:#000000;stroke-width:2.0px;stroke-linecap:butt;stroke-linejoin:miter;stroke-opacity:1"/>
<path class="bond-18 atom-17 atom-19" d="M 158.0,96.8 L 142.1,94.7" style="fill:none;fill-rule:evenodd;stroke:#000000;stroke-width:2.0px;stroke-linecap:butt;stroke-linejoin:miter;stroke-opacity:1"/>
<path class="bond-19 atom-19 atom-1" d="M 140.0,97.3 L 128.1,112.7" style="fill:none;fill-rule:evenodd;stroke:#000000;stroke-width:2.0px;stroke-linecap:butt;stroke-linejoin:miter;stroke-opacity:1"/>
<path class="bond-20 atom-10 atom-4" d="M 70.4,104.9 L 82.3,89.5" style="fill:none;fill-rule:evenodd;stroke:#000000;stroke-width:2.0px;stroke-linecap:butt;stroke-linejoin:miter;stroke-opacity:1"/>
<path class="bond-21 atom-19 atom-12" d="M 140.0,97.3 L 132.7,79.4" style="fill:none;fill-rule:evenodd;stroke:#000000;stroke-width:2.0px;stroke-linecap:butt;stroke-linejoin:miter;stroke-opacity:1"/>
<path d="M 127.2,112.5 L 128.1,112.7 L 128.7,111.9" style="fill:none;stroke:#000000;stroke-width:2.0px;stroke-linecap:butt;stroke-linejoin:miter;stroke-opacity:1;"/>
<path d="M 109.9,110.2 L 108.9,110.1 L 108.5,109.2" style="fill:none;stroke:#000000;stroke-width:2.0px;stroke-linecap:butt;stroke-linejoin:miter;stroke-opacity:1;"/>
<path d="M 75.3,72.4 L 75.0,71.5 L 74.0,71.4" style="fill:none;stroke:#000000;stroke-width:2.0px;stroke-linecap:butt;stroke-linejoin:miter;stroke-opacity:1;"/>
<path d="M 56.7,69.1 L 55.7,68.9 L 55.1,69.7" style="fill:none;stroke:#000000;stroke-width:2.0px;stroke-linecap:butt;stroke-linejoin:miter;stroke-opacity:1;"/>
<path d="M 50.8,101.3 L 51.2,102.2 L 52.2,102.4" style="fill:none;stroke:#000000;stroke-width:2.0px;stroke-linecap:butt;stroke-linejoin:miter;stroke-opacity:1;"/>
<path d="M 69.5,104.7 L 70.4,104.9 L 71.0,104.1" style="fill:none;stroke:#000000;stroke-width:2.0px;stroke-linecap:butt;stroke-linejoin:miter;stroke-opacity:1;"/>
<path d="M 143.9,64.8 L 144.5,64.0 L 145.5,64.1" style="fill:none;stroke:#000000;stroke-width:2.0px;stroke-linecap:butt;stroke-linejoin:miter;stroke-opacity:1;"/>
<path d="M 170.8,83.7 L 171.1,84.6 L 170.5,85.4" style="fill:none;stroke:#000000;stroke-width:2.0px;stroke-linecap:butt;stroke-linejoin:miter;stroke-opacity:1;"/>
<path class="atom-0" d="M 133.0 130.7 Q 133.0 129.3, 133.6 128.6 Q 134.3 127.9, 135.5 127.9 Q 136.7 127.9, 137.4 128.6 Q 138.0 129.3, 138.0 130.7 Q 138.0 132.0, 137.4 132.8 Q 136.7 133.5, 135.5 133.5 Q 134.3 133.5, 133.6 132.8 Q 133.0 132.0, 133.0 130.7 M 135.5 132.9 Q 136.3 132.9, 136.8 132.3 Q 137.2 131.8, 137.2 130.7 Q 137.2 129.6, 136.8 129.0 Q 136.3 128.5, 135.5 128.5 Q 134.7 128.5, 134.2 129.0 Q 133.8 129.6, 133.8 130.7 Q 133.8 131.8, 134.2 132.3 Q 134.7 132.9, 135.5 132.9 " fill="#FF0000"/>
<path class="atom-8" d="M 16.7 79.0 L 17.4 79.0 L 17.4 81.3 L 20.2 81.3 L 20.2 79.0 L 21.0 79.0 L 21.0 84.4 L 20.2 84.4 L 20.2 81.9 L 17.4 81.9 L 17.4 84.4 L 16.7 84.4 L 16.7 79.0 " fill="#FF0000"/>
<path class="atom-8" d="M 22.1 81.7 Q 22.1 80.4, 22.8 79.6 Q 23.4 78.9, 24.6 78.9 Q 25.8 78.9, 26.5 79.6 Q 27.1 80.4, 27.1 81.7 Q 27.1 83.0, 26.5 83.8 Q 25.8 84.5, 24.6 84.5 Q 23.4 84.5, 22.8 83.8 Q 22.1 83.0, 22.1 81.7 M 24.6 83.9 Q 25.5 83.9, 25.9 83.4 Q 26.4 82.8, 26.4 81.7 Q 26.4 80.6, 25.9 80.1 Q 25.5 79.5, 24.6 79.5 Q 23.8 79.5, 23.3 80.1 Q 22.9 80.6, 22.9 81.7 Q 22.9 82.8, 23.3 83.4 Q 23.8 83.9, 24.6 83.9 " fill="#FF0000"/>
<path class="atom-11" d="M 110.9 76.8 Q 110.9 75.5, 111.6 74.7 Q 112.2 74.0, 113.4 74.0 Q 114.6 74.0, 115.3 74.7 Q 116.0 75.5, 116.0 76.8 Q 116.0 78.1, 115.3 78.9 Q 114.6 79.6, 113.4 79.6 Q 112.2 79.6, 111.6 78.9 Q 110.9 78.1, 110.9 76.8 M 113.4 79.0 Q 114.3 79.0, 114.7 78.4 Q 115.2 77.9, 115.2 76.8 Q 115.2 75.7, 114.7 75.2 Q 114.3 74.6, 113.4 74.6 Q 112.6 74.6, 112.1 75.1 Q 111.7 75.7, 111.7 76.8 Q 111.7 77.9, 112.1 78.4 Q 112.6 79.0, 113.4 79.0 " fill="#FF0000"/>
<path class="atom-15" d="M 173.1 51.3 Q 173.1 50.0, 173.8 49.2 Q 174.4 48.5, 175.6 48.5 Q 176.9 48.5, 177.5 49.2 Q 178.2 50.0, 178.2 51.3 Q 178.2 52.6, 177.5 53.4 Q 176.9 54.1, 175.6 54.1 Q 174.4 54.1, 173.8 53.4 Q 173.1 52.6, 173.1 51.3 M 175.6 53.5 Q 176.5 53.5, 176.9 53.0 Q 177.4 52.4, 177.4 51.3 Q 177.4 50.2, 176.9 49.7 Q 176.5 49.1, 175.6 49.1 Q 174.8 49.1, 174.4 49.7 Q 173.9 50.2, 173.9 51.3 Q 173.9 52.4, 174.4 53.0 Q 174.8 53.5, 175.6 53.5 " fill="#FF0000"/>
<path class="atom-15" d="M 179.0 48.6 L 179.8 48.6 L 179.8 50.9 L 182.6 50.9 L 182.6 48.6 L 183.3 48.6 L 183.3 54.1 L 182.6 54.1 L 182.6 51.5 L 179.8 51.5 L 179.8 54.1 L 179.0 54.1 L 179.0 48.6 " fill="#FF0000"/>
<path class="atom-18" d="M 164.1 117.9 Q 164.1 116.6, 164.7 115.9 Q 165.4 115.1, 166.6 115.1 Q 167.8 115.1, 168.5 115.9 Q 169.1 116.6, 169.1 117.9 Q 169.1 119.2, 168.5 120.0 Q 167.8 120.8, 166.6 120.8 Q 165.4 120.8, 164.7 120.0 Q 164.1 119.3, 164.1 117.9 M 166.6 120.1 Q 167.4 120.1, 167.9 119.6 Q 168.4 119.0, 168.4 117.9 Q 168.4 116.8, 167.9 116.3 Q 167.4 115.7, 166.6 115.7 Q 165.8 115.7, 165.3 116.3 Q 164.9 116.8, 164.9 117.9 Q 164.9 119.0, 165.3 119.6 Q 165.8 120.1, 166.6 120.1 " fill="#FF0000"/>
<path class="atom-18" d="M 170.0 115.2 L 170.7 115.2 L 170.7 117.5 L 173.5 117.5 L 173.5 115.2 L 174.3 115.2 L 174.3 120.7 L 173.5 120.7 L 173.5 118.1 L 170.7 118.1 L 170.7 120.7 L 170.0 120.7 L 170.0 115.2 " fill="#FF0000"/>
<path class="legend" d="M 103.4 190.0 L 102.2 186.7 L 97.8 186.7 L 96.6 190.0 L 95.1 190.0 L 99.0 178.7 L 100.9 178.7 L 104.9 190.0 L 103.4 190.0 M 98.2 185.4 L 101.8 185.4 L 100.0 180.3 L 98.2 185.4 " fill="#000000"/>
<path class="bond-0 atom-0 atom-1" d="M 292.6,124.9 L 289.8,117.5" style="fill:none;fill-rule:evenodd;stroke:#0000FF;stroke-width:2.0px;stroke-linecap:butt;stroke-linejoin:miter;stroke-opacity:1"/>
<path class="bond-0 atom-0 atom-1" d="M 289.8,117.5 L 287.1,110.0" style="fill:none;fill-rule:evenodd;stroke:#000000;stroke-width:2.0px;stroke-linecap:butt;stroke-linejoin:miter;stroke-opacity:1"/>
<path class="bond-0 atom-0 atom-1" d="M 289.8,125.9 L 287.1,118.5" style="fill:none;fill-rule:evenodd;stroke:#0000FF;stroke-width:2.0px;stroke-linecap:butt;stroke-linejoin:miter;stroke-opacity:1"/>
<path class="bond-0 atom-0 atom-1" d="M 287.1,118.5 L 284.4,111.1" style="fill:none;fill-rule:evenodd;stroke:#000000;stroke-width:2.0px;stroke-linecap:butt;stroke-linejoin:miter;stroke-opacity:1"/>
<path class="bond-0 atom-0 atom-1" d="M 295.3,123.9 L 292.6,116.5" style="fill:none;fill-rule:evenodd;stroke:#0000FF;stroke-width:2.0px;stroke-linecap:butt;stroke-linejoin:miter;stroke-opacity:1"/>
<path class="bond-0 atom-0 atom-1" d="M 292.6,116.5 L 289.8,109.0" style="fill:none;fill-rule:evenodd;stroke:#000000;stroke-width:2.0px;stroke-linecap:butt;stroke-linejoin:miter;stroke-opacity:1"/>
<path class="bond-1 atom-1 atom-2" d="M 287.1,110.0 L 280.4,91.8" style="fill:none;fill-rule:evenodd;stroke:#000000;stroke-width:2.0px;stroke-linecap:butt;stroke-linejoin:miter;stroke-opacity:1"/>
<path class="bond-2 atom-2 atom-3" d="M 280.4,91.8 L 285.1,86.1" style="fill:none;fill-rule:evenodd;stroke:#000000;stroke-width:2.0px;stroke-linecap:butt;stroke-linejoin:miter;stroke-opacity:1"/>
<path class="bond-2 atom-2 atom-3" d="M 285.1,86.1 L 289.9,80.4" style="fill:none;fill-rule:evenodd;stroke:#FF0000;stroke-width:2.0px;stroke-linecap:butt;stroke-linejoin:miter;stroke-opacity:1"/>
<path class="bond-3 atom-3 atom-4" d="M 296.0,77.5 L 303.9,78.8" style="fill:none;fill-rule:evenodd;stroke:#FF0000;stroke-width:2.0px;stroke-linecap:butt;stroke-linejoin:miter;stroke-opacity:1"/>
<path class="bond-3 atom-3 atom-4" d="M 303.9,78.8 L 311.9,80.2" style="fill:none;fill-rule:evenodd;stroke:#000000;stroke-width:2.0px;stroke-linecap:butt;stroke-linejoin:miter;stroke-opacity:1"/>
<path class="bond-4 atom-4 atom-5" d="M 311.9,80.2 L 314.7,87.6" style="fill:none;fill-rule:evenodd;stroke:#000000;stroke-width:2.0px;stroke-linecap:butt;stroke-linejoin:miter;stroke-opacity:1"/>
<path class="bond-4 atom-4 atom-5" d="M 314.7,87.6 L 317.4,95.0" style="fill:none;fill-rule:evenodd;stroke:#FF0000;stroke-width:2.0px;stroke-linecap:butt;stroke-linejoin:miter;stroke-opacity:1"/>
<path class="bond-5 atom-5 atom-6" d="M 321.8,99.0 L 329.8,100.3" style="fill:none;fill-rule:evenodd;stroke:#FF0000;stroke-width:2.0px;stroke-linecap:butt;stroke-linejoin:miter;stroke-opacity:1"/>
<path class="bond-5 atom-5 atom-6" d="M 329.8,100.3 L 337.8,101.7" style="fill:none;fill-rule:evenodd;stroke:#000000;stroke-width:2.0px;stroke-linecap:butt;stroke-linejoin:miter;stroke-opacity:1"/>
<path class="bond-6 atom-6 atom-7" d="M 337.8,101.7 L 344.5,119.9" style="fill:none;fill-rule:evenodd;stroke:#000000;stroke-width:2.0px;stroke-linecap:butt;stroke-linejoin:miter;stroke-opacity:1"/>
<path class="bond-7 atom-7 atom-8" d="M 344.5,119.9 L 339.7,125.7" style="fill:none;fill-rule:evenodd;stroke:#000000;stroke-width:2.0px;stroke-linecap:butt;stroke-linejoin:miter;stroke-opacity:1"/>
<path class="bond-7 atom-7 atom-8" d="M 339.7,125.7 L 334.9,131.4" style="fill:none;fill-rule:evenodd;stroke:#FF0000;stroke-width:2.0px;stroke-linecap:butt;stroke-linejoin:miter;stroke-opacity:1"/>
<path class="bond-8 atom-6 atom-9" d="M 337.8,101.7 L 350.2,86.8" style="fill:none;fill-rule:evenodd;stroke:#000000;stroke-width:2.0px;stroke-linecap:butt;stroke-linejoin:miter;stroke-opacity:1"/>
<path class="bond-9 atom-9 atom-10" d="M 350.2,86.8 L 358.2,88.2" style="fill:none;fill-rule:evenodd;stroke:#000000;stroke-width:2.0px;stroke-linecap:butt;stroke-linejoin:miter;stroke-opacity:1"/>
<path class="bond-9 atom-9 atom-10" d="M 358.2,88.2 L 366.2,89.5" style="fill:none;fill-rule:evenodd;stroke:#FF0000;stroke-width:2.0px;stroke-linecap:butt;stroke-linejoin:miter;stroke-opacity:1"/>
<path class="bond-10 atom-9 atom-11" d="M 350.2,86.8 L 343.5,68.6" style="fill:none;fill-rule:evenodd;stroke:#000000;stroke-width:2.0px;stroke-linecap:butt;stroke-linejoin:miter;stroke-opacity:1"/>
<path class="bond-11 atom-11 atom-12" d="M 343.5,68.6 L 348.2,62.9" style="fill:none;fill-rule:evenodd;stroke:#000000;stroke-width:2.0px;stroke-linecap:butt;stroke-linejoin:miter;stroke-opacity:1"/>
<path class="bond-11 atom-11 atom-12" d="M 348.2,62.9 L 353.0,57.2" style="fill:none;fill-rule:evenodd;stroke:#FF0000;stroke-width:2.0px;stroke-linecap:butt;stroke-linejoin:miter;stroke-opacity:1"/>
<path class="bond-12 atom-11 atom-13" d="M 343.5,68.6 L 324.3,65.3" style="fill:none;fill-rule:evenodd;stroke:#000000;stroke-width:2.0px;stroke-linecap:butt;stroke-linejoin:miter;stroke-opacity:1"/>
<path class="bond-13 atom-13 atom-14" d="M 324.3,65.3 L 321.6,57.9" style="fill:none;fill-rule:evenodd;stroke:#000000;stroke-width:2.0px;stroke-linecap:butt;stroke-linejoin:miter;stroke-opacity:1"/>
<path class="bond-13 atom-13 atom-14" d="M 321.6,57.9 L 318.9,50.6" style="fill:none;fill-rule:evenodd;stroke:#FF0000;stroke-width:2.0px;stroke-linecap:butt;stroke-linejoin:miter;stroke-opacity:1"/>
<path class="bond-14 atom-2 atom-15" d="M 280.4,91.8 L 261.3,88.5" style="fill:none;fill-rule:evenodd;stroke:#000000;stroke-width:2.0px;stroke-linecap:butt;stroke-linejoin:miter;stroke-opacity:1"/>
<path class="bond-15 atom-15 atom-16" d="M 261.3,88.5 L 254.5,70.3" style="fill:none;fill-rule:evenodd;stroke:#000000;stroke-width:2.0px;stroke-linecap:butt;stroke-linejoin:miter;stroke-opacity:1"/>
<path class="bond-15 atom-15 atom-16" d="M 257.9,88.0 L 252.4,72.9" style="fill:none;fill-rule:evenodd;stroke:#000000;stroke-width:2.0px;stroke-linecap:butt;stroke-linejoin:miter;stroke-opacity:1"/>
<path class="bond-16 atom-16 atom-17" d="M 254.5,70.3 L 235.4,67.0" style="fill:none;fill-rule:evenodd;stroke:#000000;stroke-width:2.0px;stroke-linecap:butt;stroke-linejoin:miter;stroke-opacity:1"/>
<path class="bond-17 atom-17 atom-18" d="M 235.4,67.0 L 223.0,82.0" style="fill:none;fill-rule:evenodd;stroke:#000000;stroke-width:2.0px;stroke-linecap:butt;stroke-linejoin:miter;stroke-opacity:1"/>
<path class="bond-17 atom-17 atom-18" d="M 236.6,70.2 L 226.3,82.5" style="fill:none;fill-rule:evenodd;stroke:#000000;stroke-width:2.0px;stroke-linecap:butt;stroke-linejoin:miter;stroke-opacity:1"/>
<path class="bond-18 atom-18 atom-19" d="M 223.0,82.0 L 229.7,100.2" style="fill:none;fill-rule:evenodd;stroke:#000000;stroke-width:2.0px;stroke-linecap:butt;stroke-linejoin:miter;stroke-opacity:1"/>
<path class="bond-19 atom-19 atom-20" d="M 229.7,100.2 L 248.8,103.5" style="fill:none;fill-rule:evenodd;stroke:#000000;stroke-width:2.0px;stroke-linecap:butt;stroke-linejoin:miter;stroke-opacity:1"/>
<path class="bond-19 atom-19 atom-20" d="M 231.9,97.6 L 247.7,100.3" style="fill:none;fill-rule:evenodd;stroke:#000000;stroke-width:2.0px;stroke-linecap:butt;stroke-linejoin:miter;stroke-opacity:1"/>
<path class="bond-20 atom-13 atom-4" d="M 324.3,65.3 L 311.9,80.2" style="fill:none;fill-rule:evenodd;stroke:#000000;stroke-width:2.0px;stroke-linecap:butt;stroke-linejoin:miter;stroke-opacity:1"/>
<path class="bond-21 atom-20 atom-15" d="M 248.8,103.5 L 261.3,88.5" style="fill:none;fill-rule:evenodd;stroke:#000000;stroke-width:2.0px;stroke-linecap:butt;stroke-linejoin:miter;stroke-opacity:1"/>
<path d="M 287.2,110.4 L 287.1,110.0 L 286.8,109.1" style="fill:none;stroke:#000000;stroke-width:2.0px;stroke-linecap:butt;stroke-linejoin:miter;stroke-opacity:1;"/>
<path d="M 344.2,119.0 L 344.5,119.9 L 344.2,120.2" style="fill:none;stroke:#000000;stroke-width:2.0px;stroke-linecap:butt;stroke-linejoin:miter;stroke-opacity:1;"/>
<path d="M 254.9,71.2 L 254.5,70.3 L 253.6,70.2" style="fill:none;stroke:#000000;stroke-width:2.0px;stroke-linecap:butt;stroke-linejoin:miter;stroke-opacity:1;"/>
<path d="M 236.4,67.2 L 235.4,67.0 L 234.8,67.8" style="fill:none;stroke:#000000;stroke-width:2.0px;stroke-linecap:butt;stroke-linejoin:miter;stroke-opacity:1;"/>
<path d="M 223.6,81.2 L 223.0,82.0 L 223.3,82.9" style="fill:none;stroke:#000000;stroke-width:2.0px;stroke-linecap:butt;stroke-linejoin:miter;stroke-opacity:1;"/>
<path d="M 229.4,99.3 L 229.7,100.2 L 230.7,100.3" style="fill:none;stroke:#000000;stroke-width:2.0px;stroke-linecap:butt;stroke-linejoin:miter;stroke-opacity:1;"/>
<path d="M 247.9,103.3 L 248.8,103.5 L 249.5,102.7" style="fill:none;stroke:#000000;stroke-width:2.0px;stroke-linecap:butt;stroke-linejoin:miter;stroke-opacity:1;"/>
<path class="atom-0" d="M 292.6 125.5 L 294.4 128.4 Q 294.6 128.7, 294.9 129.2 Q 295.2 129.7, 295.2 129.8 L 295.2 125.5 L 295.9 125.5 L 295.9 131.0 L 295.1 131.0 L 293.2 127.8 Q 293.0 127.5, 292.8 127.0 Q 292.5 126.6, 292.4 126.5 L 292.4 131.0 L 291.7 131.0 L 291.7 125.5 L 292.6 125.5 " fill="#0000FF"/>
<path class="atom-3" d="M 290.3 76.9 Q 290.3 75.6, 290.9 74.9 Q 291.6 74.1, 292.8 74.1 Q 294.0 74.1, 294.7 74.9 Q 295.3 75.6, 295.3 76.9 Q 295.3 78.3, 294.7 79.0 Q 294.0 79.8, 292.8 79.8 Q 291.6 79.8, 290.9 79.0 Q 290.3 78.3, 290.3 76.9 M 292.8 79.2 Q 293.6 79.2, 294.1 78.6 Q 294.5 78.0, 294.5 76.9 Q 294.5 75.9, 294.1 75.3 Q 293.6 74.8, 292.8 74.8 Q 292.0 74.8, 291.5 75.3 Q 291.1 75.8, 291.1 76.9 Q 291.1 78.0, 291.5 78.6 Q 292.0 79.2, 292.8 79.2 " fill="#FF0000"/>
<path class="atom-5" d="M 316.1 98.4 Q 316.1 97.1, 316.8 96.4 Q 317.4 95.6, 318.6 95.6 Q 319.9 95.6, 320.5 96.4 Q 321.2 97.1, 321.2 98.4 Q 321.2 99.8, 320.5 100.5 Q 319.8 101.3, 318.6 101.3 Q 317.4 101.3, 316.8 100.5 Q 316.1 99.8, 316.1 98.4 M 318.6 100.7 Q 319.5 100.7, 319.9 100.1 Q 320.4 99.5, 320.4 98.4 Q 320.4 97.4, 319.9 96.8 Q 319.5 96.3, 318.6 96.3 Q 317.8 96.3, 317.3 96.8 Q 316.9 97.3, 316.9 98.4 Q 316.9 99.5, 317.3 100.1 Q 317.8 100.7, 318.6 100.7 " fill="#FF0000"/>
<path class="atom-8" d="M 324.1 132.1 L 324.9 132.1 L 324.9 134.5 L 327.7 134.5 L 327.7 132.1 L 328.4 132.1 L 328.4 137.6 L 327.7 137.6 L 327.7 135.1 L 324.9 135.1 L 324.9 137.6 L 324.1 137.6 L 324.1 132.1 " fill="#FF0000"/>
<path class="atom-8" d="M 329.6 134.9 Q 329.6 133.5, 330.2 132.8 Q 330.9 132.1, 332.1 132.1 Q 333.3 132.1, 333.9 132.8 Q 334.6 133.5, 334.6 134.9 Q 334.6 136.2, 333.9 137.0 Q 333.3 137.7, 332.1 137.7 Q 330.9 137.7, 330.2 137.0 Q 329.6 136.2, 329.6 134.9 M 332.1 137.1 Q 332.9 137.1, 333.4 136.5 Q 333.8 136.0, 333.8 134.9 Q 333.8 133.8, 333.4 133.2 Q 332.9 132.7, 332.1 132.7 Q 331.2 132.7, 330.8 133.2 Q 330.3 133.8, 330.3 134.9 Q 330.3 136.0, 330.8 136.5 Q 331.2 137.1, 332.1 137.1 " fill="#FF0000"/>
<path class="atom-10" d="M 366.8 90.1 Q 366.8 88.8, 367.4 88.0 Q 368.1 87.3, 369.3 87.3 Q 370.5 87.3, 371.2 88.0 Q 371.8 88.8, 371.8 90.1 Q 371.8 91.4, 371.2 92.2 Q 370.5 92.9, 369.3 92.9 Q 368.1 92.9, 367.4 92.2 Q 366.8 91.4, 366.8 90.1 M 369.3 92.3 Q 370.2 92.3, 370.6 91.8 Q 371.1 91.2, 371.1 90.1 Q 371.1 89.0, 370.6 88.5 Q 370.2 87.9, 369.3 87.9 Q 368.5 87.9, 368.0 88.5 Q 367.6 89.0, 367.6 90.1 Q 367.6 91.2, 368.0 91.8 Q 368.5 92.3, 369.3 92.3 " fill="#FF0000"/>
<path class="atom-10" d="M 372.7 87.4 L 373.4 87.4 L 373.4 89.7 L 376.2 89.7 L 376.2 87.4 L 377.0 87.4 L 377.0 92.9 L 376.2 92.9 L 376.2 90.3 L 373.4 90.3 L 373.4 92.9 L 372.7 92.9 L 372.7 87.4 " fill="#FF0000"/>
<path class="atom-12" d="M 353.4 53.7 Q 353.4 52.4, 354.0 51.6 Q 354.7 50.9, 355.9 50.9 Q 357.1 50.9, 357.8 51.6 Q 358.4 52.4, 358.4 53.7 Q 358.4 55.0, 357.7 55.8 Q 357.1 56.5, 355.9 56.5 Q 354.7 56.5, 354.0 55.8 Q 353.4 55.0, 353.4 53.7 M 355.9 55.9 Q 356.7 55.9, 357.2 55.3 Q 357.6 54.8, 357.6 53.7 Q 357.6 52.6, 357.2 52.0 Q 356.7 51.5, 355.9 51.5 Q 355.0 51.5, 354.6 52.0 Q 354.1 52.6, 354.1 53.7 Q 354.1 54.8, 354.6 55.3 Q 355.0 55.9, 355.9 55.9 " fill="#FF0000"/>
<path class="atom-12" d="M 359.3 50.9 L 360.0 50.9 L 360.0 53.3 L 362.8 53.3 L 362.8 50.9 L 363.6 50.9 L 363.6 56.4 L 362.8 56.4 L 362.8 53.9 L 360.0 53.9 L 360.0 56.4 L 359.3 56.4 L 359.3 50.9 " fill="#FF0000"/>
<path class="atom-14" d="M 309.7 44.4 L 310.4 44.4 L 310.4 46.7 L 313.2 46.7 L 313.2 44.4 L 314.0 44.4 L 314.0 49.9 L 313.2 49.9 L 313.2 47.3 L 310.4 47.3 L 310.4 49.9 L 309.7 49.9 L 309.7 44.4 " fill="#FF0000"/>
<path class="atom-14" d="M 315.1 47.1 Q 315.1 45.8, 315.8 45.0 Q 316.4 44.3, 317.6 44.3 Q 318.8 44.3, 319.5 45.0 Q 320.2 45.8, 320.2 47.1 Q 320.2 48.4, 319.5 49.2 Q 318.8 49.9, 317.6 49.9 Q 316.4 49.9, 315.8 49.2 Q 315.1 48.4, 315.1 47.1 M 317.6 49.3 Q 318.5 49.3, 318.9 48.8 Q 319.4 48.2, 319.4 47.1 Q 319.4 46.0, 318.9 45.5 Q 318.5 44.9, 317.6 44.9 Q 316.8 44.9, 316.3 45.5 Q 315.9 46.0, 315.9 47.1 Q 315.9 48.2, 316.3 48.8 Q 316.8 49.3, 317.6 49.3 " fill="#FF0000"/>
<path class="legend" d="M 301.7 184.0 Q 302.7 184.4, 303.3 185.0 Q 303.8 185.7, 303.8 186.7 Q 303.8 188.2, 302.8 189.1 Q 301.8 190.0, 300.0 190.0 L 296.2 190.0 L 296.2 178.7 L 299.5 178.7 Q 301.4 178.7, 302.4 179.5 Q 303.4 180.2, 303.4 181.7 Q 303.4 183.4, 301.7 184.0 M 297.7 180.0 L 297.7 183.5 L 299.5 183.5 Q 300.6 183.5, 301.2 183.1 Q 301.8 182.6, 301.8 181.7 Q 301.8 180.0, 299.5 180.0 L 297.7 180.0 M 300.0 188.7 Q 301.1 188.7, 301.7 188.2 Q 302.2 187.7, 302.2 186.7 Q 302.2 185.7, 301.6 185.3 Q 301.0 184.8, 299.7 184.8 L 297.7 184.8 L 297.7 188.7 L 300.0 188.7 " fill="#000000"/>
<path class="bond-0 atom-0 atom-1" d="M 410.0,89.0 L 428.3,82.5" style="fill:none;fill-rule:evenodd;stroke:#000000;stroke-width:2.0px;stroke-linecap:butt;stroke-linejoin:miter;stroke-opacity:1"/>
<path class="bond-1 atom-1 atom-2" d="M 428.3,82.5 L 443.1,95.0" style="fill:none;fill-rule:evenodd;stroke:#000000;stroke-width:2.0px;stroke-linecap:butt;stroke-linejoin:miter;stroke-opacity:1"/>
<path class="bond-2 atom-2 atom-3" d="M 443.1,95.0 L 441.6,102.9" style="fill:none;fill-rule:evenodd;stroke:#000000;stroke-width:2.0px;stroke-linecap:butt;stroke-linejoin:miter;stroke-opacity:1"/>
<path class="bond-2 atom-2 atom-3" d="M 441.6,102.9 L 440.2,110.7" style="fill:none;fill-rule:evenodd;stroke:#FF0000;stroke-width:2.0px;stroke-linecap:butt;stroke-linejoin:miter;stroke-opacity:1"/>
<path class="bond-3 atom-2 atom-4" d="M 443.1,95.0 L 461.3,88.5" style="fill:none;fill-rule:evenodd;stroke:#000000;stroke-width:2.0px;stroke-linecap:butt;stroke-linejoin:miter;stroke-opacity:1"/>
<path class="bond-4 atom-4 atom-5" d="M 461.3,88.5 L 462.8,80.7" style="fill:none;fill-rule:evenodd;stroke:#000000;stroke-width:2.0px;stroke-linecap:butt;stroke-linejoin:miter;stroke-opacity:1"/>
<path class="bond-4 atom-4 atom-5" d="M 462.8,80.7 L 464.2,72.9" style="fill:none;fill-rule:evenodd;stroke:#FF0000;stroke-width:2.0px;stroke-linecap:butt;stroke-linejoin:miter;stroke-opacity:1"/>
<path class="bond-5 atom-4 atom-6" d="M 461.3,88.5 L 476.2,101.0" style="fill:none;fill-rule:evenodd;stroke:#000000;stroke-width:2.0px;stroke-linecap:butt;stroke-linejoin:miter;stroke-opacity:1"/>
<path class="bond-6 atom-6 atom-7" d="M 476.2,101.0 L 483.7,98.3" style="fill:none;fill-rule:evenodd;stroke:#000000;stroke-width:2.0px;stroke-linecap:butt;stroke-linejoin:miter;stroke-opacity:1"/>
<path class="bond-6 atom-6 atom-7" d="M 483.7,98.3 L 491.3,95.6" style="fill:none;fill-rule:evenodd;stroke:#FF0000;stroke-width:2.0px;stroke-linecap:butt;stroke-linejoin:miter;stroke-opacity:1"/>
<path class="bond-7 atom-7 atom-8" d="M 497.6,97.2 L 503.4,102.1" style="fill:none;fill-rule:evenodd;stroke:#FF0000;stroke-width:2.0px;stroke-linecap:butt;stroke-linejoin:miter;stroke-opacity:1"/>
<path class="bond-7 atom-7 atom-8" d="M 503.4,102.1 L 509.2,107.0" style="fill:none;fill-rule:evenodd;stroke:#000000;stroke-width:2.0px;stroke-linecap:butt;stroke-linejoin:miter;stroke-opacity:1"/>
<path class="bond-8 atom-8 atom-9" d="M 507.9,106.0 L 506.4,114.2" style="fill:none;fill-rule:evenodd;stroke:#000000;stroke-width:2.0px;stroke-linecap:butt;stroke-linejoin:miter;stroke-opacity:1"/>
<path class="bond-8 atom-8 atom-9" d="M 506.4,114.2 L 504.9,122.5" style="fill:none;fill-rule:evenodd;stroke:#FF0000;stroke-width:2.0px;stroke-linecap:butt;stroke-linejoin:miter;stroke-opacity:1"/>
<path class="bond-8 atom-8 atom-9" d="M 510.8,106.5 L 509.3,114.7" style="fill:none;fill-rule:evenodd;stroke:#000000;stroke-width:2.0px;stroke-linecap:butt;stroke-linejoin:miter;stroke-opacity:1"/>
<path class="bond-8 atom-8 atom-9" d="M 509.3,114.7 L 507.8,123.0" style="fill:none;fill-rule:evenodd;stroke:#FF0000;stroke-width:2.0px;stroke-linecap:butt;stroke-linejoin:miter;stroke-opacity:1"/>
<path class="bond-9 atom-8 atom-10" d="M 509.2,107.0 L 527.5,100.5" style="fill:none;fill-rule:evenodd;stroke:#000000;stroke-width:2.0px;stroke-linecap:butt;stroke-linejoin:miter;stroke-opacity:1"/>
<path class="bond-10 atom-10 atom-11" d="M 527.5,100.5 L 531.0,81.4" style="fill:none;fill-rule:evenodd;stroke:#000000;stroke-width:2.0px;stroke-linecap:butt;stroke-linejoin:miter;stroke-opacity:1"/>
<path class="bond-10 atom-10 atom-11" d="M 530.7,99.4 L 533.5,83.6" style="fill:none;fill-rule:evenodd;stroke:#000000;stroke-width:2.0px;stroke-linecap:butt;stroke-linejoin:miter;stroke-opacity:1"/>
<path class="bond-11 atom-11 atom-12" d="M 531.0,81.4 L 549.2,74.9" style="fill:none;fill-rule:evenodd;stroke:#000000;stroke-width:2.0px;stroke-linecap:butt;stroke-linejoin:miter;stroke-opacity:1"/>
<path class="bond-12 atom-12 atom-13" d="M 549.2,74.9 L 550.7,67.1" style="fill:none;fill-rule:evenodd;stroke:#000000;stroke-width:2.0px;stroke-linecap:butt;stroke-linejoin:miter;stroke-opacity:1"/>
<path class="bond-12 atom-12 atom-13" d="M 550.7,67.1 L 552.1,59.3" style="fill:none;fill-rule:evenodd;stroke:#FF0000;stroke-width:2.0px;stroke-linecap:butt;stroke-linejoin:miter;stroke-opacity:1"/>
<path class="bond-13 atom-12 atom-14" d="M 549.2,74.9 L 564.0,87.4" style="fill:none;fill-rule:evenodd;stroke:#000000;stroke-width:2.0px;stroke-linecap:butt;stroke-linejoin:miter;stroke-opacity:1"/>
<path class="bond-13 atom-12 atom-14" d="M 548.6,78.2 L 560.9,88.6" style="fill:none;fill-rule:evenodd;stroke:#000000;stroke-width:2.0px;stroke-linecap:butt;stroke-linejoin:miter;stroke-opacity:1"/>
<path class="bond-14 atom-14 atom-15" d="M 564.0,87.4 L 571.6,84.7" style="fill:none;fill-rule:evenodd;stroke:#000000;stroke-width:2.0px;stroke-linecap:butt;stroke-linejoin:miter;stroke-opacity:1"/>
<path class="bond-14 atom-14 atom-15" d="M 571.6,84.7 L 579.2,82.0" style="fill:none;fill-rule:evenodd;stroke:#FF0000;stroke-width:2.0px;stroke-linecap:butt;stroke-linejoin:miter;stroke-opacity:1"/>
<path class="bond-15 atom-14 atom-16" d="M 564.0,87.4 L 560.6,106.5" style="fill:none;fill-rule:evenodd;stroke:#000000;stroke-width:2.0px;stroke-linecap:butt;stroke-linejoin:miter;stroke-opacity:1"/>
<path class="bond-16 atom-16 atom-17" d="M 560.6,106.5 L 566.4,111.5" style="fill:none;fill-rule:evenodd;stroke:#000000;stroke-width:2.0px;stroke-linecap:butt;stroke-linejoin:miter;stroke-opacity:1"/>
<path class="bond-16 atom-16 atom-17" d="M 566.4,111.5 L 572.2,116.4" style="fill:none;fill-rule:evenodd;stroke:#FF0000;stroke-width:2.0px;stroke-linecap:butt;stroke-linejoin:miter;stroke-opacity:1"/>
<path class="bond-17 atom-16 atom-18" d="M 560.6,106.5 L 542.3,113.1" style="fill:none;fill-rule:evenodd;stroke:#000000;stroke-width:2.0px;stroke-linecap:butt;stroke-linejoin:miter;stroke-opacity:1"/>
<path class="bond-17 atom-16 atom-18" d="M 558.0,104.3 L 542.9,109.8" style="fill:none;fill-rule:evenodd;stroke:#000000;stroke-width:2.0px;stroke-linecap:butt;stroke-linejoin:miter;stroke-opacity:1"/>
<path class="bond-18 atom-18 atom-10" d="M 542.3,113.1 L 527.5,100.5" style="fill:none;fill-rule:evenodd;stroke:#000000;stroke-width:2.0px;stroke-linecap:butt;stroke-linejoin:miter;stroke-opacity:1"/>
<path d="M 427.4,82.8 L 428.3,82.5 L 429.0,83.1" style="fill:none;stroke:#000000;stroke-width:2.0px;stroke-linecap:butt;stroke-linejoin:miter;stroke-opacity:1;"/>
<path d="M 475.4,100.4 L 476.2,101.0 L 476.5,100.9" style="fill:none;stroke:#000000;stroke-width:2.0px;stroke-linecap:butt;stroke-linejoin:miter;stroke-opacity:1;"/>
<path d="M 508.9,106.8 L 509.2,107.0 L 510.1,106.7" style="fill:none;stroke:#000000;stroke-width:2.0px;stroke-linecap:butt;stroke-linejoin:miter;stroke-opacity:1;"/>
<path d="M 530.8,82.4 L 531.0,81.4 L 531.9,81.1" style="fill:none;stroke:#000000;stroke-width:2.0px;stroke-linecap:butt;stroke-linejoin:miter;stroke-opacity:1;"/>
<path d="M 543.2,112.7 L 542.3,113.1 L 541.6,112.4" style="fill:none;stroke:#000000;stroke-width:2.0px;stroke-linecap:butt;stroke-linejoin:miter;stroke-opacity:1;"/>
<path class="atom-3" d="M 437.1 114.1 Q 437.1 112.8, 437.7 112.1 Q 438.4 111.3, 439.6 111.3 Q 440.8 111.3, 441.5 112.1 Q 442.1 112.8, 442.1 114.1 Q 442.1 115.5, 441.5 116.2 Q 440.8 117.0, 439.6 117.0 Q 438.4 117.0, 437.7 116.2 Q 437.1 115.5, 437.1 114.1 M 439.6 116.4 Q 440.4 116.4, 440.9 115.8 Q 441.3 115.2, 441.3 114.1 Q 441.3 113.0, 440.9 112.5 Q 440.4 112.0, 439.6 112.0 Q 438.8 112.0, 438.3 112.5 Q 437.9 113.0, 437.9 114.1 Q 437.9 115.2, 438.3 115.8 Q 438.8 116.4, 439.6 116.4 " fill="#FF0000"/>
<path class="atom-3" d="M 443.0 111.4 L 443.7 111.4 L 443.7 113.7 L 446.5 113.7 L 446.5 111.4 L 447.3 111.4 L 447.3 116.9 L 446.5 116.9 L 446.5 114.4 L 443.7 114.4 L 443.7 116.9 L 443.0 116.9 L 443.0 111.4 " fill="#FF0000"/>
<path class="atom-5" d="M 462.3 69.4 Q 462.3 68.1, 463.0 67.3 Q 463.6 66.6, 464.8 66.6 Q 466.0 66.6, 466.7 67.3 Q 467.3 68.1, 467.3 69.4 Q 467.3 70.7, 466.7 71.5 Q 466.0 72.2, 464.8 72.2 Q 463.6 72.2, 463.0 71.5 Q 462.3 70.7, 462.3 69.4 M 464.8 71.6 Q 465.7 71.6, 466.1 71.1 Q 466.6 70.5, 466.6 69.4 Q 466.6 68.3, 466.1 67.8 Q 465.7 67.2, 464.8 67.2 Q 464.0 67.2, 463.5 67.8 Q 463.1 68.3, 463.1 69.4 Q 463.1 70.5, 463.5 71.1 Q 464.0 71.6, 464.8 71.6 " fill="#FF0000"/>
<path class="atom-5" d="M 468.2 66.7 L 468.9 66.7 L 468.9 69.0 L 471.8 69.0 L 471.8 66.7 L 472.5 66.7 L 472.5 72.2 L 471.8 72.2 L 471.8 69.6 L 468.9 69.6 L 468.9 72.2 L 468.2 72.2 L 468.2 66.7 " fill="#FF0000"/>
<path class="atom-7" d="M 491.9 94.5 Q 491.9 93.2, 492.6 92.4 Q 493.2 91.7, 494.4 91.7 Q 495.6 91.7, 496.3 92.4 Q 496.9 93.2, 496.9 94.5 Q 496.9 95.8, 496.3 96.6 Q 495.6 97.4, 494.4 97.4 Q 493.2 97.4, 492.6 96.6 Q 491.9 95.8, 491.9 94.5 M 494.4 96.7 Q 495.3 96.7, 495.7 96.2 Q 496.2 95.6, 496.2 94.5 Q 496.2 93.4, 495.7 92.9 Q 495.3 92.3, 494.4 92.3 Q 493.6 92.3, 493.1 92.9 Q 492.7 93.4, 492.7 94.5 Q 492.7 95.6, 493.1 96.2 Q 493.6 96.7, 494.4 96.7 " fill="#FF0000"/>
<path class="atom-9" d="M 503.2 126.2 Q 503.2 124.8, 503.9 124.1 Q 504.5 123.4, 505.8 123.4 Q 507.0 123.4, 507.6 124.1 Q 508.3 124.8, 508.3 126.2 Q 508.3 127.5, 507.6 128.3 Q 507.0 129.0, 505.8 129.0 Q 504.5 129.0, 503.9 128.3 Q 503.2 127.5, 503.2 126.2 M 505.8 128.4 Q 506.6 128.4, 507.0 127.8 Q 507.5 127.3, 507.5 126.2 Q 507.5 125.1, 507.0 124.5 Q 506.6 124.0, 505.8 124.0 Q 504.9 124.0, 504.5 124.5 Q 504.0 125.1, 504.0 126.2 Q 504.0 127.3, 504.5 127.8 Q 504.9 128.4, 505.8 128.4 " fill="#FF0000"/>
<path class="atom-13" d="M 550.2 55.8 Q 550.2 54.5, 550.8 53.7 Q 551.5 53.0, 552.7 53.0 Q 553.9 53.0, 554.6 53.7 Q 555.2 54.5, 555.2 55.8 Q 555.2 57.1, 554.6 57.9 Q 553.9 58.6, 552.7 58.6 Q 551.5 58.6, 550.8 57.9 Q 550.2 57.1, 550.2 55.8 M 552.7 58.0 Q 553.6 58.0, 554.0 57.5 Q 554.5 56.9, 554.5 55.8 Q 554.5 54.7, 554.0 54.2 Q 553.6 53.6, 552.7 53.6 Q 551.9 53.6, 551.4 54.2 Q 551.0 54.7, 551.0 55.8 Q 551.0 56.9, 551.4 57.5 Q 551.9 58.0, 552.7 58.0 " fill="#FF0000"/>
<path class="atom-13" d="M 556.1 53.1 L 556.8 53.1 L 556.8 55.4 L 559.7 55.4 L 559.7 53.1 L 560.4 53.1 L 560.4 58.6 L 559.7 58.6 L 559.7 56.0 L 556.8 56.0 L 556.8 58.6 L 556.1 58.6 L 556.1 53.1 " fill="#FF0000"/>
<path class="atom-15" d="M 579.8 80.9 Q 579.8 79.6, 580.4 78.8 Q 581.1 78.1, 582.3 78.1 Q 583.5 78.1, 584.2 78.8 Q 584.8 79.6, 584.8 80.9 Q 584.8 82.2, 584.2 83.0 Q 583.5 83.7, 582.3 83.7 Q 581.1 83.7, 580.4 83.0 Q 579.8 82.2, 579.8 80.9 M 582.3 83.1 Q 583.2 83.1, 583.6 82.6 Q 584.1 82.0, 584.1 80.9 Q 584.1 79.8, 583.6 79.3 Q 583.2 78.7, 582.3 78.7 Q 581.5 78.7, 581.0 79.3 Q 580.6 79.8, 580.6 80.9 Q 580.6 82.0, 581.0 82.6 Q 581.5 83.1, 582.3 83.1 " fill="#FF0000"/>
<path class="atom-15" d="M 585.7 78.2 L 586.4 78.2 L 586.4 80.5 L 589.3 80.5 L 589.3 78.2 L 590.0 78.2 L 590.0 83.7 L 589.3 83.7 L 589.3 81.1 L 586.4 81.1 L 586.4 83.7 L 585.7 83.7 L 585.7 78.2 " fill="#FF0000"/>
<path class="atom-17" d="M 572.9 119.1 Q 572.9 117.8, 573.5 117.0 Q 574.2 116.3, 575.4 116.3 Q 576.6 116.3, 577.2 117.0 Q 577.9 117.8, 577.9 119.1 Q 577.9 120.4, 577.2 121.2 Q 576.6 121.9, 575.4 121.9 Q 574.2 121.9, 573.5 121.2 Q 572.9 120.4, 572.9 119.1 M 575.4 121.3 Q 576.2 121.3, 576.7 120.8 Q 577.1 120.2, 577.1 119.1 Q 577.1 118.0, 576.7 117.5 Q 576.2 116.9, 575.4 116.9 Q 574.5 116.9, 574.1 117.5 Q 573.6 118.0, 573.6 119.1 Q 573.6 120.2, 574.1 120.8 Q 574.5 121.3, 575.4 121.3 " fill="#FF0000"/>
<path class="atom-17" d="M 578.8 116.4 L 579.5 116.4 L 579.5 118.7 L 582.3 118.7 L 582.3 116.4 L 583.1 116.4 L 583.1 121.9 L 582.3 121.9 L 582.3 119.3 L 579.5 119.3 L 579.5 121.9 L 578.8 121.9 L 578.8 116.4 " fill="#FF0000"/>
<path class="legend" d="M 495.6 184.2 Q 495.6 181.4, 496.9 179.9 Q 498.3 178.4, 500.8 178.4 Q 503.1 178.4, 504.4 180.0 L 503.3 180.9 Q 502.4 179.7, 500.8 179.7 Q 499.1 179.7, 498.2 180.9 Q 497.3 182.0, 497.3 184.2 Q 497.3 186.4, 498.2 187.6 Q 499.1 188.7, 501.0 188.7 Q 502.2 188.7, 503.7 188.0 L 504.1 189.2 Q 503.5 189.6, 502.6 189.8 Q 501.7 190.0, 500.7 190.0 Q 498.3 190.0, 496.9 188.5 Q 495.6 187.0, 495.6 184.2 " fill="#000000"/>
</svg>