<svg xmlns="http://www.w3.org/2000/svg" xmlns:rdkit="http://www.rdkit.org/xml" xmlns:xlink="http://www.w3.org/1999/xlink" version="1.1" baseProfile="full" xml:space="preserve" width="800px" height="200px" viewBox="0 0 800 200">
<!-- END OF HEADER -->
<rect style="opacity:1.0;fill:#FFFFFF;stroke:none" width="800.0" height="200.0" x="0.0" y="0.0"> </rect>
<path class="bond-0 atom-0 atom-1" d="M 132.1,58.4 L 114.7,88.6" style="fill:none;fill-rule:evenodd;stroke:#000000;stroke-width:2.0px;stroke-linecap:butt;stroke-linejoin:miter;stroke-opacity:1"/>
<path class="bond-1 atom-1 atom-2" d="M 114.7,88.6 L 121.6,100.6" style="fill:none;fill-rule:evenodd;stroke:#000000;stroke-width:2.0px;stroke-linecap:butt;stroke-linejoin:miter;stroke-opacity:1"/>
<path class="bond-1 atom-1 atom-2" d="M 121.6,100.6 L 128.6,112.6" style="fill:none;fill-rule:evenodd;stroke:#0000FF;stroke-width:2.0px;stroke-linecap:butt;stroke-linejoin:miter;stroke-opacity:1"/>
<path class="bond-2 atom-1 atom-3" d="M 114.7,88.6 L 79.9,88.6" style="fill:none;fill-rule:evenodd;stroke:#000000;stroke-width:2.0px;stroke-linecap:butt;stroke-linejoin:miter;stroke-opacity:1"/>
<path class="bond-3 atom-3 atom-4" d="M 82.9,88.6 L 75.7,76.0" style="fill:none;fill-rule:evenodd;stroke:#000000;stroke-width:2.0px;stroke-linecap:butt;stroke-linejoin:miter;stroke-opacity:1"/>
<path class="bond-3 atom-3 atom-4" d="M 75.7,76.0 L 68.4,63.4" style="fill:none;fill-rule:evenodd;stroke:#FF0000;stroke-width:2.0px;stroke-linecap:butt;stroke-linejoin:miter;stroke-opacity:1"/>
<path class="bond-3 atom-3 atom-4" d="M 78.4,91.2 L 71.2,78.6" style="fill:none;fill-rule:evenodd;stroke:#000000;stroke-width:2.0px;stroke-linecap:butt;stroke-linejoin:miter;stroke-opacity:1"/>
<path class="bond-3 atom-3 atom-4" d="M 71.2,78.6 L 63.9,66.0" style="fill:none;fill-rule:evenodd;stroke:#FF0000;stroke-width:2.0px;stroke-linecap:butt;stroke-linejoin:miter;stroke-opacity:1"/>
<path class="bond-4 atom-3 atom-5" d="M 79.9,88.6 L 73.0,100.6" style="fill:none;fill-rule:evenodd;stroke:#000000;stroke-width:2.0px;stroke-linecap:butt;stroke-linejoin:miter;stroke-opacity:1"/>
<path class="bond-4 atom-3 atom-5" d="M 73.0,100.6 L 66.1,112.6" style="fill:none;fill-rule:evenodd;stroke:#FF0000;stroke-width:2.0px;stroke-linecap:butt;stroke-linejoin:miter;stroke-opacity:1"/>
<path d="M 81.7,88.6 L 79.9,88.6 L 79.6,89.2" style="fill:none;stroke:#000000;stroke-width:2.0px;stroke-linecap:butt;stroke-linejoin:miter;stroke-opacity:1;"/>
<path class="atom-2" d="M 129.9 113.8 L 133.1 119.0 Q 133.5 119.5, 134.0 120.4 Q 134.5 121.4, 134.5 121.4 L 134.5 113.8 L 135.8 113.8 L 135.8 123.6 L 134.5 123.6 L 131.0 117.9 Q 130.6 117.2, 130.2 116.5 Q 129.8 115.7, 129.6 115.5 L 129.6 123.6 L 128.4 123.6 L 128.4 113.8 L 129.9 113.8 " fill="#0000FF"/>
<path class="atom-2" d="M 137.7 113.8 L 139.0 113.8 L 139.0 117.9 L 144.1 117.9 L 144.1 113.8 L 145.4 113.8 L 145.4 123.6 L 144.1 123.6 L 144.1 119.1 L 139.0 119.1 L 139.0 123.6 L 137.7 123.6 L 137.7 113.8 " fill="#0000FF"/>
<path class="atom-2" d="M 147.3 123.3 Q 147.6 122.6, 148.2 122.3 Q 148.7 122.0, 149.5 122.0 Q 150.5 122.0, 151.0 122.5 Q 151.6 123.0, 151.6 124.0 Q 151.6 124.9, 150.9 125.8 Q 150.2 126.7, 148.7 127.8 L 151.7 127.8 L 151.7 128.5 L 147.3 128.5 L 147.3 127.9 Q 148.5 127.1, 149.3 126.4 Q 150.0 125.8, 150.3 125.2 Q 150.7 124.6, 150.7 124.0 Q 150.7 123.4, 150.4 123.0 Q 150.1 122.7, 149.5 122.7 Q 149.0 122.7, 148.6 122.9 Q 148.3 123.1, 148.0 123.6 L 147.3 123.3 " fill="#0000FF"/>
<path class="atom-4" d="M 58.0 58.5 Q 58.0 56.1, 59.2 54.8 Q 60.4 53.5, 62.5 53.5 Q 64.7 53.5, 65.9 54.8 Q 67.1 56.1, 67.1 58.5 Q 67.1 60.9, 65.9 62.2 Q 64.7 63.6, 62.5 63.6 Q 60.4 63.6, 59.2 62.2 Q 58.0 60.9, 58.0 58.5 M 62.5 62.5 Q 64.0 62.5, 64.8 61.5 Q 65.7 60.5, 65.7 58.5 Q 65.7 56.5, 64.8 55.6 Q 64.0 54.6, 62.5 54.6 Q 61.0 54.6, 60.2 55.6 Q 59.4 56.5, 59.4 58.5 Q 59.4 60.5, 60.2 61.5 Q 61.0 62.5, 62.5 62.5 " fill="#FF0000"/>
<path class="atom-5" d="M 48.3 113.8 L 49.6 113.8 L 49.6 118.0 L 54.7 118.0 L 54.7 113.8 L 56.0 113.8 L 56.0 123.7 L 54.7 123.7 L 54.7 119.1 L 49.6 119.1 L 49.6 123.7 L 48.3 123.7 L 48.3 113.8 " fill="#FF0000"/>
<path class="atom-5" d="M 58.0 118.7 Q 58.0 116.3, 59.2 115.0 Q 60.4 113.7, 62.5 113.7 Q 64.7 113.7, 65.9 115.0 Q 67.1 116.3, 67.1 118.7 Q 67.1 121.1, 65.9 122.5 Q 64.7 123.8, 62.5 123.8 Q 60.4 123.8, 59.2 122.5 Q 58.0 121.1, 58.0 118.7 M 62.5 122.7 Q 64.0 122.7, 64.8 121.7 Q 65.7 120.7, 65.7 118.7 Q 65.7 116.8, 64.8 115.8 Q 64.0 114.8, 62.5 114.8 Q 61.0 114.8, 60.2 115.8 Q 59.4 116.8, 59.4 118.7 Q 59.4 120.7, 60.2 121.7 Q 61.0 122.7, 62.5 122.7 " fill="#FF0000"/>
<path class="legend" d="M 103.4 190.0 L 102.2 186.7 L 97.8 186.7 L 96.6 190.0 L 95.1 190.0 L 99.0 178.7 L 100.9 178.7 L 104.9 190.0 L 103.4 190.0 M 98.2 185.4 L 101.8 185.4 L 100.0 180.3 L 98.2 185.4 " fill="#000000"/>
<path class="bond-0 atom-0 atom-1" d="M 210.0,102.3 L 241.5,87.7" style="fill:none;fill-rule:evenodd;stroke:#000000;stroke-width:2.0px;stroke-linecap:butt;stroke-linejoin:miter;stroke-opacity:1"/>
<path class="bond-1 atom-1 atom-2" d="M 241.5,87.7 L 270.0,107.6" style="fill:none;fill-rule:evenodd;stroke:#000000;stroke-width:2.0px;stroke-linecap:butt;stroke-linejoin:miter;stroke-opacity:1"/>
<path class="bond-2 atom-2 atom-3" d="M 270.0,107.6 L 301.5,93.0" style="fill:none;fill-rule:evenodd;stroke:#000000;stroke-width:2.0px;stroke-linecap:butt;stroke-linejoin:miter;stroke-opacity:1"/>
<path class="bond-3 atom-3 atom-4" d="M 301.5,93.0 L 330.0,113.0" style="fill:none;fill-rule:evenodd;stroke:#000000;stroke-width:2.0px;stroke-linecap:butt;stroke-linejoin:miter;stroke-opacity:1"/>
<path class="bond-4 atom-4 atom-5" d="M 330.0,113.0 L 361.5,98.3" style="fill:none;fill-rule:evenodd;stroke:#000000;stroke-width:2.0px;stroke-linecap:butt;stroke-linejoin:miter;stroke-opacity:1"/>
<path class="bond-5 atom-5 atom-6" d="M 361.5,98.3 L 390.0,118.3" style="fill:none;fill-rule:evenodd;stroke:#000000;stroke-width:2.0px;stroke-linecap:butt;stroke-linejoin:miter;stroke-opacity:1"/>
<path class="bond-6 atom-5 atom-7" d="M 361.5,98.3 L 364.6,63.7" style="fill:none;fill-rule:evenodd;stroke:#000000;stroke-width:2.0px;stroke-linecap:butt;stroke-linejoin:miter;stroke-opacity:1"/>
<path d="M 240.0,88.4 L 241.5,87.7 L 243.0,88.7" style="fill:none;stroke:#000000;stroke-width:2.0px;stroke-linecap:butt;stroke-linejoin:miter;stroke-opacity:1;"/>
<path d="M 268.6,106.6 L 270.0,107.6 L 271.6,106.9" style="fill:none;stroke:#000000;stroke-width:2.0px;stroke-linecap:butt;stroke-linejoin:miter;stroke-opacity:1;"/>
<path d="M 300.0,93.7 L 301.5,93.0 L 303.0,94.0" style="fill:none;stroke:#000000;stroke-width:2.0px;stroke-linecap:butt;stroke-linejoin:miter;stroke-opacity:1;"/>
<path d="M 328.6,112.0 L 330.0,113.0 L 331.6,112.2" style="fill:none;stroke:#000000;stroke-width:2.0px;stroke-linecap:butt;stroke-linejoin:miter;stroke-opacity:1;"/>
<path class="legend" d="M 301.7 184.0 Q 302.7 184.4, 303.3 185.0 Q 303.8 185.7, 303.8 186.7 Q 303.8 188.2, 302.8 189.1 Q 301.8 190.0, 300.0 190.0 L 296.2 190.0 L 296.2 178.7 L 299.5 178.7 Q 301.4 178.7, 302.4 179.5 Q 303.4 180.2, 303.4 181.7 Q 303.4 183.4, 301.7 184.0 M 297.7 180.0 L 297.7 183.5 L 299.5 183.5 Q 300.6 183.5, 301.2 183.1 Q 301.8 182.6, 301.8 181.7 Q 301.8 180.0, 299.5 180.0 L 297.7 180.0 M 300.0 188.7 Q 301.1 188.7, 301.7 188.2 Q 302.2 187.7, 302.2 186.7 Q 302.2 185.7, 301.6 185.3 Q 301.0 184.8, 299.7 184.8 L 297.7 184.8 L 297.7 188.7 L 300.0 188.7 " fill="#000000"/>
</svg>