<svg xmlns="http://www.w3.org/2000/svg" xmlns:rdkit="http://www.rdkit.org/xml" xmlns:xlink="http://www.w3.org/1999/xlink" version="1.1" baseProfile="full" xml:space="preserve" width="800px" height="400px" viewBox="0 0 800 400">
<!-- END OF HEADER -->
<rect style="opacity:1.0;fill:#FFFFFF;stroke:none" width="800.0" height="400.0" x="0.0" y="0.0"> </rect>
<path class="bond-0 atom-0 atom-1" d="M 119.1,91.0 L 106.4,91.0" style="fill:none;fill-rule:evenodd;stroke:#000000;stroke-width:2.0px;stroke-linecap:butt;stroke-linejoin:miter;stroke-opacity:1"/>
<path class="bond-1 atom-1 atom-2" d="M 106.4,91.0 L 100.0,102.0" style="fill:none;fill-rule:evenodd;stroke:#000000;stroke-width:2.0px;stroke-linecap:butt;stroke-linejoin:miter;stroke-opacity:1"/>
<path class="bond-1 atom-1 atom-2" d="M 104.2,91.0 L 98.9,100.1" style="fill:none;fill-rule:evenodd;stroke:#000000;stroke-width:2.0px;stroke-linecap:butt;stroke-linejoin:miter;stroke-opacity:1"/>
<path class="bond-2 atom-2 atom-3" d="M 100.0,102.0 L 87.3,102.0" style="fill:none;fill-rule:evenodd;stroke:#000000;stroke-width:2.0px;stroke-linecap:butt;stroke-linejoin:miter;stroke-opacity:1"/>
<path class="bond-3 atom-3 atom-4" d="M 87.3,102.0 L 80.9,91.0" style="fill:none;fill-rule:evenodd;stroke:#000000;stroke-width:2.0px;stroke-linecap:butt;stroke-linejoin:miter;stroke-opacity:1"/>
<path class="bond-3 atom-3 atom-4" d="M 88.4,100.1 L 83.1,91.0" style="fill:none;fill-rule:evenodd;stroke:#000000;stroke-width:2.0px;stroke-linecap:butt;stroke-linejoin:miter;stroke-opacity:1"/>
<path class="bond-4 atom-4 atom-5" d="M 80.9,91.0 L 87.3,80.0" style="fill:none;fill-rule:evenodd;stroke:#000000;stroke-width:2.0px;stroke-linecap:butt;stroke-linejoin:miter;stroke-opacity:1"/>
<path class="bond-5 atom-5 atom-6" d="M 87.3,80.0 L 100.0,80.0" style="fill:none;fill-rule:evenodd;stroke:#000000;stroke-width:2.0px;stroke-linecap:butt;stroke-linejoin:miter;stroke-opacity:1"/>
<path class="bond-5 atom-5 atom-6" d="M 88.4,81.9 L 98.9,81.9" style="fill:none;fill-rule:evenodd;stroke:#000000;stroke-width:2.0px;stroke-linecap:butt;stroke-linejoin:miter;stroke-opacity:1"/>
<path class="bond-6 atom-6 atom-1" d="M 100.0,80.0 L 106.4,91.0" style="fill:none;fill-rule:evenodd;stroke:#000000;stroke-width:2.0px;stroke-linecap:butt;stroke-linejoin:miter;stroke-opacity:1"/>
<path d="M 100.3,101.5 L 100.0,102.0 L 99.4,102.0" style="fill:none;stroke:#000000;stroke-width:2.0px;stroke-linecap:butt;stroke-linejoin:miter;stroke-opacity:1;"/>
<path d="M 87.9,102.0 L 87.3,102.0 L 87.0,101.5" style="fill:none;stroke:#000000;stroke-width:2.0px;stroke-linecap:butt;stroke-linejoin:miter;stroke-opacity:1;"/>
<path d="M 81.2,91.6 L 80.9,91.0 L 81.2,90.4" style="fill:none;stroke:#000000;stroke-width:2.0px;stroke-linecap:butt;stroke-linejoin:miter;stroke-opacity:1;"/>
<path d="M 87.0,80.5 L 87.3,80.0 L 87.9,80.0" style="fill:none;stroke:#000000;stroke-width:2.0px;stroke-linecap:butt;stroke-linejoin:miter;stroke-opacity:1;"/>
<path d="M 99.4,80.0 L 100.0,80.0 L 100.3,80.5" style="fill:none;stroke:#000000;stroke-width:2.0px;stroke-linecap:butt;stroke-linejoin:miter;stroke-opacity:1;"/>
<path class="legend" d="M 103.4 190.0 L 102.2 186.7 L 97.8 186.7 L 96.6 190.0 L 95.1 190.0 L 99.0 178.7 L 100.9 178.7 L 104.9 190.0 L 103.4 190.0 M 98.2 185.4 L 101.8 185.4 L 100.0 180.3 L 98.2 185.4 " fill="#000000"/>
<path class="bond-0 atom-0 atom-1" d="M 280.2,92.2 L 292.0,87.2" style="fill:none;fill-rule:evenodd;stroke:#000000;stroke-width:2.0px;stroke-linecap:butt;stroke-linejoin:miter;stroke-opacity:1"/>
<path class="bond-1 atom-1 atom-2" d="M 292.0,87.2 L 302.1,94.8" style="fill:none;fill-rule:evenodd;stroke:#000000;stroke-width:2.0px;stroke-linecap:butt;stroke-linejoin:miter;stroke-opacity:1"/>
<path class="bond-2 atom-2 atom-3" d="M 302.1,94.8 L 306.8,92.8" style="fill:none;fill-rule:evenodd;stroke:#000000;stroke-width:2.0px;stroke-linecap:butt;stroke-linejoin:miter;stroke-opacity:1"/>
<path class="bond-2 atom-2 atom-3" d="M 306.8,92.8 L 311.4,90.9" style="fill:none;fill-rule:evenodd;stroke:#FF0000;stroke-width:2.0px;stroke-linecap:butt;stroke-linejoin:miter;stroke-opacity:1"/>
<path d="M 291.4,87.4 L 292.0,87.2 L 292.5,87.6" style="fill:none;stroke:#000000;stroke-width:2.0px;stroke-linecap:butt;stroke-linejoin:miter;stroke-opacity:1;"/>
<path d="M 301.6,94.4 L 302.1,94.8 L 302.3,94.7" style="fill:none;stroke:#000000;stroke-width:2.0px;stroke-linecap:butt;stroke-linejoin:miter;stroke-opacity:1;"/>
<path class="atom-3" d="M 311.9 89.9 Q 311.9 88.8, 312.4 88.3 Q 312.9 87.7, 313.8 87.7 Q 314.8 87.7, 315.3 88.3 Q 315.8 88.8, 315.8 89.9 Q 315.8 90.9, 315.3 91.5 Q 314.7 92.1, 313.8 92.1 Q 312.9 92.1, 312.4 91.5 Q 311.9 90.9, 311.9 89.9 M 313.8 91.6 Q 314.5 91.6, 314.8 91.1 Q 315.2 90.7, 315.2 89.9 Q 315.2 89.0, 314.8 88.6 Q 314.5 88.2, 313.8 88.2 Q 313.2 88.2, 312.8 88.6 Q 312.5 89.0, 312.5 89.9 Q 312.5 90.7, 312.8 91.1 Q 313.2 91.6, 313.8 91.6 " fill="#FF0000"/>
<path class="atom-3" d="M 316.4 87.7 L 317.0 87.7 L 317.0 89.5 L 319.2 89.5 L 319.2 87.7 L 319.8 87.7 L 319.8 92.0 L 319.2 92.0 L 319.2 90.0 L 317.0 90.0 L 317.0 92.0 L 316.4 92.0 L 316.4 87.7 " fill="#FF0000"/>
<path class="legend" d="M 301.7 184.0 Q 302.7 184.4, 303.3 185.0 Q 303.8 185.7, 303.8 186.7 Q 303.8 188.2, 302.8 189.1 Q 301.8 190.0, 300.0 190.0 L 296.2 190.0 L 296.2 178.7 L 299.5 178.7 Q 301.4 178.7, 302.4 179.5 Q 303.4 180.2, 303.4 181.7 Q 303.4 183.4, 301.7 184.0 M 297.7 180.0 L 297.7 183.5 L 299.5 183.5 Q 300.6 183.5, 301.2 183.1 Q 301.8 182.6, 301.8 181.7 Q 301.8 180.0, 299.5 180.0 L 297.7 180.0 M 300.0 188.7 Q 301.1 188.7, 301.7 188.2 Q 302.2 187.7, 302.2 186.7 Q 302.2 185.7, 301.6 185.3 Q 301.0 184.8, 299.7 184.8 L 297.7 184.8 L 297.7 188.7 L 300.0 188.7 " fill="#000000"/>
<path class="bond-0 atom-0 atom-1" d="M 561.3,100.2 L 559.1,95.9" style="fill:none;fill-rule:evenodd;stroke:#000000;stroke-width:2.0px;stroke-linecap:butt;stroke-linejoin:miter;stroke-opacity:1"/>
<path class="bond-0 atom-0 atom-1" d="M 559.1,95.9 L 556.9,91.5" style="fill:none;fill-rule:evenodd;stroke:#FF0000;stroke-width:2.0px;stroke-linecap:butt;stroke-linejoin:miter;stroke-opacity:1"/>
<path class="bond-1 atom-1 atom-2" d="M 553.2,88.7 L 548.0,88.5" style="fill:none;fill-rule:evenodd;stroke:#FF0000;stroke-width:2.0px;stroke-linecap:butt;stroke-linejoin:miter;stroke-opacity:1"/>
<path class="bond-1 atom-1 atom-2" d="M 548.0,88.5 L 542.8,88.2" style="fill:none;fill-rule:evenodd;stroke:#000000;stroke-width:2.0px;stroke-linecap:butt;stroke-linejoin:miter;stroke-opacity:1"/>
<path class="bond-2 atom-2 atom-3" d="M 542.8,88.2 L 535.9,98.8" style="fill:none;fill-rule:evenodd;stroke:#000000;stroke-width:2.0px;stroke-linecap:butt;stroke-linejoin:miter;stroke-opacity:1"/>
<path class="bond-2 atom-2 atom-3" d="M 540.6,88.1 L 534.9,96.9" style="fill:none;fill-rule:evenodd;stroke:#000000;stroke-width:2.0px;stroke-linecap:butt;stroke-linejoin:miter;stroke-opacity:1"/>
<path class="bond-3 atom-3 atom-4" d="M 535.9,98.8 L 523.2,98.1" style="fill:none;fill-rule:evenodd;stroke:#000000;stroke-width:2.0px;stroke-linecap:butt;stroke-linejoin:miter;stroke-opacity:1"/>
<path class="bond-4 atom-4 atom-5" d="M 523.2,98.1 L 516.2,108.8" style="fill:none;fill-rule:evenodd;stroke:#000000;stroke-width:2.0px;stroke-linecap:butt;stroke-linejoin:miter;stroke-opacity:1"/>
<path class="bond-5 atom-5 atom-6" d="M 516.2,108.8 L 503.5,108.1" style="fill:none;fill-rule:evenodd;stroke:#000000;stroke-width:2.0px;stroke-linecap:butt;stroke-linejoin:miter;stroke-opacity:1"/>
<path class="bond-6 atom-6 atom-7" d="M 503.5,108.1 L 495.5,118.0" style="fill:none;fill-rule:evenodd;stroke:#000000;stroke-width:2.0px;stroke-linecap:butt;stroke-linejoin:miter;stroke-opacity:1"/>
<path class="bond-7 atom-7 atom-8" d="M 495.5,118.0 L 490.8,116.1" style="fill:none;fill-rule:evenodd;stroke:#000000;stroke-width:2.0px;stroke-linecap:butt;stroke-linejoin:miter;stroke-opacity:1"/>
<path class="bond-7 atom-7 atom-8" d="M 490.8,116.1 L 486.0,114.3" style="fill:none;fill-rule:evenodd;stroke:#FF0000;stroke-width:2.0px;stroke-linecap:butt;stroke-linejoin:miter;stroke-opacity:1"/>
<path class="bond-8 atom-8 atom-9" d="M 483.8,110.8 L 484.1,105.7" style="fill:none;fill-rule:evenodd;stroke:#FF0000;stroke-width:2.0px;stroke-linecap:butt;stroke-linejoin:miter;stroke-opacity:1"/>
<path class="bond-8 atom-8 atom-9" d="M 484.1,105.7 L 484.3,100.7" style="fill:none;fill-rule:evenodd;stroke:#000000;stroke-width:2.0px;stroke-linecap:butt;stroke-linejoin:miter;stroke-opacity:1"/>
<path class="bond-9 atom-9 atom-10" d="M 484.3,100.7 L 474.5,92.6" style="fill:none;fill-rule:evenodd;stroke:#000000;stroke-width:2.0px;stroke-linecap:butt;stroke-linejoin:miter;stroke-opacity:1"/>
<path class="bond-10 atom-10 atom-11" d="M 474.5,92.6 L 476.5,80.1" style="fill:none;fill-rule:evenodd;stroke:#000000;stroke-width:2.0px;stroke-linecap:butt;stroke-linejoin:miter;stroke-opacity:1"/>
<path class="bond-10 atom-10 atom-11" d="M 472.8,91.3 L 474.4,80.9" style="fill:none;fill-rule:evenodd;stroke:#000000;stroke-width:2.0px;stroke-linecap:butt;stroke-linejoin:miter;stroke-opacity:1"/>
<path class="bond-11 atom-11 atom-12" d="M 476.5,80.1 L 466.6,72.1" style="fill:none;fill-rule:evenodd;stroke:#000000;stroke-width:2.0px;stroke-linecap:butt;stroke-linejoin:miter;stroke-opacity:1"/>
<path class="bond-12 atom-12 atom-13" d="M 466.6,72.1 L 454.7,76.6" style="fill:none;fill-rule:evenodd;stroke:#000000;stroke-width:2.0px;stroke-linecap:butt;stroke-linejoin:miter;stroke-opacity:1"/>
<path class="bond-12 atom-12 atom-13" d="M 466.3,74.2 L 456.4,78.0" style="fill:none;fill-rule:evenodd;stroke:#000000;stroke-width:2.0px;stroke-linecap:butt;stroke-linejoin:miter;stroke-opacity:1"/>
<path class="bond-13 atom-13 atom-14" d="M 454.7,76.6 L 451.0,73.5" style="fill:none;fill-rule:evenodd;stroke:#000000;stroke-width:2.0px;stroke-linecap:butt;stroke-linejoin:miter;stroke-opacity:1"/>
<path class="bond-13 atom-13 atom-14" d="M 451.0,73.5 L 447.2,70.5" style="fill:none;fill-rule:evenodd;stroke:#FF0000;stroke-width:2.0px;stroke-linecap:butt;stroke-linejoin:miter;stroke-opacity:1"/>
<path class="bond-14 atom-13 atom-15" d="M 454.7,76.6 L 452.7,89.2" style="fill:none;fill-rule:evenodd;stroke:#000000;stroke-width:2.0px;stroke-linecap:butt;stroke-linejoin:miter;stroke-opacity:1"/>
<path class="bond-15 atom-15 atom-16" d="M 452.7,89.2 L 448.0,91.0" style="fill:none;fill-rule:evenodd;stroke:#000000;stroke-width:2.0px;stroke-linecap:butt;stroke-linejoin:miter;stroke-opacity:1"/>
<path class="bond-15 atom-15 atom-16" d="M 448.0,91.0 L 443.2,92.8" style="fill:none;fill-rule:evenodd;stroke:#FF0000;stroke-width:2.0px;stroke-linecap:butt;stroke-linejoin:miter;stroke-opacity:1"/>
<path class="bond-16 atom-16 atom-17" d="M 440.4,96.3 L 439.6,101.3" style="fill:none;fill-rule:evenodd;stroke:#FF0000;stroke-width:2.0px;stroke-linecap:butt;stroke-linejoin:miter;stroke-opacity:1"/>
<path class="bond-16 atom-16 atom-17" d="M 439.6,101.3 L 438.8,106.2" style="fill:none;fill-rule:evenodd;stroke:#000000;stroke-width:2.0px;stroke-linecap:butt;stroke-linejoin:miter;stroke-opacity:1"/>
<path class="bond-17 atom-15 atom-18" d="M 452.7,89.2 L 462.6,97.2" style="fill:none;fill-rule:evenodd;stroke:#000000;stroke-width:2.0px;stroke-linecap:butt;stroke-linejoin:miter;stroke-opacity:1"/>
<path class="bond-17 atom-15 atom-18" d="M 454.8,88.4 L 462.9,95.0" style="fill:none;fill-rule:evenodd;stroke:#000000;stroke-width:2.0px;stroke-linecap:butt;stroke-linejoin:miter;stroke-opacity:1"/>
<path class="bond-18 atom-9 atom-19" d="M 484.3,100.7 L 496.6,97.4" style="fill:none;fill-rule:evenodd;stroke:#000000;stroke-width:2.0px;stroke-linecap:butt;stroke-linejoin:miter;stroke-opacity:1"/>
<path class="bond-19 atom-19 atom-20" d="M 496.6,97.4 L 501.2,85.5" style="fill:none;fill-rule:evenodd;stroke:#000000;stroke-width:2.0px;stroke-linecap:butt;stroke-linejoin:miter;stroke-opacity:1"/>
<path class="bond-20 atom-20 atom-21" d="M 501.2,85.5 L 498.3,81.9" style="fill:none;fill-rule:evenodd;stroke:#000000;stroke-width:2.0px;stroke-linecap:butt;stroke-linejoin:miter;stroke-opacity:1"/>
<path class="bond-20 atom-20 atom-21" d="M 498.3,81.9 L 495.4,78.3" style="fill:none;fill-rule:evenodd;stroke:#FF0000;stroke-width:2.0px;stroke-linecap:butt;stroke-linejoin:miter;stroke-opacity:1"/>
<path class="bond-21 atom-4 atom-22" d="M 523.2,98.1 L 517.4,86.8" style="fill:none;fill-rule:evenodd;stroke:#000000;stroke-width:2.0px;stroke-linecap:butt;stroke-linejoin:miter;stroke-opacity:1"/>
<path class="bond-21 atom-4 atom-22" d="M 524.4,96.3 L 519.6,86.9" style="fill:none;fill-rule:evenodd;stroke:#000000;stroke-width:2.0px;stroke-linecap:butt;stroke-linejoin:miter;stroke-opacity:1"/>
<path class="bond-22 atom-22 atom-23" d="M 517.4,86.8 L 524.4,76.1" style="fill:none;fill-rule:evenodd;stroke:#000000;stroke-width:2.0px;stroke-linecap:butt;stroke-linejoin:miter;stroke-opacity:1"/>
<path class="bond-23 atom-23 atom-24" d="M 524.4,76.1 L 537.1,76.8" style="fill:none;fill-rule:evenodd;stroke:#000000;stroke-width:2.0px;stroke-linecap:butt;stroke-linejoin:miter;stroke-opacity:1"/>
<path class="bond-23 atom-23 atom-24" d="M 525.4,78.1 L 535.9,78.7" style="fill:none;fill-rule:evenodd;stroke:#000000;stroke-width:2.0px;stroke-linecap:butt;stroke-linejoin:miter;stroke-opacity:1"/>
<path class="bond-24 atom-24 atom-25" d="M 537.1,76.8 L 539.7,72.8" style="fill:none;fill-rule:evenodd;stroke:#000000;stroke-width:2.0px;stroke-linecap:butt;stroke-linejoin:miter;stroke-opacity:1"/>
<path class="bond-24 atom-24 atom-25" d="M 539.7,72.8 L 542.3,68.8" style="fill:none;fill-rule:evenodd;stroke:#FF0000;stroke-width:2.0px;stroke-linecap:butt;stroke-linejoin:miter;stroke-opacity:1"/>
<path class="bond-25 atom-24 atom-2" d="M 537.1,76.8 L 542.8,88.2" style="fill:none;fill-rule:evenodd;stroke:#000000;stroke-width:2.0px;stroke-linecap:butt;stroke-linejoin:miter;stroke-opacity:1"/>
<path class="bond-26 atom-19 atom-6" d="M 496.6,97.4 L 503.5,108.1" style="fill:none;fill-rule:evenodd;stroke:#000000;stroke-width:2.0px;stroke-linecap:butt;stroke-linejoin:miter;stroke-opacity:1"/>
<path class="bond-27 atom-18 atom-10" d="M 462.6,97.2 L 474.5,92.6" style="fill:none;fill-rule:evenodd;stroke:#000000;stroke-width:2.0px;stroke-linecap:butt;stroke-linejoin:miter;stroke-opacity:1"/>
<path d="M 536.2,98.3 L 535.9,98.8 L 535.2,98.8" style="fill:none;stroke:#000000;stroke-width:2.0px;stroke-linecap:butt;stroke-linejoin:miter;stroke-opacity:1;"/>
<path d="M 516.6,108.3 L 516.2,108.8 L 515.6,108.8" style="fill:none;stroke:#000000;stroke-width:2.0px;stroke-linecap:butt;stroke-linejoin:miter;stroke-opacity:1;"/>
<path d="M 495.9,117.5 L 495.5,118.0 L 495.3,117.9" style="fill:none;stroke:#000000;stroke-width:2.0px;stroke-linecap:butt;stroke-linejoin:miter;stroke-opacity:1;"/>
<path d="M 476.4,80.7 L 476.5,80.1 L 476.0,79.7" style="fill:none;stroke:#000000;stroke-width:2.0px;stroke-linecap:butt;stroke-linejoin:miter;stroke-opacity:1;"/>
<path d="M 467.1,72.5 L 466.6,72.1 L 466.0,72.3" style="fill:none;stroke:#000000;stroke-width:2.0px;stroke-linecap:butt;stroke-linejoin:miter;stroke-opacity:1;"/>
<path d="M 462.1,96.8 L 462.6,97.2 L 463.2,97.0" style="fill:none;stroke:#000000;stroke-width:2.0px;stroke-linecap:butt;stroke-linejoin:miter;stroke-opacity:1;"/>
<path d="M 501.0,86.1 L 501.2,85.5 L 501.1,85.4" style="fill:none;stroke:#000000;stroke-width:2.0px;stroke-linecap:butt;stroke-linejoin:miter;stroke-opacity:1;"/>
<path d="M 517.7,87.4 L 517.4,86.8 L 517.8,86.3" style="fill:none;stroke:#000000;stroke-width:2.0px;stroke-linecap:butt;stroke-linejoin:miter;stroke-opacity:1;"/>
<path d="M 524.0,76.7 L 524.4,76.1 L 525.0,76.2" style="fill:none;stroke:#000000;stroke-width:2.0px;stroke-linecap:butt;stroke-linejoin:miter;stroke-opacity:1;"/>
<path class="atom-1" d="M 553.6 88.9 Q 553.6 87.9, 554.1 87.3 Q 554.6 86.7, 555.5 86.7 Q 556.5 86.7, 557.0 87.3 Q 557.5 87.9, 557.5 88.9 Q 557.5 89.9, 557.0 90.5 Q 556.5 91.1, 555.5 91.1 Q 554.6 91.1, 554.1 90.5 Q 553.6 89.9, 553.6 88.9 M 555.5 90.6 Q 556.2 90.6, 556.5 90.2 Q 556.9 89.7, 556.9 88.9 Q 556.9 88.1, 556.5 87.6 Q 556.2 87.2, 555.5 87.2 Q 554.9 87.2, 554.5 87.6 Q 554.2 88.1, 554.2 88.9 Q 554.2 89.7, 554.5 90.2 Q 554.9 90.6, 555.5 90.6 " fill="#FF0000"/>
<path class="atom-8" d="M 481.7 113.4 Q 481.7 112.4, 482.2 111.8 Q 482.7 111.2, 483.6 111.2 Q 484.6 111.2, 485.1 111.8 Q 485.6 112.4, 485.6 113.4 Q 485.6 114.4, 485.1 115.0 Q 484.6 115.6, 483.6 115.6 Q 482.7 115.6, 482.2 115.0 Q 481.7 114.4, 481.7 113.4 M 483.6 115.1 Q 484.3 115.1, 484.6 114.7 Q 485.0 114.2, 485.0 113.4 Q 485.0 112.6, 484.6 112.1 Q 484.3 111.7, 483.6 111.7 Q 483.0 111.7, 482.6 112.1 Q 482.3 112.5, 482.3 113.4 Q 482.3 114.2, 482.6 114.7 Q 483.0 115.1, 483.6 115.1 " fill="#FF0000"/>
<path class="atom-14" d="M 438.7 66.5 L 439.3 66.5 L 439.3 68.3 L 441.5 68.3 L 441.5 66.5 L 442.0 66.5 L 442.0 70.7 L 441.5 70.7 L 441.5 68.8 L 439.3 68.8 L 439.3 70.7 L 438.7 70.7 L 438.7 66.5 " fill="#FF0000"/>
<path class="atom-14" d="M 442.9 68.6 Q 442.9 67.6, 443.4 67.0 Q 443.9 66.4, 444.9 66.4 Q 445.8 66.4, 446.3 67.0 Q 446.8 67.6, 446.8 68.6 Q 446.8 69.6, 446.3 70.2 Q 445.8 70.8, 444.9 70.8 Q 443.9 70.8, 443.4 70.2 Q 442.9 69.6, 442.9 68.6 M 444.9 70.3 Q 445.5 70.3, 445.9 69.9 Q 446.2 69.4, 446.2 68.6 Q 446.2 67.7, 445.9 67.3 Q 445.5 66.9, 444.9 66.9 Q 444.2 66.9, 443.9 67.3 Q 443.5 67.7, 443.5 68.6 Q 443.5 69.4, 443.9 69.9 Q 444.2 70.3, 444.9 70.3 " fill="#FF0000"/>
<path class="atom-16" d="M 438.9 93.7 Q 438.9 92.7, 439.4 92.1 Q 439.9 91.5, 440.8 91.5 Q 441.8 91.5, 442.3 92.1 Q 442.8 92.7, 442.8 93.7 Q 442.8 94.7, 442.3 95.3 Q 441.8 95.9, 440.8 95.9 Q 439.9 95.9, 439.4 95.3 Q 438.9 94.7, 438.9 93.7 M 440.8 95.4 Q 441.5 95.4, 441.8 95.0 Q 442.2 94.5, 442.2 93.7 Q 442.2 92.9, 441.8 92.4 Q 441.5 92.0, 440.8 92.0 Q 440.2 92.0, 439.8 92.4 Q 439.5 92.9, 439.5 93.7 Q 439.5 94.6, 439.8 95.0 Q 440.2 95.4, 440.8 95.4 " fill="#FF0000"/>
<path class="atom-21" d="M 487.1 73.5 L 487.7 73.5 L 487.7 75.4 L 489.8 75.4 L 489.8 73.5 L 490.4 73.5 L 490.4 77.8 L 489.8 77.8 L 489.8 75.8 L 487.7 75.8 L 487.7 77.8 L 487.1 77.8 L 487.1 73.5 " fill="#FF0000"/>
<path class="atom-21" d="M 491.3 75.7 Q 491.3 74.6, 491.8 74.1 Q 492.3 73.5, 493.2 73.5 Q 494.2 73.5, 494.7 74.1 Q 495.2 74.6, 495.2 75.7 Q 495.2 76.7, 494.7 77.3 Q 494.2 77.9, 493.2 77.9 Q 492.3 77.9, 491.8 77.3 Q 491.3 76.7, 491.3 75.7 M 493.2 77.4 Q 493.9 77.4, 494.2 76.9 Q 494.6 76.5, 494.6 75.7 Q 494.6 74.8, 494.2 74.4 Q 493.9 74.0, 493.2 74.0 Q 492.6 74.0, 492.2 74.4 Q 491.9 74.8, 491.9 75.7 Q 491.9 76.5, 492.2 76.9 Q 492.6 77.4, 493.2 77.4 " fill="#FF0000"/>
<path class="atom-25" d="M 542.1 66.2 Q 542.1 65.2, 542.6 64.6 Q 543.1 64.0, 544.0 64.0 Q 545.0 64.0, 545.5 64.6 Q 546.0 65.2, 546.0 66.2 Q 546.0 67.2, 545.5 67.8 Q 545.0 68.4, 544.0 68.4 Q 543.1 68.4, 542.6 67.8 Q 542.1 67.2, 542.1 66.2 M 544.0 67.9 Q 544.7 67.9, 545.0 67.5 Q 545.4 67.1, 545.4 66.2 Q 545.4 65.4, 545.0 64.9 Q 544.7 64.5, 544.0 64.5 Q 543.4 64.5, 543.0 64.9 Q 542.7 65.4, 542.7 66.2 Q 542.7 67.1, 543.0 67.5 Q 543.4 67.9, 544.0 67.9 " fill="#FF0000"/>
<path class="atom-25" d="M 546.6 64.1 L 547.2 64.1 L 547.2 65.9 L 549.4 65.9 L 549.4 64.1 L 550.0 64.1 L 550.0 68.3 L 549.4 68.3 L 549.4 66.4 L 547.2 66.4 L 547.2 68.3 L 546.6 68.3 L 546.6 64.1 " fill="#FF0000"/>
<path class="legend" d="M 499.2 178.7 Q 501.7 178.7, 503.1 180.2 Q 504.4 181.6, 504.4 184.3 Q 504.4 187.0, 503.1 188.5 Q 501.7 190.0, 499.2 190.0 L 495.6 190.0 L 495.6 178.7 L 499.2 178.7 M 499.2 188.7 Q 501.0 188.7, 501.9 187.6 Q 502.8 186.5, 502.8 184.3 Q 502.8 182.1, 501.9 181.0 Q 501.0 180.0, 499.2 180.0 L 497.1 180.0 L 497.1 188.7 L 499.2 188.7 " fill="#000000"/>
<path class="bond-0 atom-0 atom-1" d="M 779.8,114.9 L 780.5,109.9" style="fill:none;fill-rule:evenodd;stroke:#000000;stroke-width:2.0px;stroke-linecap:butt;stroke-linejoin:miter;stroke-opacity:1"/>
<path class="bond-0 atom-0 atom-1" d="M 780.5,109.9 L 781.1,105.0" style="fill:none;fill-rule:evenodd;stroke:#FF0000;stroke-width:2.0px;stroke-linecap:butt;stroke-linejoin:miter;stroke-opacity:1"/>
<path class="bond-1 atom-1 atom-2" d="M 779.1,100.5 L 775.3,97.5" style="fill:none;fill-rule:evenodd;stroke:#FF0000;stroke-width:2.0px;stroke-linecap:butt;stroke-linejoin:miter;stroke-opacity:1"/>
<path class="bond-1 atom-1 atom-2" d="M 775.3,97.5 L 771.5,94.5" style="fill:none;fill-rule:evenodd;stroke:#000000;stroke-width:2.0px;stroke-linecap:butt;stroke-linejoin:miter;stroke-opacity:1"/>
<path class="bond-2 atom-2 atom-3" d="M 771.5,94.5 L 759.7,99.3" style="fill:none;fill-rule:evenodd;stroke:#000000;stroke-width:2.0px;stroke-linecap:butt;stroke-linejoin:miter;stroke-opacity:1"/>
<path class="bond-2 atom-2 atom-3" d="M 769.7,93.2 L 760.0,97.1" style="fill:none;fill-rule:evenodd;stroke:#000000;stroke-width:2.0px;stroke-linecap:butt;stroke-linejoin:miter;stroke-opacity:1"/>
<path class="bond-3 atom-3 atom-4" d="M 759.7,99.3 L 749.6,91.5" style="fill:none;fill-rule:evenodd;stroke:#000000;stroke-width:2.0px;stroke-linecap:butt;stroke-linejoin:miter;stroke-opacity:1"/>
<path class="bond-4 atom-4 atom-5" d="M 749.6,91.5 L 737.9,96.3" style="fill:none;fill-rule:evenodd;stroke:#000000;stroke-width:2.0px;stroke-linecap:butt;stroke-linejoin:miter;stroke-opacity:1"/>
<path class="bond-5 atom-5 atom-6" d="M 737.9,96.3 L 727.8,88.5" style="fill:none;fill-rule:evenodd;stroke:#000000;stroke-width:2.0px;stroke-linecap:butt;stroke-linejoin:miter;stroke-opacity:1"/>
<path class="bond-6 atom-6 atom-7" d="M 727.8,88.5 L 729.6,75.9" style="fill:none;fill-rule:evenodd;stroke:#000000;stroke-width:2.0px;stroke-linecap:butt;stroke-linejoin:miter;stroke-opacity:1"/>
<path class="bond-7 atom-7 atom-8" d="M 729.6,75.9 L 725.7,72.9" style="fill:none;fill-rule:evenodd;stroke:#000000;stroke-width:2.0px;stroke-linecap:butt;stroke-linejoin:miter;stroke-opacity:1"/>
<path class="bond-7 atom-7 atom-8" d="M 725.7,72.9 L 721.9,69.9" style="fill:none;fill-rule:evenodd;stroke:#FF0000;stroke-width:2.0px;stroke-linecap:butt;stroke-linejoin:miter;stroke-opacity:1"/>
<path class="bond-8 atom-6 atom-9" d="M 727.8,88.5 L 716.0,93.3" style="fill:none;fill-rule:evenodd;stroke:#000000;stroke-width:2.0px;stroke-linecap:butt;stroke-linejoin:miter;stroke-opacity:1"/>
<path class="bond-9 atom-9 atom-10" d="M 716.0,93.3 L 714.3,105.9" style="fill:none;fill-rule:evenodd;stroke:#000000;stroke-width:2.0px;stroke-linecap:butt;stroke-linejoin:miter;stroke-opacity:1"/>
<path class="bond-10 atom-10 atom-11" d="M 714.3,105.9 L 709.6,107.8" style="fill:none;fill-rule:evenodd;stroke:#000000;stroke-width:2.0px;stroke-linecap:butt;stroke-linejoin:miter;stroke-opacity:1"/>
<path class="bond-10 atom-10 atom-11" d="M 709.6,107.8 L 704.9,109.7" style="fill:none;fill-rule:evenodd;stroke:#FF0000;stroke-width:2.0px;stroke-linecap:butt;stroke-linejoin:miter;stroke-opacity:1"/>
<path class="bond-11 atom-9 atom-12" d="M 716.0,93.3 L 706.0,85.5" style="fill:none;fill-rule:evenodd;stroke:#000000;stroke-width:2.0px;stroke-linecap:butt;stroke-linejoin:miter;stroke-opacity:1"/>
<path class="bond-12 atom-12 atom-13" d="M 706.0,85.5 L 694.2,90.3" style="fill:none;fill-rule:evenodd;stroke:#000000;stroke-width:2.0px;stroke-linecap:butt;stroke-linejoin:miter;stroke-opacity:1"/>
<path class="bond-13 atom-13 atom-14" d="M 694.2,90.3 L 684.2,82.5" style="fill:none;fill-rule:evenodd;stroke:#000000;stroke-width:2.0px;stroke-linecap:butt;stroke-linejoin:miter;stroke-opacity:1"/>
<path class="bond-13 atom-13 atom-14" d="M 692.2,91.1 L 683.9,84.7" style="fill:none;fill-rule:evenodd;stroke:#000000;stroke-width:2.0px;stroke-linecap:butt;stroke-linejoin:miter;stroke-opacity:1"/>
<path class="bond-14 atom-14 atom-15" d="M 684.2,82.5 L 672.4,87.3" style="fill:none;fill-rule:evenodd;stroke:#000000;stroke-width:2.0px;stroke-linecap:butt;stroke-linejoin:miter;stroke-opacity:1"/>
<path class="bond-15 atom-15 atom-16" d="M 672.4,87.3 L 670.7,99.9" style="fill:none;fill-rule:evenodd;stroke:#000000;stroke-width:2.0px;stroke-linecap:butt;stroke-linejoin:miter;stroke-opacity:1"/>
<path class="bond-15 atom-15 atom-16" d="M 674.1,88.6 L 672.7,99.0" style="fill:none;fill-rule:evenodd;stroke:#000000;stroke-width:2.0px;stroke-linecap:butt;stroke-linejoin:miter;stroke-opacity:1"/>
<path class="bond-16 atom-16 atom-17" d="M 670.7,99.9 L 665.9,101.8" style="fill:none;fill-rule:evenodd;stroke:#000000;stroke-width:2.0px;stroke-linecap:butt;stroke-linejoin:miter;stroke-opacity:1"/>
<path class="bond-16 atom-16 atom-17" d="M 665.9,101.8 L 661.2,103.7" style="fill:none;fill-rule:evenodd;stroke:#FF0000;stroke-width:2.0px;stroke-linecap:butt;stroke-linejoin:miter;stroke-opacity:1"/>
<path class="bond-17 atom-17 atom-18" d="M 656.5,102.8 L 652.7,99.9" style="fill:none;fill-rule:evenodd;stroke:#FF0000;stroke-width:2.0px;stroke-linecap:butt;stroke-linejoin:miter;stroke-opacity:1"/>
<path class="bond-17 atom-17 atom-18" d="M 652.7,99.9 L 648.8,96.9" style="fill:none;fill-rule:evenodd;stroke:#000000;stroke-width:2.0px;stroke-linecap:butt;stroke-linejoin:miter;stroke-opacity:1"/>
<path class="bond-18 atom-18 atom-19" d="M 648.8,96.9 L 649.5,91.9" style="fill:none;fill-rule:evenodd;stroke:#000000;stroke-width:2.0px;stroke-linecap:butt;stroke-linejoin:miter;stroke-opacity:1"/>
<path class="bond-18 atom-18 atom-19" d="M 649.5,91.9 L 650.2,86.9" style="fill:none;fill-rule:evenodd;stroke:#FF0000;stroke-width:2.0px;stroke-linecap:butt;stroke-linejoin:miter;stroke-opacity:1"/>
<path class="bond-19 atom-19 atom-20" d="M 648.2,82.4 L 644.4,79.4" style="fill:none;fill-rule:evenodd;stroke:#FF0000;stroke-width:2.0px;stroke-linecap:butt;stroke-linejoin:miter;stroke-opacity:1"/>
<path class="bond-19 atom-19 atom-20" d="M 644.4,79.4 L 640.5,76.5" style="fill:none;fill-rule:evenodd;stroke:#000000;stroke-width:2.0px;stroke-linecap:butt;stroke-linejoin:miter;stroke-opacity:1"/>
<path class="bond-20 atom-20 atom-21" d="M 640.5,76.5 L 642.3,63.9" style="fill:none;fill-rule:evenodd;stroke:#000000;stroke-width:2.0px;stroke-linecap:butt;stroke-linejoin:miter;stroke-opacity:1"/>
<path class="bond-21 atom-21 atom-22" d="M 642.3,63.9 L 647.0,61.9" style="fill:none;fill-rule:evenodd;stroke:#000000;stroke-width:2.0px;stroke-linecap:butt;stroke-linejoin:miter;stroke-opacity:1"/>
<path class="bond-21 atom-21 atom-22" d="M 647.0,61.9 L 651.7,60.0" style="fill:none;fill-rule:evenodd;stroke:#FF0000;stroke-width:2.0px;stroke-linecap:butt;stroke-linejoin:miter;stroke-opacity:1"/>
<path class="bond-22 atom-20 atom-23" d="M 640.5,76.5 L 628.7,81.3" style="fill:none;fill-rule:evenodd;stroke:#000000;stroke-width:2.0px;stroke-linecap:butt;stroke-linejoin:miter;stroke-opacity:1"/>
<path class="bond-23 atom-23 atom-24" d="M 628.7,81.3 L 624.9,78.3" style="fill:none;fill-rule:evenodd;stroke:#000000;stroke-width:2.0px;stroke-linecap:butt;stroke-linejoin:miter;stroke-opacity:1"/>
<path class="bond-23 atom-23 atom-24" d="M 624.9,78.3 L 621.1,75.3" style="fill:none;fill-rule:evenodd;stroke:#FF0000;stroke-width:2.0px;stroke-linecap:butt;stroke-linejoin:miter;stroke-opacity:1"/>
<path class="bond-24 atom-23 atom-25" d="M 628.7,81.3 L 627.0,93.9" style="fill:none;fill-rule:evenodd;stroke:#000000;stroke-width:2.0px;stroke-linecap:butt;stroke-linejoin:miter;stroke-opacity:1"/>
<path class="bond-25 atom-25 atom-26" d="M 627.0,93.9 L 622.3,95.8" style="fill:none;fill-rule:evenodd;stroke:#000000;stroke-width:2.0px;stroke-linecap:butt;stroke-linejoin:miter;stroke-opacity:1"/>
<path class="bond-25 atom-25 atom-26" d="M 622.3,95.8 L 617.6,97.7" style="fill:none;fill-rule:evenodd;stroke:#FF0000;stroke-width:2.0px;stroke-linecap:butt;stroke-linejoin:miter;stroke-opacity:1"/>
<path class="bond-26 atom-25 atom-27" d="M 627.0,93.9 L 637.1,101.7" style="fill:none;fill-rule:evenodd;stroke:#000000;stroke-width:2.0px;stroke-linecap:butt;stroke-linejoin:miter;stroke-opacity:1"/>
<path class="bond-27 atom-27 atom-28" d="M 637.1,101.7 L 636.4,106.7" style="fill:none;fill-rule:evenodd;stroke:#000000;stroke-width:2.0px;stroke-linecap:butt;stroke-linejoin:miter;stroke-opacity:1"/>
<path class="bond-27 atom-27 atom-28" d="M 636.4,106.7 L 635.7,111.7" style="fill:none;fill-rule:evenodd;stroke:#FF0000;stroke-width:2.0px;stroke-linecap:butt;stroke-linejoin:miter;stroke-opacity:1"/>
<path class="bond-28 atom-16 atom-29" d="M 670.7,99.9 L 680.7,107.7" style="fill:none;fill-rule:evenodd;stroke:#000000;stroke-width:2.0px;stroke-linecap:butt;stroke-linejoin:miter;stroke-opacity:1"/>
<path class="bond-29 atom-29 atom-30" d="M 680.7,107.7 L 680.0,112.7" style="fill:none;fill-rule:evenodd;stroke:#000000;stroke-width:2.0px;stroke-linecap:butt;stroke-linejoin:miter;stroke-opacity:1"/>
<path class="bond-29 atom-29 atom-30" d="M 680.0,112.7 L 679.3,117.7" style="fill:none;fill-rule:evenodd;stroke:#FF0000;stroke-width:2.0px;stroke-linecap:butt;stroke-linejoin:miter;stroke-opacity:1"/>
<path class="bond-30 atom-30 atom-31" d="M 676.6,121.2 L 671.9,123.2" style="fill:none;fill-rule:evenodd;stroke:#FF0000;stroke-width:2.0px;stroke-linecap:butt;stroke-linejoin:miter;stroke-opacity:1"/>
<path class="bond-30 atom-30 atom-31" d="M 671.9,123.2 L 667.2,125.1" style="fill:none;fill-rule:evenodd;stroke:#000000;stroke-width:2.0px;stroke-linecap:butt;stroke-linejoin:miter;stroke-opacity:1"/>
<path class="bond-31 atom-29 atom-32" d="M 680.7,107.7 L 692.5,102.9" style="fill:none;fill-rule:evenodd;stroke:#000000;stroke-width:2.0px;stroke-linecap:butt;stroke-linejoin:miter;stroke-opacity:1"/>
<path class="bond-31 atom-29 atom-32" d="M 681.0,105.5 L 690.7,101.5" style="fill:none;fill-rule:evenodd;stroke:#000000;stroke-width:2.0px;stroke-linecap:butt;stroke-linejoin:miter;stroke-opacity:1"/>
<path class="bond-32 atom-4 atom-33" d="M 749.6,91.5 L 751.4,78.9" style="fill:none;fill-rule:evenodd;stroke:#000000;stroke-width:2.0px;stroke-linecap:butt;stroke-linejoin:miter;stroke-opacity:1"/>
<path class="bond-32 atom-4 atom-33" d="M 751.7,90.7 L 753.1,80.3" style="fill:none;fill-rule:evenodd;stroke:#000000;stroke-width:2.0px;stroke-linecap:butt;stroke-linejoin:miter;stroke-opacity:1"/>
<path class="bond-33 atom-33 atom-34" d="M 751.4,78.9 L 763.2,74.1" style="fill:none;fill-rule:evenodd;stroke:#000000;stroke-width:2.0px;stroke-linecap:butt;stroke-linejoin:miter;stroke-opacity:1"/>
<path class="bond-34 atom-34 atom-35" d="M 763.2,74.1 L 773.2,81.9" style="fill:none;fill-rule:evenodd;stroke:#000000;stroke-width:2.0px;stroke-linecap:butt;stroke-linejoin:miter;stroke-opacity:1"/>
<path class="bond-34 atom-34 atom-35" d="M 762.9,76.3 L 771.2,82.8" style="fill:none;fill-rule:evenodd;stroke:#000000;stroke-width:2.0px;stroke-linecap:butt;stroke-linejoin:miter;stroke-opacity:1"/>
<path class="bond-35 atom-35 atom-36" d="M 773.2,81.9 L 777.9,80.0" style="fill:none;fill-rule:evenodd;stroke:#000000;stroke-width:2.0px;stroke-linecap:butt;stroke-linejoin:miter;stroke-opacity:1"/>
<path class="bond-35 atom-35 atom-36" d="M 777.9,80.0 L 782.6,78.1" style="fill:none;fill-rule:evenodd;stroke:#FF0000;stroke-width:2.0px;stroke-linecap:butt;stroke-linejoin:miter;stroke-opacity:1"/>
<path class="bond-36 atom-35 atom-2" d="M 773.2,81.9 L 771.5,94.5" style="fill:none;fill-rule:evenodd;stroke:#000000;stroke-width:2.0px;stroke-linecap:butt;stroke-linejoin:miter;stroke-opacity:1"/>
<path class="bond-37 atom-32 atom-13" d="M 692.5,102.9 L 694.2,90.3" style="fill:none;fill-rule:evenodd;stroke:#000000;stroke-width:2.0px;stroke-linecap:butt;stroke-linejoin:miter;stroke-opacity:1"/>
<path class="bond-38 atom-27 atom-18" d="M 637.1,101.7 L 648.8,96.9" style="fill:none;fill-rule:evenodd;stroke:#000000;stroke-width:2.0px;stroke-linecap:butt;stroke-linejoin:miter;stroke-opacity:1"/>
<path d="M 760.3,99.1 L 759.7,99.3 L 759.2,98.9" style="fill:none;stroke:#000000;stroke-width:2.0px;stroke-linecap:butt;stroke-linejoin:miter;stroke-opacity:1;"/>
<path d="M 738.5,96.1 L 737.9,96.3 L 737.4,95.9" style="fill:none;stroke:#000000;stroke-width:2.0px;stroke-linecap:butt;stroke-linejoin:miter;stroke-opacity:1;"/>
<path d="M 729.5,76.5 L 729.6,75.9 L 729.4,75.8" style="fill:none;stroke:#000000;stroke-width:2.0px;stroke-linecap:butt;stroke-linejoin:miter;stroke-opacity:1;"/>
<path d="M 714.4,105.3 L 714.3,105.9 L 714.1,106.0" style="fill:none;stroke:#000000;stroke-width:2.0px;stroke-linecap:butt;stroke-linejoin:miter;stroke-opacity:1;"/>
<path d="M 706.5,85.9 L 706.0,85.5 L 705.4,85.7" style="fill:none;stroke:#000000;stroke-width:2.0px;stroke-linecap:butt;stroke-linejoin:miter;stroke-opacity:1;"/>
<path d="M 684.7,82.9 L 684.2,82.5 L 683.6,82.7" style="fill:none;stroke:#000000;stroke-width:2.0px;stroke-linecap:butt;stroke-linejoin:miter;stroke-opacity:1;"/>
<path d="M 673.0,87.0 L 672.4,87.3 L 672.3,87.9" style="fill:none;stroke:#000000;stroke-width:2.0px;stroke-linecap:butt;stroke-linejoin:miter;stroke-opacity:1;"/>
<path d="M 642.2,64.5 L 642.3,63.9 L 642.5,63.8" style="fill:none;stroke:#000000;stroke-width:2.0px;stroke-linecap:butt;stroke-linejoin:miter;stroke-opacity:1;"/>
<path d="M 691.9,103.1 L 692.5,102.9 L 692.6,102.3" style="fill:none;stroke:#000000;stroke-width:2.0px;stroke-linecap:butt;stroke-linejoin:miter;stroke-opacity:1;"/>
<path d="M 751.3,79.5 L 751.4,78.9 L 752.0,78.7" style="fill:none;stroke:#000000;stroke-width:2.0px;stroke-linecap:butt;stroke-linejoin:miter;stroke-opacity:1;"/>
<path d="M 762.6,74.4 L 763.2,74.1 L 763.7,74.5" style="fill:none;stroke:#000000;stroke-width:2.0px;stroke-linecap:butt;stroke-linejoin:miter;stroke-opacity:1;"/>
<path class="atom-1" d="M 779.6 102.3 Q 779.6 101.3, 780.1 100.7 Q 780.6 100.2, 781.5 100.2 Q 782.5 100.2, 783.0 100.7 Q 783.5 101.3, 783.5 102.3 Q 783.5 103.4, 782.9 104.0 Q 782.4 104.5, 781.5 104.5 Q 780.6 104.5, 780.1 104.0 Q 779.6 103.4, 779.6 102.3 M 781.5 104.1 Q 782.2 104.1, 782.5 103.6 Q 782.9 103.2, 782.9 102.3 Q 782.9 101.5, 782.5 101.1 Q 782.2 100.7, 781.5 100.7 Q 780.9 100.7, 780.5 101.1 Q 780.2 101.5, 780.2 102.3 Q 780.2 103.2, 780.5 103.6 Q 780.9 104.1, 781.5 104.1 " fill="#FF0000"/>
<path class="atom-8" d="M 713.4 66.0 L 713.9 66.0 L 713.9 67.8 L 716.1 67.8 L 716.1 66.0 L 716.7 66.0 L 716.7 70.2 L 716.1 70.2 L 716.1 68.3 L 713.9 68.3 L 713.9 70.2 L 713.4 70.2 L 713.4 66.0 " fill="#FF0000"/>
<path class="atom-8" d="M 717.6 68.1 Q 717.6 67.1, 718.1 66.5 Q 718.6 66.0, 719.5 66.0 Q 720.5 66.0, 721.0 66.5 Q 721.5 67.1, 721.5 68.1 Q 721.5 69.1, 721.0 69.7 Q 720.4 70.3, 719.5 70.3 Q 718.6 70.3, 718.1 69.7 Q 717.6 69.1, 717.6 68.1 M 719.5 69.8 Q 720.2 69.8, 720.5 69.4 Q 720.9 69.0, 720.9 68.1 Q 720.9 67.3, 720.5 66.9 Q 720.2 66.4, 719.5 66.4 Q 718.9 66.4, 718.5 66.9 Q 718.2 67.3, 718.2 68.1 Q 718.2 69.0, 718.5 69.4 Q 718.9 69.8, 719.5 69.8 " fill="#FF0000"/>
<path class="atom-11" d="M 696.4 108.6 L 697.0 108.6 L 697.0 110.4 L 699.1 110.4 L 699.1 108.6 L 699.7 108.6 L 699.7 112.8 L 699.1 112.8 L 699.1 110.9 L 697.0 110.9 L 697.0 112.8 L 696.4 112.8 L 696.4 108.6 " fill="#FF0000"/>
<path class="atom-11" d="M 700.6 110.7 Q 700.6 109.7, 701.1 109.1 Q 701.6 108.5, 702.5 108.5 Q 703.5 108.5, 704.0 109.1 Q 704.5 109.7, 704.5 110.7 Q 704.5 111.7, 704.0 112.3 Q 703.5 112.9, 702.5 112.9 Q 701.6 112.9, 701.1 112.3 Q 700.6 111.7, 700.6 110.7 M 702.5 112.4 Q 703.2 112.4, 703.5 112.0 Q 703.9 111.6, 703.9 110.7 Q 703.9 109.9, 703.5 109.5 Q 703.2 109.0, 702.5 109.0 Q 701.9 109.0, 701.5 109.4 Q 701.2 109.9, 701.2 110.7 Q 701.2 111.6, 701.5 112.0 Q 701.9 112.4, 702.5 112.4 " fill="#FF0000"/>
<path class="atom-17" d="M 656.9 104.7 Q 656.9 103.7, 657.4 103.1 Q 657.9 102.5, 658.9 102.5 Q 659.8 102.5, 660.3 103.1 Q 660.8 103.7, 660.8 104.7 Q 660.8 105.7, 660.3 106.3 Q 659.8 106.9, 658.9 106.9 Q 657.9 106.9, 657.4 106.3 Q 656.9 105.7, 656.9 104.7 M 658.9 106.4 Q 659.5 106.4, 659.9 106.0 Q 660.2 105.5, 660.2 104.7 Q 660.2 103.9, 659.9 103.4 Q 659.5 103.0, 658.9 103.0 Q 658.2 103.0, 657.9 103.4 Q 657.5 103.8, 657.5 104.7 Q 657.5 105.5, 657.9 106.0 Q 658.2 106.4, 658.9 106.4 " fill="#FF0000"/>
<path class="atom-19" d="M 648.6 84.3 Q 648.6 83.3, 649.1 82.7 Q 649.6 82.1, 650.6 82.1 Q 651.5 82.1, 652.0 82.7 Q 652.5 83.3, 652.5 84.3 Q 652.5 85.3, 652.0 85.9 Q 651.5 86.5, 650.6 86.5 Q 649.6 86.5, 649.1 85.9 Q 648.6 85.3, 648.6 84.3 M 650.6 86.0 Q 651.2 86.0, 651.6 85.6 Q 651.9 85.1, 651.9 84.3 Q 651.9 83.4, 651.6 83.0 Q 651.2 82.6, 650.6 82.6 Q 649.9 82.6, 649.6 83.0 Q 649.2 83.4, 649.2 84.3 Q 649.2 85.1, 649.6 85.6 Q 649.9 86.0, 650.6 86.0 " fill="#FF0000"/>
<path class="atom-22" d="M 652.1 59.1 Q 652.1 58.1, 652.6 57.5 Q 653.1 56.9, 654.0 56.9 Q 655.0 56.9, 655.5 57.5 Q 656.0 58.1, 656.0 59.1 Q 656.0 60.1, 655.5 60.7 Q 655.0 61.3, 654.0 61.3 Q 653.1 61.3, 652.6 60.7 Q 652.1 60.1, 652.1 59.1 M 654.0 60.8 Q 654.7 60.8, 655.0 60.4 Q 655.4 59.9, 655.4 59.1 Q 655.4 58.2, 655.0 57.8 Q 654.7 57.4, 654.0 57.4 Q 653.4 57.4, 653.0 57.8 Q 652.7 58.2, 652.7 59.1 Q 652.7 59.9, 653.0 60.4 Q 653.4 60.8, 654.0 60.8 " fill="#FF0000"/>
<path class="atom-22" d="M 656.7 57.0 L 657.2 57.0 L 657.2 58.8 L 659.4 58.8 L 659.4 57.0 L 660.0 57.0 L 660.0 61.2 L 659.4 61.2 L 659.4 59.3 L 657.2 59.3 L 657.2 61.2 L 656.7 61.2 L 656.7 57.0 " fill="#FF0000"/>
<path class="atom-24" d="M 612.6 71.4 L 613.1 71.4 L 613.1 73.2 L 615.3 73.2 L 615.3 71.4 L 615.9 71.4 L 615.9 75.6 L 615.3 75.6 L 615.3 73.6 L 613.1 73.6 L 613.1 75.6 L 612.6 75.6 L 612.6 71.4 " fill="#FF0000"/>
<path class="atom-24" d="M 616.8 73.5 Q 616.8 72.4, 617.3 71.9 Q 617.8 71.3, 618.7 71.3 Q 619.6 71.3, 620.1 71.9 Q 620.7 72.4, 620.7 73.5 Q 620.7 74.5, 620.1 75.1 Q 619.6 75.7, 618.7 75.7 Q 617.8 75.7, 617.3 75.1 Q 616.8 74.5, 616.8 73.5 M 618.7 75.2 Q 619.3 75.2, 619.7 74.8 Q 620.1 74.3, 620.1 73.5 Q 620.1 72.6, 619.7 72.2 Q 619.3 71.8, 618.7 71.8 Q 618.1 71.8, 617.7 72.2 Q 617.4 72.6, 617.4 73.5 Q 617.4 74.3, 617.7 74.8 Q 618.1 75.2, 618.7 75.2 " fill="#FF0000"/>
<path class="atom-26" d="M 609.1 96.6 L 609.7 96.6 L 609.7 98.4 L 611.8 98.4 L 611.8 96.6 L 612.4 96.6 L 612.4 100.8 L 611.8 100.8 L 611.8 98.8 L 609.7 98.8 L 609.7 100.8 L 609.1 100.8 L 609.1 96.6 " fill="#FF0000"/>
<path class="atom-26" d="M 613.3 98.7 Q 613.3 97.6, 613.8 97.1 Q 614.3 96.5, 615.2 96.5 Q 616.2 96.5, 616.7 97.1 Q 617.2 97.6, 617.2 98.7 Q 617.2 99.7, 616.7 100.3 Q 616.2 100.9, 615.2 100.9 Q 614.3 100.9, 613.8 100.3 Q 613.3 99.7, 613.3 98.7 M 615.2 100.4 Q 615.9 100.4, 616.2 100.0 Q 616.6 99.5, 616.6 98.7 Q 616.6 97.8, 616.2 97.4 Q 615.9 97.0, 615.2 97.0 Q 614.6 97.0, 614.2 97.4 Q 613.9 97.8, 613.9 98.7 Q 613.9 99.5, 614.2 100.0 Q 614.6 100.4, 615.2 100.4 " fill="#FF0000"/>
<path class="atom-28" d="M 633.4 114.3 Q 633.4 113.3, 633.9 112.7 Q 634.4 112.1, 635.3 112.1 Q 636.3 112.1, 636.8 112.7 Q 637.3 113.3, 637.3 114.3 Q 637.3 115.3, 636.8 115.9 Q 636.2 116.5, 635.3 116.5 Q 634.4 116.5, 633.9 115.9 Q 633.4 115.3, 633.4 114.3 M 635.3 116.0 Q 636.0 116.0, 636.3 115.6 Q 636.7 115.1, 636.7 114.3 Q 636.7 113.4, 636.3 113.0 Q 636.0 112.6, 635.3 112.6 Q 634.7 112.6, 634.3 113.0 Q 634.0 113.4, 634.0 114.3 Q 634.0 115.1, 634.3 115.6 Q 634.7 116.0, 635.3 116.0 " fill="#FF0000"/>
<path class="atom-28" d="M 637.9 112.2 L 638.5 112.2 L 638.5 114.0 L 640.7 114.0 L 640.7 112.2 L 641.2 112.2 L 641.2 116.4 L 640.7 116.4 L 640.7 114.4 L 638.5 114.4 L 638.5 116.4 L 637.9 116.4 L 637.9 112.2 " fill="#FF0000"/>
<path class="atom-30" d="M 677.0 120.3 Q 677.0 119.3, 677.5 118.7 Q 678.0 118.1, 679.0 118.1 Q 679.9 118.1, 680.4 118.7 Q 680.9 119.3, 680.9 120.3 Q 680.9 121.3, 680.4 121.9 Q 679.9 122.5, 679.0 122.5 Q 678.0 122.5, 677.5 121.9 Q 677.0 121.3, 677.0 120.3 M 679.0 122.0 Q 679.6 122.0, 680.0 121.6 Q 680.3 121.1, 680.3 120.3 Q 680.3 119.5, 680.0 119.0 Q 679.6 118.6, 679.0 118.6 Q 678.3 118.6, 678.0 119.0 Q 677.6 119.5, 677.6 120.3 Q 677.6 121.2, 678.0 121.6 Q 678.3 122.0, 679.0 122.0 " fill="#FF0000"/>
<path class="atom-36" d="M 783.0 77.1 Q 783.0 76.1, 783.5 75.5 Q 784.0 75.0, 785.0 75.0 Q 785.9 75.0, 786.4 75.5 Q 786.9 76.1, 786.9 77.1 Q 786.9 78.2, 786.4 78.8 Q 785.9 79.3, 785.0 79.3 Q 784.0 79.3, 783.5 78.8 Q 783.0 78.2, 783.0 77.1 M 785.0 78.9 Q 785.6 78.9, 786.0 78.4 Q 786.3 78.0, 786.3 77.1 Q 786.3 76.3, 786.0 75.9 Q 785.6 75.5, 785.0 75.5 Q 784.3 75.5, 784.0 75.9 Q 783.6 76.3, 783.6 77.1 Q 783.6 78.0, 784.0 78.4 Q 784.3 78.9, 785.0 78.9 " fill="#FF0000"/>
<path class="atom-36" d="M 787.6 75.0 L 788.2 75.0 L 788.2 76.8 L 790.3 76.8 L 790.3 75.0 L 790.9 75.0 L 790.9 79.3 L 790.3 79.3 L 790.3 77.3 L 788.2 77.3 L 788.2 79.3 L 787.6 79.3 L 787.6 75.0 " fill="#FF0000"/>
<path class="legend" d="M 696.5 178.7 L 703.3 178.7 L 703.3 180.0 L 698.1 180.0 L 698.1 183.4 L 702.8 183.4 L 702.8 184.7 L 698.1 184.7 L 698.1 188.7 L 703.5 188.7 L 703.5 190.0 L 696.5 190.0 L 696.5 178.7 " fill="#000000"/>
<path class="bond-0 atom-0 atom-1" d="M 83.2,292.2 L 94.9,287.2" style="fill:none;fill-rule:evenodd;stroke:#000000;stroke-width:2.0px;stroke-linecap:butt;stroke-linejoin:miter;stroke-opacity:1"/>
<path class="bond-1 atom-1 atom-2" d="M 94.9,287.2 L 105.1,294.8" style="fill:none;fill-rule:evenodd;stroke:#000000;stroke-width:2.0px;stroke-linecap:butt;stroke-linejoin:miter;stroke-opacity:1"/>
<path class="bond-2 atom-2 atom-3" d="M 105.1,294.8 L 116.8,289.8" style="fill:none;fill-rule:evenodd;stroke:#000000;stroke-width:2.0px;stroke-linecap:butt;stroke-linejoin:miter;stroke-opacity:1"/>
<path d="M 94.3,287.4 L 94.9,287.2 L 95.4,287.6" style="fill:none;stroke:#000000;stroke-width:2.0px;stroke-linecap:butt;stroke-linejoin:miter;stroke-opacity:1;"/>
<path d="M 104.6,294.4 L 105.1,294.8 L 105.7,294.6" style="fill:none;stroke:#000000;stroke-width:2.0px;stroke-linecap:butt;stroke-linejoin:miter;stroke-opacity:1;"/>
<path class="legend" d="M 96.6 378.7 L 103.4 378.7 L 103.4 380.0 L 98.2 380.0 L 98.2 383.4 L 102.8 383.4 L 102.8 384.7 L 98.2 384.7 L 98.2 390.0 L 96.6 390.0 L 96.6 378.7 " fill="#000000"/>
<path class="bond-0 atom-0 atom-1" d="M 278.0,294.2 L 289.0,287.8" style="fill:none;fill-rule:evenodd;stroke:#000000;stroke-width:2.0px;stroke-linecap:butt;stroke-linejoin:miter;stroke-opacity:1"/>
<path class="bond-1 atom-1 atom-2" d="M 289.0,287.8 L 300.0,294.2" style="fill:none;fill-rule:evenodd;stroke:#000000;stroke-width:2.0px;stroke-linecap:butt;stroke-linejoin:miter;stroke-opacity:1"/>
<path class="bond-2 atom-2 atom-3" d="M 300.0,294.2 L 311.0,287.8" style="fill:none;fill-rule:evenodd;stroke:#000000;stroke-width:2.0px;stroke-linecap:butt;stroke-linejoin:miter;stroke-opacity:1"/>
<path class="bond-3 atom-3 atom-4" d="M 311.0,287.8 L 322.0,294.2" style="fill:none;fill-rule:evenodd;stroke:#000000;stroke-width:2.0px;stroke-linecap:butt;stroke-linejoin:miter;stroke-opacity:1"/>
<path d="M 288.4,288.1 L 289.0,287.8 L 289.5,288.1" style="fill:none;stroke:#000000;stroke-width:2.0px;stroke-linecap:butt;stroke-linejoin:miter;stroke-opacity:1;"/>
<path d="M 299.4,293.9 L 300.0,294.2 L 300.6,293.9" style="fill:none;stroke:#000000;stroke-width:2.0px;stroke-linecap:butt;stroke-linejoin:miter;stroke-opacity:1;"/>
<path d="M 310.5,288.1 L 311.0,287.8 L 311.6,288.1" style="fill:none;stroke:#000000;stroke-width:2.0px;stroke-linecap:butt;stroke-linejoin:miter;stroke-opacity:1;"/>
<path class="legend" d="M 304.6 384.3 L 304.6 389.1 Q 302.9 390.0, 300.6 390.0 Q 298.1 390.0, 296.8 388.5 Q 295.4 387.0, 295.4 384.2 Q 295.4 381.4, 296.8 379.9 Q 298.1 378.4, 300.6 378.4 Q 301.9 378.4, 302.9 378.8 Q 303.8 379.2, 304.5 380.0 L 303.5 380.9 Q 302.4 379.7, 300.6 379.7 Q 298.9 379.7, 298.0 380.8 Q 297.1 382.0, 297.1 384.2 Q 297.1 386.4, 298.0 387.6 Q 299.0 388.7, 300.8 388.7 Q 302.0 388.7, 303.0 388.3 L 303.0 384.3 L 304.6 384.3 " fill="#000000"/>
<path class="bond-0 atom-0 atom-1" d="M 547.2,247.6 L 551.6,259.5" style="fill:none;fill-rule:evenodd;stroke:#000000;stroke-width:2.0px;stroke-linecap:butt;stroke-linejoin:miter;stroke-opacity:1"/>
<path class="bond-1 atom-1 atom-2" d="M 551.6,259.5 L 543.5,269.3" style="fill:none;fill-rule:evenodd;stroke:#000000;stroke-width:2.0px;stroke-linecap:butt;stroke-linejoin:miter;stroke-opacity:1"/>
<path class="bond-2 atom-2 atom-3" d="M 543.5,269.3 L 547.9,281.2" style="fill:none;fill-rule:evenodd;stroke:#000000;stroke-width:2.0px;stroke-linecap:butt;stroke-linejoin:miter;stroke-opacity:1"/>
<path class="bond-3 atom-3 atom-4" d="M 547.9,281.2 L 539.8,291.0" style="fill:none;fill-rule:evenodd;stroke:#000000;stroke-width:2.0px;stroke-linecap:butt;stroke-linejoin:miter;stroke-opacity:1"/>
<path class="bond-4 atom-4 atom-5" d="M 539.8,291.0 L 544.2,302.9" style="fill:none;fill-rule:evenodd;stroke:#000000;stroke-width:2.0px;stroke-linecap:butt;stroke-linejoin:miter;stroke-opacity:1"/>
<path class="bond-5 atom-5 atom-6" d="M 544.2,302.9 L 536.1,312.7" style="fill:none;fill-rule:evenodd;stroke:#000000;stroke-width:2.0px;stroke-linecap:butt;stroke-linejoin:miter;stroke-opacity:1"/>
<path class="bond-6 atom-6 atom-7" d="M 536.1,312.7 L 540.5,324.6" style="fill:none;fill-rule:evenodd;stroke:#000000;stroke-width:2.0px;stroke-linecap:butt;stroke-linejoin:miter;stroke-opacity:1"/>
<path class="bond-7 atom-7 atom-8" d="M 540.5,324.6 L 532.4,334.4" style="fill:none;fill-rule:evenodd;stroke:#000000;stroke-width:2.0px;stroke-linecap:butt;stroke-linejoin:miter;stroke-opacity:1"/>
<path class="bond-8 atom-6 atom-9" d="M 536.1,312.7 L 523.6,310.6" style="fill:none;fill-rule:evenodd;stroke:#000000;stroke-width:2.0px;stroke-linecap:butt;stroke-linejoin:miter;stroke-opacity:1"/>
<path class="bond-9 atom-9 atom-10" d="M 523.6,310.6 L 515.5,320.4" style="fill:none;fill-rule:evenodd;stroke:#000000;stroke-width:2.0px;stroke-linecap:butt;stroke-linejoin:miter;stroke-opacity:1"/>
<path class="bond-10 atom-9 atom-11" d="M 523.6,310.6 L 519.2,298.7" style="fill:none;fill-rule:evenodd;stroke:#000000;stroke-width:2.0px;stroke-linecap:butt;stroke-linejoin:miter;stroke-opacity:1"/>
<path class="bond-11 atom-11 atom-12" d="M 519.2,298.7 L 506.6,296.5" style="fill:none;fill-rule:evenodd;stroke:#000000;stroke-width:2.0px;stroke-linecap:butt;stroke-linejoin:miter;stroke-opacity:1"/>
<path class="bond-12 atom-12 atom-13" d="M 506.6,296.5 L 502.2,284.6" style="fill:none;fill-rule:evenodd;stroke:#000000;stroke-width:2.0px;stroke-linecap:butt;stroke-linejoin:miter;stroke-opacity:1"/>
<path class="bond-13 atom-13 atom-14" d="M 502.2,284.6 L 489.7,282.5" style="fill:none;fill-rule:evenodd;stroke:#000000;stroke-width:2.0px;stroke-linecap:butt;stroke-linejoin:miter;stroke-opacity:1"/>
<path class="bond-14 atom-14 atom-15" d="M 489.7,282.5 L 491.8,269.9" style="fill:none;fill-rule:evenodd;stroke:#000000;stroke-width:2.0px;stroke-linecap:butt;stroke-linejoin:miter;stroke-opacity:1"/>
<path class="bond-15 atom-14 atom-16" d="M 489.7,282.5 L 487.5,295.0" style="fill:none;fill-rule:evenodd;stroke:#000000;stroke-width:2.0px;stroke-linecap:butt;stroke-linejoin:miter;stroke-opacity:1"/>
<path class="bond-16 atom-14 atom-17" d="M 489.7,282.5 L 477.1,280.3" style="fill:none;fill-rule:evenodd;stroke:#000000;stroke-width:2.0px;stroke-linecap:butt;stroke-linejoin:miter;stroke-opacity:1"/>
<path class="bond-17 atom-17 atom-18" d="M 477.1,280.3 L 469.0,290.1" style="fill:none;fill-rule:evenodd;stroke:#000000;stroke-width:2.0px;stroke-linecap:butt;stroke-linejoin:miter;stroke-opacity:1"/>
<path class="bond-18 atom-18 atom-19" d="M 469.0,290.1 L 456.5,288.0" style="fill:none;fill-rule:evenodd;stroke:#000000;stroke-width:2.0px;stroke-linecap:butt;stroke-linejoin:miter;stroke-opacity:1"/>
<path class="bond-19 atom-19 atom-20" d="M 456.5,288.0 L 448.4,297.8" style="fill:none;fill-rule:evenodd;stroke:#000000;stroke-width:2.0px;stroke-linecap:butt;stroke-linejoin:miter;stroke-opacity:1"/>
<path d="M 551.4,258.9 L 551.6,259.5 L 551.2,260.0" style="fill:none;stroke:#000000;stroke-width:2.0px;stroke-linecap:butt;stroke-linejoin:miter;stroke-opacity:1;"/>
<path d="M 543.9,268.8 L 543.5,269.3 L 543.7,269.9" style="fill:none;stroke:#000000;stroke-width:2.0px;stroke-linecap:butt;stroke-linejoin:miter;stroke-opacity:1;"/>
<path d="M 547.7,280.6 L 547.9,281.2 L 547.5,281.7" style="fill:none;stroke:#000000;stroke-width:2.0px;stroke-linecap:butt;stroke-linejoin:miter;stroke-opacity:1;"/>
<path d="M 540.2,290.5 L 539.8,291.0 L 540.0,291.6" style="fill:none;stroke:#000000;stroke-width:2.0px;stroke-linecap:butt;stroke-linejoin:miter;stroke-opacity:1;"/>
<path d="M 544.0,302.3 L 544.2,302.9 L 543.8,303.4" style="fill:none;stroke:#000000;stroke-width:2.0px;stroke-linecap:butt;stroke-linejoin:miter;stroke-opacity:1;"/>
<path d="M 540.3,324.0 L 540.5,324.6 L 540.1,325.1" style="fill:none;stroke:#000000;stroke-width:2.0px;stroke-linecap:butt;stroke-linejoin:miter;stroke-opacity:1;"/>
<path d="M 519.4,299.3 L 519.2,298.7 L 518.5,298.5" style="fill:none;stroke:#000000;stroke-width:2.0px;stroke-linecap:butt;stroke-linejoin:miter;stroke-opacity:1;"/>
<path d="M 507.3,296.6 L 506.6,296.5 L 506.4,295.9" style="fill:none;stroke:#000000;stroke-width:2.0px;stroke-linecap:butt;stroke-linejoin:miter;stroke-opacity:1;"/>
<path d="M 502.4,285.2 L 502.2,284.6 L 501.6,284.5" style="fill:none;stroke:#000000;stroke-width:2.0px;stroke-linecap:butt;stroke-linejoin:miter;stroke-opacity:1;"/>
<path d="M 477.8,280.4 L 477.1,280.3 L 476.7,280.8" style="fill:none;stroke:#000000;stroke-width:2.0px;stroke-linecap:butt;stroke-linejoin:miter;stroke-opacity:1;"/>
<path d="M 469.4,289.6 L 469.0,290.1 L 468.4,290.0" style="fill:none;stroke:#000000;stroke-width:2.0px;stroke-linecap:butt;stroke-linejoin:miter;stroke-opacity:1;"/>
<path d="M 457.1,288.1 L 456.5,288.0 L 456.1,288.5" style="fill:none;stroke:#000000;stroke-width:2.0px;stroke-linecap:butt;stroke-linejoin:miter;stroke-opacity:1;"/>
<path class="legend" d="M 495.6 378.7 L 497.1 378.7 L 497.1 383.5 L 502.9 383.5 L 502.9 378.7 L 504.4 378.7 L 504.4 390.0 L 502.9 390.0 L 502.9 384.8 L 497.1 384.8 L 497.1 390.0 L 495.6 390.0 L 495.6 378.7 " fill="#000000"/>
</svg>