<svg xmlns="http://www.w3.org/2000/svg" xmlns:rdkit="http://www.rdkit.org/xml" xmlns:xlink="http://www.w3.org/1999/xlink" version="1.1" baseProfile="full" xml:space="preserve" width="800px" height="200px" viewBox="0 0 800 200">
<!-- END OF HEADER -->
<rect style="opacity:1.0;fill:#FFFFFF;stroke:none" width="800.0" height="200.0" x="0.0" y="0.0"> </rect>
<path class="bond-0 atom-0 atom-1" d="M 122.5,137.4 L 118.7,127.5" style="fill:none;fill-rule:evenodd;stroke:#FF0000;stroke-width:2.0px;stroke-linecap:butt;stroke-linejoin:miter;stroke-opacity:1"/>
<path class="bond-0 atom-0 atom-1" d="M 118.7,127.5 L 115.0,117.5" style="fill:none;fill-rule:evenodd;stroke:#000000;stroke-width:2.0px;stroke-linecap:butt;stroke-linejoin:miter;stroke-opacity:1"/>
<path class="bond-0 atom-0 atom-1" d="M 126.0,136.1 L 122.2,126.1" style="fill:none;fill-rule:evenodd;stroke:#FF0000;stroke-width:2.0px;stroke-linecap:butt;stroke-linejoin:miter;stroke-opacity:1"/>
<path class="bond-0 atom-0 atom-1" d="M 122.2,126.1 L 118.5,116.2" style="fill:none;fill-rule:evenodd;stroke:#000000;stroke-width:2.0px;stroke-linecap:butt;stroke-linejoin:miter;stroke-opacity:1"/>
<path class="bond-1 atom-1 atom-2" d="M 117.1,117.8 L 92.5,113.8" style="fill:none;fill-rule:evenodd;stroke:#000000;stroke-width:2.0px;stroke-linecap:butt;stroke-linejoin:miter;stroke-opacity:1"/>
<path class="bond-2 atom-2 atom-3" d="M 92.5,113.8 L 83.7,90.5" style="fill:none;fill-rule:evenodd;stroke:#000000;stroke-width:2.0px;stroke-linecap:butt;stroke-linejoin:miter;stroke-opacity:1"/>
<path class="bond-2 atom-2 atom-3" d="M 95.3,110.5 L 88.0,91.2" style="fill:none;fill-rule:evenodd;stroke:#000000;stroke-width:2.0px;stroke-linecap:butt;stroke-linejoin:miter;stroke-opacity:1"/>
<path class="bond-3 atom-3 atom-4" d="M 83.7,90.5 L 59.1,86.5" style="fill:none;fill-rule:evenodd;stroke:#000000;stroke-width:2.0px;stroke-linecap:butt;stroke-linejoin:miter;stroke-opacity:1"/>
<path class="bond-4 atom-4 atom-5" d="M 59.1,86.5 L 50.3,63.2" style="fill:none;fill-rule:evenodd;stroke:#000000;stroke-width:2.0px;stroke-linecap:butt;stroke-linejoin:miter;stroke-opacity:1"/>
<path class="bond-4 atom-4 atom-5" d="M 54.9,85.8 L 47.6,66.6" style="fill:none;fill-rule:evenodd;stroke:#000000;stroke-width:2.0px;stroke-linecap:butt;stroke-linejoin:miter;stroke-opacity:1"/>
<path class="bond-5 atom-5 atom-6" d="M 50.3,63.2 L 25.8,59.2" style="fill:none;fill-rule:evenodd;stroke:#000000;stroke-width:2.0px;stroke-linecap:butt;stroke-linejoin:miter;stroke-opacity:1"/>
<path class="bond-6 atom-6 atom-7" d="M 25.8,59.2 L 10.0,78.5" style="fill:none;fill-rule:evenodd;stroke:#000000;stroke-width:2.0px;stroke-linecap:butt;stroke-linejoin:miter;stroke-opacity:1"/>
<path class="bond-6 atom-6 atom-7" d="M 27.3,63.3 L 14.3,79.2" style="fill:none;fill-rule:evenodd;stroke:#000000;stroke-width:2.0px;stroke-linecap:butt;stroke-linejoin:miter;stroke-opacity:1"/>
<path class="bond-7 atom-7 atom-8" d="M 10.0,78.5 L 18.8,101.8" style="fill:none;fill-rule:evenodd;stroke:#000000;stroke-width:2.0px;stroke-linecap:butt;stroke-linejoin:miter;stroke-opacity:1"/>
<path class="bond-8 atom-8 atom-9" d="M 18.8,101.8 L 43.4,105.8" style="fill:none;fill-rule:evenodd;stroke:#000000;stroke-width:2.0px;stroke-linecap:butt;stroke-linejoin:miter;stroke-opacity:1"/>
<path class="bond-8 atom-8 atom-9" d="M 21.5,98.4 L 41.9,101.8" style="fill:none;fill-rule:evenodd;stroke:#000000;stroke-width:2.0px;stroke-linecap:butt;stroke-linejoin:miter;stroke-opacity:1"/>
<path class="bond-9 atom-3 atom-10" d="M 83.7,90.5 L 89.8,83.2" style="fill:none;fill-rule:evenodd;stroke:#000000;stroke-width:2.0px;stroke-linecap:butt;stroke-linejoin:miter;stroke-opacity:1"/>
<path class="bond-9 atom-3 atom-10" d="M 89.8,83.2 L 95.8,75.8" style="fill:none;fill-rule:evenodd;stroke:#FF0000;stroke-width:2.0px;stroke-linecap:butt;stroke-linejoin:miter;stroke-opacity:1"/>
<path class="bond-10 atom-10 atom-11" d="M 103.5,71.9 L 113.8,73.6" style="fill:none;fill-rule:evenodd;stroke:#FF0000;stroke-width:2.0px;stroke-linecap:butt;stroke-linejoin:miter;stroke-opacity:1"/>
<path class="bond-10 atom-10 atom-11" d="M 113.8,73.6 L 124.0,75.3" style="fill:none;fill-rule:evenodd;stroke:#000000;stroke-width:2.0px;stroke-linecap:butt;stroke-linejoin:miter;stroke-opacity:1"/>
<path class="bond-11 atom-11 atom-12" d="M 124.0,75.3 L 139.8,56.0" style="fill:none;fill-rule:evenodd;stroke:#000000;stroke-width:2.0px;stroke-linecap:butt;stroke-linejoin:miter;stroke-opacity:1"/>
<path class="bond-11 atom-11 atom-12" d="M 128.3,76.0 L 141.3,60.0" style="fill:none;fill-rule:evenodd;stroke:#000000;stroke-width:2.0px;stroke-linecap:butt;stroke-linejoin:miter;stroke-opacity:1"/>
<path class="bond-12 atom-12 atom-13" d="M 139.8,56.0 L 164.4,60.0" style="fill:none;fill-rule:evenodd;stroke:#000000;stroke-width:2.0px;stroke-linecap:butt;stroke-linejoin:miter;stroke-opacity:1"/>
<path class="bond-13 atom-13 atom-14" d="M 164.4,60.0 L 170.4,52.6" style="fill:none;fill-rule:evenodd;stroke:#000000;stroke-width:2.0px;stroke-linecap:butt;stroke-linejoin:miter;stroke-opacity:1"/>
<path class="bond-13 atom-13 atom-14" d="M 170.4,52.6 L 176.5,45.3" style="fill:none;fill-rule:evenodd;stroke:#FF0000;stroke-width:2.0px;stroke-linecap:butt;stroke-linejoin:miter;stroke-opacity:1"/>
<path class="bond-14 atom-13 atom-15" d="M 164.4,60.0 L 173.2,83.3" style="fill:none;fill-rule:evenodd;stroke:#000000;stroke-width:2.0px;stroke-linecap:butt;stroke-linejoin:miter;stroke-opacity:1"/>
<path class="bond-14 atom-13 atom-15" d="M 161.7,63.4 L 168.9,82.6" style="fill:none;fill-rule:evenodd;stroke:#000000;stroke-width:2.0px;stroke-linecap:butt;stroke-linejoin:miter;stroke-opacity:1"/>
<path class="bond-15 atom-15 atom-16" d="M 173.2,83.3 L 157.4,102.6" style="fill:none;fill-rule:evenodd;stroke:#000000;stroke-width:2.0px;stroke-linecap:butt;stroke-linejoin:miter;stroke-opacity:1"/>
<path class="bond-16 atom-16 atom-17" d="M 157.4,102.6 L 161.0,112.0" style="fill:none;fill-rule:evenodd;stroke:#000000;stroke-width:2.0px;stroke-linecap:butt;stroke-linejoin:miter;stroke-opacity:1"/>
<path class="bond-16 atom-16 atom-17" d="M 161.0,112.0 L 164.6,121.5" style="fill:none;fill-rule:evenodd;stroke:#FF0000;stroke-width:2.0px;stroke-linecap:butt;stroke-linejoin:miter;stroke-opacity:1"/>
<path class="bond-17 atom-16 atom-18" d="M 157.4,102.6 L 132.9,98.6" style="fill:none;fill-rule:evenodd;stroke:#000000;stroke-width:2.0px;stroke-linecap:butt;stroke-linejoin:miter;stroke-opacity:1"/>
<path class="bond-17 atom-16 atom-18" d="M 155.9,98.6 L 135.6,95.2" style="fill:none;fill-rule:evenodd;stroke:#000000;stroke-width:2.0px;stroke-linecap:butt;stroke-linejoin:miter;stroke-opacity:1"/>
<path class="bond-18 atom-18 atom-1" d="M 132.9,98.6 L 117.1,117.8" style="fill:none;fill-rule:evenodd;stroke:#000000;stroke-width:2.0px;stroke-linecap:butt;stroke-linejoin:miter;stroke-opacity:1"/>
<path class="bond-19 atom-9 atom-4" d="M 43.4,105.8 L 59.1,86.5" style="fill:none;fill-rule:evenodd;stroke:#000000;stroke-width:2.0px;stroke-linecap:butt;stroke-linejoin:miter;stroke-opacity:1"/>
<path class="bond-20 atom-18 atom-11" d="M 132.9,98.6 L 124.0,75.3" style="fill:none;fill-rule:evenodd;stroke:#000000;stroke-width:2.0px;stroke-linecap:butt;stroke-linejoin:miter;stroke-opacity:1"/>
<path d="M 115.9,117.6 L 117.1,117.8 L 117.9,116.9" style="fill:none;stroke:#000000;stroke-width:2.0px;stroke-linecap:butt;stroke-linejoin:miter;stroke-opacity:1;"/>
<path d="M 93.8,114.0 L 92.5,113.8 L 92.1,112.7" style="fill:none;stroke:#000000;stroke-width:2.0px;stroke-linecap:butt;stroke-linejoin:miter;stroke-opacity:1;"/>
<path d="M 50.8,64.4 L 50.3,63.2 L 49.1,63.0" style="fill:none;stroke:#000000;stroke-width:2.0px;stroke-linecap:butt;stroke-linejoin:miter;stroke-opacity:1;"/>
<path d="M 27.0,59.4 L 25.8,59.2 L 25.0,60.2" style="fill:none;stroke:#000000;stroke-width:2.0px;stroke-linecap:butt;stroke-linejoin:miter;stroke-opacity:1;"/>
<path d="M 10.8,77.5 L 10.0,78.5 L 10.4,79.7" style="fill:none;stroke:#000000;stroke-width:2.0px;stroke-linecap:butt;stroke-linejoin:miter;stroke-opacity:1;"/>
<path d="M 18.4,100.6 L 18.8,101.8 L 20.0,102.0" style="fill:none;stroke:#000000;stroke-width:2.0px;stroke-linecap:butt;stroke-linejoin:miter;stroke-opacity:1;"/>
<path d="M 42.2,105.6 L 43.4,105.8 L 44.2,104.8" style="fill:none;stroke:#000000;stroke-width:2.0px;stroke-linecap:butt;stroke-linejoin:miter;stroke-opacity:1;"/>
<path d="M 139.0,57.0 L 139.8,56.0 L 141.0,56.2" style="fill:none;stroke:#000000;stroke-width:2.0px;stroke-linecap:butt;stroke-linejoin:miter;stroke-opacity:1;"/>
<path d="M 172.8,82.2 L 173.2,83.3 L 172.4,84.3" style="fill:none;stroke:#000000;stroke-width:2.0px;stroke-linecap:butt;stroke-linejoin:miter;stroke-opacity:1;"/>
<path class="atom-0" d="M 122.7 141.2 Q 122.7 139.5, 123.5 138.5 Q 124.3 137.6, 125.9 137.6 Q 127.5 137.6, 128.3 138.5 Q 129.1 139.5, 129.1 141.2 Q 129.1 142.9, 128.3 143.8 Q 127.4 144.8, 125.9 144.8 Q 124.3 144.8, 123.5 143.8 Q 122.7 142.9, 122.7 141.2 M 125.9 144.0 Q 127.0 144.0, 127.6 143.3 Q 128.1 142.6, 128.1 141.2 Q 128.1 139.8, 127.6 139.1 Q 127.0 138.4, 125.9 138.4 Q 124.8 138.4, 124.2 139.1 Q 123.7 139.8, 123.7 141.2 Q 123.7 142.6, 124.2 143.3 Q 124.8 144.0, 125.9 144.0 " fill="#FF0000"/>
<path class="atom-10" d="M 96.2 71.3 Q 96.2 69.6, 97.1 68.7 Q 97.9 67.7, 99.5 67.7 Q 101.0 67.7, 101.9 68.7 Q 102.7 69.6, 102.7 71.3 Q 102.7 73.0, 101.9 74.0 Q 101.0 74.9, 99.5 74.9 Q 97.9 74.9, 97.1 74.0 Q 96.2 73.0, 96.2 71.3 M 99.5 74.1 Q 100.6 74.1, 101.1 73.4 Q 101.7 72.7, 101.7 71.3 Q 101.7 69.9, 101.1 69.2 Q 100.6 68.5, 99.5 68.5 Q 98.4 68.5, 97.8 69.2 Q 97.2 69.9, 97.2 71.3 Q 97.2 72.7, 97.8 73.4 Q 98.4 74.1, 99.5 74.1 " fill="#FF0000"/>
<path class="atom-14" d="M 176.9 40.8 Q 176.9 39.1, 177.7 38.1 Q 178.6 37.2, 180.1 37.2 Q 181.7 37.2, 182.5 38.1 Q 183.4 39.1, 183.4 40.8 Q 183.4 42.5, 182.5 43.5 Q 181.7 44.4, 180.1 44.4 Q 178.6 44.4, 177.7 43.5 Q 176.9 42.5, 176.9 40.8 M 180.1 43.6 Q 181.2 43.6, 181.8 42.9 Q 182.4 42.2, 182.4 40.8 Q 182.4 39.4, 181.8 38.7 Q 181.2 38.0, 180.1 38.0 Q 179.1 38.0, 178.5 38.7 Q 177.9 39.4, 177.9 40.8 Q 177.9 42.2, 178.5 42.9 Q 179.1 43.6, 180.1 43.6 " fill="#FF0000"/>
<path class="atom-14" d="M 184.5 37.3 L 185.4 37.3 L 185.4 40.3 L 189.0 40.3 L 189.0 37.3 L 190.0 37.3 L 190.0 44.3 L 189.0 44.3 L 189.0 41.1 L 185.4 41.1 L 185.4 44.3 L 184.5 44.3 L 184.5 37.3 " fill="#FF0000"/>
<path class="atom-17" d="M 163.0 125.9 Q 163.0 124.2, 163.8 123.3 Q 164.7 122.3, 166.2 122.3 Q 167.8 122.3, 168.6 123.3 Q 169.5 124.2, 169.5 125.9 Q 169.5 127.6, 168.6 128.6 Q 167.8 129.6, 166.2 129.6 Q 164.7 129.6, 163.8 128.6 Q 163.0 127.6, 163.0 125.9 M 166.2 128.8 Q 167.3 128.8, 167.9 128.0 Q 168.5 127.3, 168.5 125.9 Q 168.5 124.5, 167.9 123.8 Q 167.3 123.1, 166.2 123.1 Q 165.2 123.1, 164.6 123.8 Q 164.0 124.5, 164.0 125.9 Q 164.0 127.3, 164.6 128.0 Q 165.2 128.8, 166.2 128.8 " fill="#FF0000"/>
<path class="atom-17" d="M 170.6 122.4 L 171.5 122.4 L 171.5 125.4 L 175.1 125.4 L 175.1 122.4 L 176.1 122.4 L 176.1 129.4 L 175.1 129.4 L 175.1 126.2 L 171.5 126.2 L 171.5 129.4 L 170.6 129.4 L 170.6 122.4 " fill="#FF0000"/>
<path class="legend" d="M 103.4 190.0 L 102.2 186.7 L 97.8 186.7 L 96.6 190.0 L 95.1 190.0 L 99.0 178.7 L 100.9 178.7 L 104.9 190.0 L 103.4 190.0 M 98.2 185.4 L 101.8 185.4 L 100.0 180.3 L 98.2 185.4 " fill="#000000"/>
</svg>