<svg xmlns="http://www.w3.org/2000/svg" xmlns:rdkit="http://www.rdkit.org/xml" xmlns:xlink="http://www.w3.org/1999/xlink" version="1.1" baseProfile="full" xml:space="preserve" width="800px" height="200px" viewBox="0 0 800 200">
<!-- END OF HEADER -->
<rect style="opacity:1.0;fill:#FFFFFF;stroke:none" width="800.0" height="200.0" x="0.0" y="0.0"> </rect>
<path class="bond-0 atom-0 atom-1" d="M 130.8,59.4 L 128.1,66.2" style="fill:none;fill-rule:evenodd;stroke:#FF0000;stroke-width:2.0px;stroke-linecap:butt;stroke-linejoin:miter;stroke-opacity:1"/>
<path class="bond-0 atom-0 atom-1" d="M 128.1,66.2 L 125.5,73.1" style="fill:none;fill-rule:evenodd;stroke:#000000;stroke-width:2.0px;stroke-linecap:butt;stroke-linejoin:miter;stroke-opacity:1"/>
<path class="bond-0 atom-0 atom-1" d="M 128.4,58.4 L 125.7,65.3" style="fill:none;fill-rule:evenodd;stroke:#FF0000;stroke-width:2.0px;stroke-linecap:butt;stroke-linejoin:miter;stroke-opacity:1"/>
<path class="bond-0 atom-0 atom-1" d="M 125.7,65.3 L 123.0,72.1" style="fill:none;fill-rule:evenodd;stroke:#000000;stroke-width:2.0px;stroke-linecap:butt;stroke-linejoin:miter;stroke-opacity:1"/>
<path class="bond-1 atom-1 atom-2" d="M 124.5,71.9 L 107.4,74.5" style="fill:none;fill-rule:evenodd;stroke:#000000;stroke-width:2.0px;stroke-linecap:butt;stroke-linejoin:miter;stroke-opacity:1"/>
<path class="bond-2 atom-2 atom-3" d="M 107.4,74.5 L 103.2,69.3" style="fill:none;fill-rule:evenodd;stroke:#000000;stroke-width:2.0px;stroke-linecap:butt;stroke-linejoin:miter;stroke-opacity:1"/>
<path class="bond-2 atom-2 atom-3" d="M 103.2,69.3 L 99.0,64.1" style="fill:none;fill-rule:evenodd;stroke:#FF0000;stroke-width:2.0px;stroke-linecap:butt;stroke-linejoin:miter;stroke-opacity:1"/>
<path class="bond-3 atom-2 atom-4" d="M 107.4,74.5 L 101.0,90.7" style="fill:none;fill-rule:evenodd;stroke:#000000;stroke-width:2.0px;stroke-linecap:butt;stroke-linejoin:miter;stroke-opacity:1"/>
<path class="bond-3 atom-2 atom-4" d="M 109.2,76.9 L 104.0,90.2" style="fill:none;fill-rule:evenodd;stroke:#000000;stroke-width:2.0px;stroke-linecap:butt;stroke-linejoin:miter;stroke-opacity:1"/>
<path class="bond-4 atom-4 atom-5" d="M 101.0,90.7 L 83.9,93.3" style="fill:none;fill-rule:evenodd;stroke:#000000;stroke-width:2.0px;stroke-linecap:butt;stroke-linejoin:miter;stroke-opacity:1"/>
<path class="bond-5 atom-5 atom-6" d="M 83.9,93.3 L 73.0,79.7" style="fill:none;fill-rule:evenodd;stroke:#000000;stroke-width:2.0px;stroke-linecap:butt;stroke-linejoin:miter;stroke-opacity:1"/>
<path class="bond-5 atom-5 atom-6" d="M 80.9,93.8 L 71.9,82.5" style="fill:none;fill-rule:evenodd;stroke:#000000;stroke-width:2.0px;stroke-linecap:butt;stroke-linejoin:miter;stroke-opacity:1"/>
<path class="bond-6 atom-6 atom-7" d="M 73.0,79.7 L 55.9,82.3" style="fill:none;fill-rule:evenodd;stroke:#000000;stroke-width:2.0px;stroke-linecap:butt;stroke-linejoin:miter;stroke-opacity:1"/>
<path class="bond-7 atom-7 atom-8" d="M 55.9,82.3 L 49.5,98.5" style="fill:none;fill-rule:evenodd;stroke:#000000;stroke-width:2.0px;stroke-linecap:butt;stroke-linejoin:miter;stroke-opacity:1"/>
<path class="bond-7 atom-7 atom-8" d="M 57.7,84.7 L 52.5,98.1" style="fill:none;fill-rule:evenodd;stroke:#000000;stroke-width:2.0px;stroke-linecap:butt;stroke-linejoin:miter;stroke-opacity:1"/>
<path class="bond-8 atom-8 atom-9" d="M 49.5,98.5 L 42.4,99.6" style="fill:none;fill-rule:evenodd;stroke:#000000;stroke-width:2.0px;stroke-linecap:butt;stroke-linejoin:miter;stroke-opacity:1"/>
<path class="bond-8 atom-8 atom-9" d="M 42.4,99.6 L 35.2,100.7" style="fill:none;fill-rule:evenodd;stroke:#FF0000;stroke-width:2.0px;stroke-linecap:butt;stroke-linejoin:miter;stroke-opacity:1"/>
<path class="bond-9 atom-8 atom-10" d="M 49.5,98.5 L 60.4,112.1" style="fill:none;fill-rule:evenodd;stroke:#000000;stroke-width:2.0px;stroke-linecap:butt;stroke-linejoin:miter;stroke-opacity:1"/>
<path class="bond-10 atom-10 atom-11" d="M 60.4,112.1 L 77.5,109.5" style="fill:none;fill-rule:evenodd;stroke:#000000;stroke-width:2.0px;stroke-linecap:butt;stroke-linejoin:miter;stroke-opacity:1"/>
<path class="bond-10 atom-10 atom-11" d="M 61.5,109.3 L 75.7,107.1" style="fill:none;fill-rule:evenodd;stroke:#000000;stroke-width:2.0px;stroke-linecap:butt;stroke-linejoin:miter;stroke-opacity:1"/>
<path class="bond-11 atom-4 atom-12" d="M 101.0,90.7 L 105.2,95.9" style="fill:none;fill-rule:evenodd;stroke:#000000;stroke-width:2.0px;stroke-linecap:butt;stroke-linejoin:miter;stroke-opacity:1"/>
<path class="bond-11 atom-4 atom-12" d="M 105.2,95.9 L 109.4,101.2" style="fill:none;fill-rule:evenodd;stroke:#FF0000;stroke-width:2.0px;stroke-linecap:butt;stroke-linejoin:miter;stroke-opacity:1"/>
<path class="bond-12 atom-12 atom-13" d="M 114.7,103.8 L 121.9,102.7" style="fill:none;fill-rule:evenodd;stroke:#FF0000;stroke-width:2.0px;stroke-linecap:butt;stroke-linejoin:miter;stroke-opacity:1"/>
<path class="bond-12 atom-12 atom-13" d="M 121.9,102.7 L 129.0,101.7" style="fill:none;fill-rule:evenodd;stroke:#000000;stroke-width:2.0px;stroke-linecap:butt;stroke-linejoin:miter;stroke-opacity:1"/>
<path class="bond-13 atom-13 atom-14" d="M 129.0,101.7 L 139.9,115.2" style="fill:none;fill-rule:evenodd;stroke:#000000;stroke-width:2.0px;stroke-linecap:butt;stroke-linejoin:miter;stroke-opacity:1"/>
<path class="bond-13 atom-13 atom-14" d="M 132.0,101.2 L 141.0,112.4" style="fill:none;fill-rule:evenodd;stroke:#000000;stroke-width:2.0px;stroke-linecap:butt;stroke-linejoin:miter;stroke-opacity:1"/>
<path class="bond-14 atom-14 atom-15" d="M 139.9,115.2 L 157.0,112.6" style="fill:none;fill-rule:evenodd;stroke:#000000;stroke-width:2.0px;stroke-linecap:butt;stroke-linejoin:miter;stroke-opacity:1"/>
<path class="bond-15 atom-15 atom-16" d="M 157.0,112.6 L 161.2,117.9" style="fill:none;fill-rule:evenodd;stroke:#000000;stroke-width:2.0px;stroke-linecap:butt;stroke-linejoin:miter;stroke-opacity:1"/>
<path class="bond-15 atom-15 atom-16" d="M 161.2,117.9 L 165.4,123.1" style="fill:none;fill-rule:evenodd;stroke:#FF0000;stroke-width:2.0px;stroke-linecap:butt;stroke-linejoin:miter;stroke-opacity:1"/>
<path class="bond-16 atom-15 atom-17" d="M 157.0,112.6 L 163.4,96.4" style="fill:none;fill-rule:evenodd;stroke:#000000;stroke-width:2.0px;stroke-linecap:butt;stroke-linejoin:miter;stroke-opacity:1"/>
<path class="bond-16 atom-15 atom-17" d="M 155.2,110.3 L 160.4,96.9" style="fill:none;fill-rule:evenodd;stroke:#000000;stroke-width:2.0px;stroke-linecap:butt;stroke-linejoin:miter;stroke-opacity:1"/>
<path class="bond-17 atom-17 atom-18" d="M 163.4,96.4 L 152.5,82.9" style="fill:none;fill-rule:evenodd;stroke:#000000;stroke-width:2.0px;stroke-linecap:butt;stroke-linejoin:miter;stroke-opacity:1"/>
<path class="bond-18 atom-18 atom-19" d="M 152.5,82.9 L 155.1,76.4" style="fill:none;fill-rule:evenodd;stroke:#000000;stroke-width:2.0px;stroke-linecap:butt;stroke-linejoin:miter;stroke-opacity:1"/>
<path class="bond-18 atom-18 atom-19" d="M 155.1,76.4 L 157.6,69.8" style="fill:none;fill-rule:evenodd;stroke:#FF0000;stroke-width:2.0px;stroke-linecap:butt;stroke-linejoin:miter;stroke-opacity:1"/>
<path class="bond-19 atom-18 atom-20" d="M 152.5,82.9 L 135.4,85.5" style="fill:none;fill-rule:evenodd;stroke:#000000;stroke-width:2.0px;stroke-linecap:butt;stroke-linejoin:miter;stroke-opacity:1"/>
<path class="bond-19 atom-18 atom-20" d="M 151.4,85.7 L 137.2,87.8" style="fill:none;fill-rule:evenodd;stroke:#000000;stroke-width:2.0px;stroke-linecap:butt;stroke-linejoin:miter;stroke-opacity:1"/>
<path class="bond-20 atom-20 atom-1" d="M 135.4,85.5 L 124.5,71.9" style="fill:none;fill-rule:evenodd;stroke:#000000;stroke-width:2.0px;stroke-linecap:butt;stroke-linejoin:miter;stroke-opacity:1"/>
<path class="bond-21 atom-11 atom-5" d="M 77.5,109.5 L 83.9,93.3" style="fill:none;fill-rule:evenodd;stroke:#000000;stroke-width:2.0px;stroke-linecap:butt;stroke-linejoin:miter;stroke-opacity:1"/>
<path class="bond-22 atom-20 atom-13" d="M 135.4,85.5 L 129.0,101.7" style="fill:none;fill-rule:evenodd;stroke:#000000;stroke-width:2.0px;stroke-linecap:butt;stroke-linejoin:miter;stroke-opacity:1"/>
<path d="M 123.7,72.0 L 124.5,71.9 L 125.1,72.6" style="fill:none;stroke:#000000;stroke-width:2.0px;stroke-linecap:butt;stroke-linejoin:miter;stroke-opacity:1;"/>
<path d="M 73.6,80.4 L 73.0,79.7 L 72.2,79.9" style="fill:none;stroke:#000000;stroke-width:2.0px;stroke-linecap:butt;stroke-linejoin:miter;stroke-opacity:1;"/>
<path d="M 56.7,82.2 L 55.9,82.3 L 55.5,83.2" style="fill:none;stroke:#000000;stroke-width:2.0px;stroke-linecap:butt;stroke-linejoin:miter;stroke-opacity:1;"/>
<path d="M 59.8,111.4 L 60.4,112.1 L 61.2,112.0" style="fill:none;stroke:#000000;stroke-width:2.0px;stroke-linecap:butt;stroke-linejoin:miter;stroke-opacity:1;"/>
<path d="M 76.7,109.6 L 77.5,109.5 L 77.8,108.7" style="fill:none;stroke:#000000;stroke-width:2.0px;stroke-linecap:butt;stroke-linejoin:miter;stroke-opacity:1;"/>
<path d="M 139.3,114.5 L 139.9,115.2 L 140.7,115.1" style="fill:none;stroke:#000000;stroke-width:2.0px;stroke-linecap:butt;stroke-linejoin:miter;stroke-opacity:1;"/>
<path d="M 163.1,97.2 L 163.4,96.4 L 162.8,95.8" style="fill:none;stroke:#000000;stroke-width:2.0px;stroke-linecap:butt;stroke-linejoin:miter;stroke-opacity:1;"/>
<path class="atom-0" d="M 128.6 55.8 Q 128.6 54.6, 129.2 53.9 Q 129.8 53.3, 130.8 53.3 Q 131.9 53.3, 132.5 53.9 Q 133.1 54.6, 133.1 55.8 Q 133.1 57.0, 132.5 57.6 Q 131.9 58.3, 130.8 58.3 Q 129.8 58.3, 129.2 57.6 Q 128.6 57.0, 128.6 55.8 M 130.8 57.8 Q 131.6 57.8, 132.0 57.3 Q 132.4 56.7, 132.4 55.8 Q 132.4 54.8, 132.0 54.3 Q 131.6 53.8, 130.8 53.8 Q 130.1 53.8, 129.7 54.3 Q 129.3 54.8, 129.3 55.8 Q 129.3 56.8, 129.7 57.3 Q 130.1 57.8, 130.8 57.8 " fill="#FF0000"/>
<path class="atom-3" d="M 89.4 58.5 L 90.1 58.5 L 90.1 60.6 L 92.6 60.6 L 92.6 58.5 L 93.2 58.5 L 93.2 63.4 L 92.6 63.4 L 92.6 61.2 L 90.1 61.2 L 90.1 63.4 L 89.4 63.4 L 89.4 58.5 " fill="#FF0000"/>
<path class="atom-3" d="M 94.3 61.0 Q 94.3 59.8, 94.8 59.1 Q 95.4 58.5, 96.5 58.5 Q 97.6 58.5, 98.2 59.1 Q 98.8 59.8, 98.8 61.0 Q 98.8 62.2, 98.2 62.9 Q 97.6 63.5, 96.5 63.5 Q 95.4 63.5, 94.8 62.9 Q 94.3 62.2, 94.3 61.0 M 96.5 63.0 Q 97.3 63.0, 97.7 62.5 Q 98.1 62.0, 98.1 61.0 Q 98.1 60.0, 97.7 59.5 Q 97.3 59.0, 96.5 59.0 Q 95.8 59.0, 95.4 59.5 Q 94.9 60.0, 94.9 61.0 Q 94.9 62.0, 95.4 62.5 Q 95.8 63.0, 96.5 63.0 " fill="#FF0000"/>
<path class="atom-9" d="M 25.2 98.7 L 25.9 98.7 L 25.9 100.8 L 28.4 100.8 L 28.4 98.7 L 29.1 98.7 L 29.1 103.6 L 28.4 103.6 L 28.4 101.3 L 25.9 101.3 L 25.9 103.6 L 25.2 103.6 L 25.2 98.7 " fill="#FF0000"/>
<path class="atom-9" d="M 30.1 101.1 Q 30.1 100.0, 30.7 99.3 Q 31.3 98.6, 32.4 98.6 Q 33.4 98.6, 34.0 99.3 Q 34.6 100.0, 34.6 101.1 Q 34.6 102.3, 34.0 103.0 Q 33.4 103.7, 32.4 103.7 Q 31.3 103.7, 30.7 103.0 Q 30.1 102.3, 30.1 101.1 M 32.4 103.1 Q 33.1 103.1, 33.5 102.6 Q 33.9 102.1, 33.9 101.1 Q 33.9 100.2, 33.5 99.7 Q 33.1 99.2, 32.4 99.2 Q 31.6 99.2, 31.2 99.7 Q 30.8 100.2, 30.8 101.1 Q 30.8 102.1, 31.2 102.6 Q 31.6 103.1, 32.4 103.1 " fill="#FF0000"/>
<path class="atom-12" d="M 109.6 104.3 Q 109.6 103.1, 110.2 102.4 Q 110.8 101.8, 111.9 101.8 Q 113.0 101.8, 113.5 102.4 Q 114.1 103.1, 114.1 104.3 Q 114.1 105.5, 113.5 106.2 Q 112.9 106.8, 111.9 106.8 Q 110.8 106.8, 110.2 106.2 Q 109.6 105.5, 109.6 104.3 M 111.9 106.3 Q 112.6 106.3, 113.0 105.8 Q 113.4 105.3, 113.4 104.3 Q 113.4 103.3, 113.0 102.8 Q 112.6 102.3, 111.9 102.3 Q 111.1 102.3, 110.7 102.8 Q 110.3 103.3, 110.3 104.3 Q 110.3 105.3, 110.7 105.8 Q 111.1 106.3, 111.9 106.3 " fill="#FF0000"/>
<path class="atom-16" d="M 165.6 126.2 Q 165.6 125.0, 166.2 124.3 Q 166.8 123.7, 167.9 123.7 Q 169.0 123.7, 169.6 124.3 Q 170.1 125.0, 170.1 126.2 Q 170.1 127.4, 169.6 128.1 Q 169.0 128.7, 167.9 128.7 Q 166.8 128.7, 166.2 128.1 Q 165.6 127.4, 165.6 126.2 M 167.9 128.2 Q 168.6 128.2, 169.0 127.7 Q 169.4 127.2, 169.4 126.2 Q 169.4 125.2, 169.0 124.7 Q 168.6 124.2, 167.9 124.2 Q 167.1 124.2, 166.7 124.7 Q 166.3 125.2, 166.3 126.2 Q 166.3 127.2, 166.7 127.7 Q 167.1 128.2, 167.9 128.2 " fill="#FF0000"/>
<path class="atom-16" d="M 170.9 123.7 L 171.6 123.7 L 171.6 125.8 L 174.1 125.8 L 174.1 123.7 L 174.8 123.7 L 174.8 128.7 L 174.1 128.7 L 174.1 126.4 L 171.6 126.4 L 171.6 128.7 L 170.9 128.7 L 170.9 123.7 " fill="#FF0000"/>
<path class="atom-19" d="M 156.6 66.7 Q 156.6 65.5, 157.2 64.9 Q 157.8 64.2, 158.9 64.2 Q 159.9 64.2, 160.5 64.9 Q 161.1 65.5, 161.1 66.7 Q 161.1 67.9, 160.5 68.6 Q 159.9 69.3, 158.9 69.3 Q 157.8 69.3, 157.2 68.6 Q 156.6 67.9, 156.6 66.7 M 158.9 68.7 Q 159.6 68.7, 160.0 68.2 Q 160.4 67.7, 160.4 66.7 Q 160.4 65.8, 160.0 65.3 Q 159.6 64.8, 158.9 64.8 Q 158.1 64.8, 157.7 65.3 Q 157.3 65.7, 157.3 66.7 Q 157.3 67.7, 157.7 68.2 Q 158.1 68.7, 158.9 68.7 " fill="#FF0000"/>
<path class="atom-19" d="M 161.9 64.3 L 162.5 64.3 L 162.5 66.4 L 165.1 66.4 L 165.1 64.3 L 165.7 64.3 L 165.7 69.2 L 165.1 69.2 L 165.1 66.9 L 162.5 66.9 L 162.5 69.2 L 161.9 69.2 L 161.9 64.3 " fill="#FF0000"/>
<path class="legend" d="M 103.4 190.0 L 102.2 186.7 L 97.8 186.7 L 96.6 190.0 L 95.1 190.0 L 99.0 178.7 L 100.9 178.7 L 104.9 190.0 L 103.4 190.0 M 98.2 185.4 L 101.8 185.4 L 100.0 180.3 L 98.2 185.4 " fill="#000000"/>
<path class="bond-0 atom-0 atom-1" d="M 210.0,106.8 L 223.2,95.5" style="fill:none;fill-rule:evenodd;stroke:#000000;stroke-width:2.0px;stroke-linecap:butt;stroke-linejoin:miter;stroke-opacity:1"/>
<path class="bond-1 atom-1 atom-2" d="M 223.2,95.5 L 239.6,101.3" style="fill:none;fill-rule:evenodd;stroke:#000000;stroke-width:2.0px;stroke-linecap:butt;stroke-linejoin:miter;stroke-opacity:1"/>
<path class="bond-2 atom-2 atom-3" d="M 239.6,101.3 L 252.8,90.0" style="fill:none;fill-rule:evenodd;stroke:#000000;stroke-width:2.0px;stroke-linecap:butt;stroke-linejoin:miter;stroke-opacity:1"/>
<path class="bond-3 atom-3 atom-4" d="M 252.8,90.0 L 239.3,79.0" style="fill:none;fill-rule:evenodd;stroke:#000000;stroke-width:2.0px;stroke-linecap:butt;stroke-linejoin:miter;stroke-opacity:1"/>
<path class="bond-4 atom-4 atom-5" d="M 239.3,79.0 L 240.5,72.0" style="fill:none;fill-rule:evenodd;stroke:#000000;stroke-width:2.0px;stroke-linecap:butt;stroke-linejoin:miter;stroke-opacity:1"/>
<path class="bond-4 atom-4 atom-5" d="M 240.5,72.0 L 241.7,65.0" style="fill:none;fill-rule:evenodd;stroke:#FF0000;stroke-width:2.0px;stroke-linecap:butt;stroke-linejoin:miter;stroke-opacity:1"/>
<path class="bond-5 atom-3 atom-6" d="M 252.8,90.0 L 261.3,74.9" style="fill:none;fill-rule:evenodd;stroke:#000000;stroke-width:2.0px;stroke-linecap:butt;stroke-linejoin:miter;stroke-opacity:1"/>
<path class="bond-6 atom-6 atom-7" d="M 261.3,74.9 L 278.6,74.7" style="fill:none;fill-rule:evenodd;stroke:#000000;stroke-width:2.0px;stroke-linecap:butt;stroke-linejoin:miter;stroke-opacity:1"/>
<path class="bond-7 atom-7 atom-8" d="M 278.6,74.7 L 287.5,89.7" style="fill:none;fill-rule:evenodd;stroke:#000000;stroke-width:2.0px;stroke-linecap:butt;stroke-linejoin:miter;stroke-opacity:1"/>
<path class="bond-8 atom-8 atom-9" d="M 287.5,89.7 L 270.1,89.8" style="fill:none;fill-rule:evenodd;stroke:#000000;stroke-width:2.0px;stroke-linecap:butt;stroke-linejoin:miter;stroke-opacity:1"/>
<path class="bond-9 atom-8 atom-10" d="M 287.5,89.7 L 278.9,104.8" style="fill:none;fill-rule:evenodd;stroke:#000000;stroke-width:2.0px;stroke-linecap:butt;stroke-linejoin:miter;stroke-opacity:1"/>
<path class="bond-10 atom-10 atom-11" d="M 278.9,104.8 L 287.8,119.7" style="fill:none;fill-rule:evenodd;stroke:#000000;stroke-width:2.0px;stroke-linecap:butt;stroke-linejoin:miter;stroke-opacity:1"/>
<path class="bond-11 atom-11 atom-12" d="M 287.8,119.7 L 305.1,119.6" style="fill:none;fill-rule:evenodd;stroke:#000000;stroke-width:2.0px;stroke-linecap:butt;stroke-linejoin:miter;stroke-opacity:1"/>
<path class="bond-12 atom-12 atom-13" d="M 305.1,119.6 L 313.7,104.4" style="fill:none;fill-rule:evenodd;stroke:#000000;stroke-width:2.0px;stroke-linecap:butt;stroke-linejoin:miter;stroke-opacity:1"/>
<path class="bond-13 atom-13 atom-14" d="M 313.7,104.4 L 331.0,104.3" style="fill:none;fill-rule:evenodd;stroke:#000000;stroke-width:2.0px;stroke-linecap:butt;stroke-linejoin:miter;stroke-opacity:1"/>
<path class="bond-14 atom-14 atom-15" d="M 331.0,104.3 L 322.5,119.4" style="fill:none;fill-rule:evenodd;stroke:#000000;stroke-width:2.0px;stroke-linecap:butt;stroke-linejoin:miter;stroke-opacity:1"/>
<path class="bond-15 atom-14 atom-16" d="M 331.0,104.3 L 339.9,119.2" style="fill:none;fill-rule:evenodd;stroke:#000000;stroke-width:2.0px;stroke-linecap:butt;stroke-linejoin:miter;stroke-opacity:1"/>
<path class="bond-16 atom-16 atom-17" d="M 339.9,119.2 L 357.2,119.0" style="fill:none;fill-rule:evenodd;stroke:#000000;stroke-width:2.0px;stroke-linecap:butt;stroke-linejoin:miter;stroke-opacity:1"/>
<path class="bond-17 atom-17 atom-18" d="M 357.2,119.0 L 365.8,103.9" style="fill:none;fill-rule:evenodd;stroke:#000000;stroke-width:2.0px;stroke-linecap:butt;stroke-linejoin:miter;stroke-opacity:1"/>
<path class="bond-18 atom-18 atom-19" d="M 365.8,103.9 L 373.0,103.8" style="fill:none;fill-rule:evenodd;stroke:#000000;stroke-width:2.0px;stroke-linecap:butt;stroke-linejoin:miter;stroke-opacity:1"/>
<path class="bond-18 atom-18 atom-19" d="M 373.0,103.8 L 380.3,103.8" style="fill:none;fill-rule:evenodd;stroke:#FF0000;stroke-width:2.0px;stroke-linecap:butt;stroke-linejoin:miter;stroke-opacity:1"/>
<path class="bond-19 atom-18 atom-20" d="M 365.8,103.9 L 356.9,89.0" style="fill:none;fill-rule:evenodd;stroke:#000000;stroke-width:2.0px;stroke-linecap:butt;stroke-linejoin:miter;stroke-opacity:1"/>
<path class="bond-20 atom-20 atom-21" d="M 356.9,89.0 L 353.7,71.9" style="fill:none;fill-rule:evenodd;stroke:#000000;stroke-width:2.0px;stroke-linecap:butt;stroke-linejoin:miter;stroke-opacity:1"/>
<path class="bond-21 atom-20 atom-22" d="M 356.9,89.0 L 373.2,82.9" style="fill:none;fill-rule:evenodd;stroke:#000000;stroke-width:2.0px;stroke-linecap:butt;stroke-linejoin:miter;stroke-opacity:1"/>
<path class="bond-22 atom-22 atom-23" d="M 373.2,82.9 L 374.4,75.9" style="fill:none;fill-rule:evenodd;stroke:#000000;stroke-width:2.0px;stroke-linecap:butt;stroke-linejoin:miter;stroke-opacity:1"/>
<path class="bond-22 atom-22 atom-23" d="M 374.4,75.9 L 375.5,68.9" style="fill:none;fill-rule:evenodd;stroke:#FF0000;stroke-width:2.0px;stroke-linecap:butt;stroke-linejoin:miter;stroke-opacity:1"/>
<path class="bond-23 atom-20 atom-24" d="M 356.9,89.0 L 339.6,89.1" style="fill:none;fill-rule:evenodd;stroke:#000000;stroke-width:2.0px;stroke-linecap:butt;stroke-linejoin:miter;stroke-opacity:1"/>
<path class="bond-24 atom-24 atom-25" d="M 339.6,89.1 L 330.7,74.2" style="fill:none;fill-rule:evenodd;stroke:#000000;stroke-width:2.0px;stroke-linecap:butt;stroke-linejoin:miter;stroke-opacity:1"/>
<path class="bond-25 atom-25 atom-26" d="M 330.7,74.2 L 313.4,74.4" style="fill:none;fill-rule:evenodd;stroke:#000000;stroke-width:2.0px;stroke-linecap:butt;stroke-linejoin:miter;stroke-opacity:1"/>
<path class="bond-26 atom-26 atom-27" d="M 313.4,74.4 L 304.8,89.5" style="fill:none;fill-rule:evenodd;stroke:#000000;stroke-width:2.0px;stroke-linecap:butt;stroke-linejoin:miter;stroke-opacity:1"/>
<path class="bond-27 atom-27 atom-28" d="M 304.8,89.5 L 296.0,74.5" style="fill:none;fill-rule:evenodd;stroke:#000000;stroke-width:2.0px;stroke-linecap:butt;stroke-linejoin:miter;stroke-opacity:1"/>
<path class="bond-28 atom-10 atom-29" d="M 278.9,104.8 L 261.6,105.0" style="fill:none;fill-rule:evenodd;stroke:#000000;stroke-width:2.0px;stroke-linecap:butt;stroke-linejoin:miter;stroke-opacity:1"/>
<path class="bond-29 atom-29 atom-30" d="M 261.6,105.0 L 258.2,111.0" style="fill:none;fill-rule:evenodd;stroke:#000000;stroke-width:2.0px;stroke-linecap:butt;stroke-linejoin:miter;stroke-opacity:1"/>
<path class="bond-29 atom-29 atom-30" d="M 258.2,111.0 L 254.8,117.0" style="fill:none;fill-rule:evenodd;stroke:#FF0000;stroke-width:2.0px;stroke-linecap:butt;stroke-linejoin:miter;stroke-opacity:1"/>
<path class="bond-30 atom-29 atom-3" d="M 261.6,105.0 L 252.8,90.0" style="fill:none;fill-rule:evenodd;stroke:#000000;stroke-width:2.0px;stroke-linecap:butt;stroke-linejoin:miter;stroke-opacity:1"/>
<path class="bond-31 atom-27 atom-8" d="M 304.8,89.5 L 287.5,89.7" style="fill:none;fill-rule:evenodd;stroke:#000000;stroke-width:2.0px;stroke-linecap:butt;stroke-linejoin:miter;stroke-opacity:1"/>
<path class="bond-32 atom-27 atom-13" d="M 304.8,89.5 L 313.7,104.4" style="fill:none;fill-rule:evenodd;stroke:#000000;stroke-width:2.0px;stroke-linecap:butt;stroke-linejoin:miter;stroke-opacity:1"/>
<path class="bond-33 atom-24 atom-14" d="M 339.6,89.1 L 331.0,104.3" style="fill:none;fill-rule:evenodd;stroke:#000000;stroke-width:2.0px;stroke-linecap:butt;stroke-linejoin:miter;stroke-opacity:1"/>
<path d="M 222.5,96.1 L 223.2,95.5 L 224.0,95.8" style="fill:none;stroke:#000000;stroke-width:2.0px;stroke-linecap:butt;stroke-linejoin:miter;stroke-opacity:1;"/>
<path d="M 238.7,101.0 L 239.6,101.3 L 240.2,100.7" style="fill:none;stroke:#000000;stroke-width:2.0px;stroke-linecap:butt;stroke-linejoin:miter;stroke-opacity:1;"/>
<path d="M 240.0,79.5 L 239.3,79.0 L 239.4,78.6" style="fill:none;stroke:#000000;stroke-width:2.0px;stroke-linecap:butt;stroke-linejoin:miter;stroke-opacity:1;"/>
<path d="M 260.9,75.6 L 261.3,74.9 L 262.2,74.9" style="fill:none;stroke:#000000;stroke-width:2.0px;stroke-linecap:butt;stroke-linejoin:miter;stroke-opacity:1;"/>
<path d="M 277.8,74.7 L 278.6,74.7 L 279.1,75.5" style="fill:none;stroke:#000000;stroke-width:2.0px;stroke-linecap:butt;stroke-linejoin:miter;stroke-opacity:1;"/>
<path d="M 287.3,119.0 L 287.8,119.7 L 288.7,119.7" style="fill:none;stroke:#000000;stroke-width:2.0px;stroke-linecap:butt;stroke-linejoin:miter;stroke-opacity:1;"/>
<path d="M 304.3,119.6 L 305.1,119.6 L 305.6,118.8" style="fill:none;stroke:#000000;stroke-width:2.0px;stroke-linecap:butt;stroke-linejoin:miter;stroke-opacity:1;"/>
<path d="M 339.4,118.5 L 339.9,119.2 L 340.7,119.2" style="fill:none;stroke:#000000;stroke-width:2.0px;stroke-linecap:butt;stroke-linejoin:miter;stroke-opacity:1;"/>
<path d="M 356.4,119.0 L 357.2,119.0 L 357.7,118.3" style="fill:none;stroke:#000000;stroke-width:2.0px;stroke-linecap:butt;stroke-linejoin:miter;stroke-opacity:1;"/>
<path d="M 372.4,83.2 L 373.2,82.9 L 373.2,82.5" style="fill:none;stroke:#000000;stroke-width:2.0px;stroke-linecap:butt;stroke-linejoin:miter;stroke-opacity:1;"/>
<path d="M 331.2,74.9 L 330.7,74.2 L 329.9,74.2" style="fill:none;stroke:#000000;stroke-width:2.0px;stroke-linecap:butt;stroke-linejoin:miter;stroke-opacity:1;"/>
<path d="M 314.2,74.3 L 313.4,74.4 L 312.9,75.1" style="fill:none;stroke:#000000;stroke-width:2.0px;stroke-linecap:butt;stroke-linejoin:miter;stroke-opacity:1;"/>
<path class="atom-5" d="M 239.9 61.9 Q 239.9 60.7, 240.5 60.0 Q 241.1 59.4, 242.2 59.4 Q 243.3 59.4, 243.9 60.0 Q 244.4 60.7, 244.4 61.9 Q 244.4 63.1, 243.9 63.7 Q 243.3 64.4, 242.2 64.4 Q 241.1 64.4, 240.5 63.7 Q 239.9 63.1, 239.9 61.9 M 242.2 63.9 Q 242.9 63.9, 243.3 63.4 Q 243.7 62.8, 243.7 61.9 Q 243.7 60.9, 243.3 60.4 Q 242.9 59.9, 242.2 59.9 Q 241.4 59.9, 241.0 60.4 Q 240.6 60.9, 240.6 61.9 Q 240.6 62.9, 241.0 63.4 Q 241.4 63.9, 242.2 63.9 " fill="#FF0000"/>
<path class="atom-5" d="M 245.2 59.4 L 245.9 59.4 L 245.9 61.5 L 248.4 61.5 L 248.4 59.4 L 249.1 59.4 L 249.1 64.3 L 248.4 64.3 L 248.4 62.1 L 245.9 62.1 L 245.9 64.3 L 245.2 64.3 L 245.2 59.4 " fill="#FF0000"/>
<path class="atom-19" d="M 380.9 103.7 Q 380.9 102.6, 381.5 101.9 Q 382.0 101.2, 383.1 101.2 Q 384.2 101.2, 384.8 101.9 Q 385.4 102.6, 385.4 103.7 Q 385.4 104.9, 384.8 105.6 Q 384.2 106.3, 383.1 106.3 Q 382.0 106.3, 381.5 105.6 Q 380.9 105.0, 380.9 103.7 M 383.1 105.7 Q 383.9 105.7, 384.3 105.2 Q 384.7 104.7, 384.7 103.7 Q 384.7 102.8, 384.3 102.3 Q 383.9 101.8, 383.1 101.8 Q 382.4 101.8, 382.0 102.3 Q 381.6 102.8, 381.6 103.7 Q 381.6 104.7, 382.0 105.2 Q 382.4 105.7, 383.1 105.7 " fill="#FF0000"/>
<path class="atom-19" d="M 386.2 101.3 L 386.8 101.3 L 386.8 103.4 L 389.3 103.4 L 389.3 101.3 L 390.0 101.3 L 390.0 106.2 L 389.3 106.2 L 389.3 103.9 L 386.8 103.9 L 386.8 106.2 L 386.2 106.2 L 386.2 101.3 " fill="#FF0000"/>
<path class="atom-23" d="M 373.8 65.7 Q 373.8 64.6, 374.4 63.9 Q 374.9 63.2, 376.0 63.2 Q 377.1 63.2, 377.7 63.9 Q 378.3 64.6, 378.3 65.7 Q 378.3 66.9, 377.7 67.6 Q 377.1 68.3, 376.0 68.3 Q 375.0 68.3, 374.4 67.6 Q 373.8 66.9, 373.8 65.7 M 376.0 67.7 Q 376.8 67.7, 377.2 67.2 Q 377.6 66.7, 377.6 65.7 Q 377.6 64.8, 377.2 64.3 Q 376.8 63.8, 376.0 63.8 Q 375.3 63.8, 374.9 64.3 Q 374.5 64.8, 374.5 65.7 Q 374.5 66.7, 374.9 67.2 Q 375.3 67.7, 376.0 67.7 " fill="#FF0000"/>
<path class="atom-23" d="M 379.1 63.3 L 379.7 63.3 L 379.7 65.4 L 382.2 65.4 L 382.2 63.3 L 382.9 63.3 L 382.9 68.2 L 382.2 68.2 L 382.2 65.9 L 379.7 65.9 L 379.7 68.2 L 379.1 68.2 L 379.1 63.3 " fill="#FF0000"/>
<path class="atom-30" d="M 245.9 117.6 L 246.6 117.6 L 246.6 119.7 L 249.1 119.7 L 249.1 117.6 L 249.8 117.6 L 249.8 122.6 L 249.1 122.6 L 249.1 120.3 L 246.6 120.3 L 246.6 122.6 L 245.9 122.6 L 245.9 117.6 " fill="#FF0000"/>
<path class="atom-30" d="M 250.8 120.1 Q 250.8 118.9, 251.4 118.3 Q 252.0 117.6, 253.1 117.6 Q 254.1 117.6, 254.7 118.3 Q 255.3 118.9, 255.3 120.1 Q 255.3 121.3, 254.7 122.0 Q 254.1 122.6, 253.1 122.6 Q 252.0 122.6, 251.4 122.0 Q 250.8 121.3, 250.8 120.1 M 253.1 122.1 Q 253.8 122.1, 254.2 121.6 Q 254.6 121.1, 254.6 120.1 Q 254.6 119.1, 254.2 118.6 Q 253.8 118.1, 253.1 118.1 Q 252.3 118.1, 251.9 118.6 Q 251.5 119.1, 251.5 120.1 Q 251.5 121.1, 251.9 121.6 Q 252.3 122.1, 253.1 122.1 " fill="#FF0000"/>
<path class="legend" d="M 301.7 184.0 Q 302.7 184.4, 303.3 185.0 Q 303.8 185.7, 303.8 186.7 Q 303.8 188.2, 302.8 189.1 Q 301.8 190.0, 300.0 190.0 L 296.2 190.0 L 296.2 178.7 L 299.5 178.7 Q 301.4 178.7, 302.4 179.5 Q 303.4 180.2, 303.4 181.7 Q 303.4 183.4, 301.7 184.0 M 297.7 180.0 L 297.7 183.5 L 299.5 183.5 Q 300.6 183.5, 301.2 183.1 Q 301.8 182.6, 301.8 181.7 Q 301.8 180.0, 299.5 180.0 L 297.7 180.0 M 300.0 188.7 Q 301.1 188.7, 301.7 188.2 Q 302.2 187.7, 302.2 186.7 Q 302.2 185.7, 301.6 185.3 Q 301.0 184.8, 299.7 184.8 L 297.7 184.8 L 297.7 188.7 L 300.0 188.7 " fill="#000000"/>
</svg>