<svg xmlns="http://www.w3.org/2000/svg" xmlns:rdkit="http://www.rdkit.org/xml" xmlns:xlink="http://www.w3.org/1999/xlink" version="1.1" baseProfile="full" xml:space="preserve" width="800px" height="400px" viewBox="0 0 800 400">
<!-- END OF HEADER -->
<rect style="opacity:1.0;fill:#FFFFFF;stroke:none" width="800.0" height="400.0" x="0.0" y="0.0"> </rect>
<path class="bond-0 atom-0 atom-1" d="M 70.5,97.2 L 76.0,94.0" style="fill:none;fill-rule:evenodd;stroke:#000000;stroke-width:2.0px;stroke-linecap:butt;stroke-linejoin:miter;stroke-opacity:1"/>
<path class="bond-0 atom-0 atom-1" d="M 76.0,94.0 L 81.6,90.8" style="fill:none;fill-rule:evenodd;stroke:#0000FF;stroke-width:2.0px;stroke-linecap:butt;stroke-linejoin:miter;stroke-opacity:1"/>
<path class="bond-1 atom-1 atom-2" d="M 85.9,90.8 L 91.4,94.0" style="fill:none;fill-rule:evenodd;stroke:#0000FF;stroke-width:2.0px;stroke-linecap:butt;stroke-linejoin:miter;stroke-opacity:1"/>
<path class="bond-1 atom-1 atom-2" d="M 91.4,94.0 L 97.0,97.2" style="fill:none;fill-rule:evenodd;stroke:#000000;stroke-width:2.0px;stroke-linecap:butt;stroke-linejoin:miter;stroke-opacity:1"/>
<path class="bond-2 atom-2 atom-3" d="M 97.0,97.2 L 110.2,89.5" style="fill:none;fill-rule:evenodd;stroke:#000000;stroke-width:2.0px;stroke-linecap:butt;stroke-linejoin:miter;stroke-opacity:1"/>
<path class="bond-3 atom-3 atom-4" d="M 110.2,89.5 L 115.6,92.6" style="fill:none;fill-rule:evenodd;stroke:#000000;stroke-width:2.0px;stroke-linecap:butt;stroke-linejoin:miter;stroke-opacity:1"/>
<path class="bond-3 atom-3 atom-4" d="M 115.6,92.6 L 121.0,95.7" style="fill:none;fill-rule:evenodd;stroke:#FF0000;stroke-width:2.0px;stroke-linecap:butt;stroke-linejoin:miter;stroke-opacity:1"/>
<path d="M 96.7,97.0 L 97.0,97.2 L 97.6,96.8" style="fill:none;stroke:#000000;stroke-width:2.0px;stroke-linecap:butt;stroke-linejoin:miter;stroke-opacity:1;"/>
<path d="M 109.6,89.9 L 110.2,89.5 L 110.5,89.7" style="fill:none;stroke:#000000;stroke-width:2.0px;stroke-linecap:butt;stroke-linejoin:miter;stroke-opacity:1;"/>
<path class="atom-1" d="M 82.8 87.3 L 84.2 89.6 Q 84.3 89.9, 84.6 90.3 Q 84.8 90.7, 84.8 90.7 L 84.8 87.3 L 85.4 87.3 L 85.4 91.7 L 84.8 91.7 L 83.3 89.2 Q 83.1 88.9, 82.9 88.5 Q 82.7 88.2, 82.7 88.1 L 82.7 91.7 L 82.1 91.7 L 82.1 87.3 L 82.8 87.3 " fill="#0000FF"/>
<path class="atom-1" d="M 82.0 82.6 L 82.6 82.6 L 82.6 84.4 L 84.8 84.4 L 84.8 82.6 L 85.4 82.6 L 85.4 86.9 L 84.8 86.9 L 84.8 84.9 L 82.6 84.9 L 82.6 86.9 L 82.0 86.9 L 82.0 82.6 " fill="#0000FF"/>
<path class="atom-4" d="M 121.5 97.2 Q 121.5 96.1, 122.0 95.6 Q 122.5 95.0, 123.5 95.0 Q 124.4 95.0, 124.9 95.6 Q 125.5 96.1, 125.5 97.2 Q 125.5 98.2, 124.9 98.8 Q 124.4 99.4, 123.5 99.4 Q 122.5 99.4, 122.0 98.8 Q 121.5 98.2, 121.5 97.2 M 123.5 98.9 Q 124.1 98.9, 124.5 98.5 Q 124.8 98.0, 124.8 97.2 Q 124.8 96.3, 124.5 95.9 Q 124.1 95.5, 123.5 95.5 Q 122.8 95.5, 122.4 95.9 Q 122.1 96.3, 122.1 97.2 Q 122.1 98.0, 122.4 98.5 Q 122.8 98.9, 123.5 98.9 " fill="#FF0000"/>
<path class="atom-4" d="M 126.1 95.0 L 126.7 95.0 L 126.7 96.9 L 128.9 96.9 L 128.9 95.0 L 129.5 95.0 L 129.5 99.3 L 128.9 99.3 L 128.9 97.3 L 126.7 97.3 L 126.7 99.3 L 126.1 99.3 L 126.1 95.0 " fill="#FF0000"/>
<path class="legend" d="M 103.4 190.0 L 102.2 186.7 L 97.8 186.7 L 96.6 190.0 L 95.1 190.0 L 99.0 178.7 L 100.9 178.7 L 104.9 190.0 L 103.4 190.0 M 98.2 185.4 L 101.8 185.4 L 100.0 180.3 L 98.2 185.4 " fill="#000000"/>
<path class="bond-0 atom-0 atom-1" d="M 298.9,135.4 L 314.1,134.2" style="fill:none;fill-rule:evenodd;stroke:#000000;stroke-width:2.0px;stroke-linecap:butt;stroke-linejoin:miter;stroke-opacity:1"/>
<path class="bond-0 atom-0 atom-1" d="M 298.7,133.1 L 312.6,132.0" style="fill:none;fill-rule:evenodd;stroke:#000000;stroke-width:2.0px;stroke-linecap:butt;stroke-linejoin:miter;stroke-opacity:1;stroke-dasharray:6,4"/>
<path class="bond-1 atom-1 atom-2" d="M 314.1,134.2 L 320.7,120.3" style="fill:none;fill-rule:evenodd;stroke:#000000;stroke-width:2.0px;stroke-linecap:butt;stroke-linejoin:miter;stroke-opacity:1"/>
<path class="bond-1 atom-1 atom-2" d="M 312.6,132.0 L 318.0,120.5" style="fill:none;fill-rule:evenodd;stroke:#000000;stroke-width:2.0px;stroke-linecap:butt;stroke-linejoin:miter;stroke-opacity:1;stroke-dasharray:6,4"/>
<path class="bond-2 atom-2 atom-3" d="M 320.7,120.3 L 335.9,119.1" style="fill:none;fill-rule:evenodd;stroke:#000000;stroke-width:2.0px;stroke-linecap:butt;stroke-linejoin:miter;stroke-opacity:1"/>
<path class="bond-2 atom-2 atom-3" d="M 321.8,117.9 L 334.4,116.9" style="fill:none;fill-rule:evenodd;stroke:#000000;stroke-width:2.0px;stroke-linecap:butt;stroke-linejoin:miter;stroke-opacity:1;stroke-dasharray:6,4"/>
<path class="bond-3 atom-3 atom-4" d="M 335.9,119.1 L 342.5,105.3" style="fill:none;fill-rule:evenodd;stroke:#000000;stroke-width:2.0px;stroke-linecap:butt;stroke-linejoin:miter;stroke-opacity:1"/>
<path class="bond-3 atom-3 atom-4" d="M 334.4,116.9 L 340.4,104.3" style="fill:none;fill-rule:evenodd;stroke:#000000;stroke-width:2.0px;stroke-linecap:butt;stroke-linejoin:miter;stroke-opacity:1;stroke-dasharray:6,4"/>
<path class="bond-4 atom-4 atom-5" d="M 342.5,105.3 L 357.7,104.1" style="fill:none;fill-rule:evenodd;stroke:#000000;stroke-width:2.0px;stroke-linecap:butt;stroke-linejoin:miter;stroke-opacity:1"/>
<path class="bond-4 atom-4 atom-5" d="M 344.0,107.5 L 357.9,106.4" style="fill:none;fill-rule:evenodd;stroke:#000000;stroke-width:2.0px;stroke-linecap:butt;stroke-linejoin:miter;stroke-opacity:1;stroke-dasharray:6,4"/>
<path class="bond-5 atom-5 atom-6" d="M 357.7,104.1 L 364.3,90.3" style="fill:none;fill-rule:evenodd;stroke:#000000;stroke-width:2.0px;stroke-linecap:butt;stroke-linejoin:miter;stroke-opacity:1"/>
<path class="bond-6 atom-6 atom-7" d="M 364.3,90.3 L 355.6,77.7" style="fill:none;fill-rule:evenodd;stroke:#000000;stroke-width:2.0px;stroke-linecap:butt;stroke-linejoin:miter;stroke-opacity:1"/>
<path class="bond-6 atom-6 atom-7" d="M 365.4,87.9 L 358.2,77.5" style="fill:none;fill-rule:evenodd;stroke:#000000;stroke-width:2.0px;stroke-linecap:butt;stroke-linejoin:miter;stroke-opacity:1"/>
<path class="bond-7 atom-7 atom-8" d="M 355.6,77.7 L 362.1,63.9" style="fill:none;fill-rule:evenodd;stroke:#000000;stroke-width:2.0px;stroke-linecap:butt;stroke-linejoin:miter;stroke-opacity:1"/>
<path class="bond-8 atom-8 atom-9" d="M 362.1,63.9 L 377.4,62.6" style="fill:none;fill-rule:evenodd;stroke:#000000;stroke-width:2.0px;stroke-linecap:butt;stroke-linejoin:miter;stroke-opacity:1"/>
<path class="bond-8 atom-8 atom-9" d="M 363.6,66.0 L 376.3,65.0" style="fill:none;fill-rule:evenodd;stroke:#000000;stroke-width:2.0px;stroke-linecap:butt;stroke-linejoin:miter;stroke-opacity:1"/>
<path class="bond-9 atom-9 atom-10" d="M 377.4,62.6 L 380.0,57.1" style="fill:none;fill-rule:evenodd;stroke:#000000;stroke-width:2.0px;stroke-linecap:butt;stroke-linejoin:miter;stroke-opacity:1"/>
<path class="bond-9 atom-9 atom-10" d="M 380.0,57.1 L 382.6,51.6" style="fill:none;fill-rule:evenodd;stroke:#FF0000;stroke-width:2.0px;stroke-linecap:butt;stroke-linejoin:miter;stroke-opacity:1"/>
<path class="bond-10 atom-9 atom-11" d="M 377.4,62.6 L 386.1,75.2" style="fill:none;fill-rule:evenodd;stroke:#000000;stroke-width:2.0px;stroke-linecap:butt;stroke-linejoin:miter;stroke-opacity:1"/>
<path class="bond-11 atom-11 atom-12" d="M 386.1,75.2 L 379.5,89.0" style="fill:none;fill-rule:evenodd;stroke:#000000;stroke-width:2.0px;stroke-linecap:butt;stroke-linejoin:miter;stroke-opacity:1"/>
<path class="bond-11 atom-11 atom-12" d="M 383.4,75.4 L 378.0,86.9" style="fill:none;fill-rule:evenodd;stroke:#000000;stroke-width:2.0px;stroke-linecap:butt;stroke-linejoin:miter;stroke-opacity:1"/>
<path class="bond-12 atom-2 atom-13" d="M 320.7,120.3 L 312.0,107.7" style="fill:none;fill-rule:evenodd;stroke:#000000;stroke-width:2.0px;stroke-linecap:butt;stroke-linejoin:miter;stroke-opacity:1"/>
<path class="bond-12 atom-2 atom-13" d="M 318.0,120.5 L 310.8,110.1" style="fill:none;fill-rule:evenodd;stroke:#000000;stroke-width:2.0px;stroke-linecap:butt;stroke-linejoin:miter;stroke-opacity:1;stroke-dasharray:6,4"/>
<path class="bond-13 atom-13 atom-14" d="M 312.0,107.7 L 296.7,109.0" style="fill:none;fill-rule:evenodd;stroke:#000000;stroke-width:2.0px;stroke-linecap:butt;stroke-linejoin:miter;stroke-opacity:1"/>
<path class="bond-13 atom-13 atom-14" d="M 310.8,110.1 L 296.9,111.3" style="fill:none;fill-rule:evenodd;stroke:#000000;stroke-width:2.0px;stroke-linecap:butt;stroke-linejoin:miter;stroke-opacity:1;stroke-dasharray:6,4"/>
<path class="bond-14 atom-14 atom-15" d="M 296.7,109.0 L 288.0,96.4" style="fill:none;fill-rule:evenodd;stroke:#000000;stroke-width:2.0px;stroke-linecap:butt;stroke-linejoin:miter;stroke-opacity:1"/>
<path class="bond-15 atom-15 atom-16" d="M 288.0,96.4 L 281.7,96.9" style="fill:none;fill-rule:evenodd;stroke:#000000;stroke-width:2.0px;stroke-linecap:butt;stroke-linejoin:miter;stroke-opacity:1"/>
<path class="bond-15 atom-15 atom-16" d="M 281.7,96.9 L 275.3,97.4" style="fill:none;fill-rule:evenodd;stroke:#FF0000;stroke-width:2.0px;stroke-linecap:butt;stroke-linejoin:miter;stroke-opacity:1"/>
<path class="bond-16 atom-16 atom-17" d="M 270.9,94.9 L 267.5,90.0" style="fill:none;fill-rule:evenodd;stroke:#FF0000;stroke-width:2.0px;stroke-linecap:butt;stroke-linejoin:miter;stroke-opacity:1"/>
<path class="bond-16 atom-16 atom-17" d="M 267.5,90.0 L 264.1,85.0" style="fill:none;fill-rule:evenodd;stroke:#000000;stroke-width:2.0px;stroke-linecap:butt;stroke-linejoin:miter;stroke-opacity:1"/>
<path class="bond-17 atom-17 atom-18" d="M 264.1,85.0 L 248.9,86.2" style="fill:none;fill-rule:evenodd;stroke:#000000;stroke-width:2.0px;stroke-linecap:butt;stroke-linejoin:miter;stroke-opacity:1"/>
<path class="bond-18 atom-18 atom-19" d="M 248.9,86.2 L 246.2,91.8" style="fill:none;fill-rule:evenodd;stroke:#000000;stroke-width:2.0px;stroke-linecap:butt;stroke-linejoin:miter;stroke-opacity:1"/>
<path class="bond-18 atom-18 atom-19" d="M 246.2,91.8 L 243.6,97.4" style="fill:none;fill-rule:evenodd;stroke:#FF0000;stroke-width:2.0px;stroke-linecap:butt;stroke-linejoin:miter;stroke-opacity:1"/>
<path class="bond-19 atom-18 atom-20" d="M 248.9,86.2 L 240.2,73.7" style="fill:none;fill-rule:evenodd;stroke:#000000;stroke-width:2.0px;stroke-linecap:butt;stroke-linejoin:miter;stroke-opacity:1"/>
<path class="bond-20 atom-20 atom-21" d="M 240.2,73.7 L 242.8,68.1" style="fill:none;fill-rule:evenodd;stroke:#000000;stroke-width:2.0px;stroke-linecap:butt;stroke-linejoin:miter;stroke-opacity:1"/>
<path class="bond-20 atom-20 atom-21" d="M 242.8,68.1 L 245.4,62.6" style="fill:none;fill-rule:evenodd;stroke:#FF0000;stroke-width:2.0px;stroke-linecap:butt;stroke-linejoin:miter;stroke-opacity:1"/>
<path class="bond-21 atom-20 atom-22" d="M 240.2,73.7 L 224.9,74.9" style="fill:none;fill-rule:evenodd;stroke:#000000;stroke-width:2.0px;stroke-linecap:butt;stroke-linejoin:miter;stroke-opacity:1"/>
<path class="bond-22 atom-22 atom-23" d="M 224.9,74.9 L 221.6,70.0" style="fill:none;fill-rule:evenodd;stroke:#000000;stroke-width:2.0px;stroke-linecap:butt;stroke-linejoin:miter;stroke-opacity:1"/>
<path class="bond-22 atom-22 atom-23" d="M 221.6,70.0 L 218.2,65.1" style="fill:none;fill-rule:evenodd;stroke:#FF0000;stroke-width:2.0px;stroke-linecap:butt;stroke-linejoin:miter;stroke-opacity:1"/>
<path class="bond-23 atom-12 atom-6" d="M 379.5,89.0 L 364.3,90.3" style="fill:none;fill-rule:evenodd;stroke:#000000;stroke-width:2.0px;stroke-linecap:butt;stroke-linejoin:miter;stroke-opacity:1"/>
<path d="M 313.3,134.2 L 314.1,134.2 L 314.4,133.5" style="fill:none;stroke:#000000;stroke-width:2.0px;stroke-linecap:butt;stroke-linejoin:miter;stroke-opacity:1;"/>
<path d="M 335.1,119.2 L 335.9,119.1 L 336.2,118.4" style="fill:none;stroke:#000000;stroke-width:2.0px;stroke-linecap:butt;stroke-linejoin:miter;stroke-opacity:1;"/>
<path d="M 342.1,106.0 L 342.5,105.3 L 343.2,105.2" style="fill:none;stroke:#000000;stroke-width:2.0px;stroke-linecap:butt;stroke-linejoin:miter;stroke-opacity:1;"/>
<path d="M 356.9,104.1 L 357.7,104.1 L 358.0,103.4" style="fill:none;stroke:#000000;stroke-width:2.0px;stroke-linecap:butt;stroke-linejoin:miter;stroke-opacity:1;"/>
<path d="M 356.0,78.3 L 355.6,77.7 L 355.9,77.0" style="fill:none;stroke:#000000;stroke-width:2.0px;stroke-linecap:butt;stroke-linejoin:miter;stroke-opacity:1;"/>
<path d="M 361.8,64.5 L 362.1,63.9 L 362.9,63.8" style="fill:none;stroke:#000000;stroke-width:2.0px;stroke-linecap:butt;stroke-linejoin:miter;stroke-opacity:1;"/>
<path d="M 385.6,74.6 L 386.1,75.2 L 385.7,75.9" style="fill:none;stroke:#000000;stroke-width:2.0px;stroke-linecap:butt;stroke-linejoin:miter;stroke-opacity:1;"/>
<path d="M 379.8,88.3 L 379.5,89.0 L 378.7,89.1" style="fill:none;stroke:#000000;stroke-width:2.0px;stroke-linecap:butt;stroke-linejoin:miter;stroke-opacity:1;"/>
<path d="M 312.4,108.4 L 312.0,107.7 L 311.2,107.8" style="fill:none;stroke:#000000;stroke-width:2.0px;stroke-linecap:butt;stroke-linejoin:miter;stroke-opacity:1;"/>
<path d="M 297.5,108.9 L 296.7,109.0 L 296.3,108.3" style="fill:none;stroke:#000000;stroke-width:2.0px;stroke-linecap:butt;stroke-linejoin:miter;stroke-opacity:1;"/>
<path d="M 288.5,97.0 L 288.0,96.4 L 287.7,96.4" style="fill:none;stroke:#000000;stroke-width:2.0px;stroke-linecap:butt;stroke-linejoin:miter;stroke-opacity:1;"/>
<path d="M 264.3,85.3 L 264.1,85.0 L 263.4,85.1" style="fill:none;stroke:#000000;stroke-width:2.0px;stroke-linecap:butt;stroke-linejoin:miter;stroke-opacity:1;"/>
<path d="M 225.7,74.8 L 224.9,74.9 L 224.8,74.6" style="fill:none;stroke:#000000;stroke-width:2.0px;stroke-linecap:butt;stroke-linejoin:miter;stroke-opacity:1;"/>
<path class="atom-10" d="M 382.0 48.8 Q 382.0 47.8, 382.5 47.2 Q 383.0 46.6, 383.9 46.6 Q 384.9 46.6, 385.4 47.2 Q 385.9 47.8, 385.9 48.8 Q 385.9 49.9, 385.4 50.5 Q 384.9 51.1, 383.9 51.1 Q 383.0 51.1, 382.5 50.5 Q 382.0 49.9, 382.0 48.8 M 383.9 50.6 Q 384.6 50.6, 385.0 50.1 Q 385.3 49.7, 385.3 48.8 Q 385.3 48.0, 385.0 47.5 Q 384.6 47.1, 383.9 47.1 Q 383.3 47.1, 382.9 47.5 Q 382.6 48.0, 382.6 48.8 Q 382.6 49.7, 382.9 50.1 Q 383.3 50.6, 383.9 50.6 " fill="#FF0000"/>
<path class="atom-10" d="M 386.6 46.7 L 387.2 46.7 L 387.2 48.5 L 389.4 48.5 L 389.4 46.7 L 390.0 46.7 L 390.0 51.0 L 389.4 51.0 L 389.4 49.0 L 387.2 49.0 L 387.2 51.0 L 386.6 51.0 L 386.6 46.7 " fill="#FF0000"/>
<path class="atom-16" d="M 270.8 97.6 Q 270.8 96.6, 271.3 96.0 Q 271.8 95.4, 272.8 95.4 Q 273.8 95.4, 274.3 96.0 Q 274.8 96.6, 274.8 97.6 Q 274.8 98.7, 274.3 99.3 Q 273.8 99.9, 272.8 99.9 Q 271.8 99.9, 271.3 99.3 Q 270.8 98.7, 270.8 97.6 M 272.8 99.4 Q 273.5 99.4, 273.8 98.9 Q 274.2 98.5, 274.2 97.6 Q 274.2 96.8, 273.8 96.3 Q 273.5 95.9, 272.8 95.9 Q 272.1 95.9, 271.8 96.3 Q 271.4 96.8, 271.4 97.6 Q 271.4 98.5, 271.8 98.9 Q 272.1 99.4, 272.8 99.4 " fill="#FF0000"/>
<path class="atom-19" d="M 236.1 97.9 L 236.6 97.9 L 236.6 99.8 L 238.9 99.8 L 238.9 97.9 L 239.4 97.9 L 239.4 102.3 L 238.9 102.3 L 238.9 100.3 L 236.6 100.3 L 236.6 102.3 L 236.1 102.3 L 236.1 97.9 " fill="#FF0000"/>
<path class="atom-19" d="M 240.3 100.1 Q 240.3 99.0, 240.8 98.5 Q 241.4 97.9, 242.3 97.9 Q 243.3 97.9, 243.8 98.5 Q 244.3 99.0, 244.3 100.1 Q 244.3 101.1, 243.8 101.7 Q 243.3 102.3, 242.3 102.3 Q 241.4 102.3, 240.8 101.7 Q 240.3 101.1, 240.3 100.1 M 242.3 101.8 Q 243.0 101.8, 243.3 101.4 Q 243.7 100.9, 243.7 100.1 Q 243.7 99.2, 243.3 98.8 Q 243.0 98.4, 242.3 98.4 Q 241.7 98.4, 241.3 98.8 Q 240.9 99.2, 240.9 100.1 Q 240.9 100.9, 241.3 101.4 Q 241.7 101.8, 242.3 101.8 " fill="#FF0000"/>
<path class="atom-21" d="M 244.8 59.9 Q 244.8 58.8, 245.3 58.2 Q 245.8 57.7, 246.8 57.7 Q 247.7 57.7, 248.2 58.2 Q 248.7 58.8, 248.7 59.9 Q 248.7 60.9, 248.2 61.5 Q 247.7 62.1, 246.8 62.1 Q 245.8 62.1, 245.3 61.5 Q 244.8 60.9, 244.8 59.9 M 246.8 61.6 Q 247.4 61.6, 247.8 61.2 Q 248.1 60.7, 248.1 59.9 Q 248.1 59.0, 247.8 58.6 Q 247.4 58.1, 246.8 58.1 Q 246.1 58.1, 245.7 58.6 Q 245.4 59.0, 245.4 59.9 Q 245.4 60.7, 245.7 61.2 Q 246.1 61.6, 246.8 61.6 " fill="#FF0000"/>
<path class="atom-21" d="M 249.4 57.7 L 250.0 57.7 L 250.0 59.5 L 252.2 59.5 L 252.2 57.7 L 252.8 57.7 L 252.8 62.0 L 252.2 62.0 L 252.2 60.0 L 250.0 60.0 L 250.0 62.0 L 249.4 62.0 L 249.4 57.7 " fill="#FF0000"/>
<path class="atom-23" d="M 210.0 60.2 L 210.6 60.2 L 210.6 62.0 L 212.8 62.0 L 212.8 60.2 L 213.4 60.2 L 213.4 64.5 L 212.8 64.5 L 212.8 62.5 L 210.6 62.5 L 210.6 64.5 L 210.0 64.5 L 210.0 60.2 " fill="#FF0000"/>
<path class="atom-23" d="M 214.3 62.3 Q 214.3 61.3, 214.8 60.7 Q 215.3 60.1, 216.3 60.1 Q 217.2 60.1, 217.7 60.7 Q 218.3 61.3, 218.3 62.3 Q 218.3 63.4, 217.7 64.0 Q 217.2 64.6, 216.3 64.6 Q 215.3 64.6, 214.8 64.0 Q 214.3 63.4, 214.3 62.3 M 216.3 64.1 Q 216.9 64.1, 217.3 63.6 Q 217.6 63.2, 217.6 62.3 Q 217.6 61.5, 217.3 61.0 Q 216.9 60.6, 216.3 60.6 Q 215.6 60.6, 215.2 61.0 Q 214.9 61.5, 214.9 62.3 Q 214.9 63.2, 215.2 63.6 Q 215.6 64.1, 216.3 64.1 " fill="#FF0000"/>
<path class="legend" d="M 301.7 184.0 Q 302.7 184.4, 303.3 185.0 Q 303.8 185.7, 303.8 186.7 Q 303.8 188.2, 302.8 189.1 Q 301.8 190.0, 300.0 190.0 L 296.2 190.0 L 296.2 178.7 L 299.5 178.7 Q 301.4 178.7, 302.4 179.5 Q 303.4 180.2, 303.4 181.7 Q 303.4 183.4, 301.7 184.0 M 297.7 180.0 L 297.7 183.5 L 299.5 183.5 Q 300.6 183.5, 301.2 183.1 Q 301.8 182.6, 301.8 181.7 Q 301.8 180.0, 299.5 180.0 L 297.7 180.0 M 300.0 188.7 Q 301.1 188.7, 301.7 188.2 Q 302.2 187.7, 302.2 186.7 Q 302.2 185.7, 301.6 185.3 Q 301.0 184.8, 299.7 184.8 L 297.7 184.8 L 297.7 188.7 L 300.0 188.7 " fill="#000000"/>
<path class="bond-0 atom-0 atom-1" d="M 549.2,114.8 L 548.3,108.6" style="fill:none;fill-rule:evenodd;stroke:#000000;stroke-width:2.0px;stroke-linecap:butt;stroke-linejoin:miter;stroke-opacity:1"/>
<path class="bond-0 atom-0 atom-1" d="M 548.3,108.6 L 547.3,102.4" style="fill:none;fill-rule:evenodd;stroke:#FF0000;stroke-width:2.0px;stroke-linecap:butt;stroke-linejoin:miter;stroke-opacity:1"/>
<path class="bond-1 atom-1 atom-2" d="M 544.4,98.7 L 538.5,96.4" style="fill:none;fill-rule:evenodd;stroke:#FF0000;stroke-width:2.0px;stroke-linecap:butt;stroke-linejoin:miter;stroke-opacity:1"/>
<path class="bond-1 atom-1 atom-2" d="M 538.5,96.4 L 532.6,94.1" style="fill:none;fill-rule:evenodd;stroke:#000000;stroke-width:2.0px;stroke-linecap:butt;stroke-linejoin:miter;stroke-opacity:1"/>
<path class="bond-2 atom-2 atom-3" d="M 532.6,94.1 L 520.7,103.7" style="fill:none;fill-rule:evenodd;stroke:#000000;stroke-width:2.0px;stroke-linecap:butt;stroke-linejoin:miter;stroke-opacity:1"/>
<path class="bond-2 atom-2 atom-3" d="M 530.1,93.2 L 520.3,101.1" style="fill:none;fill-rule:evenodd;stroke:#000000;stroke-width:2.0px;stroke-linecap:butt;stroke-linejoin:miter;stroke-opacity:1"/>
<path class="bond-3 atom-3 atom-4" d="M 520.7,103.7 L 506.4,98.2" style="fill:none;fill-rule:evenodd;stroke:#000000;stroke-width:2.0px;stroke-linecap:butt;stroke-linejoin:miter;stroke-opacity:1"/>
<path class="bond-4 atom-4 atom-5" d="M 506.4,98.2 L 494.5,107.8" style="fill:none;fill-rule:evenodd;stroke:#000000;stroke-width:2.0px;stroke-linecap:butt;stroke-linejoin:miter;stroke-opacity:1"/>
<path class="bond-5 atom-5 atom-6" d="M 494.5,107.8 L 480.3,102.3" style="fill:none;fill-rule:evenodd;stroke:#000000;stroke-width:2.0px;stroke-linecap:butt;stroke-linejoin:miter;stroke-opacity:1"/>
<path class="bond-6 atom-6 atom-7" d="M 480.3,102.3 L 467.4,110.6" style="fill:none;fill-rule:evenodd;stroke:#000000;stroke-width:2.0px;stroke-linecap:butt;stroke-linejoin:miter;stroke-opacity:1"/>
<path class="bond-7 atom-7 atom-8" d="M 467.4,110.6 L 462.7,106.8" style="fill:none;fill-rule:evenodd;stroke:#000000;stroke-width:2.0px;stroke-linecap:butt;stroke-linejoin:miter;stroke-opacity:1"/>
<path class="bond-7 atom-7 atom-8" d="M 462.7,106.8 L 458.0,103.0" style="fill:none;fill-rule:evenodd;stroke:#FF0000;stroke-width:2.0px;stroke-linecap:butt;stroke-linejoin:miter;stroke-opacity:1"/>
<path class="bond-8 atom-8 atom-9" d="M 456.6,98.3 L 458.8,92.5" style="fill:none;fill-rule:evenodd;stroke:#FF0000;stroke-width:2.0px;stroke-linecap:butt;stroke-linejoin:miter;stroke-opacity:1"/>
<path class="bond-8 atom-8 atom-9" d="M 458.8,92.5 L 461.1,86.7" style="fill:none;fill-rule:evenodd;stroke:#000000;stroke-width:2.0px;stroke-linecap:butt;stroke-linejoin:miter;stroke-opacity:1"/>
<path class="bond-9 atom-9 atom-10" d="M 462.5,86.8 L 459.0,81.4" style="fill:none;fill-rule:evenodd;stroke:#000000;stroke-width:2.0px;stroke-linecap:butt;stroke-linejoin:miter;stroke-opacity:1"/>
<path class="bond-9 atom-9 atom-10" d="M 459.0,81.4 L 455.5,76.0" style="fill:none;fill-rule:evenodd;stroke:#FF0000;stroke-width:2.0px;stroke-linecap:butt;stroke-linejoin:miter;stroke-opacity:1"/>
<path class="bond-9 atom-9 atom-10" d="M 460.6,88.0 L 457.1,82.6" style="fill:none;fill-rule:evenodd;stroke:#000000;stroke-width:2.0px;stroke-linecap:butt;stroke-linejoin:miter;stroke-opacity:1"/>
<path class="bond-9 atom-9 atom-10" d="M 457.1,82.6 L 453.6,77.2" style="fill:none;fill-rule:evenodd;stroke:#FF0000;stroke-width:2.0px;stroke-linecap:butt;stroke-linejoin:miter;stroke-opacity:1"/>
<path class="bond-10 atom-9 atom-11" d="M 461.1,86.7 L 476.3,87.5" style="fill:none;fill-rule:evenodd;stroke:#000000;stroke-width:2.0px;stroke-linecap:butt;stroke-linejoin:miter;stroke-opacity:1"/>
<path class="bond-11 atom-4 atom-12" d="M 506.4,98.2 L 504.1,83.1" style="fill:none;fill-rule:evenodd;stroke:#000000;stroke-width:2.0px;stroke-linecap:butt;stroke-linejoin:miter;stroke-opacity:1"/>
<path class="bond-11 atom-4 atom-12" d="M 508.5,96.6 L 506.5,84.1" style="fill:none;fill-rule:evenodd;stroke:#000000;stroke-width:2.0px;stroke-linecap:butt;stroke-linejoin:miter;stroke-opacity:1"/>
<path class="bond-12 atom-12 atom-13" d="M 504.1,83.1 L 516.0,73.5" style="fill:none;fill-rule:evenodd;stroke:#000000;stroke-width:2.0px;stroke-linecap:butt;stroke-linejoin:miter;stroke-opacity:1"/>
<path class="bond-13 atom-13 atom-14" d="M 516.0,73.5 L 530.2,79.0" style="fill:none;fill-rule:evenodd;stroke:#000000;stroke-width:2.0px;stroke-linecap:butt;stroke-linejoin:miter;stroke-opacity:1"/>
<path class="bond-13 atom-13 atom-14" d="M 516.4,76.1 L 528.2,80.7" style="fill:none;fill-rule:evenodd;stroke:#000000;stroke-width:2.0px;stroke-linecap:butt;stroke-linejoin:miter;stroke-opacity:1"/>
<path class="bond-14 atom-14 atom-15" d="M 530.2,79.0 L 534.9,75.2" style="fill:none;fill-rule:evenodd;stroke:#000000;stroke-width:2.0px;stroke-linecap:butt;stroke-linejoin:miter;stroke-opacity:1"/>
<path class="bond-14 atom-14 atom-15" d="M 534.9,75.2 L 539.7,71.4" style="fill:none;fill-rule:evenodd;stroke:#FF0000;stroke-width:2.0px;stroke-linecap:butt;stroke-linejoin:miter;stroke-opacity:1"/>
<path class="bond-15 atom-14 atom-2" d="M 530.2,79.0 L 532.6,94.1" style="fill:none;fill-rule:evenodd;stroke:#000000;stroke-width:2.0px;stroke-linecap:butt;stroke-linejoin:miter;stroke-opacity:1"/>
<path class="bond-16 atom-11 atom-6" d="M 476.3,87.5 L 480.3,102.3" style="fill:none;fill-rule:evenodd;stroke:#000000;stroke-width:2.0px;stroke-linecap:butt;stroke-linejoin:miter;stroke-opacity:1"/>
<path d="M 521.3,103.3 L 520.7,103.7 L 520.0,103.5" style="fill:none;stroke:#000000;stroke-width:2.0px;stroke-linecap:butt;stroke-linejoin:miter;stroke-opacity:1;"/>
<path d="M 495.1,107.3 L 494.5,107.8 L 493.8,107.6" style="fill:none;stroke:#000000;stroke-width:2.0px;stroke-linecap:butt;stroke-linejoin:miter;stroke-opacity:1;"/>
<path d="M 468.1,110.2 L 467.4,110.6 L 467.2,110.4" style="fill:none;stroke:#000000;stroke-width:2.0px;stroke-linecap:butt;stroke-linejoin:miter;stroke-opacity:1;"/>
<path d="M 461.0,87.0 L 461.1,86.7 L 461.8,86.7" style="fill:none;stroke:#000000;stroke-width:2.0px;stroke-linecap:butt;stroke-linejoin:miter;stroke-opacity:1;"/>
<path d="M 475.6,87.5 L 476.3,87.5 L 476.5,88.3" style="fill:none;stroke:#000000;stroke-width:2.0px;stroke-linecap:butt;stroke-linejoin:miter;stroke-opacity:1;"/>
<path d="M 504.2,83.9 L 504.1,83.1 L 504.7,82.6" style="fill:none;stroke:#000000;stroke-width:2.0px;stroke-linecap:butt;stroke-linejoin:miter;stroke-opacity:1;"/>
<path d="M 515.4,74.0 L 516.0,73.5 L 516.7,73.8" style="fill:none;stroke:#000000;stroke-width:2.0px;stroke-linecap:butt;stroke-linejoin:miter;stroke-opacity:1;"/>
<path class="atom-1" d="M 544.9 99.7 Q 544.9 98.6, 545.4 98.0 Q 545.9 97.5, 546.9 97.5 Q 547.8 97.5, 548.3 98.0 Q 548.9 98.6, 548.9 99.7 Q 548.9 100.7, 548.3 101.3 Q 547.8 101.9, 546.9 101.9 Q 545.9 101.9, 545.4 101.3 Q 544.9 100.7, 544.9 99.7 M 546.9 101.4 Q 547.5 101.4, 547.9 101.0 Q 548.2 100.5, 548.2 99.7 Q 548.2 98.8, 547.9 98.4 Q 547.5 97.9, 546.9 97.9 Q 546.2 97.9, 545.8 98.4 Q 545.5 98.8, 545.5 99.7 Q 545.5 100.5, 545.8 101.0 Q 546.2 101.4, 546.9 101.4 " fill="#FF0000"/>
<path class="atom-8" d="M 453.6 101.0 Q 453.6 99.9, 454.1 99.4 Q 454.6 98.8, 455.6 98.8 Q 456.5 98.8, 457.0 99.4 Q 457.5 99.9, 457.5 101.0 Q 457.5 102.0, 457.0 102.6 Q 456.5 103.2, 455.6 103.2 Q 454.6 103.2, 454.1 102.6 Q 453.6 102.0, 453.6 101.0 M 455.6 102.7 Q 456.2 102.7, 456.6 102.3 Q 456.9 101.8, 456.9 101.0 Q 456.9 100.1, 456.6 99.7 Q 456.2 99.3, 455.6 99.3 Q 454.9 99.3, 454.5 99.7 Q 454.2 100.1, 454.2 101.0 Q 454.2 101.9, 454.5 102.3 Q 454.9 102.7, 455.6 102.7 " fill="#FF0000"/>
<path class="atom-10" d="M 450.8 73.9 Q 450.8 72.8, 451.3 72.2 Q 451.8 71.7, 452.8 71.7 Q 453.7 71.7, 454.2 72.2 Q 454.7 72.8, 454.7 73.9 Q 454.7 74.9, 454.2 75.5 Q 453.7 76.1, 452.8 76.1 Q 451.8 76.1, 451.3 75.5 Q 450.8 74.9, 450.8 73.9 M 452.8 75.6 Q 453.4 75.6, 453.8 75.2 Q 454.1 74.7, 454.1 73.9 Q 454.1 73.0, 453.8 72.6 Q 453.4 72.2, 452.8 72.2 Q 452.1 72.2, 451.7 72.6 Q 451.4 73.0, 451.4 73.9 Q 451.4 74.7, 451.7 75.2 Q 452.1 75.6, 452.8 75.6 " fill="#FF0000"/>
<path class="atom-15" d="M 540.2 69.4 Q 540.2 68.4, 540.7 67.8 Q 541.2 67.2, 542.1 67.2 Q 543.1 67.2, 543.6 67.8 Q 544.1 68.4, 544.1 69.4 Q 544.1 70.5, 543.6 71.1 Q 543.1 71.7, 542.1 71.7 Q 541.2 71.7, 540.7 71.1 Q 540.2 70.5, 540.2 69.4 M 542.1 71.2 Q 542.8 71.2, 543.2 70.8 Q 543.5 70.3, 543.5 69.4 Q 543.5 68.6, 543.2 68.2 Q 542.8 67.7, 542.1 67.7 Q 541.5 67.7, 541.1 68.2 Q 540.8 68.6, 540.8 69.4 Q 540.8 70.3, 541.1 70.8 Q 541.5 71.2, 542.1 71.2 " fill="#FF0000"/>
<path class="atom-15" d="M 544.8 67.3 L 545.4 67.3 L 545.4 69.1 L 547.6 69.1 L 547.6 67.3 L 548.2 67.3 L 548.2 71.6 L 547.6 71.6 L 547.6 69.6 L 545.4 69.6 L 545.4 71.6 L 544.8 71.6 L 544.8 67.3 " fill="#FF0000"/>
<path class="legend" d="M 495.6 184.2 Q 495.6 181.4, 496.9 179.9 Q 498.3 178.4, 500.8 178.4 Q 503.1 178.4, 504.4 180.0 L 503.3 180.9 Q 502.4 179.7, 500.8 179.7 Q 499.1 179.7, 498.2 180.9 Q 497.3 182.0, 497.3 184.2 Q 497.3 186.4, 498.2 187.6 Q 499.1 188.7, 501.0 188.7 Q 502.2 188.7, 503.7 188.0 L 504.1 189.2 Q 503.5 189.6, 502.6 189.8 Q 501.7 190.0, 500.7 190.0 Q 498.3 190.0, 496.9 188.5 Q 495.6 187.0, 495.6 184.2 " fill="#000000"/>
<path class="bond-0 atom-0 atom-1" d="M 744.1,86.7 L 738.3,84.2" style="fill:none;fill-rule:evenodd;stroke:#FF0000;stroke-width:2.0px;stroke-linecap:butt;stroke-linejoin:miter;stroke-opacity:1"/>
<path class="bond-0 atom-0 atom-1" d="M 738.3,84.2 L 732.5,81.7" style="fill:none;fill-rule:evenodd;stroke:#000000;stroke-width:2.0px;stroke-linecap:butt;stroke-linejoin:miter;stroke-opacity:1"/>
<path class="bond-1 atom-1 atom-2" d="M 732.5,81.7 L 720.3,90.9" style="fill:none;fill-rule:evenodd;stroke:#000000;stroke-width:2.0px;stroke-linecap:butt;stroke-linejoin:miter;stroke-opacity:1"/>
<path class="bond-2 atom-2 atom-3" d="M 720.3,90.9 L 721.0,97.1" style="fill:none;fill-rule:evenodd;stroke:#000000;stroke-width:2.0px;stroke-linecap:butt;stroke-linejoin:miter;stroke-opacity:1"/>
<path class="bond-2 atom-2 atom-3" d="M 721.0,97.1 L 721.8,103.3" style="fill:none;fill-rule:evenodd;stroke:#FF0000;stroke-width:2.0px;stroke-linecap:butt;stroke-linejoin:miter;stroke-opacity:1"/>
<path class="bond-3 atom-2 atom-4" d="M 720.3,90.9 L 706.2,84.8" style="fill:none;fill-rule:evenodd;stroke:#000000;stroke-width:2.0px;stroke-linecap:butt;stroke-linejoin:miter;stroke-opacity:1"/>
<path class="bond-4 atom-4 atom-5" d="M 706.2,84.8 L 694.0,94.0" style="fill:none;fill-rule:evenodd;stroke:#000000;stroke-width:2.0px;stroke-linecap:butt;stroke-linejoin:miter;stroke-opacity:1"/>
<path class="bond-5 atom-5 atom-6" d="M 694.0,94.0 L 694.7,100.2" style="fill:none;fill-rule:evenodd;stroke:#000000;stroke-width:2.0px;stroke-linecap:butt;stroke-linejoin:miter;stroke-opacity:1"/>
<path class="bond-5 atom-5 atom-6" d="M 694.7,100.2 L 695.5,106.5" style="fill:none;fill-rule:evenodd;stroke:#FF0000;stroke-width:2.0px;stroke-linecap:butt;stroke-linejoin:miter;stroke-opacity:1"/>
<path class="bond-6 atom-5 atom-7" d="M 694.0,94.0 L 679.9,88.0" style="fill:none;fill-rule:evenodd;stroke:#000000;stroke-width:2.0px;stroke-linecap:butt;stroke-linejoin:miter;stroke-opacity:1"/>
<path class="bond-7 atom-7 atom-8" d="M 679.9,88.0 L 679.2,81.7" style="fill:none;fill-rule:evenodd;stroke:#000000;stroke-width:2.0px;stroke-linecap:butt;stroke-linejoin:miter;stroke-opacity:1"/>
<path class="bond-7 atom-7 atom-8" d="M 679.2,81.7 L 678.4,75.5" style="fill:none;fill-rule:evenodd;stroke:#FF0000;stroke-width:2.0px;stroke-linecap:butt;stroke-linejoin:miter;stroke-opacity:1"/>
<path class="bond-8 atom-7 atom-9" d="M 679.9,88.0 L 667.7,97.1" style="fill:none;fill-rule:evenodd;stroke:#000000;stroke-width:2.0px;stroke-linecap:butt;stroke-linejoin:miter;stroke-opacity:1"/>
<path class="bond-9 atom-9 atom-10" d="M 667.7,97.1 L 661.9,94.6" style="fill:none;fill-rule:evenodd;stroke:#000000;stroke-width:2.0px;stroke-linecap:butt;stroke-linejoin:miter;stroke-opacity:1"/>
<path class="bond-9 atom-9 atom-10" d="M 661.9,94.6 L 656.1,92.2" style="fill:none;fill-rule:evenodd;stroke:#FF0000;stroke-width:2.0px;stroke-linecap:butt;stroke-linejoin:miter;stroke-opacity:1"/>
<path d="M 732.8,81.8 L 732.5,81.7 L 731.9,82.1" style="fill:none;stroke:#000000;stroke-width:2.0px;stroke-linecap:butt;stroke-linejoin:miter;stroke-opacity:1;"/>
<path d="M 706.9,85.1 L 706.2,84.8 L 705.6,85.3" style="fill:none;stroke:#000000;stroke-width:2.0px;stroke-linecap:butt;stroke-linejoin:miter;stroke-opacity:1;"/>
<path d="M 668.3,96.7 L 667.7,97.1 L 667.4,97.0" style="fill:none;stroke:#000000;stroke-width:2.0px;stroke-linecap:butt;stroke-linejoin:miter;stroke-opacity:1;"/>
<path class="atom-0" d="M 744.6 87.7 Q 744.6 86.7, 745.1 86.1 Q 745.6 85.5, 746.6 85.5 Q 747.5 85.5, 748.1 86.1 Q 748.6 86.7, 748.6 87.7 Q 748.6 88.8, 748.1 89.4 Q 747.5 90.0, 746.6 90.0 Q 745.6 90.0, 745.1 89.4 Q 744.6 88.8, 744.6 87.7 M 746.6 89.5 Q 747.2 89.5, 747.6 89.0 Q 748.0 88.6, 748.0 87.7 Q 748.0 86.9, 747.6 86.5 Q 747.2 86.0, 746.6 86.0 Q 745.9 86.0, 745.6 86.4 Q 745.2 86.9, 745.2 87.7 Q 745.2 88.6, 745.6 89.0 Q 745.9 89.5, 746.6 89.5 " fill="#FF0000"/>
<path class="atom-0" d="M 749.3 85.6 L 749.8 85.6 L 749.8 87.4 L 752.1 87.4 L 752.1 85.6 L 752.6 85.6 L 752.6 89.9 L 752.1 89.9 L 752.1 87.9 L 749.8 87.9 L 749.8 89.9 L 749.3 89.9 L 749.3 85.6 " fill="#FF0000"/>
<path class="atom-3" d="M 720.1 106.0 Q 720.1 105.0, 720.6 104.4 Q 721.1 103.8, 722.1 103.8 Q 723.1 103.8, 723.6 104.4 Q 724.1 105.0, 724.1 106.0 Q 724.1 107.1, 723.6 107.7 Q 723.0 108.3, 722.1 108.3 Q 721.1 108.3, 720.6 107.7 Q 720.1 107.1, 720.1 106.0 M 722.1 107.8 Q 722.8 107.8, 723.1 107.4 Q 723.5 106.9, 723.5 106.0 Q 723.5 105.2, 723.1 104.8 Q 722.8 104.3, 722.1 104.3 Q 721.4 104.3, 721.1 104.8 Q 720.7 105.2, 720.7 106.0 Q 720.7 106.9, 721.1 107.4 Q 721.4 107.8, 722.1 107.8 " fill="#FF0000"/>
<path class="atom-3" d="M 724.8 103.9 L 725.3 103.9 L 725.3 105.7 L 727.6 105.7 L 727.6 103.9 L 728.1 103.9 L 728.1 108.2 L 727.6 108.2 L 727.6 106.2 L 725.3 106.2 L 725.3 108.2 L 724.8 108.2 L 724.8 103.9 " fill="#FF0000"/>
<path class="atom-6" d="M 693.8 109.2 Q 693.8 108.1, 694.3 107.6 Q 694.8 107.0, 695.8 107.0 Q 696.8 107.0, 697.3 107.6 Q 697.8 108.1, 697.8 109.2 Q 697.8 110.2, 697.3 110.8 Q 696.7 111.4, 695.8 111.4 Q 694.8 111.4, 694.3 110.8 Q 693.8 110.2, 693.8 109.2 M 695.8 110.9 Q 696.5 110.9, 696.8 110.5 Q 697.2 110.0, 697.2 109.2 Q 697.2 108.3, 696.8 107.9 Q 696.5 107.5, 695.8 107.5 Q 695.1 107.5, 694.8 107.9 Q 694.4 108.3, 694.4 109.2 Q 694.4 110.1, 694.8 110.5 Q 695.1 110.9, 695.8 110.9 " fill="#FF0000"/>
<path class="atom-6" d="M 698.5 107.0 L 699.0 107.0 L 699.0 108.9 L 701.3 108.9 L 701.3 107.0 L 701.8 107.0 L 701.8 111.4 L 701.3 111.4 L 701.3 109.4 L 699.0 109.4 L 699.0 111.4 L 698.5 111.4 L 698.5 107.0 " fill="#FF0000"/>
<path class="atom-8" d="M 676.1 72.8 Q 676.1 71.7, 676.6 71.2 Q 677.2 70.6, 678.1 70.6 Q 679.1 70.6, 679.6 71.2 Q 680.1 71.7, 680.1 72.8 Q 680.1 73.8, 679.6 74.4 Q 679.1 75.0, 678.1 75.0 Q 677.2 75.0, 676.6 74.4 Q 676.1 73.8, 676.1 72.8 M 678.1 74.5 Q 678.8 74.5, 679.1 74.1 Q 679.5 73.6, 679.5 72.8 Q 679.5 71.9, 679.1 71.5 Q 678.8 71.1, 678.1 71.1 Q 677.5 71.1, 677.1 71.5 Q 676.7 71.9, 676.7 72.8 Q 676.7 73.7, 677.1 74.1 Q 677.5 74.5, 678.1 74.5 " fill="#FF0000"/>
<path class="atom-8" d="M 680.8 70.6 L 681.4 70.6 L 681.4 72.5 L 683.6 72.5 L 683.6 70.6 L 684.2 70.6 L 684.2 75.0 L 683.6 75.0 L 683.6 73.0 L 681.4 73.0 L 681.4 75.0 L 680.8 75.0 L 680.8 70.6 " fill="#FF0000"/>
<path class="atom-10" d="M 647.4 88.9 L 647.9 88.9 L 647.9 90.8 L 650.2 90.8 L 650.2 88.9 L 650.7 88.9 L 650.7 93.3 L 650.2 93.3 L 650.2 91.3 L 647.9 91.3 L 647.9 93.3 L 647.4 93.3 L 647.4 88.9 " fill="#FF0000"/>
<path class="atom-10" d="M 651.6 91.1 Q 651.6 90.1, 652.2 89.5 Q 652.7 88.9, 653.6 88.9 Q 654.6 88.9, 655.1 89.5 Q 655.6 90.1, 655.6 91.1 Q 655.6 92.1, 655.1 92.7 Q 654.6 93.3, 653.6 93.3 Q 652.7 93.3, 652.2 92.7 Q 651.6 92.2, 651.6 91.1 M 653.6 92.9 Q 654.3 92.9, 654.6 92.4 Q 655.0 92.0, 655.0 91.1 Q 655.0 90.2, 654.6 89.8 Q 654.3 89.4, 653.6 89.4 Q 653.0 89.4, 652.6 89.8 Q 652.2 90.2, 652.2 91.1 Q 652.2 92.0, 652.6 92.4 Q 653.0 92.9, 653.6 92.9 " fill="#FF0000"/>
<path class="legend" d="M 699.2 178.7 Q 701.7 178.7, 703.1 180.2 Q 704.4 181.6, 704.4 184.3 Q 704.4 187.0, 703.1 188.5 Q 701.7 190.0, 699.2 190.0 L 695.6 190.0 L 695.6 178.7 L 699.2 178.7 M 699.2 188.7 Q 701.0 188.7, 701.9 187.6 Q 702.8 186.5, 702.8 184.3 Q 702.8 182.1, 701.9 181.0 Q 701.0 180.0, 699.2 180.0 L 697.1 180.0 L 697.1 188.7 L 699.2 188.7 " fill="#000000"/>
<path class="bond-0 atom-0 atom-1" d="M 20.5,285.6 L 33.9,278.1" style="fill:none;fill-rule:evenodd;stroke:#000000;stroke-width:2.0px;stroke-linecap:butt;stroke-linejoin:miter;stroke-opacity:1"/>
<path class="bond-1 atom-1 atom-2" d="M 33.9,278.1 L 47.0,286.0" style="fill:none;fill-rule:evenodd;stroke:#000000;stroke-width:2.0px;stroke-linecap:butt;stroke-linejoin:miter;stroke-opacity:1"/>
<path class="bond-2 atom-2 atom-3" d="M 47.0,286.0 L 60.4,278.5" style="fill:none;fill-rule:evenodd;stroke:#000000;stroke-width:2.0px;stroke-linecap:butt;stroke-linejoin:miter;stroke-opacity:1"/>
<path class="bond-3 atom-3 atom-4" d="M 60.4,278.5 L 73.5,286.3" style="fill:none;fill-rule:evenodd;stroke:#000000;stroke-width:2.0px;stroke-linecap:butt;stroke-linejoin:miter;stroke-opacity:1"/>
<path class="bond-4 atom-4 atom-5" d="M 73.5,286.3 L 73.4,292.6" style="fill:none;fill-rule:evenodd;stroke:#000000;stroke-width:2.0px;stroke-linecap:butt;stroke-linejoin:miter;stroke-opacity:1"/>
<path class="bond-4 atom-4 atom-5" d="M 73.4,292.6 L 73.3,298.9" style="fill:none;fill-rule:evenodd;stroke:#FF0000;stroke-width:2.0px;stroke-linecap:butt;stroke-linejoin:miter;stroke-opacity:1"/>
<path class="bond-5 atom-4 atom-6" d="M 73.5,286.3 L 86.9,278.9" style="fill:none;fill-rule:evenodd;stroke:#000000;stroke-width:2.0px;stroke-linecap:butt;stroke-linejoin:miter;stroke-opacity:1"/>
<path class="bond-6 atom-6 atom-7" d="M 86.9,278.9 L 100.0,286.7" style="fill:none;fill-rule:evenodd;stroke:#000000;stroke-width:2.0px;stroke-linecap:butt;stroke-linejoin:miter;stroke-opacity:1"/>
<path class="bond-7 atom-7 atom-8" d="M 100.0,286.7 L 113.4,279.3" style="fill:none;fill-rule:evenodd;stroke:#000000;stroke-width:2.0px;stroke-linecap:butt;stroke-linejoin:miter;stroke-opacity:1"/>
<path class="bond-8 atom-8 atom-9" d="M 113.4,279.3 L 118.7,282.4" style="fill:none;fill-rule:evenodd;stroke:#000000;stroke-width:2.0px;stroke-linecap:butt;stroke-linejoin:miter;stroke-opacity:1"/>
<path class="bond-8 atom-8 atom-9" d="M 118.7,282.4 L 124.0,285.6" style="fill:none;fill-rule:evenodd;stroke:#FF0000;stroke-width:2.0px;stroke-linecap:butt;stroke-linejoin:miter;stroke-opacity:1"/>
<path class="bond-9 atom-9 atom-10" d="M 129.0,285.7 L 134.4,282.7" style="fill:none;fill-rule:evenodd;stroke:#FF0000;stroke-width:2.0px;stroke-linecap:butt;stroke-linejoin:miter;stroke-opacity:1"/>
<path class="bond-9 atom-9 atom-10" d="M 134.4,282.7 L 139.8,279.6" style="fill:none;fill-rule:evenodd;stroke:#000000;stroke-width:2.0px;stroke-linecap:butt;stroke-linejoin:miter;stroke-opacity:1"/>
<path class="bond-10 atom-10 atom-11" d="M 139.8,279.6 L 153.0,287.5" style="fill:none;fill-rule:evenodd;stroke:#000000;stroke-width:2.0px;stroke-linecap:butt;stroke-linejoin:miter;stroke-opacity:1"/>
<path class="bond-11 atom-11 atom-12" d="M 153.0,287.5 L 166.3,280.0" style="fill:none;fill-rule:evenodd;stroke:#000000;stroke-width:2.0px;stroke-linecap:butt;stroke-linejoin:miter;stroke-opacity:1"/>
<path class="bond-12 atom-12 atom-13" d="M 166.3,280.0 L 179.5,287.9" style="fill:none;fill-rule:evenodd;stroke:#000000;stroke-width:2.0px;stroke-linecap:butt;stroke-linejoin:miter;stroke-opacity:1"/>
<path d="M 33.2,278.5 L 33.9,278.1 L 34.6,278.5" style="fill:none;stroke:#000000;stroke-width:2.0px;stroke-linecap:butt;stroke-linejoin:miter;stroke-opacity:1;"/>
<path d="M 46.4,285.6 L 47.0,286.0 L 47.7,285.6" style="fill:none;stroke:#000000;stroke-width:2.0px;stroke-linecap:butt;stroke-linejoin:miter;stroke-opacity:1;"/>
<path d="M 59.7,278.9 L 60.4,278.5 L 61.0,278.9" style="fill:none;stroke:#000000;stroke-width:2.0px;stroke-linecap:butt;stroke-linejoin:miter;stroke-opacity:1;"/>
<path d="M 86.2,279.3 L 86.9,278.9 L 87.5,279.3" style="fill:none;stroke:#000000;stroke-width:2.0px;stroke-linecap:butt;stroke-linejoin:miter;stroke-opacity:1;"/>
<path d="M 99.3,286.3 L 100.0,286.7 L 100.7,286.3" style="fill:none;stroke:#000000;stroke-width:2.0px;stroke-linecap:butt;stroke-linejoin:miter;stroke-opacity:1;"/>
<path d="M 112.7,279.6 L 113.4,279.3 L 113.6,279.4" style="fill:none;stroke:#000000;stroke-width:2.0px;stroke-linecap:butt;stroke-linejoin:miter;stroke-opacity:1;"/>
<path d="M 139.6,279.8 L 139.8,279.6 L 140.5,280.0" style="fill:none;stroke:#000000;stroke-width:2.0px;stroke-linecap:butt;stroke-linejoin:miter;stroke-opacity:1;"/>
<path d="M 152.3,287.1 L 153.0,287.5 L 153.6,287.1" style="fill:none;stroke:#000000;stroke-width:2.0px;stroke-linecap:butt;stroke-linejoin:miter;stroke-opacity:1;"/>
<path d="M 165.7,280.4 L 166.3,280.0 L 167.0,280.4" style="fill:none;stroke:#000000;stroke-width:2.0px;stroke-linecap:butt;stroke-linejoin:miter;stroke-opacity:1;"/>
<path class="atom-5" d="M 71.3 301.6 Q 71.3 300.6, 71.8 300.0 Q 72.3 299.4, 73.3 299.4 Q 74.3 299.4, 74.8 300.0 Q 75.3 300.6, 75.3 301.6 Q 75.3 302.7, 74.8 303.3 Q 74.2 303.9, 73.3 303.9 Q 72.3 303.9, 71.8 303.3 Q 71.3 302.7, 71.3 301.6 M 73.3 303.4 Q 74.0 303.4, 74.3 303.0 Q 74.7 302.5, 74.7 301.6 Q 74.7 300.8, 74.3 300.4 Q 74.0 299.9, 73.3 299.9 Q 72.6 299.9, 72.3 300.4 Q 71.9 300.8, 71.9 301.6 Q 71.9 302.5, 72.3 303.0 Q 72.6 303.4, 73.3 303.4 " fill="#FF0000"/>
<path class="atom-5" d="M 76.0 299.5 L 76.5 299.5 L 76.5 301.3 L 78.8 301.3 L 78.8 299.5 L 79.3 299.5 L 79.3 303.8 L 78.8 303.8 L 78.8 301.8 L 76.5 301.8 L 76.5 303.8 L 76.0 303.8 L 76.0 299.5 " fill="#FF0000"/>
<path class="atom-9" d="M 124.5 287.1 Q 124.5 286.1, 125.0 285.5 Q 125.5 284.9, 126.5 284.9 Q 127.4 284.9, 128.0 285.5 Q 128.5 286.1, 128.5 287.1 Q 128.5 288.2, 128.0 288.8 Q 127.4 289.4, 126.5 289.4 Q 125.5 289.4, 125.0 288.8 Q 124.5 288.2, 124.5 287.1 M 126.5 288.9 Q 127.1 288.9, 127.5 288.4 Q 127.9 288.0, 127.9 287.1 Q 127.9 286.3, 127.5 285.8 Q 127.1 285.4, 126.5 285.4 Q 125.8 285.4, 125.5 285.8 Q 125.1 286.3, 125.1 287.1 Q 125.1 288.0, 125.5 288.4 Q 125.8 288.9, 126.5 288.9 " fill="#FF0000"/>
<path class="legend" d="M 96.5 378.7 L 103.3 378.7 L 103.3 380.0 L 98.1 380.0 L 98.1 383.4 L 102.8 383.4 L 102.8 384.7 L 98.1 384.7 L 98.1 388.7 L 103.5 388.7 L 103.5 390.0 L 96.5 390.0 L 96.5 378.7 " fill="#000000"/>
</svg>