<svg xmlns="http://www.w3.org/2000/svg" xmlns:rdkit="http://www.rdkit.org/xml" xmlns:xlink="http://www.w3.org/1999/xlink" version="1.1" baseProfile="full" xml:space="preserve" width="800px" height="600px" viewBox="0 0 800 600">
<!-- END OF HEADER -->
<rect style="opacity:1.0;fill:#FFFFFF;stroke:none" width="800.0" height="600.0" x="0.0" y="0.0"> </rect>
<path class="bond-0 atom-0 atom-1" d="M 110.7,91.0 L 105.3,100.2" style="fill:none;fill-rule:evenodd;stroke:#000000;stroke-width:2.0px;stroke-linecap:butt;stroke-linejoin:miter;stroke-opacity:1"/>
<path class="bond-0 atom-0 atom-1" d="M 108.8,91.0 L 104.4,98.6" style="fill:none;fill-rule:evenodd;stroke:#000000;stroke-width:2.0px;stroke-linecap:butt;stroke-linejoin:miter;stroke-opacity:1"/>
<path class="bond-1 atom-1 atom-2" d="M 105.3,100.2 L 94.7,100.2" style="fill:none;fill-rule:evenodd;stroke:#000000;stroke-width:2.0px;stroke-linecap:butt;stroke-linejoin:miter;stroke-opacity:1"/>
<path class="bond-2 atom-2 atom-3" d="M 94.7,100.2 L 89.3,91.0" style="fill:none;fill-rule:evenodd;stroke:#000000;stroke-width:2.0px;stroke-linecap:butt;stroke-linejoin:miter;stroke-opacity:1"/>
<path class="bond-2 atom-2 atom-3" d="M 95.6,98.6 L 91.2,91.0" style="fill:none;fill-rule:evenodd;stroke:#000000;stroke-width:2.0px;stroke-linecap:butt;stroke-linejoin:miter;stroke-opacity:1"/>
<path class="bond-3 atom-3 atom-4" d="M 89.3,91.0 L 94.7,81.8" style="fill:none;fill-rule:evenodd;stroke:#000000;stroke-width:2.0px;stroke-linecap:butt;stroke-linejoin:miter;stroke-opacity:1"/>
<path class="bond-4 atom-4 atom-5" d="M 94.7,81.8 L 105.3,81.8" style="fill:none;fill-rule:evenodd;stroke:#000000;stroke-width:2.0px;stroke-linecap:butt;stroke-linejoin:miter;stroke-opacity:1"/>
<path class="bond-4 atom-4 atom-5" d="M 95.6,83.4 L 104.4,83.4" style="fill:none;fill-rule:evenodd;stroke:#000000;stroke-width:2.0px;stroke-linecap:butt;stroke-linejoin:miter;stroke-opacity:1"/>
<path class="bond-5 atom-5 atom-0" d="M 105.3,81.8 L 110.7,91.0" style="fill:none;fill-rule:evenodd;stroke:#000000;stroke-width:2.0px;stroke-linecap:butt;stroke-linejoin:miter;stroke-opacity:1"/>
<path d="M 110.4,91.5 L 110.7,91.0 L 110.4,90.5" style="fill:none;stroke:#000000;stroke-width:2.0px;stroke-linecap:butt;stroke-linejoin:miter;stroke-opacity:1;"/>
<path d="M 105.6,99.8 L 105.3,100.2 L 104.8,100.2" style="fill:none;stroke:#000000;stroke-width:2.0px;stroke-linecap:butt;stroke-linejoin:miter;stroke-opacity:1;"/>
<path d="M 95.2,100.2 L 94.7,100.2 L 94.4,99.8" style="fill:none;stroke:#000000;stroke-width:2.0px;stroke-linecap:butt;stroke-linejoin:miter;stroke-opacity:1;"/>
<path d="M 89.6,91.5 L 89.3,91.0 L 89.6,90.5" style="fill:none;stroke:#000000;stroke-width:2.0px;stroke-linecap:butt;stroke-linejoin:miter;stroke-opacity:1;"/>
<path d="M 94.4,82.2 L 94.7,81.8 L 95.2,81.8" style="fill:none;stroke:#000000;stroke-width:2.0px;stroke-linecap:butt;stroke-linejoin:miter;stroke-opacity:1;"/>
<path d="M 104.8,81.8 L 105.3,81.8 L 105.6,82.2" style="fill:none;stroke:#000000;stroke-width:2.0px;stroke-linecap:butt;stroke-linejoin:miter;stroke-opacity:1;"/>
<path class="legend" d="M 103.4 190.0 L 102.2 186.7 L 97.8 186.7 L 96.6 190.0 L 95.1 190.0 L 99.0 178.7 L 100.9 178.7 L 104.9 190.0 L 103.4 190.0 M 98.2 185.4 L 101.8 185.4 L 100.0 180.3 L 98.2 185.4 " fill="#000000"/>
<path class="bond-0 atom-0 atom-1" d="M 332.0,75.8 L 327.2,85.4" style="fill:none;fill-rule:evenodd;stroke:#000000;stroke-width:2.0px;stroke-linecap:butt;stroke-linejoin:miter;stroke-opacity:1"/>
<path class="bond-1 atom-1 atom-2" d="M 327.2,85.4 L 323.0,85.6" style="fill:none;fill-rule:evenodd;stroke:#000000;stroke-width:2.0px;stroke-linecap:butt;stroke-linejoin:miter;stroke-opacity:1"/>
<path class="bond-1 atom-1 atom-2" d="M 323.0,85.6 L 318.9,85.9" style="fill:none;fill-rule:evenodd;stroke:#FF0000;stroke-width:2.0px;stroke-linecap:butt;stroke-linejoin:miter;stroke-opacity:1"/>
<path class="bond-2 atom-2 atom-3" d="M 315.3,88.6 L 313.5,92.1" style="fill:none;fill-rule:evenodd;stroke:#FF0000;stroke-width:2.0px;stroke-linecap:butt;stroke-linejoin:miter;stroke-opacity:1"/>
<path class="bond-2 atom-2 atom-3" d="M 313.5,92.1 L 311.8,95.6" style="fill:none;fill-rule:evenodd;stroke:#000000;stroke-width:2.0px;stroke-linecap:butt;stroke-linejoin:miter;stroke-opacity:1"/>
<path class="bond-3 atom-3 atom-4" d="M 311.8,95.6 L 301.1,96.3" style="fill:none;fill-rule:evenodd;stroke:#000000;stroke-width:2.0px;stroke-linecap:butt;stroke-linejoin:miter;stroke-opacity:1"/>
<path class="bond-4 atom-4 atom-5" d="M 300.6,95.5 L 295.6,105.5" style="fill:none;fill-rule:evenodd;stroke:#000000;stroke-width:2.0px;stroke-linecap:butt;stroke-linejoin:miter;stroke-opacity:1"/>
<path class="bond-4 atom-4 atom-5" d="M 302.1,96.2 L 297.1,106.2" style="fill:none;fill-rule:evenodd;stroke:#000000;stroke-width:2.0px;stroke-linecap:butt;stroke-linejoin:miter;stroke-opacity:1;stroke-dasharray:6,4"/>
<path class="bond-5 atom-4 atom-6" d="M 301.1,96.3 L 295.2,87.3" style="fill:none;fill-rule:evenodd;stroke:#000000;stroke-width:2.0px;stroke-linecap:butt;stroke-linejoin:miter;stroke-opacity:1"/>
<path class="bond-5 atom-4 atom-6" d="M 299.3,96.4 L 294.4,89.0" style="fill:none;fill-rule:evenodd;stroke:#000000;stroke-width:2.0px;stroke-linecap:butt;stroke-linejoin:miter;stroke-opacity:1;stroke-dasharray:6,4"/>
<path class="bond-6 atom-6 atom-7" d="M 295.2,87.3 L 284.6,88.0" style="fill:none;fill-rule:evenodd;stroke:#000000;stroke-width:2.0px;stroke-linecap:butt;stroke-linejoin:miter;stroke-opacity:1"/>
<path class="bond-6 atom-6 atom-7" d="M 294.4,89.0 L 284.7,89.6" style="fill:none;fill-rule:evenodd;stroke:#000000;stroke-width:2.0px;stroke-linecap:butt;stroke-linejoin:miter;stroke-opacity:1;stroke-dasharray:6,4"/>
<path class="bond-7 atom-7 atom-8" d="M 284.6,88.0 L 278.7,79.1" style="fill:none;fill-rule:evenodd;stroke:#000000;stroke-width:2.0px;stroke-linecap:butt;stroke-linejoin:miter;stroke-opacity:1"/>
<path class="bond-7 atom-7 atom-8" d="M 285.4,86.3 L 280.0,78.2" style="fill:none;fill-rule:evenodd;stroke:#000000;stroke-width:2.0px;stroke-linecap:butt;stroke-linejoin:miter;stroke-opacity:1;stroke-dasharray:6,4"/>
<path class="bond-8 atom-8 atom-9" d="M 278.7,79.1 L 268.0,79.7" style="fill:none;fill-rule:evenodd;stroke:#000000;stroke-width:2.0px;stroke-linecap:butt;stroke-linejoin:miter;stroke-opacity:1"/>
<path class="bond-8 atom-8 atom-9" d="M 277.9,80.7 L 268.1,81.3" style="fill:none;fill-rule:evenodd;stroke:#000000;stroke-width:2.0px;stroke-linecap:butt;stroke-linejoin:miter;stroke-opacity:1;stroke-dasharray:6,4"/>
<path d="M 327.5,84.9 L 327.2,85.4 L 327.0,85.4" style="fill:none;stroke:#000000;stroke-width:2.0px;stroke-linecap:butt;stroke-linejoin:miter;stroke-opacity:1;"/>
<path d="M 311.9,95.4 L 311.8,95.6 L 311.3,95.6" style="fill:none;stroke:#000000;stroke-width:2.0px;stroke-linecap:butt;stroke-linejoin:miter;stroke-opacity:1;"/>
<path d="M 295.5,87.8 L 295.2,87.3 L 294.7,87.4" style="fill:none;stroke:#000000;stroke-width:2.0px;stroke-linecap:butt;stroke-linejoin:miter;stroke-opacity:1;"/>
<path d="M 285.1,88.0 L 284.6,88.0 L 284.3,87.5" style="fill:none;stroke:#000000;stroke-width:2.0px;stroke-linecap:butt;stroke-linejoin:miter;stroke-opacity:1;"/>
<path d="M 279.0,79.5 L 278.7,79.1 L 278.1,79.1" style="fill:none;stroke:#000000;stroke-width:2.0px;stroke-linecap:butt;stroke-linejoin:miter;stroke-opacity:1;"/>
<path class="atom-2" d="M 314.6 86.1 Q 314.6 85.0, 315.1 84.5 Q 315.6 83.9, 316.6 83.9 Q 317.5 83.9, 318.0 84.5 Q 318.5 85.0, 318.5 86.1 Q 318.5 87.1, 318.0 87.7 Q 317.5 88.3, 316.6 88.3 Q 315.6 88.3, 315.1 87.7 Q 314.6 87.1, 314.6 86.1 M 316.6 87.8 Q 317.2 87.8, 317.6 87.3 Q 317.9 86.9, 317.9 86.1 Q 317.9 85.2, 317.6 84.8 Q 317.2 84.4, 316.6 84.4 Q 315.9 84.4, 315.6 84.8 Q 315.2 85.2, 315.2 86.1 Q 315.2 86.9, 315.6 87.3 Q 315.9 87.8, 316.6 87.8 " fill="#FF0000"/>
<path class="legend" d="M 301.7 184.0 Q 302.7 184.4, 303.3 185.0 Q 303.8 185.7, 303.8 186.7 Q 303.8 188.2, 302.8 189.1 Q 301.8 190.0, 300.0 190.0 L 296.2 190.0 L 296.2 178.7 L 299.5 178.7 Q 301.4 178.7, 302.4 179.5 Q 303.4 180.2, 303.4 181.7 Q 303.4 183.4, 301.7 184.0 M 297.7 180.0 L 297.7 183.5 L 299.5 183.5 Q 300.6 183.5, 301.2 183.1 Q 301.8 182.6, 301.8 181.7 Q 301.8 180.0, 299.5 180.0 L 297.7 180.0 M 300.0 188.7 Q 301.1 188.7, 301.7 188.2 Q 302.2 187.7, 302.2 186.7 Q 302.2 185.7, 301.6 185.3 Q 301.0 184.8, 299.7 184.8 L 297.7 184.8 L 297.7 188.7 L 300.0 188.7 " fill="#000000"/>
<path class="bond-0 atom-0 atom-1" d="M 487.8,99.0 L 497.0,93.6" style="fill:none;fill-rule:evenodd;stroke:#000000;stroke-width:2.0px;stroke-linecap:butt;stroke-linejoin:miter;stroke-opacity:1"/>
<path class="bond-1 atom-1 atom-2" d="M 497.8,94.1 L 497.8,89.8" style="fill:none;fill-rule:evenodd;stroke:#000000;stroke-width:2.0px;stroke-linecap:butt;stroke-linejoin:miter;stroke-opacity:1"/>
<path class="bond-1 atom-1 atom-2" d="M 497.8,89.8 L 497.8,85.5" style="fill:none;fill-rule:evenodd;stroke:#FF0000;stroke-width:2.0px;stroke-linecap:butt;stroke-linejoin:miter;stroke-opacity:1"/>
<path class="bond-1 atom-1 atom-2" d="M 496.2,94.1 L 496.2,89.8" style="fill:none;fill-rule:evenodd;stroke:#000000;stroke-width:2.0px;stroke-linecap:butt;stroke-linejoin:miter;stroke-opacity:1"/>
<path class="bond-1 atom-1 atom-2" d="M 496.2,89.8 L 496.2,85.5" style="fill:none;fill-rule:evenodd;stroke:#FF0000;stroke-width:2.0px;stroke-linecap:butt;stroke-linejoin:miter;stroke-opacity:1"/>
<path class="bond-2 atom-1 atom-3" d="M 497.0,93.6 L 500.5,95.6" style="fill:none;fill-rule:evenodd;stroke:#000000;stroke-width:2.0px;stroke-linecap:butt;stroke-linejoin:miter;stroke-opacity:1"/>
<path class="bond-2 atom-1 atom-3" d="M 500.5,95.6 L 504.0,97.6" style="fill:none;fill-rule:evenodd;stroke:#FF0000;stroke-width:2.0px;stroke-linecap:butt;stroke-linejoin:miter;stroke-opacity:1"/>
<path d="M 496.6,93.9 L 497.0,93.6 L 497.2,93.7" style="fill:none;stroke:#000000;stroke-width:2.0px;stroke-linecap:butt;stroke-linejoin:miter;stroke-opacity:1;"/>
<path class="atom-2" d="M 495.1 83.0 Q 495.1 81.9, 495.6 81.4 Q 496.1 80.8, 497.0 80.8 Q 498.0 80.8, 498.5 81.4 Q 499.0 81.9, 499.0 83.0 Q 499.0 84.0, 498.5 84.6 Q 498.0 85.2, 497.0 85.2 Q 496.1 85.2, 495.6 84.6 Q 495.1 84.0, 495.1 83.0 M 497.0 84.7 Q 497.7 84.7, 498.0 84.3 Q 498.4 83.8, 498.4 83.0 Q 498.4 82.1, 498.0 81.7 Q 497.7 81.3, 497.0 81.3 Q 496.4 81.3, 496.0 81.7 Q 495.7 82.1, 495.7 83.0 Q 495.7 83.8, 496.0 84.3 Q 496.4 84.7, 497.0 84.7 " fill="#FF0000"/>
<path class="atom-3" d="M 504.3 99.0 Q 504.3 98.0, 504.8 97.4 Q 505.3 96.8, 506.3 96.8 Q 507.2 96.8, 507.7 97.4 Q 508.2 98.0, 508.2 99.0 Q 508.2 100.0, 507.7 100.6 Q 507.2 101.2, 506.3 101.2 Q 505.3 101.2, 504.8 100.6 Q 504.3 100.0, 504.3 99.0 M 506.3 100.7 Q 506.9 100.7, 507.3 100.3 Q 507.6 99.8, 507.6 99.0 Q 507.6 98.2, 507.3 97.7 Q 506.9 97.3, 506.3 97.3 Q 505.6 97.3, 505.3 97.7 Q 504.9 98.1, 504.9 99.0 Q 504.9 99.8, 505.3 100.3 Q 505.6 100.7, 506.3 100.7 " fill="#FF0000"/>
<path class="atom-3" d="M 508.9 96.9 L 509.5 96.9 L 509.5 98.7 L 511.6 98.7 L 511.6 96.9 L 512.2 96.9 L 512.2 101.1 L 511.6 101.1 L 511.6 99.2 L 509.5 99.2 L 509.5 101.1 L 508.9 101.1 L 508.9 96.9 " fill="#FF0000"/>
<path class="legend" d="M 495.6 184.2 Q 495.6 181.4, 496.9 179.9 Q 498.3 178.4, 500.8 178.4 Q 503.1 178.4, 504.4 180.0 L 503.3 180.9 Q 502.4 179.7, 500.8 179.7 Q 499.1 179.7, 498.2 180.9 Q 497.3 182.0, 497.3 184.2 Q 497.3 186.4, 498.2 187.6 Q 499.1 188.7, 501.0 188.7 Q 502.2 188.7, 503.7 188.0 L 504.1 189.2 Q 503.5 189.6, 502.6 189.8 Q 501.7 190.0, 500.7 190.0 Q 498.3 190.0, 496.9 188.5 Q 495.6 187.0, 495.6 184.2 " fill="#000000"/>
<path class="bond-0 atom-0 atom-1" d="M 674.8,89.2 L 677.6,91.7" style="fill:none;fill-rule:evenodd;stroke:#FF0000;stroke-width:2.0px;stroke-linecap:butt;stroke-linejoin:miter;stroke-opacity:1"/>
<path class="bond-0 atom-0 atom-1" d="M 677.6,91.7 L 680.5,94.2" style="fill:none;fill-rule:evenodd;stroke:#000000;stroke-width:2.0px;stroke-linecap:butt;stroke-linejoin:miter;stroke-opacity:1"/>
<path class="bond-0 atom-0 atom-1" d="M 675.8,88.0 L 678.7,90.5" style="fill:none;fill-rule:evenodd;stroke:#FF0000;stroke-width:2.0px;stroke-linecap:butt;stroke-linejoin:miter;stroke-opacity:1"/>
<path class="bond-0 atom-0 atom-1" d="M 678.7,90.5 L 680.8,92.4" style="fill:none;fill-rule:evenodd;stroke:#000000;stroke-width:2.0px;stroke-linecap:butt;stroke-linejoin:miter;stroke-opacity:1"/>
<path class="bond-1 atom-1 atom-2" d="M 680.5,94.2 L 690.6,90.8" style="fill:none;fill-rule:evenodd;stroke:#000000;stroke-width:2.0px;stroke-linecap:butt;stroke-linejoin:miter;stroke-opacity:1"/>
<path class="bond-2 atom-2 atom-3" d="M 690.6,90.8 L 698.6,97.9" style="fill:none;fill-rule:evenodd;stroke:#000000;stroke-width:2.0px;stroke-linecap:butt;stroke-linejoin:miter;stroke-opacity:1"/>
<path class="bond-2 atom-2 atom-3" d="M 690.2,92.6 L 697.6,99.1" style="fill:none;fill-rule:evenodd;stroke:#000000;stroke-width:2.0px;stroke-linecap:butt;stroke-linejoin:miter;stroke-opacity:1"/>
<path class="bond-3 atom-3 atom-4" d="M 698.6,97.9 L 708.7,94.4" style="fill:none;fill-rule:evenodd;stroke:#000000;stroke-width:2.0px;stroke-linecap:butt;stroke-linejoin:miter;stroke-opacity:1"/>
<path class="bond-4 atom-4 atom-5" d="M 708.7,94.4 L 710.8,84.0" style="fill:none;fill-rule:evenodd;stroke:#000000;stroke-width:2.0px;stroke-linecap:butt;stroke-linejoin:miter;stroke-opacity:1"/>
<path class="bond-4 atom-4 atom-5" d="M 710.5,93.8 L 712.2,85.2" style="fill:none;fill-rule:evenodd;stroke:#000000;stroke-width:2.0px;stroke-linecap:butt;stroke-linejoin:miter;stroke-opacity:1"/>
<path class="bond-5 atom-5 atom-6" d="M 710.8,84.0 L 720.9,80.5" style="fill:none;fill-rule:evenodd;stroke:#000000;stroke-width:2.0px;stroke-linecap:butt;stroke-linejoin:miter;stroke-opacity:1"/>
<path class="bond-6 atom-6 atom-7" d="M 720.9,80.5 L 729.0,87.6" style="fill:none;fill-rule:evenodd;stroke:#000000;stroke-width:2.0px;stroke-linecap:butt;stroke-linejoin:miter;stroke-opacity:1"/>
<path class="bond-6 atom-6 atom-7" d="M 720.6,82.3 L 727.2,88.2" style="fill:none;fill-rule:evenodd;stroke:#000000;stroke-width:2.0px;stroke-linecap:butt;stroke-linejoin:miter;stroke-opacity:1"/>
<path class="bond-7 atom-7 atom-8" d="M 729.0,87.6 L 726.9,98.0" style="fill:none;fill-rule:evenodd;stroke:#000000;stroke-width:2.0px;stroke-linecap:butt;stroke-linejoin:miter;stroke-opacity:1"/>
<path class="bond-8 atom-8 atom-9" d="M 726.9,98.0 L 716.8,101.5" style="fill:none;fill-rule:evenodd;stroke:#000000;stroke-width:2.0px;stroke-linecap:butt;stroke-linejoin:miter;stroke-opacity:1"/>
<path class="bond-8 atom-8 atom-9" d="M 725.5,96.8 L 717.1,99.7" style="fill:none;fill-rule:evenodd;stroke:#000000;stroke-width:2.0px;stroke-linecap:butt;stroke-linejoin:miter;stroke-opacity:1"/>
<path class="bond-9 atom-9 atom-4" d="M 716.8,101.5 L 708.7,94.4" style="fill:none;fill-rule:evenodd;stroke:#000000;stroke-width:2.0px;stroke-linecap:butt;stroke-linejoin:miter;stroke-opacity:1"/>
<path d="M 680.3,94.1 L 680.5,94.2 L 681.0,94.1" style="fill:none;stroke:#000000;stroke-width:2.0px;stroke-linecap:butt;stroke-linejoin:miter;stroke-opacity:1;"/>
<path d="M 690.1,91.0 L 690.6,90.8 L 691.0,91.2" style="fill:none;stroke:#000000;stroke-width:2.0px;stroke-linecap:butt;stroke-linejoin:miter;stroke-opacity:1;"/>
<path d="M 698.2,97.5 L 698.6,97.9 L 699.1,97.7" style="fill:none;stroke:#000000;stroke-width:2.0px;stroke-linecap:butt;stroke-linejoin:miter;stroke-opacity:1;"/>
<path d="M 710.7,84.5 L 710.8,84.0 L 711.3,83.8" style="fill:none;stroke:#000000;stroke-width:2.0px;stroke-linecap:butt;stroke-linejoin:miter;stroke-opacity:1;"/>
<path d="M 720.4,80.7 L 720.9,80.5 L 721.3,80.9" style="fill:none;stroke:#000000;stroke-width:2.0px;stroke-linecap:butt;stroke-linejoin:miter;stroke-opacity:1;"/>
<path d="M 728.6,87.2 L 729.0,87.6 L 728.9,88.1" style="fill:none;stroke:#000000;stroke-width:2.0px;stroke-linecap:butt;stroke-linejoin:miter;stroke-opacity:1;"/>
<path d="M 727.0,97.5 L 726.9,98.0 L 726.4,98.2" style="fill:none;stroke:#000000;stroke-width:2.0px;stroke-linecap:butt;stroke-linejoin:miter;stroke-opacity:1;"/>
<path d="M 717.3,101.3 L 716.8,101.5 L 716.4,101.1" style="fill:none;stroke:#000000;stroke-width:2.0px;stroke-linecap:butt;stroke-linejoin:miter;stroke-opacity:1;"/>
<path class="atom-0" d="M 671.0 86.6 Q 671.0 85.6, 671.5 85.0 Q 672.0 84.4, 673.0 84.4 Q 673.9 84.4, 674.4 85.0 Q 674.9 85.6, 674.9 86.6 Q 674.9 87.6, 674.4 88.2 Q 673.9 88.8, 673.0 88.8 Q 672.0 88.8, 671.5 88.2 Q 671.0 87.6, 671.0 86.6 M 673.0 88.3 Q 673.6 88.3, 674.0 87.9 Q 674.3 87.5, 674.3 86.6 Q 674.3 85.8, 674.0 85.4 Q 673.6 84.9, 673.0 84.9 Q 672.3 84.9, 672.0 85.3 Q 671.6 85.8, 671.6 86.6 Q 671.6 87.5, 672.0 87.9 Q 672.3 88.3, 673.0 88.3 " fill="#FF0000"/>
<path class="legend" d="M 699.2 178.7 Q 701.7 178.7, 703.1 180.2 Q 704.4 181.6, 704.4 184.3 Q 704.4 187.0, 703.1 188.5 Q 701.7 190.0, 699.2 190.0 L 695.6 190.0 L 695.6 178.7 L 699.2 178.7 M 699.2 188.7 Q 701.0 188.7, 701.9 187.6 Q 702.8 186.5, 702.8 184.3 Q 702.8 182.1, 701.9 181.0 Q 701.0 180.0, 699.2 180.0 L 697.1 180.0 L 697.1 188.7 L 699.2 188.7 " fill="#000000"/>
<path class="bond-0 atom-0 atom-1" d="M 122.9,292.3 L 114.0,298.2" style="fill:none;fill-rule:evenodd;stroke:#000000;stroke-width:2.0px;stroke-linecap:butt;stroke-linejoin:miter;stroke-opacity:1"/>
<path class="bond-1 atom-1 atom-2" d="M 114.0,298.2 L 104.5,293.4" style="fill:none;fill-rule:evenodd;stroke:#000000;stroke-width:2.0px;stroke-linecap:butt;stroke-linejoin:miter;stroke-opacity:1"/>
<path class="bond-2 atom-2 atom-3" d="M 104.5,293.4 L 95.5,299.3" style="fill:none;fill-rule:evenodd;stroke:#000000;stroke-width:2.0px;stroke-linecap:butt;stroke-linejoin:miter;stroke-opacity:1"/>
<path class="bond-3 atom-3 atom-4" d="M 95.5,299.3 L 86.0,294.5" style="fill:none;fill-rule:evenodd;stroke:#000000;stroke-width:2.0px;stroke-linecap:butt;stroke-linejoin:miter;stroke-opacity:1"/>
<path class="bond-4 atom-4 atom-5" d="M 86.0,294.5 L 77.1,300.3" style="fill:none;fill-rule:evenodd;stroke:#000000;stroke-width:2.0px;stroke-linecap:butt;stroke-linejoin:miter;stroke-opacity:1"/>
<path class="bond-5 atom-4 atom-6" d="M 86.0,294.5 L 85.8,290.4" style="fill:none;fill-rule:evenodd;stroke:#000000;stroke-width:2.0px;stroke-linecap:butt;stroke-linejoin:miter;stroke-opacity:1"/>
<path class="bond-5 atom-4 atom-6" d="M 85.8,290.4 L 85.5,286.4" style="fill:none;fill-rule:evenodd;stroke:#FF0000;stroke-width:2.0px;stroke-linecap:butt;stroke-linejoin:miter;stroke-opacity:1"/>
<path d="M 114.5,297.9 L 114.0,298.2 L 113.5,298.0" style="fill:none;stroke:#000000;stroke-width:2.0px;stroke-linecap:butt;stroke-linejoin:miter;stroke-opacity:1;"/>
<path d="M 104.9,293.7 L 104.5,293.4 L 104.0,293.7" style="fill:none;stroke:#000000;stroke-width:2.0px;stroke-linecap:butt;stroke-linejoin:miter;stroke-opacity:1;"/>
<path d="M 96.0,299.0 L 95.5,299.3 L 95.1,299.0" style="fill:none;stroke:#000000;stroke-width:2.0px;stroke-linecap:butt;stroke-linejoin:miter;stroke-opacity:1;"/>
<path class="atom-6" d="M 83.4 283.8 Q 83.4 282.8, 83.9 282.2 Q 84.4 281.7, 85.4 281.7 Q 86.3 281.7, 86.8 282.2 Q 87.3 282.8, 87.3 283.8 Q 87.3 284.9, 86.8 285.4 Q 86.3 286.0, 85.4 286.0 Q 84.4 286.0, 83.9 285.4 Q 83.4 284.9, 83.4 283.8 M 85.4 285.5 Q 86.0 285.5, 86.4 285.1 Q 86.7 284.7, 86.7 283.8 Q 86.7 283.0, 86.4 282.6 Q 86.0 282.1, 85.4 282.1 Q 84.7 282.1, 84.4 282.6 Q 84.0 283.0, 84.0 283.8 Q 84.0 284.7, 84.4 285.1 Q 84.7 285.5, 85.4 285.5 " fill="#FF0000"/>
<path class="atom-6" d="M 88.0 281.7 L 88.6 281.7 L 88.6 283.5 L 90.7 283.5 L 90.7 281.7 L 91.3 281.7 L 91.3 286.0 L 90.7 286.0 L 90.7 284.0 L 88.6 284.0 L 88.6 286.0 L 88.0 286.0 L 88.0 281.7 " fill="#FF0000"/>
<path class="legend" d="M 96.5 378.7 L 103.3 378.7 L 103.3 380.0 L 98.1 380.0 L 98.1 383.4 L 102.8 383.4 L 102.8 384.7 L 98.1 384.7 L 98.1 388.7 L 103.5 388.7 L 103.5 390.0 L 96.5 390.0 L 96.5 378.7 " fill="#000000"/>
<path class="bond-0 atom-0 atom-1" d="M 209.1,292.8 L 218.4,287.5" style="fill:none;fill-rule:evenodd;stroke:#000000;stroke-width:2.0px;stroke-linecap:butt;stroke-linejoin:miter;stroke-opacity:1"/>
<path class="bond-0 atom-0 atom-1" d="M 209.9,294.1 L 218.4,289.3" style="fill:none;fill-rule:evenodd;stroke:#000000;stroke-width:2.0px;stroke-linecap:butt;stroke-linejoin:miter;stroke-opacity:1;stroke-dasharray:6,4"/>
<path class="bond-1 atom-1 atom-2" d="M 218.4,287.5 L 227.6,292.9" style="fill:none;fill-rule:evenodd;stroke:#000000;stroke-width:2.0px;stroke-linecap:butt;stroke-linejoin:miter;stroke-opacity:1"/>
<path class="bond-1 atom-1 atom-2" d="M 218.4,289.3 L 226.8,294.2" style="fill:none;fill-rule:evenodd;stroke:#000000;stroke-width:2.0px;stroke-linecap:butt;stroke-linejoin:miter;stroke-opacity:1;stroke-dasharray:6,4"/>
<path class="bond-2 atom-2 atom-3" d="M 227.6,292.9 L 236.9,287.6" style="fill:none;fill-rule:evenodd;stroke:#000000;stroke-width:2.0px;stroke-linecap:butt;stroke-linejoin:miter;stroke-opacity:1"/>
<path class="bond-2 atom-2 atom-3" d="M 227.7,291.0 L 236.1,286.2" style="fill:none;fill-rule:evenodd;stroke:#000000;stroke-width:2.0px;stroke-linecap:butt;stroke-linejoin:miter;stroke-opacity:1;stroke-dasharray:6,4"/>
<path class="bond-3 atom-3 atom-4" d="M 236.9,287.6 L 246.1,293.0" style="fill:none;fill-rule:evenodd;stroke:#000000;stroke-width:2.0px;stroke-linecap:butt;stroke-linejoin:miter;stroke-opacity:1"/>
<path class="bond-3 atom-3 atom-4" d="M 236.9,289.4 L 245.3,294.4" style="fill:none;fill-rule:evenodd;stroke:#000000;stroke-width:2.0px;stroke-linecap:butt;stroke-linejoin:miter;stroke-opacity:1;stroke-dasharray:6,4"/>
<path class="bond-4 atom-4 atom-5" d="M 246.1,293.0 L 255.4,287.7" style="fill:none;fill-rule:evenodd;stroke:#000000;stroke-width:2.0px;stroke-linecap:butt;stroke-linejoin:miter;stroke-opacity:1"/>
<path class="bond-5 atom-5 atom-6" d="M 255.4,287.7 L 264.6,293.1" style="fill:none;fill-rule:evenodd;stroke:#000000;stroke-width:2.0px;stroke-linecap:butt;stroke-linejoin:miter;stroke-opacity:1"/>
<path class="bond-5 atom-5 atom-6" d="M 255.4,289.5 L 263.8,294.5" style="fill:none;fill-rule:evenodd;stroke:#000000;stroke-width:2.0px;stroke-linecap:butt;stroke-linejoin:miter;stroke-opacity:1;stroke-dasharray:6,4"/>
<path class="bond-6 atom-6 atom-7" d="M 264.6,293.1 L 273.9,287.8" style="fill:none;fill-rule:evenodd;stroke:#000000;stroke-width:2.0px;stroke-linecap:butt;stroke-linejoin:miter;stroke-opacity:1"/>
<path class="bond-6 atom-6 atom-7" d="M 264.7,291.2 L 273.1,286.4" style="fill:none;fill-rule:evenodd;stroke:#000000;stroke-width:2.0px;stroke-linecap:butt;stroke-linejoin:miter;stroke-opacity:1;stroke-dasharray:6,4"/>
<path class="bond-7 atom-7 atom-8" d="M 273.9,287.8 L 283.1,293.2" style="fill:none;fill-rule:evenodd;stroke:#000000;stroke-width:2.0px;stroke-linecap:butt;stroke-linejoin:miter;stroke-opacity:1"/>
<path class="bond-7 atom-7 atom-8" d="M 273.9,289.6 L 282.3,294.6" style="fill:none;fill-rule:evenodd;stroke:#000000;stroke-width:2.0px;stroke-linecap:butt;stroke-linejoin:miter;stroke-opacity:1;stroke-dasharray:6,4"/>
<path class="bond-8 atom-8 atom-9" d="M 283.1,293.2 L 292.4,287.9" style="fill:none;fill-rule:evenodd;stroke:#000000;stroke-width:2.0px;stroke-linecap:butt;stroke-linejoin:miter;stroke-opacity:1"/>
<path class="bond-8 atom-8 atom-9" d="M 283.2,291.3 L 291.6,286.5" style="fill:none;fill-rule:evenodd;stroke:#000000;stroke-width:2.0px;stroke-linecap:butt;stroke-linejoin:miter;stroke-opacity:1;stroke-dasharray:6,4"/>
<path class="bond-9 atom-9 atom-10" d="M 292.4,287.9 L 301.6,293.3" style="fill:none;fill-rule:evenodd;stroke:#000000;stroke-width:2.0px;stroke-linecap:butt;stroke-linejoin:miter;stroke-opacity:1"/>
<path class="bond-9 atom-9 atom-10" d="M 292.4,289.7 L 300.8,294.7" style="fill:none;fill-rule:evenodd;stroke:#000000;stroke-width:2.0px;stroke-linecap:butt;stroke-linejoin:miter;stroke-opacity:1;stroke-dasharray:6,4"/>
<path class="bond-10 atom-10 atom-11" d="M 301.6,293.3 L 310.9,288.0" style="fill:none;fill-rule:evenodd;stroke:#000000;stroke-width:2.0px;stroke-linecap:butt;stroke-linejoin:miter;stroke-opacity:1"/>
<path class="bond-10 atom-10 atom-11" d="M 301.7,291.4 L 310.1,286.6" style="fill:none;fill-rule:evenodd;stroke:#000000;stroke-width:2.0px;stroke-linecap:butt;stroke-linejoin:miter;stroke-opacity:1;stroke-dasharray:6,4"/>
<path class="bond-11 atom-11 atom-12" d="M 310.9,288.0 L 320.1,293.4" style="fill:none;fill-rule:evenodd;stroke:#000000;stroke-width:2.0px;stroke-linecap:butt;stroke-linejoin:miter;stroke-opacity:1"/>
<path class="bond-11 atom-11 atom-12" d="M 310.9,289.9 L 319.3,294.8" style="fill:none;fill-rule:evenodd;stroke:#000000;stroke-width:2.0px;stroke-linecap:butt;stroke-linejoin:miter;stroke-opacity:1;stroke-dasharray:6,4"/>
<path class="bond-12 atom-12 atom-13" d="M 320.1,293.4 L 329.4,288.1" style="fill:none;fill-rule:evenodd;stroke:#000000;stroke-width:2.0px;stroke-linecap:butt;stroke-linejoin:miter;stroke-opacity:1"/>
<path class="bond-13 atom-13 atom-14" d="M 329.4,288.1 L 332.9,290.1" style="fill:none;fill-rule:evenodd;stroke:#000000;stroke-width:2.0px;stroke-linecap:butt;stroke-linejoin:miter;stroke-opacity:1"/>
<path class="bond-13 atom-13 atom-14" d="M 332.9,290.1 L 336.3,292.2" style="fill:none;fill-rule:evenodd;stroke:#FF0000;stroke-width:2.0px;stroke-linecap:butt;stroke-linejoin:miter;stroke-opacity:1"/>
<path class="bond-14 atom-14 atom-15" d="M 340.9,292.2 L 344.4,290.2" style="fill:none;fill-rule:evenodd;stroke:#FF0000;stroke-width:2.0px;stroke-linecap:butt;stroke-linejoin:miter;stroke-opacity:1"/>
<path class="bond-14 atom-14 atom-15" d="M 344.4,290.2 L 347.9,288.2" style="fill:none;fill-rule:evenodd;stroke:#000000;stroke-width:2.0px;stroke-linecap:butt;stroke-linejoin:miter;stroke-opacity:1"/>
<path class="bond-15 atom-15 atom-16" d="M 347.9,288.2 L 357.1,293.6" style="fill:none;fill-rule:evenodd;stroke:#000000;stroke-width:2.0px;stroke-linecap:butt;stroke-linejoin:miter;stroke-opacity:1"/>
<path class="bond-16 atom-16 atom-17" d="M 357.1,293.6 L 357.1,297.7" style="fill:none;fill-rule:evenodd;stroke:#000000;stroke-width:2.0px;stroke-linecap:butt;stroke-linejoin:miter;stroke-opacity:1"/>
<path class="bond-16 atom-16 atom-17" d="M 357.1,297.7 L 357.1,301.8" style="fill:none;fill-rule:evenodd;stroke:#FF0000;stroke-width:2.0px;stroke-linecap:butt;stroke-linejoin:miter;stroke-opacity:1"/>
<path class="bond-17 atom-16 atom-18" d="M 357.1,293.6 L 366.4,288.3" style="fill:none;fill-rule:evenodd;stroke:#000000;stroke-width:2.0px;stroke-linecap:butt;stroke-linejoin:miter;stroke-opacity:1"/>
<path class="bond-18 atom-18 atom-19" d="M 366.4,288.3 L 366.4,284.3" style="fill:none;fill-rule:evenodd;stroke:#000000;stroke-width:2.0px;stroke-linecap:butt;stroke-linejoin:miter;stroke-opacity:1"/>
<path class="bond-18 atom-18 atom-19" d="M 366.4,284.3 L 366.5,280.2" style="fill:none;fill-rule:evenodd;stroke:#FF0000;stroke-width:2.0px;stroke-linecap:butt;stroke-linejoin:miter;stroke-opacity:1"/>
<path class="bond-19 atom-18 atom-20" d="M 366.4,288.3 L 375.6,293.7" style="fill:none;fill-rule:evenodd;stroke:#000000;stroke-width:2.0px;stroke-linecap:butt;stroke-linejoin:miter;stroke-opacity:1"/>
<path class="bond-20 atom-20 atom-21" d="M 375.6,293.7 L 379.1,291.7" style="fill:none;fill-rule:evenodd;stroke:#000000;stroke-width:2.0px;stroke-linecap:butt;stroke-linejoin:miter;stroke-opacity:1"/>
<path class="bond-20 atom-20 atom-21" d="M 379.1,291.7 L 382.6,289.7" style="fill:none;fill-rule:evenodd;stroke:#FF0000;stroke-width:2.0px;stroke-linecap:butt;stroke-linejoin:miter;stroke-opacity:1"/>
<path d="M 218.0,287.7 L 218.4,287.5 L 218.9,287.7" style="fill:none;stroke:#000000;stroke-width:2.0px;stroke-linecap:butt;stroke-linejoin:miter;stroke-opacity:1;"/>
<path d="M 227.2,292.6 L 227.6,292.9 L 228.1,292.6" style="fill:none;stroke:#000000;stroke-width:2.0px;stroke-linecap:butt;stroke-linejoin:miter;stroke-opacity:1;"/>
<path d="M 236.5,287.8 L 236.9,287.6 L 237.4,287.8" style="fill:none;stroke:#000000;stroke-width:2.0px;stroke-linecap:butt;stroke-linejoin:miter;stroke-opacity:1;"/>
<path d="M 245.7,292.7 L 246.1,293.0 L 246.6,292.7" style="fill:none;stroke:#000000;stroke-width:2.0px;stroke-linecap:butt;stroke-linejoin:miter;stroke-opacity:1;"/>
<path d="M 255.0,287.9 L 255.4,287.7 L 255.9,288.0" style="fill:none;stroke:#000000;stroke-width:2.0px;stroke-linecap:butt;stroke-linejoin:miter;stroke-opacity:1;"/>
<path d="M 264.2,292.8 L 264.6,293.1 L 265.1,292.8" style="fill:none;stroke:#000000;stroke-width:2.0px;stroke-linecap:butt;stroke-linejoin:miter;stroke-opacity:1;"/>
<path d="M 273.5,288.1 L 273.9,287.8 L 274.4,288.1" style="fill:none;stroke:#000000;stroke-width:2.0px;stroke-linecap:butt;stroke-linejoin:miter;stroke-opacity:1;"/>
<path d="M 282.7,292.9 L 283.1,293.2 L 283.6,292.9" style="fill:none;stroke:#000000;stroke-width:2.0px;stroke-linecap:butt;stroke-linejoin:miter;stroke-opacity:1;"/>
<path d="M 292.0,288.2 L 292.4,287.9 L 292.9,288.2" style="fill:none;stroke:#000000;stroke-width:2.0px;stroke-linecap:butt;stroke-linejoin:miter;stroke-opacity:1;"/>
<path d="M 301.2,293.0 L 301.6,293.3 L 302.1,293.0" style="fill:none;stroke:#000000;stroke-width:2.0px;stroke-linecap:butt;stroke-linejoin:miter;stroke-opacity:1;"/>
<path d="M 310.5,288.3 L 310.9,288.0 L 311.4,288.3" style="fill:none;stroke:#000000;stroke-width:2.0px;stroke-linecap:butt;stroke-linejoin:miter;stroke-opacity:1;"/>
<path d="M 319.7,293.1 L 320.1,293.4 L 320.6,293.1" style="fill:none;stroke:#000000;stroke-width:2.0px;stroke-linecap:butt;stroke-linejoin:miter;stroke-opacity:1;"/>
<path d="M 329.0,288.4 L 329.4,288.1 L 329.6,288.2" style="fill:none;stroke:#000000;stroke-width:2.0px;stroke-linecap:butt;stroke-linejoin:miter;stroke-opacity:1;"/>
<path d="M 347.7,288.3 L 347.9,288.2 L 348.4,288.5" style="fill:none;stroke:#000000;stroke-width:2.0px;stroke-linecap:butt;stroke-linejoin:miter;stroke-opacity:1;"/>
<path d="M 375.2,293.4 L 375.6,293.7 L 375.8,293.6" style="fill:none;stroke:#000000;stroke-width:2.0px;stroke-linecap:butt;stroke-linejoin:miter;stroke-opacity:1;"/>
<path class="atom-14" d="M 336.7 293.5 Q 336.7 292.5, 337.2 291.9 Q 337.7 291.4, 338.6 291.4 Q 339.6 291.4, 340.1 291.9 Q 340.6 292.5, 340.6 293.5 Q 340.6 294.5, 340.1 295.1 Q 339.6 295.7, 338.6 295.7 Q 337.7 295.7, 337.2 295.1 Q 336.7 294.6, 336.7 293.5 M 338.6 295.2 Q 339.3 295.2, 339.6 294.8 Q 340.0 294.4, 340.0 293.5 Q 340.0 292.7, 339.6 292.3 Q 339.3 291.8, 338.6 291.8 Q 338.0 291.8, 337.6 292.3 Q 337.3 292.7, 337.3 293.5 Q 337.3 294.4, 337.6 294.8 Q 338.0 295.2, 338.6 295.2 " fill="#FF0000"/>
<path class="atom-17" d="M 355.1 304.3 Q 355.1 303.3, 355.6 302.7 Q 356.1 302.1, 357.1 302.1 Q 358.0 302.1, 358.5 302.7 Q 359.0 303.3, 359.0 304.3 Q 359.0 305.3, 358.5 305.9 Q 358.0 306.5, 357.1 306.5 Q 356.1 306.5, 355.6 305.9 Q 355.1 305.3, 355.1 304.3 M 357.1 306.0 Q 357.7 306.0, 358.1 305.6 Q 358.4 305.2, 358.4 304.3 Q 358.4 303.5, 358.1 303.0 Q 357.7 302.6, 357.1 302.6 Q 356.4 302.6, 356.1 303.0 Q 355.7 303.5, 355.7 304.3 Q 355.7 305.2, 356.1 305.6 Q 356.4 306.0, 357.1 306.0 " fill="#FF0000"/>
<path class="atom-17" d="M 359.7 302.2 L 360.3 302.2 L 360.3 304.0 L 362.4 304.0 L 362.4 302.2 L 363.0 302.2 L 363.0 306.4 L 362.4 306.4 L 362.4 304.5 L 360.3 304.5 L 360.3 306.4 L 359.7 306.4 L 359.7 302.2 " fill="#FF0000"/>
<path class="atom-19" d="M 364.5 277.7 Q 364.5 276.6, 365.0 276.1 Q 365.5 275.5, 366.5 275.5 Q 367.4 275.5, 367.9 276.1 Q 368.4 276.6, 368.4 277.7 Q 368.4 278.7, 367.9 279.3 Q 367.4 279.9, 366.5 279.9 Q 365.5 279.9, 365.0 279.3 Q 364.5 278.7, 364.5 277.7 M 366.5 279.4 Q 367.1 279.4, 367.5 278.9 Q 367.8 278.5, 367.8 277.7 Q 367.8 276.8, 367.5 276.4 Q 367.1 276.0, 366.5 276.0 Q 365.8 276.0, 365.5 276.4 Q 365.1 276.8, 365.1 277.7 Q 365.1 278.5, 365.5 278.9 Q 365.8 279.4, 366.5 279.4 " fill="#FF0000"/>
<path class="atom-19" d="M 369.1 275.5 L 369.7 275.5 L 369.7 277.3 L 371.8 277.3 L 371.8 275.5 L 372.4 275.5 L 372.4 279.8 L 371.8 279.8 L 371.8 277.8 L 369.7 277.8 L 369.7 279.8 L 369.1 279.8 L 369.1 275.5 " fill="#FF0000"/>
<path class="atom-21" d="M 383.0 288.4 Q 383.0 287.4, 383.5 286.9 Q 384.0 286.3, 384.9 286.3 Q 385.9 286.3, 386.4 286.9 Q 386.9 287.4, 386.9 288.4 Q 386.9 289.5, 386.4 290.1 Q 385.8 290.6, 384.9 290.6 Q 384.0 290.6, 383.5 290.1 Q 383.0 289.5, 383.0 288.4 M 384.9 290.2 Q 385.6 290.2, 385.9 289.7 Q 386.3 289.3, 386.3 288.4 Q 386.3 287.6, 385.9 287.2 Q 385.6 286.8, 384.9 286.8 Q 384.3 286.8, 383.9 287.2 Q 383.6 287.6, 383.6 288.4 Q 383.6 289.3, 383.9 289.7 Q 384.3 290.2, 384.9 290.2 " fill="#FF0000"/>
<path class="atom-21" d="M 387.5 286.3 L 388.1 286.3 L 388.1 288.1 L 390.3 288.1 L 390.3 286.3 L 390.9 286.3 L 390.9 290.6 L 390.3 290.6 L 390.3 288.6 L 388.1 288.6 L 388.1 290.6 L 387.5 290.6 L 387.5 286.3 " fill="#FF0000"/>
<path class="legend" d="M 296.6 378.7 L 303.4 378.7 L 303.4 380.0 L 298.2 380.0 L 298.2 383.4 L 302.8 383.4 L 302.8 384.7 L 298.2 384.7 L 298.2 390.0 L 296.6 390.0 L 296.6 378.7 " fill="#000000"/>
<path class="bond-0 atom-0 atom-1" d="M 481.5,293.7 L 490.8,288.3" style="fill:none;fill-rule:evenodd;stroke:#000000;stroke-width:2.0px;stroke-linecap:butt;stroke-linejoin:miter;stroke-opacity:1"/>
<path class="bond-1 atom-1 atom-2" d="M 490.8,288.3 L 500.0,293.7" style="fill:none;fill-rule:evenodd;stroke:#000000;stroke-width:2.0px;stroke-linecap:butt;stroke-linejoin:miter;stroke-opacity:1"/>
<path class="bond-2 atom-2 atom-3" d="M 500.0,293.7 L 509.2,288.3" style="fill:none;fill-rule:evenodd;stroke:#000000;stroke-width:2.0px;stroke-linecap:butt;stroke-linejoin:miter;stroke-opacity:1"/>
<path class="bond-3 atom-3 atom-4" d="M 509.2,288.3 L 518.5,293.7" style="fill:none;fill-rule:evenodd;stroke:#000000;stroke-width:2.0px;stroke-linecap:butt;stroke-linejoin:miter;stroke-opacity:1"/>
<path d="M 490.3,288.6 L 490.8,288.3 L 491.2,288.6" style="fill:none;stroke:#000000;stroke-width:2.0px;stroke-linecap:butt;stroke-linejoin:miter;stroke-opacity:1;"/>
<path d="M 499.5,293.4 L 500.0,293.7 L 500.5,293.4" style="fill:none;stroke:#000000;stroke-width:2.0px;stroke-linecap:butt;stroke-linejoin:miter;stroke-opacity:1;"/>
<path d="M 508.8,288.6 L 509.2,288.3 L 509.7,288.6" style="fill:none;stroke:#000000;stroke-width:2.0px;stroke-linecap:butt;stroke-linejoin:miter;stroke-opacity:1;"/>
<path class="legend" d="M 504.6 384.3 L 504.6 389.1 Q 502.9 390.0, 500.6 390.0 Q 498.1 390.0, 496.8 388.5 Q 495.4 387.0, 495.4 384.2 Q 495.4 381.4, 496.8 379.9 Q 498.1 378.4, 500.6 378.4 Q 501.9 378.4, 502.9 378.8 Q 503.8 379.2, 504.5 380.0 L 503.5 380.9 Q 502.4 379.7, 500.6 379.7 Q 498.9 379.7, 498.0 380.8 Q 497.1 382.0, 497.1 384.2 Q 497.1 386.4, 498.0 387.6 Q 499.0 388.7, 500.8 388.7 Q 502.0 388.7, 503.0 388.3 L 503.0 384.3 L 504.6 384.3 " fill="#000000"/>
<path class="bond-0 atom-0 atom-1" d="M 681.5,293.7 L 690.8,288.3" style="fill:none;fill-rule:evenodd;stroke:#000000;stroke-width:2.0px;stroke-linecap:butt;stroke-linejoin:miter;stroke-opacity:1"/>
<path class="bond-1 atom-1 atom-2" d="M 690.8,288.3 L 700.0,293.7" style="fill:none;fill-rule:evenodd;stroke:#000000;stroke-width:2.0px;stroke-linecap:butt;stroke-linejoin:miter;stroke-opacity:1"/>
<path class="bond-2 atom-2 atom-3" d="M 700.0,293.7 L 709.2,288.3" style="fill:none;fill-rule:evenodd;stroke:#000000;stroke-width:2.0px;stroke-linecap:butt;stroke-linejoin:miter;stroke-opacity:1"/>
<path class="bond-3 atom-3 atom-4" d="M 709.2,288.3 L 718.5,293.7" style="fill:none;fill-rule:evenodd;stroke:#000000;stroke-width:2.0px;stroke-linecap:butt;stroke-linejoin:miter;stroke-opacity:1"/>
<path d="M 690.3,288.6 L 690.8,288.3 L 691.2,288.6" style="fill:none;stroke:#000000;stroke-width:2.0px;stroke-linecap:butt;stroke-linejoin:miter;stroke-opacity:1;"/>
<path d="M 699.5,293.4 L 700.0,293.7 L 700.5,293.4" style="fill:none;stroke:#000000;stroke-width:2.0px;stroke-linecap:butt;stroke-linejoin:miter;stroke-opacity:1;"/>
<path d="M 708.8,288.6 L 709.2,288.3 L 709.7,288.6" style="fill:none;stroke:#000000;stroke-width:2.0px;stroke-linecap:butt;stroke-linejoin:miter;stroke-opacity:1;"/>
<path class="legend" d="M 695.6 378.7 L 697.1 378.7 L 697.1 383.5 L 702.9 383.5 L 702.9 378.7 L 704.4 378.7 L 704.4 390.0 L 702.9 390.0 L 702.9 384.8 L 697.1 384.8 L 697.1 390.0 L 695.6 390.0 L 695.6 378.7 " fill="#000000"/>
<path class="bond-0 atom-0 atom-1" d="M 118.7,496.3 L 109.4,501.7" style="fill:none;fill-rule:evenodd;stroke:#000000;stroke-width:2.0px;stroke-linecap:butt;stroke-linejoin:miter;stroke-opacity:1"/>
<path class="bond-0 atom-0 atom-1" d="M 117.1,495.4 L 109.4,499.8" style="fill:none;fill-rule:evenodd;stroke:#000000;stroke-width:2.0px;stroke-linecap:butt;stroke-linejoin:miter;stroke-opacity:1"/>
<path class="bond-1 atom-1 atom-2" d="M 109.4,501.7 L 100.2,496.3" style="fill:none;fill-rule:evenodd;stroke:#000000;stroke-width:2.0px;stroke-linecap:butt;stroke-linejoin:miter;stroke-opacity:1"/>
<path class="bond-2 atom-2 atom-3" d="M 100.2,496.3 L 100.2,485.7" style="fill:none;fill-rule:evenodd;stroke:#000000;stroke-width:2.0px;stroke-linecap:butt;stroke-linejoin:miter;stroke-opacity:1"/>
<path class="bond-2 atom-2 atom-3" d="M 101.8,495.4 L 101.8,486.6" style="fill:none;fill-rule:evenodd;stroke:#000000;stroke-width:2.0px;stroke-linecap:butt;stroke-linejoin:miter;stroke-opacity:1"/>
<path class="bond-3 atom-3 atom-4" d="M 100.2,485.7 L 109.4,480.3" style="fill:none;fill-rule:evenodd;stroke:#000000;stroke-width:2.0px;stroke-linecap:butt;stroke-linejoin:miter;stroke-opacity:1"/>
<path class="bond-4 atom-4 atom-5" d="M 109.4,480.3 L 113.1,482.4" style="fill:none;fill-rule:evenodd;stroke:#000000;stroke-width:2.0px;stroke-linecap:butt;stroke-linejoin:miter;stroke-opacity:1"/>
<path class="bond-4 atom-4 atom-5" d="M 113.1,482.4 L 116.7,484.5" style="fill:none;fill-rule:evenodd;stroke:#0000FF;stroke-width:2.0px;stroke-linecap:butt;stroke-linejoin:miter;stroke-opacity:1"/>
<path class="bond-4 atom-4 atom-5" d="M 109.4,482.2 L 112.7,484.0" style="fill:none;fill-rule:evenodd;stroke:#000000;stroke-width:2.0px;stroke-linecap:butt;stroke-linejoin:miter;stroke-opacity:1"/>
<path class="bond-4 atom-4 atom-5" d="M 112.7,484.0 L 115.9,485.9" style="fill:none;fill-rule:evenodd;stroke:#0000FF;stroke-width:2.0px;stroke-linecap:butt;stroke-linejoin:miter;stroke-opacity:1"/>
<path class="bond-5 atom-3 atom-6" d="M 100.2,485.7 L 90.9,480.3" style="fill:none;fill-rule:evenodd;stroke:#000000;stroke-width:2.0px;stroke-linecap:butt;stroke-linejoin:miter;stroke-opacity:1"/>
<path class="bond-6 atom-6 atom-7" d="M 90.9,480.3 L 87.4,482.3" style="fill:none;fill-rule:evenodd;stroke:#000000;stroke-width:2.0px;stroke-linecap:butt;stroke-linejoin:miter;stroke-opacity:1"/>
<path class="bond-6 atom-6 atom-7" d="M 87.4,482.3 L 84.0,484.3" style="fill:none;fill-rule:evenodd;stroke:#FF0000;stroke-width:2.0px;stroke-linecap:butt;stroke-linejoin:miter;stroke-opacity:1"/>
<path class="bond-7 atom-7 atom-8" d="M 81.7,488.2 L 81.7,492.3" style="fill:none;fill-rule:evenodd;stroke:#FF0000;stroke-width:2.0px;stroke-linecap:butt;stroke-linejoin:miter;stroke-opacity:1"/>
<path class="bond-7 atom-7 atom-8" d="M 81.7,492.3 L 81.7,496.3" style="fill:none;fill-rule:evenodd;stroke:#000000;stroke-width:2.0px;stroke-linecap:butt;stroke-linejoin:miter;stroke-opacity:1"/>
<path class="bond-8 atom-8 atom-9" d="M 81.7,496.3 L 90.9,501.7" style="fill:none;fill-rule:evenodd;stroke:#000000;stroke-width:2.0px;stroke-linecap:butt;stroke-linejoin:miter;stroke-opacity:1"/>
<path class="bond-9 atom-5 atom-0" d="M 118.7,488.1 L 118.7,492.2" style="fill:none;fill-rule:evenodd;stroke:#0000FF;stroke-width:2.0px;stroke-linecap:butt;stroke-linejoin:miter;stroke-opacity:1"/>
<path class="bond-9 atom-5 atom-0" d="M 118.7,492.2 L 118.7,496.3" style="fill:none;fill-rule:evenodd;stroke:#000000;stroke-width:2.0px;stroke-linecap:butt;stroke-linejoin:miter;stroke-opacity:1"/>
<path class="bond-10 atom-9 atom-2" d="M 90.9,501.7 L 100.2,496.3" style="fill:none;fill-rule:evenodd;stroke:#000000;stroke-width:2.0px;stroke-linecap:butt;stroke-linejoin:miter;stroke-opacity:1"/>
<path d="M 118.2,496.6 L 118.7,496.3 L 118.7,496.1" style="fill:none;stroke:#000000;stroke-width:2.0px;stroke-linecap:butt;stroke-linejoin:miter;stroke-opacity:1;"/>
<path d="M 109.9,501.4 L 109.4,501.7 L 109.0,501.4" style="fill:none;stroke:#000000;stroke-width:2.0px;stroke-linecap:butt;stroke-linejoin:miter;stroke-opacity:1;"/>
<path d="M 109.0,480.6 L 109.4,480.3 L 109.6,480.4" style="fill:none;stroke:#000000;stroke-width:2.0px;stroke-linecap:butt;stroke-linejoin:miter;stroke-opacity:1;"/>
<path d="M 91.4,480.6 L 90.9,480.3 L 90.7,480.4" style="fill:none;stroke:#000000;stroke-width:2.0px;stroke-linecap:butt;stroke-linejoin:miter;stroke-opacity:1;"/>
<path d="M 81.7,496.1 L 81.7,496.3 L 82.1,496.6" style="fill:none;stroke:#000000;stroke-width:2.0px;stroke-linecap:butt;stroke-linejoin:miter;stroke-opacity:1;"/>
<path d="M 90.5,501.4 L 90.9,501.7 L 91.4,501.4" style="fill:none;stroke:#000000;stroke-width:2.0px;stroke-linecap:butt;stroke-linejoin:miter;stroke-opacity:1;"/>
<path class="atom-5" d="M 117.7 483.5 L 119.1 485.8 Q 119.3 486.0, 119.5 486.4 Q 119.7 486.8, 119.7 486.8 L 119.7 483.5 L 120.3 483.5 L 120.3 487.8 L 119.7 487.8 L 118.2 485.3 Q 118.0 485.0, 117.8 484.7 Q 117.7 484.4, 117.6 484.3 L 117.6 487.8 L 117.1 487.8 L 117.1 483.5 L 117.7 483.5 " fill="#0000FF"/>
<path class="atom-7" d="M 79.7 485.7 Q 79.7 484.7, 80.2 484.1 Q 80.7 483.5, 81.7 483.5 Q 82.6 483.5, 83.1 484.1 Q 83.6 484.7, 83.6 485.7 Q 83.6 486.7, 83.1 487.3 Q 82.6 487.9, 81.7 487.9 Q 80.7 487.9, 80.2 487.3 Q 79.7 486.7, 79.7 485.7 M 81.7 487.4 Q 82.3 487.4, 82.7 487.0 Q 83.0 486.5, 83.0 485.7 Q 83.0 484.8, 82.7 484.4 Q 82.3 484.0, 81.7 484.0 Q 81.0 484.0, 80.7 484.4 Q 80.3 484.8, 80.3 485.7 Q 80.3 486.5, 80.7 487.0 Q 81.0 487.4, 81.7 487.4 " fill="#FF0000"/>
<path class="legend" d="M 99.2 578.6 L 100.8 578.6 L 100.8 590.0 L 99.2 590.0 L 99.2 578.6 " fill="#000000"/>
<path class="bond-0 atom-0 atom-1" d="M 297.6,460.2 L 296.4,470.9" style="fill:none;fill-rule:evenodd;stroke:#000000;stroke-width:2.0px;stroke-linecap:butt;stroke-linejoin:miter;stroke-opacity:1"/>
<path class="bond-1 atom-1 atom-2" d="M 296.4,470.9 L 286.6,475.1" style="fill:none;fill-rule:evenodd;stroke:#000000;stroke-width:2.0px;stroke-linecap:butt;stroke-linejoin:miter;stroke-opacity:1"/>
<path class="bond-2 atom-2 atom-3" d="M 286.6,475.1 L 285.3,485.7" style="fill:none;fill-rule:evenodd;stroke:#000000;stroke-width:2.0px;stroke-linecap:butt;stroke-linejoin:miter;stroke-opacity:1"/>
<path class="bond-3 atom-3 atom-4" d="M 285.3,485.7 L 275.5,489.9" style="fill:none;fill-rule:evenodd;stroke:#000000;stroke-width:2.0px;stroke-linecap:butt;stroke-linejoin:miter;stroke-opacity:1"/>
<path class="bond-4 atom-4 atom-5" d="M 275.5,489.9 L 274.3,500.5" style="fill:none;fill-rule:evenodd;stroke:#000000;stroke-width:2.0px;stroke-linecap:butt;stroke-linejoin:miter;stroke-opacity:1"/>
<path class="bond-5 atom-5 atom-6" d="M 274.3,500.5 L 264.5,504.8" style="fill:none;fill-rule:evenodd;stroke:#000000;stroke-width:2.0px;stroke-linecap:butt;stroke-linejoin:miter;stroke-opacity:1"/>
<path class="bond-6 atom-6 atom-7" d="M 264.5,504.8 L 263.2,515.4" style="fill:none;fill-rule:evenodd;stroke:#000000;stroke-width:2.0px;stroke-linecap:butt;stroke-linejoin:miter;stroke-opacity:1"/>
<path class="bond-7 atom-7 atom-8" d="M 263.2,515.4 L 253.4,519.6" style="fill:none;fill-rule:evenodd;stroke:#000000;stroke-width:2.0px;stroke-linecap:butt;stroke-linejoin:miter;stroke-opacity:1"/>
<path class="bond-8 atom-7 atom-9" d="M 263.2,515.4 L 271.8,521.8" style="fill:none;fill-rule:evenodd;stroke:#000000;stroke-width:2.0px;stroke-linecap:butt;stroke-linejoin:miter;stroke-opacity:1"/>
<path class="bond-9 atom-3 atom-10" d="M 285.3,485.7 L 293.9,492.1" style="fill:none;fill-rule:evenodd;stroke:#000000;stroke-width:2.0px;stroke-linecap:butt;stroke-linejoin:miter;stroke-opacity:1"/>
<path class="bond-10 atom-10 atom-11" d="M 293.9,492.1 L 292.7,502.7" style="fill:none;fill-rule:evenodd;stroke:#000000;stroke-width:2.0px;stroke-linecap:butt;stroke-linejoin:miter;stroke-opacity:1"/>
<path class="bond-11 atom-10 atom-12" d="M 293.9,492.1 L 303.7,487.8" style="fill:none;fill-rule:evenodd;stroke:#000000;stroke-width:2.0px;stroke-linecap:butt;stroke-linejoin:miter;stroke-opacity:1"/>
<path class="bond-12 atom-12 atom-13" d="M 303.7,487.8 L 312.3,494.2" style="fill:none;fill-rule:evenodd;stroke:#000000;stroke-width:2.0px;stroke-linecap:butt;stroke-linejoin:miter;stroke-opacity:1"/>
<path class="bond-13 atom-13 atom-14" d="M 312.3,494.2 L 322.1,490.0" style="fill:none;fill-rule:evenodd;stroke:#000000;stroke-width:2.0px;stroke-linecap:butt;stroke-linejoin:miter;stroke-opacity:1"/>
<path class="bond-14 atom-14 atom-15" d="M 322.1,490.0 L 330.7,496.4" style="fill:none;fill-rule:evenodd;stroke:#000000;stroke-width:2.0px;stroke-linecap:butt;stroke-linejoin:miter;stroke-opacity:1"/>
<path class="bond-15 atom-15 atom-16" d="M 330.7,496.4 L 337.0,487.8" style="fill:none;fill-rule:evenodd;stroke:#000000;stroke-width:2.0px;stroke-linecap:butt;stroke-linejoin:miter;stroke-opacity:1"/>
<path class="bond-16 atom-15 atom-17" d="M 330.7,496.4 L 324.3,504.9" style="fill:none;fill-rule:evenodd;stroke:#000000;stroke-width:2.0px;stroke-linecap:butt;stroke-linejoin:miter;stroke-opacity:1"/>
<path class="bond-17 atom-17 atom-18" d="M 324.3,504.9 L 328.5,514.7" style="fill:none;fill-rule:evenodd;stroke:#000000;stroke-width:2.0px;stroke-linecap:butt;stroke-linejoin:miter;stroke-opacity:1"/>
<path class="bond-18 atom-15 atom-19" d="M 330.7,496.4 L 339.2,502.7" style="fill:none;fill-rule:evenodd;stroke:#000000;stroke-width:2.0px;stroke-linecap:butt;stroke-linejoin:miter;stroke-opacity:1"/>
<path class="bond-19 atom-19 atom-20" d="M 339.2,502.7 L 338.0,513.3" style="fill:none;fill-rule:evenodd;stroke:#000000;stroke-width:2.0px;stroke-linecap:butt;stroke-linejoin:miter;stroke-opacity:1"/>
<path class="bond-20 atom-20 atom-21" d="M 338.0,513.3 L 346.6,519.7" style="fill:none;fill-rule:evenodd;stroke:#000000;stroke-width:2.0px;stroke-linecap:butt;stroke-linejoin:miter;stroke-opacity:1"/>
<path d="M 296.4,470.3 L 296.4,470.9 L 295.9,471.1" style="fill:none;stroke:#000000;stroke-width:2.0px;stroke-linecap:butt;stroke-linejoin:miter;stroke-opacity:1;"/>
<path d="M 287.1,474.9 L 286.6,475.1 L 286.5,475.6" style="fill:none;stroke:#000000;stroke-width:2.0px;stroke-linecap:butt;stroke-linejoin:miter;stroke-opacity:1;"/>
<path d="M 276.0,489.7 L 275.5,489.9 L 275.5,490.5" style="fill:none;stroke:#000000;stroke-width:2.0px;stroke-linecap:butt;stroke-linejoin:miter;stroke-opacity:1;"/>
<path d="M 274.4,500.0 L 274.3,500.5 L 273.8,500.7" style="fill:none;stroke:#000000;stroke-width:2.0px;stroke-linecap:butt;stroke-linejoin:miter;stroke-opacity:1;"/>
<path d="M 265.0,504.6 L 264.5,504.8 L 264.4,505.3" style="fill:none;stroke:#000000;stroke-width:2.0px;stroke-linecap:butt;stroke-linejoin:miter;stroke-opacity:1;"/>
<path d="M 303.2,488.0 L 303.7,487.8 L 304.1,488.2" style="fill:none;stroke:#000000;stroke-width:2.0px;stroke-linecap:butt;stroke-linejoin:miter;stroke-opacity:1;"/>
<path d="M 311.9,493.9 L 312.3,494.2 L 312.8,494.0" style="fill:none;stroke:#000000;stroke-width:2.0px;stroke-linecap:butt;stroke-linejoin:miter;stroke-opacity:1;"/>
<path d="M 321.6,490.2 L 322.1,490.0 L 322.5,490.3" style="fill:none;stroke:#000000;stroke-width:2.0px;stroke-linecap:butt;stroke-linejoin:miter;stroke-opacity:1;"/>
<path d="M 324.6,504.5 L 324.3,504.9 L 324.5,505.4" style="fill:none;stroke:#000000;stroke-width:2.0px;stroke-linecap:butt;stroke-linejoin:miter;stroke-opacity:1;"/>
<path d="M 338.8,502.4 L 339.2,502.7 L 339.2,503.3" style="fill:none;stroke:#000000;stroke-width:2.0px;stroke-linecap:butt;stroke-linejoin:miter;stroke-opacity:1;"/>
<path d="M 338.0,512.8 L 338.0,513.3 L 338.4,513.7" style="fill:none;stroke:#000000;stroke-width:2.0px;stroke-linecap:butt;stroke-linejoin:miter;stroke-opacity:1;"/>
<path class="legend" d="M 298.0 588.8 Q 298.0 588.8, 298.7 588.4 Q 299.4 588.0, 300.0 587.3 Q 300.5 586.7, 300.5 585.8 L 300.5 577.7 L 298.3 577.7 L 298.3 576.4 L 302.0 576.4 L 302.0 585.8 Q 302.0 587.1, 301.3 588.0 Q 300.5 589.0, 299.6 589.5 Q 298.6 590.1, 298.6 590.0 L 298.0 588.8 " fill="#000000"/>
</svg>