<svg xmlns="http://www.w3.org/2000/svg" xmlns:rdkit="http://www.rdkit.org/xml" xmlns:xlink="http://www.w3.org/1999/xlink" version="1.1" baseProfile="full" xml:space="preserve" width="800px" height="200px" viewBox="0 0 800 200">
<!-- END OF HEADER -->
<rect style="opacity:1.0;fill:#FFFFFF;stroke:none" width="800.0" height="200.0" x="0.0" y="0.0"> </rect>
<path class="bond-0 atom-0 atom-1" d="M 120.2,70.5 L 109.3,89.5" style="fill:none;fill-rule:evenodd;stroke:#000000;stroke-width:2.0px;stroke-linecap:butt;stroke-linejoin:miter;stroke-opacity:1"/>
<path class="bond-1 atom-1 atom-2" d="M 109.3,89.5 L 113.6,97.0" style="fill:none;fill-rule:evenodd;stroke:#000000;stroke-width:2.0px;stroke-linecap:butt;stroke-linejoin:miter;stroke-opacity:1"/>
<path class="bond-1 atom-1 atom-2" d="M 113.6,97.0 L 118.0,104.6" style="fill:none;fill-rule:evenodd;stroke:#0000FF;stroke-width:2.0px;stroke-linecap:butt;stroke-linejoin:miter;stroke-opacity:1"/>
<path class="bond-2 atom-1 atom-3" d="M 109.3,89.5 L 87.4,89.5" style="fill:none;fill-rule:evenodd;stroke:#000000;stroke-width:2.0px;stroke-linecap:butt;stroke-linejoin:miter;stroke-opacity:1"/>
<path class="bond-3 atom-3 atom-4" d="M 89.3,89.5 L 84.7,81.6" style="fill:none;fill-rule:evenodd;stroke:#000000;stroke-width:2.0px;stroke-linecap:butt;stroke-linejoin:miter;stroke-opacity:1"/>
<path class="bond-3 atom-3 atom-4" d="M 84.7,81.6 L 80.1,73.6" style="fill:none;fill-rule:evenodd;stroke:#FF0000;stroke-width:2.0px;stroke-linecap:butt;stroke-linejoin:miter;stroke-opacity:1"/>
<path class="bond-3 atom-3 atom-4" d="M 86.4,91.1 L 81.8,83.2" style="fill:none;fill-rule:evenodd;stroke:#000000;stroke-width:2.0px;stroke-linecap:butt;stroke-linejoin:miter;stroke-opacity:1"/>
<path class="bond-3 atom-3 atom-4" d="M 81.8,83.2 L 77.3,75.3" style="fill:none;fill-rule:evenodd;stroke:#FF0000;stroke-width:2.0px;stroke-linecap:butt;stroke-linejoin:miter;stroke-opacity:1"/>
<path class="bond-4 atom-3 atom-5" d="M 87.4,89.5 L 83.0,97.0" style="fill:none;fill-rule:evenodd;stroke:#000000;stroke-width:2.0px;stroke-linecap:butt;stroke-linejoin:miter;stroke-opacity:1"/>
<path class="bond-4 atom-3 atom-5" d="M 83.0,97.0 L 78.6,104.6" style="fill:none;fill-rule:evenodd;stroke:#FF0000;stroke-width:2.0px;stroke-linecap:butt;stroke-linejoin:miter;stroke-opacity:1"/>
<path d="M 88.5,89.5 L 87.4,89.5 L 87.1,89.8" style="fill:none;stroke:#000000;stroke-width:2.0px;stroke-linecap:butt;stroke-linejoin:miter;stroke-opacity:1;"/>
<path class="atom-2" d="M 118.8 105.3 L 120.9 108.6 Q 121.1 108.9, 121.4 109.5 Q 121.7 110.1, 121.7 110.1 L 121.7 105.3 L 122.6 105.3 L 122.6 111.5 L 121.7 111.5 L 119.5 107.9 Q 119.3 107.5, 119.0 107.0 Q 118.7 106.6, 118.7 106.4 L 118.7 111.5 L 117.9 111.5 L 117.9 105.3 L 118.8 105.3 " fill="#0000FF"/>
<path class="atom-2" d="M 123.7 105.3 L 124.6 105.3 L 124.6 108.0 L 127.8 108.0 L 127.8 105.3 L 128.6 105.3 L 128.6 111.5 L 127.8 111.5 L 127.8 108.7 L 124.6 108.7 L 124.6 111.5 L 123.7 111.5 L 123.7 105.3 " fill="#0000FF"/>
<path class="atom-2" d="M 129.8 111.3 Q 130.0 110.9, 130.3 110.7 Q 130.7 110.5, 131.2 110.5 Q 131.8 110.5, 132.1 110.8 Q 132.5 111.2, 132.5 111.8 Q 132.5 112.4, 132.0 112.9 Q 131.6 113.5, 130.7 114.2 L 132.6 114.2 L 132.6 114.6 L 129.8 114.6 L 129.8 114.2 Q 130.6 113.7, 131.0 113.3 Q 131.5 112.9, 131.7 112.5 Q 131.9 112.2, 131.9 111.8 Q 131.9 111.4, 131.7 111.2 Q 131.5 111.0, 131.2 111.0 Q 130.8 111.0, 130.6 111.1 Q 130.4 111.2, 130.3 111.5 L 129.8 111.3 " fill="#0000FF"/>
<path class="atom-4" d="M 73.6 70.5 Q 73.6 69.0, 74.3 68.2 Q 75.0 67.4, 76.4 67.4 Q 77.8 67.4, 78.5 68.2 Q 79.3 69.0, 79.3 70.5 Q 79.3 72.0, 78.5 72.9 Q 77.8 73.7, 76.4 73.7 Q 75.0 73.7, 74.3 72.9 Q 73.6 72.0, 73.6 70.5 M 76.4 73.0 Q 77.4 73.0, 77.9 72.4 Q 78.4 71.8, 78.4 70.5 Q 78.4 69.3, 77.9 68.7 Q 77.4 68.1, 76.4 68.1 Q 75.5 68.1, 74.9 68.7 Q 74.4 69.3, 74.4 70.5 Q 74.4 71.8, 74.9 72.4 Q 75.5 73.0, 76.4 73.0 " fill="#FF0000"/>
<path class="atom-5" d="M 67.4 105.4 L 68.3 105.4 L 68.3 108.0 L 71.5 108.0 L 71.5 105.4 L 72.3 105.4 L 72.3 111.6 L 71.5 111.6 L 71.5 108.7 L 68.3 108.7 L 68.3 111.6 L 67.4 111.6 L 67.4 105.4 " fill="#FF0000"/>
<path class="atom-5" d="M 73.6 108.4 Q 73.6 107.0, 74.3 106.1 Q 75.0 105.3, 76.4 105.3 Q 77.8 105.3, 78.5 106.1 Q 79.3 107.0, 79.3 108.4 Q 79.3 110.0, 78.5 110.8 Q 77.8 111.7, 76.4 111.7 Q 75.0 111.7, 74.3 110.8 Q 73.6 110.0, 73.6 108.4 M 76.4 111.0 Q 77.4 111.0, 77.9 110.3 Q 78.4 109.7, 78.4 108.4 Q 78.4 107.2, 77.9 106.6 Q 77.4 106.0, 76.4 106.0 Q 75.5 106.0, 74.9 106.6 Q 74.4 107.2, 74.4 108.4 Q 74.4 109.7, 74.9 110.3 Q 75.5 111.0, 76.4 111.0 " fill="#FF0000"/>
<path class="legend" d="M 103.4 190.0 L 102.2 186.7 L 97.8 186.7 L 96.6 190.0 L 95.1 190.0 L 99.0 178.7 L 100.9 178.7 L 104.9 190.0 L 103.4 190.0 M 98.2 185.4 L 101.8 185.4 L 100.0 180.3 L 98.2 185.4 " fill="#000000"/>
<path class="bond-0 atom-0 atom-1" d="M 390.0,50.5 L 384.7,71.7" style="fill:none;fill-rule:evenodd;stroke:#000000;stroke-width:2.0px;stroke-linecap:butt;stroke-linejoin:miter;stroke-opacity:1"/>
<path class="bond-0 atom-0 atom-1" d="M 386.8,49.7 L 382.0,69.1" style="fill:none;fill-rule:evenodd;stroke:#000000;stroke-width:2.0px;stroke-linecap:butt;stroke-linejoin:miter;stroke-opacity:1;stroke-dasharray:6,4"/>
<path class="bond-1 atom-1 atom-2" d="M 384.7,71.7 L 363.7,77.8" style="fill:none;fill-rule:evenodd;stroke:#000000;stroke-width:2.0px;stroke-linecap:butt;stroke-linejoin:miter;stroke-opacity:1"/>
<path class="bond-1 atom-1 atom-2" d="M 382.0,69.1 L 362.7,74.6" style="fill:none;fill-rule:evenodd;stroke:#000000;stroke-width:2.0px;stroke-linecap:butt;stroke-linejoin:miter;stroke-opacity:1;stroke-dasharray:6,4"/>
<path class="bond-2 atom-2 atom-3" d="M 363.7,77.8 L 358.4,99.0" style="fill:none;fill-rule:evenodd;stroke:#000000;stroke-width:2.0px;stroke-linecap:butt;stroke-linejoin:miter;stroke-opacity:1"/>
<path class="bond-2 atom-2 atom-3" d="M 366.4,80.4 L 361.5,99.8" style="fill:none;fill-rule:evenodd;stroke:#000000;stroke-width:2.0px;stroke-linecap:butt;stroke-linejoin:miter;stroke-opacity:1;stroke-dasharray:6,4"/>
<path class="bond-3 atom-3 atom-4" d="M 358.4,99.0 L 337.3,105.0" style="fill:none;fill-rule:evenodd;stroke:#000000;stroke-width:2.0px;stroke-linecap:butt;stroke-linejoin:miter;stroke-opacity:1"/>
<path class="bond-4 atom-4 atom-5" d="M 337.3,105.0 L 332.0,126.3" style="fill:none;fill-rule:evenodd;stroke:#000000;stroke-width:2.0px;stroke-linecap:butt;stroke-linejoin:miter;stroke-opacity:1"/>
<path class="bond-4 atom-4 atom-5" d="M 333.7,106.1 L 329.3,123.7" style="fill:none;fill-rule:evenodd;stroke:#000000;stroke-width:2.0px;stroke-linecap:butt;stroke-linejoin:miter;stroke-opacity:1;stroke-dasharray:6,4"/>
<path class="bond-5 atom-5 atom-6" d="M 332.0,126.3 L 311.0,132.3" style="fill:none;fill-rule:evenodd;stroke:#000000;stroke-width:2.0px;stroke-linecap:butt;stroke-linejoin:miter;stroke-opacity:1"/>
<path class="bond-5 atom-5 atom-6" d="M 329.3,123.7 L 310.0,129.2" style="fill:none;fill-rule:evenodd;stroke:#000000;stroke-width:2.0px;stroke-linecap:butt;stroke-linejoin:miter;stroke-opacity:1;stroke-dasharray:6,4"/>
<path class="bond-6 atom-4 atom-7" d="M 337.3,105.0 L 331.2,99.2" style="fill:none;fill-rule:evenodd;stroke:#000000;stroke-width:2.0px;stroke-linecap:butt;stroke-linejoin:miter;stroke-opacity:1"/>
<path class="bond-6 atom-4 atom-7" d="M 331.2,99.2 L 325.1,93.3" style="fill:none;fill-rule:evenodd;stroke:#FF0000;stroke-width:2.0px;stroke-linecap:butt;stroke-linejoin:miter;stroke-opacity:1"/>
<path class="bond-6 atom-4 atom-7" d="M 335.0,107.4 L 328.9,101.5" style="fill:none;fill-rule:evenodd;stroke:#000000;stroke-width:2.0px;stroke-linecap:butt;stroke-linejoin:miter;stroke-opacity:1;stroke-dasharray:6,4"/>
<path class="bond-6 atom-4 atom-7" d="M 328.9,101.5 L 322.8,95.6" style="fill:none;fill-rule:evenodd;stroke:#FF0000;stroke-width:2.0px;stroke-linecap:butt;stroke-linejoin:miter;stroke-opacity:1;stroke-dasharray:6,4"/>
<path class="bond-7 atom-7 atom-8" d="M 318.0,90.9 L 309.2,93.4" style="fill:none;fill-rule:evenodd;stroke:#FF0000;stroke-width:2.0px;stroke-linecap:butt;stroke-linejoin:miter;stroke-opacity:1"/>
<path class="bond-7 atom-7 atom-8" d="M 309.2,93.4 L 300.5,95.9" style="fill:none;fill-rule:evenodd;stroke:#000000;stroke-width:2.0px;stroke-linecap:butt;stroke-linejoin:miter;stroke-opacity:1"/>
<path class="bond-7 atom-7 atom-8" d="M 318.9,94.0 L 310.1,96.5" style="fill:none;fill-rule:evenodd;stroke:#FF0000;stroke-width:2.0px;stroke-linecap:butt;stroke-linejoin:miter;stroke-opacity:1;stroke-dasharray:6,4"/>
<path class="bond-7 atom-7 atom-8" d="M 310.1,96.5 L 301.4,99.0" style="fill:none;fill-rule:evenodd;stroke:#000000;stroke-width:2.0px;stroke-linecap:butt;stroke-linejoin:miter;stroke-opacity:1;stroke-dasharray:6,4"/>
<path class="bond-8 atom-8 atom-9" d="M 300.5,95.9 L 284.7,80.7" style="fill:none;fill-rule:evenodd;stroke:#000000;stroke-width:2.0px;stroke-linecap:butt;stroke-linejoin:miter;stroke-opacity:1"/>
<path class="bond-8 atom-8 atom-9" d="M 301.4,92.2 L 287.0,78.3" style="fill:none;fill-rule:evenodd;stroke:#000000;stroke-width:2.0px;stroke-linecap:butt;stroke-linejoin:miter;stroke-opacity:1;stroke-dasharray:6,4"/>
<path class="bond-9 atom-9 atom-10" d="M 284.7,80.7 L 263.7,86.7" style="fill:none;fill-rule:evenodd;stroke:#000000;stroke-width:2.0px;stroke-linecap:butt;stroke-linejoin:miter;stroke-opacity:1"/>
<path class="bond-9 atom-9 atom-10" d="M 283.8,84.3 L 266.4,89.3" style="fill:none;fill-rule:evenodd;stroke:#000000;stroke-width:2.0px;stroke-linecap:butt;stroke-linejoin:miter;stroke-opacity:1;stroke-dasharray:6,4"/>
<path class="bond-10 atom-10 atom-11" d="M 263.7,86.7 L 261.5,95.4" style="fill:none;fill-rule:evenodd;stroke:#000000;stroke-width:2.0px;stroke-linecap:butt;stroke-linejoin:miter;stroke-opacity:1"/>
<path class="bond-10 atom-10 atom-11" d="M 261.5,95.4 L 259.4,104.1" style="fill:none;fill-rule:evenodd;stroke:#FF0000;stroke-width:2.0px;stroke-linecap:butt;stroke-linejoin:miter;stroke-opacity:1"/>
<path class="bond-11 atom-10 atom-12" d="M 263.7,86.7 L 247.9,71.5" style="fill:none;fill-rule:evenodd;stroke:#000000;stroke-width:2.0px;stroke-linecap:butt;stroke-linejoin:miter;stroke-opacity:1"/>
<path class="bond-11 atom-10 atom-12" d="M 260.1,87.7 L 247.0,75.2" style="fill:none;fill-rule:evenodd;stroke:#000000;stroke-width:2.0px;stroke-linecap:butt;stroke-linejoin:miter;stroke-opacity:1;stroke-dasharray:6,4"/>
<path class="bond-12 atom-12 atom-13" d="M 247.9,71.5 L 226.9,77.5" style="fill:none;fill-rule:evenodd;stroke:#000000;stroke-width:2.0px;stroke-linecap:butt;stroke-linejoin:miter;stroke-opacity:1"/>
<path class="bond-12 atom-12 atom-13" d="M 247.0,75.2 L 229.6,80.1" style="fill:none;fill-rule:evenodd;stroke:#000000;stroke-width:2.0px;stroke-linecap:butt;stroke-linejoin:miter;stroke-opacity:1;stroke-dasharray:6,4"/>
<path class="bond-13 atom-13 atom-14" d="M 228.7,77.0 L 212.3,61.1" style="fill:none;fill-rule:evenodd;stroke:#000000;stroke-width:2.0px;stroke-linecap:butt;stroke-linejoin:miter;stroke-opacity:1"/>
<path class="bond-13 atom-13 atom-14" d="M 226.4,79.3 L 210.0,63.5" style="fill:none;fill-rule:evenodd;stroke:#000000;stroke-width:2.0px;stroke-linecap:butt;stroke-linejoin:miter;stroke-opacity:1;stroke-dasharray:6,4"/>
<path class="bond-14 atom-13 atom-15" d="M 226.9,77.5 L 224.7,86.2" style="fill:none;fill-rule:evenodd;stroke:#000000;stroke-width:2.0px;stroke-linecap:butt;stroke-linejoin:miter;stroke-opacity:1"/>
<path class="bond-14 atom-13 atom-15" d="M 224.7,86.2 L 222.6,94.9" style="fill:none;fill-rule:evenodd;stroke:#FF0000;stroke-width:2.0px;stroke-linecap:butt;stroke-linejoin:miter;stroke-opacity:1"/>
<path d="M 385.0,70.7 L 384.7,71.7 L 383.6,72.0" style="fill:none;stroke:#000000;stroke-width:2.0px;stroke-linecap:butt;stroke-linejoin:miter;stroke-opacity:1;"/>
<path d="M 364.7,77.5 L 363.7,77.8 L 363.4,78.8" style="fill:none;stroke:#000000;stroke-width:2.0px;stroke-linecap:butt;stroke-linejoin:miter;stroke-opacity:1;"/>
<path d="M 358.6,97.9 L 358.4,99.0 L 357.3,99.3" style="fill:none;stroke:#000000;stroke-width:2.0px;stroke-linecap:butt;stroke-linejoin:miter;stroke-opacity:1;"/>
<path d="M 332.3,125.2 L 332.0,126.3 L 331.0,126.6" style="fill:none;stroke:#000000;stroke-width:2.0px;stroke-linecap:butt;stroke-linejoin:miter;stroke-opacity:1;"/>
<path d="M 300.9,95.7 L 300.5,95.9 L 299.7,95.1" style="fill:none;stroke:#000000;stroke-width:2.0px;stroke-linecap:butt;stroke-linejoin:miter;stroke-opacity:1;"/>
<path d="M 285.5,81.4 L 284.7,80.7 L 283.7,81.0" style="fill:none;stroke:#000000;stroke-width:2.0px;stroke-linecap:butt;stroke-linejoin:miter;stroke-opacity:1;"/>
<path d="M 248.7,72.2 L 247.9,71.5 L 246.9,71.8" style="fill:none;stroke:#000000;stroke-width:2.0px;stroke-linecap:butt;stroke-linejoin:miter;stroke-opacity:1;"/>
<path class="atom-7" d="M 318.7 89.8 Q 318.7 88.4, 319.4 87.5 Q 320.2 86.7, 321.6 86.7 Q 322.9 86.7, 323.7 87.5 Q 324.4 88.4, 324.4 89.8 Q 324.4 91.4, 323.7 92.2 Q 322.9 93.1, 321.6 93.1 Q 320.2 93.1, 319.4 92.2 Q 318.7 91.4, 318.7 89.8 M 321.6 92.4 Q 322.5 92.4, 323.0 91.7 Q 323.5 91.1, 323.5 89.8 Q 323.5 88.6, 323.0 88.0 Q 322.5 87.4, 321.6 87.4 Q 320.6 87.4, 320.1 88.0 Q 319.6 88.6, 319.6 89.8 Q 319.6 91.1, 320.1 91.7 Q 320.6 92.4, 321.6 92.4 " fill="#FF0000"/>
<path class="atom-11" d="M 255.6 108.0 Q 255.6 106.5, 256.3 105.6 Q 257.0 104.8, 258.4 104.8 Q 259.8 104.8, 260.5 105.6 Q 261.2 106.5, 261.2 108.0 Q 261.2 109.5, 260.5 110.3 Q 259.8 111.2, 258.4 111.2 Q 257.0 111.2, 256.3 110.3 Q 255.6 109.5, 255.6 108.0 M 258.4 110.5 Q 259.3 110.5, 259.9 109.8 Q 260.4 109.2, 260.4 108.0 Q 260.4 106.7, 259.9 106.1 Q 259.3 105.5, 258.4 105.5 Q 257.5 105.5, 256.9 106.1 Q 256.4 106.7, 256.4 108.0 Q 256.4 109.2, 256.9 109.8 Q 257.5 110.5, 258.4 110.5 " fill="#FF0000"/>
<path class="atom-11" d="M 262.2 104.9 L 263.1 104.9 L 263.1 107.5 L 266.2 107.5 L 266.2 104.9 L 267.1 104.9 L 267.1 111.1 L 266.2 111.1 L 266.2 108.2 L 263.1 108.2 L 263.1 111.1 L 262.2 111.1 L 262.2 104.9 " fill="#FF0000"/>
<path class="atom-15" d="M 218.7 98.8 Q 218.7 97.3, 219.5 96.5 Q 220.2 95.6, 221.6 95.6 Q 223.0 95.6, 223.7 96.5 Q 224.4 97.3, 224.4 98.8 Q 224.4 100.3, 223.7 101.1 Q 223.0 102.0, 221.6 102.0 Q 220.2 102.0, 219.5 101.1 Q 218.7 100.3, 218.7 98.8 M 221.6 101.3 Q 222.5 101.3, 223.0 100.7 Q 223.6 100.0, 223.6 98.8 Q 223.6 97.6, 223.0 96.9 Q 222.5 96.3, 221.6 96.3 Q 220.6 96.3, 220.1 96.9 Q 219.6 97.5, 219.6 98.8 Q 219.6 100.0, 220.1 100.7 Q 220.6 101.3, 221.6 101.3 " fill="#FF0000"/>
<path class="atom-15" d="M 225.4 95.7 L 226.2 95.7 L 226.2 98.3 L 229.4 98.3 L 229.4 95.7 L 230.3 95.7 L 230.3 101.9 L 229.4 101.9 L 229.4 99.0 L 226.2 99.0 L 226.2 101.9 L 225.4 101.9 L 225.4 95.7 " fill="#FF0000"/>
<path class="legend" d="M 301.7 184.0 Q 302.7 184.4, 303.3 185.0 Q 303.8 185.7, 303.8 186.7 Q 303.8 188.2, 302.8 189.1 Q 301.8 190.0, 300.0 190.0 L 296.2 190.0 L 296.2 178.7 L 299.5 178.7 Q 301.4 178.7, 302.4 179.5 Q 303.4 180.2, 303.4 181.7 Q 303.4 183.4, 301.7 184.0 M 297.7 180.0 L 297.7 183.5 L 299.5 183.5 Q 300.6 183.5, 301.2 183.1 Q 301.8 182.6, 301.8 181.7 Q 301.8 180.0, 299.5 180.0 L 297.7 180.0 M 300.0 188.7 Q 301.1 188.7, 301.7 188.2 Q 302.2 187.7, 302.2 186.7 Q 302.2 185.7, 301.6 185.3 Q 301.0 184.8, 299.7 184.8 L 297.7 184.8 L 297.7 188.7 L 300.0 188.7 " fill="#000000"/>
<path class="bond-0 atom-0 atom-1" d="M 547.5,92.4 L 529.2,104.5" style="fill:none;fill-rule:evenodd;stroke:#000000;stroke-width:2.0px;stroke-linecap:butt;stroke-linejoin:miter;stroke-opacity:1"/>
<path class="bond-1 atom-1 atom-2" d="M 529.2,104.5 L 509.6,94.6" style="fill:none;fill-rule:evenodd;stroke:#000000;stroke-width:2.0px;stroke-linecap:butt;stroke-linejoin:miter;stroke-opacity:1"/>
<path class="bond-1 atom-1 atom-2" d="M 528.9,100.7 L 511.1,91.7" style="fill:none;fill-rule:evenodd;stroke:#000000;stroke-width:2.0px;stroke-linecap:butt;stroke-linejoin:miter;stroke-opacity:1;stroke-dasharray:6,4"/>
<path class="bond-2 atom-2 atom-3" d="M 509.6,94.6 L 491.3,106.6" style="fill:none;fill-rule:evenodd;stroke:#000000;stroke-width:2.0px;stroke-linecap:butt;stroke-linejoin:miter;stroke-opacity:1"/>
<path class="bond-2 atom-2 atom-3" d="M 509.8,98.4 L 493.1,109.4" style="fill:none;fill-rule:evenodd;stroke:#000000;stroke-width:2.0px;stroke-linecap:butt;stroke-linejoin:miter;stroke-opacity:1;stroke-dasharray:6,4"/>
<path class="bond-3 atom-3 atom-4" d="M 491.3,106.6 L 471.7,96.8" style="fill:none;fill-rule:evenodd;stroke:#000000;stroke-width:2.0px;stroke-linecap:butt;stroke-linejoin:miter;stroke-opacity:1"/>
<path class="bond-3 atom-3 atom-4" d="M 491.1,102.9 L 474.9,94.7" style="fill:none;fill-rule:evenodd;stroke:#000000;stroke-width:2.0px;stroke-linecap:butt;stroke-linejoin:miter;stroke-opacity:1;stroke-dasharray:6,4"/>
<path class="bond-4 atom-4 atom-5" d="M 471.6,94.9 L 452.5,107.5" style="fill:none;fill-rule:evenodd;stroke:#000000;stroke-width:2.0px;stroke-linecap:butt;stroke-linejoin:miter;stroke-opacity:1"/>
<path class="bond-4 atom-4 atom-5" d="M 473.4,97.7 L 454.3,110.2" style="fill:none;fill-rule:evenodd;stroke:#000000;stroke-width:2.0px;stroke-linecap:butt;stroke-linejoin:miter;stroke-opacity:1;stroke-dasharray:6,4"/>
<path class="bond-5 atom-4 atom-6" d="M 471.7,96.8 L 471.2,87.8" style="fill:none;fill-rule:evenodd;stroke:#000000;stroke-width:2.0px;stroke-linecap:butt;stroke-linejoin:miter;stroke-opacity:1"/>
<path class="bond-5 atom-4 atom-6" d="M 471.2,87.8 L 470.7,78.9" style="fill:none;fill-rule:evenodd;stroke:#FF0000;stroke-width:2.0px;stroke-linecap:butt;stroke-linejoin:miter;stroke-opacity:1"/>
<path d="M 530.1,103.9 L 529.2,104.5 L 528.2,104.0" style="fill:none;stroke:#000000;stroke-width:2.0px;stroke-linecap:butt;stroke-linejoin:miter;stroke-opacity:1;"/>
<path d="M 510.6,95.1 L 509.6,94.6 L 508.7,95.2" style="fill:none;stroke:#000000;stroke-width:2.0px;stroke-linecap:butt;stroke-linejoin:miter;stroke-opacity:1;"/>
<path d="M 492.2,106.0 L 491.3,106.6 L 490.3,106.2" style="fill:none;stroke:#000000;stroke-width:2.0px;stroke-linecap:butt;stroke-linejoin:miter;stroke-opacity:1;"/>
<path class="atom-6" d="M 467.6 75.0 Q 467.6 73.5, 468.4 72.6 Q 469.1 71.8, 470.5 71.8 Q 471.9 71.8, 472.6 72.6 Q 473.3 73.5, 473.3 75.0 Q 473.3 76.5, 472.6 77.3 Q 471.8 78.2, 470.5 78.2 Q 469.1 78.2, 468.4 77.3 Q 467.6 76.5, 467.6 75.0 M 470.5 77.5 Q 471.4 77.5, 471.9 76.8 Q 472.4 76.2, 472.4 75.0 Q 472.4 73.7, 471.9 73.1 Q 471.4 72.5, 470.5 72.5 Q 469.5 72.5, 469.0 73.1 Q 468.5 73.7, 468.5 75.0 Q 468.5 76.2, 469.0 76.8 Q 469.5 77.5, 470.5 77.5 " fill="#FF0000"/>
<path class="atom-6" d="M 474.3 71.9 L 475.1 71.9 L 475.1 74.5 L 478.3 74.5 L 478.3 71.9 L 479.1 71.9 L 479.1 78.1 L 478.3 78.1 L 478.3 75.2 L 475.1 75.2 L 475.1 78.1 L 474.3 78.1 L 474.3 71.9 " fill="#FF0000"/>
<path class="legend" d="M 495.6 184.2 Q 495.6 181.4, 496.9 179.9 Q 498.3 178.4, 500.8 178.4 Q 503.1 178.4, 504.4 180.0 L 503.3 180.9 Q 502.4 179.7, 500.8 179.7 Q 499.1 179.7, 498.2 180.9 Q 497.3 182.0, 497.3 184.2 Q 497.3 186.4, 498.2 187.6 Q 499.1 188.7, 501.0 188.7 Q 502.2 188.7, 503.7 188.0 L 504.1 189.2 Q 503.5 189.6, 502.6 189.8 Q 501.7 190.0, 500.7 190.0 Q 498.3 190.0, 496.9 188.5 Q 495.6 187.0, 495.6 184.2 " fill="#000000"/>
<path class="bond-0 atom-0 atom-1" d="M 662.1,96.5 L 681.0,85.5" style="fill:none;fill-rule:evenodd;stroke:#000000;stroke-width:2.0px;stroke-linecap:butt;stroke-linejoin:miter;stroke-opacity:1"/>
<path class="bond-1 atom-1 atom-2" d="M 681.0,85.5 L 700.0,96.5" style="fill:none;fill-rule:evenodd;stroke:#000000;stroke-width:2.0px;stroke-linecap:butt;stroke-linejoin:miter;stroke-opacity:1"/>
<path class="bond-2 atom-2 atom-3" d="M 700.0,96.5 L 719.0,85.5" style="fill:none;fill-rule:evenodd;stroke:#000000;stroke-width:2.0px;stroke-linecap:butt;stroke-linejoin:miter;stroke-opacity:1"/>
<path class="bond-3 atom-3 atom-4" d="M 719.0,85.5 L 737.9,96.5" style="fill:none;fill-rule:evenodd;stroke:#000000;stroke-width:2.0px;stroke-linecap:butt;stroke-linejoin:miter;stroke-opacity:1"/>
<path d="M 680.1,86.1 L 681.0,85.5 L 682.0,86.1" style="fill:none;stroke:#000000;stroke-width:2.0px;stroke-linecap:butt;stroke-linejoin:miter;stroke-opacity:1;"/>
<path d="M 699.1,95.9 L 700.0,96.5 L 700.9,95.9" style="fill:none;stroke:#000000;stroke-width:2.0px;stroke-linecap:butt;stroke-linejoin:miter;stroke-opacity:1;"/>
<path d="M 718.0,86.1 L 719.0,85.5 L 719.9,86.1" style="fill:none;stroke:#000000;stroke-width:2.0px;stroke-linecap:butt;stroke-linejoin:miter;stroke-opacity:1;"/>
<path class="legend" d="M 699.2 178.7 Q 701.7 178.7, 703.1 180.2 Q 704.4 181.6, 704.4 184.3 Q 704.4 187.0, 703.1 188.5 Q 701.7 190.0, 699.2 190.0 L 695.6 190.0 L 695.6 178.7 L 699.2 178.7 M 699.2 188.7 Q 701.0 188.7, 701.9 187.6 Q 702.8 186.5, 702.8 184.3 Q 702.8 182.1, 701.9 181.0 Q 701.0 180.0, 699.2 180.0 L 697.1 180.0 L 697.1 188.7 L 699.2 188.7 " fill="#000000"/>
</svg>