<svg xmlns="http://www.w3.org/2000/svg" xmlns:rdkit="http://www.rdkit.org/xml" xmlns:xlink="http://www.w3.org/1999/xlink" version="1.1" baseProfile="full" xml:space="preserve" width="800px" height="200px" viewBox="0 0 800 200">
<!-- END OF HEADER -->
<rect style="opacity:1.0;fill:#FFFFFF;stroke:none" width="800.0" height="200.0" x="0.0" y="0.0"> </rect>
<path class="bond-0 atom-0 atom-1" d="M 164.6,147.3 L 162.5,132.7" style="fill:none;fill-rule:evenodd;stroke:#000000;stroke-width:2.0px;stroke-linecap:butt;stroke-linejoin:miter;stroke-opacity:1"/>
<path class="bond-0 atom-0 atom-1" d="M 162.5,132.7 L 160.4,118.0" style="fill:none;fill-rule:evenodd;stroke:#FF0000;stroke-width:2.0px;stroke-linecap:butt;stroke-linejoin:miter;stroke-opacity:1"/>
<path class="bond-1 atom-1 atom-2" d="M 153.5,109.1 L 139.7,103.6" style="fill:none;fill-rule:evenodd;stroke:#FF0000;stroke-width:2.0px;stroke-linecap:butt;stroke-linejoin:miter;stroke-opacity:1"/>
<path class="bond-1 atom-1 atom-2" d="M 139.7,103.6 L 125.8,98.1" style="fill:none;fill-rule:evenodd;stroke:#000000;stroke-width:2.0px;stroke-linecap:butt;stroke-linejoin:miter;stroke-opacity:1"/>
<path class="bond-2 atom-2 atom-3" d="M 125.8,98.1 L 97.4,120.4" style="fill:none;fill-rule:evenodd;stroke:#000000;stroke-width:2.0px;stroke-linecap:butt;stroke-linejoin:miter;stroke-opacity:1"/>
<path class="bond-2 atom-2 atom-3" d="M 120.0,95.7 L 96.5,114.2" style="fill:none;fill-rule:evenodd;stroke:#000000;stroke-width:2.0px;stroke-linecap:butt;stroke-linejoin:miter;stroke-opacity:1"/>
<path class="bond-3 atom-3 atom-4" d="M 97.4,120.4 L 63.8,107.0" style="fill:none;fill-rule:evenodd;stroke:#000000;stroke-width:2.0px;stroke-linecap:butt;stroke-linejoin:miter;stroke-opacity:1"/>
<path class="bond-4 atom-4 atom-5" d="M 63.8,107.0 L 35.4,129.4" style="fill:none;fill-rule:evenodd;stroke:#000000;stroke-width:2.0px;stroke-linecap:butt;stroke-linejoin:miter;stroke-opacity:1"/>
<path class="bond-5 atom-4 atom-6" d="M 63.8,107.0 L 58.7,71.2" style="fill:none;fill-rule:evenodd;stroke:#000000;stroke-width:2.0px;stroke-linecap:butt;stroke-linejoin:miter;stroke-opacity:1"/>
<path class="bond-5 atom-4 atom-6" d="M 68.7,103.1 L 64.5,73.5" style="fill:none;fill-rule:evenodd;stroke:#000000;stroke-width:2.0px;stroke-linecap:butt;stroke-linejoin:miter;stroke-opacity:1"/>
<path class="bond-6 atom-6 atom-7" d="M 58.7,71.2 L 87.1,48.8" style="fill:none;fill-rule:evenodd;stroke:#000000;stroke-width:2.0px;stroke-linecap:butt;stroke-linejoin:miter;stroke-opacity:1"/>
<path class="bond-7 atom-7 atom-8" d="M 87.1,48.8 L 120.7,62.3" style="fill:none;fill-rule:evenodd;stroke:#000000;stroke-width:2.0px;stroke-linecap:butt;stroke-linejoin:miter;stroke-opacity:1"/>
<path class="bond-7 atom-7 atom-8" d="M 88.0,55.0 L 115.7,66.1" style="fill:none;fill-rule:evenodd;stroke:#000000;stroke-width:2.0px;stroke-linecap:butt;stroke-linejoin:miter;stroke-opacity:1"/>
<path class="bond-8 atom-8 atom-9" d="M 120.7,62.3 L 131.9,53.4" style="fill:none;fill-rule:evenodd;stroke:#000000;stroke-width:2.0px;stroke-linecap:butt;stroke-linejoin:miter;stroke-opacity:1"/>
<path class="bond-8 atom-8 atom-9" d="M 131.9,53.4 L 143.2,44.5" style="fill:none;fill-rule:evenodd;stroke:#FF0000;stroke-width:2.0px;stroke-linecap:butt;stroke-linejoin:miter;stroke-opacity:1"/>
<path class="bond-9 atom-8 atom-2" d="M 120.7,62.3 L 125.8,98.1" style="fill:none;fill-rule:evenodd;stroke:#000000;stroke-width:2.0px;stroke-linecap:butt;stroke-linejoin:miter;stroke-opacity:1"/>
<path d="M 98.8,119.3 L 97.4,120.4 L 95.7,119.8" style="fill:none;stroke:#000000;stroke-width:2.0px;stroke-linecap:butt;stroke-linejoin:miter;stroke-opacity:1;"/>
<path d="M 58.9,73.0 L 58.7,71.2 L 60.1,70.1" style="fill:none;stroke:#000000;stroke-width:2.0px;stroke-linecap:butt;stroke-linejoin:miter;stroke-opacity:1;"/>
<path d="M 85.7,50.0 L 87.1,48.8 L 88.8,49.5" style="fill:none;stroke:#000000;stroke-width:2.0px;stroke-linecap:butt;stroke-linejoin:miter;stroke-opacity:1;"/>
<path class="atom-1" d="M 154.7 111.5 Q 154.7 109.1, 155.9 107.7 Q 157.2 106.3, 159.4 106.3 Q 161.7 106.3, 162.9 107.7 Q 164.1 109.1, 164.1 111.5 Q 164.1 114.0, 162.9 115.4 Q 161.7 116.8, 159.4 116.8 Q 157.2 116.8, 155.9 115.4 Q 154.7 114.0, 154.7 111.5 M 159.4 115.7 Q 161.0 115.7, 161.8 114.6 Q 162.7 113.6, 162.7 111.5 Q 162.7 109.5, 161.8 108.5 Q 161.0 107.5, 159.4 107.5 Q 157.9 107.5, 157.0 108.5 Q 156.2 109.5, 156.2 111.5 Q 156.2 113.6, 157.0 114.6 Q 157.9 115.7, 159.4 115.7 " fill="#FF0000"/>
<path class="atom-9" d="M 144.4 39.9 Q 144.4 37.4, 145.6 36.1 Q 146.8 34.7, 149.1 34.7 Q 151.4 34.7, 152.6 36.1 Q 153.8 37.4, 153.8 39.9 Q 153.8 42.4, 152.6 43.8 Q 151.3 45.2, 149.1 45.2 Q 146.8 45.2, 145.6 43.8 Q 144.4 42.4, 144.4 39.9 M 149.1 44.1 Q 150.7 44.1, 151.5 43.0 Q 152.4 42.0, 152.4 39.9 Q 152.4 37.9, 151.5 36.9 Q 150.7 35.9, 149.1 35.9 Q 147.5 35.9, 146.7 36.9 Q 145.8 37.9, 145.8 39.9 Q 145.8 42.0, 146.7 43.0 Q 147.5 44.1, 149.1 44.1 " fill="#FF0000"/>
<path class="atom-9" d="M 155.4 34.8 L 156.8 34.8 L 156.8 39.2 L 162.0 39.2 L 162.0 34.8 L 163.4 34.8 L 163.4 45.1 L 162.0 45.1 L 162.0 40.3 L 156.8 40.3 L 156.8 45.1 L 155.4 45.1 L 155.4 34.8 " fill="#FF0000"/>
<path class="legend" d="M 103.4 190.0 L 102.2 186.7 L 97.8 186.7 L 96.6 190.0 L 95.1 190.0 L 99.0 178.7 L 100.9 178.7 L 104.9 190.0 L 103.4 190.0 M 98.2 185.4 L 101.8 185.4 L 100.0 180.3 L 98.2 185.4 " fill="#000000"/>
<path class="bond-0 atom-0 atom-1" d="M 210.0,72.5 L 234.6,99.0" style="fill:none;fill-rule:evenodd;stroke:#000000;stroke-width:2.0px;stroke-linecap:butt;stroke-linejoin:miter;stroke-opacity:1"/>
<path class="bond-1 atom-1 atom-2" d="M 232.5,96.7 L 227.9,111.6" style="fill:none;fill-rule:evenodd;stroke:#000000;stroke-width:2.0px;stroke-linecap:butt;stroke-linejoin:miter;stroke-opacity:1"/>
<path class="bond-1 atom-1 atom-2" d="M 227.9,111.6 L 223.4,126.4" style="fill:none;fill-rule:evenodd;stroke:#FF0000;stroke-width:2.0px;stroke-linecap:butt;stroke-linejoin:miter;stroke-opacity:1"/>
<path class="bond-1 atom-1 atom-2" d="M 237.7,98.3 L 233.1,113.2" style="fill:none;fill-rule:evenodd;stroke:#000000;stroke-width:2.0px;stroke-linecap:butt;stroke-linejoin:miter;stroke-opacity:1"/>
<path class="bond-1 atom-1 atom-2" d="M 233.1,113.2 L 228.6,128.0" style="fill:none;fill-rule:evenodd;stroke:#FF0000;stroke-width:2.0px;stroke-linecap:butt;stroke-linejoin:miter;stroke-opacity:1"/>
<path class="bond-2 atom-1 atom-3" d="M 234.6,99.0 L 269.9,90.9" style="fill:none;fill-rule:evenodd;stroke:#000000;stroke-width:2.0px;stroke-linecap:butt;stroke-linejoin:miter;stroke-opacity:1"/>
<path class="bond-3 atom-3 atom-4" d="M 269.9,90.9 L 280.5,56.3" style="fill:none;fill-rule:evenodd;stroke:#000000;stroke-width:2.0px;stroke-linecap:butt;stroke-linejoin:miter;stroke-opacity:1"/>
<path class="bond-3 atom-3 atom-4" d="M 276.0,89.5 L 284.8,60.9" style="fill:none;fill-rule:evenodd;stroke:#000000;stroke-width:2.0px;stroke-linecap:butt;stroke-linejoin:miter;stroke-opacity:1"/>
<path class="bond-4 atom-4 atom-5" d="M 280.5,56.3 L 271.2,46.3" style="fill:none;fill-rule:evenodd;stroke:#000000;stroke-width:2.0px;stroke-linecap:butt;stroke-linejoin:miter;stroke-opacity:1"/>
<path class="bond-4 atom-4 atom-5" d="M 271.2,46.3 L 261.8,36.2" style="fill:none;fill-rule:evenodd;stroke:#FF0000;stroke-width:2.0px;stroke-linecap:butt;stroke-linejoin:miter;stroke-opacity:1"/>
<path class="bond-5 atom-4 atom-6" d="M 280.5,56.3 L 315.8,48.3" style="fill:none;fill-rule:evenodd;stroke:#000000;stroke-width:2.0px;stroke-linecap:butt;stroke-linejoin:miter;stroke-opacity:1"/>
<path class="bond-6 atom-6 atom-7" d="M 315.8,48.3 L 340.4,74.8" style="fill:none;fill-rule:evenodd;stroke:#000000;stroke-width:2.0px;stroke-linecap:butt;stroke-linejoin:miter;stroke-opacity:1"/>
<path class="bond-6 atom-6 atom-7" d="M 313.9,54.2 L 334.3,76.2" style="fill:none;fill-rule:evenodd;stroke:#000000;stroke-width:2.0px;stroke-linecap:butt;stroke-linejoin:miter;stroke-opacity:1"/>
<path class="bond-7 atom-7 atom-8" d="M 340.4,74.8 L 355.1,71.4" style="fill:none;fill-rule:evenodd;stroke:#000000;stroke-width:2.0px;stroke-linecap:butt;stroke-linejoin:miter;stroke-opacity:1"/>
<path class="bond-7 atom-7 atom-8" d="M 355.1,71.4 L 369.8,68.0" style="fill:none;fill-rule:evenodd;stroke:#FF0000;stroke-width:2.0px;stroke-linecap:butt;stroke-linejoin:miter;stroke-opacity:1"/>
<path class="bond-8 atom-7 atom-9" d="M 340.4,74.8 L 329.8,109.3" style="fill:none;fill-rule:evenodd;stroke:#000000;stroke-width:2.0px;stroke-linecap:butt;stroke-linejoin:miter;stroke-opacity:1"/>
<path class="bond-9 atom-9 atom-10" d="M 329.8,109.3 L 354.4,135.8" style="fill:none;fill-rule:evenodd;stroke:#000000;stroke-width:2.0px;stroke-linecap:butt;stroke-linejoin:miter;stroke-opacity:1"/>
<path class="bond-10 atom-9 atom-11" d="M 329.8,109.3 L 294.5,117.4" style="fill:none;fill-rule:evenodd;stroke:#000000;stroke-width:2.0px;stroke-linecap:butt;stroke-linejoin:miter;stroke-opacity:1"/>
<path class="bond-10 atom-9 atom-11" d="M 325.5,104.7 L 296.4,111.4" style="fill:none;fill-rule:evenodd;stroke:#000000;stroke-width:2.0px;stroke-linecap:butt;stroke-linejoin:miter;stroke-opacity:1"/>
<path class="bond-11 atom-11 atom-12" d="M 294.5,117.4 L 290.2,131.5" style="fill:none;fill-rule:evenodd;stroke:#000000;stroke-width:2.0px;stroke-linecap:butt;stroke-linejoin:miter;stroke-opacity:1"/>
<path class="bond-11 atom-11 atom-12" d="M 290.2,131.5 L 285.9,145.6" style="fill:none;fill-rule:evenodd;stroke:#FF0000;stroke-width:2.0px;stroke-linecap:butt;stroke-linejoin:miter;stroke-opacity:1"/>
<path class="bond-12 atom-11 atom-3" d="M 294.5,117.4 L 269.9,90.9" style="fill:none;fill-rule:evenodd;stroke:#000000;stroke-width:2.0px;stroke-linecap:butt;stroke-linejoin:miter;stroke-opacity:1"/>
<path d="M 233.4,97.7 L 234.6,99.0 L 236.4,98.6" style="fill:none;stroke:#000000;stroke-width:2.0px;stroke-linecap:butt;stroke-linejoin:miter;stroke-opacity:1;"/>
<path d="M 314.0,48.7 L 315.8,48.3 L 317.0,49.6" style="fill:none;stroke:#000000;stroke-width:2.0px;stroke-linecap:butt;stroke-linejoin:miter;stroke-opacity:1;"/>
<path class="atom-2" d="M 219.3 133.6 Q 219.3 131.2, 220.5 129.8 Q 221.7 128.4, 224.0 128.4 Q 226.3 128.4, 227.5 129.8 Q 228.7 131.2, 228.7 133.6 Q 228.7 136.1, 227.5 137.5 Q 226.2 138.9, 224.0 138.9 Q 221.7 138.9, 220.5 137.5 Q 219.3 136.1, 219.3 133.6 M 224.0 137.8 Q 225.6 137.8, 226.4 136.7 Q 227.3 135.7, 227.3 133.6 Q 227.3 131.6, 226.4 130.6 Q 225.6 129.6, 224.0 129.6 Q 222.4 129.6, 221.6 130.6 Q 220.7 131.6, 220.7 133.6 Q 220.7 135.7, 221.6 136.7 Q 222.4 137.8, 224.0 137.8 " fill="#FF0000"/>
<path class="atom-5" d="M 241.1 24.8 L 242.5 24.8 L 242.5 29.1 L 247.7 29.1 L 247.7 24.8 L 249.1 24.8 L 249.1 35.0 L 247.7 35.0 L 247.7 30.3 L 242.5 30.3 L 242.5 35.0 L 241.1 35.0 L 241.1 24.8 " fill="#FF0000"/>
<path class="atom-5" d="M 251.2 29.9 Q 251.2 27.4, 252.4 26.0 Q 253.6 24.7, 255.9 24.7 Q 258.2 24.7, 259.4 26.0 Q 260.6 27.4, 260.6 29.9 Q 260.6 32.4, 259.4 33.8 Q 258.1 35.2, 255.9 35.2 Q 253.6 35.2, 252.4 33.8 Q 251.2 32.4, 251.2 29.9 M 255.9 34.0 Q 257.5 34.0, 258.3 33.0 Q 259.1 31.9, 259.1 29.9 Q 259.1 27.9, 258.3 26.8 Q 257.5 25.8, 255.9 25.8 Q 254.3 25.8, 253.5 26.8 Q 252.6 27.8, 252.6 29.9 Q 252.6 31.9, 253.5 33.0 Q 254.3 34.0, 255.9 34.0 " fill="#FF0000"/>
<path class="atom-8" d="M 371.0 66.7 Q 371.0 64.2, 372.2 62.9 Q 373.4 61.5, 375.7 61.5 Q 378.0 61.5, 379.2 62.9 Q 380.4 64.2, 380.4 66.7 Q 380.4 69.2, 379.2 70.6 Q 377.9 72.0, 375.7 72.0 Q 373.4 72.0, 372.2 70.6 Q 371.0 69.2, 371.0 66.7 M 375.7 70.8 Q 377.2 70.8, 378.1 69.8 Q 378.9 68.8, 378.9 66.7 Q 378.9 64.7, 378.1 63.7 Q 377.2 62.6, 375.7 62.6 Q 374.1 62.6, 373.3 63.7 Q 372.4 64.7, 372.4 66.7 Q 372.4 68.8, 373.3 69.8 Q 374.1 70.8, 375.7 70.8 " fill="#FF0000"/>
<path class="atom-8" d="M 382.0 61.6 L 383.4 61.6 L 383.4 66.0 L 388.6 66.0 L 388.6 61.6 L 390.0 61.6 L 390.0 71.8 L 388.6 71.8 L 388.6 67.1 L 383.4 67.1 L 383.4 71.8 L 382.0 71.8 L 382.0 61.6 " fill="#FF0000"/>
<path class="atom-12" d="M 279.2 152.0 Q 279.2 149.6, 280.4 148.2 Q 281.6 146.8, 283.9 146.8 Q 286.2 146.8, 287.4 148.2 Q 288.6 149.6, 288.6 152.0 Q 288.6 154.5, 287.4 155.9 Q 286.1 157.3, 283.9 157.3 Q 281.6 157.3, 280.4 155.9 Q 279.2 154.5, 279.2 152.0 M 283.9 156.2 Q 285.5 156.2, 286.3 155.1 Q 287.2 154.1, 287.2 152.0 Q 287.2 150.0, 286.3 149.0 Q 285.5 148.0, 283.9 148.0 Q 282.3 148.0, 281.5 149.0 Q 280.6 150.0, 280.6 152.0 Q 280.6 154.1, 281.5 155.1 Q 282.3 156.2, 283.9 156.2 " fill="#FF0000"/>
<path class="atom-12" d="M 290.2 146.9 L 291.6 146.9 L 291.6 151.3 L 296.8 151.3 L 296.8 146.9 L 298.2 146.9 L 298.2 157.2 L 296.8 157.2 L 296.8 152.4 L 291.6 152.4 L 291.6 157.2 L 290.2 157.2 L 290.2 146.9 " fill="#FF0000"/>
<path class="legend" d="M 295.6 184.2 Q 295.6 181.4, 296.9 179.9 Q 298.3 178.4, 300.8 178.4 Q 303.1 178.4, 304.4 180.0 L 303.3 180.9 Q 302.4 179.7, 300.8 179.7 Q 299.1 179.7, 298.2 180.9 Q 297.3 182.0, 297.3 184.2 Q 297.3 186.4, 298.2 187.6 Q 299.1 188.7, 301.0 188.7 Q 302.2 188.7, 303.7 188.0 L 304.1 189.2 Q 303.5 189.6, 302.6 189.8 Q 301.7 190.0, 300.7 190.0 Q 298.3 190.0, 296.9 188.5 Q 295.6 187.0, 295.6 184.2 " fill="#000000"/>
<path class="bond-0 atom-0 atom-1" d="M 437.3,100.0 L 468.7,82.0" style="fill:none;fill-rule:evenodd;stroke:#000000;stroke-width:2.0px;stroke-linecap:butt;stroke-linejoin:miter;stroke-opacity:1"/>
<path class="bond-1 atom-1 atom-2" d="M 468.7,82.0 L 500.0,100.0" style="fill:none;fill-rule:evenodd;stroke:#000000;stroke-width:2.0px;stroke-linecap:butt;stroke-linejoin:miter;stroke-opacity:1"/>
<path class="bond-2 atom-2 atom-3" d="M 500.0,100.0 L 531.3,82.0" style="fill:none;fill-rule:evenodd;stroke:#000000;stroke-width:2.0px;stroke-linecap:butt;stroke-linejoin:miter;stroke-opacity:1"/>
<path class="bond-3 atom-3 atom-4" d="M 531.3,82.0 L 562.7,100.0" style="fill:none;fill-rule:evenodd;stroke:#000000;stroke-width:2.0px;stroke-linecap:butt;stroke-linejoin:miter;stroke-opacity:1"/>
<path d="M 467.1,82.9 L 468.7,82.0 L 470.2,82.9" style="fill:none;stroke:#000000;stroke-width:2.0px;stroke-linecap:butt;stroke-linejoin:miter;stroke-opacity:1;"/>
<path d="M 498.4,99.1 L 500.0,100.0 L 501.6,99.1" style="fill:none;stroke:#000000;stroke-width:2.0px;stroke-linecap:butt;stroke-linejoin:miter;stroke-opacity:1;"/>
<path d="M 529.8,82.9 L 531.3,82.0 L 532.9,82.9" style="fill:none;stroke:#000000;stroke-width:2.0px;stroke-linecap:butt;stroke-linejoin:miter;stroke-opacity:1;"/>
<path class="legend" d="M 499.2 178.7 Q 501.7 178.7, 503.1 180.2 Q 504.4 181.6, 504.4 184.3 Q 504.4 187.0, 503.1 188.5 Q 501.7 190.0, 499.2 190.0 L 495.6 190.0 L 495.6 178.7 L 499.2 178.7 M 499.2 188.7 Q 501.0 188.7, 501.9 187.6 Q 502.8 186.5, 502.8 184.3 Q 502.8 182.1, 501.9 181.0 Q 501.0 180.0, 499.2 180.0 L 497.1 180.0 L 497.1 188.7 L 499.2 188.7 " fill="#000000"/>
</svg>