<svg xmlns="http://www.w3.org/2000/svg" xmlns:rdkit="http://www.rdkit.org/xml" xmlns:xlink="http://www.w3.org/1999/xlink" version="1.1" baseProfile="full" xml:space="preserve" width="800px" height="400px" viewBox="0 0 800 400">
<!-- END OF HEADER -->
<rect style="opacity:1.0;fill:#FFFFFF;stroke:none" width="800.0" height="400.0" x="0.0" y="0.0"> </rect>
<path class="bond-0 atom-0 atom-1" d="M 47.3,81.4 L 58.6,92.5" style="fill:none;fill-rule:evenodd;stroke:#000000;stroke-width:2.0px;stroke-linecap:butt;stroke-linejoin:miter;stroke-opacity:1"/>
<path class="bond-1 atom-1 atom-2" d="M 58.6,92.5 L 73.9,88.3" style="fill:none;fill-rule:evenodd;stroke:#000000;stroke-width:2.0px;stroke-linecap:butt;stroke-linejoin:miter;stroke-opacity:1"/>
<path class="bond-2 atom-2 atom-3" d="M 73.9,88.3 L 85.2,99.4" style="fill:none;fill-rule:evenodd;stroke:#000000;stroke-width:2.0px;stroke-linecap:butt;stroke-linejoin:miter;stroke-opacity:1"/>
<path class="bond-3 atom-3 atom-4" d="M 85.2,99.4 L 100.5,95.2" style="fill:none;fill-rule:evenodd;stroke:#000000;stroke-width:2.0px;stroke-linecap:butt;stroke-linejoin:miter;stroke-opacity:1"/>
<path class="bond-4 atom-4 atom-5" d="M 100.5,95.2 L 104.5,79.9" style="fill:none;fill-rule:evenodd;stroke:#000000;stroke-width:2.0px;stroke-linecap:butt;stroke-linejoin:miter;stroke-opacity:1"/>
<path class="bond-4 atom-4 atom-5" d="M 103.2,94.5 L 106.5,81.8" style="fill:none;fill-rule:evenodd;stroke:#000000;stroke-width:2.0px;stroke-linecap:butt;stroke-linejoin:miter;stroke-opacity:1"/>
<path class="bond-5 atom-5 atom-6" d="M 104.5,79.9 L 119.8,75.7" style="fill:none;fill-rule:evenodd;stroke:#000000;stroke-width:2.0px;stroke-linecap:butt;stroke-linejoin:miter;stroke-opacity:1"/>
<path class="bond-6 atom-6 atom-7" d="M 119.8,75.7 L 131.1,86.8" style="fill:none;fill-rule:evenodd;stroke:#000000;stroke-width:2.0px;stroke-linecap:butt;stroke-linejoin:miter;stroke-opacity:1"/>
<path class="bond-6 atom-6 atom-7" d="M 119.1,78.3 L 128.4,87.5" style="fill:none;fill-rule:evenodd;stroke:#000000;stroke-width:2.0px;stroke-linecap:butt;stroke-linejoin:miter;stroke-opacity:1"/>
<path class="bond-7 atom-7 atom-8" d="M 131.1,86.8 L 137.4,85.0" style="fill:none;fill-rule:evenodd;stroke:#000000;stroke-width:2.0px;stroke-linecap:butt;stroke-linejoin:miter;stroke-opacity:1"/>
<path class="bond-7 atom-7 atom-8" d="M 137.4,85.0 L 143.8,83.3" style="fill:none;fill-rule:evenodd;stroke:#FF0000;stroke-width:2.0px;stroke-linecap:butt;stroke-linejoin:miter;stroke-opacity:1"/>
<path class="bond-8 atom-7 atom-9" d="M 131.1,86.8 L 127.1,102.1" style="fill:none;fill-rule:evenodd;stroke:#000000;stroke-width:2.0px;stroke-linecap:butt;stroke-linejoin:miter;stroke-opacity:1"/>
<path class="bond-9 atom-9 atom-10" d="M 127.1,102.1 L 111.8,106.3" style="fill:none;fill-rule:evenodd;stroke:#000000;stroke-width:2.0px;stroke-linecap:butt;stroke-linejoin:miter;stroke-opacity:1"/>
<path class="bond-9 atom-9 atom-10" d="M 125.1,100.2 L 112.5,103.7" style="fill:none;fill-rule:evenodd;stroke:#000000;stroke-width:2.0px;stroke-linecap:butt;stroke-linejoin:miter;stroke-opacity:1"/>
<path class="bond-10 atom-10 atom-4" d="M 111.8,106.3 L 100.5,95.2" style="fill:none;fill-rule:evenodd;stroke:#000000;stroke-width:2.0px;stroke-linecap:butt;stroke-linejoin:miter;stroke-opacity:1"/>
<path d="M 58.1,92.0 L 58.6,92.5 L 59.4,92.3" style="fill:none;stroke:#000000;stroke-width:2.0px;stroke-linecap:butt;stroke-linejoin:miter;stroke-opacity:1;"/>
<path d="M 73.2,88.5 L 73.9,88.3 L 74.5,88.9" style="fill:none;stroke:#000000;stroke-width:2.0px;stroke-linecap:butt;stroke-linejoin:miter;stroke-opacity:1;"/>
<path d="M 84.7,98.9 L 85.2,99.4 L 86.0,99.2" style="fill:none;stroke:#000000;stroke-width:2.0px;stroke-linecap:butt;stroke-linejoin:miter;stroke-opacity:1;"/>
<path d="M 104.3,80.6 L 104.5,79.9 L 105.3,79.7" style="fill:none;stroke:#000000;stroke-width:2.0px;stroke-linecap:butt;stroke-linejoin:miter;stroke-opacity:1;"/>
<path d="M 119.0,75.9 L 119.8,75.7 L 120.4,76.2" style="fill:none;stroke:#000000;stroke-width:2.0px;stroke-linecap:butt;stroke-linejoin:miter;stroke-opacity:1;"/>
<path d="M 127.3,101.4 L 127.1,102.1 L 126.3,102.3" style="fill:none;stroke:#000000;stroke-width:2.0px;stroke-linecap:butt;stroke-linejoin:miter;stroke-opacity:1;"/>
<path d="M 112.6,106.1 L 111.8,106.3 L 111.3,105.8" style="fill:none;stroke:#000000;stroke-width:2.0px;stroke-linecap:butt;stroke-linejoin:miter;stroke-opacity:1;"/>
<path class="atom-8" d="M 144.3 82.6 Q 144.3 81.5, 144.8 80.9 Q 145.4 80.3, 146.4 80.3 Q 147.4 80.3, 147.9 80.9 Q 148.4 81.5, 148.4 82.6 Q 148.4 83.7, 147.9 84.3 Q 147.4 84.9, 146.4 84.9 Q 145.4 84.9, 144.8 84.3 Q 144.3 83.7, 144.3 82.6 M 146.4 84.4 Q 147.1 84.4, 147.4 83.9 Q 147.8 83.5, 147.8 82.6 Q 147.8 81.7, 147.4 81.2 Q 147.1 80.8, 146.4 80.8 Q 145.7 80.8, 145.3 81.2 Q 145.0 81.7, 145.0 82.6 Q 145.0 83.5, 145.3 83.9 Q 145.7 84.4, 146.4 84.4 " fill="#FF0000"/>
<path class="atom-8" d="M 149.1 80.3 L 149.7 80.3 L 149.7 82.2 L 152.0 82.2 L 152.0 80.3 L 152.7 80.3 L 152.7 84.8 L 152.0 84.8 L 152.0 82.7 L 149.7 82.7 L 149.7 84.8 L 149.1 84.8 L 149.1 80.3 " fill="#FF0000"/>
<path class="legend" d="M 103.4 190.0 L 102.2 186.7 L 97.8 186.7 L 96.6 190.0 L 95.1 190.0 L 99.0 178.7 L 100.9 178.7 L 104.9 190.0 L 103.4 190.0 M 98.2 185.4 L 101.8 185.4 L 100.0 180.3 L 98.2 185.4 " fill="#000000"/>
<path class="bond-0 atom-0 atom-1" d="M 326.8,121.0 L 324.2,114.8" style="fill:none;fill-rule:evenodd;stroke:#FF0000;stroke-width:2.0px;stroke-linecap:butt;stroke-linejoin:miter;stroke-opacity:1"/>
<path class="bond-0 atom-0 atom-1" d="M 324.2,114.8 L 321.6,108.5" style="fill:none;fill-rule:evenodd;stroke:#000000;stroke-width:2.0px;stroke-linecap:butt;stroke-linejoin:miter;stroke-opacity:1"/>
<path class="bond-0 atom-0 atom-1" d="M 329.0,120.1 L 326.4,113.9" style="fill:none;fill-rule:evenodd;stroke:#FF0000;stroke-width:2.0px;stroke-linecap:butt;stroke-linejoin:miter;stroke-opacity:1"/>
<path class="bond-0 atom-0 atom-1" d="M 326.4,113.9 L 323.8,107.6" style="fill:none;fill-rule:evenodd;stroke:#000000;stroke-width:2.0px;stroke-linecap:butt;stroke-linejoin:miter;stroke-opacity:1"/>
<path class="bond-1 atom-1 atom-2" d="M 323.0,108.7 L 307.3,106.6" style="fill:none;fill-rule:evenodd;stroke:#000000;stroke-width:2.0px;stroke-linecap:butt;stroke-linejoin:miter;stroke-opacity:1"/>
<path class="bond-2 atom-2 atom-3" d="M 307.3,106.6 L 301.3,91.9" style="fill:none;fill-rule:evenodd;stroke:#000000;stroke-width:2.0px;stroke-linecap:butt;stroke-linejoin:miter;stroke-opacity:1"/>
<path class="bond-2 atom-2 atom-3" d="M 309.0,104.4 L 304.0,92.3" style="fill:none;fill-rule:evenodd;stroke:#000000;stroke-width:2.0px;stroke-linecap:butt;stroke-linejoin:miter;stroke-opacity:1"/>
<path class="bond-3 atom-3 atom-4" d="M 301.3,91.9 L 285.6,89.8" style="fill:none;fill-rule:evenodd;stroke:#000000;stroke-width:2.0px;stroke-linecap:butt;stroke-linejoin:miter;stroke-opacity:1"/>
<path class="bond-4 atom-4 atom-5" d="M 285.6,89.8 L 279.5,75.1" style="fill:none;fill-rule:evenodd;stroke:#000000;stroke-width:2.0px;stroke-linecap:butt;stroke-linejoin:miter;stroke-opacity:1"/>
<path class="bond-4 atom-4 atom-5" d="M 282.8,89.4 L 277.9,77.3" style="fill:none;fill-rule:evenodd;stroke:#000000;stroke-width:2.0px;stroke-linecap:butt;stroke-linejoin:miter;stroke-opacity:1"/>
<path class="bond-5 atom-5 atom-6" d="M 279.5,75.1 L 263.8,73.0" style="fill:none;fill-rule:evenodd;stroke:#000000;stroke-width:2.0px;stroke-linecap:butt;stroke-linejoin:miter;stroke-opacity:1"/>
<path class="bond-6 atom-6 atom-7" d="M 263.8,73.0 L 254.1,85.5" style="fill:none;fill-rule:evenodd;stroke:#000000;stroke-width:2.0px;stroke-linecap:butt;stroke-linejoin:miter;stroke-opacity:1"/>
<path class="bond-6 atom-6 atom-7" d="M 264.9,75.5 L 256.8,85.9" style="fill:none;fill-rule:evenodd;stroke:#000000;stroke-width:2.0px;stroke-linecap:butt;stroke-linejoin:miter;stroke-opacity:1"/>
<path class="bond-7 atom-7 atom-8" d="M 254.1,85.5 L 247.6,84.6" style="fill:none;fill-rule:evenodd;stroke:#000000;stroke-width:2.0px;stroke-linecap:butt;stroke-linejoin:miter;stroke-opacity:1"/>
<path class="bond-7 atom-7 atom-8" d="M 247.6,84.6 L 241.0,83.7" style="fill:none;fill-rule:evenodd;stroke:#FF0000;stroke-width:2.0px;stroke-linecap:butt;stroke-linejoin:miter;stroke-opacity:1"/>
<path class="bond-8 atom-7 atom-9" d="M 254.1,85.5 L 260.1,100.2" style="fill:none;fill-rule:evenodd;stroke:#000000;stroke-width:2.0px;stroke-linecap:butt;stroke-linejoin:miter;stroke-opacity:1"/>
<path class="bond-9 atom-9 atom-10" d="M 260.1,100.2 L 275.9,102.3" style="fill:none;fill-rule:evenodd;stroke:#000000;stroke-width:2.0px;stroke-linecap:butt;stroke-linejoin:miter;stroke-opacity:1"/>
<path class="bond-9 atom-9 atom-10" d="M 261.8,98.0 L 274.8,99.8" style="fill:none;fill-rule:evenodd;stroke:#000000;stroke-width:2.0px;stroke-linecap:butt;stroke-linejoin:miter;stroke-opacity:1"/>
<path class="bond-10 atom-3 atom-11" d="M 301.3,91.9 L 305.0,87.1" style="fill:none;fill-rule:evenodd;stroke:#000000;stroke-width:2.0px;stroke-linecap:butt;stroke-linejoin:miter;stroke-opacity:1"/>
<path class="bond-10 atom-3 atom-11" d="M 305.0,87.1 L 308.8,82.2" style="fill:none;fill-rule:evenodd;stroke:#FF0000;stroke-width:2.0px;stroke-linecap:butt;stroke-linejoin:miter;stroke-opacity:1"/>
<path class="bond-11 atom-11 atom-12" d="M 313.6,79.7 L 320.1,80.6" style="fill:none;fill-rule:evenodd;stroke:#FF0000;stroke-width:2.0px;stroke-linecap:butt;stroke-linejoin:miter;stroke-opacity:1"/>
<path class="bond-11 atom-11 atom-12" d="M 320.1,80.6 L 326.7,81.5" style="fill:none;fill-rule:evenodd;stroke:#000000;stroke-width:2.0px;stroke-linecap:butt;stroke-linejoin:miter;stroke-opacity:1"/>
<path class="bond-12 atom-12 atom-13" d="M 326.7,81.5 L 336.4,69.0" style="fill:none;fill-rule:evenodd;stroke:#000000;stroke-width:2.0px;stroke-linecap:butt;stroke-linejoin:miter;stroke-opacity:1"/>
<path class="bond-12 atom-12 atom-13" d="M 329.4,81.9 L 337.4,71.5" style="fill:none;fill-rule:evenodd;stroke:#000000;stroke-width:2.0px;stroke-linecap:butt;stroke-linejoin:miter;stroke-opacity:1"/>
<path class="bond-13 atom-13 atom-14" d="M 336.4,69.0 L 352.1,71.1" style="fill:none;fill-rule:evenodd;stroke:#000000;stroke-width:2.0px;stroke-linecap:butt;stroke-linejoin:miter;stroke-opacity:1"/>
<path class="bond-14 atom-14 atom-15" d="M 352.1,71.1 L 355.9,66.2" style="fill:none;fill-rule:evenodd;stroke:#000000;stroke-width:2.0px;stroke-linecap:butt;stroke-linejoin:miter;stroke-opacity:1"/>
<path class="bond-14 atom-14 atom-15" d="M 355.9,66.2 L 359.6,61.4" style="fill:none;fill-rule:evenodd;stroke:#FF0000;stroke-width:2.0px;stroke-linecap:butt;stroke-linejoin:miter;stroke-opacity:1"/>
<path class="bond-15 atom-14 atom-16" d="M 352.1,71.1 L 358.1,85.8" style="fill:none;fill-rule:evenodd;stroke:#000000;stroke-width:2.0px;stroke-linecap:butt;stroke-linejoin:miter;stroke-opacity:1"/>
<path class="bond-15 atom-14 atom-16" d="M 350.4,73.3 L 355.4,85.4" style="fill:none;fill-rule:evenodd;stroke:#000000;stroke-width:2.0px;stroke-linecap:butt;stroke-linejoin:miter;stroke-opacity:1"/>
<path class="bond-16 atom-16 atom-17" d="M 358.1,85.8 L 348.4,98.3" style="fill:none;fill-rule:evenodd;stroke:#000000;stroke-width:2.0px;stroke-linecap:butt;stroke-linejoin:miter;stroke-opacity:1"/>
<path class="bond-17 atom-17 atom-18" d="M 348.4,98.3 L 350.8,104.2" style="fill:none;fill-rule:evenodd;stroke:#000000;stroke-width:2.0px;stroke-linecap:butt;stroke-linejoin:miter;stroke-opacity:1"/>
<path class="bond-17 atom-17 atom-18" d="M 350.8,104.2 L 353.3,110.2" style="fill:none;fill-rule:evenodd;stroke:#FF0000;stroke-width:2.0px;stroke-linecap:butt;stroke-linejoin:miter;stroke-opacity:1"/>
<path class="bond-18 atom-17 atom-19" d="M 348.4,98.3 L 332.7,96.2" style="fill:none;fill-rule:evenodd;stroke:#000000;stroke-width:2.0px;stroke-linecap:butt;stroke-linejoin:miter;stroke-opacity:1"/>
<path class="bond-18 atom-17 atom-19" d="M 347.4,95.8 L 334.4,94.0" style="fill:none;fill-rule:evenodd;stroke:#000000;stroke-width:2.0px;stroke-linecap:butt;stroke-linejoin:miter;stroke-opacity:1"/>
<path class="bond-19 atom-19 atom-1" d="M 332.7,96.2 L 323.0,108.7" style="fill:none;fill-rule:evenodd;stroke:#000000;stroke-width:2.0px;stroke-linecap:butt;stroke-linejoin:miter;stroke-opacity:1"/>
<path class="bond-20 atom-10 atom-4" d="M 275.9,102.3 L 285.6,89.8" style="fill:none;fill-rule:evenodd;stroke:#000000;stroke-width:2.0px;stroke-linecap:butt;stroke-linejoin:miter;stroke-opacity:1"/>
<path class="bond-21 atom-19 atom-12" d="M 332.7,96.2 L 326.7,81.5" style="fill:none;fill-rule:evenodd;stroke:#000000;stroke-width:2.0px;stroke-linecap:butt;stroke-linejoin:miter;stroke-opacity:1"/>
<path d="M 322.2,108.6 L 323.0,108.7 L 323.5,108.1" style="fill:none;stroke:#000000;stroke-width:2.0px;stroke-linecap:butt;stroke-linejoin:miter;stroke-opacity:1;"/>
<path d="M 308.1,106.7 L 307.3,106.6 L 307.0,105.8" style="fill:none;stroke:#000000;stroke-width:2.0px;stroke-linecap:butt;stroke-linejoin:miter;stroke-opacity:1;"/>
<path d="M 279.8,75.8 L 279.5,75.1 L 278.8,75.0" style="fill:none;stroke:#000000;stroke-width:2.0px;stroke-linecap:butt;stroke-linejoin:miter;stroke-opacity:1;"/>
<path d="M 264.6,73.1 L 263.8,73.0 L 263.3,73.6" style="fill:none;stroke:#000000;stroke-width:2.0px;stroke-linecap:butt;stroke-linejoin:miter;stroke-opacity:1;"/>
<path d="M 259.8,99.5 L 260.1,100.2 L 260.9,100.3" style="fill:none;stroke:#000000;stroke-width:2.0px;stroke-linecap:butt;stroke-linejoin:miter;stroke-opacity:1;"/>
<path d="M 275.1,102.2 L 275.9,102.3 L 276.3,101.7" style="fill:none;stroke:#000000;stroke-width:2.0px;stroke-linecap:butt;stroke-linejoin:miter;stroke-opacity:1;"/>
<path d="M 335.9,69.6 L 336.4,69.0 L 337.2,69.1" style="fill:none;stroke:#000000;stroke-width:2.0px;stroke-linecap:butt;stroke-linejoin:miter;stroke-opacity:1;"/>
<path d="M 357.8,85.0 L 358.1,85.8 L 357.6,86.4" style="fill:none;stroke:#000000;stroke-width:2.0px;stroke-linecap:butt;stroke-linejoin:miter;stroke-opacity:1;"/>
<path class="atom-0" d="M 326.9 123.4 Q 326.9 122.3, 327.5 121.7 Q 328.0 121.1, 329.0 121.1 Q 330.0 121.1, 330.5 121.7 Q 331.1 122.3, 331.1 123.4 Q 331.1 124.5, 330.5 125.1 Q 330.0 125.7, 329.0 125.7 Q 328.0 125.7, 327.5 125.1 Q 326.9 124.5, 326.9 123.4 M 329.0 125.2 Q 329.7 125.2, 330.1 124.8 Q 330.4 124.3, 330.4 123.4 Q 330.4 122.5, 330.1 122.1 Q 329.7 121.6, 329.0 121.6 Q 328.3 121.6, 327.9 122.1 Q 327.6 122.5, 327.6 123.4 Q 327.6 124.3, 327.9 124.8 Q 328.3 125.2, 329.0 125.2 " fill="#FF0000"/>
<path class="atom-8" d="M 231.9 81.2 L 232.5 81.2 L 232.5 83.1 L 234.8 83.1 L 234.8 81.2 L 235.4 81.2 L 235.4 85.6 L 234.8 85.6 L 234.8 83.6 L 232.5 83.6 L 232.5 85.6 L 231.9 85.6 L 231.9 81.2 " fill="#FF0000"/>
<path class="atom-8" d="M 236.4 83.4 Q 236.4 82.3, 236.9 81.7 Q 237.4 81.1, 238.4 81.1 Q 239.4 81.1, 239.9 81.7 Q 240.5 82.3, 240.5 83.4 Q 240.5 84.5, 239.9 85.1 Q 239.4 85.7, 238.4 85.7 Q 237.4 85.7, 236.9 85.1 Q 236.4 84.5, 236.4 83.4 M 238.4 85.2 Q 239.1 85.2, 239.5 84.8 Q 239.8 84.3, 239.8 83.4 Q 239.8 82.5, 239.5 82.1 Q 239.1 81.6, 238.4 81.6 Q 237.7 81.6, 237.4 82.1 Q 237.0 82.5, 237.0 83.4 Q 237.0 84.3, 237.4 84.8 Q 237.7 85.2, 238.4 85.2 " fill="#FF0000"/>
<path class="atom-11" d="M 308.9 79.4 Q 308.9 78.3, 309.4 77.7 Q 310.0 77.1, 311.0 77.1 Q 312.0 77.1, 312.5 77.7 Q 313.0 78.3, 313.0 79.4 Q 313.0 80.5, 312.5 81.1 Q 312.0 81.7, 311.0 81.7 Q 310.0 81.7, 309.4 81.1 Q 308.9 80.5, 308.9 79.4 M 311.0 81.2 Q 311.7 81.2, 312.0 80.7 Q 312.4 80.3, 312.4 79.4 Q 312.4 78.5, 312.0 78.0 Q 311.7 77.6, 311.0 77.6 Q 310.3 77.6, 309.9 78.0 Q 309.5 78.5, 309.5 79.4 Q 309.5 80.3, 309.9 80.7 Q 310.3 81.2, 311.0 81.2 " fill="#FF0000"/>
<path class="atom-15" d="M 359.7 58.6 Q 359.7 57.5, 360.3 56.9 Q 360.8 56.3, 361.8 56.3 Q 362.8 56.3, 363.3 56.9 Q 363.9 57.5, 363.9 58.6 Q 363.9 59.6, 363.3 60.3 Q 362.8 60.9, 361.8 60.9 Q 360.8 60.9, 360.3 60.3 Q 359.7 59.7, 359.7 58.6 M 361.8 60.4 Q 362.5 60.4, 362.9 59.9 Q 363.2 59.5, 363.2 58.6 Q 363.2 57.7, 362.9 57.2 Q 362.5 56.8, 361.8 56.8 Q 361.1 56.8, 360.8 57.2 Q 360.4 57.7, 360.4 58.6 Q 360.4 59.5, 360.8 59.9 Q 361.1 60.4, 361.8 60.4 " fill="#FF0000"/>
<path class="atom-15" d="M 364.6 56.3 L 365.2 56.3 L 365.2 58.2 L 367.5 58.2 L 367.5 56.3 L 368.1 56.3 L 368.1 60.8 L 367.5 60.8 L 367.5 58.7 L 365.2 58.7 L 365.2 60.8 L 364.6 60.8 L 364.6 56.3 " fill="#FF0000"/>
<path class="atom-18" d="M 352.4 113.0 Q 352.4 111.9, 352.9 111.3 Q 353.4 110.7, 354.4 110.7 Q 355.4 110.7, 356.0 111.3 Q 356.5 111.9, 356.5 113.0 Q 356.5 114.1, 355.9 114.7 Q 355.4 115.3, 354.4 115.3 Q 353.4 115.3, 352.9 114.7 Q 352.4 114.1, 352.4 113.0 M 354.4 114.8 Q 355.1 114.8, 355.5 114.4 Q 355.9 113.9, 355.9 113.0 Q 355.9 112.1, 355.5 111.7 Q 355.1 111.2, 354.4 111.2 Q 353.7 111.2, 353.4 111.7 Q 353.0 112.1, 353.0 113.0 Q 353.0 113.9, 353.4 114.4 Q 353.7 114.8, 354.4 114.8 " fill="#FF0000"/>
<path class="atom-18" d="M 357.2 110.8 L 357.8 110.8 L 357.8 112.7 L 360.1 112.7 L 360.1 110.8 L 360.7 110.8 L 360.7 115.2 L 360.1 115.2 L 360.1 113.2 L 357.8 113.2 L 357.8 115.2 L 357.2 115.2 L 357.2 110.8 " fill="#FF0000"/>
<path class="legend" d="M 301.7 184.0 Q 302.7 184.4, 303.3 185.0 Q 303.8 185.7, 303.8 186.7 Q 303.8 188.2, 302.8 189.1 Q 301.8 190.0, 300.0 190.0 L 296.2 190.0 L 296.2 178.7 L 299.5 178.7 Q 301.4 178.7, 302.4 179.5 Q 303.4 180.2, 303.4 181.7 Q 303.4 183.4, 301.7 184.0 M 297.7 180.0 L 297.7 183.5 L 299.5 183.5 Q 300.6 183.5, 301.2 183.1 Q 301.8 182.6, 301.8 181.7 Q 301.8 180.0, 299.5 180.0 L 297.7 180.0 M 300.0 188.7 Q 301.1 188.7, 301.7 188.2 Q 302.2 187.7, 302.2 186.7 Q 302.2 185.7, 301.6 185.3 Q 301.0 184.8, 299.7 184.8 L 297.7 184.8 L 297.7 188.7 L 300.0 188.7 " fill="#000000"/>
<path class="bond-0 atom-0 atom-1" d="M 509.3,67.3 L 522.3,76.4" style="fill:none;fill-rule:evenodd;stroke:#000000;stroke-width:2.0px;stroke-linecap:butt;stroke-linejoin:miter;stroke-opacity:1"/>
<path class="bond-1 atom-1 atom-2" d="M 522.3,76.4 L 520.9,92.2" style="fill:none;fill-rule:evenodd;stroke:#000000;stroke-width:2.0px;stroke-linecap:butt;stroke-linejoin:miter;stroke-opacity:1"/>
<path class="bond-2 atom-2 atom-3" d="M 520.9,92.2 L 533.8,101.4" style="fill:none;fill-rule:evenodd;stroke:#000000;stroke-width:2.0px;stroke-linecap:butt;stroke-linejoin:miter;stroke-opacity:1"/>
<path class="bond-3 atom-2 atom-4" d="M 520.9,92.2 L 506.5,98.9" style="fill:none;fill-rule:evenodd;stroke:#000000;stroke-width:2.0px;stroke-linecap:butt;stroke-linejoin:miter;stroke-opacity:1"/>
<path class="bond-4 atom-4 atom-5" d="M 506.5,98.9 L 505.1,114.7" style="fill:none;fill-rule:evenodd;stroke:#000000;stroke-width:2.0px;stroke-linecap:butt;stroke-linejoin:miter;stroke-opacity:1"/>
<path class="bond-5 atom-4 atom-6" d="M 506.5,98.9 L 493.5,89.8" style="fill:none;fill-rule:evenodd;stroke:#000000;stroke-width:2.0px;stroke-linecap:butt;stroke-linejoin:miter;stroke-opacity:1"/>
<path class="bond-6 atom-6 atom-7" d="M 493.5,89.8 L 479.1,96.4" style="fill:none;fill-rule:evenodd;stroke:#000000;stroke-width:2.0px;stroke-linecap:butt;stroke-linejoin:miter;stroke-opacity:1"/>
<path class="bond-7 atom-7 atom-8" d="M 479.1,96.4 L 466.2,87.3" style="fill:none;fill-rule:evenodd;stroke:#000000;stroke-width:2.0px;stroke-linecap:butt;stroke-linejoin:miter;stroke-opacity:1"/>
<path d="M 521.7,76.0 L 522.3,76.4 L 522.2,77.2" style="fill:none;stroke:#000000;stroke-width:2.0px;stroke-linecap:butt;stroke-linejoin:miter;stroke-opacity:1;"/>
<path d="M 494.2,90.2 L 493.5,89.8 L 492.8,90.1" style="fill:none;stroke:#000000;stroke-width:2.0px;stroke-linecap:butt;stroke-linejoin:miter;stroke-opacity:1;"/>
<path d="M 479.8,96.1 L 479.1,96.4 L 478.5,96.0" style="fill:none;stroke:#000000;stroke-width:2.0px;stroke-linecap:butt;stroke-linejoin:miter;stroke-opacity:1;"/>
<path class="legend" d="M 495.6 184.2 Q 495.6 181.4, 496.9 179.9 Q 498.3 178.4, 500.8 178.4 Q 503.1 178.4, 504.4 180.0 L 503.3 180.9 Q 502.4 179.7, 500.8 179.7 Q 499.1 179.7, 498.2 180.9 Q 497.3 182.0, 497.3 184.2 Q 497.3 186.4, 498.2 187.6 Q 499.1 188.7, 501.0 188.7 Q 502.2 188.7, 503.7 188.0 L 504.1 189.2 Q 503.5 189.6, 502.6 189.8 Q 501.7 190.0, 500.7 190.0 Q 498.3 190.0, 496.9 188.5 Q 495.6 187.0, 495.6 184.2 " fill="#000000"/>
<path class="bond-0 atom-0 atom-1" d="M 632.3,83.1 L 647.9,80.4" style="fill:none;fill-rule:evenodd;stroke:#000000;stroke-width:2.0px;stroke-linecap:butt;stroke-linejoin:miter;stroke-opacity:1"/>
<path class="bond-1 atom-1 atom-2" d="M 647.9,80.4 L 653.4,65.5" style="fill:none;fill-rule:evenodd;stroke:#000000;stroke-width:2.0px;stroke-linecap:butt;stroke-linejoin:miter;stroke-opacity:1"/>
<path class="bond-2 atom-1 atom-3" d="M 647.9,80.4 L 658.0,92.6" style="fill:none;fill-rule:evenodd;stroke:#000000;stroke-width:2.0px;stroke-linecap:butt;stroke-linejoin:miter;stroke-opacity:1"/>
<path class="bond-3 atom-3 atom-4" d="M 658.0,92.6 L 654.1,108.0" style="fill:none;fill-rule:evenodd;stroke:#000000;stroke-width:2.0px;stroke-linecap:butt;stroke-linejoin:miter;stroke-opacity:1"/>
<path class="bond-4 atom-4 atom-5" d="M 654.1,108.0 L 667.5,116.5" style="fill:none;fill-rule:evenodd;stroke:#000000;stroke-width:2.0px;stroke-linecap:butt;stroke-linejoin:miter;stroke-opacity:1"/>
<path class="bond-5 atom-5 atom-6" d="M 667.5,116.5 L 679.7,106.3" style="fill:none;fill-rule:evenodd;stroke:#000000;stroke-width:2.0px;stroke-linecap:butt;stroke-linejoin:miter;stroke-opacity:1"/>
<path class="bond-6 atom-6 atom-7" d="M 679.7,106.3 L 695.4,108.6" style="fill:none;fill-rule:evenodd;stroke:#000000;stroke-width:2.0px;stroke-linecap:butt;stroke-linejoin:miter;stroke-opacity:1"/>
<path class="bond-7 atom-7 atom-8" d="M 695.4,108.6 L 705.3,96.2" style="fill:none;fill-rule:evenodd;stroke:#000000;stroke-width:2.0px;stroke-linecap:butt;stroke-linejoin:miter;stroke-opacity:1"/>
<path class="bond-8 atom-8 atom-9" d="M 705.3,96.2 L 720.9,98.5" style="fill:none;fill-rule:evenodd;stroke:#000000;stroke-width:2.0px;stroke-linecap:butt;stroke-linejoin:miter;stroke-opacity:1"/>
<path class="bond-9 atom-9 atom-10" d="M 720.9,98.5 L 716.0,113.5" style="fill:none;fill-rule:evenodd;stroke:#000000;stroke-width:2.0px;stroke-linecap:butt;stroke-linejoin:miter;stroke-opacity:1"/>
<path class="bond-10 atom-9 atom-11" d="M 720.9,98.5 L 720.5,82.6" style="fill:none;fill-rule:evenodd;stroke:#000000;stroke-width:2.0px;stroke-linecap:butt;stroke-linejoin:miter;stroke-opacity:1"/>
<path class="bond-11 atom-11 atom-12" d="M 720.5,82.6 L 734.0,74.3" style="fill:none;fill-rule:evenodd;stroke:#000000;stroke-width:2.0px;stroke-linecap:butt;stroke-linejoin:miter;stroke-opacity:1"/>
<path class="bond-12 atom-12 atom-13" d="M 734.0,74.3 L 747.9,81.8" style="fill:none;fill-rule:evenodd;stroke:#000000;stroke-width:2.0px;stroke-linecap:butt;stroke-linejoin:miter;stroke-opacity:1"/>
<path class="bond-13 atom-13 atom-14" d="M 747.9,81.8 L 753.4,78.5" style="fill:none;fill-rule:evenodd;stroke:#000000;stroke-width:2.0px;stroke-linecap:butt;stroke-linejoin:miter;stroke-opacity:1"/>
<path class="bond-13 atom-13 atom-14" d="M 753.4,78.5 L 758.9,75.1" style="fill:none;fill-rule:evenodd;stroke:#FF0000;stroke-width:2.0px;stroke-linecap:butt;stroke-linejoin:miter;stroke-opacity:1"/>
<path class="bond-14 atom-13 atom-15" d="M 747.9,81.8 L 748.4,97.7" style="fill:none;fill-rule:evenodd;stroke:#000000;stroke-width:2.0px;stroke-linecap:butt;stroke-linejoin:miter;stroke-opacity:1"/>
<path class="bond-15 atom-15 atom-16" d="M 748.4,97.7 L 734.9,106.0" style="fill:none;fill-rule:evenodd;stroke:#000000;stroke-width:2.0px;stroke-linecap:butt;stroke-linejoin:miter;stroke-opacity:1"/>
<path class="bond-16 atom-8 atom-17" d="M 705.3,96.2 L 699.4,81.5" style="fill:none;fill-rule:evenodd;stroke:#000000;stroke-width:2.0px;stroke-linecap:butt;stroke-linejoin:miter;stroke-opacity:1"/>
<path class="bond-17 atom-17 atom-18" d="M 699.4,81.5 L 683.7,79.2" style="fill:none;fill-rule:evenodd;stroke:#000000;stroke-width:2.0px;stroke-linecap:butt;stroke-linejoin:miter;stroke-opacity:1"/>
<path class="bond-18 atom-18 atom-19" d="M 683.7,79.2 L 673.9,91.6" style="fill:none;fill-rule:evenodd;stroke:#000000;stroke-width:2.0px;stroke-linecap:butt;stroke-linejoin:miter;stroke-opacity:1"/>
<path class="bond-19 atom-19 atom-20" d="M 673.9,91.6 L 666.5,77.6" style="fill:none;fill-rule:evenodd;stroke:#000000;stroke-width:2.0px;stroke-linecap:butt;stroke-linejoin:miter;stroke-opacity:1"/>
<path class="bond-20 atom-19 atom-3" d="M 673.9,91.6 L 658.0,92.6" style="fill:none;fill-rule:evenodd;stroke:#000000;stroke-width:2.0px;stroke-linecap:butt;stroke-linejoin:miter;stroke-opacity:1"/>
<path class="bond-21 atom-19 atom-6" d="M 673.9,91.6 L 679.7,106.3" style="fill:none;fill-rule:evenodd;stroke:#000000;stroke-width:2.0px;stroke-linecap:butt;stroke-linejoin:miter;stroke-opacity:1"/>
<path class="bond-22 atom-16 atom-9" d="M 734.9,106.0 L 720.9,98.5" style="fill:none;fill-rule:evenodd;stroke:#000000;stroke-width:2.0px;stroke-linecap:butt;stroke-linejoin:miter;stroke-opacity:1"/>
<path d="M 654.3,107.2 L 654.1,108.0 L 654.8,108.4" style="fill:none;stroke:#000000;stroke-width:2.0px;stroke-linecap:butt;stroke-linejoin:miter;stroke-opacity:1;"/>
<path d="M 666.9,116.0 L 667.5,116.5 L 668.1,116.0" style="fill:none;stroke:#000000;stroke-width:2.0px;stroke-linecap:butt;stroke-linejoin:miter;stroke-opacity:1;"/>
<path d="M 694.6,108.5 L 695.4,108.6 L 695.9,108.0" style="fill:none;stroke:#000000;stroke-width:2.0px;stroke-linecap:butt;stroke-linejoin:miter;stroke-opacity:1;"/>
<path d="M 720.5,83.4 L 720.5,82.6 L 721.2,82.2" style="fill:none;stroke:#000000;stroke-width:2.0px;stroke-linecap:butt;stroke-linejoin:miter;stroke-opacity:1;"/>
<path d="M 733.3,74.7 L 734.0,74.3 L 734.7,74.7" style="fill:none;stroke:#000000;stroke-width:2.0px;stroke-linecap:butt;stroke-linejoin:miter;stroke-opacity:1;"/>
<path d="M 748.4,96.9 L 748.4,97.7 L 747.7,98.1" style="fill:none;stroke:#000000;stroke-width:2.0px;stroke-linecap:butt;stroke-linejoin:miter;stroke-opacity:1;"/>
<path d="M 735.6,105.6 L 734.9,106.0 L 734.2,105.6" style="fill:none;stroke:#000000;stroke-width:2.0px;stroke-linecap:butt;stroke-linejoin:miter;stroke-opacity:1;"/>
<path d="M 699.7,82.2 L 699.4,81.5 L 698.6,81.3" style="fill:none;stroke:#000000;stroke-width:2.0px;stroke-linecap:butt;stroke-linejoin:miter;stroke-opacity:1;"/>
<path d="M 684.5,79.3 L 683.7,79.2 L 683.2,79.8" style="fill:none;stroke:#000000;stroke-width:2.0px;stroke-linecap:butt;stroke-linejoin:miter;stroke-opacity:1;"/>
<path class="atom-14" d="M 759.4 73.5 Q 759.4 72.4, 759.9 71.8 Q 760.4 71.2, 761.4 71.2 Q 762.4 71.2, 763.0 71.8 Q 763.5 72.4, 763.5 73.5 Q 763.5 74.6, 763.0 75.2 Q 762.4 75.8, 761.4 75.8 Q 760.4 75.8, 759.9 75.2 Q 759.4 74.6, 759.4 73.5 M 761.4 75.3 Q 762.1 75.3, 762.5 74.9 Q 762.9 74.4, 762.9 73.5 Q 762.9 72.6, 762.5 72.2 Q 762.1 71.7, 761.4 71.7 Q 760.8 71.7, 760.4 72.2 Q 760.0 72.6, 760.0 73.5 Q 760.0 74.4, 760.4 74.9 Q 760.8 75.3, 761.4 75.3 " fill="#FF0000"/>
<path class="atom-14" d="M 764.2 71.3 L 764.8 71.3 L 764.8 73.2 L 767.1 73.2 L 767.1 71.3 L 767.7 71.3 L 767.7 75.8 L 767.1 75.8 L 767.1 73.7 L 764.8 73.7 L 764.8 75.8 L 764.2 75.8 L 764.2 71.3 " fill="#FF0000"/>
<path class="legend" d="M 699.2 178.7 Q 701.7 178.7, 703.1 180.2 Q 704.4 181.6, 704.4 184.3 Q 704.4 187.0, 703.1 188.5 Q 701.7 190.0, 699.2 190.0 L 695.6 190.0 L 695.6 178.7 L 699.2 178.7 M 699.2 188.7 Q 701.0 188.7, 701.9 187.6 Q 702.8 186.5, 702.8 184.3 Q 702.8 182.1, 701.9 181.0 Q 701.0 180.0, 699.2 180.0 L 697.1 180.0 L 697.1 188.7 L 699.2 188.7 " fill="#000000"/>
<path class="bond-0 atom-0 atom-1" d="M 123.2,311.4 L 123.9,304.5" style="fill:none;fill-rule:evenodd;stroke:#FF0000;stroke-width:2.0px;stroke-linecap:butt;stroke-linejoin:miter;stroke-opacity:1"/>
<path class="bond-0 atom-0 atom-1" d="M 123.9,304.5 L 124.6,297.7" style="fill:none;fill-rule:evenodd;stroke:#000000;stroke-width:2.0px;stroke-linecap:butt;stroke-linejoin:miter;stroke-opacity:1"/>
<path class="bond-0 atom-0 atom-1" d="M 125.6,311.6 L 126.3,304.8" style="fill:none;fill-rule:evenodd;stroke:#FF0000;stroke-width:2.0px;stroke-linecap:butt;stroke-linejoin:miter;stroke-opacity:1"/>
<path class="bond-0 atom-0 atom-1" d="M 126.3,304.8 L 127.0,298.0" style="fill:none;fill-rule:evenodd;stroke:#000000;stroke-width:2.0px;stroke-linecap:butt;stroke-linejoin:miter;stroke-opacity:1"/>
<path class="bond-1 atom-1 atom-2" d="M 125.8,298.5 L 120.6,294.8" style="fill:none;fill-rule:evenodd;stroke:#000000;stroke-width:2.0px;stroke-linecap:butt;stroke-linejoin:miter;stroke-opacity:1"/>
<path class="bond-1 atom-1 atom-2" d="M 120.6,294.8 L 115.5,291.1" style="fill:none;fill-rule:evenodd;stroke:#FF0000;stroke-width:2.0px;stroke-linecap:butt;stroke-linejoin:miter;stroke-opacity:1"/>
<path class="bond-2 atom-2 atom-3" d="M 110.3,290.3 L 104.4,293.0" style="fill:none;fill-rule:evenodd;stroke:#FF0000;stroke-width:2.0px;stroke-linecap:butt;stroke-linejoin:miter;stroke-opacity:1"/>
<path class="bond-2 atom-2 atom-3" d="M 104.4,293.0 L 98.4,295.6" style="fill:none;fill-rule:evenodd;stroke:#000000;stroke-width:2.0px;stroke-linecap:butt;stroke-linejoin:miter;stroke-opacity:1"/>
<path class="bond-3 atom-3 atom-4" d="M 98.4,295.6 L 85.6,286.3" style="fill:none;fill-rule:evenodd;stroke:#000000;stroke-width:2.0px;stroke-linecap:butt;stroke-linejoin:miter;stroke-opacity:1"/>
<path class="bond-4 atom-4 atom-5" d="M 85.6,286.3 L 86.3,279.8" style="fill:none;fill-rule:evenodd;stroke:#000000;stroke-width:2.0px;stroke-linecap:butt;stroke-linejoin:miter;stroke-opacity:1"/>
<path class="bond-4 atom-4 atom-5" d="M 86.3,279.8 L 87.0,273.4" style="fill:none;fill-rule:evenodd;stroke:#FF0000;stroke-width:2.0px;stroke-linecap:butt;stroke-linejoin:miter;stroke-opacity:1"/>
<path class="bond-5 atom-4 atom-6" d="M 85.6,286.3 L 71.1,292.7" style="fill:none;fill-rule:evenodd;stroke:#000000;stroke-width:2.0px;stroke-linecap:butt;stroke-linejoin:miter;stroke-opacity:1"/>
<path class="bond-6 atom-6 atom-7" d="M 71.1,292.7 L 70.4,299.2" style="fill:none;fill-rule:evenodd;stroke:#000000;stroke-width:2.0px;stroke-linecap:butt;stroke-linejoin:miter;stroke-opacity:1"/>
<path class="bond-6 atom-6 atom-7" d="M 70.4,299.2 L 69.8,305.7" style="fill:none;fill-rule:evenodd;stroke:#FF0000;stroke-width:2.0px;stroke-linecap:butt;stroke-linejoin:miter;stroke-opacity:1"/>
<path class="bond-7 atom-6 atom-8" d="M 71.1,292.7 L 58.3,283.4" style="fill:none;fill-rule:evenodd;stroke:#000000;stroke-width:2.0px;stroke-linecap:butt;stroke-linejoin:miter;stroke-opacity:1"/>
<path class="bond-8 atom-8 atom-9" d="M 58.3,283.4 L 59.0,277.0" style="fill:none;fill-rule:evenodd;stroke:#000000;stroke-width:2.0px;stroke-linecap:butt;stroke-linejoin:miter;stroke-opacity:1"/>
<path class="bond-8 atom-8 atom-9" d="M 59.0,277.0 L 59.7,270.5" style="fill:none;fill-rule:evenodd;stroke:#FF0000;stroke-width:2.0px;stroke-linecap:butt;stroke-linejoin:miter;stroke-opacity:1"/>
<path class="bond-9 atom-8 atom-10" d="M 58.3,283.4 L 43.8,289.9" style="fill:none;fill-rule:evenodd;stroke:#000000;stroke-width:2.0px;stroke-linecap:butt;stroke-linejoin:miter;stroke-opacity:1"/>
<path class="bond-10 atom-10 atom-11" d="M 43.8,289.9 L 43.1,296.3" style="fill:none;fill-rule:evenodd;stroke:#000000;stroke-width:2.0px;stroke-linecap:butt;stroke-linejoin:miter;stroke-opacity:1"/>
<path class="bond-10 atom-10 atom-11" d="M 43.1,296.3 L 42.4,302.8" style="fill:none;fill-rule:evenodd;stroke:#FF0000;stroke-width:2.0px;stroke-linecap:butt;stroke-linejoin:miter;stroke-opacity:1"/>
<path class="bond-11 atom-10 atom-12" d="M 43.8,289.9 L 31.0,280.5" style="fill:none;fill-rule:evenodd;stroke:#000000;stroke-width:2.0px;stroke-linecap:butt;stroke-linejoin:miter;stroke-opacity:1"/>
<path class="bond-12 atom-12 atom-13" d="M 31.0,280.5 L 25.0,283.2" style="fill:none;fill-rule:evenodd;stroke:#000000;stroke-width:2.0px;stroke-linecap:butt;stroke-linejoin:miter;stroke-opacity:1"/>
<path class="bond-12 atom-12 atom-13" d="M 25.0,283.2 L 19.1,285.8" style="fill:none;fill-rule:evenodd;stroke:#FF0000;stroke-width:2.0px;stroke-linecap:butt;stroke-linejoin:miter;stroke-opacity:1"/>
<path class="bond-13 atom-1 atom-14" d="M 125.8,298.5 L 140.3,292.1" style="fill:none;fill-rule:evenodd;stroke:#000000;stroke-width:2.0px;stroke-linecap:butt;stroke-linejoin:miter;stroke-opacity:1"/>
<path class="bond-14 atom-14 atom-15" d="M 140.3,292.1 L 141.9,276.3" style="fill:none;fill-rule:evenodd;stroke:#000000;stroke-width:2.0px;stroke-linecap:butt;stroke-linejoin:miter;stroke-opacity:1"/>
<path class="bond-14 atom-14 atom-15" d="M 142.8,291.0 L 144.1,277.9" style="fill:none;fill-rule:evenodd;stroke:#000000;stroke-width:2.0px;stroke-linecap:butt;stroke-linejoin:miter;stroke-opacity:1"/>
<path class="bond-15 atom-15 atom-16" d="M 141.9,276.3 L 156.4,269.9" style="fill:none;fill-rule:evenodd;stroke:#000000;stroke-width:2.0px;stroke-linecap:butt;stroke-linejoin:miter;stroke-opacity:1"/>
<path class="bond-16 atom-16 atom-17" d="M 156.4,269.9 L 169.2,279.2" style="fill:none;fill-rule:evenodd;stroke:#000000;stroke-width:2.0px;stroke-linecap:butt;stroke-linejoin:miter;stroke-opacity:1"/>
<path class="bond-16 atom-16 atom-17" d="M 156.1,272.6 L 166.7,280.3" style="fill:none;fill-rule:evenodd;stroke:#000000;stroke-width:2.0px;stroke-linecap:butt;stroke-linejoin:miter;stroke-opacity:1"/>
<path class="bond-17 atom-17 atom-18" d="M 169.2,279.2 L 175.2,276.5" style="fill:none;fill-rule:evenodd;stroke:#000000;stroke-width:2.0px;stroke-linecap:butt;stroke-linejoin:miter;stroke-opacity:1"/>
<path class="bond-17 atom-17 atom-18" d="M 175.2,276.5 L 181.1,273.9" style="fill:none;fill-rule:evenodd;stroke:#FF0000;stroke-width:2.0px;stroke-linecap:butt;stroke-linejoin:miter;stroke-opacity:1"/>
<path class="bond-18 atom-17 atom-19" d="M 169.2,279.2 L 167.6,295.0" style="fill:none;fill-rule:evenodd;stroke:#000000;stroke-width:2.0px;stroke-linecap:butt;stroke-linejoin:miter;stroke-opacity:1"/>
<path class="bond-19 atom-19 atom-20" d="M 167.6,295.0 L 172.7,298.7" style="fill:none;fill-rule:evenodd;stroke:#000000;stroke-width:2.0px;stroke-linecap:butt;stroke-linejoin:miter;stroke-opacity:1"/>
<path class="bond-19 atom-19 atom-20" d="M 172.7,298.7 L 177.8,302.4" style="fill:none;fill-rule:evenodd;stroke:#FF0000;stroke-width:2.0px;stroke-linecap:butt;stroke-linejoin:miter;stroke-opacity:1"/>
<path class="bond-20 atom-19 atom-21" d="M 167.6,295.0 L 153.1,301.4" style="fill:none;fill-rule:evenodd;stroke:#000000;stroke-width:2.0px;stroke-linecap:butt;stroke-linejoin:miter;stroke-opacity:1"/>
<path class="bond-20 atom-19 atom-21" d="M 165.3,293.3 L 153.4,298.7" style="fill:none;fill-rule:evenodd;stroke:#000000;stroke-width:2.0px;stroke-linecap:butt;stroke-linejoin:miter;stroke-opacity:1"/>
<path class="bond-21 atom-21 atom-14" d="M 153.1,301.4 L 140.3,292.1" style="fill:none;fill-rule:evenodd;stroke:#000000;stroke-width:2.0px;stroke-linecap:butt;stroke-linejoin:miter;stroke-opacity:1"/>
<path d="M 125.5,298.3 L 125.8,298.5 L 126.5,298.2" style="fill:none;stroke:#000000;stroke-width:2.0px;stroke-linecap:butt;stroke-linejoin:miter;stroke-opacity:1;"/>
<path d="M 98.7,295.5 L 98.4,295.6 L 97.8,295.2" style="fill:none;stroke:#000000;stroke-width:2.0px;stroke-linecap:butt;stroke-linejoin:miter;stroke-opacity:1;"/>
<path d="M 31.6,281.0 L 31.0,280.5 L 30.7,280.7" style="fill:none;stroke:#000000;stroke-width:2.0px;stroke-linecap:butt;stroke-linejoin:miter;stroke-opacity:1;"/>
<path d="M 141.8,277.1 L 141.9,276.3 L 142.6,276.0" style="fill:none;stroke:#000000;stroke-width:2.0px;stroke-linecap:butt;stroke-linejoin:miter;stroke-opacity:1;"/>
<path d="M 155.7,270.2 L 156.4,269.9 L 157.1,270.3" style="fill:none;stroke:#000000;stroke-width:2.0px;stroke-linecap:butt;stroke-linejoin:miter;stroke-opacity:1;"/>
<path d="M 153.8,301.1 L 153.1,301.4 L 152.4,300.9" style="fill:none;stroke:#000000;stroke-width:2.0px;stroke-linecap:butt;stroke-linejoin:miter;stroke-opacity:1;"/>
<path class="atom-0" d="M 122.0 314.3 Q 122.0 313.2, 122.6 312.6 Q 123.1 312.0, 124.1 312.0 Q 125.1 312.0, 125.6 312.6 Q 126.2 313.2, 126.2 314.3 Q 126.2 315.4, 125.6 316.0 Q 125.1 316.6, 124.1 316.6 Q 123.1 316.6, 122.6 316.0 Q 122.0 315.4, 122.0 314.3 M 124.1 316.1 Q 124.8 316.1, 125.1 315.7 Q 125.5 315.2, 125.5 314.3 Q 125.5 313.4, 125.1 313.0 Q 124.8 312.5, 124.1 312.5 Q 123.4 312.5, 123.0 313.0 Q 122.7 313.4, 122.7 314.3 Q 122.7 315.2, 123.0 315.7 Q 123.4 316.1, 124.1 316.1 " fill="#FF0000"/>
<path class="atom-2" d="M 110.9 289.2 Q 110.9 288.1, 111.4 287.5 Q 111.9 286.9, 112.9 286.9 Q 113.9 286.9, 114.5 287.5 Q 115.0 288.1, 115.0 289.2 Q 115.0 290.3, 114.5 290.9 Q 113.9 291.5, 112.9 291.5 Q 111.9 291.5, 111.4 290.9 Q 110.9 290.3, 110.9 289.2 M 112.9 291.0 Q 113.6 291.0, 114.0 290.6 Q 114.4 290.1, 114.4 289.2 Q 114.4 288.3, 114.0 287.9 Q 113.6 287.4, 112.9 287.4 Q 112.2 287.4, 111.9 287.9 Q 111.5 288.3, 111.5 289.2 Q 111.5 290.1, 111.9 290.6 Q 112.2 291.0, 112.9 291.0 " fill="#FF0000"/>
<path class="atom-5" d="M 85.2 270.5 Q 85.2 269.5, 85.8 268.9 Q 86.3 268.3, 87.3 268.3 Q 88.3 268.3, 88.8 268.9 Q 89.3 269.5, 89.3 270.5 Q 89.3 271.6, 88.8 272.3 Q 88.3 272.9, 87.3 272.9 Q 86.3 272.9, 85.8 272.3 Q 85.2 271.6, 85.2 270.5 M 87.3 272.4 Q 88.0 272.4, 88.3 271.9 Q 88.7 271.4, 88.7 270.5 Q 88.7 269.7, 88.3 269.2 Q 88.0 268.8, 87.3 268.8 Q 86.6 268.8, 86.2 269.2 Q 85.9 269.7, 85.9 270.5 Q 85.9 271.4, 86.2 271.9 Q 86.6 272.4, 87.3 272.4 " fill="#FF0000"/>
<path class="atom-5" d="M 90.0 268.3 L 90.7 268.3 L 90.7 270.2 L 93.0 270.2 L 93.0 268.3 L 93.6 268.3 L 93.6 272.8 L 93.0 272.8 L 93.0 270.7 L 90.7 270.7 L 90.7 272.8 L 90.0 272.8 L 90.0 268.3 " fill="#FF0000"/>
<path class="atom-7" d="M 67.4 308.5 Q 67.4 307.4, 67.9 306.8 Q 68.5 306.2, 69.5 306.2 Q 70.5 306.2, 71.0 306.8 Q 71.5 307.4, 71.5 308.5 Q 71.5 309.6, 71.0 310.2 Q 70.4 310.9, 69.5 310.9 Q 68.5 310.9, 67.9 310.2 Q 67.4 309.6, 67.4 308.5 M 69.5 310.3 Q 70.1 310.3, 70.5 309.9 Q 70.9 309.4, 70.9 308.5 Q 70.9 307.6, 70.5 307.2 Q 70.1 306.7, 69.5 306.7 Q 68.8 306.7, 68.4 307.2 Q 68.0 307.6, 68.0 308.5 Q 68.0 309.4, 68.4 309.9 Q 68.8 310.3, 69.5 310.3 " fill="#FF0000"/>
<path class="atom-7" d="M 72.2 306.3 L 72.8 306.3 L 72.8 308.2 L 75.1 308.2 L 75.1 306.3 L 75.7 306.3 L 75.7 310.8 L 75.1 310.8 L 75.1 308.7 L 72.8 308.7 L 72.8 310.8 L 72.2 310.8 L 72.2 306.3 " fill="#FF0000"/>
<path class="atom-9" d="M 57.9 267.7 Q 57.9 266.6, 58.4 266.0 Q 59.0 265.4, 60.0 265.4 Q 61.0 265.4, 61.5 266.0 Q 62.0 266.6, 62.0 267.7 Q 62.0 268.7, 61.5 269.4 Q 61.0 270.0, 60.0 270.0 Q 59.0 270.0, 58.4 269.4 Q 57.9 268.8, 57.9 267.7 M 60.0 269.5 Q 60.7 269.5, 61.0 269.0 Q 61.4 268.6, 61.4 267.7 Q 61.4 266.8, 61.0 266.3 Q 60.7 265.9, 60.0 265.9 Q 59.3 265.9, 58.9 266.3 Q 58.5 266.8, 58.5 267.7 Q 58.5 268.6, 58.9 269.0 Q 59.3 269.5, 60.0 269.5 " fill="#FF0000"/>
<path class="atom-9" d="M 62.7 265.4 L 63.3 265.4 L 63.3 267.3 L 65.6 267.3 L 65.6 265.4 L 66.2 265.4 L 66.2 269.9 L 65.6 269.9 L 65.6 267.8 L 63.3 267.8 L 63.3 269.9 L 62.7 269.9 L 62.7 265.4 " fill="#FF0000"/>
<path class="atom-11" d="M 40.1 305.6 Q 40.1 304.6, 40.6 304.0 Q 41.1 303.4, 42.1 303.4 Q 43.1 303.4, 43.7 304.0 Q 44.2 304.6, 44.2 305.6 Q 44.2 306.7, 43.7 307.3 Q 43.1 308.0, 42.1 308.0 Q 41.2 308.0, 40.6 307.3 Q 40.1 306.7, 40.1 305.6 M 42.1 307.5 Q 42.8 307.5, 43.2 307.0 Q 43.6 306.5, 43.6 305.6 Q 43.6 304.8, 43.2 304.3 Q 42.8 303.9, 42.1 303.9 Q 41.5 303.9, 41.1 304.3 Q 40.7 304.7, 40.7 305.6 Q 40.7 306.5, 41.1 307.0 Q 41.5 307.5, 42.1 307.5 " fill="#FF0000"/>
<path class="atom-11" d="M 44.9 303.4 L 45.5 303.4 L 45.5 305.3 L 47.8 305.3 L 47.8 303.4 L 48.4 303.4 L 48.4 307.9 L 47.8 307.9 L 47.8 305.8 L 45.5 305.8 L 45.5 307.9 L 44.9 307.9 L 44.9 303.4 " fill="#FF0000"/>
<path class="atom-13" d="M 10.0 284.7 L 10.6 284.7 L 10.6 286.7 L 12.9 286.7 L 12.9 284.7 L 13.5 284.7 L 13.5 289.2 L 12.9 289.2 L 12.9 287.2 L 10.6 287.2 L 10.6 289.2 L 10.0 289.2 L 10.0 284.7 " fill="#FF0000"/>
<path class="atom-13" d="M 14.4 287.0 Q 14.4 285.9, 15.0 285.3 Q 15.5 284.7, 16.5 284.7 Q 17.5 284.7, 18.0 285.3 Q 18.6 285.9, 18.6 287.0 Q 18.6 288.1, 18.0 288.7 Q 17.5 289.3, 16.5 289.3 Q 15.5 289.3, 15.0 288.7 Q 14.4 288.1, 14.4 287.0 M 16.5 288.8 Q 17.2 288.8, 17.5 288.3 Q 17.9 287.9, 17.9 287.0 Q 17.9 286.1, 17.5 285.7 Q 17.2 285.2, 16.5 285.2 Q 15.8 285.2, 15.4 285.6 Q 15.1 286.1, 15.1 287.0 Q 15.1 287.9, 15.4 288.3 Q 15.8 288.8, 16.5 288.8 " fill="#FF0000"/>
<path class="atom-18" d="M 181.7 272.8 Q 181.7 271.7, 182.2 271.1 Q 182.7 270.5, 183.7 270.5 Q 184.7 270.5, 185.3 271.1 Q 185.8 271.7, 185.8 272.8 Q 185.8 273.9, 185.2 274.5 Q 184.7 275.1, 183.7 275.1 Q 182.7 275.1, 182.2 274.5 Q 181.7 273.9, 181.7 272.8 M 183.7 274.6 Q 184.4 274.6, 184.8 274.1 Q 185.2 273.7, 185.2 272.8 Q 185.2 271.9, 184.8 271.4 Q 184.4 271.0, 183.7 271.0 Q 183.0 271.0, 182.7 271.4 Q 182.3 271.9, 182.3 272.8 Q 182.3 273.7, 182.7 274.1 Q 183.0 274.6, 183.7 274.6 " fill="#FF0000"/>
<path class="atom-18" d="M 186.5 270.5 L 187.1 270.5 L 187.1 272.4 L 189.4 272.4 L 189.4 270.5 L 190.0 270.5 L 190.0 275.0 L 189.4 275.0 L 189.4 273.0 L 187.1 273.0 L 187.1 275.0 L 186.5 275.0 L 186.5 270.5 " fill="#FF0000"/>
<path class="atom-20" d="M 178.3 304.3 Q 178.3 303.2, 178.9 302.6 Q 179.4 302.0, 180.4 302.0 Q 181.4 302.0, 181.9 302.6 Q 182.5 303.2, 182.5 304.3 Q 182.5 305.4, 181.9 306.0 Q 181.4 306.6, 180.4 306.6 Q 179.4 306.6, 178.9 306.0 Q 178.3 305.4, 178.3 304.3 M 180.4 306.1 Q 181.1 306.1, 181.4 305.7 Q 181.8 305.2, 181.8 304.3 Q 181.8 303.4, 181.4 303.0 Q 181.1 302.5, 180.4 302.5 Q 179.7 302.5, 179.3 303.0 Q 179.0 303.4, 179.0 304.3 Q 179.0 305.2, 179.3 305.7 Q 179.7 306.1, 180.4 306.1 " fill="#FF0000"/>
<path class="atom-20" d="M 183.2 302.1 L 183.8 302.1 L 183.8 304.0 L 186.1 304.0 L 186.1 302.1 L 186.7 302.1 L 186.7 306.6 L 186.1 306.6 L 186.1 304.5 L 183.8 304.5 L 183.8 306.6 L 183.2 306.6 L 183.2 302.1 " fill="#FF0000"/>
<path class="legend" d="M 96.5 378.7 L 103.3 378.7 L 103.3 380.0 L 98.1 380.0 L 98.1 383.4 L 102.8 383.4 L 102.8 384.7 L 98.1 384.7 L 98.1 388.7 L 103.5 388.7 L 103.5 390.0 L 96.5 390.0 L 96.5 378.7 " fill="#000000"/>
</svg>