<svg xmlns="http://www.w3.org/2000/svg" xmlns:rdkit="http://www.rdkit.org/xml" xmlns:xlink="http://www.w3.org/1999/xlink" version="1.1" baseProfile="full" xml:space="preserve" width="800px" height="600px" viewBox="0 0 800 600">
<!-- END OF HEADER -->
<rect style="opacity:1.0;fill:#FFFFFF;stroke:none" width="800.0" height="600.0" x="0.0" y="0.0"> </rect>
<path class="bond-0 atom-0 atom-1" d="M 114.2,91.0 L 104.7,91.0" style="fill:none;fill-rule:evenodd;stroke:#000000;stroke-width:2.0px;stroke-linecap:butt;stroke-linejoin:miter;stroke-opacity:1"/>
<path class="bond-1 atom-1 atom-2" d="M 104.7,91.0 L 100.0,99.2" style="fill:none;fill-rule:evenodd;stroke:#000000;stroke-width:2.0px;stroke-linecap:butt;stroke-linejoin:miter;stroke-opacity:1"/>
<path class="bond-1 atom-1 atom-2" d="M 103.1,91.0 L 99.2,97.8" style="fill:none;fill-rule:evenodd;stroke:#000000;stroke-width:2.0px;stroke-linecap:butt;stroke-linejoin:miter;stroke-opacity:1"/>
<path class="bond-2 atom-2 atom-3" d="M 100.0,99.2 L 90.6,99.2" style="fill:none;fill-rule:evenodd;stroke:#000000;stroke-width:2.0px;stroke-linecap:butt;stroke-linejoin:miter;stroke-opacity:1"/>
<path class="bond-3 atom-3 atom-4" d="M 90.6,99.2 L 85.8,91.0" style="fill:none;fill-rule:evenodd;stroke:#000000;stroke-width:2.0px;stroke-linecap:butt;stroke-linejoin:miter;stroke-opacity:1"/>
<path class="bond-3 atom-3 atom-4" d="M 91.4,97.8 L 87.5,91.0" style="fill:none;fill-rule:evenodd;stroke:#000000;stroke-width:2.0px;stroke-linecap:butt;stroke-linejoin:miter;stroke-opacity:1"/>
<path class="bond-4 atom-4 atom-5" d="M 85.8,91.0 L 90.6,82.8" style="fill:none;fill-rule:evenodd;stroke:#000000;stroke-width:2.0px;stroke-linecap:butt;stroke-linejoin:miter;stroke-opacity:1"/>
<path class="bond-5 atom-5 atom-6" d="M 90.6,82.8 L 100.0,82.8" style="fill:none;fill-rule:evenodd;stroke:#000000;stroke-width:2.0px;stroke-linecap:butt;stroke-linejoin:miter;stroke-opacity:1"/>
<path class="bond-5 atom-5 atom-6" d="M 91.4,84.2 L 99.2,84.2" style="fill:none;fill-rule:evenodd;stroke:#000000;stroke-width:2.0px;stroke-linecap:butt;stroke-linejoin:miter;stroke-opacity:1"/>
<path class="bond-6 atom-6 atom-1" d="M 100.0,82.8 L 104.7,91.0" style="fill:none;fill-rule:evenodd;stroke:#000000;stroke-width:2.0px;stroke-linecap:butt;stroke-linejoin:miter;stroke-opacity:1"/>
<path d="M 100.2,98.8 L 100.0,99.2 L 99.5,99.2" style="fill:none;stroke:#000000;stroke-width:2.0px;stroke-linecap:butt;stroke-linejoin:miter;stroke-opacity:1;"/>
<path d="M 91.0,99.2 L 90.6,99.2 L 90.3,98.8" style="fill:none;stroke:#000000;stroke-width:2.0px;stroke-linecap:butt;stroke-linejoin:miter;stroke-opacity:1;"/>
<path d="M 86.1,91.4 L 85.8,91.0 L 86.1,90.6" style="fill:none;stroke:#000000;stroke-width:2.0px;stroke-linecap:butt;stroke-linejoin:miter;stroke-opacity:1;"/>
<path d="M 90.3,83.2 L 90.6,82.8 L 91.0,82.8" style="fill:none;stroke:#000000;stroke-width:2.0px;stroke-linecap:butt;stroke-linejoin:miter;stroke-opacity:1;"/>
<path d="M 99.5,82.8 L 100.0,82.8 L 100.2,83.2" style="fill:none;stroke:#000000;stroke-width:2.0px;stroke-linecap:butt;stroke-linejoin:miter;stroke-opacity:1;"/>
<path class="legend" d="M 103.4 190.0 L 102.2 186.7 L 97.8 186.7 L 96.6 190.0 L 95.1 190.0 L 99.0 178.7 L 100.9 178.7 L 104.9 190.0 L 103.4 190.0 M 98.2 185.4 L 101.8 185.4 L 100.0 180.3 L 98.2 185.4 " fill="#000000"/>
<path class="bond-0 atom-0 atom-1" d="M 288.9,98.1 L 297.0,93.3" style="fill:none;fill-rule:evenodd;stroke:#000000;stroke-width:2.0px;stroke-linecap:butt;stroke-linejoin:miter;stroke-opacity:1"/>
<path class="bond-1 atom-1 atom-2" d="M 297.7,93.7 L 297.7,90.1" style="fill:none;fill-rule:evenodd;stroke:#000000;stroke-width:2.0px;stroke-linecap:butt;stroke-linejoin:miter;stroke-opacity:1"/>
<path class="bond-1 atom-1 atom-2" d="M 297.7,90.1 L 297.7,86.4" style="fill:none;fill-rule:evenodd;stroke:#FF0000;stroke-width:2.0px;stroke-linecap:butt;stroke-linejoin:miter;stroke-opacity:1"/>
<path class="bond-1 atom-1 atom-2" d="M 296.3,93.7 L 296.3,90.1" style="fill:none;fill-rule:evenodd;stroke:#000000;stroke-width:2.0px;stroke-linecap:butt;stroke-linejoin:miter;stroke-opacity:1"/>
<path class="bond-1 atom-1 atom-2" d="M 296.3,90.1 L 296.3,86.4" style="fill:none;fill-rule:evenodd;stroke:#FF0000;stroke-width:2.0px;stroke-linecap:butt;stroke-linejoin:miter;stroke-opacity:1"/>
<path class="bond-2 atom-1 atom-3" d="M 297.0,93.3 L 300.0,95.0" style="fill:none;fill-rule:evenodd;stroke:#000000;stroke-width:2.0px;stroke-linecap:butt;stroke-linejoin:miter;stroke-opacity:1"/>
<path class="bond-2 atom-1 atom-3" d="M 300.0,95.0 L 303.0,96.7" style="fill:none;fill-rule:evenodd;stroke:#FF0000;stroke-width:2.0px;stroke-linecap:butt;stroke-linejoin:miter;stroke-opacity:1"/>
<path d="M 296.6,93.6 L 297.0,93.3 L 297.2,93.4" style="fill:none;stroke:#000000;stroke-width:2.0px;stroke-linecap:butt;stroke-linejoin:miter;stroke-opacity:1;"/>
<path class="atom-2" d="M 295.1 83.9 Q 295.1 82.9, 295.6 82.3 Q 296.1 81.7, 297.0 81.7 Q 298.0 81.7, 298.5 82.3 Q 299.0 82.9, 299.0 83.9 Q 299.0 84.9, 298.5 85.5 Q 298.0 86.1, 297.0 86.1 Q 296.1 86.1, 295.6 85.5 Q 295.1 84.9, 295.1 83.9 M 297.0 85.6 Q 297.7 85.6, 298.0 85.2 Q 298.4 84.7, 298.4 83.9 Q 298.4 83.1, 298.0 82.6 Q 297.7 82.2, 297.0 82.2 Q 296.4 82.2, 296.0 82.6 Q 295.7 83.1, 295.7 83.9 Q 295.7 84.8, 296.0 85.2 Q 296.4 85.6, 297.0 85.6 " fill="#FF0000"/>
<path class="atom-3" d="M 303.3 98.1 Q 303.3 97.0, 303.8 96.5 Q 304.3 95.9, 305.2 95.9 Q 306.2 95.9, 306.7 96.5 Q 307.2 97.0, 307.2 98.1 Q 307.2 99.1, 306.7 99.7 Q 306.1 100.3, 305.2 100.3 Q 304.3 100.3, 303.8 99.7 Q 303.3 99.1, 303.3 98.1 M 305.2 99.8 Q 305.9 99.8, 306.2 99.4 Q 306.6 98.9, 306.6 98.1 Q 306.6 97.2, 306.2 96.8 Q 305.9 96.4, 305.2 96.4 Q 304.6 96.4, 304.2 96.8 Q 303.9 97.2, 303.9 98.1 Q 303.9 98.9, 304.2 99.4 Q 304.6 99.8, 305.2 99.8 " fill="#FF0000"/>
<path class="atom-3" d="M 307.8 96.0 L 308.4 96.0 L 308.4 97.8 L 310.6 97.8 L 310.6 96.0 L 311.1 96.0 L 311.1 100.2 L 310.6 100.2 L 310.6 98.2 L 308.4 98.2 L 308.4 100.2 L 307.8 100.2 L 307.8 96.0 " fill="#FF0000"/>
<path class="legend" d="M 301.7 184.0 Q 302.7 184.4, 303.3 185.0 Q 303.8 185.7, 303.8 186.7 Q 303.8 188.2, 302.8 189.1 Q 301.8 190.0, 300.0 190.0 L 296.2 190.0 L 296.2 178.7 L 299.5 178.7 Q 301.4 178.7, 302.4 179.5 Q 303.4 180.2, 303.4 181.7 Q 303.4 183.4, 301.7 184.0 M 297.7 180.0 L 297.7 183.5 L 299.5 183.5 Q 300.6 183.5, 301.2 183.1 Q 301.8 182.6, 301.8 181.7 Q 301.8 180.0, 299.5 180.0 L 297.7 180.0 M 300.0 188.7 Q 301.1 188.7, 301.7 188.2 Q 302.2 187.7, 302.2 186.7 Q 302.2 185.7, 301.6 185.3 Q 301.0 184.8, 299.7 184.8 L 297.7 184.8 L 297.7 188.7 L 300.0 188.7 " fill="#000000"/>
<path class="bond-0 atom-0 atom-1" d="M 482.1,96.3 L 483.1,92.8" style="fill:none;fill-rule:evenodd;stroke:#FF0000;stroke-width:2.0px;stroke-linecap:butt;stroke-linejoin:miter;stroke-opacity:1"/>
<path class="bond-0 atom-0 atom-1" d="M 483.1,92.8 L 484.1,89.3" style="fill:none;fill-rule:evenodd;stroke:#000000;stroke-width:2.0px;stroke-linecap:butt;stroke-linejoin:miter;stroke-opacity:1"/>
<path class="bond-0 atom-0 atom-1" d="M 483.4,96.7 L 484.5,93.2" style="fill:none;fill-rule:evenodd;stroke:#FF0000;stroke-width:2.0px;stroke-linecap:butt;stroke-linejoin:miter;stroke-opacity:1"/>
<path class="bond-0 atom-0 atom-1" d="M 484.5,93.2 L 485.5,89.7" style="fill:none;fill-rule:evenodd;stroke:#000000;stroke-width:2.0px;stroke-linecap:butt;stroke-linejoin:miter;stroke-opacity:1"/>
<path class="bond-1 atom-1 atom-2" d="M 484.7,89.9 L 482.6,87.6" style="fill:none;fill-rule:evenodd;stroke:#000000;stroke-width:2.0px;stroke-linecap:butt;stroke-linejoin:miter;stroke-opacity:1"/>
<path class="bond-1 atom-1 atom-2" d="M 482.6,87.6 L 480.5,85.4" style="fill:none;fill-rule:evenodd;stroke:#FF0000;stroke-width:2.0px;stroke-linecap:butt;stroke-linejoin:miter;stroke-opacity:1"/>
<path class="bond-2 atom-1 atom-3" d="M 484.7,89.9 L 493.9,87.7" style="fill:none;fill-rule:evenodd;stroke:#000000;stroke-width:2.0px;stroke-linecap:butt;stroke-linejoin:miter;stroke-opacity:1"/>
<path class="bond-3 atom-3 atom-4" d="M 493.9,87.7 L 500.4,94.5" style="fill:none;fill-rule:evenodd;stroke:#000000;stroke-width:2.0px;stroke-linecap:butt;stroke-linejoin:miter;stroke-opacity:1"/>
<path class="bond-3 atom-3 atom-4" d="M 493.4,89.2 L 499.4,95.5" style="fill:none;fill-rule:evenodd;stroke:#000000;stroke-width:2.0px;stroke-linecap:butt;stroke-linejoin:miter;stroke-opacity:1"/>
<path class="bond-4 atom-4 atom-5" d="M 500.4,94.5 L 509.6,92.3" style="fill:none;fill-rule:evenodd;stroke:#000000;stroke-width:2.0px;stroke-linecap:butt;stroke-linejoin:miter;stroke-opacity:1"/>
<path class="bond-5 atom-5 atom-6" d="M 509.6,92.3 L 512.3,83.2" style="fill:none;fill-rule:evenodd;stroke:#000000;stroke-width:2.0px;stroke-linecap:butt;stroke-linejoin:miter;stroke-opacity:1"/>
<path class="bond-5 atom-5 atom-6" d="M 511.2,91.9 L 513.4,84.4" style="fill:none;fill-rule:evenodd;stroke:#000000;stroke-width:2.0px;stroke-linecap:butt;stroke-linejoin:miter;stroke-opacity:1"/>
<path class="bond-6 atom-6 atom-7" d="M 512.3,83.2 L 521.4,81.0" style="fill:none;fill-rule:evenodd;stroke:#000000;stroke-width:2.0px;stroke-linecap:butt;stroke-linejoin:miter;stroke-opacity:1"/>
<path class="bond-7 atom-7 atom-8" d="M 521.4,81.0 L 527.9,87.9" style="fill:none;fill-rule:evenodd;stroke:#000000;stroke-width:2.0px;stroke-linecap:butt;stroke-linejoin:miter;stroke-opacity:1"/>
<path class="bond-7 atom-7 atom-8" d="M 521.0,82.6 L 526.4,88.3" style="fill:none;fill-rule:evenodd;stroke:#000000;stroke-width:2.0px;stroke-linecap:butt;stroke-linejoin:miter;stroke-opacity:1"/>
<path class="bond-8 atom-8 atom-9" d="M 527.9,87.9 L 525.3,97.0" style="fill:none;fill-rule:evenodd;stroke:#000000;stroke-width:2.0px;stroke-linecap:butt;stroke-linejoin:miter;stroke-opacity:1"/>
<path class="bond-9 atom-9 atom-10" d="M 525.3,97.0 L 516.1,99.2" style="fill:none;fill-rule:evenodd;stroke:#000000;stroke-width:2.0px;stroke-linecap:butt;stroke-linejoin:miter;stroke-opacity:1"/>
<path class="bond-9 atom-9 atom-10" d="M 524.1,95.8 L 516.5,97.6" style="fill:none;fill-rule:evenodd;stroke:#000000;stroke-width:2.0px;stroke-linecap:butt;stroke-linejoin:miter;stroke-opacity:1"/>
<path class="bond-10 atom-10 atom-5" d="M 516.1,99.2 L 509.6,92.3" style="fill:none;fill-rule:evenodd;stroke:#000000;stroke-width:2.0px;stroke-linecap:butt;stroke-linejoin:miter;stroke-opacity:1"/>
<path d="M 484.6,89.8 L 484.7,89.9 L 485.2,89.8" style="fill:none;stroke:#000000;stroke-width:2.0px;stroke-linecap:butt;stroke-linejoin:miter;stroke-opacity:1;"/>
<path d="M 493.4,87.8 L 493.9,87.7 L 494.2,88.0" style="fill:none;stroke:#000000;stroke-width:2.0px;stroke-linecap:butt;stroke-linejoin:miter;stroke-opacity:1;"/>
<path d="M 500.1,94.2 L 500.4,94.5 L 500.8,94.4" style="fill:none;stroke:#000000;stroke-width:2.0px;stroke-linecap:butt;stroke-linejoin:miter;stroke-opacity:1;"/>
<path d="M 512.1,83.7 L 512.3,83.2 L 512.7,83.1" style="fill:none;stroke:#000000;stroke-width:2.0px;stroke-linecap:butt;stroke-linejoin:miter;stroke-opacity:1;"/>
<path d="M 521.0,81.2 L 521.4,81.0 L 521.8,81.4" style="fill:none;stroke:#000000;stroke-width:2.0px;stroke-linecap:butt;stroke-linejoin:miter;stroke-opacity:1;"/>
<path d="M 527.6,87.6 L 527.9,87.9 L 527.8,88.4" style="fill:none;stroke:#000000;stroke-width:2.0px;stroke-linecap:butt;stroke-linejoin:miter;stroke-opacity:1;"/>
<path d="M 525.4,96.5 L 525.3,97.0 L 524.8,97.1" style="fill:none;stroke:#000000;stroke-width:2.0px;stroke-linecap:butt;stroke-linejoin:miter;stroke-opacity:1;"/>
<path d="M 516.5,99.1 L 516.1,99.2 L 515.8,98.8" style="fill:none;stroke:#000000;stroke-width:2.0px;stroke-linecap:butt;stroke-linejoin:miter;stroke-opacity:1;"/>
<path class="atom-0" d="M 480.1 98.9 Q 480.1 97.9, 480.6 97.3 Q 481.1 96.8, 482.0 96.8 Q 483.0 96.8, 483.5 97.3 Q 484.0 97.9, 484.0 98.9 Q 484.0 100.0, 483.5 100.6 Q 482.9 101.1, 482.0 101.1 Q 481.1 101.1, 480.6 100.6 Q 480.1 100.0, 480.1 98.9 M 482.0 100.7 Q 482.7 100.7, 483.0 100.2 Q 483.4 99.8, 483.4 98.9 Q 483.4 98.1, 483.0 97.7 Q 482.7 97.3, 482.0 97.3 Q 481.4 97.3, 481.0 97.7 Q 480.7 98.1, 480.7 98.9 Q 480.7 99.8, 481.0 100.2 Q 481.4 100.7, 482.0 100.7 " fill="#FF0000"/>
<path class="atom-2" d="M 472.1 80.9 L 472.6 80.9 L 472.6 82.7 L 474.8 82.7 L 474.8 80.9 L 475.4 80.9 L 475.4 85.2 L 474.8 85.2 L 474.8 83.2 L 472.6 83.2 L 472.6 85.2 L 472.1 85.2 L 472.1 80.9 " fill="#FF0000"/>
<path class="atom-2" d="M 476.2 83.0 Q 476.2 82.0, 476.8 81.4 Q 477.3 80.9, 478.2 80.9 Q 479.1 80.9, 479.6 81.4 Q 480.1 82.0, 480.1 83.0 Q 480.1 84.1, 479.6 84.6 Q 479.1 85.2, 478.2 85.2 Q 477.3 85.2, 476.8 84.6 Q 476.2 84.1, 476.2 83.0 M 478.2 84.7 Q 478.8 84.7, 479.2 84.3 Q 479.5 83.9, 479.5 83.0 Q 479.5 82.2, 479.2 81.8 Q 478.8 81.3, 478.2 81.3 Q 477.5 81.3, 477.2 81.8 Q 476.8 82.2, 476.8 83.0 Q 476.8 83.9, 477.2 84.3 Q 477.5 84.7, 478.2 84.7 " fill="#FF0000"/>
<path class="legend" d="M 495.6 184.2 Q 495.6 181.4, 496.9 179.9 Q 498.3 178.4, 500.8 178.4 Q 503.1 178.4, 504.4 180.0 L 503.3 180.9 Q 502.4 179.7, 500.8 179.7 Q 499.1 179.7, 498.2 180.9 Q 497.3 182.0, 497.3 184.2 Q 497.3 186.4, 498.2 187.6 Q 499.1 188.7, 501.0 188.7 Q 502.2 188.7, 503.7 188.0 L 504.1 189.2 Q 503.5 189.6, 502.6 189.8 Q 501.7 190.0, 500.7 190.0 Q 498.3 190.0, 496.9 188.5 Q 495.6 187.0, 495.6 184.2 " fill="#000000"/>
<path class="bond-0 atom-0 atom-1" d="M 679.5,92.3 L 687.9,88.0" style="fill:none;fill-rule:evenodd;stroke:#000000;stroke-width:2.0px;stroke-linecap:butt;stroke-linejoin:miter;stroke-opacity:1"/>
<path class="bond-1 atom-1 atom-2" d="M 687.9,88.0 L 695.8,93.2" style="fill:none;fill-rule:evenodd;stroke:#000000;stroke-width:2.0px;stroke-linecap:butt;stroke-linejoin:miter;stroke-opacity:1"/>
<path class="bond-2 atom-2 atom-3" d="M 695.8,93.2 L 704.2,88.8" style="fill:none;fill-rule:evenodd;stroke:#000000;stroke-width:2.0px;stroke-linecap:butt;stroke-linejoin:miter;stroke-opacity:1"/>
<path class="bond-3 atom-3 atom-4" d="M 704.2,88.8 L 712.1,94.0" style="fill:none;fill-rule:evenodd;stroke:#000000;stroke-width:2.0px;stroke-linecap:butt;stroke-linejoin:miter;stroke-opacity:1"/>
<path class="bond-4 atom-4 atom-5" d="M 712.1,94.0 L 720.5,89.7" style="fill:none;fill-rule:evenodd;stroke:#000000;stroke-width:2.0px;stroke-linecap:butt;stroke-linejoin:miter;stroke-opacity:1"/>
<path d="M 687.4,88.2 L 687.9,88.0 L 688.3,88.3" style="fill:none;stroke:#000000;stroke-width:2.0px;stroke-linecap:butt;stroke-linejoin:miter;stroke-opacity:1;"/>
<path d="M 695.4,92.9 L 695.8,93.2 L 696.2,92.9" style="fill:none;stroke:#000000;stroke-width:2.0px;stroke-linecap:butt;stroke-linejoin:miter;stroke-opacity:1;"/>
<path d="M 703.8,89.1 L 704.2,88.8 L 704.6,89.1" style="fill:none;stroke:#000000;stroke-width:2.0px;stroke-linecap:butt;stroke-linejoin:miter;stroke-opacity:1;"/>
<path d="M 711.7,93.7 L 712.1,94.0 L 712.6,93.8" style="fill:none;stroke:#000000;stroke-width:2.0px;stroke-linecap:butt;stroke-linejoin:miter;stroke-opacity:1;"/>
<path class="legend" d="M 699.2 178.7 Q 701.7 178.7, 703.1 180.2 Q 704.4 181.6, 704.4 184.3 Q 704.4 187.0, 703.1 188.5 Q 701.7 190.0, 699.2 190.0 L 695.6 190.0 L 695.6 178.7 L 699.2 178.7 M 699.2 188.7 Q 701.0 188.7, 701.9 187.6 Q 702.8 186.5, 702.8 184.3 Q 702.8 182.1, 701.9 181.0 Q 701.0 180.0, 699.2 180.0 L 697.1 180.0 L 697.1 188.7 L 699.2 188.7 " fill="#000000"/>
<path class="bond-0 atom-0 atom-1" d="M 122.0,291.0 L 112.5,291.0" style="fill:none;fill-rule:evenodd;stroke:#000000;stroke-width:2.0px;stroke-linecap:butt;stroke-linejoin:miter;stroke-opacity:1"/>
<path class="bond-1 atom-1 atom-2" d="M 112.5,291.0 L 107.8,299.2" style="fill:none;fill-rule:evenodd;stroke:#000000;stroke-width:2.0px;stroke-linecap:butt;stroke-linejoin:miter;stroke-opacity:1"/>
<path class="bond-1 atom-1 atom-2" d="M 110.9,291.0 L 107.0,297.8" style="fill:none;fill-rule:evenodd;stroke:#000000;stroke-width:2.0px;stroke-linecap:butt;stroke-linejoin:miter;stroke-opacity:1"/>
<path class="bond-2 atom-2 atom-3" d="M 107.8,299.2 L 98.3,299.2" style="fill:none;fill-rule:evenodd;stroke:#000000;stroke-width:2.0px;stroke-linecap:butt;stroke-linejoin:miter;stroke-opacity:1"/>
<path class="bond-3 atom-3 atom-4" d="M 98.3,299.2 L 93.6,291.0" style="fill:none;fill-rule:evenodd;stroke:#000000;stroke-width:2.0px;stroke-linecap:butt;stroke-linejoin:miter;stroke-opacity:1"/>
<path class="bond-3 atom-3 atom-4" d="M 99.2,297.8 L 95.3,291.0" style="fill:none;fill-rule:evenodd;stroke:#000000;stroke-width:2.0px;stroke-linecap:butt;stroke-linejoin:miter;stroke-opacity:1"/>
<path class="bond-4 atom-4 atom-5" d="M 93.6,291.0 L 90.0,291.0" style="fill:none;fill-rule:evenodd;stroke:#000000;stroke-width:2.0px;stroke-linecap:butt;stroke-linejoin:miter;stroke-opacity:1"/>
<path class="bond-4 atom-4 atom-5" d="M 90.0,291.0 L 86.4,291.0" style="fill:none;fill-rule:evenodd;stroke:#FF0000;stroke-width:2.0px;stroke-linecap:butt;stroke-linejoin:miter;stroke-opacity:1"/>
<path class="bond-5 atom-4 atom-6" d="M 93.6,291.0 L 98.3,282.8" style="fill:none;fill-rule:evenodd;stroke:#000000;stroke-width:2.0px;stroke-linecap:butt;stroke-linejoin:miter;stroke-opacity:1"/>
<path class="bond-6 atom-6 atom-7" d="M 98.3,282.8 L 107.8,282.8" style="fill:none;fill-rule:evenodd;stroke:#000000;stroke-width:2.0px;stroke-linecap:butt;stroke-linejoin:miter;stroke-opacity:1"/>
<path class="bond-6 atom-6 atom-7" d="M 99.2,284.2 L 107.0,284.2" style="fill:none;fill-rule:evenodd;stroke:#000000;stroke-width:2.0px;stroke-linecap:butt;stroke-linejoin:miter;stroke-opacity:1"/>
<path class="bond-7 atom-7 atom-1" d="M 107.8,282.8 L 112.5,291.0" style="fill:none;fill-rule:evenodd;stroke:#000000;stroke-width:2.0px;stroke-linecap:butt;stroke-linejoin:miter;stroke-opacity:1"/>
<path d="M 108.0,298.8 L 107.8,299.2 L 107.3,299.2" style="fill:none;stroke:#000000;stroke-width:2.0px;stroke-linecap:butt;stroke-linejoin:miter;stroke-opacity:1;"/>
<path d="M 98.8,299.2 L 98.3,299.2 L 98.1,298.8" style="fill:none;stroke:#000000;stroke-width:2.0px;stroke-linecap:butt;stroke-linejoin:miter;stroke-opacity:1;"/>
<path d="M 98.1,283.2 L 98.3,282.8 L 98.8,282.8" style="fill:none;stroke:#000000;stroke-width:2.0px;stroke-linecap:butt;stroke-linejoin:miter;stroke-opacity:1;"/>
<path d="M 107.3,282.8 L 107.8,282.8 L 108.0,283.2" style="fill:none;stroke:#000000;stroke-width:2.0px;stroke-linecap:butt;stroke-linejoin:miter;stroke-opacity:1;"/>
<path class="atom-5" d="M 78.0 288.9 L 78.6 288.9 L 78.6 290.7 L 80.8 290.7 L 80.8 288.9 L 81.4 288.9 L 81.4 293.1 L 80.8 293.1 L 80.8 291.2 L 78.6 291.2 L 78.6 293.1 L 78.0 293.1 L 78.0 288.9 " fill="#FF0000"/>
<path class="atom-5" d="M 82.2 291.0 Q 82.2 290.0, 82.7 289.4 Q 83.2 288.9, 84.2 288.9 Q 85.1 288.9, 85.6 289.4 Q 86.1 290.0, 86.1 291.0 Q 86.1 292.0, 85.6 292.6 Q 85.1 293.2, 84.2 293.2 Q 83.2 293.2, 82.7 292.6 Q 82.2 292.1, 82.2 291.0 M 84.2 292.7 Q 84.8 292.7, 85.2 292.3 Q 85.5 291.9, 85.5 291.0 Q 85.5 290.2, 85.2 289.8 Q 84.8 289.3, 84.2 289.3 Q 83.5 289.3, 83.2 289.8 Q 82.8 290.2, 82.8 291.0 Q 82.8 291.9, 83.2 292.3 Q 83.5 292.7, 84.2 292.7 " fill="#FF0000"/>
<path class="legend" d="M 96.6 378.7 L 103.4 378.7 L 103.4 380.0 L 98.2 380.0 L 98.2 383.4 L 102.8 383.4 L 102.8 384.7 L 98.2 384.7 L 98.2 390.0 L 96.6 390.0 L 96.6 378.7 " fill="#000000"/>
<path class="bond-0 atom-0 atom-1" d="M 284.6,291.9 L 293.3,288.2" style="fill:none;fill-rule:evenodd;stroke:#000000;stroke-width:2.0px;stroke-linecap:butt;stroke-linejoin:miter;stroke-opacity:1"/>
<path class="bond-1 atom-1 atom-2" d="M 293.3,288.2 L 300.8,293.9" style="fill:none;fill-rule:evenodd;stroke:#000000;stroke-width:2.0px;stroke-linecap:butt;stroke-linejoin:miter;stroke-opacity:1"/>
<path class="bond-2 atom-2 atom-3" d="M 300.8,293.9 L 304.0,292.6" style="fill:none;fill-rule:evenodd;stroke:#000000;stroke-width:2.0px;stroke-linecap:butt;stroke-linejoin:miter;stroke-opacity:1"/>
<path class="bond-2 atom-2 atom-3" d="M 304.0,292.6 L 307.2,291.2" style="fill:none;fill-rule:evenodd;stroke:#FF0000;stroke-width:2.0px;stroke-linecap:butt;stroke-linejoin:miter;stroke-opacity:1"/>
<path d="M 292.8,288.4 L 293.3,288.2 L 293.6,288.5" style="fill:none;stroke:#000000;stroke-width:2.0px;stroke-linecap:butt;stroke-linejoin:miter;stroke-opacity:1;"/>
<path d="M 300.4,293.6 L 300.8,293.9 L 301.0,293.9" style="fill:none;stroke:#000000;stroke-width:2.0px;stroke-linecap:butt;stroke-linejoin:miter;stroke-opacity:1;"/>
<path class="atom-3" d="M 307.6 290.2 Q 307.6 289.2, 308.1 288.6 Q 308.6 288.1, 309.5 288.1 Q 310.4 288.1, 310.9 288.6 Q 311.5 289.2, 311.5 290.2 Q 311.5 291.3, 310.9 291.9 Q 310.4 292.4, 309.5 292.4 Q 308.6 292.4, 308.1 291.9 Q 307.6 291.3, 307.6 290.2 M 309.5 292.0 Q 310.1 292.0, 310.5 291.5 Q 310.9 291.1, 310.9 290.2 Q 310.9 289.4, 310.5 289.0 Q 310.1 288.6, 309.5 288.6 Q 308.9 288.6, 308.5 289.0 Q 308.2 289.4, 308.2 290.2 Q 308.2 291.1, 308.5 291.5 Q 308.9 292.0, 309.5 292.0 " fill="#FF0000"/>
<path class="atom-3" d="M 312.1 288.1 L 312.7 288.1 L 312.7 289.9 L 314.9 289.9 L 314.9 288.1 L 315.4 288.1 L 315.4 292.4 L 314.9 292.4 L 314.9 290.4 L 312.7 290.4 L 312.7 292.4 L 312.1 292.4 L 312.1 288.1 " fill="#FF0000"/>
<path class="legend" d="M 304.6 384.3 L 304.6 389.1 Q 302.9 390.0, 300.6 390.0 Q 298.1 390.0, 296.8 388.5 Q 295.4 387.0, 295.4 384.2 Q 295.4 381.4, 296.8 379.9 Q 298.1 378.4, 300.6 378.4 Q 301.9 378.4, 302.9 378.8 Q 303.8 379.2, 304.5 380.0 L 303.5 380.9 Q 302.4 379.7, 300.6 379.7 Q 298.9 379.7, 298.0 380.8 Q 297.1 382.0, 297.1 384.2 Q 297.1 386.4, 298.0 387.6 Q 299.0 388.7, 300.8 388.7 Q 302.0 388.7, 303.0 388.3 L 303.0 384.3 L 304.6 384.3 " fill="#000000"/>
<path class="bond-0 atom-0 atom-1" d="M 526.5,291.1 L 523.5,289.5" style="fill:none;fill-rule:evenodd;stroke:#FF0000;stroke-width:2.0px;stroke-linecap:butt;stroke-linejoin:miter;stroke-opacity:1"/>
<path class="bond-0 atom-0 atom-1" d="M 523.5,289.5 L 520.5,287.9" style="fill:none;fill-rule:evenodd;stroke:#000000;stroke-width:2.0px;stroke-linecap:butt;stroke-linejoin:miter;stroke-opacity:1"/>
<path class="bond-1 atom-1 atom-2" d="M 520.5,287.9 L 512.4,292.8" style="fill:none;fill-rule:evenodd;stroke:#000000;stroke-width:2.0px;stroke-linecap:butt;stroke-linejoin:miter;stroke-opacity:1"/>
<path class="bond-1 atom-1 atom-2" d="M 520.5,289.5 L 513.2,294.0" style="fill:none;fill-rule:evenodd;stroke:#000000;stroke-width:2.0px;stroke-linecap:butt;stroke-linejoin:miter;stroke-opacity:1;stroke-dasharray:6,4"/>
<path class="bond-2 atom-2 atom-3" d="M 512.4,292.8 L 504.1,288.3" style="fill:none;fill-rule:evenodd;stroke:#000000;stroke-width:2.0px;stroke-linecap:butt;stroke-linejoin:miter;stroke-opacity:1"/>
<path class="bond-2 atom-2 atom-3" d="M 512.4,291.2 L 504.8,287.1" style="fill:none;fill-rule:evenodd;stroke:#000000;stroke-width:2.0px;stroke-linecap:butt;stroke-linejoin:miter;stroke-opacity:1;stroke-dasharray:6,4"/>
<path class="bond-3 atom-3 atom-4" d="M 504.1,288.3 L 496.1,293.3" style="fill:none;fill-rule:evenodd;stroke:#000000;stroke-width:2.0px;stroke-linecap:butt;stroke-linejoin:miter;stroke-opacity:1"/>
<path class="bond-3 atom-3 atom-4" d="M 504.2,290.0 L 496.8,294.5" style="fill:none;fill-rule:evenodd;stroke:#000000;stroke-width:2.0px;stroke-linecap:butt;stroke-linejoin:miter;stroke-opacity:1;stroke-dasharray:6,4"/>
<path class="bond-4 atom-4 atom-5" d="M 496.1,293.3 L 487.8,288.8" style="fill:none;fill-rule:evenodd;stroke:#000000;stroke-width:2.0px;stroke-linecap:butt;stroke-linejoin:miter;stroke-opacity:1"/>
<path class="bond-4 atom-4 atom-5" d="M 496.0,291.6 L 488.4,287.5" style="fill:none;fill-rule:evenodd;stroke:#000000;stroke-width:2.0px;stroke-linecap:butt;stroke-linejoin:miter;stroke-opacity:1;stroke-dasharray:6,4"/>
<path class="bond-5 atom-5 atom-6" d="M 487.8,288.8 L 479.7,293.7" style="fill:none;fill-rule:evenodd;stroke:#000000;stroke-width:2.0px;stroke-linecap:butt;stroke-linejoin:miter;stroke-opacity:1"/>
<path class="bond-5 atom-5 atom-6" d="M 487.8,290.4 L 480.5,294.9" style="fill:none;fill-rule:evenodd;stroke:#000000;stroke-width:2.0px;stroke-linecap:butt;stroke-linejoin:miter;stroke-opacity:1;stroke-dasharray:6,4"/>
<path class="bond-6 atom-6 atom-7" d="M 479.7,293.7 L 476.7,292.1" style="fill:none;fill-rule:evenodd;stroke:#000000;stroke-width:2.0px;stroke-linecap:butt;stroke-linejoin:miter;stroke-opacity:1"/>
<path class="bond-6 atom-6 atom-7" d="M 476.7,292.1 L 473.7,290.5" style="fill:none;fill-rule:evenodd;stroke:#FF0000;stroke-width:2.0px;stroke-linecap:butt;stroke-linejoin:miter;stroke-opacity:1"/>
<path d="M 520.6,287.9 L 520.5,287.9 L 520.1,288.1" style="fill:none;stroke:#000000;stroke-width:2.0px;stroke-linecap:butt;stroke-linejoin:miter;stroke-opacity:1;"/>
<path d="M 512.8,292.6 L 512.4,292.8 L 512.0,292.6" style="fill:none;stroke:#000000;stroke-width:2.0px;stroke-linecap:butt;stroke-linejoin:miter;stroke-opacity:1;"/>
<path d="M 504.5,288.5 L 504.1,288.3 L 503.7,288.6" style="fill:none;stroke:#000000;stroke-width:2.0px;stroke-linecap:butt;stroke-linejoin:miter;stroke-opacity:1;"/>
<path d="M 496.5,293.0 L 496.1,293.3 L 495.7,293.0" style="fill:none;stroke:#000000;stroke-width:2.0px;stroke-linecap:butt;stroke-linejoin:miter;stroke-opacity:1;"/>
<path d="M 488.2,289.0 L 487.8,288.8 L 487.4,289.0" style="fill:none;stroke:#000000;stroke-width:2.0px;stroke-linecap:butt;stroke-linejoin:miter;stroke-opacity:1;"/>
<path d="M 480.1,293.5 L 479.7,293.7 L 479.6,293.6" style="fill:none;stroke:#000000;stroke-width:2.0px;stroke-linecap:butt;stroke-linejoin:miter;stroke-opacity:1;"/>
<path class="atom-0" d="M 526.8 292.4 Q 526.8 291.3, 527.4 290.8 Q 527.9 290.2, 528.8 290.2 Q 529.7 290.2, 530.2 290.8 Q 530.7 291.3, 530.7 292.4 Q 530.7 293.4, 530.2 294.0 Q 529.7 294.6, 528.8 294.6 Q 527.9 294.6, 527.4 294.0 Q 526.8 293.4, 526.8 292.4 M 528.8 294.1 Q 529.4 294.1, 529.8 293.7 Q 530.1 293.2, 530.1 292.4 Q 530.1 291.5, 529.8 291.1 Q 529.4 290.7, 528.8 290.7 Q 528.1 290.7, 527.8 291.1 Q 527.4 291.5, 527.4 292.4 Q 527.4 293.2, 527.8 293.7 Q 528.1 294.1, 528.8 294.1 " fill="#FF0000"/>
<path class="atom-0" d="M 531.4 290.3 L 532.0 290.3 L 532.0 292.1 L 534.2 292.1 L 534.2 290.3 L 534.7 290.3 L 534.7 294.5 L 534.2 294.5 L 534.2 292.5 L 532.0 292.5 L 532.0 294.5 L 531.4 294.5 L 531.4 290.3 " fill="#FF0000"/>
<path class="atom-7" d="M 465.3 287.1 L 465.8 287.1 L 465.8 288.9 L 468.0 288.9 L 468.0 287.1 L 468.6 287.1 L 468.6 291.4 L 468.0 291.4 L 468.0 289.4 L 465.8 289.4 L 465.8 291.4 L 465.3 291.4 L 465.3 287.1 " fill="#FF0000"/>
<path class="atom-7" d="M 469.5 289.2 Q 469.5 288.2, 470.0 287.7 Q 470.5 287.1, 471.4 287.1 Q 472.4 287.1, 472.9 287.7 Q 473.4 288.2, 473.4 289.2 Q 473.4 290.3, 472.9 290.9 Q 472.3 291.4, 471.4 291.4 Q 470.5 291.4, 470.0 290.9 Q 469.5 290.3, 469.5 289.2 M 471.4 291.0 Q 472.1 291.0, 472.4 290.5 Q 472.8 290.1, 472.8 289.2 Q 472.8 288.4, 472.4 288.0 Q 472.1 287.6, 471.4 287.6 Q 470.8 287.6, 470.4 288.0 Q 470.1 288.4, 470.1 289.2 Q 470.1 290.1, 470.4 290.5 Q 470.8 291.0, 471.4 291.0 " fill="#FF0000"/>
<path class="legend" d="M 495.6 378.7 L 497.1 378.7 L 497.1 383.5 L 502.9 383.5 L 502.9 378.7 L 504.4 378.7 L 504.4 390.0 L 502.9 390.0 L 502.9 384.8 L 497.1 384.8 L 497.1 390.0 L 495.6 390.0 L 495.6 378.7 " fill="#000000"/>
<path class="bond-0 atom-0 atom-1" d="M 679.5,292.3 L 687.9,288.0" style="fill:none;fill-rule:evenodd;stroke:#000000;stroke-width:2.0px;stroke-linecap:butt;stroke-linejoin:miter;stroke-opacity:1"/>
<path class="bond-0 atom-0 atom-1" d="M 680.1,293.6 L 687.8,289.7" style="fill:none;fill-rule:evenodd;stroke:#000000;stroke-width:2.0px;stroke-linecap:butt;stroke-linejoin:miter;stroke-opacity:1"/>
<path class="bond-1 atom-1 atom-2" d="M 687.9,288.0 L 695.8,293.2" style="fill:none;fill-rule:evenodd;stroke:#000000;stroke-width:2.0px;stroke-linecap:butt;stroke-linejoin:miter;stroke-opacity:1"/>
<path class="bond-2 atom-2 atom-3" d="M 695.8,293.2 L 704.2,288.8" style="fill:none;fill-rule:evenodd;stroke:#000000;stroke-width:2.0px;stroke-linecap:butt;stroke-linejoin:miter;stroke-opacity:1"/>
<path class="bond-3 atom-3 atom-4" d="M 704.2,288.8 L 712.1,294.0" style="fill:none;fill-rule:evenodd;stroke:#000000;stroke-width:2.0px;stroke-linecap:butt;stroke-linejoin:miter;stroke-opacity:1"/>
<path class="bond-4 atom-4 atom-5" d="M 712.1,294.0 L 720.5,289.7" style="fill:none;fill-rule:evenodd;stroke:#000000;stroke-width:2.0px;stroke-linecap:butt;stroke-linejoin:miter;stroke-opacity:1"/>
<path d="M 687.4,288.2 L 687.9,288.0 L 688.3,288.3" style="fill:none;stroke:#000000;stroke-width:2.0px;stroke-linecap:butt;stroke-linejoin:miter;stroke-opacity:1;"/>
<path d="M 695.4,292.9 L 695.8,293.2 L 696.2,292.9" style="fill:none;stroke:#000000;stroke-width:2.0px;stroke-linecap:butt;stroke-linejoin:miter;stroke-opacity:1;"/>
<path d="M 703.8,289.1 L 704.2,288.8 L 704.6,289.1" style="fill:none;stroke:#000000;stroke-width:2.0px;stroke-linecap:butt;stroke-linejoin:miter;stroke-opacity:1;"/>
<path d="M 711.7,293.7 L 712.1,294.0 L 712.6,293.8" style="fill:none;stroke:#000000;stroke-width:2.0px;stroke-linecap:butt;stroke-linejoin:miter;stroke-opacity:1;"/>
<path class="legend" d="M 699.2 378.6 L 700.8 378.6 L 700.8 390.0 L 699.2 390.0 L 699.2 378.6 " fill="#000000"/>
<path class="bond-0 atom-0 atom-1" d="M 10.0,493.4 L 18.2,488.6" style="fill:none;fill-rule:evenodd;stroke:#000000;stroke-width:2.0px;stroke-linecap:butt;stroke-linejoin:miter;stroke-opacity:1"/>
<path class="bond-1 atom-1 atom-2" d="M 18.2,488.6 L 26.4,493.4" style="fill:none;fill-rule:evenodd;stroke:#000000;stroke-width:2.0px;stroke-linecap:butt;stroke-linejoin:miter;stroke-opacity:1"/>
<path class="bond-2 atom-2 atom-3" d="M 26.4,493.4 L 34.5,488.6" style="fill:none;fill-rule:evenodd;stroke:#000000;stroke-width:2.0px;stroke-linecap:butt;stroke-linejoin:miter;stroke-opacity:1"/>
<path class="bond-3 atom-3 atom-4" d="M 34.5,488.6 L 42.7,493.4" style="fill:none;fill-rule:evenodd;stroke:#000000;stroke-width:2.0px;stroke-linecap:butt;stroke-linejoin:miter;stroke-opacity:1"/>
<path class="bond-4 atom-4 atom-5" d="M 42.7,493.4 L 50.9,488.6" style="fill:none;fill-rule:evenodd;stroke:#000000;stroke-width:2.0px;stroke-linecap:butt;stroke-linejoin:miter;stroke-opacity:1"/>
<path class="bond-5 atom-5 atom-6" d="M 50.9,488.6 L 59.1,493.4" style="fill:none;fill-rule:evenodd;stroke:#000000;stroke-width:2.0px;stroke-linecap:butt;stroke-linejoin:miter;stroke-opacity:1"/>
<path class="bond-6 atom-6 atom-7" d="M 59.1,493.4 L 67.3,488.6" style="fill:none;fill-rule:evenodd;stroke:#000000;stroke-width:2.0px;stroke-linecap:butt;stroke-linejoin:miter;stroke-opacity:1"/>
<path class="bond-7 atom-7 atom-8" d="M 67.3,488.6 L 75.5,493.4" style="fill:none;fill-rule:evenodd;stroke:#000000;stroke-width:2.0px;stroke-linecap:butt;stroke-linejoin:miter;stroke-opacity:1"/>
<path class="bond-8 atom-8 atom-9" d="M 75.5,493.4 L 83.6,488.6" style="fill:none;fill-rule:evenodd;stroke:#000000;stroke-width:2.0px;stroke-linecap:butt;stroke-linejoin:miter;stroke-opacity:1"/>
<path class="bond-9 atom-9 atom-10" d="M 83.6,488.6 L 91.8,493.4" style="fill:none;fill-rule:evenodd;stroke:#000000;stroke-width:2.0px;stroke-linecap:butt;stroke-linejoin:miter;stroke-opacity:1"/>
<path class="bond-10 atom-10 atom-11" d="M 91.8,493.4 L 100.0,488.6" style="fill:none;fill-rule:evenodd;stroke:#000000;stroke-width:2.0px;stroke-linecap:butt;stroke-linejoin:miter;stroke-opacity:1"/>
<path class="bond-11 atom-11 atom-12" d="M 100.0,488.6 L 108.2,493.4" style="fill:none;fill-rule:evenodd;stroke:#000000;stroke-width:2.0px;stroke-linecap:butt;stroke-linejoin:miter;stroke-opacity:1"/>
<path class="bond-12 atom-12 atom-13" d="M 108.2,493.4 L 116.4,488.6" style="fill:none;fill-rule:evenodd;stroke:#000000;stroke-width:2.0px;stroke-linecap:butt;stroke-linejoin:miter;stroke-opacity:1"/>
<path class="bond-13 atom-13 atom-14" d="M 116.4,488.6 L 124.5,493.4" style="fill:none;fill-rule:evenodd;stroke:#000000;stroke-width:2.0px;stroke-linecap:butt;stroke-linejoin:miter;stroke-opacity:1"/>
<path class="bond-14 atom-14 atom-15" d="M 124.5,493.4 L 132.7,488.6" style="fill:none;fill-rule:evenodd;stroke:#000000;stroke-width:2.0px;stroke-linecap:butt;stroke-linejoin:miter;stroke-opacity:1"/>
<path class="bond-15 atom-15 atom-16" d="M 132.7,488.6 L 140.9,493.4" style="fill:none;fill-rule:evenodd;stroke:#000000;stroke-width:2.0px;stroke-linecap:butt;stroke-linejoin:miter;stroke-opacity:1"/>
<path class="bond-16 atom-16 atom-17" d="M 140.9,493.4 L 149.1,488.6" style="fill:none;fill-rule:evenodd;stroke:#000000;stroke-width:2.0px;stroke-linecap:butt;stroke-linejoin:miter;stroke-opacity:1"/>
<path class="bond-17 atom-17 atom-18" d="M 149.1,488.6 L 157.3,493.4" style="fill:none;fill-rule:evenodd;stroke:#000000;stroke-width:2.0px;stroke-linecap:butt;stroke-linejoin:miter;stroke-opacity:1"/>
<path class="bond-18 atom-18 atom-19" d="M 157.3,493.4 L 165.5,488.6" style="fill:none;fill-rule:evenodd;stroke:#000000;stroke-width:2.0px;stroke-linecap:butt;stroke-linejoin:miter;stroke-opacity:1"/>
<path class="bond-19 atom-19 atom-20" d="M 165.5,488.6 L 173.6,493.4" style="fill:none;fill-rule:evenodd;stroke:#000000;stroke-width:2.0px;stroke-linecap:butt;stroke-linejoin:miter;stroke-opacity:1"/>
<path class="bond-20 atom-20 atom-21" d="M 173.6,493.4 L 181.8,488.6" style="fill:none;fill-rule:evenodd;stroke:#000000;stroke-width:2.0px;stroke-linecap:butt;stroke-linejoin:miter;stroke-opacity:1"/>
<path class="bond-21 atom-21 atom-22" d="M 181.8,488.6 L 190.0,493.4" style="fill:none;fill-rule:evenodd;stroke:#000000;stroke-width:2.0px;stroke-linecap:butt;stroke-linejoin:miter;stroke-opacity:1"/>
<path d="M 17.8,488.9 L 18.2,488.6 L 18.6,488.9" style="fill:none;stroke:#000000;stroke-width:2.0px;stroke-linecap:butt;stroke-linejoin:miter;stroke-opacity:1;"/>
<path d="M 26.0,493.1 L 26.4,493.4 L 26.8,493.1" style="fill:none;stroke:#000000;stroke-width:2.0px;stroke-linecap:butt;stroke-linejoin:miter;stroke-opacity:1;"/>
<path d="M 34.1,488.9 L 34.5,488.6 L 35.0,488.9" style="fill:none;stroke:#000000;stroke-width:2.0px;stroke-linecap:butt;stroke-linejoin:miter;stroke-opacity:1;"/>
<path d="M 42.3,493.1 L 42.7,493.4 L 43.1,493.1" style="fill:none;stroke:#000000;stroke-width:2.0px;stroke-linecap:butt;stroke-linejoin:miter;stroke-opacity:1;"/>
<path d="M 50.5,488.9 L 50.9,488.6 L 51.3,488.9" style="fill:none;stroke:#000000;stroke-width:2.0px;stroke-linecap:butt;stroke-linejoin:miter;stroke-opacity:1;"/>
<path d="M 58.7,493.1 L 59.1,493.4 L 59.5,493.1" style="fill:none;stroke:#000000;stroke-width:2.0px;stroke-linecap:butt;stroke-linejoin:miter;stroke-opacity:1;"/>
<path d="M 66.9,488.9 L 67.3,488.6 L 67.7,488.9" style="fill:none;stroke:#000000;stroke-width:2.0px;stroke-linecap:butt;stroke-linejoin:miter;stroke-opacity:1;"/>
<path d="M 75.0,493.1 L 75.5,493.4 L 75.9,493.1" style="fill:none;stroke:#000000;stroke-width:2.0px;stroke-linecap:butt;stroke-linejoin:miter;stroke-opacity:1;"/>
<path d="M 83.2,488.9 L 83.6,488.6 L 84.0,488.9" style="fill:none;stroke:#000000;stroke-width:2.0px;stroke-linecap:butt;stroke-linejoin:miter;stroke-opacity:1;"/>
<path d="M 91.4,493.1 L 91.8,493.4 L 92.2,493.1" style="fill:none;stroke:#000000;stroke-width:2.0px;stroke-linecap:butt;stroke-linejoin:miter;stroke-opacity:1;"/>
<path d="M 99.6,488.9 L 100.0,488.6 L 100.4,488.9" style="fill:none;stroke:#000000;stroke-width:2.0px;stroke-linecap:butt;stroke-linejoin:miter;stroke-opacity:1;"/>
<path d="M 107.8,493.1 L 108.2,493.4 L 108.6,493.1" style="fill:none;stroke:#000000;stroke-width:2.0px;stroke-linecap:butt;stroke-linejoin:miter;stroke-opacity:1;"/>
<path d="M 116.0,488.9 L 116.4,488.6 L 116.8,488.9" style="fill:none;stroke:#000000;stroke-width:2.0px;stroke-linecap:butt;stroke-linejoin:miter;stroke-opacity:1;"/>
<path d="M 124.1,493.1 L 124.5,493.4 L 125.0,493.1" style="fill:none;stroke:#000000;stroke-width:2.0px;stroke-linecap:butt;stroke-linejoin:miter;stroke-opacity:1;"/>
<path d="M 132.3,488.9 L 132.7,488.6 L 133.1,488.9" style="fill:none;stroke:#000000;stroke-width:2.0px;stroke-linecap:butt;stroke-linejoin:miter;stroke-opacity:1;"/>
<path d="M 140.5,493.1 L 140.9,493.4 L 141.3,493.1" style="fill:none;stroke:#000000;stroke-width:2.0px;stroke-linecap:butt;stroke-linejoin:miter;stroke-opacity:1;"/>
<path d="M 148.7,488.9 L 149.1,488.6 L 149.5,488.9" style="fill:none;stroke:#000000;stroke-width:2.0px;stroke-linecap:butt;stroke-linejoin:miter;stroke-opacity:1;"/>
<path d="M 156.9,493.1 L 157.3,493.4 L 157.7,493.1" style="fill:none;stroke:#000000;stroke-width:2.0px;stroke-linecap:butt;stroke-linejoin:miter;stroke-opacity:1;"/>
<path d="M 165.0,488.9 L 165.5,488.6 L 165.9,488.9" style="fill:none;stroke:#000000;stroke-width:2.0px;stroke-linecap:butt;stroke-linejoin:miter;stroke-opacity:1;"/>
<path d="M 173.2,493.1 L 173.6,493.4 L 174.0,493.1" style="fill:none;stroke:#000000;stroke-width:2.0px;stroke-linecap:butt;stroke-linejoin:miter;stroke-opacity:1;"/>
<path d="M 181.4,488.9 L 181.8,488.6 L 182.2,488.9" style="fill:none;stroke:#000000;stroke-width:2.0px;stroke-linecap:butt;stroke-linejoin:miter;stroke-opacity:1;"/>
<path class="legend" d="M 98.0 588.8 Q 98.0 588.8, 98.7 588.4 Q 99.4 588.0, 100.0 587.3 Q 100.5 586.7, 100.5 585.8 L 100.5 577.7 L 98.3 577.7 L 98.3 576.4 L 102.0 576.4 L 102.0 585.8 Q 102.0 587.1, 101.3 588.0 Q 100.5 589.0, 99.6 589.5 Q 98.6 590.1, 98.6 590.0 L 98.0 588.8 " fill="#000000"/>
<path class="bond-0 atom-0 atom-1" d="M 339.7,509.3 L 338.7,499.9" style="fill:none;fill-rule:evenodd;stroke:#000000;stroke-width:2.0px;stroke-linecap:butt;stroke-linejoin:miter;stroke-opacity:1"/>
<path class="bond-1 atom-1 atom-2" d="M 338.7,499.9 L 330.0,496.1" style="fill:none;fill-rule:evenodd;stroke:#000000;stroke-width:2.0px;stroke-linecap:butt;stroke-linejoin:miter;stroke-opacity:1"/>
<path class="bond-2 atom-2 atom-3" d="M 330.0,496.1 L 329.0,486.7" style="fill:none;fill-rule:evenodd;stroke:#000000;stroke-width:2.0px;stroke-linecap:butt;stroke-linejoin:miter;stroke-opacity:1"/>
<path class="bond-3 atom-3 atom-4" d="M 329.0,486.7 L 336.6,481.1" style="fill:none;fill-rule:evenodd;stroke:#000000;stroke-width:2.0px;stroke-linecap:butt;stroke-linejoin:miter;stroke-opacity:1"/>
<path class="bond-4 atom-3 atom-5" d="M 329.0,486.7 L 320.4,482.9" style="fill:none;fill-rule:evenodd;stroke:#000000;stroke-width:2.0px;stroke-linecap:butt;stroke-linejoin:miter;stroke-opacity:1"/>
<path class="bond-5 atom-5 atom-6" d="M 320.4,482.9 L 318.3,473.7" style="fill:none;fill-rule:evenodd;stroke:#000000;stroke-width:2.0px;stroke-linecap:butt;stroke-linejoin:miter;stroke-opacity:1"/>
<path class="bond-6 atom-6 atom-7" d="M 318.3,473.7 L 308.9,472.7" style="fill:none;fill-rule:evenodd;stroke:#000000;stroke-width:2.0px;stroke-linecap:butt;stroke-linejoin:miter;stroke-opacity:1"/>
<path class="bond-7 atom-7 atom-8" d="M 308.9,472.7 L 305.1,481.4" style="fill:none;fill-rule:evenodd;stroke:#000000;stroke-width:2.0px;stroke-linecap:butt;stroke-linejoin:miter;stroke-opacity:1"/>
<path class="bond-8 atom-8 atom-9" d="M 305.1,481.4 L 296.2,484.3" style="fill:none;fill-rule:evenodd;stroke:#000000;stroke-width:2.0px;stroke-linecap:butt;stroke-linejoin:miter;stroke-opacity:1"/>
<path class="bond-9 atom-9 atom-10" d="M 296.2,484.3 L 289.1,478.0" style="fill:none;fill-rule:evenodd;stroke:#000000;stroke-width:2.0px;stroke-linecap:butt;stroke-linejoin:miter;stroke-opacity:1"/>
<path class="bond-10 atom-10 atom-11" d="M 289.1,478.0 L 280.1,481.0" style="fill:none;fill-rule:evenodd;stroke:#000000;stroke-width:2.0px;stroke-linecap:butt;stroke-linejoin:miter;stroke-opacity:1"/>
<path class="bond-11 atom-9 atom-12" d="M 296.2,484.3 L 294.3,493.6" style="fill:none;fill-rule:evenodd;stroke:#000000;stroke-width:2.0px;stroke-linecap:butt;stroke-linejoin:miter;stroke-opacity:1"/>
<path class="bond-12 atom-12 atom-13" d="M 294.3,493.6 L 285.3,496.5" style="fill:none;fill-rule:evenodd;stroke:#000000;stroke-width:2.0px;stroke-linecap:butt;stroke-linejoin:miter;stroke-opacity:1"/>
<path class="bond-13 atom-13 atom-14" d="M 285.3,496.5 L 288.2,505.5" style="fill:none;fill-rule:evenodd;stroke:#000000;stroke-width:2.0px;stroke-linecap:butt;stroke-linejoin:miter;stroke-opacity:1"/>
<path class="bond-14 atom-13 atom-15" d="M 285.3,496.5 L 282.3,487.6" style="fill:none;fill-rule:evenodd;stroke:#000000;stroke-width:2.0px;stroke-linecap:butt;stroke-linejoin:miter;stroke-opacity:1"/>
<path class="bond-15 atom-15 atom-16" d="M 282.3,487.6 L 273.1,485.6" style="fill:none;fill-rule:evenodd;stroke:#000000;stroke-width:2.0px;stroke-linecap:butt;stroke-linejoin:miter;stroke-opacity:1"/>
<path class="bond-16 atom-13 atom-17" d="M 285.3,496.5 L 276.3,499.5" style="fill:none;fill-rule:evenodd;stroke:#000000;stroke-width:2.0px;stroke-linecap:butt;stroke-linejoin:miter;stroke-opacity:1"/>
<path class="bond-17 atom-17 atom-18" d="M 276.3,499.5 L 269.3,493.2" style="fill:none;fill-rule:evenodd;stroke:#000000;stroke-width:2.0px;stroke-linecap:butt;stroke-linejoin:miter;stroke-opacity:1"/>
<path class="bond-18 atom-18 atom-19" d="M 269.3,493.2 L 260.3,496.2" style="fill:none;fill-rule:evenodd;stroke:#000000;stroke-width:2.0px;stroke-linecap:butt;stroke-linejoin:miter;stroke-opacity:1"/>
<path class="bond-19 atom-12 atom-20" d="M 294.3,493.6 L 301.3,499.9" style="fill:none;fill-rule:evenodd;stroke:#000000;stroke-width:2.0px;stroke-linecap:butt;stroke-linejoin:miter;stroke-opacity:1"/>
<path class="bond-20 atom-20 atom-21" d="M 301.3,499.9 L 310.3,496.9" style="fill:none;fill-rule:evenodd;stroke:#000000;stroke-width:2.0px;stroke-linecap:butt;stroke-linejoin:miter;stroke-opacity:1"/>
<path class="bond-21 atom-21 atom-22" d="M 310.3,496.9 L 312.2,487.7" style="fill:none;fill-rule:evenodd;stroke:#000000;stroke-width:2.0px;stroke-linecap:butt;stroke-linejoin:miter;stroke-opacity:1"/>
<path class="bond-22 atom-22 atom-23" d="M 312.2,487.7 L 319.9,493.2" style="fill:none;fill-rule:evenodd;stroke:#000000;stroke-width:2.0px;stroke-linecap:butt;stroke-linejoin:miter;stroke-opacity:1"/>
<path class="bond-23 atom-22 atom-5" d="M 312.2,487.7 L 320.4,482.9" style="fill:none;fill-rule:evenodd;stroke:#000000;stroke-width:2.0px;stroke-linecap:butt;stroke-linejoin:miter;stroke-opacity:1"/>
<path class="bond-24 atom-22 atom-8" d="M 312.2,487.7 L 305.1,481.4" style="fill:none;fill-rule:evenodd;stroke:#000000;stroke-width:2.0px;stroke-linecap:butt;stroke-linejoin:miter;stroke-opacity:1"/>
<path d="M 338.7,500.4 L 338.7,499.9 L 338.2,499.7" style="fill:none;stroke:#000000;stroke-width:2.0px;stroke-linecap:butt;stroke-linejoin:miter;stroke-opacity:1;"/>
<path d="M 330.5,496.3 L 330.0,496.1 L 330.0,495.6" style="fill:none;stroke:#000000;stroke-width:2.0px;stroke-linecap:butt;stroke-linejoin:miter;stroke-opacity:1;"/>
<path d="M 318.4,474.1 L 318.3,473.7 L 317.9,473.6" style="fill:none;stroke:#000000;stroke-width:2.0px;stroke-linecap:butt;stroke-linejoin:miter;stroke-opacity:1;"/>
<path d="M 309.4,472.8 L 308.9,472.7 L 308.8,473.2" style="fill:none;stroke:#000000;stroke-width:2.0px;stroke-linecap:butt;stroke-linejoin:miter;stroke-opacity:1;"/>
<path d="M 289.5,478.4 L 289.1,478.0 L 288.7,478.2" style="fill:none;stroke:#000000;stroke-width:2.0px;stroke-linecap:butt;stroke-linejoin:miter;stroke-opacity:1;"/>
<path d="M 282.5,488.0 L 282.3,487.6 L 281.9,487.5" style="fill:none;stroke:#000000;stroke-width:2.0px;stroke-linecap:butt;stroke-linejoin:miter;stroke-opacity:1;"/>
<path d="M 276.8,499.4 L 276.3,499.5 L 276.0,499.2" style="fill:none;stroke:#000000;stroke-width:2.0px;stroke-linecap:butt;stroke-linejoin:miter;stroke-opacity:1;"/>
<path d="M 269.6,493.5 L 269.3,493.2 L 268.8,493.4" style="fill:none;stroke:#000000;stroke-width:2.0px;stroke-linecap:butt;stroke-linejoin:miter;stroke-opacity:1;"/>
<path d="M 300.9,499.6 L 301.3,499.9 L 301.7,499.7" style="fill:none;stroke:#000000;stroke-width:2.0px;stroke-linecap:butt;stroke-linejoin:miter;stroke-opacity:1;"/>
<path d="M 309.8,497.1 L 310.3,496.9 L 310.4,496.4" style="fill:none;stroke:#000000;stroke-width:2.0px;stroke-linecap:butt;stroke-linejoin:miter;stroke-opacity:1;"/>
<path class="legend" d="M 295.6 578.7 L 297.2 578.7 L 297.2 590.0 L 295.6 590.0 L 295.6 578.7 M 301.9 578.7 L 304.0 578.7 L 299.5 583.8 L 304.4 590.0 L 302.3 590.0 L 297.5 583.9 L 301.9 578.7 " fill="#000000"/>
</svg>