<svg xmlns="http://www.w3.org/2000/svg" xmlns:rdkit="http://www.rdkit.org/xml" xmlns:xlink="http://www.w3.org/1999/xlink" version="1.1" baseProfile="full" xml:space="preserve" width="800px" height="200px" viewBox="0 0 800 200">
<!-- END OF HEADER -->
<rect style="opacity:1.0;fill:#FFFFFF;stroke:none" width="800.0" height="200.0" x="0.0" y="0.0"> </rect>
<path class="bond-0 atom-0 atom-1" d="M 60.8,122.6 L 64.5,104.3" style="fill:none;fill-rule:evenodd;stroke:#000000;stroke-width:2.0px;stroke-linecap:butt;stroke-linejoin:miter;stroke-opacity:1"/>
<path class="bond-1 atom-1 atom-2" d="M 64.5,104.3 L 50.5,91.9" style="fill:none;fill-rule:evenodd;stroke:#000000;stroke-width:2.0px;stroke-linecap:butt;stroke-linejoin:miter;stroke-opacity:1"/>
<path class="bond-1 atom-1 atom-2" d="M 65.2,101.1 L 53.6,90.9" style="fill:none;fill-rule:evenodd;stroke:#000000;stroke-width:2.0px;stroke-linecap:butt;stroke-linejoin:miter;stroke-opacity:1"/>
<path class="bond-2 atom-2 atom-3" d="M 50.5,91.9 L 54.2,73.6" style="fill:none;fill-rule:evenodd;stroke:#000000;stroke-width:2.0px;stroke-linecap:butt;stroke-linejoin:miter;stroke-opacity:1"/>
<path class="bond-3 atom-3 atom-4" d="M 54.2,73.6 L 71.9,67.6" style="fill:none;fill-rule:evenodd;stroke:#000000;stroke-width:2.0px;stroke-linecap:butt;stroke-linejoin:miter;stroke-opacity:1"/>
<path class="bond-3 atom-3 atom-4" d="M 56.6,75.7 L 71.3,70.8" style="fill:none;fill-rule:evenodd;stroke:#000000;stroke-width:2.0px;stroke-linecap:butt;stroke-linejoin:miter;stroke-opacity:1"/>
<path class="bond-4 atom-4 atom-5" d="M 71.9,67.6 L 86.0,80.0" style="fill:none;fill-rule:evenodd;stroke:#000000;stroke-width:2.0px;stroke-linecap:butt;stroke-linejoin:miter;stroke-opacity:1"/>
<path class="bond-5 atom-5 atom-6" d="M 86.0,80.0 L 82.3,98.3" style="fill:none;fill-rule:evenodd;stroke:#000000;stroke-width:2.0px;stroke-linecap:butt;stroke-linejoin:miter;stroke-opacity:1"/>
<path class="bond-5 atom-5 atom-6" d="M 82.9,81.0 L 79.8,96.2" style="fill:none;fill-rule:evenodd;stroke:#000000;stroke-width:2.0px;stroke-linecap:butt;stroke-linejoin:miter;stroke-opacity:1"/>
<path class="bond-6 atom-6 atom-7" d="M 82.3,98.3 L 96.3,110.7" style="fill:none;fill-rule:evenodd;stroke:#000000;stroke-width:2.0px;stroke-linecap:butt;stroke-linejoin:miter;stroke-opacity:1"/>
<path class="bond-7 atom-7 atom-8" d="M 96.3,110.7 L 114.0,104.7" style="fill:none;fill-rule:evenodd;stroke:#000000;stroke-width:2.0px;stroke-linecap:butt;stroke-linejoin:miter;stroke-opacity:1"/>
<path class="bond-8 atom-8 atom-9" d="M 114.0,104.7 L 128.1,117.1" style="fill:none;fill-rule:evenodd;stroke:#000000;stroke-width:2.0px;stroke-linecap:butt;stroke-linejoin:miter;stroke-opacity:1"/>
<path class="bond-8 atom-8 atom-9" d="M 117.1,103.7 L 128.7,113.9" style="fill:none;fill-rule:evenodd;stroke:#000000;stroke-width:2.0px;stroke-linecap:butt;stroke-linejoin:miter;stroke-opacity:1"/>
<path class="bond-9 atom-9 atom-10" d="M 128.1,117.1 L 145.8,111.1" style="fill:none;fill-rule:evenodd;stroke:#000000;stroke-width:2.0px;stroke-linecap:butt;stroke-linejoin:miter;stroke-opacity:1"/>
<path class="bond-10 atom-10 atom-11" d="M 145.8,111.1 L 149.5,92.8" style="fill:none;fill-rule:evenodd;stroke:#000000;stroke-width:2.0px;stroke-linecap:butt;stroke-linejoin:miter;stroke-opacity:1"/>
<path class="bond-10 atom-10 atom-11" d="M 143.4,109.0 L 146.4,93.8" style="fill:none;fill-rule:evenodd;stroke:#000000;stroke-width:2.0px;stroke-linecap:butt;stroke-linejoin:miter;stroke-opacity:1"/>
<path class="bond-11 atom-11 atom-12" d="M 149.5,92.8 L 135.5,80.4" style="fill:none;fill-rule:evenodd;stroke:#000000;stroke-width:2.0px;stroke-linecap:butt;stroke-linejoin:miter;stroke-opacity:1"/>
<path class="bond-12 atom-12 atom-13" d="M 135.5,80.4 L 137.0,72.9" style="fill:none;fill-rule:evenodd;stroke:#000000;stroke-width:2.0px;stroke-linecap:butt;stroke-linejoin:miter;stroke-opacity:1"/>
<path class="bond-12 atom-12 atom-13" d="M 137.0,72.9 L 138.5,65.4" style="fill:none;fill-rule:evenodd;stroke:#FF0000;stroke-width:2.0px;stroke-linecap:butt;stroke-linejoin:miter;stroke-opacity:1"/>
<path class="bond-13 atom-12 atom-14" d="M 135.5,80.4 L 117.7,86.4" style="fill:none;fill-rule:evenodd;stroke:#000000;stroke-width:2.0px;stroke-linecap:butt;stroke-linejoin:miter;stroke-opacity:1"/>
<path class="bond-13 atom-12 atom-14" d="M 134.8,83.6 L 120.2,88.5" style="fill:none;fill-rule:evenodd;stroke:#000000;stroke-width:2.0px;stroke-linecap:butt;stroke-linejoin:miter;stroke-opacity:1"/>
<path class="bond-14 atom-6 atom-1" d="M 82.3,98.3 L 64.5,104.3" style="fill:none;fill-rule:evenodd;stroke:#000000;stroke-width:2.0px;stroke-linecap:butt;stroke-linejoin:miter;stroke-opacity:1"/>
<path class="bond-15 atom-14 atom-8" d="M 117.7,86.4 L 114.0,104.7" style="fill:none;fill-rule:evenodd;stroke:#000000;stroke-width:2.0px;stroke-linecap:butt;stroke-linejoin:miter;stroke-opacity:1"/>
<path d="M 51.2,92.5 L 50.5,91.9 L 50.7,91.0" style="fill:none;stroke:#000000;stroke-width:2.0px;stroke-linecap:butt;stroke-linejoin:miter;stroke-opacity:1;"/>
<path d="M 54.0,74.5 L 54.2,73.6 L 55.1,73.3" style="fill:none;stroke:#000000;stroke-width:2.0px;stroke-linecap:butt;stroke-linejoin:miter;stroke-opacity:1;"/>
<path d="M 71.0,67.9 L 71.9,67.6 L 72.6,68.2" style="fill:none;stroke:#000000;stroke-width:2.0px;stroke-linecap:butt;stroke-linejoin:miter;stroke-opacity:1;"/>
<path d="M 85.3,79.4 L 86.0,80.0 L 85.8,80.9" style="fill:none;stroke:#000000;stroke-width:2.0px;stroke-linecap:butt;stroke-linejoin:miter;stroke-opacity:1;"/>
<path d="M 95.6,110.1 L 96.3,110.7 L 97.2,110.4" style="fill:none;stroke:#000000;stroke-width:2.0px;stroke-linecap:butt;stroke-linejoin:miter;stroke-opacity:1;"/>
<path d="M 127.4,116.5 L 128.1,117.1 L 129.0,116.8" style="fill:none;stroke:#000000;stroke-width:2.0px;stroke-linecap:butt;stroke-linejoin:miter;stroke-opacity:1;"/>
<path d="M 144.9,111.4 L 145.8,111.1 L 146.0,110.2" style="fill:none;stroke:#000000;stroke-width:2.0px;stroke-linecap:butt;stroke-linejoin:miter;stroke-opacity:1;"/>
<path d="M 149.3,93.7 L 149.5,92.8 L 148.8,92.1" style="fill:none;stroke:#000000;stroke-width:2.0px;stroke-linecap:butt;stroke-linejoin:miter;stroke-opacity:1;"/>
<path d="M 118.6,86.1 L 117.7,86.4 L 117.5,87.3" style="fill:none;stroke:#000000;stroke-width:2.0px;stroke-linecap:butt;stroke-linejoin:miter;stroke-opacity:1;"/>
<path class="atom-13" d="M 136.7 62.0 Q 136.7 60.8, 137.4 60.1 Q 138.0 59.4, 139.2 59.4 Q 140.3 59.4, 141.0 60.1 Q 141.6 60.8, 141.6 62.0 Q 141.6 63.3, 141.0 64.1 Q 140.3 64.8, 139.2 64.8 Q 138.0 64.8, 137.4 64.1 Q 136.7 63.3, 136.7 62.0 M 139.2 64.2 Q 140.0 64.2, 140.4 63.7 Q 140.8 63.1, 140.8 62.0 Q 140.8 61.0, 140.4 60.5 Q 140.0 60.0, 139.2 60.0 Q 138.3 60.0, 137.9 60.5 Q 137.5 61.0, 137.5 62.0 Q 137.5 63.1, 137.9 63.7 Q 138.3 64.2, 139.2 64.2 " fill="#FF0000"/>
<path class="atom-13" d="M 142.4 59.4 L 143.1 59.4 L 143.1 61.7 L 145.8 61.7 L 145.8 59.4 L 146.6 59.4 L 146.6 64.7 L 145.8 64.7 L 145.8 62.3 L 143.1 62.3 L 143.1 64.7 L 142.4 64.7 L 142.4 59.4 " fill="#FF0000"/>
<path class="legend" d="M 103.4 190.0 L 102.2 186.7 L 97.8 186.7 L 96.6 190.0 L 95.1 190.0 L 99.0 178.7 L 100.9 178.7 L 104.9 190.0 L 103.4 190.0 M 98.2 185.4 L 101.8 185.4 L 100.0 180.3 L 98.2 185.4 " fill="#000000"/>
<path class="bond-0 atom-0 atom-1" d="M 247.7,95.5 L 263.9,86.2" style="fill:none;fill-rule:evenodd;stroke:#000000;stroke-width:2.0px;stroke-linecap:butt;stroke-linejoin:miter;stroke-opacity:1"/>
<path class="bond-1 atom-1 atom-2" d="M 263.9,86.2 L 280.1,95.5" style="fill:none;fill-rule:evenodd;stroke:#000000;stroke-width:2.0px;stroke-linecap:butt;stroke-linejoin:miter;stroke-opacity:1"/>
<path class="bond-2 atom-2 atom-3" d="M 280.1,95.5 L 296.3,86.2" style="fill:none;fill-rule:evenodd;stroke:#000000;stroke-width:2.0px;stroke-linecap:butt;stroke-linejoin:miter;stroke-opacity:1"/>
<path class="bond-2 atom-2 atom-3" d="M 280.1,92.3 L 294.9,83.7" style="fill:none;fill-rule:evenodd;stroke:#000000;stroke-width:2.0px;stroke-linecap:butt;stroke-linejoin:miter;stroke-opacity:1;stroke-dasharray:6,4"/>
<path class="bond-3 atom-3 atom-4" d="M 296.3,86.2 L 312.5,95.5" style="fill:none;fill-rule:evenodd;stroke:#000000;stroke-width:2.0px;stroke-linecap:butt;stroke-linejoin:miter;stroke-opacity:1"/>
<path class="bond-3 atom-3 atom-4" d="M 296.3,89.4 L 311.1,97.9" style="fill:none;fill-rule:evenodd;stroke:#000000;stroke-width:2.0px;stroke-linecap:butt;stroke-linejoin:miter;stroke-opacity:1;stroke-dasharray:6,4"/>
<path class="bond-4 atom-4 atom-5" d="M 312.5,95.5 L 328.7,86.2" style="fill:none;fill-rule:evenodd;stroke:#000000;stroke-width:2.0px;stroke-linecap:butt;stroke-linejoin:miter;stroke-opacity:1"/>
<path class="bond-4 atom-4 atom-5" d="M 312.5,92.3 L 327.3,83.7" style="fill:none;fill-rule:evenodd;stroke:#000000;stroke-width:2.0px;stroke-linecap:butt;stroke-linejoin:miter;stroke-opacity:1;stroke-dasharray:6,4"/>
<path class="bond-5 atom-5 atom-6" d="M 328.7,86.2 L 335.3,90.0" style="fill:none;fill-rule:evenodd;stroke:#000000;stroke-width:2.0px;stroke-linecap:butt;stroke-linejoin:miter;stroke-opacity:1"/>
<path class="bond-5 atom-5 atom-6" d="M 335.3,90.0 L 341.9,93.8" style="fill:none;fill-rule:evenodd;stroke:#FF0000;stroke-width:2.0px;stroke-linecap:butt;stroke-linejoin:miter;stroke-opacity:1"/>
<path d="M 263.1,86.6 L 263.9,86.2 L 264.7,86.6" style="fill:none;stroke:#000000;stroke-width:2.0px;stroke-linecap:butt;stroke-linejoin:miter;stroke-opacity:1;"/>
<path d="M 279.3,95.0 L 280.1,95.5 L 280.9,95.0" style="fill:none;stroke:#000000;stroke-width:2.0px;stroke-linecap:butt;stroke-linejoin:miter;stroke-opacity:1;"/>
<path d="M 295.5,86.6 L 296.3,86.2 L 297.1,86.6" style="fill:none;stroke:#000000;stroke-width:2.0px;stroke-linecap:butt;stroke-linejoin:miter;stroke-opacity:1;"/>
<path d="M 311.7,95.0 L 312.5,95.5 L 313.3,95.0" style="fill:none;stroke:#000000;stroke-width:2.0px;stroke-linecap:butt;stroke-linejoin:miter;stroke-opacity:1;"/>
<path d="M 327.9,86.6 L 328.7,86.2 L 329.0,86.3" style="fill:none;stroke:#000000;stroke-width:2.0px;stroke-linecap:butt;stroke-linejoin:miter;stroke-opacity:1;"/>
<path class="atom-6" d="M 342.5 95.5 Q 342.5 94.3, 343.1 93.5 Q 343.7 92.8, 344.9 92.8 Q 346.1 92.8, 346.7 93.5 Q 347.4 94.3, 347.4 95.5 Q 347.4 96.8, 346.7 97.5 Q 346.1 98.3, 344.9 98.3 Q 343.8 98.3, 343.1 97.5 Q 342.5 96.8, 342.5 95.5 M 344.9 97.7 Q 345.7 97.7, 346.2 97.1 Q 346.6 96.6, 346.6 95.5 Q 346.6 94.5, 346.2 94.0 Q 345.7 93.4, 344.9 93.4 Q 344.1 93.4, 343.7 94.0 Q 343.2 94.5, 343.2 95.5 Q 343.2 96.6, 343.7 97.1 Q 344.1 97.7, 344.9 97.7 " fill="#FF0000"/>
<path class="atom-6" d="M 348.2 92.9 L 348.9 92.9 L 348.9 95.1 L 351.6 95.1 L 351.6 92.9 L 352.3 92.9 L 352.3 98.2 L 351.6 98.2 L 351.6 95.7 L 348.9 95.7 L 348.9 98.2 L 348.2 98.2 L 348.2 92.9 " fill="#FF0000"/>
<path class="legend" d="M 301.7 184.0 Q 302.7 184.4, 303.3 185.0 Q 303.8 185.7, 303.8 186.7 Q 303.8 188.2, 302.8 189.1 Q 301.8 190.0, 300.0 190.0 L 296.2 190.0 L 296.2 178.7 L 299.5 178.7 Q 301.4 178.7, 302.4 179.5 Q 303.4 180.2, 303.4 181.7 Q 303.4 183.4, 301.7 184.0 M 297.7 180.0 L 297.7 183.5 L 299.5 183.5 Q 300.6 183.5, 301.2 183.1 Q 301.8 182.6, 301.8 181.7 Q 301.8 180.0, 299.5 180.0 L 297.7 180.0 M 300.0 188.7 Q 301.1 188.7, 301.7 188.2 Q 302.2 187.7, 302.2 186.7 Q 302.2 185.7, 301.6 185.3 Q 301.0 184.8, 299.7 184.8 L 297.7 184.8 L 297.7 188.7 L 300.0 188.7 " fill="#000000"/>
<path class="bond-0 atom-0 atom-1" d="M 437.6,74.2 L 436.8,82.2" style="fill:none;fill-rule:evenodd;stroke:#FF0000;stroke-width:2.0px;stroke-linecap:butt;stroke-linejoin:miter;stroke-opacity:1"/>
<path class="bond-0 atom-0 atom-1" d="M 436.8,82.2 L 436.0,90.3" style="fill:none;fill-rule:evenodd;stroke:#000000;stroke-width:2.0px;stroke-linecap:butt;stroke-linejoin:miter;stroke-opacity:1"/>
<path class="bond-0 atom-0 atom-1" d="M 434.8,73.9 L 434.0,82.0" style="fill:none;fill-rule:evenodd;stroke:#FF0000;stroke-width:2.0px;stroke-linecap:butt;stroke-linejoin:miter;stroke-opacity:1"/>
<path class="bond-0 atom-0 atom-1" d="M 434.0,82.0 L 433.2,90.0" style="fill:none;fill-rule:evenodd;stroke:#000000;stroke-width:2.0px;stroke-linecap:butt;stroke-linejoin:miter;stroke-opacity:1"/>
<path class="bond-1 atom-1 atom-2" d="M 434.7,89.3 L 427.7,92.5" style="fill:none;fill-rule:evenodd;stroke:#000000;stroke-width:2.0px;stroke-linecap:butt;stroke-linejoin:miter;stroke-opacity:1"/>
<path class="bond-1 atom-1 atom-2" d="M 427.7,92.5 L 420.7,95.7" style="fill:none;fill-rule:evenodd;stroke:#FF0000;stroke-width:2.0px;stroke-linecap:butt;stroke-linejoin:miter;stroke-opacity:1"/>
<path class="bond-2 atom-1 atom-3" d="M 434.7,89.3 L 449.9,100.2" style="fill:none;fill-rule:evenodd;stroke:#000000;stroke-width:2.0px;stroke-linecap:butt;stroke-linejoin:miter;stroke-opacity:1"/>
<path class="bond-3 atom-3 atom-4" d="M 449.9,100.2 L 467.0,92.4" style="fill:none;fill-rule:evenodd;stroke:#000000;stroke-width:2.0px;stroke-linecap:butt;stroke-linejoin:miter;stroke-opacity:1"/>
<path class="bond-4 atom-4 atom-5" d="M 467.0,92.4 L 467.7,84.8" style="fill:none;fill-rule:evenodd;stroke:#000000;stroke-width:2.0px;stroke-linecap:butt;stroke-linejoin:miter;stroke-opacity:1"/>
<path class="bond-4 atom-4 atom-5" d="M 467.7,84.8 L 468.4,77.2" style="fill:none;fill-rule:evenodd;stroke:#FF0000;stroke-width:2.0px;stroke-linecap:butt;stroke-linejoin:miter;stroke-opacity:1"/>
<path class="bond-5 atom-4 atom-6" d="M 467.0,92.4 L 482.2,103.3" style="fill:none;fill-rule:evenodd;stroke:#000000;stroke-width:2.0px;stroke-linecap:butt;stroke-linejoin:miter;stroke-opacity:1"/>
<path class="bond-6 atom-6 atom-7" d="M 480.9,102.4 L 480.1,110.5" style="fill:none;fill-rule:evenodd;stroke:#000000;stroke-width:2.0px;stroke-linecap:butt;stroke-linejoin:miter;stroke-opacity:1"/>
<path class="bond-6 atom-6 atom-7" d="M 480.1,110.5 L 479.3,118.5" style="fill:none;fill-rule:evenodd;stroke:#FF0000;stroke-width:2.0px;stroke-linecap:butt;stroke-linejoin:miter;stroke-opacity:1"/>
<path class="bond-6 atom-6 atom-7" d="M 483.7,102.7 L 482.9,110.7" style="fill:none;fill-rule:evenodd;stroke:#000000;stroke-width:2.0px;stroke-linecap:butt;stroke-linejoin:miter;stroke-opacity:1"/>
<path class="bond-6 atom-6 atom-7" d="M 482.9,110.7 L 482.1,118.8" style="fill:none;fill-rule:evenodd;stroke:#FF0000;stroke-width:2.0px;stroke-linecap:butt;stroke-linejoin:miter;stroke-opacity:1"/>
<path class="bond-7 atom-6 atom-8" d="M 482.2,103.3 L 489.2,100.1" style="fill:none;fill-rule:evenodd;stroke:#000000;stroke-width:2.0px;stroke-linecap:butt;stroke-linejoin:miter;stroke-opacity:1"/>
<path class="bond-7 atom-6 atom-8" d="M 489.2,100.1 L 496.2,97.0" style="fill:none;fill-rule:evenodd;stroke:#FF0000;stroke-width:2.0px;stroke-linecap:butt;stroke-linejoin:miter;stroke-opacity:1"/>
<path class="bond-8 atom-8 atom-9" d="M 502.3,97.8 L 508.4,102.1" style="fill:none;fill-rule:evenodd;stroke:#FF0000;stroke-width:2.0px;stroke-linecap:butt;stroke-linejoin:miter;stroke-opacity:1"/>
<path class="bond-8 atom-8 atom-9" d="M 508.4,102.1 L 514.5,106.5" style="fill:none;fill-rule:evenodd;stroke:#000000;stroke-width:2.0px;stroke-linecap:butt;stroke-linejoin:miter;stroke-opacity:1"/>
<path class="bond-9 atom-9 atom-10" d="M 514.5,106.5 L 531.5,98.7" style="fill:none;fill-rule:evenodd;stroke:#000000;stroke-width:2.0px;stroke-linecap:butt;stroke-linejoin:miter;stroke-opacity:1"/>
<path class="bond-10 atom-10 atom-11" d="M 531.5,98.7 L 532.2,91.1" style="fill:none;fill-rule:evenodd;stroke:#000000;stroke-width:2.0px;stroke-linecap:butt;stroke-linejoin:miter;stroke-opacity:1"/>
<path class="bond-10 atom-10 atom-11" d="M 532.2,91.1 L 533.0,83.5" style="fill:none;fill-rule:evenodd;stroke:#FF0000;stroke-width:2.0px;stroke-linecap:butt;stroke-linejoin:miter;stroke-opacity:1"/>
<path class="bond-11 atom-11 atom-12" d="M 536.3,78.7 L 543.3,75.5" style="fill:none;fill-rule:evenodd;stroke:#FF0000;stroke-width:2.0px;stroke-linecap:butt;stroke-linejoin:miter;stroke-opacity:1"/>
<path class="bond-11 atom-11 atom-12" d="M 543.3,75.5 L 550.3,72.3" style="fill:none;fill-rule:evenodd;stroke:#000000;stroke-width:2.0px;stroke-linecap:butt;stroke-linejoin:miter;stroke-opacity:1"/>
<path class="bond-12 atom-12 atom-13" d="M 550.3,72.3 L 551.1,64.7" style="fill:none;fill-rule:evenodd;stroke:#000000;stroke-width:2.0px;stroke-linecap:butt;stroke-linejoin:miter;stroke-opacity:1"/>
<path class="bond-12 atom-12 atom-13" d="M 551.1,64.7 L 551.8,57.1" style="fill:none;fill-rule:evenodd;stroke:#FF0000;stroke-width:2.0px;stroke-linecap:butt;stroke-linejoin:miter;stroke-opacity:1"/>
<path class="bond-13 atom-12 atom-14" d="M 550.3,72.3 L 565.6,83.2" style="fill:none;fill-rule:evenodd;stroke:#000000;stroke-width:2.0px;stroke-linecap:butt;stroke-linejoin:miter;stroke-opacity:1"/>
<path class="bond-14 atom-14 atom-15" d="M 565.6,83.2 L 572.6,80.0" style="fill:none;fill-rule:evenodd;stroke:#000000;stroke-width:2.0px;stroke-linecap:butt;stroke-linejoin:miter;stroke-opacity:1"/>
<path class="bond-14 atom-14 atom-15" d="M 572.6,80.0 L 579.5,76.8" style="fill:none;fill-rule:evenodd;stroke:#FF0000;stroke-width:2.0px;stroke-linecap:butt;stroke-linejoin:miter;stroke-opacity:1"/>
<path class="bond-15 atom-14 atom-16" d="M 565.6,83.2 L 563.8,101.8" style="fill:none;fill-rule:evenodd;stroke:#000000;stroke-width:2.0px;stroke-linecap:butt;stroke-linejoin:miter;stroke-opacity:1"/>
<path class="bond-16 atom-16 atom-17" d="M 563.8,101.8 L 569.8,106.2" style="fill:none;fill-rule:evenodd;stroke:#000000;stroke-width:2.0px;stroke-linecap:butt;stroke-linejoin:miter;stroke-opacity:1"/>
<path class="bond-16 atom-16 atom-17" d="M 569.8,106.2 L 575.9,110.5" style="fill:none;fill-rule:evenodd;stroke:#FF0000;stroke-width:2.0px;stroke-linecap:butt;stroke-linejoin:miter;stroke-opacity:1"/>
<path class="bond-17 atom-16 atom-18" d="M 563.8,101.8 L 546.7,109.6" style="fill:none;fill-rule:evenodd;stroke:#000000;stroke-width:2.0px;stroke-linecap:butt;stroke-linejoin:miter;stroke-opacity:1"/>
<path class="bond-18 atom-18 atom-19" d="M 546.7,109.6 L 546.0,117.3" style="fill:none;fill-rule:evenodd;stroke:#000000;stroke-width:2.0px;stroke-linecap:butt;stroke-linejoin:miter;stroke-opacity:1"/>
<path class="bond-18 atom-18 atom-19" d="M 546.0,117.3 L 545.2,124.9" style="fill:none;fill-rule:evenodd;stroke:#FF0000;stroke-width:2.0px;stroke-linecap:butt;stroke-linejoin:miter;stroke-opacity:1"/>
<path class="bond-19 atom-18 atom-10" d="M 546.7,109.6 L 531.5,98.7" style="fill:none;fill-rule:evenodd;stroke:#000000;stroke-width:2.0px;stroke-linecap:butt;stroke-linejoin:miter;stroke-opacity:1"/>
<path d="M 434.4,89.5 L 434.7,89.3 L 435.5,89.9" style="fill:none;stroke:#000000;stroke-width:2.0px;stroke-linecap:butt;stroke-linejoin:miter;stroke-opacity:1;"/>
<path d="M 449.2,99.7 L 449.9,100.2 L 450.8,99.8" style="fill:none;stroke:#000000;stroke-width:2.0px;stroke-linecap:butt;stroke-linejoin:miter;stroke-opacity:1;"/>
<path d="M 481.4,102.8 L 482.2,103.3 L 482.5,103.2" style="fill:none;stroke:#000000;stroke-width:2.0px;stroke-linecap:butt;stroke-linejoin:miter;stroke-opacity:1;"/>
<path d="M 514.2,106.2 L 514.5,106.5 L 515.3,106.1" style="fill:none;stroke:#000000;stroke-width:2.0px;stroke-linecap:butt;stroke-linejoin:miter;stroke-opacity:1;"/>
<path class="atom-0" d="M 434.1 70.7 Q 434.1 69.4, 434.7 68.7 Q 435.3 68.0, 436.5 68.0 Q 437.7 68.0, 438.3 68.7 Q 438.9 69.4, 438.9 70.7 Q 438.9 72.0, 438.3 72.7 Q 437.7 73.5, 436.5 73.5 Q 435.3 73.5, 434.7 72.7 Q 434.1 72.0, 434.1 70.7 M 436.5 72.9 Q 437.3 72.9, 437.8 72.3 Q 438.2 71.8, 438.2 70.7 Q 438.2 69.7, 437.8 69.1 Q 437.3 68.6, 436.5 68.6 Q 435.7 68.6, 435.3 69.1 Q 434.8 69.7, 434.8 70.7 Q 434.8 71.8, 435.3 72.3 Q 435.7 72.9, 436.5 72.9 " fill="#FF0000"/>
<path class="atom-2" d="M 410.0 94.4 L 410.7 94.4 L 410.7 96.7 L 413.4 96.7 L 413.4 94.4 L 414.1 94.4 L 414.1 99.7 L 413.4 99.7 L 413.4 97.3 L 410.7 97.3 L 410.7 99.7 L 410.0 99.7 L 410.0 94.4 " fill="#FF0000"/>
<path class="atom-2" d="M 415.2 97.1 Q 415.2 95.8, 415.9 95.1 Q 416.5 94.4, 417.7 94.4 Q 418.8 94.4, 419.5 95.1 Q 420.1 95.8, 420.1 97.1 Q 420.1 98.4, 419.5 99.1 Q 418.8 99.8, 417.7 99.8 Q 416.5 99.8, 415.9 99.1 Q 415.2 98.4, 415.2 97.1 M 417.7 99.2 Q 418.5 99.2, 418.9 98.7 Q 419.4 98.1, 419.4 97.1 Q 419.4 96.0, 418.9 95.5 Q 418.5 95.0, 417.7 95.0 Q 416.9 95.0, 416.4 95.5 Q 416.0 96.0, 416.0 97.1 Q 416.0 98.2, 416.4 98.7 Q 416.9 99.2, 417.7 99.2 " fill="#FF0000"/>
<path class="atom-5" d="M 466.3 73.8 Q 466.3 72.6, 467.0 71.9 Q 467.6 71.1, 468.8 71.1 Q 469.9 71.1, 470.6 71.9 Q 471.2 72.6, 471.2 73.8 Q 471.2 75.1, 470.6 75.9 Q 469.9 76.6, 468.8 76.6 Q 467.6 76.6, 467.0 75.9 Q 466.3 75.1, 466.3 73.8 M 468.8 76.0 Q 469.6 76.0, 470.0 75.4 Q 470.5 74.9, 470.5 73.8 Q 470.5 72.8, 470.0 72.3 Q 469.6 71.7, 468.8 71.7 Q 468.0 71.7, 467.5 72.3 Q 467.1 72.8, 467.1 73.8 Q 467.1 74.9, 467.5 75.4 Q 468.0 76.0, 468.8 76.0 " fill="#FF0000"/>
<path class="atom-5" d="M 472.0 71.2 L 472.7 71.2 L 472.7 73.5 L 475.5 73.5 L 475.5 71.2 L 476.2 71.2 L 476.2 76.5 L 475.5 76.5 L 475.5 74.1 L 472.7 74.1 L 472.7 76.5 L 472.0 76.5 L 472.0 71.2 " fill="#FF0000"/>
<path class="atom-7" d="M 478.0 122.0 Q 478.0 120.7, 478.6 120.0 Q 479.2 119.3, 480.4 119.3 Q 481.6 119.3, 482.2 120.0 Q 482.8 120.7, 482.8 122.0 Q 482.8 123.3, 482.2 124.0 Q 481.5 124.7, 480.4 124.7 Q 479.2 124.7, 478.6 124.0 Q 478.0 123.3, 478.0 122.0 M 480.4 124.1 Q 481.2 124.1, 481.6 123.6 Q 482.1 123.0, 482.1 122.0 Q 482.1 120.9, 481.6 120.4 Q 481.2 119.9, 480.4 119.9 Q 479.6 119.9, 479.1 120.4 Q 478.7 120.9, 478.7 122.0 Q 478.7 123.0, 479.1 123.6 Q 479.6 124.1, 480.4 124.1 " fill="#FF0000"/>
<path class="atom-8" d="M 496.8 95.6 Q 496.8 94.3, 497.4 93.6 Q 498.1 92.9, 499.2 92.9 Q 500.4 92.9, 501.0 93.6 Q 501.7 94.3, 501.7 95.6 Q 501.7 96.9, 501.0 97.6 Q 500.4 98.3, 499.2 98.3 Q 498.1 98.3, 497.4 97.6 Q 496.8 96.9, 496.8 95.6 M 499.2 97.7 Q 500.0 97.7, 500.5 97.2 Q 500.9 96.7, 500.9 95.6 Q 500.9 94.6, 500.5 94.0 Q 500.0 93.5, 499.2 93.5 Q 498.4 93.5, 498.0 94.0 Q 497.5 94.5, 497.5 95.6 Q 497.5 96.7, 498.0 97.2 Q 498.4 97.7, 499.2 97.7 " fill="#FF0000"/>
<path class="atom-11" d="M 530.9 80.1 Q 530.9 78.8, 531.5 78.1 Q 532.1 77.4, 533.3 77.4 Q 534.5 77.4, 535.1 78.1 Q 535.7 78.8, 535.7 80.1 Q 535.7 81.4, 535.1 82.1 Q 534.5 82.8, 533.3 82.8 Q 532.1 82.8, 531.5 82.1 Q 530.9 81.4, 530.9 80.1 M 533.3 82.2 Q 534.1 82.2, 534.5 81.7 Q 535.0 81.2, 535.0 80.1 Q 535.0 79.1, 534.5 78.5 Q 534.1 78.0, 533.3 78.0 Q 532.5 78.0, 532.0 78.5 Q 531.6 79.0, 531.6 80.1 Q 531.6 81.2, 532.0 81.7 Q 532.5 82.2, 533.3 82.2 " fill="#FF0000"/>
<path class="atom-13" d="M 549.7 53.7 Q 549.7 52.4, 550.3 51.7 Q 551.0 51.0, 552.1 51.0 Q 553.3 51.0, 553.9 51.7 Q 554.6 52.4, 554.6 53.7 Q 554.6 55.0, 553.9 55.7 Q 553.3 56.5, 552.1 56.5 Q 551.0 56.5, 550.3 55.7 Q 549.7 55.0, 549.7 53.7 M 552.1 55.9 Q 552.9 55.9, 553.4 55.3 Q 553.8 54.8, 553.8 53.7 Q 553.8 52.7, 553.4 52.2 Q 552.9 51.6, 552.1 51.6 Q 551.3 51.6, 550.9 52.1 Q 550.5 52.7, 550.5 53.7 Q 550.5 54.8, 550.9 55.3 Q 551.3 55.9, 552.1 55.9 " fill="#FF0000"/>
<path class="atom-13" d="M 555.4 51.1 L 556.1 51.1 L 556.1 53.3 L 558.8 53.3 L 558.8 51.1 L 559.5 51.1 L 559.5 56.4 L 558.8 56.4 L 558.8 53.9 L 556.1 53.9 L 556.1 56.4 L 555.4 56.4 L 555.4 51.1 " fill="#FF0000"/>
<path class="atom-15" d="M 580.2 75.5 Q 580.2 74.2, 580.8 73.5 Q 581.4 72.8, 582.6 72.8 Q 583.8 72.8, 584.4 73.5 Q 585.0 74.2, 585.0 75.5 Q 585.0 76.8, 584.4 77.5 Q 583.8 78.2, 582.6 78.2 Q 581.4 78.2, 580.8 77.5 Q 580.2 76.8, 580.2 75.5 M 582.6 77.6 Q 583.4 77.6, 583.8 77.1 Q 584.3 76.5, 584.3 75.5 Q 584.3 74.4, 583.8 73.9 Q 583.4 73.4, 582.6 73.4 Q 581.8 73.4, 581.3 73.9 Q 580.9 74.4, 580.9 75.5 Q 580.9 76.5, 581.3 77.1 Q 581.8 77.6, 582.6 77.6 " fill="#FF0000"/>
<path class="atom-15" d="M 585.9 72.8 L 586.6 72.8 L 586.6 75.1 L 589.3 75.1 L 589.3 72.8 L 590.0 72.8 L 590.0 78.1 L 589.3 78.1 L 589.3 75.7 L 586.6 75.7 L 586.6 78.1 L 585.9 78.1 L 585.9 72.8 " fill="#FF0000"/>
<path class="atom-17" d="M 576.5 112.7 Q 576.5 111.5, 577.2 110.7 Q 577.8 110.0, 579.0 110.0 Q 580.2 110.0, 580.8 110.7 Q 581.4 111.5, 581.4 112.7 Q 581.4 114.0, 580.8 114.8 Q 580.1 115.5, 579.0 115.5 Q 577.8 115.5, 577.2 114.8 Q 576.5 114.0, 576.5 112.7 M 579.0 114.9 Q 579.8 114.9, 580.2 114.3 Q 580.7 113.8, 580.7 112.7 Q 580.7 111.7, 580.2 111.2 Q 579.8 110.6, 579.0 110.6 Q 578.2 110.6, 577.7 111.2 Q 577.3 111.7, 577.3 112.7 Q 577.3 113.8, 577.7 114.3 Q 578.2 114.9, 579.0 114.9 " fill="#FF0000"/>
<path class="atom-17" d="M 582.2 110.1 L 583.0 110.1 L 583.0 112.3 L 585.7 112.3 L 585.7 110.1 L 586.4 110.1 L 586.4 115.4 L 585.7 115.4 L 585.7 112.9 L 583.0 112.9 L 583.0 115.4 L 582.2 115.4 L 582.2 110.1 " fill="#FF0000"/>
<path class="atom-19" d="M 542.5 128.2 Q 542.5 127.0, 543.1 126.2 Q 543.7 125.5, 544.9 125.5 Q 546.1 125.5, 546.7 126.2 Q 547.3 127.0, 547.3 128.2 Q 547.3 129.5, 546.7 130.2 Q 546.1 131.0, 544.9 131.0 Q 543.7 131.0, 543.1 130.2 Q 542.5 129.5, 542.5 128.2 M 544.9 130.4 Q 545.7 130.4, 546.2 129.8 Q 546.6 129.3, 546.6 128.2 Q 546.6 127.2, 546.2 126.7 Q 545.7 126.1, 544.9 126.1 Q 544.1 126.1, 543.7 126.7 Q 543.2 127.2, 543.2 128.2 Q 543.2 129.3, 543.7 129.8 Q 544.1 130.4, 544.9 130.4 " fill="#FF0000"/>
<path class="atom-19" d="M 548.2 125.6 L 548.9 125.6 L 548.9 127.8 L 551.6 127.8 L 551.6 125.6 L 552.3 125.6 L 552.3 130.9 L 551.6 130.9 L 551.6 128.4 L 548.9 128.4 L 548.9 130.9 L 548.2 130.9 L 548.2 125.6 " fill="#FF0000"/>
<path class="legend" d="M 495.6 184.2 Q 495.6 181.4, 496.9 179.9 Q 498.3 178.4, 500.8 178.4 Q 503.1 178.4, 504.4 180.0 L 503.3 180.9 Q 502.4 179.7, 500.8 179.7 Q 499.1 179.7, 498.2 180.9 Q 497.3 182.0, 497.3 184.2 Q 497.3 186.4, 498.2 187.6 Q 499.1 188.7, 501.0 188.7 Q 502.2 188.7, 503.7 188.0 L 504.1 189.2 Q 503.5 189.6, 502.6 189.8 Q 501.7 190.0, 500.7 190.0 Q 498.3 190.0, 496.9 188.5 Q 495.6 187.0, 495.6 184.2 " fill="#000000"/>
</svg>