<svg xmlns="http://www.w3.org/2000/svg" xmlns:rdkit="http://www.rdkit.org/xml" xmlns:xlink="http://www.w3.org/1999/xlink" version="1.1" baseProfile="full" xml:space="preserve" width="800px" height="400px" viewBox="0 0 800 400">
<!-- END OF HEADER -->
<rect style="opacity:1.0;fill:#FFFFFF;stroke:none" width="800.0" height="400.0" x="0.0" y="0.0"> </rect>
<path class="bond-0 atom-0 atom-1" d="M 122.4,81.4 L 119.3,86.7" style="fill:none;fill-rule:evenodd;stroke:#FF0000;stroke-width:2.0px;stroke-linecap:butt;stroke-linejoin:miter;stroke-opacity:1"/>
<path class="bond-0 atom-0 atom-1" d="M 119.3,86.7 L 116.2,92.1" style="fill:none;fill-rule:evenodd;stroke:#000000;stroke-width:2.0px;stroke-linecap:butt;stroke-linejoin:miter;stroke-opacity:1"/>
<path class="bond-0 atom-0 atom-1" d="M 120.5,80.3 L 117.4,85.6" style="fill:none;fill-rule:evenodd;stroke:#FF0000;stroke-width:2.0px;stroke-linecap:butt;stroke-linejoin:miter;stroke-opacity:1"/>
<path class="bond-0 atom-0 atom-1" d="M 117.4,85.6 L 114.3,91.0" style="fill:none;fill-rule:evenodd;stroke:#000000;stroke-width:2.0px;stroke-linecap:butt;stroke-linejoin:miter;stroke-opacity:1"/>
<path class="bond-1 atom-1 atom-2" d="M 115.6,91.0 L 118.5,96.1" style="fill:none;fill-rule:evenodd;stroke:#000000;stroke-width:2.0px;stroke-linecap:butt;stroke-linejoin:miter;stroke-opacity:1"/>
<path class="bond-1 atom-1 atom-2" d="M 118.5,96.1 L 121.5,101.2" style="fill:none;fill-rule:evenodd;stroke:#FF0000;stroke-width:2.0px;stroke-linecap:butt;stroke-linejoin:miter;stroke-opacity:1"/>
<path class="bond-2 atom-1 atom-3" d="M 115.6,91.0 L 100.7,91.0" style="fill:none;fill-rule:evenodd;stroke:#000000;stroke-width:2.0px;stroke-linecap:butt;stroke-linejoin:miter;stroke-opacity:1"/>
<path class="bond-3 atom-3 atom-4" d="M 100.7,91.0 L 93.3,103.8" style="fill:none;fill-rule:evenodd;stroke:#000000;stroke-width:2.0px;stroke-linecap:butt;stroke-linejoin:miter;stroke-opacity:1"/>
<path class="bond-3 atom-3 atom-4" d="M 98.2,91.0 L 92.0,101.6" style="fill:none;fill-rule:evenodd;stroke:#000000;stroke-width:2.0px;stroke-linecap:butt;stroke-linejoin:miter;stroke-opacity:1"/>
<path class="bond-4 atom-4 atom-5" d="M 93.3,103.8 L 78.5,103.8" style="fill:none;fill-rule:evenodd;stroke:#000000;stroke-width:2.0px;stroke-linecap:butt;stroke-linejoin:miter;stroke-opacity:1"/>
<path class="bond-5 atom-5 atom-6" d="M 78.5,103.8 L 71.1,91.0" style="fill:none;fill-rule:evenodd;stroke:#000000;stroke-width:2.0px;stroke-linecap:butt;stroke-linejoin:miter;stroke-opacity:1"/>
<path class="bond-5 atom-5 atom-6" d="M 79.8,101.6 L 73.6,91.0" style="fill:none;fill-rule:evenodd;stroke:#000000;stroke-width:2.0px;stroke-linecap:butt;stroke-linejoin:miter;stroke-opacity:1"/>
<path class="bond-6 atom-6 atom-7" d="M 71.1,91.0 L 78.5,78.1" style="fill:none;fill-rule:evenodd;stroke:#000000;stroke-width:2.0px;stroke-linecap:butt;stroke-linejoin:miter;stroke-opacity:1"/>
<path class="bond-7 atom-7 atom-8" d="M 78.5,78.1 L 93.3,78.1" style="fill:none;fill-rule:evenodd;stroke:#000000;stroke-width:2.0px;stroke-linecap:butt;stroke-linejoin:miter;stroke-opacity:1"/>
<path class="bond-7 atom-7 atom-8" d="M 79.8,80.3 L 92.0,80.3" style="fill:none;fill-rule:evenodd;stroke:#000000;stroke-width:2.0px;stroke-linecap:butt;stroke-linejoin:miter;stroke-opacity:1"/>
<path class="bond-8 atom-8 atom-3" d="M 93.3,78.1 L 100.7,91.0" style="fill:none;fill-rule:evenodd;stroke:#000000;stroke-width:2.0px;stroke-linecap:butt;stroke-linejoin:miter;stroke-opacity:1"/>
<path d="M 115.7,91.2 L 115.6,91.0 L 114.8,91.0" style="fill:none;stroke:#000000;stroke-width:2.0px;stroke-linecap:butt;stroke-linejoin:miter;stroke-opacity:1;"/>
<path d="M 93.7,103.2 L 93.3,103.8 L 92.6,103.8" style="fill:none;stroke:#000000;stroke-width:2.0px;stroke-linecap:butt;stroke-linejoin:miter;stroke-opacity:1;"/>
<path d="M 79.2,103.8 L 78.5,103.8 L 78.1,103.2" style="fill:none;stroke:#000000;stroke-width:2.0px;stroke-linecap:butt;stroke-linejoin:miter;stroke-opacity:1;"/>
<path d="M 71.4,91.6 L 71.1,91.0 L 71.4,90.3" style="fill:none;stroke:#000000;stroke-width:2.0px;stroke-linecap:butt;stroke-linejoin:miter;stroke-opacity:1;"/>
<path d="M 78.1,78.8 L 78.5,78.1 L 79.2,78.1" style="fill:none;stroke:#000000;stroke-width:2.0px;stroke-linecap:butt;stroke-linejoin:miter;stroke-opacity:1;"/>
<path d="M 92.6,78.1 L 93.3,78.1 L 93.7,78.8" style="fill:none;stroke:#000000;stroke-width:2.0px;stroke-linecap:butt;stroke-linejoin:miter;stroke-opacity:1;"/>
<path class="atom-0" d="M 121.1 78.1 Q 121.1 77.1, 121.6 76.5 Q 122.1 76.0, 123.0 76.0 Q 124.0 76.0, 124.5 76.5 Q 125.0 77.1, 125.0 78.1 Q 125.0 79.2, 124.5 79.7 Q 123.9 80.3, 123.0 80.3 Q 122.1 80.3, 121.6 79.7 Q 121.1 79.2, 121.1 78.1 M 123.0 79.8 Q 123.7 79.8, 124.0 79.4 Q 124.4 79.0, 124.4 78.1 Q 124.4 77.3, 124.0 76.9 Q 123.7 76.4, 123.0 76.4 Q 122.4 76.4, 122.0 76.9 Q 121.7 77.3, 121.7 78.1 Q 121.7 79.0, 122.0 79.4 Q 122.4 79.8, 123.0 79.8 " fill="#FF0000"/>
<path class="atom-2" d="M 121.1 103.8 Q 121.1 102.8, 121.6 102.2 Q 122.1 101.7, 123.0 101.7 Q 124.0 101.7, 124.5 102.2 Q 125.0 102.8, 125.0 103.8 Q 125.0 104.9, 124.5 105.5 Q 123.9 106.0, 123.0 106.0 Q 122.1 106.0, 121.6 105.5 Q 121.1 104.9, 121.1 103.8 M 123.0 105.6 Q 123.7 105.6, 124.0 105.1 Q 124.4 104.7, 124.4 103.8 Q 124.4 103.0, 124.0 102.6 Q 123.7 102.2, 123.0 102.2 Q 122.4 102.2, 122.0 102.6 Q 121.7 103.0, 121.7 103.8 Q 121.7 104.7, 122.0 105.1 Q 122.4 105.6, 123.0 105.6 " fill="#FF0000"/>
<path class="atom-2" d="M 125.6 101.7 L 126.2 101.7 L 126.2 103.5 L 128.4 103.5 L 128.4 101.7 L 128.9 101.7 L 128.9 106.0 L 128.4 106.0 L 128.4 104.0 L 126.2 104.0 L 126.2 106.0 L 125.6 106.0 L 125.6 101.7 " fill="#FF0000"/>
<path class="legend" d="M 103.4 190.0 L 102.2 186.7 L 97.8 186.7 L 96.6 190.0 L 95.1 190.0 L 99.0 178.7 L 100.9 178.7 L 104.9 190.0 L 103.4 190.0 M 98.2 185.4 L 101.8 185.4 L 100.0 180.3 L 98.2 185.4 " fill="#000000"/>
<path class="bond-0 atom-0 atom-1" d="M 269.7,101.0 L 271.5,94.9" style="fill:none;fill-rule:evenodd;stroke:#FF0000;stroke-width:2.0px;stroke-linecap:butt;stroke-linejoin:miter;stroke-opacity:1"/>
<path class="bond-0 atom-0 atom-1" d="M 271.5,94.9 L 273.3,88.8" style="fill:none;fill-rule:evenodd;stroke:#000000;stroke-width:2.0px;stroke-linecap:butt;stroke-linejoin:miter;stroke-opacity:1"/>
<path class="bond-0 atom-0 atom-1" d="M 271.8,101.6 L 273.6,95.5" style="fill:none;fill-rule:evenodd;stroke:#FF0000;stroke-width:2.0px;stroke-linecap:butt;stroke-linejoin:miter;stroke-opacity:1"/>
<path class="bond-0 atom-0 atom-1" d="M 273.6,95.5 L 275.5,89.4" style="fill:none;fill-rule:evenodd;stroke:#000000;stroke-width:2.0px;stroke-linecap:butt;stroke-linejoin:miter;stroke-opacity:1"/>
<path class="bond-1 atom-1 atom-2" d="M 274.2,89.7 L 270.3,85.6" style="fill:none;fill-rule:evenodd;stroke:#000000;stroke-width:2.0px;stroke-linecap:butt;stroke-linejoin:miter;stroke-opacity:1"/>
<path class="bond-1 atom-1 atom-2" d="M 270.3,85.6 L 266.4,81.5" style="fill:none;fill-rule:evenodd;stroke:#FF0000;stroke-width:2.0px;stroke-linecap:butt;stroke-linejoin:miter;stroke-opacity:1"/>
<path class="bond-2 atom-1 atom-3" d="M 274.2,89.7 L 288.6,86.2" style="fill:none;fill-rule:evenodd;stroke:#000000;stroke-width:2.0px;stroke-linecap:butt;stroke-linejoin:miter;stroke-opacity:1"/>
<path class="bond-3 atom-3 atom-4" d="M 288.6,86.2 L 298.9,97.0" style="fill:none;fill-rule:evenodd;stroke:#000000;stroke-width:2.0px;stroke-linecap:butt;stroke-linejoin:miter;stroke-opacity:1"/>
<path class="bond-3 atom-3 atom-4" d="M 287.9,88.7 L 297.2,98.5" style="fill:none;fill-rule:evenodd;stroke:#000000;stroke-width:2.0px;stroke-linecap:butt;stroke-linejoin:miter;stroke-opacity:1"/>
<path class="bond-4 atom-4 atom-5" d="M 298.9,97.0 L 313.3,93.5" style="fill:none;fill-rule:evenodd;stroke:#000000;stroke-width:2.0px;stroke-linecap:butt;stroke-linejoin:miter;stroke-opacity:1"/>
<path class="bond-5 atom-5 atom-6" d="M 313.3,93.5 L 317.5,79.3" style="fill:none;fill-rule:evenodd;stroke:#000000;stroke-width:2.0px;stroke-linecap:butt;stroke-linejoin:miter;stroke-opacity:1"/>
<path class="bond-5 atom-5 atom-6" d="M 315.8,92.9 L 319.3,81.2" style="fill:none;fill-rule:evenodd;stroke:#000000;stroke-width:2.0px;stroke-linecap:butt;stroke-linejoin:miter;stroke-opacity:1"/>
<path class="bond-6 atom-6 atom-7" d="M 317.5,79.3 L 331.9,75.8" style="fill:none;fill-rule:evenodd;stroke:#000000;stroke-width:2.0px;stroke-linecap:butt;stroke-linejoin:miter;stroke-opacity:1"/>
<path class="bond-7 atom-7 atom-8" d="M 331.9,75.8 L 342.2,86.6" style="fill:none;fill-rule:evenodd;stroke:#000000;stroke-width:2.0px;stroke-linecap:butt;stroke-linejoin:miter;stroke-opacity:1"/>
<path class="bond-7 atom-7 atom-8" d="M 331.2,78.3 L 339.7,87.2" style="fill:none;fill-rule:evenodd;stroke:#000000;stroke-width:2.0px;stroke-linecap:butt;stroke-linejoin:miter;stroke-opacity:1"/>
<path class="bond-8 atom-8 atom-9" d="M 342.2,86.6 L 337.9,100.8" style="fill:none;fill-rule:evenodd;stroke:#000000;stroke-width:2.0px;stroke-linecap:butt;stroke-linejoin:miter;stroke-opacity:1"/>
<path class="bond-9 atom-9 atom-10" d="M 337.9,100.8 L 323.5,104.3" style="fill:none;fill-rule:evenodd;stroke:#000000;stroke-width:2.0px;stroke-linecap:butt;stroke-linejoin:miter;stroke-opacity:1"/>
<path class="bond-9 atom-9 atom-10" d="M 336.2,99.0 L 324.2,101.8" style="fill:none;fill-rule:evenodd;stroke:#000000;stroke-width:2.0px;stroke-linecap:butt;stroke-linejoin:miter;stroke-opacity:1"/>
<path class="bond-10 atom-10 atom-5" d="M 323.5,104.3 L 313.3,93.5" style="fill:none;fill-rule:evenodd;stroke:#000000;stroke-width:2.0px;stroke-linecap:butt;stroke-linejoin:miter;stroke-opacity:1"/>
<path d="M 274.0,89.5 L 274.2,89.7 L 274.9,89.5" style="fill:none;stroke:#000000;stroke-width:2.0px;stroke-linecap:butt;stroke-linejoin:miter;stroke-opacity:1;"/>
<path d="M 287.9,86.4 L 288.6,86.2 L 289.1,86.8" style="fill:none;stroke:#000000;stroke-width:2.0px;stroke-linecap:butt;stroke-linejoin:miter;stroke-opacity:1;"/>
<path d="M 298.3,96.5 L 298.9,97.0 L 299.6,96.8" style="fill:none;stroke:#000000;stroke-width:2.0px;stroke-linecap:butt;stroke-linejoin:miter;stroke-opacity:1;"/>
<path d="M 317.3,80.0 L 317.5,79.3 L 318.2,79.1" style="fill:none;stroke:#000000;stroke-width:2.0px;stroke-linecap:butt;stroke-linejoin:miter;stroke-opacity:1;"/>
<path d="M 331.2,76.0 L 331.9,75.8 L 332.5,76.4" style="fill:none;stroke:#000000;stroke-width:2.0px;stroke-linecap:butt;stroke-linejoin:miter;stroke-opacity:1;"/>
<path d="M 341.7,86.1 L 342.2,86.6 L 342.0,87.3" style="fill:none;stroke:#000000;stroke-width:2.0px;stroke-linecap:butt;stroke-linejoin:miter;stroke-opacity:1;"/>
<path d="M 338.2,100.1 L 337.9,100.8 L 337.2,101.0" style="fill:none;stroke:#000000;stroke-width:2.0px;stroke-linecap:butt;stroke-linejoin:miter;stroke-opacity:1;"/>
<path d="M 324.2,104.1 L 323.5,104.3 L 323.0,103.8" style="fill:none;stroke:#000000;stroke-width:2.0px;stroke-linecap:butt;stroke-linejoin:miter;stroke-opacity:1;"/>
<path class="atom-0" d="M 268.0 104.0 Q 268.0 102.9, 268.5 102.4 Q 269.0 101.8, 270.0 101.8 Q 270.9 101.8, 271.4 102.4 Q 271.9 102.9, 271.9 104.0 Q 271.9 105.0, 271.4 105.6 Q 270.9 106.2, 270.0 106.2 Q 269.0 106.2, 268.5 105.6 Q 268.0 105.0, 268.0 104.0 M 270.0 105.7 Q 270.6 105.7, 271.0 105.2 Q 271.3 104.8, 271.3 104.0 Q 271.3 103.1, 271.0 102.7 Q 270.6 102.3, 270.0 102.3 Q 269.3 102.3, 269.0 102.7 Q 268.6 103.1, 268.6 104.0 Q 268.6 104.8, 269.0 105.2 Q 269.3 105.7, 270.0 105.7 " fill="#FF0000"/>
<path class="atom-2" d="M 257.8 76.8 L 258.4 76.8 L 258.4 78.6 L 260.6 78.6 L 260.6 76.8 L 261.2 76.8 L 261.2 81.1 L 260.6 81.1 L 260.6 79.1 L 258.4 79.1 L 258.4 81.1 L 257.8 81.1 L 257.8 76.8 " fill="#FF0000"/>
<path class="atom-2" d="M 262.0 78.9 Q 262.0 77.9, 262.5 77.4 Q 263.0 76.8, 264.0 76.8 Q 264.9 76.8, 265.4 77.4 Q 265.9 77.9, 265.9 78.9 Q 265.9 80.0, 265.4 80.6 Q 264.9 81.2, 264.0 81.2 Q 263.0 81.2, 262.5 80.6 Q 262.0 80.0, 262.0 78.9 M 264.0 80.7 Q 264.6 80.7, 265.0 80.2 Q 265.3 79.8, 265.3 78.9 Q 265.3 78.1, 265.0 77.7 Q 264.6 77.3, 264.0 77.3 Q 263.3 77.3, 263.0 77.7 Q 262.6 78.1, 262.6 78.9 Q 262.6 79.8, 263.0 80.2 Q 263.3 80.7, 264.0 80.7 " fill="#FF0000"/>
<path class="legend" d="M 301.7 184.0 Q 302.7 184.4, 303.3 185.0 Q 303.8 185.7, 303.8 186.7 Q 303.8 188.2, 302.8 189.1 Q 301.8 190.0, 300.0 190.0 L 296.2 190.0 L 296.2 178.7 L 299.5 178.7 Q 301.4 178.7, 302.4 179.5 Q 303.4 180.2, 303.4 181.7 Q 303.4 183.4, 301.7 184.0 M 297.7 180.0 L 297.7 183.5 L 299.5 183.5 Q 300.6 183.5, 301.2 183.1 Q 301.8 182.6, 301.8 181.7 Q 301.8 180.0, 299.5 180.0 L 297.7 180.0 M 300.0 188.7 Q 301.1 188.7, 301.7 188.2 Q 302.2 187.7, 302.2 186.7 Q 302.2 185.7, 301.6 185.3 Q 301.0 184.8, 299.7 184.8 L 297.7 184.8 L 297.7 188.7 L 300.0 188.7 " fill="#000000"/>
<path class="bond-0 atom-0 atom-1" d="M 467.0,93.3 L 480.2,86.6" style="fill:none;fill-rule:evenodd;stroke:#000000;stroke-width:2.0px;stroke-linecap:butt;stroke-linejoin:miter;stroke-opacity:1"/>
<path class="bond-1 atom-1 atom-2" d="M 480.2,86.6 L 492.7,94.6" style="fill:none;fill-rule:evenodd;stroke:#000000;stroke-width:2.0px;stroke-linecap:butt;stroke-linejoin:miter;stroke-opacity:1"/>
<path class="bond-2 atom-2 atom-3" d="M 492.7,94.6 L 505.9,87.9" style="fill:none;fill-rule:evenodd;stroke:#000000;stroke-width:2.0px;stroke-linecap:butt;stroke-linejoin:miter;stroke-opacity:1"/>
<path class="bond-3 atom-3 atom-4" d="M 505.9,87.9 L 518.4,96.0" style="fill:none;fill-rule:evenodd;stroke:#000000;stroke-width:2.0px;stroke-linecap:butt;stroke-linejoin:miter;stroke-opacity:1"/>
<path class="bond-4 atom-4 atom-5" d="M 518.4,96.0 L 523.7,93.2" style="fill:none;fill-rule:evenodd;stroke:#000000;stroke-width:2.0px;stroke-linecap:butt;stroke-linejoin:miter;stroke-opacity:1"/>
<path class="bond-4 atom-4 atom-5" d="M 523.7,93.2 L 529.1,90.4" style="fill:none;fill-rule:evenodd;stroke:#FF0000;stroke-width:2.0px;stroke-linecap:butt;stroke-linejoin:miter;stroke-opacity:1"/>
<path class="bond-4 atom-4 atom-5" d="M 518.5,93.4 L 522.7,91.2" style="fill:none;fill-rule:evenodd;stroke:#000000;stroke-width:2.0px;stroke-linecap:butt;stroke-linejoin:miter;stroke-opacity:1"/>
<path class="bond-4 atom-4 atom-5" d="M 522.7,91.2 L 528.1,88.5" style="fill:none;fill-rule:evenodd;stroke:#FF0000;stroke-width:2.0px;stroke-linecap:butt;stroke-linejoin:miter;stroke-opacity:1"/>
<path d="M 479.5,86.9 L 480.2,86.6 L 480.8,87.0" style="fill:none;stroke:#000000;stroke-width:2.0px;stroke-linecap:butt;stroke-linejoin:miter;stroke-opacity:1;"/>
<path d="M 492.0,94.2 L 492.7,94.6 L 493.3,94.3" style="fill:none;stroke:#000000;stroke-width:2.0px;stroke-linecap:butt;stroke-linejoin:miter;stroke-opacity:1;"/>
<path d="M 505.2,88.2 L 505.9,87.9 L 506.5,88.3" style="fill:none;stroke:#000000;stroke-width:2.0px;stroke-linecap:butt;stroke-linejoin:miter;stroke-opacity:1;"/>
<path d="M 517.7,95.5 L 518.4,96.0 L 518.6,95.8" style="fill:none;stroke:#000000;stroke-width:2.0px;stroke-linecap:butt;stroke-linejoin:miter;stroke-opacity:1;"/>
<path class="atom-5" d="M 529.1 88.2 Q 529.1 87.2, 529.6 86.6 Q 530.1 86.0, 531.1 86.0 Q 532.0 86.0, 532.5 86.6 Q 533.0 87.2, 533.0 88.2 Q 533.0 89.2, 532.5 89.8 Q 532.0 90.4, 531.1 90.4 Q 530.1 90.4, 529.6 89.8 Q 529.1 89.2, 529.1 88.2 M 531.1 89.9 Q 531.7 89.9, 532.1 89.5 Q 532.4 89.1, 532.4 88.2 Q 532.4 87.4, 532.1 87.0 Q 531.7 86.5, 531.1 86.5 Q 530.4 86.5, 530.1 86.9 Q 529.7 87.4, 529.7 88.2 Q 529.7 89.1, 530.1 89.5 Q 530.4 89.9, 531.1 89.9 " fill="#FF0000"/>
<path class="legend" d="M 495.6 184.2 Q 495.6 181.4, 496.9 179.9 Q 498.3 178.4, 500.8 178.4 Q 503.1 178.4, 504.4 180.0 L 503.3 180.9 Q 502.4 179.7, 500.8 179.7 Q 499.1 179.7, 498.2 180.9 Q 497.3 182.0, 497.3 184.2 Q 497.3 186.4, 498.2 187.6 Q 499.1 188.7, 501.0 188.7 Q 502.2 188.7, 503.7 188.0 L 504.1 189.2 Q 503.5 189.6, 502.6 189.8 Q 501.7 190.0, 500.7 190.0 Q 498.3 190.0, 496.9 188.5 Q 495.6 187.0, 495.6 184.2 " fill="#000000"/>
<path class="bond-0 atom-0 atom-1" d="M 713.4,118.6 L 711.1,112.7" style="fill:none;fill-rule:evenodd;stroke:#FF0000;stroke-width:2.0px;stroke-linecap:butt;stroke-linejoin:miter;stroke-opacity:1"/>
<path class="bond-0 atom-0 atom-1" d="M 711.1,112.7 L 708.9,106.8" style="fill:none;fill-rule:evenodd;stroke:#000000;stroke-width:2.0px;stroke-linecap:butt;stroke-linejoin:miter;stroke-opacity:1"/>
<path class="bond-0 atom-0 atom-1" d="M 715.5,117.9 L 713.2,111.9" style="fill:none;fill-rule:evenodd;stroke:#FF0000;stroke-width:2.0px;stroke-linecap:butt;stroke-linejoin:miter;stroke-opacity:1"/>
<path class="bond-0 atom-0 atom-1" d="M 713.2,111.9 L 711.0,106.0" style="fill:none;fill-rule:evenodd;stroke:#000000;stroke-width:2.0px;stroke-linecap:butt;stroke-linejoin:miter;stroke-opacity:1"/>
<path class="bond-1 atom-1 atom-2" d="M 710.2,107.0 L 695.5,104.6" style="fill:none;fill-rule:evenodd;stroke:#000000;stroke-width:2.0px;stroke-linecap:butt;stroke-linejoin:miter;stroke-opacity:1"/>
<path class="bond-2 atom-2 atom-3" d="M 695.5,104.6 L 690.3,90.7" style="fill:none;fill-rule:evenodd;stroke:#000000;stroke-width:2.0px;stroke-linecap:butt;stroke-linejoin:miter;stroke-opacity:1"/>
<path class="bond-2 atom-2 atom-3" d="M 697.1,102.6 L 692.8,91.1" style="fill:none;fill-rule:evenodd;stroke:#000000;stroke-width:2.0px;stroke-linecap:butt;stroke-linejoin:miter;stroke-opacity:1"/>
<path class="bond-3 atom-3 atom-4" d="M 690.3,90.7 L 675.6,88.3" style="fill:none;fill-rule:evenodd;stroke:#000000;stroke-width:2.0px;stroke-linecap:butt;stroke-linejoin:miter;stroke-opacity:1"/>
<path class="bond-4 atom-4 atom-5" d="M 675.6,88.3 L 670.4,74.4" style="fill:none;fill-rule:evenodd;stroke:#000000;stroke-width:2.0px;stroke-linecap:butt;stroke-linejoin:miter;stroke-opacity:1"/>
<path class="bond-4 atom-4 atom-5" d="M 673.1,87.9 L 668.7,76.4" style="fill:none;fill-rule:evenodd;stroke:#000000;stroke-width:2.0px;stroke-linecap:butt;stroke-linejoin:miter;stroke-opacity:1"/>
<path class="bond-5 atom-5 atom-6" d="M 670.4,74.4 L 655.7,72.1" style="fill:none;fill-rule:evenodd;stroke:#000000;stroke-width:2.0px;stroke-linecap:butt;stroke-linejoin:miter;stroke-opacity:1"/>
<path class="bond-6 atom-6 atom-7" d="M 655.7,72.1 L 646.3,83.5" style="fill:none;fill-rule:evenodd;stroke:#000000;stroke-width:2.0px;stroke-linecap:butt;stroke-linejoin:miter;stroke-opacity:1"/>
<path class="bond-6 atom-6 atom-7" d="M 656.6,74.5 L 648.8,84.0" style="fill:none;fill-rule:evenodd;stroke:#000000;stroke-width:2.0px;stroke-linecap:butt;stroke-linejoin:miter;stroke-opacity:1"/>
<path class="bond-7 atom-7 atom-8" d="M 646.3,83.5 L 651.6,97.4" style="fill:none;fill-rule:evenodd;stroke:#000000;stroke-width:2.0px;stroke-linecap:butt;stroke-linejoin:miter;stroke-opacity:1"/>
<path class="bond-8 atom-8 atom-9" d="M 651.6,97.4 L 666.2,99.8" style="fill:none;fill-rule:evenodd;stroke:#000000;stroke-width:2.0px;stroke-linecap:butt;stroke-linejoin:miter;stroke-opacity:1"/>
<path class="bond-8 atom-8 atom-9" d="M 653.2,95.4 L 665.3,97.4" style="fill:none;fill-rule:evenodd;stroke:#000000;stroke-width:2.0px;stroke-linecap:butt;stroke-linejoin:miter;stroke-opacity:1"/>
<path class="bond-9 atom-3 atom-10" d="M 690.3,90.7 L 693.9,86.3" style="fill:none;fill-rule:evenodd;stroke:#000000;stroke-width:2.0px;stroke-linecap:butt;stroke-linejoin:miter;stroke-opacity:1"/>
<path class="bond-9 atom-3 atom-10" d="M 693.9,86.3 L 697.4,81.9" style="fill:none;fill-rule:evenodd;stroke:#FF0000;stroke-width:2.0px;stroke-linecap:butt;stroke-linejoin:miter;stroke-opacity:1"/>
<path class="bond-10 atom-10 atom-11" d="M 702.1,79.6 L 708.2,80.6" style="fill:none;fill-rule:evenodd;stroke:#FF0000;stroke-width:2.0px;stroke-linecap:butt;stroke-linejoin:miter;stroke-opacity:1"/>
<path class="bond-10 atom-10 atom-11" d="M 708.2,80.6 L 714.3,81.6" style="fill:none;fill-rule:evenodd;stroke:#000000;stroke-width:2.0px;stroke-linecap:butt;stroke-linejoin:miter;stroke-opacity:1"/>
<path class="bond-11 atom-11 atom-12" d="M 714.3,81.6 L 723.7,70.1" style="fill:none;fill-rule:evenodd;stroke:#000000;stroke-width:2.0px;stroke-linecap:butt;stroke-linejoin:miter;stroke-opacity:1"/>
<path class="bond-11 atom-11 atom-12" d="M 716.8,82.0 L 724.6,72.5" style="fill:none;fill-rule:evenodd;stroke:#000000;stroke-width:2.0px;stroke-linecap:butt;stroke-linejoin:miter;stroke-opacity:1"/>
<path class="bond-12 atom-12 atom-13" d="M 723.7,70.1 L 738.4,72.5" style="fill:none;fill-rule:evenodd;stroke:#000000;stroke-width:2.0px;stroke-linecap:butt;stroke-linejoin:miter;stroke-opacity:1"/>
<path class="bond-13 atom-13 atom-14" d="M 738.4,72.5 L 742.0,68.1" style="fill:none;fill-rule:evenodd;stroke:#000000;stroke-width:2.0px;stroke-linecap:butt;stroke-linejoin:miter;stroke-opacity:1"/>
<path class="bond-13 atom-13 atom-14" d="M 742.0,68.1 L 745.5,63.7" style="fill:none;fill-rule:evenodd;stroke:#FF0000;stroke-width:2.0px;stroke-linecap:butt;stroke-linejoin:miter;stroke-opacity:1"/>
<path class="bond-14 atom-13 atom-15" d="M 738.4,72.5 L 743.6,86.4" style="fill:none;fill-rule:evenodd;stroke:#000000;stroke-width:2.0px;stroke-linecap:butt;stroke-linejoin:miter;stroke-opacity:1"/>
<path class="bond-14 atom-13 atom-15" d="M 736.7,74.5 L 741.1,86.0" style="fill:none;fill-rule:evenodd;stroke:#000000;stroke-width:2.0px;stroke-linecap:butt;stroke-linejoin:miter;stroke-opacity:1"/>
<path class="bond-15 atom-15 atom-16" d="M 743.6,86.4 L 734.2,97.9" style="fill:none;fill-rule:evenodd;stroke:#000000;stroke-width:2.0px;stroke-linecap:butt;stroke-linejoin:miter;stroke-opacity:1"/>
<path class="bond-16 atom-16 atom-17" d="M 734.2,97.9 L 736.3,103.5" style="fill:none;fill-rule:evenodd;stroke:#000000;stroke-width:2.0px;stroke-linecap:butt;stroke-linejoin:miter;stroke-opacity:1"/>
<path class="bond-16 atom-16 atom-17" d="M 736.3,103.5 L 738.5,109.2" style="fill:none;fill-rule:evenodd;stroke:#FF0000;stroke-width:2.0px;stroke-linecap:butt;stroke-linejoin:miter;stroke-opacity:1"/>
<path class="bond-17 atom-16 atom-18" d="M 734.2,97.9 L 719.6,95.5" style="fill:none;fill-rule:evenodd;stroke:#000000;stroke-width:2.0px;stroke-linecap:butt;stroke-linejoin:miter;stroke-opacity:1"/>
<path class="bond-17 atom-16 atom-18" d="M 733.3,95.5 L 721.2,93.5" style="fill:none;fill-rule:evenodd;stroke:#000000;stroke-width:2.0px;stroke-linecap:butt;stroke-linejoin:miter;stroke-opacity:1"/>
<path class="bond-18 atom-18 atom-1" d="M 719.6,95.5 L 710.2,107.0" style="fill:none;fill-rule:evenodd;stroke:#000000;stroke-width:2.0px;stroke-linecap:butt;stroke-linejoin:miter;stroke-opacity:1"/>
<path class="bond-19 atom-9 atom-4" d="M 666.2,99.8 L 675.6,88.3" style="fill:none;fill-rule:evenodd;stroke:#000000;stroke-width:2.0px;stroke-linecap:butt;stroke-linejoin:miter;stroke-opacity:1"/>
<path class="bond-20 atom-18 atom-11" d="M 719.6,95.5 L 714.3,81.6" style="fill:none;fill-rule:evenodd;stroke:#000000;stroke-width:2.0px;stroke-linecap:butt;stroke-linejoin:miter;stroke-opacity:1"/>
<path d="M 709.4,106.9 L 710.2,107.0 L 710.6,106.4" style="fill:none;stroke:#000000;stroke-width:2.0px;stroke-linecap:butt;stroke-linejoin:miter;stroke-opacity:1;"/>
<path d="M 696.2,104.7 L 695.5,104.6 L 695.2,103.9" style="fill:none;stroke:#000000;stroke-width:2.0px;stroke-linecap:butt;stroke-linejoin:miter;stroke-opacity:1;"/>
<path d="M 670.6,75.1 L 670.4,74.4 L 669.6,74.3" style="fill:none;stroke:#000000;stroke-width:2.0px;stroke-linecap:butt;stroke-linejoin:miter;stroke-opacity:1;"/>
<path d="M 656.4,72.2 L 655.7,72.1 L 655.2,72.6" style="fill:none;stroke:#000000;stroke-width:2.0px;stroke-linecap:butt;stroke-linejoin:miter;stroke-opacity:1;"/>
<path d="M 646.8,83.0 L 646.3,83.5 L 646.6,84.2" style="fill:none;stroke:#000000;stroke-width:2.0px;stroke-linecap:butt;stroke-linejoin:miter;stroke-opacity:1;"/>
<path d="M 651.3,96.7 L 651.6,97.4 L 652.3,97.5" style="fill:none;stroke:#000000;stroke-width:2.0px;stroke-linecap:butt;stroke-linejoin:miter;stroke-opacity:1;"/>
<path d="M 665.5,99.7 L 666.2,99.8 L 666.7,99.2" style="fill:none;stroke:#000000;stroke-width:2.0px;stroke-linecap:butt;stroke-linejoin:miter;stroke-opacity:1;"/>
<path d="M 723.2,70.7 L 723.7,70.1 L 724.4,70.3" style="fill:none;stroke:#000000;stroke-width:2.0px;stroke-linecap:butt;stroke-linejoin:miter;stroke-opacity:1;"/>
<path d="M 743.4,85.7 L 743.6,86.4 L 743.1,87.0" style="fill:none;stroke:#000000;stroke-width:2.0px;stroke-linecap:butt;stroke-linejoin:miter;stroke-opacity:1;"/>
<path class="atom-0" d="M 713.5 120.9 Q 713.5 119.9, 714.0 119.3 Q 714.5 118.7, 715.4 118.7 Q 716.4 118.7, 716.9 119.3 Q 717.4 119.9, 717.4 120.9 Q 717.4 121.9, 716.9 122.5 Q 716.3 123.1, 715.4 123.1 Q 714.5 123.1, 714.0 122.5 Q 713.5 121.9, 713.5 120.9 M 715.4 122.6 Q 716.1 122.6, 716.4 122.2 Q 716.8 121.8, 716.8 120.9 Q 716.8 120.1, 716.4 119.7 Q 716.1 119.2, 715.4 119.2 Q 714.8 119.2, 714.4 119.6 Q 714.1 120.1, 714.1 120.9 Q 714.1 121.8, 714.4 122.2 Q 714.8 122.6, 715.4 122.6 " fill="#FF0000"/>
<path class="atom-10" d="M 697.7 79.2 Q 697.7 78.2, 698.2 77.7 Q 698.7 77.1, 699.7 77.1 Q 700.6 77.1, 701.1 77.7 Q 701.6 78.2, 701.6 79.2 Q 701.6 80.3, 701.1 80.9 Q 700.6 81.4, 699.7 81.4 Q 698.7 81.4, 698.2 80.9 Q 697.7 80.3, 697.7 79.2 M 699.7 81.0 Q 700.3 81.0, 700.7 80.5 Q 701.0 80.1, 701.0 79.2 Q 701.0 78.4, 700.7 78.0 Q 700.3 77.6, 699.7 77.6 Q 699.0 77.6, 698.7 78.0 Q 698.3 78.4, 698.3 79.2 Q 698.3 80.1, 698.7 80.5 Q 699.0 81.0, 699.7 81.0 " fill="#FF0000"/>
<path class="atom-14" d="M 745.8 61.1 Q 745.8 60.0, 746.3 59.5 Q 746.8 58.9, 747.8 58.9 Q 748.7 58.9, 749.2 59.5 Q 749.7 60.0, 749.7 61.1 Q 749.7 62.1, 749.2 62.7 Q 748.7 63.3, 747.8 63.3 Q 746.8 63.3, 746.3 62.7 Q 745.8 62.1, 745.8 61.1 M 747.8 62.8 Q 748.4 62.8, 748.8 62.3 Q 749.1 61.9, 749.1 61.1 Q 749.1 60.2, 748.8 59.8 Q 748.4 59.4, 747.8 59.4 Q 747.1 59.4, 746.8 59.8 Q 746.4 60.2, 746.4 61.1 Q 746.4 61.9, 746.8 62.3 Q 747.1 62.8, 747.8 62.8 " fill="#FF0000"/>
<path class="atom-14" d="M 750.4 58.9 L 750.9 58.9 L 750.9 60.7 L 753.1 60.7 L 753.1 58.9 L 753.7 58.9 L 753.7 63.2 L 753.1 63.2 L 753.1 61.2 L 750.9 61.2 L 750.9 63.2 L 750.4 63.2 L 750.4 58.9 " fill="#FF0000"/>
<path class="atom-17" d="M 737.5 111.8 Q 737.5 110.8, 738.0 110.2 Q 738.5 109.6, 739.5 109.6 Q 740.4 109.6, 740.9 110.2 Q 741.4 110.8, 741.4 111.8 Q 741.4 112.8, 740.9 113.4 Q 740.4 114.0, 739.5 114.0 Q 738.5 114.0, 738.0 113.4 Q 737.5 112.8, 737.5 111.8 M 739.5 113.5 Q 740.1 113.5, 740.5 113.1 Q 740.8 112.7, 740.8 111.8 Q 740.8 111.0, 740.5 110.6 Q 740.1 110.1, 739.5 110.1 Q 738.8 110.1, 738.5 110.5 Q 738.1 111.0, 738.1 111.8 Q 738.1 112.7, 738.5 113.1 Q 738.8 113.5, 739.5 113.5 " fill="#FF0000"/>
<path class="atom-17" d="M 742.1 109.7 L 742.7 109.7 L 742.7 111.5 L 744.8 111.5 L 744.8 109.7 L 745.4 109.7 L 745.4 113.9 L 744.8 113.9 L 744.8 112.0 L 742.7 112.0 L 742.7 113.9 L 742.1 113.9 L 742.1 109.7 " fill="#FF0000"/>
<path class="legend" d="M 699.2 178.7 Q 701.7 178.7, 703.1 180.2 Q 704.4 181.6, 704.4 184.3 Q 704.4 187.0, 703.1 188.5 Q 701.7 190.0, 699.2 190.0 L 695.6 190.0 L 695.6 178.7 L 699.2 178.7 M 699.2 188.7 Q 701.0 188.7, 701.9 187.6 Q 702.8 186.5, 702.8 184.3 Q 702.8 182.1, 701.9 181.0 Q 701.0 180.0, 699.2 180.0 L 697.1 180.0 L 697.1 188.7 L 699.2 188.7 " fill="#000000"/>
<path class="bond-0 atom-0 atom-1" d="M 128.2,283.1 L 117.2,293.2" style="fill:none;fill-rule:evenodd;stroke:#000000;stroke-width:2.0px;stroke-linecap:butt;stroke-linejoin:miter;stroke-opacity:1"/>
<path class="bond-1 atom-1 atom-2" d="M 117.2,293.2 L 118.6,299.1" style="fill:none;fill-rule:evenodd;stroke:#000000;stroke-width:2.0px;stroke-linecap:butt;stroke-linejoin:miter;stroke-opacity:1"/>
<path class="bond-1 atom-1 atom-2" d="M 118.6,299.1 L 119.9,305.0" style="fill:none;fill-rule:evenodd;stroke:#FF0000;stroke-width:2.0px;stroke-linecap:butt;stroke-linejoin:miter;stroke-opacity:1"/>
<path class="bond-2 atom-1 atom-3" d="M 117.2,293.2 L 103.1,288.8" style="fill:none;fill-rule:evenodd;stroke:#000000;stroke-width:2.0px;stroke-linecap:butt;stroke-linejoin:miter;stroke-opacity:1"/>
<path class="bond-3 atom-3 atom-4" d="M 103.1,288.8 L 101.8,282.9" style="fill:none;fill-rule:evenodd;stroke:#000000;stroke-width:2.0px;stroke-linecap:butt;stroke-linejoin:miter;stroke-opacity:1"/>
<path class="bond-3 atom-3 atom-4" d="M 101.8,282.9 L 100.4,277.0" style="fill:none;fill-rule:evenodd;stroke:#FF0000;stroke-width:2.0px;stroke-linecap:butt;stroke-linejoin:miter;stroke-opacity:1"/>
<path class="bond-4 atom-3 atom-5" d="M 103.1,288.8 L 92.2,298.8" style="fill:none;fill-rule:evenodd;stroke:#000000;stroke-width:2.0px;stroke-linecap:butt;stroke-linejoin:miter;stroke-opacity:1"/>
<path class="bond-5 atom-5 atom-6" d="M 92.2,298.8 L 86.3,297.0" style="fill:none;fill-rule:evenodd;stroke:#000000;stroke-width:2.0px;stroke-linecap:butt;stroke-linejoin:miter;stroke-opacity:1"/>
<path class="bond-5 atom-5 atom-6" d="M 86.3,297.0 L 80.4,295.1" style="fill:none;fill-rule:evenodd;stroke:#FF0000;stroke-width:2.0px;stroke-linecap:butt;stroke-linejoin:miter;stroke-opacity:1"/>
<path d="M 92.7,298.3 L 92.2,298.8 L 91.9,298.7" style="fill:none;stroke:#000000;stroke-width:2.0px;stroke-linecap:butt;stroke-linejoin:miter;stroke-opacity:1;"/>
<path class="atom-2" d="M 118.5 307.7 Q 118.5 306.7, 119.0 306.1 Q 119.6 305.5, 120.5 305.5 Q 121.4 305.5, 121.9 306.1 Q 122.4 306.7, 122.4 307.7 Q 122.4 308.7, 121.9 309.3 Q 121.4 309.9, 120.5 309.9 Q 119.6 309.9, 119.0 309.3 Q 118.5 308.7, 118.5 307.7 M 120.5 309.4 Q 121.1 309.4, 121.5 309.0 Q 121.8 308.5, 121.8 307.7 Q 121.8 306.8, 121.5 306.4 Q 121.1 306.0, 120.5 306.0 Q 119.8 306.0, 119.5 306.4 Q 119.1 306.8, 119.1 307.7 Q 119.1 308.5, 119.5 309.0 Q 119.8 309.4, 120.5 309.4 " fill="#FF0000"/>
<path class="atom-2" d="M 123.1 305.6 L 123.7 305.6 L 123.7 307.4 L 125.9 307.4 L 125.9 305.6 L 126.4 305.6 L 126.4 309.8 L 125.9 309.8 L 125.9 307.9 L 123.7 307.9 L 123.7 309.8 L 123.1 309.8 L 123.1 305.6 " fill="#FF0000"/>
<path class="atom-4" d="M 97.9 274.3 Q 97.9 273.3, 98.4 272.7 Q 98.9 272.1, 99.8 272.1 Q 100.8 272.1, 101.3 272.7 Q 101.8 273.3, 101.8 274.3 Q 101.8 275.3, 101.3 275.9 Q 100.8 276.5, 99.8 276.5 Q 98.9 276.5, 98.4 275.9 Q 97.9 275.3, 97.9 274.3 M 99.8 276.0 Q 100.5 276.0, 100.8 275.6 Q 101.2 275.1, 101.2 274.3 Q 101.2 273.4, 100.8 273.0 Q 100.5 272.6, 99.8 272.6 Q 99.2 272.6, 98.8 273.0 Q 98.5 273.4, 98.5 274.3 Q 98.5 275.1, 98.8 275.6 Q 99.2 276.0, 99.8 276.0 " fill="#FF0000"/>
<path class="atom-4" d="M 102.4 272.2 L 103.0 272.2 L 103.0 274.0 L 105.2 274.0 L 105.2 272.2 L 105.8 272.2 L 105.8 276.4 L 105.2 276.4 L 105.2 274.5 L 103.0 274.5 L 103.0 276.4 L 102.4 276.4 L 102.4 272.2 " fill="#FF0000"/>
<path class="atom-6" d="M 71.8 292.3 L 72.4 292.3 L 72.4 294.1 L 74.6 294.1 L 74.6 292.3 L 75.2 292.3 L 75.2 296.5 L 74.6 296.5 L 74.6 294.6 L 72.4 294.6 L 72.4 296.5 L 71.8 296.5 L 71.8 292.3 " fill="#FF0000"/>
<path class="atom-6" d="M 76.0 294.4 Q 76.0 293.4, 76.5 292.8 Q 77.0 292.2, 78.0 292.2 Q 78.9 292.2, 79.4 292.8 Q 79.9 293.4, 79.9 294.4 Q 79.9 295.4, 79.4 296.0 Q 78.9 296.6, 78.0 296.6 Q 77.0 296.6, 76.5 296.0 Q 76.0 295.4, 76.0 294.4 M 78.0 296.1 Q 78.6 296.1, 79.0 295.7 Q 79.3 295.2, 79.3 294.4 Q 79.3 293.6, 79.0 293.1 Q 78.6 292.7, 78.0 292.7 Q 77.3 292.7, 77.0 293.1 Q 76.6 293.6, 76.6 294.4 Q 76.6 295.3, 77.0 295.7 Q 77.3 296.1, 78.0 296.1 " fill="#FF0000"/>
<path class="legend" d="M 96.5 378.7 L 103.3 378.7 L 103.3 380.0 L 98.1 380.0 L 98.1 383.4 L 102.8 383.4 L 102.8 384.7 L 98.1 384.7 L 98.1 388.7 L 103.5 388.7 L 103.5 390.0 L 96.5 390.0 L 96.5 378.7 " fill="#000000"/>
<path class="bond-0 atom-0 atom-1" d="M 263.1,278.5 L 277.8,280.4" style="fill:none;fill-rule:evenodd;stroke:#000000;stroke-width:2.0px;stroke-linecap:butt;stroke-linejoin:miter;stroke-opacity:1"/>
<path class="bond-1 atom-1 atom-2" d="M 277.8,280.4 L 283.5,294.1" style="fill:none;fill-rule:evenodd;stroke:#000000;stroke-width:2.0px;stroke-linecap:butt;stroke-linejoin:miter;stroke-opacity:1"/>
<path class="bond-2 atom-2 atom-3" d="M 283.5,294.1 L 298.2,296.0" style="fill:none;fill-rule:evenodd;stroke:#000000;stroke-width:2.0px;stroke-linecap:butt;stroke-linejoin:miter;stroke-opacity:1"/>
<path class="bond-3 atom-3 atom-4" d="M 298.2,296.0 L 303.9,309.8" style="fill:none;fill-rule:evenodd;stroke:#000000;stroke-width:2.0px;stroke-linecap:butt;stroke-linejoin:miter;stroke-opacity:1"/>
<path class="bond-4 atom-3 atom-5" d="M 298.2,296.0 L 307.2,284.3" style="fill:none;fill-rule:evenodd;stroke:#000000;stroke-width:2.0px;stroke-linecap:butt;stroke-linejoin:miter;stroke-opacity:1"/>
<path class="bond-5 atom-5 atom-6" d="M 307.2,284.3 L 322.0,286.2" style="fill:none;fill-rule:evenodd;stroke:#000000;stroke-width:2.0px;stroke-linecap:butt;stroke-linejoin:miter;stroke-opacity:1"/>
<path class="bond-6 atom-6 atom-7" d="M 322.0,286.2 L 325.4,281.6" style="fill:none;fill-rule:evenodd;stroke:#000000;stroke-width:2.0px;stroke-linecap:butt;stroke-linejoin:miter;stroke-opacity:1"/>
<path class="bond-6 atom-6 atom-7" d="M 325.4,281.6 L 328.9,277.1" style="fill:none;fill-rule:evenodd;stroke:#FF0000;stroke-width:2.0px;stroke-linecap:butt;stroke-linejoin:miter;stroke-opacity:1"/>
<path d="M 277.1,280.3 L 277.8,280.4 L 278.1,281.1" style="fill:none;stroke:#000000;stroke-width:2.0px;stroke-linecap:butt;stroke-linejoin:miter;stroke-opacity:1;"/>
<path d="M 283.2,293.4 L 283.5,294.1 L 284.2,294.2" style="fill:none;stroke:#000000;stroke-width:2.0px;stroke-linecap:butt;stroke-linejoin:miter;stroke-opacity:1;"/>
<path d="M 306.8,284.8 L 307.2,284.3 L 308.0,284.4" style="fill:none;stroke:#000000;stroke-width:2.0px;stroke-linecap:butt;stroke-linejoin:miter;stroke-opacity:1;"/>
<path d="M 321.2,286.1 L 322.0,286.2 L 322.1,286.0" style="fill:none;stroke:#000000;stroke-width:2.0px;stroke-linecap:butt;stroke-linejoin:miter;stroke-opacity:1;"/>
<path class="atom-7" d="M 329.0 274.4 Q 329.0 273.4, 329.5 272.8 Q 330.0 272.2, 331.0 272.2 Q 331.9 272.2, 332.4 272.8 Q 332.9 273.4, 332.9 274.4 Q 332.9 275.4, 332.4 276.0 Q 331.9 276.6, 331.0 276.6 Q 330.1 276.6, 329.5 276.0 Q 329.0 275.4, 329.0 274.4 M 331.0 276.1 Q 331.6 276.1, 332.0 275.7 Q 332.3 275.3, 332.3 274.4 Q 332.3 273.6, 332.0 273.2 Q 331.6 272.7, 331.0 272.7 Q 330.3 272.7, 330.0 273.1 Q 329.6 273.6, 329.6 274.4 Q 329.6 275.3, 330.0 275.7 Q 330.3 276.1, 331.0 276.1 " fill="#FF0000"/>
<path class="atom-7" d="M 333.6 272.3 L 334.2 272.3 L 334.2 274.1 L 336.3 274.1 L 336.3 272.3 L 336.9 272.3 L 336.9 276.5 L 336.3 276.5 L 336.3 274.6 L 334.2 274.6 L 334.2 276.5 L 333.6 276.5 L 333.6 272.3 " fill="#FF0000"/>
<path class="legend" d="M 296.6 378.7 L 303.4 378.7 L 303.4 380.0 L 298.2 380.0 L 298.2 383.4 L 302.8 383.4 L 302.8 384.7 L 298.2 384.7 L 298.2 390.0 L 296.6 390.0 L 296.6 378.7 " fill="#000000"/>
<path class="bond-0 atom-0 atom-1" d="M 410.0,294.7 L 422.9,287.3" style="fill:none;fill-rule:evenodd;stroke:#000000;stroke-width:2.0px;stroke-linecap:butt;stroke-linejoin:miter;stroke-opacity:1"/>
<path class="bond-1 atom-1 atom-2" d="M 422.9,287.3 L 435.7,294.7" style="fill:none;fill-rule:evenodd;stroke:#000000;stroke-width:2.0px;stroke-linecap:butt;stroke-linejoin:miter;stroke-opacity:1"/>
<path class="bond-2 atom-2 atom-3" d="M 435.7,294.7 L 448.6,287.3" style="fill:none;fill-rule:evenodd;stroke:#000000;stroke-width:2.0px;stroke-linecap:butt;stroke-linejoin:miter;stroke-opacity:1"/>
<path class="bond-3 atom-3 atom-4" d="M 448.6,287.3 L 461.4,294.7" style="fill:none;fill-rule:evenodd;stroke:#000000;stroke-width:2.0px;stroke-linecap:butt;stroke-linejoin:miter;stroke-opacity:1"/>
<path class="bond-4 atom-4 atom-5" d="M 461.4,294.7 L 474.3,287.3" style="fill:none;fill-rule:evenodd;stroke:#000000;stroke-width:2.0px;stroke-linecap:butt;stroke-linejoin:miter;stroke-opacity:1"/>
<path class="bond-5 atom-5 atom-6" d="M 474.3,287.3 L 487.1,294.7" style="fill:none;fill-rule:evenodd;stroke:#000000;stroke-width:2.0px;stroke-linecap:butt;stroke-linejoin:miter;stroke-opacity:1"/>
<path class="bond-6 atom-6 atom-7" d="M 487.1,294.7 L 500.0,287.3" style="fill:none;fill-rule:evenodd;stroke:#000000;stroke-width:2.0px;stroke-linecap:butt;stroke-linejoin:miter;stroke-opacity:1"/>
<path class="bond-7 atom-7 atom-8" d="M 500.0,287.3 L 512.9,294.7" style="fill:none;fill-rule:evenodd;stroke:#000000;stroke-width:2.0px;stroke-linecap:butt;stroke-linejoin:miter;stroke-opacity:1"/>
<path class="bond-8 atom-8 atom-9" d="M 512.9,294.7 L 525.7,287.3" style="fill:none;fill-rule:evenodd;stroke:#000000;stroke-width:2.0px;stroke-linecap:butt;stroke-linejoin:miter;stroke-opacity:1"/>
<path class="bond-9 atom-9 atom-10" d="M 525.7,287.3 L 538.6,294.7" style="fill:none;fill-rule:evenodd;stroke:#000000;stroke-width:2.0px;stroke-linecap:butt;stroke-linejoin:miter;stroke-opacity:1"/>
<path class="bond-10 atom-10 atom-11" d="M 538.6,294.7 L 551.4,287.3" style="fill:none;fill-rule:evenodd;stroke:#000000;stroke-width:2.0px;stroke-linecap:butt;stroke-linejoin:miter;stroke-opacity:1"/>
<path class="bond-11 atom-11 atom-12" d="M 551.4,287.3 L 564.3,294.7" style="fill:none;fill-rule:evenodd;stroke:#000000;stroke-width:2.0px;stroke-linecap:butt;stroke-linejoin:miter;stroke-opacity:1"/>
<path class="bond-12 atom-12 atom-13" d="M 564.3,294.7 L 577.1,287.3" style="fill:none;fill-rule:evenodd;stroke:#000000;stroke-width:2.0px;stroke-linecap:butt;stroke-linejoin:miter;stroke-opacity:1"/>
<path class="bond-13 atom-13 atom-14" d="M 577.1,287.3 L 590.0,294.7" style="fill:none;fill-rule:evenodd;stroke:#000000;stroke-width:2.0px;stroke-linecap:butt;stroke-linejoin:miter;stroke-opacity:1"/>
<path d="M 422.2,287.7 L 422.9,287.3 L 423.5,287.7" style="fill:none;stroke:#000000;stroke-width:2.0px;stroke-linecap:butt;stroke-linejoin:miter;stroke-opacity:1;"/>
<path d="M 435.1,294.3 L 435.7,294.7 L 436.4,294.3" style="fill:none;stroke:#000000;stroke-width:2.0px;stroke-linecap:butt;stroke-linejoin:miter;stroke-opacity:1;"/>
<path d="M 447.9,287.7 L 448.6,287.3 L 449.2,287.7" style="fill:none;stroke:#000000;stroke-width:2.0px;stroke-linecap:butt;stroke-linejoin:miter;stroke-opacity:1;"/>
<path d="M 460.8,294.3 L 461.4,294.7 L 462.1,294.3" style="fill:none;stroke:#000000;stroke-width:2.0px;stroke-linecap:butt;stroke-linejoin:miter;stroke-opacity:1;"/>
<path d="M 473.6,287.7 L 474.3,287.3 L 474.9,287.7" style="fill:none;stroke:#000000;stroke-width:2.0px;stroke-linecap:butt;stroke-linejoin:miter;stroke-opacity:1;"/>
<path d="M 486.5,294.3 L 487.1,294.7 L 487.8,294.3" style="fill:none;stroke:#000000;stroke-width:2.0px;stroke-linecap:butt;stroke-linejoin:miter;stroke-opacity:1;"/>
<path d="M 499.4,287.7 L 500.0,287.3 L 500.6,287.7" style="fill:none;stroke:#000000;stroke-width:2.0px;stroke-linecap:butt;stroke-linejoin:miter;stroke-opacity:1;"/>
<path d="M 512.2,294.3 L 512.9,294.7 L 513.5,294.3" style="fill:none;stroke:#000000;stroke-width:2.0px;stroke-linecap:butt;stroke-linejoin:miter;stroke-opacity:1;"/>
<path d="M 525.1,287.7 L 525.7,287.3 L 526.4,287.7" style="fill:none;stroke:#000000;stroke-width:2.0px;stroke-linecap:butt;stroke-linejoin:miter;stroke-opacity:1;"/>
<path d="M 537.9,294.3 L 538.6,294.7 L 539.2,294.3" style="fill:none;stroke:#000000;stroke-width:2.0px;stroke-linecap:butt;stroke-linejoin:miter;stroke-opacity:1;"/>
<path d="M 550.8,287.7 L 551.4,287.3 L 552.1,287.7" style="fill:none;stroke:#000000;stroke-width:2.0px;stroke-linecap:butt;stroke-linejoin:miter;stroke-opacity:1;"/>
<path d="M 563.6,294.3 L 564.3,294.7 L 564.9,294.3" style="fill:none;stroke:#000000;stroke-width:2.0px;stroke-linecap:butt;stroke-linejoin:miter;stroke-opacity:1;"/>
<path d="M 576.5,287.7 L 577.1,287.3 L 577.8,287.7" style="fill:none;stroke:#000000;stroke-width:2.0px;stroke-linecap:butt;stroke-linejoin:miter;stroke-opacity:1;"/>
<path class="legend" d="M 504.6 384.3 L 504.6 389.1 Q 502.9 390.0, 500.6 390.0 Q 498.1 390.0, 496.8 388.5 Q 495.4 387.0, 495.4 384.2 Q 495.4 381.4, 496.8 379.9 Q 498.1 378.4, 500.6 378.4 Q 501.9 378.4, 502.9 378.8 Q 503.8 379.2, 504.5 380.0 L 503.5 380.9 Q 502.4 379.7, 500.6 379.7 Q 498.9 379.7, 498.0 380.8 Q 497.1 382.0, 497.1 384.2 Q 497.1 386.4, 498.0 387.6 Q 499.0 388.7, 500.8 388.7 Q 502.0 388.7, 503.0 388.3 L 503.0 384.3 L 504.6 384.3 " fill="#000000"/>
<path class="bond-0 atom-0 atom-1" d="M 632.7,288.4 L 646.6,283.2" style="fill:none;fill-rule:evenodd;stroke:#000000;stroke-width:2.0px;stroke-linecap:butt;stroke-linejoin:miter;stroke-opacity:1"/>
<path class="bond-1 atom-1 atom-2" d="M 646.6,283.2 L 649.1,268.6" style="fill:none;fill-rule:evenodd;stroke:#000000;stroke-width:2.0px;stroke-linecap:butt;stroke-linejoin:miter;stroke-opacity:1"/>
<path class="bond-2 atom-1 atom-3" d="M 646.6,283.2 L 658.0,292.7" style="fill:none;fill-rule:evenodd;stroke:#000000;stroke-width:2.0px;stroke-linecap:butt;stroke-linejoin:miter;stroke-opacity:1"/>
<path class="bond-3 atom-3 atom-4" d="M 658.0,292.7 L 657.1,307.5" style="fill:none;fill-rule:evenodd;stroke:#000000;stroke-width:2.0px;stroke-linecap:butt;stroke-linejoin:miter;stroke-opacity:1"/>
<path class="bond-4 atom-4 atom-5" d="M 657.1,307.5 L 670.9,313.0" style="fill:none;fill-rule:evenodd;stroke:#000000;stroke-width:2.0px;stroke-linecap:butt;stroke-linejoin:miter;stroke-opacity:1"/>
<path class="bond-5 atom-5 atom-6" d="M 670.9,313.0 L 680.3,301.5" style="fill:none;fill-rule:evenodd;stroke:#000000;stroke-width:2.0px;stroke-linecap:butt;stroke-linejoin:miter;stroke-opacity:1"/>
<path class="bond-6 atom-6 atom-7" d="M 680.3,301.5 L 695.2,300.9" style="fill:none;fill-rule:evenodd;stroke:#000000;stroke-width:2.0px;stroke-linecap:butt;stroke-linejoin:miter;stroke-opacity:1"/>
<path class="bond-7 atom-7 atom-8" d="M 695.2,300.9 L 703.1,313.4" style="fill:none;fill-rule:evenodd;stroke:#000000;stroke-width:2.0px;stroke-linecap:butt;stroke-linejoin:miter;stroke-opacity:1"/>
<path class="bond-8 atom-8 atom-9" d="M 703.1,313.4 L 718.0,312.8" style="fill:none;fill-rule:evenodd;stroke:#000000;stroke-width:2.0px;stroke-linecap:butt;stroke-linejoin:miter;stroke-opacity:1"/>
<path class="bond-9 atom-9 atom-10" d="M 718.0,312.8 L 724.8,299.7" style="fill:none;fill-rule:evenodd;stroke:#000000;stroke-width:2.0px;stroke-linecap:butt;stroke-linejoin:miter;stroke-opacity:1"/>
<path class="bond-9 atom-9 atom-10" d="M 716.6,310.7 L 722.3,299.8" style="fill:none;fill-rule:evenodd;stroke:#000000;stroke-width:2.0px;stroke-linecap:butt;stroke-linejoin:miter;stroke-opacity:1"/>
<path class="bond-10 atom-10 atom-11" d="M 724.8,299.7 L 739.7,299.1" style="fill:none;fill-rule:evenodd;stroke:#000000;stroke-width:2.0px;stroke-linecap:butt;stroke-linejoin:miter;stroke-opacity:1"/>
<path class="bond-11 atom-11 atom-12" d="M 739.7,299.1 L 746.6,285.9" style="fill:none;fill-rule:evenodd;stroke:#000000;stroke-width:2.0px;stroke-linecap:butt;stroke-linejoin:miter;stroke-opacity:1"/>
<path class="bond-12 atom-12 atom-13" d="M 746.6,285.9 L 752.8,285.6" style="fill:none;fill-rule:evenodd;stroke:#000000;stroke-width:2.0px;stroke-linecap:butt;stroke-linejoin:miter;stroke-opacity:1"/>
<path class="bond-12 atom-12 atom-13" d="M 752.8,285.6 L 759.0,285.4" style="fill:none;fill-rule:evenodd;stroke:#FF0000;stroke-width:2.0px;stroke-linecap:butt;stroke-linejoin:miter;stroke-opacity:1"/>
<path class="bond-13 atom-12 atom-14" d="M 746.6,285.9 L 738.6,273.4" style="fill:none;fill-rule:evenodd;stroke:#000000;stroke-width:2.0px;stroke-linecap:butt;stroke-linejoin:miter;stroke-opacity:1"/>
<path class="bond-14 atom-14 atom-15" d="M 738.6,273.4 L 723.8,274.0" style="fill:none;fill-rule:evenodd;stroke:#000000;stroke-width:2.0px;stroke-linecap:butt;stroke-linejoin:miter;stroke-opacity:1"/>
<path class="bond-15 atom-15 atom-16" d="M 723.8,274.0 L 716.9,287.1" style="fill:none;fill-rule:evenodd;stroke:#000000;stroke-width:2.0px;stroke-linecap:butt;stroke-linejoin:miter;stroke-opacity:1"/>
<path class="bond-16 atom-16 atom-17" d="M 716.9,287.1 L 709.0,274.6" style="fill:none;fill-rule:evenodd;stroke:#000000;stroke-width:2.0px;stroke-linecap:butt;stroke-linejoin:miter;stroke-opacity:1"/>
<path class="bond-17 atom-16 atom-18" d="M 716.9,287.1 L 702.1,287.7" style="fill:none;fill-rule:evenodd;stroke:#000000;stroke-width:2.0px;stroke-linecap:butt;stroke-linejoin:miter;stroke-opacity:1"/>
<path class="bond-18 atom-18 atom-19" d="M 702.1,287.7 L 694.1,275.2" style="fill:none;fill-rule:evenodd;stroke:#000000;stroke-width:2.0px;stroke-linecap:butt;stroke-linejoin:miter;stroke-opacity:1"/>
<path class="bond-19 atom-19 atom-20" d="M 694.1,275.2 L 679.3,275.8" style="fill:none;fill-rule:evenodd;stroke:#000000;stroke-width:2.0px;stroke-linecap:butt;stroke-linejoin:miter;stroke-opacity:1"/>
<path class="bond-20 atom-20 atom-21" d="M 679.3,275.8 L 672.4,289.0" style="fill:none;fill-rule:evenodd;stroke:#000000;stroke-width:2.0px;stroke-linecap:butt;stroke-linejoin:miter;stroke-opacity:1"/>
<path class="bond-21 atom-21 atom-22" d="M 672.4,289.0 L 663.2,277.3" style="fill:none;fill-rule:evenodd;stroke:#000000;stroke-width:2.0px;stroke-linecap:butt;stroke-linejoin:miter;stroke-opacity:1"/>
<path class="bond-22 atom-21 atom-3" d="M 672.4,289.0 L 658.0,292.7" style="fill:none;fill-rule:evenodd;stroke:#000000;stroke-width:2.0px;stroke-linecap:butt;stroke-linejoin:miter;stroke-opacity:1"/>
<path class="bond-23 atom-21 atom-6" d="M 672.4,289.0 L 680.3,301.5" style="fill:none;fill-rule:evenodd;stroke:#000000;stroke-width:2.0px;stroke-linecap:butt;stroke-linejoin:miter;stroke-opacity:1"/>
<path class="bond-24 atom-18 atom-7" d="M 702.1,287.7 L 695.2,300.9" style="fill:none;fill-rule:evenodd;stroke:#000000;stroke-width:2.0px;stroke-linecap:butt;stroke-linejoin:miter;stroke-opacity:1"/>
<path class="bond-25 atom-16 atom-10" d="M 716.9,287.1 L 724.8,299.7" style="fill:none;fill-rule:evenodd;stroke:#000000;stroke-width:2.0px;stroke-linecap:butt;stroke-linejoin:miter;stroke-opacity:1"/>
<path d="M 657.1,306.7 L 657.1,307.5 L 657.8,307.8" style="fill:none;stroke:#000000;stroke-width:2.0px;stroke-linecap:butt;stroke-linejoin:miter;stroke-opacity:1;"/>
<path d="M 670.2,312.7 L 670.9,313.0 L 671.4,312.4" style="fill:none;stroke:#000000;stroke-width:2.0px;stroke-linecap:butt;stroke-linejoin:miter;stroke-opacity:1;"/>
<path d="M 702.7,312.8 L 703.1,313.4 L 703.9,313.4" style="fill:none;stroke:#000000;stroke-width:2.0px;stroke-linecap:butt;stroke-linejoin:miter;stroke-opacity:1;"/>
<path d="M 717.2,312.9 L 718.0,312.8 L 718.3,312.2" style="fill:none;stroke:#000000;stroke-width:2.0px;stroke-linecap:butt;stroke-linejoin:miter;stroke-opacity:1;"/>
<path d="M 738.9,299.1 L 739.7,299.1 L 740.0,298.4" style="fill:none;stroke:#000000;stroke-width:2.0px;stroke-linecap:butt;stroke-linejoin:miter;stroke-opacity:1;"/>
<path d="M 739.0,274.0 L 738.6,273.4 L 737.9,273.4" style="fill:none;stroke:#000000;stroke-width:2.0px;stroke-linecap:butt;stroke-linejoin:miter;stroke-opacity:1;"/>
<path d="M 724.5,274.0 L 723.8,274.0 L 723.4,274.6" style="fill:none;stroke:#000000;stroke-width:2.0px;stroke-linecap:butt;stroke-linejoin:miter;stroke-opacity:1;"/>
<path d="M 694.5,275.8 L 694.1,275.2 L 693.4,275.2" style="fill:none;stroke:#000000;stroke-width:2.0px;stroke-linecap:butt;stroke-linejoin:miter;stroke-opacity:1;"/>
<path d="M 680.0,275.8 L 679.3,275.8 L 678.9,276.5" style="fill:none;stroke:#000000;stroke-width:2.0px;stroke-linecap:butt;stroke-linejoin:miter;stroke-opacity:1;"/>
<path class="atom-13" d="M 759.4 285.3 Q 759.4 284.3, 760.0 283.7 Q 760.5 283.1, 761.4 283.1 Q 762.3 283.1, 762.8 283.7 Q 763.3 284.3, 763.3 285.3 Q 763.3 286.3, 762.8 286.9 Q 762.3 287.5, 761.4 287.5 Q 760.5 287.5, 760.0 286.9 Q 759.4 286.3, 759.4 285.3 M 761.4 287.0 Q 762.0 287.0, 762.4 286.6 Q 762.7 286.2, 762.7 285.3 Q 762.7 284.5, 762.4 284.0 Q 762.0 283.6, 761.4 283.6 Q 760.8 283.6, 760.4 284.0 Q 760.0 284.5, 760.0 285.3 Q 760.0 286.2, 760.4 286.6 Q 760.8 287.0, 761.4 287.0 " fill="#FF0000"/>
<path class="atom-13" d="M 764.0 283.2 L 764.6 283.2 L 764.6 285.0 L 766.8 285.0 L 766.8 283.2 L 767.3 283.2 L 767.3 287.4 L 766.8 287.4 L 766.8 285.5 L 764.6 285.5 L 764.6 287.4 L 764.0 287.4 L 764.0 283.2 " fill="#FF0000"/>
<path class="legend" d="M 695.6 378.7 L 697.1 378.7 L 697.1 383.5 L 702.9 383.5 L 702.9 378.7 L 704.4 378.7 L 704.4 390.0 L 702.9 390.0 L 702.9 384.8 L 697.1 384.8 L 697.1 390.0 L 695.6 390.0 L 695.6 378.7 " fill="#000000"/>
</svg>