<svg xmlns="http://www.w3.org/2000/svg" xmlns:rdkit="http://www.rdkit.org/xml" xmlns:xlink="http://www.w3.org/1999/xlink" version="1.1" baseProfile="full" xml:space="preserve" width="800px" height="200px" viewBox="0 0 800 200">
<!-- END OF HEADER -->
<rect style="opacity:1.0;fill:#FFFFFF;stroke:none" width="800.0" height="200.0" x="0.0" y="0.0"> </rect>
<path class="bond-0 atom-0 atom-1" d="M 25.4,121.0 L 41.1,126.7" style="fill:none;fill-rule:evenodd;stroke:#000000;stroke-width:2.0px;stroke-linecap:butt;stroke-linejoin:miter;stroke-opacity:1"/>
<path class="bond-0 atom-0 atom-1" d="M 26.3,118.6 L 40.6,123.8" style="fill:none;fill-rule:evenodd;stroke:#000000;stroke-width:2.0px;stroke-linecap:butt;stroke-linejoin:miter;stroke-opacity:1;stroke-dasharray:6,4"/>
<path class="bond-1 atom-1 atom-2" d="M 41.1,126.7 L 53.8,116.0" style="fill:none;fill-rule:evenodd;stroke:#000000;stroke-width:2.0px;stroke-linecap:butt;stroke-linejoin:miter;stroke-opacity:1"/>
<path class="bond-1 atom-1 atom-2" d="M 40.6,123.8 L 51.1,115.0" style="fill:none;fill-rule:evenodd;stroke:#000000;stroke-width:2.0px;stroke-linecap:butt;stroke-linejoin:miter;stroke-opacity:1;stroke-dasharray:6,4"/>
<path class="bond-2 atom-2 atom-3" d="M 53.8,116.0 L 69.5,121.7" style="fill:none;fill-rule:evenodd;stroke:#000000;stroke-width:2.0px;stroke-linecap:butt;stroke-linejoin:miter;stroke-opacity:1"/>
<path class="bond-3 atom-3 atom-4" d="M 69.5,121.7 L 82.3,111.0" style="fill:none;fill-rule:evenodd;stroke:#000000;stroke-width:2.0px;stroke-linecap:butt;stroke-linejoin:miter;stroke-opacity:1"/>
<path class="bond-4 atom-4 atom-5" d="M 82.3,111.0 L 89.0,113.4" style="fill:none;fill-rule:evenodd;stroke:#000000;stroke-width:2.0px;stroke-linecap:butt;stroke-linejoin:miter;stroke-opacity:1"/>
<path class="bond-4 atom-4 atom-5" d="M 89.0,113.4 L 95.6,115.8" style="fill:none;fill-rule:evenodd;stroke:#0000FF;stroke-width:2.0px;stroke-linecap:butt;stroke-linejoin:miter;stroke-opacity:1"/>
<path class="bond-5 atom-5 atom-6" d="M 100.3,114.7 L 105.5,110.3" style="fill:none;fill-rule:evenodd;stroke:#0000FF;stroke-width:2.0px;stroke-linecap:butt;stroke-linejoin:miter;stroke-opacity:1"/>
<path class="bond-5 atom-5 atom-6" d="M 105.5,110.3 L 110.7,105.9" style="fill:none;fill-rule:evenodd;stroke:#000000;stroke-width:2.0px;stroke-linecap:butt;stroke-linejoin:miter;stroke-opacity:1"/>
<path class="bond-6 atom-6 atom-7" d="M 110.7,105.9 L 126.4,111.6" style="fill:none;fill-rule:evenodd;stroke:#000000;stroke-width:2.0px;stroke-linecap:butt;stroke-linejoin:miter;stroke-opacity:1"/>
<path class="bond-7 atom-7 atom-8" d="M 126.4,111.6 L 139.2,100.9" style="fill:none;fill-rule:evenodd;stroke:#000000;stroke-width:2.0px;stroke-linecap:butt;stroke-linejoin:miter;stroke-opacity:1"/>
<path class="bond-8 atom-8 atom-9" d="M 139.2,100.9 L 136.3,84.5" style="fill:none;fill-rule:evenodd;stroke:#000000;stroke-width:2.0px;stroke-linecap:butt;stroke-linejoin:miter;stroke-opacity:1"/>
<path class="bond-8 atom-8 atom-9" d="M 141.4,99.1 L 139.0,85.5" style="fill:none;fill-rule:evenodd;stroke:#000000;stroke-width:2.0px;stroke-linecap:butt;stroke-linejoin:miter;stroke-opacity:1"/>
<path class="bond-9 atom-9 atom-10" d="M 136.3,84.5 L 149.0,73.8" style="fill:none;fill-rule:evenodd;stroke:#000000;stroke-width:2.0px;stroke-linecap:butt;stroke-linejoin:miter;stroke-opacity:1"/>
<path class="bond-10 atom-10 atom-11" d="M 149.0,73.8 L 164.7,79.5" style="fill:none;fill-rule:evenodd;stroke:#000000;stroke-width:2.0px;stroke-linecap:butt;stroke-linejoin:miter;stroke-opacity:1"/>
<path class="bond-10 atom-10 atom-11" d="M 149.5,76.6 L 162.5,81.3" style="fill:none;fill-rule:evenodd;stroke:#000000;stroke-width:2.0px;stroke-linecap:butt;stroke-linejoin:miter;stroke-opacity:1"/>
<path class="bond-11 atom-11 atom-12" d="M 164.7,79.5 L 169.7,75.3" style="fill:none;fill-rule:evenodd;stroke:#000000;stroke-width:2.0px;stroke-linecap:butt;stroke-linejoin:miter;stroke-opacity:1"/>
<path class="bond-11 atom-11 atom-12" d="M 169.7,75.3 L 174.8,71.0" style="fill:none;fill-rule:evenodd;stroke:#FF0000;stroke-width:2.0px;stroke-linecap:butt;stroke-linejoin:miter;stroke-opacity:1"/>
<path class="bond-12 atom-11 atom-13" d="M 164.7,79.5 L 167.6,95.9" style="fill:none;fill-rule:evenodd;stroke:#000000;stroke-width:2.0px;stroke-linecap:butt;stroke-linejoin:miter;stroke-opacity:1"/>
<path class="bond-13 atom-13 atom-14" d="M 167.6,95.9 L 174.1,98.3" style="fill:none;fill-rule:evenodd;stroke:#000000;stroke-width:2.0px;stroke-linecap:butt;stroke-linejoin:miter;stroke-opacity:1"/>
<path class="bond-13 atom-13 atom-14" d="M 174.1,98.3 L 180.6,100.6" style="fill:none;fill-rule:evenodd;stroke:#FF0000;stroke-width:2.0px;stroke-linecap:butt;stroke-linejoin:miter;stroke-opacity:1"/>
<path class="bond-14 atom-14 atom-15" d="M 183.8,104.6 L 185.0,111.3" style="fill:none;fill-rule:evenodd;stroke:#FF0000;stroke-width:2.0px;stroke-linecap:butt;stroke-linejoin:miter;stroke-opacity:1"/>
<path class="bond-14 atom-14 atom-15" d="M 185.0,111.3 L 186.2,118.0" style="fill:none;fill-rule:evenodd;stroke:#000000;stroke-width:2.0px;stroke-linecap:butt;stroke-linejoin:miter;stroke-opacity:1"/>
<path class="bond-15 atom-13 atom-16" d="M 167.6,95.9 L 154.8,106.6" style="fill:none;fill-rule:evenodd;stroke:#000000;stroke-width:2.0px;stroke-linecap:butt;stroke-linejoin:miter;stroke-opacity:1"/>
<path class="bond-15 atom-13 atom-16" d="M 164.9,94.9 L 154.3,103.8" style="fill:none;fill-rule:evenodd;stroke:#000000;stroke-width:2.0px;stroke-linecap:butt;stroke-linejoin:miter;stroke-opacity:1"/>
<path class="bond-16 atom-2 atom-17" d="M 53.8,116.0 L 51.0,99.6" style="fill:none;fill-rule:evenodd;stroke:#000000;stroke-width:2.0px;stroke-linecap:butt;stroke-linejoin:miter;stroke-opacity:1"/>
<path class="bond-16 atom-2 atom-17" d="M 51.1,115.0 L 48.7,101.4" style="fill:none;fill-rule:evenodd;stroke:#000000;stroke-width:2.0px;stroke-linecap:butt;stroke-linejoin:miter;stroke-opacity:1;stroke-dasharray:6,4"/>
<path class="bond-17 atom-17 atom-18" d="M 51.0,99.6 L 35.3,93.9" style="fill:none;fill-rule:evenodd;stroke:#000000;stroke-width:2.0px;stroke-linecap:butt;stroke-linejoin:miter;stroke-opacity:1"/>
<path class="bond-17 atom-17 atom-18" d="M 48.7,101.4 L 34.4,96.2" style="fill:none;fill-rule:evenodd;stroke:#000000;stroke-width:2.0px;stroke-linecap:butt;stroke-linejoin:miter;stroke-opacity:1;stroke-dasharray:6,4"/>
<path class="bond-18 atom-18 atom-19" d="M 35.3,93.9 L 32.4,77.4" style="fill:none;fill-rule:evenodd;stroke:#000000;stroke-width:2.0px;stroke-linecap:butt;stroke-linejoin:miter;stroke-opacity:1"/>
<path class="bond-18 atom-18 atom-19" d="M 37.5,92.0 L 34.8,77.0" style="fill:none;fill-rule:evenodd;stroke:#000000;stroke-width:2.0px;stroke-linecap:butt;stroke-linejoin:miter;stroke-opacity:1;stroke-dasharray:6,4"/>
<path class="bond-19 atom-19 atom-20" d="M 32.4,77.4 L 25.9,75.1" style="fill:none;fill-rule:evenodd;stroke:#000000;stroke-width:2.0px;stroke-linecap:butt;stroke-linejoin:miter;stroke-opacity:1"/>
<path class="bond-19 atom-19 atom-20" d="M 25.9,75.1 L 19.4,72.7" style="fill:none;fill-rule:evenodd;stroke:#FF0000;stroke-width:2.0px;stroke-linecap:butt;stroke-linejoin:miter;stroke-opacity:1"/>
<path class="bond-20 atom-20 atom-21" d="M 16.2,68.8 L 15.0,62.0" style="fill:none;fill-rule:evenodd;stroke:#FF0000;stroke-width:2.0px;stroke-linecap:butt;stroke-linejoin:miter;stroke-opacity:1"/>
<path class="bond-20 atom-20 atom-21" d="M 15.0,62.0 L 13.8,55.3" style="fill:none;fill-rule:evenodd;stroke:#000000;stroke-width:2.0px;stroke-linecap:butt;stroke-linejoin:miter;stroke-opacity:1"/>
<path class="bond-21 atom-16 atom-8" d="M 154.8,106.6 L 139.2,100.9" style="fill:none;fill-rule:evenodd;stroke:#000000;stroke-width:2.0px;stroke-linecap:butt;stroke-linejoin:miter;stroke-opacity:1"/>
<path d="M 40.3,126.4 L 41.1,126.7 L 41.7,126.2" style="fill:none;stroke:#000000;stroke-width:2.0px;stroke-linecap:butt;stroke-linejoin:miter;stroke-opacity:1;"/>
<path d="M 68.7,121.4 L 69.5,121.7 L 70.2,121.1" style="fill:none;stroke:#000000;stroke-width:2.0px;stroke-linecap:butt;stroke-linejoin:miter;stroke-opacity:1;"/>
<path d="M 81.7,111.5 L 82.3,111.0 L 82.6,111.1" style="fill:none;stroke:#000000;stroke-width:2.0px;stroke-linecap:butt;stroke-linejoin:miter;stroke-opacity:1;"/>
<path d="M 110.5,106.2 L 110.7,105.9 L 111.5,106.2" style="fill:none;stroke:#000000;stroke-width:2.0px;stroke-linecap:butt;stroke-linejoin:miter;stroke-opacity:1;"/>
<path d="M 125.6,111.4 L 126.4,111.6 L 127.0,111.1" style="fill:none;stroke:#000000;stroke-width:2.0px;stroke-linecap:butt;stroke-linejoin:miter;stroke-opacity:1;"/>
<path d="M 136.4,85.3 L 136.3,84.5 L 136.9,84.0" style="fill:none;stroke:#000000;stroke-width:2.0px;stroke-linecap:butt;stroke-linejoin:miter;stroke-opacity:1;"/>
<path d="M 148.4,74.3 L 149.0,73.8 L 149.8,74.1" style="fill:none;stroke:#000000;stroke-width:2.0px;stroke-linecap:butt;stroke-linejoin:miter;stroke-opacity:1;"/>
<path d="M 155.5,106.1 L 154.8,106.6 L 154.1,106.3" style="fill:none;stroke:#000000;stroke-width:2.0px;stroke-linecap:butt;stroke-linejoin:miter;stroke-opacity:1;"/>
<path d="M 51.1,100.4 L 51.0,99.6 L 50.2,99.3" style="fill:none;stroke:#000000;stroke-width:2.0px;stroke-linecap:butt;stroke-linejoin:miter;stroke-opacity:1;"/>
<path d="M 36.1,94.1 L 35.3,93.9 L 35.1,93.0" style="fill:none;stroke:#000000;stroke-width:2.0px;stroke-linecap:butt;stroke-linejoin:miter;stroke-opacity:1;"/>
<path d="M 32.5,78.3 L 32.4,77.4 L 32.1,77.3" style="fill:none;stroke:#000000;stroke-width:2.0px;stroke-linecap:butt;stroke-linejoin:miter;stroke-opacity:1;"/>
<path class="atom-5" d="M 96.9 114.3 L 98.5 116.8 Q 98.6 117.0, 98.9 117.5 Q 99.1 117.9, 99.1 118.0 L 99.1 114.3 L 99.7 114.3 L 99.7 119.0 L 99.1 119.0 L 97.4 116.3 Q 97.2 116.0, 97.0 115.6 Q 96.8 115.2, 96.8 115.1 L 96.8 119.0 L 96.2 119.0 L 96.2 114.3 L 96.9 114.3 " fill="#0000FF"/>
<path class="atom-5" d="M 96.1 119.5 L 96.8 119.5 L 96.8 121.5 L 99.2 121.5 L 99.2 119.5 L 99.8 119.5 L 99.8 124.2 L 99.2 124.2 L 99.2 122.0 L 96.8 122.0 L 96.8 124.2 L 96.1 124.2 L 96.1 119.5 " fill="#0000FF"/>
<path class="atom-12" d="M 175.3 68.8 Q 175.3 67.6, 175.9 67.0 Q 176.4 66.4, 177.5 66.4 Q 178.5 66.4, 179.1 67.0 Q 179.7 67.6, 179.7 68.8 Q 179.7 69.9, 179.1 70.6 Q 178.5 71.2, 177.5 71.2 Q 176.4 71.2, 175.9 70.6 Q 175.3 69.9, 175.3 68.8 M 177.5 70.7 Q 178.2 70.7, 178.6 70.2 Q 179.0 69.7, 179.0 68.8 Q 179.0 67.9, 178.6 67.4 Q 178.2 66.9, 177.5 66.9 Q 176.8 66.9, 176.4 67.4 Q 176.0 67.8, 176.0 68.8 Q 176.0 69.7, 176.4 70.2 Q 176.8 70.7, 177.5 70.7 " fill="#FF0000"/>
<path class="atom-12" d="M 180.4 66.4 L 181.0 66.4 L 181.0 68.4 L 183.4 68.4 L 183.4 66.4 L 184.1 66.4 L 184.1 71.2 L 183.4 71.2 L 183.4 69.0 L 181.0 69.0 L 181.0 71.2 L 180.4 71.2 L 180.4 66.4 " fill="#FF0000"/>
<path class="atom-14" d="M 181.1 101.6 Q 181.1 100.5, 181.7 99.9 Q 182.2 99.2, 183.3 99.2 Q 184.3 99.2, 184.9 99.9 Q 185.4 100.5, 185.4 101.6 Q 185.4 102.8, 184.9 103.4 Q 184.3 104.1, 183.3 104.1 Q 182.2 104.1, 181.7 103.4 Q 181.1 102.8, 181.1 101.6 M 183.3 103.5 Q 184.0 103.5, 184.4 103.1 Q 184.8 102.6, 184.8 101.6 Q 184.8 100.7, 184.4 100.2 Q 184.0 99.8, 183.3 99.8 Q 182.6 99.8, 182.2 100.2 Q 181.8 100.7, 181.8 101.6 Q 181.8 102.6, 182.2 103.1 Q 182.6 103.5, 183.3 103.5 " fill="#FF0000"/>
<path class="atom-20" d="M 14.6 71.7 Q 14.6 70.6, 15.1 70.0 Q 15.7 69.3, 16.7 69.3 Q 17.8 69.3, 18.3 70.0 Q 18.9 70.6, 18.9 71.7 Q 18.9 72.9, 18.3 73.5 Q 17.8 74.2, 16.7 74.2 Q 15.7 74.2, 15.1 73.5 Q 14.6 72.9, 14.6 71.7 M 16.7 73.7 Q 17.4 73.7, 17.8 73.2 Q 18.2 72.7, 18.2 71.7 Q 18.2 70.8, 17.8 70.3 Q 17.4 69.9, 16.7 69.9 Q 16.0 69.9, 15.6 70.3 Q 15.2 70.8, 15.2 71.7 Q 15.2 72.7, 15.6 73.2 Q 16.0 73.7, 16.7 73.7 " fill="#FF0000"/>
<path class="legend" d="M 103.4 190.0 L 102.2 186.7 L 97.8 186.7 L 96.6 190.0 L 95.1 190.0 L 99.0 178.7 L 100.9 178.7 L 104.9 190.0 L 103.4 190.0 M 98.2 185.4 L 101.8 185.4 L 100.0 180.3 L 98.2 185.4 " fill="#000000"/>
<path class="bond-0 atom-0 atom-1" d="M 360.4,134.3 L 363.4,128.5" style="fill:none;fill-rule:evenodd;stroke:#000000;stroke-width:2.0px;stroke-linecap:butt;stroke-linejoin:miter;stroke-opacity:1"/>
<path class="bond-0 atom-0 atom-1" d="M 363.4,128.5 L 366.5,122.6" style="fill:none;fill-rule:evenodd;stroke:#FF0000;stroke-width:2.0px;stroke-linecap:butt;stroke-linejoin:miter;stroke-opacity:1"/>
<path class="bond-1 atom-1 atom-2" d="M 366.2,116.6 L 362.6,111.1" style="fill:none;fill-rule:evenodd;stroke:#FF0000;stroke-width:2.0px;stroke-linecap:butt;stroke-linejoin:miter;stroke-opacity:1"/>
<path class="bond-1 atom-1 atom-2" d="M 362.6,111.1 L 359.1,105.5" style="fill:none;fill-rule:evenodd;stroke:#000000;stroke-width:2.0px;stroke-linecap:butt;stroke-linejoin:miter;stroke-opacity:1"/>
<path class="bond-2 atom-2 atom-3" d="M 359.1,105.5 L 342.4,106.2" style="fill:none;fill-rule:evenodd;stroke:#000000;stroke-width:2.0px;stroke-linecap:butt;stroke-linejoin:miter;stroke-opacity:1"/>
<path class="bond-2 atom-2 atom-3" d="M 357.5,103.1 L 343.7,103.7" style="fill:none;fill-rule:evenodd;stroke:#000000;stroke-width:2.0px;stroke-linecap:butt;stroke-linejoin:miter;stroke-opacity:1"/>
<path class="bond-3 atom-3 atom-4" d="M 342.4,106.2 L 333.4,92.2" style="fill:none;fill-rule:evenodd;stroke:#000000;stroke-width:2.0px;stroke-linecap:butt;stroke-linejoin:miter;stroke-opacity:1"/>
<path class="bond-4 atom-4 atom-5" d="M 333.4,92.2 L 316.8,92.9" style="fill:none;fill-rule:evenodd;stroke:#000000;stroke-width:2.0px;stroke-linecap:butt;stroke-linejoin:miter;stroke-opacity:1"/>
<path class="bond-5 atom-5 atom-6" d="M 316.8,92.9 L 307.8,78.9" style="fill:none;fill-rule:evenodd;stroke:#000000;stroke-width:2.0px;stroke-linecap:butt;stroke-linejoin:miter;stroke-opacity:1"/>
<path class="bond-6 atom-6 atom-7" d="M 307.8,78.9 L 315.5,64.1" style="fill:none;fill-rule:evenodd;stroke:#000000;stroke-width:2.0px;stroke-linecap:butt;stroke-linejoin:miter;stroke-opacity:1"/>
<path class="bond-7 atom-7 atom-8" d="M 315.5,64.1 L 312.0,58.6" style="fill:none;fill-rule:evenodd;stroke:#000000;stroke-width:2.0px;stroke-linecap:butt;stroke-linejoin:miter;stroke-opacity:1"/>
<path class="bond-7 atom-7 atom-8" d="M 312.0,58.6 L 308.4,53.1" style="fill:none;fill-rule:evenodd;stroke:#FF0000;stroke-width:2.0px;stroke-linecap:butt;stroke-linejoin:miter;stroke-opacity:1"/>
<path class="bond-8 atom-6 atom-9" d="M 307.8,78.9 L 291.1,79.6" style="fill:none;fill-rule:evenodd;stroke:#000000;stroke-width:2.0px;stroke-linecap:butt;stroke-linejoin:miter;stroke-opacity:1"/>
<path class="bond-9 atom-9 atom-10" d="M 291.1,79.6 L 282.2,65.6" style="fill:none;fill-rule:evenodd;stroke:#000000;stroke-width:2.0px;stroke-linecap:butt;stroke-linejoin:miter;stroke-opacity:1"/>
<path class="bond-10 atom-9 atom-11" d="M 291.1,79.6 L 283.5,94.4" style="fill:none;fill-rule:evenodd;stroke:#000000;stroke-width:2.0px;stroke-linecap:butt;stroke-linejoin:miter;stroke-opacity:1"/>
<path class="bond-11 atom-11 atom-12" d="M 283.5,94.4 L 266.8,95.2" style="fill:none;fill-rule:evenodd;stroke:#000000;stroke-width:2.0px;stroke-linecap:butt;stroke-linejoin:miter;stroke-opacity:1"/>
<path class="bond-12 atom-12 atom-13" d="M 266.8,95.2 L 257.8,81.1" style="fill:none;fill-rule:evenodd;stroke:#000000;stroke-width:2.0px;stroke-linecap:butt;stroke-linejoin:miter;stroke-opacity:1"/>
<path class="bond-12 atom-12 atom-13" d="M 263.9,95.3 L 256.5,83.7" style="fill:none;fill-rule:evenodd;stroke:#000000;stroke-width:2.0px;stroke-linecap:butt;stroke-linejoin:miter;stroke-opacity:1"/>
<path class="bond-13 atom-13 atom-14" d="M 257.8,81.1 L 241.2,81.9" style="fill:none;fill-rule:evenodd;stroke:#000000;stroke-width:2.0px;stroke-linecap:butt;stroke-linejoin:miter;stroke-opacity:1"/>
<path class="bond-14 atom-14 atom-15" d="M 241.2,81.9 L 233.5,96.7" style="fill:none;fill-rule:evenodd;stroke:#000000;stroke-width:2.0px;stroke-linecap:butt;stroke-linejoin:miter;stroke-opacity:1"/>
<path class="bond-14 atom-14 atom-15" d="M 242.7,84.3 L 236.4,96.6" style="fill:none;fill-rule:evenodd;stroke:#000000;stroke-width:2.0px;stroke-linecap:butt;stroke-linejoin:miter;stroke-opacity:1"/>
<path class="bond-15 atom-15 atom-16" d="M 233.5,96.7 L 226.5,97.0" style="fill:none;fill-rule:evenodd;stroke:#000000;stroke-width:2.0px;stroke-linecap:butt;stroke-linejoin:miter;stroke-opacity:1"/>
<path class="bond-15 atom-15 atom-16" d="M 226.5,97.0 L 219.5,97.3" style="fill:none;fill-rule:evenodd;stroke:#FF0000;stroke-width:2.0px;stroke-linecap:butt;stroke-linejoin:miter;stroke-opacity:1"/>
<path class="bond-16 atom-15 atom-17" d="M 233.5,96.7 L 242.5,110.7" style="fill:none;fill-rule:evenodd;stroke:#000000;stroke-width:2.0px;stroke-linecap:butt;stroke-linejoin:miter;stroke-opacity:1"/>
<path class="bond-17 atom-17 atom-18" d="M 242.5,110.7 L 239.4,116.7" style="fill:none;fill-rule:evenodd;stroke:#000000;stroke-width:2.0px;stroke-linecap:butt;stroke-linejoin:miter;stroke-opacity:1"/>
<path class="bond-17 atom-17 atom-18" d="M 239.4,116.7 L 236.3,122.6" style="fill:none;fill-rule:evenodd;stroke:#FF0000;stroke-width:2.0px;stroke-linecap:butt;stroke-linejoin:miter;stroke-opacity:1"/>
<path class="bond-18 atom-17 atom-19" d="M 242.5,110.7 L 259.1,110.0" style="fill:none;fill-rule:evenodd;stroke:#000000;stroke-width:2.0px;stroke-linecap:butt;stroke-linejoin:miter;stroke-opacity:1"/>
<path class="bond-18 atom-17 atom-19" d="M 243.8,108.2 L 257.6,107.6" style="fill:none;fill-rule:evenodd;stroke:#000000;stroke-width:2.0px;stroke-linecap:butt;stroke-linejoin:miter;stroke-opacity:1"/>
<path class="bond-19 atom-4 atom-20" d="M 333.4,92.2 L 341.1,77.4" style="fill:none;fill-rule:evenodd;stroke:#000000;stroke-width:2.0px;stroke-linecap:butt;stroke-linejoin:miter;stroke-opacity:1"/>
<path class="bond-19 atom-4 atom-20" d="M 336.3,92.1 L 342.7,79.8" style="fill:none;fill-rule:evenodd;stroke:#000000;stroke-width:2.0px;stroke-linecap:butt;stroke-linejoin:miter;stroke-opacity:1"/>
<path class="bond-20 atom-20 atom-21" d="M 341.1,77.4 L 357.8,76.6" style="fill:none;fill-rule:evenodd;stroke:#000000;stroke-width:2.0px;stroke-linecap:butt;stroke-linejoin:miter;stroke-opacity:1"/>
<path class="bond-21 atom-21 atom-22" d="M 357.8,76.6 L 366.7,90.7" style="fill:none;fill-rule:evenodd;stroke:#000000;stroke-width:2.0px;stroke-linecap:butt;stroke-linejoin:miter;stroke-opacity:1"/>
<path class="bond-21 atom-21 atom-22" d="M 356.4,79.2 L 363.9,90.8" style="fill:none;fill-rule:evenodd;stroke:#000000;stroke-width:2.0px;stroke-linecap:butt;stroke-linejoin:miter;stroke-opacity:1"/>
<path class="bond-22 atom-22 atom-23" d="M 366.7,90.7 L 373.7,90.4" style="fill:none;fill-rule:evenodd;stroke:#000000;stroke-width:2.0px;stroke-linecap:butt;stroke-linejoin:miter;stroke-opacity:1"/>
<path class="bond-22 atom-22 atom-23" d="M 373.7,90.4 L 380.7,90.1" style="fill:none;fill-rule:evenodd;stroke:#FF0000;stroke-width:2.0px;stroke-linecap:butt;stroke-linejoin:miter;stroke-opacity:1"/>
<path class="bond-23 atom-22 atom-2" d="M 366.7,90.7 L 359.1,105.5" style="fill:none;fill-rule:evenodd;stroke:#000000;stroke-width:2.0px;stroke-linecap:butt;stroke-linejoin:miter;stroke-opacity:1"/>
<path class="bond-24 atom-19 atom-12" d="M 259.1,110.0 L 266.8,95.2" style="fill:none;fill-rule:evenodd;stroke:#000000;stroke-width:2.0px;stroke-linecap:butt;stroke-linejoin:miter;stroke-opacity:1"/>
<path d="M 343.2,106.2 L 342.4,106.2 L 342.0,105.5" style="fill:none;stroke:#000000;stroke-width:2.0px;stroke-linecap:butt;stroke-linejoin:miter;stroke-opacity:1;"/>
<path d="M 317.6,92.9 L 316.8,92.9 L 316.3,92.2" style="fill:none;stroke:#000000;stroke-width:2.0px;stroke-linecap:butt;stroke-linejoin:miter;stroke-opacity:1;"/>
<path d="M 315.1,64.8 L 315.5,64.1 L 315.3,63.8" style="fill:none;stroke:#000000;stroke-width:2.0px;stroke-linecap:butt;stroke-linejoin:miter;stroke-opacity:1;"/>
<path d="M 283.8,93.7 L 283.5,94.4 L 282.6,94.5" style="fill:none;stroke:#000000;stroke-width:2.0px;stroke-linecap:butt;stroke-linejoin:miter;stroke-opacity:1;"/>
<path d="M 258.3,81.8 L 257.8,81.1 L 257.0,81.2" style="fill:none;stroke:#000000;stroke-width:2.0px;stroke-linecap:butt;stroke-linejoin:miter;stroke-opacity:1;"/>
<path d="M 242.0,81.8 L 241.2,81.9 L 240.8,82.6" style="fill:none;stroke:#000000;stroke-width:2.0px;stroke-linecap:butt;stroke-linejoin:miter;stroke-opacity:1;"/>
<path d="M 258.3,110.0 L 259.1,110.0 L 259.5,109.2" style="fill:none;stroke:#000000;stroke-width:2.0px;stroke-linecap:butt;stroke-linejoin:miter;stroke-opacity:1;"/>
<path d="M 340.7,78.1 L 341.1,77.4 L 341.9,77.4" style="fill:none;stroke:#000000;stroke-width:2.0px;stroke-linecap:butt;stroke-linejoin:miter;stroke-opacity:1;"/>
<path d="M 356.9,76.7 L 357.8,76.6 L 358.2,77.3" style="fill:none;stroke:#000000;stroke-width:2.0px;stroke-linecap:butt;stroke-linejoin:miter;stroke-opacity:1;"/>
<path class="atom-1" d="M 365.9 119.6 Q 365.9 118.4, 366.4 117.8 Q 367.0 117.2, 368.0 117.2 Q 369.1 117.2, 369.6 117.8 Q 370.2 118.4, 370.2 119.6 Q 370.2 120.7, 369.6 121.4 Q 369.1 122.0, 368.0 122.0 Q 367.0 122.0, 366.4 121.4 Q 365.9 120.7, 365.9 119.6 M 368.0 121.5 Q 368.8 121.5, 369.1 121.0 Q 369.5 120.5, 369.5 119.6 Q 369.5 118.6, 369.1 118.2 Q 368.8 117.7, 368.0 117.7 Q 367.3 117.7, 366.9 118.2 Q 366.5 118.6, 366.5 119.6 Q 366.5 120.5, 366.9 121.0 Q 367.3 121.5, 368.0 121.5 " fill="#FF0000"/>
<path class="atom-8" d="M 299.7 47.7 L 300.3 47.7 L 300.3 49.7 L 302.7 49.7 L 302.7 47.7 L 303.4 47.7 L 303.4 52.4 L 302.7 52.4 L 302.7 50.2 L 300.3 50.2 L 300.3 52.4 L 299.7 52.4 L 299.7 47.7 " fill="#FF0000"/>
<path class="atom-8" d="M 304.3 50.1 Q 304.3 48.9, 304.9 48.3 Q 305.5 47.7, 306.5 47.7 Q 307.5 47.7, 308.1 48.3 Q 308.7 48.9, 308.7 50.1 Q 308.7 51.2, 308.1 51.9 Q 307.5 52.5, 306.5 52.5 Q 305.5 52.5, 304.9 51.9 Q 304.3 51.2, 304.3 50.1 M 306.5 52.0 Q 307.2 52.0, 307.6 51.5 Q 308.0 51.0, 308.0 50.1 Q 308.0 49.1, 307.6 48.7 Q 307.2 48.2, 306.5 48.2 Q 305.8 48.2, 305.4 48.7 Q 305.0 49.1, 305.0 50.1 Q 305.0 51.0, 305.4 51.5 Q 305.8 52.0, 306.5 52.0 " fill="#FF0000"/>
<path class="atom-16" d="M 210.0 95.1 L 210.6 95.1 L 210.6 97.1 L 213.1 97.1 L 213.1 95.1 L 213.7 95.1 L 213.7 99.8 L 213.1 99.8 L 213.1 97.6 L 210.6 97.6 L 210.6 99.8 L 210.0 99.8 L 210.0 95.1 " fill="#FF0000"/>
<path class="atom-16" d="M 214.7 97.4 Q 214.7 96.3, 215.2 95.7 Q 215.8 95.0, 216.8 95.0 Q 217.9 95.0, 218.4 95.7 Q 219.0 96.3, 219.0 97.4 Q 219.0 98.6, 218.4 99.2 Q 217.9 99.9, 216.8 99.9 Q 215.8 99.9, 215.2 99.2 Q 214.7 98.6, 214.7 97.4 M 216.8 99.4 Q 217.6 99.4, 217.9 98.9 Q 218.3 98.4, 218.3 97.4 Q 218.3 96.5, 217.9 96.1 Q 217.6 95.6, 216.8 95.6 Q 216.1 95.6, 215.7 96.0 Q 215.3 96.5, 215.3 97.4 Q 215.3 98.4, 215.7 98.9 Q 216.1 99.4, 216.8 99.4 " fill="#FF0000"/>
<path class="atom-18" d="M 228.0 123.2 L 228.6 123.2 L 228.6 125.2 L 231.0 125.2 L 231.0 123.2 L 231.6 123.2 L 231.6 127.9 L 231.0 127.9 L 231.0 125.7 L 228.6 125.7 L 228.6 127.9 L 228.0 127.9 L 228.0 123.2 " fill="#FF0000"/>
<path class="atom-18" d="M 232.6 125.6 Q 232.6 124.4, 233.2 123.8 Q 233.7 123.1, 234.8 123.1 Q 235.8 123.1, 236.4 123.8 Q 237.0 124.4, 237.0 125.6 Q 237.0 126.7, 236.4 127.4 Q 235.8 128.0, 234.8 128.0 Q 233.7 128.0, 233.2 127.4 Q 232.6 126.7, 232.6 125.6 M 234.8 127.5 Q 235.5 127.5, 235.9 127.0 Q 236.3 126.5, 236.3 125.6 Q 236.3 124.6, 235.9 124.2 Q 235.5 123.7, 234.8 123.7 Q 234.1 123.7, 233.7 124.1 Q 233.3 124.6, 233.3 125.6 Q 233.3 126.5, 233.7 127.0 Q 234.1 127.5, 234.8 127.5 " fill="#FF0000"/>
<path class="atom-23" d="M 381.2 90.0 Q 381.2 88.8, 381.8 88.2 Q 382.4 87.6, 383.4 87.6 Q 384.4 87.6, 385.0 88.2 Q 385.6 88.8, 385.6 90.0 Q 385.6 91.1, 385.0 91.8 Q 384.4 92.4, 383.4 92.4 Q 382.4 92.4, 381.8 91.8 Q 381.2 91.1, 381.2 90.0 M 383.4 91.9 Q 384.1 91.9, 384.5 91.4 Q 384.9 90.9, 384.9 90.0 Q 384.9 89.0, 384.5 88.6 Q 384.1 88.1, 383.4 88.1 Q 382.7 88.1, 382.3 88.6 Q 381.9 89.0, 381.9 90.0 Q 381.9 90.9, 382.3 91.4 Q 382.7 91.9, 383.4 91.9 " fill="#FF0000"/>
<path class="atom-23" d="M 386.3 87.6 L 386.9 87.6 L 386.9 89.6 L 389.4 89.6 L 389.4 87.6 L 390.0 87.6 L 390.0 92.3 L 389.4 92.3 L 389.4 90.2 L 386.9 90.2 L 386.9 92.3 L 386.3 92.3 L 386.3 87.6 " fill="#FF0000"/>
<path class="legend" d="M 301.7 184.0 Q 302.7 184.4, 303.3 185.0 Q 303.8 185.7, 303.8 186.7 Q 303.8 188.2, 302.8 189.1 Q 301.8 190.0, 300.0 190.0 L 296.2 190.0 L 296.2 178.7 L 299.5 178.7 Q 301.4 178.7, 302.4 179.5 Q 303.4 180.2, 303.4 181.7 Q 303.4 183.4, 301.7 184.0 M 297.7 180.0 L 297.7 183.5 L 299.5 183.5 Q 300.6 183.5, 301.2 183.1 Q 301.8 182.6, 301.8 181.7 Q 301.8 180.0, 299.5 180.0 L 297.7 180.0 M 300.0 188.7 Q 301.1 188.7, 301.7 188.2 Q 302.2 187.7, 302.2 186.7 Q 302.2 185.7, 301.6 185.3 Q 301.0 184.8, 299.7 184.8 L 297.7 184.8 L 297.7 188.7 L 300.0 188.7 " fill="#000000"/>
<path class="bond-0 atom-0 atom-1" d="M 541.5,128.8 L 541.8,122.0" style="fill:none;fill-rule:evenodd;stroke:#000000;stroke-width:2.0px;stroke-linecap:butt;stroke-linejoin:miter;stroke-opacity:1"/>
<path class="bond-0 atom-0 atom-1" d="M 541.8,122.0 L 542.1,115.2" style="fill:none;fill-rule:evenodd;stroke:#FF0000;stroke-width:2.0px;stroke-linecap:butt;stroke-linejoin:miter;stroke-opacity:1"/>
<path class="bond-1 atom-1 atom-2" d="M 539.5,110.4 L 533.9,106.8" style="fill:none;fill-rule:evenodd;stroke:#FF0000;stroke-width:2.0px;stroke-linecap:butt;stroke-linejoin:miter;stroke-opacity:1"/>
<path class="bond-1 atom-1 atom-2" d="M 533.9,106.8 L 528.2,103.2" style="fill:none;fill-rule:evenodd;stroke:#000000;stroke-width:2.0px;stroke-linecap:butt;stroke-linejoin:miter;stroke-opacity:1"/>
<path class="bond-2 atom-2 atom-3" d="M 528.2,103.2 L 513.4,110.8" style="fill:none;fill-rule:evenodd;stroke:#000000;stroke-width:2.0px;stroke-linecap:butt;stroke-linejoin:miter;stroke-opacity:1"/>
<path class="bond-2 atom-2 atom-3" d="M 525.8,101.6 L 513.5,108.0" style="fill:none;fill-rule:evenodd;stroke:#000000;stroke-width:2.0px;stroke-linecap:butt;stroke-linejoin:miter;stroke-opacity:1"/>
<path class="bond-3 atom-3 atom-4" d="M 513.4,110.8 L 499.3,101.9" style="fill:none;fill-rule:evenodd;stroke:#000000;stroke-width:2.0px;stroke-linecap:butt;stroke-linejoin:miter;stroke-opacity:1"/>
<path class="bond-4 atom-4 atom-5" d="M 499.3,101.9 L 484.5,109.5" style="fill:none;fill-rule:evenodd;stroke:#000000;stroke-width:2.0px;stroke-linecap:butt;stroke-linejoin:miter;stroke-opacity:1"/>
<path class="bond-5 atom-5 atom-6" d="M 484.5,109.5 L 470.5,100.6" style="fill:none;fill-rule:evenodd;stroke:#000000;stroke-width:2.0px;stroke-linecap:butt;stroke-linejoin:miter;stroke-opacity:1"/>
<path class="bond-6 atom-6 atom-7" d="M 470.5,100.6 L 455.0,106.6" style="fill:none;fill-rule:evenodd;stroke:#000000;stroke-width:2.0px;stroke-linecap:butt;stroke-linejoin:miter;stroke-opacity:1"/>
<path class="bond-7 atom-7 atom-8" d="M 455.0,106.6 L 450.9,101.7" style="fill:none;fill-rule:evenodd;stroke:#000000;stroke-width:2.0px;stroke-linecap:butt;stroke-linejoin:miter;stroke-opacity:1"/>
<path class="bond-7 atom-7 atom-8" d="M 450.9,101.7 L 446.9,96.8" style="fill:none;fill-rule:evenodd;stroke:#FF0000;stroke-width:2.0px;stroke-linecap:butt;stroke-linejoin:miter;stroke-opacity:1"/>
<path class="bond-8 atom-8 atom-9" d="M 446.3,90.8 L 449.8,85.3" style="fill:none;fill-rule:evenodd;stroke:#FF0000;stroke-width:2.0px;stroke-linecap:butt;stroke-linejoin:miter;stroke-opacity:1"/>
<path class="bond-8 atom-8 atom-9" d="M 449.8,85.3 L 453.4,79.7" style="fill:none;fill-rule:evenodd;stroke:#000000;stroke-width:2.0px;stroke-linecap:butt;stroke-linejoin:miter;stroke-opacity:1"/>
<path class="bond-9 atom-9 atom-10" d="M 453.4,79.7 L 469.5,83.9" style="fill:none;fill-rule:evenodd;stroke:#000000;stroke-width:2.0px;stroke-linecap:butt;stroke-linejoin:miter;stroke-opacity:1"/>
<path class="bond-10 atom-10 atom-11" d="M 469.5,83.9 L 482.4,73.3" style="fill:none;fill-rule:evenodd;stroke:#000000;stroke-width:2.0px;stroke-linecap:butt;stroke-linejoin:miter;stroke-opacity:1"/>
<path class="bond-11 atom-4 atom-12" d="M 499.3,101.9 L 500.1,85.2" style="fill:none;fill-rule:evenodd;stroke:#000000;stroke-width:2.0px;stroke-linecap:butt;stroke-linejoin:miter;stroke-opacity:1"/>
<path class="bond-11 atom-4 atom-12" d="M 501.9,100.5 L 502.5,86.8" style="fill:none;fill-rule:evenodd;stroke:#000000;stroke-width:2.0px;stroke-linecap:butt;stroke-linejoin:miter;stroke-opacity:1"/>
<path class="bond-12 atom-12 atom-13" d="M 500.1,85.2 L 514.9,77.5" style="fill:none;fill-rule:evenodd;stroke:#000000;stroke-width:2.0px;stroke-linecap:butt;stroke-linejoin:miter;stroke-opacity:1"/>
<path class="bond-13 atom-13 atom-14" d="M 514.9,77.5 L 515.2,70.7" style="fill:none;fill-rule:evenodd;stroke:#000000;stroke-width:2.0px;stroke-linecap:butt;stroke-linejoin:miter;stroke-opacity:1"/>
<path class="bond-13 atom-13 atom-14" d="M 515.2,70.7 L 515.5,63.9" style="fill:none;fill-rule:evenodd;stroke:#FF0000;stroke-width:2.0px;stroke-linecap:butt;stroke-linejoin:miter;stroke-opacity:1"/>
<path class="bond-14 atom-14 atom-15" d="M 518.4,59.5 L 524.4,56.3" style="fill:none;fill-rule:evenodd;stroke:#FF0000;stroke-width:2.0px;stroke-linecap:butt;stroke-linejoin:miter;stroke-opacity:1"/>
<path class="bond-14 atom-14 atom-15" d="M 524.4,56.3 L 530.4,53.2" style="fill:none;fill-rule:evenodd;stroke:#000000;stroke-width:2.0px;stroke-linecap:butt;stroke-linejoin:miter;stroke-opacity:1"/>
<path class="bond-15 atom-13 atom-16" d="M 514.9,77.5 L 528.9,86.5" style="fill:none;fill-rule:evenodd;stroke:#000000;stroke-width:2.0px;stroke-linecap:butt;stroke-linejoin:miter;stroke-opacity:1"/>
<path class="bond-15 atom-13 atom-16" d="M 514.8,80.4 L 526.4,87.8" style="fill:none;fill-rule:evenodd;stroke:#000000;stroke-width:2.0px;stroke-linecap:butt;stroke-linejoin:miter;stroke-opacity:1"/>
<path class="bond-16 atom-16 atom-17" d="M 528.9,86.5 L 535.0,83.4" style="fill:none;fill-rule:evenodd;stroke:#000000;stroke-width:2.0px;stroke-linecap:butt;stroke-linejoin:miter;stroke-opacity:1"/>
<path class="bond-16 atom-16 atom-17" d="M 535.0,83.4 L 541.0,80.2" style="fill:none;fill-rule:evenodd;stroke:#FF0000;stroke-width:2.0px;stroke-linecap:butt;stroke-linejoin:miter;stroke-opacity:1"/>
<path class="bond-17 atom-17 atom-18" d="M 546.5,80.6 L 552.1,84.2" style="fill:none;fill-rule:evenodd;stroke:#FF0000;stroke-width:2.0px;stroke-linecap:butt;stroke-linejoin:miter;stroke-opacity:1"/>
<path class="bond-17 atom-17 atom-18" d="M 552.1,84.2 L 557.8,87.8" style="fill:none;fill-rule:evenodd;stroke:#000000;stroke-width:2.0px;stroke-linecap:butt;stroke-linejoin:miter;stroke-opacity:1"/>
<path class="bond-18 atom-16 atom-2" d="M 528.9,86.5 L 528.2,103.2" style="fill:none;fill-rule:evenodd;stroke:#000000;stroke-width:2.0px;stroke-linecap:butt;stroke-linejoin:miter;stroke-opacity:1"/>
<path class="bond-19 atom-10 atom-6" d="M 469.5,83.9 L 470.5,100.6" style="fill:none;fill-rule:evenodd;stroke:#000000;stroke-width:2.0px;stroke-linecap:butt;stroke-linejoin:miter;stroke-opacity:1"/>
<path d="M 514.1,110.5 L 513.4,110.8 L 512.7,110.4" style="fill:none;stroke:#000000;stroke-width:2.0px;stroke-linecap:butt;stroke-linejoin:miter;stroke-opacity:1;"/>
<path d="M 485.3,109.2 L 484.5,109.5 L 483.8,109.1" style="fill:none;stroke:#000000;stroke-width:2.0px;stroke-linecap:butt;stroke-linejoin:miter;stroke-opacity:1;"/>
<path d="M 455.7,106.3 L 455.0,106.6 L 454.8,106.4" style="fill:none;stroke:#000000;stroke-width:2.0px;stroke-linecap:butt;stroke-linejoin:miter;stroke-opacity:1;"/>
<path d="M 453.2,80.0 L 453.4,79.7 L 454.2,79.9" style="fill:none;stroke:#000000;stroke-width:2.0px;stroke-linecap:butt;stroke-linejoin:miter;stroke-opacity:1;"/>
<path d="M 500.1,86.0 L 500.1,85.2 L 500.8,84.8" style="fill:none;stroke:#000000;stroke-width:2.0px;stroke-linecap:butt;stroke-linejoin:miter;stroke-opacity:1;"/>
<path class="atom-1" d="M 540.1 112.2 Q 540.1 111.0, 540.6 110.4 Q 541.2 109.8, 542.2 109.8 Q 543.3 109.8, 543.8 110.4 Q 544.4 111.0, 544.4 112.2 Q 544.4 113.3, 543.8 114.0 Q 543.3 114.6, 542.2 114.6 Q 541.2 114.6, 540.6 114.0 Q 540.1 113.3, 540.1 112.2 M 542.2 114.1 Q 543.0 114.1, 543.3 113.6 Q 543.7 113.1, 543.7 112.2 Q 543.7 111.2, 543.3 110.8 Q 543.0 110.3, 542.2 110.3 Q 541.5 110.3, 541.1 110.8 Q 540.7 111.2, 540.7 112.2 Q 540.7 113.1, 541.1 113.6 Q 541.5 114.1, 542.2 114.1 " fill="#FF0000"/>
<path class="atom-8" d="M 442.2 93.8 Q 442.2 92.6, 442.8 92.0 Q 443.3 91.4, 444.4 91.4 Q 445.4 91.4, 446.0 92.0 Q 446.5 92.6, 446.5 93.8 Q 446.5 94.9, 446.0 95.6 Q 445.4 96.2, 444.4 96.2 Q 443.3 96.2, 442.8 95.6 Q 442.2 94.9, 442.2 93.8 M 444.4 95.7 Q 445.1 95.7, 445.5 95.2 Q 445.9 94.7, 445.9 93.8 Q 445.9 92.8, 445.5 92.4 Q 445.1 91.9, 444.4 91.9 Q 443.7 91.9, 443.3 92.4 Q 442.9 92.8, 442.9 93.8 Q 442.9 94.7, 443.3 95.2 Q 443.7 95.7, 444.4 95.7 " fill="#FF0000"/>
<path class="atom-14" d="M 513.5 60.9 Q 513.5 59.8, 514.0 59.1 Q 514.6 58.5, 515.6 58.5 Q 516.7 58.5, 517.3 59.1 Q 517.8 59.8, 517.8 60.9 Q 517.8 62.0, 517.2 62.7 Q 516.7 63.3, 515.6 63.3 Q 514.6 63.3, 514.0 62.7 Q 513.5 62.0, 513.5 60.9 M 515.6 62.8 Q 516.4 62.8, 516.8 62.3 Q 517.1 61.8, 517.1 60.9 Q 517.1 60.0, 516.8 59.5 Q 516.4 59.0, 515.6 59.0 Q 514.9 59.0, 514.5 59.5 Q 514.1 60.0, 514.1 60.9 Q 514.1 61.8, 514.5 62.3 Q 514.9 62.8, 515.6 62.8 " fill="#FF0000"/>
<path class="atom-17" d="M 541.6 78.8 Q 541.6 77.7, 542.1 77.1 Q 542.7 76.4, 543.7 76.4 Q 544.8 76.4, 545.4 77.1 Q 545.9 77.7, 545.9 78.8 Q 545.9 80.0, 545.3 80.6 Q 544.8 81.3, 543.7 81.3 Q 542.7 81.3, 542.1 80.6 Q 541.6 80.0, 541.6 78.8 M 543.7 80.8 Q 544.5 80.8, 544.9 80.3 Q 545.2 79.8, 545.2 78.8 Q 545.2 77.9, 544.9 77.5 Q 544.5 77.0, 543.7 77.0 Q 543.0 77.0, 542.6 77.4 Q 542.2 77.9, 542.2 78.8 Q 542.2 79.8, 542.6 80.3 Q 543.0 80.8, 543.7 80.8 " fill="#FF0000"/>
<path class="legend" d="M 495.6 184.2 Q 495.6 181.4, 496.9 179.9 Q 498.3 178.4, 500.8 178.4 Q 503.1 178.4, 504.4 180.0 L 503.3 180.9 Q 502.4 179.7, 500.8 179.7 Q 499.1 179.7, 498.2 180.9 Q 497.3 182.0, 497.3 184.2 Q 497.3 186.4, 498.2 187.6 Q 499.1 188.7, 501.0 188.7 Q 502.2 188.7, 503.7 188.0 L 504.1 189.2 Q 503.5 189.6, 502.6 189.8 Q 501.7 190.0, 500.7 190.0 Q 498.3 190.0, 496.9 188.5 Q 495.6 187.0, 495.6 184.2 " fill="#000000"/>
</svg>