<svg xmlns="http://www.w3.org/2000/svg" xmlns:rdkit="http://www.rdkit.org/xml" xmlns:xlink="http://www.w3.org/1999/xlink" version="1.1" baseProfile="full" xml:space="preserve" width="800px" height="200px" viewBox="0 0 800 200">
<!-- END OF HEADER -->
<rect style="opacity:1.0;fill:#FFFFFF;stroke:none" width="800.0" height="200.0" x="0.0" y="0.0"> </rect>
<path class="bond-0 atom-0 atom-1" d="M 70.5,95.9 L 94.5,82.0" style="fill:none;fill-rule:evenodd;stroke:#000000;stroke-width:2.0px;stroke-linecap:butt;stroke-linejoin:miter;stroke-opacity:1"/>
<path class="bond-1 atom-1 atom-2" d="M 94.5,82.0 L 104.3,87.7" style="fill:none;fill-rule:evenodd;stroke:#000000;stroke-width:2.0px;stroke-linecap:butt;stroke-linejoin:miter;stroke-opacity:1"/>
<path class="bond-1 atom-1 atom-2" d="M 104.3,87.7 L 114.0,93.3" style="fill:none;fill-rule:evenodd;stroke:#FF0000;stroke-width:2.0px;stroke-linecap:butt;stroke-linejoin:miter;stroke-opacity:1"/>
<path d="M 93.3,82.7 L 94.5,82.0 L 95.0,82.3" style="fill:none;stroke:#000000;stroke-width:2.0px;stroke-linecap:butt;stroke-linejoin:miter;stroke-opacity:1;"/>
<path class="atom-2" d="M 114.9 95.9 Q 114.9 94.0, 115.8 93.0 Q 116.8 91.9, 118.5 91.9 Q 120.2 91.9, 121.2 93.0 Q 122.1 94.0, 122.1 95.9 Q 122.1 97.8, 121.2 98.9 Q 120.2 100.0, 118.5 100.0 Q 116.8 100.0, 115.8 98.9 Q 114.9 97.8, 114.9 95.9 M 118.5 99.1 Q 119.7 99.1, 120.3 98.3 Q 121.0 97.5, 121.0 95.9 Q 121.0 94.4, 120.3 93.6 Q 119.7 92.8, 118.5 92.8 Q 117.3 92.8, 116.7 93.6 Q 116.0 94.4, 116.0 95.9 Q 116.0 97.5, 116.7 98.3 Q 117.3 99.1, 118.5 99.1 " fill="#FF0000"/>
<path class="atom-2" d="M 123.3 92.0 L 124.4 92.0 L 124.4 95.3 L 128.4 95.3 L 128.4 92.0 L 129.5 92.0 L 129.5 99.8 L 128.4 99.8 L 128.4 96.2 L 124.4 96.2 L 124.4 99.8 L 123.3 99.8 L 123.3 92.0 " fill="#FF0000"/>
<path class="legend" d="M 103.4 190.0 L 102.2 186.7 L 97.8 186.7 L 96.6 190.0 L 95.1 190.0 L 99.0 178.7 L 100.9 178.7 L 104.9 190.0 L 103.4 190.0 M 98.2 185.4 L 101.8 185.4 L 100.0 180.3 L 98.2 185.4 " fill="#000000"/>
<path class="bond-0 atom-0 atom-1" d="M 239.8,94.9 L 264.4,82.3" style="fill:none;fill-rule:evenodd;stroke:#000000;stroke-width:2.0px;stroke-linecap:butt;stroke-linejoin:miter;stroke-opacity:1"/>
<path class="bond-1 atom-1 atom-2" d="M 264.4,82.3 L 287.7,97.3" style="fill:none;fill-rule:evenodd;stroke:#000000;stroke-width:2.0px;stroke-linecap:butt;stroke-linejoin:miter;stroke-opacity:1"/>
<path class="bond-2 atom-2 atom-3" d="M 287.7,97.3 L 312.3,84.7" style="fill:none;fill-rule:evenodd;stroke:#000000;stroke-width:2.0px;stroke-linecap:butt;stroke-linejoin:miter;stroke-opacity:1"/>
<path class="bond-3 atom-3 atom-4" d="M 312.3,84.7 L 335.6,99.7" style="fill:none;fill-rule:evenodd;stroke:#000000;stroke-width:2.0px;stroke-linecap:butt;stroke-linejoin:miter;stroke-opacity:1"/>
<path class="bond-4 atom-4 atom-5" d="M 335.6,99.7 L 360.2,87.1" style="fill:none;fill-rule:evenodd;stroke:#000000;stroke-width:2.0px;stroke-linecap:butt;stroke-linejoin:miter;stroke-opacity:1"/>
<path d="M 263.2,82.9 L 264.4,82.3 L 265.6,83.0" style="fill:none;stroke:#000000;stroke-width:2.0px;stroke-linecap:butt;stroke-linejoin:miter;stroke-opacity:1;"/>
<path d="M 286.5,96.6 L 287.7,97.3 L 288.9,96.7" style="fill:none;stroke:#000000;stroke-width:2.0px;stroke-linecap:butt;stroke-linejoin:miter;stroke-opacity:1;"/>
<path d="M 311.1,85.3 L 312.3,84.7 L 313.5,85.4" style="fill:none;stroke:#000000;stroke-width:2.0px;stroke-linecap:butt;stroke-linejoin:miter;stroke-opacity:1;"/>
<path d="M 334.4,99.0 L 335.6,99.7 L 336.8,99.1" style="fill:none;stroke:#000000;stroke-width:2.0px;stroke-linecap:butt;stroke-linejoin:miter;stroke-opacity:1;"/>
<path class="legend" d="M 301.7 184.0 Q 302.7 184.4, 303.3 185.0 Q 303.8 185.7, 303.8 186.7 Q 303.8 188.2, 302.8 189.1 Q 301.8 190.0, 300.0 190.0 L 296.2 190.0 L 296.2 178.7 L 299.5 178.7 Q 301.4 178.7, 302.4 179.5 Q 303.4 180.2, 303.4 181.7 Q 303.4 183.4, 301.7 184.0 M 297.7 180.0 L 297.7 183.5 L 299.5 183.5 Q 300.6 183.5, 301.2 183.1 Q 301.8 182.6, 301.8 181.7 Q 301.8 180.0, 299.5 180.0 L 297.7 180.0 M 300.0 188.7 Q 301.1 188.7, 301.7 188.2 Q 302.2 187.7, 302.2 186.7 Q 302.2 185.7, 301.6 185.3 Q 301.0 184.8, 299.7 184.8 L 297.7 184.8 L 297.7 188.7 L 300.0 188.7 " fill="#000000"/>
<path class="bond-0 atom-0 atom-1" d="M 512.8,150.8 L 522.3,144.9" style="fill:none;fill-rule:evenodd;stroke:#FF0000;stroke-width:2.0px;stroke-linecap:butt;stroke-linejoin:miter;stroke-opacity:1"/>
<path class="bond-0 atom-0 atom-1" d="M 522.3,144.9 L 531.9,139.0" style="fill:none;fill-rule:evenodd;stroke:#000000;stroke-width:2.0px;stroke-linecap:butt;stroke-linejoin:miter;stroke-opacity:1"/>
<path class="bond-1 atom-1 atom-2" d="M 531.9,139.0 L 531.1,111.4" style="fill:none;fill-rule:evenodd;stroke:#000000;stroke-width:2.0px;stroke-linecap:butt;stroke-linejoin:miter;stroke-opacity:1"/>
<path class="bond-2 atom-2 atom-3" d="M 531.1,111.4 L 521.2,106.0" style="fill:none;fill-rule:evenodd;stroke:#000000;stroke-width:2.0px;stroke-linecap:butt;stroke-linejoin:miter;stroke-opacity:1"/>
<path class="bond-2 atom-2 atom-3" d="M 521.2,106.0 L 511.2,100.6" style="fill:none;fill-rule:evenodd;stroke:#FF0000;stroke-width:2.0px;stroke-linecap:butt;stroke-linejoin:miter;stroke-opacity:1"/>
<path class="bond-3 atom-3 atom-4" d="M 506.6,93.3 L 506.2,81.9" style="fill:none;fill-rule:evenodd;stroke:#FF0000;stroke-width:2.0px;stroke-linecap:butt;stroke-linejoin:miter;stroke-opacity:1"/>
<path class="bond-3 atom-3 atom-4" d="M 506.2,81.9 L 505.9,70.5" style="fill:none;fill-rule:evenodd;stroke:#000000;stroke-width:2.0px;stroke-linecap:butt;stroke-linejoin:miter;stroke-opacity:1"/>
<path class="bond-4 atom-4 atom-5" d="M 505.9,70.5 L 496.0,65.2" style="fill:none;fill-rule:evenodd;stroke:#000000;stroke-width:2.0px;stroke-linecap:butt;stroke-linejoin:miter;stroke-opacity:1"/>
<path class="bond-4 atom-4 atom-5" d="M 496.0,65.2 L 486.0,59.8" style="fill:none;fill-rule:evenodd;stroke:#FF0000;stroke-width:2.0px;stroke-linecap:butt;stroke-linejoin:miter;stroke-opacity:1"/>
<path class="bond-5 atom-5 atom-6" d="M 477.0,60.1 L 467.5,66.0" style="fill:none;fill-rule:evenodd;stroke:#FF0000;stroke-width:2.0px;stroke-linecap:butt;stroke-linejoin:miter;stroke-opacity:1"/>
<path class="bond-5 atom-5 atom-6" d="M 467.5,66.0 L 458.0,71.9" style="fill:none;fill-rule:evenodd;stroke:#000000;stroke-width:2.0px;stroke-linecap:butt;stroke-linejoin:miter;stroke-opacity:1"/>
<path class="bond-6 atom-6 atom-7" d="M 458.0,71.9 L 433.6,58.7" style="fill:none;fill-rule:evenodd;stroke:#000000;stroke-width:2.0px;stroke-linecap:butt;stroke-linejoin:miter;stroke-opacity:1"/>
<path class="bond-6 atom-6 atom-7" d="M 453.9,74.4 L 433.7,63.5" style="fill:none;fill-rule:evenodd;stroke:#000000;stroke-width:2.0px;stroke-linecap:butt;stroke-linejoin:miter;stroke-opacity:1"/>
<path class="bond-7 atom-7 atom-8" d="M 433.6,58.7 L 410.0,73.3" style="fill:none;fill-rule:evenodd;stroke:#000000;stroke-width:2.0px;stroke-linecap:butt;stroke-linejoin:miter;stroke-opacity:1"/>
<path class="bond-8 atom-8 atom-9" d="M 410.0,73.3 L 410.8,101.0" style="fill:none;fill-rule:evenodd;stroke:#000000;stroke-width:2.0px;stroke-linecap:butt;stroke-linejoin:miter;stroke-opacity:1"/>
<path class="bond-8 atom-8 atom-9" d="M 414.2,75.6 L 414.9,98.4" style="fill:none;fill-rule:evenodd;stroke:#000000;stroke-width:2.0px;stroke-linecap:butt;stroke-linejoin:miter;stroke-opacity:1"/>
<path class="bond-9 atom-9 atom-10" d="M 410.8,101.0 L 435.2,114.1" style="fill:none;fill-rule:evenodd;stroke:#000000;stroke-width:2.0px;stroke-linecap:butt;stroke-linejoin:miter;stroke-opacity:1"/>
<path class="bond-10 atom-10 atom-11" d="M 435.2,114.1 L 458.8,99.6" style="fill:none;fill-rule:evenodd;stroke:#000000;stroke-width:2.0px;stroke-linecap:butt;stroke-linejoin:miter;stroke-opacity:1"/>
<path class="bond-10 atom-10 atom-11" d="M 435.0,109.3 L 454.5,97.3" style="fill:none;fill-rule:evenodd;stroke:#000000;stroke-width:2.0px;stroke-linecap:butt;stroke-linejoin:miter;stroke-opacity:1"/>
<path class="bond-11 atom-4 atom-12" d="M 505.9,70.5 L 529.5,56.0" style="fill:none;fill-rule:evenodd;stroke:#000000;stroke-width:2.0px;stroke-linecap:butt;stroke-linejoin:miter;stroke-opacity:1"/>
<path class="bond-12 atom-12 atom-13" d="M 529.5,56.0 L 529.2,44.6" style="fill:none;fill-rule:evenodd;stroke:#000000;stroke-width:2.0px;stroke-linecap:butt;stroke-linejoin:miter;stroke-opacity:1"/>
<path class="bond-12 atom-12 atom-13" d="M 529.2,44.6 L 528.8,33.3" style="fill:none;fill-rule:evenodd;stroke:#FF0000;stroke-width:2.0px;stroke-linecap:butt;stroke-linejoin:miter;stroke-opacity:1"/>
<path class="bond-13 atom-12 atom-14" d="M 529.5,56.0 L 553.9,69.1" style="fill:none;fill-rule:evenodd;stroke:#000000;stroke-width:2.0px;stroke-linecap:butt;stroke-linejoin:miter;stroke-opacity:1"/>
<path class="bond-14 atom-14 atom-15" d="M 553.9,69.1 L 563.4,63.3" style="fill:none;fill-rule:evenodd;stroke:#000000;stroke-width:2.0px;stroke-linecap:butt;stroke-linejoin:miter;stroke-opacity:1"/>
<path class="bond-14 atom-14 atom-15" d="M 563.4,63.3 L 572.9,57.4" style="fill:none;fill-rule:evenodd;stroke:#FF0000;stroke-width:2.0px;stroke-linecap:butt;stroke-linejoin:miter;stroke-opacity:1"/>
<path class="bond-15 atom-14 atom-16" d="M 553.9,69.1 L 554.7,96.8" style="fill:none;fill-rule:evenodd;stroke:#000000;stroke-width:2.0px;stroke-linecap:butt;stroke-linejoin:miter;stroke-opacity:1"/>
<path class="bond-16 atom-16 atom-17" d="M 554.7,96.8 L 564.6,102.2" style="fill:none;fill-rule:evenodd;stroke:#000000;stroke-width:2.0px;stroke-linecap:butt;stroke-linejoin:miter;stroke-opacity:1"/>
<path class="bond-16 atom-16 atom-17" d="M 564.6,102.2 L 574.5,107.5" style="fill:none;fill-rule:evenodd;stroke:#FF0000;stroke-width:2.0px;stroke-linecap:butt;stroke-linejoin:miter;stroke-opacity:1"/>
<path class="bond-17 atom-16 atom-2" d="M 554.7,96.8 L 531.1,111.4" style="fill:none;fill-rule:evenodd;stroke:#000000;stroke-width:2.0px;stroke-linecap:butt;stroke-linejoin:miter;stroke-opacity:1"/>
<path class="bond-18 atom-11 atom-6" d="M 458.8,99.6 L 458.0,71.9" style="fill:none;fill-rule:evenodd;stroke:#000000;stroke-width:2.0px;stroke-linecap:butt;stroke-linejoin:miter;stroke-opacity:1"/>
<path d="M 531.4,139.3 L 531.9,139.0 L 531.8,137.7" style="fill:none;stroke:#000000;stroke-width:2.0px;stroke-linecap:butt;stroke-linejoin:miter;stroke-opacity:1;"/>
<path d="M 434.8,59.4 L 433.6,58.7 L 432.4,59.5" style="fill:none;stroke:#000000;stroke-width:2.0px;stroke-linecap:butt;stroke-linejoin:miter;stroke-opacity:1;"/>
<path d="M 411.2,72.6 L 410.0,73.3 L 410.0,74.7" style="fill:none;stroke:#000000;stroke-width:2.0px;stroke-linecap:butt;stroke-linejoin:miter;stroke-opacity:1;"/>
<path d="M 410.8,99.6 L 410.8,101.0 L 412.0,101.6" style="fill:none;stroke:#000000;stroke-width:2.0px;stroke-linecap:butt;stroke-linejoin:miter;stroke-opacity:1;"/>
<path d="M 434.0,113.5 L 435.2,114.1 L 436.4,113.4" style="fill:none;stroke:#000000;stroke-width:2.0px;stroke-linecap:butt;stroke-linejoin:miter;stroke-opacity:1;"/>
<path d="M 457.6,100.3 L 458.8,99.6 L 458.7,98.2" style="fill:none;stroke:#000000;stroke-width:2.0px;stroke-linecap:butt;stroke-linejoin:miter;stroke-opacity:1;"/>
<path class="atom-0" d="M 497.0 149.7 L 498.0 149.7 L 498.0 153.0 L 502.0 153.0 L 502.0 149.7 L 503.1 149.7 L 503.1 157.5 L 502.0 157.5 L 502.0 153.9 L 498.0 153.9 L 498.0 157.5 L 497.0 157.5 L 497.0 149.7 " fill="#FF0000"/>
<path class="atom-0" d="M 504.7 153.6 Q 504.7 151.7, 505.6 150.7 Q 506.6 149.6, 508.3 149.6 Q 510.0 149.6, 511.0 150.7 Q 511.9 151.7, 511.9 153.6 Q 511.9 155.5, 511.0 156.6 Q 510.0 157.7, 508.3 157.7 Q 506.6 157.7, 505.6 156.6 Q 504.7 155.5, 504.7 153.6 M 508.3 156.8 Q 509.5 156.8, 510.1 156.0 Q 510.8 155.2, 510.8 153.6 Q 510.8 152.1, 510.1 151.3 Q 509.5 150.5, 508.3 150.5 Q 507.1 150.5, 506.5 151.3 Q 505.8 152.1, 505.8 153.6 Q 505.8 155.2, 506.5 156.0 Q 507.1 156.8, 508.3 156.8 " fill="#FF0000"/>
<path class="atom-3" d="M 503.1 98.2 Q 503.1 96.3, 504.0 95.3 Q 505.0 94.2, 506.7 94.2 Q 508.4 94.2, 509.4 95.3 Q 510.3 96.3, 510.3 98.2 Q 510.3 100.1, 509.4 101.2 Q 508.4 102.3, 506.7 102.3 Q 505.0 102.3, 504.0 101.2 Q 503.1 100.1, 503.1 98.2 M 506.7 101.4 Q 507.9 101.4, 508.5 100.6 Q 509.2 99.8, 509.2 98.2 Q 509.2 96.7, 508.5 95.9 Q 507.9 95.1, 506.7 95.1 Q 505.5 95.1, 504.9 95.9 Q 504.2 96.7, 504.2 98.2 Q 504.2 99.8, 504.9 100.6 Q 505.5 101.4, 506.7 101.4 " fill="#FF0000"/>
<path class="atom-5" d="M 477.9 57.4 Q 477.9 55.5, 478.9 54.5 Q 479.8 53.4, 481.5 53.4 Q 483.3 53.4, 484.2 54.5 Q 485.1 55.5, 485.1 57.4 Q 485.1 59.3, 484.2 60.4 Q 483.3 61.5, 481.5 61.5 Q 479.8 61.5, 478.9 60.4 Q 477.9 59.3, 477.9 57.4 M 481.5 60.6 Q 482.7 60.6, 483.4 59.8 Q 484.0 59.0, 484.0 57.4 Q 484.0 55.8, 483.4 55.1 Q 482.7 54.3, 481.5 54.3 Q 480.3 54.3, 479.7 55.1 Q 479.0 55.8, 479.0 57.4 Q 479.0 59.0, 479.7 59.8 Q 480.3 60.6, 481.5 60.6 " fill="#FF0000"/>
<path class="atom-13" d="M 525.1 28.3 Q 525.1 26.4, 526.0 25.4 Q 527.0 24.3, 528.7 24.3 Q 530.4 24.3, 531.4 25.4 Q 532.3 26.4, 532.3 28.3 Q 532.3 30.2, 531.4 31.3 Q 530.4 32.4, 528.7 32.4 Q 527.0 32.4, 526.0 31.3 Q 525.1 30.2, 525.1 28.3 M 528.7 31.5 Q 529.9 31.5, 530.5 30.7 Q 531.2 29.9, 531.2 28.3 Q 531.2 26.8, 530.5 26.0 Q 529.9 25.2, 528.7 25.2 Q 527.5 25.2, 526.8 26.0 Q 526.2 26.8, 526.2 28.3 Q 526.2 29.9, 526.8 30.7 Q 527.5 31.5, 528.7 31.5 " fill="#FF0000"/>
<path class="atom-13" d="M 533.5 24.4 L 534.6 24.4 L 534.6 27.8 L 538.6 27.8 L 538.6 24.4 L 539.7 24.4 L 539.7 32.3 L 538.6 32.3 L 538.6 28.6 L 534.6 28.6 L 534.6 32.3 L 533.5 32.3 L 533.5 24.4 " fill="#FF0000"/>
<path class="atom-15" d="M 573.8 54.6 Q 573.8 52.7, 574.8 51.7 Q 575.7 50.6, 577.4 50.6 Q 579.2 50.6, 580.1 51.7 Q 581.0 52.7, 581.0 54.6 Q 581.0 56.5, 580.1 57.6 Q 579.2 58.7, 577.4 58.7 Q 575.7 58.7, 574.8 57.6 Q 573.8 56.5, 573.8 54.6 M 577.4 57.8 Q 578.6 57.8, 579.3 57.0 Q 579.9 56.2, 579.9 54.6 Q 579.9 53.1, 579.3 52.3 Q 578.6 51.5, 577.4 51.5 Q 576.2 51.5, 575.6 52.3 Q 575.0 53.1, 575.0 54.6 Q 575.0 56.2, 575.6 57.0 Q 576.2 57.8, 577.4 57.8 " fill="#FF0000"/>
<path class="atom-15" d="M 582.3 50.7 L 583.3 50.7 L 583.3 54.1 L 587.3 54.1 L 587.3 50.7 L 588.4 50.7 L 588.4 58.6 L 587.3 58.6 L 587.3 54.9 L 583.3 54.9 L 583.3 58.6 L 582.3 58.6 L 582.3 50.7 " fill="#FF0000"/>
<path class="atom-17" d="M 575.4 110.0 Q 575.4 108.1, 576.4 107.1 Q 577.3 106.0, 579.0 106.0 Q 580.8 106.0, 581.7 107.1 Q 582.6 108.1, 582.6 110.0 Q 582.6 111.9, 581.7 113.0 Q 580.8 114.1, 579.0 114.1 Q 577.3 114.1, 576.4 113.0 Q 575.4 111.9, 575.4 110.0 M 579.0 113.2 Q 580.2 113.2, 580.9 112.4 Q 581.5 111.6, 581.5 110.0 Q 581.5 108.5, 580.9 107.7 Q 580.2 106.9, 579.0 106.9 Q 577.8 106.9, 577.2 107.7 Q 576.5 108.4, 576.5 110.0 Q 576.5 111.6, 577.2 112.4 Q 577.8 113.2, 579.0 113.2 " fill="#FF0000"/>
<path class="atom-17" d="M 583.9 106.1 L 584.9 106.1 L 584.9 109.4 L 588.9 109.4 L 588.9 106.1 L 590.0 106.1 L 590.0 113.9 L 588.9 113.9 L 588.9 110.3 L 584.9 110.3 L 584.9 113.9 L 583.9 113.9 L 583.9 106.1 " fill="#FF0000"/>
<path class="legend" d="M 499.2 178.7 Q 501.7 178.7, 503.1 180.2 Q 504.4 181.6, 504.4 184.3 Q 504.4 187.0, 503.1 188.5 Q 501.7 190.0, 499.2 190.0 L 495.6 190.0 L 495.6 178.7 L 499.2 178.7 M 499.2 188.7 Q 501.0 188.7, 501.9 187.6 Q 502.8 186.5, 502.8 184.3 Q 502.8 182.1, 501.9 181.0 Q 501.0 180.0, 499.2 180.0 L 497.1 180.0 L 497.1 188.7 L 499.2 188.7 " fill="#000000"/>
<path class="bond-0 atom-0 atom-1" d="M 652.0,97.9 L 676.0,84.1" style="fill:none;fill-rule:evenodd;stroke:#000000;stroke-width:2.0px;stroke-linecap:butt;stroke-linejoin:miter;stroke-opacity:1"/>
<path class="bond-1 atom-1 atom-2" d="M 676.0,84.1 L 700.0,97.9" style="fill:none;fill-rule:evenodd;stroke:#000000;stroke-width:2.0px;stroke-linecap:butt;stroke-linejoin:miter;stroke-opacity:1"/>
<path class="bond-2 atom-2 atom-3" d="M 700.0,97.9 L 724.0,84.1" style="fill:none;fill-rule:evenodd;stroke:#000000;stroke-width:2.0px;stroke-linecap:butt;stroke-linejoin:miter;stroke-opacity:1"/>
<path class="bond-3 atom-3 atom-4" d="M 724.0,84.1 L 748.0,97.9" style="fill:none;fill-rule:evenodd;stroke:#000000;stroke-width:2.0px;stroke-linecap:butt;stroke-linejoin:miter;stroke-opacity:1"/>
<path d="M 674.8,84.8 L 676.0,84.1 L 677.2,84.8" style="fill:none;stroke:#000000;stroke-width:2.0px;stroke-linecap:butt;stroke-linejoin:miter;stroke-opacity:1;"/>
<path d="M 698.8,97.2 L 700.0,97.9 L 701.2,97.2" style="fill:none;stroke:#000000;stroke-width:2.0px;stroke-linecap:butt;stroke-linejoin:miter;stroke-opacity:1;"/>
<path d="M 722.8,84.8 L 724.0,84.1 L 725.2,84.8" style="fill:none;stroke:#000000;stroke-width:2.0px;stroke-linecap:butt;stroke-linejoin:miter;stroke-opacity:1;"/>
<path class="legend" d="M 696.5 178.7 L 703.3 178.7 L 703.3 180.0 L 698.1 180.0 L 698.1 183.4 L 702.8 183.4 L 702.8 184.7 L 698.1 184.7 L 698.1 188.7 L 703.5 188.7 L 703.5 190.0 L 696.5 190.0 L 696.5 178.7 " fill="#000000"/>
</svg>