<svg xmlns="http://www.w3.org/2000/svg" xmlns:rdkit="http://www.rdkit.org/xml" xmlns:xlink="http://www.w3.org/1999/xlink" version="1.1" baseProfile="full" xml:space="preserve" width="800px" height="200px" viewBox="0 0 800 200">
<!-- END OF HEADER -->
<rect style="opacity:1.0;fill:#FFFFFF;stroke:none" width="800.0" height="200.0" x="0.0" y="0.0"> </rect>
<path class="bond-0 atom-0 atom-1" d="M 144.0,101.3 L 134.0,101.3" style="fill:none;fill-rule:evenodd;stroke:#FF0000;stroke-width:2.0px;stroke-linecap:butt;stroke-linejoin:miter;stroke-opacity:1"/>
<path class="bond-0 atom-0 atom-1" d="M 134.0,101.3 L 124.0,101.3" style="fill:none;fill-rule:evenodd;stroke:#000000;stroke-width:2.0px;stroke-linecap:butt;stroke-linejoin:miter;stroke-opacity:1"/>
<path class="bond-1 atom-1 atom-2" d="M 124.0,101.3 L 112.1,122.0" style="fill:none;fill-rule:evenodd;stroke:#000000;stroke-width:2.0px;stroke-linecap:butt;stroke-linejoin:miter;stroke-opacity:1"/>
<path class="bond-2 atom-2 atom-3" d="M 112.1,122.0 L 102.1,122.0" style="fill:none;fill-rule:evenodd;stroke:#000000;stroke-width:2.0px;stroke-linecap:butt;stroke-linejoin:miter;stroke-opacity:1"/>
<path class="bond-2 atom-2 atom-3" d="M 102.1,122.0 L 92.1,122.0" style="fill:none;fill-rule:evenodd;stroke:#FF0000;stroke-width:2.0px;stroke-linecap:butt;stroke-linejoin:miter;stroke-opacity:1"/>
<path class="bond-3 atom-3 atom-4" d="M 85.8,117.8 L 81.0,109.5" style="fill:none;fill-rule:evenodd;stroke:#FF0000;stroke-width:2.0px;stroke-linecap:butt;stroke-linejoin:miter;stroke-opacity:1"/>
<path class="bond-3 atom-3 atom-4" d="M 81.0,109.5 L 76.3,101.3" style="fill:none;fill-rule:evenodd;stroke:#000000;stroke-width:2.0px;stroke-linecap:butt;stroke-linejoin:miter;stroke-opacity:1"/>
<path class="bond-4 atom-4 atom-5" d="M 76.3,101.3 L 66.3,101.3" style="fill:none;fill-rule:evenodd;stroke:#000000;stroke-width:2.0px;stroke-linecap:butt;stroke-linejoin:miter;stroke-opacity:1"/>
<path class="bond-4 atom-4 atom-5" d="M 66.3,101.3 L 56.3,101.3" style="fill:none;fill-rule:evenodd;stroke:#FF0000;stroke-width:2.0px;stroke-linecap:butt;stroke-linejoin:miter;stroke-opacity:1"/>
<path class="bond-5 atom-4 atom-6" d="M 76.3,101.3 L 88.2,80.6" style="fill:none;fill-rule:evenodd;stroke:#000000;stroke-width:2.0px;stroke-linecap:butt;stroke-linejoin:miter;stroke-opacity:1"/>
<path class="bond-6 atom-6 atom-7" d="M 88.2,80.6 L 83.5,72.4" style="fill:none;fill-rule:evenodd;stroke:#000000;stroke-width:2.0px;stroke-linecap:butt;stroke-linejoin:miter;stroke-opacity:1"/>
<path class="bond-6 atom-6 atom-7" d="M 83.5,72.4 L 78.8,64.2" style="fill:none;fill-rule:evenodd;stroke:#FF0000;stroke-width:2.0px;stroke-linecap:butt;stroke-linejoin:miter;stroke-opacity:1"/>
<path class="bond-7 atom-6 atom-8" d="M 88.2,80.6 L 112.1,80.6" style="fill:none;fill-rule:evenodd;stroke:#000000;stroke-width:2.0px;stroke-linecap:butt;stroke-linejoin:miter;stroke-opacity:1"/>
<path class="bond-8 atom-8 atom-9" d="M 112.1,80.6 L 116.8,72.4" style="fill:none;fill-rule:evenodd;stroke:#000000;stroke-width:2.0px;stroke-linecap:butt;stroke-linejoin:miter;stroke-opacity:1"/>
<path class="bond-8 atom-8 atom-9" d="M 116.8,72.4 L 121.6,64.2" style="fill:none;fill-rule:evenodd;stroke:#FF0000;stroke-width:2.0px;stroke-linecap:butt;stroke-linejoin:miter;stroke-opacity:1"/>
<path class="bond-9 atom-8 atom-1" d="M 112.1,80.6 L 124.0,101.3" style="fill:none;fill-rule:evenodd;stroke:#000000;stroke-width:2.0px;stroke-linecap:butt;stroke-linejoin:miter;stroke-opacity:1"/>
<path d="M 112.7,120.9 L 112.1,122.0 L 111.6,122.0" style="fill:none;stroke:#000000;stroke-width:2.0px;stroke-linecap:butt;stroke-linejoin:miter;stroke-opacity:1;"/>
<path class="atom-0" d="M 144.8 101.3 Q 144.8 99.7, 145.6 98.8 Q 146.4 97.9, 147.9 97.9 Q 149.4 97.9, 150.2 98.8 Q 151.0 99.7, 151.0 101.3 Q 151.0 102.9, 150.2 103.9 Q 149.4 104.8, 147.9 104.8 Q 146.4 104.8, 145.6 103.9 Q 144.8 103.0, 144.8 101.3 M 147.9 104.0 Q 148.9 104.0, 149.5 103.4 Q 150.1 102.7, 150.1 101.3 Q 150.1 100.0, 149.5 99.3 Q 148.9 98.6, 147.9 98.6 Q 146.9 98.6, 146.3 99.3 Q 145.8 100.0, 145.8 101.3 Q 145.8 102.7, 146.3 103.4 Q 146.9 104.0, 147.9 104.0 " fill="#FF0000"/>
<path class="atom-0" d="M 152.1 97.9 L 153.0 97.9 L 153.0 100.8 L 156.4 100.8 L 156.4 97.9 L 157.4 97.9 L 157.4 104.7 L 156.4 104.7 L 156.4 101.6 L 153.0 101.6 L 153.0 104.7 L 152.1 104.7 L 152.1 97.9 " fill="#FF0000"/>
<path class="atom-3" d="M 85.1 122.0 Q 85.1 120.4, 85.9 119.5 Q 86.7 118.5, 88.2 118.5 Q 89.7 118.5, 90.5 119.5 Q 91.3 120.4, 91.3 122.0 Q 91.3 123.6, 90.5 124.6 Q 89.7 125.5, 88.2 125.5 Q 86.7 125.5, 85.9 124.6 Q 85.1 123.6, 85.1 122.0 M 88.2 124.7 Q 89.3 124.7, 89.8 124.0 Q 90.4 123.3, 90.4 122.0 Q 90.4 120.7, 89.8 120.0 Q 89.3 119.3, 88.2 119.3 Q 87.2 119.3, 86.6 120.0 Q 86.1 120.6, 86.1 122.0 Q 86.1 123.3, 86.6 124.0 Q 87.2 124.7, 88.2 124.7 " fill="#FF0000"/>
<path class="atom-5" d="M 42.6 97.9 L 43.6 97.9 L 43.6 100.8 L 47.0 100.8 L 47.0 97.9 L 47.9 97.9 L 47.9 104.7 L 47.0 104.7 L 47.0 101.6 L 43.6 101.6 L 43.6 104.7 L 42.6 104.7 L 42.6 97.9 " fill="#FF0000"/>
<path class="atom-5" d="M 49.3 101.3 Q 49.3 99.7, 50.1 98.8 Q 50.9 97.9, 52.4 97.9 Q 53.9 97.9, 54.7 98.8 Q 55.5 99.7, 55.5 101.3 Q 55.5 102.9, 54.7 103.9 Q 53.9 104.8, 52.4 104.8 Q 50.9 104.8, 50.1 103.9 Q 49.3 103.0, 49.3 101.3 M 52.4 104.0 Q 53.4 104.0, 54.0 103.4 Q 54.6 102.7, 54.6 101.3 Q 54.6 100.0, 54.0 99.3 Q 53.4 98.6, 52.4 98.6 Q 51.4 98.6, 50.8 99.3 Q 50.3 100.0, 50.3 101.3 Q 50.3 102.7, 50.8 103.4 Q 51.4 104.0, 52.4 104.0 " fill="#FF0000"/>
<path class="atom-7" d="M 66.5 56.6 L 67.4 56.6 L 67.4 59.5 L 70.9 59.5 L 70.9 56.6 L 71.8 56.6 L 71.8 63.4 L 70.9 63.4 L 70.9 60.2 L 67.4 60.2 L 67.4 63.4 L 66.5 63.4 L 66.5 56.6 " fill="#FF0000"/>
<path class="atom-7" d="M 73.2 60.0 Q 73.2 58.3, 74.0 57.4 Q 74.8 56.5, 76.3 56.5 Q 77.8 56.5, 78.6 57.4 Q 79.4 58.3, 79.4 60.0 Q 79.4 61.6, 78.6 62.5 Q 77.8 63.5, 76.3 63.5 Q 74.8 63.5, 74.0 62.5 Q 73.2 61.6, 73.2 60.0 M 76.3 62.7 Q 77.3 62.7, 77.9 62.0 Q 78.4 61.3, 78.4 60.0 Q 78.4 58.6, 77.9 58.0 Q 77.3 57.3, 76.3 57.3 Q 75.3 57.3, 74.7 57.9 Q 74.1 58.6, 74.1 60.0 Q 74.1 61.3, 74.7 62.0 Q 75.3 62.7, 76.3 62.7 " fill="#FF0000"/>
<path class="atom-9" d="M 120.9 60.0 Q 120.9 58.3, 121.7 57.4 Q 122.5 56.5, 124.0 56.5 Q 125.5 56.5, 126.3 57.4 Q 127.1 58.3, 127.1 60.0 Q 127.1 61.6, 126.3 62.5 Q 125.5 63.5, 124.0 63.5 Q 122.6 63.5, 121.7 62.5 Q 120.9 61.6, 120.9 60.0 M 124.0 62.7 Q 125.1 62.7, 125.6 62.0 Q 126.2 61.3, 126.2 60.0 Q 126.2 58.6, 125.6 58.0 Q 125.1 57.3, 124.0 57.3 Q 123.0 57.3, 122.4 57.9 Q 121.9 58.6, 121.9 60.0 Q 121.9 61.3, 122.4 62.0 Q 123.0 62.7, 124.0 62.7 " fill="#FF0000"/>
<path class="atom-9" d="M 128.2 56.6 L 129.1 56.6 L 129.1 59.5 L 132.6 59.5 L 132.6 56.6 L 133.5 56.6 L 133.5 63.4 L 132.6 63.4 L 132.6 60.2 L 129.1 60.2 L 129.1 63.4 L 128.2 63.4 L 128.2 56.6 " fill="#FF0000"/>
<path class="legend" d="M 101.7 184.0 Q 102.7 184.4, 103.3 185.0 Q 103.8 185.7, 103.8 186.7 Q 103.8 188.2, 102.8 189.1 Q 101.8 190.0, 100.0 190.0 L 96.2 190.0 L 96.2 178.7 L 99.5 178.7 Q 101.4 178.7, 102.4 179.5 Q 103.4 180.2, 103.4 181.7 Q 103.4 183.4, 101.7 184.0 M 97.7 180.0 L 97.7 183.5 L 99.5 183.5 Q 100.6 183.5, 101.2 183.1 Q 101.8 182.6, 101.8 181.7 Q 101.8 180.0, 99.5 180.0 L 97.7 180.0 M 100.0 188.7 Q 101.1 188.7, 101.7 188.2 Q 102.2 187.7, 102.2 186.7 Q 102.2 185.7, 101.6 185.3 Q 101.0 184.8, 99.7 184.8 L 97.7 184.8 L 97.7 188.7 L 100.0 188.7 " fill="#000000"/>
<path class="bond-0 atom-0 atom-1" d="M 210.0,61.5 L 233.8,63.0" style="fill:none;fill-rule:evenodd;stroke:#000000;stroke-width:2.0px;stroke-linecap:butt;stroke-linejoin:miter;stroke-opacity:1"/>
<path class="bond-1 atom-1 atom-2" d="M 233.8,63.0 L 244.5,84.3" style="fill:none;fill-rule:evenodd;stroke:#000000;stroke-width:2.0px;stroke-linecap:butt;stroke-linejoin:miter;stroke-opacity:1"/>
<path class="bond-2 atom-2 atom-3" d="M 244.5,84.3 L 268.3,85.8" style="fill:none;fill-rule:evenodd;stroke:#000000;stroke-width:2.0px;stroke-linecap:butt;stroke-linejoin:miter;stroke-opacity:1"/>
<path class="bond-2 atom-2 atom-3" d="M 246.7,80.9 L 268.5,82.2" style="fill:none;fill-rule:evenodd;stroke:#000000;stroke-width:2.0px;stroke-linecap:butt;stroke-linejoin:miter;stroke-opacity:1;stroke-dasharray:6,4"/>
<path class="bond-3 atom-3 atom-4" d="M 268.3,85.8 L 278.9,107.2" style="fill:none;fill-rule:evenodd;stroke:#000000;stroke-width:2.0px;stroke-linecap:butt;stroke-linejoin:miter;stroke-opacity:1"/>
<path class="bond-3 atom-3 atom-4" d="M 266.0,89.3 L 275.7,108.8" style="fill:none;fill-rule:evenodd;stroke:#000000;stroke-width:2.0px;stroke-linecap:butt;stroke-linejoin:miter;stroke-opacity:1;stroke-dasharray:6,4"/>
<path class="bond-4 atom-4 atom-5" d="M 278.9,107.2 L 302.7,108.7" style="fill:none;fill-rule:evenodd;stroke:#000000;stroke-width:2.0px;stroke-linecap:butt;stroke-linejoin:miter;stroke-opacity:1"/>
<path class="bond-4 atom-4 atom-5" d="M 281.2,103.7 L 300.9,105.0" style="fill:none;fill-rule:evenodd;stroke:#000000;stroke-width:2.0px;stroke-linecap:butt;stroke-linejoin:miter;stroke-opacity:1;stroke-dasharray:6,4"/>
<path class="bond-5 atom-5 atom-6" d="M 302.7,108.7 L 313.4,130.0" style="fill:none;fill-rule:evenodd;stroke:#000000;stroke-width:2.0px;stroke-linecap:butt;stroke-linejoin:miter;stroke-opacity:1"/>
<path class="bond-6 atom-5 atom-7" d="M 302.7,108.7 L 315.9,88.8" style="fill:none;fill-rule:evenodd;stroke:#000000;stroke-width:2.0px;stroke-linecap:butt;stroke-linejoin:miter;stroke-opacity:1"/>
<path class="bond-6 atom-5 atom-7" d="M 306.9,108.9 L 317.8,92.5" style="fill:none;fill-rule:evenodd;stroke:#000000;stroke-width:2.0px;stroke-linecap:butt;stroke-linejoin:miter;stroke-opacity:1;stroke-dasharray:6,4"/>
<path class="bond-7 atom-7 atom-8" d="M 315.9,88.8 L 339.8,90.3" style="fill:none;fill-rule:evenodd;stroke:#000000;stroke-width:2.0px;stroke-linecap:butt;stroke-linejoin:miter;stroke-opacity:1"/>
<path class="bond-7 atom-7 atom-8" d="M 317.8,92.5 L 339.6,93.8" style="fill:none;fill-rule:evenodd;stroke:#000000;stroke-width:2.0px;stroke-linecap:butt;stroke-linejoin:miter;stroke-opacity:1;stroke-dasharray:6,4"/>
<path class="bond-8 atom-8 atom-9" d="M 339.8,90.3 L 353.0,70.4" style="fill:none;fill-rule:evenodd;stroke:#000000;stroke-width:2.0px;stroke-linecap:butt;stroke-linejoin:miter;stroke-opacity:1"/>
<path class="bond-8 atom-8 atom-9" d="M 337.9,86.6 L 350.0,68.4" style="fill:none;fill-rule:evenodd;stroke:#000000;stroke-width:2.0px;stroke-linecap:butt;stroke-linejoin:miter;stroke-opacity:1;stroke-dasharray:6,4"/>
<path class="bond-9 atom-9 atom-10" d="M 353.0,70.4 L 376.8,71.8" style="fill:none;fill-rule:evenodd;stroke:#000000;stroke-width:2.0px;stroke-linecap:butt;stroke-linejoin:miter;stroke-opacity:1"/>
<path class="bond-9 atom-9 atom-10" d="M 354.8,74.1 L 374.5,75.3" style="fill:none;fill-rule:evenodd;stroke:#000000;stroke-width:2.0px;stroke-linecap:butt;stroke-linejoin:miter;stroke-opacity:1;stroke-dasharray:6,4"/>
<path class="bond-10 atom-10 atom-11" d="M 374.7,71.7 L 385.8,94.0" style="fill:none;fill-rule:evenodd;stroke:#000000;stroke-width:2.0px;stroke-linecap:butt;stroke-linejoin:miter;stroke-opacity:1"/>
<path class="bond-10 atom-10 atom-11" d="M 377.9,70.1 L 389.0,92.4" style="fill:none;fill-rule:evenodd;stroke:#000000;stroke-width:2.0px;stroke-linecap:butt;stroke-linejoin:miter;stroke-opacity:1;stroke-dasharray:6,4"/>
<path class="bond-11 atom-10 atom-12" d="M 376.8,71.8 L 390.0,52.0" style="fill:none;fill-rule:evenodd;stroke:#000000;stroke-width:2.0px;stroke-linecap:butt;stroke-linejoin:miter;stroke-opacity:1"/>
<path d="M 232.6,62.9 L 233.8,63.0 L 234.4,64.0" style="fill:none;stroke:#000000;stroke-width:2.0px;stroke-linecap:butt;stroke-linejoin:miter;stroke-opacity:1;"/>
<path d="M 243.9,83.3 L 244.5,84.3 L 245.7,84.4" style="fill:none;stroke:#000000;stroke-width:2.0px;stroke-linecap:butt;stroke-linejoin:miter;stroke-opacity:1;"/>
<path d="M 267.1,85.7 L 268.3,85.8 L 268.8,86.9" style="fill:none;stroke:#000000;stroke-width:2.0px;stroke-linecap:butt;stroke-linejoin:miter;stroke-opacity:1;"/>
<path d="M 278.4,106.1 L 278.9,107.2 L 280.1,107.3" style="fill:none;stroke:#000000;stroke-width:2.0px;stroke-linecap:butt;stroke-linejoin:miter;stroke-opacity:1;"/>
<path d="M 315.3,89.8 L 315.9,88.8 L 317.1,88.9" style="fill:none;stroke:#000000;stroke-width:2.0px;stroke-linecap:butt;stroke-linejoin:miter;stroke-opacity:1;"/>
<path d="M 338.6,90.2 L 339.8,90.3 L 340.4,89.3" style="fill:none;stroke:#000000;stroke-width:2.0px;stroke-linecap:butt;stroke-linejoin:miter;stroke-opacity:1;"/>
<path d="M 352.3,71.4 L 353.0,70.4 L 354.2,70.4" style="fill:none;stroke:#000000;stroke-width:2.0px;stroke-linecap:butt;stroke-linejoin:miter;stroke-opacity:1;"/>
<path class="legend" d="M 295.6 184.2 Q 295.6 181.4, 296.9 179.9 Q 298.3 178.4, 300.8 178.4 Q 303.1 178.4, 304.4 180.0 L 303.3 180.9 Q 302.4 179.7, 300.8 179.7 Q 299.1 179.7, 298.2 180.9 Q 297.3 182.0, 297.3 184.2 Q 297.3 186.4, 298.2 187.6 Q 299.1 188.7, 301.0 188.7 Q 302.2 188.7, 303.7 188.0 L 304.1 189.2 Q 303.5 189.6, 302.6 189.8 Q 301.7 190.0, 300.7 190.0 Q 298.3 190.0, 296.9 188.5 Q 295.6 187.0, 295.6 184.2 " fill="#000000"/>
</svg>