<svg xmlns="http://www.w3.org/2000/svg" xmlns:rdkit="http://www.rdkit.org/xml" xmlns:xlink="http://www.w3.org/1999/xlink" version="1.1" baseProfile="full" xml:space="preserve" width="800px" height="200px" viewBox="0 0 800 200">
<!-- END OF HEADER -->
<rect style="opacity:1.0;fill:#FFFFFF;stroke:none" width="800.0" height="200.0" x="0.0" y="0.0"> </rect>
<path class="bond-0 atom-0 atom-1" d="M 28.9,107.4 L 32.4,97.0" style="fill:none;fill-rule:evenodd;stroke:#FF0000;stroke-width:2.0px;stroke-linecap:butt;stroke-linejoin:miter;stroke-opacity:1"/>
<path class="bond-0 atom-0 atom-1" d="M 32.4,97.0 L 35.9,86.6" style="fill:none;fill-rule:evenodd;stroke:#000000;stroke-width:2.0px;stroke-linecap:butt;stroke-linejoin:miter;stroke-opacity:1"/>
<path class="bond-0 atom-0 atom-1" d="M 32.6,108.6 L 36.1,98.2" style="fill:none;fill-rule:evenodd;stroke:#FF0000;stroke-width:2.0px;stroke-linecap:butt;stroke-linejoin:miter;stroke-opacity:1"/>
<path class="bond-0 atom-0 atom-1" d="M 36.1,98.2 L 39.6,87.8" style="fill:none;fill-rule:evenodd;stroke:#000000;stroke-width:2.0px;stroke-linecap:butt;stroke-linejoin:miter;stroke-opacity:1"/>
<path class="bond-1 atom-1 atom-2" d="M 37.4,88.3 L 31.0,81.0" style="fill:none;fill-rule:evenodd;stroke:#000000;stroke-width:2.0px;stroke-linecap:butt;stroke-linejoin:miter;stroke-opacity:1"/>
<path class="bond-1 atom-1 atom-2" d="M 31.0,81.0 L 24.6,73.7" style="fill:none;fill-rule:evenodd;stroke:#FF0000;stroke-width:2.0px;stroke-linecap:butt;stroke-linejoin:miter;stroke-opacity:1"/>
<path class="bond-2 atom-1 atom-3" d="M 37.4,88.3 L 62.5,83.2" style="fill:none;fill-rule:evenodd;stroke:#000000;stroke-width:2.0px;stroke-linecap:butt;stroke-linejoin:miter;stroke-opacity:1"/>
<path class="bond-3 atom-3 atom-4" d="M 62.5,83.2 L 79.4,102.4" style="fill:none;fill-rule:evenodd;stroke:#000000;stroke-width:2.0px;stroke-linecap:butt;stroke-linejoin:miter;stroke-opacity:1"/>
<path class="bond-3 atom-3 atom-4" d="M 61.1,87.4 L 76.5,105.0" style="fill:none;fill-rule:evenodd;stroke:#000000;stroke-width:2.0px;stroke-linecap:butt;stroke-linejoin:miter;stroke-opacity:1"/>
<path class="bond-4 atom-4 atom-5" d="M 79.4,102.4 L 104.5,97.4" style="fill:none;fill-rule:evenodd;stroke:#000000;stroke-width:2.0px;stroke-linecap:butt;stroke-linejoin:miter;stroke-opacity:1"/>
<path class="bond-5 atom-5 atom-6" d="M 104.5,97.4 L 112.7,73.1" style="fill:none;fill-rule:evenodd;stroke:#000000;stroke-width:2.0px;stroke-linecap:butt;stroke-linejoin:miter;stroke-opacity:1"/>
<path class="bond-5 atom-5 atom-6" d="M 108.9,96.5 L 115.7,76.5" style="fill:none;fill-rule:evenodd;stroke:#000000;stroke-width:2.0px;stroke-linecap:butt;stroke-linejoin:miter;stroke-opacity:1"/>
<path class="bond-6 atom-6 atom-7" d="M 112.7,73.1 L 137.8,68.1" style="fill:none;fill-rule:evenodd;stroke:#000000;stroke-width:2.0px;stroke-linecap:butt;stroke-linejoin:miter;stroke-opacity:1"/>
<path class="bond-7 atom-7 atom-8" d="M 137.8,68.1 L 154.8,87.3" style="fill:none;fill-rule:evenodd;stroke:#000000;stroke-width:2.0px;stroke-linecap:butt;stroke-linejoin:miter;stroke-opacity:1"/>
<path class="bond-7 atom-7 atom-8" d="M 136.4,72.3 L 150.4,88.2" style="fill:none;fill-rule:evenodd;stroke:#000000;stroke-width:2.0px;stroke-linecap:butt;stroke-linejoin:miter;stroke-opacity:1"/>
<path class="bond-8 atom-8 atom-9" d="M 154.8,87.3 L 165.2,85.2" style="fill:none;fill-rule:evenodd;stroke:#000000;stroke-width:2.0px;stroke-linecap:butt;stroke-linejoin:miter;stroke-opacity:1"/>
<path class="bond-8 atom-8 atom-9" d="M 165.2,85.2 L 175.7,83.1" style="fill:none;fill-rule:evenodd;stroke:#FF0000;stroke-width:2.0px;stroke-linecap:butt;stroke-linejoin:miter;stroke-opacity:1"/>
<path class="bond-9 atom-8 atom-10" d="M 154.8,87.3 L 146.6,111.6" style="fill:none;fill-rule:evenodd;stroke:#000000;stroke-width:2.0px;stroke-linecap:butt;stroke-linejoin:miter;stroke-opacity:1"/>
<path class="bond-10 atom-10 atom-11" d="M 146.6,111.6 L 121.5,116.6" style="fill:none;fill-rule:evenodd;stroke:#000000;stroke-width:2.0px;stroke-linecap:butt;stroke-linejoin:miter;stroke-opacity:1"/>
<path class="bond-10 atom-10 atom-11" d="M 143.6,108.3 L 122.9,112.4" style="fill:none;fill-rule:evenodd;stroke:#000000;stroke-width:2.0px;stroke-linecap:butt;stroke-linejoin:miter;stroke-opacity:1"/>
<path class="bond-11 atom-11 atom-5" d="M 121.5,116.6 L 104.5,97.4" style="fill:none;fill-rule:evenodd;stroke:#000000;stroke-width:2.0px;stroke-linecap:butt;stroke-linejoin:miter;stroke-opacity:1"/>
<path d="M 37.1,87.9 L 37.4,88.3 L 38.7,88.0" style="fill:none;stroke:#000000;stroke-width:2.0px;stroke-linecap:butt;stroke-linejoin:miter;stroke-opacity:1;"/>
<path d="M 61.3,83.5 L 62.5,83.2 L 63.4,84.2" style="fill:none;stroke:#000000;stroke-width:2.0px;stroke-linecap:butt;stroke-linejoin:miter;stroke-opacity:1;"/>
<path d="M 78.6,101.5 L 79.4,102.4 L 80.7,102.2" style="fill:none;stroke:#000000;stroke-width:2.0px;stroke-linecap:butt;stroke-linejoin:miter;stroke-opacity:1;"/>
<path d="M 112.3,74.4 L 112.7,73.1 L 114.0,72.9" style="fill:none;stroke:#000000;stroke-width:2.0px;stroke-linecap:butt;stroke-linejoin:miter;stroke-opacity:1;"/>
<path d="M 136.6,68.4 L 137.8,68.1 L 138.7,69.1" style="fill:none;stroke:#000000;stroke-width:2.0px;stroke-linecap:butt;stroke-linejoin:miter;stroke-opacity:1;"/>
<path d="M 147.0,110.4 L 146.6,111.6 L 145.3,111.8" style="fill:none;stroke:#000000;stroke-width:2.0px;stroke-linecap:butt;stroke-linejoin:miter;stroke-opacity:1;"/>
<path d="M 122.7,116.4 L 121.5,116.6 L 120.6,115.7" style="fill:none;stroke:#000000;stroke-width:2.0px;stroke-linecap:butt;stroke-linejoin:miter;stroke-opacity:1;"/>
<path class="atom-0" d="M 25.9 112.5 Q 25.9 110.8, 26.7 109.8 Q 27.6 108.9, 29.2 108.9 Q 30.8 108.9, 31.7 109.8 Q 32.5 110.8, 32.5 112.5 Q 32.5 114.3, 31.7 115.3 Q 30.8 116.3, 29.2 116.3 Q 27.6 116.3, 26.7 115.3 Q 25.9 114.3, 25.9 112.5 M 29.2 115.5 Q 30.3 115.5, 30.9 114.7 Q 31.5 114.0, 31.5 112.5 Q 31.5 111.1, 30.9 110.4 Q 30.3 109.7, 29.2 109.7 Q 28.1 109.7, 27.5 110.4 Q 26.9 111.1, 26.9 112.5 Q 26.9 114.0, 27.5 114.7 Q 28.1 115.5, 29.2 115.5 " fill="#FF0000"/>
<path class="atom-2" d="M 10.0 65.4 L 11.0 65.4 L 11.0 68.5 L 14.7 68.5 L 14.7 65.4 L 15.7 65.4 L 15.7 72.7 L 14.7 72.7 L 14.7 69.3 L 11.0 69.3 L 11.0 72.7 L 10.0 72.7 L 10.0 65.4 " fill="#FF0000"/>
<path class="atom-2" d="M 17.2 69.1 Q 17.2 67.3, 18.0 66.3 Q 18.9 65.4, 20.5 65.4 Q 22.1 65.4, 23.0 66.3 Q 23.8 67.3, 23.8 69.1 Q 23.8 70.8, 22.9 71.8 Q 22.1 72.8, 20.5 72.8 Q 18.9 72.8, 18.0 71.8 Q 17.2 70.8, 17.2 69.1 M 20.5 72.0 Q 21.6 72.0, 22.2 71.3 Q 22.8 70.5, 22.8 69.1 Q 22.8 67.6, 22.2 66.9 Q 21.6 66.2, 20.5 66.2 Q 19.4 66.2, 18.8 66.9 Q 18.2 67.6, 18.2 69.1 Q 18.2 70.5, 18.8 71.3 Q 19.4 72.0, 20.5 72.0 " fill="#FF0000"/>
<path class="atom-9" d="M 176.5 82.3 Q 176.5 80.6, 177.4 79.6 Q 178.3 78.6, 179.9 78.6 Q 181.5 78.6, 182.3 79.6 Q 183.2 80.6, 183.2 82.3 Q 183.2 84.1, 182.3 85.1 Q 181.5 86.1, 179.9 86.1 Q 178.3 86.1, 177.4 85.1 Q 176.5 84.1, 176.5 82.3 M 179.9 85.3 Q 181.0 85.3, 181.6 84.5 Q 182.2 83.8, 182.2 82.3 Q 182.2 80.9, 181.6 80.2 Q 181.0 79.4, 179.9 79.4 Q 178.8 79.4, 178.2 80.2 Q 177.6 80.9, 177.6 82.3 Q 177.6 83.8, 178.2 84.5 Q 178.8 85.3, 179.9 85.3 " fill="#FF0000"/>
<path class="atom-9" d="M 184.3 78.7 L 185.3 78.7 L 185.3 81.8 L 189.0 81.8 L 189.0 78.7 L 190.0 78.7 L 190.0 86.0 L 189.0 86.0 L 189.0 82.6 L 185.3 82.6 L 185.3 86.0 L 184.3 86.0 L 184.3 78.7 " fill="#FF0000"/>
<path class="legend" d="M 103.4 190.0 L 102.2 186.7 L 97.8 186.7 L 96.6 190.0 L 95.1 190.0 L 99.0 178.7 L 100.9 178.7 L 104.9 190.0 L 103.4 190.0 M 98.2 185.4 L 101.8 185.4 L 100.0 180.3 L 98.2 185.4 " fill="#000000"/>
</svg>