<svg xmlns="http://www.w3.org/2000/svg" xmlns:rdkit="http://www.rdkit.org/xml" xmlns:xlink="http://www.w3.org/1999/xlink" version="1.1" baseProfile="full" xml:space="preserve" width="800px" height="200px" viewBox="0 0 800 200">
<!-- END OF HEADER -->
<rect style="opacity:1.0;fill:#FFFFFF;stroke:none" width="800.0" height="200.0" x="0.0" y="0.0"> </rect>
<path class="bond-0 atom-0 atom-1" d="M 59.3,102.9 L 57.1,83.0" style="fill:none;fill-rule:evenodd;stroke:#000000;stroke-width:2.0px;stroke-linecap:butt;stroke-linejoin:miter;stroke-opacity:1"/>
<path class="bond-1 atom-1 atom-2" d="M 57.1,83.0 L 38.8,75.1" style="fill:none;fill-rule:evenodd;stroke:#000000;stroke-width:2.0px;stroke-linecap:butt;stroke-linejoin:miter;stroke-opacity:1"/>
<path class="bond-1 atom-1 atom-2" d="M 56.7,79.6 L 41.6,73.0" style="fill:none;fill-rule:evenodd;stroke:#000000;stroke-width:2.0px;stroke-linecap:butt;stroke-linejoin:miter;stroke-opacity:1"/>
<path class="bond-2 atom-2 atom-3" d="M 38.8,75.1 L 36.5,55.2" style="fill:none;fill-rule:evenodd;stroke:#000000;stroke-width:2.0px;stroke-linecap:butt;stroke-linejoin:miter;stroke-opacity:1"/>
<path class="bond-3 atom-3 atom-4" d="M 36.5,55.2 L 29.0,51.9" style="fill:none;fill-rule:evenodd;stroke:#000000;stroke-width:2.0px;stroke-linecap:butt;stroke-linejoin:miter;stroke-opacity:1"/>
<path class="bond-3 atom-3 atom-4" d="M 29.0,51.9 L 21.4,48.6" style="fill:none;fill-rule:evenodd;stroke:#FF0000;stroke-width:2.0px;stroke-linecap:butt;stroke-linejoin:miter;stroke-opacity:1"/>
<path class="bond-4 atom-3 atom-5" d="M 36.5,55.2 L 52.6,43.3" style="fill:none;fill-rule:evenodd;stroke:#000000;stroke-width:2.0px;stroke-linecap:butt;stroke-linejoin:miter;stroke-opacity:1"/>
<path class="bond-4 atom-3 atom-5" d="M 39.7,56.6 L 53.0,46.8" style="fill:none;fill-rule:evenodd;stroke:#000000;stroke-width:2.0px;stroke-linecap:butt;stroke-linejoin:miter;stroke-opacity:1"/>
<path class="bond-5 atom-5 atom-6" d="M 52.6,43.3 L 70.9,51.3" style="fill:none;fill-rule:evenodd;stroke:#000000;stroke-width:2.0px;stroke-linecap:butt;stroke-linejoin:miter;stroke-opacity:1"/>
<path class="bond-6 atom-6 atom-7" d="M 70.9,51.3 L 73.2,71.2" style="fill:none;fill-rule:evenodd;stroke:#000000;stroke-width:2.0px;stroke-linecap:butt;stroke-linejoin:miter;stroke-opacity:1"/>
<path class="bond-6 atom-6 atom-7" d="M 68.1,53.4 L 70.0,69.8" style="fill:none;fill-rule:evenodd;stroke:#000000;stroke-width:2.0px;stroke-linecap:butt;stroke-linejoin:miter;stroke-opacity:1"/>
<path class="bond-7 atom-7 atom-8" d="M 73.2,71.2 L 92.8,75.2" style="fill:none;fill-rule:evenodd;stroke:#000000;stroke-width:2.0px;stroke-linecap:butt;stroke-linejoin:miter;stroke-opacity:1"/>
<path class="bond-8 atom-8 atom-9" d="M 92.8,75.2 L 101.0,93.4" style="fill:none;fill-rule:evenodd;stroke:#000000;stroke-width:2.0px;stroke-linecap:butt;stroke-linejoin:miter;stroke-opacity:1"/>
<path class="bond-9 atom-9 atom-10" d="M 101.0,93.4 L 89.4,109.6" style="fill:none;fill-rule:evenodd;stroke:#000000;stroke-width:2.0px;stroke-linecap:butt;stroke-linejoin:miter;stroke-opacity:1"/>
<path class="bond-9 atom-9 atom-10" d="M 102.5,96.5 L 92.9,110.0" style="fill:none;fill-rule:evenodd;stroke:#000000;stroke-width:2.0px;stroke-linecap:butt;stroke-linejoin:miter;stroke-opacity:1"/>
<path class="bond-10 atom-10 atom-11" d="M 89.4,109.6 L 97.7,127.8" style="fill:none;fill-rule:evenodd;stroke:#000000;stroke-width:2.0px;stroke-linecap:butt;stroke-linejoin:miter;stroke-opacity:1"/>
<path class="bond-11 atom-11 atom-12" d="M 97.7,127.8 L 93.1,134.2" style="fill:none;fill-rule:evenodd;stroke:#000000;stroke-width:2.0px;stroke-linecap:butt;stroke-linejoin:miter;stroke-opacity:1"/>
<path class="bond-11 atom-11 atom-12" d="M 93.1,134.2 L 88.6,140.6" style="fill:none;fill-rule:evenodd;stroke:#FF0000;stroke-width:2.0px;stroke-linecap:butt;stroke-linejoin:miter;stroke-opacity:1"/>
<path class="bond-12 atom-11 atom-13" d="M 97.7,127.8 L 117.6,129.8" style="fill:none;fill-rule:evenodd;stroke:#000000;stroke-width:2.0px;stroke-linecap:butt;stroke-linejoin:miter;stroke-opacity:1"/>
<path class="bond-12 atom-11 atom-13" d="M 99.7,125.0 L 116.2,126.6" style="fill:none;fill-rule:evenodd;stroke:#000000;stroke-width:2.0px;stroke-linecap:butt;stroke-linejoin:miter;stroke-opacity:1"/>
<path class="bond-13 atom-13 atom-14" d="M 117.6,129.8 L 129.2,113.5" style="fill:none;fill-rule:evenodd;stroke:#000000;stroke-width:2.0px;stroke-linecap:butt;stroke-linejoin:miter;stroke-opacity:1"/>
<path class="bond-14 atom-14 atom-15" d="M 129.2,113.5 L 137.5,114.3" style="fill:none;fill-rule:evenodd;stroke:#000000;stroke-width:2.0px;stroke-linecap:butt;stroke-linejoin:miter;stroke-opacity:1"/>
<path class="bond-14 atom-14 atom-15" d="M 137.5,114.3 L 145.9,115.1" style="fill:none;fill-rule:evenodd;stroke:#FF0000;stroke-width:2.0px;stroke-linecap:butt;stroke-linejoin:miter;stroke-opacity:1"/>
<path class="bond-15 atom-14 atom-16" d="M 129.2,113.5 L 120.9,95.3" style="fill:none;fill-rule:evenodd;stroke:#000000;stroke-width:2.0px;stroke-linecap:butt;stroke-linejoin:miter;stroke-opacity:1"/>
<path class="bond-15 atom-14 atom-16" d="M 125.8,113.2 L 118.9,98.1" style="fill:none;fill-rule:evenodd;stroke:#000000;stroke-width:2.0px;stroke-linecap:butt;stroke-linejoin:miter;stroke-opacity:1"/>
<path class="bond-16 atom-8 atom-17" d="M 92.8,75.2 L 102.6,57.8" style="fill:none;fill-rule:evenodd;stroke:#000000;stroke-width:2.0px;stroke-linecap:butt;stroke-linejoin:miter;stroke-opacity:1"/>
<path class="bond-17 atom-17 atom-18" d="M 102.6,57.8 L 122.5,55.5" style="fill:none;fill-rule:evenodd;stroke:#000000;stroke-width:2.0px;stroke-linecap:butt;stroke-linejoin:miter;stroke-opacity:1"/>
<path class="bond-18 atom-18 atom-19" d="M 122.5,55.5 L 134.4,71.6" style="fill:none;fill-rule:evenodd;stroke:#000000;stroke-width:2.0px;stroke-linecap:butt;stroke-linejoin:miter;stroke-opacity:1"/>
<path class="bond-18 atom-18 atom-19" d="M 125.9,55.1 L 135.8,68.4" style="fill:none;fill-rule:evenodd;stroke:#000000;stroke-width:2.0px;stroke-linecap:butt;stroke-linejoin:miter;stroke-opacity:1"/>
<path class="bond-19 atom-19 atom-20" d="M 134.4,71.6 L 154.2,69.4" style="fill:none;fill-rule:evenodd;stroke:#000000;stroke-width:2.0px;stroke-linecap:butt;stroke-linejoin:miter;stroke-opacity:1"/>
<path class="bond-20 atom-20 atom-21" d="M 154.2,69.4 L 162.2,51.0" style="fill:none;fill-rule:evenodd;stroke:#000000;stroke-width:2.0px;stroke-linecap:butt;stroke-linejoin:miter;stroke-opacity:1"/>
<path class="bond-20 atom-20 atom-21" d="M 152.2,66.6 L 158.8,51.4" style="fill:none;fill-rule:evenodd;stroke:#000000;stroke-width:2.0px;stroke-linecap:butt;stroke-linejoin:miter;stroke-opacity:1"/>
<path class="bond-21 atom-21 atom-22" d="M 162.2,51.0 L 170.5,50.1" style="fill:none;fill-rule:evenodd;stroke:#000000;stroke-width:2.0px;stroke-linecap:butt;stroke-linejoin:miter;stroke-opacity:1"/>
<path class="bond-21 atom-21 atom-22" d="M 170.5,50.1 L 178.8,49.1" style="fill:none;fill-rule:evenodd;stroke:#FF0000;stroke-width:2.0px;stroke-linecap:butt;stroke-linejoin:miter;stroke-opacity:1"/>
<path class="bond-22 atom-21 atom-23" d="M 162.2,51.0 L 150.3,34.9" style="fill:none;fill-rule:evenodd;stroke:#000000;stroke-width:2.0px;stroke-linecap:butt;stroke-linejoin:miter;stroke-opacity:1"/>
<path class="bond-23 atom-23 atom-24" d="M 150.3,34.9 L 130.5,37.2" style="fill:none;fill-rule:evenodd;stroke:#000000;stroke-width:2.0px;stroke-linecap:butt;stroke-linejoin:miter;stroke-opacity:1"/>
<path class="bond-23 atom-23 atom-24" d="M 149.0,38.1 L 132.5,40.0" style="fill:none;fill-rule:evenodd;stroke:#000000;stroke-width:2.0px;stroke-linecap:butt;stroke-linejoin:miter;stroke-opacity:1"/>
<path class="bond-24 atom-17 atom-25" d="M 102.6,57.8 L 97.5,52.2" style="fill:none;fill-rule:evenodd;stroke:#000000;stroke-width:2.0px;stroke-linecap:butt;stroke-linejoin:miter;stroke-opacity:1"/>
<path class="bond-24 atom-17 atom-25" d="M 97.5,52.2 L 92.4,46.6" style="fill:none;fill-rule:evenodd;stroke:#FF0000;stroke-width:2.0px;stroke-linecap:butt;stroke-linejoin:miter;stroke-opacity:1"/>
<path class="bond-25 atom-7 atom-1" d="M 73.2,71.2 L 57.1,83.0" style="fill:none;fill-rule:evenodd;stroke:#000000;stroke-width:2.0px;stroke-linecap:butt;stroke-linejoin:miter;stroke-opacity:1"/>
<path class="bond-26 atom-16 atom-9" d="M 120.9,95.3 L 101.0,93.4" style="fill:none;fill-rule:evenodd;stroke:#000000;stroke-width:2.0px;stroke-linecap:butt;stroke-linejoin:miter;stroke-opacity:1"/>
<path class="bond-27 atom-24 atom-18" d="M 130.5,37.2 L 122.5,55.5" style="fill:none;fill-rule:evenodd;stroke:#000000;stroke-width:2.0px;stroke-linecap:butt;stroke-linejoin:miter;stroke-opacity:1"/>
<path class="bond-28 atom-25 atom-6" d="M 85.9,44.5 L 78.4,47.9" style="fill:none;fill-rule:evenodd;stroke:#FF0000;stroke-width:2.0px;stroke-linecap:butt;stroke-linejoin:miter;stroke-opacity:1"/>
<path class="bond-28 atom-25 atom-6" d="M 78.4,47.9 L 70.9,51.3" style="fill:none;fill-rule:evenodd;stroke:#000000;stroke-width:2.0px;stroke-linecap:butt;stroke-linejoin:miter;stroke-opacity:1"/>
<path d="M 39.7,75.5 L 38.8,75.1 L 38.7,74.1" style="fill:none;stroke:#000000;stroke-width:2.0px;stroke-linecap:butt;stroke-linejoin:miter;stroke-opacity:1;"/>
<path d="M 51.8,43.9 L 52.6,43.3 L 53.5,43.7" style="fill:none;stroke:#000000;stroke-width:2.0px;stroke-linecap:butt;stroke-linejoin:miter;stroke-opacity:1;"/>
<path d="M 90.0,108.8 L 89.4,109.6 L 89.8,110.5" style="fill:none;stroke:#000000;stroke-width:2.0px;stroke-linecap:butt;stroke-linejoin:miter;stroke-opacity:1;"/>
<path d="M 116.6,129.7 L 117.6,129.8 L 118.2,129.0" style="fill:none;stroke:#000000;stroke-width:2.0px;stroke-linecap:butt;stroke-linejoin:miter;stroke-opacity:1;"/>
<path d="M 121.4,96.2 L 120.9,95.3 L 119.9,95.2" style="fill:none;stroke:#000000;stroke-width:2.0px;stroke-linecap:butt;stroke-linejoin:miter;stroke-opacity:1;"/>
<path d="M 133.8,70.8 L 134.4,71.6 L 135.4,71.5" style="fill:none;stroke:#000000;stroke-width:2.0px;stroke-linecap:butt;stroke-linejoin:miter;stroke-opacity:1;"/>
<path d="M 153.2,69.5 L 154.2,69.4 L 154.6,68.4" style="fill:none;stroke:#000000;stroke-width:2.0px;stroke-linecap:butt;stroke-linejoin:miter;stroke-opacity:1;"/>
<path d="M 150.9,35.8 L 150.3,34.9 L 149.3,35.1" style="fill:none;stroke:#000000;stroke-width:2.0px;stroke-linecap:butt;stroke-linejoin:miter;stroke-opacity:1;"/>
<path d="M 131.5,37.1 L 130.5,37.2 L 130.1,38.1" style="fill:none;stroke:#000000;stroke-width:2.0px;stroke-linecap:butt;stroke-linejoin:miter;stroke-opacity:1;"/>
<path class="atom-4" d="M 10.0 44.4 L 10.8 44.4 L 10.8 46.8 L 13.7 46.8 L 13.7 44.4 L 14.4 44.4 L 14.4 50.1 L 13.7 50.1 L 13.7 47.5 L 10.8 47.5 L 10.8 50.1 L 10.0 50.1 L 10.0 44.4 " fill="#FF0000"/>
<path class="atom-4" d="M 15.6 47.2 Q 15.6 45.9, 16.3 45.1 Q 16.9 44.3, 18.2 44.3 Q 19.4 44.3, 20.1 45.1 Q 20.8 45.9, 20.8 47.2 Q 20.8 48.6, 20.1 49.4 Q 19.4 50.2, 18.2 50.2 Q 16.9 50.2, 16.3 49.4 Q 15.6 48.6, 15.6 47.2 M 18.2 49.5 Q 19.1 49.5, 19.5 48.9 Q 20.0 48.4, 20.0 47.2 Q 20.0 46.1, 19.5 45.6 Q 19.1 45.0, 18.2 45.0 Q 17.3 45.0, 16.9 45.5 Q 16.4 46.1, 16.4 47.2 Q 16.4 48.4, 16.9 48.9 Q 17.3 49.5, 18.2 49.5 " fill="#FF0000"/>
<path class="atom-12" d="M 77.9 141.3 L 78.7 141.3 L 78.7 143.7 L 81.5 143.7 L 81.5 141.3 L 82.3 141.3 L 82.3 147.0 L 81.5 147.0 L 81.5 144.3 L 78.7 144.3 L 78.7 147.0 L 77.9 147.0 L 77.9 141.3 " fill="#FF0000"/>
<path class="atom-12" d="M 83.5 144.1 Q 83.5 142.8, 84.1 142.0 Q 84.8 141.2, 86.1 141.2 Q 87.3 141.2, 88.0 142.0 Q 88.7 142.8, 88.7 144.1 Q 88.7 145.5, 88.0 146.3 Q 87.3 147.1, 86.1 147.1 Q 84.8 147.1, 84.1 146.3 Q 83.5 145.5, 83.5 144.1 M 86.1 146.4 Q 86.9 146.4, 87.4 145.8 Q 87.9 145.3, 87.9 144.1 Q 87.9 143.0, 87.4 142.4 Q 86.9 141.9, 86.1 141.9 Q 85.2 141.9, 84.7 142.4 Q 84.3 143.0, 84.3 144.1 Q 84.3 145.3, 84.7 145.8 Q 85.2 146.4, 86.1 146.4 " fill="#FF0000"/>
<path class="atom-15" d="M 146.5 115.4 Q 146.5 114.1, 147.2 113.3 Q 147.9 112.6, 149.1 112.6 Q 150.4 112.6, 151.0 113.3 Q 151.7 114.1, 151.7 115.4 Q 151.7 116.8, 151.0 117.6 Q 150.4 118.4, 149.1 118.4 Q 147.9 118.4, 147.2 117.6 Q 146.5 116.8, 146.5 115.4 M 149.1 117.7 Q 150.0 117.7, 150.4 117.2 Q 150.9 116.6, 150.9 115.4 Q 150.9 114.3, 150.4 113.8 Q 150.0 113.2, 149.1 113.2 Q 148.3 113.2, 147.8 113.8 Q 147.3 114.3, 147.3 115.4 Q 147.3 116.6, 147.8 117.2 Q 148.3 117.7, 149.1 117.7 " fill="#FF0000"/>
<path class="atom-15" d="M 152.6 112.6 L 153.4 112.6 L 153.4 115.0 L 156.3 115.0 L 156.3 112.6 L 157.0 112.6 L 157.0 118.3 L 156.3 118.3 L 156.3 115.7 L 153.4 115.7 L 153.4 118.3 L 152.6 118.3 L 152.6 112.6 " fill="#FF0000"/>
<path class="atom-22" d="M 179.5 48.8 Q 179.5 47.4, 180.2 46.7 Q 180.8 45.9, 182.1 45.9 Q 183.3 45.9, 184.0 46.7 Q 184.7 47.4, 184.7 48.8 Q 184.7 50.2, 184.0 51.0 Q 183.3 51.7, 182.1 51.7 Q 180.8 51.7, 180.2 51.0 Q 179.5 50.2, 179.5 48.8 M 182.1 51.1 Q 183.0 51.1, 183.4 50.5 Q 183.9 49.9, 183.9 48.8 Q 183.9 47.7, 183.4 47.1 Q 183.0 46.6, 182.1 46.6 Q 181.2 46.6, 180.8 47.1 Q 180.3 47.7, 180.3 48.8 Q 180.3 49.9, 180.8 50.5 Q 181.2 51.1, 182.1 51.1 " fill="#FF0000"/>
<path class="atom-22" d="M 185.6 46.0 L 186.3 46.0 L 186.3 48.4 L 189.2 48.4 L 189.2 46.0 L 190.0 46.0 L 190.0 51.6 L 189.2 51.6 L 189.2 49.0 L 186.3 49.0 L 186.3 51.6 L 185.6 51.6 L 185.6 46.0 " fill="#FF0000"/>
<path class="atom-25" d="M 86.5 43.0 Q 86.5 41.7, 87.2 40.9 Q 87.9 40.2, 89.1 40.2 Q 90.4 40.2, 91.1 40.9 Q 91.7 41.7, 91.7 43.0 Q 91.7 44.4, 91.0 45.2 Q 90.4 46.0, 89.1 46.0 Q 87.9 46.0, 87.2 45.2 Q 86.5 44.4, 86.5 43.0 M 89.1 45.3 Q 90.0 45.3, 90.5 44.8 Q 90.9 44.2, 90.9 43.0 Q 90.9 41.9, 90.5 41.4 Q 90.0 40.8, 89.1 40.8 Q 88.3 40.8, 87.8 41.4 Q 87.3 41.9, 87.3 43.0 Q 87.3 44.2, 87.8 44.8 Q 88.3 45.3, 89.1 45.3 " fill="#FF0000"/>
<path class="legend" d="M 103.4 190.0 L 102.2 186.7 L 97.8 186.7 L 96.6 190.0 L 95.1 190.0 L 99.0 178.7 L 100.9 178.7 L 104.9 190.0 L 103.4 190.0 M 98.2 185.4 L 101.8 185.4 L 100.0 180.3 L 98.2 185.4 " fill="#000000"/>
<path class="bond-0 atom-0 atom-1" d="M 345.7,83.3 L 331.4,97.3" style="fill:none;fill-rule:evenodd;stroke:#000000;stroke-width:2.0px;stroke-linecap:butt;stroke-linejoin:miter;stroke-opacity:1"/>
<path class="bond-1 atom-1 atom-2" d="M 331.4,97.3 L 312.1,92.0" style="fill:none;fill-rule:evenodd;stroke:#000000;stroke-width:2.0px;stroke-linecap:butt;stroke-linejoin:miter;stroke-opacity:1"/>
<path class="bond-2 atom-2 atom-3" d="M 312.1,92.0 L 297.9,106.0" style="fill:none;fill-rule:evenodd;stroke:#000000;stroke-width:2.0px;stroke-linecap:butt;stroke-linejoin:miter;stroke-opacity:1"/>
<path class="bond-3 atom-3 atom-4" d="M 297.9,106.0 L 278.6,100.7" style="fill:none;fill-rule:evenodd;stroke:#000000;stroke-width:2.0px;stroke-linecap:butt;stroke-linejoin:miter;stroke-opacity:1"/>
<path class="bond-4 atom-4 atom-5" d="M 278.6,100.7 L 264.4,114.7" style="fill:none;fill-rule:evenodd;stroke:#000000;stroke-width:2.0px;stroke-linecap:butt;stroke-linejoin:miter;stroke-opacity:1"/>
<path class="bond-5 atom-4 atom-6" d="M 278.6,100.7 L 273.6,81.3" style="fill:none;fill-rule:evenodd;stroke:#000000;stroke-width:2.0px;stroke-linecap:butt;stroke-linejoin:miter;stroke-opacity:1"/>
<path class="bond-6 atom-6 atom-7" d="M 273.6,81.3 L 254.3,76.0" style="fill:none;fill-rule:evenodd;stroke:#000000;stroke-width:2.0px;stroke-linecap:butt;stroke-linejoin:miter;stroke-opacity:1"/>
<path class="bond-7 atom-6 atom-8" d="M 273.6,81.3 L 287.9,67.3" style="fill:none;fill-rule:evenodd;stroke:#000000;stroke-width:2.0px;stroke-linecap:butt;stroke-linejoin:miter;stroke-opacity:1"/>
<path d="M 332.1,96.6 L 331.4,97.3 L 330.5,97.0" style="fill:none;stroke:#000000;stroke-width:2.0px;stroke-linecap:butt;stroke-linejoin:miter;stroke-opacity:1;"/>
<path d="M 313.1,92.2 L 312.1,92.0 L 311.4,92.7" style="fill:none;stroke:#000000;stroke-width:2.0px;stroke-linecap:butt;stroke-linejoin:miter;stroke-opacity:1;"/>
<path d="M 298.6,105.3 L 297.9,106.0 L 296.9,105.7" style="fill:none;stroke:#000000;stroke-width:2.0px;stroke-linecap:butt;stroke-linejoin:miter;stroke-opacity:1;"/>
<path class="legend" d="M 301.7 184.0 Q 302.7 184.4, 303.3 185.0 Q 303.8 185.7, 303.8 186.7 Q 303.8 188.2, 302.8 189.1 Q 301.8 190.0, 300.0 190.0 L 296.2 190.0 L 296.2 178.7 L 299.5 178.7 Q 301.4 178.7, 302.4 179.5 Q 303.4 180.2, 303.4 181.7 Q 303.4 183.4, 301.7 184.0 M 297.7 180.0 L 297.7 183.5 L 299.5 183.5 Q 300.6 183.5, 301.2 183.1 Q 301.8 182.6, 301.8 181.7 Q 301.8 180.0, 299.5 180.0 L 297.7 180.0 M 300.0 188.7 Q 301.1 188.7, 301.7 188.2 Q 302.2 187.7, 302.2 186.7 Q 302.2 185.7, 301.6 185.3 Q 301.0 184.8, 299.7 184.8 L 297.7 184.8 L 297.7 188.7 L 300.0 188.7 " fill="#000000"/>
</svg>