<svg xmlns="http://www.w3.org/2000/svg" xmlns:rdkit="http://www.rdkit.org/xml" xmlns:xlink="http://www.w3.org/1999/xlink" version="1.1" baseProfile="full" xml:space="preserve" width="800px" height="400px" viewBox="0 0 800 400">
<!-- END OF HEADER -->
<rect style="opacity:1.0;fill:#FFFFFF;stroke:none" width="800.0" height="400.0" x="0.0" y="0.0"> </rect>
<path class="bond-0 atom-0 atom-1" d="M 59.5,94.7 L 77.7,84.2" style="fill:none;fill-rule:evenodd;stroke:#000000;stroke-width:2.0px;stroke-linecap:butt;stroke-linejoin:miter;stroke-opacity:1"/>
<path class="bond-1 atom-1 atom-2" d="M 77.7,84.2 L 95.9,94.7" style="fill:none;fill-rule:evenodd;stroke:#000000;stroke-width:2.0px;stroke-linecap:butt;stroke-linejoin:miter;stroke-opacity:1"/>
<path class="bond-2 atom-2 atom-3" d="M 95.9,94.7 L 114.0,84.2" style="fill:none;fill-rule:evenodd;stroke:#000000;stroke-width:2.0px;stroke-linecap:butt;stroke-linejoin:miter;stroke-opacity:1"/>
<path class="bond-3 atom-3 atom-4" d="M 114.0,84.2 L 121.4,88.5" style="fill:none;fill-rule:evenodd;stroke:#000000;stroke-width:2.0px;stroke-linecap:butt;stroke-linejoin:miter;stroke-opacity:1"/>
<path class="bond-3 atom-3 atom-4" d="M 121.4,88.5 L 128.7,92.7" style="fill:none;fill-rule:evenodd;stroke:#FF0000;stroke-width:2.0px;stroke-linecap:butt;stroke-linejoin:miter;stroke-opacity:1"/>
<path d="M 76.8,84.7 L 77.7,84.2 L 78.6,84.7" style="fill:none;stroke:#000000;stroke-width:2.0px;stroke-linecap:butt;stroke-linejoin:miter;stroke-opacity:1;"/>
<path d="M 94.9,94.2 L 95.9,94.7 L 96.8,94.2" style="fill:none;stroke:#000000;stroke-width:2.0px;stroke-linecap:butt;stroke-linejoin:miter;stroke-opacity:1;"/>
<path d="M 113.1,84.7 L 114.0,84.2 L 114.4,84.4" style="fill:none;stroke:#000000;stroke-width:2.0px;stroke-linecap:butt;stroke-linejoin:miter;stroke-opacity:1;"/>
<path class="atom-4" d="M 129.4 94.7 Q 129.4 93.3, 130.1 92.5 Q 130.8 91.7, 132.2 91.7 Q 133.5 91.7, 134.2 92.5 Q 134.9 93.3, 134.9 94.7 Q 134.9 96.2, 134.2 97.0 Q 133.5 97.8, 132.2 97.8 Q 130.9 97.8, 130.1 97.0 Q 129.4 96.2, 129.4 94.7 M 132.2 97.1 Q 133.1 97.1, 133.6 96.5 Q 134.0 95.9, 134.0 94.7 Q 134.0 93.5, 133.6 93.0 Q 133.1 92.4, 132.2 92.4 Q 131.3 92.4, 130.8 92.9 Q 130.3 93.5, 130.3 94.7 Q 130.3 95.9, 130.8 96.5 Q 131.3 97.1, 132.2 97.1 " fill="#FF0000"/>
<path class="atom-4" d="M 135.8 91.8 L 136.6 91.8 L 136.6 94.3 L 139.7 94.3 L 139.7 91.8 L 140.5 91.8 L 140.5 97.7 L 139.7 97.7 L 139.7 95.0 L 136.6 95.0 L 136.6 97.7 L 135.8 97.7 L 135.8 91.8 " fill="#FF0000"/>
<path class="legend" d="M 103.4 190.0 L 102.2 186.7 L 97.8 186.7 L 96.6 190.0 L 95.1 190.0 L 99.0 178.7 L 100.9 178.7 L 104.9 190.0 L 103.4 190.0 M 98.2 185.4 L 101.8 185.4 L 100.0 180.3 L 98.2 185.4 " fill="#000000"/>
<path class="bond-0 atom-0 atom-1" d="M 335.4,130.7 L 332.0,122.4" style="fill:none;fill-rule:evenodd;stroke:#FF0000;stroke-width:2.0px;stroke-linecap:butt;stroke-linejoin:miter;stroke-opacity:1"/>
<path class="bond-0 atom-0 atom-1" d="M 332.0,122.4 L 328.6,114.2" style="fill:none;fill-rule:evenodd;stroke:#000000;stroke-width:2.0px;stroke-linecap:butt;stroke-linejoin:miter;stroke-opacity:1"/>
<path class="bond-0 atom-0 atom-1" d="M 338.3,129.5 L 334.9,121.3" style="fill:none;fill-rule:evenodd;stroke:#FF0000;stroke-width:2.0px;stroke-linecap:butt;stroke-linejoin:miter;stroke-opacity:1"/>
<path class="bond-0 atom-0 atom-1" d="M 334.9,121.3 L 331.5,113.0" style="fill:none;fill-rule:evenodd;stroke:#000000;stroke-width:2.0px;stroke-linecap:butt;stroke-linejoin:miter;stroke-opacity:1"/>
<path class="bond-1 atom-1 atom-2" d="M 330.4,114.4 L 309.6,111.6" style="fill:none;fill-rule:evenodd;stroke:#000000;stroke-width:2.0px;stroke-linecap:butt;stroke-linejoin:miter;stroke-opacity:1"/>
<path class="bond-2 atom-2 atom-3" d="M 309.6,111.6 L 301.7,92.2" style="fill:none;fill-rule:evenodd;stroke:#000000;stroke-width:2.0px;stroke-linecap:butt;stroke-linejoin:miter;stroke-opacity:1"/>
<path class="bond-2 atom-2 atom-3" d="M 311.8,108.7 L 305.3,92.7" style="fill:none;fill-rule:evenodd;stroke:#000000;stroke-width:2.0px;stroke-linecap:butt;stroke-linejoin:miter;stroke-opacity:1"/>
<path class="bond-3 atom-3 atom-4" d="M 301.7,92.2 L 280.9,89.4" style="fill:none;fill-rule:evenodd;stroke:#000000;stroke-width:2.0px;stroke-linecap:butt;stroke-linejoin:miter;stroke-opacity:1"/>
<path class="bond-4 atom-4 atom-5" d="M 280.9,89.4 L 273.0,70.0" style="fill:none;fill-rule:evenodd;stroke:#000000;stroke-width:2.0px;stroke-linecap:butt;stroke-linejoin:miter;stroke-opacity:1"/>
<path class="bond-4 atom-4 atom-5" d="M 277.3,88.9 L 270.7,72.9" style="fill:none;fill-rule:evenodd;stroke:#000000;stroke-width:2.0px;stroke-linecap:butt;stroke-linejoin:miter;stroke-opacity:1"/>
<path class="bond-5 atom-5 atom-6" d="M 273.0,70.0 L 252.2,67.2" style="fill:none;fill-rule:evenodd;stroke:#000000;stroke-width:2.0px;stroke-linecap:butt;stroke-linejoin:miter;stroke-opacity:1"/>
<path class="bond-6 atom-6 atom-7" d="M 252.2,67.2 L 239.4,83.7" style="fill:none;fill-rule:evenodd;stroke:#000000;stroke-width:2.0px;stroke-linecap:butt;stroke-linejoin:miter;stroke-opacity:1"/>
<path class="bond-6 atom-6 atom-7" d="M 253.6,70.5 L 243.0,84.2" style="fill:none;fill-rule:evenodd;stroke:#000000;stroke-width:2.0px;stroke-linecap:butt;stroke-linejoin:miter;stroke-opacity:1"/>
<path class="bond-7 atom-7 atom-8" d="M 239.4,83.7 L 230.7,82.6" style="fill:none;fill-rule:evenodd;stroke:#000000;stroke-width:2.0px;stroke-linecap:butt;stroke-linejoin:miter;stroke-opacity:1"/>
<path class="bond-7 atom-7 atom-8" d="M 230.7,82.6 L 222.0,81.4" style="fill:none;fill-rule:evenodd;stroke:#FF0000;stroke-width:2.0px;stroke-linecap:butt;stroke-linejoin:miter;stroke-opacity:1"/>
<path class="bond-8 atom-7 atom-9" d="M 239.4,83.7 L 247.3,103.1" style="fill:none;fill-rule:evenodd;stroke:#000000;stroke-width:2.0px;stroke-linecap:butt;stroke-linejoin:miter;stroke-opacity:1"/>
<path class="bond-9 atom-9 atom-10" d="M 247.3,103.1 L 268.1,106.0" style="fill:none;fill-rule:evenodd;stroke:#000000;stroke-width:2.0px;stroke-linecap:butt;stroke-linejoin:miter;stroke-opacity:1"/>
<path class="bond-9 atom-9 atom-10" d="M 249.5,100.3 L 266.7,102.6" style="fill:none;fill-rule:evenodd;stroke:#000000;stroke-width:2.0px;stroke-linecap:butt;stroke-linejoin:miter;stroke-opacity:1"/>
<path class="bond-10 atom-3 atom-11" d="M 301.7,92.2 L 306.6,85.8" style="fill:none;fill-rule:evenodd;stroke:#000000;stroke-width:2.0px;stroke-linecap:butt;stroke-linejoin:miter;stroke-opacity:1"/>
<path class="bond-10 atom-3 atom-11" d="M 306.6,85.8 L 311.6,79.4" style="fill:none;fill-rule:evenodd;stroke:#FF0000;stroke-width:2.0px;stroke-linecap:butt;stroke-linejoin:miter;stroke-opacity:1"/>
<path class="bond-11 atom-11 atom-12" d="M 317.9,76.1 L 326.6,77.3" style="fill:none;fill-rule:evenodd;stroke:#FF0000;stroke-width:2.0px;stroke-linecap:butt;stroke-linejoin:miter;stroke-opacity:1"/>
<path class="bond-11 atom-11 atom-12" d="M 326.6,77.3 L 335.3,78.4" style="fill:none;fill-rule:evenodd;stroke:#000000;stroke-width:2.0px;stroke-linecap:butt;stroke-linejoin:miter;stroke-opacity:1"/>
<path class="bond-12 atom-12 atom-13" d="M 335.3,78.4 L 348.1,61.9" style="fill:none;fill-rule:evenodd;stroke:#000000;stroke-width:2.0px;stroke-linecap:butt;stroke-linejoin:miter;stroke-opacity:1"/>
<path class="bond-12 atom-12 atom-13" d="M 338.9,78.9 L 349.5,65.2" style="fill:none;fill-rule:evenodd;stroke:#000000;stroke-width:2.0px;stroke-linecap:butt;stroke-linejoin:miter;stroke-opacity:1"/>
<path class="bond-13 atom-13 atom-14" d="M 348.1,61.9 L 368.9,64.7" style="fill:none;fill-rule:evenodd;stroke:#000000;stroke-width:2.0px;stroke-linecap:butt;stroke-linejoin:miter;stroke-opacity:1"/>
<path class="bond-14 atom-14 atom-15" d="M 368.9,64.7 L 373.8,58.3" style="fill:none;fill-rule:evenodd;stroke:#000000;stroke-width:2.0px;stroke-linecap:butt;stroke-linejoin:miter;stroke-opacity:1"/>
<path class="bond-14 atom-14 atom-15" d="M 373.8,58.3 L 378.8,51.9" style="fill:none;fill-rule:evenodd;stroke:#FF0000;stroke-width:2.0px;stroke-linecap:butt;stroke-linejoin:miter;stroke-opacity:1"/>
<path class="bond-15 atom-14 atom-16" d="M 368.9,64.7 L 376.8,84.1" style="fill:none;fill-rule:evenodd;stroke:#000000;stroke-width:2.0px;stroke-linecap:butt;stroke-linejoin:miter;stroke-opacity:1"/>
<path class="bond-15 atom-14 atom-16" d="M 366.7,67.5 L 373.2,83.6" style="fill:none;fill-rule:evenodd;stroke:#000000;stroke-width:2.0px;stroke-linecap:butt;stroke-linejoin:miter;stroke-opacity:1"/>
<path class="bond-16 atom-16 atom-17" d="M 376.8,84.1 L 364.0,100.7" style="fill:none;fill-rule:evenodd;stroke:#000000;stroke-width:2.0px;stroke-linecap:butt;stroke-linejoin:miter;stroke-opacity:1"/>
<path class="bond-17 atom-17 atom-18" d="M 364.0,100.7 L 367.2,108.5" style="fill:none;fill-rule:evenodd;stroke:#000000;stroke-width:2.0px;stroke-linecap:butt;stroke-linejoin:miter;stroke-opacity:1"/>
<path class="bond-17 atom-17 atom-18" d="M 367.2,108.5 L 370.4,116.4" style="fill:none;fill-rule:evenodd;stroke:#FF0000;stroke-width:2.0px;stroke-linecap:butt;stroke-linejoin:miter;stroke-opacity:1"/>
<path class="bond-18 atom-17 atom-19" d="M 364.0,100.7 L 343.2,97.8" style="fill:none;fill-rule:evenodd;stroke:#000000;stroke-width:2.0px;stroke-linecap:butt;stroke-linejoin:miter;stroke-opacity:1"/>
<path class="bond-18 atom-17 atom-19" d="M 362.6,97.3 L 345.4,95.0" style="fill:none;fill-rule:evenodd;stroke:#000000;stroke-width:2.0px;stroke-linecap:butt;stroke-linejoin:miter;stroke-opacity:1"/>
<path class="bond-19 atom-19 atom-1" d="M 343.2,97.8 L 330.4,114.4" style="fill:none;fill-rule:evenodd;stroke:#000000;stroke-width:2.0px;stroke-linecap:butt;stroke-linejoin:miter;stroke-opacity:1"/>
<path class="bond-20 atom-10 atom-4" d="M 268.1,106.0 L 280.9,89.4" style="fill:none;fill-rule:evenodd;stroke:#000000;stroke-width:2.0px;stroke-linecap:butt;stroke-linejoin:miter;stroke-opacity:1"/>
<path class="bond-21 atom-19 atom-12" d="M 343.2,97.8 L 335.3,78.4" style="fill:none;fill-rule:evenodd;stroke:#000000;stroke-width:2.0px;stroke-linecap:butt;stroke-linejoin:miter;stroke-opacity:1"/>
<path d="M 329.4,114.3 L 330.4,114.4 L 331.0,113.6" style="fill:none;stroke:#000000;stroke-width:2.0px;stroke-linecap:butt;stroke-linejoin:miter;stroke-opacity:1;"/>
<path d="M 310.7,111.7 L 309.6,111.6 L 309.2,110.6" style="fill:none;stroke:#000000;stroke-width:2.0px;stroke-linecap:butt;stroke-linejoin:miter;stroke-opacity:1;"/>
<path d="M 273.4,70.9 L 273.0,70.0 L 271.9,69.8" style="fill:none;stroke:#000000;stroke-width:2.0px;stroke-linecap:butt;stroke-linejoin:miter;stroke-opacity:1;"/>
<path d="M 253.2,67.3 L 252.2,67.2 L 251.5,68.0" style="fill:none;stroke:#000000;stroke-width:2.0px;stroke-linecap:butt;stroke-linejoin:miter;stroke-opacity:1;"/>
<path d="M 246.9,102.2 L 247.3,103.1 L 248.3,103.3" style="fill:none;stroke:#000000;stroke-width:2.0px;stroke-linecap:butt;stroke-linejoin:miter;stroke-opacity:1;"/>
<path d="M 267.0,105.8 L 268.1,106.0 L 268.7,105.1" style="fill:none;stroke:#000000;stroke-width:2.0px;stroke-linecap:butt;stroke-linejoin:miter;stroke-opacity:1;"/>
<path d="M 347.5,62.7 L 348.1,61.9 L 349.1,62.0" style="fill:none;stroke:#000000;stroke-width:2.0px;stroke-linecap:butt;stroke-linejoin:miter;stroke-opacity:1;"/>
<path d="M 376.4,83.1 L 376.8,84.1 L 376.2,84.9" style="fill:none;stroke:#000000;stroke-width:2.0px;stroke-linecap:butt;stroke-linejoin:miter;stroke-opacity:1;"/>
<path class="atom-0" d="M 335.6 133.8 Q 335.6 132.4, 336.3 131.6 Q 337.0 130.8, 338.3 130.8 Q 339.7 130.8, 340.4 131.6 Q 341.1 132.4, 341.1 133.8 Q 341.1 135.3, 340.4 136.1 Q 339.6 136.9, 338.3 136.9 Q 337.0 136.9, 336.3 136.1 Q 335.6 135.3, 335.6 133.8 M 338.3 136.2 Q 339.2 136.2, 339.7 135.6 Q 340.2 135.0, 340.2 133.8 Q 340.2 132.7, 339.7 132.1 Q 339.2 131.5, 338.3 131.5 Q 337.4 131.5, 336.9 132.1 Q 336.5 132.7, 336.5 133.8 Q 336.5 135.0, 336.9 135.6 Q 337.4 136.2, 338.3 136.2 " fill="#FF0000"/>
<path class="atom-8" d="M 210.0 78.0 L 210.8 78.0 L 210.8 80.5 L 213.8 80.5 L 213.8 78.0 L 214.6 78.0 L 214.6 83.9 L 213.8 83.9 L 213.8 81.2 L 210.8 81.2 L 210.8 83.9 L 210.0 83.9 L 210.0 78.0 " fill="#FF0000"/>
<path class="atom-8" d="M 215.9 80.9 Q 215.9 79.5, 216.6 78.7 Q 217.3 77.9, 218.6 77.9 Q 219.9 77.9, 220.6 78.7 Q 221.3 79.5, 221.3 80.9 Q 221.3 82.4, 220.6 83.2 Q 219.9 84.0, 218.6 84.0 Q 217.3 84.0, 216.6 83.2 Q 215.9 82.4, 215.9 80.9 M 218.6 83.3 Q 219.5 83.3, 220.0 82.7 Q 220.5 82.1, 220.5 80.9 Q 220.5 79.8, 220.0 79.2 Q 219.5 78.6, 218.6 78.6 Q 217.7 78.6, 217.2 79.2 Q 216.7 79.8, 216.7 80.9 Q 216.7 82.1, 217.2 82.7 Q 217.7 83.3, 218.6 83.3 " fill="#FF0000"/>
<path class="atom-11" d="M 311.8 75.6 Q 311.8 74.2, 312.5 73.4 Q 313.2 72.6, 314.5 72.6 Q 315.8 72.6, 316.5 73.4 Q 317.2 74.2, 317.2 75.6 Q 317.2 77.1, 316.5 77.9 Q 315.8 78.7, 314.5 78.7 Q 313.2 78.7, 312.5 77.9 Q 311.8 77.1, 311.8 75.6 M 314.5 78.0 Q 315.4 78.0, 315.9 77.4 Q 316.4 76.8, 316.4 75.6 Q 316.4 74.5, 315.9 73.9 Q 315.4 73.3, 314.5 73.3 Q 313.6 73.3, 313.1 73.9 Q 312.6 74.5, 312.6 75.6 Q 312.6 76.8, 313.1 77.4 Q 313.6 78.0, 314.5 78.0 " fill="#FF0000"/>
<path class="atom-15" d="M 379.0 48.1 Q 379.0 46.7, 379.7 45.9 Q 380.4 45.1, 381.7 45.1 Q 383.0 45.1, 383.7 45.9 Q 384.4 46.7, 384.4 48.1 Q 384.4 49.6, 383.7 50.4 Q 383.0 51.2, 381.7 51.2 Q 380.4 51.2, 379.7 50.4 Q 379.0 49.6, 379.0 48.1 M 381.7 50.5 Q 382.6 50.5, 383.1 49.9 Q 383.6 49.3, 383.6 48.1 Q 383.6 46.9, 383.1 46.4 Q 382.6 45.8, 381.7 45.8 Q 380.8 45.8, 380.3 46.3 Q 379.8 46.9, 379.8 48.1 Q 379.8 49.3, 380.3 49.9 Q 380.8 50.5, 381.7 50.5 " fill="#FF0000"/>
<path class="atom-15" d="M 385.4 45.2 L 386.2 45.2 L 386.2 47.7 L 389.2 47.7 L 389.2 45.2 L 390.0 45.2 L 390.0 51.1 L 389.2 51.1 L 389.2 48.4 L 386.2 48.4 L 386.2 51.1 L 385.4 51.1 L 385.4 45.2 " fill="#FF0000"/>
<path class="atom-18" d="M 369.2 120.1 Q 369.2 118.6, 369.9 117.8 Q 370.6 117.1, 371.9 117.1 Q 373.3 117.1, 374.0 117.8 Q 374.7 118.6, 374.7 120.1 Q 374.7 121.5, 374.0 122.3 Q 373.2 123.1, 371.9 123.1 Q 370.6 123.1, 369.9 122.3 Q 369.2 121.5, 369.2 120.1 M 371.9 122.5 Q 372.8 122.5, 373.3 121.9 Q 373.8 121.3, 373.8 120.1 Q 373.8 118.9, 373.3 118.3 Q 372.8 117.7, 371.9 117.7 Q 371.0 117.7, 370.5 118.3 Q 370.1 118.9, 370.1 120.1 Q 370.1 121.3, 370.5 121.9 Q 371.0 122.5, 371.9 122.5 " fill="#FF0000"/>
<path class="atom-18" d="M 375.6 117.1 L 376.4 117.1 L 376.4 119.6 L 379.4 119.6 L 379.4 117.1 L 380.2 117.1 L 380.2 123.1 L 379.4 123.1 L 379.4 120.3 L 376.4 120.3 L 376.4 123.1 L 375.6 123.1 L 375.6 117.1 " fill="#FF0000"/>
<path class="legend" d="M 301.7 184.0 Q 302.7 184.4, 303.3 185.0 Q 303.8 185.7, 303.8 186.7 Q 303.8 188.2, 302.8 189.1 Q 301.8 190.0, 300.0 190.0 L 296.2 190.0 L 296.2 178.7 L 299.5 178.7 Q 301.4 178.7, 302.4 179.5 Q 303.4 180.2, 303.4 181.7 Q 303.4 183.4, 301.7 184.0 M 297.7 180.0 L 297.7 183.5 L 299.5 183.5 Q 300.6 183.5, 301.2 183.1 Q 301.8 182.6, 301.8 181.7 Q 301.8 180.0, 299.5 180.0 L 297.7 180.0 M 300.0 188.7 Q 301.1 188.7, 301.7 188.2 Q 302.2 187.7, 302.2 186.7 Q 302.2 185.7, 301.6 185.3 Q 301.0 184.8, 299.7 184.8 L 297.7 184.8 L 297.7 188.7 L 300.0 188.7 " fill="#000000"/>
<path class="bond-0 atom-0 atom-1" d="M 463.7,96.2 L 481.8,85.8" style="fill:none;fill-rule:evenodd;stroke:#000000;stroke-width:2.0px;stroke-linecap:butt;stroke-linejoin:miter;stroke-opacity:1"/>
<path class="bond-1 atom-1 atom-2" d="M 481.8,85.8 L 500.0,96.2" style="fill:none;fill-rule:evenodd;stroke:#000000;stroke-width:2.0px;stroke-linecap:butt;stroke-linejoin:miter;stroke-opacity:1"/>
<path class="bond-2 atom-2 atom-3" d="M 500.0,96.2 L 518.2,85.8" style="fill:none;fill-rule:evenodd;stroke:#000000;stroke-width:2.0px;stroke-linecap:butt;stroke-linejoin:miter;stroke-opacity:1"/>
<path class="bond-3 atom-3 atom-4" d="M 518.2,85.8 L 536.3,96.2" style="fill:none;fill-rule:evenodd;stroke:#000000;stroke-width:2.0px;stroke-linecap:butt;stroke-linejoin:miter;stroke-opacity:1"/>
<path d="M 480.9,86.3 L 481.8,85.8 L 482.8,86.3" style="fill:none;stroke:#000000;stroke-width:2.0px;stroke-linecap:butt;stroke-linejoin:miter;stroke-opacity:1;"/>
<path d="M 499.1,95.7 L 500.0,96.2 L 500.9,95.7" style="fill:none;stroke:#000000;stroke-width:2.0px;stroke-linecap:butt;stroke-linejoin:miter;stroke-opacity:1;"/>
<path d="M 517.2,86.3 L 518.2,85.8 L 519.1,86.3" style="fill:none;stroke:#000000;stroke-width:2.0px;stroke-linecap:butt;stroke-linejoin:miter;stroke-opacity:1;"/>
<path class="legend" d="M 495.6 184.2 Q 495.6 181.4, 496.9 179.9 Q 498.3 178.4, 500.8 178.4 Q 503.1 178.4, 504.4 180.0 L 503.3 180.9 Q 502.4 179.7, 500.8 179.7 Q 499.1 179.7, 498.2 180.9 Q 497.3 182.0, 497.3 184.2 Q 497.3 186.4, 498.2 187.6 Q 499.1 188.7, 501.0 188.7 Q 502.2 188.7, 503.7 188.0 L 504.1 189.2 Q 503.5 189.6, 502.6 189.8 Q 501.7 190.0, 500.7 190.0 Q 498.3 190.0, 496.9 188.5 Q 495.6 187.0, 495.6 184.2 " fill="#000000"/>
<path class="bond-0 atom-0 atom-1" d="M 652.5,89.6 L 672.3,82.5" style="fill:none;fill-rule:evenodd;stroke:#000000;stroke-width:2.0px;stroke-linecap:butt;stroke-linejoin:miter;stroke-opacity:1"/>
<path class="bond-1 atom-1 atom-2" d="M 672.3,82.5 L 688.3,96.1" style="fill:none;fill-rule:evenodd;stroke:#000000;stroke-width:2.0px;stroke-linecap:butt;stroke-linejoin:miter;stroke-opacity:1"/>
<path class="bond-2 atom-2 atom-3" d="M 688.3,96.1 L 708.0,89.0" style="fill:none;fill-rule:evenodd;stroke:#000000;stroke-width:2.0px;stroke-linecap:butt;stroke-linejoin:miter;stroke-opacity:1"/>
<path class="bond-3 atom-3 atom-4" d="M 708.0,89.0 L 711.7,68.4" style="fill:none;fill-rule:evenodd;stroke:#000000;stroke-width:2.0px;stroke-linecap:butt;stroke-linejoin:miter;stroke-opacity:1"/>
<path class="bond-4 atom-4 atom-5" d="M 711.7,68.4 L 731.5,61.3" style="fill:none;fill-rule:evenodd;stroke:#000000;stroke-width:2.0px;stroke-linecap:butt;stroke-linejoin:miter;stroke-opacity:1"/>
<path class="bond-5 atom-5 atom-6" d="M 731.5,61.3 L 747.5,74.8" style="fill:none;fill-rule:evenodd;stroke:#000000;stroke-width:2.0px;stroke-linecap:butt;stroke-linejoin:miter;stroke-opacity:1"/>
<path class="bond-6 atom-6 atom-7" d="M 747.5,74.8 L 743.7,95.4" style="fill:none;fill-rule:evenodd;stroke:#000000;stroke-width:2.0px;stroke-linecap:butt;stroke-linejoin:miter;stroke-opacity:1"/>
<path class="bond-7 atom-7 atom-8" d="M 743.7,95.4 L 724.0,102.5" style="fill:none;fill-rule:evenodd;stroke:#000000;stroke-width:2.0px;stroke-linecap:butt;stroke-linejoin:miter;stroke-opacity:1"/>
<path class="bond-8 atom-8 atom-9" d="M 724.0,102.5 L 734.4,120.7" style="fill:none;fill-rule:evenodd;stroke:#000000;stroke-width:2.0px;stroke-linecap:butt;stroke-linejoin:miter;stroke-opacity:1"/>
<path class="bond-9 atom-8 atom-10" d="M 724.0,102.5 L 707.9,115.9" style="fill:none;fill-rule:evenodd;stroke:#000000;stroke-width:2.0px;stroke-linecap:butt;stroke-linejoin:miter;stroke-opacity:1"/>
<path class="bond-10 atom-8 atom-3" d="M 724.0,102.5 L 708.0,89.0" style="fill:none;fill-rule:evenodd;stroke:#000000;stroke-width:2.0px;stroke-linecap:butt;stroke-linejoin:miter;stroke-opacity:1"/>
<path d="M 671.3,82.9 L 672.3,82.5 L 673.1,83.2" style="fill:none;stroke:#000000;stroke-width:2.0px;stroke-linecap:butt;stroke-linejoin:miter;stroke-opacity:1;"/>
<path d="M 687.5,95.4 L 688.3,96.1 L 689.3,95.7" style="fill:none;stroke:#000000;stroke-width:2.0px;stroke-linecap:butt;stroke-linejoin:miter;stroke-opacity:1;"/>
<path d="M 711.5,69.4 L 711.7,68.4 L 712.7,68.0" style="fill:none;stroke:#000000;stroke-width:2.0px;stroke-linecap:butt;stroke-linejoin:miter;stroke-opacity:1;"/>
<path d="M 730.5,61.6 L 731.5,61.3 L 732.3,61.9" style="fill:none;stroke:#000000;stroke-width:2.0px;stroke-linecap:butt;stroke-linejoin:miter;stroke-opacity:1;"/>
<path d="M 746.7,74.1 L 747.5,74.8 L 747.3,75.8" style="fill:none;stroke:#000000;stroke-width:2.0px;stroke-linecap:butt;stroke-linejoin:miter;stroke-opacity:1;"/>
<path d="M 743.9,94.4 L 743.7,95.4 L 742.7,95.8" style="fill:none;stroke:#000000;stroke-width:2.0px;stroke-linecap:butt;stroke-linejoin:miter;stroke-opacity:1;"/>
<path class="legend" d="M 699.2 178.7 Q 701.7 178.7, 703.1 180.2 Q 704.4 181.6, 704.4 184.3 Q 704.4 187.0, 703.1 188.5 Q 701.7 190.0, 699.2 190.0 L 695.6 190.0 L 695.6 178.7 L 699.2 178.7 M 699.2 188.7 Q 701.0 188.7, 701.9 187.6 Q 702.8 186.5, 702.8 184.3 Q 702.8 182.1, 701.9 181.0 Q 701.0 180.0, 699.2 180.0 L 697.1 180.0 L 697.1 188.7 L 699.2 188.7 " fill="#000000"/>
<path class="bond-0 atom-0 atom-1" d="M 22.8,282.8 L 43.2,278.1" style="fill:none;fill-rule:evenodd;stroke:#000000;stroke-width:2.0px;stroke-linecap:butt;stroke-linejoin:miter;stroke-opacity:1"/>
<path class="bond-1 atom-1 atom-2" d="M 43.2,278.1 L 49.3,258.0" style="fill:none;fill-rule:evenodd;stroke:#000000;stroke-width:2.0px;stroke-linecap:butt;stroke-linejoin:miter;stroke-opacity:1"/>
<path class="bond-2 atom-1 atom-3" d="M 43.2,278.1 L 57.6,293.3" style="fill:none;fill-rule:evenodd;stroke:#000000;stroke-width:2.0px;stroke-linecap:butt;stroke-linejoin:miter;stroke-opacity:1"/>
<path class="bond-3 atom-3 atom-4" d="M 57.6,293.3 L 53.6,313.9" style="fill:none;fill-rule:evenodd;stroke:#000000;stroke-width:2.0px;stroke-linecap:butt;stroke-linejoin:miter;stroke-opacity:1"/>
<path class="bond-4 atom-4 atom-5" d="M 53.6,313.9 L 72.0,324.0" style="fill:none;fill-rule:evenodd;stroke:#000000;stroke-width:2.0px;stroke-linecap:butt;stroke-linejoin:miter;stroke-opacity:1"/>
<path class="bond-5 atom-5 atom-6" d="M 72.0,324.0 L 87.3,309.7" style="fill:none;fill-rule:evenodd;stroke:#000000;stroke-width:2.0px;stroke-linecap:butt;stroke-linejoin:miter;stroke-opacity:1"/>
<path class="bond-6 atom-6 atom-7" d="M 87.3,309.7 L 108.2,311.4" style="fill:none;fill-rule:evenodd;stroke:#000000;stroke-width:2.0px;stroke-linecap:butt;stroke-linejoin:miter;stroke-opacity:1"/>
<path class="bond-7 atom-7 atom-8" d="M 108.2,311.4 L 120.1,294.2" style="fill:none;fill-rule:evenodd;stroke:#000000;stroke-width:2.0px;stroke-linecap:butt;stroke-linejoin:miter;stroke-opacity:1"/>
<path class="bond-8 atom-8 atom-9" d="M 120.1,294.2 L 141.0,295.9" style="fill:none;fill-rule:evenodd;stroke:#000000;stroke-width:2.0px;stroke-linecap:butt;stroke-linejoin:miter;stroke-opacity:1"/>
<path class="bond-9 atom-9 atom-10" d="M 141.0,295.9 L 135.7,316.2" style="fill:none;fill-rule:evenodd;stroke:#000000;stroke-width:2.0px;stroke-linecap:butt;stroke-linejoin:miter;stroke-opacity:1"/>
<path class="bond-10 atom-9 atom-11" d="M 141.0,295.9 L 139.1,275.1" style="fill:none;fill-rule:evenodd;stroke:#000000;stroke-width:2.0px;stroke-linecap:butt;stroke-linejoin:miter;stroke-opacity:1"/>
<path class="bond-11 atom-11 atom-12" d="M 139.1,275.1 L 156.3,263.0" style="fill:none;fill-rule:evenodd;stroke:#000000;stroke-width:2.0px;stroke-linecap:butt;stroke-linejoin:miter;stroke-opacity:1"/>
<path class="bond-12 atom-12 atom-13" d="M 156.3,263.0 L 175.3,271.8" style="fill:none;fill-rule:evenodd;stroke:#000000;stroke-width:2.0px;stroke-linecap:butt;stroke-linejoin:miter;stroke-opacity:1"/>
<path class="bond-13 atom-13 atom-14" d="M 175.3,271.8 L 177.2,292.6" style="fill:none;fill-rule:evenodd;stroke:#000000;stroke-width:2.0px;stroke-linecap:butt;stroke-linejoin:miter;stroke-opacity:1"/>
<path class="bond-14 atom-14 atom-15" d="M 177.2,292.6 L 160.1,304.7" style="fill:none;fill-rule:evenodd;stroke:#000000;stroke-width:2.0px;stroke-linecap:butt;stroke-linejoin:miter;stroke-opacity:1"/>
<path class="bond-15 atom-8 atom-16" d="M 120.1,294.2 L 111.2,275.2" style="fill:none;fill-rule:evenodd;stroke:#000000;stroke-width:2.0px;stroke-linecap:butt;stroke-linejoin:miter;stroke-opacity:1"/>
<path class="bond-16 atom-16 atom-17" d="M 111.2,275.2 L 90.3,273.5" style="fill:none;fill-rule:evenodd;stroke:#000000;stroke-width:2.0px;stroke-linecap:butt;stroke-linejoin:miter;stroke-opacity:1"/>
<path class="bond-17 atom-17 atom-18" d="M 90.3,273.5 L 78.4,290.7" style="fill:none;fill-rule:evenodd;stroke:#000000;stroke-width:2.0px;stroke-linecap:butt;stroke-linejoin:miter;stroke-opacity:1"/>
<path class="bond-18 atom-18 atom-19" d="M 78.4,290.7 L 67.5,272.8" style="fill:none;fill-rule:evenodd;stroke:#000000;stroke-width:2.0px;stroke-linecap:butt;stroke-linejoin:miter;stroke-opacity:1"/>
<path class="bond-19 atom-18 atom-3" d="M 78.4,290.7 L 57.6,293.3" style="fill:none;fill-rule:evenodd;stroke:#000000;stroke-width:2.0px;stroke-linecap:butt;stroke-linejoin:miter;stroke-opacity:1"/>
<path class="bond-20 atom-18 atom-6" d="M 78.4,290.7 L 87.3,309.7" style="fill:none;fill-rule:evenodd;stroke:#000000;stroke-width:2.0px;stroke-linecap:butt;stroke-linejoin:miter;stroke-opacity:1"/>
<path class="bond-21 atom-15 atom-9" d="M 160.1,304.7 L 141.0,295.9" style="fill:none;fill-rule:evenodd;stroke:#000000;stroke-width:2.0px;stroke-linecap:butt;stroke-linejoin:miter;stroke-opacity:1"/>
<path d="M 53.8,312.9 L 53.6,313.9 L 54.6,314.4" style="fill:none;stroke:#000000;stroke-width:2.0px;stroke-linecap:butt;stroke-linejoin:miter;stroke-opacity:1;"/>
<path d="M 71.1,323.5 L 72.0,324.0 L 72.8,323.3" style="fill:none;stroke:#000000;stroke-width:2.0px;stroke-linecap:butt;stroke-linejoin:miter;stroke-opacity:1;"/>
<path d="M 107.1,311.3 L 108.2,311.4 L 108.8,310.6" style="fill:none;stroke:#000000;stroke-width:2.0px;stroke-linecap:butt;stroke-linejoin:miter;stroke-opacity:1;"/>
<path d="M 139.2,276.1 L 139.1,275.1 L 140.0,274.5" style="fill:none;stroke:#000000;stroke-width:2.0px;stroke-linecap:butt;stroke-linejoin:miter;stroke-opacity:1;"/>
<path d="M 155.4,263.6 L 156.3,263.0 L 157.2,263.4" style="fill:none;stroke:#000000;stroke-width:2.0px;stroke-linecap:butt;stroke-linejoin:miter;stroke-opacity:1;"/>
<path d="M 174.3,271.3 L 175.3,271.8 L 175.4,272.8" style="fill:none;stroke:#000000;stroke-width:2.0px;stroke-linecap:butt;stroke-linejoin:miter;stroke-opacity:1;"/>
<path d="M 177.1,291.6 L 177.2,292.6 L 176.3,293.2" style="fill:none;stroke:#000000;stroke-width:2.0px;stroke-linecap:butt;stroke-linejoin:miter;stroke-opacity:1;"/>
<path d="M 160.9,304.1 L 160.1,304.7 L 159.1,304.3" style="fill:none;stroke:#000000;stroke-width:2.0px;stroke-linecap:butt;stroke-linejoin:miter;stroke-opacity:1;"/>
<path d="M 111.7,276.2 L 111.2,275.2 L 110.2,275.1" style="fill:none;stroke:#000000;stroke-width:2.0px;stroke-linecap:butt;stroke-linejoin:miter;stroke-opacity:1;"/>
<path d="M 91.4,273.6 L 90.3,273.5 L 89.7,274.3" style="fill:none;stroke:#000000;stroke-width:2.0px;stroke-linecap:butt;stroke-linejoin:miter;stroke-opacity:1;"/>
<path class="legend" d="M 96.5 378.7 L 103.3 378.7 L 103.3 380.0 L 98.1 380.0 L 98.1 383.4 L 102.8 383.4 L 102.8 384.7 L 98.1 384.7 L 98.1 388.7 L 103.5 388.7 L 103.5 390.0 L 96.5 390.0 L 96.5 378.7 " fill="#000000"/>
</svg>