<svg xmlns="http://www.w3.org/2000/svg" xmlns:rdkit="http://www.rdkit.org/xml" xmlns:xlink="http://www.w3.org/1999/xlink" version="1.1" baseProfile="full" xml:space="preserve" width="800px" height="200px" viewBox="0 0 800 200">
<!-- END OF HEADER -->
<rect style="opacity:1.0;fill:#FFFFFF;stroke:none" width="800.0" height="200.0" x="0.0" y="0.0"> </rect>
<path class="bond-0 atom-0 atom-1" d="M 41.6,94.7 L 59.7,84.2" style="fill:none;fill-rule:evenodd;stroke:#000000;stroke-width:2.0px;stroke-linecap:butt;stroke-linejoin:miter;stroke-opacity:1"/>
<path class="bond-1 atom-1 atom-2" d="M 59.7,84.2 L 77.8,94.7" style="fill:none;fill-rule:evenodd;stroke:#000000;stroke-width:2.0px;stroke-linecap:butt;stroke-linejoin:miter;stroke-opacity:1"/>
<path class="bond-2 atom-2 atom-3" d="M 77.8,94.7 L 95.9,84.2" style="fill:none;fill-rule:evenodd;stroke:#000000;stroke-width:2.0px;stroke-linecap:butt;stroke-linejoin:miter;stroke-opacity:1"/>
<path class="bond-3 atom-3 atom-4" d="M 95.9,84.2 L 114.0,94.7" style="fill:none;fill-rule:evenodd;stroke:#000000;stroke-width:2.0px;stroke-linecap:butt;stroke-linejoin:miter;stroke-opacity:1"/>
<path class="bond-4 atom-4 atom-5" d="M 114.0,94.7 L 132.1,84.2" style="fill:none;fill-rule:evenodd;stroke:#000000;stroke-width:2.0px;stroke-linecap:butt;stroke-linejoin:miter;stroke-opacity:1"/>
<path class="bond-5 atom-5 atom-6" d="M 132.1,84.2 L 139.4,88.5" style="fill:none;fill-rule:evenodd;stroke:#000000;stroke-width:2.0px;stroke-linecap:butt;stroke-linejoin:miter;stroke-opacity:1"/>
<path class="bond-5 atom-5 atom-6" d="M 139.4,88.5 L 146.8,92.7" style="fill:none;fill-rule:evenodd;stroke:#FF0000;stroke-width:2.0px;stroke-linecap:butt;stroke-linejoin:miter;stroke-opacity:1"/>
<path d="M 58.8,84.8 L 59.7,84.2 L 60.6,84.8" style="fill:none;stroke:#000000;stroke-width:2.0px;stroke-linecap:butt;stroke-linejoin:miter;stroke-opacity:1;"/>
<path d="M 76.9,94.2 L 77.8,94.7 L 78.7,94.2" style="fill:none;stroke:#000000;stroke-width:2.0px;stroke-linecap:butt;stroke-linejoin:miter;stroke-opacity:1;"/>
<path d="M 95.0,84.8 L 95.9,84.2 L 96.8,84.8" style="fill:none;stroke:#000000;stroke-width:2.0px;stroke-linecap:butt;stroke-linejoin:miter;stroke-opacity:1;"/>
<path d="M 113.1,94.2 L 114.0,94.7 L 114.9,94.2" style="fill:none;stroke:#000000;stroke-width:2.0px;stroke-linecap:butt;stroke-linejoin:miter;stroke-opacity:1;"/>
<path d="M 131.2,84.8 L 132.1,84.2 L 132.4,84.4" style="fill:none;stroke:#000000;stroke-width:2.0px;stroke-linecap:butt;stroke-linejoin:miter;stroke-opacity:1;"/>
<path class="atom-6" d="M 147.5 94.7 Q 147.5 93.3, 148.2 92.5 Q 148.9 91.7, 150.2 91.7 Q 151.5 91.7, 152.2 92.5 Q 152.9 93.3, 152.9 94.7 Q 152.9 96.1, 152.2 97.0 Q 151.5 97.8, 150.2 97.8 Q 148.9 97.8, 148.2 97.0 Q 147.5 96.1, 147.5 94.7 M 150.2 97.1 Q 151.1 97.1, 151.6 96.5 Q 152.1 95.9, 152.1 94.7 Q 152.1 93.5, 151.6 93.0 Q 151.1 92.4, 150.2 92.4 Q 149.3 92.4, 148.8 92.9 Q 148.3 93.5, 148.3 94.7 Q 148.3 95.9, 148.8 96.5 Q 149.3 97.1, 150.2 97.1 " fill="#FF0000"/>
<path class="atom-6" d="M 153.8 91.8 L 154.6 91.8 L 154.6 94.3 L 157.6 94.3 L 157.6 91.8 L 158.4 91.8 L 158.4 97.7 L 157.6 97.7 L 157.6 94.9 L 154.6 94.9 L 154.6 97.7 L 153.8 97.7 L 153.8 91.8 " fill="#FF0000"/>
<path class="legend" d="M 103.4 190.0 L 102.2 186.7 L 97.8 186.7 L 96.6 190.0 L 95.1 190.0 L 99.0 178.7 L 100.9 178.7 L 104.9 190.0 L 103.4 190.0 M 98.2 185.4 L 101.8 185.4 L 100.0 180.3 L 98.2 185.4 " fill="#000000"/>
<path class="bond-0 atom-0 atom-1" d="M 337.1,52.9 L 333.9,61.2" style="fill:none;fill-rule:evenodd;stroke:#FF0000;stroke-width:2.0px;stroke-linecap:butt;stroke-linejoin:miter;stroke-opacity:1"/>
<path class="bond-0 atom-0 atom-1" d="M 333.9,61.2 L 330.7,69.4" style="fill:none;fill-rule:evenodd;stroke:#000000;stroke-width:2.0px;stroke-linecap:butt;stroke-linejoin:miter;stroke-opacity:1"/>
<path class="bond-0 atom-0 atom-1" d="M 334.2,51.8 L 331.0,60.0" style="fill:none;fill-rule:evenodd;stroke:#FF0000;stroke-width:2.0px;stroke-linecap:butt;stroke-linejoin:miter;stroke-opacity:1"/>
<path class="bond-0 atom-0 atom-1" d="M 331.0,60.0 L 327.7,68.3" style="fill:none;fill-rule:evenodd;stroke:#000000;stroke-width:2.0px;stroke-linecap:butt;stroke-linejoin:miter;stroke-opacity:1"/>
<path class="bond-1 atom-1 atom-2" d="M 329.5,68.0 L 308.9,71.2" style="fill:none;fill-rule:evenodd;stroke:#000000;stroke-width:2.0px;stroke-linecap:butt;stroke-linejoin:miter;stroke-opacity:1"/>
<path class="bond-2 atom-2 atom-3" d="M 308.9,71.2 L 303.8,64.9" style="fill:none;fill-rule:evenodd;stroke:#000000;stroke-width:2.0px;stroke-linecap:butt;stroke-linejoin:miter;stroke-opacity:1"/>
<path class="bond-2 atom-2 atom-3" d="M 303.8,64.9 L 298.8,58.6" style="fill:none;fill-rule:evenodd;stroke:#FF0000;stroke-width:2.0px;stroke-linecap:butt;stroke-linejoin:miter;stroke-opacity:1"/>
<path class="bond-3 atom-2 atom-4" d="M 308.9,71.2 L 301.2,90.6" style="fill:none;fill-rule:evenodd;stroke:#000000;stroke-width:2.0px;stroke-linecap:butt;stroke-linejoin:miter;stroke-opacity:1"/>
<path class="bond-3 atom-2 atom-4" d="M 311.1,74.0 L 304.8,90.1" style="fill:none;fill-rule:evenodd;stroke:#000000;stroke-width:2.0px;stroke-linecap:butt;stroke-linejoin:miter;stroke-opacity:1"/>
<path class="bond-4 atom-4 atom-5" d="M 301.2,90.6 L 280.6,93.8" style="fill:none;fill-rule:evenodd;stroke:#000000;stroke-width:2.0px;stroke-linecap:butt;stroke-linejoin:miter;stroke-opacity:1"/>
<path class="bond-5 atom-5 atom-6" d="M 280.6,93.8 L 267.5,77.4" style="fill:none;fill-rule:evenodd;stroke:#000000;stroke-width:2.0px;stroke-linecap:butt;stroke-linejoin:miter;stroke-opacity:1"/>
<path class="bond-5 atom-5 atom-6" d="M 277.0,94.3 L 266.2,80.8" style="fill:none;fill-rule:evenodd;stroke:#000000;stroke-width:2.0px;stroke-linecap:butt;stroke-linejoin:miter;stroke-opacity:1"/>
<path class="bond-6 atom-6 atom-7" d="M 267.5,77.4 L 246.8,80.6" style="fill:none;fill-rule:evenodd;stroke:#000000;stroke-width:2.0px;stroke-linecap:butt;stroke-linejoin:miter;stroke-opacity:1"/>
<path class="bond-7 atom-7 atom-8" d="M 246.8,80.6 L 239.2,100.1" style="fill:none;fill-rule:evenodd;stroke:#000000;stroke-width:2.0px;stroke-linecap:butt;stroke-linejoin:miter;stroke-opacity:1"/>
<path class="bond-7 atom-7 atom-8" d="M 249.1,83.4 L 242.8,99.5" style="fill:none;fill-rule:evenodd;stroke:#000000;stroke-width:2.0px;stroke-linecap:butt;stroke-linejoin:miter;stroke-opacity:1"/>
<path class="bond-8 atom-8 atom-9" d="M 239.2,100.1 L 230.6,101.4" style="fill:none;fill-rule:evenodd;stroke:#000000;stroke-width:2.0px;stroke-linecap:butt;stroke-linejoin:miter;stroke-opacity:1"/>
<path class="bond-8 atom-8 atom-9" d="M 230.6,101.4 L 222.0,102.7" style="fill:none;fill-rule:evenodd;stroke:#FF0000;stroke-width:2.0px;stroke-linecap:butt;stroke-linejoin:miter;stroke-opacity:1"/>
<path class="bond-9 atom-8 atom-10" d="M 239.2,100.1 L 252.3,116.4" style="fill:none;fill-rule:evenodd;stroke:#000000;stroke-width:2.0px;stroke-linecap:butt;stroke-linejoin:miter;stroke-opacity:1"/>
<path class="bond-10 atom-10 atom-11" d="M 252.3,116.4 L 273.0,113.2" style="fill:none;fill-rule:evenodd;stroke:#000000;stroke-width:2.0px;stroke-linecap:butt;stroke-linejoin:miter;stroke-opacity:1"/>
<path class="bond-10 atom-10 atom-11" d="M 253.6,113.0 L 270.7,110.4" style="fill:none;fill-rule:evenodd;stroke:#000000;stroke-width:2.0px;stroke-linecap:butt;stroke-linejoin:miter;stroke-opacity:1"/>
<path class="bond-11 atom-4 atom-12" d="M 301.2,90.6 L 306.3,97.0" style="fill:none;fill-rule:evenodd;stroke:#000000;stroke-width:2.0px;stroke-linecap:butt;stroke-linejoin:miter;stroke-opacity:1"/>
<path class="bond-11 atom-4 atom-12" d="M 306.3,97.0 L 311.3,103.3" style="fill:none;fill-rule:evenodd;stroke:#FF0000;stroke-width:2.0px;stroke-linecap:butt;stroke-linejoin:miter;stroke-opacity:1"/>
<path class="bond-12 atom-12 atom-13" d="M 317.7,106.4 L 326.3,105.1" style="fill:none;fill-rule:evenodd;stroke:#FF0000;stroke-width:2.0px;stroke-linecap:butt;stroke-linejoin:miter;stroke-opacity:1"/>
<path class="bond-12 atom-12 atom-13" d="M 326.3,105.1 L 335.0,103.8" style="fill:none;fill-rule:evenodd;stroke:#000000;stroke-width:2.0px;stroke-linecap:butt;stroke-linejoin:miter;stroke-opacity:1"/>
<path class="bond-13 atom-13 atom-14" d="M 335.0,103.8 L 348.0,120.2" style="fill:none;fill-rule:evenodd;stroke:#000000;stroke-width:2.0px;stroke-linecap:butt;stroke-linejoin:miter;stroke-opacity:1"/>
<path class="bond-13 atom-13 atom-14" d="M 338.5,103.3 L 349.3,116.8" style="fill:none;fill-rule:evenodd;stroke:#000000;stroke-width:2.0px;stroke-linecap:butt;stroke-linejoin:miter;stroke-opacity:1"/>
<path class="bond-14 atom-14 atom-15" d="M 348.0,120.2 L 368.7,117.0" style="fill:none;fill-rule:evenodd;stroke:#000000;stroke-width:2.0px;stroke-linecap:butt;stroke-linejoin:miter;stroke-opacity:1"/>
<path class="bond-15 atom-15 atom-16" d="M 368.7,117.0 L 373.7,123.3" style="fill:none;fill-rule:evenodd;stroke:#000000;stroke-width:2.0px;stroke-linecap:butt;stroke-linejoin:miter;stroke-opacity:1"/>
<path class="bond-15 atom-15 atom-16" d="M 373.7,123.3 L 378.8,129.7" style="fill:none;fill-rule:evenodd;stroke:#FF0000;stroke-width:2.0px;stroke-linecap:butt;stroke-linejoin:miter;stroke-opacity:1"/>
<path class="bond-16 atom-15 atom-17" d="M 368.7,117.0 L 376.3,97.5" style="fill:none;fill-rule:evenodd;stroke:#000000;stroke-width:2.0px;stroke-linecap:butt;stroke-linejoin:miter;stroke-opacity:1"/>
<path class="bond-16 atom-15 atom-17" d="M 366.4,114.2 L 372.7,98.1" style="fill:none;fill-rule:evenodd;stroke:#000000;stroke-width:2.0px;stroke-linecap:butt;stroke-linejoin:miter;stroke-opacity:1"/>
<path class="bond-17 atom-17 atom-18" d="M 376.3,97.5 L 363.2,81.2" style="fill:none;fill-rule:evenodd;stroke:#000000;stroke-width:2.0px;stroke-linecap:butt;stroke-linejoin:miter;stroke-opacity:1"/>
<path class="bond-18 atom-18 atom-19" d="M 363.2,81.2 L 366.3,73.4" style="fill:none;fill-rule:evenodd;stroke:#000000;stroke-width:2.0px;stroke-linecap:butt;stroke-linejoin:miter;stroke-opacity:1"/>
<path class="bond-18 atom-18 atom-19" d="M 366.3,73.4 L 369.4,65.5" style="fill:none;fill-rule:evenodd;stroke:#FF0000;stroke-width:2.0px;stroke-linecap:butt;stroke-linejoin:miter;stroke-opacity:1"/>
<path class="bond-19 atom-18 atom-20" d="M 363.2,81.2 L 342.6,84.4" style="fill:none;fill-rule:evenodd;stroke:#000000;stroke-width:2.0px;stroke-linecap:butt;stroke-linejoin:miter;stroke-opacity:1"/>
<path class="bond-19 atom-18 atom-20" d="M 361.9,84.6 L 344.8,87.2" style="fill:none;fill-rule:evenodd;stroke:#000000;stroke-width:2.0px;stroke-linecap:butt;stroke-linejoin:miter;stroke-opacity:1"/>
<path class="bond-20 atom-20 atom-1" d="M 342.6,84.4 L 329.5,68.0" style="fill:none;fill-rule:evenodd;stroke:#000000;stroke-width:2.0px;stroke-linecap:butt;stroke-linejoin:miter;stroke-opacity:1"/>
<path class="bond-21 atom-11 atom-5" d="M 273.0,113.2 L 280.6,93.8" style="fill:none;fill-rule:evenodd;stroke:#000000;stroke-width:2.0px;stroke-linecap:butt;stroke-linejoin:miter;stroke-opacity:1"/>
<path class="bond-22 atom-20 atom-13" d="M 342.6,84.4 L 335.0,103.8" style="fill:none;fill-rule:evenodd;stroke:#000000;stroke-width:2.0px;stroke-linecap:butt;stroke-linejoin:miter;stroke-opacity:1"/>
<path d="M 328.5,68.2 L 329.5,68.0 L 330.2,68.8" style="fill:none;stroke:#000000;stroke-width:2.0px;stroke-linecap:butt;stroke-linejoin:miter;stroke-opacity:1;"/>
<path d="M 268.2,78.3 L 267.5,77.4 L 266.5,77.6" style="fill:none;stroke:#000000;stroke-width:2.0px;stroke-linecap:butt;stroke-linejoin:miter;stroke-opacity:1;"/>
<path d="M 247.9,80.4 L 246.8,80.6 L 246.5,81.6" style="fill:none;stroke:#000000;stroke-width:2.0px;stroke-linecap:butt;stroke-linejoin:miter;stroke-opacity:1;"/>
<path d="M 251.6,115.6 L 252.3,116.4 L 253.3,116.2" style="fill:none;stroke:#000000;stroke-width:2.0px;stroke-linecap:butt;stroke-linejoin:miter;stroke-opacity:1;"/>
<path d="M 271.9,113.4 L 273.0,113.2 L 273.3,112.3" style="fill:none;stroke:#000000;stroke-width:2.0px;stroke-linecap:butt;stroke-linejoin:miter;stroke-opacity:1;"/>
<path d="M 347.4,119.3 L 348.0,120.2 L 349.0,120.0" style="fill:none;stroke:#000000;stroke-width:2.0px;stroke-linecap:butt;stroke-linejoin:miter;stroke-opacity:1;"/>
<path d="M 375.9,98.5 L 376.3,97.5 L 375.6,96.7" style="fill:none;stroke:#000000;stroke-width:2.0px;stroke-linecap:butt;stroke-linejoin:miter;stroke-opacity:1;"/>
<path class="atom-0" d="M 334.4 48.6 Q 334.4 47.2, 335.1 46.4 Q 335.8 45.6, 337.1 45.6 Q 338.4 45.6, 339.2 46.4 Q 339.9 47.2, 339.9 48.6 Q 339.9 50.0, 339.1 50.8 Q 338.4 51.6, 337.1 51.6 Q 335.8 51.6, 335.1 50.8 Q 334.4 50.0, 334.4 48.6 M 337.1 51.0 Q 338.0 51.0, 338.5 50.4 Q 339.0 49.8, 339.0 48.6 Q 339.0 47.4, 338.5 46.8 Q 338.0 46.2, 337.1 46.2 Q 336.2 46.2, 335.7 46.8 Q 335.3 47.4, 335.3 48.6 Q 335.3 49.8, 335.7 50.4 Q 336.2 51.0, 337.1 51.0 " fill="#FF0000"/>
<path class="atom-3" d="M 287.2 51.9 L 288.0 51.9 L 288.0 54.4 L 291.1 54.4 L 291.1 51.9 L 291.9 51.9 L 291.9 57.8 L 291.1 57.8 L 291.1 55.1 L 288.0 55.1 L 288.0 57.8 L 287.2 57.8 L 287.2 51.9 " fill="#FF0000"/>
<path class="atom-3" d="M 293.1 54.9 Q 293.1 53.4, 293.8 52.6 Q 294.5 51.8, 295.8 51.8 Q 297.1 51.8, 297.8 52.6 Q 298.5 53.4, 298.5 54.9 Q 298.5 56.3, 297.8 57.1 Q 297.1 57.9, 295.8 57.9 Q 294.5 57.9, 293.8 57.1 Q 293.1 56.3, 293.1 54.9 M 295.8 57.3 Q 296.7 57.3, 297.2 56.7 Q 297.7 56.0, 297.7 54.9 Q 297.7 53.7, 297.2 53.1 Q 296.7 52.5, 295.8 52.5 Q 294.9 52.5, 294.4 53.1 Q 293.9 53.7, 293.9 54.9 Q 293.9 56.1, 294.4 56.7 Q 294.9 57.3, 295.8 57.3 " fill="#FF0000"/>
<path class="atom-9" d="M 210.0 100.3 L 210.8 100.3 L 210.8 102.8 L 213.8 102.8 L 213.8 100.3 L 214.6 100.3 L 214.6 106.2 L 213.8 106.2 L 213.8 103.4 L 210.8 103.4 L 210.8 106.2 L 210.0 106.2 L 210.0 100.3 " fill="#FF0000"/>
<path class="atom-9" d="M 215.8 103.2 Q 215.8 101.8, 216.5 101.0 Q 217.3 100.2, 218.6 100.2 Q 219.9 100.2, 220.6 101.0 Q 221.3 101.8, 221.3 103.2 Q 221.3 104.6, 220.6 105.5 Q 219.9 106.3, 218.6 106.3 Q 217.3 106.3, 216.5 105.5 Q 215.8 104.7, 215.8 103.2 M 218.6 105.6 Q 219.5 105.6, 220.0 105.0 Q 220.4 104.4, 220.4 103.2 Q 220.4 102.0, 220.0 101.5 Q 219.5 100.9, 218.6 100.9 Q 217.7 100.9, 217.2 101.5 Q 216.7 102.0, 216.7 103.2 Q 216.7 104.4, 217.2 105.0 Q 217.7 105.6, 218.6 105.6 " fill="#FF0000"/>
<path class="atom-12" d="M 311.6 107.0 Q 311.6 105.6, 312.3 104.8 Q 313.0 104.0, 314.3 104.0 Q 315.6 104.0, 316.3 104.8 Q 317.0 105.6, 317.0 107.0 Q 317.0 108.4, 316.3 109.2 Q 315.6 110.1, 314.3 110.1 Q 313.0 110.1, 312.3 109.2 Q 311.6 108.4, 311.6 107.0 M 314.3 109.4 Q 315.2 109.4, 315.7 108.8 Q 316.2 108.2, 316.2 107.0 Q 316.2 105.8, 315.7 105.2 Q 315.2 104.6, 314.3 104.6 Q 313.4 104.6, 312.9 105.2 Q 312.4 105.8, 312.4 107.0 Q 312.4 108.2, 312.9 108.8 Q 313.4 109.4, 314.3 109.4 " fill="#FF0000"/>
<path class="atom-16" d="M 379.0 133.4 Q 379.0 131.9, 379.7 131.1 Q 380.4 130.4, 381.7 130.4 Q 383.0 130.4, 383.7 131.1 Q 384.4 131.9, 384.4 133.4 Q 384.4 134.8, 383.7 135.6 Q 383.0 136.4, 381.7 136.4 Q 380.4 136.4, 379.7 135.6 Q 379.0 134.8, 379.0 133.4 M 381.7 135.8 Q 382.6 135.8, 383.1 135.2 Q 383.6 134.6, 383.6 133.4 Q 383.6 132.2, 383.1 131.6 Q 382.6 131.0, 381.7 131.0 Q 380.8 131.0, 380.3 131.6 Q 379.8 132.2, 379.8 133.4 Q 379.8 134.6, 380.3 135.2 Q 380.8 135.8, 381.7 135.8 " fill="#FF0000"/>
<path class="atom-16" d="M 385.4 130.4 L 386.2 130.4 L 386.2 132.9 L 389.2 132.9 L 389.2 130.4 L 390.0 130.4 L 390.0 136.3 L 389.2 136.3 L 389.2 133.6 L 386.2 133.6 L 386.2 136.3 L 385.4 136.3 L 385.4 130.4 " fill="#FF0000"/>
<path class="atom-19" d="M 368.1 61.8 Q 368.1 60.3, 368.8 59.6 Q 369.5 58.8, 370.9 58.8 Q 372.2 58.8, 372.9 59.6 Q 373.6 60.3, 373.6 61.8 Q 373.6 63.2, 372.9 64.0 Q 372.2 64.8, 370.9 64.8 Q 369.6 64.8, 368.8 64.0 Q 368.1 63.2, 368.1 61.8 M 370.9 64.2 Q 371.8 64.2, 372.2 63.6 Q 372.7 63.0, 372.7 61.8 Q 372.7 60.6, 372.2 60.0 Q 371.8 59.4, 370.9 59.4 Q 370.0 59.4, 369.5 60.0 Q 369.0 60.6, 369.0 61.8 Q 369.0 63.0, 369.5 63.6 Q 370.0 64.2, 370.9 64.2 " fill="#FF0000"/>
<path class="atom-19" d="M 374.5 58.8 L 375.3 58.8 L 375.3 61.3 L 378.3 61.3 L 378.3 58.8 L 379.1 58.8 L 379.1 64.7 L 378.3 64.7 L 378.3 62.0 L 375.3 62.0 L 375.3 64.7 L 374.5 64.7 L 374.5 58.8 " fill="#FF0000"/>
<path class="legend" d="M 301.7 184.0 Q 302.7 184.4, 303.3 185.0 Q 303.8 185.7, 303.8 186.7 Q 303.8 188.2, 302.8 189.1 Q 301.8 190.0, 300.0 190.0 L 296.2 190.0 L 296.2 178.7 L 299.5 178.7 Q 301.4 178.7, 302.4 179.5 Q 303.4 180.2, 303.4 181.7 Q 303.4 183.4, 301.7 184.0 M 297.7 180.0 L 297.7 183.5 L 299.5 183.5 Q 300.6 183.5, 301.2 183.1 Q 301.8 182.6, 301.8 181.7 Q 301.8 180.0, 299.5 180.0 L 297.7 180.0 M 300.0 188.7 Q 301.1 188.7, 301.7 188.2 Q 302.2 187.7, 302.2 186.7 Q 302.2 185.7, 301.6 185.3 Q 301.0 184.8, 299.7 184.8 L 297.7 184.8 L 297.7 188.7 L 300.0 188.7 " fill="#000000"/>
<path class="bond-0 atom-0 atom-1" d="M 463.8,96.2 L 481.9,85.8" style="fill:none;fill-rule:evenodd;stroke:#000000;stroke-width:2.0px;stroke-linecap:butt;stroke-linejoin:miter;stroke-opacity:1"/>
<path class="bond-1 atom-1 atom-2" d="M 481.9,85.8 L 500.0,96.2" style="fill:none;fill-rule:evenodd;stroke:#000000;stroke-width:2.0px;stroke-linecap:butt;stroke-linejoin:miter;stroke-opacity:1"/>
<path class="bond-2 atom-2 atom-3" d="M 500.0,96.2 L 518.1,85.8" style="fill:none;fill-rule:evenodd;stroke:#000000;stroke-width:2.0px;stroke-linecap:butt;stroke-linejoin:miter;stroke-opacity:1"/>
<path class="bond-3 atom-3 atom-4" d="M 518.1,85.8 L 536.2,96.2" style="fill:none;fill-rule:evenodd;stroke:#000000;stroke-width:2.0px;stroke-linecap:butt;stroke-linejoin:miter;stroke-opacity:1"/>
<path d="M 481.0,86.3 L 481.9,85.8 L 482.8,86.3" style="fill:none;stroke:#000000;stroke-width:2.0px;stroke-linecap:butt;stroke-linejoin:miter;stroke-opacity:1;"/>
<path d="M 499.1,95.7 L 500.0,96.2 L 500.9,95.7" style="fill:none;stroke:#000000;stroke-width:2.0px;stroke-linecap:butt;stroke-linejoin:miter;stroke-opacity:1;"/>
<path d="M 517.2,86.3 L 518.1,85.8 L 519.0,86.3" style="fill:none;stroke:#000000;stroke-width:2.0px;stroke-linecap:butt;stroke-linejoin:miter;stroke-opacity:1;"/>
<path class="legend" d="M 495.6 184.2 Q 495.6 181.4, 496.9 179.9 Q 498.3 178.4, 500.8 178.4 Q 503.1 178.4, 504.4 180.0 L 503.3 180.9 Q 502.4 179.7, 500.8 179.7 Q 499.1 179.7, 498.2 180.9 Q 497.3 182.0, 497.3 184.2 Q 497.3 186.4, 498.2 187.6 Q 499.1 188.7, 501.0 188.7 Q 502.2 188.7, 503.7 188.0 L 504.1 189.2 Q 503.5 189.6, 502.6 189.8 Q 501.7 190.0, 500.7 190.0 Q 498.3 190.0, 496.9 188.5 Q 495.6 187.0, 495.6 184.2 " fill="#000000"/>
<path class="bond-0 atom-0 atom-1" d="M 721.1,55.7 L 700.5,59.1" style="fill:none;fill-rule:evenodd;stroke:#000000;stroke-width:2.0px;stroke-linecap:butt;stroke-linejoin:miter;stroke-opacity:1"/>
<path class="bond-1 atom-1 atom-2" d="M 700.5,59.1 L 693.2,78.7" style="fill:none;fill-rule:evenodd;stroke:#000000;stroke-width:2.0px;stroke-linecap:butt;stroke-linejoin:miter;stroke-opacity:1"/>
<path class="bond-2 atom-2 atom-3" d="M 693.2,78.7 L 706.5,94.8" style="fill:none;fill-rule:evenodd;stroke:#000000;stroke-width:2.0px;stroke-linecap:butt;stroke-linejoin:miter;stroke-opacity:1"/>
<path class="bond-3 atom-3 atom-4" d="M 706.5,94.8 L 727.1,91.4" style="fill:none;fill-rule:evenodd;stroke:#000000;stroke-width:2.0px;stroke-linecap:butt;stroke-linejoin:miter;stroke-opacity:1"/>
<path class="bond-4 atom-4 atom-5" d="M 727.1,91.4 L 720.1,71.7" style="fill:none;fill-rule:evenodd;stroke:#000000;stroke-width:2.0px;stroke-linecap:butt;stroke-linejoin:miter;stroke-opacity:1"/>
<path class="bond-5 atom-4 atom-6" d="M 727.1,91.4 L 726.9,112.3" style="fill:none;fill-rule:evenodd;stroke:#000000;stroke-width:2.0px;stroke-linecap:butt;stroke-linejoin:miter;stroke-opacity:1"/>
<path class="bond-6 atom-6 atom-7" d="M 726.9,112.3 L 744.9,122.9" style="fill:none;fill-rule:evenodd;stroke:#000000;stroke-width:2.0px;stroke-linecap:butt;stroke-linejoin:miter;stroke-opacity:1"/>
<path class="bond-7 atom-7 atom-8" d="M 744.9,122.9 L 763.1,112.6" style="fill:none;fill-rule:evenodd;stroke:#000000;stroke-width:2.0px;stroke-linecap:butt;stroke-linejoin:miter;stroke-opacity:1"/>
<path class="bond-8 atom-8 atom-9" d="M 763.1,112.6 L 770.4,116.9" style="fill:none;fill-rule:evenodd;stroke:#000000;stroke-width:2.0px;stroke-linecap:butt;stroke-linejoin:miter;stroke-opacity:1"/>
<path class="bond-8 atom-8 atom-9" d="M 770.4,116.9 L 777.7,121.2" style="fill:none;fill-rule:evenodd;stroke:#FF0000;stroke-width:2.0px;stroke-linecap:butt;stroke-linejoin:miter;stroke-opacity:1"/>
<path class="bond-9 atom-8 atom-10" d="M 763.1,112.6 L 763.3,91.7" style="fill:none;fill-rule:evenodd;stroke:#000000;stroke-width:2.0px;stroke-linecap:butt;stroke-linejoin:miter;stroke-opacity:1"/>
<path class="bond-10 atom-10 atom-11" d="M 763.3,91.7 L 745.3,81.1" style="fill:none;fill-rule:evenodd;stroke:#000000;stroke-width:2.0px;stroke-linecap:butt;stroke-linejoin:miter;stroke-opacity:1"/>
<path class="bond-11 atom-3 atom-12" d="M 706.5,94.8 L 699.1,114.4" style="fill:none;fill-rule:evenodd;stroke:#000000;stroke-width:2.0px;stroke-linecap:butt;stroke-linejoin:miter;stroke-opacity:1"/>
<path class="bond-12 atom-12 atom-13" d="M 699.1,114.4 L 678.5,117.8" style="fill:none;fill-rule:evenodd;stroke:#000000;stroke-width:2.0px;stroke-linecap:butt;stroke-linejoin:miter;stroke-opacity:1"/>
<path class="bond-13 atom-13 atom-14" d="M 678.5,117.8 L 665.2,101.7" style="fill:none;fill-rule:evenodd;stroke:#000000;stroke-width:2.0px;stroke-linecap:butt;stroke-linejoin:miter;stroke-opacity:1"/>
<path class="bond-14 atom-14 atom-15" d="M 665.2,101.7 L 655.9,120.4" style="fill:none;fill-rule:evenodd;stroke:#000000;stroke-width:2.0px;stroke-linecap:butt;stroke-linejoin:miter;stroke-opacity:1"/>
<path class="bond-15 atom-14 atom-16" d="M 665.2,101.7 L 644.3,100.8" style="fill:none;fill-rule:evenodd;stroke:#000000;stroke-width:2.0px;stroke-linecap:butt;stroke-linejoin:miter;stroke-opacity:1"/>
<path class="bond-16 atom-16 atom-17" d="M 644.3,100.8 L 631.3,117.1" style="fill:none;fill-rule:evenodd;stroke:#000000;stroke-width:2.0px;stroke-linecap:butt;stroke-linejoin:miter;stroke-opacity:1"/>
<path class="bond-17 atom-17 atom-18" d="M 631.3,117.1 L 610.6,114.0" style="fill:none;fill-rule:evenodd;stroke:#000000;stroke-width:2.0px;stroke-linecap:butt;stroke-linejoin:miter;stroke-opacity:1"/>
<path class="bond-18 atom-16 atom-19" d="M 644.3,100.8 L 638.8,80.6" style="fill:none;fill-rule:evenodd;stroke:#000000;stroke-width:2.0px;stroke-linecap:butt;stroke-linejoin:miter;stroke-opacity:1"/>
<path class="bond-19 atom-19 atom-20" d="M 638.8,80.6 L 656.2,69.1" style="fill:none;fill-rule:evenodd;stroke:#000000;stroke-width:2.0px;stroke-linecap:butt;stroke-linejoin:miter;stroke-opacity:1"/>
<path class="bond-20 atom-20 atom-21" d="M 656.2,69.1 L 672.5,82.1" style="fill:none;fill-rule:evenodd;stroke:#000000;stroke-width:2.0px;stroke-linecap:butt;stroke-linejoin:miter;stroke-opacity:1"/>
<path class="bond-21 atom-21 atom-2" d="M 672.5,82.1 L 693.2,78.7" style="fill:none;fill-rule:evenodd;stroke:#000000;stroke-width:2.0px;stroke-linecap:butt;stroke-linejoin:miter;stroke-opacity:1"/>
<path class="bond-22 atom-11 atom-4" d="M 745.3,81.1 L 727.1,91.4" style="fill:none;fill-rule:evenodd;stroke:#000000;stroke-width:2.0px;stroke-linecap:butt;stroke-linejoin:miter;stroke-opacity:1"/>
<path class="bond-23 atom-21 atom-14" d="M 672.5,82.1 L 665.2,101.7" style="fill:none;fill-rule:evenodd;stroke:#000000;stroke-width:2.0px;stroke-linecap:butt;stroke-linejoin:miter;stroke-opacity:1"/>
<path d="M 701.5,58.9 L 700.5,59.1 L 700.1,60.1" style="fill:none;stroke:#000000;stroke-width:2.0px;stroke-linecap:butt;stroke-linejoin:miter;stroke-opacity:1;"/>
<path d="M 726.9,111.2 L 726.9,112.3 L 727.8,112.8" style="fill:none;stroke:#000000;stroke-width:2.0px;stroke-linecap:butt;stroke-linejoin:miter;stroke-opacity:1;"/>
<path d="M 744.0,122.4 L 744.9,122.9 L 745.8,122.4" style="fill:none;stroke:#000000;stroke-width:2.0px;stroke-linecap:butt;stroke-linejoin:miter;stroke-opacity:1;"/>
<path d="M 763.3,92.8 L 763.3,91.7 L 762.4,91.2" style="fill:none;stroke:#000000;stroke-width:2.0px;stroke-linecap:butt;stroke-linejoin:miter;stroke-opacity:1;"/>
<path d="M 746.2,81.6 L 745.3,81.1 L 744.4,81.6" style="fill:none;stroke:#000000;stroke-width:2.0px;stroke-linecap:butt;stroke-linejoin:miter;stroke-opacity:1;"/>
<path d="M 699.5,113.4 L 699.1,114.4 L 698.1,114.6" style="fill:none;stroke:#000000;stroke-width:2.0px;stroke-linecap:butt;stroke-linejoin:miter;stroke-opacity:1;"/>
<path d="M 679.5,117.7 L 678.5,117.8 L 677.8,117.0" style="fill:none;stroke:#000000;stroke-width:2.0px;stroke-linecap:butt;stroke-linejoin:miter;stroke-opacity:1;"/>
<path d="M 632.0,116.3 L 631.3,117.1 L 630.3,117.0" style="fill:none;stroke:#000000;stroke-width:2.0px;stroke-linecap:butt;stroke-linejoin:miter;stroke-opacity:1;"/>
<path d="M 639.0,81.6 L 638.8,80.6 L 639.6,80.1" style="fill:none;stroke:#000000;stroke-width:2.0px;stroke-linecap:butt;stroke-linejoin:miter;stroke-opacity:1;"/>
<path d="M 655.3,69.7 L 656.2,69.1 L 657.0,69.8" style="fill:none;stroke:#000000;stroke-width:2.0px;stroke-linecap:butt;stroke-linejoin:miter;stroke-opacity:1;"/>
<path class="atom-9" d="M 778.4 123.3 Q 778.4 121.8, 779.1 121.0 Q 779.8 120.3, 781.1 120.3 Q 782.4 120.3, 783.1 121.0 Q 783.8 121.8, 783.8 123.3 Q 783.8 124.7, 783.1 125.5 Q 782.4 126.3, 781.1 126.3 Q 779.8 126.3, 779.1 125.5 Q 778.4 124.7, 778.4 123.3 M 781.1 125.7 Q 782.0 125.7, 782.5 125.1 Q 783.0 124.4, 783.0 123.3 Q 783.0 122.1, 782.5 121.5 Q 782.0 120.9, 781.1 120.9 Q 780.2 120.9, 779.7 121.5 Q 779.2 122.1, 779.2 123.3 Q 779.2 124.5, 779.7 125.1 Q 780.2 125.7, 781.1 125.7 " fill="#FF0000"/>
<path class="atom-9" d="M 784.7 120.3 L 785.5 120.3 L 785.5 122.8 L 788.6 122.8 L 788.6 120.3 L 789.4 120.3 L 789.4 126.2 L 788.6 126.2 L 788.6 123.5 L 785.5 123.5 L 785.5 126.2 L 784.7 126.2 L 784.7 120.3 " fill="#FF0000"/>
<path class="legend" d="M 699.2 178.7 Q 701.7 178.7, 703.1 180.2 Q 704.4 181.6, 704.4 184.3 Q 704.4 187.0, 703.1 188.5 Q 701.7 190.0, 699.2 190.0 L 695.6 190.0 L 695.6 178.7 L 699.2 178.7 M 699.2 188.7 Q 701.0 188.7, 701.9 187.6 Q 702.8 186.5, 702.8 184.3 Q 702.8 182.1, 701.9 181.0 Q 701.0 180.0, 699.2 180.0 L 697.1 180.0 L 697.1 188.7 L 699.2 188.7 " fill="#000000"/>
</svg>