<svg xmlns="http://www.w3.org/2000/svg" xmlns:rdkit="http://www.rdkit.org/xml" xmlns:xlink="http://www.w3.org/1999/xlink" version="1.1" baseProfile="full" xml:space="preserve" width="800px" height="400px" viewBox="0 0 800 400">
<!-- END OF HEADER -->
<rect style="opacity:1.0;fill:#FFFFFF;stroke:none" width="800.0" height="400.0" x="0.0" y="0.0"> </rect>
<path class="bond-0 atom-0 atom-1" d="M 135.6,80.6 L 132.3,86.4" style="fill:none;fill-rule:evenodd;stroke:#FF0000;stroke-width:2.0px;stroke-linecap:butt;stroke-linejoin:miter;stroke-opacity:1"/>
<path class="bond-0 atom-0 atom-1" d="M 132.3,86.4 L 128.9,92.2" style="fill:none;fill-rule:evenodd;stroke:#000000;stroke-width:2.0px;stroke-linecap:butt;stroke-linejoin:miter;stroke-opacity:1"/>
<path class="bond-0 atom-0 atom-1" d="M 133.5,79.4 L 130.2,85.2" style="fill:none;fill-rule:evenodd;stroke:#FF0000;stroke-width:2.0px;stroke-linecap:butt;stroke-linejoin:miter;stroke-opacity:1"/>
<path class="bond-0 atom-0 atom-1" d="M 130.2,85.2 L 126.8,91.0" style="fill:none;fill-rule:evenodd;stroke:#000000;stroke-width:2.0px;stroke-linecap:butt;stroke-linejoin:miter;stroke-opacity:1"/>
<path class="bond-1 atom-1 atom-2" d="M 128.2,91.0 L 131.4,96.5" style="fill:none;fill-rule:evenodd;stroke:#000000;stroke-width:2.0px;stroke-linecap:butt;stroke-linejoin:miter;stroke-opacity:1"/>
<path class="bond-1 atom-1 atom-2" d="M 131.4,96.5 L 134.6,102.0" style="fill:none;fill-rule:evenodd;stroke:#FF0000;stroke-width:2.0px;stroke-linecap:butt;stroke-linejoin:miter;stroke-opacity:1"/>
<path class="bond-2 atom-1 atom-3" d="M 128.2,91.0 L 112.2,91.0" style="fill:none;fill-rule:evenodd;stroke:#000000;stroke-width:2.0px;stroke-linecap:butt;stroke-linejoin:miter;stroke-opacity:1"/>
<path class="bond-3 atom-3 atom-4" d="M 112.2,91.0 L 104.1,104.9" style="fill:none;fill-rule:evenodd;stroke:#000000;stroke-width:2.0px;stroke-linecap:butt;stroke-linejoin:miter;stroke-opacity:1"/>
<path class="bond-3 atom-3 atom-4" d="M 109.4,91.0 L 102.7,102.5" style="fill:none;fill-rule:evenodd;stroke:#000000;stroke-width:2.0px;stroke-linecap:butt;stroke-linejoin:miter;stroke-opacity:1"/>
<path class="bond-4 atom-4 atom-5" d="M 104.1,104.9 L 88.1,104.9" style="fill:none;fill-rule:evenodd;stroke:#000000;stroke-width:2.0px;stroke-linecap:butt;stroke-linejoin:miter;stroke-opacity:1"/>
<path class="bond-5 atom-5 atom-6" d="M 88.1,104.9 L 80.0,91.0" style="fill:none;fill-rule:evenodd;stroke:#000000;stroke-width:2.0px;stroke-linecap:butt;stroke-linejoin:miter;stroke-opacity:1"/>
<path class="bond-5 atom-5 atom-6" d="M 89.5,102.5 L 82.8,91.0" style="fill:none;fill-rule:evenodd;stroke:#000000;stroke-width:2.0px;stroke-linecap:butt;stroke-linejoin:miter;stroke-opacity:1"/>
<path class="bond-6 atom-6 atom-7" d="M 80.0,91.0 L 73.3,91.0" style="fill:none;fill-rule:evenodd;stroke:#000000;stroke-width:2.0px;stroke-linecap:butt;stroke-linejoin:miter;stroke-opacity:1"/>
<path class="bond-6 atom-6 atom-7" d="M 73.3,91.0 L 66.6,91.0" style="fill:none;fill-rule:evenodd;stroke:#FF0000;stroke-width:2.0px;stroke-linecap:butt;stroke-linejoin:miter;stroke-opacity:1"/>
<path class="bond-7 atom-6 atom-8" d="M 80.0,91.0 L 88.1,77.1" style="fill:none;fill-rule:evenodd;stroke:#000000;stroke-width:2.0px;stroke-linecap:butt;stroke-linejoin:miter;stroke-opacity:1"/>
<path class="bond-8 atom-8 atom-9" d="M 88.1,77.1 L 104.1,77.1" style="fill:none;fill-rule:evenodd;stroke:#000000;stroke-width:2.0px;stroke-linecap:butt;stroke-linejoin:miter;stroke-opacity:1"/>
<path class="bond-8 atom-8 atom-9" d="M 89.5,79.5 L 102.7,79.5" style="fill:none;fill-rule:evenodd;stroke:#000000;stroke-width:2.0px;stroke-linecap:butt;stroke-linejoin:miter;stroke-opacity:1"/>
<path class="bond-9 atom-9 atom-3" d="M 104.1,77.1 L 112.2,91.0" style="fill:none;fill-rule:evenodd;stroke:#000000;stroke-width:2.0px;stroke-linecap:butt;stroke-linejoin:miter;stroke-opacity:1"/>
<path d="M 128.4,91.2 L 128.2,91.0 L 127.4,91.0" style="fill:none;stroke:#000000;stroke-width:2.0px;stroke-linecap:butt;stroke-linejoin:miter;stroke-opacity:1;"/>
<path d="M 104.5,104.2 L 104.1,104.9 L 103.3,104.9" style="fill:none;stroke:#000000;stroke-width:2.0px;stroke-linecap:butt;stroke-linejoin:miter;stroke-opacity:1;"/>
<path d="M 88.9,104.9 L 88.1,104.9 L 87.7,104.2" style="fill:none;stroke:#000000;stroke-width:2.0px;stroke-linecap:butt;stroke-linejoin:miter;stroke-opacity:1;"/>
<path d="M 87.7,77.8 L 88.1,77.1 L 88.9,77.1" style="fill:none;stroke:#000000;stroke-width:2.0px;stroke-linecap:butt;stroke-linejoin:miter;stroke-opacity:1;"/>
<path d="M 103.3,77.1 L 104.1,77.1 L 104.5,77.8" style="fill:none;stroke:#000000;stroke-width:2.0px;stroke-linecap:butt;stroke-linejoin:miter;stroke-opacity:1;"/>
<path class="atom-0" d="M 134.2 77.1 Q 134.2 76.0, 134.7 75.4 Q 135.2 74.8, 136.2 74.8 Q 137.3 74.8, 137.8 75.4 Q 138.3 76.0, 138.3 77.1 Q 138.3 78.2, 137.8 78.8 Q 137.2 79.4, 136.2 79.4 Q 135.2 79.4, 134.7 78.8 Q 134.2 78.2, 134.2 77.1 M 136.2 78.9 Q 136.9 78.9, 137.3 78.5 Q 137.7 78.0, 137.7 77.1 Q 137.7 76.2, 137.3 75.7 Q 136.9 75.3, 136.2 75.3 Q 135.6 75.3, 135.2 75.7 Q 134.8 76.2, 134.8 77.1 Q 134.8 78.0, 135.2 78.5 Q 135.6 78.9, 136.2 78.9 " fill="#FF0000"/>
<path class="atom-2" d="M 134.2 104.9 Q 134.2 103.8, 134.7 103.2 Q 135.2 102.6, 136.2 102.6 Q 137.3 102.6, 137.8 103.2 Q 138.3 103.8, 138.3 104.9 Q 138.3 106.0, 137.8 106.6 Q 137.2 107.2, 136.2 107.2 Q 135.2 107.2, 134.7 106.6 Q 134.2 106.0, 134.2 104.9 M 136.2 106.7 Q 136.9 106.7, 137.3 106.3 Q 137.7 105.8, 137.7 104.9 Q 137.7 104.0, 137.3 103.5 Q 136.9 103.1, 136.2 103.1 Q 135.6 103.1, 135.2 103.5 Q 134.8 104.0, 134.8 104.9 Q 134.8 105.8, 135.2 106.3 Q 135.6 106.7, 136.2 106.7 " fill="#FF0000"/>
<path class="atom-2" d="M 139.0 102.6 L 139.7 102.6 L 139.7 104.6 L 142.0 104.6 L 142.0 102.6 L 142.6 102.6 L 142.6 107.2 L 142.0 107.2 L 142.0 105.1 L 139.7 105.1 L 139.7 107.2 L 139.0 107.2 L 139.0 102.6 " fill="#FF0000"/>
<path class="atom-7" d="M 57.4 88.7 L 58.0 88.7 L 58.0 90.6 L 60.3 90.6 L 60.3 88.7 L 61.0 88.7 L 61.0 93.3 L 60.3 93.3 L 60.3 91.2 L 58.0 91.2 L 58.0 93.3 L 57.4 93.3 L 57.4 88.7 " fill="#FF0000"/>
<path class="atom-7" d="M 61.9 91.0 Q 61.9 89.9, 62.4 89.3 Q 63.0 88.7, 64.0 88.7 Q 65.0 88.7, 65.5 89.3 Q 66.1 89.9, 66.1 91.0 Q 66.1 92.1, 65.5 92.7 Q 65.0 93.3, 64.0 93.3 Q 63.0 93.3, 62.4 92.7 Q 61.9 92.1, 61.9 91.0 M 64.0 92.8 Q 64.7 92.8, 65.0 92.4 Q 65.4 91.9, 65.4 91.0 Q 65.4 90.1, 65.0 89.6 Q 64.7 89.2, 64.0 89.2 Q 63.3 89.2, 62.9 89.6 Q 62.5 90.1, 62.5 91.0 Q 62.5 91.9, 62.9 92.4 Q 63.3 92.8, 64.0 92.8 " fill="#FF0000"/>
<path class="legend" d="M 103.4 190.0 L 102.2 186.7 L 97.8 186.7 L 96.6 190.0 L 95.1 190.0 L 99.0 178.7 L 100.9 178.7 L 104.9 190.0 L 103.4 190.0 M 98.2 185.4 L 101.8 185.4 L 100.0 180.3 L 98.2 185.4 " fill="#000000"/>
<path class="bond-0 atom-0 atom-1" d="M 334.9,54.4 L 348.1,63.4" style="fill:none;fill-rule:evenodd;stroke:#000000;stroke-width:2.0px;stroke-linecap:butt;stroke-linejoin:miter;stroke-opacity:1"/>
<path class="bond-1 atom-1 atom-2" d="M 348.0,64.8 L 354.3,61.8" style="fill:none;fill-rule:evenodd;stroke:#000000;stroke-width:2.0px;stroke-linecap:butt;stroke-linejoin:miter;stroke-opacity:1"/>
<path class="bond-1 atom-1 atom-2" d="M 354.3,61.8 L 360.5,58.8" style="fill:none;fill-rule:evenodd;stroke:#FF0000;stroke-width:2.0px;stroke-linecap:butt;stroke-linejoin:miter;stroke-opacity:1"/>
<path class="bond-1 atom-1 atom-2" d="M 347.0,62.7 L 353.2,59.7" style="fill:none;fill-rule:evenodd;stroke:#000000;stroke-width:2.0px;stroke-linecap:butt;stroke-linejoin:miter;stroke-opacity:1"/>
<path class="bond-1 atom-1 atom-2" d="M 353.2,59.7 L 359.5,56.6" style="fill:none;fill-rule:evenodd;stroke:#FF0000;stroke-width:2.0px;stroke-linecap:butt;stroke-linejoin:miter;stroke-opacity:1"/>
<path class="bond-2 atom-1 atom-3" d="M 348.1,63.4 L 347.0,79.5" style="fill:none;fill-rule:evenodd;stroke:#000000;stroke-width:2.0px;stroke-linecap:butt;stroke-linejoin:miter;stroke-opacity:1"/>
<path class="bond-3 atom-3 atom-4" d="M 347.0,79.5 L 360.2,88.5" style="fill:none;fill-rule:evenodd;stroke:#000000;stroke-width:2.0px;stroke-linecap:butt;stroke-linejoin:miter;stroke-opacity:1"/>
<path class="bond-3 atom-3 atom-4" d="M 346.8,82.2 L 357.7,89.7" style="fill:none;fill-rule:evenodd;stroke:#000000;stroke-width:2.0px;stroke-linecap:butt;stroke-linejoin:miter;stroke-opacity:1;stroke-dasharray:6,4"/>
<path class="bond-4 atom-4 atom-5" d="M 360.2,88.5 L 359.1,104.5" style="fill:none;fill-rule:evenodd;stroke:#000000;stroke-width:2.0px;stroke-linecap:butt;stroke-linejoin:miter;stroke-opacity:1"/>
<path class="bond-4 atom-4 atom-5" d="M 357.7,89.7 L 356.7,104.3" style="fill:none;fill-rule:evenodd;stroke:#000000;stroke-width:2.0px;stroke-linecap:butt;stroke-linejoin:miter;stroke-opacity:1;stroke-dasharray:6,4"/>
<path class="bond-5 atom-3 atom-6" d="M 347.0,79.5 L 332.5,86.4" style="fill:none;fill-rule:evenodd;stroke:#000000;stroke-width:2.0px;stroke-linecap:butt;stroke-linejoin:miter;stroke-opacity:1"/>
<path class="bond-5 atom-3 atom-6" d="M 344.7,77.9 L 332.7,83.7" style="fill:none;fill-rule:evenodd;stroke:#000000;stroke-width:2.0px;stroke-linecap:butt;stroke-linejoin:miter;stroke-opacity:1;stroke-dasharray:6,4"/>
<path class="bond-6 atom-6 atom-7" d="M 332.5,86.4 L 331.3,102.5" style="fill:none;fill-rule:evenodd;stroke:#000000;stroke-width:2.0px;stroke-linecap:butt;stroke-linejoin:miter;stroke-opacity:1"/>
<path class="bond-6 atom-6 atom-7" d="M 330.0,87.7 L 329.0,100.9" style="fill:none;fill-rule:evenodd;stroke:#000000;stroke-width:2.0px;stroke-linecap:butt;stroke-linejoin:miter;stroke-opacity:1;stroke-dasharray:6,4"/>
<path class="bond-7 atom-7 atom-8" d="M 331.3,102.5 L 316.9,109.5" style="fill:none;fill-rule:evenodd;stroke:#000000;stroke-width:2.0px;stroke-linecap:butt;stroke-linejoin:miter;stroke-opacity:1"/>
<path class="bond-7 atom-7 atom-8" d="M 329.0,100.9 L 315.8,107.3" style="fill:none;fill-rule:evenodd;stroke:#000000;stroke-width:2.0px;stroke-linecap:butt;stroke-linejoin:miter;stroke-opacity:1;stroke-dasharray:6,4"/>
<path class="bond-8 atom-8 atom-9" d="M 316.9,109.5 L 316.4,116.0" style="fill:none;fill-rule:evenodd;stroke:#000000;stroke-width:2.0px;stroke-linecap:butt;stroke-linejoin:miter;stroke-opacity:1"/>
<path class="bond-8 atom-8 atom-9" d="M 316.4,116.0 L 315.9,122.6" style="fill:none;fill-rule:evenodd;stroke:#FF0000;stroke-width:2.0px;stroke-linecap:butt;stroke-linejoin:miter;stroke-opacity:1"/>
<path class="bond-9 atom-6 atom-10" d="M 332.5,86.4 L 327.2,82.8" style="fill:none;fill-rule:evenodd;stroke:#000000;stroke-width:2.0px;stroke-linecap:butt;stroke-linejoin:miter;stroke-opacity:1"/>
<path class="bond-9 atom-6 atom-10" d="M 327.2,82.8 L 321.8,79.2" style="fill:none;fill-rule:evenodd;stroke:#FF0000;stroke-width:2.0px;stroke-linecap:butt;stroke-linejoin:miter;stroke-opacity:1"/>
<path class="bond-10 atom-10 atom-11" d="M 316.6,78.7 L 310.7,81.5" style="fill:none;fill-rule:evenodd;stroke:#FF0000;stroke-width:2.0px;stroke-linecap:butt;stroke-linejoin:miter;stroke-opacity:1"/>
<path class="bond-10 atom-10 atom-11" d="M 310.7,81.5 L 304.8,84.4" style="fill:none;fill-rule:evenodd;stroke:#000000;stroke-width:2.0px;stroke-linecap:butt;stroke-linejoin:miter;stroke-opacity:1"/>
<path class="bond-11 atom-11 atom-12" d="M 304.8,84.4 L 291.5,75.4" style="fill:none;fill-rule:evenodd;stroke:#000000;stroke-width:2.0px;stroke-linecap:butt;stroke-linejoin:miter;stroke-opacity:1"/>
<path class="bond-12 atom-12 atom-13" d="M 291.5,75.4 L 277.0,82.4" style="fill:none;fill-rule:evenodd;stroke:#000000;stroke-width:2.0px;stroke-linecap:butt;stroke-linejoin:miter;stroke-opacity:1"/>
<path class="bond-12 atom-12 atom-13" d="M 291.3,78.2 L 278.1,84.5" style="fill:none;fill-rule:evenodd;stroke:#000000;stroke-width:2.0px;stroke-linecap:butt;stroke-linejoin:miter;stroke-opacity:1;stroke-dasharray:6,4"/>
<path class="bond-13 atom-13 atom-14" d="M 277.0,82.4 L 263.7,73.3" style="fill:none;fill-rule:evenodd;stroke:#000000;stroke-width:2.0px;stroke-linecap:butt;stroke-linejoin:miter;stroke-opacity:1"/>
<path class="bond-13 atom-13 atom-14" d="M 277.2,79.6 L 265.1,71.3" style="fill:none;fill-rule:evenodd;stroke:#000000;stroke-width:2.0px;stroke-linecap:butt;stroke-linejoin:miter;stroke-opacity:1;stroke-dasharray:6,4"/>
<path class="bond-14 atom-14 atom-15" d="M 263.7,73.3 L 249.3,80.3" style="fill:none;fill-rule:evenodd;stroke:#000000;stroke-width:2.0px;stroke-linecap:butt;stroke-linejoin:miter;stroke-opacity:1"/>
<path class="bond-14 atom-14 atom-15" d="M 263.5,76.1 L 251.6,81.9" style="fill:none;fill-rule:evenodd;stroke:#000000;stroke-width:2.0px;stroke-linecap:butt;stroke-linejoin:miter;stroke-opacity:1;stroke-dasharray:6,4"/>
<path class="bond-15 atom-15 atom-16" d="M 250.5,79.7 L 236.7,70.3" style="fill:none;fill-rule:evenodd;stroke:#000000;stroke-width:2.0px;stroke-linecap:butt;stroke-linejoin:miter;stroke-opacity:1"/>
<path class="bond-15 atom-15 atom-16" d="M 249.2,81.7 L 235.3,72.3" style="fill:none;fill-rule:evenodd;stroke:#000000;stroke-width:2.0px;stroke-linecap:butt;stroke-linejoin:miter;stroke-opacity:1;stroke-dasharray:6,4"/>
<path class="bond-16 atom-15 atom-17" d="M 249.3,80.3 L 248.8,86.9" style="fill:none;fill-rule:evenodd;stroke:#000000;stroke-width:2.0px;stroke-linecap:butt;stroke-linejoin:miter;stroke-opacity:1"/>
<path class="bond-16 atom-15 atom-17" d="M 248.8,86.9 L 248.3,93.5" style="fill:none;fill-rule:evenodd;stroke:#FF0000;stroke-width:2.0px;stroke-linecap:butt;stroke-linejoin:miter;stroke-opacity:1"/>
<path d="M 347.5,63.0 L 348.1,63.4 L 348.1,64.2" style="fill:none;stroke:#000000;stroke-width:2.0px;stroke-linecap:butt;stroke-linejoin:miter;stroke-opacity:1;"/>
<path d="M 359.6,88.0 L 360.2,88.5 L 360.2,89.3" style="fill:none;stroke:#000000;stroke-width:2.0px;stroke-linecap:butt;stroke-linejoin:miter;stroke-opacity:1;"/>
<path d="M 331.4,101.7 L 331.3,102.5 L 330.6,102.8" style="fill:none;stroke:#000000;stroke-width:2.0px;stroke-linecap:butt;stroke-linejoin:miter;stroke-opacity:1;"/>
<path d="M 317.6,109.1 L 316.9,109.5 L 316.8,109.8" style="fill:none;stroke:#000000;stroke-width:2.0px;stroke-linecap:butt;stroke-linejoin:miter;stroke-opacity:1;"/>
<path d="M 305.1,84.3 L 304.8,84.4 L 304.1,84.0" style="fill:none;stroke:#000000;stroke-width:2.0px;stroke-linecap:butt;stroke-linejoin:miter;stroke-opacity:1;"/>
<path d="M 292.1,75.8 L 291.5,75.4 L 290.8,75.7" style="fill:none;stroke:#000000;stroke-width:2.0px;stroke-linecap:butt;stroke-linejoin:miter;stroke-opacity:1;"/>
<path d="M 277.7,82.0 L 277.0,82.4 L 276.4,81.9" style="fill:none;stroke:#000000;stroke-width:2.0px;stroke-linecap:butt;stroke-linejoin:miter;stroke-opacity:1;"/>
<path d="M 264.4,73.8 L 263.7,73.3 L 263.0,73.7" style="fill:none;stroke:#000000;stroke-width:2.0px;stroke-linecap:butt;stroke-linejoin:miter;stroke-opacity:1;"/>
<path class="atom-2" d="M 360.5 56.5 Q 360.5 55.4, 361.0 54.8 Q 361.6 54.2, 362.6 54.2 Q 363.6 54.2, 364.1 54.8 Q 364.7 55.4, 364.7 56.5 Q 364.7 57.6, 364.1 58.2 Q 363.6 58.8, 362.6 58.8 Q 361.6 58.8, 361.0 58.2 Q 360.5 57.6, 360.5 56.5 M 362.6 58.3 Q 363.3 58.3, 363.7 57.9 Q 364.0 57.4, 364.0 56.5 Q 364.0 55.6, 363.7 55.1 Q 363.3 54.7, 362.6 54.7 Q 361.9 54.7, 361.5 55.1 Q 361.2 55.6, 361.2 56.5 Q 361.2 57.4, 361.5 57.9 Q 361.9 58.3, 362.6 58.3 " fill="#FF0000"/>
<path class="atom-9" d="M 313.6 125.5 Q 313.6 124.4, 314.1 123.8 Q 314.7 123.2, 315.7 123.2 Q 316.7 123.2, 317.2 123.8 Q 317.8 124.4, 317.8 125.5 Q 317.8 126.6, 317.2 127.2 Q 316.7 127.8, 315.7 127.8 Q 314.7 127.8, 314.1 127.2 Q 313.6 126.6, 313.6 125.5 M 315.7 127.3 Q 316.4 127.3, 316.7 126.9 Q 317.1 126.4, 317.1 125.5 Q 317.1 124.6, 316.7 124.1 Q 316.4 123.7, 315.7 123.7 Q 315.0 123.7, 314.6 124.1 Q 314.2 124.6, 314.2 125.5 Q 314.2 126.4, 314.6 126.9 Q 315.0 127.3, 315.7 127.3 " fill="#FF0000"/>
<path class="atom-9" d="M 318.5 123.2 L 319.1 123.2 L 319.1 125.2 L 321.4 125.2 L 321.4 123.2 L 322.0 123.2 L 322.0 127.8 L 321.4 127.8 L 321.4 125.7 L 319.1 125.7 L 319.1 127.8 L 318.5 127.8 L 318.5 123.2 " fill="#FF0000"/>
<path class="atom-10" d="M 317.1 77.4 Q 317.1 76.3, 317.7 75.7 Q 318.2 75.1, 319.2 75.1 Q 320.2 75.1, 320.8 75.7 Q 321.3 76.3, 321.3 77.4 Q 321.3 78.5, 320.8 79.2 Q 320.2 79.8, 319.2 79.8 Q 318.2 79.8, 317.7 79.2 Q 317.1 78.5, 317.1 77.4 M 319.2 79.3 Q 319.9 79.3, 320.3 78.8 Q 320.7 78.3, 320.7 77.4 Q 320.7 76.5, 320.3 76.1 Q 319.9 75.6, 319.2 75.6 Q 318.5 75.6, 318.1 76.1 Q 317.8 76.5, 317.8 77.4 Q 317.8 78.4, 318.1 78.8 Q 318.5 79.3, 319.2 79.3 " fill="#FF0000"/>
<path class="atom-17" d="M 246.0 96.4 Q 246.0 95.3, 246.5 94.6 Q 247.1 94.0, 248.1 94.0 Q 249.1 94.0, 249.6 94.6 Q 250.2 95.3, 250.2 96.4 Q 250.2 97.5, 249.6 98.1 Q 249.1 98.7, 248.1 98.7 Q 247.1 98.7, 246.5 98.1 Q 246.0 97.5, 246.0 96.4 M 248.1 98.2 Q 248.8 98.2, 249.2 97.7 Q 249.5 97.3, 249.5 96.4 Q 249.5 95.5, 249.2 95.0 Q 248.8 94.6, 248.1 94.6 Q 247.4 94.6, 247.0 95.0 Q 246.6 95.5, 246.6 96.4 Q 246.6 97.3, 247.0 97.7 Q 247.4 98.2, 248.1 98.2 " fill="#FF0000"/>
<path class="atom-17" d="M 250.9 94.1 L 251.5 94.1 L 251.5 96.0 L 253.8 96.0 L 253.8 94.1 L 254.4 94.1 L 254.4 98.6 L 253.8 98.6 L 253.8 96.5 L 251.5 96.5 L 251.5 98.6 L 250.9 98.6 L 250.9 94.1 " fill="#FF0000"/>
<path class="legend" d="M 301.7 184.0 Q 302.7 184.4, 303.3 185.0 Q 303.8 185.7, 303.8 186.7 Q 303.8 188.2, 302.8 189.1 Q 301.8 190.0, 300.0 190.0 L 296.2 190.0 L 296.2 178.7 L 299.5 178.7 Q 301.4 178.7, 302.4 179.5 Q 303.4 180.2, 303.4 181.7 Q 303.4 183.4, 301.7 184.0 M 297.7 180.0 L 297.7 183.5 L 299.5 183.5 Q 300.6 183.5, 301.2 183.1 Q 301.8 182.6, 301.8 181.7 Q 301.8 180.0, 299.5 180.0 L 297.7 180.0 M 300.0 188.7 Q 301.1 188.7, 301.7 188.2 Q 302.2 187.7, 302.2 186.7 Q 302.2 185.7, 301.6 185.3 Q 301.0 184.8, 299.7 184.8 L 297.7 184.8 L 297.7 188.7 L 300.0 188.7 " fill="#000000"/>
<path class="bond-0 atom-0 atom-1" d="M 467.7,92.7 L 481.6,84.7" style="fill:none;fill-rule:evenodd;stroke:#000000;stroke-width:2.0px;stroke-linecap:butt;stroke-linejoin:miter;stroke-opacity:1"/>
<path class="bond-1 atom-1 atom-2" d="M 481.6,84.7 L 495.5,92.7" style="fill:none;fill-rule:evenodd;stroke:#000000;stroke-width:2.0px;stroke-linecap:butt;stroke-linejoin:miter;stroke-opacity:1"/>
<path class="bond-2 atom-2 atom-3" d="M 495.5,92.7 L 509.4,84.7" style="fill:none;fill-rule:evenodd;stroke:#000000;stroke-width:2.0px;stroke-linecap:butt;stroke-linejoin:miter;stroke-opacity:1"/>
<path class="bond-3 atom-3 atom-4" d="M 509.4,84.7 L 515.2,88.1" style="fill:none;fill-rule:evenodd;stroke:#000000;stroke-width:2.0px;stroke-linecap:butt;stroke-linejoin:miter;stroke-opacity:1"/>
<path class="bond-3 atom-3 atom-4" d="M 515.2,88.1 L 521.0,91.4" style="fill:none;fill-rule:evenodd;stroke:#0000FF;stroke-width:2.0px;stroke-linecap:butt;stroke-linejoin:miter;stroke-opacity:1"/>
<path d="M 480.9,85.1 L 481.6,84.7 L 482.3,85.1" style="fill:none;stroke:#000000;stroke-width:2.0px;stroke-linecap:butt;stroke-linejoin:miter;stroke-opacity:1;"/>
<path d="M 494.8,92.3 L 495.5,92.7 L 496.2,92.3" style="fill:none;stroke:#000000;stroke-width:2.0px;stroke-linecap:butt;stroke-linejoin:miter;stroke-opacity:1;"/>
<path d="M 508.7,85.1 L 509.4,84.7 L 509.7,84.9" style="fill:none;stroke:#000000;stroke-width:2.0px;stroke-linecap:butt;stroke-linejoin:miter;stroke-opacity:1;"/>
<path class="atom-4" d="M 522.3 90.5 L 523.8 92.9 Q 523.9 93.1, 524.2 93.5 Q 524.4 94.0, 524.4 94.0 L 524.4 90.5 L 525.0 90.5 L 525.0 95.0 L 524.4 95.0 L 522.8 92.4 Q 522.6 92.1, 522.4 91.7 Q 522.2 91.4, 522.2 91.3 L 522.2 95.0 L 521.6 95.0 L 521.6 90.5 L 522.3 90.5 " fill="#0000FF"/>
<path class="atom-4" d="M 525.9 90.5 L 526.5 90.5 L 526.5 92.4 L 528.8 92.4 L 528.8 90.5 L 529.4 90.5 L 529.4 95.0 L 528.8 95.0 L 528.8 92.9 L 526.5 92.9 L 526.5 95.0 L 525.9 95.0 L 525.9 90.5 " fill="#0000FF"/>
<path class="atom-4" d="M 530.3 94.9 Q 530.4 94.6, 530.7 94.4 Q 531.0 94.3, 531.3 94.3 Q 531.8 94.3, 532.0 94.5 Q 532.3 94.7, 532.3 95.2 Q 532.3 95.6, 532.0 96.0 Q 531.6 96.5, 531.0 96.9 L 532.3 96.9 L 532.3 97.3 L 530.3 97.3 L 530.3 97.0 Q 530.9 96.6, 531.2 96.3 Q 531.5 96.0, 531.7 95.7 Q 531.9 95.5, 531.9 95.2 Q 531.9 94.9, 531.7 94.8 Q 531.6 94.6, 531.3 94.6 Q 531.1 94.6, 530.9 94.7 Q 530.8 94.8, 530.7 95.0 L 530.3 94.9 " fill="#0000FF"/>
<path class="legend" d="M 495.6 184.2 Q 495.6 181.4, 496.9 179.9 Q 498.3 178.4, 500.8 178.4 Q 503.1 178.4, 504.4 180.0 L 503.3 180.9 Q 502.4 179.7, 500.8 179.7 Q 499.1 179.7, 498.2 180.9 Q 497.3 182.0, 497.3 184.2 Q 497.3 186.4, 498.2 187.6 Q 499.1 188.7, 501.0 188.7 Q 502.2 188.7, 503.7 188.0 L 504.1 189.2 Q 503.5 189.6, 502.6 189.8 Q 501.7 190.0, 500.7 190.0 Q 498.3 190.0, 496.9 188.5 Q 495.6 187.0, 495.6 184.2 " fill="#000000"/>
<path class="bond-0 atom-0 atom-1" d="M 756.1,95.5 L 744.1,106.2" style="fill:none;fill-rule:evenodd;stroke:#000000;stroke-width:2.0px;stroke-linecap:butt;stroke-linejoin:miter;stroke-opacity:1"/>
<path class="bond-1 atom-1 atom-2" d="M 744.1,106.2 L 728.9,101.1" style="fill:none;fill-rule:evenodd;stroke:#000000;stroke-width:2.0px;stroke-linecap:butt;stroke-linejoin:miter;stroke-opacity:1"/>
<path class="bond-2 atom-2 atom-3" d="M 728.9,101.1 L 716.9,111.8" style="fill:none;fill-rule:evenodd;stroke:#000000;stroke-width:2.0px;stroke-linecap:butt;stroke-linejoin:miter;stroke-opacity:1"/>
<path class="bond-3 atom-2 atom-4" d="M 728.9,101.1 L 725.6,85.4" style="fill:none;fill-rule:evenodd;stroke:#000000;stroke-width:2.0px;stroke-linecap:butt;stroke-linejoin:miter;stroke-opacity:1"/>
<path class="bond-4 atom-4 atom-5" d="M 725.6,85.4 L 719.1,83.2" style="fill:none;fill-rule:evenodd;stroke:#000000;stroke-width:2.0px;stroke-linecap:butt;stroke-linejoin:miter;stroke-opacity:1"/>
<path class="bond-4 atom-4 atom-5" d="M 719.1,83.2 L 712.6,81.1" style="fill:none;fill-rule:evenodd;stroke:#0000FF;stroke-width:2.0px;stroke-linecap:butt;stroke-linejoin:miter;stroke-opacity:1"/>
<path class="bond-5 atom-5 atom-6" d="M 709.8,77.5 L 708.5,71.1" style="fill:none;fill-rule:evenodd;stroke:#0000FF;stroke-width:2.0px;stroke-linecap:butt;stroke-linejoin:miter;stroke-opacity:1"/>
<path class="bond-5 atom-5 atom-6" d="M 708.5,71.1 L 707.2,64.6" style="fill:none;fill-rule:evenodd;stroke:#000000;stroke-width:2.0px;stroke-linecap:butt;stroke-linejoin:miter;stroke-opacity:1"/>
<path class="bond-6 atom-5 atom-7" d="M 708.1,82.3 L 703.3,86.7" style="fill:none;fill-rule:evenodd;stroke:#0000FF;stroke-width:2.0px;stroke-linecap:butt;stroke-linejoin:miter;stroke-opacity:1"/>
<path class="bond-6 atom-5 atom-7" d="M 703.3,86.7 L 698.4,91.0" style="fill:none;fill-rule:evenodd;stroke:#000000;stroke-width:2.0px;stroke-linecap:butt;stroke-linejoin:miter;stroke-opacity:1"/>
<path class="bond-7 atom-7 atom-8" d="M 698.4,91.0 L 701.6,106.7" style="fill:none;fill-rule:evenodd;stroke:#000000;stroke-width:2.0px;stroke-linecap:butt;stroke-linejoin:miter;stroke-opacity:1"/>
<path class="bond-8 atom-8 atom-9" d="M 701.6,106.7 L 689.6,117.4" style="fill:none;fill-rule:evenodd;stroke:#000000;stroke-width:2.0px;stroke-linecap:butt;stroke-linejoin:miter;stroke-opacity:1"/>
<path class="bond-8 atom-8 atom-9" d="M 699.0,105.9 L 688.0,115.6" style="fill:none;fill-rule:evenodd;stroke:#000000;stroke-width:2.0px;stroke-linecap:butt;stroke-linejoin:miter;stroke-opacity:1;stroke-dasharray:6,4"/>
<path class="bond-9 atom-7 atom-10" d="M 698.4,91.0 L 683.1,85.9" style="fill:none;fill-rule:evenodd;stroke:#000000;stroke-width:2.0px;stroke-linecap:butt;stroke-linejoin:miter;stroke-opacity:1"/>
<path class="bond-10 atom-10 atom-11" d="M 683.1,85.9 L 671.1,96.6" style="fill:none;fill-rule:evenodd;stroke:#000000;stroke-width:2.0px;stroke-linecap:butt;stroke-linejoin:miter;stroke-opacity:1"/>
<path class="bond-11 atom-11 atom-12" d="M 671.1,96.6 L 655.9,91.5" style="fill:none;fill-rule:evenodd;stroke:#000000;stroke-width:2.0px;stroke-linecap:butt;stroke-linejoin:miter;stroke-opacity:1"/>
<path class="bond-12 atom-12 atom-13" d="M 655.9,91.5 L 643.9,102.2" style="fill:none;fill-rule:evenodd;stroke:#000000;stroke-width:2.0px;stroke-linecap:butt;stroke-linejoin:miter;stroke-opacity:1"/>
<path d="M 744.7,105.7 L 744.1,106.2 L 743.3,105.9" style="fill:none;stroke:#000000;stroke-width:2.0px;stroke-linecap:butt;stroke-linejoin:miter;stroke-opacity:1;"/>
<path d="M 725.8,86.2 L 725.6,85.4 L 725.3,85.3" style="fill:none;stroke:#000000;stroke-width:2.0px;stroke-linecap:butt;stroke-linejoin:miter;stroke-opacity:1;"/>
<path d="M 701.5,105.9 L 701.6,106.7 L 701.0,107.3" style="fill:none;stroke:#000000;stroke-width:2.0px;stroke-linecap:butt;stroke-linejoin:miter;stroke-opacity:1;"/>
<path d="M 683.9,86.2 L 683.1,85.9 L 682.5,86.5" style="fill:none;stroke:#000000;stroke-width:2.0px;stroke-linecap:butt;stroke-linejoin:miter;stroke-opacity:1;"/>
<path d="M 671.7,96.1 L 671.1,96.6 L 670.4,96.3" style="fill:none;stroke:#000000;stroke-width:2.0px;stroke-linecap:butt;stroke-linejoin:miter;stroke-opacity:1;"/>
<path d="M 656.7,91.8 L 655.9,91.5 L 655.3,92.1" style="fill:none;stroke:#000000;stroke-width:2.0px;stroke-linecap:butt;stroke-linejoin:miter;stroke-opacity:1;"/>
<path class="atom-5" d="M 709.4 78.1 L 710.9 80.5 Q 711.0 80.7, 711.3 81.1 Q 711.5 81.6, 711.5 81.6 L 711.5 78.1 L 712.1 78.1 L 712.1 82.6 L 711.5 82.6 L 709.9 80.0 Q 709.7 79.7, 709.5 79.3 Q 709.3 79.0, 709.3 78.8 L 709.3 82.6 L 708.7 82.6 L 708.7 78.1 L 709.4 78.1 " fill="#0000FF"/>
<path class="legend" d="M 699.2 178.7 Q 701.7 178.7, 703.1 180.2 Q 704.4 181.6, 704.4 184.3 Q 704.4 187.0, 703.1 188.5 Q 701.7 190.0, 699.2 190.0 L 695.6 190.0 L 695.6 178.7 L 699.2 178.7 M 699.2 188.7 Q 701.0 188.7, 701.9 187.6 Q 702.8 186.5, 702.8 184.3 Q 702.8 182.1, 701.9 181.0 Q 701.0 180.0, 699.2 180.0 L 697.1 180.0 L 697.1 188.7 L 699.2 188.7 " fill="#000000"/>
<path class="bond-0 atom-0 atom-1" d="M 31.4,283.0 L 47.3,280.3" style="fill:none;fill-rule:evenodd;stroke:#000000;stroke-width:2.0px;stroke-linecap:butt;stroke-linejoin:miter;stroke-opacity:1"/>
<path class="bond-1 atom-1 atom-2" d="M 47.3,280.3 L 52.8,265.2" style="fill:none;fill-rule:evenodd;stroke:#000000;stroke-width:2.0px;stroke-linecap:butt;stroke-linejoin:miter;stroke-opacity:1"/>
<path class="bond-2 atom-1 atom-3" d="M 47.3,280.3 L 57.5,292.6" style="fill:none;fill-rule:evenodd;stroke:#000000;stroke-width:2.0px;stroke-linecap:butt;stroke-linejoin:miter;stroke-opacity:1"/>
<path class="bond-3 atom-3 atom-4" d="M 57.5,292.6 L 53.5,308.2" style="fill:none;fill-rule:evenodd;stroke:#000000;stroke-width:2.0px;stroke-linecap:butt;stroke-linejoin:miter;stroke-opacity:1"/>
<path class="bond-4 atom-4 atom-5" d="M 53.5,308.2 L 67.1,316.8" style="fill:none;fill-rule:evenodd;stroke:#000000;stroke-width:2.0px;stroke-linecap:butt;stroke-linejoin:miter;stroke-opacity:1"/>
<path class="bond-5 atom-5 atom-6" d="M 67.1,316.8 L 79.5,306.5" style="fill:none;fill-rule:evenodd;stroke:#000000;stroke-width:2.0px;stroke-linecap:butt;stroke-linejoin:miter;stroke-opacity:1"/>
<path class="bond-6 atom-6 atom-7" d="M 79.5,306.5 L 95.4,308.9" style="fill:none;fill-rule:evenodd;stroke:#000000;stroke-width:2.0px;stroke-linecap:butt;stroke-linejoin:miter;stroke-opacity:1"/>
<path class="bond-7 atom-7 atom-8" d="M 95.4,308.9 L 105.3,296.3" style="fill:none;fill-rule:evenodd;stroke:#000000;stroke-width:2.0px;stroke-linecap:butt;stroke-linejoin:miter;stroke-opacity:1"/>
<path class="bond-8 atom-8 atom-9" d="M 105.3,296.3 L 121.2,298.6" style="fill:none;fill-rule:evenodd;stroke:#000000;stroke-width:2.0px;stroke-linecap:butt;stroke-linejoin:miter;stroke-opacity:1"/>
<path class="bond-9 atom-9 atom-10" d="M 121.2,298.6 L 116.2,313.8" style="fill:none;fill-rule:evenodd;stroke:#000000;stroke-width:2.0px;stroke-linecap:butt;stroke-linejoin:miter;stroke-opacity:1"/>
<path class="bond-10 atom-9 atom-11" d="M 121.2,298.6 L 120.7,282.5" style="fill:none;fill-rule:evenodd;stroke:#000000;stroke-width:2.0px;stroke-linecap:butt;stroke-linejoin:miter;stroke-opacity:1"/>
<path class="bond-11 atom-11 atom-12" d="M 120.7,282.5 L 134.4,274.1" style="fill:none;fill-rule:evenodd;stroke:#000000;stroke-width:2.0px;stroke-linecap:butt;stroke-linejoin:miter;stroke-opacity:1"/>
<path class="bond-12 atom-12 atom-13" d="M 134.4,274.1 L 148.5,281.7" style="fill:none;fill-rule:evenodd;stroke:#000000;stroke-width:2.0px;stroke-linecap:butt;stroke-linejoin:miter;stroke-opacity:1"/>
<path class="bond-13 atom-13 atom-14" d="M 148.5,281.7 L 154.1,278.3" style="fill:none;fill-rule:evenodd;stroke:#000000;stroke-width:2.0px;stroke-linecap:butt;stroke-linejoin:miter;stroke-opacity:1"/>
<path class="bond-13 atom-13 atom-14" d="M 154.1,278.3 L 159.6,274.9" style="fill:none;fill-rule:evenodd;stroke:#FF0000;stroke-width:2.0px;stroke-linecap:butt;stroke-linejoin:miter;stroke-opacity:1"/>
<path class="bond-14 atom-13 atom-15" d="M 148.5,281.7 L 149.0,297.8" style="fill:none;fill-rule:evenodd;stroke:#000000;stroke-width:2.0px;stroke-linecap:butt;stroke-linejoin:miter;stroke-opacity:1"/>
<path class="bond-15 atom-15 atom-16" d="M 149.0,297.8 L 135.3,306.2" style="fill:none;fill-rule:evenodd;stroke:#000000;stroke-width:2.0px;stroke-linecap:butt;stroke-linejoin:miter;stroke-opacity:1"/>
<path class="bond-16 atom-8 atom-17" d="M 105.3,296.3 L 99.4,281.3" style="fill:none;fill-rule:evenodd;stroke:#000000;stroke-width:2.0px;stroke-linecap:butt;stroke-linejoin:miter;stroke-opacity:1"/>
<path class="bond-17 atom-17 atom-18" d="M 99.4,281.3 L 83.5,279.0" style="fill:none;fill-rule:evenodd;stroke:#000000;stroke-width:2.0px;stroke-linecap:butt;stroke-linejoin:miter;stroke-opacity:1"/>
<path class="bond-18 atom-18 atom-19" d="M 83.5,279.0 L 73.5,291.6" style="fill:none;fill-rule:evenodd;stroke:#000000;stroke-width:2.0px;stroke-linecap:butt;stroke-linejoin:miter;stroke-opacity:1"/>
<path class="bond-19 atom-19 atom-20" d="M 73.5,291.6 L 66.1,277.4" style="fill:none;fill-rule:evenodd;stroke:#000000;stroke-width:2.0px;stroke-linecap:butt;stroke-linejoin:miter;stroke-opacity:1"/>
<path class="bond-20 atom-19 atom-3" d="M 73.5,291.6 L 57.5,292.6" style="fill:none;fill-rule:evenodd;stroke:#000000;stroke-width:2.0px;stroke-linecap:butt;stroke-linejoin:miter;stroke-opacity:1"/>
<path class="bond-21 atom-19 atom-6" d="M 73.5,291.6 L 79.5,306.5" style="fill:none;fill-rule:evenodd;stroke:#000000;stroke-width:2.0px;stroke-linecap:butt;stroke-linejoin:miter;stroke-opacity:1"/>
<path class="bond-22 atom-16 atom-9" d="M 135.3,306.2 L 121.2,298.6" style="fill:none;fill-rule:evenodd;stroke:#000000;stroke-width:2.0px;stroke-linecap:butt;stroke-linejoin:miter;stroke-opacity:1"/>
<path d="M 53.7,307.4 L 53.5,308.2 L 54.2,308.6" style="fill:none;stroke:#000000;stroke-width:2.0px;stroke-linecap:butt;stroke-linejoin:miter;stroke-opacity:1;"/>
<path d="M 66.4,316.4 L 67.1,316.8 L 67.7,316.3" style="fill:none;stroke:#000000;stroke-width:2.0px;stroke-linecap:butt;stroke-linejoin:miter;stroke-opacity:1;"/>
<path d="M 94.6,308.7 L 95.4,308.9 L 95.9,308.2" style="fill:none;stroke:#000000;stroke-width:2.0px;stroke-linecap:butt;stroke-linejoin:miter;stroke-opacity:1;"/>
<path d="M 120.8,283.3 L 120.7,282.5 L 121.4,282.1" style="fill:none;stroke:#000000;stroke-width:2.0px;stroke-linecap:butt;stroke-linejoin:miter;stroke-opacity:1;"/>
<path d="M 133.7,274.5 L 134.4,274.1 L 135.1,274.5" style="fill:none;stroke:#000000;stroke-width:2.0px;stroke-linecap:butt;stroke-linejoin:miter;stroke-opacity:1;"/>
<path d="M 149.0,297.0 L 149.0,297.8 L 148.3,298.2" style="fill:none;stroke:#000000;stroke-width:2.0px;stroke-linecap:butt;stroke-linejoin:miter;stroke-opacity:1;"/>
<path d="M 136.0,305.8 L 135.3,306.2 L 134.6,305.8" style="fill:none;stroke:#000000;stroke-width:2.0px;stroke-linecap:butt;stroke-linejoin:miter;stroke-opacity:1;"/>
<path d="M 99.7,282.1 L 99.4,281.3 L 98.6,281.2" style="fill:none;stroke:#000000;stroke-width:2.0px;stroke-linecap:butt;stroke-linejoin:miter;stroke-opacity:1;"/>
<path d="M 84.3,279.1 L 83.5,279.0 L 83.0,279.6" style="fill:none;stroke:#000000;stroke-width:2.0px;stroke-linecap:butt;stroke-linejoin:miter;stroke-opacity:1;"/>
<path class="atom-14" d="M 160.1 273.3 Q 160.1 272.2, 160.7 271.6 Q 161.2 271.0, 162.2 271.0 Q 163.2 271.0, 163.8 271.6 Q 164.3 272.2, 164.3 273.3 Q 164.3 274.4, 163.8 275.0 Q 163.2 275.7, 162.2 275.7 Q 161.2 275.7, 160.7 275.0 Q 160.1 274.4, 160.1 273.3 M 162.2 275.1 Q 162.9 275.1, 163.3 274.7 Q 163.7 274.2, 163.7 273.3 Q 163.7 272.4, 163.3 272.0 Q 162.9 271.5, 162.2 271.5 Q 161.5 271.5, 161.1 271.9 Q 160.8 272.4, 160.8 273.3 Q 160.8 274.2, 161.1 274.7 Q 161.5 275.1, 162.2 275.1 " fill="#FF0000"/>
<path class="atom-14" d="M 165.0 271.0 L 165.6 271.0 L 165.6 273.0 L 168.0 273.0 L 168.0 271.0 L 168.6 271.0 L 168.6 275.6 L 168.0 275.6 L 168.0 273.5 L 165.6 273.5 L 165.6 275.6 L 165.0 275.6 L 165.0 271.0 " fill="#FF0000"/>
<path class="legend" d="M 96.5 378.7 L 103.3 378.7 L 103.3 380.0 L 98.1 380.0 L 98.1 383.4 L 102.8 383.4 L 102.8 384.7 L 98.1 384.7 L 98.1 388.7 L 103.5 388.7 L 103.5 390.0 L 96.5 390.0 L 96.5 378.7 " fill="#000000"/>
<path class="bond-0 atom-0 atom-1" d="M 390.0,279.0 L 385.1,283.0" style="fill:none;fill-rule:evenodd;stroke:#000000;stroke-width:2.0px;stroke-linecap:butt;stroke-linejoin:miter;stroke-opacity:1"/>
<path class="bond-0 atom-0 atom-1" d="M 385.1,283.0 L 380.3,287.1" style="fill:none;fill-rule:evenodd;stroke:#FF0000;stroke-width:2.0px;stroke-linecap:butt;stroke-linejoin:miter;stroke-opacity:1"/>
<path class="bond-0 atom-0 atom-1" d="M 388.5,277.1 L 383.6,281.2" style="fill:none;fill-rule:evenodd;stroke:#000000;stroke-width:2.0px;stroke-linecap:butt;stroke-linejoin:miter;stroke-opacity:1;stroke-dasharray:6,4"/>
<path class="bond-0 atom-0 atom-1" d="M 383.6,281.2 L 378.7,285.2" style="fill:none;fill-rule:evenodd;stroke:#FF0000;stroke-width:2.0px;stroke-linecap:butt;stroke-linejoin:miter;stroke-opacity:1;stroke-dasharray:6,4"/>
<path class="bond-1 atom-1 atom-2" d="M 374.3,287.4 L 368.0,285.1" style="fill:none;fill-rule:evenodd;stroke:#FF0000;stroke-width:2.0px;stroke-linecap:butt;stroke-linejoin:miter;stroke-opacity:1"/>
<path class="bond-1 atom-1 atom-2" d="M 368.0,285.1 L 361.8,282.8" style="fill:none;fill-rule:evenodd;stroke:#000000;stroke-width:2.0px;stroke-linecap:butt;stroke-linejoin:miter;stroke-opacity:1"/>
<path class="bond-1 atom-1 atom-2" d="M 375.1,285.1 L 368.9,282.8" style="fill:none;fill-rule:evenodd;stroke:#FF0000;stroke-width:2.0px;stroke-linecap:butt;stroke-linejoin:miter;stroke-opacity:1;stroke-dasharray:6,4"/>
<path class="bond-1 atom-1 atom-2" d="M 368.9,282.8 L 362.6,280.5" style="fill:none;fill-rule:evenodd;stroke:#000000;stroke-width:2.0px;stroke-linecap:butt;stroke-linejoin:miter;stroke-opacity:1;stroke-dasharray:6,4"/>
<path class="bond-2 atom-2 atom-3" d="M 361.8,282.8 L 349.5,293.1" style="fill:none;fill-rule:evenodd;stroke:#000000;stroke-width:2.0px;stroke-linecap:butt;stroke-linejoin:miter;stroke-opacity:1"/>
<path class="bond-2 atom-2 atom-3" d="M 362.3,285.5 L 351.0,294.9" style="fill:none;fill-rule:evenodd;stroke:#000000;stroke-width:2.0px;stroke-linecap:butt;stroke-linejoin:miter;stroke-opacity:1;stroke-dasharray:6,4"/>
<path class="bond-3 atom-3 atom-4" d="M 349.5,293.1 L 334.4,287.5" style="fill:none;fill-rule:evenodd;stroke:#000000;stroke-width:2.0px;stroke-linecap:butt;stroke-linejoin:miter;stroke-opacity:1"/>
<path class="bond-3 atom-3 atom-4" d="M 349.0,290.3 L 335.2,285.2" style="fill:none;fill-rule:evenodd;stroke:#000000;stroke-width:2.0px;stroke-linecap:butt;stroke-linejoin:miter;stroke-opacity:1;stroke-dasharray:6,4"/>
<path class="bond-4 atom-4 atom-5" d="M 334.4,287.5 L 322.1,297.8" style="fill:none;fill-rule:evenodd;stroke:#000000;stroke-width:2.0px;stroke-linecap:butt;stroke-linejoin:miter;stroke-opacity:1"/>
<path class="bond-4 atom-4 atom-5" d="M 334.9,290.2 L 324.7,298.7" style="fill:none;fill-rule:evenodd;stroke:#000000;stroke-width:2.0px;stroke-linecap:butt;stroke-linejoin:miter;stroke-opacity:1;stroke-dasharray:6,4"/>
<path class="bond-5 atom-5 atom-6" d="M 322.1,297.8 L 323.2,304.3" style="fill:none;fill-rule:evenodd;stroke:#000000;stroke-width:2.0px;stroke-linecap:butt;stroke-linejoin:miter;stroke-opacity:1"/>
<path class="bond-5 atom-5 atom-6" d="M 323.2,304.3 L 324.3,310.8" style="fill:none;fill-rule:evenodd;stroke:#FF0000;stroke-width:2.0px;stroke-linecap:butt;stroke-linejoin:miter;stroke-opacity:1"/>
<path class="bond-6 atom-5 atom-7" d="M 322.1,297.8 L 307.0,292.2" style="fill:none;fill-rule:evenodd;stroke:#000000;stroke-width:2.0px;stroke-linecap:butt;stroke-linejoin:miter;stroke-opacity:1"/>
<path class="bond-6 atom-5 atom-7" d="M 321.6,295.0 L 309.1,290.4" style="fill:none;fill-rule:evenodd;stroke:#000000;stroke-width:2.0px;stroke-linecap:butt;stroke-linejoin:miter;stroke-opacity:1;stroke-dasharray:6,4"/>
<path class="bond-7 atom-7 atom-8" d="M 307.0,292.2 L 305.9,285.8" style="fill:none;fill-rule:evenodd;stroke:#000000;stroke-width:2.0px;stroke-linecap:butt;stroke-linejoin:miter;stroke-opacity:1"/>
<path class="bond-7 atom-7 atom-8" d="M 305.9,285.8 L 304.8,279.3" style="fill:none;fill-rule:evenodd;stroke:#FF0000;stroke-width:2.0px;stroke-linecap:butt;stroke-linejoin:miter;stroke-opacity:1"/>
<path class="bond-8 atom-7 atom-9" d="M 307.0,292.2 L 294.6,302.5" style="fill:none;fill-rule:evenodd;stroke:#000000;stroke-width:2.0px;stroke-linecap:butt;stroke-linejoin:miter;stroke-opacity:1"/>
<path class="bond-8 atom-7 atom-9" d="M 304.4,291.3 L 294.2,299.8" style="fill:none;fill-rule:evenodd;stroke:#000000;stroke-width:2.0px;stroke-linecap:butt;stroke-linejoin:miter;stroke-opacity:1;stroke-dasharray:6,4"/>
<path class="bond-9 atom-9 atom-10" d="M 294.6,302.5 L 288.4,300.2" style="fill:none;fill-rule:evenodd;stroke:#000000;stroke-width:2.0px;stroke-linecap:butt;stroke-linejoin:miter;stroke-opacity:1"/>
<path class="bond-9 atom-9 atom-10" d="M 288.4,300.2 L 282.2,297.9" style="fill:none;fill-rule:evenodd;stroke:#FF0000;stroke-width:2.0px;stroke-linecap:butt;stroke-linejoin:miter;stroke-opacity:1"/>
<path class="bond-9 atom-9 atom-10" d="M 294.2,299.8 L 288.6,297.7" style="fill:none;fill-rule:evenodd;stroke:#000000;stroke-width:2.0px;stroke-linecap:butt;stroke-linejoin:miter;stroke-opacity:1;stroke-dasharray:6,4"/>
<path class="bond-9 atom-9 atom-10" d="M 288.6,297.7 L 283.0,295.6" style="fill:none;fill-rule:evenodd;stroke:#FF0000;stroke-width:2.0px;stroke-linecap:butt;stroke-linejoin:miter;stroke-opacity:1;stroke-dasharray:6,4"/>
<path class="bond-10 atom-10 atom-11" d="M 277.0,299.1 L 272.1,303.2" style="fill:none;fill-rule:evenodd;stroke:#FF0000;stroke-width:2.0px;stroke-linecap:butt;stroke-linejoin:miter;stroke-opacity:1"/>
<path class="bond-10 atom-10 atom-11" d="M 272.1,303.2 L 267.2,307.2" style="fill:none;fill-rule:evenodd;stroke:#000000;stroke-width:2.0px;stroke-linecap:butt;stroke-linejoin:miter;stroke-opacity:1"/>
<path class="bond-10 atom-10 atom-11" d="M 278.5,301.0 L 274.2,304.6" style="fill:none;fill-rule:evenodd;stroke:#FF0000;stroke-width:2.0px;stroke-linecap:butt;stroke-linejoin:miter;stroke-opacity:1;stroke-dasharray:6,4"/>
<path class="bond-10 atom-10 atom-11" d="M 274.2,304.6 L 269.8,308.2" style="fill:none;fill-rule:evenodd;stroke:#000000;stroke-width:2.0px;stroke-linecap:butt;stroke-linejoin:miter;stroke-opacity:1;stroke-dasharray:6,4"/>
<path class="bond-11 atom-11 atom-12" d="M 265.9,306.7 L 267.1,313.6" style="fill:none;fill-rule:evenodd;stroke:#000000;stroke-width:2.0px;stroke-linecap:butt;stroke-linejoin:miter;stroke-opacity:1"/>
<path class="bond-11 atom-11 atom-12" d="M 267.1,313.6 L 268.3,320.4" style="fill:none;fill-rule:evenodd;stroke:#FF0000;stroke-width:2.0px;stroke-linecap:butt;stroke-linejoin:miter;stroke-opacity:1"/>
<path class="bond-11 atom-11 atom-12" d="M 268.3,306.3 L 269.5,313.2" style="fill:none;fill-rule:evenodd;stroke:#000000;stroke-width:2.0px;stroke-linecap:butt;stroke-linejoin:miter;stroke-opacity:1"/>
<path class="bond-11 atom-11 atom-12" d="M 269.5,313.2 L 270.7,320.0" style="fill:none;fill-rule:evenodd;stroke:#FF0000;stroke-width:2.0px;stroke-linecap:butt;stroke-linejoin:miter;stroke-opacity:1"/>
<path class="bond-12 atom-11 atom-13" d="M 267.2,307.2 L 252.2,301.7" style="fill:none;fill-rule:evenodd;stroke:#000000;stroke-width:2.0px;stroke-linecap:butt;stroke-linejoin:miter;stroke-opacity:1"/>
<path class="bond-12 atom-11 atom-13" d="M 266.8,304.5 L 254.3,299.9" style="fill:none;fill-rule:evenodd;stroke:#000000;stroke-width:2.0px;stroke-linecap:butt;stroke-linejoin:miter;stroke-opacity:1;stroke-dasharray:6,4"/>
<path class="bond-13 atom-13 atom-14" d="M 252.2,301.7 L 239.8,311.9" style="fill:none;fill-rule:evenodd;stroke:#000000;stroke-width:2.0px;stroke-linecap:butt;stroke-linejoin:miter;stroke-opacity:1"/>
<path class="bond-13 atom-13 atom-14" d="M 249.6,300.7 L 239.3,309.2" style="fill:none;fill-rule:evenodd;stroke:#000000;stroke-width:2.0px;stroke-linecap:butt;stroke-linejoin:miter;stroke-opacity:1;stroke-dasharray:6,4"/>
<path class="bond-14 atom-14 atom-15" d="M 239.8,311.9 L 224.7,306.4" style="fill:none;fill-rule:evenodd;stroke:#000000;stroke-width:2.0px;stroke-linecap:butt;stroke-linejoin:miter;stroke-opacity:1"/>
<path class="bond-14 atom-14 atom-15" d="M 239.3,309.2 L 225.6,304.1" style="fill:none;fill-rule:evenodd;stroke:#000000;stroke-width:2.0px;stroke-linecap:butt;stroke-linejoin:miter;stroke-opacity:1;stroke-dasharray:6,4"/>
<path class="bond-15 atom-13 atom-16" d="M 252.2,301.7 L 249.4,285.8" style="fill:none;fill-rule:evenodd;stroke:#000000;stroke-width:2.0px;stroke-linecap:butt;stroke-linejoin:miter;stroke-opacity:1"/>
<path class="bond-15 atom-13 atom-16" d="M 249.6,300.7 L 247.3,287.6" style="fill:none;fill-rule:evenodd;stroke:#000000;stroke-width:2.0px;stroke-linecap:butt;stroke-linejoin:miter;stroke-opacity:1;stroke-dasharray:6,4"/>
<path class="bond-16 atom-16 atom-17" d="M 249.4,285.8 L 234.4,280.3" style="fill:none;fill-rule:evenodd;stroke:#000000;stroke-width:2.0px;stroke-linecap:butt;stroke-linejoin:miter;stroke-opacity:1"/>
<path class="bond-16 atom-16 atom-17" d="M 247.3,287.6 L 234.8,283.0" style="fill:none;fill-rule:evenodd;stroke:#000000;stroke-width:2.0px;stroke-linecap:butt;stroke-linejoin:miter;stroke-opacity:1;stroke-dasharray:6,4"/>
<path class="bond-17 atom-17 atom-18" d="M 234.4,280.3 L 229.5,284.3" style="fill:none;fill-rule:evenodd;stroke:#000000;stroke-width:2.0px;stroke-linecap:butt;stroke-linejoin:miter;stroke-opacity:1"/>
<path class="bond-17 atom-17 atom-18" d="M 229.5,284.3 L 224.6,288.4" style="fill:none;fill-rule:evenodd;stroke:#FF0000;stroke-width:2.0px;stroke-linecap:butt;stroke-linejoin:miter;stroke-opacity:1"/>
<path class="bond-18 atom-17 atom-19" d="M 234.4,280.3 L 231.6,264.4" style="fill:none;fill-rule:evenodd;stroke:#000000;stroke-width:2.0px;stroke-linecap:butt;stroke-linejoin:miter;stroke-opacity:1"/>
<path class="bond-18 atom-17 atom-19" d="M 231.8,279.3 L 229.5,266.2" style="fill:none;fill-rule:evenodd;stroke:#000000;stroke-width:2.0px;stroke-linecap:butt;stroke-linejoin:miter;stroke-opacity:1;stroke-dasharray:6,4"/>
<path class="bond-19 atom-19 atom-20" d="M 231.6,264.4 L 225.4,262.2" style="fill:none;fill-rule:evenodd;stroke:#000000;stroke-width:2.0px;stroke-linecap:butt;stroke-linejoin:miter;stroke-opacity:1"/>
<path class="bond-19 atom-19 atom-20" d="M 225.4,262.2 L 219.2,259.9" style="fill:none;fill-rule:evenodd;stroke:#FF0000;stroke-width:2.0px;stroke-linecap:butt;stroke-linejoin:miter;stroke-opacity:1"/>
<path d="M 362.1,282.9 L 361.8,282.8 L 361.2,283.3" style="fill:none;stroke:#000000;stroke-width:2.0px;stroke-linecap:butt;stroke-linejoin:miter;stroke-opacity:1;"/>
<path d="M 350.1,292.5 L 349.5,293.1 L 348.7,292.8" style="fill:none;stroke:#000000;stroke-width:2.0px;stroke-linecap:butt;stroke-linejoin:miter;stroke-opacity:1;"/>
<path d="M 335.2,287.8 L 334.4,287.5 L 333.8,288.0" style="fill:none;stroke:#000000;stroke-width:2.0px;stroke-linecap:butt;stroke-linejoin:miter;stroke-opacity:1;"/>
<path d="M 295.3,302.0 L 294.6,302.5 L 294.3,302.4" style="fill:none;stroke:#000000;stroke-width:2.0px;stroke-linecap:butt;stroke-linejoin:miter;stroke-opacity:1;"/>
<path d="M 267.5,307.0 L 267.2,307.2 L 266.5,306.9" style="fill:none;stroke:#000000;stroke-width:2.0px;stroke-linecap:butt;stroke-linejoin:miter;stroke-opacity:1;"/>
<path d="M 240.4,311.4 L 239.8,311.9 L 239.1,311.7" style="fill:none;stroke:#000000;stroke-width:2.0px;stroke-linecap:butt;stroke-linejoin:miter;stroke-opacity:1;"/>
<path d="M 249.6,286.6 L 249.4,285.8 L 248.7,285.6" style="fill:none;stroke:#000000;stroke-width:2.0px;stroke-linecap:butt;stroke-linejoin:miter;stroke-opacity:1;"/>
<path d="M 231.8,265.2 L 231.6,264.4 L 231.3,264.3" style="fill:none;stroke:#000000;stroke-width:2.0px;stroke-linecap:butt;stroke-linejoin:miter;stroke-opacity:1;"/>
<path class="atom-1" d="M 374.8 288.4 Q 374.8 287.3, 375.3 286.7 Q 375.9 286.0, 376.9 286.0 Q 377.9 286.0, 378.4 286.7 Q 379.0 287.3, 379.0 288.4 Q 379.0 289.5, 378.4 290.1 Q 377.9 290.7, 376.9 290.7 Q 375.9 290.7, 375.3 290.1 Q 374.8 289.5, 374.8 288.4 M 376.9 290.2 Q 377.6 290.2, 378.0 289.7 Q 378.3 289.3, 378.3 288.4 Q 378.3 287.5, 378.0 287.0 Q 377.6 286.6, 376.9 286.6 Q 376.2 286.6, 375.8 287.0 Q 375.4 287.5, 375.4 288.4 Q 375.4 289.3, 375.8 289.7 Q 376.2 290.2, 376.9 290.2 " fill="#FF0000"/>
<path class="atom-6" d="M 322.7 313.6 Q 322.7 312.5, 323.2 311.9 Q 323.8 311.3, 324.8 311.3 Q 325.8 311.3, 326.3 311.9 Q 326.9 312.5, 326.9 313.6 Q 326.9 314.7, 326.3 315.4 Q 325.8 316.0, 324.8 316.0 Q 323.8 316.0, 323.2 315.4 Q 322.7 314.7, 322.7 313.6 M 324.8 315.5 Q 325.5 315.5, 325.8 315.0 Q 326.2 314.5, 326.2 313.6 Q 326.2 312.7, 325.8 312.3 Q 325.5 311.8, 324.8 311.8 Q 324.1 311.8, 323.7 312.3 Q 323.3 312.7, 323.3 313.6 Q 323.3 314.5, 323.7 315.0 Q 324.1 315.5, 324.8 315.5 " fill="#FF0000"/>
<path class="atom-6" d="M 327.6 311.4 L 328.2 311.4 L 328.2 313.3 L 330.5 313.3 L 330.5 311.4 L 331.1 311.4 L 331.1 315.9 L 330.5 315.9 L 330.5 313.8 L 328.2 313.8 L 328.2 315.9 L 327.6 315.9 L 327.6 311.4 " fill="#FF0000"/>
<path class="atom-8" d="M 302.2 276.4 Q 302.2 275.3, 302.7 274.7 Q 303.3 274.1, 304.3 274.1 Q 305.3 274.1, 305.8 274.7 Q 306.4 275.3, 306.4 276.4 Q 306.4 277.5, 305.8 278.1 Q 305.3 278.8, 304.3 278.8 Q 303.3 278.8, 302.7 278.1 Q 302.2 277.5, 302.2 276.4 M 304.3 278.3 Q 305.0 278.3, 305.3 277.8 Q 305.7 277.3, 305.7 276.4 Q 305.7 275.5, 305.3 275.1 Q 305.0 274.6, 304.3 274.6 Q 303.6 274.6, 303.2 275.1 Q 302.8 275.5, 302.8 276.4 Q 302.8 277.3, 303.2 277.8 Q 303.6 278.3, 304.3 278.3 " fill="#FF0000"/>
<path class="atom-8" d="M 307.1 274.1 L 307.7 274.1 L 307.7 276.1 L 310.0 276.1 L 310.0 274.1 L 310.6 274.1 L 310.6 278.7 L 310.0 278.7 L 310.0 276.6 L 307.7 276.6 L 307.7 278.7 L 307.1 278.7 L 307.1 274.1 " fill="#FF0000"/>
<path class="atom-10" d="M 277.5 297.0 Q 277.5 295.9, 278.0 295.3 Q 278.6 294.6, 279.6 294.6 Q 280.6 294.6, 281.1 295.3 Q 281.7 295.9, 281.7 297.0 Q 281.7 298.1, 281.1 298.7 Q 280.6 299.3, 279.6 299.3 Q 278.6 299.3, 278.0 298.7 Q 277.5 298.1, 277.5 297.0 M 279.6 298.8 Q 280.3 298.8, 280.6 298.3 Q 281.0 297.9, 281.0 297.0 Q 281.0 296.1, 280.6 295.6 Q 280.3 295.2, 279.6 295.2 Q 278.9 295.2, 278.5 295.6 Q 278.1 296.1, 278.1 297.0 Q 278.1 297.9, 278.5 298.3 Q 278.9 298.8, 279.6 298.8 " fill="#FF0000"/>
<path class="atom-12" d="M 267.9 323.1 Q 267.9 322.0, 268.4 321.3 Q 268.9 320.7, 270.0 320.7 Q 271.0 320.7, 271.5 321.3 Q 272.0 322.0, 272.0 323.1 Q 272.0 324.2, 271.5 324.8 Q 270.9 325.4, 270.0 325.4 Q 269.0 325.4, 268.4 324.8 Q 267.9 324.2, 267.9 323.1 M 270.0 324.9 Q 270.6 324.9, 271.0 324.4 Q 271.4 324.0, 271.4 323.1 Q 271.4 322.2, 271.0 321.7 Q 270.6 321.3, 270.0 321.3 Q 269.3 321.3, 268.9 321.7 Q 268.5 322.2, 268.5 323.1 Q 268.5 324.0, 268.9 324.4 Q 269.3 324.9, 270.0 324.9 " fill="#FF0000"/>
<path class="atom-18" d="M 215.4 288.3 L 216.1 288.3 L 216.1 290.2 L 218.4 290.2 L 218.4 288.3 L 219.0 288.3 L 219.0 292.8 L 218.4 292.8 L 218.4 290.7 L 216.1 290.7 L 216.1 292.8 L 215.4 292.8 L 215.4 288.3 " fill="#FF0000"/>
<path class="atom-18" d="M 219.9 290.6 Q 219.9 289.5, 220.5 288.9 Q 221.0 288.2, 222.0 288.2 Q 223.0 288.2, 223.6 288.9 Q 224.1 289.5, 224.1 290.6 Q 224.1 291.7, 223.6 292.3 Q 223.0 292.9, 222.0 292.9 Q 221.0 292.9, 220.5 292.3 Q 219.9 291.7, 219.9 290.6 M 222.0 292.4 Q 222.7 292.4, 223.1 291.9 Q 223.5 291.5, 223.5 290.6 Q 223.5 289.7, 223.1 289.2 Q 222.7 288.8, 222.0 288.8 Q 221.3 288.8, 221.0 289.2 Q 220.6 289.7, 220.6 290.6 Q 220.6 291.5, 221.0 291.9 Q 221.3 292.4, 222.0 292.4 " fill="#FF0000"/>
<path class="atom-20" d="M 210.0 256.6 L 210.6 256.6 L 210.6 258.6 L 212.9 258.6 L 212.9 256.6 L 213.6 256.6 L 213.6 261.2 L 212.9 261.2 L 212.9 259.1 L 210.6 259.1 L 210.6 261.2 L 210.0 261.2 L 210.0 256.6 " fill="#FF0000"/>
<path class="atom-20" d="M 214.5 258.9 Q 214.5 257.8, 215.0 257.2 Q 215.6 256.6, 216.6 256.6 Q 217.6 256.6, 218.1 257.2 Q 218.7 257.8, 218.7 258.9 Q 218.7 260.0, 218.1 260.6 Q 217.6 261.3, 216.6 261.3 Q 215.6 261.3, 215.0 260.6 Q 214.5 260.0, 214.5 258.9 M 216.6 260.7 Q 217.3 260.7, 217.6 260.3 Q 218.0 259.8, 218.0 258.9 Q 218.0 258.0, 217.6 257.6 Q 217.3 257.1, 216.6 257.1 Q 215.9 257.1, 215.5 257.6 Q 215.1 258.0, 215.1 258.9 Q 215.1 259.8, 215.5 260.3 Q 215.9 260.7, 216.6 260.7 " fill="#FF0000"/>
<path class="legend" d="M 296.6 378.7 L 303.4 378.7 L 303.4 380.0 L 298.2 380.0 L 298.2 383.4 L 302.8 383.4 L 302.8 384.7 L 298.2 384.7 L 298.2 390.0 L 296.6 390.0 L 296.6 378.7 " fill="#000000"/>
</svg>