<svg xmlns="http://www.w3.org/2000/svg" xmlns:rdkit="http://www.rdkit.org/xml" xmlns:xlink="http://www.w3.org/1999/xlink" version="1.1" baseProfile="full" xml:space="preserve" width="800px" height="200px" viewBox="0 0 800 200">
<!-- END OF HEADER -->
<rect style="opacity:1.0;fill:#FFFFFF;stroke:none" width="800.0" height="200.0" x="0.0" y="0.0"> </rect>
<path class="bond-0 atom-0 atom-1" d="M 60.0,104.2 L 62.4,96.1" style="fill:none;fill-rule:evenodd;stroke:#FF0000;stroke-width:2.0px;stroke-linecap:butt;stroke-linejoin:miter;stroke-opacity:1"/>
<path class="bond-0 atom-0 atom-1" d="M 62.4,96.1 L 64.8,88.1" style="fill:none;fill-rule:evenodd;stroke:#000000;stroke-width:2.0px;stroke-linecap:butt;stroke-linejoin:miter;stroke-opacity:1"/>
<path class="bond-0 atom-0 atom-1" d="M 62.8,105.0 L 65.2,97.0" style="fill:none;fill-rule:evenodd;stroke:#FF0000;stroke-width:2.0px;stroke-linecap:butt;stroke-linejoin:miter;stroke-opacity:1"/>
<path class="bond-0 atom-0 atom-1" d="M 65.2,97.0 L 67.6,88.9" style="fill:none;fill-rule:evenodd;stroke:#000000;stroke-width:2.0px;stroke-linecap:butt;stroke-linejoin:miter;stroke-opacity:1"/>
<path class="bond-1 atom-1 atom-2" d="M 65.9,89.3 L 60.8,83.9" style="fill:none;fill-rule:evenodd;stroke:#000000;stroke-width:2.0px;stroke-linecap:butt;stroke-linejoin:miter;stroke-opacity:1"/>
<path class="bond-1 atom-1 atom-2" d="M 60.8,83.9 L 55.6,78.5" style="fill:none;fill-rule:evenodd;stroke:#FF0000;stroke-width:2.0px;stroke-linecap:butt;stroke-linejoin:miter;stroke-opacity:1"/>
<path class="bond-2 atom-1 atom-3" d="M 65.9,89.3 L 85.0,84.7" style="fill:none;fill-rule:evenodd;stroke:#000000;stroke-width:2.0px;stroke-linecap:butt;stroke-linejoin:miter;stroke-opacity:1"/>
<path class="bond-3 atom-3 atom-4" d="M 85.0,84.7 L 98.4,98.9" style="fill:none;fill-rule:evenodd;stroke:#000000;stroke-width:2.0px;stroke-linecap:butt;stroke-linejoin:miter;stroke-opacity:1"/>
<path class="bond-3 atom-3 atom-4" d="M 84.0,88.0 L 96.3,101.0" style="fill:none;fill-rule:evenodd;stroke:#000000;stroke-width:2.0px;stroke-linecap:butt;stroke-linejoin:miter;stroke-opacity:1"/>
<path class="bond-4 atom-4 atom-5" d="M 98.4,98.9 L 117.5,94.4" style="fill:none;fill-rule:evenodd;stroke:#000000;stroke-width:2.0px;stroke-linecap:butt;stroke-linejoin:miter;stroke-opacity:1"/>
<path class="bond-5 atom-5 atom-6" d="M 117.5,94.4 L 123.0,75.6" style="fill:none;fill-rule:evenodd;stroke:#000000;stroke-width:2.0px;stroke-linecap:butt;stroke-linejoin:miter;stroke-opacity:1"/>
<path class="bond-5 atom-5 atom-6" d="M 120.8,93.6 L 125.4,78.1" style="fill:none;fill-rule:evenodd;stroke:#000000;stroke-width:2.0px;stroke-linecap:butt;stroke-linejoin:miter;stroke-opacity:1"/>
<path class="bond-6 atom-6 atom-7" d="M 123.0,75.6 L 142.1,71.0" style="fill:none;fill-rule:evenodd;stroke:#000000;stroke-width:2.0px;stroke-linecap:butt;stroke-linejoin:miter;stroke-opacity:1"/>
<path class="bond-7 atom-7 atom-8" d="M 142.1,71.0 L 155.6,85.2" style="fill:none;fill-rule:evenodd;stroke:#000000;stroke-width:2.0px;stroke-linecap:butt;stroke-linejoin:miter;stroke-opacity:1"/>
<path class="bond-7 atom-7 atom-8" d="M 141.1,74.3 L 152.3,86.0" style="fill:none;fill-rule:evenodd;stroke:#000000;stroke-width:2.0px;stroke-linecap:butt;stroke-linejoin:miter;stroke-opacity:1"/>
<path class="bond-8 atom-8 atom-9" d="M 155.6,85.2 L 150.0,104.0" style="fill:none;fill-rule:evenodd;stroke:#000000;stroke-width:2.0px;stroke-linecap:butt;stroke-linejoin:miter;stroke-opacity:1"/>
<path class="bond-9 atom-9 atom-10" d="M 150.0,104.0 L 131.0,108.6" style="fill:none;fill-rule:evenodd;stroke:#000000;stroke-width:2.0px;stroke-linecap:butt;stroke-linejoin:miter;stroke-opacity:1"/>
<path class="bond-9 atom-9 atom-10" d="M 147.7,101.5 L 131.9,105.3" style="fill:none;fill-rule:evenodd;stroke:#000000;stroke-width:2.0px;stroke-linecap:butt;stroke-linejoin:miter;stroke-opacity:1"/>
<path class="bond-10 atom-10 atom-5" d="M 131.0,108.6 L 117.5,94.4" style="fill:none;fill-rule:evenodd;stroke:#000000;stroke-width:2.0px;stroke-linecap:butt;stroke-linejoin:miter;stroke-opacity:1"/>
<path d="M 65.7,89.0 L 65.9,89.3 L 66.9,89.1" style="fill:none;stroke:#000000;stroke-width:2.0px;stroke-linecap:butt;stroke-linejoin:miter;stroke-opacity:1;"/>
<path d="M 84.0,85.0 L 85.0,84.7 L 85.6,85.4" style="fill:none;stroke:#000000;stroke-width:2.0px;stroke-linecap:butt;stroke-linejoin:miter;stroke-opacity:1;"/>
<path d="M 97.8,98.2 L 98.4,98.9 L 99.4,98.7" style="fill:none;stroke:#000000;stroke-width:2.0px;stroke-linecap:butt;stroke-linejoin:miter;stroke-opacity:1;"/>
<path d="M 122.8,76.5 L 123.0,75.6 L 124.0,75.4" style="fill:none;stroke:#000000;stroke-width:2.0px;stroke-linecap:butt;stroke-linejoin:miter;stroke-opacity:1;"/>
<path d="M 141.1,71.3 L 142.1,71.0 L 142.8,71.7" style="fill:none;stroke:#000000;stroke-width:2.0px;stroke-linecap:butt;stroke-linejoin:miter;stroke-opacity:1;"/>
<path d="M 154.9,84.5 L 155.6,85.2 L 155.3,86.2" style="fill:none;stroke:#000000;stroke-width:2.0px;stroke-linecap:butt;stroke-linejoin:miter;stroke-opacity:1;"/>
<path d="M 150.3,103.1 L 150.0,104.0 L 149.1,104.2" style="fill:none;stroke:#000000;stroke-width:2.0px;stroke-linecap:butt;stroke-linejoin:miter;stroke-opacity:1;"/>
<path d="M 131.9,108.3 L 131.0,108.6 L 130.3,107.9" style="fill:none;stroke:#000000;stroke-width:2.0px;stroke-linecap:butt;stroke-linejoin:miter;stroke-opacity:1;"/>
<path class="atom-0" d="M 57.8 108.1 Q 57.8 106.8, 58.5 106.0 Q 59.1 105.3, 60.4 105.3 Q 61.6 105.3, 62.3 106.0 Q 62.9 106.8, 62.9 108.1 Q 62.9 109.4, 62.3 110.2 Q 61.6 111.0, 60.4 111.0 Q 59.2 111.0, 58.5 110.2 Q 57.8 109.5, 57.8 108.1 M 60.4 110.3 Q 61.2 110.3, 61.7 109.8 Q 62.1 109.2, 62.1 108.1 Q 62.1 107.0, 61.7 106.5 Q 61.2 105.9, 60.4 105.9 Q 59.5 105.9, 59.1 106.5 Q 58.6 107.0, 58.6 108.1 Q 58.6 109.2, 59.1 109.8 Q 59.5 110.3, 60.4 110.3 " fill="#FF0000"/>
<path class="atom-2" d="M 44.4 72.4 L 45.2 72.4 L 45.2 74.7 L 48.0 74.7 L 48.0 72.4 L 48.8 72.4 L 48.8 77.9 L 48.0 77.9 L 48.0 75.3 L 45.2 75.3 L 45.2 77.9 L 44.4 77.9 L 44.4 72.4 " fill="#FF0000"/>
<path class="atom-2" d="M 49.9 75.1 Q 49.9 73.8, 50.6 73.0 Q 51.2 72.3, 52.5 72.3 Q 53.7 72.3, 54.3 73.0 Q 55.0 73.8, 55.0 75.1 Q 55.0 76.5, 54.3 77.2 Q 53.7 78.0, 52.5 78.0 Q 51.2 78.0, 50.6 77.2 Q 49.9 76.5, 49.9 75.1 M 52.5 77.4 Q 53.3 77.4, 53.8 76.8 Q 54.2 76.2, 54.2 75.1 Q 54.2 74.0, 53.8 73.5 Q 53.3 72.9, 52.5 72.9 Q 51.6 72.9, 51.1 73.5 Q 50.7 74.0, 50.7 75.1 Q 50.7 76.2, 51.1 76.8 Q 51.6 77.4, 52.5 77.4 " fill="#FF0000"/>
<path class="legend" d="M 103.4 190.0 L 102.2 186.7 L 97.8 186.7 L 96.6 190.0 L 95.1 190.0 L 99.0 178.7 L 100.9 178.7 L 104.9 190.0 L 103.4 190.0 M 98.2 185.4 L 101.8 185.4 L 100.0 180.3 L 98.2 185.4 " fill="#000000"/>
<path class="bond-0 atom-0 atom-1" d="M 333.0,128.1 L 329.9,120.4" style="fill:none;fill-rule:evenodd;stroke:#FF0000;stroke-width:2.0px;stroke-linecap:butt;stroke-linejoin:miter;stroke-opacity:1"/>
<path class="bond-0 atom-0 atom-1" d="M 329.9,120.4 L 326.7,112.6" style="fill:none;fill-rule:evenodd;stroke:#000000;stroke-width:2.0px;stroke-linecap:butt;stroke-linejoin:miter;stroke-opacity:1"/>
<path class="bond-0 atom-0 atom-1" d="M 335.8,127.0 L 332.6,119.3" style="fill:none;fill-rule:evenodd;stroke:#FF0000;stroke-width:2.0px;stroke-linecap:butt;stroke-linejoin:miter;stroke-opacity:1"/>
<path class="bond-0 atom-0 atom-1" d="M 332.6,119.3 L 329.4,111.5" style="fill:none;fill-rule:evenodd;stroke:#000000;stroke-width:2.0px;stroke-linecap:butt;stroke-linejoin:miter;stroke-opacity:1"/>
<path class="bond-1 atom-1 atom-2" d="M 328.4,112.9 L 309.0,110.2" style="fill:none;fill-rule:evenodd;stroke:#000000;stroke-width:2.0px;stroke-linecap:butt;stroke-linejoin:miter;stroke-opacity:1"/>
<path class="bond-2 atom-2 atom-3" d="M 309.0,110.2 L 301.6,92.1" style="fill:none;fill-rule:evenodd;stroke:#000000;stroke-width:2.0px;stroke-linecap:butt;stroke-linejoin:miter;stroke-opacity:1"/>
<path class="bond-2 atom-2 atom-3" d="M 311.1,107.6 L 304.9,92.6" style="fill:none;fill-rule:evenodd;stroke:#000000;stroke-width:2.0px;stroke-linecap:butt;stroke-linejoin:miter;stroke-opacity:1"/>
<path class="bond-3 atom-3 atom-4" d="M 301.6,92.1 L 282.2,89.5" style="fill:none;fill-rule:evenodd;stroke:#000000;stroke-width:2.0px;stroke-linecap:butt;stroke-linejoin:miter;stroke-opacity:1"/>
<path class="bond-4 atom-4 atom-5" d="M 282.2,89.5 L 274.7,71.4" style="fill:none;fill-rule:evenodd;stroke:#000000;stroke-width:2.0px;stroke-linecap:butt;stroke-linejoin:miter;stroke-opacity:1"/>
<path class="bond-4 atom-4 atom-5" d="M 278.8,89.0 L 272.7,74.0" style="fill:none;fill-rule:evenodd;stroke:#000000;stroke-width:2.0px;stroke-linecap:butt;stroke-linejoin:miter;stroke-opacity:1"/>
<path class="bond-5 atom-5 atom-6" d="M 274.7,71.4 L 255.3,68.7" style="fill:none;fill-rule:evenodd;stroke:#000000;stroke-width:2.0px;stroke-linecap:butt;stroke-linejoin:miter;stroke-opacity:1"/>
<path class="bond-6 atom-6 atom-7" d="M 255.3,68.7 L 243.4,84.2" style="fill:none;fill-rule:evenodd;stroke:#000000;stroke-width:2.0px;stroke-linecap:butt;stroke-linejoin:miter;stroke-opacity:1"/>
<path class="bond-6 atom-6 atom-7" d="M 256.6,71.9 L 246.7,84.7" style="fill:none;fill-rule:evenodd;stroke:#000000;stroke-width:2.0px;stroke-linecap:butt;stroke-linejoin:miter;stroke-opacity:1"/>
<path class="bond-7 atom-7 atom-8" d="M 243.4,84.2 L 235.3,83.1" style="fill:none;fill-rule:evenodd;stroke:#000000;stroke-width:2.0px;stroke-linecap:butt;stroke-linejoin:miter;stroke-opacity:1"/>
<path class="bond-7 atom-7 atom-8" d="M 235.3,83.1 L 227.2,82.0" style="fill:none;fill-rule:evenodd;stroke:#FF0000;stroke-width:2.0px;stroke-linecap:butt;stroke-linejoin:miter;stroke-opacity:1"/>
<path class="bond-8 atom-7 atom-9" d="M 243.4,84.2 L 250.8,102.3" style="fill:none;fill-rule:evenodd;stroke:#000000;stroke-width:2.0px;stroke-linecap:butt;stroke-linejoin:miter;stroke-opacity:1"/>
<path class="bond-9 atom-9 atom-10" d="M 250.8,102.3 L 270.2,105.0" style="fill:none;fill-rule:evenodd;stroke:#000000;stroke-width:2.0px;stroke-linecap:butt;stroke-linejoin:miter;stroke-opacity:1"/>
<path class="bond-9 atom-9 atom-10" d="M 252.9,99.7 L 268.9,101.8" style="fill:none;fill-rule:evenodd;stroke:#000000;stroke-width:2.0px;stroke-linecap:butt;stroke-linejoin:miter;stroke-opacity:1"/>
<path class="bond-10 atom-3 atom-11" d="M 301.6,92.1 L 306.2,86.1" style="fill:none;fill-rule:evenodd;stroke:#000000;stroke-width:2.0px;stroke-linecap:butt;stroke-linejoin:miter;stroke-opacity:1"/>
<path class="bond-10 atom-3 atom-11" d="M 306.2,86.1 L 310.8,80.2" style="fill:none;fill-rule:evenodd;stroke:#FF0000;stroke-width:2.0px;stroke-linecap:butt;stroke-linejoin:miter;stroke-opacity:1"/>
<path class="bond-11 atom-11 atom-12" d="M 316.7,77.1 L 324.8,78.2" style="fill:none;fill-rule:evenodd;stroke:#FF0000;stroke-width:2.0px;stroke-linecap:butt;stroke-linejoin:miter;stroke-opacity:1"/>
<path class="bond-11 atom-11 atom-12" d="M 324.8,78.2 L 332.9,79.3" style="fill:none;fill-rule:evenodd;stroke:#000000;stroke-width:2.0px;stroke-linecap:butt;stroke-linejoin:miter;stroke-opacity:1"/>
<path class="bond-12 atom-12 atom-13" d="M 332.9,79.3 L 344.9,63.8" style="fill:none;fill-rule:evenodd;stroke:#000000;stroke-width:2.0px;stroke-linecap:butt;stroke-linejoin:miter;stroke-opacity:1"/>
<path class="bond-12 atom-12 atom-13" d="M 336.3,79.7 L 346.2,66.9" style="fill:none;fill-rule:evenodd;stroke:#000000;stroke-width:2.0px;stroke-linecap:butt;stroke-linejoin:miter;stroke-opacity:1"/>
<path class="bond-13 atom-13 atom-14" d="M 344.9,63.8 L 364.3,66.4" style="fill:none;fill-rule:evenodd;stroke:#000000;stroke-width:2.0px;stroke-linecap:butt;stroke-linejoin:miter;stroke-opacity:1"/>
<path class="bond-14 atom-14 atom-15" d="M 364.3,66.4 L 369.0,60.4" style="fill:none;fill-rule:evenodd;stroke:#000000;stroke-width:2.0px;stroke-linecap:butt;stroke-linejoin:miter;stroke-opacity:1"/>
<path class="bond-14 atom-14 atom-15" d="M 369.0,60.4 L 373.6,54.5" style="fill:none;fill-rule:evenodd;stroke:#FF0000;stroke-width:2.0px;stroke-linecap:butt;stroke-linejoin:miter;stroke-opacity:1"/>
<path class="bond-15 atom-14 atom-16" d="M 364.3,66.4 L 371.8,84.5" style="fill:none;fill-rule:evenodd;stroke:#000000;stroke-width:2.0px;stroke-linecap:butt;stroke-linejoin:miter;stroke-opacity:1"/>
<path class="bond-15 atom-14 atom-16" d="M 362.3,69.1 L 368.4,84.1" style="fill:none;fill-rule:evenodd;stroke:#000000;stroke-width:2.0px;stroke-linecap:butt;stroke-linejoin:miter;stroke-opacity:1"/>
<path class="bond-16 atom-16 atom-17" d="M 371.8,84.5 L 359.8,100.0" style="fill:none;fill-rule:evenodd;stroke:#000000;stroke-width:2.0px;stroke-linecap:butt;stroke-linejoin:miter;stroke-opacity:1"/>
<path class="bond-17 atom-17 atom-18" d="M 359.8,100.0 L 362.8,107.4" style="fill:none;fill-rule:evenodd;stroke:#000000;stroke-width:2.0px;stroke-linecap:butt;stroke-linejoin:miter;stroke-opacity:1"/>
<path class="bond-17 atom-17 atom-18" d="M 362.8,107.4 L 365.8,114.7" style="fill:none;fill-rule:evenodd;stroke:#FF0000;stroke-width:2.0px;stroke-linecap:butt;stroke-linejoin:miter;stroke-opacity:1"/>
<path class="bond-18 atom-17 atom-19" d="M 359.8,100.0 L 340.4,97.4" style="fill:none;fill-rule:evenodd;stroke:#000000;stroke-width:2.0px;stroke-linecap:butt;stroke-linejoin:miter;stroke-opacity:1"/>
<path class="bond-18 atom-17 atom-19" d="M 358.5,96.9 L 342.4,94.7" style="fill:none;fill-rule:evenodd;stroke:#000000;stroke-width:2.0px;stroke-linecap:butt;stroke-linejoin:miter;stroke-opacity:1"/>
<path class="bond-19 atom-19 atom-1" d="M 340.4,97.4 L 328.4,112.9" style="fill:none;fill-rule:evenodd;stroke:#000000;stroke-width:2.0px;stroke-linecap:butt;stroke-linejoin:miter;stroke-opacity:1"/>
<path class="bond-20 atom-10 atom-4" d="M 270.2,105.0 L 282.2,89.5" style="fill:none;fill-rule:evenodd;stroke:#000000;stroke-width:2.0px;stroke-linecap:butt;stroke-linejoin:miter;stroke-opacity:1"/>
<path class="bond-21 atom-19 atom-12" d="M 340.4,97.4 L 332.9,79.3" style="fill:none;fill-rule:evenodd;stroke:#000000;stroke-width:2.0px;stroke-linecap:butt;stroke-linejoin:miter;stroke-opacity:1"/>
<path d="M 327.4,112.7 L 328.4,112.9 L 329.0,112.1" style="fill:none;stroke:#000000;stroke-width:2.0px;stroke-linecap:butt;stroke-linejoin:miter;stroke-opacity:1;"/>
<path d="M 310.0,110.4 L 309.0,110.2 L 308.6,109.3" style="fill:none;stroke:#000000;stroke-width:2.0px;stroke-linecap:butt;stroke-linejoin:miter;stroke-opacity:1;"/>
<path d="M 275.1,72.3 L 274.7,71.4 L 273.8,71.2" style="fill:none;stroke:#000000;stroke-width:2.0px;stroke-linecap:butt;stroke-linejoin:miter;stroke-opacity:1;"/>
<path d="M 256.3,68.9 L 255.3,68.7 L 254.7,69.5" style="fill:none;stroke:#000000;stroke-width:2.0px;stroke-linecap:butt;stroke-linejoin:miter;stroke-opacity:1;"/>
<path d="M 250.4,101.4 L 250.8,102.3 L 251.8,102.5" style="fill:none;stroke:#000000;stroke-width:2.0px;stroke-linecap:butt;stroke-linejoin:miter;stroke-opacity:1;"/>
<path d="M 269.2,104.8 L 270.2,105.0 L 270.8,104.2" style="fill:none;stroke:#000000;stroke-width:2.0px;stroke-linecap:butt;stroke-linejoin:miter;stroke-opacity:1;"/>
<path d="M 344.3,64.6 L 344.9,63.8 L 345.9,63.9" style="fill:none;stroke:#000000;stroke-width:2.0px;stroke-linecap:butt;stroke-linejoin:miter;stroke-opacity:1;"/>
<path d="M 371.4,83.6 L 371.8,84.5 L 371.2,85.3" style="fill:none;stroke:#000000;stroke-width:2.0px;stroke-linecap:butt;stroke-linejoin:miter;stroke-opacity:1;"/>
<path class="atom-0" d="M 333.3 131.0 Q 333.3 129.7, 333.9 128.9 Q 334.6 128.2, 335.8 128.2 Q 337.0 128.2, 337.7 128.9 Q 338.4 129.7, 338.4 131.0 Q 338.4 132.3, 337.7 133.1 Q 337.0 133.9, 335.8 133.9 Q 334.6 133.9, 333.9 133.1 Q 333.3 132.4, 333.3 131.0 M 335.8 133.3 Q 336.7 133.3, 337.1 132.7 Q 337.6 132.1, 337.6 131.0 Q 337.6 129.9, 337.1 129.4 Q 336.7 128.8, 335.8 128.8 Q 335.0 128.8, 334.5 129.4 Q 334.0 129.9, 334.0 131.0 Q 334.0 132.1, 334.5 132.7 Q 335.0 133.3, 335.8 133.3 " fill="#FF0000"/>
<path class="atom-8" d="M 215.9 78.8 L 216.7 78.8 L 216.7 81.2 L 219.5 81.2 L 219.5 78.8 L 220.3 78.8 L 220.3 84.4 L 219.5 84.4 L 219.5 81.8 L 216.7 81.8 L 216.7 84.4 L 215.9 84.4 L 215.9 78.8 " fill="#FF0000"/>
<path class="atom-8" d="M 221.4 81.6 Q 221.4 80.3, 222.1 79.5 Q 222.7 78.8, 224.0 78.8 Q 225.2 78.8, 225.9 79.5 Q 226.5 80.3, 226.5 81.6 Q 226.5 83.0, 225.8 83.7 Q 225.2 84.5, 224.0 84.5 Q 222.7 84.5, 222.1 83.7 Q 221.4 83.0, 221.4 81.6 M 224.0 83.9 Q 224.8 83.9, 225.3 83.3 Q 225.7 82.7, 225.7 81.6 Q 225.7 80.5, 225.3 80.0 Q 224.8 79.4, 224.0 79.4 Q 223.1 79.4, 222.7 80.0 Q 222.2 80.5, 222.2 81.6 Q 222.2 82.7, 222.7 83.3 Q 223.1 83.9, 224.0 83.9 " fill="#FF0000"/>
<path class="atom-11" d="M 311.0 76.6 Q 311.0 75.3, 311.7 74.6 Q 312.3 73.8, 313.5 73.8 Q 314.8 73.8, 315.4 74.6 Q 316.1 75.3, 316.1 76.6 Q 316.1 78.0, 315.4 78.8 Q 314.8 79.5, 313.5 79.5 Q 312.3 79.5, 311.7 78.8 Q 311.0 78.0, 311.0 76.6 M 313.5 78.9 Q 314.4 78.9, 314.8 78.3 Q 315.3 77.8, 315.3 76.6 Q 315.3 75.6, 314.8 75.0 Q 314.4 74.5, 313.5 74.5 Q 312.7 74.5, 312.2 75.0 Q 311.8 75.6, 311.8 76.6 Q 311.8 77.8, 312.2 78.3 Q 312.7 78.9, 313.5 78.9 " fill="#FF0000"/>
<path class="atom-15" d="M 373.8 50.9 Q 373.8 49.6, 374.4 48.9 Q 375.1 48.1, 376.3 48.1 Q 377.5 48.1, 378.2 48.9 Q 378.9 49.6, 378.9 50.9 Q 378.9 52.3, 378.2 53.1 Q 377.5 53.8, 376.3 53.8 Q 375.1 53.8, 374.4 53.1 Q 373.8 52.3, 373.8 50.9 M 376.3 53.2 Q 377.2 53.2, 377.6 52.6 Q 378.1 52.1, 378.1 50.9 Q 378.1 49.9, 377.6 49.3 Q 377.2 48.7, 376.3 48.7 Q 375.5 48.7, 375.0 49.3 Q 374.5 49.8, 374.5 50.9 Q 374.5 52.1, 375.0 52.6 Q 375.5 53.2, 376.3 53.2 " fill="#FF0000"/>
<path class="atom-15" d="M 379.7 48.2 L 380.5 48.2 L 380.5 50.5 L 383.3 50.5 L 383.3 48.2 L 384.1 48.2 L 384.1 53.7 L 383.3 53.7 L 383.3 51.2 L 380.5 51.2 L 380.5 53.7 L 379.7 53.7 L 379.7 48.2 " fill="#FF0000"/>
<path class="atom-18" d="M 364.6 118.1 Q 364.6 116.8, 365.3 116.1 Q 366.0 115.3, 367.2 115.3 Q 368.4 115.3, 369.1 116.1 Q 369.7 116.8, 369.7 118.1 Q 369.7 119.5, 369.1 120.3 Q 368.4 121.0, 367.2 121.0 Q 366.0 121.0, 365.3 120.3 Q 364.6 119.5, 364.6 118.1 M 367.2 120.4 Q 368.0 120.4, 368.5 119.8 Q 369.0 119.3, 369.0 118.1 Q 369.0 117.1, 368.5 116.5 Q 368.0 116.0, 367.2 116.0 Q 366.3 116.0, 365.9 116.5 Q 365.4 117.1, 365.4 118.1 Q 365.4 119.3, 365.9 119.8 Q 366.3 120.4, 367.2 120.4 " fill="#FF0000"/>
<path class="atom-18" d="M 370.6 115.4 L 371.4 115.4 L 371.4 117.8 L 374.2 117.8 L 374.2 115.4 L 374.9 115.4 L 374.9 120.9 L 374.2 120.9 L 374.2 118.4 L 371.4 118.4 L 371.4 120.9 L 370.6 120.9 L 370.6 115.4 " fill="#FF0000"/>
<path class="legend" d="M 301.7 184.0 Q 302.7 184.4, 303.3 185.0 Q 303.8 185.7, 303.8 186.7 Q 303.8 188.2, 302.8 189.1 Q 301.8 190.0, 300.0 190.0 L 296.2 190.0 L 296.2 178.7 L 299.5 178.7 Q 301.4 178.7, 302.4 179.5 Q 303.4 180.2, 303.4 181.7 Q 303.4 183.4, 301.7 184.0 M 297.7 180.0 L 297.7 183.5 L 299.5 183.5 Q 300.6 183.5, 301.2 183.1 Q 301.8 182.6, 301.8 181.7 Q 301.8 180.0, 299.5 180.0 L 297.7 180.0 M 300.0 188.7 Q 301.1 188.7, 301.7 188.2 Q 302.2 187.7, 302.2 186.7 Q 302.2 185.7, 301.6 185.3 Q 301.0 184.8, 299.7 184.8 L 297.7 184.8 L 297.7 188.7 L 300.0 188.7 " fill="#000000"/>
<path class="bond-0 atom-0 atom-1" d="M 549.3,57.0 L 566.1,68.6" style="fill:none;fill-rule:evenodd;stroke:#000000;stroke-width:2.0px;stroke-linecap:butt;stroke-linejoin:miter;stroke-opacity:1"/>
<path class="bond-0 atom-0 atom-1" d="M 547.6,59.4 L 564.4,71.0" style="fill:none;fill-rule:evenodd;stroke:#000000;stroke-width:2.0px;stroke-linecap:butt;stroke-linejoin:miter;stroke-opacity:1;stroke-dasharray:6,4"/>
<path class="bond-1 atom-1 atom-2" d="M 564.5,69.4 L 571.8,65.9" style="fill:none;fill-rule:evenodd;stroke:#000000;stroke-width:2.0px;stroke-linecap:butt;stroke-linejoin:miter;stroke-opacity:1"/>
<path class="bond-1 atom-1 atom-2" d="M 571.8,65.9 L 579.1,62.5" style="fill:none;fill-rule:evenodd;stroke:#FF0000;stroke-width:2.0px;stroke-linecap:butt;stroke-linejoin:miter;stroke-opacity:1"/>
<path class="bond-2 atom-1 atom-3" d="M 564.5,69.4 L 562.9,88.9" style="fill:none;fill-rule:evenodd;stroke:#000000;stroke-width:2.0px;stroke-linecap:butt;stroke-linejoin:miter;stroke-opacity:1"/>
<path class="bond-2 atom-1 atom-3" d="M 561.5,70.8 L 560.1,86.9" style="fill:none;fill-rule:evenodd;stroke:#000000;stroke-width:2.0px;stroke-linecap:butt;stroke-linejoin:miter;stroke-opacity:1;stroke-dasharray:6,4"/>
<path class="bond-3 atom-3 atom-4" d="M 562.9,88.9 L 579.0,100.0" style="fill:none;fill-rule:evenodd;stroke:#000000;stroke-width:2.0px;stroke-linecap:butt;stroke-linejoin:miter;stroke-opacity:1"/>
<path class="bond-4 atom-3 atom-5" d="M 562.9,88.9 L 545.2,97.2" style="fill:none;fill-rule:evenodd;stroke:#000000;stroke-width:2.0px;stroke-linecap:butt;stroke-linejoin:miter;stroke-opacity:1"/>
<path class="bond-4 atom-3 atom-5" d="M 560.1,86.9 L 545.5,93.8" style="fill:none;fill-rule:evenodd;stroke:#000000;stroke-width:2.0px;stroke-linecap:butt;stroke-linejoin:miter;stroke-opacity:1;stroke-dasharray:6,4"/>
<path class="bond-5 atom-5 atom-6" d="M 545.2,97.2 L 529.1,86.0" style="fill:none;fill-rule:evenodd;stroke:#000000;stroke-width:2.0px;stroke-linecap:butt;stroke-linejoin:miter;stroke-opacity:1"/>
<path class="bond-5 atom-5 atom-6" d="M 542.1,98.6 L 528.8,89.4" style="fill:none;fill-rule:evenodd;stroke:#000000;stroke-width:2.0px;stroke-linecap:butt;stroke-linejoin:miter;stroke-opacity:1;stroke-dasharray:6,4"/>
<path class="bond-6 atom-6 atom-7" d="M 529.1,86.0 L 521.8,89.4" style="fill:none;fill-rule:evenodd;stroke:#000000;stroke-width:2.0px;stroke-linecap:butt;stroke-linejoin:miter;stroke-opacity:1"/>
<path class="bond-6 atom-6 atom-7" d="M 521.8,89.4 L 514.6,92.8" style="fill:none;fill-rule:evenodd;stroke:#FF0000;stroke-width:2.0px;stroke-linecap:butt;stroke-linejoin:miter;stroke-opacity:1"/>
<path class="bond-7 atom-7 atom-8" d="M 508.2,92.1 L 501.7,87.6" style="fill:none;fill-rule:evenodd;stroke:#FF0000;stroke-width:2.0px;stroke-linecap:butt;stroke-linejoin:miter;stroke-opacity:1"/>
<path class="bond-7 atom-7 atom-8" d="M 501.7,87.6 L 495.3,83.2" style="fill:none;fill-rule:evenodd;stroke:#000000;stroke-width:2.0px;stroke-linecap:butt;stroke-linejoin:miter;stroke-opacity:1"/>
<path class="bond-8 atom-8 atom-9" d="M 495.3,83.2 L 477.6,91.5" style="fill:none;fill-rule:evenodd;stroke:#000000;stroke-width:2.0px;stroke-linecap:butt;stroke-linejoin:miter;stroke-opacity:1"/>
<path class="bond-9 atom-9 atom-10" d="M 477.6,91.5 L 461.5,80.3" style="fill:none;fill-rule:evenodd;stroke:#000000;stroke-width:2.0px;stroke-linecap:butt;stroke-linejoin:miter;stroke-opacity:1"/>
<path class="bond-10 atom-10 atom-11" d="M 461.5,80.3 L 443.8,88.6" style="fill:none;fill-rule:evenodd;stroke:#000000;stroke-width:2.0px;stroke-linecap:butt;stroke-linejoin:miter;stroke-opacity:1"/>
<path class="bond-11 atom-11 atom-12" d="M 443.8,88.6 L 427.7,77.4" style="fill:none;fill-rule:evenodd;stroke:#000000;stroke-width:2.0px;stroke-linecap:butt;stroke-linejoin:miter;stroke-opacity:1"/>
<path class="bond-12 atom-12 atom-13" d="M 427.7,77.4 L 410.0,85.8" style="fill:none;fill-rule:evenodd;stroke:#000000;stroke-width:2.0px;stroke-linecap:butt;stroke-linejoin:miter;stroke-opacity:1"/>
<path class="bond-13 atom-5 atom-14" d="M 545.2,97.2 L 543.5,116.7" style="fill:none;fill-rule:evenodd;stroke:#000000;stroke-width:2.0px;stroke-linecap:butt;stroke-linejoin:miter;stroke-opacity:1"/>
<path class="bond-14 atom-14 atom-15" d="M 543.5,116.7 L 525.8,125.0" style="fill:none;fill-rule:evenodd;stroke:#000000;stroke-width:2.0px;stroke-linecap:butt;stroke-linejoin:miter;stroke-opacity:1"/>
<path d="M 529.9,86.6 L 529.1,86.0 L 528.7,86.2" style="fill:none;stroke:#000000;stroke-width:2.0px;stroke-linecap:butt;stroke-linejoin:miter;stroke-opacity:1;"/>
<path d="M 495.6,83.4 L 495.3,83.2 L 494.4,83.6" style="fill:none;stroke:#000000;stroke-width:2.0px;stroke-linecap:butt;stroke-linejoin:miter;stroke-opacity:1;"/>
<path d="M 478.5,91.1 L 477.6,91.5 L 476.8,90.9" style="fill:none;stroke:#000000;stroke-width:2.0px;stroke-linecap:butt;stroke-linejoin:miter;stroke-opacity:1;"/>
<path d="M 462.3,80.9 L 461.5,80.3 L 460.6,80.7" style="fill:none;stroke:#000000;stroke-width:2.0px;stroke-linecap:butt;stroke-linejoin:miter;stroke-opacity:1;"/>
<path d="M 444.7,88.2 L 443.8,88.6 L 443.0,88.1" style="fill:none;stroke:#000000;stroke-width:2.0px;stroke-linecap:butt;stroke-linejoin:miter;stroke-opacity:1;"/>
<path d="M 428.5,78.0 L 427.7,77.4 L 426.8,77.9" style="fill:none;stroke:#000000;stroke-width:2.0px;stroke-linecap:butt;stroke-linejoin:miter;stroke-opacity:1;"/>
<path d="M 543.6,115.7 L 543.5,116.7 L 542.6,117.1" style="fill:none;stroke:#000000;stroke-width:2.0px;stroke-linecap:butt;stroke-linejoin:miter;stroke-opacity:1;"/>
<path class="atom-2" d="M 579.7 61.0 Q 579.7 59.7, 580.4 59.0 Q 581.0 58.2, 582.3 58.2 Q 583.5 58.2, 584.1 59.0 Q 584.8 59.7, 584.8 61.0 Q 584.8 62.4, 584.1 63.2 Q 583.5 63.9, 582.3 63.9 Q 581.0 63.9, 580.4 63.2 Q 579.7 62.4, 579.7 61.0 M 582.3 63.3 Q 583.1 63.3, 583.6 62.7 Q 584.0 62.2, 584.0 61.0 Q 584.0 60.0, 583.6 59.4 Q 583.1 58.9, 582.3 58.9 Q 581.4 58.9, 580.9 59.4 Q 580.5 59.9, 580.5 61.0 Q 580.5 62.2, 580.9 62.7 Q 581.4 63.3, 582.3 63.3 " fill="#FF0000"/>
<path class="atom-2" d="M 585.7 58.3 L 586.4 58.3 L 586.4 60.6 L 589.2 60.6 L 589.2 58.3 L 590.0 58.3 L 590.0 63.8 L 589.2 63.8 L 589.2 61.3 L 586.4 61.3 L 586.4 63.8 L 585.7 63.8 L 585.7 58.3 " fill="#FF0000"/>
<path class="atom-7" d="M 508.8 94.4 Q 508.8 93.0, 509.5 92.3 Q 510.1 91.5, 511.4 91.5 Q 512.6 91.5, 513.3 92.3 Q 513.9 93.0, 513.9 94.4 Q 513.9 95.7, 513.3 96.5 Q 512.6 97.2, 511.4 97.2 Q 510.2 97.2, 509.5 96.5 Q 508.8 95.7, 508.8 94.4 M 511.4 96.6 Q 512.2 96.6, 512.7 96.0 Q 513.1 95.5, 513.1 94.4 Q 513.1 93.3, 512.7 92.7 Q 512.2 92.2, 511.4 92.2 Q 510.5 92.2, 510.1 92.7 Q 509.6 93.3, 509.6 94.4 Q 509.6 95.5, 510.1 96.0 Q 510.5 96.6, 511.4 96.6 " fill="#FF0000"/>
<path class="legend" d="M 495.6 184.2 Q 495.6 181.4, 496.9 179.9 Q 498.3 178.4, 500.8 178.4 Q 503.1 178.4, 504.4 180.0 L 503.3 180.9 Q 502.4 179.7, 500.8 179.7 Q 499.1 179.7, 498.2 180.9 Q 497.3 182.0, 497.3 184.2 Q 497.3 186.4, 498.2 187.6 Q 499.1 188.7, 501.0 188.7 Q 502.2 188.7, 503.7 188.0 L 504.1 189.2 Q 503.5 189.6, 502.6 189.8 Q 501.7 190.0, 500.7 190.0 Q 498.3 190.0, 496.9 188.5 Q 495.6 187.0, 495.6 184.2 " fill="#000000"/>
</svg>