<svg xmlns="http://www.w3.org/2000/svg" xmlns:rdkit="http://www.rdkit.org/xml" xmlns:xlink="http://www.w3.org/1999/xlink" version="1.1" baseProfile="full" xml:space="preserve" width="800px" height="200px" viewBox="0 0 800 200">
<!-- END OF HEADER -->
<rect style="opacity:1.0;fill:#FFFFFF;stroke:none" width="800.0" height="200.0" x="0.0" y="0.0"> </rect>
<path class="bond-0 atom-0 atom-1" d="M 171.8,78.0 L 151.1,93.4" style="fill:none;fill-rule:evenodd;stroke:#000000;stroke-width:2.0px;stroke-linecap:butt;stroke-linejoin:miter;stroke-opacity:1"/>
<path class="bond-1 atom-1 atom-2" d="M 151.1,93.4 L 152.4,104.0" style="fill:none;fill-rule:evenodd;stroke:#000000;stroke-width:2.0px;stroke-linecap:butt;stroke-linejoin:miter;stroke-opacity:1"/>
<path class="bond-1 atom-1 atom-2" d="M 152.4,104.0 L 153.6,114.5" style="fill:none;fill-rule:evenodd;stroke:#FF0000;stroke-width:2.0px;stroke-linecap:butt;stroke-linejoin:miter;stroke-opacity:1"/>
<path class="bond-2 atom-1 atom-3" d="M 151.1,93.4 L 127.5,83.2" style="fill:none;fill-rule:evenodd;stroke:#000000;stroke-width:2.0px;stroke-linecap:butt;stroke-linejoin:miter;stroke-opacity:1"/>
<path class="bond-3 atom-3 atom-4" d="M 127.5,83.2 L 126.2,72.8" style="fill:none;fill-rule:evenodd;stroke:#000000;stroke-width:2.0px;stroke-linecap:butt;stroke-linejoin:miter;stroke-opacity:1"/>
<path class="bond-3 atom-3 atom-4" d="M 126.2,72.8 L 125.0,62.3" style="fill:none;fill-rule:evenodd;stroke:#FF0000;stroke-width:2.0px;stroke-linecap:butt;stroke-linejoin:miter;stroke-opacity:1"/>
<path class="bond-4 atom-3 atom-5" d="M 127.5,83.2 L 106.8,98.6" style="fill:none;fill-rule:evenodd;stroke:#000000;stroke-width:2.0px;stroke-linecap:butt;stroke-linejoin:miter;stroke-opacity:1"/>
<path class="bond-5 atom-5 atom-6" d="M 106.8,98.6 L 108.0,109.2" style="fill:none;fill-rule:evenodd;stroke:#000000;stroke-width:2.0px;stroke-linecap:butt;stroke-linejoin:miter;stroke-opacity:1"/>
<path class="bond-5 atom-5 atom-6" d="M 108.0,109.2 L 109.3,119.7" style="fill:none;fill-rule:evenodd;stroke:#FF0000;stroke-width:2.0px;stroke-linecap:butt;stroke-linejoin:miter;stroke-opacity:1"/>
<path class="bond-6 atom-5 atom-7" d="M 106.8,98.6 L 83.1,88.4" style="fill:none;fill-rule:evenodd;stroke:#000000;stroke-width:2.0px;stroke-linecap:butt;stroke-linejoin:miter;stroke-opacity:1"/>
<path class="bond-7 atom-7 atom-8" d="M 83.1,88.4 L 81.9,78.0" style="fill:none;fill-rule:evenodd;stroke:#000000;stroke-width:2.0px;stroke-linecap:butt;stroke-linejoin:miter;stroke-opacity:1"/>
<path class="bond-7 atom-7 atom-8" d="M 81.9,78.0 L 80.6,67.5" style="fill:none;fill-rule:evenodd;stroke:#FF0000;stroke-width:2.0px;stroke-linecap:butt;stroke-linejoin:miter;stroke-opacity:1"/>
<path class="bond-8 atom-7 atom-9" d="M 83.1,88.4 L 62.4,103.8" style="fill:none;fill-rule:evenodd;stroke:#000000;stroke-width:2.0px;stroke-linecap:butt;stroke-linejoin:miter;stroke-opacity:1"/>
<path class="bond-9 atom-9 atom-10" d="M 62.4,103.8 L 52.7,99.6" style="fill:none;fill-rule:evenodd;stroke:#000000;stroke-width:2.0px;stroke-linecap:butt;stroke-linejoin:miter;stroke-opacity:1"/>
<path class="bond-9 atom-9 atom-10" d="M 52.7,99.6 L 43.0,95.5" style="fill:none;fill-rule:evenodd;stroke:#FF0000;stroke-width:2.0px;stroke-linecap:butt;stroke-linejoin:miter;stroke-opacity:1"/>
<path d="M 63.5,103.1 L 62.4,103.8 L 61.9,103.6" style="fill:none;stroke:#000000;stroke-width:2.0px;stroke-linecap:butt;stroke-linejoin:miter;stroke-opacity:1;"/>
<path class="atom-2" d="M 150.8 119.1 Q 150.8 117.3, 151.6 116.3 Q 152.5 115.4, 154.1 115.4 Q 155.8 115.4, 156.6 116.3 Q 157.5 117.3, 157.5 119.1 Q 157.5 120.8, 156.6 121.9 Q 155.7 122.9, 154.1 122.9 Q 152.5 122.9, 151.6 121.9 Q 150.8 120.9, 150.8 119.1 M 154.1 122.0 Q 155.2 122.0, 155.8 121.3 Q 156.5 120.5, 156.5 119.1 Q 156.5 117.6, 155.8 116.9 Q 155.2 116.2, 154.1 116.2 Q 153.0 116.2, 152.4 116.9 Q 151.8 117.6, 151.8 119.1 Q 151.8 120.5, 152.4 121.3 Q 153.0 122.0, 154.1 122.0 " fill="#FF0000"/>
<path class="atom-2" d="M 158.6 115.4 L 159.6 115.4 L 159.6 118.5 L 163.3 118.5 L 163.3 115.4 L 164.3 115.4 L 164.3 122.7 L 163.3 122.7 L 163.3 119.4 L 159.6 119.4 L 159.6 122.7 L 158.6 122.7 L 158.6 115.4 " fill="#FF0000"/>
<path class="atom-4" d="M 121.1 57.7 Q 121.1 55.9, 122.0 54.9 Q 122.8 53.9, 124.5 53.9 Q 126.1 53.9, 126.9 54.9 Q 127.8 55.9, 127.8 57.7 Q 127.8 59.4, 126.9 60.4 Q 126.1 61.4, 124.5 61.4 Q 122.8 61.4, 122.0 60.4 Q 121.1 59.4, 121.1 57.7 M 124.5 60.6 Q 125.6 60.6, 126.2 59.9 Q 126.8 59.1, 126.8 57.7 Q 126.8 56.2, 126.2 55.5 Q 125.6 54.8, 124.5 54.8 Q 123.3 54.8, 122.7 55.5 Q 122.1 56.2, 122.1 57.7 Q 122.1 59.1, 122.7 59.9 Q 123.3 60.6, 124.5 60.6 " fill="#FF0000"/>
<path class="atom-4" d="M 128.9 54.0 L 129.9 54.0 L 129.9 57.1 L 133.7 57.1 L 133.7 54.0 L 134.7 54.0 L 134.7 61.3 L 133.7 61.3 L 133.7 58.0 L 129.9 58.0 L 129.9 61.3 L 128.9 61.3 L 128.9 54.0 " fill="#FF0000"/>
<path class="atom-6" d="M 106.4 124.3 Q 106.4 122.5, 107.3 121.5 Q 108.2 120.6, 109.8 120.6 Q 111.4 120.6, 112.3 121.5 Q 113.1 122.5, 113.1 124.3 Q 113.1 126.0, 112.3 127.1 Q 111.4 128.1, 109.8 128.1 Q 108.2 128.1, 107.3 127.1 Q 106.4 126.1, 106.4 124.3 M 109.8 127.2 Q 110.9 127.2, 111.5 126.5 Q 112.1 125.7, 112.1 124.3 Q 112.1 122.8, 111.5 122.1 Q 110.9 121.4, 109.8 121.4 Q 108.7 121.4, 108.1 122.1 Q 107.5 122.8, 107.5 124.3 Q 107.5 125.7, 108.1 126.5 Q 108.7 127.2, 109.8 127.2 " fill="#FF0000"/>
<path class="atom-6" d="M 114.3 120.6 L 115.3 120.6 L 115.3 123.7 L 119.0 123.7 L 119.0 120.6 L 120.0 120.6 L 120.0 127.9 L 119.0 127.9 L 119.0 124.6 L 115.3 124.6 L 115.3 127.9 L 114.3 127.9 L 114.3 120.6 " fill="#FF0000"/>
<path class="atom-8" d="M 76.8 62.9 Q 76.8 61.1, 77.6 60.1 Q 78.5 59.1, 80.1 59.1 Q 81.7 59.1, 82.6 60.1 Q 83.5 61.1, 83.5 62.9 Q 83.5 64.6, 82.6 65.6 Q 81.7 66.6, 80.1 66.6 Q 78.5 66.6, 77.6 65.6 Q 76.8 64.6, 76.8 62.9 M 80.1 65.8 Q 81.2 65.8, 81.8 65.1 Q 82.4 64.3, 82.4 62.9 Q 82.4 61.4, 81.8 60.7 Q 81.2 60.0, 80.1 60.0 Q 79.0 60.0, 78.4 60.7 Q 77.8 61.4, 77.8 62.9 Q 77.8 64.3, 78.4 65.1 Q 79.0 65.8, 80.1 65.8 " fill="#FF0000"/>
<path class="atom-8" d="M 84.6 59.2 L 85.6 59.2 L 85.6 62.3 L 89.3 62.3 L 89.3 59.2 L 90.3 59.2 L 90.3 66.5 L 89.3 66.5 L 89.3 63.2 L 85.6 63.2 L 85.6 66.5 L 84.6 66.5 L 84.6 59.2 " fill="#FF0000"/>
<path class="atom-10" d="M 28.2 90.0 L 29.2 90.0 L 29.2 93.1 L 32.9 93.1 L 32.9 90.0 L 33.9 90.0 L 33.9 97.3 L 32.9 97.3 L 32.9 94.0 L 29.2 94.0 L 29.2 97.3 L 28.2 97.3 L 28.2 90.0 " fill="#FF0000"/>
<path class="atom-10" d="M 35.4 93.7 Q 35.4 91.9, 36.3 90.9 Q 37.1 89.9, 38.8 89.9 Q 40.4 89.9, 41.2 90.9 Q 42.1 91.9, 42.1 93.7 Q 42.1 95.4, 41.2 96.4 Q 40.4 97.4, 38.8 97.4 Q 37.1 97.4, 36.3 96.4 Q 35.4 95.4, 35.4 93.7 M 38.8 96.6 Q 39.9 96.6, 40.5 95.9 Q 41.1 95.1, 41.1 93.7 Q 41.1 92.2, 40.5 91.5 Q 39.9 90.8, 38.8 90.8 Q 37.6 90.8, 37.0 91.5 Q 36.4 92.2, 36.4 93.7 Q 36.4 95.1, 37.0 95.9 Q 37.6 96.6, 38.8 96.6 " fill="#FF0000"/>
<path class="legend" d="M 103.4 190.0 L 102.2 186.7 L 97.8 186.7 L 96.6 190.0 L 95.1 190.0 L 99.0 178.7 L 100.9 178.7 L 104.9 190.0 L 103.4 190.0 M 98.2 185.4 L 101.8 185.4 L 100.0 180.3 L 98.2 185.4 " fill="#000000"/>
<path class="bond-0 atom-0 atom-1" d="M 212.6,128.5 L 224.9,105.8" style="fill:none;fill-rule:evenodd;stroke:#000000;stroke-width:2.0px;stroke-linecap:butt;stroke-linejoin:miter;stroke-opacity:1"/>
<path class="bond-1 atom-1 atom-2" d="M 224.9,105.8 L 211.4,83.8" style="fill:none;fill-rule:evenodd;stroke:#000000;stroke-width:2.0px;stroke-linecap:butt;stroke-linejoin:miter;stroke-opacity:1"/>
<path class="bond-1 atom-1 atom-2" d="M 227.0,101.9 L 215.9,83.7" style="fill:none;fill-rule:evenodd;stroke:#000000;stroke-width:2.0px;stroke-linecap:butt;stroke-linejoin:miter;stroke-opacity:1"/>
<path class="bond-2 atom-2 atom-3" d="M 211.4,83.8 L 223.7,61.2" style="fill:none;fill-rule:evenodd;stroke:#000000;stroke-width:2.0px;stroke-linecap:butt;stroke-linejoin:miter;stroke-opacity:1"/>
<path class="bond-3 atom-3 atom-4" d="M 223.7,61.2 L 249.5,60.5" style="fill:none;fill-rule:evenodd;stroke:#000000;stroke-width:2.0px;stroke-linecap:butt;stroke-linejoin:miter;stroke-opacity:1"/>
<path class="bond-3 atom-3 atom-4" d="M 226.1,65.0 L 247.4,64.4" style="fill:none;fill-rule:evenodd;stroke:#000000;stroke-width:2.0px;stroke-linecap:butt;stroke-linejoin:miter;stroke-opacity:1"/>
<path class="bond-4 atom-4 atom-5" d="M 249.5,60.5 L 263.0,82.5" style="fill:none;fill-rule:evenodd;stroke:#000000;stroke-width:2.0px;stroke-linecap:butt;stroke-linejoin:miter;stroke-opacity:1"/>
<path class="bond-5 atom-5 atom-6" d="M 263.0,82.5 L 288.7,81.9" style="fill:none;fill-rule:evenodd;stroke:#000000;stroke-width:2.0px;stroke-linecap:butt;stroke-linejoin:miter;stroke-opacity:1"/>
<path class="bond-6 atom-6 atom-7" d="M 288.7,81.9 L 302.2,103.8" style="fill:none;fill-rule:evenodd;stroke:#000000;stroke-width:2.0px;stroke-linecap:butt;stroke-linejoin:miter;stroke-opacity:1"/>
<path class="bond-7 atom-7 atom-8" d="M 302.2,103.8 L 328.0,103.2" style="fill:none;fill-rule:evenodd;stroke:#000000;stroke-width:2.0px;stroke-linecap:butt;stroke-linejoin:miter;stroke-opacity:1"/>
<path class="bond-8 atom-8 atom-9" d="M 328.0,103.2 L 341.4,125.2" style="fill:none;fill-rule:evenodd;stroke:#000000;stroke-width:2.0px;stroke-linecap:butt;stroke-linejoin:miter;stroke-opacity:1"/>
<path class="bond-8 atom-8 atom-9" d="M 332.4,103.1 L 343.6,121.3" style="fill:none;fill-rule:evenodd;stroke:#000000;stroke-width:2.0px;stroke-linecap:butt;stroke-linejoin:miter;stroke-opacity:1"/>
<path class="bond-9 atom-9 atom-10" d="M 341.4,125.2 L 367.2,124.5" style="fill:none;fill-rule:evenodd;stroke:#000000;stroke-width:2.0px;stroke-linecap:butt;stroke-linejoin:miter;stroke-opacity:1"/>
<path class="bond-10 atom-10 atom-11" d="M 367.2,124.5 L 379.5,101.9" style="fill:none;fill-rule:evenodd;stroke:#000000;stroke-width:2.0px;stroke-linecap:butt;stroke-linejoin:miter;stroke-opacity:1"/>
<path class="bond-10 atom-10 atom-11" d="M 364.9,120.7 L 375.1,102.0" style="fill:none;fill-rule:evenodd;stroke:#000000;stroke-width:2.0px;stroke-linecap:butt;stroke-linejoin:miter;stroke-opacity:1"/>
<path class="bond-11 atom-11 atom-12" d="M 379.5,101.9 L 366.1,79.9" style="fill:none;fill-rule:evenodd;stroke:#000000;stroke-width:2.0px;stroke-linecap:butt;stroke-linejoin:miter;stroke-opacity:1"/>
<path class="bond-12 atom-12 atom-13" d="M 366.1,79.9 L 371.0,70.9" style="fill:none;fill-rule:evenodd;stroke:#000000;stroke-width:2.0px;stroke-linecap:butt;stroke-linejoin:miter;stroke-opacity:1"/>
<path class="bond-12 atom-12 atom-13" d="M 371.0,70.9 L 375.8,61.9" style="fill:none;fill-rule:evenodd;stroke:#FF0000;stroke-width:2.0px;stroke-linecap:butt;stroke-linejoin:miter;stroke-opacity:1"/>
<path class="bond-13 atom-12 atom-14" d="M 366.1,79.9 L 340.3,80.5" style="fill:none;fill-rule:evenodd;stroke:#000000;stroke-width:2.0px;stroke-linecap:butt;stroke-linejoin:miter;stroke-opacity:1"/>
<path class="bond-13 atom-12 atom-14" d="M 363.9,83.8 L 342.6,84.3" style="fill:none;fill-rule:evenodd;stroke:#000000;stroke-width:2.0px;stroke-linecap:butt;stroke-linejoin:miter;stroke-opacity:1"/>
<path class="bond-14 atom-14 atom-15" d="M 340.3,80.5 L 326.8,58.5" style="fill:none;fill-rule:evenodd;stroke:#000000;stroke-width:2.0px;stroke-linecap:butt;stroke-linejoin:miter;stroke-opacity:1"/>
<path class="bond-15 atom-5 atom-16" d="M 263.0,82.5 L 250.7,105.2" style="fill:none;fill-rule:evenodd;stroke:#000000;stroke-width:2.0px;stroke-linecap:butt;stroke-linejoin:miter;stroke-opacity:1"/>
<path class="bond-15 atom-5 atom-16" d="M 258.5,82.6 L 248.3,101.3" style="fill:none;fill-rule:evenodd;stroke:#000000;stroke-width:2.0px;stroke-linecap:butt;stroke-linejoin:miter;stroke-opacity:1"/>
<path class="bond-16 atom-16 atom-1" d="M 250.7,105.2 L 224.9,105.8" style="fill:none;fill-rule:evenodd;stroke:#000000;stroke-width:2.0px;stroke-linecap:butt;stroke-linejoin:miter;stroke-opacity:1"/>
<path class="bond-17 atom-14 atom-8" d="M 340.3,80.5 L 328.0,103.2" style="fill:none;fill-rule:evenodd;stroke:#000000;stroke-width:2.0px;stroke-linecap:butt;stroke-linejoin:miter;stroke-opacity:1"/>
<path d="M 212.1,84.9 L 211.4,83.8 L 212.0,82.7" style="fill:none;stroke:#000000;stroke-width:2.0px;stroke-linecap:butt;stroke-linejoin:miter;stroke-opacity:1;"/>
<path d="M 223.1,62.3 L 223.7,61.2 L 225.0,61.1" style="fill:none;stroke:#000000;stroke-width:2.0px;stroke-linecap:butt;stroke-linejoin:miter;stroke-opacity:1;"/>
<path d="M 248.2,60.5 L 249.5,60.5 L 250.2,61.6" style="fill:none;stroke:#000000;stroke-width:2.0px;stroke-linecap:butt;stroke-linejoin:miter;stroke-opacity:1;"/>
<path d="M 287.5,81.9 L 288.7,81.9 L 289.4,82.9" style="fill:none;stroke:#000000;stroke-width:2.0px;stroke-linecap:butt;stroke-linejoin:miter;stroke-opacity:1;"/>
<path d="M 301.5,102.7 L 302.2,103.8 L 303.5,103.8" style="fill:none;stroke:#000000;stroke-width:2.0px;stroke-linecap:butt;stroke-linejoin:miter;stroke-opacity:1;"/>
<path d="M 340.8,124.1 L 341.4,125.2 L 342.7,125.1" style="fill:none;stroke:#000000;stroke-width:2.0px;stroke-linecap:butt;stroke-linejoin:miter;stroke-opacity:1;"/>
<path d="M 365.9,124.6 L 367.2,124.5 L 367.8,123.4" style="fill:none;stroke:#000000;stroke-width:2.0px;stroke-linecap:butt;stroke-linejoin:miter;stroke-opacity:1;"/>
<path d="M 378.9,103.0 L 379.5,101.9 L 378.8,100.8" style="fill:none;stroke:#000000;stroke-width:2.0px;stroke-linecap:butt;stroke-linejoin:miter;stroke-opacity:1;"/>
<path d="M 251.3,104.0 L 250.7,105.2 L 249.4,105.2" style="fill:none;stroke:#000000;stroke-width:2.0px;stroke-linecap:butt;stroke-linejoin:miter;stroke-opacity:1;"/>
<path class="atom-13" d="M 375.0 57.3 Q 375.0 55.5, 375.9 54.5 Q 376.8 53.5, 378.4 53.5 Q 380.0 53.5, 380.9 54.5 Q 381.7 55.5, 381.7 57.3 Q 381.7 59.0, 380.9 60.0 Q 380.0 61.0, 378.4 61.0 Q 376.8 61.0, 375.9 60.0 Q 375.0 59.0, 375.0 57.3 M 378.4 60.2 Q 379.5 60.2, 380.1 59.5 Q 380.7 58.7, 380.7 57.3 Q 380.7 55.8, 380.1 55.1 Q 379.5 54.4, 378.4 54.4 Q 377.3 54.4, 376.7 55.1 Q 376.1 55.8, 376.1 57.3 Q 376.1 58.7, 376.7 59.5 Q 377.3 60.2, 378.4 60.2 " fill="#FF0000"/>
<path class="atom-13" d="M 382.9 53.6 L 383.9 53.6 L 383.9 56.7 L 387.6 56.7 L 387.6 53.6 L 388.6 53.6 L 388.6 60.9 L 387.6 60.9 L 387.6 57.5 L 383.9 57.5 L 383.9 60.9 L 382.9 60.9 L 382.9 53.6 " fill="#FF0000"/>
<path class="legend" d="M 301.7 184.0 Q 302.7 184.4, 303.3 185.0 Q 303.8 185.7, 303.8 186.7 Q 303.8 188.2, 302.8 189.1 Q 301.8 190.0, 300.0 190.0 L 296.2 190.0 L 296.2 178.7 L 299.5 178.7 Q 301.4 178.7, 302.4 179.5 Q 303.4 180.2, 303.4 181.7 Q 303.4 183.4, 301.7 184.0 M 297.7 180.0 L 297.7 183.5 L 299.5 183.5 Q 300.6 183.5, 301.2 183.1 Q 301.8 182.6, 301.8 181.7 Q 301.8 180.0, 299.5 180.0 L 297.7 180.0 M 300.0 188.7 Q 301.1 188.7, 301.7 188.2 Q 302.2 187.7, 302.2 186.7 Q 302.2 185.7, 301.6 185.3 Q 301.0 184.8, 299.7 184.8 L 297.7 184.8 L 297.7 188.7 L 300.0 188.7 " fill="#000000"/>
<path class="bond-0 atom-0 atom-1" d="M 590.0,142.7 L 565.4,134.9" style="fill:none;fill-rule:evenodd;stroke:#000000;stroke-width:2.0px;stroke-linecap:butt;stroke-linejoin:miter;stroke-opacity:1"/>
<path class="bond-1 atom-1 atom-2" d="M 565.4,134.9 L 559.9,109.7" style="fill:none;fill-rule:evenodd;stroke:#000000;stroke-width:2.0px;stroke-linecap:butt;stroke-linejoin:miter;stroke-opacity:1"/>
<path class="bond-2 atom-2 atom-3" d="M 559.9,109.7 L 535.3,101.9" style="fill:none;fill-rule:evenodd;stroke:#000000;stroke-width:2.0px;stroke-linecap:butt;stroke-linejoin:miter;stroke-opacity:1"/>
<path class="bond-3 atom-3 atom-4" d="M 535.3,101.9 L 529.8,76.7" style="fill:none;fill-rule:evenodd;stroke:#000000;stroke-width:2.0px;stroke-linecap:butt;stroke-linejoin:miter;stroke-opacity:1"/>
<path class="bond-4 atom-4 atom-5" d="M 529.8,76.7 L 505.3,68.9" style="fill:none;fill-rule:evenodd;stroke:#000000;stroke-width:2.0px;stroke-linecap:butt;stroke-linejoin:miter;stroke-opacity:1"/>
<path class="bond-5 atom-5 atom-6" d="M 505.3,68.9 L 486.2,86.2" style="fill:none;fill-rule:evenodd;stroke:#000000;stroke-width:2.0px;stroke-linecap:butt;stroke-linejoin:miter;stroke-opacity:1"/>
<path class="bond-6 atom-6 atom-7" d="M 486.2,86.2 L 461.6,78.4" style="fill:none;fill-rule:evenodd;stroke:#000000;stroke-width:2.0px;stroke-linecap:butt;stroke-linejoin:miter;stroke-opacity:1"/>
<path class="bond-7 atom-7 atom-8" d="M 461.6,78.4 L 442.6,95.8" style="fill:none;fill-rule:evenodd;stroke:#000000;stroke-width:2.0px;stroke-linecap:butt;stroke-linejoin:miter;stroke-opacity:1"/>
<path class="bond-8 atom-8 atom-9" d="M 442.6,95.8 L 425.2,76.7" style="fill:none;fill-rule:evenodd;stroke:#000000;stroke-width:2.0px;stroke-linecap:butt;stroke-linejoin:miter;stroke-opacity:1"/>
<path class="bond-9 atom-8 atom-10" d="M 442.6,95.8 L 460.0,114.8" style="fill:none;fill-rule:evenodd;stroke:#000000;stroke-width:2.0px;stroke-linecap:butt;stroke-linejoin:miter;stroke-opacity:1"/>
<path class="bond-10 atom-8 atom-11" d="M 442.6,95.8 L 423.5,113.1" style="fill:none;fill-rule:evenodd;stroke:#000000;stroke-width:2.0px;stroke-linecap:butt;stroke-linejoin:miter;stroke-opacity:1"/>
<path class="bond-11 atom-11 atom-12" d="M 423.5,113.1 L 429.1,138.3" style="fill:none;fill-rule:evenodd;stroke:#000000;stroke-width:2.0px;stroke-linecap:butt;stroke-linejoin:miter;stroke-opacity:1"/>
<path class="bond-12 atom-12 atom-13" d="M 429.1,138.3 L 410.0,155.7" style="fill:none;fill-rule:evenodd;stroke:#000000;stroke-width:2.0px;stroke-linecap:butt;stroke-linejoin:miter;stroke-opacity:1"/>
<path class="bond-13 atom-7 atom-14" d="M 461.6,78.4 L 456.1,53.2" style="fill:none;fill-rule:evenodd;stroke:#000000;stroke-width:2.0px;stroke-linecap:butt;stroke-linejoin:miter;stroke-opacity:1"/>
<path class="bond-14 atom-14 atom-15" d="M 456.1,53.2 L 475.2,35.9" style="fill:none;fill-rule:evenodd;stroke:#000000;stroke-width:2.0px;stroke-linecap:butt;stroke-linejoin:miter;stroke-opacity:1"/>
<path class="bond-15 atom-15 atom-16" d="M 475.2,35.9 L 499.8,43.7" style="fill:none;fill-rule:evenodd;stroke:#000000;stroke-width:2.0px;stroke-linecap:butt;stroke-linejoin:miter;stroke-opacity:1"/>
<path class="bond-16 atom-16 atom-17" d="M 499.8,43.7 L 518.8,26.3" style="fill:none;fill-rule:evenodd;stroke:#000000;stroke-width:2.0px;stroke-linecap:butt;stroke-linejoin:miter;stroke-opacity:1"/>
<path class="bond-17 atom-16 atom-5" d="M 499.8,43.7 L 505.3,68.9" style="fill:none;fill-rule:evenodd;stroke:#000000;stroke-width:2.0px;stroke-linecap:butt;stroke-linejoin:miter;stroke-opacity:1"/>
<path d="M 566.7,135.2 L 565.4,134.9 L 565.2,133.6" style="fill:none;stroke:#000000;stroke-width:2.0px;stroke-linecap:butt;stroke-linejoin:miter;stroke-opacity:1;"/>
<path d="M 560.2,110.9 L 559.9,109.7 L 558.7,109.3" style="fill:none;stroke:#000000;stroke-width:2.0px;stroke-linecap:butt;stroke-linejoin:miter;stroke-opacity:1;"/>
<path d="M 536.6,102.2 L 535.3,101.9 L 535.1,100.6" style="fill:none;stroke:#000000;stroke-width:2.0px;stroke-linecap:butt;stroke-linejoin:miter;stroke-opacity:1;"/>
<path d="M 530.1,77.9 L 529.8,76.7 L 528.6,76.3" style="fill:none;stroke:#000000;stroke-width:2.0px;stroke-linecap:butt;stroke-linejoin:miter;stroke-opacity:1;"/>
<path d="M 487.2,85.4 L 486.2,86.2 L 485.0,85.8" style="fill:none;stroke:#000000;stroke-width:2.0px;stroke-linecap:butt;stroke-linejoin:miter;stroke-opacity:1;"/>
<path d="M 424.5,112.3 L 423.5,113.1 L 423.8,114.4" style="fill:none;stroke:#000000;stroke-width:2.0px;stroke-linecap:butt;stroke-linejoin:miter;stroke-opacity:1;"/>
<path d="M 428.8,137.1 L 429.1,138.3 L 428.1,139.2" style="fill:none;stroke:#000000;stroke-width:2.0px;stroke-linecap:butt;stroke-linejoin:miter;stroke-opacity:1;"/>
<path d="M 456.4,54.5 L 456.1,53.2 L 457.1,52.4" style="fill:none;stroke:#000000;stroke-width:2.0px;stroke-linecap:butt;stroke-linejoin:miter;stroke-opacity:1;"/>
<path d="M 474.2,36.7 L 475.2,35.9 L 476.4,36.2" style="fill:none;stroke:#000000;stroke-width:2.0px;stroke-linecap:butt;stroke-linejoin:miter;stroke-opacity:1;"/>
<path class="legend" d="M 495.6 184.2 Q 495.6 181.4, 496.9 179.9 Q 498.3 178.4, 500.8 178.4 Q 503.1 178.4, 504.4 180.0 L 503.3 180.9 Q 502.4 179.7, 500.8 179.7 Q 499.1 179.7, 498.2 180.9 Q 497.3 182.0, 497.3 184.2 Q 497.3 186.4, 498.2 187.6 Q 499.1 188.7, 501.0 188.7 Q 502.2 188.7, 503.7 188.0 L 504.1 189.2 Q 503.5 189.6, 502.6 189.8 Q 501.7 190.0, 500.7 190.0 Q 498.3 190.0, 496.9 188.5 Q 495.6 187.0, 495.6 184.2 " fill="#000000"/>
</svg>