<svg xmlns="http://www.w3.org/2000/svg" xmlns:rdkit="http://www.rdkit.org/xml" xmlns:xlink="http://www.w3.org/1999/xlink" version="1.1" baseProfile="full" xml:space="preserve" width="800px" height="200px" viewBox="0 0 800 200">
<!-- END OF HEADER -->
<rect style="opacity:1.0;fill:#FFFFFF;stroke:none" width="800.0" height="200.0" x="0.0" y="0.0"> </rect>
<path class="bond-0 atom-0 atom-1" d="M 190.0,104.3 L 186.6,97.7" style="fill:none;fill-rule:evenodd;stroke:#000000;stroke-width:2.0px;stroke-linecap:butt;stroke-linejoin:miter;stroke-opacity:1"/>
<path class="bond-0 atom-0 atom-1" d="M 186.6,97.7 L 183.3,91.0" style="fill:none;fill-rule:evenodd;stroke:#FF0000;stroke-width:2.0px;stroke-linecap:butt;stroke-linejoin:miter;stroke-opacity:1"/>
<path class="bond-1 atom-1 atom-2" d="M 178.5,87.5 L 170.7,87.0" style="fill:none;fill-rule:evenodd;stroke:#FF0000;stroke-width:2.0px;stroke-linecap:butt;stroke-linejoin:miter;stroke-opacity:1"/>
<path class="bond-1 atom-1 atom-2" d="M 170.7,87.0 L 162.9,86.6" style="fill:none;fill-rule:evenodd;stroke:#000000;stroke-width:2.0px;stroke-linecap:butt;stroke-linejoin:miter;stroke-opacity:1"/>
<path class="bond-2 atom-2 atom-3" d="M 162.9,86.6 L 152.7,102.3" style="fill:none;fill-rule:evenodd;stroke:#000000;stroke-width:2.0px;stroke-linecap:butt;stroke-linejoin:miter;stroke-opacity:1"/>
<path class="bond-2 atom-2 atom-3" d="M 159.7,86.4 L 151.2,99.4" style="fill:none;fill-rule:evenodd;stroke:#000000;stroke-width:2.0px;stroke-linecap:butt;stroke-linejoin:miter;stroke-opacity:1"/>
<path class="bond-3 atom-3 atom-4" d="M 152.7,102.3 L 134.0,101.3" style="fill:none;fill-rule:evenodd;stroke:#000000;stroke-width:2.0px;stroke-linecap:butt;stroke-linejoin:miter;stroke-opacity:1"/>
<path class="bond-4 atom-4 atom-5" d="M 134.0,101.3 L 123.8,116.9" style="fill:none;fill-rule:evenodd;stroke:#000000;stroke-width:2.0px;stroke-linecap:butt;stroke-linejoin:miter;stroke-opacity:1"/>
<path class="bond-5 atom-5 atom-6" d="M 123.8,116.9 L 105.1,115.9" style="fill:none;fill-rule:evenodd;stroke:#000000;stroke-width:2.0px;stroke-linecap:butt;stroke-linejoin:miter;stroke-opacity:1"/>
<path class="bond-6 atom-6 atom-7" d="M 105.1,115.9 L 93.3,130.4" style="fill:none;fill-rule:evenodd;stroke:#000000;stroke-width:2.0px;stroke-linecap:butt;stroke-linejoin:miter;stroke-opacity:1"/>
<path class="bond-7 atom-7 atom-8" d="M 93.3,130.4 L 86.1,127.6" style="fill:none;fill-rule:evenodd;stroke:#000000;stroke-width:2.0px;stroke-linecap:butt;stroke-linejoin:miter;stroke-opacity:1"/>
<path class="bond-7 atom-7 atom-8" d="M 86.1,127.6 L 78.9,124.8" style="fill:none;fill-rule:evenodd;stroke:#FF0000;stroke-width:2.0px;stroke-linecap:butt;stroke-linejoin:miter;stroke-opacity:1"/>
<path class="bond-8 atom-8 atom-9" d="M 76.1,120.4 L 76.5,112.7" style="fill:none;fill-rule:evenodd;stroke:#FF0000;stroke-width:2.0px;stroke-linecap:butt;stroke-linejoin:miter;stroke-opacity:1"/>
<path class="bond-8 atom-8 atom-9" d="M 76.5,112.7 L 76.9,105.0" style="fill:none;fill-rule:evenodd;stroke:#000000;stroke-width:2.0px;stroke-linecap:butt;stroke-linejoin:miter;stroke-opacity:1"/>
<path class="bond-9 atom-9 atom-10" d="M 76.9,105.0 L 62.4,93.2" style="fill:none;fill-rule:evenodd;stroke:#000000;stroke-width:2.0px;stroke-linecap:butt;stroke-linejoin:miter;stroke-opacity:1"/>
<path class="bond-10 atom-10 atom-11" d="M 62.4,93.2 L 65.4,74.7" style="fill:none;fill-rule:evenodd;stroke:#000000;stroke-width:2.0px;stroke-linecap:butt;stroke-linejoin:miter;stroke-opacity:1"/>
<path class="bond-10 atom-10 atom-11" d="M 59.9,91.1 L 62.3,75.9" style="fill:none;fill-rule:evenodd;stroke:#000000;stroke-width:2.0px;stroke-linecap:butt;stroke-linejoin:miter;stroke-opacity:1"/>
<path class="bond-11 atom-11 atom-12" d="M 65.4,74.7 L 50.9,62.9" style="fill:none;fill-rule:evenodd;stroke:#000000;stroke-width:2.0px;stroke-linecap:butt;stroke-linejoin:miter;stroke-opacity:1"/>
<path class="bond-12 atom-12 atom-13" d="M 50.9,62.9 L 33.4,69.6" style="fill:none;fill-rule:evenodd;stroke:#000000;stroke-width:2.0px;stroke-linecap:butt;stroke-linejoin:miter;stroke-opacity:1"/>
<path class="bond-12 atom-12 atom-13" d="M 50.4,66.1 L 35.9,71.6" style="fill:none;fill-rule:evenodd;stroke:#000000;stroke-width:2.0px;stroke-linecap:butt;stroke-linejoin:miter;stroke-opacity:1"/>
<path class="bond-13 atom-13 atom-14" d="M 33.4,69.6 L 27.7,64.9" style="fill:none;fill-rule:evenodd;stroke:#000000;stroke-width:2.0px;stroke-linecap:butt;stroke-linejoin:miter;stroke-opacity:1"/>
<path class="bond-13 atom-13 atom-14" d="M 27.7,64.9 L 21.9,60.3" style="fill:none;fill-rule:evenodd;stroke:#FF0000;stroke-width:2.0px;stroke-linecap:butt;stroke-linejoin:miter;stroke-opacity:1"/>
<path class="bond-14 atom-13 atom-15" d="M 33.4,69.6 L 30.4,88.0" style="fill:none;fill-rule:evenodd;stroke:#000000;stroke-width:2.0px;stroke-linecap:butt;stroke-linejoin:miter;stroke-opacity:1"/>
<path class="bond-15 atom-15 atom-16" d="M 30.4,88.0 L 23.2,90.8" style="fill:none;fill-rule:evenodd;stroke:#000000;stroke-width:2.0px;stroke-linecap:butt;stroke-linejoin:miter;stroke-opacity:1"/>
<path class="bond-15 atom-15 atom-16" d="M 23.2,90.8 L 16.0,93.5" style="fill:none;fill-rule:evenodd;stroke:#FF0000;stroke-width:2.0px;stroke-linecap:butt;stroke-linejoin:miter;stroke-opacity:1"/>
<path class="bond-16 atom-16 atom-17" d="M 12.4,98.1 L 11.2,105.6" style="fill:none;fill-rule:evenodd;stroke:#FF0000;stroke-width:2.0px;stroke-linecap:butt;stroke-linejoin:miter;stroke-opacity:1"/>
<path class="bond-16 atom-16 atom-17" d="M 11.2,105.6 L 10.0,113.2" style="fill:none;fill-rule:evenodd;stroke:#000000;stroke-width:2.0px;stroke-linecap:butt;stroke-linejoin:miter;stroke-opacity:1"/>
<path class="bond-17 atom-15 atom-18" d="M 30.4,88.0 L 44.9,99.8" style="fill:none;fill-rule:evenodd;stroke:#000000;stroke-width:2.0px;stroke-linecap:butt;stroke-linejoin:miter;stroke-opacity:1"/>
<path class="bond-17 atom-15 atom-18" d="M 33.5,86.9 L 45.4,96.6" style="fill:none;fill-rule:evenodd;stroke:#000000;stroke-width:2.0px;stroke-linecap:butt;stroke-linejoin:miter;stroke-opacity:1"/>
<path class="bond-18 atom-9 atom-19" d="M 76.9,105.0 L 95.0,100.2" style="fill:none;fill-rule:evenodd;stroke:#000000;stroke-width:2.0px;stroke-linecap:butt;stroke-linejoin:miter;stroke-opacity:1"/>
<path class="bond-19 atom-19 atom-20" d="M 95.0,100.2 L 101.7,82.7" style="fill:none;fill-rule:evenodd;stroke:#000000;stroke-width:2.0px;stroke-linecap:butt;stroke-linejoin:miter;stroke-opacity:1"/>
<path class="bond-20 atom-20 atom-21" d="M 101.7,82.7 L 97.2,77.2" style="fill:none;fill-rule:evenodd;stroke:#000000;stroke-width:2.0px;stroke-linecap:butt;stroke-linejoin:miter;stroke-opacity:1"/>
<path class="bond-20 atom-20 atom-21" d="M 97.2,77.2 L 92.7,71.6" style="fill:none;fill-rule:evenodd;stroke:#FF0000;stroke-width:2.0px;stroke-linecap:butt;stroke-linejoin:miter;stroke-opacity:1"/>
<path class="bond-21 atom-4 atom-22" d="M 134.0,101.3 L 125.6,84.6" style="fill:none;fill-rule:evenodd;stroke:#000000;stroke-width:2.0px;stroke-linecap:butt;stroke-linejoin:miter;stroke-opacity:1"/>
<path class="bond-21 atom-4 atom-22" d="M 135.8,98.5 L 128.8,84.8" style="fill:none;fill-rule:evenodd;stroke:#000000;stroke-width:2.0px;stroke-linecap:butt;stroke-linejoin:miter;stroke-opacity:1"/>
<path class="bond-22 atom-22 atom-23" d="M 125.6,84.6 L 135.8,68.9" style="fill:none;fill-rule:evenodd;stroke:#000000;stroke-width:2.0px;stroke-linecap:butt;stroke-linejoin:miter;stroke-opacity:1"/>
<path class="bond-23 atom-23 atom-24" d="M 135.8,68.9 L 154.4,69.9" style="fill:none;fill-rule:evenodd;stroke:#000000;stroke-width:2.0px;stroke-linecap:butt;stroke-linejoin:miter;stroke-opacity:1"/>
<path class="bond-23 atom-23 atom-24" d="M 137.2,71.8 L 152.7,72.7" style="fill:none;fill-rule:evenodd;stroke:#000000;stroke-width:2.0px;stroke-linecap:butt;stroke-linejoin:miter;stroke-opacity:1"/>
<path class="bond-24 atom-24 atom-25" d="M 154.4,69.9 L 158.4,63.8" style="fill:none;fill-rule:evenodd;stroke:#000000;stroke-width:2.0px;stroke-linecap:butt;stroke-linejoin:miter;stroke-opacity:1"/>
<path class="bond-24 atom-24 atom-25" d="M 158.4,63.8 L 162.5,57.7" style="fill:none;fill-rule:evenodd;stroke:#FF0000;stroke-width:2.0px;stroke-linecap:butt;stroke-linejoin:miter;stroke-opacity:1"/>
<path class="bond-25 atom-24 atom-2" d="M 154.4,69.9 L 162.9,86.6" style="fill:none;fill-rule:evenodd;stroke:#000000;stroke-width:2.0px;stroke-linecap:butt;stroke-linejoin:miter;stroke-opacity:1"/>
<path class="bond-26 atom-19 atom-6" d="M 95.0,100.2 L 105.1,115.9" style="fill:none;fill-rule:evenodd;stroke:#000000;stroke-width:2.0px;stroke-linecap:butt;stroke-linejoin:miter;stroke-opacity:1"/>
<path class="bond-27 atom-18 atom-10" d="M 44.9,99.8 L 62.4,93.2" style="fill:none;fill-rule:evenodd;stroke:#000000;stroke-width:2.0px;stroke-linecap:butt;stroke-linejoin:miter;stroke-opacity:1"/>
<path d="M 153.2,101.5 L 152.7,102.3 L 151.7,102.2" style="fill:none;stroke:#000000;stroke-width:2.0px;stroke-linecap:butt;stroke-linejoin:miter;stroke-opacity:1;"/>
<path d="M 124.3,116.1 L 123.8,116.9 L 122.9,116.9" style="fill:none;stroke:#000000;stroke-width:2.0px;stroke-linecap:butt;stroke-linejoin:miter;stroke-opacity:1;"/>
<path d="M 93.9,129.7 L 93.3,130.4 L 93.0,130.2" style="fill:none;stroke:#000000;stroke-width:2.0px;stroke-linecap:butt;stroke-linejoin:miter;stroke-opacity:1;"/>
<path d="M 65.2,75.6 L 65.4,74.7 L 64.6,74.1" style="fill:none;stroke:#000000;stroke-width:2.0px;stroke-linecap:butt;stroke-linejoin:miter;stroke-opacity:1;"/>
<path d="M 51.6,63.5 L 50.9,62.9 L 50.0,63.3" style="fill:none;stroke:#000000;stroke-width:2.0px;stroke-linecap:butt;stroke-linejoin:miter;stroke-opacity:1;"/>
<path d="M 44.2,99.3 L 44.9,99.8 L 45.8,99.5" style="fill:none;stroke:#000000;stroke-width:2.0px;stroke-linecap:butt;stroke-linejoin:miter;stroke-opacity:1;"/>
<path d="M 101.4,83.6 L 101.7,82.7 L 101.5,82.5" style="fill:none;stroke:#000000;stroke-width:2.0px;stroke-linecap:butt;stroke-linejoin:miter;stroke-opacity:1;"/>
<path d="M 126.0,85.4 L 125.6,84.6 L 126.1,83.8" style="fill:none;stroke:#000000;stroke-width:2.0px;stroke-linecap:butt;stroke-linejoin:miter;stroke-opacity:1;"/>
<path d="M 135.3,69.7 L 135.8,68.9 L 136.7,69.0" style="fill:none;stroke:#000000;stroke-width:2.0px;stroke-linecap:butt;stroke-linejoin:miter;stroke-opacity:1;"/>
<path class="atom-1" d="M 179.1 87.7 Q 179.1 86.4, 179.7 85.7 Q 180.4 85.0, 181.6 85.0 Q 182.7 85.0, 183.4 85.7 Q 184.0 86.4, 184.0 87.7 Q 184.0 88.9, 183.3 89.7 Q 182.7 90.4, 181.6 90.4 Q 180.4 90.4, 179.7 89.7 Q 179.1 89.0, 179.1 87.7 M 181.6 89.8 Q 182.4 89.8, 182.8 89.3 Q 183.2 88.7, 183.2 87.7 Q 183.2 86.6, 182.8 86.1 Q 182.4 85.6, 181.6 85.6 Q 180.7 85.6, 180.3 86.1 Q 179.9 86.6, 179.9 87.7 Q 179.9 88.7, 180.3 89.3 Q 180.7 89.8, 181.6 89.8 " fill="#FF0000"/>
<path class="atom-8" d="M 73.5 123.7 Q 73.5 122.4, 74.1 121.7 Q 74.7 121.0, 75.9 121.0 Q 77.1 121.0, 77.7 121.7 Q 78.3 122.4, 78.3 123.7 Q 78.3 124.9, 77.7 125.7 Q 77.0 126.4, 75.9 126.4 Q 74.7 126.4, 74.1 125.7 Q 73.5 125.0, 73.5 123.7 M 75.9 125.8 Q 76.7 125.8, 77.1 125.3 Q 77.6 124.7, 77.6 123.7 Q 77.6 122.6, 77.1 122.1 Q 76.7 121.6, 75.9 121.6 Q 75.1 121.6, 74.6 122.1 Q 74.2 122.6, 74.2 123.7 Q 74.2 124.7, 74.6 125.3 Q 75.1 125.8, 75.9 125.8 " fill="#FF0000"/>
<path class="atom-14" d="M 11.2 55.2 L 12.0 55.2 L 12.0 57.4 L 14.7 57.4 L 14.7 55.2 L 15.4 55.2 L 15.4 60.5 L 14.7 60.5 L 14.7 58.0 L 12.0 58.0 L 12.0 60.5 L 11.2 60.5 L 11.2 55.2 " fill="#FF0000"/>
<path class="atom-14" d="M 16.5 57.8 Q 16.5 56.5, 17.1 55.8 Q 17.7 55.1, 18.9 55.1 Q 20.1 55.1, 20.7 55.8 Q 21.3 56.5, 21.3 57.8 Q 21.3 59.1, 20.7 59.8 Q 20.1 60.5, 18.9 60.5 Q 17.7 60.5, 17.1 59.8 Q 16.5 59.1, 16.5 57.8 M 18.9 60.0 Q 19.7 60.0, 20.1 59.4 Q 20.6 58.9, 20.6 57.8 Q 20.6 56.8, 20.1 56.2 Q 19.7 55.7, 18.9 55.7 Q 18.1 55.7, 17.7 56.2 Q 17.2 56.8, 17.2 57.8 Q 17.2 58.9, 17.7 59.4 Q 18.1 60.0, 18.9 60.0 " fill="#FF0000"/>
<path class="atom-16" d="M 10.5 94.7 Q 10.5 93.4, 11.2 92.7 Q 11.8 92.0, 13.0 92.0 Q 14.1 92.0, 14.8 92.7 Q 15.4 93.4, 15.4 94.7 Q 15.4 96.0, 14.8 96.7 Q 14.1 97.5, 13.0 97.5 Q 11.8 97.5, 11.2 96.7 Q 10.5 96.0, 10.5 94.7 M 13.0 96.9 Q 13.8 96.9, 14.2 96.3 Q 14.6 95.8, 14.6 94.7 Q 14.6 93.7, 14.2 93.2 Q 13.8 92.6, 13.0 92.6 Q 12.2 92.6, 11.7 93.1 Q 11.3 93.7, 11.3 94.7 Q 11.3 95.8, 11.7 96.3 Q 12.2 96.9, 13.0 96.9 " fill="#FF0000"/>
<path class="atom-21" d="M 82.3 65.6 L 83.0 65.6 L 83.0 67.8 L 85.7 67.8 L 85.7 65.6 L 86.5 65.6 L 86.5 70.9 L 85.7 70.9 L 85.7 68.4 L 83.0 68.4 L 83.0 70.9 L 82.3 70.9 L 82.3 65.6 " fill="#FF0000"/>
<path class="atom-21" d="M 87.6 68.2 Q 87.6 66.9, 88.2 66.2 Q 88.8 65.5, 90.0 65.5 Q 91.2 65.5, 91.8 66.2 Q 92.4 66.9, 92.4 68.2 Q 92.4 69.5, 91.8 70.2 Q 91.1 71.0, 90.0 71.0 Q 88.8 71.0, 88.2 70.2 Q 87.6 69.5, 87.6 68.2 M 90.0 70.4 Q 90.8 70.4, 91.2 69.8 Q 91.7 69.3, 91.7 68.2 Q 91.7 67.2, 91.2 66.6 Q 90.8 66.1, 90.0 66.1 Q 89.2 66.1, 88.7 66.6 Q 88.3 67.2, 88.3 68.2 Q 88.3 69.3, 88.7 69.8 Q 89.2 70.4, 90.0 70.4 " fill="#FF0000"/>
<path class="atom-25" d="M 162.2 54.3 Q 162.2 53.0, 162.9 52.3 Q 163.5 51.6, 164.7 51.6 Q 165.8 51.6, 166.5 52.3 Q 167.1 53.0, 167.1 54.3 Q 167.1 55.6, 166.4 56.3 Q 165.8 57.0, 164.7 57.0 Q 163.5 57.0, 162.9 56.3 Q 162.2 55.6, 162.2 54.3 M 164.7 56.5 Q 165.5 56.5, 165.9 55.9 Q 166.3 55.4, 166.3 54.3 Q 166.3 53.3, 165.9 52.7 Q 165.5 52.2, 164.7 52.2 Q 163.8 52.2, 163.4 52.7 Q 163.0 53.3, 163.0 54.3 Q 163.0 55.4, 163.4 55.9 Q 163.8 56.5, 164.7 56.5 " fill="#FF0000"/>
<path class="atom-25" d="M 167.9 51.7 L 168.6 51.7 L 168.6 53.9 L 171.3 53.9 L 171.3 51.7 L 172.1 51.7 L 172.1 57.0 L 171.3 57.0 L 171.3 54.5 L 168.6 54.5 L 168.6 57.0 L 167.9 57.0 L 167.9 51.7 " fill="#FF0000"/>
<path class="legend" d="M 101.7 184.0 Q 102.7 184.4, 103.3 185.0 Q 103.8 185.7, 103.8 186.7 Q 103.8 188.2, 102.8 189.1 Q 101.8 190.0, 100.0 190.0 L 96.2 190.0 L 96.2 178.7 L 99.5 178.7 Q 101.4 178.7, 102.4 179.5 Q 103.4 180.2, 103.4 181.7 Q 103.4 183.4, 101.7 184.0 M 97.7 180.0 L 97.7 183.5 L 99.5 183.5 Q 100.6 183.5, 101.2 183.1 Q 101.8 182.6, 101.8 181.7 Q 101.8 180.0, 99.5 180.0 L 97.7 180.0 M 100.0 188.7 Q 101.1 188.7, 101.7 188.2 Q 102.2 187.7, 102.2 186.7 Q 102.2 185.7, 101.6 185.3 Q 101.0 184.8, 99.7 184.8 L 97.7 184.8 L 97.7 188.7 L 100.0 188.7 " fill="#000000"/>
<path class="bond-0 atom-0 atom-1" d="M 274.2,144.5 L 279.7,139.7" style="fill:none;fill-rule:evenodd;stroke:#000000;stroke-width:2.0px;stroke-linecap:butt;stroke-linejoin:miter;stroke-opacity:1"/>
<path class="bond-0 atom-0 atom-1" d="M 279.7,139.7 L 285.3,134.9" style="fill:none;fill-rule:evenodd;stroke:#FF0000;stroke-width:2.0px;stroke-linecap:butt;stroke-linejoin:miter;stroke-opacity:1"/>
<path class="bond-1 atom-1 atom-2" d="M 287.7,129.0 L 286.3,121.5" style="fill:none;fill-rule:evenodd;stroke:#FF0000;stroke-width:2.0px;stroke-linecap:butt;stroke-linejoin:miter;stroke-opacity:1"/>
<path class="bond-1 atom-1 atom-2" d="M 286.3,121.5 L 284.9,113.9" style="fill:none;fill-rule:evenodd;stroke:#000000;stroke-width:2.0px;stroke-linecap:butt;stroke-linejoin:miter;stroke-opacity:1"/>
<path class="bond-2 atom-2 atom-3" d="M 284.9,113.9 L 267.2,107.7" style="fill:none;fill-rule:evenodd;stroke:#000000;stroke-width:2.0px;stroke-linecap:butt;stroke-linejoin:miter;stroke-opacity:1"/>
<path class="bond-2 atom-2 atom-3" d="M 284.3,110.7 L 269.7,105.6" style="fill:none;fill-rule:evenodd;stroke:#000000;stroke-width:2.0px;stroke-linecap:butt;stroke-linejoin:miter;stroke-opacity:1"/>
<path class="bond-3 atom-3 atom-4" d="M 267.2,107.7 L 263.8,89.3" style="fill:none;fill-rule:evenodd;stroke:#000000;stroke-width:2.0px;stroke-linecap:butt;stroke-linejoin:miter;stroke-opacity:1"/>
<path class="bond-4 atom-4 atom-5" d="M 263.8,89.3 L 246.1,83.2" style="fill:none;fill-rule:evenodd;stroke:#000000;stroke-width:2.0px;stroke-linecap:butt;stroke-linejoin:miter;stroke-opacity:1"/>
<path class="bond-5 atom-5 atom-6" d="M 246.1,83.2 L 242.7,64.8" style="fill:none;fill-rule:evenodd;stroke:#000000;stroke-width:2.0px;stroke-linecap:butt;stroke-linejoin:miter;stroke-opacity:1"/>
<path class="bond-6 atom-6 atom-7" d="M 242.7,64.8 L 225.1,58.6" style="fill:none;fill-rule:evenodd;stroke:#000000;stroke-width:2.0px;stroke-linecap:butt;stroke-linejoin:miter;stroke-opacity:1"/>
<path class="bond-7 atom-7 atom-8" d="M 225.1,58.6 L 223.6,51.1" style="fill:none;fill-rule:evenodd;stroke:#000000;stroke-width:2.0px;stroke-linecap:butt;stroke-linejoin:miter;stroke-opacity:1"/>
<path class="bond-7 atom-7 atom-8" d="M 223.6,51.1 L 222.2,43.6" style="fill:none;fill-rule:evenodd;stroke:#FF0000;stroke-width:2.0px;stroke-linecap:butt;stroke-linejoin:miter;stroke-opacity:1"/>
<path class="bond-8 atom-4 atom-9" d="M 263.8,89.3 L 278.0,77.2" style="fill:none;fill-rule:evenodd;stroke:#000000;stroke-width:2.0px;stroke-linecap:butt;stroke-linejoin:miter;stroke-opacity:1"/>
<path class="bond-8 atom-4 atom-9" d="M 266.8,90.4 L 278.6,80.4" style="fill:none;fill-rule:evenodd;stroke:#000000;stroke-width:2.0px;stroke-linecap:butt;stroke-linejoin:miter;stroke-opacity:1"/>
<path class="bond-9 atom-9 atom-10" d="M 278.0,77.2 L 295.6,83.4" style="fill:none;fill-rule:evenodd;stroke:#000000;stroke-width:2.0px;stroke-linecap:butt;stroke-linejoin:miter;stroke-opacity:1"/>
<path class="bond-10 atom-10 atom-11" d="M 295.6,83.4 L 299.1,101.7" style="fill:none;fill-rule:evenodd;stroke:#000000;stroke-width:2.0px;stroke-linecap:butt;stroke-linejoin:miter;stroke-opacity:1"/>
<path class="bond-10 atom-10 atom-11" d="M 293.2,85.5 L 296.0,100.7" style="fill:none;fill-rule:evenodd;stroke:#000000;stroke-width:2.0px;stroke-linecap:butt;stroke-linejoin:miter;stroke-opacity:1"/>
<path class="bond-11 atom-11 atom-12" d="M 299.1,101.7 L 306.4,104.3" style="fill:none;fill-rule:evenodd;stroke:#000000;stroke-width:2.0px;stroke-linecap:butt;stroke-linejoin:miter;stroke-opacity:1"/>
<path class="bond-11 atom-11 atom-12" d="M 306.4,104.3 L 313.7,106.9" style="fill:none;fill-rule:evenodd;stroke:#FF0000;stroke-width:2.0px;stroke-linecap:butt;stroke-linejoin:miter;stroke-opacity:1"/>
<path class="bond-12 atom-12 atom-13" d="M 319.7,105.3 L 325.3,100.5" style="fill:none;fill-rule:evenodd;stroke:#FF0000;stroke-width:2.0px;stroke-linecap:butt;stroke-linejoin:miter;stroke-opacity:1"/>
<path class="bond-12 atom-12 atom-13" d="M 325.3,100.5 L 330.9,95.7" style="fill:none;fill-rule:evenodd;stroke:#000000;stroke-width:2.0px;stroke-linecap:butt;stroke-linejoin:miter;stroke-opacity:1"/>
<path class="bond-13 atom-13 atom-14" d="M 330.9,95.7 L 338.2,98.3" style="fill:none;fill-rule:evenodd;stroke:#000000;stroke-width:2.0px;stroke-linecap:butt;stroke-linejoin:miter;stroke-opacity:1"/>
<path class="bond-13 atom-13 atom-14" d="M 338.2,98.3 L 345.5,100.9" style="fill:none;fill-rule:evenodd;stroke:#FF0000;stroke-width:2.0px;stroke-linecap:butt;stroke-linejoin:miter;stroke-opacity:1"/>
<path class="bond-14 atom-14 atom-15" d="M 351.6,99.3 L 357.1,94.5" style="fill:none;fill-rule:evenodd;stroke:#FF0000;stroke-width:2.0px;stroke-linecap:butt;stroke-linejoin:miter;stroke-opacity:1"/>
<path class="bond-14 atom-14 atom-15" d="M 357.1,94.5 L 362.7,89.8" style="fill:none;fill-rule:evenodd;stroke:#000000;stroke-width:2.0px;stroke-linecap:butt;stroke-linejoin:miter;stroke-opacity:1"/>
<path class="bond-15 atom-15 atom-16" d="M 362.7,89.8 L 359.3,71.4" style="fill:none;fill-rule:evenodd;stroke:#000000;stroke-width:2.0px;stroke-linecap:butt;stroke-linejoin:miter;stroke-opacity:1"/>
<path class="bond-16 atom-16 atom-17" d="M 359.3,71.4 L 364.8,66.6" style="fill:none;fill-rule:evenodd;stroke:#000000;stroke-width:2.0px;stroke-linecap:butt;stroke-linejoin:miter;stroke-opacity:1"/>
<path class="bond-16 atom-16 atom-17" d="M 364.8,66.6 L 370.4,61.8" style="fill:none;fill-rule:evenodd;stroke:#FF0000;stroke-width:2.0px;stroke-linecap:butt;stroke-linejoin:miter;stroke-opacity:1"/>
<path class="bond-17 atom-16 atom-18" d="M 359.3,71.4 L 341.6,65.2" style="fill:none;fill-rule:evenodd;stroke:#000000;stroke-width:2.0px;stroke-linecap:butt;stroke-linejoin:miter;stroke-opacity:1"/>
<path class="bond-18 atom-18 atom-19" d="M 341.6,65.2 L 340.2,57.7" style="fill:none;fill-rule:evenodd;stroke:#000000;stroke-width:2.0px;stroke-linecap:butt;stroke-linejoin:miter;stroke-opacity:1"/>
<path class="bond-18 atom-18 atom-19" d="M 340.2,57.7 L 338.8,50.2" style="fill:none;fill-rule:evenodd;stroke:#FF0000;stroke-width:2.0px;stroke-linecap:butt;stroke-linejoin:miter;stroke-opacity:1"/>
<path class="bond-19 atom-18 atom-20" d="M 341.6,65.2 L 327.4,77.4" style="fill:none;fill-rule:evenodd;stroke:#000000;stroke-width:2.0px;stroke-linecap:butt;stroke-linejoin:miter;stroke-opacity:1"/>
<path class="bond-20 atom-20 atom-21" d="M 327.4,77.4 L 320.1,74.8" style="fill:none;fill-rule:evenodd;stroke:#000000;stroke-width:2.0px;stroke-linecap:butt;stroke-linejoin:miter;stroke-opacity:1"/>
<path class="bond-20 atom-20 atom-21" d="M 320.1,74.8 L 312.8,72.3" style="fill:none;fill-rule:evenodd;stroke:#FF0000;stroke-width:2.0px;stroke-linecap:butt;stroke-linejoin:miter;stroke-opacity:1"/>
<path class="bond-21 atom-11 atom-2" d="M 299.1,101.7 L 284.9,113.9" style="fill:none;fill-rule:evenodd;stroke:#000000;stroke-width:2.0px;stroke-linecap:butt;stroke-linejoin:miter;stroke-opacity:1"/>
<path class="bond-22 atom-20 atom-13" d="M 327.4,77.4 L 330.9,95.7" style="fill:none;fill-rule:evenodd;stroke:#000000;stroke-width:2.0px;stroke-linecap:butt;stroke-linejoin:miter;stroke-opacity:1"/>
<path d="M 268.1,108.0 L 267.2,107.7 L 267.1,106.8" style="fill:none;stroke:#000000;stroke-width:2.0px;stroke-linecap:butt;stroke-linejoin:miter;stroke-opacity:1;"/>
<path d="M 247.0,83.5 L 246.1,83.2 L 246.0,82.2" style="fill:none;stroke:#000000;stroke-width:2.0px;stroke-linecap:butt;stroke-linejoin:miter;stroke-opacity:1;"/>
<path d="M 242.9,65.7 L 242.7,64.8 L 241.8,64.5" style="fill:none;stroke:#000000;stroke-width:2.0px;stroke-linecap:butt;stroke-linejoin:miter;stroke-opacity:1;"/>
<path d="M 225.9,58.9 L 225.1,58.6 L 225.0,58.2" style="fill:none;stroke:#000000;stroke-width:2.0px;stroke-linecap:butt;stroke-linejoin:miter;stroke-opacity:1;"/>
<path d="M 277.3,77.8 L 278.0,77.2 L 278.9,77.5" style="fill:none;stroke:#000000;stroke-width:2.0px;stroke-linecap:butt;stroke-linejoin:miter;stroke-opacity:1;"/>
<path d="M 294.7,83.1 L 295.6,83.4 L 295.8,84.3" style="fill:none;stroke:#000000;stroke-width:2.0px;stroke-linecap:butt;stroke-linejoin:miter;stroke-opacity:1;"/>
<path d="M 362.4,90.0 L 362.7,89.8 L 362.5,88.8" style="fill:none;stroke:#000000;stroke-width:2.0px;stroke-linecap:butt;stroke-linejoin:miter;stroke-opacity:1;"/>
<path class="atom-1" d="M 285.9 132.3 Q 285.9 131.0, 286.5 130.3 Q 287.2 129.6, 288.3 129.6 Q 289.5 129.6, 290.1 130.3 Q 290.8 131.0, 290.8 132.3 Q 290.8 133.6, 290.1 134.3 Q 289.5 135.0, 288.3 135.0 Q 287.2 135.0, 286.5 134.3 Q 285.9 133.6, 285.9 132.3 M 288.3 134.4 Q 289.1 134.4, 289.6 133.9 Q 290.0 133.4, 290.0 132.3 Q 290.0 131.3, 289.6 130.7 Q 289.1 130.2, 288.3 130.2 Q 287.5 130.2, 287.1 130.7 Q 286.7 131.3, 286.7 132.3 Q 286.7 133.4, 287.1 133.9 Q 287.5 134.4, 288.3 134.4 " fill="#FF0000"/>
<path class="atom-8" d="M 219.2 40.2 Q 219.2 39.0, 219.8 38.2 Q 220.4 37.5, 221.6 37.5 Q 222.8 37.5, 223.4 38.2 Q 224.0 39.0, 224.0 40.2 Q 224.0 41.5, 223.4 42.2 Q 222.8 43.0, 221.6 43.0 Q 220.4 43.0, 219.8 42.2 Q 219.2 41.5, 219.2 40.2 M 221.6 42.4 Q 222.4 42.4, 222.8 41.8 Q 223.3 41.3, 223.3 40.2 Q 223.3 39.2, 222.8 38.7 Q 222.4 38.1, 221.6 38.1 Q 220.8 38.1, 220.4 38.7 Q 219.9 39.2, 219.9 40.2 Q 219.9 41.3, 220.4 41.8 Q 220.8 42.4, 221.6 42.4 " fill="#FF0000"/>
<path class="atom-8" d="M 224.9 37.6 L 225.6 37.6 L 225.6 39.8 L 228.3 39.8 L 228.3 37.6 L 229.0 37.6 L 229.0 42.9 L 228.3 42.9 L 228.3 40.4 L 225.6 40.4 L 225.6 42.9 L 224.9 42.9 L 224.9 37.6 " fill="#FF0000"/>
<path class="atom-12" d="M 314.3 107.9 Q 314.3 106.7, 314.9 106.0 Q 315.5 105.3, 316.7 105.3 Q 317.9 105.3, 318.5 106.0 Q 319.1 106.7, 319.1 107.9 Q 319.1 109.2, 318.5 110.0 Q 317.9 110.7, 316.7 110.7 Q 315.5 110.7, 314.9 110.0 Q 314.3 109.2, 314.3 107.9 M 316.7 110.1 Q 317.5 110.1, 317.9 109.6 Q 318.4 109.0, 318.4 107.9 Q 318.4 106.9, 317.9 106.4 Q 317.5 105.8, 316.7 105.8 Q 315.9 105.8, 315.5 106.4 Q 315.0 106.9, 315.0 107.9 Q 315.0 109.0, 315.5 109.6 Q 315.9 110.1, 316.7 110.1 " fill="#FF0000"/>
<path class="atom-14" d="M 346.1 102.0 Q 346.1 100.7, 346.7 100.0 Q 347.3 99.3, 348.5 99.3 Q 349.7 99.3, 350.3 100.0 Q 351.0 100.7, 351.0 102.0 Q 351.0 103.2, 350.3 104.0 Q 349.7 104.7, 348.5 104.7 Q 347.4 104.7, 346.7 104.0 Q 346.1 103.3, 346.1 102.0 M 348.5 104.1 Q 349.3 104.1, 349.8 103.6 Q 350.2 103.0, 350.2 102.0 Q 350.2 100.9, 349.8 100.4 Q 349.3 99.9, 348.5 99.9 Q 347.7 99.9, 347.3 100.4 Q 346.8 100.9, 346.8 102.0 Q 346.8 103.0, 347.3 103.6 Q 347.7 104.1, 348.5 104.1 " fill="#FF0000"/>
<path class="atom-17" d="M 371.0 59.2 Q 371.0 58.0, 371.6 57.2 Q 372.3 56.5, 373.4 56.5 Q 374.6 56.5, 375.2 57.2 Q 375.9 58.0, 375.9 59.2 Q 375.9 60.5, 375.2 61.2 Q 374.6 62.0, 373.4 62.0 Q 372.3 62.0, 371.6 61.2 Q 371.0 60.5, 371.0 59.2 M 373.4 61.4 Q 374.2 61.4, 374.7 60.8 Q 375.1 60.3, 375.1 59.2 Q 375.1 58.2, 374.7 57.7 Q 374.2 57.1, 373.4 57.1 Q 372.6 57.1, 372.2 57.7 Q 371.8 58.2, 371.8 59.2 Q 371.8 60.3, 372.2 60.8 Q 372.6 61.4, 373.4 61.4 " fill="#FF0000"/>
<path class="atom-17" d="M 376.7 56.6 L 377.4 56.6 L 377.4 58.8 L 380.1 58.8 L 380.1 56.6 L 380.8 56.6 L 380.8 61.9 L 380.1 61.9 L 380.1 59.4 L 377.4 59.4 L 377.4 61.9 L 376.7 61.9 L 376.7 56.6 " fill="#FF0000"/>
<path class="atom-19" d="M 335.7 46.8 Q 335.7 45.6, 336.4 44.9 Q 337.0 44.2, 338.2 44.2 Q 339.3 44.2, 340.0 44.9 Q 340.6 45.6, 340.6 46.8 Q 340.6 48.1, 340.0 48.9 Q 339.3 49.6, 338.2 49.6 Q 337.0 49.6, 336.4 48.9 Q 335.7 48.1, 335.7 46.8 M 338.2 49.0 Q 339.0 49.0, 339.4 48.5 Q 339.8 47.9, 339.8 46.8 Q 339.8 45.8, 339.4 45.3 Q 339.0 44.7, 338.2 44.7 Q 337.3 44.7, 336.9 45.3 Q 336.5 45.8, 336.5 46.8 Q 336.5 47.9, 336.9 48.5 Q 337.3 49.0, 338.2 49.0 " fill="#FF0000"/>
<path class="atom-19" d="M 341.4 44.2 L 342.1 44.2 L 342.1 46.5 L 344.8 46.5 L 344.8 44.2 L 345.6 44.2 L 345.6 49.5 L 344.8 49.5 L 344.8 47.1 L 342.1 47.1 L 342.1 49.5 L 341.4 49.5 L 341.4 44.2 " fill="#FF0000"/>
<path class="atom-21" d="M 302.1 68.6 L 302.9 68.6 L 302.9 70.8 L 305.6 70.8 L 305.6 68.6 L 306.3 68.6 L 306.3 73.9 L 305.6 73.9 L 305.6 71.4 L 302.9 71.4 L 302.9 73.9 L 302.1 73.9 L 302.1 68.6 " fill="#FF0000"/>
<path class="atom-21" d="M 307.4 71.2 Q 307.4 69.9, 308.0 69.2 Q 308.6 68.5, 309.8 68.5 Q 311.0 68.5, 311.6 69.2 Q 312.2 69.9, 312.2 71.2 Q 312.2 72.5, 311.6 73.2 Q 310.9 73.9, 309.8 73.9 Q 308.6 73.9, 308.0 73.2 Q 307.4 72.5, 307.4 71.2 M 309.8 73.3 Q 310.6 73.3, 311.0 72.8 Q 311.5 72.3, 311.5 71.2 Q 311.5 70.2, 311.0 69.6 Q 310.6 69.1, 309.8 69.1 Q 309.0 69.1, 308.5 69.6 Q 308.1 70.2, 308.1 71.2 Q 308.1 72.3, 308.5 72.8 Q 309.0 73.3, 309.8 73.3 " fill="#FF0000"/>
<path class="legend" d="M 295.6 184.2 Q 295.6 181.4, 296.9 179.9 Q 298.3 178.4, 300.8 178.4 Q 303.1 178.4, 304.4 180.0 L 303.3 180.9 Q 302.4 179.7, 300.8 179.7 Q 299.1 179.7, 298.2 180.9 Q 297.3 182.0, 297.3 184.2 Q 297.3 186.4, 298.2 187.6 Q 299.1 188.7, 301.0 188.7 Q 302.2 188.7, 303.7 188.0 L 304.1 189.2 Q 303.5 189.6, 302.6 189.8 Q 301.7 190.0, 300.7 190.0 Q 298.3 190.0, 296.9 188.5 Q 295.6 187.0, 295.6 184.2 " fill="#000000"/>
<path class="bond-0 atom-0 atom-1" d="M 552.2,74.9 L 536.9,85.7" style="fill:none;fill-rule:evenodd;stroke:#000000;stroke-width:2.0px;stroke-linecap:butt;stroke-linejoin:miter;stroke-opacity:1"/>
<path class="bond-1 atom-1 atom-2" d="M 535.4,85.0 L 536.2,93.1" style="fill:none;fill-rule:evenodd;stroke:#000000;stroke-width:2.0px;stroke-linecap:butt;stroke-linejoin:miter;stroke-opacity:1"/>
<path class="bond-1 atom-1 atom-2" d="M 536.2,93.1 L 536.9,101.1" style="fill:none;fill-rule:evenodd;stroke:#FF0000;stroke-width:2.0px;stroke-linecap:butt;stroke-linejoin:miter;stroke-opacity:1"/>
<path class="bond-1 atom-1 atom-2" d="M 538.2,84.8 L 539.0,92.8" style="fill:none;fill-rule:evenodd;stroke:#000000;stroke-width:2.0px;stroke-linecap:butt;stroke-linejoin:miter;stroke-opacity:1;stroke-dasharray:6,4"/>
<path class="bond-1 atom-1 atom-2" d="M 539.0,92.8 L 539.7,100.9" style="fill:none;fill-rule:evenodd;stroke:#FF0000;stroke-width:2.0px;stroke-linecap:butt;stroke-linejoin:miter;stroke-opacity:1;stroke-dasharray:6,4"/>
<path class="bond-2 atom-1 atom-3" d="M 536.9,85.7 L 520.0,77.8" style="fill:none;fill-rule:evenodd;stroke:#000000;stroke-width:2.0px;stroke-linecap:butt;stroke-linejoin:miter;stroke-opacity:1"/>
<path class="bond-2 atom-1 atom-3" d="M 534.3,87.5 L 520.2,81.0" style="fill:none;fill-rule:evenodd;stroke:#000000;stroke-width:2.0px;stroke-linecap:butt;stroke-linejoin:miter;stroke-opacity:1;stroke-dasharray:6,4"/>
<path class="bond-3 atom-3 atom-4" d="M 520.0,77.8 L 504.7,88.5" style="fill:none;fill-rule:evenodd;stroke:#000000;stroke-width:2.0px;stroke-linecap:butt;stroke-linejoin:miter;stroke-opacity:1"/>
<path class="bond-3 atom-3 atom-4" d="M 520.2,81.0 L 506.3,90.8" style="fill:none;fill-rule:evenodd;stroke:#000000;stroke-width:2.0px;stroke-linecap:butt;stroke-linejoin:miter;stroke-opacity:1;stroke-dasharray:6,4"/>
<path class="bond-4 atom-4 atom-5" d="M 504.7,88.5 L 487.7,80.7" style="fill:none;fill-rule:evenodd;stroke:#000000;stroke-width:2.0px;stroke-linecap:butt;stroke-linejoin:miter;stroke-opacity:1"/>
<path class="bond-4 atom-4 atom-5" d="M 504.4,85.3 L 488.9,78.1" style="fill:none;fill-rule:evenodd;stroke:#000000;stroke-width:2.0px;stroke-linecap:butt;stroke-linejoin:miter;stroke-opacity:1;stroke-dasharray:6,4"/>
<path class="bond-5 atom-5 atom-6" d="M 487.7,80.7 L 472.4,91.4" style="fill:none;fill-rule:evenodd;stroke:#000000;stroke-width:2.0px;stroke-linecap:butt;stroke-linejoin:miter;stroke-opacity:1"/>
<path class="bond-6 atom-6 atom-7" d="M 472.4,91.4 L 465.5,88.2" style="fill:none;fill-rule:evenodd;stroke:#000000;stroke-width:2.0px;stroke-linecap:butt;stroke-linejoin:miter;stroke-opacity:1"/>
<path class="bond-6 atom-6 atom-7" d="M 465.5,88.2 L 458.5,85.0" style="fill:none;fill-rule:evenodd;stroke:#FF0000;stroke-width:2.0px;stroke-linecap:butt;stroke-linejoin:miter;stroke-opacity:1"/>
<path d="M 520.8,78.2 L 520.0,77.8 L 519.2,78.3" style="fill:none;stroke:#000000;stroke-width:2.0px;stroke-linecap:butt;stroke-linejoin:miter;stroke-opacity:1;"/>
<path d="M 505.4,88.0 L 504.7,88.5 L 503.8,88.2" style="fill:none;stroke:#000000;stroke-width:2.0px;stroke-linecap:butt;stroke-linejoin:miter;stroke-opacity:1;"/>
<path d="M 488.6,81.1 L 487.7,80.7 L 486.9,81.2" style="fill:none;stroke:#000000;stroke-width:2.0px;stroke-linecap:butt;stroke-linejoin:miter;stroke-opacity:1;"/>
<path d="M 473.2,90.9 L 472.4,91.4 L 472.1,91.3" style="fill:none;stroke:#000000;stroke-width:2.0px;stroke-linecap:butt;stroke-linejoin:miter;stroke-opacity:1;"/>
<path class="atom-2" d="M 536.1 104.3 Q 536.1 103.0, 536.8 102.3 Q 537.4 101.6, 538.6 101.6 Q 539.7 101.6, 540.4 102.3 Q 541.0 103.0, 541.0 104.3 Q 541.0 105.6, 540.4 106.3 Q 539.7 107.1, 538.6 107.1 Q 537.4 107.1, 536.8 106.3 Q 536.1 105.6, 536.1 104.3 M 538.6 106.5 Q 539.4 106.5, 539.8 105.9 Q 540.2 105.4, 540.2 104.3 Q 540.2 103.3, 539.8 102.8 Q 539.4 102.2, 538.6 102.2 Q 537.8 102.2, 537.3 102.7 Q 536.9 103.3, 536.9 104.3 Q 536.9 105.4, 537.3 105.9 Q 537.8 106.5, 538.6 106.5 " fill="#FF0000"/>
<path class="atom-7" d="M 447.8 80.9 L 448.5 80.9 L 448.5 83.2 L 451.2 83.2 L 451.2 80.9 L 451.9 80.9 L 451.9 86.2 L 451.2 86.2 L 451.2 83.8 L 448.5 83.8 L 448.5 86.2 L 447.8 86.2 L 447.8 80.9 " fill="#FF0000"/>
<path class="atom-7" d="M 453.0 83.6 Q 453.0 82.3, 453.6 81.6 Q 454.3 80.9, 455.5 80.9 Q 456.6 80.9, 457.3 81.6 Q 457.9 82.3, 457.9 83.6 Q 457.9 84.8, 457.2 85.6 Q 456.6 86.3, 455.5 86.3 Q 454.3 86.3, 453.6 85.6 Q 453.0 84.8, 453.0 83.6 M 455.5 85.7 Q 456.3 85.7, 456.7 85.2 Q 457.1 84.6, 457.1 83.6 Q 457.1 82.5, 456.7 82.0 Q 456.3 81.5, 455.5 81.5 Q 454.6 81.5, 454.2 82.0 Q 453.8 82.5, 453.8 83.6 Q 453.8 84.6, 454.2 85.2 Q 454.6 85.7, 455.5 85.7 " fill="#FF0000"/>
<path class="legend" d="M 499.2 178.7 Q 501.7 178.7, 503.1 180.2 Q 504.4 181.6, 504.4 184.3 Q 504.4 187.0, 503.1 188.5 Q 501.7 190.0, 499.2 190.0 L 495.6 190.0 L 495.6 178.7 L 499.2 178.7 M 499.2 188.7 Q 501.0 188.7, 501.9 187.6 Q 502.8 186.5, 502.8 184.3 Q 502.8 182.1, 501.9 181.0 Q 501.0 180.0, 499.2 180.0 L 497.1 180.0 L 497.1 188.7 L 499.2 188.7 " fill="#000000"/>
<path class="bond-0 atom-0 atom-1" d="M 669.2,75.4 L 684.6,87.5" style="fill:none;fill-rule:evenodd;stroke:#000000;stroke-width:2.0px;stroke-linecap:butt;stroke-linejoin:miter;stroke-opacity:1"/>
<path class="bond-0 atom-0 atom-1" d="M 667.5,77.6 L 682.9,89.7" style="fill:none;fill-rule:evenodd;stroke:#000000;stroke-width:2.0px;stroke-linecap:butt;stroke-linejoin:miter;stroke-opacity:1"/>
<path class="bond-1 atom-1 atom-2" d="M 683.1,88.1 L 680.4,106.6" style="fill:none;fill-rule:evenodd;stroke:#000000;stroke-width:2.0px;stroke-linecap:butt;stroke-linejoin:miter;stroke-opacity:1"/>
<path class="bond-2 atom-1 atom-3" d="M 683.1,88.1 L 700.4,81.1" style="fill:none;fill-rule:evenodd;stroke:#000000;stroke-width:2.0px;stroke-linecap:butt;stroke-linejoin:miter;stroke-opacity:1"/>
<path class="bond-3 atom-3 atom-4" d="M 700.4,81.1 L 715.1,92.7" style="fill:none;fill-rule:evenodd;stroke:#000000;stroke-width:2.0px;stroke-linecap:butt;stroke-linejoin:miter;stroke-opacity:1"/>
<path class="bond-4 atom-4 atom-5" d="M 715.1,92.7 L 732.5,85.7" style="fill:none;fill-rule:evenodd;stroke:#000000;stroke-width:2.0px;stroke-linecap:butt;stroke-linejoin:miter;stroke-opacity:1"/>
<path d="M 682.9,89.0 L 683.1,88.1 L 683.9,87.7" style="fill:none;stroke:#000000;stroke-width:2.0px;stroke-linecap:butt;stroke-linejoin:miter;stroke-opacity:1;"/>
<path d="M 699.6,81.5 L 700.4,81.1 L 701.2,81.7" style="fill:none;stroke:#000000;stroke-width:2.0px;stroke-linecap:butt;stroke-linejoin:miter;stroke-opacity:1;"/>
<path d="M 714.4,92.1 L 715.1,92.7 L 716.0,92.3" style="fill:none;stroke:#000000;stroke-width:2.0px;stroke-linecap:butt;stroke-linejoin:miter;stroke-opacity:1;"/>
<path class="legend" d="M 696.5 178.7 L 703.3 178.7 L 703.3 180.0 L 698.1 180.0 L 698.1 183.4 L 702.8 183.4 L 702.8 184.7 L 698.1 184.7 L 698.1 188.7 L 703.5 188.7 L 703.5 190.0 L 696.5 190.0 L 696.5 178.7 " fill="#000000"/>
</svg>