<svg xmlns="http://www.w3.org/2000/svg" xmlns:rdkit="http://www.rdkit.org/xml" xmlns:xlink="http://www.w3.org/1999/xlink" version="1.1" baseProfile="full" xml:space="preserve" width="800px" height="200px" viewBox="0 0 800 200">
<!-- END OF HEADER -->
<rect style="opacity:1.0;fill:#FFFFFF;stroke:none" width="800.0" height="200.0" x="0.0" y="0.0"> </rect>
<path class="bond-0 atom-0 atom-1" d="M 190.0,80.0 L 181.7,85.4" style="fill:none;fill-rule:evenodd;stroke:#000000;stroke-width:2.0px;stroke-linecap:butt;stroke-linejoin:miter;stroke-opacity:1"/>
<path class="bond-0 atom-0 atom-1" d="M 181.7,85.4 L 173.4,90.8" style="fill:none;fill-rule:evenodd;stroke:#FF0000;stroke-width:2.0px;stroke-linecap:butt;stroke-linejoin:miter;stroke-opacity:1"/>
<path class="bond-1 atom-1 atom-2" d="M 165.4,91.3 L 156.4,86.7" style="fill:none;fill-rule:evenodd;stroke:#FF0000;stroke-width:2.0px;stroke-linecap:butt;stroke-linejoin:miter;stroke-opacity:1"/>
<path class="bond-1 atom-1 atom-2" d="M 156.4,86.7 L 147.5,82.2" style="fill:none;fill-rule:evenodd;stroke:#000000;stroke-width:2.0px;stroke-linecap:butt;stroke-linejoin:miter;stroke-opacity:1"/>
<path class="bond-2 atom-2 atom-3" d="M 147.5,82.2 L 126.9,95.5" style="fill:none;fill-rule:evenodd;stroke:#000000;stroke-width:2.0px;stroke-linecap:butt;stroke-linejoin:miter;stroke-opacity:1"/>
<path class="bond-3 atom-3 atom-4" d="M 126.9,95.5 L 127.4,105.6" style="fill:none;fill-rule:evenodd;stroke:#000000;stroke-width:2.0px;stroke-linecap:butt;stroke-linejoin:miter;stroke-opacity:1"/>
<path class="bond-3 atom-3 atom-4" d="M 127.4,105.6 L 127.9,115.7" style="fill:none;fill-rule:evenodd;stroke:#FF0000;stroke-width:2.0px;stroke-linecap:butt;stroke-linejoin:miter;stroke-opacity:1"/>
<path class="bond-4 atom-3 atom-5" d="M 126.9,95.5 L 105.0,84.3" style="fill:none;fill-rule:evenodd;stroke:#000000;stroke-width:2.0px;stroke-linecap:butt;stroke-linejoin:miter;stroke-opacity:1"/>
<path class="bond-5 atom-5 atom-6" d="M 105.0,84.3 L 104.5,74.2" style="fill:none;fill-rule:evenodd;stroke:#000000;stroke-width:2.0px;stroke-linecap:butt;stroke-linejoin:miter;stroke-opacity:1"/>
<path class="bond-5 atom-5 atom-6" d="M 104.5,74.2 L 104.0,64.2" style="fill:none;fill-rule:evenodd;stroke:#FF0000;stroke-width:2.0px;stroke-linecap:butt;stroke-linejoin:miter;stroke-opacity:1"/>
<path class="bond-6 atom-5 atom-7" d="M 105.0,84.3 L 84.4,97.6" style="fill:none;fill-rule:evenodd;stroke:#000000;stroke-width:2.0px;stroke-linecap:butt;stroke-linejoin:miter;stroke-opacity:1"/>
<path class="bond-7 atom-7 atom-8" d="M 84.4,97.6 L 84.9,107.7" style="fill:none;fill-rule:evenodd;stroke:#000000;stroke-width:2.0px;stroke-linecap:butt;stroke-linejoin:miter;stroke-opacity:1"/>
<path class="bond-7 atom-7 atom-8" d="M 84.9,107.7 L 85.4,117.8" style="fill:none;fill-rule:evenodd;stroke:#FF0000;stroke-width:2.0px;stroke-linecap:butt;stroke-linejoin:miter;stroke-opacity:1"/>
<path class="bond-8 atom-7 atom-9" d="M 84.4,97.6 L 62.5,86.4" style="fill:none;fill-rule:evenodd;stroke:#000000;stroke-width:2.0px;stroke-linecap:butt;stroke-linejoin:miter;stroke-opacity:1"/>
<path class="bond-9 atom-9 atom-10" d="M 62.5,86.4 L 62.0,76.4" style="fill:none;fill-rule:evenodd;stroke:#000000;stroke-width:2.0px;stroke-linecap:butt;stroke-linejoin:miter;stroke-opacity:1"/>
<path class="bond-9 atom-9 atom-10" d="M 62.0,76.4 L 61.5,66.3" style="fill:none;fill-rule:evenodd;stroke:#FF0000;stroke-width:2.0px;stroke-linecap:butt;stroke-linejoin:miter;stroke-opacity:1"/>
<path class="bond-10 atom-9 atom-11" d="M 62.5,86.4 L 41.9,99.7" style="fill:none;fill-rule:evenodd;stroke:#000000;stroke-width:2.0px;stroke-linecap:butt;stroke-linejoin:miter;stroke-opacity:1"/>
<path class="bond-11 atom-11 atom-12" d="M 41.9,99.7 L 33.0,95.2" style="fill:none;fill-rule:evenodd;stroke:#000000;stroke-width:2.0px;stroke-linecap:butt;stroke-linejoin:miter;stroke-opacity:1"/>
<path class="bond-11 atom-11 atom-12" d="M 33.0,95.2 L 24.1,90.6" style="fill:none;fill-rule:evenodd;stroke:#FF0000;stroke-width:2.0px;stroke-linecap:butt;stroke-linejoin:miter;stroke-opacity:1"/>
<path d="M 148.0,82.4 L 147.5,82.2 L 146.5,82.8" style="fill:none;stroke:#000000;stroke-width:2.0px;stroke-linecap:butt;stroke-linejoin:miter;stroke-opacity:1;"/>
<path d="M 42.9,99.1 L 41.9,99.7 L 41.5,99.5" style="fill:none;stroke:#000000;stroke-width:2.0px;stroke-linecap:butt;stroke-linejoin:miter;stroke-opacity:1;"/>
<path class="atom-1" d="M 166.2 93.4 Q 166.2 91.7, 167.0 90.8 Q 167.8 89.8, 169.4 89.8 Q 170.9 89.8, 171.7 90.8 Q 172.6 91.7, 172.6 93.4 Q 172.6 95.1, 171.7 96.0 Q 170.9 97.0, 169.4 97.0 Q 167.8 97.0, 167.0 96.0 Q 166.2 95.1, 166.2 93.4 M 169.4 96.2 Q 170.4 96.2, 171.0 95.5 Q 171.6 94.8, 171.6 93.4 Q 171.6 92.0, 171.0 91.3 Q 170.4 90.6, 169.4 90.6 Q 168.3 90.6, 167.7 91.3 Q 167.2 92.0, 167.2 93.4 Q 167.2 94.8, 167.7 95.5 Q 168.3 96.2, 169.4 96.2 " fill="#FF0000"/>
<path class="atom-4" d="M 124.9 120.0 Q 124.9 118.4, 125.7 117.4 Q 126.6 116.5, 128.1 116.5 Q 129.7 116.5, 130.5 117.4 Q 131.3 118.4, 131.3 120.0 Q 131.3 121.7, 130.5 122.7 Q 129.6 123.6, 128.1 123.6 Q 126.6 123.6, 125.7 122.7 Q 124.9 121.7, 124.9 120.0 M 128.1 122.8 Q 129.2 122.8, 129.7 122.1 Q 130.3 121.4, 130.3 120.0 Q 130.3 118.7, 129.7 118.0 Q 129.2 117.3, 128.1 117.3 Q 127.1 117.3, 126.5 118.0 Q 125.9 118.7, 125.9 120.0 Q 125.9 121.4, 126.5 122.1 Q 127.1 122.8, 128.1 122.8 " fill="#FF0000"/>
<path class="atom-4" d="M 132.4 116.6 L 133.3 116.6 L 133.3 119.5 L 136.9 119.5 L 136.9 116.6 L 137.8 116.6 L 137.8 123.5 L 136.9 123.5 L 136.9 120.3 L 133.3 120.3 L 133.3 123.5 L 132.4 123.5 L 132.4 116.6 " fill="#FF0000"/>
<path class="atom-6" d="M 100.6 59.8 Q 100.6 58.1, 101.4 57.2 Q 102.3 56.2, 103.8 56.2 Q 105.3 56.2, 106.2 57.2 Q 107.0 58.1, 107.0 59.8 Q 107.0 61.5, 106.2 62.4 Q 105.3 63.4, 103.8 63.4 Q 102.3 63.4, 101.4 62.4 Q 100.6 61.5, 100.6 59.8 M 103.8 62.6 Q 104.9 62.6, 105.4 61.9 Q 106.0 61.2, 106.0 59.8 Q 106.0 58.4, 105.4 57.7 Q 104.9 57.0, 103.8 57.0 Q 102.7 57.0, 102.2 57.7 Q 101.6 58.4, 101.6 59.8 Q 101.6 61.2, 102.2 61.9 Q 102.7 62.6, 103.8 62.6 " fill="#FF0000"/>
<path class="atom-6" d="M 108.1 56.3 L 109.0 56.3 L 109.0 59.3 L 112.6 59.3 L 112.6 56.3 L 113.5 56.3 L 113.5 63.3 L 112.6 63.3 L 112.6 60.1 L 109.0 60.1 L 109.0 63.3 L 108.1 63.3 L 108.1 56.3 " fill="#FF0000"/>
<path class="atom-8" d="M 82.4 122.2 Q 82.4 120.5, 83.3 119.6 Q 84.1 118.6, 85.6 118.6 Q 87.2 118.6, 88.0 119.6 Q 88.8 120.5, 88.8 122.2 Q 88.8 123.8, 88.0 124.8 Q 87.2 125.8, 85.6 125.8 Q 84.1 125.8, 83.3 124.8 Q 82.4 123.9, 82.4 122.2 M 85.6 125.0 Q 86.7 125.0, 87.3 124.3 Q 87.8 123.6, 87.8 122.2 Q 87.8 120.8, 87.3 120.1 Q 86.7 119.4, 85.6 119.4 Q 84.6 119.4, 84.0 120.1 Q 83.4 120.8, 83.4 122.2 Q 83.4 123.6, 84.0 124.3 Q 84.6 125.0, 85.6 125.0 " fill="#FF0000"/>
<path class="atom-8" d="M 89.9 118.7 L 90.8 118.7 L 90.8 121.7 L 94.4 121.7 L 94.4 118.7 L 95.3 118.7 L 95.3 125.7 L 94.4 125.7 L 94.4 122.4 L 90.8 122.4 L 90.8 125.7 L 89.9 125.7 L 89.9 118.7 " fill="#FF0000"/>
<path class="atom-10" d="M 58.1 61.9 Q 58.1 60.2, 59.0 59.3 Q 59.8 58.4, 61.3 58.4 Q 62.9 58.4, 63.7 59.3 Q 64.5 60.2, 64.5 61.9 Q 64.5 63.6, 63.7 64.6 Q 62.8 65.5, 61.3 65.5 Q 59.8 65.5, 59.0 64.6 Q 58.1 63.6, 58.1 61.9 M 61.3 64.7 Q 62.4 64.7, 62.9 64.0 Q 63.5 63.3, 63.5 61.9 Q 63.5 60.5, 62.9 59.8 Q 62.4 59.2, 61.3 59.2 Q 60.3 59.2, 59.7 59.8 Q 59.1 60.5, 59.1 61.9 Q 59.1 63.3, 59.7 64.0 Q 60.3 64.7, 61.3 64.7 " fill="#FF0000"/>
<path class="atom-10" d="M 65.6 58.4 L 66.5 58.4 L 66.5 61.4 L 70.1 61.4 L 70.1 58.4 L 71.0 58.4 L 71.0 65.4 L 70.1 65.4 L 70.1 62.2 L 66.5 62.2 L 66.5 65.4 L 65.6 65.4 L 65.6 58.4 " fill="#FF0000"/>
<path class="atom-12" d="M 10.0 85.1 L 10.9 85.1 L 10.9 88.1 L 14.5 88.1 L 14.5 85.1 L 15.4 85.1 L 15.4 92.1 L 14.5 92.1 L 14.5 88.8 L 10.9 88.8 L 10.9 92.1 L 10.0 92.1 L 10.0 85.1 " fill="#FF0000"/>
<path class="atom-12" d="M 16.9 88.6 Q 16.9 86.9, 17.7 86.0 Q 18.5 85.0, 20.1 85.0 Q 21.6 85.0, 22.4 86.0 Q 23.3 86.9, 23.3 88.6 Q 23.3 90.2, 22.4 91.2 Q 21.6 92.2, 20.1 92.2 Q 18.5 92.2, 17.7 91.2 Q 16.9 90.3, 16.9 88.6 M 20.1 91.4 Q 21.1 91.4, 21.7 90.7 Q 22.3 90.0, 22.3 88.6 Q 22.3 87.2, 21.7 86.5 Q 21.1 85.8, 20.1 85.8 Q 19.0 85.8, 18.4 86.5 Q 17.9 87.2, 17.9 88.6 Q 17.9 90.0, 18.4 90.7 Q 19.0 91.4, 20.1 91.4 " fill="#FF0000"/>
<path class="legend" d="M 103.4 190.0 L 102.2 186.7 L 97.8 186.7 L 96.6 190.0 L 95.1 190.0 L 99.0 178.7 L 100.9 178.7 L 104.9 190.0 L 103.4 190.0 M 98.2 185.4 L 101.8 185.4 L 100.0 180.3 L 98.2 185.4 " fill="#000000"/>
</svg>