<svg xmlns="http://www.w3.org/2000/svg" xmlns:rdkit="http://www.rdkit.org/xml" xmlns:xlink="http://www.w3.org/1999/xlink" version="1.1" baseProfile="full" xml:space="preserve" width="800px" height="200px" viewBox="0 0 800 200">
<!-- END OF HEADER -->
<rect style="opacity:1.0;fill:#FFFFFF;stroke:none" width="800.0" height="200.0" x="0.0" y="0.0"> </rect>
<path class="bond-0 atom-0 atom-1" d="M 10.0,104.0 L 55.0,78.0" style="fill:none;fill-rule:evenodd;stroke:#000000;stroke-width:2.0px;stroke-linecap:butt;stroke-linejoin:miter;stroke-opacity:1"/>
<path class="bond-1 atom-1 atom-2" d="M 55.0,78.0 L 100.0,104.0" style="fill:none;fill-rule:evenodd;stroke:#000000;stroke-width:2.0px;stroke-linecap:butt;stroke-linejoin:miter;stroke-opacity:1"/>
<path class="bond-2 atom-2 atom-3" d="M 100.0,104.0 L 145.0,78.0" style="fill:none;fill-rule:evenodd;stroke:#000000;stroke-width:2.0px;stroke-linecap:butt;stroke-linejoin:miter;stroke-opacity:1"/>
<path class="bond-3 atom-3 atom-4" d="M 145.0,78.0 L 190.0,104.0" style="fill:none;fill-rule:evenodd;stroke:#000000;stroke-width:2.0px;stroke-linecap:butt;stroke-linejoin:miter;stroke-opacity:1"/>
<path d="M 52.8,79.3 L 55.0,78.0 L 57.3,79.3" style="fill:none;stroke:#000000;stroke-width:2.0px;stroke-linecap:butt;stroke-linejoin:miter;stroke-opacity:1;"/>
<path d="M 97.8,102.7 L 100.0,104.0 L 102.3,102.7" style="fill:none;stroke:#000000;stroke-width:2.0px;stroke-linecap:butt;stroke-linejoin:miter;stroke-opacity:1;"/>
<path d="M 142.8,79.3 L 145.0,78.0 L 147.3,79.3" style="fill:none;stroke:#000000;stroke-width:2.0px;stroke-linecap:butt;stroke-linejoin:miter;stroke-opacity:1;"/>
<path class="legend" d="M 101.7 184.0 Q 102.7 184.4, 103.3 185.0 Q 103.8 185.7, 103.8 186.7 Q 103.8 188.2, 102.8 189.1 Q 101.8 190.0, 100.0 190.0 L 96.2 190.0 L 96.2 178.7 L 99.5 178.7 Q 101.4 178.7, 102.4 179.5 Q 103.4 180.2, 103.4 181.7 Q 103.4 183.4, 101.7 184.0 M 97.7 180.0 L 97.7 183.5 L 99.5 183.5 Q 100.6 183.5, 101.2 183.1 Q 101.8 182.6, 101.8 181.7 Q 101.8 180.0, 99.5 180.0 L 97.7 180.0 M 100.0 188.7 Q 101.1 188.7, 101.7 188.2 Q 102.2 187.7, 102.2 186.7 Q 102.2 185.7, 101.6 185.3 Q 101.0 184.8, 99.7 184.8 L 97.7 184.8 L 97.7 188.7 L 100.0 188.7 " fill="#000000"/>
</svg>