<svg xmlns="http://www.w3.org/2000/svg" xmlns:rdkit="http://www.rdkit.org/xml" xmlns:xlink="http://www.w3.org/1999/xlink" version="1.1" baseProfile="full" xml:space="preserve" width="800px" height="400px" viewBox="0 0 800 400">
<!-- END OF HEADER -->
<rect style="opacity:1.0;fill:#FFFFFF;stroke:none" width="800.0" height="400.0" x="0.0" y="0.0"> </rect>
<path class="bond-0 atom-0 atom-1" d="M 148.8,52.0 L 141.1,71.5" style="fill:none;fill-rule:evenodd;stroke:#000000;stroke-width:2.0px;stroke-linecap:butt;stroke-linejoin:miter;stroke-opacity:1"/>
<path class="bond-1 atom-1 atom-2" d="M 141.1,71.5 L 146.2,77.8" style="fill:none;fill-rule:evenodd;stroke:#000000;stroke-width:2.0px;stroke-linecap:butt;stroke-linejoin:miter;stroke-opacity:1"/>
<path class="bond-1 atom-1 atom-2" d="M 146.2,77.8 L 151.3,84.2" style="fill:none;fill-rule:evenodd;stroke:#FF0000;stroke-width:2.0px;stroke-linecap:butt;stroke-linejoin:miter;stroke-opacity:1"/>
<path class="bond-2 atom-1 atom-3" d="M 141.1,71.5 L 120.4,74.6" style="fill:none;fill-rule:evenodd;stroke:#000000;stroke-width:2.0px;stroke-linecap:butt;stroke-linejoin:miter;stroke-opacity:1"/>
<path class="bond-3 atom-3 atom-4" d="M 120.4,74.6 L 112.8,94.1" style="fill:none;fill-rule:evenodd;stroke:#000000;stroke-width:2.0px;stroke-linecap:butt;stroke-linejoin:miter;stroke-opacity:1"/>
<path class="bond-4 atom-4 atom-5" d="M 112.8,94.1 L 125.8,110.5" style="fill:none;fill-rule:evenodd;stroke:#000000;stroke-width:2.0px;stroke-linecap:butt;stroke-linejoin:miter;stroke-opacity:1"/>
<path class="bond-5 atom-5 atom-6" d="M 125.8,110.5 L 118.2,130.0" style="fill:none;fill-rule:evenodd;stroke:#000000;stroke-width:2.0px;stroke-linecap:butt;stroke-linejoin:miter;stroke-opacity:1"/>
<path class="bond-6 atom-5 atom-7" d="M 125.8,110.5 L 134.5,109.2" style="fill:none;fill-rule:evenodd;stroke:#000000;stroke-width:2.0px;stroke-linecap:butt;stroke-linejoin:miter;stroke-opacity:1"/>
<path class="bond-6 atom-5 atom-7" d="M 134.5,109.2 L 143.1,107.9" style="fill:none;fill-rule:evenodd;stroke:#FF0000;stroke-width:2.0px;stroke-linecap:butt;stroke-linejoin:miter;stroke-opacity:1"/>
<path class="bond-7 atom-4 atom-8" d="M 112.8,94.1 L 92.0,97.3" style="fill:none;fill-rule:evenodd;stroke:#000000;stroke-width:2.0px;stroke-linecap:butt;stroke-linejoin:miter;stroke-opacity:1"/>
<path class="bond-8 atom-8 atom-9" d="M 92.0,97.3 L 95.2,118.0" style="fill:none;fill-rule:evenodd;stroke:#000000;stroke-width:2.0px;stroke-linecap:butt;stroke-linejoin:miter;stroke-opacity:1"/>
<path class="bond-9 atom-8 atom-10" d="M 92.0,97.3 L 88.9,76.5" style="fill:none;fill-rule:evenodd;stroke:#000000;stroke-width:2.0px;stroke-linecap:butt;stroke-linejoin:miter;stroke-opacity:1"/>
<path class="bond-10 atom-8 atom-11" d="M 92.0,97.3 L 71.3,100.4" style="fill:none;fill-rule:evenodd;stroke:#000000;stroke-width:2.0px;stroke-linecap:butt;stroke-linejoin:miter;stroke-opacity:1"/>
<path class="bond-11 atom-11 atom-12" d="M 71.3,100.4 L 58.2,84.0" style="fill:none;fill-rule:evenodd;stroke:#000000;stroke-width:2.0px;stroke-linecap:butt;stroke-linejoin:miter;stroke-opacity:1"/>
<path class="bond-12 atom-12 atom-13" d="M 58.2,84.0 L 37.5,87.1" style="fill:none;fill-rule:evenodd;stroke:#000000;stroke-width:2.0px;stroke-linecap:butt;stroke-linejoin:miter;stroke-opacity:1"/>
<path class="bond-13 atom-12 atom-14" d="M 58.2,84.0 L 61.3,76.1" style="fill:none;fill-rule:evenodd;stroke:#000000;stroke-width:2.0px;stroke-linecap:butt;stroke-linejoin:miter;stroke-opacity:1"/>
<path class="bond-13 atom-12 atom-14" d="M 61.3,76.1 L 64.4,68.3" style="fill:none;fill-rule:evenodd;stroke:#FF0000;stroke-width:2.0px;stroke-linecap:butt;stroke-linejoin:miter;stroke-opacity:1"/>
<path d="M 121.4,74.5 L 120.4,74.6 L 120.0,75.6" style="fill:none;stroke:#000000;stroke-width:2.0px;stroke-linecap:butt;stroke-linejoin:miter;stroke-opacity:1;"/>
<path d="M 72.3,100.2 L 71.3,100.4 L 70.6,99.6" style="fill:none;stroke:#000000;stroke-width:2.0px;stroke-linecap:butt;stroke-linejoin:miter;stroke-opacity:1;"/>
<path class="atom-2" d="M 151.5 87.9 Q 151.5 86.5, 152.2 85.7 Q 152.9 84.9, 154.2 84.9 Q 155.5 84.9, 156.2 85.7 Q 156.9 86.5, 156.9 87.9 Q 156.9 89.3, 156.2 90.1 Q 155.5 91.0, 154.2 91.0 Q 152.9 91.0, 152.2 90.1 Q 151.5 89.3, 151.5 87.9 M 154.2 90.3 Q 155.1 90.3, 155.6 89.7 Q 156.1 89.1, 156.1 87.9 Q 156.1 86.7, 155.6 86.1 Q 155.1 85.5, 154.2 85.5 Q 153.3 85.5, 152.8 86.1 Q 152.3 86.7, 152.3 87.9 Q 152.3 89.1, 152.8 89.7 Q 153.3 90.3, 154.2 90.3 " fill="#FF0000"/>
<path class="atom-2" d="M 157.9 84.9 L 158.7 84.9 L 158.7 87.5 L 161.7 87.5 L 161.7 84.9 L 162.5 84.9 L 162.5 90.9 L 161.7 90.9 L 161.7 88.1 L 158.7 88.1 L 158.7 90.9 L 157.9 90.9 L 157.9 84.9 " fill="#FF0000"/>
<path class="atom-7" d="M 143.8 107.4 Q 143.8 106.0, 144.5 105.2 Q 145.2 104.4, 146.6 104.4 Q 147.9 104.4, 148.6 105.2 Q 149.3 106.0, 149.3 107.4 Q 149.3 108.8, 148.6 109.7 Q 147.9 110.5, 146.6 110.5 Q 145.3 110.5, 144.5 109.7 Q 143.8 108.9, 143.8 107.4 M 146.6 109.8 Q 147.5 109.8, 148.0 109.2 Q 148.4 108.6, 148.4 107.4 Q 148.4 106.2, 148.0 105.6 Q 147.5 105.1, 146.6 105.1 Q 145.7 105.1, 145.2 105.6 Q 144.7 106.2, 144.7 107.4 Q 144.7 108.6, 145.2 109.2 Q 145.7 109.8, 146.6 109.8 " fill="#FF0000"/>
<path class="atom-7" d="M 150.2 104.4 L 151.0 104.4 L 151.0 107.0 L 154.0 107.0 L 154.0 104.4 L 154.9 104.4 L 154.9 110.4 L 154.0 110.4 L 154.0 107.6 L 151.0 107.6 L 151.0 110.4 L 150.2 110.4 L 150.2 104.4 " fill="#FF0000"/>
<path class="atom-14" d="M 63.1 64.5 Q 63.1 63.1, 63.9 62.3 Q 64.6 61.5, 65.9 61.5 Q 67.2 61.5, 67.9 62.3 Q 68.6 63.1, 68.6 64.5 Q 68.6 66.0, 67.9 66.8 Q 67.2 67.6, 65.9 67.6 Q 64.6 67.6, 63.9 66.8 Q 63.1 66.0, 63.1 64.5 M 65.9 66.9 Q 66.8 66.9, 67.3 66.3 Q 67.8 65.7, 67.8 64.5 Q 67.8 63.3, 67.3 62.8 Q 66.8 62.2, 65.9 62.2 Q 65.0 62.2, 64.5 62.8 Q 64.0 63.3, 64.0 64.5 Q 64.0 65.7, 64.5 66.3 Q 65.0 66.9, 65.9 66.9 " fill="#FF0000"/>
<path class="atom-14" d="M 69.5 61.6 L 70.3 61.6 L 70.3 64.1 L 73.4 64.1 L 73.4 61.6 L 74.2 61.6 L 74.2 67.5 L 73.4 67.5 L 73.4 64.8 L 70.3 64.8 L 70.3 67.5 L 69.5 67.5 L 69.5 61.6 " fill="#FF0000"/>
<path class="legend" d="M 103.4 190.0 L 102.2 186.7 L 97.8 186.7 L 96.6 190.0 L 95.1 190.0 L 99.0 178.7 L 100.9 178.7 L 104.9 190.0 L 103.4 190.0 M 98.2 185.4 L 101.8 185.4 L 100.0 180.3 L 98.2 185.4 " fill="#000000"/>
<path class="bond-0 atom-0 atom-1" d="M 263.7,96.2 L 281.8,85.8" style="fill:none;fill-rule:evenodd;stroke:#000000;stroke-width:2.0px;stroke-linecap:butt;stroke-linejoin:miter;stroke-opacity:1"/>
<path class="bond-1 atom-1 atom-2" d="M 281.8,85.8 L 300.0,96.2" style="fill:none;fill-rule:evenodd;stroke:#000000;stroke-width:2.0px;stroke-linecap:butt;stroke-linejoin:miter;stroke-opacity:1"/>
<path class="bond-2 atom-2 atom-3" d="M 300.0,96.2 L 318.2,85.8" style="fill:none;fill-rule:evenodd;stroke:#000000;stroke-width:2.0px;stroke-linecap:butt;stroke-linejoin:miter;stroke-opacity:1"/>
<path class="bond-3 atom-3 atom-4" d="M 318.2,85.8 L 336.3,96.2" style="fill:none;fill-rule:evenodd;stroke:#000000;stroke-width:2.0px;stroke-linecap:butt;stroke-linejoin:miter;stroke-opacity:1"/>
<path d="M 280.9,86.3 L 281.8,85.8 L 282.8,86.3" style="fill:none;stroke:#000000;stroke-width:2.0px;stroke-linecap:butt;stroke-linejoin:miter;stroke-opacity:1;"/>
<path d="M 299.1,95.7 L 300.0,96.2 L 300.9,95.7" style="fill:none;stroke:#000000;stroke-width:2.0px;stroke-linecap:butt;stroke-linejoin:miter;stroke-opacity:1;"/>
<path d="M 317.2,86.3 L 318.2,85.8 L 319.1,86.3" style="fill:none;stroke:#000000;stroke-width:2.0px;stroke-linecap:butt;stroke-linejoin:miter;stroke-opacity:1;"/>
<path class="legend" d="M 301.7 184.0 Q 302.7 184.4, 303.3 185.0 Q 303.8 185.7, 303.8 186.7 Q 303.8 188.2, 302.8 189.1 Q 301.8 190.0, 300.0 190.0 L 296.2 190.0 L 296.2 178.7 L 299.5 178.7 Q 301.4 178.7, 302.4 179.5 Q 303.4 180.2, 303.4 181.7 Q 303.4 183.4, 301.7 184.0 M 297.7 180.0 L 297.7 183.5 L 299.5 183.5 Q 300.6 183.5, 301.2 183.1 Q 301.8 182.6, 301.8 181.7 Q 301.8 180.0, 299.5 180.0 L 297.7 180.0 M 300.0 188.7 Q 301.1 188.7, 301.7 188.2 Q 302.2 187.7, 302.2 186.7 Q 302.2 185.7, 301.6 185.3 Q 301.0 184.8, 299.7 184.8 L 297.7 184.8 L 297.7 188.7 L 300.0 188.7 " fill="#000000"/>
<path class="bond-0 atom-0 atom-1" d="M 535.4,130.7 L 532.0,122.4" style="fill:none;fill-rule:evenodd;stroke:#FF0000;stroke-width:2.0px;stroke-linecap:butt;stroke-linejoin:miter;stroke-opacity:1"/>
<path class="bond-0 atom-0 atom-1" d="M 532.0,122.4 L 528.6,114.2" style="fill:none;fill-rule:evenodd;stroke:#000000;stroke-width:2.0px;stroke-linecap:butt;stroke-linejoin:miter;stroke-opacity:1"/>
<path class="bond-0 atom-0 atom-1" d="M 538.3,129.5 L 534.9,121.3" style="fill:none;fill-rule:evenodd;stroke:#FF0000;stroke-width:2.0px;stroke-linecap:butt;stroke-linejoin:miter;stroke-opacity:1"/>
<path class="bond-0 atom-0 atom-1" d="M 534.9,121.3 L 531.5,113.0" style="fill:none;fill-rule:evenodd;stroke:#000000;stroke-width:2.0px;stroke-linecap:butt;stroke-linejoin:miter;stroke-opacity:1"/>
<path class="bond-1 atom-1 atom-2" d="M 530.4,114.4 L 509.6,111.6" style="fill:none;fill-rule:evenodd;stroke:#000000;stroke-width:2.0px;stroke-linecap:butt;stroke-linejoin:miter;stroke-opacity:1"/>
<path class="bond-2 atom-2 atom-3" d="M 509.6,111.6 L 501.7,92.2" style="fill:none;fill-rule:evenodd;stroke:#000000;stroke-width:2.0px;stroke-linecap:butt;stroke-linejoin:miter;stroke-opacity:1"/>
<path class="bond-2 atom-2 atom-3" d="M 511.8,108.7 L 505.3,92.7" style="fill:none;fill-rule:evenodd;stroke:#000000;stroke-width:2.0px;stroke-linecap:butt;stroke-linejoin:miter;stroke-opacity:1"/>
<path class="bond-3 atom-3 atom-4" d="M 501.7,92.2 L 480.9,89.4" style="fill:none;fill-rule:evenodd;stroke:#000000;stroke-width:2.0px;stroke-linecap:butt;stroke-linejoin:miter;stroke-opacity:1"/>
<path class="bond-4 atom-4 atom-5" d="M 480.9,89.4 L 473.0,70.0" style="fill:none;fill-rule:evenodd;stroke:#000000;stroke-width:2.0px;stroke-linecap:butt;stroke-linejoin:miter;stroke-opacity:1"/>
<path class="bond-4 atom-4 atom-5" d="M 477.3,88.9 L 470.7,72.9" style="fill:none;fill-rule:evenodd;stroke:#000000;stroke-width:2.0px;stroke-linecap:butt;stroke-linejoin:miter;stroke-opacity:1"/>
<path class="bond-5 atom-5 atom-6" d="M 473.0,70.0 L 452.2,67.2" style="fill:none;fill-rule:evenodd;stroke:#000000;stroke-width:2.0px;stroke-linecap:butt;stroke-linejoin:miter;stroke-opacity:1"/>
<path class="bond-6 atom-6 atom-7" d="M 452.2,67.2 L 439.4,83.7" style="fill:none;fill-rule:evenodd;stroke:#000000;stroke-width:2.0px;stroke-linecap:butt;stroke-linejoin:miter;stroke-opacity:1"/>
<path class="bond-6 atom-6 atom-7" d="M 453.6,70.5 L 443.0,84.2" style="fill:none;fill-rule:evenodd;stroke:#000000;stroke-width:2.0px;stroke-linecap:butt;stroke-linejoin:miter;stroke-opacity:1"/>
<path class="bond-7 atom-7 atom-8" d="M 439.4,83.7 L 430.7,82.6" style="fill:none;fill-rule:evenodd;stroke:#000000;stroke-width:2.0px;stroke-linecap:butt;stroke-linejoin:miter;stroke-opacity:1"/>
<path class="bond-7 atom-7 atom-8" d="M 430.7,82.6 L 422.0,81.4" style="fill:none;fill-rule:evenodd;stroke:#FF0000;stroke-width:2.0px;stroke-linecap:butt;stroke-linejoin:miter;stroke-opacity:1"/>
<path class="bond-8 atom-7 atom-9" d="M 439.4,83.7 L 447.3,103.1" style="fill:none;fill-rule:evenodd;stroke:#000000;stroke-width:2.0px;stroke-linecap:butt;stroke-linejoin:miter;stroke-opacity:1"/>
<path class="bond-9 atom-9 atom-10" d="M 447.3,103.1 L 468.1,106.0" style="fill:none;fill-rule:evenodd;stroke:#000000;stroke-width:2.0px;stroke-linecap:butt;stroke-linejoin:miter;stroke-opacity:1"/>
<path class="bond-9 atom-9 atom-10" d="M 449.5,100.3 L 466.7,102.6" style="fill:none;fill-rule:evenodd;stroke:#000000;stroke-width:2.0px;stroke-linecap:butt;stroke-linejoin:miter;stroke-opacity:1"/>
<path class="bond-10 atom-3 atom-11" d="M 501.7,92.2 L 506.6,85.8" style="fill:none;fill-rule:evenodd;stroke:#000000;stroke-width:2.0px;stroke-linecap:butt;stroke-linejoin:miter;stroke-opacity:1"/>
<path class="bond-10 atom-3 atom-11" d="M 506.6,85.8 L 511.6,79.4" style="fill:none;fill-rule:evenodd;stroke:#FF0000;stroke-width:2.0px;stroke-linecap:butt;stroke-linejoin:miter;stroke-opacity:1"/>
<path class="bond-11 atom-11 atom-12" d="M 517.9,76.1 L 526.6,77.3" style="fill:none;fill-rule:evenodd;stroke:#FF0000;stroke-width:2.0px;stroke-linecap:butt;stroke-linejoin:miter;stroke-opacity:1"/>
<path class="bond-11 atom-11 atom-12" d="M 526.6,77.3 L 535.3,78.4" style="fill:none;fill-rule:evenodd;stroke:#000000;stroke-width:2.0px;stroke-linecap:butt;stroke-linejoin:miter;stroke-opacity:1"/>
<path class="bond-12 atom-12 atom-13" d="M 535.3,78.4 L 548.1,61.9" style="fill:none;fill-rule:evenodd;stroke:#000000;stroke-width:2.0px;stroke-linecap:butt;stroke-linejoin:miter;stroke-opacity:1"/>
<path class="bond-12 atom-12 atom-13" d="M 538.9,78.9 L 549.5,65.2" style="fill:none;fill-rule:evenodd;stroke:#000000;stroke-width:2.0px;stroke-linecap:butt;stroke-linejoin:miter;stroke-opacity:1"/>
<path class="bond-13 atom-13 atom-14" d="M 548.1,61.9 L 568.9,64.7" style="fill:none;fill-rule:evenodd;stroke:#000000;stroke-width:2.0px;stroke-linecap:butt;stroke-linejoin:miter;stroke-opacity:1"/>
<path class="bond-14 atom-14 atom-15" d="M 568.9,64.7 L 573.8,58.3" style="fill:none;fill-rule:evenodd;stroke:#000000;stroke-width:2.0px;stroke-linecap:butt;stroke-linejoin:miter;stroke-opacity:1"/>
<path class="bond-14 atom-14 atom-15" d="M 573.8,58.3 L 578.8,51.9" style="fill:none;fill-rule:evenodd;stroke:#FF0000;stroke-width:2.0px;stroke-linecap:butt;stroke-linejoin:miter;stroke-opacity:1"/>
<path class="bond-15 atom-14 atom-16" d="M 568.9,64.7 L 576.8,84.1" style="fill:none;fill-rule:evenodd;stroke:#000000;stroke-width:2.0px;stroke-linecap:butt;stroke-linejoin:miter;stroke-opacity:1"/>
<path class="bond-15 atom-14 atom-16" d="M 566.7,67.5 L 573.2,83.6" style="fill:none;fill-rule:evenodd;stroke:#000000;stroke-width:2.0px;stroke-linecap:butt;stroke-linejoin:miter;stroke-opacity:1"/>
<path class="bond-16 atom-16 atom-17" d="M 576.8,84.1 L 564.0,100.7" style="fill:none;fill-rule:evenodd;stroke:#000000;stroke-width:2.0px;stroke-linecap:butt;stroke-linejoin:miter;stroke-opacity:1"/>
<path class="bond-17 atom-17 atom-18" d="M 564.0,100.7 L 567.2,108.5" style="fill:none;fill-rule:evenodd;stroke:#000000;stroke-width:2.0px;stroke-linecap:butt;stroke-linejoin:miter;stroke-opacity:1"/>
<path class="bond-17 atom-17 atom-18" d="M 567.2,108.5 L 570.4,116.4" style="fill:none;fill-rule:evenodd;stroke:#FF0000;stroke-width:2.0px;stroke-linecap:butt;stroke-linejoin:miter;stroke-opacity:1"/>
<path class="bond-18 atom-17 atom-19" d="M 564.0,100.7 L 543.2,97.8" style="fill:none;fill-rule:evenodd;stroke:#000000;stroke-width:2.0px;stroke-linecap:butt;stroke-linejoin:miter;stroke-opacity:1"/>
<path class="bond-18 atom-17 atom-19" d="M 562.6,97.3 L 545.4,95.0" style="fill:none;fill-rule:evenodd;stroke:#000000;stroke-width:2.0px;stroke-linecap:butt;stroke-linejoin:miter;stroke-opacity:1"/>
<path class="bond-19 atom-19 atom-1" d="M 543.2,97.8 L 530.4,114.4" style="fill:none;fill-rule:evenodd;stroke:#000000;stroke-width:2.0px;stroke-linecap:butt;stroke-linejoin:miter;stroke-opacity:1"/>
<path class="bond-20 atom-10 atom-4" d="M 468.1,106.0 L 480.9,89.4" style="fill:none;fill-rule:evenodd;stroke:#000000;stroke-width:2.0px;stroke-linecap:butt;stroke-linejoin:miter;stroke-opacity:1"/>
<path class="bond-21 atom-19 atom-12" d="M 543.2,97.8 L 535.3,78.4" style="fill:none;fill-rule:evenodd;stroke:#000000;stroke-width:2.0px;stroke-linecap:butt;stroke-linejoin:miter;stroke-opacity:1"/>
<path d="M 529.4,114.3 L 530.4,114.4 L 531.0,113.6" style="fill:none;stroke:#000000;stroke-width:2.0px;stroke-linecap:butt;stroke-linejoin:miter;stroke-opacity:1;"/>
<path d="M 510.7,111.7 L 509.6,111.6 L 509.2,110.6" style="fill:none;stroke:#000000;stroke-width:2.0px;stroke-linecap:butt;stroke-linejoin:miter;stroke-opacity:1;"/>
<path d="M 473.4,70.9 L 473.0,70.0 L 471.9,69.8" style="fill:none;stroke:#000000;stroke-width:2.0px;stroke-linecap:butt;stroke-linejoin:miter;stroke-opacity:1;"/>
<path d="M 453.2,67.3 L 452.2,67.2 L 451.5,68.0" style="fill:none;stroke:#000000;stroke-width:2.0px;stroke-linecap:butt;stroke-linejoin:miter;stroke-opacity:1;"/>
<path d="M 446.9,102.2 L 447.3,103.1 L 448.3,103.3" style="fill:none;stroke:#000000;stroke-width:2.0px;stroke-linecap:butt;stroke-linejoin:miter;stroke-opacity:1;"/>
<path d="M 467.0,105.8 L 468.1,106.0 L 468.7,105.1" style="fill:none;stroke:#000000;stroke-width:2.0px;stroke-linecap:butt;stroke-linejoin:miter;stroke-opacity:1;"/>
<path d="M 547.5,62.7 L 548.1,61.9 L 549.1,62.0" style="fill:none;stroke:#000000;stroke-width:2.0px;stroke-linecap:butt;stroke-linejoin:miter;stroke-opacity:1;"/>
<path d="M 576.4,83.1 L 576.8,84.1 L 576.2,84.9" style="fill:none;stroke:#000000;stroke-width:2.0px;stroke-linecap:butt;stroke-linejoin:miter;stroke-opacity:1;"/>
<path class="atom-0" d="M 535.6 133.8 Q 535.6 132.4, 536.3 131.6 Q 537.0 130.8, 538.3 130.8 Q 539.7 130.8, 540.4 131.6 Q 541.1 132.4, 541.1 133.8 Q 541.1 135.3, 540.4 136.1 Q 539.6 136.9, 538.3 136.9 Q 537.0 136.9, 536.3 136.1 Q 535.6 135.3, 535.6 133.8 M 538.3 136.2 Q 539.2 136.2, 539.7 135.6 Q 540.2 135.0, 540.2 133.8 Q 540.2 132.7, 539.7 132.1 Q 539.2 131.5, 538.3 131.5 Q 537.4 131.5, 536.9 132.1 Q 536.5 132.7, 536.5 133.8 Q 536.5 135.0, 536.9 135.6 Q 537.4 136.2, 538.3 136.2 " fill="#FF0000"/>
<path class="atom-8" d="M 410.0 78.0 L 410.8 78.0 L 410.8 80.5 L 413.8 80.5 L 413.8 78.0 L 414.6 78.0 L 414.6 83.9 L 413.8 83.9 L 413.8 81.2 L 410.8 81.2 L 410.8 83.9 L 410.0 83.9 L 410.0 78.0 " fill="#FF0000"/>
<path class="atom-8" d="M 415.9 80.9 Q 415.9 79.5, 416.6 78.7 Q 417.3 77.9, 418.6 77.9 Q 419.9 77.9, 420.6 78.7 Q 421.3 79.5, 421.3 80.9 Q 421.3 82.4, 420.6 83.2 Q 419.9 84.0, 418.6 84.0 Q 417.3 84.0, 416.6 83.2 Q 415.9 82.4, 415.9 80.9 M 418.6 83.3 Q 419.5 83.3, 420.0 82.7 Q 420.5 82.1, 420.5 80.9 Q 420.5 79.8, 420.0 79.2 Q 419.5 78.6, 418.6 78.6 Q 417.7 78.6, 417.2 79.2 Q 416.7 79.8, 416.7 80.9 Q 416.7 82.1, 417.2 82.7 Q 417.7 83.3, 418.6 83.3 " fill="#FF0000"/>
<path class="atom-11" d="M 511.8 75.6 Q 511.8 74.2, 512.5 73.4 Q 513.2 72.6, 514.5 72.6 Q 515.8 72.6, 516.5 73.4 Q 517.2 74.2, 517.2 75.6 Q 517.2 77.1, 516.5 77.9 Q 515.8 78.7, 514.5 78.7 Q 513.2 78.7, 512.5 77.9 Q 511.8 77.1, 511.8 75.6 M 514.5 78.0 Q 515.4 78.0, 515.9 77.4 Q 516.4 76.8, 516.4 75.6 Q 516.4 74.5, 515.9 73.9 Q 515.4 73.3, 514.5 73.3 Q 513.6 73.3, 513.1 73.9 Q 512.6 74.5, 512.6 75.6 Q 512.6 76.8, 513.1 77.4 Q 513.6 78.0, 514.5 78.0 " fill="#FF0000"/>
<path class="atom-15" d="M 579.0 48.1 Q 579.0 46.7, 579.7 45.9 Q 580.4 45.1, 581.7 45.1 Q 583.0 45.1, 583.7 45.9 Q 584.4 46.7, 584.4 48.1 Q 584.4 49.6, 583.7 50.4 Q 583.0 51.2, 581.7 51.2 Q 580.4 51.2, 579.7 50.4 Q 579.0 49.6, 579.0 48.1 M 581.7 50.5 Q 582.6 50.5, 583.1 49.9 Q 583.6 49.3, 583.6 48.1 Q 583.6 46.9, 583.1 46.4 Q 582.6 45.8, 581.7 45.8 Q 580.8 45.8, 580.3 46.3 Q 579.8 46.9, 579.8 48.1 Q 579.8 49.3, 580.3 49.9 Q 580.8 50.5, 581.7 50.5 " fill="#FF0000"/>
<path class="atom-15" d="M 585.4 45.2 L 586.2 45.2 L 586.2 47.7 L 589.2 47.7 L 589.2 45.2 L 590.0 45.2 L 590.0 51.1 L 589.2 51.1 L 589.2 48.4 L 586.2 48.4 L 586.2 51.1 L 585.4 51.1 L 585.4 45.2 " fill="#FF0000"/>
<path class="atom-18" d="M 569.2 120.1 Q 569.2 118.6, 569.9 117.8 Q 570.6 117.1, 571.9 117.1 Q 573.3 117.1, 574.0 117.8 Q 574.7 118.6, 574.7 120.1 Q 574.7 121.5, 574.0 122.3 Q 573.2 123.1, 571.9 123.1 Q 570.6 123.1, 569.9 122.3 Q 569.2 121.5, 569.2 120.1 M 571.9 122.5 Q 572.8 122.5, 573.3 121.9 Q 573.8 121.3, 573.8 120.1 Q 573.8 118.9, 573.3 118.3 Q 572.8 117.7, 571.9 117.7 Q 571.0 117.7, 570.5 118.3 Q 570.1 118.9, 570.1 120.1 Q 570.1 121.3, 570.5 121.9 Q 571.0 122.5, 571.9 122.5 " fill="#FF0000"/>
<path class="atom-18" d="M 575.6 117.1 L 576.4 117.1 L 576.4 119.6 L 579.4 119.6 L 579.4 117.1 L 580.2 117.1 L 580.2 123.1 L 579.4 123.1 L 579.4 120.3 L 576.4 120.3 L 576.4 123.1 L 575.6 123.1 L 575.6 117.1 " fill="#FF0000"/>
<path class="legend" d="M 495.6 184.2 Q 495.6 181.4, 496.9 179.9 Q 498.3 178.4, 500.8 178.4 Q 503.1 178.4, 504.4 180.0 L 503.3 180.9 Q 502.4 179.7, 500.8 179.7 Q 499.1 179.7, 498.2 180.9 Q 497.3 182.0, 497.3 184.2 Q 497.3 186.4, 498.2 187.6 Q 499.1 188.7, 501.0 188.7 Q 502.2 188.7, 503.7 188.0 L 504.1 189.2 Q 503.5 189.6, 502.6 189.8 Q 501.7 190.0, 500.7 190.0 Q 498.3 190.0, 496.9 188.5 Q 495.6 187.0, 495.6 184.2 " fill="#000000"/>
<path class="bond-0 atom-0 atom-1" d="M 761.2,123.9 L 760.6,115.3" style="fill:none;fill-rule:evenodd;stroke:#000000;stroke-width:2.0px;stroke-linecap:butt;stroke-linejoin:miter;stroke-opacity:1"/>
<path class="bond-0 atom-0 atom-1" d="M 760.6,115.3 L 760.0,106.7" style="fill:none;fill-rule:evenodd;stroke:#FF0000;stroke-width:2.0px;stroke-linecap:butt;stroke-linejoin:miter;stroke-opacity:1"/>
<path class="bond-1 atom-1 atom-2" d="M 756.3,101.3 L 748.6,97.5" style="fill:none;fill-rule:evenodd;stroke:#FF0000;stroke-width:2.0px;stroke-linecap:butt;stroke-linejoin:miter;stroke-opacity:1"/>
<path class="bond-1 atom-1 atom-2" d="M 748.6,97.5 L 740.9,93.8" style="fill:none;fill-rule:evenodd;stroke:#000000;stroke-width:2.0px;stroke-linecap:butt;stroke-linejoin:miter;stroke-opacity:1"/>
<path class="bond-2 atom-2 atom-3" d="M 740.9,93.8 L 723.5,105.5" style="fill:none;fill-rule:evenodd;stroke:#000000;stroke-width:2.0px;stroke-linecap:butt;stroke-linejoin:miter;stroke-opacity:1"/>
<path class="bond-2 atom-2 atom-3" d="M 737.6,92.2 L 723.3,101.8" style="fill:none;fill-rule:evenodd;stroke:#000000;stroke-width:2.0px;stroke-linecap:butt;stroke-linejoin:miter;stroke-opacity:1"/>
<path class="bond-3 atom-3 atom-4" d="M 723.5,105.5 L 704.7,96.3" style="fill:none;fill-rule:evenodd;stroke:#000000;stroke-width:2.0px;stroke-linecap:butt;stroke-linejoin:miter;stroke-opacity:1"/>
<path class="bond-4 atom-4 atom-5" d="M 704.7,96.3 L 687.3,108.0" style="fill:none;fill-rule:evenodd;stroke:#000000;stroke-width:2.0px;stroke-linecap:butt;stroke-linejoin:miter;stroke-opacity:1"/>
<path class="bond-5 atom-5 atom-6" d="M 687.3,108.0 L 668.5,98.8" style="fill:none;fill-rule:evenodd;stroke:#000000;stroke-width:2.0px;stroke-linecap:butt;stroke-linejoin:miter;stroke-opacity:1"/>
<path class="bond-6 atom-6 atom-7" d="M 668.5,98.8 L 649.9,108.6" style="fill:none;fill-rule:evenodd;stroke:#000000;stroke-width:2.0px;stroke-linecap:butt;stroke-linejoin:miter;stroke-opacity:1"/>
<path class="bond-7 atom-7 atom-8" d="M 649.9,108.6 L 634.9,94.0" style="fill:none;fill-rule:evenodd;stroke:#000000;stroke-width:2.0px;stroke-linecap:butt;stroke-linejoin:miter;stroke-opacity:1"/>
<path class="bond-8 atom-8 atom-9" d="M 634.9,94.0 L 638.5,86.5" style="fill:none;fill-rule:evenodd;stroke:#000000;stroke-width:2.0px;stroke-linecap:butt;stroke-linejoin:miter;stroke-opacity:1"/>
<path class="bond-8 atom-8 atom-9" d="M 638.5,86.5 L 642.2,79.0" style="fill:none;fill-rule:evenodd;stroke:#FF0000;stroke-width:2.0px;stroke-linecap:butt;stroke-linejoin:miter;stroke-opacity:1"/>
<path class="bond-9 atom-9 atom-10" d="M 647.5,75.7 L 656.2,76.9" style="fill:none;fill-rule:evenodd;stroke:#FF0000;stroke-width:2.0px;stroke-linecap:butt;stroke-linejoin:miter;stroke-opacity:1"/>
<path class="bond-9 atom-9 atom-10" d="M 656.2,76.9 L 664.8,78.1" style="fill:none;fill-rule:evenodd;stroke:#000000;stroke-width:2.0px;stroke-linecap:butt;stroke-linejoin:miter;stroke-opacity:1"/>
<path class="bond-10 atom-4 atom-11" d="M 704.7,96.3 L 703.2,75.3" style="fill:none;fill-rule:evenodd;stroke:#000000;stroke-width:2.0px;stroke-linecap:butt;stroke-linejoin:miter;stroke-opacity:1"/>
<path class="bond-10 atom-4 atom-11" d="M 707.7,94.2 L 706.5,76.9" style="fill:none;fill-rule:evenodd;stroke:#000000;stroke-width:2.0px;stroke-linecap:butt;stroke-linejoin:miter;stroke-opacity:1"/>
<path class="bond-11 atom-11 atom-12" d="M 703.2,75.3 L 720.6,63.6" style="fill:none;fill-rule:evenodd;stroke:#000000;stroke-width:2.0px;stroke-linecap:butt;stroke-linejoin:miter;stroke-opacity:1"/>
<path class="bond-12 atom-12 atom-13" d="M 720.6,63.6 L 739.5,72.8" style="fill:none;fill-rule:evenodd;stroke:#000000;stroke-width:2.0px;stroke-linecap:butt;stroke-linejoin:miter;stroke-opacity:1"/>
<path class="bond-12 atom-12 atom-13" d="M 720.9,67.3 L 736.4,74.9" style="fill:none;fill-rule:evenodd;stroke:#000000;stroke-width:2.0px;stroke-linecap:butt;stroke-linejoin:miter;stroke-opacity:1"/>
<path class="bond-13 atom-13 atom-14" d="M 739.5,72.8 L 746.4,68.1" style="fill:none;fill-rule:evenodd;stroke:#000000;stroke-width:2.0px;stroke-linecap:butt;stroke-linejoin:miter;stroke-opacity:1"/>
<path class="bond-13 atom-13 atom-14" d="M 746.4,68.1 L 753.4,63.4" style="fill:none;fill-rule:evenodd;stroke:#FF0000;stroke-width:2.0px;stroke-linecap:butt;stroke-linejoin:miter;stroke-opacity:1"/>
<path class="bond-14 atom-13 atom-2" d="M 739.5,72.8 L 740.9,93.8" style="fill:none;fill-rule:evenodd;stroke:#000000;stroke-width:2.0px;stroke-linecap:butt;stroke-linejoin:miter;stroke-opacity:1"/>
<path class="bond-15 atom-10 atom-6" d="M 664.8,78.1 L 668.5,98.8" style="fill:none;fill-rule:evenodd;stroke:#000000;stroke-width:2.0px;stroke-linecap:butt;stroke-linejoin:miter;stroke-opacity:1"/>
<path d="M 724.4,104.9 L 723.5,105.5 L 722.6,105.0" style="fill:none;stroke:#000000;stroke-width:2.0px;stroke-linecap:butt;stroke-linejoin:miter;stroke-opacity:1;"/>
<path d="M 688.2,107.4 L 687.3,108.0 L 686.3,107.5" style="fill:none;stroke:#000000;stroke-width:2.0px;stroke-linecap:butt;stroke-linejoin:miter;stroke-opacity:1;"/>
<path d="M 650.9,108.1 L 649.9,108.6 L 649.2,107.9" style="fill:none;stroke:#000000;stroke-width:2.0px;stroke-linecap:butt;stroke-linejoin:miter;stroke-opacity:1;"/>
<path d="M 635.6,94.8 L 634.9,94.0 L 635.1,93.7" style="fill:none;stroke:#000000;stroke-width:2.0px;stroke-linecap:butt;stroke-linejoin:miter;stroke-opacity:1;"/>
<path d="M 664.4,78.1 L 664.8,78.1 L 665.0,79.2" style="fill:none;stroke:#000000;stroke-width:2.0px;stroke-linecap:butt;stroke-linejoin:miter;stroke-opacity:1;"/>
<path d="M 703.3,76.4 L 703.2,75.3 L 704.1,74.8" style="fill:none;stroke:#000000;stroke-width:2.0px;stroke-linecap:butt;stroke-linejoin:miter;stroke-opacity:1;"/>
<path d="M 719.7,64.2 L 720.6,63.6 L 721.6,64.1" style="fill:none;stroke:#000000;stroke-width:2.0px;stroke-linecap:butt;stroke-linejoin:miter;stroke-opacity:1;"/>
<path class="atom-1" d="M 757.0 103.0 Q 757.0 101.5, 757.7 100.8 Q 758.4 100.0, 759.7 100.0 Q 761.0 100.0, 761.8 100.8 Q 762.5 101.5, 762.5 103.0 Q 762.5 104.4, 761.7 105.2 Q 761.0 106.1, 759.7 106.1 Q 758.4 106.1, 757.7 105.2 Q 757.0 104.4, 757.0 103.0 M 759.7 105.4 Q 760.6 105.4, 761.1 104.8 Q 761.6 104.2, 761.6 103.0 Q 761.6 101.8, 761.1 101.2 Q 760.6 100.6, 759.7 100.6 Q 758.8 100.6, 758.3 101.2 Q 757.8 101.8, 757.8 103.0 Q 757.8 104.2, 758.3 104.8 Q 758.8 105.4, 759.7 105.4 " fill="#FF0000"/>
<path class="atom-9" d="M 641.3 75.2 Q 641.3 73.8, 642.0 73.0 Q 642.8 72.2, 644.1 72.2 Q 645.4 72.2, 646.1 73.0 Q 646.8 73.8, 646.8 75.2 Q 646.8 76.7, 646.1 77.5 Q 645.4 78.3, 644.1 78.3 Q 642.8 78.3, 642.0 77.5 Q 641.3 76.7, 641.3 75.2 M 644.1 77.6 Q 645.0 77.6, 645.5 77.0 Q 646.0 76.4, 646.0 75.2 Q 646.0 74.0, 645.5 73.5 Q 645.0 72.9, 644.1 72.9 Q 643.2 72.9, 642.7 73.4 Q 642.2 74.0, 642.2 75.2 Q 642.2 76.4, 642.7 77.0 Q 643.2 77.6, 644.1 77.6 " fill="#FF0000"/>
<path class="atom-14" d="M 754.1 61.1 Q 754.1 59.7, 754.8 58.9 Q 755.5 58.1, 756.8 58.1 Q 758.2 58.1, 758.9 58.9 Q 759.6 59.7, 759.6 61.1 Q 759.6 62.6, 758.8 63.4 Q 758.1 64.2, 756.8 64.2 Q 755.5 64.2, 754.8 63.4 Q 754.1 62.6, 754.1 61.1 M 756.8 63.6 Q 757.7 63.6, 758.2 63.0 Q 758.7 62.3, 758.7 61.1 Q 758.7 60.0, 758.2 59.4 Q 757.7 58.8, 756.8 58.8 Q 755.9 58.8, 755.4 59.4 Q 755.0 60.0, 755.0 61.1 Q 755.0 62.3, 755.4 63.0 Q 755.9 63.6, 756.8 63.6 " fill="#FF0000"/>
<path class="atom-14" d="M 760.5 58.2 L 761.3 58.2 L 761.3 60.7 L 764.3 60.7 L 764.3 58.2 L 765.1 58.2 L 765.1 64.1 L 764.3 64.1 L 764.3 61.4 L 761.3 61.4 L 761.3 64.1 L 760.5 64.1 L 760.5 58.2 " fill="#FF0000"/>
<path class="legend" d="M 699.2 178.7 Q 701.7 178.7, 703.1 180.2 Q 704.4 181.6, 704.4 184.3 Q 704.4 187.0, 703.1 188.5 Q 701.7 190.0, 699.2 190.0 L 695.6 190.0 L 695.6 178.7 L 699.2 178.7 M 699.2 188.7 Q 701.0 188.7, 701.9 187.6 Q 702.8 186.5, 702.8 184.3 Q 702.8 182.1, 701.9 181.0 Q 701.0 180.0, 699.2 180.0 L 697.1 180.0 L 697.1 188.7 L 699.2 188.7 " fill="#000000"/>
<path class="bond-0 atom-0 atom-1" d="M 54.4,293.9 L 73.1,284.4" style="fill:none;fill-rule:evenodd;stroke:#000000;stroke-width:2.0px;stroke-linecap:butt;stroke-linejoin:miter;stroke-opacity:1"/>
<path class="bond-1 atom-1 atom-2" d="M 73.1,284.4 L 90.7,295.8" style="fill:none;fill-rule:evenodd;stroke:#000000;stroke-width:2.0px;stroke-linecap:butt;stroke-linejoin:miter;stroke-opacity:1"/>
<path class="bond-2 atom-2 atom-3" d="M 90.7,295.8 L 109.3,286.2" style="fill:none;fill-rule:evenodd;stroke:#000000;stroke-width:2.0px;stroke-linecap:butt;stroke-linejoin:miter;stroke-opacity:1"/>
<path class="bond-3 atom-3 atom-4" d="M 109.3,286.2 L 126.9,297.6" style="fill:none;fill-rule:evenodd;stroke:#000000;stroke-width:2.0px;stroke-linecap:butt;stroke-linejoin:miter;stroke-opacity:1"/>
<path class="bond-4 atom-4 atom-5" d="M 126.9,297.6 L 145.6,288.1" style="fill:none;fill-rule:evenodd;stroke:#000000;stroke-width:2.0px;stroke-linecap:butt;stroke-linejoin:miter;stroke-opacity:1"/>
<path d="M 72.1,284.9 L 73.1,284.4 L 73.9,285.0" style="fill:none;stroke:#000000;stroke-width:2.0px;stroke-linecap:butt;stroke-linejoin:miter;stroke-opacity:1;"/>
<path d="M 89.8,295.2 L 90.7,295.8 L 91.6,295.3" style="fill:none;stroke:#000000;stroke-width:2.0px;stroke-linecap:butt;stroke-linejoin:miter;stroke-opacity:1;"/>
<path d="M 108.4,286.7 L 109.3,286.2 L 110.2,286.8" style="fill:none;stroke:#000000;stroke-width:2.0px;stroke-linecap:butt;stroke-linejoin:miter;stroke-opacity:1;"/>
<path d="M 126.1,297.0 L 126.9,297.6 L 127.9,297.1" style="fill:none;stroke:#000000;stroke-width:2.0px;stroke-linecap:butt;stroke-linejoin:miter;stroke-opacity:1;"/>
<path class="legend" d="M 96.5 378.7 L 103.3 378.7 L 103.3 380.0 L 98.1 380.0 L 98.1 383.4 L 102.8 383.4 L 102.8 384.7 L 98.1 384.7 L 98.1 388.7 L 103.5 388.7 L 103.5 390.0 L 96.5 390.0 L 96.5 378.7 " fill="#000000"/>
<path class="bond-0 atom-0 atom-1" d="M 323.9,291.0 L 315.1,291.0" style="fill:none;fill-rule:evenodd;stroke:#FF0000;stroke-width:2.0px;stroke-linecap:butt;stroke-linejoin:miter;stroke-opacity:1"/>
<path class="bond-0 atom-0 atom-1" d="M 315.1,291.0 L 306.3,291.0" style="fill:none;fill-rule:evenodd;stroke:#000000;stroke-width:2.0px;stroke-linecap:butt;stroke-linejoin:miter;stroke-opacity:1"/>
<path class="bond-1 atom-1 atom-2" d="M 306.3,291.0 L 295.9,309.2" style="fill:none;fill-rule:evenodd;stroke:#000000;stroke-width:2.0px;stroke-linecap:butt;stroke-linejoin:miter;stroke-opacity:1"/>
<path class="bond-1 atom-1 atom-2" d="M 302.7,291.0 L 294.0,306.0" style="fill:none;fill-rule:evenodd;stroke:#000000;stroke-width:2.0px;stroke-linecap:butt;stroke-linejoin:miter;stroke-opacity:1"/>
<path class="bond-2 atom-2 atom-3" d="M 295.9,309.2 L 274.9,309.2" style="fill:none;fill-rule:evenodd;stroke:#000000;stroke-width:2.0px;stroke-linecap:butt;stroke-linejoin:miter;stroke-opacity:1"/>
<path class="bond-3 atom-3 atom-4" d="M 274.9,309.2 L 264.4,291.0" style="fill:none;fill-rule:evenodd;stroke:#000000;stroke-width:2.0px;stroke-linecap:butt;stroke-linejoin:miter;stroke-opacity:1"/>
<path class="bond-3 atom-3 atom-4" d="M 276.7,306.0 L 268.0,291.0" style="fill:none;fill-rule:evenodd;stroke:#000000;stroke-width:2.0px;stroke-linecap:butt;stroke-linejoin:miter;stroke-opacity:1"/>
<path class="bond-4 atom-4 atom-5" d="M 264.4,291.0 L 274.9,272.8" style="fill:none;fill-rule:evenodd;stroke:#000000;stroke-width:2.0px;stroke-linecap:butt;stroke-linejoin:miter;stroke-opacity:1"/>
<path class="bond-5 atom-5 atom-6" d="M 274.9,272.8 L 295.9,272.8" style="fill:none;fill-rule:evenodd;stroke:#000000;stroke-width:2.0px;stroke-linecap:butt;stroke-linejoin:miter;stroke-opacity:1"/>
<path class="bond-5 atom-5 atom-6" d="M 276.7,276.0 L 294.0,276.0" style="fill:none;fill-rule:evenodd;stroke:#000000;stroke-width:2.0px;stroke-linecap:butt;stroke-linejoin:miter;stroke-opacity:1"/>
<path class="bond-6 atom-6 atom-1" d="M 295.9,272.8 L 306.3,291.0" style="fill:none;fill-rule:evenodd;stroke:#000000;stroke-width:2.0px;stroke-linecap:butt;stroke-linejoin:miter;stroke-opacity:1"/>
<path d="M 296.4,308.2 L 295.9,309.2 L 294.8,309.2" style="fill:none;stroke:#000000;stroke-width:2.0px;stroke-linecap:butt;stroke-linejoin:miter;stroke-opacity:1;"/>
<path d="M 275.9,309.2 L 274.9,309.2 L 274.4,308.2" style="fill:none;stroke:#000000;stroke-width:2.0px;stroke-linecap:butt;stroke-linejoin:miter;stroke-opacity:1;"/>
<path d="M 264.9,291.9 L 264.4,291.0 L 264.9,290.1" style="fill:none;stroke:#000000;stroke-width:2.0px;stroke-linecap:butt;stroke-linejoin:miter;stroke-opacity:1;"/>
<path d="M 274.4,273.8 L 274.9,272.8 L 275.9,272.8" style="fill:none;stroke:#000000;stroke-width:2.0px;stroke-linecap:butt;stroke-linejoin:miter;stroke-opacity:1;"/>
<path d="M 294.8,272.8 L 295.9,272.8 L 296.4,273.8" style="fill:none;stroke:#000000;stroke-width:2.0px;stroke-linecap:butt;stroke-linejoin:miter;stroke-opacity:1;"/>
<path class="atom-0" d="M 324.6 291.0 Q 324.6 289.6, 325.3 288.8 Q 326.0 288.0, 327.3 288.0 Q 328.6 288.0, 329.3 288.8 Q 330.0 289.6, 330.0 291.0 Q 330.0 292.5, 329.3 293.3 Q 328.6 294.1, 327.3 294.1 Q 326.0 294.1, 325.3 293.3 Q 324.6 292.5, 324.6 291.0 M 327.3 293.4 Q 328.2 293.4, 328.7 292.8 Q 329.2 292.2, 329.2 291.0 Q 329.2 289.9, 328.7 289.3 Q 328.2 288.7, 327.3 288.7 Q 326.4 288.7, 325.9 289.3 Q 325.4 289.8, 325.4 291.0 Q 325.4 292.2, 325.9 292.8 Q 326.4 293.4, 327.3 293.4 " fill="#FF0000"/>
<path class="atom-0" d="M 330.9 288.1 L 331.8 288.1 L 331.8 290.6 L 334.8 290.6 L 334.8 288.1 L 335.6 288.1 L 335.6 294.0 L 334.8 294.0 L 334.8 291.3 L 331.8 291.3 L 331.8 294.0 L 330.9 294.0 L 330.9 288.1 " fill="#FF0000"/>
<path class="legend" d="M 296.6 378.7 L 303.4 378.7 L 303.4 380.0 L 298.2 380.0 L 298.2 383.4 L 302.8 383.4 L 302.8 384.7 L 298.2 384.7 L 298.2 390.0 L 296.6 390.0 L 296.6 378.7 " fill="#000000"/>
<path class="bond-0 atom-0 atom-1" d="M 463.7,296.2 L 481.8,285.8" style="fill:none;fill-rule:evenodd;stroke:#000000;stroke-width:2.0px;stroke-linecap:butt;stroke-linejoin:miter;stroke-opacity:1"/>
<path class="bond-1 atom-1 atom-2" d="M 481.8,285.8 L 500.0,296.2" style="fill:none;fill-rule:evenodd;stroke:#000000;stroke-width:2.0px;stroke-linecap:butt;stroke-linejoin:miter;stroke-opacity:1"/>
<path class="bond-2 atom-2 atom-3" d="M 500.0,296.2 L 518.2,285.8" style="fill:none;fill-rule:evenodd;stroke:#000000;stroke-width:2.0px;stroke-linecap:butt;stroke-linejoin:miter;stroke-opacity:1"/>
<path class="bond-3 atom-3 atom-4" d="M 518.2,285.8 L 536.3,296.2" style="fill:none;fill-rule:evenodd;stroke:#000000;stroke-width:2.0px;stroke-linecap:butt;stroke-linejoin:miter;stroke-opacity:1"/>
<path d="M 480.9,286.3 L 481.8,285.8 L 482.8,286.3" style="fill:none;stroke:#000000;stroke-width:2.0px;stroke-linecap:butt;stroke-linejoin:miter;stroke-opacity:1;"/>
<path d="M 499.1,295.7 L 500.0,296.2 L 500.9,295.7" style="fill:none;stroke:#000000;stroke-width:2.0px;stroke-linecap:butt;stroke-linejoin:miter;stroke-opacity:1;"/>
<path d="M 517.2,286.3 L 518.2,285.8 L 519.1,286.3" style="fill:none;stroke:#000000;stroke-width:2.0px;stroke-linecap:butt;stroke-linejoin:miter;stroke-opacity:1;"/>
<path class="legend" d="M 504.6 384.3 L 504.6 389.1 Q 502.9 390.0, 500.6 390.0 Q 498.1 390.0, 496.8 388.5 Q 495.4 387.0, 495.4 384.2 Q 495.4 381.4, 496.8 379.9 Q 498.1 378.4, 500.6 378.4 Q 501.9 378.4, 502.9 378.8 Q 503.8 379.2, 504.5 380.0 L 503.5 380.9 Q 502.4 379.7, 500.6 379.7 Q 498.9 379.7, 498.0 380.8 Q 497.1 382.0, 497.1 384.2 Q 497.1 386.4, 498.0 387.6 Q 499.0 388.7, 500.8 388.7 Q 502.0 388.7, 503.0 388.3 L 503.0 384.3 L 504.6 384.3 " fill="#000000"/>
</svg>