<svg xmlns="http://www.w3.org/2000/svg" xmlns:rdkit="http://www.rdkit.org/xml" xmlns:xlink="http://www.w3.org/1999/xlink" version="1.1" baseProfile="full" xml:space="preserve" width="800px" height="400px" viewBox="0 0 800 400">
<!-- END OF HEADER -->
<rect style="opacity:1.0;fill:#FFFFFF;stroke:none" width="800.0" height="400.0" x="0.0" y="0.0"> </rect>
<path class="bond-0 atom-0 atom-1" d="M 41.0,82.6 L 46.2,87.7" style="fill:none;fill-rule:evenodd;stroke:#FF0000;stroke-width:2.0px;stroke-linecap:butt;stroke-linejoin:miter;stroke-opacity:1"/>
<path class="bond-0 atom-0 atom-1" d="M 46.2,87.7 L 51.4,92.8" style="fill:none;fill-rule:evenodd;stroke:#000000;stroke-width:2.0px;stroke-linecap:butt;stroke-linejoin:miter;stroke-opacity:1"/>
<path class="bond-0 atom-0 atom-1" d="M 43.0,80.6 L 48.2,85.7" style="fill:none;fill-rule:evenodd;stroke:#FF0000;stroke-width:2.0px;stroke-linecap:butt;stroke-linejoin:miter;stroke-opacity:1"/>
<path class="bond-0 atom-0 atom-1" d="M 48.2,85.7 L 52.2,89.7" style="fill:none;fill-rule:evenodd;stroke:#000000;stroke-width:2.0px;stroke-linecap:butt;stroke-linejoin:miter;stroke-opacity:1"/>
<path class="bond-1 atom-1 atom-2" d="M 51.4,92.8 L 69.6,87.8" style="fill:none;fill-rule:evenodd;stroke:#000000;stroke-width:2.0px;stroke-linecap:butt;stroke-linejoin:miter;stroke-opacity:1"/>
<path class="bond-2 atom-2 atom-3" d="M 69.6,87.8 L 83.1,101.1" style="fill:none;fill-rule:evenodd;stroke:#000000;stroke-width:2.0px;stroke-linecap:butt;stroke-linejoin:miter;stroke-opacity:1"/>
<path class="bond-2 atom-2 atom-3" d="M 68.8,91.0 L 81.1,103.1" style="fill:none;fill-rule:evenodd;stroke:#000000;stroke-width:2.0px;stroke-linecap:butt;stroke-linejoin:miter;stroke-opacity:1"/>
<path class="bond-3 atom-3 atom-4" d="M 83.1,101.1 L 101.4,96.0" style="fill:none;fill-rule:evenodd;stroke:#000000;stroke-width:2.0px;stroke-linecap:butt;stroke-linejoin:miter;stroke-opacity:1"/>
<path class="bond-4 atom-4 atom-5" d="M 101.4,96.0 L 106.1,77.7" style="fill:none;fill-rule:evenodd;stroke:#000000;stroke-width:2.0px;stroke-linecap:butt;stroke-linejoin:miter;stroke-opacity:1"/>
<path class="bond-4 atom-4 atom-5" d="M 104.5,95.2 L 108.4,80.0" style="fill:none;fill-rule:evenodd;stroke:#000000;stroke-width:2.0px;stroke-linecap:butt;stroke-linejoin:miter;stroke-opacity:1"/>
<path class="bond-5 atom-5 atom-6" d="M 106.1,77.7 L 124.3,72.7" style="fill:none;fill-rule:evenodd;stroke:#000000;stroke-width:2.0px;stroke-linecap:butt;stroke-linejoin:miter;stroke-opacity:1"/>
<path class="bond-6 atom-6 atom-7" d="M 124.3,72.7 L 137.8,86.0" style="fill:none;fill-rule:evenodd;stroke:#000000;stroke-width:2.0px;stroke-linecap:butt;stroke-linejoin:miter;stroke-opacity:1"/>
<path class="bond-6 atom-6 atom-7" d="M 123.5,75.9 L 134.7,86.8" style="fill:none;fill-rule:evenodd;stroke:#000000;stroke-width:2.0px;stroke-linecap:butt;stroke-linejoin:miter;stroke-opacity:1"/>
<path class="bond-7 atom-7 atom-8" d="M 137.8,86.0 L 145.4,83.9" style="fill:none;fill-rule:evenodd;stroke:#000000;stroke-width:2.0px;stroke-linecap:butt;stroke-linejoin:miter;stroke-opacity:1"/>
<path class="bond-7 atom-7 atom-8" d="M 145.4,83.9 L 153.0,81.8" style="fill:none;fill-rule:evenodd;stroke:#FF0000;stroke-width:2.0px;stroke-linecap:butt;stroke-linejoin:miter;stroke-opacity:1"/>
<path class="bond-8 atom-7 atom-9" d="M 137.8,86.0 L 133.1,104.3" style="fill:none;fill-rule:evenodd;stroke:#000000;stroke-width:2.0px;stroke-linecap:butt;stroke-linejoin:miter;stroke-opacity:1"/>
<path class="bond-9 atom-9 atom-10" d="M 133.1,104.3 L 114.8,109.3" style="fill:none;fill-rule:evenodd;stroke:#000000;stroke-width:2.0px;stroke-linecap:butt;stroke-linejoin:miter;stroke-opacity:1"/>
<path class="bond-9 atom-9 atom-10" d="M 130.7,102.0 L 115.7,106.1" style="fill:none;fill-rule:evenodd;stroke:#000000;stroke-width:2.0px;stroke-linecap:butt;stroke-linejoin:miter;stroke-opacity:1"/>
<path class="bond-10 atom-10 atom-4" d="M 114.8,109.3 L 101.4,96.0" style="fill:none;fill-rule:evenodd;stroke:#000000;stroke-width:2.0px;stroke-linecap:butt;stroke-linejoin:miter;stroke-opacity:1"/>
<path d="M 51.1,92.6 L 51.4,92.8 L 52.3,92.6" style="fill:none;stroke:#000000;stroke-width:2.0px;stroke-linecap:butt;stroke-linejoin:miter;stroke-opacity:1;"/>
<path d="M 68.7,88.1 L 69.6,87.8 L 70.3,88.5" style="fill:none;stroke:#000000;stroke-width:2.0px;stroke-linecap:butt;stroke-linejoin:miter;stroke-opacity:1;"/>
<path d="M 82.4,100.4 L 83.1,101.1 L 84.0,100.8" style="fill:none;stroke:#000000;stroke-width:2.0px;stroke-linecap:butt;stroke-linejoin:miter;stroke-opacity:1;"/>
<path d="M 105.9,78.6 L 106.1,77.7 L 107.0,77.5" style="fill:none;stroke:#000000;stroke-width:2.0px;stroke-linecap:butt;stroke-linejoin:miter;stroke-opacity:1;"/>
<path d="M 123.4,72.9 L 124.3,72.7 L 125.0,73.4" style="fill:none;stroke:#000000;stroke-width:2.0px;stroke-linecap:butt;stroke-linejoin:miter;stroke-opacity:1;"/>
<path d="M 133.3,103.4 L 133.1,104.3 L 132.2,104.5" style="fill:none;stroke:#000000;stroke-width:2.0px;stroke-linecap:butt;stroke-linejoin:miter;stroke-opacity:1;"/>
<path d="M 115.7,109.1 L 114.8,109.3 L 114.2,108.6" style="fill:none;stroke:#000000;stroke-width:2.0px;stroke-linecap:butt;stroke-linejoin:miter;stroke-opacity:1;"/>
<path class="atom-0" d="M 36.5 78.6 Q 36.5 77.3, 37.1 76.6 Q 37.7 75.9, 38.9 75.9 Q 40.1 75.9, 40.7 76.6 Q 41.4 77.3, 41.4 78.6 Q 41.4 79.9, 40.7 80.6 Q 40.1 81.4, 38.9 81.4 Q 37.7 81.4, 37.1 80.6 Q 36.5 79.9, 36.5 78.6 M 38.9 80.7 Q 39.7 80.7, 40.2 80.2 Q 40.6 79.6, 40.6 78.6 Q 40.6 77.5, 40.2 77.0 Q 39.7 76.5, 38.9 76.5 Q 38.1 76.5, 37.6 77.0 Q 37.2 77.5, 37.2 78.6 Q 37.2 79.7, 37.6 80.2 Q 38.1 80.7, 38.9 80.7 " fill="#FF0000"/>
<path class="atom-8" d="M 153.6 80.9 Q 153.6 79.7, 154.2 78.9 Q 154.9 78.2, 156.1 78.2 Q 157.2 78.2, 157.9 78.9 Q 158.5 79.7, 158.5 80.9 Q 158.5 82.2, 157.9 83.0 Q 157.2 83.7, 156.1 83.7 Q 154.9 83.7, 154.2 83.0 Q 153.6 82.2, 153.6 80.9 M 156.1 83.1 Q 156.9 83.1, 157.3 82.6 Q 157.8 82.0, 157.8 80.9 Q 157.8 79.9, 157.3 79.4 Q 156.9 78.8, 156.1 78.8 Q 155.2 78.8, 154.8 79.3 Q 154.4 79.9, 154.4 80.9 Q 154.4 82.0, 154.8 82.6 Q 155.2 83.1, 156.1 83.1 " fill="#FF0000"/>
<path class="atom-8" d="M 159.4 78.3 L 160.1 78.3 L 160.1 80.6 L 162.8 80.6 L 162.8 78.3 L 163.5 78.3 L 163.5 83.6 L 162.8 83.6 L 162.8 81.2 L 160.1 81.2 L 160.1 83.6 L 159.4 83.6 L 159.4 78.3 " fill="#FF0000"/>
<path class="legend" d="M 103.4 190.0 L 102.2 186.7 L 97.8 186.7 L 96.6 190.0 L 95.1 190.0 L 99.0 178.7 L 100.9 178.7 L 104.9 190.0 L 103.4 190.0 M 98.2 185.4 L 101.8 185.4 L 100.0 180.3 L 98.2 185.4 " fill="#000000"/>
<path class="bond-0 atom-0 atom-1" d="M 247.1,94.3 L 263.5,84.9" style="fill:none;fill-rule:evenodd;stroke:#000000;stroke-width:2.0px;stroke-linecap:butt;stroke-linejoin:miter;stroke-opacity:1"/>
<path class="bond-1 atom-1 atom-2" d="M 263.5,84.9 L 279.9,94.3" style="fill:none;fill-rule:evenodd;stroke:#000000;stroke-width:2.0px;stroke-linecap:butt;stroke-linejoin:miter;stroke-opacity:1"/>
<path class="bond-2 atom-2 atom-3" d="M 279.9,94.3 L 296.3,84.9" style="fill:none;fill-rule:evenodd;stroke:#000000;stroke-width:2.0px;stroke-linecap:butt;stroke-linejoin:miter;stroke-opacity:1"/>
<path class="bond-3 atom-3 atom-4" d="M 296.3,84.9 L 312.6,94.3" style="fill:none;fill-rule:evenodd;stroke:#000000;stroke-width:2.0px;stroke-linecap:butt;stroke-linejoin:miter;stroke-opacity:1"/>
<path class="bond-4 atom-4 atom-5" d="M 312.6,94.3 L 329.0,84.9" style="fill:none;fill-rule:evenodd;stroke:#000000;stroke-width:2.0px;stroke-linecap:butt;stroke-linejoin:miter;stroke-opacity:1"/>
<path class="bond-5 atom-5 atom-6" d="M 329.0,84.9 L 335.7,88.7" style="fill:none;fill-rule:evenodd;stroke:#000000;stroke-width:2.0px;stroke-linecap:butt;stroke-linejoin:miter;stroke-opacity:1"/>
<path class="bond-5 atom-5 atom-6" d="M 335.7,88.7 L 342.3,92.6" style="fill:none;fill-rule:evenodd;stroke:#FF0000;stroke-width:2.0px;stroke-linecap:butt;stroke-linejoin:miter;stroke-opacity:1"/>
<path d="M 262.7,85.3 L 263.5,84.9 L 264.3,85.3" style="fill:none;stroke:#000000;stroke-width:2.0px;stroke-linecap:butt;stroke-linejoin:miter;stroke-opacity:1;"/>
<path d="M 279.1,93.9 L 279.9,94.3 L 280.7,93.9" style="fill:none;stroke:#000000;stroke-width:2.0px;stroke-linecap:butt;stroke-linejoin:miter;stroke-opacity:1;"/>
<path d="M 295.4,85.3 L 296.3,84.9 L 297.1,85.3" style="fill:none;stroke:#000000;stroke-width:2.0px;stroke-linecap:butt;stroke-linejoin:miter;stroke-opacity:1;"/>
<path d="M 311.8,93.9 L 312.6,94.3 L 313.5,93.9" style="fill:none;stroke:#000000;stroke-width:2.0px;stroke-linecap:butt;stroke-linejoin:miter;stroke-opacity:1;"/>
<path d="M 328.2,85.3 L 329.0,84.9 L 329.4,85.1" style="fill:none;stroke:#000000;stroke-width:2.0px;stroke-linecap:butt;stroke-linejoin:miter;stroke-opacity:1;"/>
<path class="atom-6" d="M 343.0 94.3 Q 343.0 93.1, 343.6 92.3 Q 344.2 91.6, 345.4 91.6 Q 346.6 91.6, 347.2 92.3 Q 347.9 93.1, 347.9 94.3 Q 347.9 95.7, 347.2 96.4 Q 346.6 97.1, 345.4 97.1 Q 344.2 97.1, 343.6 96.4 Q 343.0 95.7, 343.0 94.3 M 345.4 96.5 Q 346.2 96.5, 346.7 96.0 Q 347.1 95.4, 347.1 94.3 Q 347.1 93.3, 346.7 92.8 Q 346.2 92.2, 345.4 92.2 Q 344.6 92.2, 344.1 92.8 Q 343.7 93.3, 343.7 94.3 Q 343.7 95.4, 344.1 96.0 Q 344.6 96.5, 345.4 96.5 " fill="#FF0000"/>
<path class="atom-6" d="M 348.7 91.7 L 349.4 91.7 L 349.4 94.0 L 352.2 94.0 L 352.2 91.7 L 352.9 91.7 L 352.9 97.0 L 352.2 97.0 L 352.2 94.6 L 349.4 94.6 L 349.4 97.0 L 348.7 97.0 L 348.7 91.7 " fill="#FF0000"/>
<path class="legend" d="M 301.7 184.0 Q 302.7 184.4, 303.3 185.0 Q 303.8 185.7, 303.8 186.7 Q 303.8 188.2, 302.8 189.1 Q 301.8 190.0, 300.0 190.0 L 296.2 190.0 L 296.2 178.7 L 299.5 178.7 Q 301.4 178.7, 302.4 179.5 Q 303.4 180.2, 303.4 181.7 Q 303.4 183.4, 301.7 184.0 M 297.7 180.0 L 297.7 183.5 L 299.5 183.5 Q 300.6 183.5, 301.2 183.1 Q 301.8 182.6, 301.8 181.7 Q 301.8 180.0, 299.5 180.0 L 297.7 180.0 M 300.0 188.7 Q 301.1 188.7, 301.7 188.2 Q 302.2 187.7, 302.2 186.7 Q 302.2 185.7, 301.6 185.3 Q 301.0 184.8, 299.7 184.8 L 297.7 184.8 L 297.7 188.7 L 300.0 188.7 " fill="#000000"/>
<path class="bond-0 atom-0 atom-1" d="M 453.4,131.6 L 471.9,135.3" style="fill:none;fill-rule:evenodd;stroke:#000000;stroke-width:2.0px;stroke-linecap:butt;stroke-linejoin:miter;stroke-opacity:1"/>
<path class="bond-0 atom-0 atom-1" d="M 454.0,128.8 L 470.9,132.2" style="fill:none;fill-rule:evenodd;stroke:#000000;stroke-width:2.0px;stroke-linecap:butt;stroke-linejoin:miter;stroke-opacity:1;stroke-dasharray:6,4"/>
<path class="bond-1 atom-1 atom-2" d="M 471.9,135.3 L 484.5,121.2" style="fill:none;fill-rule:evenodd;stroke:#000000;stroke-width:2.0px;stroke-linecap:butt;stroke-linejoin:miter;stroke-opacity:1"/>
<path class="bond-1 atom-1 atom-2" d="M 470.9,132.2 L 481.3,120.5" style="fill:none;fill-rule:evenodd;stroke:#000000;stroke-width:2.0px;stroke-linecap:butt;stroke-linejoin:miter;stroke-opacity:1;stroke-dasharray:6,4"/>
<path class="bond-2 atom-2 atom-3" d="M 484.5,121.2 L 492.2,122.7" style="fill:none;fill-rule:evenodd;stroke:#000000;stroke-width:2.0px;stroke-linecap:butt;stroke-linejoin:miter;stroke-opacity:1"/>
<path class="bond-2 atom-2 atom-3" d="M 492.2,122.7 L 499.9,124.3" style="fill:none;fill-rule:evenodd;stroke:#FF0000;stroke-width:2.0px;stroke-linecap:butt;stroke-linejoin:miter;stroke-opacity:1"/>
<path class="bond-2 atom-2 atom-3" d="M 485.0,118.4 L 492.8,119.9" style="fill:none;fill-rule:evenodd;stroke:#000000;stroke-width:2.0px;stroke-linecap:butt;stroke-linejoin:miter;stroke-opacity:1;stroke-dasharray:6,4"/>
<path class="bond-2 atom-2 atom-3" d="M 492.8,119.9 L 500.5,121.5" style="fill:none;fill-rule:evenodd;stroke:#FF0000;stroke-width:2.0px;stroke-linecap:butt;stroke-linejoin:miter;stroke-opacity:1;stroke-dasharray:6,4"/>
<path class="bond-3 atom-3 atom-4" d="M 506.0,121.6 L 510.7,116.2" style="fill:none;fill-rule:evenodd;stroke:#FF0000;stroke-width:2.0px;stroke-linecap:butt;stroke-linejoin:miter;stroke-opacity:1"/>
<path class="bond-3 atom-3 atom-4" d="M 510.7,116.2 L 515.5,110.7" style="fill:none;fill-rule:evenodd;stroke:#000000;stroke-width:2.0px;stroke-linecap:butt;stroke-linejoin:miter;stroke-opacity:1"/>
<path class="bond-4 atom-4 atom-5" d="M 515.5,110.7 L 534.1,114.5" style="fill:none;fill-rule:evenodd;stroke:#000000;stroke-width:2.0px;stroke-linecap:butt;stroke-linejoin:miter;stroke-opacity:1"/>
<path class="bond-4 atom-4 atom-5" d="M 517.7,108.3 L 533.0,111.4" style="fill:none;fill-rule:evenodd;stroke:#000000;stroke-width:2.0px;stroke-linecap:butt;stroke-linejoin:miter;stroke-opacity:1"/>
<path class="bond-5 atom-5 atom-6" d="M 534.1,114.5 L 546.6,100.3" style="fill:none;fill-rule:evenodd;stroke:#000000;stroke-width:2.0px;stroke-linecap:butt;stroke-linejoin:miter;stroke-opacity:1"/>
<path class="bond-6 atom-6 atom-7" d="M 546.6,100.3 L 540.6,82.4" style="fill:none;fill-rule:evenodd;stroke:#000000;stroke-width:2.0px;stroke-linecap:butt;stroke-linejoin:miter;stroke-opacity:1"/>
<path class="bond-6 atom-6 atom-7" d="M 543.4,99.7 L 538.4,84.9" style="fill:none;fill-rule:evenodd;stroke:#000000;stroke-width:2.0px;stroke-linecap:butt;stroke-linejoin:miter;stroke-opacity:1"/>
<path class="bond-7 atom-7 atom-8" d="M 540.6,82.4 L 522.1,78.6" style="fill:none;fill-rule:evenodd;stroke:#000000;stroke-width:2.0px;stroke-linecap:butt;stroke-linejoin:miter;stroke-opacity:1"/>
<path class="bond-8 atom-8 atom-9" d="M 522.1,78.6 L 519.6,71.4" style="fill:none;fill-rule:evenodd;stroke:#000000;stroke-width:2.0px;stroke-linecap:butt;stroke-linejoin:miter;stroke-opacity:1"/>
<path class="bond-8 atom-8 atom-9" d="M 519.6,71.4 L 517.2,64.1" style="fill:none;fill-rule:evenodd;stroke:#FF0000;stroke-width:2.0px;stroke-linecap:butt;stroke-linejoin:miter;stroke-opacity:1"/>
<path class="bond-9 atom-8 atom-10" d="M 522.1,78.6 L 509.5,92.8" style="fill:none;fill-rule:evenodd;stroke:#000000;stroke-width:2.0px;stroke-linecap:butt;stroke-linejoin:miter;stroke-opacity:1"/>
<path class="bond-9 atom-8 atom-10" d="M 523.1,81.7 L 512.7,93.5" style="fill:none;fill-rule:evenodd;stroke:#000000;stroke-width:2.0px;stroke-linecap:butt;stroke-linejoin:miter;stroke-opacity:1"/>
<path class="bond-10 atom-2 atom-11" d="M 484.5,121.2 L 478.5,103.2" style="fill:none;fill-rule:evenodd;stroke:#000000;stroke-width:2.0px;stroke-linecap:butt;stroke-linejoin:miter;stroke-opacity:1"/>
<path class="bond-11 atom-11 atom-12" d="M 478.5,103.2 L 491.0,89.0" style="fill:none;fill-rule:evenodd;stroke:#000000;stroke-width:2.0px;stroke-linecap:butt;stroke-linejoin:miter;stroke-opacity:1"/>
<path class="bond-11 atom-11 atom-12" d="M 477.4,100.1 L 487.8,88.4" style="fill:none;fill-rule:evenodd;stroke:#000000;stroke-width:2.0px;stroke-linecap:butt;stroke-linejoin:miter;stroke-opacity:1"/>
<path class="bond-12 atom-12 atom-13" d="M 491.0,89.0 L 485.0,71.1" style="fill:none;fill-rule:evenodd;stroke:#000000;stroke-width:2.0px;stroke-linecap:butt;stroke-linejoin:miter;stroke-opacity:1"/>
<path class="bond-13 atom-13 atom-14" d="M 485.0,71.1 L 466.4,67.3" style="fill:none;fill-rule:evenodd;stroke:#000000;stroke-width:2.0px;stroke-linecap:butt;stroke-linejoin:miter;stroke-opacity:1"/>
<path class="bond-13 atom-13 atom-14" d="M 482.8,73.6 L 467.5,70.4" style="fill:none;fill-rule:evenodd;stroke:#000000;stroke-width:2.0px;stroke-linecap:butt;stroke-linejoin:miter;stroke-opacity:1"/>
<path class="bond-14 atom-14 atom-15" d="M 466.4,67.3 L 464.0,60.1" style="fill:none;fill-rule:evenodd;stroke:#000000;stroke-width:2.0px;stroke-linecap:butt;stroke-linejoin:miter;stroke-opacity:1"/>
<path class="bond-14 atom-14 atom-15" d="M 464.0,60.1 L 461.6,52.8" style="fill:none;fill-rule:evenodd;stroke:#FF0000;stroke-width:2.0px;stroke-linecap:butt;stroke-linejoin:miter;stroke-opacity:1"/>
<path class="bond-15 atom-14 atom-16" d="M 466.4,67.3 L 453.9,81.5" style="fill:none;fill-rule:evenodd;stroke:#000000;stroke-width:2.0px;stroke-linecap:butt;stroke-linejoin:miter;stroke-opacity:1"/>
<path class="bond-16 atom-16 atom-17" d="M 453.9,81.5 L 459.9,99.4" style="fill:none;fill-rule:evenodd;stroke:#000000;stroke-width:2.0px;stroke-linecap:butt;stroke-linejoin:miter;stroke-opacity:1"/>
<path class="bond-16 atom-16 atom-17" d="M 457.1,82.2 L 462.1,97.0" style="fill:none;fill-rule:evenodd;stroke:#000000;stroke-width:2.0px;stroke-linecap:butt;stroke-linejoin:miter;stroke-opacity:1"/>
<path class="bond-17 atom-10 atom-4" d="M 509.5,92.8 L 515.5,110.7" style="fill:none;fill-rule:evenodd;stroke:#000000;stroke-width:2.0px;stroke-linecap:butt;stroke-linejoin:miter;stroke-opacity:1"/>
<path class="bond-18 atom-17 atom-11" d="M 459.9,99.4 L 478.5,103.2" style="fill:none;fill-rule:evenodd;stroke:#000000;stroke-width:2.0px;stroke-linecap:butt;stroke-linejoin:miter;stroke-opacity:1"/>
<path d="M 471.0,135.1 L 471.9,135.3 L 472.6,134.6" style="fill:none;stroke:#000000;stroke-width:2.0px;stroke-linecap:butt;stroke-linejoin:miter;stroke-opacity:1;"/>
<path d="M 533.2,114.3 L 534.1,114.5 L 534.7,113.8" style="fill:none;stroke:#000000;stroke-width:2.0px;stroke-linecap:butt;stroke-linejoin:miter;stroke-opacity:1;"/>
<path d="M 546.0,101.1 L 546.6,100.3 L 546.3,99.5" style="fill:none;stroke:#000000;stroke-width:2.0px;stroke-linecap:butt;stroke-linejoin:miter;stroke-opacity:1;"/>
<path d="M 540.9,83.3 L 540.6,82.4 L 539.7,82.2" style="fill:none;stroke:#000000;stroke-width:2.0px;stroke-linecap:butt;stroke-linejoin:miter;stroke-opacity:1;"/>
<path d="M 510.2,92.1 L 509.5,92.8 L 509.8,93.7" style="fill:none;stroke:#000000;stroke-width:2.0px;stroke-linecap:butt;stroke-linejoin:miter;stroke-opacity:1;"/>
<path d="M 490.4,89.7 L 491.0,89.0 L 490.7,88.1" style="fill:none;stroke:#000000;stroke-width:2.0px;stroke-linecap:butt;stroke-linejoin:miter;stroke-opacity:1;"/>
<path d="M 485.3,72.0 L 485.0,71.1 L 484.1,70.9" style="fill:none;stroke:#000000;stroke-width:2.0px;stroke-linecap:butt;stroke-linejoin:miter;stroke-opacity:1;"/>
<path d="M 454.5,80.8 L 453.9,81.5 L 454.2,82.4" style="fill:none;stroke:#000000;stroke-width:2.0px;stroke-linecap:butt;stroke-linejoin:miter;stroke-opacity:1;"/>
<path d="M 459.6,98.5 L 459.9,99.4 L 460.8,99.6" style="fill:none;stroke:#000000;stroke-width:2.0px;stroke-linecap:butt;stroke-linejoin:miter;stroke-opacity:1;"/>
<path class="atom-3" d="M 500.5 124.9 Q 500.5 123.6, 501.2 122.9 Q 501.8 122.2, 503.0 122.2 Q 504.2 122.2, 504.8 122.9 Q 505.5 123.6, 505.5 124.9 Q 505.5 126.2, 504.8 127.0 Q 504.2 127.7, 503.0 127.7 Q 501.8 127.7, 501.2 127.0 Q 500.5 126.2, 500.5 124.9 M 503.0 127.1 Q 503.8 127.1, 504.3 126.6 Q 504.7 126.0, 504.7 124.9 Q 504.7 123.9, 504.3 123.4 Q 503.8 122.8, 503.0 122.8 Q 502.2 122.8, 501.7 123.3 Q 501.3 123.9, 501.3 124.9 Q 501.3 126.0, 501.7 126.6 Q 502.2 127.1, 503.0 127.1 " fill="#FF0000"/>
<path class="atom-9" d="M 513.6 60.7 Q 513.6 59.4, 514.2 58.7 Q 514.9 58.0, 516.1 58.0 Q 517.2 58.0, 517.9 58.7 Q 518.5 59.4, 518.5 60.7 Q 518.5 62.0, 517.9 62.8 Q 517.2 63.5, 516.1 63.5 Q 514.9 63.5, 514.2 62.8 Q 513.6 62.0, 513.6 60.7 M 516.1 62.9 Q 516.9 62.9, 517.3 62.3 Q 517.8 61.8, 517.8 60.7 Q 517.8 59.7, 517.3 59.1 Q 516.9 58.6, 516.1 58.6 Q 515.2 58.6, 514.8 59.1 Q 514.4 59.7, 514.4 60.7 Q 514.4 61.8, 514.8 62.3 Q 515.2 62.9, 516.1 62.9 " fill="#FF0000"/>
<path class="atom-9" d="M 519.4 58.0 L 520.1 58.0 L 520.1 60.3 L 522.8 60.3 L 522.8 58.0 L 523.5 58.0 L 523.5 63.4 L 522.8 63.4 L 522.8 60.9 L 520.1 60.9 L 520.1 63.4 L 519.4 63.4 L 519.4 58.0 " fill="#FF0000"/>
<path class="atom-15" d="M 458.0 49.4 Q 458.0 48.1, 458.6 47.4 Q 459.3 46.7, 460.4 46.7 Q 461.6 46.7, 462.3 47.4 Q 462.9 48.1, 462.9 49.4 Q 462.9 50.7, 462.3 51.4 Q 461.6 52.2, 460.4 52.2 Q 459.3 52.2, 458.6 51.4 Q 458.0 50.7, 458.0 49.4 M 460.4 51.6 Q 461.3 51.6, 461.7 51.0 Q 462.1 50.5, 462.1 49.4 Q 462.1 48.3, 461.7 47.8 Q 461.3 47.3, 460.4 47.3 Q 459.6 47.3, 459.2 47.8 Q 458.7 48.3, 458.7 49.4 Q 458.7 50.5, 459.2 51.0 Q 459.6 51.6, 460.4 51.6 " fill="#FF0000"/>
<path class="atom-15" d="M 463.7 46.7 L 464.5 46.7 L 464.5 49.0 L 467.2 49.0 L 467.2 46.7 L 467.9 46.7 L 467.9 52.1 L 467.2 52.1 L 467.2 49.6 L 464.5 49.6 L 464.5 52.1 L 463.7 52.1 L 463.7 46.7 " fill="#FF0000"/>
<path class="legend" d="M 495.6 184.2 Q 495.6 181.4, 496.9 179.9 Q 498.3 178.4, 500.8 178.4 Q 503.1 178.4, 504.4 180.0 L 503.3 180.9 Q 502.4 179.7, 500.8 179.7 Q 499.1 179.7, 498.2 180.9 Q 497.3 182.0, 497.3 184.2 Q 497.3 186.4, 498.2 187.6 Q 499.1 188.7, 501.0 188.7 Q 502.2 188.7, 503.7 188.0 L 504.1 189.2 Q 503.5 189.6, 502.6 189.8 Q 501.7 190.0, 500.7 190.0 Q 498.3 190.0, 496.9 188.5 Q 495.6 187.0, 495.6 184.2 " fill="#000000"/>
<path class="bond-0 atom-0 atom-1" d="M 610.0,91.6 L 614.6,97.2" style="fill:none;fill-rule:evenodd;stroke:#000000;stroke-width:2.0px;stroke-linecap:butt;stroke-linejoin:miter;stroke-opacity:1"/>
<path class="bond-0 atom-0 atom-1" d="M 614.6,97.2 L 619.3,102.8" style="fill:none;fill-rule:evenodd;stroke:#FF0000;stroke-width:2.0px;stroke-linecap:butt;stroke-linejoin:miter;stroke-opacity:1"/>
<path class="bond-1 atom-1 atom-2" d="M 625.1,105.7 L 632.9,104.4" style="fill:none;fill-rule:evenodd;stroke:#FF0000;stroke-width:2.0px;stroke-linecap:butt;stroke-linejoin:miter;stroke-opacity:1"/>
<path class="bond-1 atom-1 atom-2" d="M 632.9,104.4 L 640.7,103.1" style="fill:none;fill-rule:evenodd;stroke:#000000;stroke-width:2.0px;stroke-linecap:butt;stroke-linejoin:miter;stroke-opacity:1"/>
<path class="bond-2 atom-2 atom-3" d="M 640.7,103.1 L 647.3,85.4" style="fill:none;fill-rule:evenodd;stroke:#000000;stroke-width:2.0px;stroke-linecap:butt;stroke-linejoin:miter;stroke-opacity:1"/>
<path class="bond-2 atom-2 atom-3" d="M 643.9,102.6 L 649.4,87.9" style="fill:none;fill-rule:evenodd;stroke:#000000;stroke-width:2.0px;stroke-linecap:butt;stroke-linejoin:miter;stroke-opacity:1"/>
<path class="bond-3 atom-3 atom-4" d="M 647.3,85.4 L 666.0,82.3" style="fill:none;fill-rule:evenodd;stroke:#000000;stroke-width:2.0px;stroke-linecap:butt;stroke-linejoin:miter;stroke-opacity:1"/>
<path class="bond-4 atom-4 atom-5" d="M 666.0,82.3 L 672.7,64.6" style="fill:none;fill-rule:evenodd;stroke:#000000;stroke-width:2.0px;stroke-linecap:butt;stroke-linejoin:miter;stroke-opacity:1"/>
<path class="bond-5 atom-5 atom-6" d="M 672.7,64.6 L 691.3,61.5" style="fill:none;fill-rule:evenodd;stroke:#000000;stroke-width:2.0px;stroke-linecap:butt;stroke-linejoin:miter;stroke-opacity:1"/>
<path class="bond-6 atom-6 atom-7" d="M 691.3,61.5 L 698.0,43.8" style="fill:none;fill-rule:evenodd;stroke:#000000;stroke-width:2.0px;stroke-linecap:butt;stroke-linejoin:miter;stroke-opacity:1"/>
<path class="bond-7 atom-6 atom-8" d="M 691.3,61.5 L 703.3,76.1" style="fill:none;fill-rule:evenodd;stroke:#000000;stroke-width:2.0px;stroke-linecap:butt;stroke-linejoin:miter;stroke-opacity:1"/>
<path class="bond-8 atom-8 atom-9" d="M 703.3,76.1 L 696.7,93.8" style="fill:none;fill-rule:evenodd;stroke:#000000;stroke-width:2.0px;stroke-linecap:butt;stroke-linejoin:miter;stroke-opacity:1"/>
<path class="bond-9 atom-9 atom-10" d="M 696.7,93.8 L 701.3,99.5" style="fill:none;fill-rule:evenodd;stroke:#000000;stroke-width:2.0px;stroke-linecap:butt;stroke-linejoin:miter;stroke-opacity:1"/>
<path class="bond-9 atom-9 atom-10" d="M 701.3,99.5 L 705.9,105.1" style="fill:none;fill-rule:evenodd;stroke:#FF0000;stroke-width:2.0px;stroke-linecap:butt;stroke-linejoin:miter;stroke-opacity:1"/>
<path class="bond-10 atom-8 atom-11" d="M 703.3,76.1 L 722.0,73.0" style="fill:none;fill-rule:evenodd;stroke:#000000;stroke-width:2.0px;stroke-linecap:butt;stroke-linejoin:miter;stroke-opacity:1"/>
<path class="bond-11 atom-11 atom-12" d="M 722.0,73.0 L 734.0,87.7" style="fill:none;fill-rule:evenodd;stroke:#000000;stroke-width:2.0px;stroke-linecap:butt;stroke-linejoin:miter;stroke-opacity:1"/>
<path class="bond-12 atom-12 atom-13" d="M 734.0,87.7 L 727.3,105.4" style="fill:none;fill-rule:evenodd;stroke:#000000;stroke-width:2.0px;stroke-linecap:butt;stroke-linejoin:miter;stroke-opacity:1"/>
<path class="bond-12 atom-12 atom-13" d="M 736.1,90.2 L 730.6,104.8" style="fill:none;fill-rule:evenodd;stroke:#000000;stroke-width:2.0px;stroke-linecap:butt;stroke-linejoin:miter;stroke-opacity:1"/>
<path class="bond-13 atom-13 atom-14" d="M 727.3,105.4 L 739.3,120.0" style="fill:none;fill-rule:evenodd;stroke:#000000;stroke-width:2.0px;stroke-linecap:butt;stroke-linejoin:miter;stroke-opacity:1"/>
<path class="bond-14 atom-14 atom-15" d="M 739.3,120.0 L 758.0,116.9" style="fill:none;fill-rule:evenodd;stroke:#000000;stroke-width:2.0px;stroke-linecap:butt;stroke-linejoin:miter;stroke-opacity:1"/>
<path class="bond-14 atom-14 atom-15" d="M 740.5,116.9 L 755.9,114.4" style="fill:none;fill-rule:evenodd;stroke:#000000;stroke-width:2.0px;stroke-linecap:butt;stroke-linejoin:miter;stroke-opacity:1"/>
<path class="bond-15 atom-15 atom-16" d="M 758.0,116.9 L 762.7,122.5" style="fill:none;fill-rule:evenodd;stroke:#000000;stroke-width:2.0px;stroke-linecap:butt;stroke-linejoin:miter;stroke-opacity:1"/>
<path class="bond-15 atom-15 atom-16" d="M 762.7,122.5 L 767.3,128.2" style="fill:none;fill-rule:evenodd;stroke:#FF0000;stroke-width:2.0px;stroke-linecap:butt;stroke-linejoin:miter;stroke-opacity:1"/>
<path class="bond-16 atom-15 atom-17" d="M 758.0,116.9 L 764.7,99.2" style="fill:none;fill-rule:evenodd;stroke:#000000;stroke-width:2.0px;stroke-linecap:butt;stroke-linejoin:miter;stroke-opacity:1"/>
<path class="bond-17 atom-17 atom-18" d="M 764.7,99.2 L 772.5,97.9" style="fill:none;fill-rule:evenodd;stroke:#000000;stroke-width:2.0px;stroke-linecap:butt;stroke-linejoin:miter;stroke-opacity:1"/>
<path class="bond-17 atom-17 atom-18" d="M 772.5,97.9 L 780.3,96.6" style="fill:none;fill-rule:evenodd;stroke:#FF0000;stroke-width:2.0px;stroke-linecap:butt;stroke-linejoin:miter;stroke-opacity:1"/>
<path class="bond-18 atom-18 atom-19" d="M 784.6,92.8 L 787.3,85.6" style="fill:none;fill-rule:evenodd;stroke:#FF0000;stroke-width:2.0px;stroke-linecap:butt;stroke-linejoin:miter;stroke-opacity:1"/>
<path class="bond-18 atom-18 atom-19" d="M 787.3,85.6 L 790.0,78.4" style="fill:none;fill-rule:evenodd;stroke:#000000;stroke-width:2.0px;stroke-linecap:butt;stroke-linejoin:miter;stroke-opacity:1"/>
<path class="bond-19 atom-17 atom-20" d="M 764.7,99.2 L 752.7,84.6" style="fill:none;fill-rule:evenodd;stroke:#000000;stroke-width:2.0px;stroke-linecap:butt;stroke-linejoin:miter;stroke-opacity:1"/>
<path class="bond-19 atom-17 atom-20" d="M 761.4,99.7 L 751.5,87.6" style="fill:none;fill-rule:evenodd;stroke:#000000;stroke-width:2.0px;stroke-linecap:butt;stroke-linejoin:miter;stroke-opacity:1"/>
<path class="bond-20 atom-4 atom-21" d="M 666.0,82.3 L 678.0,96.9" style="fill:none;fill-rule:evenodd;stroke:#000000;stroke-width:2.0px;stroke-linecap:butt;stroke-linejoin:miter;stroke-opacity:1"/>
<path class="bond-20 atom-4 atom-21" d="M 664.8,85.4 L 674.8,97.4" style="fill:none;fill-rule:evenodd;stroke:#000000;stroke-width:2.0px;stroke-linecap:butt;stroke-linejoin:miter;stroke-opacity:1"/>
<path class="bond-21 atom-21 atom-22" d="M 678.0,96.9 L 671.3,114.6" style="fill:none;fill-rule:evenodd;stroke:#000000;stroke-width:2.0px;stroke-linecap:butt;stroke-linejoin:miter;stroke-opacity:1"/>
<path class="bond-22 atom-22 atom-23" d="M 671.3,114.6 L 652.7,117.7" style="fill:none;fill-rule:evenodd;stroke:#000000;stroke-width:2.0px;stroke-linecap:butt;stroke-linejoin:miter;stroke-opacity:1"/>
<path class="bond-22 atom-22 atom-23" d="M 669.3,112.1 L 653.8,114.6" style="fill:none;fill-rule:evenodd;stroke:#000000;stroke-width:2.0px;stroke-linecap:butt;stroke-linejoin:miter;stroke-opacity:1"/>
<path class="bond-23 atom-23 atom-24" d="M 652.7,117.7 L 650.0,124.9" style="fill:none;fill-rule:evenodd;stroke:#000000;stroke-width:2.0px;stroke-linecap:butt;stroke-linejoin:miter;stroke-opacity:1"/>
<path class="bond-23 atom-23 atom-24" d="M 650.0,124.9 L 647.3,132.1" style="fill:none;fill-rule:evenodd;stroke:#FF0000;stroke-width:2.0px;stroke-linecap:butt;stroke-linejoin:miter;stroke-opacity:1"/>
<path class="bond-24 atom-23 atom-2" d="M 652.7,117.7 L 640.7,103.1" style="fill:none;fill-rule:evenodd;stroke:#000000;stroke-width:2.0px;stroke-linecap:butt;stroke-linejoin:miter;stroke-opacity:1"/>
<path class="bond-25 atom-20 atom-12" d="M 752.7,84.6 L 734.0,87.7" style="fill:none;fill-rule:evenodd;stroke:#000000;stroke-width:2.0px;stroke-linecap:butt;stroke-linejoin:miter;stroke-opacity:1"/>
<path d="M 647.0,86.3 L 647.3,85.4 L 648.3,85.2" style="fill:none;stroke:#000000;stroke-width:2.0px;stroke-linecap:butt;stroke-linejoin:miter;stroke-opacity:1;"/>
<path d="M 672.3,65.5 L 672.7,64.6 L 673.6,64.4" style="fill:none;stroke:#000000;stroke-width:2.0px;stroke-linecap:butt;stroke-linejoin:miter;stroke-opacity:1;"/>
<path d="M 697.0,92.9 L 696.7,93.8 L 696.9,94.1" style="fill:none;stroke:#000000;stroke-width:2.0px;stroke-linecap:butt;stroke-linejoin:miter;stroke-opacity:1;"/>
<path d="M 721.1,73.2 L 722.0,73.0 L 722.6,73.8" style="fill:none;stroke:#000000;stroke-width:2.0px;stroke-linecap:butt;stroke-linejoin:miter;stroke-opacity:1;"/>
<path d="M 727.7,104.5 L 727.3,105.4 L 727.9,106.1" style="fill:none;stroke:#000000;stroke-width:2.0px;stroke-linecap:butt;stroke-linejoin:miter;stroke-opacity:1;"/>
<path d="M 738.7,119.3 L 739.3,120.0 L 740.3,119.8" style="fill:none;stroke:#000000;stroke-width:2.0px;stroke-linecap:butt;stroke-linejoin:miter;stroke-opacity:1;"/>
<path d="M 753.3,85.3 L 752.7,84.6 L 751.7,84.7" style="fill:none;stroke:#000000;stroke-width:2.0px;stroke-linecap:butt;stroke-linejoin:miter;stroke-opacity:1;"/>
<path d="M 677.4,96.2 L 678.0,96.9 L 677.7,97.8" style="fill:none;stroke:#000000;stroke-width:2.0px;stroke-linecap:butt;stroke-linejoin:miter;stroke-opacity:1;"/>
<path d="M 671.7,113.7 L 671.3,114.6 L 670.4,114.8" style="fill:none;stroke:#000000;stroke-width:2.0px;stroke-linecap:butt;stroke-linejoin:miter;stroke-opacity:1;"/>
<path class="atom-1" d="M 619.5 106.2 Q 619.5 104.9, 620.2 104.2 Q 620.8 103.5, 622.0 103.5 Q 623.2 103.5, 623.8 104.2 Q 624.5 104.9, 624.5 106.2 Q 624.5 107.5, 623.8 108.2 Q 623.2 109.0, 622.0 109.0 Q 620.8 109.0, 620.2 108.2 Q 619.5 107.5, 619.5 106.2 M 622.0 108.4 Q 622.8 108.4, 623.3 107.8 Q 623.7 107.3, 623.7 106.2 Q 623.7 105.1, 623.3 104.6 Q 622.8 104.1, 622.0 104.1 Q 621.2 104.1, 620.7 104.6 Q 620.3 105.1, 620.3 106.2 Q 620.3 107.3, 620.7 107.8 Q 621.2 108.4, 622.0 108.4 " fill="#FF0000"/>
<path class="atom-10" d="M 706.2 108.5 Q 706.2 107.2, 706.9 106.5 Q 707.5 105.7, 708.7 105.7 Q 709.9 105.7, 710.5 106.5 Q 711.1 107.2, 711.1 108.5 Q 711.1 109.8, 710.5 110.5 Q 709.8 111.2, 708.7 111.2 Q 707.5 111.2, 706.9 110.5 Q 706.2 109.8, 706.2 108.5 M 708.7 110.6 Q 709.5 110.6, 709.9 110.1 Q 710.4 109.5, 710.4 108.5 Q 710.4 107.4, 709.9 106.9 Q 709.5 106.3, 708.7 106.3 Q 707.9 106.3, 707.4 106.9 Q 707.0 107.4, 707.0 108.5 Q 707.0 109.5, 707.4 110.1 Q 707.9 110.6, 708.7 110.6 " fill="#FF0000"/>
<path class="atom-10" d="M 712.0 105.8 L 712.7 105.8 L 712.7 108.1 L 715.4 108.1 L 715.4 105.8 L 716.2 105.8 L 716.2 111.2 L 715.4 111.2 L 715.4 108.7 L 712.7 108.7 L 712.7 111.2 L 712.0 111.2 L 712.0 105.8 " fill="#FF0000"/>
<path class="atom-16" d="M 767.6 131.5 Q 767.6 130.2, 768.2 129.5 Q 768.8 128.8, 770.0 128.8 Q 771.2 128.8, 771.8 129.5 Q 772.5 130.2, 772.5 131.5 Q 772.5 132.8, 771.8 133.6 Q 771.2 134.3, 770.0 134.3 Q 768.8 134.3, 768.2 133.6 Q 767.6 132.8, 767.6 131.5 M 770.0 133.7 Q 770.8 133.7, 771.3 133.2 Q 771.7 132.6, 771.7 131.5 Q 771.7 130.5, 771.3 130.0 Q 770.8 129.4, 770.0 129.4 Q 769.2 129.4, 768.8 129.9 Q 768.3 130.5, 768.3 131.5 Q 768.3 132.6, 768.8 133.2 Q 769.2 133.7, 770.0 133.7 " fill="#FF0000"/>
<path class="atom-16" d="M 773.3 128.9 L 774.0 128.9 L 774.0 131.1 L 776.8 131.1 L 776.8 128.9 L 777.5 128.9 L 777.5 134.2 L 776.8 134.2 L 776.8 131.8 L 774.0 131.8 L 774.0 134.2 L 773.3 134.2 L 773.3 128.9 " fill="#FF0000"/>
<path class="atom-18" d="M 780.9 96.1 Q 780.9 94.8, 781.5 94.1 Q 782.2 93.4, 783.3 93.4 Q 784.5 93.4, 785.2 94.1 Q 785.8 94.8, 785.8 96.1 Q 785.8 97.4, 785.2 98.2 Q 784.5 98.9, 783.3 98.9 Q 782.2 98.9, 781.5 98.2 Q 780.9 97.4, 780.9 96.1 M 783.3 98.3 Q 784.2 98.3, 784.6 97.7 Q 785.0 97.2, 785.0 96.1 Q 785.0 95.1, 784.6 94.5 Q 784.2 94.0, 783.3 94.0 Q 782.5 94.0, 782.1 94.5 Q 781.6 95.1, 781.6 96.1 Q 781.6 97.2, 782.1 97.7 Q 782.5 98.3, 783.3 98.3 " fill="#FF0000"/>
<path class="atom-24" d="M 638.3 132.8 L 639.0 132.8 L 639.0 135.0 L 641.7 135.0 L 641.7 132.8 L 642.5 132.8 L 642.5 138.1 L 641.7 138.1 L 641.7 135.7 L 639.0 135.7 L 639.0 138.1 L 638.3 138.1 L 638.3 132.8 " fill="#FF0000"/>
<path class="atom-24" d="M 643.6 135.4 Q 643.6 134.1, 644.2 133.4 Q 644.8 132.7, 646.0 132.7 Q 647.2 132.7, 647.8 133.4 Q 648.5 134.1, 648.5 135.4 Q 648.5 136.7, 647.8 137.5 Q 647.2 138.2, 646.0 138.2 Q 644.8 138.2, 644.2 137.5 Q 643.6 136.7, 643.6 135.4 M 646.0 137.6 Q 646.8 137.6, 647.3 137.1 Q 647.7 136.5, 647.7 135.4 Q 647.7 134.4, 647.3 133.9 Q 646.8 133.3, 646.0 133.3 Q 645.2 133.3, 644.8 133.8 Q 644.3 134.4, 644.3 135.4 Q 644.3 136.5, 644.8 137.1 Q 645.2 137.6, 646.0 137.6 " fill="#FF0000"/>
<path class="legend" d="M 699.2 178.7 Q 701.7 178.7, 703.1 180.2 Q 704.4 181.6, 704.4 184.3 Q 704.4 187.0, 703.1 188.5 Q 701.7 190.0, 699.2 190.0 L 695.6 190.0 L 695.6 178.7 L 699.2 178.7 M 699.2 188.7 Q 701.0 188.7, 701.9 187.6 Q 702.8 186.5, 702.8 184.3 Q 702.8 182.1, 701.9 181.0 Q 701.0 180.0, 699.2 180.0 L 697.1 180.0 L 697.1 188.7 L 699.2 188.7 " fill="#000000"/>
<path class="bond-0 atom-0 atom-1" d="M 135.9,281.0 L 121.9,293.8" style="fill:none;fill-rule:evenodd;stroke:#000000;stroke-width:2.0px;stroke-linecap:butt;stroke-linejoin:miter;stroke-opacity:1"/>
<path class="bond-1 atom-1 atom-2" d="M 121.9,293.8 L 123.6,301.3" style="fill:none;fill-rule:evenodd;stroke:#000000;stroke-width:2.0px;stroke-linecap:butt;stroke-linejoin:miter;stroke-opacity:1"/>
<path class="bond-1 atom-1 atom-2" d="M 123.6,301.3 L 125.3,308.9" style="fill:none;fill-rule:evenodd;stroke:#FF0000;stroke-width:2.0px;stroke-linecap:butt;stroke-linejoin:miter;stroke-opacity:1"/>
<path class="bond-2 atom-1 atom-3" d="M 121.9,293.8 L 103.9,288.1" style="fill:none;fill-rule:evenodd;stroke:#000000;stroke-width:2.0px;stroke-linecap:butt;stroke-linejoin:miter;stroke-opacity:1"/>
<path class="bond-3 atom-3 atom-4" d="M 103.9,288.1 L 102.2,280.6" style="fill:none;fill-rule:evenodd;stroke:#000000;stroke-width:2.0px;stroke-linecap:butt;stroke-linejoin:miter;stroke-opacity:1"/>
<path class="bond-3 atom-3 atom-4" d="M 102.2,280.6 L 100.5,273.1" style="fill:none;fill-rule:evenodd;stroke:#FF0000;stroke-width:2.0px;stroke-linecap:butt;stroke-linejoin:miter;stroke-opacity:1"/>
<path class="bond-4 atom-3 atom-5" d="M 103.9,288.1 L 90.0,301.0" style="fill:none;fill-rule:evenodd;stroke:#000000;stroke-width:2.0px;stroke-linecap:butt;stroke-linejoin:miter;stroke-opacity:1"/>
<path class="bond-5 atom-5 atom-6" d="M 90.0,301.0 L 82.5,298.6" style="fill:none;fill-rule:evenodd;stroke:#000000;stroke-width:2.0px;stroke-linecap:butt;stroke-linejoin:miter;stroke-opacity:1"/>
<path class="bond-5 atom-5 atom-6" d="M 82.5,298.6 L 75.0,296.3" style="fill:none;fill-rule:evenodd;stroke:#FF0000;stroke-width:2.0px;stroke-linecap:butt;stroke-linejoin:miter;stroke-opacity:1"/>
<path d="M 90.7,300.3 L 90.0,301.0 L 89.6,300.8" style="fill:none;stroke:#000000;stroke-width:2.0px;stroke-linecap:butt;stroke-linejoin:miter;stroke-opacity:1;"/>
<path class="atom-2" d="M 123.6 312.3 Q 123.6 311.0, 124.3 310.3 Q 124.9 309.5, 126.1 309.5 Q 127.3 309.5, 127.9 310.3 Q 128.5 311.0, 128.5 312.3 Q 128.5 313.6, 127.9 314.3 Q 127.2 315.0, 126.1 315.0 Q 124.9 315.0, 124.3 314.3 Q 123.6 313.6, 123.6 312.3 M 126.1 314.4 Q 126.9 314.4, 127.3 313.9 Q 127.8 313.3, 127.8 312.3 Q 127.8 311.2, 127.3 310.7 Q 126.9 310.1, 126.1 310.1 Q 125.3 310.1, 124.8 310.7 Q 124.4 311.2, 124.4 312.3 Q 124.4 313.3, 124.8 313.9 Q 125.3 314.4, 126.1 314.4 " fill="#FF0000"/>
<path class="atom-2" d="M 129.4 309.6 L 130.1 309.6 L 130.1 311.9 L 132.8 311.9 L 132.8 309.6 L 133.6 309.6 L 133.6 315.0 L 132.8 315.0 L 132.8 312.5 L 130.1 312.5 L 130.1 315.0 L 129.4 315.0 L 129.4 309.6 " fill="#FF0000"/>
<path class="atom-4" d="M 97.3 269.7 Q 97.3 268.4, 97.9 267.7 Q 98.5 267.0, 99.7 267.0 Q 100.9 267.0, 101.6 267.7 Q 102.2 268.4, 102.2 269.7 Q 102.2 271.0, 101.6 271.7 Q 100.9 272.5, 99.7 272.5 Q 98.6 272.5, 97.9 271.7 Q 97.3 271.0, 97.3 269.7 M 99.7 271.9 Q 100.6 271.9, 101.0 271.3 Q 101.4 270.8, 101.4 269.7 Q 101.4 268.6, 101.0 268.1 Q 100.6 267.6, 99.7 267.6 Q 98.9 267.6, 98.5 268.1 Q 98.0 268.6, 98.0 269.7 Q 98.0 270.8, 98.5 271.3 Q 98.9 271.9, 99.7 271.9 " fill="#FF0000"/>
<path class="atom-4" d="M 103.0 267.0 L 103.8 267.0 L 103.8 269.3 L 106.5 269.3 L 106.5 267.0 L 107.2 267.0 L 107.2 272.4 L 106.5 272.4 L 106.5 269.9 L 103.8 269.9 L 103.8 272.4 L 103.0 272.4 L 103.0 267.0 " fill="#FF0000"/>
<path class="atom-6" d="M 64.1 292.7 L 64.9 292.7 L 64.9 294.9 L 67.6 294.9 L 67.6 292.7 L 68.3 292.7 L 68.3 298.0 L 67.6 298.0 L 67.6 295.5 L 64.9 295.5 L 64.9 298.0 L 64.1 298.0 L 64.1 292.7 " fill="#FF0000"/>
<path class="atom-6" d="M 69.4 295.3 Q 69.4 294.0, 70.1 293.3 Q 70.7 292.6, 71.9 292.6 Q 73.1 292.6, 73.7 293.3 Q 74.4 294.0, 74.4 295.3 Q 74.4 296.6, 73.7 297.4 Q 73.1 298.1, 71.9 298.1 Q 70.7 298.1, 70.1 297.4 Q 69.4 296.6, 69.4 295.3 M 71.9 297.5 Q 72.7 297.5, 73.2 297.0 Q 73.6 296.4, 73.6 295.3 Q 73.6 294.3, 73.2 293.7 Q 72.7 293.2, 71.9 293.2 Q 71.1 293.2, 70.6 293.7 Q 70.2 294.3, 70.2 295.3 Q 70.2 296.4, 70.6 297.0 Q 71.1 297.5, 71.9 297.5 " fill="#FF0000"/>
<path class="legend" d="M 96.5 378.7 L 103.3 378.7 L 103.3 380.0 L 98.1 380.0 L 98.1 383.4 L 102.8 383.4 L 102.8 384.7 L 98.1 384.7 L 98.1 388.7 L 103.5 388.7 L 103.5 390.0 L 96.5 390.0 L 96.5 378.7 " fill="#000000"/>
</svg>