<svg xmlns="http://www.w3.org/2000/svg" xmlns:rdkit="http://www.rdkit.org/xml" xmlns:xlink="http://www.w3.org/1999/xlink" version="1.1" baseProfile="full" xml:space="preserve" width="800px" height="200px" viewBox="0 0 800 200">
<!-- END OF HEADER -->
<rect style="opacity:1.0;fill:#FFFFFF;stroke:none" width="800.0" height="200.0" x="0.0" y="0.0"> </rect>
<path class="bond-0 atom-0 atom-1" d="M 19.0,94.8 L 36.3,85.2" style="fill:none;fill-rule:evenodd;stroke:#000000;stroke-width:2.0px;stroke-linecap:butt;stroke-linejoin:miter;stroke-opacity:1"/>
<path class="bond-1 atom-1 atom-2" d="M 36.3,85.2 L 53.2,95.4" style="fill:none;fill-rule:evenodd;stroke:#000000;stroke-width:2.0px;stroke-linecap:butt;stroke-linejoin:miter;stroke-opacity:1"/>
<path class="bond-2 atom-2 atom-3" d="M 53.2,95.4 L 70.5,85.8" style="fill:none;fill-rule:evenodd;stroke:#000000;stroke-width:2.0px;stroke-linecap:butt;stroke-linejoin:miter;stroke-opacity:1"/>
<path class="bond-3 atom-3 atom-4" d="M 70.5,85.8 L 87.5,96.0" style="fill:none;fill-rule:evenodd;stroke:#000000;stroke-width:2.0px;stroke-linecap:butt;stroke-linejoin:miter;stroke-opacity:1"/>
<path class="bond-4 atom-4 atom-5" d="M 87.5,96.0 L 104.7,86.4" style="fill:none;fill-rule:evenodd;stroke:#000000;stroke-width:2.0px;stroke-linecap:butt;stroke-linejoin:miter;stroke-opacity:1"/>
<path class="bond-5 atom-5 atom-6" d="M 104.7,86.4 L 121.7,96.6" style="fill:none;fill-rule:evenodd;stroke:#000000;stroke-width:2.0px;stroke-linecap:butt;stroke-linejoin:miter;stroke-opacity:1"/>
<path class="bond-6 atom-6 atom-7" d="M 121.7,96.6 L 138.9,87.0" style="fill:none;fill-rule:evenodd;stroke:#000000;stroke-width:2.0px;stroke-linecap:butt;stroke-linejoin:miter;stroke-opacity:1"/>
<path class="bond-7 atom-7 atom-8" d="M 138.9,87.0 L 155.9,97.2" style="fill:none;fill-rule:evenodd;stroke:#000000;stroke-width:2.0px;stroke-linecap:butt;stroke-linejoin:miter;stroke-opacity:1"/>
<path class="bond-8 atom-8 atom-9" d="M 155.9,97.2 L 162.9,93.3" style="fill:none;fill-rule:evenodd;stroke:#000000;stroke-width:2.0px;stroke-linecap:butt;stroke-linejoin:miter;stroke-opacity:1"/>
<path class="bond-8 atom-8 atom-9" d="M 162.9,93.3 L 169.9,89.4" style="fill:none;fill-rule:evenodd;stroke:#FF0000;stroke-width:2.0px;stroke-linecap:butt;stroke-linejoin:miter;stroke-opacity:1"/>
<path d="M 35.4,85.7 L 36.3,85.2 L 37.1,85.7" style="fill:none;stroke:#000000;stroke-width:2.0px;stroke-linecap:butt;stroke-linejoin:miter;stroke-opacity:1;"/>
<path d="M 52.4,94.9 L 53.2,95.4 L 54.1,94.9" style="fill:none;stroke:#000000;stroke-width:2.0px;stroke-linecap:butt;stroke-linejoin:miter;stroke-opacity:1;"/>
<path d="M 69.7,86.3 L 70.5,85.8 L 71.4,86.3" style="fill:none;stroke:#000000;stroke-width:2.0px;stroke-linecap:butt;stroke-linejoin:miter;stroke-opacity:1;"/>
<path d="M 86.6,95.5 L 87.5,96.0 L 88.3,95.5" style="fill:none;stroke:#000000;stroke-width:2.0px;stroke-linecap:butt;stroke-linejoin:miter;stroke-opacity:1;"/>
<path d="M 103.9,86.9 L 104.7,86.4 L 105.6,86.9" style="fill:none;stroke:#000000;stroke-width:2.0px;stroke-linecap:butt;stroke-linejoin:miter;stroke-opacity:1;"/>
<path d="M 120.8,96.1 L 121.7,96.6 L 122.5,96.1" style="fill:none;stroke:#000000;stroke-width:2.0px;stroke-linecap:butt;stroke-linejoin:miter;stroke-opacity:1;"/>
<path d="M 138.1,87.5 L 138.9,87.0 L 139.8,87.5" style="fill:none;stroke:#000000;stroke-width:2.0px;stroke-linecap:butt;stroke-linejoin:miter;stroke-opacity:1;"/>
<path d="M 155.0,96.7 L 155.9,97.2 L 156.2,97.0" style="fill:none;stroke:#000000;stroke-width:2.0px;stroke-linecap:butt;stroke-linejoin:miter;stroke-opacity:1;"/>
<path class="atom-9" d="M 170.6 87.6 Q 170.6 86.3, 171.3 85.5 Q 171.9 84.8, 173.2 84.8 Q 174.4 84.8, 175.1 85.5 Q 175.7 86.3, 175.7 87.6 Q 175.7 89.0, 175.1 89.8 Q 174.4 90.5, 173.2 90.5 Q 171.9 90.5, 171.3 89.8 Q 170.6 89.0, 170.6 87.6 M 173.2 89.9 Q 174.0 89.9, 174.5 89.3 Q 174.9 88.8, 174.9 87.6 Q 174.9 86.5, 174.5 86.0 Q 174.0 85.4, 173.2 85.4 Q 172.3 85.4, 171.8 86.0 Q 171.4 86.5, 171.4 87.6 Q 171.4 88.8, 171.8 89.3 Q 172.3 89.9, 173.2 89.9 " fill="#FF0000"/>
<path class="atom-9" d="M 176.6 84.9 L 177.4 84.9 L 177.4 87.2 L 180.2 87.2 L 180.2 84.9 L 181.0 84.9 L 181.0 90.5 L 180.2 90.5 L 180.2 87.9 L 177.4 87.9 L 177.4 90.5 L 176.6 90.5 L 176.6 84.9 " fill="#FF0000"/>
<path class="legend" d="M 103.4 190.0 L 102.2 186.7 L 97.8 186.7 L 96.6 190.0 L 95.1 190.0 L 99.0 178.7 L 100.9 178.7 L 104.9 190.0 L 103.4 190.0 M 98.2 185.4 L 101.8 185.4 L 100.0 180.3 L 98.2 185.4 " fill="#000000"/>
<path class="bond-0 atom-0 atom-1" d="M 295.1,73.5 L 303.7,74.4" style="fill:none;fill-rule:evenodd;stroke:#FF0000;stroke-width:2.0px;stroke-linecap:butt;stroke-linejoin:miter;stroke-opacity:1"/>
<path class="bond-0 atom-0 atom-1" d="M 303.7,74.4 L 312.3,75.4" style="fill:none;fill-rule:evenodd;stroke:#000000;stroke-width:2.0px;stroke-linecap:butt;stroke-linejoin:miter;stroke-opacity:1"/>
<path class="bond-0 atom-0 atom-1" d="M 294.8,76.5 L 303.4,77.4" style="fill:none;fill-rule:evenodd;stroke:#FF0000;stroke-width:2.0px;stroke-linecap:butt;stroke-linejoin:miter;stroke-opacity:1"/>
<path class="bond-0 atom-0 atom-1" d="M 303.4,77.4 L 312.0,78.3" style="fill:none;fill-rule:evenodd;stroke:#000000;stroke-width:2.0px;stroke-linecap:butt;stroke-linejoin:miter;stroke-opacity:1"/>
<path class="bond-1 atom-1 atom-2" d="M 311.3,76.7 L 319.4,94.8" style="fill:none;fill-rule:evenodd;stroke:#000000;stroke-width:2.0px;stroke-linecap:butt;stroke-linejoin:miter;stroke-opacity:1"/>
<path class="bond-2 atom-2 atom-3" d="M 319.4,94.8 L 314.8,101.0" style="fill:none;fill-rule:evenodd;stroke:#000000;stroke-width:2.0px;stroke-linecap:butt;stroke-linejoin:miter;stroke-opacity:1"/>
<path class="bond-2 atom-2 atom-3" d="M 314.8,101.0 L 310.3,107.3" style="fill:none;fill-rule:evenodd;stroke:#FF0000;stroke-width:2.0px;stroke-linecap:butt;stroke-linejoin:miter;stroke-opacity:1"/>
<path class="bond-3 atom-3 atom-4" d="M 304.5,110.4 L 296.3,109.6" style="fill:none;fill-rule:evenodd;stroke:#FF0000;stroke-width:2.0px;stroke-linecap:butt;stroke-linejoin:miter;stroke-opacity:1"/>
<path class="bond-3 atom-3 atom-4" d="M 296.3,109.6 L 288.1,108.7" style="fill:none;fill-rule:evenodd;stroke:#000000;stroke-width:2.0px;stroke-linecap:butt;stroke-linejoin:miter;stroke-opacity:1"/>
<path class="bond-4 atom-4 atom-5" d="M 288.1,108.7 L 284.9,101.5" style="fill:none;fill-rule:evenodd;stroke:#000000;stroke-width:2.0px;stroke-linecap:butt;stroke-linejoin:miter;stroke-opacity:1"/>
<path class="bond-4 atom-4 atom-5" d="M 284.9,101.5 L 281.7,94.2" style="fill:none;fill-rule:evenodd;stroke:#FF0000;stroke-width:2.0px;stroke-linecap:butt;stroke-linejoin:miter;stroke-opacity:1"/>
<path class="bond-5 atom-5 atom-6" d="M 276.8,90.3 L 268.6,89.4" style="fill:none;fill-rule:evenodd;stroke:#FF0000;stroke-width:2.0px;stroke-linecap:butt;stroke-linejoin:miter;stroke-opacity:1"/>
<path class="bond-5 atom-5 atom-6" d="M 268.6,89.4 L 260.4,88.6" style="fill:none;fill-rule:evenodd;stroke:#000000;stroke-width:2.0px;stroke-linecap:butt;stroke-linejoin:miter;stroke-opacity:1"/>
<path class="bond-6 atom-6 atom-7" d="M 260.4,88.6 L 252.4,70.5" style="fill:none;fill-rule:evenodd;stroke:#000000;stroke-width:2.0px;stroke-linecap:butt;stroke-linejoin:miter;stroke-opacity:1"/>
<path class="bond-7 atom-7 atom-8" d="M 252.4,70.5 L 244.2,69.7" style="fill:none;fill-rule:evenodd;stroke:#000000;stroke-width:2.0px;stroke-linecap:butt;stroke-linejoin:miter;stroke-opacity:1"/>
<path class="bond-7 atom-7 atom-8" d="M 244.2,69.7 L 236.0,68.8" style="fill:none;fill-rule:evenodd;stroke:#FF0000;stroke-width:2.0px;stroke-linecap:butt;stroke-linejoin:miter;stroke-opacity:1"/>
<path class="bond-8 atom-6 atom-9" d="M 260.4,88.6 L 248.8,104.6" style="fill:none;fill-rule:evenodd;stroke:#000000;stroke-width:2.0px;stroke-linecap:butt;stroke-linejoin:miter;stroke-opacity:1"/>
<path class="bond-9 atom-9 atom-10" d="M 248.8,104.6 L 240.6,103.7" style="fill:none;fill-rule:evenodd;stroke:#000000;stroke-width:2.0px;stroke-linecap:butt;stroke-linejoin:miter;stroke-opacity:1"/>
<path class="bond-9 atom-9 atom-10" d="M 240.6,103.7 L 232.4,102.8" style="fill:none;fill-rule:evenodd;stroke:#FF0000;stroke-width:2.0px;stroke-linecap:butt;stroke-linejoin:miter;stroke-opacity:1"/>
<path class="bond-10 atom-9 atom-11" d="M 248.8,104.6 L 256.8,122.6" style="fill:none;fill-rule:evenodd;stroke:#000000;stroke-width:2.0px;stroke-linecap:butt;stroke-linejoin:miter;stroke-opacity:1"/>
<path class="bond-11 atom-11 atom-12" d="M 256.8,122.6 L 252.3,128.9" style="fill:none;fill-rule:evenodd;stroke:#000000;stroke-width:2.0px;stroke-linecap:butt;stroke-linejoin:miter;stroke-opacity:1"/>
<path class="bond-11 atom-11 atom-12" d="M 252.3,128.9 L 247.7,135.1" style="fill:none;fill-rule:evenodd;stroke:#FF0000;stroke-width:2.0px;stroke-linecap:butt;stroke-linejoin:miter;stroke-opacity:1"/>
<path class="bond-12 atom-11 atom-13" d="M 256.8,122.6 L 276.5,124.7" style="fill:none;fill-rule:evenodd;stroke:#000000;stroke-width:2.0px;stroke-linecap:butt;stroke-linejoin:miter;stroke-opacity:1"/>
<path class="bond-13 atom-13 atom-14" d="M 276.5,124.7 L 279.7,132.0" style="fill:none;fill-rule:evenodd;stroke:#000000;stroke-width:2.0px;stroke-linecap:butt;stroke-linejoin:miter;stroke-opacity:1"/>
<path class="bond-13 atom-13 atom-14" d="M 279.7,132.0 L 283.0,139.3" style="fill:none;fill-rule:evenodd;stroke:#FF0000;stroke-width:2.0px;stroke-linecap:butt;stroke-linejoin:miter;stroke-opacity:1"/>
<path class="bond-14 atom-2 atom-15" d="M 319.4,94.8 L 339.0,96.9" style="fill:none;fill-rule:evenodd;stroke:#000000;stroke-width:2.0px;stroke-linecap:butt;stroke-linejoin:miter;stroke-opacity:1"/>
<path class="bond-14 atom-2 atom-15" d="M 321.4,92.0 L 337.6,93.7" style="fill:none;fill-rule:evenodd;stroke:#000000;stroke-width:2.0px;stroke-linecap:butt;stroke-linejoin:miter;stroke-opacity:1"/>
<path class="bond-15 atom-15 atom-16" d="M 339.0,96.9 L 347.0,114.9" style="fill:none;fill-rule:evenodd;stroke:#000000;stroke-width:2.0px;stroke-linecap:butt;stroke-linejoin:miter;stroke-opacity:1"/>
<path class="bond-16 atom-16 atom-17" d="M 347.0,114.9 L 335.4,130.9" style="fill:none;fill-rule:evenodd;stroke:#000000;stroke-width:2.0px;stroke-linecap:butt;stroke-linejoin:miter;stroke-opacity:1"/>
<path class="bond-16 atom-16 atom-17" d="M 348.4,118.1 L 338.8,131.3" style="fill:none;fill-rule:evenodd;stroke:#000000;stroke-width:2.0px;stroke-linecap:butt;stroke-linejoin:miter;stroke-opacity:1"/>
<path class="bond-17 atom-17 atom-18" d="M 335.4,130.9 L 343.4,149.0" style="fill:none;fill-rule:evenodd;stroke:#000000;stroke-width:2.0px;stroke-linecap:butt;stroke-linejoin:miter;stroke-opacity:1"/>
<path class="bond-18 atom-18 atom-19" d="M 343.4,149.0 L 363.1,151.0" style="fill:none;fill-rule:evenodd;stroke:#000000;stroke-width:2.0px;stroke-linecap:butt;stroke-linejoin:miter;stroke-opacity:1"/>
<path class="bond-18 atom-18 atom-19" d="M 345.5,146.2 L 361.7,147.9" style="fill:none;fill-rule:evenodd;stroke:#000000;stroke-width:2.0px;stroke-linecap:butt;stroke-linejoin:miter;stroke-opacity:1"/>
<path class="bond-19 atom-19 atom-20" d="M 363.1,151.0 L 366.3,158.3" style="fill:none;fill-rule:evenodd;stroke:#000000;stroke-width:2.0px;stroke-linecap:butt;stroke-linejoin:miter;stroke-opacity:1"/>
<path class="bond-19 atom-19 atom-20" d="M 366.3,158.3 L 369.6,165.6" style="fill:none;fill-rule:evenodd;stroke:#FF0000;stroke-width:2.0px;stroke-linecap:butt;stroke-linejoin:miter;stroke-opacity:1"/>
<path class="bond-20 atom-19 atom-21" d="M 363.1,151.0 L 374.7,135.1" style="fill:none;fill-rule:evenodd;stroke:#000000;stroke-width:2.0px;stroke-linecap:butt;stroke-linejoin:miter;stroke-opacity:1"/>
<path class="bond-21 atom-21 atom-22" d="M 374.7,135.1 L 366.7,117.0" style="fill:none;fill-rule:evenodd;stroke:#000000;stroke-width:2.0px;stroke-linecap:butt;stroke-linejoin:miter;stroke-opacity:1"/>
<path class="bond-21 atom-21 atom-22" d="M 371.3,134.7 L 364.7,119.8" style="fill:none;fill-rule:evenodd;stroke:#000000;stroke-width:2.0px;stroke-linecap:butt;stroke-linejoin:miter;stroke-opacity:1"/>
<path class="bond-22 atom-15 atom-23" d="M 339.0,96.9 L 343.5,90.7" style="fill:none;fill-rule:evenodd;stroke:#000000;stroke-width:2.0px;stroke-linecap:butt;stroke-linejoin:miter;stroke-opacity:1"/>
<path class="bond-22 atom-15 atom-23" d="M 343.5,90.7 L 348.0,84.5" style="fill:none;fill-rule:evenodd;stroke:#FF0000;stroke-width:2.0px;stroke-linecap:butt;stroke-linejoin:miter;stroke-opacity:1"/>
<path class="bond-23 atom-23 atom-24" d="M 349.1,77.4 L 345.8,70.1" style="fill:none;fill-rule:evenodd;stroke:#FF0000;stroke-width:2.0px;stroke-linecap:butt;stroke-linejoin:miter;stroke-opacity:1"/>
<path class="bond-23 atom-23 atom-24" d="M 345.8,70.1 L 342.6,62.8" style="fill:none;fill-rule:evenodd;stroke:#000000;stroke-width:2.0px;stroke-linecap:butt;stroke-linejoin:miter;stroke-opacity:1"/>
<path class="bond-24 atom-24 atom-25" d="M 342.6,62.8 L 354.2,46.9" style="fill:none;fill-rule:evenodd;stroke:#000000;stroke-width:2.0px;stroke-linecap:butt;stroke-linejoin:miter;stroke-opacity:1"/>
<path class="bond-24 atom-24 atom-25" d="M 341.2,59.7 L 350.8,46.5" style="fill:none;fill-rule:evenodd;stroke:#000000;stroke-width:2.0px;stroke-linecap:butt;stroke-linejoin:miter;stroke-opacity:1"/>
<path class="bond-25 atom-25 atom-26" d="M 354.2,46.9 L 346.2,28.8" style="fill:none;fill-rule:evenodd;stroke:#000000;stroke-width:2.0px;stroke-linecap:butt;stroke-linejoin:miter;stroke-opacity:1"/>
<path class="bond-26 atom-26 atom-27" d="M 346.2,28.8 L 350.7,22.6" style="fill:none;fill-rule:evenodd;stroke:#000000;stroke-width:2.0px;stroke-linecap:butt;stroke-linejoin:miter;stroke-opacity:1"/>
<path class="bond-26 atom-26 atom-27" d="M 350.7,22.6 L 355.2,16.4" style="fill:none;fill-rule:evenodd;stroke:#FF0000;stroke-width:2.0px;stroke-linecap:butt;stroke-linejoin:miter;stroke-opacity:1"/>
<path class="bond-27 atom-26 atom-28" d="M 346.2,28.8 L 326.6,26.7" style="fill:none;fill-rule:evenodd;stroke:#000000;stroke-width:2.0px;stroke-linecap:butt;stroke-linejoin:miter;stroke-opacity:1"/>
<path class="bond-27 atom-26 atom-28" d="M 344.2,31.6 L 327.9,29.9" style="fill:none;fill-rule:evenodd;stroke:#000000;stroke-width:2.0px;stroke-linecap:butt;stroke-linejoin:miter;stroke-opacity:1"/>
<path class="bond-28 atom-28 atom-29" d="M 326.6,26.7 L 314.9,42.7" style="fill:none;fill-rule:evenodd;stroke:#000000;stroke-width:2.0px;stroke-linecap:butt;stroke-linejoin:miter;stroke-opacity:1"/>
<path class="bond-29 atom-29 atom-30" d="M 314.9,42.7 L 306.7,41.8" style="fill:none;fill-rule:evenodd;stroke:#000000;stroke-width:2.0px;stroke-linecap:butt;stroke-linejoin:miter;stroke-opacity:1"/>
<path class="bond-29 atom-29 atom-30" d="M 306.7,41.8 L 298.5,41.0" style="fill:none;fill-rule:evenodd;stroke:#FF0000;stroke-width:2.0px;stroke-linecap:butt;stroke-linejoin:miter;stroke-opacity:1"/>
<path class="bond-30 atom-29 atom-31" d="M 314.9,42.7 L 323.0,60.8" style="fill:none;fill-rule:evenodd;stroke:#000000;stroke-width:2.0px;stroke-linecap:butt;stroke-linejoin:miter;stroke-opacity:1"/>
<path class="bond-30 atom-29 atom-31" d="M 318.3,43.1 L 325.0,58.0" style="fill:none;fill-rule:evenodd;stroke:#000000;stroke-width:2.0px;stroke-linecap:butt;stroke-linejoin:miter;stroke-opacity:1"/>
<path class="bond-31 atom-31 atom-1" d="M 323.0,60.8 L 311.3,76.7" style="fill:none;fill-rule:evenodd;stroke:#000000;stroke-width:2.0px;stroke-linecap:butt;stroke-linejoin:miter;stroke-opacity:1"/>
<path class="bond-32 atom-13 atom-4" d="M 276.5,124.7 L 288.1,108.7" style="fill:none;fill-rule:evenodd;stroke:#000000;stroke-width:2.0px;stroke-linecap:butt;stroke-linejoin:miter;stroke-opacity:1"/>
<path class="bond-33 atom-22 atom-16" d="M 366.7,117.0 L 347.0,114.9" style="fill:none;fill-rule:evenodd;stroke:#000000;stroke-width:2.0px;stroke-linecap:butt;stroke-linejoin:miter;stroke-opacity:1"/>
<path class="bond-34 atom-31 atom-24" d="M 323.0,60.8 L 342.6,62.8" style="fill:none;fill-rule:evenodd;stroke:#000000;stroke-width:2.0px;stroke-linecap:butt;stroke-linejoin:miter;stroke-opacity:1"/>
<path d="M 311.7,77.6 L 311.3,76.7 L 311.9,75.9" style="fill:none;stroke:#000000;stroke-width:2.0px;stroke-linecap:butt;stroke-linejoin:miter;stroke-opacity:1;"/>
<path d="M 252.8,71.4 L 252.4,70.5 L 252.0,70.5" style="fill:none;stroke:#000000;stroke-width:2.0px;stroke-linecap:butt;stroke-linejoin:miter;stroke-opacity:1;"/>
<path d="M 336.0,130.1 L 335.4,130.9 L 335.8,131.8" style="fill:none;stroke:#000000;stroke-width:2.0px;stroke-linecap:butt;stroke-linejoin:miter;stroke-opacity:1;"/>
<path d="M 343.0,148.1 L 343.4,149.0 L 344.4,149.1" style="fill:none;stroke:#000000;stroke-width:2.0px;stroke-linecap:butt;stroke-linejoin:miter;stroke-opacity:1;"/>
<path d="M 374.1,135.9 L 374.7,135.1 L 374.3,134.1" style="fill:none;stroke:#000000;stroke-width:2.0px;stroke-linecap:butt;stroke-linejoin:miter;stroke-opacity:1;"/>
<path d="M 367.1,117.9 L 366.7,117.0 L 365.7,116.9" style="fill:none;stroke:#000000;stroke-width:2.0px;stroke-linecap:butt;stroke-linejoin:miter;stroke-opacity:1;"/>
<path d="M 353.6,47.7 L 354.2,46.9 L 353.8,46.0" style="fill:none;stroke:#000000;stroke-width:2.0px;stroke-linecap:butt;stroke-linejoin:miter;stroke-opacity:1;"/>
<path d="M 327.5,26.8 L 326.6,26.7 L 326.0,27.5" style="fill:none;stroke:#000000;stroke-width:2.0px;stroke-linecap:butt;stroke-linejoin:miter;stroke-opacity:1;"/>
<path class="atom-0" d="M 289.1 74.7 Q 289.1 73.3, 289.8 72.6 Q 290.4 71.8, 291.7 71.8 Q 292.9 71.8, 293.6 72.6 Q 294.3 73.3, 294.3 74.7 Q 294.3 76.0, 293.6 76.8 Q 292.9 77.6, 291.7 77.6 Q 290.5 77.6, 289.8 76.8 Q 289.1 76.1, 289.1 74.7 M 291.7 77.0 Q 292.5 77.0, 293.0 76.4 Q 293.5 75.8, 293.5 74.7 Q 293.5 73.6, 293.0 73.0 Q 292.5 72.5, 291.7 72.5 Q 290.8 72.5, 290.4 73.0 Q 289.9 73.6, 289.9 74.7 Q 289.9 75.8, 290.4 76.4 Q 290.8 77.0, 291.7 77.0 " fill="#FF0000"/>
<path class="atom-3" d="M 305.2 110.8 Q 305.2 109.4, 305.8 108.7 Q 306.5 107.9, 307.7 107.9 Q 309.0 107.9, 309.6 108.7 Q 310.3 109.4, 310.3 110.8 Q 310.3 112.2, 309.6 112.9 Q 309.0 113.7, 307.7 113.7 Q 306.5 113.7, 305.8 112.9 Q 305.2 112.2, 305.2 110.8 M 307.7 113.1 Q 308.6 113.1, 309.1 112.5 Q 309.5 111.9, 309.5 110.8 Q 309.5 109.7, 309.1 109.1 Q 308.6 108.6, 307.7 108.6 Q 306.9 108.6, 306.4 109.1 Q 306.0 109.7, 306.0 110.8 Q 306.0 111.9, 306.4 112.5 Q 306.9 113.1, 307.7 113.1 " fill="#FF0000"/>
<path class="atom-5" d="M 277.5 90.7 Q 277.5 89.3, 278.2 88.6 Q 278.8 87.8, 280.1 87.8 Q 281.3 87.8, 282.0 88.6 Q 282.6 89.3, 282.6 90.7 Q 282.6 92.0, 282.0 92.8 Q 281.3 93.6, 280.1 93.6 Q 278.8 93.6, 278.2 92.8 Q 277.5 92.0, 277.5 90.7 M 280.1 92.9 Q 280.9 92.9, 281.4 92.4 Q 281.8 91.8, 281.8 90.7 Q 281.8 89.6, 281.4 89.0 Q 280.9 88.5, 280.1 88.5 Q 279.2 88.5, 278.7 89.0 Q 278.3 89.6, 278.3 90.7 Q 278.3 91.8, 278.7 92.4 Q 279.2 92.9, 280.1 92.9 " fill="#FF0000"/>
<path class="atom-8" d="M 224.7 65.7 L 225.4 65.7 L 225.4 68.1 L 228.3 68.1 L 228.3 65.7 L 229.0 65.7 L 229.0 71.3 L 228.3 71.3 L 228.3 68.7 L 225.4 68.7 L 225.4 71.3 L 224.7 71.3 L 224.7 65.7 " fill="#FF0000"/>
<path class="atom-8" d="M 230.2 68.5 Q 230.2 67.1, 230.8 66.4 Q 231.5 65.6, 232.7 65.6 Q 234.0 65.6, 234.6 66.4 Q 235.3 67.1, 235.3 68.5 Q 235.3 69.8, 234.6 70.6 Q 234.0 71.4, 232.7 71.4 Q 231.5 71.4, 230.8 70.6 Q 230.2 69.8, 230.2 68.5 M 232.7 70.7 Q 233.6 70.7, 234.1 70.2 Q 234.5 69.6, 234.5 68.5 Q 234.5 67.4, 234.1 66.8 Q 233.6 66.2, 232.7 66.2 Q 231.9 66.2, 231.4 66.8 Q 231.0 67.4, 231.0 68.5 Q 231.0 69.6, 231.4 70.2 Q 231.9 70.7, 232.7 70.7 " fill="#FF0000"/>
<path class="atom-10" d="M 221.1 99.7 L 221.8 99.7 L 221.8 102.1 L 224.7 102.1 L 224.7 99.7 L 225.4 99.7 L 225.4 105.3 L 224.7 105.3 L 224.7 102.7 L 221.8 102.7 L 221.8 105.3 L 221.1 105.3 L 221.1 99.7 " fill="#FF0000"/>
<path class="atom-10" d="M 226.6 102.5 Q 226.6 101.2, 227.2 100.4 Q 227.9 99.6, 229.2 99.6 Q 230.4 99.6, 231.1 100.4 Q 231.7 101.2, 231.7 102.5 Q 231.7 103.9, 231.0 104.6 Q 230.4 105.4, 229.2 105.4 Q 227.9 105.4, 227.2 104.6 Q 226.6 103.9, 226.6 102.5 M 229.2 104.8 Q 230.0 104.8, 230.5 104.2 Q 230.9 103.6, 230.9 102.5 Q 230.9 101.4, 230.5 100.8 Q 230.0 100.3, 229.2 100.3 Q 228.3 100.3, 227.8 100.8 Q 227.4 101.4, 227.4 102.5 Q 227.4 103.6, 227.8 104.2 Q 228.3 104.8, 229.2 104.8 " fill="#FF0000"/>
<path class="atom-12" d="M 237.1 135.8 L 237.9 135.8 L 237.9 138.2 L 240.7 138.2 L 240.7 135.8 L 241.5 135.8 L 241.5 141.4 L 240.7 141.4 L 240.7 138.8 L 237.9 138.8 L 237.9 141.4 L 237.1 141.4 L 237.1 135.8 " fill="#FF0000"/>
<path class="atom-12" d="M 242.6 138.6 Q 242.6 137.3, 243.3 136.5 Q 244.0 135.8, 245.2 135.8 Q 246.4 135.8, 247.1 136.5 Q 247.8 137.3, 247.8 138.6 Q 247.8 140.0, 247.1 140.7 Q 246.4 141.5, 245.2 141.5 Q 244.0 141.5, 243.3 140.7 Q 242.6 140.0, 242.6 138.6 M 245.2 140.9 Q 246.1 140.9, 246.5 140.3 Q 247.0 139.7, 247.0 138.6 Q 247.0 137.5, 246.5 136.9 Q 246.1 136.4, 245.2 136.4 Q 244.4 136.4, 243.9 136.9 Q 243.4 137.5, 243.4 138.6 Q 243.4 139.7, 243.9 140.3 Q 244.4 140.9, 245.2 140.9 " fill="#FF0000"/>
<path class="atom-14" d="M 281.9 142.7 Q 281.9 141.4, 282.6 140.7 Q 283.3 139.9, 284.5 139.9 Q 285.7 139.9, 286.4 140.7 Q 287.1 141.4, 287.1 142.7 Q 287.1 144.1, 286.4 144.9 Q 285.7 145.6, 284.5 145.6 Q 283.3 145.6, 282.6 144.9 Q 281.9 144.1, 281.9 142.7 M 284.5 145.0 Q 285.4 145.0, 285.8 144.4 Q 286.3 143.9, 286.3 142.7 Q 286.3 141.7, 285.8 141.1 Q 285.4 140.5, 284.5 140.5 Q 283.7 140.5, 283.2 141.1 Q 282.7 141.6, 282.7 142.7 Q 282.7 143.9, 283.2 144.4 Q 283.7 145.0, 284.5 145.0 " fill="#FF0000"/>
<path class="atom-14" d="M 287.9 140.0 L 288.7 140.0 L 288.7 142.3 L 291.6 142.3 L 291.6 140.0 L 292.3 140.0 L 292.3 145.6 L 291.6 145.6 L 291.6 143.0 L 288.7 143.0 L 288.7 145.6 L 287.9 145.6 L 287.9 140.0 " fill="#FF0000"/>
<path class="atom-20" d="M 368.6 169.1 Q 368.6 167.8, 369.2 167.0 Q 369.9 166.3, 371.1 166.3 Q 372.4 166.3, 373.0 167.0 Q 373.7 167.8, 373.7 169.1 Q 373.7 170.5, 373.0 171.2 Q 372.3 172.0, 371.1 172.0 Q 369.9 172.0, 369.2 171.2 Q 368.6 170.5, 368.6 169.1 M 371.1 171.4 Q 372.0 171.4, 372.4 170.8 Q 372.9 170.2, 372.9 169.1 Q 372.9 168.0, 372.4 167.4 Q 372.0 166.9, 371.1 166.9 Q 370.3 166.9, 369.8 167.4 Q 369.3 168.0, 369.3 169.1 Q 369.3 170.2, 369.8 170.8 Q 370.3 171.4, 371.1 171.4 " fill="#FF0000"/>
<path class="atom-20" d="M 374.6 166.3 L 375.3 166.3 L 375.3 168.7 L 378.2 168.7 L 378.2 166.3 L 378.9 166.3 L 378.9 171.9 L 378.2 171.9 L 378.2 169.3 L 375.3 169.3 L 375.3 171.9 L 374.6 171.9 L 374.6 166.3 " fill="#FF0000"/>
<path class="atom-23" d="M 348.1 80.9 Q 348.1 79.6, 348.7 78.8 Q 349.4 78.1, 350.6 78.1 Q 351.9 78.1, 352.5 78.8 Q 353.2 79.6, 353.2 80.9 Q 353.2 82.3, 352.5 83.0 Q 351.9 83.8, 350.6 83.8 Q 349.4 83.8, 348.7 83.0 Q 348.1 82.3, 348.1 80.9 M 350.6 83.2 Q 351.5 83.2, 351.9 82.6 Q 352.4 82.0, 352.4 80.9 Q 352.4 79.8, 351.9 79.3 Q 351.5 78.7, 350.6 78.7 Q 349.8 78.7, 349.3 79.2 Q 348.9 79.8, 348.9 80.9 Q 348.9 82.0, 349.3 82.6 Q 349.8 83.2, 350.6 83.2 " fill="#FF0000"/>
<path class="atom-27" d="M 355.3 12.8 Q 355.3 11.5, 355.9 10.8 Q 356.6 10.0, 357.8 10.0 Q 359.1 10.0, 359.7 10.8 Q 360.4 11.5, 360.4 12.8 Q 360.4 14.2, 359.7 15.0 Q 359.0 15.7, 357.8 15.7 Q 356.6 15.7, 355.9 15.0 Q 355.3 14.2, 355.3 12.8 M 357.8 15.1 Q 358.7 15.1, 359.1 14.5 Q 359.6 14.0, 359.6 12.8 Q 359.6 11.7, 359.1 11.2 Q 358.7 10.6, 357.8 10.6 Q 357.0 10.6, 356.5 11.2 Q 356.0 11.7, 356.0 12.8 Q 356.0 14.0, 356.5 14.5 Q 357.0 15.1, 357.8 15.1 " fill="#FF0000"/>
<path class="atom-27" d="M 361.3 10.1 L 362.0 10.1 L 362.0 12.4 L 364.9 12.4 L 364.9 10.1 L 365.6 10.1 L 365.6 15.7 L 364.9 15.7 L 364.9 13.1 L 362.0 13.1 L 362.0 15.7 L 361.3 15.7 L 361.3 10.1 " fill="#FF0000"/>
<path class="atom-30" d="M 287.2 37.9 L 287.9 37.9 L 287.9 40.3 L 290.8 40.3 L 290.8 37.9 L 291.6 37.9 L 291.6 43.5 L 290.8 43.5 L 290.8 40.9 L 287.9 40.9 L 287.9 43.5 L 287.2 43.5 L 287.2 37.9 " fill="#FF0000"/>
<path class="atom-30" d="M 292.7 40.7 Q 292.7 39.3, 293.4 38.6 Q 294.0 37.8, 295.3 37.8 Q 296.5 37.8, 297.2 38.6 Q 297.9 39.3, 297.9 40.7 Q 297.9 42.0, 297.2 42.8 Q 296.5 43.6, 295.3 43.6 Q 294.1 43.6, 293.4 42.8 Q 292.7 42.0, 292.7 40.7 M 295.3 42.9 Q 296.1 42.9, 296.6 42.4 Q 297.1 41.8, 297.1 40.7 Q 297.1 39.6, 296.6 39.0 Q 296.1 38.4, 295.3 38.4 Q 294.4 38.4, 294.0 39.0 Q 293.5 39.5, 293.5 40.7 Q 293.5 41.8, 294.0 42.4 Q 294.4 42.9, 295.3 42.9 " fill="#FF0000"/>
<path class="legend" d="M 301.7 184.0 Q 302.7 184.4, 303.3 185.0 Q 303.8 185.7, 303.8 186.7 Q 303.8 188.2, 302.8 189.1 Q 301.8 190.0, 300.0 190.0 L 296.2 190.0 L 296.2 178.7 L 299.5 178.7 Q 301.4 178.7, 302.4 179.5 Q 303.4 180.2, 303.4 181.7 Q 303.4 183.4, 301.7 184.0 M 297.7 180.0 L 297.7 183.5 L 299.5 183.5 Q 300.6 183.5, 301.2 183.1 Q 301.8 182.6, 301.8 181.7 Q 301.8 180.0, 299.5 180.0 L 297.7 180.0 M 300.0 188.7 Q 301.1 188.7, 301.7 188.2 Q 302.2 187.7, 302.2 186.7 Q 302.2 185.7, 301.6 185.3 Q 301.0 184.8, 299.7 184.8 L 297.7 184.8 L 297.7 188.7 L 300.0 188.7 " fill="#000000"/>
</svg>