<svg xmlns="http://www.w3.org/2000/svg" xmlns:rdkit="http://www.rdkit.org/xml" xmlns:xlink="http://www.w3.org/1999/xlink" version="1.1" baseProfile="full" xml:space="preserve" width="800px" height="200px" viewBox="0 0 800 200">
<!-- END OF HEADER -->
<rect style="opacity:1.0;fill:#FFFFFF;stroke:none" width="800.0" height="200.0" x="0.0" y="0.0"> </rect>
<path class="bond-0 atom-0 atom-1" d="M 137.1,52.9 L 133.9,61.2" style="fill:none;fill-rule:evenodd;stroke:#FF0000;stroke-width:2.0px;stroke-linecap:butt;stroke-linejoin:miter;stroke-opacity:1"/>
<path class="bond-0 atom-0 atom-1" d="M 133.9,61.2 L 130.7,69.4" style="fill:none;fill-rule:evenodd;stroke:#000000;stroke-width:2.0px;stroke-linecap:butt;stroke-linejoin:miter;stroke-opacity:1"/>
<path class="bond-0 atom-0 atom-1" d="M 134.2,51.8 L 131.0,60.0" style="fill:none;fill-rule:evenodd;stroke:#FF0000;stroke-width:2.0px;stroke-linecap:butt;stroke-linejoin:miter;stroke-opacity:1"/>
<path class="bond-0 atom-0 atom-1" d="M 131.0,60.0 L 127.7,68.3" style="fill:none;fill-rule:evenodd;stroke:#000000;stroke-width:2.0px;stroke-linecap:butt;stroke-linejoin:miter;stroke-opacity:1"/>
<path class="bond-1 atom-1 atom-2" d="M 129.5,68.0 L 108.9,71.2" style="fill:none;fill-rule:evenodd;stroke:#000000;stroke-width:2.0px;stroke-linecap:butt;stroke-linejoin:miter;stroke-opacity:1"/>
<path class="bond-2 atom-2 atom-3" d="M 108.9,71.2 L 103.8,64.9" style="fill:none;fill-rule:evenodd;stroke:#000000;stroke-width:2.0px;stroke-linecap:butt;stroke-linejoin:miter;stroke-opacity:1"/>
<path class="bond-2 atom-2 atom-3" d="M 103.8,64.9 L 98.8,58.6" style="fill:none;fill-rule:evenodd;stroke:#FF0000;stroke-width:2.0px;stroke-linecap:butt;stroke-linejoin:miter;stroke-opacity:1"/>
<path class="bond-3 atom-2 atom-4" d="M 108.9,71.2 L 101.2,90.6" style="fill:none;fill-rule:evenodd;stroke:#000000;stroke-width:2.0px;stroke-linecap:butt;stroke-linejoin:miter;stroke-opacity:1"/>
<path class="bond-3 atom-2 atom-4" d="M 111.1,74.0 L 104.8,90.1" style="fill:none;fill-rule:evenodd;stroke:#000000;stroke-width:2.0px;stroke-linecap:butt;stroke-linejoin:miter;stroke-opacity:1"/>
<path class="bond-4 atom-4 atom-5" d="M 101.2,90.6 L 80.6,93.8" style="fill:none;fill-rule:evenodd;stroke:#000000;stroke-width:2.0px;stroke-linecap:butt;stroke-linejoin:miter;stroke-opacity:1"/>
<path class="bond-5 atom-5 atom-6" d="M 80.6,93.8 L 67.5,77.4" style="fill:none;fill-rule:evenodd;stroke:#000000;stroke-width:2.0px;stroke-linecap:butt;stroke-linejoin:miter;stroke-opacity:1"/>
<path class="bond-5 atom-5 atom-6" d="M 77.0,94.3 L 66.2,80.8" style="fill:none;fill-rule:evenodd;stroke:#000000;stroke-width:2.0px;stroke-linecap:butt;stroke-linejoin:miter;stroke-opacity:1"/>
<path class="bond-6 atom-6 atom-7" d="M 67.5,77.4 L 46.8,80.6" style="fill:none;fill-rule:evenodd;stroke:#000000;stroke-width:2.0px;stroke-linecap:butt;stroke-linejoin:miter;stroke-opacity:1"/>
<path class="bond-7 atom-7 atom-8" d="M 46.8,80.6 L 39.2,100.1" style="fill:none;fill-rule:evenodd;stroke:#000000;stroke-width:2.0px;stroke-linecap:butt;stroke-linejoin:miter;stroke-opacity:1"/>
<path class="bond-7 atom-7 atom-8" d="M 49.1,83.4 L 42.8,99.5" style="fill:none;fill-rule:evenodd;stroke:#000000;stroke-width:2.0px;stroke-linecap:butt;stroke-linejoin:miter;stroke-opacity:1"/>
<path class="bond-8 atom-8 atom-9" d="M 39.2,100.1 L 30.6,101.4" style="fill:none;fill-rule:evenodd;stroke:#000000;stroke-width:2.0px;stroke-linecap:butt;stroke-linejoin:miter;stroke-opacity:1"/>
<path class="bond-8 atom-8 atom-9" d="M 30.6,101.4 L 22.0,102.7" style="fill:none;fill-rule:evenodd;stroke:#FF0000;stroke-width:2.0px;stroke-linecap:butt;stroke-linejoin:miter;stroke-opacity:1"/>
<path class="bond-9 atom-8 atom-10" d="M 39.2,100.1 L 52.3,116.4" style="fill:none;fill-rule:evenodd;stroke:#000000;stroke-width:2.0px;stroke-linecap:butt;stroke-linejoin:miter;stroke-opacity:1"/>
<path class="bond-10 atom-10 atom-11" d="M 52.3,116.4 L 73.0,113.2" style="fill:none;fill-rule:evenodd;stroke:#000000;stroke-width:2.0px;stroke-linecap:butt;stroke-linejoin:miter;stroke-opacity:1"/>
<path class="bond-10 atom-10 atom-11" d="M 53.6,113.0 L 70.7,110.4" style="fill:none;fill-rule:evenodd;stroke:#000000;stroke-width:2.0px;stroke-linecap:butt;stroke-linejoin:miter;stroke-opacity:1"/>
<path class="bond-11 atom-4 atom-12" d="M 101.2,90.6 L 106.3,97.0" style="fill:none;fill-rule:evenodd;stroke:#000000;stroke-width:2.0px;stroke-linecap:butt;stroke-linejoin:miter;stroke-opacity:1"/>
<path class="bond-11 atom-4 atom-12" d="M 106.3,97.0 L 111.3,103.3" style="fill:none;fill-rule:evenodd;stroke:#FF0000;stroke-width:2.0px;stroke-linecap:butt;stroke-linejoin:miter;stroke-opacity:1"/>
<path class="bond-12 atom-12 atom-13" d="M 117.7,106.4 L 126.3,105.1" style="fill:none;fill-rule:evenodd;stroke:#FF0000;stroke-width:2.0px;stroke-linecap:butt;stroke-linejoin:miter;stroke-opacity:1"/>
<path class="bond-12 atom-12 atom-13" d="M 126.3,105.1 L 135.0,103.8" style="fill:none;fill-rule:evenodd;stroke:#000000;stroke-width:2.0px;stroke-linecap:butt;stroke-linejoin:miter;stroke-opacity:1"/>
<path class="bond-13 atom-13 atom-14" d="M 135.0,103.8 L 148.0,120.2" style="fill:none;fill-rule:evenodd;stroke:#000000;stroke-width:2.0px;stroke-linecap:butt;stroke-linejoin:miter;stroke-opacity:1"/>
<path class="bond-13 atom-13 atom-14" d="M 138.5,103.3 L 149.3,116.8" style="fill:none;fill-rule:evenodd;stroke:#000000;stroke-width:2.0px;stroke-linecap:butt;stroke-linejoin:miter;stroke-opacity:1"/>
<path class="bond-14 atom-14 atom-15" d="M 148.0,120.2 L 168.7,117.0" style="fill:none;fill-rule:evenodd;stroke:#000000;stroke-width:2.0px;stroke-linecap:butt;stroke-linejoin:miter;stroke-opacity:1"/>
<path class="bond-15 atom-15 atom-16" d="M 168.7,117.0 L 173.7,123.3" style="fill:none;fill-rule:evenodd;stroke:#000000;stroke-width:2.0px;stroke-linecap:butt;stroke-linejoin:miter;stroke-opacity:1"/>
<path class="bond-15 atom-15 atom-16" d="M 173.7,123.3 L 178.8,129.7" style="fill:none;fill-rule:evenodd;stroke:#FF0000;stroke-width:2.0px;stroke-linecap:butt;stroke-linejoin:miter;stroke-opacity:1"/>
<path class="bond-16 atom-15 atom-17" d="M 168.7,117.0 L 176.3,97.5" style="fill:none;fill-rule:evenodd;stroke:#000000;stroke-width:2.0px;stroke-linecap:butt;stroke-linejoin:miter;stroke-opacity:1"/>
<path class="bond-16 atom-15 atom-17" d="M 166.4,114.2 L 172.7,98.1" style="fill:none;fill-rule:evenodd;stroke:#000000;stroke-width:2.0px;stroke-linecap:butt;stroke-linejoin:miter;stroke-opacity:1"/>
<path class="bond-17 atom-17 atom-18" d="M 176.3,97.5 L 163.2,81.2" style="fill:none;fill-rule:evenodd;stroke:#000000;stroke-width:2.0px;stroke-linecap:butt;stroke-linejoin:miter;stroke-opacity:1"/>
<path class="bond-18 atom-18 atom-19" d="M 163.2,81.2 L 166.3,73.4" style="fill:none;fill-rule:evenodd;stroke:#000000;stroke-width:2.0px;stroke-linecap:butt;stroke-linejoin:miter;stroke-opacity:1"/>
<path class="bond-18 atom-18 atom-19" d="M 166.3,73.4 L 169.4,65.5" style="fill:none;fill-rule:evenodd;stroke:#FF0000;stroke-width:2.0px;stroke-linecap:butt;stroke-linejoin:miter;stroke-opacity:1"/>
<path class="bond-19 atom-18 atom-20" d="M 163.2,81.2 L 142.6,84.4" style="fill:none;fill-rule:evenodd;stroke:#000000;stroke-width:2.0px;stroke-linecap:butt;stroke-linejoin:miter;stroke-opacity:1"/>
<path class="bond-19 atom-18 atom-20" d="M 161.9,84.6 L 144.8,87.2" style="fill:none;fill-rule:evenodd;stroke:#000000;stroke-width:2.0px;stroke-linecap:butt;stroke-linejoin:miter;stroke-opacity:1"/>
<path class="bond-20 atom-20 atom-1" d="M 142.6,84.4 L 129.5,68.0" style="fill:none;fill-rule:evenodd;stroke:#000000;stroke-width:2.0px;stroke-linecap:butt;stroke-linejoin:miter;stroke-opacity:1"/>
<path class="bond-21 atom-11 atom-5" d="M 73.0,113.2 L 80.6,93.8" style="fill:none;fill-rule:evenodd;stroke:#000000;stroke-width:2.0px;stroke-linecap:butt;stroke-linejoin:miter;stroke-opacity:1"/>
<path class="bond-22 atom-20 atom-13" d="M 142.6,84.4 L 135.0,103.8" style="fill:none;fill-rule:evenodd;stroke:#000000;stroke-width:2.0px;stroke-linecap:butt;stroke-linejoin:miter;stroke-opacity:1"/>
<path d="M 128.5,68.2 L 129.5,68.0 L 130.2,68.8" style="fill:none;stroke:#000000;stroke-width:2.0px;stroke-linecap:butt;stroke-linejoin:miter;stroke-opacity:1;"/>
<path d="M 68.2,78.3 L 67.5,77.4 L 66.5,77.6" style="fill:none;stroke:#000000;stroke-width:2.0px;stroke-linecap:butt;stroke-linejoin:miter;stroke-opacity:1;"/>
<path d="M 47.9,80.4 L 46.8,80.6 L 46.5,81.6" style="fill:none;stroke:#000000;stroke-width:2.0px;stroke-linecap:butt;stroke-linejoin:miter;stroke-opacity:1;"/>
<path d="M 51.6,115.6 L 52.3,116.4 L 53.3,116.2" style="fill:none;stroke:#000000;stroke-width:2.0px;stroke-linecap:butt;stroke-linejoin:miter;stroke-opacity:1;"/>
<path d="M 71.9,113.4 L 73.0,113.2 L 73.3,112.3" style="fill:none;stroke:#000000;stroke-width:2.0px;stroke-linecap:butt;stroke-linejoin:miter;stroke-opacity:1;"/>
<path d="M 147.4,119.3 L 148.0,120.2 L 149.0,120.0" style="fill:none;stroke:#000000;stroke-width:2.0px;stroke-linecap:butt;stroke-linejoin:miter;stroke-opacity:1;"/>
<path d="M 175.9,98.5 L 176.3,97.5 L 175.6,96.7" style="fill:none;stroke:#000000;stroke-width:2.0px;stroke-linecap:butt;stroke-linejoin:miter;stroke-opacity:1;"/>
<path class="atom-0" d="M 134.4 48.6 Q 134.4 47.2, 135.1 46.4 Q 135.8 45.6, 137.1 45.6 Q 138.4 45.6, 139.2 46.4 Q 139.9 47.2, 139.9 48.6 Q 139.9 50.0, 139.1 50.8 Q 138.4 51.6, 137.1 51.6 Q 135.8 51.6, 135.1 50.8 Q 134.4 50.0, 134.4 48.6 M 137.1 51.0 Q 138.0 51.0, 138.5 50.4 Q 139.0 49.8, 139.0 48.6 Q 139.0 47.4, 138.5 46.8 Q 138.0 46.2, 137.1 46.2 Q 136.2 46.2, 135.7 46.8 Q 135.3 47.4, 135.3 48.6 Q 135.3 49.8, 135.7 50.4 Q 136.2 51.0, 137.1 51.0 " fill="#FF0000"/>
<path class="atom-3" d="M 87.2 51.9 L 88.0 51.9 L 88.0 54.4 L 91.1 54.4 L 91.1 51.9 L 91.9 51.9 L 91.9 57.8 L 91.1 57.8 L 91.1 55.1 L 88.0 55.1 L 88.0 57.8 L 87.2 57.8 L 87.2 51.9 " fill="#FF0000"/>
<path class="atom-3" d="M 93.1 54.9 Q 93.1 53.4, 93.8 52.6 Q 94.5 51.8, 95.8 51.8 Q 97.1 51.8, 97.8 52.6 Q 98.5 53.4, 98.5 54.9 Q 98.5 56.3, 97.8 57.1 Q 97.1 57.9, 95.8 57.9 Q 94.5 57.9, 93.8 57.1 Q 93.1 56.3, 93.1 54.9 M 95.8 57.3 Q 96.7 57.3, 97.2 56.7 Q 97.7 56.0, 97.7 54.9 Q 97.7 53.7, 97.2 53.1 Q 96.7 52.5, 95.8 52.5 Q 94.9 52.5, 94.4 53.1 Q 93.9 53.7, 93.9 54.9 Q 93.9 56.1, 94.4 56.7 Q 94.9 57.3, 95.8 57.3 " fill="#FF0000"/>
<path class="atom-9" d="M 10.0 100.3 L 10.8 100.3 L 10.8 102.8 L 13.8 102.8 L 13.8 100.3 L 14.6 100.3 L 14.6 106.2 L 13.8 106.2 L 13.8 103.4 L 10.8 103.4 L 10.8 106.2 L 10.0 106.2 L 10.0 100.3 " fill="#FF0000"/>
<path class="atom-9" d="M 15.8 103.2 Q 15.8 101.8, 16.5 101.0 Q 17.3 100.2, 18.6 100.2 Q 19.9 100.2, 20.6 101.0 Q 21.3 101.8, 21.3 103.2 Q 21.3 104.6, 20.6 105.5 Q 19.9 106.3, 18.6 106.3 Q 17.3 106.3, 16.5 105.5 Q 15.8 104.7, 15.8 103.2 M 18.6 105.6 Q 19.5 105.6, 20.0 105.0 Q 20.4 104.4, 20.4 103.2 Q 20.4 102.0, 20.0 101.5 Q 19.5 100.9, 18.6 100.9 Q 17.7 100.9, 17.2 101.5 Q 16.7 102.0, 16.7 103.2 Q 16.7 104.4, 17.2 105.0 Q 17.7 105.6, 18.6 105.6 " fill="#FF0000"/>
<path class="atom-12" d="M 111.6 107.0 Q 111.6 105.6, 112.3 104.8 Q 113.0 104.0, 114.3 104.0 Q 115.6 104.0, 116.3 104.8 Q 117.0 105.6, 117.0 107.0 Q 117.0 108.4, 116.3 109.2 Q 115.6 110.1, 114.3 110.1 Q 113.0 110.1, 112.3 109.2 Q 111.6 108.4, 111.6 107.0 M 114.3 109.4 Q 115.2 109.4, 115.7 108.8 Q 116.2 108.2, 116.2 107.0 Q 116.2 105.8, 115.7 105.2 Q 115.2 104.6, 114.3 104.6 Q 113.4 104.6, 112.9 105.2 Q 112.4 105.8, 112.4 107.0 Q 112.4 108.2, 112.9 108.8 Q 113.4 109.4, 114.3 109.4 " fill="#FF0000"/>
<path class="atom-16" d="M 179.0 133.4 Q 179.0 131.9, 179.7 131.1 Q 180.4 130.4, 181.7 130.4 Q 183.0 130.4, 183.7 131.1 Q 184.4 131.9, 184.4 133.4 Q 184.4 134.8, 183.7 135.6 Q 183.0 136.4, 181.7 136.4 Q 180.4 136.4, 179.7 135.6 Q 179.0 134.8, 179.0 133.4 M 181.7 135.8 Q 182.6 135.8, 183.1 135.2 Q 183.6 134.6, 183.6 133.4 Q 183.6 132.2, 183.1 131.6 Q 182.6 131.0, 181.7 131.0 Q 180.8 131.0, 180.3 131.6 Q 179.8 132.2, 179.8 133.4 Q 179.8 134.6, 180.3 135.2 Q 180.8 135.8, 181.7 135.8 " fill="#FF0000"/>
<path class="atom-16" d="M 185.4 130.4 L 186.2 130.4 L 186.2 132.9 L 189.2 132.9 L 189.2 130.4 L 190.0 130.4 L 190.0 136.3 L 189.2 136.3 L 189.2 133.6 L 186.2 133.6 L 186.2 136.3 L 185.4 136.3 L 185.4 130.4 " fill="#FF0000"/>
<path class="atom-19" d="M 168.1 61.8 Q 168.1 60.3, 168.8 59.6 Q 169.5 58.8, 170.9 58.8 Q 172.2 58.8, 172.9 59.6 Q 173.6 60.3, 173.6 61.8 Q 173.6 63.2, 172.9 64.0 Q 172.2 64.8, 170.9 64.8 Q 169.6 64.8, 168.8 64.0 Q 168.1 63.2, 168.1 61.8 M 170.9 64.2 Q 171.8 64.2, 172.2 63.6 Q 172.7 63.0, 172.7 61.8 Q 172.7 60.6, 172.2 60.0 Q 171.8 59.4, 170.9 59.4 Q 170.0 59.4, 169.5 60.0 Q 169.0 60.6, 169.0 61.8 Q 169.0 63.0, 169.5 63.6 Q 170.0 64.2, 170.9 64.2 " fill="#FF0000"/>
<path class="atom-19" d="M 174.5 58.8 L 175.3 58.8 L 175.3 61.3 L 178.3 61.3 L 178.3 58.8 L 179.1 58.8 L 179.1 64.7 L 178.3 64.7 L 178.3 62.0 L 175.3 62.0 L 175.3 64.7 L 174.5 64.7 L 174.5 58.8 " fill="#FF0000"/>
<path class="legend" d="M 103.4 190.0 L 102.2 186.7 L 97.8 186.7 L 96.6 190.0 L 95.1 190.0 L 99.0 178.7 L 100.9 178.7 L 104.9 190.0 L 103.4 190.0 M 98.2 185.4 L 101.8 185.4 L 100.0 180.3 L 98.2 185.4 " fill="#000000"/>
<path class="bond-0 atom-0 atom-1" d="M 249.3,84.3 L 256.4,88.9" style="fill:none;fill-rule:evenodd;stroke:#FF0000;stroke-width:2.0px;stroke-linecap:butt;stroke-linejoin:miter;stroke-opacity:1"/>
<path class="bond-0 atom-0 atom-1" d="M 256.4,88.9 L 263.4,93.5" style="fill:none;fill-rule:evenodd;stroke:#000000;stroke-width:2.0px;stroke-linecap:butt;stroke-linejoin:miter;stroke-opacity:1"/>
<path class="bond-1 atom-1 atom-2" d="M 263.4,93.5 L 282.1,84.2" style="fill:none;fill-rule:evenodd;stroke:#000000;stroke-width:2.0px;stroke-linecap:butt;stroke-linejoin:miter;stroke-opacity:1"/>
<path class="bond-2 atom-2 atom-3" d="M 282.1,84.2 L 299.5,95.6" style="fill:none;fill-rule:evenodd;stroke:#000000;stroke-width:2.0px;stroke-linecap:butt;stroke-linejoin:miter;stroke-opacity:1"/>
<path class="bond-3 atom-3 atom-4" d="M 299.5,95.6 L 299.0,104.2" style="fill:none;fill-rule:evenodd;stroke:#000000;stroke-width:2.0px;stroke-linecap:butt;stroke-linejoin:miter;stroke-opacity:1"/>
<path class="bond-3 atom-3 atom-4" d="M 299.0,104.2 L 298.5,112.8" style="fill:none;fill-rule:evenodd;stroke:#FF0000;stroke-width:2.0px;stroke-linecap:butt;stroke-linejoin:miter;stroke-opacity:1"/>
<path class="bond-4 atom-3 atom-5" d="M 299.5,95.6 L 318.2,86.3" style="fill:none;fill-rule:evenodd;stroke:#000000;stroke-width:2.0px;stroke-linecap:butt;stroke-linejoin:miter;stroke-opacity:1"/>
<path class="bond-5 atom-5 atom-6" d="M 318.2,86.3 L 318.7,77.7" style="fill:none;fill-rule:evenodd;stroke:#000000;stroke-width:2.0px;stroke-linecap:butt;stroke-linejoin:miter;stroke-opacity:1"/>
<path class="bond-5 atom-5 atom-6" d="M 318.7,77.7 L 319.2,69.2" style="fill:none;fill-rule:evenodd;stroke:#FF0000;stroke-width:2.0px;stroke-linecap:butt;stroke-linejoin:miter;stroke-opacity:1"/>
<path class="bond-6 atom-5 atom-7" d="M 318.2,86.3 L 335.7,97.8" style="fill:none;fill-rule:evenodd;stroke:#000000;stroke-width:2.0px;stroke-linecap:butt;stroke-linejoin:miter;stroke-opacity:1"/>
<path class="bond-7 atom-7 atom-8" d="M 335.7,97.8 L 343.3,93.9" style="fill:none;fill-rule:evenodd;stroke:#000000;stroke-width:2.0px;stroke-linecap:butt;stroke-linejoin:miter;stroke-opacity:1"/>
<path class="bond-7 atom-7 atom-8" d="M 343.3,93.9 L 351.0,90.1" style="fill:none;fill-rule:evenodd;stroke:#FF0000;stroke-width:2.0px;stroke-linecap:butt;stroke-linejoin:miter;stroke-opacity:1"/>
<path d="M 263.0,93.3 L 263.4,93.5 L 264.3,93.1" style="fill:none;stroke:#000000;stroke-width:2.0px;stroke-linecap:butt;stroke-linejoin:miter;stroke-opacity:1;"/>
<path d="M 281.1,84.6 L 282.1,84.2 L 282.9,84.7" style="fill:none;stroke:#000000;stroke-width:2.0px;stroke-linecap:butt;stroke-linejoin:miter;stroke-opacity:1;"/>
<path d="M 334.8,97.2 L 335.7,97.8 L 336.1,97.6" style="fill:none;stroke:#000000;stroke-width:2.0px;stroke-linecap:butt;stroke-linejoin:miter;stroke-opacity:1;"/>
<path class="atom-0" d="M 237.4 79.1 L 238.2 79.1 L 238.2 81.6 L 241.2 81.6 L 241.2 79.1 L 242.0 79.1 L 242.0 85.0 L 241.2 85.0 L 241.2 82.3 L 238.2 82.3 L 238.2 85.0 L 237.4 85.0 L 237.4 79.1 " fill="#FF0000"/>
<path class="atom-0" d="M 243.2 82.1 Q 243.2 80.6, 243.9 79.9 Q 244.6 79.1, 245.9 79.1 Q 247.2 79.1, 247.9 79.9 Q 248.6 80.6, 248.6 82.1 Q 248.6 83.5, 247.9 84.3 Q 247.2 85.1, 245.9 85.1 Q 244.6 85.1, 243.9 84.3 Q 243.2 83.5, 243.2 82.1 M 245.9 84.5 Q 246.8 84.5, 247.3 83.9 Q 247.8 83.3, 247.8 82.1 Q 247.8 80.9, 247.3 80.3 Q 246.8 79.7, 245.9 79.7 Q 245.0 79.7, 244.5 80.3 Q 244.0 80.9, 244.0 82.1 Q 244.0 83.3, 244.5 83.9 Q 245.0 84.5, 245.9 84.5 " fill="#FF0000"/>
<path class="atom-4" d="M 295.6 116.5 Q 295.6 115.1, 296.3 114.3 Q 297.0 113.5, 298.3 113.5 Q 299.6 113.5, 300.3 114.3 Q 301.0 115.1, 301.0 116.5 Q 301.0 118.0, 300.3 118.8 Q 299.6 119.6, 298.3 119.6 Q 297.0 119.6, 296.3 118.8 Q 295.6 118.0, 295.6 116.5 M 298.3 118.9 Q 299.2 118.9, 299.7 118.3 Q 300.2 117.7, 300.2 116.5 Q 300.2 115.4, 299.7 114.8 Q 299.2 114.2, 298.3 114.2 Q 297.4 114.2, 296.9 114.8 Q 296.4 115.4, 296.4 116.5 Q 296.4 117.7, 296.9 118.3 Q 297.4 118.9, 298.3 118.9 " fill="#FF0000"/>
<path class="atom-4" d="M 302.0 113.6 L 302.8 113.6 L 302.8 116.1 L 305.8 116.1 L 305.8 113.6 L 306.6 113.6 L 306.6 119.5 L 305.8 119.5 L 305.8 116.8 L 302.8 116.8 L 302.8 119.5 L 302.0 119.5 L 302.0 113.6 " fill="#FF0000"/>
<path class="atom-6" d="M 316.7 65.4 Q 316.7 64.0, 317.4 63.2 Q 318.1 62.4, 319.4 62.4 Q 320.7 62.4, 321.5 63.2 Q 322.2 64.0, 322.2 65.4 Q 322.2 66.8, 321.4 67.7 Q 320.7 68.5, 319.4 68.5 Q 318.1 68.5, 317.4 67.7 Q 316.7 66.9, 316.7 65.4 M 319.4 67.8 Q 320.3 67.8, 320.8 67.2 Q 321.3 66.6, 321.3 65.4 Q 321.3 64.2, 320.8 63.7 Q 320.3 63.1, 319.4 63.1 Q 318.5 63.1, 318.0 63.7 Q 317.6 64.2, 317.6 65.4 Q 317.6 66.6, 318.0 67.2 Q 318.5 67.8, 319.4 67.8 " fill="#FF0000"/>
<path class="atom-6" d="M 323.1 62.5 L 323.9 62.5 L 323.9 65.0 L 326.9 65.0 L 326.9 62.5 L 327.7 62.5 L 327.7 68.4 L 326.9 68.4 L 326.9 65.7 L 323.9 65.7 L 323.9 68.4 L 323.1 68.4 L 323.1 62.5 " fill="#FF0000"/>
<path class="atom-8" d="M 351.6 88.4 Q 351.6 87.0, 352.4 86.2 Q 353.1 85.4, 354.4 85.4 Q 355.7 85.4, 356.4 86.2 Q 357.1 87.0, 357.1 88.4 Q 357.1 89.8, 356.4 90.6 Q 355.7 91.5, 354.4 91.5 Q 353.1 91.5, 352.4 90.6 Q 351.6 89.8, 351.6 88.4 M 354.4 90.8 Q 355.3 90.8, 355.8 90.2 Q 356.2 89.6, 356.2 88.4 Q 356.2 87.2, 355.8 86.6 Q 355.3 86.0, 354.4 86.0 Q 353.5 86.0, 353.0 86.6 Q 352.5 87.2, 352.5 88.4 Q 352.5 89.6, 353.0 90.2 Q 353.5 90.8, 354.4 90.8 " fill="#FF0000"/>
<path class="atom-8" d="M 358.0 85.4 L 358.8 85.4 L 358.8 88.0 L 361.8 88.0 L 361.8 85.4 L 362.6 85.4 L 362.6 91.4 L 361.8 91.4 L 361.8 88.6 L 358.8 88.6 L 358.8 91.4 L 358.0 91.4 L 358.0 85.4 " fill="#FF0000"/>
<path class="legend" d="M 301.7 184.0 Q 302.7 184.4, 303.3 185.0 Q 303.8 185.7, 303.8 186.7 Q 303.8 188.2, 302.8 189.1 Q 301.8 190.0, 300.0 190.0 L 296.2 190.0 L 296.2 178.7 L 299.5 178.7 Q 301.4 178.7, 302.4 179.5 Q 303.4 180.2, 303.4 181.7 Q 303.4 183.4, 301.7 184.0 M 297.7 180.0 L 297.7 183.5 L 299.5 183.5 Q 300.6 183.5, 301.2 183.1 Q 301.8 182.6, 301.8 181.7 Q 301.8 180.0, 299.5 180.0 L 297.7 180.0 M 300.0 188.7 Q 301.1 188.7, 301.7 188.2 Q 302.2 187.7, 302.2 186.7 Q 302.2 185.7, 301.6 185.3 Q 301.0 184.8, 299.7 184.8 L 297.7 184.8 L 297.7 188.7 L 300.0 188.7 " fill="#000000"/>
<path class="bond-0 atom-0 atom-1" d="M 463.8,96.2 L 481.9,85.8" style="fill:none;fill-rule:evenodd;stroke:#000000;stroke-width:2.0px;stroke-linecap:butt;stroke-linejoin:miter;stroke-opacity:1"/>
<path class="bond-1 atom-1 atom-2" d="M 481.9,85.8 L 500.0,96.2" style="fill:none;fill-rule:evenodd;stroke:#000000;stroke-width:2.0px;stroke-linecap:butt;stroke-linejoin:miter;stroke-opacity:1"/>
<path class="bond-2 atom-2 atom-3" d="M 500.0,96.2 L 518.1,85.8" style="fill:none;fill-rule:evenodd;stroke:#000000;stroke-width:2.0px;stroke-linecap:butt;stroke-linejoin:miter;stroke-opacity:1"/>
<path class="bond-3 atom-3 atom-4" d="M 518.1,85.8 L 536.2,96.2" style="fill:none;fill-rule:evenodd;stroke:#000000;stroke-width:2.0px;stroke-linecap:butt;stroke-linejoin:miter;stroke-opacity:1"/>
<path d="M 481.0,86.3 L 481.9,85.8 L 482.8,86.3" style="fill:none;stroke:#000000;stroke-width:2.0px;stroke-linecap:butt;stroke-linejoin:miter;stroke-opacity:1;"/>
<path d="M 499.1,95.7 L 500.0,96.2 L 500.9,95.7" style="fill:none;stroke:#000000;stroke-width:2.0px;stroke-linecap:butt;stroke-linejoin:miter;stroke-opacity:1;"/>
<path d="M 517.2,86.3 L 518.1,85.8 L 519.0,86.3" style="fill:none;stroke:#000000;stroke-width:2.0px;stroke-linecap:butt;stroke-linejoin:miter;stroke-opacity:1;"/>
<path class="legend" d="M 495.6 184.2 Q 495.6 181.4, 496.9 179.9 Q 498.3 178.4, 500.8 178.4 Q 503.1 178.4, 504.4 180.0 L 503.3 180.9 Q 502.4 179.7, 500.8 179.7 Q 499.1 179.7, 498.2 180.9 Q 497.3 182.0, 497.3 184.2 Q 497.3 186.4, 498.2 187.6 Q 499.1 188.7, 501.0 188.7 Q 502.2 188.7, 503.7 188.0 L 504.1 189.2 Q 503.5 189.6, 502.6 189.8 Q 501.7 190.0, 500.7 190.0 Q 498.3 190.0, 496.9 188.5 Q 495.6 187.0, 495.6 184.2 " fill="#000000"/>
</svg>