<svg xmlns="http://www.w3.org/2000/svg" xmlns:rdkit="http://www.rdkit.org/xml" xmlns:xlink="http://www.w3.org/1999/xlink" version="1.1" baseProfile="full" xml:space="preserve" width="800px" height="200px" viewBox="0 0 800 200">
<!-- END OF HEADER -->
<rect style="opacity:1.0;fill:#FFFFFF;stroke:none" width="800.0" height="200.0" x="0.0" y="0.0"> </rect>
<path class="bond-0 atom-0 atom-1" d="M 113.3,77.4 L 106.1,89.9" style="fill:none;fill-rule:evenodd;stroke:#000000;stroke-width:2.0px;stroke-linecap:butt;stroke-linejoin:miter;stroke-opacity:1"/>
<path class="bond-1 atom-1 atom-2" d="M 106.1,89.9 L 109.0,94.9" style="fill:none;fill-rule:evenodd;stroke:#000000;stroke-width:2.0px;stroke-linecap:butt;stroke-linejoin:miter;stroke-opacity:1"/>
<path class="bond-1 atom-1 atom-2" d="M 109.0,94.9 L 111.8,99.9" style="fill:none;fill-rule:evenodd;stroke:#0000FF;stroke-width:2.0px;stroke-linecap:butt;stroke-linejoin:miter;stroke-opacity:1"/>
<path class="bond-2 atom-1 atom-3" d="M 106.1,89.9 L 91.6,90.0" style="fill:none;fill-rule:evenodd;stroke:#000000;stroke-width:2.0px;stroke-linecap:butt;stroke-linejoin:miter;stroke-opacity:1"/>
<path class="bond-3 atom-3 atom-4" d="M 92.9,90.0 L 89.9,84.8" style="fill:none;fill-rule:evenodd;stroke:#000000;stroke-width:2.0px;stroke-linecap:butt;stroke-linejoin:miter;stroke-opacity:1"/>
<path class="bond-3 atom-3 atom-4" d="M 89.9,84.8 L 86.9,79.6" style="fill:none;fill-rule:evenodd;stroke:#FF0000;stroke-width:2.0px;stroke-linecap:butt;stroke-linejoin:miter;stroke-opacity:1"/>
<path class="bond-3 atom-3 atom-4" d="M 91.0,91.0 L 88.0,85.8" style="fill:none;fill-rule:evenodd;stroke:#000000;stroke-width:2.0px;stroke-linecap:butt;stroke-linejoin:miter;stroke-opacity:1"/>
<path class="bond-3 atom-3 atom-4" d="M 88.0,85.8 L 85.0,80.6" style="fill:none;fill-rule:evenodd;stroke:#FF0000;stroke-width:2.0px;stroke-linecap:butt;stroke-linejoin:miter;stroke-opacity:1"/>
<path class="bond-4 atom-3 atom-5" d="M 91.6,90.0 L 88.7,94.9" style="fill:none;fill-rule:evenodd;stroke:#000000;stroke-width:2.0px;stroke-linecap:butt;stroke-linejoin:miter;stroke-opacity:1"/>
<path class="bond-4 atom-3 atom-5" d="M 88.7,94.9 L 85.9,99.9" style="fill:none;fill-rule:evenodd;stroke:#FF0000;stroke-width:2.0px;stroke-linecap:butt;stroke-linejoin:miter;stroke-opacity:1"/>
<path d="M 92.3,90.0 L 91.6,90.0 L 91.5,90.2" style="fill:none;stroke:#000000;stroke-width:2.0px;stroke-linecap:butt;stroke-linejoin:miter;stroke-opacity:1;"/>
<path class="atom-2" d="M 112.4 100.4 L 113.8 102.6 Q 113.9 102.8, 114.1 103.2 Q 114.4 103.6, 114.4 103.7 L 114.4 100.4 L 114.9 100.4 L 114.9 104.6 L 114.3 104.6 L 112.9 102.2 Q 112.7 101.9, 112.5 101.5 Q 112.3 101.2, 112.3 101.1 L 112.3 104.6 L 111.7 104.6 L 111.7 100.4 L 112.4 100.4 " fill="#0000FF"/>
<path class="atom-2" d="M 115.7 100.4 L 116.3 100.4 L 116.3 102.2 L 118.5 102.2 L 118.5 100.4 L 119.1 100.4 L 119.1 104.6 L 118.5 104.6 L 118.5 102.7 L 116.3 102.7 L 116.3 104.6 L 115.7 104.6 L 115.7 100.4 " fill="#0000FF"/>
<path class="atom-2" d="M 119.9 104.5 Q 120.0 104.2, 120.2 104.1 Q 120.5 103.9, 120.8 103.9 Q 121.3 103.9, 121.5 104.1 Q 121.7 104.4, 121.7 104.8 Q 121.7 105.2, 121.4 105.6 Q 121.1 106.0, 120.5 106.4 L 121.8 106.4 L 121.8 106.7 L 119.9 106.7 L 119.9 106.5 Q 120.4 106.1, 120.7 105.8 Q 121.0 105.5, 121.2 105.3 Q 121.3 105.0, 121.3 104.8 Q 121.3 104.5, 121.2 104.4 Q 121.1 104.2, 120.8 104.2 Q 120.6 104.2, 120.5 104.3 Q 120.3 104.4, 120.2 104.6 L 119.9 104.5 " fill="#0000FF"/>
<path class="atom-4" d="M 82.4 77.4 Q 82.4 76.4, 82.9 75.8 Q 83.4 75.3, 84.4 75.3 Q 85.3 75.3, 85.8 75.8 Q 86.3 76.4, 86.3 77.4 Q 86.3 78.5, 85.8 79.0 Q 85.3 79.6, 84.4 79.6 Q 83.4 79.6, 82.9 79.0 Q 82.4 78.5, 82.4 77.4 M 84.4 79.1 Q 85.0 79.1, 85.4 78.7 Q 85.7 78.3, 85.7 77.4 Q 85.7 76.6, 85.4 76.2 Q 85.0 75.7, 84.4 75.7 Q 83.7 75.7, 83.4 76.2 Q 83.0 76.6, 83.0 77.4 Q 83.0 78.3, 83.4 78.7 Q 83.7 79.1, 84.4 79.1 " fill="#FF0000"/>
<path class="atom-5" d="M 78.2 100.4 L 78.8 100.4 L 78.8 102.2 L 81.0 102.2 L 81.0 100.4 L 81.5 100.4 L 81.5 104.6 L 81.0 104.6 L 81.0 102.7 L 78.8 102.7 L 78.8 104.6 L 78.2 104.6 L 78.2 100.4 " fill="#FF0000"/>
<path class="atom-5" d="M 82.4 102.5 Q 82.4 101.5, 82.9 100.9 Q 83.4 100.3, 84.4 100.3 Q 85.3 100.3, 85.8 100.9 Q 86.3 101.5, 86.3 102.5 Q 86.3 103.5, 85.8 104.1 Q 85.3 104.7, 84.4 104.7 Q 83.4 104.7, 82.9 104.1 Q 82.4 103.5, 82.4 102.5 M 84.4 104.2 Q 85.0 104.2, 85.4 103.8 Q 85.7 103.4, 85.7 102.5 Q 85.7 101.7, 85.4 101.2 Q 85.0 100.8, 84.4 100.8 Q 83.7 100.8, 83.4 101.2 Q 83.0 101.7, 83.0 102.5 Q 83.0 103.4, 83.4 103.8 Q 83.7 104.2, 84.4 104.2 " fill="#FF0000"/>
<path class="legend" d="M 103.4 190.0 L 102.2 186.7 L 97.8 186.7 L 96.6 190.0 L 95.1 190.0 L 99.0 178.7 L 100.9 178.7 L 104.9 190.0 L 103.4 190.0 M 98.2 185.4 L 101.8 185.4 L 100.0 180.3 L 98.2 185.4 " fill="#000000"/>
<path class="bond-0 atom-0 atom-1" d="M 209.9,90.9 L 222.5,98.1" style="fill:none;fill-rule:evenodd;stroke:#000000;stroke-width:2.0px;stroke-linecap:butt;stroke-linejoin:miter;stroke-opacity:1"/>
<path class="bond-1 atom-1 atom-2" d="M 222.5,98.1 L 222.6,112.6" style="fill:none;fill-rule:evenodd;stroke:#000000;stroke-width:2.0px;stroke-linecap:butt;stroke-linejoin:miter;stroke-opacity:1"/>
<path class="bond-2 atom-1 atom-3" d="M 222.5,98.1 L 235.0,90.8" style="fill:none;fill-rule:evenodd;stroke:#000000;stroke-width:2.0px;stroke-linecap:butt;stroke-linejoin:miter;stroke-opacity:1"/>
<path class="bond-3 atom-3 atom-4" d="M 235.0,90.8 L 247.6,97.9" style="fill:none;fill-rule:evenodd;stroke:#000000;stroke-width:2.0px;stroke-linecap:butt;stroke-linejoin:miter;stroke-opacity:1"/>
<path class="bond-4 atom-4 atom-5" d="M 247.6,97.9 L 260.0,90.6" style="fill:none;fill-rule:evenodd;stroke:#000000;stroke-width:2.0px;stroke-linecap:butt;stroke-linejoin:miter;stroke-opacity:1"/>
<path class="bond-5 atom-5 atom-6" d="M 260.0,90.6 L 256.7,86.1" style="fill:none;fill-rule:evenodd;stroke:#000000;stroke-width:2.0px;stroke-linecap:butt;stroke-linejoin:miter;stroke-opacity:1"/>
<path class="bond-5 atom-5 atom-6" d="M 256.7,86.1 L 253.4,81.6" style="fill:none;fill-rule:evenodd;stroke:#FF0000;stroke-width:2.0px;stroke-linecap:butt;stroke-linejoin:miter;stroke-opacity:1"/>
<path class="bond-6 atom-5 atom-7" d="M 260.0,90.6 L 262.4,95.9" style="fill:none;fill-rule:evenodd;stroke:#000000;stroke-width:2.0px;stroke-linecap:butt;stroke-linejoin:miter;stroke-opacity:1"/>
<path class="bond-6 atom-5 atom-7" d="M 262.4,95.9 L 264.8,101.1" style="fill:none;fill-rule:evenodd;stroke:#FF0000;stroke-width:2.0px;stroke-linecap:butt;stroke-linejoin:miter;stroke-opacity:1"/>
<path class="bond-7 atom-7 atom-8" d="M 268.5,103.5 L 274.4,102.8" style="fill:none;fill-rule:evenodd;stroke:#FF0000;stroke-width:2.0px;stroke-linecap:butt;stroke-linejoin:miter;stroke-opacity:1"/>
<path class="bond-7 atom-7 atom-8" d="M 274.4,102.8 L 280.4,102.2" style="fill:none;fill-rule:evenodd;stroke:#000000;stroke-width:2.0px;stroke-linecap:butt;stroke-linejoin:miter;stroke-opacity:1"/>
<path class="bond-8 atom-8 atom-9" d="M 280.4,102.2 L 293.0,109.3" style="fill:none;fill-rule:evenodd;stroke:#000000;stroke-width:2.0px;stroke-linecap:butt;stroke-linejoin:miter;stroke-opacity:1"/>
<path class="bond-9 atom-9 atom-10" d="M 293.0,109.3 L 303.7,99.5" style="fill:none;fill-rule:evenodd;stroke:#000000;stroke-width:2.0px;stroke-linecap:butt;stroke-linejoin:miter;stroke-opacity:1"/>
<path class="bond-10 atom-10 atom-11" d="M 303.7,99.5 L 318.1,101.0" style="fill:none;fill-rule:evenodd;stroke:#000000;stroke-width:2.0px;stroke-linecap:butt;stroke-linejoin:miter;stroke-opacity:1"/>
<path class="bond-11 atom-11 atom-12" d="M 318.1,101.0 L 324.1,114.1" style="fill:none;fill-rule:evenodd;stroke:#000000;stroke-width:2.0px;stroke-linecap:butt;stroke-linejoin:miter;stroke-opacity:1"/>
<path class="bond-12 atom-12 atom-13" d="M 324.1,114.1 L 338.5,115.6" style="fill:none;fill-rule:evenodd;stroke:#000000;stroke-width:2.0px;stroke-linecap:butt;stroke-linejoin:miter;stroke-opacity:1"/>
<path class="bond-13 atom-13 atom-14" d="M 338.5,115.6 L 346.9,103.8" style="fill:none;fill-rule:evenodd;stroke:#000000;stroke-width:2.0px;stroke-linecap:butt;stroke-linejoin:miter;stroke-opacity:1"/>
<path class="bond-13 atom-13 atom-14" d="M 337.5,113.3 L 344.4,103.5" style="fill:none;fill-rule:evenodd;stroke:#000000;stroke-width:2.0px;stroke-linecap:butt;stroke-linejoin:miter;stroke-opacity:1"/>
<path class="bond-14 atom-14 atom-15" d="M 346.9,103.8 L 361.3,105.2" style="fill:none;fill-rule:evenodd;stroke:#000000;stroke-width:2.0px;stroke-linecap:butt;stroke-linejoin:miter;stroke-opacity:1"/>
<path class="bond-15 atom-15 atom-16" d="M 361.3,105.2 L 369.8,93.4" style="fill:none;fill-rule:evenodd;stroke:#000000;stroke-width:2.0px;stroke-linecap:butt;stroke-linejoin:miter;stroke-opacity:1"/>
<path class="bond-16 atom-16 atom-17" d="M 369.8,93.4 L 375.7,94.0" style="fill:none;fill-rule:evenodd;stroke:#000000;stroke-width:2.0px;stroke-linecap:butt;stroke-linejoin:miter;stroke-opacity:1"/>
<path class="bond-16 atom-16 atom-17" d="M 375.7,94.0 L 381.7,94.6" style="fill:none;fill-rule:evenodd;stroke:#FF0000;stroke-width:2.0px;stroke-linecap:butt;stroke-linejoin:miter;stroke-opacity:1"/>
<path class="bond-17 atom-16 atom-18" d="M 369.8,93.4 L 363.8,80.2" style="fill:none;fill-rule:evenodd;stroke:#000000;stroke-width:2.0px;stroke-linecap:butt;stroke-linejoin:miter;stroke-opacity:1"/>
<path class="bond-18 atom-18 atom-19" d="M 363.8,80.2 L 349.4,78.8" style="fill:none;fill-rule:evenodd;stroke:#000000;stroke-width:2.0px;stroke-linecap:butt;stroke-linejoin:miter;stroke-opacity:1"/>
<path class="bond-19 atom-19 atom-20" d="M 349.4,78.8 L 340.9,90.6" style="fill:none;fill-rule:evenodd;stroke:#000000;stroke-width:2.0px;stroke-linecap:butt;stroke-linejoin:miter;stroke-opacity:1"/>
<path class="bond-20 atom-20 atom-21" d="M 340.9,90.6 L 335.0,77.4" style="fill:none;fill-rule:evenodd;stroke:#000000;stroke-width:2.0px;stroke-linecap:butt;stroke-linejoin:miter;stroke-opacity:1"/>
<path class="bond-21 atom-20 atom-22" d="M 340.9,90.6 L 326.5,89.2" style="fill:none;fill-rule:evenodd;stroke:#000000;stroke-width:2.0px;stroke-linecap:butt;stroke-linejoin:miter;stroke-opacity:1"/>
<path class="bond-22 atom-22 atom-23" d="M 326.5,89.2 L 320.6,76.0" style="fill:none;fill-rule:evenodd;stroke:#000000;stroke-width:2.0px;stroke-linecap:butt;stroke-linejoin:miter;stroke-opacity:1"/>
<path class="bond-23 atom-23 atom-24" d="M 320.6,76.0 L 306.1,74.6" style="fill:none;fill-rule:evenodd;stroke:#000000;stroke-width:2.0px;stroke-linecap:butt;stroke-linejoin:miter;stroke-opacity:1"/>
<path class="bond-24 atom-24 atom-25" d="M 306.1,74.6 L 297.7,86.4" style="fill:none;fill-rule:evenodd;stroke:#000000;stroke-width:2.0px;stroke-linecap:butt;stroke-linejoin:miter;stroke-opacity:1"/>
<path class="bond-25 atom-25 atom-26" d="M 297.7,86.4 L 290.4,73.9" style="fill:none;fill-rule:evenodd;stroke:#000000;stroke-width:2.0px;stroke-linecap:butt;stroke-linejoin:miter;stroke-opacity:1"/>
<path class="bond-26 atom-25 atom-27" d="M 297.7,86.4 L 283.3,88.0" style="fill:none;fill-rule:evenodd;stroke:#000000;stroke-width:2.0px;stroke-linecap:butt;stroke-linejoin:miter;stroke-opacity:1"/>
<path class="bond-27 atom-27 atom-28" d="M 283.3,88.0 L 270.7,80.8" style="fill:none;fill-rule:evenodd;stroke:#000000;stroke-width:2.0px;stroke-linecap:butt;stroke-linejoin:miter;stroke-opacity:1"/>
<path class="bond-28 atom-28 atom-29" d="M 270.7,80.8 L 269.1,66.4" style="fill:none;fill-rule:evenodd;stroke:#000000;stroke-width:2.0px;stroke-linecap:butt;stroke-linejoin:miter;stroke-opacity:1"/>
<path class="bond-29 atom-28 atom-5" d="M 270.7,80.8 L 260.0,90.6" style="fill:none;fill-rule:evenodd;stroke:#000000;stroke-width:2.0px;stroke-linecap:butt;stroke-linejoin:miter;stroke-opacity:1"/>
<path class="bond-30 atom-27 atom-8" d="M 283.3,88.0 L 280.4,102.2" style="fill:none;fill-rule:evenodd;stroke:#000000;stroke-width:2.0px;stroke-linecap:butt;stroke-linejoin:miter;stroke-opacity:1"/>
<path class="bond-31 atom-25 atom-10" d="M 297.7,86.4 L 303.7,99.5" style="fill:none;fill-rule:evenodd;stroke:#000000;stroke-width:2.0px;stroke-linecap:butt;stroke-linejoin:miter;stroke-opacity:1"/>
<path class="bond-32 atom-22 atom-11" d="M 326.5,89.2 L 318.1,101.0" style="fill:none;fill-rule:evenodd;stroke:#000000;stroke-width:2.0px;stroke-linecap:butt;stroke-linejoin:miter;stroke-opacity:1"/>
<path class="bond-33 atom-20 atom-14" d="M 340.9,90.6 L 346.9,103.8" style="fill:none;fill-rule:evenodd;stroke:#000000;stroke-width:2.0px;stroke-linecap:butt;stroke-linejoin:miter;stroke-opacity:1"/>
<path d="M 234.3,91.1 L 235.0,90.8 L 235.6,91.1" style="fill:none;stroke:#000000;stroke-width:2.0px;stroke-linecap:butt;stroke-linejoin:miter;stroke-opacity:1;"/>
<path d="M 246.9,97.6 L 247.6,97.9 L 248.2,97.5" style="fill:none;stroke:#000000;stroke-width:2.0px;stroke-linecap:butt;stroke-linejoin:miter;stroke-opacity:1;"/>
<path d="M 292.4,109.0 L 293.0,109.3 L 293.5,108.8" style="fill:none;stroke:#000000;stroke-width:2.0px;stroke-linecap:butt;stroke-linejoin:miter;stroke-opacity:1;"/>
<path d="M 323.8,113.5 L 324.1,114.1 L 324.8,114.2" style="fill:none;stroke:#000000;stroke-width:2.0px;stroke-linecap:butt;stroke-linejoin:miter;stroke-opacity:1;"/>
<path d="M 337.8,115.5 L 338.5,115.6 L 338.9,115.0" style="fill:none;stroke:#000000;stroke-width:2.0px;stroke-linecap:butt;stroke-linejoin:miter;stroke-opacity:1;"/>
<path d="M 360.6,105.1 L 361.3,105.2 L 361.8,104.6" style="fill:none;stroke:#000000;stroke-width:2.0px;stroke-linecap:butt;stroke-linejoin:miter;stroke-opacity:1;"/>
<path d="M 364.1,80.9 L 363.8,80.2 L 363.1,80.2" style="fill:none;stroke:#000000;stroke-width:2.0px;stroke-linecap:butt;stroke-linejoin:miter;stroke-opacity:1;"/>
<path d="M 350.1,78.9 L 349.4,78.8 L 348.9,79.4" style="fill:none;stroke:#000000;stroke-width:2.0px;stroke-linecap:butt;stroke-linejoin:miter;stroke-opacity:1;"/>
<path d="M 320.9,76.7 L 320.6,76.0 L 319.8,75.9" style="fill:none;stroke:#000000;stroke-width:2.0px;stroke-linecap:butt;stroke-linejoin:miter;stroke-opacity:1;"/>
<path d="M 306.9,74.7 L 306.1,74.6 L 305.7,75.2" style="fill:none;stroke:#000000;stroke-width:2.0px;stroke-linecap:butt;stroke-linejoin:miter;stroke-opacity:1;"/>
<path class="atom-6" d="M 245.3 76.8 L 245.9 76.8 L 245.9 78.6 L 248.1 78.6 L 248.1 76.8 L 248.6 76.8 L 248.6 81.1 L 248.1 81.1 L 248.1 79.1 L 245.9 79.1 L 245.9 81.1 L 245.3 81.1 L 245.3 76.8 " fill="#FF0000"/>
<path class="atom-6" d="M 249.5 78.9 Q 249.5 77.9, 250.0 77.4 Q 250.5 76.8, 251.5 76.8 Q 252.4 76.8, 252.9 77.4 Q 253.4 77.9, 253.4 78.9 Q 253.4 80.0, 252.9 80.6 Q 252.4 81.1, 251.5 81.1 Q 250.5 81.1, 250.0 80.6 Q 249.5 80.0, 249.5 78.9 M 251.5 80.7 Q 252.1 80.7, 252.5 80.2 Q 252.8 79.8, 252.8 78.9 Q 252.8 78.1, 252.5 77.7 Q 252.1 77.3, 251.5 77.3 Q 250.8 77.3, 250.5 77.7 Q 250.1 78.1, 250.1 78.9 Q 250.1 79.8, 250.5 80.2 Q 250.8 80.7, 251.5 80.7 " fill="#FF0000"/>
<path class="atom-7" d="M 264.1 103.8 Q 264.1 102.8, 264.6 102.2 Q 265.1 101.6, 266.0 101.6 Q 267.0 101.6, 267.5 102.2 Q 268.0 102.8, 268.0 103.8 Q 268.0 104.8, 267.5 105.4 Q 267.0 106.0, 266.0 106.0 Q 265.1 106.0, 264.6 105.4 Q 264.1 104.8, 264.1 103.8 M 266.0 105.5 Q 266.7 105.5, 267.0 105.1 Q 267.4 104.6, 267.4 103.8 Q 267.4 103.0, 267.0 102.5 Q 266.7 102.1, 266.0 102.1 Q 265.4 102.1, 265.0 102.5 Q 264.7 102.9, 264.7 103.8 Q 264.7 104.6, 265.0 105.1 Q 265.4 105.5, 266.0 105.5 " fill="#FF0000"/>
<path class="atom-17" d="M 382.2 94.9 Q 382.2 93.8, 382.7 93.3 Q 383.2 92.7, 384.2 92.7 Q 385.1 92.7, 385.6 93.3 Q 386.1 93.8, 386.1 94.9 Q 386.1 95.9, 385.6 96.5 Q 385.1 97.1, 384.2 97.1 Q 383.2 97.1, 382.7 96.5 Q 382.2 95.9, 382.2 94.9 M 384.2 96.6 Q 384.8 96.6, 385.2 96.1 Q 385.5 95.7, 385.5 94.9 Q 385.5 94.0, 385.2 93.6 Q 384.8 93.2, 384.2 93.2 Q 383.5 93.2, 383.2 93.6 Q 382.8 94.0, 382.8 94.9 Q 382.8 95.7, 383.2 96.1 Q 383.5 96.6, 384.2 96.6 " fill="#FF0000"/>
<path class="atom-17" d="M 386.8 92.7 L 387.4 92.7 L 387.4 94.5 L 389.5 94.5 L 389.5 92.7 L 390.1 92.7 L 390.1 97.0 L 389.5 97.0 L 389.5 95.0 L 387.4 95.0 L 387.4 97.0 L 386.8 97.0 L 386.8 92.7 " fill="#FF0000"/>
<path class="legend" d="M 301.7 184.0 Q 302.7 184.4, 303.3 185.0 Q 303.8 185.7, 303.8 186.7 Q 303.8 188.2, 302.8 189.1 Q 301.8 190.0, 300.0 190.0 L 296.2 190.0 L 296.2 178.7 L 299.5 178.7 Q 301.4 178.7, 302.4 179.5 Q 303.4 180.2, 303.4 181.7 Q 303.4 183.4, 301.7 184.0 M 297.7 180.0 L 297.7 183.5 L 299.5 183.5 Q 300.6 183.5, 301.2 183.1 Q 301.8 182.6, 301.8 181.7 Q 301.8 180.0, 299.5 180.0 L 297.7 180.0 M 300.0 188.7 Q 301.1 188.7, 301.7 188.2 Q 302.2 187.7, 302.2 186.7 Q 302.2 185.7, 301.6 185.3 Q 301.0 184.8, 299.7 184.8 L 297.7 184.8 L 297.7 188.7 L 300.0 188.7 " fill="#000000"/>
</svg>