<svg xmlns="http://www.w3.org/2000/svg" xmlns:rdkit="http://www.rdkit.org/xml" xmlns:xlink="http://www.w3.org/1999/xlink" version="1.1" baseProfile="full" xml:space="preserve" width="800px" height="400px" viewBox="0 0 800 400">
<!-- END OF HEADER -->
<rect style="opacity:1.0;fill:#FFFFFF;stroke:none" width="800.0" height="400.0" x="0.0" y="0.0"> </rect>
<path class="bond-0 atom-0 atom-1" d="M 69.4,92.8 L 88.0,84.9" style="fill:none;fill-rule:evenodd;stroke:#000000;stroke-width:2.0px;stroke-linecap:butt;stroke-linejoin:miter;stroke-opacity:1"/>
<path class="bond-1 atom-1 atom-2" d="M 88.0,84.9 L 104.1,97.1" style="fill:none;fill-rule:evenodd;stroke:#000000;stroke-width:2.0px;stroke-linecap:butt;stroke-linejoin:miter;stroke-opacity:1"/>
<path class="bond-2 atom-2 atom-3" d="M 104.1,97.1 L 111.7,93.8" style="fill:none;fill-rule:evenodd;stroke:#000000;stroke-width:2.0px;stroke-linecap:butt;stroke-linejoin:miter;stroke-opacity:1"/>
<path class="bond-2 atom-2 atom-3" d="M 111.7,93.8 L 119.3,90.6" style="fill:none;fill-rule:evenodd;stroke:#FF0000;stroke-width:2.0px;stroke-linecap:butt;stroke-linejoin:miter;stroke-opacity:1"/>
<path d="M 87.0,85.3 L 88.0,84.9 L 88.8,85.5" style="fill:none;stroke:#000000;stroke-width:2.0px;stroke-linecap:butt;stroke-linejoin:miter;stroke-opacity:1;"/>
<path d="M 103.3,96.5 L 104.1,97.1 L 104.4,96.9" style="fill:none;stroke:#000000;stroke-width:2.0px;stroke-linecap:butt;stroke-linejoin:miter;stroke-opacity:1;"/>
<path class="atom-3" d="M 120.0 89.2 Q 120.0 87.8, 120.7 87.0 Q 121.4 86.3, 122.6 86.3 Q 123.9 86.3, 124.6 87.0 Q 125.2 87.8, 125.2 89.2 Q 125.2 90.6, 124.6 91.4 Q 123.9 92.1, 122.6 92.1 Q 121.4 92.1, 120.7 91.4 Q 120.0 90.6, 120.0 89.2 M 122.6 91.5 Q 123.5 91.5, 124.0 90.9 Q 124.4 90.3, 124.4 89.2 Q 124.4 88.1, 124.0 87.5 Q 123.5 86.9, 122.6 86.9 Q 121.7 86.9, 121.3 87.5 Q 120.8 88.1, 120.8 89.2 Q 120.8 90.3, 121.3 90.9 Q 121.7 91.5, 122.6 91.5 " fill="#FF0000"/>
<path class="atom-3" d="M 126.1 86.3 L 126.9 86.3 L 126.9 88.8 L 129.8 88.8 L 129.8 86.3 L 130.6 86.3 L 130.6 92.1 L 129.8 92.1 L 129.8 89.4 L 126.9 89.4 L 126.9 92.1 L 126.1 92.1 L 126.1 86.3 " fill="#FF0000"/>
<path class="legend" d="M 103.4 190.0 L 102.2 186.7 L 97.8 186.7 L 96.6 190.0 L 95.1 190.0 L 99.0 178.7 L 100.9 178.7 L 104.9 190.0 L 103.4 190.0 M 98.2 185.4 L 101.8 185.4 L 100.0 180.3 L 98.2 185.4 " fill="#000000"/>
<path class="bond-0 atom-0 atom-1" d="M 334.0,129.2 L 330.8,121.2" style="fill:none;fill-rule:evenodd;stroke:#FF0000;stroke-width:2.0px;stroke-linecap:butt;stroke-linejoin:miter;stroke-opacity:1"/>
<path class="bond-0 atom-0 atom-1" d="M 330.8,121.2 L 327.5,113.3" style="fill:none;fill-rule:evenodd;stroke:#000000;stroke-width:2.0px;stroke-linecap:butt;stroke-linejoin:miter;stroke-opacity:1"/>
<path class="bond-0 atom-0 atom-1" d="M 336.8,128.0 L 333.6,120.1" style="fill:none;fill-rule:evenodd;stroke:#FF0000;stroke-width:2.0px;stroke-linecap:butt;stroke-linejoin:miter;stroke-opacity:1"/>
<path class="bond-0 atom-0 atom-1" d="M 333.6,120.1 L 330.3,112.1" style="fill:none;fill-rule:evenodd;stroke:#000000;stroke-width:2.0px;stroke-linecap:butt;stroke-linejoin:miter;stroke-opacity:1"/>
<path class="bond-1 atom-1 atom-2" d="M 329.2,113.5 L 309.3,110.8" style="fill:none;fill-rule:evenodd;stroke:#000000;stroke-width:2.0px;stroke-linecap:butt;stroke-linejoin:miter;stroke-opacity:1"/>
<path class="bond-2 atom-2 atom-3" d="M 309.3,110.8 L 301.6,92.2" style="fill:none;fill-rule:evenodd;stroke:#000000;stroke-width:2.0px;stroke-linecap:butt;stroke-linejoin:miter;stroke-opacity:1"/>
<path class="bond-2 atom-2 atom-3" d="M 311.4,108.0 L 305.1,92.6" style="fill:none;fill-rule:evenodd;stroke:#000000;stroke-width:2.0px;stroke-linecap:butt;stroke-linejoin:miter;stroke-opacity:1"/>
<path class="bond-3 atom-3 atom-4" d="M 301.6,92.2 L 281.6,89.4" style="fill:none;fill-rule:evenodd;stroke:#000000;stroke-width:2.0px;stroke-linecap:butt;stroke-linejoin:miter;stroke-opacity:1"/>
<path class="bond-4 atom-4 atom-5" d="M 281.6,89.4 L 274.0,70.8" style="fill:none;fill-rule:evenodd;stroke:#000000;stroke-width:2.0px;stroke-linecap:butt;stroke-linejoin:miter;stroke-opacity:1"/>
<path class="bond-4 atom-4 atom-5" d="M 278.2,89.0 L 271.9,73.5" style="fill:none;fill-rule:evenodd;stroke:#000000;stroke-width:2.0px;stroke-linecap:butt;stroke-linejoin:miter;stroke-opacity:1"/>
<path class="bond-5 atom-5 atom-6" d="M 274.0,70.8 L 254.0,68.1" style="fill:none;fill-rule:evenodd;stroke:#000000;stroke-width:2.0px;stroke-linecap:butt;stroke-linejoin:miter;stroke-opacity:1"/>
<path class="bond-6 atom-6 atom-7" d="M 254.0,68.1 L 241.7,84.0" style="fill:none;fill-rule:evenodd;stroke:#000000;stroke-width:2.0px;stroke-linecap:butt;stroke-linejoin:miter;stroke-opacity:1"/>
<path class="bond-6 atom-6 atom-7" d="M 255.3,71.3 L 245.1,84.5" style="fill:none;fill-rule:evenodd;stroke:#000000;stroke-width:2.0px;stroke-linecap:butt;stroke-linejoin:miter;stroke-opacity:1"/>
<path class="bond-7 atom-7 atom-8" d="M 241.7,84.0 L 233.3,82.9" style="fill:none;fill-rule:evenodd;stroke:#000000;stroke-width:2.0px;stroke-linecap:butt;stroke-linejoin:miter;stroke-opacity:1"/>
<path class="bond-7 atom-7 atom-8" d="M 233.3,82.9 L 225.0,81.8" style="fill:none;fill-rule:evenodd;stroke:#FF0000;stroke-width:2.0px;stroke-linecap:butt;stroke-linejoin:miter;stroke-opacity:1"/>
<path class="bond-8 atom-7 atom-9" d="M 241.7,84.0 L 249.3,102.7" style="fill:none;fill-rule:evenodd;stroke:#000000;stroke-width:2.0px;stroke-linecap:butt;stroke-linejoin:miter;stroke-opacity:1"/>
<path class="bond-9 atom-9 atom-10" d="M 249.3,102.7 L 269.3,105.4" style="fill:none;fill-rule:evenodd;stroke:#000000;stroke-width:2.0px;stroke-linecap:butt;stroke-linejoin:miter;stroke-opacity:1"/>
<path class="bond-9 atom-9 atom-10" d="M 251.5,99.9 L 268.0,102.2" style="fill:none;fill-rule:evenodd;stroke:#000000;stroke-width:2.0px;stroke-linecap:butt;stroke-linejoin:miter;stroke-opacity:1"/>
<path class="bond-10 atom-3 atom-11" d="M 301.6,92.2 L 306.4,86.0" style="fill:none;fill-rule:evenodd;stroke:#000000;stroke-width:2.0px;stroke-linecap:butt;stroke-linejoin:miter;stroke-opacity:1"/>
<path class="bond-10 atom-3 atom-11" d="M 306.4,86.0 L 311.1,79.8" style="fill:none;fill-rule:evenodd;stroke:#FF0000;stroke-width:2.0px;stroke-linecap:butt;stroke-linejoin:miter;stroke-opacity:1"/>
<path class="bond-11 atom-11 atom-12" d="M 317.2,76.7 L 325.6,77.8" style="fill:none;fill-rule:evenodd;stroke:#FF0000;stroke-width:2.0px;stroke-linecap:butt;stroke-linejoin:miter;stroke-opacity:1"/>
<path class="bond-11 atom-11 atom-12" d="M 325.6,77.8 L 333.9,78.9" style="fill:none;fill-rule:evenodd;stroke:#000000;stroke-width:2.0px;stroke-linecap:butt;stroke-linejoin:miter;stroke-opacity:1"/>
<path class="bond-12 atom-12 atom-13" d="M 333.9,78.9 L 346.3,63.0" style="fill:none;fill-rule:evenodd;stroke:#000000;stroke-width:2.0px;stroke-linecap:butt;stroke-linejoin:miter;stroke-opacity:1"/>
<path class="bond-12 atom-12 atom-13" d="M 337.4,79.4 L 347.6,66.2" style="fill:none;fill-rule:evenodd;stroke:#000000;stroke-width:2.0px;stroke-linecap:butt;stroke-linejoin:miter;stroke-opacity:1"/>
<path class="bond-13 atom-13 atom-14" d="M 346.3,63.0 L 366.2,65.7" style="fill:none;fill-rule:evenodd;stroke:#000000;stroke-width:2.0px;stroke-linecap:butt;stroke-linejoin:miter;stroke-opacity:1"/>
<path class="bond-14 atom-14 atom-15" d="M 366.2,65.7 L 371.0,59.5" style="fill:none;fill-rule:evenodd;stroke:#000000;stroke-width:2.0px;stroke-linecap:butt;stroke-linejoin:miter;stroke-opacity:1"/>
<path class="bond-14 atom-14 atom-15" d="M 371.0,59.5 L 375.8,53.4" style="fill:none;fill-rule:evenodd;stroke:#FF0000;stroke-width:2.0px;stroke-linecap:butt;stroke-linejoin:miter;stroke-opacity:1"/>
<path class="bond-15 atom-14 atom-16" d="M 366.2,65.7 L 373.9,84.3" style="fill:none;fill-rule:evenodd;stroke:#000000;stroke-width:2.0px;stroke-linecap:butt;stroke-linejoin:miter;stroke-opacity:1"/>
<path class="bond-15 atom-14 atom-16" d="M 364.1,68.4 L 370.4,83.9" style="fill:none;fill-rule:evenodd;stroke:#000000;stroke-width:2.0px;stroke-linecap:butt;stroke-linejoin:miter;stroke-opacity:1"/>
<path class="bond-16 atom-16 atom-17" d="M 373.9,84.3 L 361.5,100.3" style="fill:none;fill-rule:evenodd;stroke:#000000;stroke-width:2.0px;stroke-linecap:butt;stroke-linejoin:miter;stroke-opacity:1"/>
<path class="bond-17 atom-17 atom-18" d="M 361.5,100.3 L 364.6,107.8" style="fill:none;fill-rule:evenodd;stroke:#000000;stroke-width:2.0px;stroke-linecap:butt;stroke-linejoin:miter;stroke-opacity:1"/>
<path class="bond-17 atom-17 atom-18" d="M 364.6,107.8 L 367.7,115.4" style="fill:none;fill-rule:evenodd;stroke:#FF0000;stroke-width:2.0px;stroke-linecap:butt;stroke-linejoin:miter;stroke-opacity:1"/>
<path class="bond-18 atom-17 atom-19" d="M 361.5,100.3 L 341.6,97.6" style="fill:none;fill-rule:evenodd;stroke:#000000;stroke-width:2.0px;stroke-linecap:butt;stroke-linejoin:miter;stroke-opacity:1"/>
<path class="bond-18 atom-17 atom-19" d="M 360.2,97.1 L 343.7,94.8" style="fill:none;fill-rule:evenodd;stroke:#000000;stroke-width:2.0px;stroke-linecap:butt;stroke-linejoin:miter;stroke-opacity:1"/>
<path class="bond-19 atom-19 atom-1" d="M 341.6,97.6 L 329.2,113.5" style="fill:none;fill-rule:evenodd;stroke:#000000;stroke-width:2.0px;stroke-linecap:butt;stroke-linejoin:miter;stroke-opacity:1"/>
<path class="bond-20 atom-10 atom-4" d="M 269.3,105.4 L 281.6,89.4" style="fill:none;fill-rule:evenodd;stroke:#000000;stroke-width:2.0px;stroke-linecap:butt;stroke-linejoin:miter;stroke-opacity:1"/>
<path class="bond-21 atom-19 atom-12" d="M 341.6,97.6 L 333.9,78.9" style="fill:none;fill-rule:evenodd;stroke:#000000;stroke-width:2.0px;stroke-linecap:butt;stroke-linejoin:miter;stroke-opacity:1"/>
<path d="M 328.2,113.4 L 329.2,113.5 L 329.8,112.7" style="fill:none;stroke:#000000;stroke-width:2.0px;stroke-linecap:butt;stroke-linejoin:miter;stroke-opacity:1;"/>
<path d="M 310.3,110.9 L 309.3,110.8 L 308.9,109.9" style="fill:none;stroke:#000000;stroke-width:2.0px;stroke-linecap:butt;stroke-linejoin:miter;stroke-opacity:1;"/>
<path d="M 274.4,71.7 L 274.0,70.8 L 273.0,70.7" style="fill:none;stroke:#000000;stroke-width:2.0px;stroke-linecap:butt;stroke-linejoin:miter;stroke-opacity:1;"/>
<path d="M 255.0,68.2 L 254.0,68.1 L 253.4,68.9" style="fill:none;stroke:#000000;stroke-width:2.0px;stroke-linecap:butt;stroke-linejoin:miter;stroke-opacity:1;"/>
<path d="M 248.9,101.7 L 249.3,102.7 L 250.3,102.8" style="fill:none;stroke:#000000;stroke-width:2.0px;stroke-linecap:butt;stroke-linejoin:miter;stroke-opacity:1;"/>
<path d="M 268.3,105.3 L 269.3,105.4 L 269.9,104.6" style="fill:none;stroke:#000000;stroke-width:2.0px;stroke-linecap:butt;stroke-linejoin:miter;stroke-opacity:1;"/>
<path d="M 345.6,63.8 L 346.3,63.0 L 347.3,63.1" style="fill:none;stroke:#000000;stroke-width:2.0px;stroke-linecap:butt;stroke-linejoin:miter;stroke-opacity:1;"/>
<path d="M 373.5,83.4 L 373.9,84.3 L 373.3,85.1" style="fill:none;stroke:#000000;stroke-width:2.0px;stroke-linecap:butt;stroke-linejoin:miter;stroke-opacity:1;"/>
<path class="atom-0" d="M 334.3 132.2 Q 334.3 130.8, 334.9 130.1 Q 335.6 129.3, 336.9 129.3 Q 338.1 129.3, 338.8 130.1 Q 339.5 130.8, 339.5 132.2 Q 339.5 133.6, 338.8 134.4 Q 338.1 135.1, 336.9 135.1 Q 335.6 135.1, 334.9 134.4 Q 334.3 133.6, 334.3 132.2 M 336.9 134.5 Q 337.7 134.5, 338.2 133.9 Q 338.7 133.3, 338.7 132.2 Q 338.7 131.1, 338.2 130.5 Q 337.7 129.9, 336.9 129.9 Q 336.0 129.9, 335.5 130.5 Q 335.1 131.1, 335.1 132.2 Q 335.1 133.3, 335.5 133.9 Q 336.0 134.5, 336.9 134.5 " fill="#FF0000"/>
<path class="atom-8" d="M 213.4 78.5 L 214.2 78.5 L 214.2 80.9 L 217.1 80.9 L 217.1 78.5 L 217.9 78.5 L 217.9 84.2 L 217.1 84.2 L 217.1 81.6 L 214.2 81.6 L 214.2 84.2 L 213.4 84.2 L 213.4 78.5 " fill="#FF0000"/>
<path class="atom-8" d="M 219.1 81.3 Q 219.1 80.0, 219.8 79.2 Q 220.4 78.4, 221.7 78.4 Q 223.0 78.4, 223.7 79.2 Q 224.3 80.0, 224.3 81.3 Q 224.3 82.7, 223.6 83.5 Q 223.0 84.3, 221.7 84.3 Q 220.5 84.3, 219.8 83.5 Q 219.1 82.7, 219.1 81.3 M 221.7 83.6 Q 222.6 83.6, 223.0 83.1 Q 223.5 82.5, 223.5 81.3 Q 223.5 80.2, 223.0 79.6 Q 222.6 79.1, 221.7 79.1 Q 220.8 79.1, 220.4 79.6 Q 219.9 80.2, 219.9 81.3 Q 219.9 82.5, 220.4 83.1 Q 220.8 83.6, 221.7 83.6 " fill="#FF0000"/>
<path class="atom-11" d="M 311.3 76.2 Q 311.3 74.9, 312.0 74.1 Q 312.7 73.3, 313.9 73.3 Q 315.2 73.3, 315.9 74.1 Q 316.6 74.9, 316.6 76.2 Q 316.6 77.6, 315.9 78.4 Q 315.2 79.2, 313.9 79.2 Q 312.7 79.2, 312.0 78.4 Q 311.3 77.6, 311.3 76.2 M 313.9 78.5 Q 314.8 78.5, 315.3 78.0 Q 315.8 77.4, 315.8 76.2 Q 315.8 75.1, 315.3 74.5 Q 314.8 74.0, 313.9 74.0 Q 313.1 74.0, 312.6 74.5 Q 312.1 75.1, 312.1 76.2 Q 312.1 77.4, 312.6 78.0 Q 313.1 78.5, 313.9 78.5 " fill="#FF0000"/>
<path class="atom-15" d="M 376.0 49.8 Q 376.0 48.4, 376.6 47.6 Q 377.3 46.9, 378.6 46.9 Q 379.8 46.9, 380.5 47.6 Q 381.2 48.4, 381.2 49.8 Q 381.2 51.1, 380.5 51.9 Q 379.8 52.7, 378.6 52.7 Q 377.3 52.7, 376.6 51.9 Q 376.0 51.1, 376.0 49.8 M 378.6 52.1 Q 379.4 52.1, 379.9 51.5 Q 380.4 50.9, 380.4 49.8 Q 380.4 48.6, 379.9 48.1 Q 379.4 47.5, 378.6 47.5 Q 377.7 47.5, 377.2 48.1 Q 376.8 48.6, 376.8 49.8 Q 376.8 50.9, 377.2 51.5 Q 377.7 52.1, 378.6 52.1 " fill="#FF0000"/>
<path class="atom-15" d="M 382.1 46.9 L 382.9 46.9 L 382.9 49.3 L 385.8 49.3 L 385.8 46.9 L 386.6 46.9 L 386.6 52.6 L 385.8 52.6 L 385.8 50.0 L 382.9 50.0 L 382.9 52.6 L 382.1 52.6 L 382.1 46.9 " fill="#FF0000"/>
<path class="atom-18" d="M 366.6 119.0 Q 366.6 117.6, 367.2 116.8 Q 367.9 116.1, 369.2 116.1 Q 370.4 116.1, 371.1 116.8 Q 371.8 117.6, 371.8 119.0 Q 371.8 120.3, 371.1 121.1 Q 370.4 121.9, 369.2 121.9 Q 367.9 121.9, 367.2 121.1 Q 366.6 120.3, 366.6 119.0 M 369.2 121.3 Q 370.1 121.3, 370.5 120.7 Q 371.0 120.1, 371.0 119.0 Q 371.0 117.8, 370.5 117.3 Q 370.1 116.7, 369.2 116.7 Q 368.3 116.7, 367.8 117.3 Q 367.4 117.8, 367.4 119.0 Q 367.4 120.1, 367.8 120.7 Q 368.3 121.3, 369.2 121.3 " fill="#FF0000"/>
<path class="atom-18" d="M 372.7 116.1 L 373.5 116.1 L 373.5 118.5 L 376.4 118.5 L 376.4 116.1 L 377.2 116.1 L 377.2 121.8 L 376.4 121.8 L 376.4 119.2 L 373.5 119.2 L 373.5 121.8 L 372.7 121.8 L 372.7 116.1 " fill="#FF0000"/>
<path class="legend" d="M 301.7 184.0 Q 302.7 184.4, 303.3 185.0 Q 303.8 185.7, 303.8 186.7 Q 303.8 188.2, 302.8 189.1 Q 301.8 190.0, 300.0 190.0 L 296.2 190.0 L 296.2 178.7 L 299.5 178.7 Q 301.4 178.7, 302.4 179.5 Q 303.4 180.2, 303.4 181.7 Q 303.4 183.4, 301.7 184.0 M 297.7 180.0 L 297.7 183.5 L 299.5 183.5 Q 300.6 183.5, 301.2 183.1 Q 301.8 182.6, 301.8 181.7 Q 301.8 180.0, 299.5 180.0 L 297.7 180.0 M 300.0 188.7 Q 301.1 188.7, 301.7 188.2 Q 302.2 187.7, 302.2 186.7 Q 302.2 185.7, 301.6 185.3 Q 301.0 184.8, 299.7 184.8 L 297.7 184.8 L 297.7 188.7 L 300.0 188.7 " fill="#000000"/>
<path class="bond-0 atom-0 atom-1" d="M 482.5,96.0 L 500.0,86.0" style="fill:none;fill-rule:evenodd;stroke:#000000;stroke-width:2.0px;stroke-linecap:butt;stroke-linejoin:miter;stroke-opacity:1"/>
<path class="bond-1 atom-1 atom-2" d="M 500.0,86.0 L 517.5,96.0" style="fill:none;fill-rule:evenodd;stroke:#000000;stroke-width:2.0px;stroke-linecap:butt;stroke-linejoin:miter;stroke-opacity:1"/>
<path d="M 499.1,86.5 L 500.0,86.0 L 500.9,86.5" style="fill:none;stroke:#000000;stroke-width:2.0px;stroke-linecap:butt;stroke-linejoin:miter;stroke-opacity:1;"/>
<path class="legend" d="M 499.2 178.7 Q 501.7 178.7, 503.1 180.2 Q 504.4 181.6, 504.4 184.3 Q 504.4 187.0, 503.1 188.5 Q 501.7 190.0, 499.2 190.0 L 495.6 190.0 L 495.6 178.7 L 499.2 178.7 M 499.2 188.7 Q 501.0 188.7, 501.9 187.6 Q 502.8 186.5, 502.8 184.3 Q 502.8 182.1, 501.9 181.0 Q 501.0 180.0, 499.2 180.0 L 497.1 180.0 L 497.1 188.7 L 499.2 188.7 " fill="#000000"/>
<path class="bond-0 atom-0 atom-1" d="M 665.1,96.0 L 682.5,86.0" style="fill:none;fill-rule:evenodd;stroke:#000000;stroke-width:2.0px;stroke-linecap:butt;stroke-linejoin:miter;stroke-opacity:1"/>
<path class="bond-1 atom-1 atom-2" d="M 682.5,86.0 L 700.0,96.0" style="fill:none;fill-rule:evenodd;stroke:#000000;stroke-width:2.0px;stroke-linecap:butt;stroke-linejoin:miter;stroke-opacity:1"/>
<path class="bond-2 atom-2 atom-3" d="M 700.0,96.0 L 717.5,86.0" style="fill:none;fill-rule:evenodd;stroke:#000000;stroke-width:2.0px;stroke-linecap:butt;stroke-linejoin:miter;stroke-opacity:1"/>
<path class="bond-3 atom-3 atom-4" d="M 717.5,86.0 L 734.9,96.0" style="fill:none;fill-rule:evenodd;stroke:#000000;stroke-width:2.0px;stroke-linecap:butt;stroke-linejoin:miter;stroke-opacity:1"/>
<path d="M 681.7,86.5 L 682.5,86.0 L 683.4,86.5" style="fill:none;stroke:#000000;stroke-width:2.0px;stroke-linecap:butt;stroke-linejoin:miter;stroke-opacity:1;"/>
<path d="M 699.1,95.5 L 700.0,96.0 L 700.9,95.5" style="fill:none;stroke:#000000;stroke-width:2.0px;stroke-linecap:butt;stroke-linejoin:miter;stroke-opacity:1;"/>
<path d="M 716.6,86.5 L 717.5,86.0 L 718.3,86.5" style="fill:none;stroke:#000000;stroke-width:2.0px;stroke-linecap:butt;stroke-linejoin:miter;stroke-opacity:1;"/>
<path class="legend" d="M 696.5 178.7 L 703.3 178.7 L 703.3 180.0 L 698.1 180.0 L 698.1 183.4 L 702.8 183.4 L 702.8 184.7 L 698.1 184.7 L 698.1 188.7 L 703.5 188.7 L 703.5 190.0 L 696.5 190.0 L 696.5 178.7 " fill="#000000"/>
<path class="bond-0 atom-0 atom-1" d="M 10.0,332.9 L 10.3,312.8" style="fill:none;fill-rule:evenodd;stroke:#000000;stroke-width:2.0px;stroke-linecap:butt;stroke-linejoin:miter;stroke-opacity:1"/>
<path class="bond-1 atom-1 atom-2" d="M 10.3,312.8 L 27.9,303.0" style="fill:none;fill-rule:evenodd;stroke:#000000;stroke-width:2.0px;stroke-linecap:butt;stroke-linejoin:miter;stroke-opacity:1"/>
<path class="bond-2 atom-2 atom-3" d="M 27.9,303.0 L 28.2,282.8" style="fill:none;fill-rule:evenodd;stroke:#000000;stroke-width:2.0px;stroke-linecap:butt;stroke-linejoin:miter;stroke-opacity:1"/>
<path class="bond-3 atom-3 atom-4" d="M 28.2,282.8 L 10.9,272.5" style="fill:none;fill-rule:evenodd;stroke:#000000;stroke-width:2.0px;stroke-linecap:butt;stroke-linejoin:miter;stroke-opacity:1"/>
<path class="bond-4 atom-3 atom-5" d="M 28.2,282.8 L 45.8,273.0" style="fill:none;fill-rule:evenodd;stroke:#000000;stroke-width:2.0px;stroke-linecap:butt;stroke-linejoin:miter;stroke-opacity:1"/>
<path class="bond-5 atom-5 atom-6" d="M 45.8,273.0 L 48.2,253.0" style="fill:none;fill-rule:evenodd;stroke:#000000;stroke-width:2.0px;stroke-linecap:butt;stroke-linejoin:miter;stroke-opacity:1"/>
<path class="bond-6 atom-6 atom-7" d="M 48.2,253.0 L 68.0,249.1" style="fill:none;fill-rule:evenodd;stroke:#000000;stroke-width:2.0px;stroke-linecap:butt;stroke-linejoin:miter;stroke-opacity:1"/>
<path class="bond-7 atom-7 atom-8" d="M 68.0,249.1 L 77.8,266.7" style="fill:none;fill-rule:evenodd;stroke:#000000;stroke-width:2.0px;stroke-linecap:butt;stroke-linejoin:miter;stroke-opacity:1"/>
<path class="bond-8 atom-8 atom-9" d="M 77.8,266.7 L 89.9,250.5" style="fill:none;fill-rule:evenodd;stroke:#000000;stroke-width:2.0px;stroke-linecap:butt;stroke-linejoin:miter;stroke-opacity:1"/>
<path class="bond-9 atom-8 atom-10" d="M 77.8,266.7 L 97.5,271.1" style="fill:none;fill-rule:evenodd;stroke:#000000;stroke-width:2.0px;stroke-linecap:butt;stroke-linejoin:miter;stroke-opacity:1"/>
<path class="bond-10 atom-10 atom-11" d="M 97.5,271.1 L 111.2,256.4" style="fill:none;fill-rule:evenodd;stroke:#000000;stroke-width:2.0px;stroke-linecap:butt;stroke-linejoin:miter;stroke-opacity:1"/>
<path class="bond-11 atom-11 atom-12" d="M 111.2,256.4 L 130.8,260.8" style="fill:none;fill-rule:evenodd;stroke:#000000;stroke-width:2.0px;stroke-linecap:butt;stroke-linejoin:miter;stroke-opacity:1"/>
<path class="bond-12 atom-12 atom-13" d="M 130.8,260.8 L 136.8,280.1" style="fill:none;fill-rule:evenodd;stroke:#000000;stroke-width:2.0px;stroke-linecap:butt;stroke-linejoin:miter;stroke-opacity:1"/>
<path class="bond-13 atom-13 atom-14" d="M 136.8,280.1 L 156.4,284.6" style="fill:none;fill-rule:evenodd;stroke:#000000;stroke-width:2.0px;stroke-linecap:butt;stroke-linejoin:miter;stroke-opacity:1"/>
<path class="bond-14 atom-14 atom-15" d="M 156.4,284.6 L 176.4,282.1" style="fill:none;fill-rule:evenodd;stroke:#000000;stroke-width:2.0px;stroke-linecap:butt;stroke-linejoin:miter;stroke-opacity:1"/>
<path class="bond-15 atom-14 atom-16" d="M 156.4,284.6 L 157.4,264.4" style="fill:none;fill-rule:evenodd;stroke:#000000;stroke-width:2.0px;stroke-linecap:butt;stroke-linejoin:miter;stroke-opacity:1"/>
<path class="bond-16 atom-14 atom-17" d="M 156.4,284.6 L 162.4,303.8" style="fill:none;fill-rule:evenodd;stroke:#000000;stroke-width:2.0px;stroke-linecap:butt;stroke-linejoin:miter;stroke-opacity:1"/>
<path class="bond-17 atom-17 atom-18" d="M 162.4,303.8 L 170.6,305.7" style="fill:none;fill-rule:evenodd;stroke:#000000;stroke-width:2.0px;stroke-linecap:butt;stroke-linejoin:miter;stroke-opacity:1"/>
<path class="bond-17 atom-17 atom-18" d="M 170.6,305.7 L 178.7,307.6" style="fill:none;fill-rule:evenodd;stroke:#FF0000;stroke-width:2.0px;stroke-linecap:butt;stroke-linejoin:miter;stroke-opacity:1"/>
<path class="bond-18 atom-17 atom-19" d="M 162.4,303.8 L 148.7,318.6" style="fill:none;fill-rule:evenodd;stroke:#000000;stroke-width:2.0px;stroke-linecap:butt;stroke-linejoin:miter;stroke-opacity:1"/>
<path class="bond-19 atom-19 atom-20" d="M 148.7,318.6 L 129.0,314.1" style="fill:none;fill-rule:evenodd;stroke:#000000;stroke-width:2.0px;stroke-linecap:butt;stroke-linejoin:miter;stroke-opacity:1"/>
<path class="bond-20 atom-20 atom-21" d="M 129.0,314.1 L 123.1,294.9" style="fill:none;fill-rule:evenodd;stroke:#000000;stroke-width:2.0px;stroke-linecap:butt;stroke-linejoin:miter;stroke-opacity:1"/>
<path class="bond-21 atom-21 atom-22" d="M 123.1,294.9 L 109.4,309.7" style="fill:none;fill-rule:evenodd;stroke:#000000;stroke-width:2.0px;stroke-linecap:butt;stroke-linejoin:miter;stroke-opacity:1"/>
<path class="bond-22 atom-22 atom-23" d="M 109.4,309.7 L 103.4,290.4" style="fill:none;fill-rule:evenodd;stroke:#000000;stroke-width:2.0px;stroke-linecap:butt;stroke-linejoin:miter;stroke-opacity:1"/>
<path class="bond-23 atom-23 atom-24" d="M 103.4,290.4 L 89.7,305.2" style="fill:none;fill-rule:evenodd;stroke:#000000;stroke-width:2.0px;stroke-linecap:butt;stroke-linejoin:miter;stroke-opacity:1"/>
<path class="bond-24 atom-24 atom-25" d="M 89.7,305.2 L 70.0,300.7" style="fill:none;fill-rule:evenodd;stroke:#000000;stroke-width:2.0px;stroke-linecap:butt;stroke-linejoin:miter;stroke-opacity:1"/>
<path class="bond-25 atom-25 atom-26" d="M 70.0,300.7 L 64.1,281.4" style="fill:none;fill-rule:evenodd;stroke:#000000;stroke-width:2.0px;stroke-linecap:butt;stroke-linejoin:miter;stroke-opacity:1"/>
<path class="bond-26 atom-26 atom-27" d="M 64.1,281.4 L 48.9,294.7" style="fill:none;fill-rule:evenodd;stroke:#000000;stroke-width:2.0px;stroke-linecap:butt;stroke-linejoin:miter;stroke-opacity:1"/>
<path class="bond-27 atom-26 atom-5" d="M 64.1,281.4 L 45.8,273.0" style="fill:none;fill-rule:evenodd;stroke:#000000;stroke-width:2.0px;stroke-linecap:butt;stroke-linejoin:miter;stroke-opacity:1"/>
<path class="bond-28 atom-26 atom-8" d="M 64.1,281.4 L 77.8,266.7" style="fill:none;fill-rule:evenodd;stroke:#000000;stroke-width:2.0px;stroke-linecap:butt;stroke-linejoin:miter;stroke-opacity:1"/>
<path class="bond-29 atom-23 atom-10" d="M 103.4,290.4 L 97.5,271.1" style="fill:none;fill-rule:evenodd;stroke:#000000;stroke-width:2.0px;stroke-linecap:butt;stroke-linejoin:miter;stroke-opacity:1"/>
<path class="bond-30 atom-21 atom-13" d="M 123.1,294.9 L 136.8,280.1" style="fill:none;fill-rule:evenodd;stroke:#000000;stroke-width:2.0px;stroke-linecap:butt;stroke-linejoin:miter;stroke-opacity:1"/>
<path class="bond-31 atom-23 atom-21" d="M 103.4,290.4 L 123.1,294.9" style="fill:none;fill-rule:evenodd;stroke:#000000;stroke-width:2.0px;stroke-linecap:butt;stroke-linejoin:miter;stroke-opacity:1"/>
<path d="M 10.3,313.8 L 10.3,312.8 L 11.2,312.3" style="fill:none;stroke:#000000;stroke-width:2.0px;stroke-linecap:butt;stroke-linejoin:miter;stroke-opacity:1;"/>
<path d="M 27.0,303.5 L 27.9,303.0 L 27.9,302.0" style="fill:none;stroke:#000000;stroke-width:2.0px;stroke-linecap:butt;stroke-linejoin:miter;stroke-opacity:1;"/>
<path d="M 48.1,254.0 L 48.2,253.0 L 49.2,252.8" style="fill:none;stroke:#000000;stroke-width:2.0px;stroke-linecap:butt;stroke-linejoin:miter;stroke-opacity:1;"/>
<path d="M 67.0,249.3 L 68.0,249.1 L 68.5,249.9" style="fill:none;stroke:#000000;stroke-width:2.0px;stroke-linecap:butt;stroke-linejoin:miter;stroke-opacity:1;"/>
<path d="M 110.5,257.1 L 111.2,256.4 L 112.1,256.6" style="fill:none;stroke:#000000;stroke-width:2.0px;stroke-linecap:butt;stroke-linejoin:miter;stroke-opacity:1;"/>
<path d="M 129.8,260.6 L 130.8,260.8 L 131.1,261.8" style="fill:none;stroke:#000000;stroke-width:2.0px;stroke-linecap:butt;stroke-linejoin:miter;stroke-opacity:1;"/>
<path d="M 149.3,317.9 L 148.7,318.6 L 147.7,318.4" style="fill:none;stroke:#000000;stroke-width:2.0px;stroke-linecap:butt;stroke-linejoin:miter;stroke-opacity:1;"/>
<path d="M 130.0,314.4 L 129.0,314.1 L 128.7,313.2" style="fill:none;stroke:#000000;stroke-width:2.0px;stroke-linecap:butt;stroke-linejoin:miter;stroke-opacity:1;"/>
<path d="M 110.0,308.9 L 109.4,309.7 L 109.1,308.7" style="fill:none;stroke:#000000;stroke-width:2.0px;stroke-linecap:butt;stroke-linejoin:miter;stroke-opacity:1;"/>
<path d="M 90.4,304.4 L 89.7,305.2 L 88.7,305.0" style="fill:none;stroke:#000000;stroke-width:2.0px;stroke-linecap:butt;stroke-linejoin:miter;stroke-opacity:1;"/>
<path d="M 71.0,300.9 L 70.0,300.7 L 69.7,299.7" style="fill:none;stroke:#000000;stroke-width:2.0px;stroke-linecap:butt;stroke-linejoin:miter;stroke-opacity:1;"/>
<path class="atom-18" d="M 179.4 308.3 Q 179.4 307.0, 180.1 306.2 Q 180.8 305.4, 182.0 305.4 Q 183.3 305.4, 184.0 306.2 Q 184.6 307.0, 184.6 308.3 Q 184.6 309.7, 184.0 310.5 Q 183.3 311.3, 182.0 311.3 Q 180.8 311.3, 180.1 310.5 Q 179.4 309.7, 179.4 308.3 M 182.0 310.6 Q 182.9 310.6, 183.4 310.1 Q 183.8 309.5, 183.8 308.3 Q 183.8 307.2, 183.4 306.6 Q 182.9 306.1, 182.0 306.1 Q 181.2 306.1, 180.7 306.6 Q 180.2 307.2, 180.2 308.3 Q 180.2 309.5, 180.7 310.1 Q 181.2 310.6, 182.0 310.6 " fill="#FF0000"/>
<path class="atom-18" d="M 185.5 305.5 L 186.3 305.5 L 186.3 307.9 L 189.2 307.9 L 189.2 305.5 L 190.0 305.5 L 190.0 311.2 L 189.2 311.2 L 189.2 308.6 L 186.3 308.6 L 186.3 311.2 L 185.5 311.2 L 185.5 305.5 " fill="#FF0000"/>
<path class="legend" d="M 96.6 378.7 L 103.4 378.7 L 103.4 380.0 L 98.2 380.0 L 98.2 383.4 L 102.8 383.4 L 102.8 384.7 L 98.2 384.7 L 98.2 390.0 L 96.6 390.0 L 96.6 378.7 " fill="#000000"/>
</svg>