<svg xmlns="http://www.w3.org/2000/svg" xmlns:rdkit="http://www.rdkit.org/xml" xmlns:xlink="http://www.w3.org/1999/xlink" version="1.1" baseProfile="full" xml:space="preserve" width="800px" height="400px" viewBox="0 0 800 400">
<!-- END OF HEADER -->
<rect style="opacity:1.0;fill:#FFFFFF;stroke:none" width="800.0" height="400.0" x="0.0" y="0.0"> </rect>
<path class="bond-0 atom-0 atom-1" d="M 70.4,86.8 L 73.6,90.9" style="fill:none;fill-rule:evenodd;stroke:#FF0000;stroke-width:2.0px;stroke-linecap:butt;stroke-linejoin:miter;stroke-opacity:1"/>
<path class="bond-0 atom-0 atom-1" d="M 73.6,90.9 L 76.9,95.0" style="fill:none;fill-rule:evenodd;stroke:#000000;stroke-width:2.0px;stroke-linecap:butt;stroke-linejoin:miter;stroke-opacity:1"/>
<path class="bond-1 atom-1 atom-2" d="M 76.9,95.0 L 90.6,93.0" style="fill:none;fill-rule:evenodd;stroke:#000000;stroke-width:2.0px;stroke-linecap:butt;stroke-linejoin:miter;stroke-opacity:1"/>
<path class="bond-2 atom-2 atom-3" d="M 90.6,93.0 L 95.8,80.1" style="fill:none;fill-rule:evenodd;stroke:#000000;stroke-width:2.0px;stroke-linecap:butt;stroke-linejoin:miter;stroke-opacity:1"/>
<path class="bond-2 atom-2 atom-3" d="M 93.0,92.7 L 97.3,82.0" style="fill:none;fill-rule:evenodd;stroke:#000000;stroke-width:2.0px;stroke-linecap:butt;stroke-linejoin:miter;stroke-opacity:1"/>
<path class="bond-3 atom-3 atom-4" d="M 95.8,80.1 L 109.6,78.1" style="fill:none;fill-rule:evenodd;stroke:#000000;stroke-width:2.0px;stroke-linecap:butt;stroke-linejoin:miter;stroke-opacity:1"/>
<path class="bond-4 atom-4 atom-5" d="M 109.6,78.1 L 118.2,89.0" style="fill:none;fill-rule:evenodd;stroke:#000000;stroke-width:2.0px;stroke-linecap:butt;stroke-linejoin:miter;stroke-opacity:1"/>
<path class="bond-4 atom-4 atom-5" d="M 108.7,80.3 L 115.8,89.3" style="fill:none;fill-rule:evenodd;stroke:#000000;stroke-width:2.0px;stroke-linecap:butt;stroke-linejoin:miter;stroke-opacity:1"/>
<path class="bond-5 atom-5 atom-6" d="M 118.2,89.0 L 123.9,88.2" style="fill:none;fill-rule:evenodd;stroke:#000000;stroke-width:2.0px;stroke-linecap:butt;stroke-linejoin:miter;stroke-opacity:1"/>
<path class="bond-5 atom-5 atom-6" d="M 123.9,88.2 L 129.6,87.3" style="fill:none;fill-rule:evenodd;stroke:#FF0000;stroke-width:2.0px;stroke-linecap:butt;stroke-linejoin:miter;stroke-opacity:1"/>
<path class="bond-6 atom-5 atom-7" d="M 118.2,89.0 L 113.1,101.9" style="fill:none;fill-rule:evenodd;stroke:#000000;stroke-width:2.0px;stroke-linecap:butt;stroke-linejoin:miter;stroke-opacity:1"/>
<path class="bond-7 atom-7 atom-8" d="M 113.1,101.9 L 99.3,103.9" style="fill:none;fill-rule:evenodd;stroke:#000000;stroke-width:2.0px;stroke-linecap:butt;stroke-linejoin:miter;stroke-opacity:1"/>
<path class="bond-7 atom-7 atom-8" d="M 111.6,100.0 L 100.2,101.7" style="fill:none;fill-rule:evenodd;stroke:#000000;stroke-width:2.0px;stroke-linecap:butt;stroke-linejoin:miter;stroke-opacity:1"/>
<path class="bond-8 atom-8 atom-2" d="M 99.3,103.9 L 90.6,93.0" style="fill:none;fill-rule:evenodd;stroke:#000000;stroke-width:2.0px;stroke-linecap:butt;stroke-linejoin:miter;stroke-opacity:1"/>
<path d="M 76.7,94.8 L 76.9,95.0 L 77.6,94.9" style="fill:none;stroke:#000000;stroke-width:2.0px;stroke-linecap:butt;stroke-linejoin:miter;stroke-opacity:1;"/>
<path d="M 95.5,80.7 L 95.8,80.1 L 96.5,80.0" style="fill:none;stroke:#000000;stroke-width:2.0px;stroke-linecap:butt;stroke-linejoin:miter;stroke-opacity:1;"/>
<path d="M 108.9,78.2 L 109.6,78.1 L 110.0,78.6" style="fill:none;stroke:#000000;stroke-width:2.0px;stroke-linecap:butt;stroke-linejoin:miter;stroke-opacity:1;"/>
<path d="M 113.3,101.3 L 113.1,101.9 L 112.4,102.0" style="fill:none;stroke:#000000;stroke-width:2.0px;stroke-linecap:butt;stroke-linejoin:miter;stroke-opacity:1;"/>
<path d="M 100.0,103.8 L 99.3,103.9 L 98.8,103.4" style="fill:none;stroke:#000000;stroke-width:2.0px;stroke-linecap:butt;stroke-linejoin:miter;stroke-opacity:1;"/>
<path class="atom-0" d="M 62.1 82.0 L 62.7 82.0 L 62.7 83.8 L 64.8 83.8 L 64.8 82.0 L 65.4 82.0 L 65.4 86.3 L 64.8 86.3 L 64.8 84.3 L 62.7 84.3 L 62.7 86.3 L 62.1 86.3 L 62.1 82.0 " fill="#FF0000"/>
<path class="atom-0" d="M 66.3 84.1 Q 66.3 83.1, 66.8 82.5 Q 67.3 82.0, 68.2 82.0 Q 69.2 82.0, 69.7 82.5 Q 70.2 83.1, 70.2 84.1 Q 70.2 85.1, 69.7 85.7 Q 69.2 86.3, 68.2 86.3 Q 67.3 86.3, 66.8 85.7 Q 66.3 85.2, 66.3 84.1 M 68.2 85.8 Q 68.9 85.8, 69.2 85.4 Q 69.6 85.0, 69.6 84.1 Q 69.6 83.3, 69.2 82.9 Q 68.9 82.4, 68.2 82.4 Q 67.6 82.4, 67.2 82.9 Q 66.9 83.3, 66.9 84.1 Q 66.9 85.0, 67.2 85.4 Q 67.6 85.8, 68.2 85.8 " fill="#FF0000"/>
<path class="atom-6" d="M 130.0 87.0 Q 130.0 86.0, 130.5 85.4 Q 131.0 84.8, 132.0 84.8 Q 132.9 84.8, 133.4 85.4 Q 133.9 86.0, 133.9 87.0 Q 133.9 88.0, 133.4 88.6 Q 132.9 89.2, 132.0 89.2 Q 131.0 89.2, 130.5 88.6 Q 130.0 88.0, 130.0 87.0 M 132.0 88.7 Q 132.6 88.7, 133.0 88.3 Q 133.3 87.8, 133.3 87.0 Q 133.3 86.2, 133.0 85.7 Q 132.6 85.3, 132.0 85.3 Q 131.3 85.3, 131.0 85.7 Q 130.6 86.1, 130.6 87.0 Q 130.6 87.8, 131.0 88.3 Q 131.3 88.7, 132.0 88.7 " fill="#FF0000"/>
<path class="atom-6" d="M 134.6 84.9 L 135.2 84.9 L 135.2 86.7 L 137.3 86.7 L 137.3 84.9 L 137.9 84.9 L 137.9 89.1 L 137.3 89.1 L 137.3 87.2 L 135.2 87.2 L 135.2 89.1 L 134.6 89.1 L 134.6 84.9 " fill="#FF0000"/>
<path class="legend" d="M 103.4 190.0 L 102.2 186.7 L 97.8 186.7 L 96.6 190.0 L 95.1 190.0 L 99.0 178.7 L 100.9 178.7 L 104.9 190.0 L 103.4 190.0 M 98.2 185.4 L 101.8 185.4 L 100.0 180.3 L 98.2 185.4 " fill="#000000"/>
<path class="bond-0 atom-0 atom-1" d="M 218.1,102.4 L 222.9,99.6" style="fill:none;fill-rule:evenodd;stroke:#FF0000;stroke-width:2.0px;stroke-linecap:butt;stroke-linejoin:miter;stroke-opacity:1"/>
<path class="bond-0 atom-0 atom-1" d="M 222.9,99.6 L 227.8,96.9" style="fill:none;fill-rule:evenodd;stroke:#000000;stroke-width:2.0px;stroke-linecap:butt;stroke-linejoin:miter;stroke-opacity:1"/>
<path class="bond-1 atom-1 atom-2" d="M 227.8,96.9 L 227.8,82.9" style="fill:none;fill-rule:evenodd;stroke:#000000;stroke-width:2.0px;stroke-linecap:butt;stroke-linejoin:miter;stroke-opacity:1"/>
<path class="bond-1 atom-1 atom-2" d="M 229.9,95.6 L 229.9,84.1" style="fill:none;fill-rule:evenodd;stroke:#000000;stroke-width:2.0px;stroke-linecap:butt;stroke-linejoin:miter;stroke-opacity:1"/>
<path class="bond-2 atom-2 atom-3" d="M 227.8,82.9 L 239.8,76.0" style="fill:none;fill-rule:evenodd;stroke:#000000;stroke-width:2.0px;stroke-linecap:butt;stroke-linejoin:miter;stroke-opacity:1"/>
<path class="bond-3 atom-3 atom-4" d="M 239.8,76.0 L 251.9,82.9" style="fill:none;fill-rule:evenodd;stroke:#000000;stroke-width:2.0px;stroke-linecap:butt;stroke-linejoin:miter;stroke-opacity:1"/>
<path class="bond-3 atom-3 atom-4" d="M 239.8,78.4 L 249.8,84.1" style="fill:none;fill-rule:evenodd;stroke:#000000;stroke-width:2.0px;stroke-linecap:butt;stroke-linejoin:miter;stroke-opacity:1"/>
<path class="bond-4 atom-4 atom-5" d="M 251.9,82.9 L 263.9,76.0" style="fill:none;fill-rule:evenodd;stroke:#000000;stroke-width:2.0px;stroke-linecap:butt;stroke-linejoin:miter;stroke-opacity:1"/>
<path class="bond-5 atom-5 atom-6" d="M 263.9,76.0 L 276.0,82.9" style="fill:none;fill-rule:evenodd;stroke:#000000;stroke-width:2.0px;stroke-linecap:butt;stroke-linejoin:miter;stroke-opacity:1"/>
<path class="bond-6 atom-6 atom-7" d="M 276.0,82.9 L 288.0,76.0" style="fill:none;fill-rule:evenodd;stroke:#000000;stroke-width:2.0px;stroke-linecap:butt;stroke-linejoin:miter;stroke-opacity:1"/>
<path class="bond-7 atom-7 atom-8" d="M 288.0,76.0 L 300.1,82.9" style="fill:none;fill-rule:evenodd;stroke:#000000;stroke-width:2.0px;stroke-linecap:butt;stroke-linejoin:miter;stroke-opacity:1"/>
<path class="bond-8 atom-8 atom-9" d="M 300.1,82.9 L 312.2,76.0" style="fill:none;fill-rule:evenodd;stroke:#000000;stroke-width:2.0px;stroke-linecap:butt;stroke-linejoin:miter;stroke-opacity:1"/>
<path class="bond-9 atom-9 atom-10" d="M 312.2,76.0 L 324.2,82.9" style="fill:none;fill-rule:evenodd;stroke:#000000;stroke-width:2.0px;stroke-linecap:butt;stroke-linejoin:miter;stroke-opacity:1"/>
<path class="bond-10 atom-10 atom-11" d="M 324.2,82.9 L 336.3,76.0" style="fill:none;fill-rule:evenodd;stroke:#000000;stroke-width:2.0px;stroke-linecap:butt;stroke-linejoin:miter;stroke-opacity:1"/>
<path class="bond-11 atom-11 atom-12" d="M 336.3,76.0 L 348.3,82.9" style="fill:none;fill-rule:evenodd;stroke:#000000;stroke-width:2.0px;stroke-linecap:butt;stroke-linejoin:miter;stroke-opacity:1"/>
<path class="bond-12 atom-12 atom-13" d="M 348.3,82.9 L 348.3,96.9" style="fill:none;fill-rule:evenodd;stroke:#000000;stroke-width:2.0px;stroke-linecap:butt;stroke-linejoin:miter;stroke-opacity:1"/>
<path class="bond-12 atom-12 atom-13" d="M 350.4,84.1 L 350.4,95.6" style="fill:none;fill-rule:evenodd;stroke:#000000;stroke-width:2.0px;stroke-linecap:butt;stroke-linejoin:miter;stroke-opacity:1"/>
<path class="bond-13 atom-13 atom-14" d="M 348.3,96.9 L 360.4,103.8" style="fill:none;fill-rule:evenodd;stroke:#000000;stroke-width:2.0px;stroke-linecap:butt;stroke-linejoin:miter;stroke-opacity:1"/>
<path class="bond-14 atom-14 atom-15" d="M 360.4,103.8 L 372.4,96.9" style="fill:none;fill-rule:evenodd;stroke:#000000;stroke-width:2.0px;stroke-linecap:butt;stroke-linejoin:miter;stroke-opacity:1"/>
<path class="bond-14 atom-14 atom-15" d="M 360.4,101.4 L 370.4,95.6" style="fill:none;fill-rule:evenodd;stroke:#000000;stroke-width:2.0px;stroke-linecap:butt;stroke-linejoin:miter;stroke-opacity:1"/>
<path class="bond-15 atom-15 atom-16" d="M 372.4,96.9 L 377.3,99.6" style="fill:none;fill-rule:evenodd;stroke:#000000;stroke-width:2.0px;stroke-linecap:butt;stroke-linejoin:miter;stroke-opacity:1"/>
<path class="bond-15 atom-15 atom-16" d="M 377.3,99.6 L 382.1,102.4" style="fill:none;fill-rule:evenodd;stroke:#FF0000;stroke-width:2.0px;stroke-linecap:butt;stroke-linejoin:miter;stroke-opacity:1"/>
<path class="bond-16 atom-15 atom-17" d="M 372.4,96.9 L 372.4,82.9" style="fill:none;fill-rule:evenodd;stroke:#000000;stroke-width:2.0px;stroke-linecap:butt;stroke-linejoin:miter;stroke-opacity:1"/>
<path class="bond-17 atom-17 atom-18" d="M 372.4,82.9 L 360.4,76.0" style="fill:none;fill-rule:evenodd;stroke:#000000;stroke-width:2.0px;stroke-linecap:butt;stroke-linejoin:miter;stroke-opacity:1"/>
<path class="bond-17 atom-17 atom-18" d="M 370.4,84.1 L 360.4,78.4" style="fill:none;fill-rule:evenodd;stroke:#000000;stroke-width:2.0px;stroke-linecap:butt;stroke-linejoin:miter;stroke-opacity:1"/>
<path class="bond-18 atom-4 atom-19" d="M 251.9,82.9 L 251.9,96.9" style="fill:none;fill-rule:evenodd;stroke:#000000;stroke-width:2.0px;stroke-linecap:butt;stroke-linejoin:miter;stroke-opacity:1"/>
<path class="bond-19 atom-19 atom-20" d="M 251.9,96.9 L 239.8,103.8" style="fill:none;fill-rule:evenodd;stroke:#000000;stroke-width:2.0px;stroke-linecap:butt;stroke-linejoin:miter;stroke-opacity:1"/>
<path class="bond-19 atom-19 atom-20" d="M 249.8,95.6 L 239.8,101.4" style="fill:none;fill-rule:evenodd;stroke:#000000;stroke-width:2.0px;stroke-linecap:butt;stroke-linejoin:miter;stroke-opacity:1"/>
<path class="bond-20 atom-20 atom-1" d="M 239.8,103.8 L 227.8,96.9" style="fill:none;fill-rule:evenodd;stroke:#000000;stroke-width:2.0px;stroke-linecap:butt;stroke-linejoin:miter;stroke-opacity:1"/>
<path class="bond-21 atom-18 atom-12" d="M 360.4,76.0 L 348.3,82.9" style="fill:none;fill-rule:evenodd;stroke:#000000;stroke-width:2.0px;stroke-linecap:butt;stroke-linejoin:miter;stroke-opacity:1"/>
<path d="M 227.8,83.6 L 227.8,82.9 L 228.4,82.6" style="fill:none;stroke:#000000;stroke-width:2.0px;stroke-linecap:butt;stroke-linejoin:miter;stroke-opacity:1;"/>
<path d="M 239.2,76.3 L 239.8,76.0 L 240.4,76.3" style="fill:none;stroke:#000000;stroke-width:2.0px;stroke-linecap:butt;stroke-linejoin:miter;stroke-opacity:1;"/>
<path d="M 263.3,76.3 L 263.9,76.0 L 264.5,76.3" style="fill:none;stroke:#000000;stroke-width:2.0px;stroke-linecap:butt;stroke-linejoin:miter;stroke-opacity:1;"/>
<path d="M 275.4,82.6 L 276.0,82.9 L 276.6,82.6" style="fill:none;stroke:#000000;stroke-width:2.0px;stroke-linecap:butt;stroke-linejoin:miter;stroke-opacity:1;"/>
<path d="M 287.4,76.3 L 288.0,76.0 L 288.7,76.3" style="fill:none;stroke:#000000;stroke-width:2.0px;stroke-linecap:butt;stroke-linejoin:miter;stroke-opacity:1;"/>
<path d="M 299.5,82.6 L 300.1,82.9 L 300.7,82.6" style="fill:none;stroke:#000000;stroke-width:2.0px;stroke-linecap:butt;stroke-linejoin:miter;stroke-opacity:1;"/>
<path d="M 311.6,76.3 L 312.2,76.0 L 312.8,76.3" style="fill:none;stroke:#000000;stroke-width:2.0px;stroke-linecap:butt;stroke-linejoin:miter;stroke-opacity:1;"/>
<path d="M 323.6,82.6 L 324.2,82.9 L 324.8,82.6" style="fill:none;stroke:#000000;stroke-width:2.0px;stroke-linecap:butt;stroke-linejoin:miter;stroke-opacity:1;"/>
<path d="M 335.7,76.3 L 336.3,76.0 L 336.9,76.3" style="fill:none;stroke:#000000;stroke-width:2.0px;stroke-linecap:butt;stroke-linejoin:miter;stroke-opacity:1;"/>
<path d="M 348.3,96.2 L 348.3,96.9 L 348.9,97.2" style="fill:none;stroke:#000000;stroke-width:2.0px;stroke-linecap:butt;stroke-linejoin:miter;stroke-opacity:1;"/>
<path d="M 359.8,103.5 L 360.4,103.8 L 361.0,103.5" style="fill:none;stroke:#000000;stroke-width:2.0px;stroke-linecap:butt;stroke-linejoin:miter;stroke-opacity:1;"/>
<path d="M 372.4,83.6 L 372.4,82.9 L 371.8,82.6" style="fill:none;stroke:#000000;stroke-width:2.0px;stroke-linecap:butt;stroke-linejoin:miter;stroke-opacity:1;"/>
<path d="M 361.0,76.3 L 360.4,76.0 L 359.8,76.3" style="fill:none;stroke:#000000;stroke-width:2.0px;stroke-linecap:butt;stroke-linejoin:miter;stroke-opacity:1;"/>
<path d="M 251.9,96.2 L 251.9,96.9 L 251.3,97.2" style="fill:none;stroke:#000000;stroke-width:2.0px;stroke-linecap:butt;stroke-linejoin:miter;stroke-opacity:1;"/>
<path d="M 240.4,103.5 L 239.8,103.8 L 239.2,103.5" style="fill:none;stroke:#000000;stroke-width:2.0px;stroke-linecap:butt;stroke-linejoin:miter;stroke-opacity:1;"/>
<path class="atom-0" d="M 209.6 101.7 L 210.1 101.7 L 210.1 103.5 L 212.3 103.5 L 212.3 101.7 L 212.9 101.7 L 212.9 106.0 L 212.3 106.0 L 212.3 104.0 L 210.1 104.0 L 210.1 106.0 L 209.6 106.0 L 209.6 101.7 " fill="#FF0000"/>
<path class="atom-0" d="M 213.8 103.8 Q 213.8 102.8, 214.3 102.2 Q 214.8 101.7, 215.7 101.7 Q 216.7 101.7, 217.2 102.2 Q 217.7 102.8, 217.7 103.8 Q 217.7 104.9, 217.2 105.4 Q 216.6 106.0, 215.7 106.0 Q 214.8 106.0, 214.3 105.4 Q 213.8 104.9, 213.8 103.8 M 215.7 105.5 Q 216.4 105.5, 216.7 105.1 Q 217.1 104.7, 217.1 103.8 Q 217.1 103.0, 216.7 102.6 Q 216.4 102.1, 215.7 102.1 Q 215.1 102.1, 214.7 102.6 Q 214.4 103.0, 214.4 103.8 Q 214.4 104.7, 214.7 105.1 Q 215.1 105.5, 215.7 105.5 " fill="#FF0000"/>
<path class="atom-16" d="M 382.5 103.8 Q 382.5 102.8, 383.1 102.2 Q 383.6 101.7, 384.5 101.7 Q 385.4 101.7, 385.9 102.2 Q 386.4 102.8, 386.4 103.8 Q 386.4 104.9, 385.9 105.4 Q 385.4 106.0, 384.5 106.0 Q 383.6 106.0, 383.1 105.4 Q 382.5 104.9, 382.5 103.8 M 384.5 105.5 Q 385.1 105.5, 385.5 105.1 Q 385.8 104.7, 385.8 103.8 Q 385.8 103.0, 385.5 102.6 Q 385.1 102.1, 384.5 102.1 Q 383.9 102.1, 383.5 102.6 Q 383.1 103.0, 383.1 103.8 Q 383.1 104.7, 383.5 105.1 Q 383.9 105.5, 384.5 105.5 " fill="#FF0000"/>
<path class="atom-16" d="M 387.1 101.7 L 387.7 101.7 L 387.7 103.5 L 389.9 103.5 L 389.9 101.7 L 390.4 101.7 L 390.4 106.0 L 389.9 106.0 L 389.9 104.0 L 387.7 104.0 L 387.7 106.0 L 387.1 106.0 L 387.1 101.7 " fill="#FF0000"/>
<path class="legend" d="M 301.7 184.0 Q 302.7 184.4, 303.3 185.0 Q 303.8 185.7, 303.8 186.7 Q 303.8 188.2, 302.8 189.1 Q 301.8 190.0, 300.0 190.0 L 296.2 190.0 L 296.2 178.7 L 299.5 178.7 Q 301.4 178.7, 302.4 179.5 Q 303.4 180.2, 303.4 181.7 Q 303.4 183.4, 301.7 184.0 M 297.7 180.0 L 297.7 183.5 L 299.5 183.5 Q 300.6 183.5, 301.2 183.1 Q 301.8 182.6, 301.8 181.7 Q 301.8 180.0, 299.5 180.0 L 297.7 180.0 M 300.0 188.7 Q 301.1 188.7, 301.7 188.2 Q 302.2 187.7, 302.2 186.7 Q 302.2 185.7, 301.6 185.3 Q 301.0 184.8, 299.7 184.8 L 297.7 184.8 L 297.7 188.7 L 300.0 188.7 " fill="#000000"/>
<path class="bond-0 atom-0 atom-1" d="M 502.0,113.7 L 498.6,109.7" style="fill:none;fill-rule:evenodd;stroke:#FF0000;stroke-width:2.0px;stroke-linecap:butt;stroke-linejoin:miter;stroke-opacity:1"/>
<path class="bond-0 atom-0 atom-1" d="M 498.6,109.7 L 495.2,105.7" style="fill:none;fill-rule:evenodd;stroke:#000000;stroke-width:2.0px;stroke-linecap:butt;stroke-linejoin:miter;stroke-opacity:1"/>
<path class="bond-1 atom-1 atom-2" d="M 495.2,105.7 L 481.5,108.1" style="fill:none;fill-rule:evenodd;stroke:#000000;stroke-width:2.0px;stroke-linecap:butt;stroke-linejoin:miter;stroke-opacity:1"/>
<path class="bond-2 atom-2 atom-3" d="M 481.5,108.1 L 472.5,97.5" style="fill:none;fill-rule:evenodd;stroke:#000000;stroke-width:2.0px;stroke-linecap:butt;stroke-linejoin:miter;stroke-opacity:1"/>
<path class="bond-3 atom-3 atom-4" d="M 472.5,97.5 L 458.8,100.0" style="fill:none;fill-rule:evenodd;stroke:#000000;stroke-width:2.0px;stroke-linecap:butt;stroke-linejoin:miter;stroke-opacity:1"/>
<path class="bond-3 atom-3 atom-4" d="M 471.0,95.7 L 459.6,97.7" style="fill:none;fill-rule:evenodd;stroke:#000000;stroke-width:2.0px;stroke-linecap:butt;stroke-linejoin:miter;stroke-opacity:1"/>
<path class="bond-4 atom-4 atom-5" d="M 458.8,100.0 L 456.9,105.3" style="fill:none;fill-rule:evenodd;stroke:#000000;stroke-width:2.0px;stroke-linecap:butt;stroke-linejoin:miter;stroke-opacity:1"/>
<path class="bond-4 atom-4 atom-5" d="M 456.9,105.3 L 455.1,110.5" style="fill:none;fill-rule:evenodd;stroke:#FF0000;stroke-width:2.0px;stroke-linecap:butt;stroke-linejoin:miter;stroke-opacity:1"/>
<path class="bond-5 atom-4 atom-6" d="M 458.8,100.0 L 449.8,89.4" style="fill:none;fill-rule:evenodd;stroke:#000000;stroke-width:2.0px;stroke-linecap:butt;stroke-linejoin:miter;stroke-opacity:1"/>
<path class="bond-6 atom-6 atom-7" d="M 449.8,89.4 L 454.5,76.3" style="fill:none;fill-rule:evenodd;stroke:#000000;stroke-width:2.0px;stroke-linecap:butt;stroke-linejoin:miter;stroke-opacity:1"/>
<path class="bond-6 atom-6 atom-7" d="M 452.2,89.0 L 456.1,78.1" style="fill:none;fill-rule:evenodd;stroke:#000000;stroke-width:2.0px;stroke-linecap:butt;stroke-linejoin:miter;stroke-opacity:1"/>
<path class="bond-7 atom-7 atom-8" d="M 454.5,76.3 L 451.1,72.3" style="fill:none;fill-rule:evenodd;stroke:#000000;stroke-width:2.0px;stroke-linecap:butt;stroke-linejoin:miter;stroke-opacity:1"/>
<path class="bond-7 atom-7 atom-8" d="M 451.1,72.3 L 447.8,68.3" style="fill:none;fill-rule:evenodd;stroke:#FF0000;stroke-width:2.0px;stroke-linecap:butt;stroke-linejoin:miter;stroke-opacity:1"/>
<path class="bond-8 atom-7 atom-9" d="M 454.5,76.3 L 468.2,73.8" style="fill:none;fill-rule:evenodd;stroke:#000000;stroke-width:2.0px;stroke-linecap:butt;stroke-linejoin:miter;stroke-opacity:1"/>
<path class="bond-9 atom-9 atom-10" d="M 468.2,73.8 L 477.2,84.4" style="fill:none;fill-rule:evenodd;stroke:#000000;stroke-width:2.0px;stroke-linecap:butt;stroke-linejoin:miter;stroke-opacity:1"/>
<path class="bond-9 atom-9 atom-10" d="M 467.4,76.1 L 474.8,84.8" style="fill:none;fill-rule:evenodd;stroke:#000000;stroke-width:2.0px;stroke-linecap:butt;stroke-linejoin:miter;stroke-opacity:1"/>
<path class="bond-10 atom-10 atom-11" d="M 477.2,84.4 L 482.9,83.4" style="fill:none;fill-rule:evenodd;stroke:#000000;stroke-width:2.0px;stroke-linecap:butt;stroke-linejoin:miter;stroke-opacity:1"/>
<path class="bond-10 atom-10 atom-11" d="M 482.9,83.4 L 488.5,82.4" style="fill:none;fill-rule:evenodd;stroke:#FF0000;stroke-width:2.0px;stroke-linecap:butt;stroke-linejoin:miter;stroke-opacity:1"/>
<path class="bond-11 atom-11 atom-12" d="M 493.2,84.6 L 496.5,88.6" style="fill:none;fill-rule:evenodd;stroke:#FF0000;stroke-width:2.0px;stroke-linecap:butt;stroke-linejoin:miter;stroke-opacity:1"/>
<path class="bond-11 atom-11 atom-12" d="M 496.5,88.6 L 499.9,92.5" style="fill:none;fill-rule:evenodd;stroke:#000000;stroke-width:2.0px;stroke-linecap:butt;stroke-linejoin:miter;stroke-opacity:1"/>
<path class="bond-12 atom-12 atom-13" d="M 499.9,92.5 L 513.6,90.1" style="fill:none;fill-rule:evenodd;stroke:#000000;stroke-width:2.0px;stroke-linecap:butt;stroke-linejoin:miter;stroke-opacity:1"/>
<path class="bond-13 atom-13 atom-14" d="M 513.6,90.1 L 522.6,100.7" style="fill:none;fill-rule:evenodd;stroke:#000000;stroke-width:2.0px;stroke-linecap:butt;stroke-linejoin:miter;stroke-opacity:1"/>
<path class="bond-13 atom-13 atom-14" d="M 516.0,89.6 L 523.4,98.4" style="fill:none;fill-rule:evenodd;stroke:#000000;stroke-width:2.0px;stroke-linecap:butt;stroke-linejoin:miter;stroke-opacity:1"/>
<path class="bond-14 atom-14 atom-15" d="M 522.6,100.7 L 536.3,98.2" style="fill:none;fill-rule:evenodd;stroke:#000000;stroke-width:2.0px;stroke-linecap:butt;stroke-linejoin:miter;stroke-opacity:1"/>
<path class="bond-15 atom-15 atom-16" d="M 536.3,98.2 L 541.0,85.1" style="fill:none;fill-rule:evenodd;stroke:#000000;stroke-width:2.0px;stroke-linecap:butt;stroke-linejoin:miter;stroke-opacity:1"/>
<path class="bond-15 atom-15 atom-16" d="M 534.7,96.4 L 538.6,85.5" style="fill:none;fill-rule:evenodd;stroke:#000000;stroke-width:2.0px;stroke-linecap:butt;stroke-linejoin:miter;stroke-opacity:1"/>
<path class="bond-16 atom-16 atom-17" d="M 541.0,85.1 L 546.6,84.1" style="fill:none;fill-rule:evenodd;stroke:#000000;stroke-width:2.0px;stroke-linecap:butt;stroke-linejoin:miter;stroke-opacity:1"/>
<path class="bond-16 atom-16 atom-17" d="M 546.6,84.1 L 552.3,83.0" style="fill:none;fill-rule:evenodd;stroke:#FF0000;stroke-width:2.0px;stroke-linecap:butt;stroke-linejoin:miter;stroke-opacity:1"/>
<path class="bond-17 atom-16 atom-18" d="M 541.0,85.1 L 532.0,74.5" style="fill:none;fill-rule:evenodd;stroke:#000000;stroke-width:2.0px;stroke-linecap:butt;stroke-linejoin:miter;stroke-opacity:1"/>
<path class="bond-18 atom-18 atom-19" d="M 532.0,74.5 L 518.3,77.0" style="fill:none;fill-rule:evenodd;stroke:#000000;stroke-width:2.0px;stroke-linecap:butt;stroke-linejoin:miter;stroke-opacity:1"/>
<path class="bond-18 atom-18 atom-19" d="M 531.2,76.7 L 519.9,78.8" style="fill:none;fill-rule:evenodd;stroke:#000000;stroke-width:2.0px;stroke-linecap:butt;stroke-linejoin:miter;stroke-opacity:1"/>
<path class="bond-19 atom-12 atom-1" d="M 499.9,92.5 L 495.2,105.7" style="fill:none;fill-rule:evenodd;stroke:#000000;stroke-width:2.0px;stroke-linecap:butt;stroke-linejoin:miter;stroke-opacity:1"/>
<path class="bond-20 atom-19 atom-13" d="M 518.3,77.0 L 513.6,90.1" style="fill:none;fill-rule:evenodd;stroke:#000000;stroke-width:2.0px;stroke-linecap:butt;stroke-linejoin:miter;stroke-opacity:1"/>
<path class="bond-21 atom-10 atom-3" d="M 477.2,84.4 L 472.5,97.5" style="fill:none;fill-rule:evenodd;stroke:#000000;stroke-width:2.0px;stroke-linecap:butt;stroke-linejoin:miter;stroke-opacity:1"/>
<path d="M 482.2,108.0 L 481.5,108.1 L 481.1,107.6" style="fill:none;stroke:#000000;stroke-width:2.0px;stroke-linecap:butt;stroke-linejoin:miter;stroke-opacity:1;"/>
<path d="M 450.3,89.9 L 449.8,89.4 L 450.0,88.7" style="fill:none;stroke:#000000;stroke-width:2.0px;stroke-linecap:butt;stroke-linejoin:miter;stroke-opacity:1;"/>
<path d="M 467.5,73.9 L 468.2,73.8 L 468.7,74.3" style="fill:none;stroke:#000000;stroke-width:2.0px;stroke-linecap:butt;stroke-linejoin:miter;stroke-opacity:1;"/>
<path d="M 522.2,100.2 L 522.6,100.7 L 523.3,100.6" style="fill:none;stroke:#000000;stroke-width:2.0px;stroke-linecap:butt;stroke-linejoin:miter;stroke-opacity:1;"/>
<path d="M 535.6,98.3 L 536.3,98.2 L 536.5,97.5" style="fill:none;stroke:#000000;stroke-width:2.0px;stroke-linecap:butt;stroke-linejoin:miter;stroke-opacity:1;"/>
<path d="M 532.5,75.0 L 532.0,74.5 L 531.3,74.6" style="fill:none;stroke:#000000;stroke-width:2.0px;stroke-linecap:butt;stroke-linejoin:miter;stroke-opacity:1;"/>
<path d="M 519.0,76.8 L 518.3,77.0 L 518.1,77.6" style="fill:none;stroke:#000000;stroke-width:2.0px;stroke-linecap:butt;stroke-linejoin:miter;stroke-opacity:1;"/>
<path class="atom-0" d="M 502.3 116.3 Q 502.3 115.3, 502.8 114.7 Q 503.3 114.1, 504.2 114.1 Q 505.2 114.1, 505.7 114.7 Q 506.2 115.3, 506.2 116.3 Q 506.2 117.3, 505.7 117.9 Q 505.1 118.5, 504.2 118.5 Q 503.3 118.5, 502.8 117.9 Q 502.3 117.3, 502.3 116.3 M 504.2 118.0 Q 504.9 118.0, 505.2 117.6 Q 505.6 117.1, 505.6 116.3 Q 505.6 115.5, 505.2 115.0 Q 504.9 114.6, 504.2 114.6 Q 503.6 114.6, 503.2 115.0 Q 502.9 115.4, 502.9 116.3 Q 502.9 117.1, 503.2 117.6 Q 503.6 118.0, 504.2 118.0 " fill="#FF0000"/>
<path class="atom-0" d="M 506.8 114.2 L 507.4 114.2 L 507.4 116.0 L 509.6 116.0 L 509.6 114.2 L 510.1 114.2 L 510.1 118.4 L 509.6 118.4 L 509.6 116.5 L 507.4 116.5 L 507.4 118.4 L 506.8 118.4 L 506.8 114.2 " fill="#FF0000"/>
<path class="atom-5" d="M 452.2 113.1 Q 452.2 112.1, 452.7 111.5 Q 453.2 111.0, 454.1 111.0 Q 455.1 111.0, 455.6 111.5 Q 456.1 112.1, 456.1 113.1 Q 456.1 114.2, 455.6 114.7 Q 455.0 115.3, 454.1 115.3 Q 453.2 115.3, 452.7 114.7 Q 452.2 114.2, 452.2 113.1 M 454.1 114.8 Q 454.8 114.8, 455.1 114.4 Q 455.5 114.0, 455.5 113.1 Q 455.5 112.3, 455.1 111.9 Q 454.8 111.4, 454.1 111.4 Q 453.5 111.4, 453.1 111.9 Q 452.8 112.3, 452.8 113.1 Q 452.8 114.0, 453.1 114.4 Q 453.5 114.8, 454.1 114.8 " fill="#FF0000"/>
<path class="atom-5" d="M 456.7 111.0 L 457.3 111.0 L 457.3 112.8 L 459.5 112.8 L 459.5 111.0 L 460.1 111.0 L 460.1 115.3 L 459.5 115.3 L 459.5 113.3 L 457.3 113.3 L 457.3 115.3 L 456.7 115.3 L 456.7 111.0 " fill="#FF0000"/>
<path class="atom-8" d="M 439.4 63.6 L 439.9 63.6 L 439.9 65.4 L 442.1 65.4 L 442.1 63.6 L 442.7 63.6 L 442.7 67.8 L 442.1 67.8 L 442.1 65.8 L 439.9 65.8 L 439.9 67.8 L 439.4 67.8 L 439.4 63.6 " fill="#FF0000"/>
<path class="atom-8" d="M 443.6 65.7 Q 443.6 64.7, 444.1 64.1 Q 444.6 63.5, 445.5 63.5 Q 446.5 63.5, 447.0 64.1 Q 447.5 64.7, 447.5 65.7 Q 447.5 66.7, 446.9 67.3 Q 446.4 67.9, 445.5 67.9 Q 444.6 67.9, 444.1 67.3 Q 443.6 66.7, 443.6 65.7 M 445.5 67.4 Q 446.2 67.4, 446.5 67.0 Q 446.9 66.5, 446.9 65.7 Q 446.9 64.8, 446.5 64.4 Q 446.2 64.0, 445.5 64.0 Q 444.9 64.0, 444.5 64.4 Q 444.2 64.8, 444.2 65.7 Q 444.2 66.5, 444.5 67.0 Q 444.9 67.4, 445.5 67.4 " fill="#FF0000"/>
<path class="atom-11" d="M 489.0 81.9 Q 489.0 80.9, 489.5 80.4 Q 490.0 79.8, 490.9 79.8 Q 491.8 79.8, 492.4 80.4 Q 492.9 80.9, 492.9 81.9 Q 492.9 83.0, 492.3 83.6 Q 491.8 84.1, 490.9 84.1 Q 490.0 84.1, 489.5 83.6 Q 489.0 83.0, 489.0 81.9 M 490.9 83.7 Q 491.6 83.7, 491.9 83.2 Q 492.3 82.8, 492.3 81.9 Q 492.3 81.1, 491.9 80.7 Q 491.6 80.3, 490.9 80.3 Q 490.3 80.3, 489.9 80.7 Q 489.6 81.1, 489.6 81.9 Q 489.6 82.8, 489.9 83.2 Q 490.3 83.7, 490.9 83.7 " fill="#FF0000"/>
<path class="atom-17" d="M 552.8 82.6 Q 552.8 81.6, 553.3 81.0 Q 553.8 80.5, 554.7 80.5 Q 555.6 80.5, 556.1 81.0 Q 556.7 81.6, 556.7 82.6 Q 556.7 83.7, 556.1 84.2 Q 555.6 84.8, 554.7 84.8 Q 553.8 84.8, 553.3 84.2 Q 552.8 83.7, 552.8 82.6 M 554.7 84.3 Q 555.3 84.3, 555.7 83.9 Q 556.1 83.5, 556.1 82.6 Q 556.1 81.8, 555.7 81.4 Q 555.3 80.9, 554.7 80.9 Q 554.1 80.9, 553.7 81.4 Q 553.4 81.8, 553.4 82.6 Q 553.4 83.5, 553.7 83.9 Q 554.1 84.3, 554.7 84.3 " fill="#FF0000"/>
<path class="atom-17" d="M 557.3 80.5 L 557.9 80.5 L 557.9 82.3 L 560.1 82.3 L 560.1 80.5 L 560.6 80.5 L 560.6 84.8 L 560.1 84.8 L 560.1 82.8 L 557.9 82.8 L 557.9 84.8 L 557.3 84.8 L 557.3 80.5 " fill="#FF0000"/>
<path class="legend" d="M 495.6 184.2 Q 495.6 181.4, 496.9 179.9 Q 498.3 178.4, 500.8 178.4 Q 503.1 178.4, 504.4 180.0 L 503.3 180.9 Q 502.4 179.7, 500.8 179.7 Q 499.1 179.7, 498.2 180.9 Q 497.3 182.0, 497.3 184.2 Q 497.3 186.4, 498.2 187.6 Q 499.1 188.7, 501.0 188.7 Q 502.2 188.7, 503.7 188.0 L 504.1 189.2 Q 503.5 189.6, 502.6 189.8 Q 501.7 190.0, 500.7 190.0 Q 498.3 190.0, 496.9 188.5 Q 495.6 187.0, 495.6 184.2 " fill="#000000"/>
<path class="bond-0 atom-0 atom-1" d="M 618.6,81.1 L 632.1,77.5" style="fill:none;fill-rule:evenodd;stroke:#000000;stroke-width:2.0px;stroke-linecap:butt;stroke-linejoin:miter;stroke-opacity:1"/>
<path class="bond-1 atom-1 atom-2" d="M 632.1,77.5 L 641.9,87.4" style="fill:none;fill-rule:evenodd;stroke:#000000;stroke-width:2.0px;stroke-linecap:butt;stroke-linejoin:miter;stroke-opacity:1"/>
<path class="bond-2 atom-2 atom-3" d="M 641.9,87.4 L 655.4,83.7" style="fill:none;fill-rule:evenodd;stroke:#000000;stroke-width:2.0px;stroke-linecap:butt;stroke-linejoin:miter;stroke-opacity:1"/>
<path class="bond-3 atom-3 atom-4" d="M 655.4,83.7 L 665.2,93.6" style="fill:none;fill-rule:evenodd;stroke:#000000;stroke-width:2.0px;stroke-linecap:butt;stroke-linejoin:miter;stroke-opacity:1"/>
<path class="bond-4 atom-4 atom-5" d="M 665.2,93.6 L 678.7,90.0" style="fill:none;fill-rule:evenodd;stroke:#000000;stroke-width:2.0px;stroke-linecap:butt;stroke-linejoin:miter;stroke-opacity:1"/>
<path class="bond-5 atom-5 atom-6" d="M 678.7,90.0 L 688.5,99.8" style="fill:none;fill-rule:evenodd;stroke:#000000;stroke-width:2.0px;stroke-linecap:butt;stroke-linejoin:miter;stroke-opacity:1"/>
<path class="bond-6 atom-6 atom-7" d="M 688.5,99.8 L 702.0,96.2" style="fill:none;fill-rule:evenodd;stroke:#000000;stroke-width:2.0px;stroke-linecap:butt;stroke-linejoin:miter;stroke-opacity:1"/>
<path class="bond-7 atom-7 atom-8" d="M 702.0,96.2 L 711.8,106.0" style="fill:none;fill-rule:evenodd;stroke:#000000;stroke-width:2.0px;stroke-linecap:butt;stroke-linejoin:miter;stroke-opacity:1"/>
<path class="bond-7 atom-7 atom-8" d="M 701.3,98.5 L 710.3,107.5" style="fill:none;fill-rule:evenodd;stroke:#000000;stroke-width:2.0px;stroke-linecap:butt;stroke-linejoin:miter;stroke-opacity:1;stroke-dasharray:6,4"/>
<path class="bond-8 atom-8 atom-9" d="M 711.8,106.0 L 725.3,102.4" style="fill:none;fill-rule:evenodd;stroke:#000000;stroke-width:2.0px;stroke-linecap:butt;stroke-linejoin:miter;stroke-opacity:1"/>
<path class="bond-8 atom-8 atom-9" d="M 712.4,103.7 L 724.7,100.4" style="fill:none;fill-rule:evenodd;stroke:#000000;stroke-width:2.0px;stroke-linecap:butt;stroke-linejoin:miter;stroke-opacity:1;stroke-dasharray:6,4"/>
<path class="bond-9 atom-9 atom-10" d="M 725.3,102.4 L 735.1,112.2" style="fill:none;fill-rule:evenodd;stroke:#000000;stroke-width:2.0px;stroke-linecap:butt;stroke-linejoin:miter;stroke-opacity:1"/>
<path class="bond-9 atom-9 atom-10" d="M 724.6,104.7 L 732.8,112.9" style="fill:none;fill-rule:evenodd;stroke:#000000;stroke-width:2.0px;stroke-linecap:butt;stroke-linejoin:miter;stroke-opacity:1;stroke-dasharray:6,4"/>
<path class="bond-10 atom-10 atom-11" d="M 735.1,112.2 L 731.5,125.7" style="fill:none;fill-rule:evenodd;stroke:#000000;stroke-width:2.0px;stroke-linecap:butt;stroke-linejoin:miter;stroke-opacity:1"/>
<path class="bond-10 atom-10 atom-11" d="M 732.8,112.9 L 729.8,124.0" style="fill:none;fill-rule:evenodd;stroke:#000000;stroke-width:2.0px;stroke-linecap:butt;stroke-linejoin:miter;stroke-opacity:1;stroke-dasharray:6,4"/>
<path class="bond-11 atom-11 atom-12" d="M 731.5,125.7 L 718.1,129.3" style="fill:none;fill-rule:evenodd;stroke:#000000;stroke-width:2.0px;stroke-linecap:butt;stroke-linejoin:miter;stroke-opacity:1"/>
<path class="bond-11 atom-11 atom-12" d="M 729.8,124.0 L 717.5,127.3" style="fill:none;fill-rule:evenodd;stroke:#000000;stroke-width:2.0px;stroke-linecap:butt;stroke-linejoin:miter;stroke-opacity:1;stroke-dasharray:6,4"/>
<path class="bond-12 atom-10 atom-13" d="M 735.1,112.2 L 740.6,110.8" style="fill:none;fill-rule:evenodd;stroke:#000000;stroke-width:2.0px;stroke-linecap:butt;stroke-linejoin:miter;stroke-opacity:1"/>
<path class="bond-12 atom-10 atom-13" d="M 740.6,110.8 L 746.1,109.3" style="fill:none;fill-rule:evenodd;stroke:#FF0000;stroke-width:2.0px;stroke-linecap:butt;stroke-linejoin:miter;stroke-opacity:1"/>
<path class="bond-13 atom-13 atom-14" d="M 749.2,106.0 L 750.7,100.6" style="fill:none;fill-rule:evenodd;stroke:#FF0000;stroke-width:2.0px;stroke-linecap:butt;stroke-linejoin:miter;stroke-opacity:1"/>
<path class="bond-13 atom-13 atom-14" d="M 750.7,100.6 L 752.1,95.2" style="fill:none;fill-rule:evenodd;stroke:#000000;stroke-width:2.0px;stroke-linecap:butt;stroke-linejoin:miter;stroke-opacity:1"/>
<path class="bond-14 atom-14 atom-15" d="M 752.1,95.2 L 748.4,91.5" style="fill:none;fill-rule:evenodd;stroke:#000000;stroke-width:2.0px;stroke-linecap:butt;stroke-linejoin:miter;stroke-opacity:1"/>
<path class="bond-14 atom-14 atom-15" d="M 748.4,91.5 L 744.7,87.8" style="fill:none;fill-rule:evenodd;stroke:#FF0000;stroke-width:2.0px;stroke-linecap:butt;stroke-linejoin:miter;stroke-opacity:1"/>
<path class="bond-15 atom-15 atom-16" d="M 743.0,82.7 L 744.4,77.3" style="fill:none;fill-rule:evenodd;stroke:#FF0000;stroke-width:2.0px;stroke-linecap:butt;stroke-linejoin:miter;stroke-opacity:1"/>
<path class="bond-15 atom-15 atom-16" d="M 744.4,77.3 L 745.9,71.9" style="fill:none;fill-rule:evenodd;stroke:#000000;stroke-width:2.0px;stroke-linecap:butt;stroke-linejoin:miter;stroke-opacity:1"/>
<path class="bond-16 atom-16 atom-17" d="M 745.9,71.9 L 736.0,62.1" style="fill:none;fill-rule:evenodd;stroke:#000000;stroke-width:2.0px;stroke-linecap:butt;stroke-linejoin:miter;stroke-opacity:1"/>
<path class="bond-17 atom-17 atom-18" d="M 736.0,62.1 L 730.5,63.5" style="fill:none;fill-rule:evenodd;stroke:#000000;stroke-width:2.0px;stroke-linecap:butt;stroke-linejoin:miter;stroke-opacity:1"/>
<path class="bond-17 atom-17 atom-18" d="M 730.5,63.5 L 725.0,65.0" style="fill:none;fill-rule:evenodd;stroke:#FF0000;stroke-width:2.0px;stroke-linecap:butt;stroke-linejoin:miter;stroke-opacity:1"/>
<path class="bond-18 atom-16 atom-19" d="M 745.9,71.9 L 759.3,68.3" style="fill:none;fill-rule:evenodd;stroke:#000000;stroke-width:2.0px;stroke-linecap:butt;stroke-linejoin:miter;stroke-opacity:1"/>
<path class="bond-19 atom-19 atom-20" d="M 759.3,68.3 L 760.8,62.9" style="fill:none;fill-rule:evenodd;stroke:#000000;stroke-width:2.0px;stroke-linecap:butt;stroke-linejoin:miter;stroke-opacity:1"/>
<path class="bond-19 atom-19 atom-20" d="M 760.8,62.9 L 762.2,57.5" style="fill:none;fill-rule:evenodd;stroke:#FF0000;stroke-width:2.0px;stroke-linecap:butt;stroke-linejoin:miter;stroke-opacity:1"/>
<path class="bond-20 atom-19 atom-21" d="M 759.3,68.3 L 769.2,78.1" style="fill:none;fill-rule:evenodd;stroke:#000000;stroke-width:2.0px;stroke-linecap:butt;stroke-linejoin:miter;stroke-opacity:1"/>
<path class="bond-21 atom-21 atom-22" d="M 769.2,78.1 L 765.6,91.6" style="fill:none;fill-rule:evenodd;stroke:#000000;stroke-width:2.0px;stroke-linecap:butt;stroke-linejoin:miter;stroke-opacity:1"/>
<path class="bond-22 atom-22 atom-23" d="M 765.6,91.6 L 769.3,95.3" style="fill:none;fill-rule:evenodd;stroke:#000000;stroke-width:2.0px;stroke-linecap:butt;stroke-linejoin:miter;stroke-opacity:1"/>
<path class="bond-22 atom-22 atom-23" d="M 769.3,95.3 L 773.0,99.0" style="fill:none;fill-rule:evenodd;stroke:#FF0000;stroke-width:2.0px;stroke-linecap:butt;stroke-linejoin:miter;stroke-opacity:1"/>
<path class="bond-23 atom-22 atom-14" d="M 765.6,91.6 L 752.1,95.2" style="fill:none;fill-rule:evenodd;stroke:#000000;stroke-width:2.0px;stroke-linecap:butt;stroke-linejoin:miter;stroke-opacity:1"/>
<path d="M 631.4,77.7 L 632.1,77.5 L 632.6,78.0" style="fill:none;stroke:#000000;stroke-width:2.0px;stroke-linecap:butt;stroke-linejoin:miter;stroke-opacity:1;"/>
<path d="M 641.4,86.9 L 641.9,87.4 L 642.6,87.2" style="fill:none;stroke:#000000;stroke-width:2.0px;stroke-linecap:butt;stroke-linejoin:miter;stroke-opacity:1;"/>
<path d="M 654.7,83.9 L 655.4,83.7 L 655.9,84.2" style="fill:none;stroke:#000000;stroke-width:2.0px;stroke-linecap:butt;stroke-linejoin:miter;stroke-opacity:1;"/>
<path d="M 664.7,93.1 L 665.2,93.6 L 665.9,93.4" style="fill:none;stroke:#000000;stroke-width:2.0px;stroke-linecap:butt;stroke-linejoin:miter;stroke-opacity:1;"/>
<path d="M 678.0,90.1 L 678.7,90.0 L 679.2,90.5" style="fill:none;stroke:#000000;stroke-width:2.0px;stroke-linecap:butt;stroke-linejoin:miter;stroke-opacity:1;"/>
<path d="M 688.0,99.3 L 688.5,99.8 L 689.2,99.6" style="fill:none;stroke:#000000;stroke-width:2.0px;stroke-linecap:butt;stroke-linejoin:miter;stroke-opacity:1;"/>
<path d="M 701.3,96.4 L 702.0,96.2 L 702.5,96.7" style="fill:none;stroke:#000000;stroke-width:2.0px;stroke-linecap:butt;stroke-linejoin:miter;stroke-opacity:1;"/>
<path d="M 711.3,105.5 L 711.8,106.0 L 712.5,105.8" style="fill:none;stroke:#000000;stroke-width:2.0px;stroke-linecap:butt;stroke-linejoin:miter;stroke-opacity:1;"/>
<path d="M 724.6,102.6 L 725.3,102.4 L 725.7,102.9" style="fill:none;stroke:#000000;stroke-width:2.0px;stroke-linecap:butt;stroke-linejoin:miter;stroke-opacity:1;"/>
<path d="M 731.7,125.0 L 731.5,125.7 L 730.8,125.9" style="fill:none;stroke:#000000;stroke-width:2.0px;stroke-linecap:butt;stroke-linejoin:miter;stroke-opacity:1;"/>
<path d="M 736.5,62.6 L 736.0,62.1 L 735.8,62.1" style="fill:none;stroke:#000000;stroke-width:2.0px;stroke-linecap:butt;stroke-linejoin:miter;stroke-opacity:1;"/>
<path d="M 768.7,77.6 L 769.2,78.1 L 769.0,78.8" style="fill:none;stroke:#000000;stroke-width:2.0px;stroke-linecap:butt;stroke-linejoin:miter;stroke-opacity:1;"/>
<path class="atom-13" d="M 746.6 108.6 Q 746.6 107.6, 747.1 107.1 Q 747.6 106.5, 748.6 106.5 Q 749.5 106.5, 750.0 107.1 Q 750.5 107.6, 750.5 108.6 Q 750.5 109.7, 750.0 110.3 Q 749.5 110.8, 748.6 110.8 Q 747.6 110.8, 747.1 110.3 Q 746.6 109.7, 746.6 108.6 M 748.6 110.4 Q 749.2 110.4, 749.5 109.9 Q 749.9 109.5, 749.9 108.6 Q 749.9 107.8, 749.5 107.4 Q 749.2 107.0, 748.6 107.0 Q 747.9 107.0, 747.5 107.4 Q 747.2 107.8, 747.2 108.6 Q 747.2 109.5, 747.5 109.9 Q 747.9 110.4, 748.6 110.4 " fill="#FF0000"/>
<path class="atom-15" d="M 740.3 85.4 Q 740.3 84.3, 740.8 83.8 Q 741.3 83.2, 742.3 83.2 Q 743.2 83.2, 743.7 83.8 Q 744.2 84.3, 744.2 85.4 Q 744.2 86.4, 743.7 87.0 Q 743.2 87.6, 742.3 87.6 Q 741.4 87.6, 740.8 87.0 Q 740.3 86.4, 740.3 85.4 M 742.3 87.1 Q 742.9 87.1, 743.3 86.7 Q 743.6 86.2, 743.6 85.4 Q 743.6 84.5, 743.3 84.1 Q 742.9 83.7, 742.3 83.7 Q 741.6 83.7, 741.3 84.1 Q 740.9 84.5, 740.9 85.4 Q 740.9 86.2, 741.3 86.7 Q 741.6 87.1, 742.3 87.1 " fill="#FF0000"/>
<path class="atom-18" d="M 716.4 63.6 L 717.0 63.6 L 717.0 65.4 L 719.2 65.4 L 719.2 63.6 L 719.8 63.6 L 719.8 67.8 L 719.2 67.8 L 719.2 65.9 L 717.0 65.9 L 717.0 67.8 L 716.4 67.8 L 716.4 63.6 " fill="#FF0000"/>
<path class="atom-18" d="M 720.6 65.7 Q 720.6 64.7, 721.1 64.1 Q 721.6 63.5, 722.6 63.5 Q 723.5 63.5, 724.0 64.1 Q 724.5 64.7, 724.5 65.7 Q 724.5 66.7, 724.0 67.3 Q 723.5 67.9, 722.6 67.9 Q 721.7 67.9, 721.1 67.3 Q 720.6 66.7, 720.6 65.7 M 722.6 67.4 Q 723.2 67.4, 723.6 67.0 Q 723.9 66.5, 723.9 65.7 Q 723.9 64.9, 723.6 64.4 Q 723.2 64.0, 722.6 64.0 Q 721.9 64.0, 721.6 64.4 Q 721.2 64.8, 721.2 65.7 Q 721.2 66.5, 721.6 67.0 Q 721.9 67.4, 722.6 67.4 " fill="#FF0000"/>
<path class="atom-20" d="M 761.0 54.8 Q 761.0 53.8, 761.5 53.3 Q 762.0 52.7, 762.9 52.7 Q 763.9 52.7, 764.4 53.3 Q 764.9 53.8, 764.9 54.8 Q 764.9 55.9, 764.4 56.5 Q 763.8 57.0, 762.9 57.0 Q 762.0 57.0, 761.5 56.5 Q 761.0 55.9, 761.0 54.8 M 762.9 56.6 Q 763.6 56.6, 763.9 56.1 Q 764.3 55.7, 764.3 54.8 Q 764.3 54.0, 763.9 53.6 Q 763.6 53.2, 762.9 53.2 Q 762.3 53.2, 761.9 53.6 Q 761.6 54.0, 761.6 54.8 Q 761.6 55.7, 761.9 56.1 Q 762.3 56.6, 762.9 56.6 " fill="#FF0000"/>
<path class="atom-20" d="M 765.5 52.7 L 766.1 52.7 L 766.1 54.5 L 768.3 54.5 L 768.3 52.7 L 768.9 52.7 L 768.9 57.0 L 768.3 57.0 L 768.3 55.0 L 766.1 55.0 L 766.1 57.0 L 765.5 57.0 L 765.5 52.7 " fill="#FF0000"/>
<path class="atom-23" d="M 773.5 101.4 Q 773.5 100.4, 774.0 99.8 Q 774.5 99.3, 775.4 99.3 Q 776.4 99.3, 776.9 99.8 Q 777.4 100.4, 777.4 101.4 Q 777.4 102.5, 776.9 103.0 Q 776.4 103.6, 775.4 103.6 Q 774.5 103.6, 774.0 103.0 Q 773.5 102.5, 773.5 101.4 M 775.4 103.1 Q 776.1 103.1, 776.4 102.7 Q 776.8 102.3, 776.8 101.4 Q 776.8 100.6, 776.4 100.2 Q 776.1 99.7, 775.4 99.7 Q 774.8 99.7, 774.4 100.2 Q 774.1 100.6, 774.1 101.4 Q 774.1 102.3, 774.4 102.7 Q 774.8 103.1, 775.4 103.1 " fill="#FF0000"/>
<path class="atom-23" d="M 778.0 99.3 L 778.6 99.3 L 778.6 101.1 L 780.8 101.1 L 780.8 99.3 L 781.4 99.3 L 781.4 103.6 L 780.8 103.6 L 780.8 101.6 L 778.6 101.6 L 778.6 103.6 L 778.0 103.6 L 778.0 99.3 " fill="#FF0000"/>
<path class="legend" d="M 699.2 178.7 Q 701.7 178.7, 703.1 180.2 Q 704.4 181.6, 704.4 184.3 Q 704.4 187.0, 703.1 188.5 Q 701.7 190.0, 699.2 190.0 L 695.6 190.0 L 695.6 178.7 L 699.2 178.7 M 699.2 188.7 Q 701.0 188.7, 701.9 187.6 Q 702.8 186.5, 702.8 184.3 Q 702.8 182.1, 701.9 181.0 Q 701.0 180.0, 699.2 180.0 L 697.1 180.0 L 697.1 188.7 L 699.2 188.7 " fill="#000000"/>
<path class="bond-0 atom-0 atom-1" d="M 139.2,286.5 L 127.5,294.1" style="fill:none;fill-rule:evenodd;stroke:#000000;stroke-width:2.0px;stroke-linecap:butt;stroke-linejoin:miter;stroke-opacity:1"/>
<path class="bond-1 atom-1 atom-2" d="M 127.5,294.1 L 127.9,299.7" style="fill:none;fill-rule:evenodd;stroke:#000000;stroke-width:2.0px;stroke-linecap:butt;stroke-linejoin:miter;stroke-opacity:1"/>
<path class="bond-1 atom-1 atom-2" d="M 127.9,299.7 L 128.2,305.4" style="fill:none;fill-rule:evenodd;stroke:#FF0000;stroke-width:2.0px;stroke-linecap:butt;stroke-linejoin:miter;stroke-opacity:1"/>
<path class="bond-2 atom-1 atom-3" d="M 127.5,294.1 L 115.1,287.8" style="fill:none;fill-rule:evenodd;stroke:#000000;stroke-width:2.0px;stroke-linecap:butt;stroke-linejoin:miter;stroke-opacity:1"/>
<path class="bond-3 atom-3 atom-4" d="M 115.1,287.8 L 114.8,282.2" style="fill:none;fill-rule:evenodd;stroke:#000000;stroke-width:2.0px;stroke-linecap:butt;stroke-linejoin:miter;stroke-opacity:1"/>
<path class="bond-3 atom-3 atom-4" d="M 114.8,282.2 L 114.5,276.6" style="fill:none;fill-rule:evenodd;stroke:#FF0000;stroke-width:2.0px;stroke-linecap:butt;stroke-linejoin:miter;stroke-opacity:1"/>
<path class="bond-4 atom-3 atom-5" d="M 115.1,287.8 L 103.5,295.5" style="fill:none;fill-rule:evenodd;stroke:#000000;stroke-width:2.0px;stroke-linecap:butt;stroke-linejoin:miter;stroke-opacity:1"/>
<path class="bond-5 atom-5 atom-6" d="M 103.5,295.5 L 91.0,289.2" style="fill:none;fill-rule:evenodd;stroke:#000000;stroke-width:2.0px;stroke-linecap:butt;stroke-linejoin:miter;stroke-opacity:1"/>
<path class="bond-6 atom-6 atom-7" d="M 91.0,289.2 L 79.4,296.8" style="fill:none;fill-rule:evenodd;stroke:#000000;stroke-width:2.0px;stroke-linecap:butt;stroke-linejoin:miter;stroke-opacity:1"/>
<path class="bond-7 atom-7 atom-8" d="M 79.4,296.8 L 74.4,294.3" style="fill:none;fill-rule:evenodd;stroke:#000000;stroke-width:2.0px;stroke-linecap:butt;stroke-linejoin:miter;stroke-opacity:1"/>
<path class="bond-7 atom-7 atom-8" d="M 74.4,294.3 L 69.4,291.8" style="fill:none;fill-rule:evenodd;stroke:#FF0000;stroke-width:2.0px;stroke-linecap:butt;stroke-linejoin:miter;stroke-opacity:1"/>
<path d="M 104.0,295.1 L 103.5,295.5 L 102.8,295.1" style="fill:none;stroke:#000000;stroke-width:2.0px;stroke-linecap:butt;stroke-linejoin:miter;stroke-opacity:1;"/>
<path d="M 91.7,289.5 L 91.0,289.2 L 90.5,289.6" style="fill:none;stroke:#000000;stroke-width:2.0px;stroke-linecap:butt;stroke-linejoin:miter;stroke-opacity:1;"/>
<path d="M 80.0,296.4 L 79.4,296.8 L 79.1,296.7" style="fill:none;stroke:#000000;stroke-width:2.0px;stroke-linecap:butt;stroke-linejoin:miter;stroke-opacity:1;"/>
<path class="atom-2" d="M 126.4 308.0 Q 126.4 307.0, 126.9 306.4 Q 127.4 305.9, 128.3 305.9 Q 129.3 305.9, 129.8 306.4 Q 130.3 307.0, 130.3 308.0 Q 130.3 309.0, 129.8 309.6 Q 129.3 310.2, 128.3 310.2 Q 127.4 310.2, 126.9 309.6 Q 126.4 309.1, 126.4 308.0 M 128.3 309.7 Q 129.0 309.7, 129.3 309.3 Q 129.7 308.9, 129.7 308.0 Q 129.7 307.2, 129.3 306.8 Q 129.0 306.3, 128.3 306.3 Q 127.7 306.3, 127.3 306.8 Q 127.0 307.2, 127.0 308.0 Q 127.0 308.9, 127.3 309.3 Q 127.7 309.7, 128.3 309.7 " fill="#FF0000"/>
<path class="atom-2" d="M 130.9 305.9 L 131.5 305.9 L 131.5 307.7 L 133.7 307.7 L 133.7 305.9 L 134.3 305.9 L 134.3 310.2 L 133.7 310.2 L 133.7 308.2 L 131.5 308.2 L 131.5 310.2 L 130.9 310.2 L 130.9 305.9 " fill="#FF0000"/>
<path class="atom-4" d="M 112.4 273.9 Q 112.4 272.9, 112.9 272.4 Q 113.4 271.8, 114.3 271.8 Q 115.3 271.8, 115.8 272.4 Q 116.3 272.9, 116.3 273.9 Q 116.3 275.0, 115.8 275.6 Q 115.3 276.1, 114.3 276.1 Q 113.4 276.1, 112.9 275.6 Q 112.4 275.0, 112.4 273.9 M 114.3 275.7 Q 115.0 275.7, 115.3 275.2 Q 115.7 274.8, 115.7 273.9 Q 115.7 273.1, 115.3 272.7 Q 115.0 272.3, 114.3 272.3 Q 113.7 272.3, 113.3 272.7 Q 113.0 273.1, 113.0 273.9 Q 113.0 274.8, 113.3 275.2 Q 113.7 275.7, 114.3 275.7 " fill="#FF0000"/>
<path class="atom-4" d="M 116.9 271.8 L 117.5 271.8 L 117.5 273.6 L 119.7 273.6 L 119.7 271.8 L 120.3 271.8 L 120.3 276.1 L 119.7 276.1 L 119.7 274.1 L 117.5 274.1 L 117.5 276.1 L 116.9 276.1 L 116.9 271.8 " fill="#FF0000"/>
<path class="atom-8" d="M 60.8 288.4 L 61.4 288.4 L 61.4 290.2 L 63.6 290.2 L 63.6 288.4 L 64.1 288.4 L 64.1 292.7 L 63.6 292.7 L 63.6 290.7 L 61.4 290.7 L 61.4 292.7 L 60.8 292.7 L 60.8 288.4 " fill="#FF0000"/>
<path class="atom-8" d="M 65.0 290.6 Q 65.0 289.5, 65.5 289.0 Q 66.0 288.4, 67.0 288.4 Q 67.9 288.4, 68.4 289.0 Q 68.9 289.5, 68.9 290.6 Q 68.9 291.6, 68.4 292.2 Q 67.9 292.8, 67.0 292.8 Q 66.0 292.8, 65.5 292.2 Q 65.0 291.6, 65.0 290.6 M 67.0 292.3 Q 67.6 292.3, 68.0 291.8 Q 68.3 291.4, 68.3 290.6 Q 68.3 289.7, 68.0 289.3 Q 67.6 288.9, 67.0 288.9 Q 66.3 288.9, 66.0 289.3 Q 65.6 289.7, 65.6 290.6 Q 65.6 291.4, 66.0 291.8 Q 66.3 292.3, 67.0 292.3 " fill="#FF0000"/>
<path class="legend" d="M 96.5 378.7 L 103.3 378.7 L 103.3 380.0 L 98.1 380.0 L 98.1 383.4 L 102.8 383.4 L 102.8 384.7 L 98.1 384.7 L 98.1 388.7 L 103.5 388.7 L 103.5 390.0 L 96.5 390.0 L 96.5 378.7 " fill="#000000"/>
</svg>