<svg xmlns="http://www.w3.org/2000/svg" xmlns:rdkit="http://www.rdkit.org/xml" xmlns:xlink="http://www.w3.org/1999/xlink" version="1.1" baseProfile="full" xml:space="preserve" width="800px" height="200px" viewBox="0 0 800 200">
<!-- END OF HEADER -->
<rect style="opacity:1.0;fill:#FFFFFF;stroke:none" width="800.0" height="200.0" x="0.0" y="0.0"> </rect>
<path class="bond-0 atom-0 atom-1" d="M 10.0,125.4 L 36.6,113.7" style="fill:none;fill-rule:evenodd;stroke:#000000;stroke-width:2.0px;stroke-linecap:butt;stroke-linejoin:miter;stroke-opacity:1"/>
<path class="bond-1 atom-1 atom-2" d="M 36.6,113.7 L 39.8,84.8" style="fill:none;fill-rule:evenodd;stroke:#000000;stroke-width:2.0px;stroke-linecap:butt;stroke-linejoin:miter;stroke-opacity:1"/>
<path class="bond-1 atom-1 atom-2" d="M 41.2,111.7 L 43.9,87.8" style="fill:none;fill-rule:evenodd;stroke:#000000;stroke-width:2.0px;stroke-linecap:butt;stroke-linejoin:miter;stroke-opacity:1"/>
<path class="bond-2 atom-2 atom-3" d="M 39.8,84.8 L 66.4,73.1" style="fill:none;fill-rule:evenodd;stroke:#000000;stroke-width:2.0px;stroke-linecap:butt;stroke-linejoin:miter;stroke-opacity:1"/>
<path class="bond-3 atom-3 atom-4" d="M 66.4,73.1 L 67.7,61.3" style="fill:none;fill-rule:evenodd;stroke:#000000;stroke-width:2.0px;stroke-linecap:butt;stroke-linejoin:miter;stroke-opacity:1"/>
<path class="bond-3 atom-3 atom-4" d="M 67.7,61.3 L 69.0,49.5" style="fill:none;fill-rule:evenodd;stroke:#FF0000;stroke-width:2.0px;stroke-linecap:butt;stroke-linejoin:miter;stroke-opacity:1"/>
<path class="bond-4 atom-3 atom-5" d="M 66.4,73.1 L 89.9,90.3" style="fill:none;fill-rule:evenodd;stroke:#000000;stroke-width:2.0px;stroke-linecap:butt;stroke-linejoin:miter;stroke-opacity:1"/>
<path class="bond-4 atom-3 atom-5" d="M 65.9,78.1 L 85.3,92.4" style="fill:none;fill-rule:evenodd;stroke:#000000;stroke-width:2.0px;stroke-linecap:butt;stroke-linejoin:miter;stroke-opacity:1"/>
<path class="bond-5 atom-5 atom-6" d="M 89.9,90.3 L 86.7,119.2" style="fill:none;fill-rule:evenodd;stroke:#000000;stroke-width:2.0px;stroke-linecap:butt;stroke-linejoin:miter;stroke-opacity:1"/>
<path class="bond-6 atom-6 atom-7" d="M 86.7,119.2 L 60.1,130.9" style="fill:none;fill-rule:evenodd;stroke:#000000;stroke-width:2.0px;stroke-linecap:butt;stroke-linejoin:miter;stroke-opacity:1"/>
<path class="bond-6 atom-6 atom-7" d="M 82.6,116.3 L 60.6,125.9" style="fill:none;fill-rule:evenodd;stroke:#000000;stroke-width:2.0px;stroke-linecap:butt;stroke-linejoin:miter;stroke-opacity:1"/>
<path class="bond-7 atom-6 atom-8" d="M 86.7,119.2 L 110.1,136.4" style="fill:none;fill-rule:evenodd;stroke:#000000;stroke-width:2.0px;stroke-linecap:butt;stroke-linejoin:miter;stroke-opacity:1"/>
<path class="bond-8 atom-8 atom-9" d="M 110.1,136.4 L 136.8,124.7" style="fill:none;fill-rule:evenodd;stroke:#000000;stroke-width:2.0px;stroke-linecap:butt;stroke-linejoin:miter;stroke-opacity:1"/>
<path class="bond-9 atom-9 atom-10" d="M 136.8,124.7 L 160.2,142.0" style="fill:none;fill-rule:evenodd;stroke:#000000;stroke-width:2.0px;stroke-linecap:butt;stroke-linejoin:miter;stroke-opacity:1"/>
<path class="bond-9 atom-9 atom-10" d="M 141.4,122.7 L 160.7,136.9" style="fill:none;fill-rule:evenodd;stroke:#000000;stroke-width:2.0px;stroke-linecap:butt;stroke-linejoin:miter;stroke-opacity:1"/>
<path class="bond-10 atom-10 atom-11" d="M 160.2,142.0 L 186.8,130.3" style="fill:none;fill-rule:evenodd;stroke:#000000;stroke-width:2.0px;stroke-linecap:butt;stroke-linejoin:miter;stroke-opacity:1"/>
<path class="bond-11 atom-11 atom-12" d="M 186.8,130.3 L 190.0,101.3" style="fill:none;fill-rule:evenodd;stroke:#000000;stroke-width:2.0px;stroke-linecap:butt;stroke-linejoin:miter;stroke-opacity:1"/>
<path class="bond-11 atom-11 atom-12" d="M 182.8,127.3 L 185.4,103.4" style="fill:none;fill-rule:evenodd;stroke:#000000;stroke-width:2.0px;stroke-linecap:butt;stroke-linejoin:miter;stroke-opacity:1"/>
<path class="bond-12 atom-12 atom-13" d="M 190.0,101.3 L 166.6,84.1" style="fill:none;fill-rule:evenodd;stroke:#000000;stroke-width:2.0px;stroke-linecap:butt;stroke-linejoin:miter;stroke-opacity:1"/>
<path class="bond-13 atom-13 atom-14" d="M 166.6,84.1 L 167.9,72.3" style="fill:none;fill-rule:evenodd;stroke:#000000;stroke-width:2.0px;stroke-linecap:butt;stroke-linejoin:miter;stroke-opacity:1"/>
<path class="bond-13 atom-13 atom-14" d="M 167.9,72.3 L 169.2,60.5" style="fill:none;fill-rule:evenodd;stroke:#FF0000;stroke-width:2.0px;stroke-linecap:butt;stroke-linejoin:miter;stroke-opacity:1"/>
<path class="bond-14 atom-13 atom-15" d="M 166.6,84.1 L 139.9,95.8" style="fill:none;fill-rule:evenodd;stroke:#000000;stroke-width:2.0px;stroke-linecap:butt;stroke-linejoin:miter;stroke-opacity:1"/>
<path class="bond-14 atom-13 atom-15" d="M 166.0,89.1 L 144.0,98.8" style="fill:none;fill-rule:evenodd;stroke:#000000;stroke-width:2.0px;stroke-linecap:butt;stroke-linejoin:miter;stroke-opacity:1"/>
<path class="bond-15 atom-15 atom-16" d="M 139.9,95.8 L 116.5,78.6" style="fill:none;fill-rule:evenodd;stroke:#000000;stroke-width:2.0px;stroke-linecap:butt;stroke-linejoin:miter;stroke-opacity:1"/>
<path class="bond-16 atom-16 atom-17" d="M 118.5,80.1 L 119.9,67.7" style="fill:none;fill-rule:evenodd;stroke:#000000;stroke-width:2.0px;stroke-linecap:butt;stroke-linejoin:miter;stroke-opacity:1"/>
<path class="bond-16 atom-16 atom-17" d="M 119.9,67.7 L 121.3,55.2" style="fill:none;fill-rule:evenodd;stroke:#FF0000;stroke-width:2.0px;stroke-linecap:butt;stroke-linejoin:miter;stroke-opacity:1"/>
<path class="bond-16 atom-16 atom-17" d="M 114.2,79.6 L 115.6,67.2" style="fill:none;fill-rule:evenodd;stroke:#000000;stroke-width:2.0px;stroke-linecap:butt;stroke-linejoin:miter;stroke-opacity:1"/>
<path class="bond-16 atom-16 atom-17" d="M 115.6,67.2 L 116.9,54.7" style="fill:none;fill-rule:evenodd;stroke:#FF0000;stroke-width:2.0px;stroke-linecap:butt;stroke-linejoin:miter;stroke-opacity:1"/>
<path class="bond-17 atom-7 atom-1" d="M 60.1,130.9 L 36.6,113.7" style="fill:none;fill-rule:evenodd;stroke:#000000;stroke-width:2.0px;stroke-linecap:butt;stroke-linejoin:miter;stroke-opacity:1"/>
<path class="bond-18 atom-15 atom-9" d="M 139.9,95.8 L 136.8,124.7" style="fill:none;fill-rule:evenodd;stroke:#000000;stroke-width:2.0px;stroke-linecap:butt;stroke-linejoin:miter;stroke-opacity:1"/>
<path class="bond-19 atom-16 atom-5" d="M 116.5,78.6 L 89.9,90.3" style="fill:none;fill-rule:evenodd;stroke:#000000;stroke-width:2.0px;stroke-linecap:butt;stroke-linejoin:miter;stroke-opacity:1"/>
<path d="M 39.6,86.3 L 39.8,84.8 L 41.1,84.2" style="fill:none;stroke:#000000;stroke-width:2.0px;stroke-linecap:butt;stroke-linejoin:miter;stroke-opacity:1;"/>
<path d="M 61.4,130.3 L 60.1,130.9 L 58.9,130.1" style="fill:none;stroke:#000000;stroke-width:2.0px;stroke-linecap:butt;stroke-linejoin:miter;stroke-opacity:1;"/>
<path d="M 109.0,135.6 L 110.1,136.4 L 111.5,135.9" style="fill:none;stroke:#000000;stroke-width:2.0px;stroke-linecap:butt;stroke-linejoin:miter;stroke-opacity:1;"/>
<path d="M 159.0,141.1 L 160.2,142.0 L 161.5,141.4" style="fill:none;stroke:#000000;stroke-width:2.0px;stroke-linecap:butt;stroke-linejoin:miter;stroke-opacity:1;"/>
<path d="M 185.5,130.8 L 186.8,130.3 L 187.0,128.8" style="fill:none;stroke:#000000;stroke-width:2.0px;stroke-linecap:butt;stroke-linejoin:miter;stroke-opacity:1;"/>
<path d="M 189.8,102.8 L 190.0,101.3 L 188.8,100.5" style="fill:none;stroke:#000000;stroke-width:2.0px;stroke-linecap:butt;stroke-linejoin:miter;stroke-opacity:1;"/>
<path d="M 117.7,79.5 L 116.5,78.6 L 115.2,79.2" style="fill:none;stroke:#000000;stroke-width:2.0px;stroke-linecap:butt;stroke-linejoin:miter;stroke-opacity:1;"/>
<path class="atom-4" d="M 65.8 44.2 Q 65.8 42.3, 66.8 41.2 Q 67.8 40.0, 69.6 40.0 Q 71.4 40.0, 72.4 41.2 Q 73.4 42.3, 73.4 44.2 Q 73.4 46.2, 72.4 47.4 Q 71.4 48.5, 69.6 48.5 Q 67.8 48.5, 66.8 47.4 Q 65.8 46.2, 65.8 44.2 M 69.6 47.6 Q 70.9 47.6, 71.5 46.7 Q 72.2 45.9, 72.2 44.2 Q 72.2 42.6, 71.5 41.8 Q 70.9 41.0, 69.6 41.0 Q 68.4 41.0, 67.7 41.8 Q 67.0 42.6, 67.0 44.2 Q 67.0 45.9, 67.7 46.7 Q 68.4 47.6, 69.6 47.6 " fill="#FF0000"/>
<path class="atom-4" d="M 74.7 40.1 L 75.8 40.1 L 75.8 43.6 L 80.0 43.6 L 80.0 40.1 L 81.1 40.1 L 81.1 48.4 L 80.0 48.4 L 80.0 44.6 L 75.8 44.6 L 75.8 48.4 L 74.7 48.4 L 74.7 40.1 " fill="#FF0000"/>
<path class="atom-14" d="M 166.0 55.3 Q 166.0 53.3, 166.9 52.2 Q 167.9 51.1, 169.7 51.1 Q 171.6 51.1, 172.5 52.2 Q 173.5 53.3, 173.5 55.3 Q 173.5 57.3, 172.5 58.4 Q 171.5 59.5, 169.7 59.5 Q 167.9 59.5, 166.9 58.4 Q 166.0 57.3, 166.0 55.3 M 169.7 58.6 Q 171.0 58.6, 171.7 57.8 Q 172.4 56.9, 172.4 55.3 Q 172.4 53.6, 171.7 52.8 Q 171.0 52.0, 169.7 52.0 Q 168.5 52.0, 167.8 52.8 Q 167.1 53.6, 167.1 55.3 Q 167.1 56.9, 167.8 57.8 Q 168.5 58.6, 169.7 58.6 " fill="#FF0000"/>
<path class="atom-14" d="M 174.8 51.2 L 175.9 51.2 L 175.9 54.7 L 180.1 54.7 L 180.1 51.2 L 181.2 51.2 L 181.2 59.4 L 180.1 59.4 L 180.1 55.6 L 175.9 55.6 L 175.9 59.4 L 174.8 59.4 L 174.8 51.2 " fill="#FF0000"/>
<path class="atom-17" d="M 115.9 49.7 Q 115.9 47.8, 116.9 46.7 Q 117.8 45.6, 119.7 45.6 Q 121.5 45.6, 122.5 46.7 Q 123.5 47.8, 123.5 49.7 Q 123.5 51.7, 122.5 52.9 Q 121.5 54.0, 119.7 54.0 Q 117.9 54.0, 116.9 52.9 Q 115.9 51.8, 115.9 49.7 M 119.7 53.1 Q 120.9 53.1, 121.6 52.2 Q 122.3 51.4, 122.3 49.7 Q 122.3 48.1, 121.6 47.3 Q 120.9 46.5, 119.7 46.5 Q 118.4 46.5, 117.7 47.3 Q 117.1 48.1, 117.1 49.7 Q 117.1 51.4, 117.7 52.2 Q 118.4 53.1, 119.7 53.1 " fill="#FF0000"/>
<path class="legend" d="M 103.4 190.0 L 102.2 186.7 L 97.8 186.7 L 96.6 190.0 L 95.1 190.0 L 99.0 178.7 L 100.9 178.7 L 104.9 190.0 L 103.4 190.0 M 98.2 185.4 L 101.8 185.4 L 100.0 180.3 L 98.2 185.4 " fill="#000000"/>
</svg>