<svg xmlns="http://www.w3.org/2000/svg" xmlns:rdkit="http://www.rdkit.org/xml" xmlns:xlink="http://www.w3.org/1999/xlink" version="1.1" baseProfile="full" xml:space="preserve" width="800px" height="400px" viewBox="0 0 800 400">
<!-- END OF HEADER -->
<rect style="opacity:1.0;fill:#FFFFFF;stroke:none" width="800.0" height="400.0" x="0.0" y="0.0"> </rect>
<path class="bond-0 atom-0 atom-1" d="M 131.2,91.0 L 110.4,91.0" style="fill:none;fill-rule:evenodd;stroke:#000000;stroke-width:2.0px;stroke-linecap:butt;stroke-linejoin:miter;stroke-opacity:1"/>
<path class="bond-1 atom-1 atom-2" d="M 110.4,91.0 L 100.0,109.0" style="fill:none;fill-rule:evenodd;stroke:#000000;stroke-width:2.0px;stroke-linecap:butt;stroke-linejoin:miter;stroke-opacity:1"/>
<path class="bond-1 atom-1 atom-2" d="M 106.8,91.0 L 98.2,105.9" style="fill:none;fill-rule:evenodd;stroke:#000000;stroke-width:2.0px;stroke-linecap:butt;stroke-linejoin:miter;stroke-opacity:1"/>
<path class="bond-2 atom-2 atom-3" d="M 100.0,109.0 L 79.2,109.0" style="fill:none;fill-rule:evenodd;stroke:#000000;stroke-width:2.0px;stroke-linecap:butt;stroke-linejoin:miter;stroke-opacity:1"/>
<path class="bond-3 atom-3 atom-4" d="M 79.2,109.0 L 68.8,91.0" style="fill:none;fill-rule:evenodd;stroke:#000000;stroke-width:2.0px;stroke-linecap:butt;stroke-linejoin:miter;stroke-opacity:1"/>
<path class="bond-3 atom-3 atom-4" d="M 81.0,105.9 L 72.4,91.0" style="fill:none;fill-rule:evenodd;stroke:#000000;stroke-width:2.0px;stroke-linecap:butt;stroke-linejoin:miter;stroke-opacity:1"/>
<path class="bond-4 atom-4 atom-5" d="M 68.8,91.0 L 79.2,73.0" style="fill:none;fill-rule:evenodd;stroke:#000000;stroke-width:2.0px;stroke-linecap:butt;stroke-linejoin:miter;stroke-opacity:1"/>
<path class="bond-5 atom-5 atom-6" d="M 79.2,73.0 L 100.0,73.0" style="fill:none;fill-rule:evenodd;stroke:#000000;stroke-width:2.0px;stroke-linecap:butt;stroke-linejoin:miter;stroke-opacity:1"/>
<path class="bond-5 atom-5 atom-6" d="M 81.0,76.1 L 98.2,76.1" style="fill:none;fill-rule:evenodd;stroke:#000000;stroke-width:2.0px;stroke-linecap:butt;stroke-linejoin:miter;stroke-opacity:1"/>
<path class="bond-6 atom-6 atom-1" d="M 100.0,73.0 L 110.4,91.0" style="fill:none;fill-rule:evenodd;stroke:#000000;stroke-width:2.0px;stroke-linecap:butt;stroke-linejoin:miter;stroke-opacity:1"/>
<path d="M 100.5,108.1 L 100.0,109.0 L 99.0,109.0" style="fill:none;stroke:#000000;stroke-width:2.0px;stroke-linecap:butt;stroke-linejoin:miter;stroke-opacity:1;"/>
<path d="M 80.2,109.0 L 79.2,109.0 L 78.7,108.1" style="fill:none;stroke:#000000;stroke-width:2.0px;stroke-linecap:butt;stroke-linejoin:miter;stroke-opacity:1;"/>
<path d="M 69.3,91.9 L 68.8,91.0 L 69.3,90.1" style="fill:none;stroke:#000000;stroke-width:2.0px;stroke-linecap:butt;stroke-linejoin:miter;stroke-opacity:1;"/>
<path d="M 78.7,73.9 L 79.2,73.0 L 80.2,73.0" style="fill:none;stroke:#000000;stroke-width:2.0px;stroke-linecap:butt;stroke-linejoin:miter;stroke-opacity:1;"/>
<path d="M 99.0,73.0 L 100.0,73.0 L 100.5,73.9" style="fill:none;stroke:#000000;stroke-width:2.0px;stroke-linecap:butt;stroke-linejoin:miter;stroke-opacity:1;"/>
<path class="legend" d="M 103.4 190.0 L 102.2 186.7 L 97.8 186.7 L 96.6 190.0 L 95.1 190.0 L 99.0 178.7 L 100.9 178.7 L 104.9 190.0 L 103.4 190.0 M 98.2 185.4 L 101.8 185.4 L 100.0 180.3 L 98.2 185.4 " fill="#000000"/>
<path class="bond-0 atom-0 atom-1" d="M 303.2,125.1 L 298.0,119.0" style="fill:none;fill-rule:evenodd;stroke:#FF0000;stroke-width:2.0px;stroke-linecap:butt;stroke-linejoin:miter;stroke-opacity:1"/>
<path class="bond-0 atom-0 atom-1" d="M 298.0,119.0 L 292.8,112.9" style="fill:none;fill-rule:evenodd;stroke:#000000;stroke-width:2.0px;stroke-linecap:butt;stroke-linejoin:miter;stroke-opacity:1"/>
<path class="bond-1 atom-1 atom-2" d="M 292.8,112.9 L 272.4,116.6" style="fill:none;fill-rule:evenodd;stroke:#000000;stroke-width:2.0px;stroke-linecap:butt;stroke-linejoin:miter;stroke-opacity:1"/>
<path class="bond-2 atom-2 atom-3" d="M 272.4,116.6 L 258.9,100.8" style="fill:none;fill-rule:evenodd;stroke:#000000;stroke-width:2.0px;stroke-linecap:butt;stroke-linejoin:miter;stroke-opacity:1"/>
<path class="bond-3 atom-3 atom-4" d="M 258.9,100.8 L 238.4,104.5" style="fill:none;fill-rule:evenodd;stroke:#000000;stroke-width:2.0px;stroke-linecap:butt;stroke-linejoin:miter;stroke-opacity:1"/>
<path class="bond-3 atom-3 atom-4" d="M 256.6,98.0 L 239.6,101.1" style="fill:none;fill-rule:evenodd;stroke:#000000;stroke-width:2.0px;stroke-linecap:butt;stroke-linejoin:miter;stroke-opacity:1"/>
<path class="bond-4 atom-4 atom-5" d="M 238.4,104.5 L 235.6,112.4" style="fill:none;fill-rule:evenodd;stroke:#000000;stroke-width:2.0px;stroke-linecap:butt;stroke-linejoin:miter;stroke-opacity:1"/>
<path class="bond-4 atom-4 atom-5" d="M 235.6,112.4 L 232.7,120.4" style="fill:none;fill-rule:evenodd;stroke:#FF0000;stroke-width:2.0px;stroke-linecap:butt;stroke-linejoin:miter;stroke-opacity:1"/>
<path class="bond-5 atom-4 atom-6" d="M 238.4,104.5 L 225.0,88.6" style="fill:none;fill-rule:evenodd;stroke:#000000;stroke-width:2.0px;stroke-linecap:butt;stroke-linejoin:miter;stroke-opacity:1"/>
<path class="bond-6 atom-6 atom-7" d="M 225.0,88.6 L 232.0,69.0" style="fill:none;fill-rule:evenodd;stroke:#000000;stroke-width:2.0px;stroke-linecap:butt;stroke-linejoin:miter;stroke-opacity:1"/>
<path class="bond-6 atom-6 atom-7" d="M 228.5,87.9 L 234.3,71.7" style="fill:none;fill-rule:evenodd;stroke:#000000;stroke-width:2.0px;stroke-linecap:butt;stroke-linejoin:miter;stroke-opacity:1"/>
<path class="bond-7 atom-7 atom-8" d="M 232.0,69.0 L 226.8,62.9" style="fill:none;fill-rule:evenodd;stroke:#000000;stroke-width:2.0px;stroke-linecap:butt;stroke-linejoin:miter;stroke-opacity:1"/>
<path class="bond-7 atom-7 atom-8" d="M 226.8,62.9 L 221.7,56.9" style="fill:none;fill-rule:evenodd;stroke:#FF0000;stroke-width:2.0px;stroke-linecap:butt;stroke-linejoin:miter;stroke-opacity:1"/>
<path class="bond-8 atom-7 atom-9" d="M 232.0,69.0 L 252.5,65.3" style="fill:none;fill-rule:evenodd;stroke:#000000;stroke-width:2.0px;stroke-linecap:butt;stroke-linejoin:miter;stroke-opacity:1"/>
<path class="bond-9 atom-9 atom-10" d="M 252.5,65.3 L 265.9,81.2" style="fill:none;fill-rule:evenodd;stroke:#000000;stroke-width:2.0px;stroke-linecap:butt;stroke-linejoin:miter;stroke-opacity:1"/>
<path class="bond-9 atom-9 atom-10" d="M 251.2,68.7 L 262.4,81.8" style="fill:none;fill-rule:evenodd;stroke:#000000;stroke-width:2.0px;stroke-linecap:butt;stroke-linejoin:miter;stroke-opacity:1"/>
<path class="bond-10 atom-10 atom-11" d="M 265.9,81.2 L 274.5,79.6" style="fill:none;fill-rule:evenodd;stroke:#000000;stroke-width:2.0px;stroke-linecap:butt;stroke-linejoin:miter;stroke-opacity:1"/>
<path class="bond-10 atom-10 atom-11" d="M 274.5,79.6 L 283.0,78.1" style="fill:none;fill-rule:evenodd;stroke:#FF0000;stroke-width:2.0px;stroke-linecap:butt;stroke-linejoin:miter;stroke-opacity:1"/>
<path class="bond-11 atom-11 atom-12" d="M 289.6,81.2 L 294.7,87.3" style="fill:none;fill-rule:evenodd;stroke:#FF0000;stroke-width:2.0px;stroke-linecap:butt;stroke-linejoin:miter;stroke-opacity:1"/>
<path class="bond-11 atom-11 atom-12" d="M 294.7,87.3 L 299.9,93.3" style="fill:none;fill-rule:evenodd;stroke:#000000;stroke-width:2.0px;stroke-linecap:butt;stroke-linejoin:miter;stroke-opacity:1"/>
<path class="bond-12 atom-12 atom-13" d="M 299.9,93.3 L 320.3,89.6" style="fill:none;fill-rule:evenodd;stroke:#000000;stroke-width:2.0px;stroke-linecap:butt;stroke-linejoin:miter;stroke-opacity:1"/>
<path class="bond-13 atom-13 atom-14" d="M 320.3,89.6 L 333.8,105.5" style="fill:none;fill-rule:evenodd;stroke:#000000;stroke-width:2.0px;stroke-linecap:butt;stroke-linejoin:miter;stroke-opacity:1"/>
<path class="bond-13 atom-13 atom-14" d="M 323.9,89.0 L 335.0,102.1" style="fill:none;fill-rule:evenodd;stroke:#000000;stroke-width:2.0px;stroke-linecap:butt;stroke-linejoin:miter;stroke-opacity:1"/>
<path class="bond-14 atom-14 atom-15" d="M 333.8,105.5 L 354.3,101.8" style="fill:none;fill-rule:evenodd;stroke:#000000;stroke-width:2.0px;stroke-linecap:butt;stroke-linejoin:miter;stroke-opacity:1"/>
<path class="bond-15 atom-15 atom-16" d="M 354.3,101.8 L 361.3,82.2" style="fill:none;fill-rule:evenodd;stroke:#000000;stroke-width:2.0px;stroke-linecap:butt;stroke-linejoin:miter;stroke-opacity:1"/>
<path class="bond-15 atom-15 atom-16" d="M 351.9,99.0 L 357.7,82.8" style="fill:none;fill-rule:evenodd;stroke:#000000;stroke-width:2.0px;stroke-linecap:butt;stroke-linejoin:miter;stroke-opacity:1"/>
<path class="bond-16 atom-16 atom-17" d="M 361.3,82.2 L 369.8,80.6" style="fill:none;fill-rule:evenodd;stroke:#000000;stroke-width:2.0px;stroke-linecap:butt;stroke-linejoin:miter;stroke-opacity:1"/>
<path class="bond-16 atom-16 atom-17" d="M 369.8,80.6 L 378.4,79.1" style="fill:none;fill-rule:evenodd;stroke:#FF0000;stroke-width:2.0px;stroke-linecap:butt;stroke-linejoin:miter;stroke-opacity:1"/>
<path class="bond-17 atom-16 atom-18" d="M 361.3,82.2 L 347.8,66.3" style="fill:none;fill-rule:evenodd;stroke:#000000;stroke-width:2.0px;stroke-linecap:butt;stroke-linejoin:miter;stroke-opacity:1"/>
<path class="bond-18 atom-18 atom-19" d="M 347.8,66.3 L 327.4,70.0" style="fill:none;fill-rule:evenodd;stroke:#000000;stroke-width:2.0px;stroke-linecap:butt;stroke-linejoin:miter;stroke-opacity:1"/>
<path class="bond-18 atom-18 atom-19" d="M 346.6,69.7 L 329.7,72.8" style="fill:none;fill-rule:evenodd;stroke:#000000;stroke-width:2.0px;stroke-linecap:butt;stroke-linejoin:miter;stroke-opacity:1"/>
<path class="bond-19 atom-12 atom-1" d="M 299.9,93.3 L 292.8,112.9" style="fill:none;fill-rule:evenodd;stroke:#000000;stroke-width:2.0px;stroke-linecap:butt;stroke-linejoin:miter;stroke-opacity:1"/>
<path class="bond-20 atom-19 atom-13" d="M 327.4,70.0 L 320.3,89.6" style="fill:none;fill-rule:evenodd;stroke:#000000;stroke-width:2.0px;stroke-linecap:butt;stroke-linejoin:miter;stroke-opacity:1"/>
<path class="bond-21 atom-10 atom-3" d="M 265.9,81.2 L 258.9,100.8" style="fill:none;fill-rule:evenodd;stroke:#000000;stroke-width:2.0px;stroke-linecap:butt;stroke-linejoin:miter;stroke-opacity:1"/>
<path d="M 273.4,116.4 L 272.4,116.6 L 271.7,115.8" style="fill:none;stroke:#000000;stroke-width:2.0px;stroke-linecap:butt;stroke-linejoin:miter;stroke-opacity:1;"/>
<path d="M 225.6,89.4 L 225.0,88.6 L 225.3,87.6" style="fill:none;stroke:#000000;stroke-width:2.0px;stroke-linecap:butt;stroke-linejoin:miter;stroke-opacity:1;"/>
<path d="M 251.4,65.5 L 252.5,65.3 L 253.1,66.1" style="fill:none;stroke:#000000;stroke-width:2.0px;stroke-linecap:butt;stroke-linejoin:miter;stroke-opacity:1;"/>
<path d="M 333.1,104.7 L 333.8,105.5 L 334.8,105.3" style="fill:none;stroke:#000000;stroke-width:2.0px;stroke-linecap:butt;stroke-linejoin:miter;stroke-opacity:1;"/>
<path d="M 353.2,102.0 L 354.3,101.8 L 354.6,100.8" style="fill:none;stroke:#000000;stroke-width:2.0px;stroke-linecap:butt;stroke-linejoin:miter;stroke-opacity:1;"/>
<path d="M 348.5,67.1 L 347.8,66.3 L 346.8,66.5" style="fill:none;stroke:#000000;stroke-width:2.0px;stroke-linecap:butt;stroke-linejoin:miter;stroke-opacity:1;"/>
<path d="M 328.4,69.8 L 327.4,70.0 L 327.0,71.0" style="fill:none;stroke:#000000;stroke-width:2.0px;stroke-linecap:butt;stroke-linejoin:miter;stroke-opacity:1;"/>
<path class="atom-0" d="M 303.6 128.8 Q 303.6 127.4, 304.3 126.6 Q 305.0 125.8, 306.3 125.8 Q 307.6 125.8, 308.3 126.6 Q 309.0 127.4, 309.0 128.8 Q 309.0 130.2, 308.3 131.1 Q 307.6 131.9, 306.3 131.9 Q 305.0 131.9, 304.3 131.1 Q 303.6 130.2, 303.6 128.8 M 306.3 131.2 Q 307.2 131.2, 307.7 130.6 Q 308.2 130.0, 308.2 128.8 Q 308.2 127.6, 307.7 127.1 Q 307.2 126.5, 306.3 126.5 Q 305.4 126.5, 304.9 127.1 Q 304.4 127.6, 304.4 128.8 Q 304.4 130.0, 304.9 130.6 Q 305.4 131.2, 306.3 131.2 " fill="#FF0000"/>
<path class="atom-0" d="M 309.9 125.9 L 310.7 125.9 L 310.7 128.4 L 313.7 128.4 L 313.7 125.9 L 314.5 125.9 L 314.5 131.8 L 313.7 131.8 L 313.7 129.0 L 310.7 129.0 L 310.7 131.8 L 309.9 131.8 L 309.9 125.9 " fill="#FF0000"/>
<path class="atom-5" d="M 228.7 124.1 Q 228.7 122.7, 229.4 121.9 Q 230.1 121.1, 231.4 121.1 Q 232.7 121.1, 233.4 121.9 Q 234.1 122.7, 234.1 124.1 Q 234.1 125.5, 233.4 126.3 Q 232.7 127.1, 231.4 127.1 Q 230.1 127.1, 229.4 126.3 Q 228.7 125.5, 228.7 124.1 M 231.4 126.5 Q 232.3 126.5, 232.8 125.9 Q 233.3 125.3, 233.3 124.1 Q 233.3 122.9, 232.8 122.3 Q 232.3 121.7, 231.4 121.7 Q 230.5 121.7, 230.0 122.3 Q 229.5 122.9, 229.5 124.1 Q 229.5 125.3, 230.0 125.9 Q 230.5 126.5, 231.4 126.5 " fill="#FF0000"/>
<path class="atom-5" d="M 235.0 121.1 L 235.8 121.1 L 235.8 123.6 L 238.8 123.6 L 238.8 121.1 L 239.6 121.1 L 239.6 127.0 L 238.8 127.0 L 238.8 124.3 L 235.8 124.3 L 235.8 127.0 L 235.0 127.0 L 235.0 121.1 " fill="#FF0000"/>
<path class="atom-8" d="M 210.0 50.2 L 210.8 50.2 L 210.8 52.7 L 213.8 52.7 L 213.8 50.2 L 214.6 50.2 L 214.6 56.1 L 213.8 56.1 L 213.8 53.4 L 210.8 53.4 L 210.8 56.1 L 210.0 56.1 L 210.0 50.2 " fill="#FF0000"/>
<path class="atom-8" d="M 215.8 53.1 Q 215.8 51.7, 216.5 50.9 Q 217.2 50.1, 218.5 50.1 Q 219.8 50.1, 220.5 50.9 Q 221.2 51.7, 221.2 53.1 Q 221.2 54.6, 220.5 55.4 Q 219.8 56.2, 218.5 56.2 Q 217.2 56.2, 216.5 55.4 Q 215.8 54.6, 215.8 53.1 M 218.5 55.5 Q 219.4 55.5, 219.9 54.9 Q 220.4 54.3, 220.4 53.1 Q 220.4 52.0, 219.9 51.4 Q 219.4 50.8, 218.5 50.8 Q 217.6 50.8, 217.1 51.4 Q 216.7 52.0, 216.7 53.1 Q 216.7 54.3, 217.1 54.9 Q 217.6 55.5, 218.5 55.5 " fill="#FF0000"/>
<path class="atom-11" d="M 283.7 77.5 Q 283.7 76.0, 284.4 75.3 Q 285.1 74.5, 286.4 74.5 Q 287.7 74.5, 288.4 75.3 Q 289.1 76.0, 289.1 77.5 Q 289.1 78.9, 288.4 79.7 Q 287.7 80.5, 286.4 80.5 Q 285.1 80.5, 284.4 79.7 Q 283.7 78.9, 283.7 77.5 M 286.4 79.8 Q 287.3 79.8, 287.8 79.2 Q 288.3 78.6, 288.3 77.5 Q 288.3 76.3, 287.8 75.7 Q 287.3 75.1, 286.4 75.1 Q 285.5 75.1, 285.0 75.7 Q 284.5 76.3, 284.5 77.5 Q 284.5 78.6, 285.0 79.2 Q 285.5 79.8, 286.4 79.8 " fill="#FF0000"/>
<path class="atom-17" d="M 379.1 78.5 Q 379.1 77.1, 379.8 76.3 Q 380.5 75.5, 381.8 75.5 Q 383.1 75.5, 383.8 76.3 Q 384.5 77.1, 384.5 78.5 Q 384.5 79.9, 383.8 80.7 Q 383.1 81.5, 381.8 81.5 Q 380.5 81.5, 379.8 80.7 Q 379.1 79.9, 379.1 78.5 M 381.8 80.9 Q 382.7 80.9, 383.1 80.3 Q 383.6 79.7, 383.6 78.5 Q 383.6 77.3, 383.1 76.7 Q 382.7 76.1, 381.8 76.1 Q 380.9 76.1, 380.4 76.7 Q 379.9 77.3, 379.9 78.5 Q 379.9 79.7, 380.4 80.3 Q 380.9 80.9, 381.8 80.9 " fill="#FF0000"/>
<path class="atom-17" d="M 385.4 75.5 L 386.2 75.5 L 386.2 78.1 L 389.2 78.1 L 389.2 75.5 L 390.0 75.5 L 390.0 81.4 L 389.2 81.4 L 389.2 78.7 L 386.2 78.7 L 386.2 81.4 L 385.4 81.4 L 385.4 75.5 " fill="#FF0000"/>
<path class="legend" d="M 301.7 184.0 Q 302.7 184.4, 303.3 185.0 Q 303.8 185.7, 303.8 186.7 Q 303.8 188.2, 302.8 189.1 Q 301.8 190.0, 300.0 190.0 L 296.2 190.0 L 296.2 178.7 L 299.5 178.7 Q 301.4 178.7, 302.4 179.5 Q 303.4 180.2, 303.4 181.7 Q 303.4 183.4, 301.7 184.0 M 297.7 180.0 L 297.7 183.5 L 299.5 183.5 Q 300.6 183.5, 301.2 183.1 Q 301.8 182.6, 301.8 181.7 Q 301.8 180.0, 299.5 180.0 L 297.7 180.0 M 300.0 188.7 Q 301.1 188.7, 301.7 188.2 Q 302.2 187.7, 302.2 186.7 Q 302.2 185.7, 301.6 185.3 Q 301.0 184.8, 299.7 184.8 L 297.7 184.8 L 297.7 188.7 L 300.0 188.7 " fill="#000000"/>
<path class="bond-0 atom-0 atom-1" d="M 556.2,95.7 L 538.7,106.9" style="fill:none;fill-rule:evenodd;stroke:#000000;stroke-width:2.0px;stroke-linecap:butt;stroke-linejoin:miter;stroke-opacity:1"/>
<path class="bond-1 atom-1 atom-2" d="M 538.7,106.9 L 520.2,97.3" style="fill:none;fill-rule:evenodd;stroke:#000000;stroke-width:2.0px;stroke-linecap:butt;stroke-linejoin:miter;stroke-opacity:1"/>
<path class="bond-2 atom-2 atom-3" d="M 520.2,97.3 L 510.7,115.8" style="fill:none;fill-rule:evenodd;stroke:#000000;stroke-width:2.0px;stroke-linecap:butt;stroke-linejoin:miter;stroke-opacity:1"/>
<path class="bond-3 atom-2 atom-4" d="M 520.2,97.3 L 529.8,78.8" style="fill:none;fill-rule:evenodd;stroke:#000000;stroke-width:2.0px;stroke-linecap:butt;stroke-linejoin:miter;stroke-opacity:1"/>
<path class="bond-4 atom-2 atom-5" d="M 520.2,97.3 L 501.7,87.8" style="fill:none;fill-rule:evenodd;stroke:#000000;stroke-width:2.0px;stroke-linecap:butt;stroke-linejoin:miter;stroke-opacity:1"/>
<path class="bond-5 atom-5 atom-6" d="M 501.7,87.8 L 498.7,95.6" style="fill:none;fill-rule:evenodd;stroke:#000000;stroke-width:2.0px;stroke-linecap:butt;stroke-linejoin:miter;stroke-opacity:1"/>
<path class="bond-5 atom-5 atom-6" d="M 498.7,95.6 L 495.6,103.5" style="fill:none;fill-rule:evenodd;stroke:#FF0000;stroke-width:2.0px;stroke-linecap:butt;stroke-linejoin:miter;stroke-opacity:1"/>
<path class="bond-6 atom-5 atom-7" d="M 501.7,87.8 L 513.2,70.4" style="fill:none;fill-rule:evenodd;stroke:#000000;stroke-width:2.0px;stroke-linecap:butt;stroke-linejoin:miter;stroke-opacity:1"/>
<path class="bond-7 atom-7 atom-8" d="M 513.2,70.4 L 500.2,54.1" style="fill:none;fill-rule:evenodd;stroke:#000000;stroke-width:2.0px;stroke-linecap:butt;stroke-linejoin:miter;stroke-opacity:1"/>
<path class="bond-8 atom-8 atom-9" d="M 500.2,54.1 L 480.7,61.5" style="fill:none;fill-rule:evenodd;stroke:#000000;stroke-width:2.0px;stroke-linecap:butt;stroke-linejoin:miter;stroke-opacity:1"/>
<path class="bond-9 atom-9 atom-10" d="M 480.7,61.5 L 463.3,50.1" style="fill:none;fill-rule:evenodd;stroke:#000000;stroke-width:2.0px;stroke-linecap:butt;stroke-linejoin:miter;stroke-opacity:1"/>
<path class="bond-10 atom-9 atom-11" d="M 480.7,61.5 L 481.7,82.3" style="fill:none;fill-rule:evenodd;stroke:#000000;stroke-width:2.0px;stroke-linecap:butt;stroke-linejoin:miter;stroke-opacity:1"/>
<path class="bond-11 atom-11 atom-12" d="M 481.7,82.3 L 465.4,95.3" style="fill:none;fill-rule:evenodd;stroke:#000000;stroke-width:2.0px;stroke-linecap:butt;stroke-linejoin:miter;stroke-opacity:1"/>
<path class="bond-12 atom-12 atom-13" d="M 465.4,95.3 L 468.5,115.9" style="fill:none;fill-rule:evenodd;stroke:#000000;stroke-width:2.0px;stroke-linecap:butt;stroke-linejoin:miter;stroke-opacity:1"/>
<path class="bond-13 atom-13 atom-14" d="M 468.5,115.9 L 462.1,121.0" style="fill:none;fill-rule:evenodd;stroke:#000000;stroke-width:2.0px;stroke-linecap:butt;stroke-linejoin:miter;stroke-opacity:1"/>
<path class="bond-13 atom-13 atom-14" d="M 462.1,121.0 L 455.7,126.2" style="fill:none;fill-rule:evenodd;stroke:#FF0000;stroke-width:2.0px;stroke-linecap:butt;stroke-linejoin:miter;stroke-opacity:1"/>
<path class="bond-14 atom-11 atom-5" d="M 481.7,82.3 L 501.7,87.8" style="fill:none;fill-rule:evenodd;stroke:#000000;stroke-width:2.0px;stroke-linecap:butt;stroke-linejoin:miter;stroke-opacity:1"/>
<path d="M 539.6,106.3 L 538.7,106.9 L 537.8,106.4" style="fill:none;stroke:#000000;stroke-width:2.0px;stroke-linecap:butt;stroke-linejoin:miter;stroke-opacity:1;"/>
<path d="M 512.6,71.3 L 513.2,70.4 L 512.5,69.6" style="fill:none;stroke:#000000;stroke-width:2.0px;stroke-linecap:butt;stroke-linejoin:miter;stroke-opacity:1;"/>
<path d="M 500.8,55.0 L 500.2,54.1 L 499.2,54.5" style="fill:none;stroke:#000000;stroke-width:2.0px;stroke-linecap:butt;stroke-linejoin:miter;stroke-opacity:1;"/>
<path d="M 466.2,94.6 L 465.4,95.3 L 465.6,96.3" style="fill:none;stroke:#000000;stroke-width:2.0px;stroke-linecap:butt;stroke-linejoin:miter;stroke-opacity:1;"/>
<path d="M 468.4,114.8 L 468.5,115.9 L 468.2,116.1" style="fill:none;stroke:#000000;stroke-width:2.0px;stroke-linecap:butt;stroke-linejoin:miter;stroke-opacity:1;"/>
<path class="atom-6" d="M 485.6 104.3 L 486.4 104.3 L 486.4 106.8 L 489.4 106.8 L 489.4 104.3 L 490.2 104.3 L 490.2 110.2 L 489.4 110.2 L 489.4 107.4 L 486.4 107.4 L 486.4 110.2 L 485.6 110.2 L 485.6 104.3 " fill="#FF0000"/>
<path class="atom-6" d="M 491.5 107.2 Q 491.5 105.8, 492.2 105.0 Q 492.9 104.2, 494.2 104.2 Q 495.5 104.2, 496.2 105.0 Q 496.9 105.8, 496.9 107.2 Q 496.9 108.6, 496.2 109.4 Q 495.5 110.2, 494.2 110.2 Q 492.9 110.2, 492.2 109.4 Q 491.5 108.6, 491.5 107.2 M 494.2 109.6 Q 495.1 109.6, 495.5 109.0 Q 496.0 108.4, 496.0 107.2 Q 496.0 106.0, 495.5 105.4 Q 495.1 104.9, 494.2 104.9 Q 493.3 104.9, 492.8 105.4 Q 492.3 106.0, 492.3 107.2 Q 492.3 108.4, 492.8 109.0 Q 493.3 109.6, 494.2 109.6 " fill="#FF0000"/>
<path class="atom-14" d="M 443.8 126.0 L 444.6 126.0 L 444.6 128.5 L 447.6 128.5 L 447.6 126.0 L 448.4 126.0 L 448.4 131.8 L 447.6 131.8 L 447.6 129.1 L 444.6 129.1 L 444.6 131.8 L 443.8 131.8 L 443.8 126.0 " fill="#FF0000"/>
<path class="atom-14" d="M 449.6 128.9 Q 449.6 127.5, 450.3 126.7 Q 451.0 125.9, 452.3 125.9 Q 453.6 125.9, 454.3 126.7 Q 455.0 127.5, 455.0 128.9 Q 455.0 130.3, 454.3 131.1 Q 453.6 131.9, 452.3 131.9 Q 451.0 131.9, 450.3 131.1 Q 449.6 130.3, 449.6 128.9 M 452.3 131.3 Q 453.2 131.3, 453.7 130.7 Q 454.2 130.1, 454.2 128.9 Q 454.2 127.7, 453.7 127.1 Q 453.2 126.6, 452.3 126.6 Q 451.4 126.6, 450.9 127.1 Q 450.4 127.7, 450.4 128.9 Q 450.4 130.1, 450.9 130.7 Q 451.4 131.3, 452.3 131.3 " fill="#FF0000"/>
<path class="legend" d="M 495.6 184.2 Q 495.6 181.4, 496.9 179.9 Q 498.3 178.4, 500.8 178.4 Q 503.1 178.4, 504.4 180.0 L 503.3 180.9 Q 502.4 179.7, 500.8 179.7 Q 499.1 179.7, 498.2 180.9 Q 497.3 182.0, 497.3 184.2 Q 497.3 186.4, 498.2 187.6 Q 499.1 188.7, 501.0 188.7 Q 502.2 188.7, 503.7 188.0 L 504.1 189.2 Q 503.5 189.6, 502.6 189.8 Q 501.7 190.0, 500.7 190.0 Q 498.3 190.0, 496.9 188.5 Q 495.6 187.0, 495.6 184.2 " fill="#000000"/>
<path class="bond-0 atom-0 atom-1" d="M 646.0,83.0 L 664.5,73.5" style="fill:none;fill-rule:evenodd;stroke:#000000;stroke-width:2.0px;stroke-linecap:butt;stroke-linejoin:miter;stroke-opacity:1"/>
<path class="bond-1 atom-1 atom-2" d="M 664.5,73.5 L 682.0,84.7" style="fill:none;fill-rule:evenodd;stroke:#000000;stroke-width:2.0px;stroke-linecap:butt;stroke-linejoin:miter;stroke-opacity:1"/>
<path class="bond-2 atom-2 atom-3" d="M 682.0,84.7 L 681.6,93.2" style="fill:none;fill-rule:evenodd;stroke:#000000;stroke-width:2.0px;stroke-linecap:butt;stroke-linejoin:miter;stroke-opacity:1"/>
<path class="bond-2 atom-2 atom-3" d="M 681.6,93.2 L 681.2,101.8" style="fill:none;fill-rule:evenodd;stroke:#FF0000;stroke-width:2.0px;stroke-linecap:butt;stroke-linejoin:miter;stroke-opacity:1"/>
<path class="bond-3 atom-2 atom-4" d="M 682.0,84.7 L 700.5,75.1" style="fill:none;fill-rule:evenodd;stroke:#000000;stroke-width:2.0px;stroke-linecap:butt;stroke-linejoin:miter;stroke-opacity:1"/>
<path class="bond-4 atom-4 atom-5" d="M 700.5,75.1 L 718.0,86.3" style="fill:none;fill-rule:evenodd;stroke:#000000;stroke-width:2.0px;stroke-linecap:butt;stroke-linejoin:miter;stroke-opacity:1"/>
<path class="bond-5 atom-5 atom-6" d="M 718.0,86.3 L 736.5,76.8" style="fill:none;fill-rule:evenodd;stroke:#000000;stroke-width:2.0px;stroke-linecap:butt;stroke-linejoin:miter;stroke-opacity:1"/>
<path class="bond-6 atom-6 atom-7" d="M 736.5,76.8 L 754.0,88.0" style="fill:none;fill-rule:evenodd;stroke:#000000;stroke-width:2.0px;stroke-linecap:butt;stroke-linejoin:miter;stroke-opacity:1"/>
<path d="M 663.5,73.9 L 664.5,73.5 L 665.3,74.0" style="fill:none;stroke:#000000;stroke-width:2.0px;stroke-linecap:butt;stroke-linejoin:miter;stroke-opacity:1;"/>
<path d="M 699.6,75.6 L 700.5,75.1 L 701.4,75.7" style="fill:none;stroke:#000000;stroke-width:2.0px;stroke-linecap:butt;stroke-linejoin:miter;stroke-opacity:1;"/>
<path d="M 717.1,85.8 L 718.0,86.3 L 718.9,85.9" style="fill:none;stroke:#000000;stroke-width:2.0px;stroke-linecap:butt;stroke-linejoin:miter;stroke-opacity:1;"/>
<path d="M 735.6,77.3 L 736.5,76.8 L 737.4,77.3" style="fill:none;stroke:#000000;stroke-width:2.0px;stroke-linecap:butt;stroke-linejoin:miter;stroke-opacity:1;"/>
<path class="atom-3" d="M 678.3 105.5 Q 678.3 104.1, 679.0 103.3 Q 679.7 102.5, 681.0 102.5 Q 682.3 102.5, 683.0 103.3 Q 683.7 104.1, 683.7 105.5 Q 683.7 106.9, 683.0 107.7 Q 682.3 108.5, 681.0 108.5 Q 679.7 108.5, 679.0 107.7 Q 678.3 106.9, 678.3 105.5 M 681.0 107.9 Q 681.9 107.9, 682.4 107.3 Q 682.9 106.7, 682.9 105.5 Q 682.9 104.3, 682.4 103.7 Q 681.9 103.2, 681.0 103.2 Q 680.1 103.2, 679.6 103.7 Q 679.2 104.3, 679.2 105.5 Q 679.2 106.7, 679.6 107.3 Q 680.1 107.9, 681.0 107.9 " fill="#FF0000"/>
<path class="atom-3" d="M 684.7 102.6 L 685.5 102.6 L 685.5 105.1 L 688.5 105.1 L 688.5 102.6 L 689.3 102.6 L 689.3 108.5 L 688.5 108.5 L 688.5 105.7 L 685.5 105.7 L 685.5 108.5 L 684.7 108.5 L 684.7 102.6 " fill="#FF0000"/>
<path class="legend" d="M 699.2 178.7 Q 701.7 178.7, 703.1 180.2 Q 704.4 181.6, 704.4 184.3 Q 704.4 187.0, 703.1 188.5 Q 701.7 190.0, 699.2 190.0 L 695.6 190.0 L 695.6 178.7 L 699.2 178.7 M 699.2 188.7 Q 701.0 188.7, 701.9 187.6 Q 702.8 186.5, 702.8 184.3 Q 702.8 182.1, 701.9 181.0 Q 701.0 180.0, 699.2 180.0 L 697.1 180.0 L 697.1 188.7 L 699.2 188.7 " fill="#000000"/>
<path class="bond-0 atom-0 atom-1" d="M 107.7,328.7 L 119.6,311.7" style="fill:none;fill-rule:evenodd;stroke:#000000;stroke-width:2.0px;stroke-linecap:butt;stroke-linejoin:miter;stroke-opacity:1"/>
<path class="bond-1 atom-1 atom-2" d="M 119.6,311.7 L 110.8,292.8" style="fill:none;fill-rule:evenodd;stroke:#000000;stroke-width:2.0px;stroke-linecap:butt;stroke-linejoin:miter;stroke-opacity:1"/>
<path class="bond-2 atom-2 atom-3" d="M 110.8,292.8 L 97.2,308.5" style="fill:none;fill-rule:evenodd;stroke:#000000;stroke-width:2.0px;stroke-linecap:butt;stroke-linejoin:miter;stroke-opacity:1"/>
<path class="bond-3 atom-3 atom-4" d="M 97.2,308.5 L 76.7,304.5" style="fill:none;fill-rule:evenodd;stroke:#000000;stroke-width:2.0px;stroke-linecap:butt;stroke-linejoin:miter;stroke-opacity:1"/>
<path class="bond-4 atom-4 atom-5" d="M 76.7,304.5 L 77.8,313.0" style="fill:none;fill-rule:evenodd;stroke:#000000;stroke-width:2.0px;stroke-linecap:butt;stroke-linejoin:miter;stroke-opacity:1"/>
<path class="bond-4 atom-4 atom-5" d="M 77.8,313.0 L 78.8,321.5" style="fill:none;fill-rule:evenodd;stroke:#FF0000;stroke-width:2.0px;stroke-linecap:butt;stroke-linejoin:miter;stroke-opacity:1"/>
<path class="bond-5 atom-4 atom-6" d="M 76.7,304.5 L 69.3,300.4" style="fill:none;fill-rule:evenodd;stroke:#000000;stroke-width:2.0px;stroke-linecap:butt;stroke-linejoin:miter;stroke-opacity:1"/>
<path class="bond-5 atom-4 atom-6" d="M 69.3,300.4 L 61.9,296.3" style="fill:none;fill-rule:evenodd;stroke:#FF0000;stroke-width:2.0px;stroke-linecap:butt;stroke-linejoin:miter;stroke-opacity:1"/>
<path class="bond-6 atom-6 atom-7" d="M 59.3,290.8 L 60.9,282.4" style="fill:none;fill-rule:evenodd;stroke:#FF0000;stroke-width:2.0px;stroke-linecap:butt;stroke-linejoin:miter;stroke-opacity:1"/>
<path class="bond-6 atom-6 atom-7" d="M 60.9,282.4 L 62.5,274.0" style="fill:none;fill-rule:evenodd;stroke:#000000;stroke-width:2.0px;stroke-linecap:butt;stroke-linejoin:miter;stroke-opacity:1"/>
<path class="bond-7 atom-7 atom-8" d="M 62.5,274.0 L 83.2,271.5" style="fill:none;fill-rule:evenodd;stroke:#000000;stroke-width:2.0px;stroke-linecap:butt;stroke-linejoin:miter;stroke-opacity:1"/>
<path class="bond-8 atom-8 atom-9" d="M 83.2,271.5 L 93.3,253.3" style="fill:none;fill-rule:evenodd;stroke:#000000;stroke-width:2.0px;stroke-linecap:butt;stroke-linejoin:miter;stroke-opacity:1"/>
<path class="bond-9 atom-8 atom-10" d="M 83.2,271.5 L 92.0,290.3" style="fill:none;fill-rule:evenodd;stroke:#000000;stroke-width:2.0px;stroke-linecap:butt;stroke-linejoin:miter;stroke-opacity:1"/>
<path class="bond-10 atom-10 atom-11" d="M 92.0,290.3 L 103.0,289.8" style="fill:none;fill-rule:evenodd;stroke:#000000;stroke-width:2.0px;stroke-linecap:butt;stroke-linejoin:miter;stroke-opacity:1"/>
<path class="bond-11 atom-8 atom-12" d="M 83.2,271.5 L 104.1,273.1" style="fill:none;fill-rule:evenodd;stroke:#000000;stroke-width:2.0px;stroke-linecap:butt;stroke-linejoin:miter;stroke-opacity:1"/>
<path class="bond-12 atom-12 atom-13" d="M 104.1,273.1 L 111.5,277.2" style="fill:none;fill-rule:evenodd;stroke:#000000;stroke-width:2.0px;stroke-linecap:butt;stroke-linejoin:miter;stroke-opacity:1"/>
<path class="bond-12 atom-12 atom-13" d="M 111.5,277.2 L 118.9,281.4" style="fill:none;fill-rule:evenodd;stroke:#FF0000;stroke-width:2.0px;stroke-linecap:butt;stroke-linejoin:miter;stroke-opacity:1"/>
<path class="bond-13 atom-12 atom-14" d="M 104.1,273.1 L 120.7,260.6" style="fill:none;fill-rule:evenodd;stroke:#000000;stroke-width:2.0px;stroke-linecap:butt;stroke-linejoin:miter;stroke-opacity:1"/>
<path class="bond-14 atom-14 atom-15" d="M 120.7,260.6 L 137.7,272.6" style="fill:none;fill-rule:evenodd;stroke:#000000;stroke-width:2.0px;stroke-linecap:butt;stroke-linejoin:miter;stroke-opacity:1"/>
<path class="bond-15 atom-15 atom-16" d="M 137.7,272.6 L 131.6,292.5" style="fill:none;fill-rule:evenodd;stroke:#000000;stroke-width:2.0px;stroke-linecap:butt;stroke-linejoin:miter;stroke-opacity:1"/>
<path class="bond-16 atom-16 atom-17" d="M 131.6,292.5 L 144.2,309.1" style="fill:none;fill-rule:evenodd;stroke:#000000;stroke-width:2.0px;stroke-linecap:butt;stroke-linejoin:miter;stroke-opacity:1"/>
<path class="bond-17 atom-12 atom-2" d="M 104.1,273.1 L 110.8,292.8" style="fill:none;fill-rule:evenodd;stroke:#000000;stroke-width:2.0px;stroke-linecap:butt;stroke-linejoin:miter;stroke-opacity:1"/>
<path class="bond-18 atom-16 atom-2" d="M 131.6,292.5 L 110.8,292.8" style="fill:none;fill-rule:evenodd;stroke:#000000;stroke-width:2.0px;stroke-linecap:butt;stroke-linejoin:miter;stroke-opacity:1"/>
<path class="bond-19 atom-10 atom-4" d="M 92.0,290.3 L 76.7,304.5" style="fill:none;fill-rule:evenodd;stroke:#000000;stroke-width:2.0px;stroke-linecap:butt;stroke-linejoin:miter;stroke-opacity:1"/>
<path d="M 119.0,312.5 L 119.6,311.7 L 119.2,310.7" style="fill:none;stroke:#000000;stroke-width:2.0px;stroke-linecap:butt;stroke-linejoin:miter;stroke-opacity:1;"/>
<path d="M 97.9,307.7 L 97.2,308.5 L 96.1,308.3" style="fill:none;stroke:#000000;stroke-width:2.0px;stroke-linecap:butt;stroke-linejoin:miter;stroke-opacity:1;"/>
<path d="M 62.5,274.4 L 62.5,274.0 L 63.6,273.9" style="fill:none;stroke:#000000;stroke-width:2.0px;stroke-linecap:butt;stroke-linejoin:miter;stroke-opacity:1;"/>
<path d="M 119.9,261.2 L 120.7,260.6 L 121.6,261.2" style="fill:none;stroke:#000000;stroke-width:2.0px;stroke-linecap:butt;stroke-linejoin:miter;stroke-opacity:1;"/>
<path d="M 136.9,272.0 L 137.7,272.6 L 137.4,273.6" style="fill:none;stroke:#000000;stroke-width:2.0px;stroke-linecap:butt;stroke-linejoin:miter;stroke-opacity:1;"/>
<path class="atom-5" d="M 76.6 325.2 Q 76.6 323.8, 77.3 323.0 Q 78.0 322.2, 79.3 322.2 Q 80.6 322.2, 81.3 323.0 Q 82.0 323.8, 82.0 325.2 Q 82.0 326.6, 81.3 327.4 Q 80.6 328.3, 79.3 328.3 Q 78.0 328.3, 77.3 327.4 Q 76.6 326.6, 76.6 325.2 M 79.3 327.6 Q 80.2 327.6, 80.6 327.0 Q 81.1 326.4, 81.1 325.2 Q 81.1 324.0, 80.6 323.5 Q 80.2 322.9, 79.3 322.9 Q 78.4 322.9, 77.9 323.5 Q 77.4 324.0, 77.4 325.2 Q 77.4 326.4, 77.9 327.0 Q 78.4 327.6, 79.3 327.6 " fill="#FF0000"/>
<path class="atom-5" d="M 82.9 322.3 L 83.7 322.3 L 83.7 324.8 L 86.7 324.8 L 86.7 322.3 L 87.5 322.3 L 87.5 328.2 L 86.7 328.2 L 86.7 325.4 L 83.7 325.4 L 83.7 328.2 L 82.9 328.2 L 82.9 322.3 " fill="#FF0000"/>
<path class="atom-6" d="M 55.8 294.4 Q 55.8 293.0, 56.5 292.2 Q 57.2 291.4, 58.5 291.4 Q 59.9 291.4, 60.6 292.2 Q 61.3 293.0, 61.3 294.4 Q 61.3 295.9, 60.5 296.7 Q 59.8 297.5, 58.5 297.5 Q 57.2 297.5, 56.5 296.7 Q 55.8 295.9, 55.8 294.4 M 58.5 296.8 Q 59.4 296.8, 59.9 296.2 Q 60.4 295.6, 60.4 294.4 Q 60.4 293.3, 59.9 292.7 Q 59.4 292.1, 58.5 292.1 Q 57.6 292.1, 57.2 292.7 Q 56.7 293.3, 56.7 294.4 Q 56.7 295.6, 57.2 296.2 Q 57.6 296.8, 58.5 296.8 " fill="#FF0000"/>
<path class="atom-13" d="M 119.6 283.3 Q 119.6 281.8, 120.3 281.0 Q 121.0 280.3, 122.3 280.3 Q 123.6 280.3, 124.3 281.0 Q 125.0 281.8, 125.0 283.3 Q 125.0 284.7, 124.3 285.5 Q 123.6 286.3, 122.3 286.3 Q 121.0 286.3, 120.3 285.5 Q 119.6 284.7, 119.6 283.3 M 122.3 285.6 Q 123.2 285.6, 123.7 285.0 Q 124.1 284.4, 124.1 283.3 Q 124.1 282.1, 123.7 281.5 Q 123.2 280.9, 122.3 280.9 Q 121.4 280.9, 120.9 281.5 Q 120.4 282.1, 120.4 283.3 Q 120.4 284.4, 120.9 285.0 Q 121.4 285.6, 122.3 285.6 " fill="#FF0000"/>
<path class="atom-13" d="M 125.9 280.3 L 126.7 280.3 L 126.7 282.8 L 129.7 282.8 L 129.7 280.3 L 130.5 280.3 L 130.5 286.2 L 129.7 286.2 L 129.7 283.5 L 126.7 283.5 L 126.7 286.2 L 125.9 286.2 L 125.9 280.3 " fill="#FF0000"/>
<path class="legend" d="M 96.5 378.7 L 103.3 378.7 L 103.3 380.0 L 98.1 380.0 L 98.1 383.4 L 102.8 383.4 L 102.8 384.7 L 98.1 384.7 L 98.1 388.7 L 103.5 388.7 L 103.5 390.0 L 96.5 390.0 L 96.5 378.7 " fill="#000000"/>
<path class="bond-0 atom-0 atom-1" d="M 252.4,280.7 L 257.4,287.0" style="fill:none;fill-rule:evenodd;stroke:#000000;stroke-width:2.0px;stroke-linecap:butt;stroke-linejoin:miter;stroke-opacity:1"/>
<path class="bond-0 atom-0 atom-1" d="M 257.4,287.0 L 262.4,293.4" style="fill:none;fill-rule:evenodd;stroke:#FF0000;stroke-width:2.0px;stroke-linecap:butt;stroke-linejoin:miter;stroke-opacity:1"/>
<path class="bond-1 atom-1 atom-2" d="M 268.7,296.5 L 277.3,295.3" style="fill:none;fill-rule:evenodd;stroke:#FF0000;stroke-width:2.0px;stroke-linecap:butt;stroke-linejoin:miter;stroke-opacity:1"/>
<path class="bond-1 atom-1 atom-2" d="M 277.3,295.3 L 285.9,294.0" style="fill:none;fill-rule:evenodd;stroke:#000000;stroke-width:2.0px;stroke-linecap:butt;stroke-linejoin:miter;stroke-opacity:1"/>
<path class="bond-2 atom-2 atom-3" d="M 285.9,294.0 L 293.5,274.7" style="fill:none;fill-rule:evenodd;stroke:#000000;stroke-width:2.0px;stroke-linecap:butt;stroke-linejoin:miter;stroke-opacity:1"/>
<path class="bond-2 atom-2 atom-3" d="M 289.4,293.5 L 295.8,277.5" style="fill:none;fill-rule:evenodd;stroke:#000000;stroke-width:2.0px;stroke-linecap:butt;stroke-linejoin:miter;stroke-opacity:1"/>
<path class="bond-3 atom-3 atom-4" d="M 293.5,274.7 L 314.1,271.7" style="fill:none;fill-rule:evenodd;stroke:#000000;stroke-width:2.0px;stroke-linecap:butt;stroke-linejoin:miter;stroke-opacity:1"/>
<path class="bond-4 atom-4 atom-5" d="M 314.1,271.7 L 327.0,288.0" style="fill:none;fill-rule:evenodd;stroke:#000000;stroke-width:2.0px;stroke-linecap:butt;stroke-linejoin:miter;stroke-opacity:1"/>
<path class="bond-4 atom-4 atom-5" d="M 312.8,275.0 L 323.5,288.5" style="fill:none;fill-rule:evenodd;stroke:#000000;stroke-width:2.0px;stroke-linecap:butt;stroke-linejoin:miter;stroke-opacity:1"/>
<path class="bond-5 atom-5 atom-6" d="M 327.0,288.0 L 347.6,285.0" style="fill:none;fill-rule:evenodd;stroke:#000000;stroke-width:2.0px;stroke-linecap:butt;stroke-linejoin:miter;stroke-opacity:1"/>
<path class="bond-6 atom-5 atom-7" d="M 327.0,288.0 L 319.4,307.3" style="fill:none;fill-rule:evenodd;stroke:#000000;stroke-width:2.0px;stroke-linecap:butt;stroke-linejoin:miter;stroke-opacity:1"/>
<path class="bond-7 atom-7 atom-8" d="M 319.4,307.3 L 298.8,310.3" style="fill:none;fill-rule:evenodd;stroke:#000000;stroke-width:2.0px;stroke-linecap:butt;stroke-linejoin:miter;stroke-opacity:1"/>
<path class="bond-7 atom-7 atom-8" d="M 317.1,304.5 L 300.1,307.0" style="fill:none;fill-rule:evenodd;stroke:#000000;stroke-width:2.0px;stroke-linecap:butt;stroke-linejoin:miter;stroke-opacity:1"/>
<path class="bond-8 atom-8 atom-2" d="M 298.8,310.3 L 285.9,294.0" style="fill:none;fill-rule:evenodd;stroke:#000000;stroke-width:2.0px;stroke-linecap:butt;stroke-linejoin:miter;stroke-opacity:1"/>
<path d="M 293.2,275.6 L 293.5,274.7 L 294.6,274.5" style="fill:none;stroke:#000000;stroke-width:2.0px;stroke-linecap:butt;stroke-linejoin:miter;stroke-opacity:1;"/>
<path d="M 313.1,271.8 L 314.1,271.7 L 314.8,272.5" style="fill:none;stroke:#000000;stroke-width:2.0px;stroke-linecap:butt;stroke-linejoin:miter;stroke-opacity:1;"/>
<path d="M 319.7,306.4 L 319.4,307.3 L 318.3,307.5" style="fill:none;stroke:#000000;stroke-width:2.0px;stroke-linecap:butt;stroke-linejoin:miter;stroke-opacity:1;"/>
<path d="M 299.8,310.2 L 298.8,310.3 L 298.1,309.5" style="fill:none;stroke:#000000;stroke-width:2.0px;stroke-linecap:butt;stroke-linejoin:miter;stroke-opacity:1;"/>
<path class="atom-1" d="M 262.6 297.0 Q 262.6 295.6, 263.3 294.8 Q 264.0 294.0, 265.3 294.0 Q 266.6 294.0, 267.3 294.8 Q 268.0 295.6, 268.0 297.0 Q 268.0 298.5, 267.3 299.3 Q 266.6 300.1, 265.3 300.1 Q 264.0 300.1, 263.3 299.3 Q 262.6 298.5, 262.6 297.0 M 265.3 299.4 Q 266.2 299.4, 266.6 298.8 Q 267.1 298.2, 267.1 297.0 Q 267.1 295.9, 266.6 295.3 Q 266.2 294.7, 265.3 294.7 Q 264.4 294.7, 263.9 295.3 Q 263.4 295.9, 263.4 297.0 Q 263.4 298.2, 263.9 298.8 Q 264.4 299.4, 265.3 299.4 " fill="#FF0000"/>
<path class="legend" d="M 296.6 378.7 L 303.4 378.7 L 303.4 380.0 L 298.2 380.0 L 298.2 383.4 L 302.8 383.4 L 302.8 384.7 L 298.2 384.7 L 298.2 390.0 L 296.6 390.0 L 296.6 378.7 " fill="#000000"/>
<path class="bond-0 atom-0 atom-1" d="M 523.7,291.0 L 515.0,291.0" style="fill:none;fill-rule:evenodd;stroke:#FF0000;stroke-width:2.0px;stroke-linecap:butt;stroke-linejoin:miter;stroke-opacity:1"/>
<path class="bond-0 atom-0 atom-1" d="M 515.0,291.0 L 506.3,291.0" style="fill:none;fill-rule:evenodd;stroke:#000000;stroke-width:2.0px;stroke-linecap:butt;stroke-linejoin:miter;stroke-opacity:1"/>
<path class="bond-1 atom-1 atom-2" d="M 506.3,291.0 L 495.9,309.0" style="fill:none;fill-rule:evenodd;stroke:#000000;stroke-width:2.0px;stroke-linecap:butt;stroke-linejoin:miter;stroke-opacity:1"/>
<path class="bond-1 atom-1 atom-2" d="M 502.7,291.0 L 494.1,305.9" style="fill:none;fill-rule:evenodd;stroke:#000000;stroke-width:2.0px;stroke-linecap:butt;stroke-linejoin:miter;stroke-opacity:1"/>
<path class="bond-2 atom-2 atom-3" d="M 495.9,309.0 L 475.1,309.0" style="fill:none;fill-rule:evenodd;stroke:#000000;stroke-width:2.0px;stroke-linecap:butt;stroke-linejoin:miter;stroke-opacity:1"/>
<path class="bond-3 atom-3 atom-4" d="M 475.1,309.0 L 464.7,291.0" style="fill:none;fill-rule:evenodd;stroke:#000000;stroke-width:2.0px;stroke-linecap:butt;stroke-linejoin:miter;stroke-opacity:1"/>
<path class="bond-3 atom-3 atom-4" d="M 476.9,305.9 L 468.3,291.0" style="fill:none;fill-rule:evenodd;stroke:#000000;stroke-width:2.0px;stroke-linecap:butt;stroke-linejoin:miter;stroke-opacity:1"/>
<path class="bond-4 atom-4 atom-5" d="M 464.7,291.0 L 475.1,273.0" style="fill:none;fill-rule:evenodd;stroke:#000000;stroke-width:2.0px;stroke-linecap:butt;stroke-linejoin:miter;stroke-opacity:1"/>
<path class="bond-5 atom-5 atom-6" d="M 475.1,273.0 L 495.9,273.0" style="fill:none;fill-rule:evenodd;stroke:#000000;stroke-width:2.0px;stroke-linecap:butt;stroke-linejoin:miter;stroke-opacity:1"/>
<path class="bond-5 atom-5 atom-6" d="M 476.9,276.1 L 494.1,276.1" style="fill:none;fill-rule:evenodd;stroke:#000000;stroke-width:2.0px;stroke-linecap:butt;stroke-linejoin:miter;stroke-opacity:1"/>
<path class="bond-6 atom-6 atom-1" d="M 495.9,273.0 L 506.3,291.0" style="fill:none;fill-rule:evenodd;stroke:#000000;stroke-width:2.0px;stroke-linecap:butt;stroke-linejoin:miter;stroke-opacity:1"/>
<path d="M 496.4,308.1 L 495.9,309.0 L 494.8,309.0" style="fill:none;stroke:#000000;stroke-width:2.0px;stroke-linecap:butt;stroke-linejoin:miter;stroke-opacity:1;"/>
<path d="M 476.1,309.0 L 475.1,309.0 L 474.5,308.1" style="fill:none;stroke:#000000;stroke-width:2.0px;stroke-linecap:butt;stroke-linejoin:miter;stroke-opacity:1;"/>
<path d="M 465.2,291.9 L 464.7,291.0 L 465.2,290.1" style="fill:none;stroke:#000000;stroke-width:2.0px;stroke-linecap:butt;stroke-linejoin:miter;stroke-opacity:1;"/>
<path d="M 474.5,273.9 L 475.1,273.0 L 476.1,273.0" style="fill:none;stroke:#000000;stroke-width:2.0px;stroke-linecap:butt;stroke-linejoin:miter;stroke-opacity:1;"/>
<path d="M 494.8,273.0 L 495.9,273.0 L 496.4,273.9" style="fill:none;stroke:#000000;stroke-width:2.0px;stroke-linecap:butt;stroke-linejoin:miter;stroke-opacity:1;"/>
<path class="atom-0" d="M 524.4 291.0 Q 524.4 289.6, 525.1 288.8 Q 525.8 288.0, 527.1 288.0 Q 528.4 288.0, 529.1 288.8 Q 529.8 289.6, 529.8 291.0 Q 529.8 292.4, 529.1 293.3 Q 528.4 294.1, 527.1 294.1 Q 525.8 294.1, 525.1 293.3 Q 524.4 292.5, 524.4 291.0 M 527.1 293.4 Q 528.0 293.4, 528.5 292.8 Q 529.0 292.2, 529.0 291.0 Q 529.0 289.9, 528.5 289.3 Q 528.0 288.7, 527.1 288.7 Q 526.2 288.7, 525.7 289.3 Q 525.2 289.9, 525.2 291.0 Q 525.2 292.2, 525.7 292.8 Q 526.2 293.4, 527.1 293.4 " fill="#FF0000"/>
<path class="atom-0" d="M 530.7 288.1 L 531.5 288.1 L 531.5 290.6 L 534.5 290.6 L 534.5 288.1 L 535.3 288.1 L 535.3 294.0 L 534.5 294.0 L 534.5 291.3 L 531.5 291.3 L 531.5 294.0 L 530.7 294.0 L 530.7 288.1 " fill="#FF0000"/>
<path class="legend" d="M 504.6 384.3 L 504.6 389.1 Q 502.9 390.0, 500.6 390.0 Q 498.1 390.0, 496.8 388.5 Q 495.4 387.0, 495.4 384.2 Q 495.4 381.4, 496.8 379.9 Q 498.1 378.4, 500.6 378.4 Q 501.9 378.4, 502.9 378.8 Q 503.8 379.2, 504.5 380.0 L 503.5 380.9 Q 502.4 379.7, 500.6 379.7 Q 498.9 379.7, 498.0 380.8 Q 497.1 382.0, 497.1 384.2 Q 497.1 386.4, 498.0 387.6 Q 499.0 388.7, 500.8 388.7 Q 502.0 388.7, 503.0 388.3 L 503.0 384.3 L 504.6 384.3 " fill="#000000"/>
<path class="bond-0 atom-0 atom-1" d="M 682.0,296.2 L 700.0,285.8" style="fill:none;fill-rule:evenodd;stroke:#000000;stroke-width:2.0px;stroke-linecap:butt;stroke-linejoin:miter;stroke-opacity:1"/>
<path class="bond-1 atom-1 atom-2" d="M 700.0,285.8 L 718.0,296.2" style="fill:none;fill-rule:evenodd;stroke:#000000;stroke-width:2.0px;stroke-linecap:butt;stroke-linejoin:miter;stroke-opacity:1"/>
<path d="M 699.1,286.3 L 700.0,285.8 L 700.9,286.3" style="fill:none;stroke:#000000;stroke-width:2.0px;stroke-linecap:butt;stroke-linejoin:miter;stroke-opacity:1;"/>
<path class="legend" d="M 695.6 378.7 L 697.1 378.7 L 697.1 383.5 L 702.9 383.5 L 702.9 378.7 L 704.4 378.7 L 704.4 390.0 L 702.9 390.0 L 702.9 384.8 L 697.1 384.8 L 697.1 390.0 L 695.6 390.0 L 695.6 378.7 " fill="#000000"/>
</svg>