<svg xmlns="http://www.w3.org/2000/svg" xmlns:rdkit="http://www.rdkit.org/xml" xmlns:xlink="http://www.w3.org/1999/xlink" version="1.1" baseProfile="full" xml:space="preserve" width="800px" height="200px" viewBox="0 0 800 200">
<!-- END OF HEADER -->
<rect style="opacity:1.0;fill:#FFFFFF;stroke:none" width="800.0" height="200.0" x="0.0" y="0.0"> </rect>
<path class="bond-0 atom-0 atom-1" d="M 150.2,84.8 L 135.1,94.4" style="fill:none;fill-rule:evenodd;stroke:#000000;stroke-width:2.0px;stroke-linecap:butt;stroke-linejoin:miter;stroke-opacity:1"/>
<path class="bond-1 atom-1 atom-2" d="M 135.1,94.4 L 135.4,101.8" style="fill:none;fill-rule:evenodd;stroke:#000000;stroke-width:2.0px;stroke-linecap:butt;stroke-linejoin:miter;stroke-opacity:1"/>
<path class="bond-1 atom-1 atom-2" d="M 135.4,101.8 L 135.7,109.2" style="fill:none;fill-rule:evenodd;stroke:#FF0000;stroke-width:2.0px;stroke-linecap:butt;stroke-linejoin:miter;stroke-opacity:1"/>
<path class="bond-2 atom-1 atom-3" d="M 135.1,94.4 L 119.2,86.1" style="fill:none;fill-rule:evenodd;stroke:#000000;stroke-width:2.0px;stroke-linecap:butt;stroke-linejoin:miter;stroke-opacity:1"/>
<path class="bond-3 atom-3 atom-4" d="M 119.2,86.1 L 118.9,78.8" style="fill:none;fill-rule:evenodd;stroke:#000000;stroke-width:2.0px;stroke-linecap:butt;stroke-linejoin:miter;stroke-opacity:1"/>
<path class="bond-3 atom-3 atom-4" d="M 118.9,78.8 L 118.5,71.5" style="fill:none;fill-rule:evenodd;stroke:#FF0000;stroke-width:2.0px;stroke-linecap:butt;stroke-linejoin:miter;stroke-opacity:1"/>
<path class="bond-4 atom-3 atom-5" d="M 119.2,86.1 L 104.1,95.8" style="fill:none;fill-rule:evenodd;stroke:#000000;stroke-width:2.0px;stroke-linecap:butt;stroke-linejoin:miter;stroke-opacity:1"/>
<path class="bond-5 atom-5 atom-6" d="M 104.1,95.8 L 104.4,103.1" style="fill:none;fill-rule:evenodd;stroke:#000000;stroke-width:2.0px;stroke-linecap:butt;stroke-linejoin:miter;stroke-opacity:1"/>
<path class="bond-5 atom-5 atom-6" d="M 104.4,103.1 L 104.7,110.5" style="fill:none;fill-rule:evenodd;stroke:#FF0000;stroke-width:2.0px;stroke-linecap:butt;stroke-linejoin:miter;stroke-opacity:1"/>
<path class="bond-6 atom-5 atom-7" d="M 104.1,95.8 L 88.2,87.5" style="fill:none;fill-rule:evenodd;stroke:#000000;stroke-width:2.0px;stroke-linecap:butt;stroke-linejoin:miter;stroke-opacity:1"/>
<path class="bond-7 atom-7 atom-8" d="M 88.2,87.5 L 73.0,97.1" style="fill:none;fill-rule:evenodd;stroke:#000000;stroke-width:2.0px;stroke-linecap:butt;stroke-linejoin:miter;stroke-opacity:1"/>
<path class="bond-8 atom-8 atom-9" d="M 73.0,97.1 L 66.6,93.7" style="fill:none;fill-rule:evenodd;stroke:#000000;stroke-width:2.0px;stroke-linecap:butt;stroke-linejoin:miter;stroke-opacity:1"/>
<path class="bond-8 atom-8 atom-9" d="M 66.6,93.7 L 60.1,90.3" style="fill:none;fill-rule:evenodd;stroke:#FF0000;stroke-width:2.0px;stroke-linecap:butt;stroke-linejoin:miter;stroke-opacity:1"/>
<path d="M 89.0,87.9 L 88.2,87.5 L 87.4,88.0" style="fill:none;stroke:#000000;stroke-width:2.0px;stroke-linecap:butt;stroke-linejoin:miter;stroke-opacity:1;"/>
<path d="M 73.8,96.6 L 73.0,97.1 L 72.7,96.9" style="fill:none;stroke:#000000;stroke-width:2.0px;stroke-linecap:butt;stroke-linejoin:miter;stroke-opacity:1;"/>
<path class="atom-2" d="M 133.5 112.4 Q 133.5 111.1, 134.1 110.5 Q 134.7 109.8, 135.9 109.8 Q 137.0 109.8, 137.6 110.5 Q 138.2 111.1, 138.2 112.4 Q 138.2 113.6, 137.6 114.3 Q 137.0 115.0, 135.9 115.0 Q 134.7 115.0, 134.1 114.3 Q 133.5 113.6, 133.5 112.4 M 135.9 114.4 Q 136.6 114.4, 137.0 113.9 Q 137.5 113.4, 137.5 112.4 Q 137.5 111.4, 137.0 110.9 Q 136.6 110.4, 135.9 110.4 Q 135.1 110.4, 134.7 110.9 Q 134.2 111.4, 134.2 112.4 Q 134.2 113.4, 134.7 113.9 Q 135.1 114.4, 135.9 114.4 " fill="#FF0000"/>
<path class="atom-2" d="M 139.0 109.8 L 139.7 109.8 L 139.7 112.0 L 142.3 112.0 L 142.3 109.8 L 142.9 109.8 L 142.9 114.9 L 142.3 114.9 L 142.3 112.6 L 139.7 112.6 L 139.7 114.9 L 139.0 114.9 L 139.0 109.8 " fill="#FF0000"/>
<path class="atom-4" d="M 116.1 68.3 Q 116.1 67.0, 116.7 66.4 Q 117.3 65.7, 118.4 65.7 Q 119.5 65.7, 120.1 66.4 Q 120.7 67.0, 120.7 68.3 Q 120.7 69.5, 120.1 70.2 Q 119.5 70.9, 118.4 70.9 Q 117.3 70.9, 116.7 70.2 Q 116.1 69.5, 116.1 68.3 M 118.4 70.3 Q 119.2 70.3, 119.6 69.8 Q 120.0 69.3, 120.0 68.3 Q 120.0 67.3, 119.6 66.8 Q 119.2 66.2, 118.4 66.2 Q 117.6 66.2, 117.2 66.7 Q 116.8 67.2, 116.8 68.3 Q 116.8 69.3, 117.2 69.8 Q 117.6 70.3, 118.4 70.3 " fill="#FF0000"/>
<path class="atom-4" d="M 121.5 65.7 L 122.2 65.7 L 122.2 67.9 L 124.8 67.9 L 124.8 65.7 L 125.5 65.7 L 125.5 70.8 L 124.8 70.8 L 124.8 68.5 L 122.2 68.5 L 122.2 70.8 L 121.5 70.8 L 121.5 65.7 " fill="#FF0000"/>
<path class="atom-6" d="M 102.5 113.7 Q 102.5 112.5, 103.1 111.8 Q 103.7 111.1, 104.8 111.1 Q 106.0 111.1, 106.6 111.8 Q 107.2 112.5, 107.2 113.7 Q 107.2 114.9, 106.6 115.6 Q 105.9 116.3, 104.8 116.3 Q 103.7 116.3, 103.1 115.6 Q 102.5 114.9, 102.5 113.7 M 104.8 115.8 Q 105.6 115.8, 106.0 115.2 Q 106.4 114.7, 106.4 113.7 Q 106.4 112.7, 106.0 112.2 Q 105.6 111.7, 104.8 111.7 Q 104.1 111.7, 103.6 112.2 Q 103.2 112.7, 103.2 113.7 Q 103.2 114.7, 103.6 115.2 Q 104.1 115.8, 104.8 115.8 " fill="#FF0000"/>
<path class="atom-6" d="M 108.0 111.2 L 108.6 111.2 L 108.6 113.3 L 111.2 113.3 L 111.2 111.2 L 111.9 111.2 L 111.9 116.2 L 111.2 116.2 L 111.2 113.9 L 108.6 113.9 L 108.6 116.2 L 108.0 116.2 L 108.0 111.2 " fill="#FF0000"/>
<path class="atom-9" d="M 49.8 86.3 L 50.5 86.3 L 50.5 88.5 L 53.1 88.5 L 53.1 86.3 L 53.8 86.3 L 53.8 91.4 L 53.1 91.4 L 53.1 89.0 L 50.5 89.0 L 50.5 91.4 L 49.8 91.4 L 49.8 86.3 " fill="#FF0000"/>
<path class="atom-9" d="M 54.8 88.8 Q 54.8 87.6, 55.4 86.9 Q 56.0 86.3, 57.1 86.3 Q 58.3 86.3, 58.9 86.9 Q 59.5 87.6, 59.5 88.8 Q 59.5 90.1, 58.9 90.8 Q 58.3 91.5, 57.1 91.5 Q 56.0 91.5, 55.4 90.8 Q 54.8 90.1, 54.8 88.8 M 57.1 90.9 Q 57.9 90.9, 58.3 90.4 Q 58.8 89.9, 58.8 88.8 Q 58.8 87.8, 58.3 87.3 Q 57.9 86.8, 57.1 86.8 Q 56.4 86.8, 55.9 87.3 Q 55.5 87.8, 55.5 88.8 Q 55.5 89.9, 55.9 90.4 Q 56.4 90.9, 57.1 90.9 " fill="#FF0000"/>
<path class="legend" d="M 103.4 190.0 L 102.2 186.7 L 97.8 186.7 L 96.6 190.0 L 95.1 190.0 L 99.0 178.7 L 100.9 178.7 L 104.9 190.0 L 103.4 190.0 M 98.2 185.4 L 101.8 185.4 L 100.0 180.3 L 98.2 185.4 " fill="#000000"/>
<path class="bond-0 atom-0 atom-1" d="M 220.2,59.1 L 232.5,72.1" style="fill:none;fill-rule:evenodd;stroke:#000000;stroke-width:2.0px;stroke-linecap:butt;stroke-linejoin:miter;stroke-opacity:1"/>
<path class="bond-1 atom-1 atom-2" d="M 232.5,72.1 L 227.4,89.3" style="fill:none;fill-rule:evenodd;stroke:#000000;stroke-width:2.0px;stroke-linecap:butt;stroke-linejoin:miter;stroke-opacity:1"/>
<path class="bond-2 atom-2 atom-3" d="M 227.4,89.3 L 210.0,93.5" style="fill:none;fill-rule:evenodd;stroke:#000000;stroke-width:2.0px;stroke-linecap:butt;stroke-linejoin:miter;stroke-opacity:1"/>
<path class="bond-3 atom-2 atom-4" d="M 227.4,89.3 L 239.8,102.3" style="fill:none;fill-rule:evenodd;stroke:#000000;stroke-width:2.0px;stroke-linecap:butt;stroke-linejoin:miter;stroke-opacity:1"/>
<path class="bond-4 atom-4 atom-5" d="M 239.8,102.3 L 257.2,98.1" style="fill:none;fill-rule:evenodd;stroke:#000000;stroke-width:2.0px;stroke-linecap:butt;stroke-linejoin:miter;stroke-opacity:1"/>
<path class="bond-5 atom-5 atom-6" d="M 257.2,98.1 L 269.5,111.2" style="fill:none;fill-rule:evenodd;stroke:#000000;stroke-width:2.0px;stroke-linecap:butt;stroke-linejoin:miter;stroke-opacity:1"/>
<path class="bond-6 atom-6 atom-7" d="M 269.5,111.2 L 264.4,128.3" style="fill:none;fill-rule:evenodd;stroke:#000000;stroke-width:2.0px;stroke-linecap:butt;stroke-linejoin:miter;stroke-opacity:1"/>
<path class="bond-7 atom-6 atom-8" d="M 269.5,111.2 L 287.0,107.0" style="fill:none;fill-rule:evenodd;stroke:#000000;stroke-width:2.0px;stroke-linecap:butt;stroke-linejoin:miter;stroke-opacity:1"/>
<path class="bond-8 atom-8 atom-9" d="M 287.0,107.0 L 292.1,89.8" style="fill:none;fill-rule:evenodd;stroke:#000000;stroke-width:2.0px;stroke-linecap:butt;stroke-linejoin:miter;stroke-opacity:1"/>
<path class="bond-9 atom-9 atom-10" d="M 292.1,89.8 L 309.5,85.6" style="fill:none;fill-rule:evenodd;stroke:#000000;stroke-width:2.0px;stroke-linecap:butt;stroke-linejoin:miter;stroke-opacity:1"/>
<path class="bond-10 atom-10 atom-11" d="M 309.5,85.6 L 305.3,68.2" style="fill:none;fill-rule:evenodd;stroke:#000000;stroke-width:2.0px;stroke-linecap:butt;stroke-linejoin:miter;stroke-opacity:1"/>
<path class="bond-11 atom-10 atom-12" d="M 309.5,85.6 L 313.7,103.1" style="fill:none;fill-rule:evenodd;stroke:#000000;stroke-width:2.0px;stroke-linecap:butt;stroke-linejoin:miter;stroke-opacity:1"/>
<path class="bond-12 atom-10 atom-13" d="M 309.5,85.6 L 326.9,81.4" style="fill:none;fill-rule:evenodd;stroke:#000000;stroke-width:2.0px;stroke-linecap:butt;stroke-linejoin:miter;stroke-opacity:1"/>
<path class="bond-13 atom-13 atom-14" d="M 326.9,81.4 L 319.8,65.0" style="fill:none;fill-rule:evenodd;stroke:#000000;stroke-width:2.0px;stroke-linecap:butt;stroke-linejoin:miter;stroke-opacity:1"/>
<path class="bond-14 atom-13 atom-15" d="M 326.9,81.4 L 328.0,99.3" style="fill:none;fill-rule:evenodd;stroke:#000000;stroke-width:2.0px;stroke-linecap:butt;stroke-linejoin:miter;stroke-opacity:1"/>
<path class="bond-15 atom-15 atom-16" d="M 328.0,99.3 L 344.1,107.3" style="fill:none;fill-rule:evenodd;stroke:#000000;stroke-width:2.0px;stroke-linecap:butt;stroke-linejoin:miter;stroke-opacity:1"/>
<path class="bond-16 atom-16 atom-17" d="M 344.1,107.3 L 359.0,97.5" style="fill:none;fill-rule:evenodd;stroke:#000000;stroke-width:2.0px;stroke-linecap:butt;stroke-linejoin:miter;stroke-opacity:1"/>
<path class="bond-17 atom-17 atom-18" d="M 359.0,97.5 L 375.0,105.5" style="fill:none;fill-rule:evenodd;stroke:#000000;stroke-width:2.0px;stroke-linecap:butt;stroke-linejoin:miter;stroke-opacity:1"/>
<path class="bond-18 atom-18 atom-19" d="M 375.0,105.5 L 387.4,118.5" style="fill:none;fill-rule:evenodd;stroke:#000000;stroke-width:2.0px;stroke-linecap:butt;stroke-linejoin:miter;stroke-opacity:1"/>
<path class="bond-19 atom-18 atom-20" d="M 375.0,105.5 L 364.4,119.9" style="fill:none;fill-rule:evenodd;stroke:#000000;stroke-width:2.0px;stroke-linecap:butt;stroke-linejoin:miter;stroke-opacity:1"/>
<path class="bond-20 atom-18 atom-21" d="M 375.0,105.5 L 390.0,95.6" style="fill:none;fill-rule:evenodd;stroke:#000000;stroke-width:2.0px;stroke-linecap:butt;stroke-linejoin:miter;stroke-opacity:1"/>
<path class="bond-21 atom-21 atom-22" d="M 390.0,95.6 L 388.9,77.7" style="fill:none;fill-rule:evenodd;stroke:#000000;stroke-width:2.0px;stroke-linecap:butt;stroke-linejoin:miter;stroke-opacity:1"/>
<path class="bond-22 atom-22 atom-23" d="M 388.9,77.7 L 372.9,69.7" style="fill:none;fill-rule:evenodd;stroke:#000000;stroke-width:2.0px;stroke-linecap:butt;stroke-linejoin:miter;stroke-opacity:1"/>
<path class="bond-23 atom-23 atom-24" d="M 372.9,69.7 L 357.9,79.6" style="fill:none;fill-rule:evenodd;stroke:#000000;stroke-width:2.0px;stroke-linecap:butt;stroke-linejoin:miter;stroke-opacity:1"/>
<path class="bond-24 atom-24 atom-25" d="M 357.9,79.6 L 356.8,61.7" style="fill:none;fill-rule:evenodd;stroke:#000000;stroke-width:2.0px;stroke-linecap:butt;stroke-linejoin:miter;stroke-opacity:1"/>
<path class="bond-25 atom-24 atom-26" d="M 357.9,79.6 L 341.9,71.6" style="fill:none;fill-rule:evenodd;stroke:#000000;stroke-width:2.0px;stroke-linecap:butt;stroke-linejoin:miter;stroke-opacity:1"/>
<path class="bond-26 atom-26 atom-27" d="M 341.9,71.6 L 340.8,53.7" style="fill:none;fill-rule:evenodd;stroke:#000000;stroke-width:2.0px;stroke-linecap:butt;stroke-linejoin:miter;stroke-opacity:1"/>
<path class="bond-27 atom-26 atom-13" d="M 341.9,71.6 L 326.9,81.4" style="fill:none;fill-rule:evenodd;stroke:#000000;stroke-width:2.0px;stroke-linecap:butt;stroke-linejoin:miter;stroke-opacity:1"/>
<path class="bond-28 atom-24 atom-17" d="M 357.9,79.6 L 359.0,97.5" style="fill:none;fill-rule:evenodd;stroke:#000000;stroke-width:2.0px;stroke-linecap:butt;stroke-linejoin:miter;stroke-opacity:1"/>
<path d="M 231.9,71.5 L 232.5,72.1 L 232.3,73.0" style="fill:none;stroke:#000000;stroke-width:2.0px;stroke-linecap:butt;stroke-linejoin:miter;stroke-opacity:1;"/>
<path d="M 239.1,101.7 L 239.8,102.3 L 240.6,102.1" style="fill:none;stroke:#000000;stroke-width:2.0px;stroke-linecap:butt;stroke-linejoin:miter;stroke-opacity:1;"/>
<path d="M 256.3,98.3 L 257.2,98.1 L 257.8,98.8" style="fill:none;stroke:#000000;stroke-width:2.0px;stroke-linecap:butt;stroke-linejoin:miter;stroke-opacity:1;"/>
<path d="M 286.1,107.2 L 287.0,107.0 L 287.2,106.1" style="fill:none;stroke:#000000;stroke-width:2.0px;stroke-linecap:butt;stroke-linejoin:miter;stroke-opacity:1;"/>
<path d="M 291.8,90.7 L 292.1,89.8 L 292.9,89.6" style="fill:none;stroke:#000000;stroke-width:2.0px;stroke-linecap:butt;stroke-linejoin:miter;stroke-opacity:1;"/>
<path d="M 328.0,98.4 L 328.0,99.3 L 328.8,99.7" style="fill:none;stroke:#000000;stroke-width:2.0px;stroke-linecap:butt;stroke-linejoin:miter;stroke-opacity:1;"/>
<path d="M 343.3,106.9 L 344.1,107.3 L 344.8,106.9" style="fill:none;stroke:#000000;stroke-width:2.0px;stroke-linecap:butt;stroke-linejoin:miter;stroke-opacity:1;"/>
<path d="M 389.3,96.1 L 390.0,95.6 L 389.9,94.7" style="fill:none;stroke:#000000;stroke-width:2.0px;stroke-linecap:butt;stroke-linejoin:miter;stroke-opacity:1;"/>
<path d="M 389.0,78.6 L 388.9,77.7 L 388.1,77.3" style="fill:none;stroke:#000000;stroke-width:2.0px;stroke-linecap:butt;stroke-linejoin:miter;stroke-opacity:1;"/>
<path d="M 373.7,70.1 L 372.9,69.7 L 372.1,70.2" style="fill:none;stroke:#000000;stroke-width:2.0px;stroke-linecap:butt;stroke-linejoin:miter;stroke-opacity:1;"/>
<path class="legend" d="M 301.7 184.0 Q 302.7 184.4, 303.3 185.0 Q 303.8 185.7, 303.8 186.7 Q 303.8 188.2, 302.8 189.1 Q 301.8 190.0, 300.0 190.0 L 296.2 190.0 L 296.2 178.7 L 299.5 178.7 Q 301.4 178.7, 302.4 179.5 Q 303.4 180.2, 303.4 181.7 Q 303.4 183.4, 301.7 184.0 M 297.7 180.0 L 297.7 183.5 L 299.5 183.5 Q 300.6 183.5, 301.2 183.1 Q 301.8 182.6, 301.8 181.7 Q 301.8 180.0, 299.5 180.0 L 297.7 180.0 M 300.0 188.7 Q 301.1 188.7, 301.7 188.2 Q 302.2 187.7, 302.2 186.7 Q 302.2 185.7, 301.6 185.3 Q 301.0 184.8, 299.7 184.8 L 297.7 184.8 L 297.7 188.7 L 300.0 188.7 " fill="#000000"/>
</svg>