<svg xmlns="http://www.w3.org/2000/svg" xmlns:rdkit="http://www.rdkit.org/xml" xmlns:xlink="http://www.w3.org/1999/xlink" version="1.1" baseProfile="full" xml:space="preserve" width="800px" height="200px" viewBox="0 0 800 200">
<!-- END OF HEADER -->
<rect style="opacity:1.0;fill:#FFFFFF;stroke:none" width="800.0" height="200.0" x="0.0" y="0.0"> </rect>
<path class="bond-0 atom-0 atom-1" d="M 32.0,125.9 L 26.6,113.2" style="fill:none;fill-rule:evenodd;stroke:#000000;stroke-width:2.0px;stroke-linecap:butt;stroke-linejoin:miter;stroke-opacity:1"/>
<path class="bond-1 atom-1 atom-2" d="M 26.6,113.2 L 15.0,120.8" style="fill:none;fill-rule:evenodd;stroke:#000000;stroke-width:2.0px;stroke-linecap:butt;stroke-linejoin:miter;stroke-opacity:1"/>
<path class="bond-2 atom-1 atom-3" d="M 26.6,113.2 L 17.1,103.1" style="fill:none;fill-rule:evenodd;stroke:#000000;stroke-width:2.0px;stroke-linecap:butt;stroke-linejoin:miter;stroke-opacity:1"/>
<path class="bond-3 atom-3 atom-4" d="M 17.1,103.1 L 21.1,89.8" style="fill:none;fill-rule:evenodd;stroke:#000000;stroke-width:2.0px;stroke-linecap:butt;stroke-linejoin:miter;stroke-opacity:1"/>
<path class="bond-4 atom-4 atom-5" d="M 21.1,89.8 L 34.6,86.7" style="fill:none;fill-rule:evenodd;stroke:#000000;stroke-width:2.0px;stroke-linecap:butt;stroke-linejoin:miter;stroke-opacity:1"/>
<path class="bond-5 atom-5 atom-6" d="M 34.6,86.7 L 25.1,76.6" style="fill:none;fill-rule:evenodd;stroke:#000000;stroke-width:2.0px;stroke-linecap:butt;stroke-linejoin:miter;stroke-opacity:1"/>
<path class="bond-6 atom-6 atom-7" d="M 25.5,75.4 L 19.6,76.8" style="fill:none;fill-rule:evenodd;stroke:#000000;stroke-width:2.0px;stroke-linecap:butt;stroke-linejoin:miter;stroke-opacity:1"/>
<path class="bond-6 atom-6 atom-7" d="M 19.6,76.8 L 13.8,78.2" style="fill:none;fill-rule:evenodd;stroke:#FF0000;stroke-width:2.0px;stroke-linecap:butt;stroke-linejoin:miter;stroke-opacity:1"/>
<path class="bond-6 atom-6 atom-7" d="M 26.0,77.5 L 20.1,78.8" style="fill:none;fill-rule:evenodd;stroke:#000000;stroke-width:2.0px;stroke-linecap:butt;stroke-linejoin:miter;stroke-opacity:1"/>
<path class="bond-6 atom-6 atom-7" d="M 20.1,78.8 L 14.3,80.2" style="fill:none;fill-rule:evenodd;stroke:#FF0000;stroke-width:2.0px;stroke-linecap:butt;stroke-linejoin:miter;stroke-opacity:1"/>
<path class="bond-7 atom-6 atom-8" d="M 25.1,76.6 L 26.7,71.3" style="fill:none;fill-rule:evenodd;stroke:#000000;stroke-width:2.0px;stroke-linecap:butt;stroke-linejoin:miter;stroke-opacity:1"/>
<path class="bond-7 atom-6 atom-8" d="M 26.7,71.3 L 28.3,66.0" style="fill:none;fill-rule:evenodd;stroke:#FF0000;stroke-width:2.0px;stroke-linecap:butt;stroke-linejoin:miter;stroke-opacity:1"/>
<path class="bond-8 atom-5 atom-9" d="M 34.6,86.7 L 38.6,73.5" style="fill:none;fill-rule:evenodd;stroke:#000000;stroke-width:2.0px;stroke-linecap:butt;stroke-linejoin:miter;stroke-opacity:1"/>
<path class="bond-9 atom-9 atom-10" d="M 38.6,73.5 L 52.1,70.3" style="fill:none;fill-rule:evenodd;stroke:#000000;stroke-width:2.0px;stroke-linecap:butt;stroke-linejoin:miter;stroke-opacity:1"/>
<path class="bond-10 atom-10 atom-11" d="M 52.1,70.3 L 61.6,80.4" style="fill:none;fill-rule:evenodd;stroke:#000000;stroke-width:2.0px;stroke-linecap:butt;stroke-linejoin:miter;stroke-opacity:1"/>
<path class="bond-11 atom-11 atom-12" d="M 61.6,80.4 L 71.0,90.5" style="fill:none;fill-rule:evenodd;stroke:#000000;stroke-width:2.0px;stroke-linecap:butt;stroke-linejoin:miter;stroke-opacity:1"/>
<path class="bond-12 atom-11 atom-13" d="M 61.6,80.4 L 57.5,93.7" style="fill:none;fill-rule:evenodd;stroke:#000000;stroke-width:2.0px;stroke-linecap:butt;stroke-linejoin:miter;stroke-opacity:1"/>
<path class="bond-13 atom-13 atom-14" d="M 57.5,93.7 L 67.0,103.8" style="fill:none;fill-rule:evenodd;stroke:#000000;stroke-width:2.0px;stroke-linecap:butt;stroke-linejoin:miter;stroke-opacity:1"/>
<path class="bond-13 atom-13 atom-14" d="M 59.9,93.1 L 67.7,101.5" style="fill:none;fill-rule:evenodd;stroke:#000000;stroke-width:2.0px;stroke-linecap:butt;stroke-linejoin:miter;stroke-opacity:1"/>
<path class="bond-14 atom-14 atom-15" d="M 67.0,103.8 L 80.5,100.6" style="fill:none;fill-rule:evenodd;stroke:#000000;stroke-width:2.0px;stroke-linecap:butt;stroke-linejoin:miter;stroke-opacity:1"/>
<path class="bond-15 atom-15 atom-16" d="M 80.5,100.6 L 84.5,87.4" style="fill:none;fill-rule:evenodd;stroke:#000000;stroke-width:2.0px;stroke-linecap:butt;stroke-linejoin:miter;stroke-opacity:1"/>
<path class="bond-16 atom-16 atom-17" d="M 84.5,87.4 L 98.0,84.2" style="fill:none;fill-rule:evenodd;stroke:#000000;stroke-width:2.0px;stroke-linecap:butt;stroke-linejoin:miter;stroke-opacity:1"/>
<path class="bond-17 atom-17 atom-18" d="M 98.0,84.2 L 94.0,97.5" style="fill:none;fill-rule:evenodd;stroke:#000000;stroke-width:2.0px;stroke-linecap:butt;stroke-linejoin:miter;stroke-opacity:1"/>
<path class="bond-18 atom-17 atom-19" d="M 98.0,84.2 L 107.5,94.3" style="fill:none;fill-rule:evenodd;stroke:#000000;stroke-width:2.0px;stroke-linecap:butt;stroke-linejoin:miter;stroke-opacity:1"/>
<path class="bond-19 atom-19 atom-20" d="M 107.5,94.3 L 121.0,91.2" style="fill:none;fill-rule:evenodd;stroke:#000000;stroke-width:2.0px;stroke-linecap:butt;stroke-linejoin:miter;stroke-opacity:1"/>
<path class="bond-20 atom-20 atom-21" d="M 121.0,91.2 L 125.0,78.0" style="fill:none;fill-rule:evenodd;stroke:#000000;stroke-width:2.0px;stroke-linecap:butt;stroke-linejoin:miter;stroke-opacity:1"/>
<path class="bond-21 atom-21 atom-22" d="M 125.0,78.0 L 130.5,76.7" style="fill:none;fill-rule:evenodd;stroke:#000000;stroke-width:2.0px;stroke-linecap:butt;stroke-linejoin:miter;stroke-opacity:1"/>
<path class="bond-21 atom-21 atom-22" d="M 130.5,76.7 L 136.1,75.4" style="fill:none;fill-rule:evenodd;stroke:#FF0000;stroke-width:2.0px;stroke-linecap:butt;stroke-linejoin:miter;stroke-opacity:1"/>
<path class="bond-22 atom-22 atom-23" d="M 140.9,77.4 L 144.4,81.2" style="fill:none;fill-rule:evenodd;stroke:#FF0000;stroke-width:2.0px;stroke-linecap:butt;stroke-linejoin:miter;stroke-opacity:1"/>
<path class="bond-22 atom-22 atom-23" d="M 144.4,81.2 L 147.9,84.9" style="fill:none;fill-rule:evenodd;stroke:#000000;stroke-width:2.0px;stroke-linecap:butt;stroke-linejoin:miter;stroke-opacity:1"/>
<path class="bond-23 atom-23 atom-24" d="M 147.9,84.9 L 146.3,90.2" style="fill:none;fill-rule:evenodd;stroke:#000000;stroke-width:2.0px;stroke-linecap:butt;stroke-linejoin:miter;stroke-opacity:1"/>
<path class="bond-23 atom-23 atom-24" d="M 146.3,90.2 L 144.7,95.6" style="fill:none;fill-rule:evenodd;stroke:#FF0000;stroke-width:2.0px;stroke-linecap:butt;stroke-linejoin:miter;stroke-opacity:1"/>
<path class="bond-24 atom-24 atom-25" d="M 146.3,100.7 L 149.8,104.5" style="fill:none;fill-rule:evenodd;stroke:#FF0000;stroke-width:2.0px;stroke-linecap:butt;stroke-linejoin:miter;stroke-opacity:1"/>
<path class="bond-24 atom-24 atom-25" d="M 149.8,104.5 L 153.4,108.3" style="fill:none;fill-rule:evenodd;stroke:#000000;stroke-width:2.0px;stroke-linecap:butt;stroke-linejoin:miter;stroke-opacity:1"/>
<path class="bond-25 atom-25 atom-26" d="M 153.4,108.3 L 149.4,121.5" style="fill:none;fill-rule:evenodd;stroke:#000000;stroke-width:2.0px;stroke-linecap:butt;stroke-linejoin:miter;stroke-opacity:1"/>
<path class="bond-26 atom-26 atom-27" d="M 149.4,121.5 L 143.8,122.8" style="fill:none;fill-rule:evenodd;stroke:#000000;stroke-width:2.0px;stroke-linecap:butt;stroke-linejoin:miter;stroke-opacity:1"/>
<path class="bond-26 atom-26 atom-27" d="M 143.8,122.8 L 138.3,124.1" style="fill:none;fill-rule:evenodd;stroke:#FF0000;stroke-width:2.0px;stroke-linecap:butt;stroke-linejoin:miter;stroke-opacity:1"/>
<path class="bond-27 atom-25 atom-28" d="M 153.4,108.3 L 166.9,105.1" style="fill:none;fill-rule:evenodd;stroke:#000000;stroke-width:2.0px;stroke-linecap:butt;stroke-linejoin:miter;stroke-opacity:1"/>
<path class="bond-28 atom-28 atom-29" d="M 166.9,105.1 L 170.4,108.9" style="fill:none;fill-rule:evenodd;stroke:#000000;stroke-width:2.0px;stroke-linecap:butt;stroke-linejoin:miter;stroke-opacity:1"/>
<path class="bond-28 atom-28 atom-29" d="M 170.4,108.9 L 173.9,112.7" style="fill:none;fill-rule:evenodd;stroke:#FF0000;stroke-width:2.0px;stroke-linecap:butt;stroke-linejoin:miter;stroke-opacity:1"/>
<path class="bond-29 atom-28 atom-30" d="M 166.9,105.1 L 170.9,91.9" style="fill:none;fill-rule:evenodd;stroke:#000000;stroke-width:2.0px;stroke-linecap:butt;stroke-linejoin:miter;stroke-opacity:1"/>
<path class="bond-30 atom-30 atom-31" d="M 170.9,91.9 L 176.4,90.6" style="fill:none;fill-rule:evenodd;stroke:#000000;stroke-width:2.0px;stroke-linecap:butt;stroke-linejoin:miter;stroke-opacity:1"/>
<path class="bond-30 atom-30 atom-31" d="M 176.4,90.6 L 182.0,89.3" style="fill:none;fill-rule:evenodd;stroke:#FF0000;stroke-width:2.0px;stroke-linecap:butt;stroke-linejoin:miter;stroke-opacity:1"/>
<path class="bond-31 atom-30 atom-32" d="M 170.9,91.9 L 161.4,81.8" style="fill:none;fill-rule:evenodd;stroke:#000000;stroke-width:2.0px;stroke-linecap:butt;stroke-linejoin:miter;stroke-opacity:1"/>
<path class="bond-32 atom-32 atom-33" d="M 161.4,81.8 L 163.0,76.5" style="fill:none;fill-rule:evenodd;stroke:#000000;stroke-width:2.0px;stroke-linecap:butt;stroke-linejoin:miter;stroke-opacity:1"/>
<path class="bond-32 atom-32 atom-33" d="M 163.0,76.5 L 164.6,71.2" style="fill:none;fill-rule:evenodd;stroke:#FF0000;stroke-width:2.0px;stroke-linecap:butt;stroke-linejoin:miter;stroke-opacity:1"/>
<path class="bond-33 atom-21 atom-34" d="M 125.0,78.0 L 115.5,67.8" style="fill:none;fill-rule:evenodd;stroke:#000000;stroke-width:2.0px;stroke-linecap:butt;stroke-linejoin:miter;stroke-opacity:1"/>
<path class="bond-34 atom-34 atom-35" d="M 115.5,67.8 L 110.1,55.1" style="fill:none;fill-rule:evenodd;stroke:#000000;stroke-width:2.0px;stroke-linecap:butt;stroke-linejoin:miter;stroke-opacity:1"/>
<path class="bond-35 atom-34 atom-36" d="M 115.5,67.8 L 127.1,60.3" style="fill:none;fill-rule:evenodd;stroke:#000000;stroke-width:2.0px;stroke-linecap:butt;stroke-linejoin:miter;stroke-opacity:1"/>
<path class="bond-36 atom-34 atom-37" d="M 115.5,67.8 L 102.0,71.0" style="fill:none;fill-rule:evenodd;stroke:#000000;stroke-width:2.0px;stroke-linecap:butt;stroke-linejoin:miter;stroke-opacity:1"/>
<path class="bond-37 atom-37 atom-38" d="M 102.0,71.0 L 92.6,60.9" style="fill:none;fill-rule:evenodd;stroke:#000000;stroke-width:2.0px;stroke-linecap:butt;stroke-linejoin:miter;stroke-opacity:1"/>
<path class="bond-38 atom-38 atom-39" d="M 92.6,60.9 L 79.1,64.0" style="fill:none;fill-rule:evenodd;stroke:#000000;stroke-width:2.0px;stroke-linecap:butt;stroke-linejoin:miter;stroke-opacity:1"/>
<path class="bond-39 atom-39 atom-40" d="M 79.1,64.0 L 75.1,77.3" style="fill:none;fill-rule:evenodd;stroke:#000000;stroke-width:2.0px;stroke-linecap:butt;stroke-linejoin:miter;stroke-opacity:1"/>
<path class="bond-40 atom-40 atom-41" d="M 75.1,77.3 L 65.6,67.2" style="fill:none;fill-rule:evenodd;stroke:#000000;stroke-width:2.0px;stroke-linecap:butt;stroke-linejoin:miter;stroke-opacity:1"/>
<path class="bond-41 atom-13 atom-42" d="M 57.5,93.7 L 44.1,96.8" style="fill:none;fill-rule:evenodd;stroke:#000000;stroke-width:2.0px;stroke-linecap:butt;stroke-linejoin:miter;stroke-opacity:1"/>
<path class="bond-42 atom-42 atom-43" d="M 44.1,96.8 L 40.0,110.1" style="fill:none;fill-rule:evenodd;stroke:#000000;stroke-width:2.0px;stroke-linecap:butt;stroke-linejoin:miter;stroke-opacity:1"/>
<path class="bond-43 atom-43 atom-1" d="M 40.0,110.1 L 26.6,113.2" style="fill:none;fill-rule:evenodd;stroke:#000000;stroke-width:2.0px;stroke-linecap:butt;stroke-linejoin:miter;stroke-opacity:1"/>
<path class="bond-44 atom-42 atom-5" d="M 44.1,96.8 L 34.6,86.7" style="fill:none;fill-rule:evenodd;stroke:#000000;stroke-width:2.0px;stroke-linecap:butt;stroke-linejoin:miter;stroke-opacity:1"/>
<path class="bond-45 atom-40 atom-11" d="M 75.1,77.3 L 61.6,80.4" style="fill:none;fill-rule:evenodd;stroke:#000000;stroke-width:2.0px;stroke-linecap:butt;stroke-linejoin:miter;stroke-opacity:1"/>
<path class="bond-46 atom-40 atom-16" d="M 75.1,77.3 L 84.5,87.4" style="fill:none;fill-rule:evenodd;stroke:#000000;stroke-width:2.0px;stroke-linecap:butt;stroke-linejoin:miter;stroke-opacity:1"/>
<path class="bond-47 atom-37 atom-17" d="M 102.0,71.0 L 98.0,84.2" style="fill:none;fill-rule:evenodd;stroke:#000000;stroke-width:2.0px;stroke-linecap:butt;stroke-linejoin:miter;stroke-opacity:1"/>
<path class="bond-48 atom-32 atom-23" d="M 161.4,81.8 L 147.9,84.9" style="fill:none;fill-rule:evenodd;stroke:#000000;stroke-width:2.0px;stroke-linecap:butt;stroke-linejoin:miter;stroke-opacity:1"/>
<path d="M 17.6,103.6 L 17.1,103.1 L 17.3,102.4" style="fill:none;stroke:#000000;stroke-width:2.0px;stroke-linecap:butt;stroke-linejoin:miter;stroke-opacity:1;"/>
<path d="M 20.9,90.5 L 21.1,89.8 L 21.8,89.7" style="fill:none;stroke:#000000;stroke-width:2.0px;stroke-linecap:butt;stroke-linejoin:miter;stroke-opacity:1;"/>
<path d="M 25.6,77.1 L 25.1,76.6 L 25.2,76.3" style="fill:none;stroke:#000000;stroke-width:2.0px;stroke-linecap:butt;stroke-linejoin:miter;stroke-opacity:1;"/>
<path d="M 38.4,74.1 L 38.6,73.5 L 39.3,73.3" style="fill:none;stroke:#000000;stroke-width:2.0px;stroke-linecap:butt;stroke-linejoin:miter;stroke-opacity:1;"/>
<path d="M 51.4,70.5 L 52.1,70.3 L 52.6,70.8" style="fill:none;stroke:#000000;stroke-width:2.0px;stroke-linecap:butt;stroke-linejoin:miter;stroke-opacity:1;"/>
<path d="M 66.5,103.3 L 67.0,103.8 L 67.7,103.6" style="fill:none;stroke:#000000;stroke-width:2.0px;stroke-linecap:butt;stroke-linejoin:miter;stroke-opacity:1;"/>
<path d="M 79.8,100.8 L 80.5,100.6 L 80.7,100.0" style="fill:none;stroke:#000000;stroke-width:2.0px;stroke-linecap:butt;stroke-linejoin:miter;stroke-opacity:1;"/>
<path d="M 107.0,93.8 L 107.5,94.3 L 108.1,94.2" style="fill:none;stroke:#000000;stroke-width:2.0px;stroke-linecap:butt;stroke-linejoin:miter;stroke-opacity:1;"/>
<path d="M 120.3,91.4 L 121.0,91.2 L 121.2,90.5" style="fill:none;stroke:#000000;stroke-width:2.0px;stroke-linecap:butt;stroke-linejoin:miter;stroke-opacity:1;"/>
<path d="M 149.6,120.9 L 149.4,121.5 L 149.1,121.6" style="fill:none;stroke:#000000;stroke-width:2.0px;stroke-linecap:butt;stroke-linejoin:miter;stroke-opacity:1;"/>
<path d="M 93.0,61.4 L 92.6,60.9 L 91.9,61.0" style="fill:none;stroke:#000000;stroke-width:2.0px;stroke-linecap:butt;stroke-linejoin:miter;stroke-opacity:1;"/>
<path d="M 79.8,63.9 L 79.1,64.0 L 78.9,64.7" style="fill:none;stroke:#000000;stroke-width:2.0px;stroke-linecap:butt;stroke-linejoin:miter;stroke-opacity:1;"/>
<path d="M 40.2,109.4 L 40.0,110.1 L 39.4,110.2" style="fill:none;stroke:#000000;stroke-width:2.0px;stroke-linecap:butt;stroke-linejoin:miter;stroke-opacity:1;"/>
<path class="atom-7" d="M 9.7 79.8 Q 9.7 78.7, 10.2 78.2 Q 10.7 77.6, 11.6 77.6 Q 12.6 77.6, 13.1 78.2 Q 13.6 78.7, 13.6 79.8 Q 13.6 80.8, 13.1 81.4 Q 12.6 82.0, 11.6 82.0 Q 10.7 82.0, 10.2 81.4 Q 9.7 80.8, 9.7 79.8 M 11.6 81.5 Q 12.3 81.5, 12.6 81.0 Q 13.0 80.6, 13.0 79.8 Q 13.0 78.9, 12.6 78.5 Q 12.3 78.1, 11.6 78.1 Q 11.0 78.1, 10.6 78.5 Q 10.3 78.9, 10.3 79.8 Q 10.3 80.6, 10.6 81.0 Q 11.0 81.5, 11.6 81.5 " fill="#FF0000"/>
<path class="atom-8" d="M 27.2 63.4 Q 27.2 62.3, 27.7 61.8 Q 28.2 61.2, 29.2 61.2 Q 30.1 61.2, 30.6 61.8 Q 31.1 62.3, 31.1 63.4 Q 31.1 64.4, 30.6 65.0 Q 30.1 65.6, 29.2 65.6 Q 28.2 65.6, 27.7 65.0 Q 27.2 64.4, 27.2 63.4 M 29.2 65.1 Q 29.8 65.1, 30.2 64.6 Q 30.5 64.2, 30.5 63.4 Q 30.5 62.5, 30.2 62.1 Q 29.8 61.7, 29.2 61.7 Q 28.5 61.7, 28.2 62.1 Q 27.8 62.5, 27.8 63.4 Q 27.8 64.2, 28.2 64.6 Q 28.5 65.1, 29.2 65.1 " fill="#FF0000"/>
<path class="atom-8" d="M 31.8 61.2 L 32.3 61.2 L 32.3 63.1 L 34.5 63.1 L 34.5 61.2 L 35.1 61.2 L 35.1 65.5 L 34.5 65.5 L 34.5 63.5 L 32.3 63.5 L 32.3 65.5 L 31.8 65.5 L 31.8 61.2 " fill="#FF0000"/>
<path class="atom-22" d="M 136.5 74.8 Q 136.5 73.8, 137.0 73.2 Q 137.5 72.7, 138.5 72.7 Q 139.4 72.7, 139.9 73.2 Q 140.4 73.8, 140.4 74.8 Q 140.4 75.9, 139.9 76.4 Q 139.4 77.0, 138.5 77.0 Q 137.5 77.0, 137.0 76.4 Q 136.5 75.9, 136.5 74.8 M 138.5 76.5 Q 139.1 76.5, 139.5 76.1 Q 139.8 75.7, 139.8 74.8 Q 139.8 74.0, 139.5 73.6 Q 139.1 73.1, 138.5 73.1 Q 137.8 73.1, 137.5 73.6 Q 137.1 74.0, 137.1 74.8 Q 137.1 75.7, 137.5 76.1 Q 137.8 76.5, 138.5 76.5 " fill="#FF0000"/>
<path class="atom-24" d="M 142.0 98.2 Q 142.0 97.2, 142.5 96.6 Q 143.0 96.0, 143.9 96.0 Q 144.9 96.0, 145.4 96.6 Q 145.9 97.2, 145.9 98.2 Q 145.9 99.2, 145.3 99.8 Q 144.8 100.4, 143.9 100.4 Q 143.0 100.4, 142.5 99.8 Q 142.0 99.2, 142.0 98.2 M 143.9 99.9 Q 144.6 99.9, 144.9 99.5 Q 145.3 99.0, 145.3 98.2 Q 145.3 97.3, 144.9 96.9 Q 144.6 96.5, 143.9 96.5 Q 143.3 96.5, 142.9 96.9 Q 142.6 97.3, 142.6 98.2 Q 142.6 99.0, 142.9 99.5 Q 143.3 99.9, 143.9 99.9 " fill="#FF0000"/>
<path class="atom-27" d="M 129.7 122.6 L 130.3 122.6 L 130.3 124.4 L 132.5 124.4 L 132.5 122.6 L 133.0 122.6 L 133.0 126.8 L 132.5 126.8 L 132.5 124.9 L 130.3 124.9 L 130.3 126.8 L 129.7 126.8 L 129.7 122.6 " fill="#FF0000"/>
<path class="atom-27" d="M 133.9 124.7 Q 133.9 123.7, 134.4 123.1 Q 134.9 122.5, 135.9 122.5 Q 136.8 122.5, 137.3 123.1 Q 137.8 123.7, 137.8 124.7 Q 137.8 125.7, 137.3 126.3 Q 136.8 126.9, 135.9 126.9 Q 134.9 126.9, 134.4 126.3 Q 133.9 125.7, 133.9 124.7 M 135.9 126.4 Q 136.5 126.4, 136.9 126.0 Q 137.2 125.5, 137.2 124.7 Q 137.2 123.9, 136.9 123.4 Q 136.5 123.0, 135.9 123.0 Q 135.2 123.0, 134.9 123.4 Q 134.5 123.8, 134.5 124.7 Q 134.5 125.5, 134.9 126.0 Q 135.2 126.4, 135.9 126.4 " fill="#FF0000"/>
<path class="atom-29" d="M 174.4 115.3 Q 174.4 114.2, 174.9 113.7 Q 175.4 113.1, 176.3 113.1 Q 177.3 113.1, 177.8 113.7 Q 178.3 114.2, 178.3 115.3 Q 178.3 116.3, 177.8 116.9 Q 177.3 117.5, 176.3 117.5 Q 175.4 117.5, 174.9 116.9 Q 174.4 116.3, 174.4 115.3 M 176.3 117.0 Q 177.0 117.0, 177.3 116.5 Q 177.7 116.1, 177.7 115.3 Q 177.7 114.4, 177.3 114.0 Q 177.0 113.6, 176.3 113.6 Q 175.7 113.6, 175.3 114.0 Q 175.0 114.4, 175.0 115.3 Q 175.0 116.1, 175.3 116.5 Q 175.7 117.0, 176.3 117.0 " fill="#FF0000"/>
<path class="atom-29" d="M 178.9 113.1 L 179.5 113.1 L 179.5 115.0 L 181.7 115.0 L 181.7 113.1 L 182.3 113.1 L 182.3 117.4 L 181.7 117.4 L 181.7 115.4 L 179.5 115.4 L 179.5 117.4 L 178.9 117.4 L 178.9 113.1 " fill="#FF0000"/>
<path class="atom-31" d="M 182.4 88.8 Q 182.4 87.7, 182.9 87.2 Q 183.4 86.6, 184.4 86.6 Q 185.3 86.6, 185.8 87.2 Q 186.3 87.7, 186.3 88.8 Q 186.3 89.8, 185.8 90.4 Q 185.3 91.0, 184.4 91.0 Q 183.4 91.0, 182.9 90.4 Q 182.4 89.8, 182.4 88.8 M 184.4 90.5 Q 185.0 90.5, 185.4 90.0 Q 185.7 89.6, 185.7 88.8 Q 185.7 87.9, 185.4 87.5 Q 185.0 87.1, 184.4 87.1 Q 183.7 87.1, 183.4 87.5 Q 183.0 87.9, 183.0 88.8 Q 183.0 89.6, 183.4 90.0 Q 183.7 90.5, 184.4 90.5 " fill="#FF0000"/>
<path class="atom-31" d="M 187.0 86.6 L 187.6 86.6 L 187.6 88.4 L 189.7 88.4 L 189.7 86.6 L 190.3 86.6 L 190.3 90.9 L 189.7 90.9 L 189.7 88.9 L 187.6 88.9 L 187.6 90.9 L 187.0 90.9 L 187.0 86.6 " fill="#FF0000"/>
<path class="atom-33" d="M 163.5 68.5 Q 163.5 67.5, 164.0 66.9 Q 164.5 66.4, 165.4 66.4 Q 166.4 66.4, 166.9 66.9 Q 167.4 67.5, 167.4 68.5 Q 167.4 69.6, 166.9 70.2 Q 166.4 70.7, 165.4 70.7 Q 164.5 70.7, 164.0 70.2 Q 163.5 69.6, 163.5 68.5 M 165.4 70.3 Q 166.1 70.3, 166.4 69.8 Q 166.8 69.4, 166.8 68.5 Q 166.8 67.7, 166.4 67.3 Q 166.1 66.9, 165.4 66.9 Q 164.8 66.9, 164.4 67.3 Q 164.1 67.7, 164.1 68.5 Q 164.1 69.4, 164.4 69.8 Q 164.8 70.3, 165.4 70.3 " fill="#FF0000"/>
<path class="atom-33" d="M 168.0 66.4 L 168.6 66.4 L 168.6 68.2 L 170.8 68.2 L 170.8 66.4 L 171.4 66.4 L 171.4 70.7 L 170.8 70.7 L 170.8 68.7 L 168.6 68.7 L 168.6 70.7 L 168.0 70.7 L 168.0 66.4 " fill="#FF0000"/>
<path class="legend" d="M 103.4 190.0 L 102.2 186.7 L 97.8 186.7 L 96.6 190.0 L 95.1 190.0 L 99.0 178.7 L 100.9 178.7 L 104.9 190.0 L 103.4 190.0 M 98.2 185.4 L 101.8 185.4 L 100.0 180.3 L 98.2 185.4 " fill="#000000"/>
</svg>