<svg xmlns="http://www.w3.org/2000/svg" xmlns:rdkit="http://www.rdkit.org/xml" xmlns:xlink="http://www.w3.org/1999/xlink" version="1.1" baseProfile="full" xml:space="preserve" width="800px" height="200px" viewBox="0 0 800 200">
<!-- END OF HEADER -->
<rect style="opacity:1.0;fill:#FFFFFF;stroke:none" width="800.0" height="200.0" x="0.0" y="0.0"> </rect>
<path class="bond-0 atom-0 atom-1" d="M 168.1,121.8 L 170.2,115.5" style="fill:none;fill-rule:evenodd;stroke:#000000;stroke-width:2.0px;stroke-linecap:butt;stroke-linejoin:miter;stroke-opacity:1"/>
<path class="bond-0 atom-0 atom-1" d="M 170.2,115.5 L 172.3,109.2" style="fill:none;fill-rule:evenodd;stroke:#FF0000;stroke-width:2.0px;stroke-linecap:butt;stroke-linejoin:miter;stroke-opacity:1"/>
<path class="bond-1 atom-1 atom-2" d="M 170.7,103.4 L 166.5,98.7" style="fill:none;fill-rule:evenodd;stroke:#FF0000;stroke-width:2.0px;stroke-linecap:butt;stroke-linejoin:miter;stroke-opacity:1"/>
<path class="bond-1 atom-1 atom-2" d="M 166.5,98.7 L 162.4,94.0" style="fill:none;fill-rule:evenodd;stroke:#000000;stroke-width:2.0px;stroke-linecap:butt;stroke-linejoin:miter;stroke-opacity:1"/>
<path class="bond-2 atom-2 atom-3" d="M 162.4,94.0 L 146.3,97.4" style="fill:none;fill-rule:evenodd;stroke:#000000;stroke-width:2.0px;stroke-linecap:butt;stroke-linejoin:miter;stroke-opacity:1"/>
<path class="bond-2 atom-2 atom-3" d="M 160.5,91.9 L 147.2,94.7" style="fill:none;fill-rule:evenodd;stroke:#000000;stroke-width:2.0px;stroke-linecap:butt;stroke-linejoin:miter;stroke-opacity:1"/>
<path class="bond-3 atom-3 atom-4" d="M 146.3,97.4 L 135.4,85.2" style="fill:none;fill-rule:evenodd;stroke:#000000;stroke-width:2.0px;stroke-linecap:butt;stroke-linejoin:miter;stroke-opacity:1"/>
<path class="bond-4 atom-4 atom-5" d="M 135.4,85.2 L 119.4,88.5" style="fill:none;fill-rule:evenodd;stroke:#000000;stroke-width:2.0px;stroke-linecap:butt;stroke-linejoin:miter;stroke-opacity:1"/>
<path class="bond-5 atom-5 atom-6" d="M 119.4,88.5 L 116.6,94.5" style="fill:none;fill-rule:evenodd;stroke:#000000;stroke-width:2.0px;stroke-linecap:butt;stroke-linejoin:miter;stroke-opacity:1"/>
<path class="bond-5 atom-5 atom-6" d="M 116.6,94.5 L 113.9,100.6" style="fill:none;fill-rule:evenodd;stroke:#FF0000;stroke-width:2.0px;stroke-linecap:butt;stroke-linejoin:miter;stroke-opacity:1"/>
<path class="bond-6 atom-6 atom-7" d="M 110.0,103.2 L 103.2,102.4" style="fill:none;fill-rule:evenodd;stroke:#FF0000;stroke-width:2.0px;stroke-linecap:butt;stroke-linejoin:miter;stroke-opacity:1"/>
<path class="bond-6 atom-6 atom-7" d="M 103.2,102.4 L 96.3,101.7" style="fill:none;fill-rule:evenodd;stroke:#000000;stroke-width:2.0px;stroke-linecap:butt;stroke-linejoin:miter;stroke-opacity:1"/>
<path class="bond-7 atom-7 atom-8" d="M 96.3,101.7 L 93.0,85.6" style="fill:none;fill-rule:evenodd;stroke:#000000;stroke-width:2.0px;stroke-linecap:butt;stroke-linejoin:miter;stroke-opacity:1"/>
<path class="bond-8 atom-8 atom-9" d="M 93.0,85.6 L 80.9,74.6" style="fill:none;fill-rule:evenodd;stroke:#000000;stroke-width:2.0px;stroke-linecap:butt;stroke-linejoin:miter;stroke-opacity:1"/>
<path class="bond-9 atom-9 atom-10" d="M 80.9,74.6 L 64.8,78.0" style="fill:none;fill-rule:evenodd;stroke:#000000;stroke-width:2.0px;stroke-linecap:butt;stroke-linejoin:miter;stroke-opacity:1"/>
<path class="bond-10 atom-10 atom-11" d="M 64.8,78.0 L 53.9,65.8" style="fill:none;fill-rule:evenodd;stroke:#000000;stroke-width:2.0px;stroke-linecap:butt;stroke-linejoin:miter;stroke-opacity:1"/>
<path class="bond-10 atom-10 atom-11" d="M 62.1,78.6 L 53.0,68.4" style="fill:none;fill-rule:evenodd;stroke:#000000;stroke-width:2.0px;stroke-linecap:butt;stroke-linejoin:miter;stroke-opacity:1"/>
<path class="bond-11 atom-11 atom-12" d="M 53.9,65.8 L 37.9,69.1" style="fill:none;fill-rule:evenodd;stroke:#000000;stroke-width:2.0px;stroke-linecap:butt;stroke-linejoin:miter;stroke-opacity:1"/>
<path class="bond-12 atom-12 atom-13" d="M 37.9,69.1 L 32.8,84.7" style="fill:none;fill-rule:evenodd;stroke:#000000;stroke-width:2.0px;stroke-linecap:butt;stroke-linejoin:miter;stroke-opacity:1"/>
<path class="bond-12 atom-12 atom-13" d="M 39.8,71.2 L 35.5,84.1" style="fill:none;fill-rule:evenodd;stroke:#000000;stroke-width:2.0px;stroke-linecap:butt;stroke-linejoin:miter;stroke-opacity:1"/>
<path class="bond-13 atom-13 atom-14" d="M 32.8,84.7 L 26.1,86.1" style="fill:none;fill-rule:evenodd;stroke:#000000;stroke-width:2.0px;stroke-linecap:butt;stroke-linejoin:miter;stroke-opacity:1"/>
<path class="bond-13 atom-13 atom-14" d="M 26.1,86.1 L 19.4,87.4" style="fill:none;fill-rule:evenodd;stroke:#FF0000;stroke-width:2.0px;stroke-linecap:butt;stroke-linejoin:miter;stroke-opacity:1"/>
<path class="bond-14 atom-13 atom-15" d="M 32.8,84.7 L 43.7,96.9" style="fill:none;fill-rule:evenodd;stroke:#000000;stroke-width:2.0px;stroke-linecap:butt;stroke-linejoin:miter;stroke-opacity:1"/>
<path class="bond-15 atom-15 atom-16" d="M 43.7,96.9 L 41.6,103.2" style="fill:none;fill-rule:evenodd;stroke:#000000;stroke-width:2.0px;stroke-linecap:butt;stroke-linejoin:miter;stroke-opacity:1"/>
<path class="bond-15 atom-15 atom-16" d="M 41.6,103.2 L 39.5,109.6" style="fill:none;fill-rule:evenodd;stroke:#FF0000;stroke-width:2.0px;stroke-linecap:butt;stroke-linejoin:miter;stroke-opacity:1"/>
<path class="bond-16 atom-16 atom-17" d="M 41.2,115.4 L 45.3,120.0" style="fill:none;fill-rule:evenodd;stroke:#FF0000;stroke-width:2.0px;stroke-linecap:butt;stroke-linejoin:miter;stroke-opacity:1"/>
<path class="bond-16 atom-16 atom-17" d="M 45.3,120.0 L 49.5,124.7" style="fill:none;fill-rule:evenodd;stroke:#000000;stroke-width:2.0px;stroke-linecap:butt;stroke-linejoin:miter;stroke-opacity:1"/>
<path class="bond-17 atom-15 atom-18" d="M 43.7,96.9 L 59.7,93.5" style="fill:none;fill-rule:evenodd;stroke:#000000;stroke-width:2.0px;stroke-linecap:butt;stroke-linejoin:miter;stroke-opacity:1"/>
<path class="bond-17 atom-15 atom-18" d="M 44.6,94.2 L 57.8,91.4" style="fill:none;fill-rule:evenodd;stroke:#000000;stroke-width:2.0px;stroke-linecap:butt;stroke-linejoin:miter;stroke-opacity:1"/>
<path class="bond-18 atom-9 atom-19" d="M 80.9,74.6 L 83.6,68.6" style="fill:none;fill-rule:evenodd;stroke:#000000;stroke-width:2.0px;stroke-linecap:butt;stroke-linejoin:miter;stroke-opacity:1"/>
<path class="bond-18 atom-9 atom-19" d="M 83.6,68.6 L 86.3,62.6" style="fill:none;fill-rule:evenodd;stroke:#FF0000;stroke-width:2.0px;stroke-linecap:butt;stroke-linejoin:miter;stroke-opacity:1"/>
<path class="bond-19 atom-19 atom-20" d="M 90.3,60.0 L 97.1,60.7" style="fill:none;fill-rule:evenodd;stroke:#FF0000;stroke-width:2.0px;stroke-linecap:butt;stroke-linejoin:miter;stroke-opacity:1"/>
<path class="bond-19 atom-19 atom-20" d="M 97.1,60.7 L 103.9,61.5" style="fill:none;fill-rule:evenodd;stroke:#000000;stroke-width:2.0px;stroke-linecap:butt;stroke-linejoin:miter;stroke-opacity:1"/>
<path class="bond-20 atom-20 atom-21" d="M 103.9,61.5 L 107.2,77.5" style="fill:none;fill-rule:evenodd;stroke:#000000;stroke-width:2.0px;stroke-linecap:butt;stroke-linejoin:miter;stroke-opacity:1"/>
<path class="bond-21 atom-4 atom-22" d="M 135.4,85.2 L 140.5,69.6" style="fill:none;fill-rule:evenodd;stroke:#000000;stroke-width:2.0px;stroke-linecap:butt;stroke-linejoin:miter;stroke-opacity:1"/>
<path class="bond-21 atom-4 atom-22" d="M 138.2,84.6 L 142.4,71.7" style="fill:none;fill-rule:evenodd;stroke:#000000;stroke-width:2.0px;stroke-linecap:butt;stroke-linejoin:miter;stroke-opacity:1"/>
<path class="bond-22 atom-22 atom-23" d="M 140.5,69.6 L 156.6,66.3" style="fill:none;fill-rule:evenodd;stroke:#000000;stroke-width:2.0px;stroke-linecap:butt;stroke-linejoin:miter;stroke-opacity:1"/>
<path class="bond-23 atom-23 atom-24" d="M 156.6,66.3 L 167.5,78.5" style="fill:none;fill-rule:evenodd;stroke:#000000;stroke-width:2.0px;stroke-linecap:butt;stroke-linejoin:miter;stroke-opacity:1"/>
<path class="bond-23 atom-23 atom-24" d="M 155.7,69.0 L 164.7,79.1" style="fill:none;fill-rule:evenodd;stroke:#000000;stroke-width:2.0px;stroke-linecap:butt;stroke-linejoin:miter;stroke-opacity:1"/>
<path class="bond-24 atom-24 atom-25" d="M 167.5,78.5 L 174.2,77.1" style="fill:none;fill-rule:evenodd;stroke:#000000;stroke-width:2.0px;stroke-linecap:butt;stroke-linejoin:miter;stroke-opacity:1"/>
<path class="bond-24 atom-24 atom-25" d="M 174.2,77.1 L 180.8,75.7" style="fill:none;fill-rule:evenodd;stroke:#FF0000;stroke-width:2.0px;stroke-linecap:butt;stroke-linejoin:miter;stroke-opacity:1"/>
<path class="bond-25 atom-24 atom-2" d="M 167.5,78.5 L 162.4,94.0" style="fill:none;fill-rule:evenodd;stroke:#000000;stroke-width:2.0px;stroke-linecap:butt;stroke-linejoin:miter;stroke-opacity:1"/>
<path class="bond-26 atom-21 atom-5" d="M 107.2,77.5 L 119.4,88.5" style="fill:none;fill-rule:evenodd;stroke:#000000;stroke-width:2.0px;stroke-linecap:butt;stroke-linejoin:miter;stroke-opacity:1"/>
<path class="bond-27 atom-21 atom-8" d="M 107.2,77.5 L 93.0,85.6" style="fill:none;fill-rule:evenodd;stroke:#000000;stroke-width:2.0px;stroke-linecap:butt;stroke-linejoin:miter;stroke-opacity:1"/>
<path class="bond-28 atom-18 atom-10" d="M 59.7,93.5 L 64.8,78.0" style="fill:none;fill-rule:evenodd;stroke:#000000;stroke-width:2.0px;stroke-linecap:butt;stroke-linejoin:miter;stroke-opacity:1"/>
<path d="M 147.1,97.2 L 146.3,97.4 L 145.8,96.8" style="fill:none;stroke:#000000;stroke-width:2.0px;stroke-linecap:butt;stroke-linejoin:miter;stroke-opacity:1;"/>
<path d="M 96.7,101.7 L 96.3,101.7 L 96.2,100.9" style="fill:none;stroke:#000000;stroke-width:2.0px;stroke-linecap:butt;stroke-linejoin:miter;stroke-opacity:1;"/>
<path d="M 54.5,66.4 L 53.9,65.8 L 53.1,65.9" style="fill:none;stroke:#000000;stroke-width:2.0px;stroke-linecap:butt;stroke-linejoin:miter;stroke-opacity:1;"/>
<path d="M 38.7,68.9 L 37.9,69.1 L 37.6,69.9" style="fill:none;stroke:#000000;stroke-width:2.0px;stroke-linecap:butt;stroke-linejoin:miter;stroke-opacity:1;"/>
<path d="M 58.9,93.7 L 59.7,93.5 L 60.0,92.8" style="fill:none;stroke:#000000;stroke-width:2.0px;stroke-linecap:butt;stroke-linejoin:miter;stroke-opacity:1;"/>
<path d="M 103.5,61.4 L 103.9,61.5 L 104.0,62.3" style="fill:none;stroke:#000000;stroke-width:2.0px;stroke-linecap:butt;stroke-linejoin:miter;stroke-opacity:1;"/>
<path d="M 140.3,70.4 L 140.5,69.6 L 141.3,69.4" style="fill:none;stroke:#000000;stroke-width:2.0px;stroke-linecap:butt;stroke-linejoin:miter;stroke-opacity:1;"/>
<path d="M 155.8,66.4 L 156.6,66.3 L 157.1,66.9" style="fill:none;stroke:#000000;stroke-width:2.0px;stroke-linecap:butt;stroke-linejoin:miter;stroke-opacity:1;"/>
<path class="atom-1" d="M 171.1 106.3 Q 171.1 105.2, 171.7 104.5 Q 172.2 103.9, 173.3 103.9 Q 174.3 103.9, 174.8 104.5 Q 175.4 105.2, 175.4 106.3 Q 175.4 107.4, 174.8 108.1 Q 174.3 108.7, 173.3 108.7 Q 172.2 108.7, 171.7 108.1 Q 171.1 107.4, 171.1 106.3 M 173.3 108.2 Q 174.0 108.2, 174.4 107.7 Q 174.7 107.2, 174.7 106.3 Q 174.7 105.4, 174.4 104.9 Q 174.0 104.4, 173.3 104.4 Q 172.6 104.4, 172.2 104.9 Q 171.8 105.4, 171.8 106.3 Q 171.8 107.2, 172.2 107.7 Q 172.6 108.2, 173.3 108.2 " fill="#FF0000"/>
<path class="atom-6" d="M 110.5 103.5 Q 110.5 102.4, 111.1 101.7 Q 111.6 101.1, 112.6 101.1 Q 113.7 101.1, 114.2 101.7 Q 114.8 102.4, 114.8 103.5 Q 114.8 104.6, 114.2 105.2 Q 113.7 105.9, 112.6 105.9 Q 111.6 105.9, 111.1 105.2 Q 110.5 104.6, 110.5 103.5 M 112.6 105.4 Q 113.3 105.4, 113.7 104.9 Q 114.1 104.4, 114.1 103.5 Q 114.1 102.6, 113.7 102.1 Q 113.3 101.6, 112.6 101.6 Q 111.9 101.6, 111.5 102.1 Q 111.2 102.6, 111.2 103.5 Q 111.2 104.4, 111.5 104.9 Q 111.9 105.4, 112.6 105.4 " fill="#FF0000"/>
<path class="atom-14" d="M 10.0 85.7 L 10.6 85.7 L 10.6 87.7 L 13.0 87.7 L 13.0 85.7 L 13.6 85.7 L 13.6 90.3 L 13.0 90.3 L 13.0 88.2 L 10.6 88.2 L 10.6 90.3 L 10.0 90.3 L 10.0 85.7 " fill="#FF0000"/>
<path class="atom-14" d="M 14.6 88.0 Q 14.6 86.9, 15.1 86.3 Q 15.7 85.7, 16.7 85.7 Q 17.7 85.7, 18.3 86.3 Q 18.8 86.9, 18.8 88.0 Q 18.8 89.1, 18.3 89.8 Q 17.7 90.4, 16.7 90.4 Q 15.7 90.4, 15.1 89.8 Q 14.6 89.1, 14.6 88.0 M 16.7 89.9 Q 17.4 89.9, 17.8 89.4 Q 18.2 88.9, 18.2 88.0 Q 18.2 87.1, 17.8 86.6 Q 17.4 86.2, 16.7 86.2 Q 16.0 86.2, 15.6 86.6 Q 15.2 87.1, 15.2 88.0 Q 15.2 89.0, 15.6 89.4 Q 16.0 89.9, 16.7 89.9 " fill="#FF0000"/>
<path class="atom-16" d="M 36.4 112.5 Q 36.4 111.3, 37.0 110.7 Q 37.5 110.1, 38.5 110.1 Q 39.6 110.1, 40.1 110.7 Q 40.7 111.3, 40.7 112.5 Q 40.7 113.6, 40.1 114.2 Q 39.6 114.9, 38.5 114.9 Q 37.5 114.9, 37.0 114.2 Q 36.4 113.6, 36.4 112.5 M 38.5 114.3 Q 39.2 114.3, 39.6 113.9 Q 40.0 113.4, 40.0 112.5 Q 40.0 111.5, 39.6 111.1 Q 39.2 110.6, 38.5 110.6 Q 37.8 110.6, 37.4 111.1 Q 37.1 111.5, 37.1 112.5 Q 37.1 113.4, 37.4 113.9 Q 37.8 114.3, 38.5 114.3 " fill="#FF0000"/>
<path class="atom-19" d="M 85.5 59.7 Q 85.5 58.6, 86.0 58.0 Q 86.6 57.3, 87.6 57.3 Q 88.6 57.3, 89.2 58.0 Q 89.7 58.6, 89.7 59.7 Q 89.7 60.8, 89.2 61.5 Q 88.6 62.1, 87.6 62.1 Q 86.6 62.1, 86.0 61.5 Q 85.5 60.8, 85.5 59.7 M 87.6 61.6 Q 88.3 61.6, 88.7 61.1 Q 89.1 60.6, 89.1 59.7 Q 89.1 58.8, 88.7 58.3 Q 88.3 57.9, 87.6 57.9 Q 86.9 57.9, 86.5 58.3 Q 86.1 58.8, 86.1 59.7 Q 86.1 60.6, 86.5 61.1 Q 86.9 61.6, 87.6 61.6 " fill="#FF0000"/>
<path class="atom-25" d="M 181.4 75.2 Q 181.4 74.0, 181.9 73.4 Q 182.5 72.8, 183.5 72.8 Q 184.5 72.8, 185.1 73.4 Q 185.6 74.0, 185.6 75.2 Q 185.6 76.3, 185.1 76.9 Q 184.5 77.6, 183.5 77.6 Q 182.5 77.6, 181.9 76.9 Q 181.4 76.3, 181.4 75.2 M 183.5 77.0 Q 184.2 77.0, 184.6 76.6 Q 185.0 76.1, 185.0 75.2 Q 185.0 74.2, 184.6 73.8 Q 184.2 73.3, 183.5 73.3 Q 182.8 73.3, 182.4 73.8 Q 182.0 74.2, 182.0 75.2 Q 182.0 76.1, 182.4 76.6 Q 182.8 77.0, 183.5 77.0 " fill="#FF0000"/>
<path class="atom-25" d="M 186.4 72.9 L 187.0 72.9 L 187.0 74.8 L 189.4 74.8 L 189.4 72.9 L 190.0 72.9 L 190.0 77.5 L 189.4 77.5 L 189.4 75.3 L 187.0 75.3 L 187.0 77.5 L 186.4 77.5 L 186.4 72.9 " fill="#FF0000"/>
<path class="legend" d="M 103.4 190.0 L 102.2 186.7 L 97.8 186.7 L 96.6 190.0 L 95.1 190.0 L 99.0 178.7 L 100.9 178.7 L 104.9 190.0 L 103.4 190.0 M 98.2 185.4 L 101.8 185.4 L 100.0 180.3 L 98.2 185.4 " fill="#000000"/>
<path class="bond-0 atom-0 atom-1" d="M 285.8,95.1 L 300.0,86.9" style="fill:none;fill-rule:evenodd;stroke:#000000;stroke-width:2.0px;stroke-linecap:butt;stroke-linejoin:miter;stroke-opacity:1"/>
<path class="bond-1 atom-1 atom-2" d="M 300.0,86.9 L 314.2,95.1" style="fill:none;fill-rule:evenodd;stroke:#000000;stroke-width:2.0px;stroke-linecap:butt;stroke-linejoin:miter;stroke-opacity:1"/>
<path d="M 299.3,87.3 L 300.0,86.9 L 300.7,87.3" style="fill:none;stroke:#000000;stroke-width:2.0px;stroke-linecap:butt;stroke-linejoin:miter;stroke-opacity:1;"/>
<path class="legend" d="M 301.7 184.0 Q 302.7 184.4, 303.3 185.0 Q 303.8 185.7, 303.8 186.7 Q 303.8 188.2, 302.8 189.1 Q 301.8 190.0, 300.0 190.0 L 296.2 190.0 L 296.2 178.7 L 299.5 178.7 Q 301.4 178.7, 302.4 179.5 Q 303.4 180.2, 303.4 181.7 Q 303.4 183.4, 301.7 184.0 M 297.7 180.0 L 297.7 183.5 L 299.5 183.5 Q 300.6 183.5, 301.2 183.1 Q 301.8 182.6, 301.8 181.7 Q 301.8 180.0, 299.5 180.0 L 297.7 180.0 M 300.0 188.7 Q 301.1 188.7, 301.7 188.2 Q 302.2 187.7, 302.2 186.7 Q 302.2 185.7, 301.6 185.3 Q 301.0 184.8, 299.7 184.8 L 297.7 184.8 L 297.7 188.7 L 300.0 188.7 " fill="#000000"/>
</svg>