<svg xmlns="http://www.w3.org/2000/svg" xmlns:rdkit="http://www.rdkit.org/xml" xmlns:xlink="http://www.w3.org/1999/xlink" version="1.1" baseProfile="full" xml:space="preserve" width="800px" height="200px" viewBox="0 0 800 200">
<!-- END OF HEADER -->
<rect style="opacity:1.0;fill:#FFFFFF;stroke:none" width="800.0" height="200.0" x="0.0" y="0.0"> </rect>
<path class="bond-0 atom-0 atom-1" d="M 120.8,91.0 L 110.4,109.0" style="fill:none;fill-rule:evenodd;stroke:#000000;stroke-width:2.0px;stroke-linecap:butt;stroke-linejoin:miter;stroke-opacity:1"/>
<path class="bond-0 atom-0 atom-1" d="M 117.2,91.0 L 108.6,105.9" style="fill:none;fill-rule:evenodd;stroke:#000000;stroke-width:2.0px;stroke-linecap:butt;stroke-linejoin:miter;stroke-opacity:1"/>
<path class="bond-1 atom-1 atom-2" d="M 110.4,109.0 L 89.6,109.0" style="fill:none;fill-rule:evenodd;stroke:#000000;stroke-width:2.0px;stroke-linecap:butt;stroke-linejoin:miter;stroke-opacity:1"/>
<path class="bond-2 atom-2 atom-3" d="M 89.6,109.0 L 79.2,91.0" style="fill:none;fill-rule:evenodd;stroke:#000000;stroke-width:2.0px;stroke-linecap:butt;stroke-linejoin:miter;stroke-opacity:1"/>
<path class="bond-2 atom-2 atom-3" d="M 91.4,105.9 L 82.8,91.0" style="fill:none;fill-rule:evenodd;stroke:#000000;stroke-width:2.0px;stroke-linecap:butt;stroke-linejoin:miter;stroke-opacity:1"/>
<path class="bond-3 atom-3 atom-4" d="M 79.2,91.0 L 89.6,73.0" style="fill:none;fill-rule:evenodd;stroke:#000000;stroke-width:2.0px;stroke-linecap:butt;stroke-linejoin:miter;stroke-opacity:1"/>
<path class="bond-4 atom-4 atom-5" d="M 89.6,73.0 L 110.4,73.0" style="fill:none;fill-rule:evenodd;stroke:#000000;stroke-width:2.0px;stroke-linecap:butt;stroke-linejoin:miter;stroke-opacity:1"/>
<path class="bond-4 atom-4 atom-5" d="M 91.4,76.1 L 108.6,76.1" style="fill:none;fill-rule:evenodd;stroke:#000000;stroke-width:2.0px;stroke-linecap:butt;stroke-linejoin:miter;stroke-opacity:1"/>
<path class="bond-5 atom-5 atom-0" d="M 110.4,73.0 L 120.8,91.0" style="fill:none;fill-rule:evenodd;stroke:#000000;stroke-width:2.0px;stroke-linecap:butt;stroke-linejoin:miter;stroke-opacity:1"/>
<path d="M 120.3,91.9 L 120.8,91.0 L 120.3,90.1" style="fill:none;stroke:#000000;stroke-width:2.0px;stroke-linecap:butt;stroke-linejoin:miter;stroke-opacity:1;"/>
<path d="M 110.9,108.1 L 110.4,109.0 L 109.4,109.0" style="fill:none;stroke:#000000;stroke-width:2.0px;stroke-linecap:butt;stroke-linejoin:miter;stroke-opacity:1;"/>
<path d="M 90.6,109.0 L 89.6,109.0 L 89.1,108.1" style="fill:none;stroke:#000000;stroke-width:2.0px;stroke-linecap:butt;stroke-linejoin:miter;stroke-opacity:1;"/>
<path d="M 79.7,91.9 L 79.2,91.0 L 79.7,90.1" style="fill:none;stroke:#000000;stroke-width:2.0px;stroke-linecap:butt;stroke-linejoin:miter;stroke-opacity:1;"/>
<path d="M 89.1,73.9 L 89.6,73.0 L 90.6,73.0" style="fill:none;stroke:#000000;stroke-width:2.0px;stroke-linecap:butt;stroke-linejoin:miter;stroke-opacity:1;"/>
<path d="M 109.4,73.0 L 110.4,73.0 L 110.9,73.9" style="fill:none;stroke:#000000;stroke-width:2.0px;stroke-linecap:butt;stroke-linejoin:miter;stroke-opacity:1;"/>
<path class="legend" d="M 103.4 190.0 L 102.2 186.7 L 97.8 186.7 L 96.6 190.0 L 95.1 190.0 L 99.0 178.7 L 100.9 178.7 L 104.9 190.0 L 103.4 190.0 M 98.2 185.4 L 101.8 185.4 L 100.0 180.3 L 98.2 185.4 " fill="#000000"/>
<path class="bond-0 atom-0 atom-1" d="M 334.6,53.9 L 331.7,62.2" style="fill:none;fill-rule:evenodd;stroke:#FF0000;stroke-width:2.0px;stroke-linecap:butt;stroke-linejoin:miter;stroke-opacity:1"/>
<path class="bond-0 atom-0 atom-1" d="M 331.7,62.2 L 328.7,70.6" style="fill:none;fill-rule:evenodd;stroke:#000000;stroke-width:2.0px;stroke-linecap:butt;stroke-linejoin:miter;stroke-opacity:1"/>
<path class="bond-0 atom-0 atom-1" d="M 331.7,52.8 L 328.7,61.2" style="fill:none;fill-rule:evenodd;stroke:#FF0000;stroke-width:2.0px;stroke-linecap:butt;stroke-linejoin:miter;stroke-opacity:1"/>
<path class="bond-0 atom-0 atom-1" d="M 328.7,61.2 L 325.8,69.6" style="fill:none;fill-rule:evenodd;stroke:#000000;stroke-width:2.0px;stroke-linecap:butt;stroke-linejoin:miter;stroke-opacity:1"/>
<path class="bond-1 atom-1 atom-2" d="M 327.6,69.2 L 307.1,73.1" style="fill:none;fill-rule:evenodd;stroke:#000000;stroke-width:2.0px;stroke-linecap:butt;stroke-linejoin:miter;stroke-opacity:1"/>
<path class="bond-2 atom-2 atom-3" d="M 307.1,73.1 L 300.3,92.7" style="fill:none;fill-rule:evenodd;stroke:#000000;stroke-width:2.0px;stroke-linecap:butt;stroke-linejoin:miter;stroke-opacity:1"/>
<path class="bond-2 atom-2 atom-3" d="M 309.5,75.8 L 303.8,92.0" style="fill:none;fill-rule:evenodd;stroke:#000000;stroke-width:2.0px;stroke-linecap:butt;stroke-linejoin:miter;stroke-opacity:1"/>
<path class="bond-3 atom-3 atom-4" d="M 300.3,92.7 L 279.8,96.5" style="fill:none;fill-rule:evenodd;stroke:#000000;stroke-width:2.0px;stroke-linecap:butt;stroke-linejoin:miter;stroke-opacity:1"/>
<path class="bond-4 atom-4 atom-5" d="M 279.8,96.5 L 266.3,80.8" style="fill:none;fill-rule:evenodd;stroke:#000000;stroke-width:2.0px;stroke-linecap:butt;stroke-linejoin:miter;stroke-opacity:1"/>
<path class="bond-4 atom-4 atom-5" d="M 276.3,97.2 L 265.1,84.2" style="fill:none;fill-rule:evenodd;stroke:#000000;stroke-width:2.0px;stroke-linecap:butt;stroke-linejoin:miter;stroke-opacity:1"/>
<path class="bond-5 atom-5 atom-6" d="M 266.3,80.8 L 245.8,84.6" style="fill:none;fill-rule:evenodd;stroke:#000000;stroke-width:2.0px;stroke-linecap:butt;stroke-linejoin:miter;stroke-opacity:1"/>
<path class="bond-6 atom-6 atom-7" d="M 245.8,84.6 L 239.0,104.2" style="fill:none;fill-rule:evenodd;stroke:#000000;stroke-width:2.0px;stroke-linecap:butt;stroke-linejoin:miter;stroke-opacity:1"/>
<path class="bond-6 atom-6 atom-7" d="M 248.2,87.4 L 242.5,103.6" style="fill:none;fill-rule:evenodd;stroke:#000000;stroke-width:2.0px;stroke-linecap:butt;stroke-linejoin:miter;stroke-opacity:1"/>
<path class="bond-7 atom-7 atom-8" d="M 239.0,104.2 L 230.4,105.9" style="fill:none;fill-rule:evenodd;stroke:#000000;stroke-width:2.0px;stroke-linecap:butt;stroke-linejoin:miter;stroke-opacity:1"/>
<path class="bond-7 atom-7 atom-8" d="M 230.4,105.9 L 221.9,107.5" style="fill:none;fill-rule:evenodd;stroke:#FF0000;stroke-width:2.0px;stroke-linecap:butt;stroke-linejoin:miter;stroke-opacity:1"/>
<path class="bond-8 atom-7 atom-9" d="M 239.0,104.2 L 252.5,120.0" style="fill:none;fill-rule:evenodd;stroke:#000000;stroke-width:2.0px;stroke-linecap:butt;stroke-linejoin:miter;stroke-opacity:1"/>
<path class="bond-9 atom-9 atom-10" d="M 252.5,120.0 L 272.9,116.2" style="fill:none;fill-rule:evenodd;stroke:#000000;stroke-width:2.0px;stroke-linecap:butt;stroke-linejoin:miter;stroke-opacity:1"/>
<path class="bond-9 atom-9 atom-10" d="M 253.7,116.6 L 270.6,113.4" style="fill:none;fill-rule:evenodd;stroke:#000000;stroke-width:2.0px;stroke-linecap:butt;stroke-linejoin:miter;stroke-opacity:1"/>
<path class="bond-10 atom-3 atom-11" d="M 300.3,92.7 L 305.5,98.7" style="fill:none;fill-rule:evenodd;stroke:#000000;stroke-width:2.0px;stroke-linecap:butt;stroke-linejoin:miter;stroke-opacity:1"/>
<path class="bond-10 atom-3 atom-11" d="M 305.5,98.7 L 310.7,104.8" style="fill:none;fill-rule:evenodd;stroke:#FF0000;stroke-width:2.0px;stroke-linecap:butt;stroke-linejoin:miter;stroke-opacity:1"/>
<path class="bond-11 atom-11 atom-12" d="M 317.2,107.8 L 325.7,106.2" style="fill:none;fill-rule:evenodd;stroke:#FF0000;stroke-width:2.0px;stroke-linecap:butt;stroke-linejoin:miter;stroke-opacity:1"/>
<path class="bond-11 atom-11 atom-12" d="M 325.7,106.2 L 334.2,104.6" style="fill:none;fill-rule:evenodd;stroke:#000000;stroke-width:2.0px;stroke-linecap:butt;stroke-linejoin:miter;stroke-opacity:1"/>
<path class="bond-12 atom-12 atom-13" d="M 334.2,104.6 L 347.8,120.4" style="fill:none;fill-rule:evenodd;stroke:#000000;stroke-width:2.0px;stroke-linecap:butt;stroke-linejoin:miter;stroke-opacity:1"/>
<path class="bond-12 atom-12 atom-13" d="M 337.8,103.9 L 349.0,117.0" style="fill:none;fill-rule:evenodd;stroke:#000000;stroke-width:2.0px;stroke-linecap:butt;stroke-linejoin:miter;stroke-opacity:1"/>
<path class="bond-13 atom-13 atom-14" d="M 347.8,120.4 L 368.2,116.5" style="fill:none;fill-rule:evenodd;stroke:#000000;stroke-width:2.0px;stroke-linecap:butt;stroke-linejoin:miter;stroke-opacity:1"/>
<path class="bond-14 atom-14 atom-15" d="M 368.2,116.5 L 373.4,122.6" style="fill:none;fill-rule:evenodd;stroke:#000000;stroke-width:2.0px;stroke-linecap:butt;stroke-linejoin:miter;stroke-opacity:1"/>
<path class="bond-14 atom-14 atom-15" d="M 373.4,122.6 L 378.6,128.6" style="fill:none;fill-rule:evenodd;stroke:#FF0000;stroke-width:2.0px;stroke-linecap:butt;stroke-linejoin:miter;stroke-opacity:1"/>
<path class="bond-15 atom-14 atom-16" d="M 368.2,116.5 L 375.1,96.9" style="fill:none;fill-rule:evenodd;stroke:#000000;stroke-width:2.0px;stroke-linecap:butt;stroke-linejoin:miter;stroke-opacity:1"/>
<path class="bond-15 atom-14 atom-16" d="M 365.9,113.8 L 371.6,97.6" style="fill:none;fill-rule:evenodd;stroke:#000000;stroke-width:2.0px;stroke-linecap:butt;stroke-linejoin:miter;stroke-opacity:1"/>
<path class="bond-16 atom-16 atom-17" d="M 375.1,96.9 L 361.6,81.1" style="fill:none;fill-rule:evenodd;stroke:#000000;stroke-width:2.0px;stroke-linecap:butt;stroke-linejoin:miter;stroke-opacity:1"/>
<path class="bond-17 atom-17 atom-18" d="M 361.6,81.1 L 341.1,85.0" style="fill:none;fill-rule:evenodd;stroke:#000000;stroke-width:2.0px;stroke-linecap:butt;stroke-linejoin:miter;stroke-opacity:1"/>
<path class="bond-17 atom-17 atom-18" d="M 360.4,84.5 L 343.5,87.7" style="fill:none;fill-rule:evenodd;stroke:#000000;stroke-width:2.0px;stroke-linecap:butt;stroke-linejoin:miter;stroke-opacity:1"/>
<path class="bond-18 atom-18 atom-1" d="M 341.1,85.0 L 327.6,69.2" style="fill:none;fill-rule:evenodd;stroke:#000000;stroke-width:2.0px;stroke-linecap:butt;stroke-linejoin:miter;stroke-opacity:1"/>
<path class="bond-19 atom-10 atom-4" d="M 272.9,116.2 L 279.8,96.5" style="fill:none;fill-rule:evenodd;stroke:#000000;stroke-width:2.0px;stroke-linecap:butt;stroke-linejoin:miter;stroke-opacity:1"/>
<path class="bond-20 atom-18 atom-12" d="M 341.1,85.0 L 334.2,104.6" style="fill:none;fill-rule:evenodd;stroke:#000000;stroke-width:2.0px;stroke-linecap:butt;stroke-linejoin:miter;stroke-opacity:1"/>
<path d="M 326.5,69.4 L 327.6,69.2 L 328.2,70.0" style="fill:none;stroke:#000000;stroke-width:2.0px;stroke-linecap:butt;stroke-linejoin:miter;stroke-opacity:1;"/>
<path d="M 308.2,72.9 L 307.1,73.1 L 306.8,74.1" style="fill:none;stroke:#000000;stroke-width:2.0px;stroke-linecap:butt;stroke-linejoin:miter;stroke-opacity:1;"/>
<path d="M 266.9,81.6 L 266.3,80.8 L 265.2,81.0" style="fill:none;stroke:#000000;stroke-width:2.0px;stroke-linecap:butt;stroke-linejoin:miter;stroke-opacity:1;"/>
<path d="M 246.9,84.4 L 245.8,84.6 L 245.5,85.6" style="fill:none;stroke:#000000;stroke-width:2.0px;stroke-linecap:butt;stroke-linejoin:miter;stroke-opacity:1;"/>
<path d="M 251.8,119.2 L 252.5,120.0 L 253.5,119.8" style="fill:none;stroke:#000000;stroke-width:2.0px;stroke-linecap:butt;stroke-linejoin:miter;stroke-opacity:1;"/>
<path d="M 271.9,116.4 L 272.9,116.2 L 273.3,115.2" style="fill:none;stroke:#000000;stroke-width:2.0px;stroke-linecap:butt;stroke-linejoin:miter;stroke-opacity:1;"/>
<path d="M 347.1,119.6 L 347.8,120.4 L 348.8,120.2" style="fill:none;stroke:#000000;stroke-width:2.0px;stroke-linecap:butt;stroke-linejoin:miter;stroke-opacity:1;"/>
<path d="M 374.8,97.9 L 375.1,96.9 L 374.4,96.1" style="fill:none;stroke:#000000;stroke-width:2.0px;stroke-linecap:butt;stroke-linejoin:miter;stroke-opacity:1;"/>
<path d="M 362.2,81.9 L 361.6,81.1 L 360.5,81.3" style="fill:none;stroke:#000000;stroke-width:2.0px;stroke-linecap:butt;stroke-linejoin:miter;stroke-opacity:1;"/>
<path class="atom-0" d="M 331.7 49.6 Q 331.7 48.2, 332.4 47.4 Q 333.1 46.6, 334.4 46.6 Q 335.8 46.6, 336.5 47.4 Q 337.2 48.2, 337.2 49.6 Q 337.2 51.1, 336.4 51.9 Q 335.7 52.7, 334.4 52.7 Q 333.2 52.7, 332.4 51.9 Q 331.7 51.1, 331.7 49.6 M 334.4 52.0 Q 335.3 52.0, 335.8 51.4 Q 336.3 50.8, 336.3 49.6 Q 336.3 48.5, 335.8 47.9 Q 335.3 47.3, 334.4 47.3 Q 333.5 47.3, 333.1 47.9 Q 332.6 48.5, 332.6 49.6 Q 332.6 50.8, 333.1 51.4 Q 333.5 52.0, 334.4 52.0 " fill="#FF0000"/>
<path class="atom-8" d="M 210.0 105.2 L 210.8 105.2 L 210.8 107.7 L 213.8 107.7 L 213.8 105.2 L 214.6 105.2 L 214.6 111.1 L 213.8 111.1 L 213.8 108.4 L 210.8 108.4 L 210.8 111.1 L 210.0 111.1 L 210.0 105.2 " fill="#FF0000"/>
<path class="atom-8" d="M 215.8 108.1 Q 215.8 106.7, 216.5 105.9 Q 217.2 105.1, 218.5 105.1 Q 219.8 105.1, 220.5 105.9 Q 221.2 106.7, 221.2 108.1 Q 221.2 109.5, 220.5 110.4 Q 219.8 111.2, 218.5 111.2 Q 217.2 111.2, 216.5 110.4 Q 215.8 109.6, 215.8 108.1 M 218.5 110.5 Q 219.4 110.5, 219.9 109.9 Q 220.4 109.3, 220.4 108.1 Q 220.4 107.0, 219.9 106.4 Q 219.4 105.8, 218.5 105.8 Q 217.6 105.8, 217.1 106.4 Q 216.6 107.0, 216.6 108.1 Q 216.6 109.3, 217.1 109.9 Q 217.6 110.5, 218.5 110.5 " fill="#FF0000"/>
<path class="atom-11" d="M 311.1 108.5 Q 311.1 107.1, 311.8 106.3 Q 312.5 105.5, 313.8 105.5 Q 315.1 105.5, 315.8 106.3 Q 316.5 107.1, 316.5 108.5 Q 316.5 109.9, 315.8 110.7 Q 315.1 111.5, 313.8 111.5 Q 312.5 111.5, 311.8 110.7 Q 311.1 109.9, 311.1 108.5 M 313.8 110.9 Q 314.7 110.9, 315.2 110.3 Q 315.7 109.7, 315.7 108.5 Q 315.7 107.3, 315.2 106.7 Q 314.7 106.2, 313.8 106.2 Q 312.9 106.2, 312.4 106.7 Q 311.9 107.3, 311.9 108.5 Q 311.9 109.7, 312.4 110.3 Q 312.9 110.9, 313.8 110.9 " fill="#FF0000"/>
<path class="atom-15" d="M 379.1 132.3 Q 379.1 130.9, 379.8 130.1 Q 380.5 129.3, 381.8 129.3 Q 383.1 129.3, 383.8 130.1 Q 384.5 130.9, 384.5 132.3 Q 384.5 133.8, 383.8 134.6 Q 383.1 135.4, 381.8 135.4 Q 380.5 135.4, 379.8 134.6 Q 379.1 133.8, 379.1 132.3 M 381.8 134.7 Q 382.7 134.7, 383.2 134.1 Q 383.6 133.5, 383.6 132.3 Q 383.6 131.2, 383.2 130.6 Q 382.7 130.0, 381.8 130.0 Q 380.9 130.0, 380.4 130.6 Q 379.9 131.2, 379.9 132.3 Q 379.9 133.5, 380.4 134.1 Q 380.9 134.7, 381.8 134.7 " fill="#FF0000"/>
<path class="atom-15" d="M 385.4 129.4 L 386.2 129.4 L 386.2 131.9 L 389.2 131.9 L 389.2 129.4 L 390.0 129.4 L 390.0 135.3 L 389.2 135.3 L 389.2 132.6 L 386.2 132.6 L 386.2 135.3 L 385.4 135.3 L 385.4 129.4 " fill="#FF0000"/>
<path class="legend" d="M 301.7 184.0 Q 302.7 184.4, 303.3 185.0 Q 303.8 185.7, 303.8 186.7 Q 303.8 188.2, 302.8 189.1 Q 301.8 190.0, 300.0 190.0 L 296.2 190.0 L 296.2 178.7 L 299.5 178.7 Q 301.4 178.7, 302.4 179.5 Q 303.4 180.2, 303.4 181.7 Q 303.4 183.4, 301.7 184.0 M 297.7 180.0 L 297.7 183.5 L 299.5 183.5 Q 300.6 183.5, 301.2 183.1 Q 301.8 182.6, 301.8 181.7 Q 301.8 180.0, 299.5 180.0 L 297.7 180.0 M 300.0 188.7 Q 301.1 188.7, 301.7 188.2 Q 302.2 187.7, 302.2 186.7 Q 302.2 185.7, 301.6 185.3 Q 301.0 184.8, 299.7 184.8 L 297.7 184.8 L 297.7 188.7 L 300.0 188.7 " fill="#000000"/>
<path class="bond-0 atom-0 atom-1" d="M 482.0,96.2 L 500.0,85.8" style="fill:none;fill-rule:evenodd;stroke:#000000;stroke-width:2.0px;stroke-linecap:butt;stroke-linejoin:miter;stroke-opacity:1"/>
<path class="bond-1 atom-1 atom-2" d="M 500.0,85.8 L 518.0,96.2" style="fill:none;fill-rule:evenodd;stroke:#000000;stroke-width:2.0px;stroke-linecap:butt;stroke-linejoin:miter;stroke-opacity:1"/>
<path d="M 499.1,86.3 L 500.0,85.8 L 500.9,86.3" style="fill:none;stroke:#000000;stroke-width:2.0px;stroke-linecap:butt;stroke-linejoin:miter;stroke-opacity:1;"/>
<path class="legend" d="M 495.6 184.2 Q 495.6 181.4, 496.9 179.9 Q 498.3 178.4, 500.8 178.4 Q 503.1 178.4, 504.4 180.0 L 503.3 180.9 Q 502.4 179.7, 500.8 179.7 Q 499.1 179.7, 498.2 180.9 Q 497.3 182.0, 497.3 184.2 Q 497.3 186.4, 498.2 187.6 Q 499.1 188.7, 501.0 188.7 Q 502.2 188.7, 503.7 188.0 L 504.1 189.2 Q 503.5 189.6, 502.6 189.8 Q 501.7 190.0, 500.7 190.0 Q 498.3 190.0, 496.9 188.5 Q 495.6 187.0, 495.6 184.2 " fill="#000000"/>
<path class="bond-0 atom-0 atom-1" d="M 785.5,57.1 L 772.4,73.2" style="fill:none;fill-rule:evenodd;stroke:#000000;stroke-width:2.0px;stroke-linecap:butt;stroke-linejoin:miter;stroke-opacity:1"/>
<path class="bond-0 atom-0 atom-1" d="M 783.1,55.1 L 771.1,69.9" style="fill:none;fill-rule:evenodd;stroke:#000000;stroke-width:2.0px;stroke-linecap:butt;stroke-linejoin:miter;stroke-opacity:1;stroke-dasharray:6,4"/>
<path class="bond-1 atom-1 atom-2" d="M 772.4,73.2 L 751.9,70.0" style="fill:none;fill-rule:evenodd;stroke:#000000;stroke-width:2.0px;stroke-linecap:butt;stroke-linejoin:miter;stroke-opacity:1"/>
<path class="bond-1 atom-1 atom-2" d="M 771.1,69.9 L 752.4,66.9" style="fill:none;fill-rule:evenodd;stroke:#000000;stroke-width:2.0px;stroke-linecap:butt;stroke-linejoin:miter;stroke-opacity:1;stroke-dasharray:6,4"/>
<path class="bond-2 atom-2 atom-3" d="M 751.9,70.0 L 738.8,86.1" style="fill:none;fill-rule:evenodd;stroke:#000000;stroke-width:2.0px;stroke-linecap:butt;stroke-linejoin:miter;stroke-opacity:1"/>
<path class="bond-2 atom-2 atom-3" d="M 753.2,73.3 L 742.3,86.7" style="fill:none;fill-rule:evenodd;stroke:#000000;stroke-width:2.0px;stroke-linecap:butt;stroke-linejoin:miter;stroke-opacity:1;stroke-dasharray:6,4"/>
<path class="bond-3 atom-3 atom-4" d="M 738.8,86.1 L 730.2,84.8" style="fill:none;fill-rule:evenodd;stroke:#000000;stroke-width:2.0px;stroke-linecap:butt;stroke-linejoin:miter;stroke-opacity:1"/>
<path class="bond-3 atom-3 atom-4" d="M 730.2,84.8 L 721.6,83.4" style="fill:none;fill-rule:evenodd;stroke:#FF0000;stroke-width:2.0px;stroke-linecap:butt;stroke-linejoin:miter;stroke-opacity:1"/>
<path class="bond-3 atom-3 atom-4" d="M 738.3,89.2 L 729.7,87.8" style="fill:none;fill-rule:evenodd;stroke:#000000;stroke-width:2.0px;stroke-linecap:butt;stroke-linejoin:miter;stroke-opacity:1;stroke-dasharray:6,4"/>
<path class="bond-3 atom-3 atom-4" d="M 729.7,87.8 L 721.2,86.5" style="fill:none;fill-rule:evenodd;stroke:#FF0000;stroke-width:2.0px;stroke-linecap:butt;stroke-linejoin:miter;stroke-opacity:1;stroke-dasharray:6,4"/>
<path class="bond-4 atom-4 atom-5" d="M 715.2,86.6 L 710.2,92.8" style="fill:none;fill-rule:evenodd;stroke:#FF0000;stroke-width:2.0px;stroke-linecap:butt;stroke-linejoin:miter;stroke-opacity:1"/>
<path class="bond-4 atom-4 atom-5" d="M 710.2,92.8 L 705.2,99.0" style="fill:none;fill-rule:evenodd;stroke:#000000;stroke-width:2.0px;stroke-linecap:butt;stroke-linejoin:miter;stroke-opacity:1"/>
<path class="bond-4 atom-4 atom-5" d="M 717.6,88.6 L 713.2,94.1" style="fill:none;fill-rule:evenodd;stroke:#FF0000;stroke-width:2.0px;stroke-linecap:butt;stroke-linejoin:miter;stroke-opacity:1;stroke-dasharray:6,4"/>
<path class="bond-4 atom-4 atom-5" d="M 713.2,94.1 L 708.7,99.6" style="fill:none;fill-rule:evenodd;stroke:#000000;stroke-width:2.0px;stroke-linecap:butt;stroke-linejoin:miter;stroke-opacity:1;stroke-dasharray:6,4"/>
<path class="bond-5 atom-5 atom-6" d="M 703.4,98.8 L 706.6,107.0" style="fill:none;fill-rule:evenodd;stroke:#000000;stroke-width:2.0px;stroke-linecap:butt;stroke-linejoin:miter;stroke-opacity:1"/>
<path class="bond-5 atom-5 atom-6" d="M 706.6,107.0 L 709.8,115.3" style="fill:none;fill-rule:evenodd;stroke:#FF0000;stroke-width:2.0px;stroke-linecap:butt;stroke-linejoin:miter;stroke-opacity:1"/>
<path class="bond-5 atom-5 atom-6" d="M 706.3,97.6 L 709.5,105.9" style="fill:none;fill-rule:evenodd;stroke:#000000;stroke-width:2.0px;stroke-linecap:butt;stroke-linejoin:miter;stroke-opacity:1"/>
<path class="bond-5 atom-5 atom-6" d="M 709.5,105.9 L 712.7,114.2" style="fill:none;fill-rule:evenodd;stroke:#FF0000;stroke-width:2.0px;stroke-linecap:butt;stroke-linejoin:miter;stroke-opacity:1"/>
<path class="bond-6 atom-5 atom-7" d="M 705.2,99.0 L 684.6,95.8" style="fill:none;fill-rule:evenodd;stroke:#000000;stroke-width:2.0px;stroke-linecap:butt;stroke-linejoin:miter;stroke-opacity:1"/>
<path class="bond-7 atom-7 atom-8" d="M 684.6,95.8 L 671.6,111.9" style="fill:none;fill-rule:evenodd;stroke:#000000;stroke-width:2.0px;stroke-linecap:butt;stroke-linejoin:miter;stroke-opacity:1"/>
<path class="bond-7 atom-7 atom-8" d="M 681.1,95.2 L 670.3,108.6" style="fill:none;fill-rule:evenodd;stroke:#000000;stroke-width:2.0px;stroke-linecap:butt;stroke-linejoin:miter;stroke-opacity:1"/>
<path class="bond-8 atom-8 atom-9" d="M 671.6,111.9 L 651.0,108.7" style="fill:none;fill-rule:evenodd;stroke:#000000;stroke-width:2.0px;stroke-linecap:butt;stroke-linejoin:miter;stroke-opacity:1"/>
<path class="bond-9 atom-9 atom-10" d="M 651.0,108.7 L 646.0,114.9" style="fill:none;fill-rule:evenodd;stroke:#000000;stroke-width:2.0px;stroke-linecap:butt;stroke-linejoin:miter;stroke-opacity:1"/>
<path class="bond-9 atom-9 atom-10" d="M 646.0,114.9 L 640.9,121.2" style="fill:none;fill-rule:evenodd;stroke:#FF0000;stroke-width:2.0px;stroke-linecap:butt;stroke-linejoin:miter;stroke-opacity:1"/>
<path class="bond-10 atom-9 atom-11" d="M 651.0,108.7 L 643.6,89.3" style="fill:none;fill-rule:evenodd;stroke:#000000;stroke-width:2.0px;stroke-linecap:butt;stroke-linejoin:miter;stroke-opacity:1"/>
<path class="bond-10 atom-9 atom-11" d="M 653.3,105.9 L 647.1,89.8" style="fill:none;fill-rule:evenodd;stroke:#000000;stroke-width:2.0px;stroke-linecap:butt;stroke-linejoin:miter;stroke-opacity:1"/>
<path class="bond-11 atom-11 atom-12" d="M 643.6,89.3 L 635.0,87.9" style="fill:none;fill-rule:evenodd;stroke:#000000;stroke-width:2.0px;stroke-linecap:butt;stroke-linejoin:miter;stroke-opacity:1"/>
<path class="bond-11 atom-11 atom-12" d="M 635.0,87.9 L 626.4,86.6" style="fill:none;fill-rule:evenodd;stroke:#FF0000;stroke-width:2.0px;stroke-linecap:butt;stroke-linejoin:miter;stroke-opacity:1"/>
<path class="bond-12 atom-11 atom-13" d="M 643.6,89.3 L 656.6,73.1" style="fill:none;fill-rule:evenodd;stroke:#000000;stroke-width:2.0px;stroke-linecap:butt;stroke-linejoin:miter;stroke-opacity:1"/>
<path class="bond-13 atom-13 atom-14" d="M 656.6,73.1 L 653.6,65.3" style="fill:none;fill-rule:evenodd;stroke:#000000;stroke-width:2.0px;stroke-linecap:butt;stroke-linejoin:miter;stroke-opacity:1"/>
<path class="bond-13 atom-13 atom-14" d="M 653.6,65.3 L 650.6,57.5" style="fill:none;fill-rule:evenodd;stroke:#FF0000;stroke-width:2.0px;stroke-linecap:butt;stroke-linejoin:miter;stroke-opacity:1"/>
<path class="bond-14 atom-13 atom-15" d="M 656.6,73.1 L 677.2,76.4" style="fill:none;fill-rule:evenodd;stroke:#000000;stroke-width:2.0px;stroke-linecap:butt;stroke-linejoin:miter;stroke-opacity:1"/>
<path class="bond-14 atom-13 atom-15" d="M 657.9,76.5 L 674.9,79.2" style="fill:none;fill-rule:evenodd;stroke:#000000;stroke-width:2.0px;stroke-linecap:butt;stroke-linejoin:miter;stroke-opacity:1"/>
<path class="bond-15 atom-3 atom-16" d="M 738.8,86.1 L 746.2,105.5" style="fill:none;fill-rule:evenodd;stroke:#000000;stroke-width:2.0px;stroke-linecap:butt;stroke-linejoin:miter;stroke-opacity:1"/>
<path class="bond-15 atom-3 atom-16" d="M 742.3,86.7 L 748.5,102.7" style="fill:none;fill-rule:evenodd;stroke:#000000;stroke-width:2.0px;stroke-linecap:butt;stroke-linejoin:miter;stroke-opacity:1;stroke-dasharray:6,4"/>
<path class="bond-16 atom-16 atom-17" d="M 746.2,105.5 L 741.2,111.8" style="fill:none;fill-rule:evenodd;stroke:#000000;stroke-width:2.0px;stroke-linecap:butt;stroke-linejoin:miter;stroke-opacity:1"/>
<path class="bond-16 atom-16 atom-17" d="M 741.2,111.8 L 736.1,118.0" style="fill:none;fill-rule:evenodd;stroke:#FF0000;stroke-width:2.0px;stroke-linecap:butt;stroke-linejoin:miter;stroke-opacity:1"/>
<path class="bond-17 atom-16 atom-18" d="M 746.2,105.5 L 766.8,108.8" style="fill:none;fill-rule:evenodd;stroke:#000000;stroke-width:2.0px;stroke-linecap:butt;stroke-linejoin:miter;stroke-opacity:1"/>
<path class="bond-17 atom-16 atom-18" d="M 747.5,108.9 L 764.5,111.6" style="fill:none;fill-rule:evenodd;stroke:#000000;stroke-width:2.0px;stroke-linecap:butt;stroke-linejoin:miter;stroke-opacity:1;stroke-dasharray:6,4"/>
<path class="bond-18 atom-18 atom-19" d="M 766.8,108.8 L 769.8,116.7" style="fill:none;fill-rule:evenodd;stroke:#000000;stroke-width:2.0px;stroke-linecap:butt;stroke-linejoin:miter;stroke-opacity:1"/>
<path class="bond-18 atom-18 atom-19" d="M 769.8,116.7 L 772.8,124.5" style="fill:none;fill-rule:evenodd;stroke:#FF0000;stroke-width:2.0px;stroke-linecap:butt;stroke-linejoin:miter;stroke-opacity:1"/>
<path class="bond-19 atom-15 atom-7" d="M 677.2,76.4 L 684.6,95.8" style="fill:none;fill-rule:evenodd;stroke:#000000;stroke-width:2.0px;stroke-linecap:butt;stroke-linejoin:miter;stroke-opacity:1"/>
<path d="M 773.1,72.4 L 772.4,73.2 L 771.4,73.1" style="fill:none;stroke:#000000;stroke-width:2.0px;stroke-linecap:butt;stroke-linejoin:miter;stroke-opacity:1;"/>
<path d="M 752.9,70.1 L 751.9,70.0 L 751.2,70.8" style="fill:none;stroke:#000000;stroke-width:2.0px;stroke-linecap:butt;stroke-linejoin:miter;stroke-opacity:1;"/>
<path d="M 705.4,98.7 L 705.2,99.0 L 704.1,98.9" style="fill:none;stroke:#000000;stroke-width:2.0px;stroke-linecap:butt;stroke-linejoin:miter;stroke-opacity:1;"/>
<path d="M 672.2,111.1 L 671.6,111.9 L 670.5,111.8" style="fill:none;stroke:#000000;stroke-width:2.0px;stroke-linecap:butt;stroke-linejoin:miter;stroke-opacity:1;"/>
<path d="M 676.2,76.2 L 677.2,76.4 L 677.6,77.3" style="fill:none;stroke:#000000;stroke-width:2.0px;stroke-linecap:butt;stroke-linejoin:miter;stroke-opacity:1;"/>
<path d="M 765.8,108.6 L 766.8,108.8 L 766.9,109.2" style="fill:none;stroke:#000000;stroke-width:2.0px;stroke-linecap:butt;stroke-linejoin:miter;stroke-opacity:1;"/>
<path class="atom-4" d="M 715.6 82.9 Q 715.6 81.5, 716.3 80.7 Q 716.9 79.9, 718.3 79.9 Q 719.6 79.9, 720.3 80.7 Q 721.0 81.5, 721.0 82.9 Q 721.0 84.3, 720.3 85.1 Q 719.5 85.9, 718.3 85.9 Q 717.0 85.9, 716.3 85.1 Q 715.6 84.3, 715.6 82.9 M 718.3 85.3 Q 719.2 85.3, 719.6 84.7 Q 720.1 84.1, 720.1 82.9 Q 720.1 81.7, 719.6 81.2 Q 719.2 80.6, 718.3 80.6 Q 717.4 80.6, 716.9 81.1 Q 716.4 81.7, 716.4 82.9 Q 716.4 84.1, 716.9 84.7 Q 717.4 85.3, 718.3 85.3 " fill="#FF0000"/>
<path class="atom-6" d="M 709.9 118.5 Q 709.9 117.0, 710.6 116.3 Q 711.3 115.5, 712.6 115.5 Q 713.9 115.5, 714.6 116.3 Q 715.3 117.0, 715.3 118.5 Q 715.3 119.9, 714.6 120.7 Q 713.9 121.5, 712.6 121.5 Q 711.3 121.5, 710.6 120.7 Q 709.9 119.9, 709.9 118.5 M 712.6 120.8 Q 713.5 120.8, 714.0 120.3 Q 714.5 119.6, 714.5 118.5 Q 714.5 117.3, 714.0 116.7 Q 713.5 116.1, 712.6 116.1 Q 711.7 116.1, 711.2 116.7 Q 710.8 117.3, 710.8 118.5 Q 710.8 119.7, 711.2 120.3 Q 711.7 120.8, 712.6 120.8 " fill="#FF0000"/>
<path class="atom-10" d="M 629.4 121.9 L 630.2 121.9 L 630.2 124.4 L 633.2 124.4 L 633.2 121.9 L 634.0 121.9 L 634.0 127.8 L 633.2 127.8 L 633.2 125.1 L 630.2 125.1 L 630.2 127.8 L 629.4 127.8 L 629.4 121.9 " fill="#FF0000"/>
<path class="atom-10" d="M 635.2 124.9 Q 635.2 123.5, 635.9 122.7 Q 636.6 121.9, 637.9 121.9 Q 639.2 121.9, 639.9 122.7 Q 640.6 123.5, 640.6 124.9 Q 640.6 126.3, 639.9 127.1 Q 639.2 127.9, 637.9 127.9 Q 636.6 127.9, 635.9 127.1 Q 635.2 126.3, 635.2 124.9 M 637.9 127.3 Q 638.8 127.3, 639.3 126.7 Q 639.8 126.1, 639.8 124.9 Q 639.8 123.7, 639.3 123.1 Q 638.8 122.5, 637.9 122.5 Q 637.0 122.5, 636.5 123.1 Q 636.1 123.7, 636.1 124.9 Q 636.1 126.1, 636.5 126.7 Q 637.0 127.3, 637.9 127.3 " fill="#FF0000"/>
<path class="atom-12" d="M 614.5 83.1 L 615.3 83.1 L 615.3 85.6 L 618.3 85.6 L 618.3 83.1 L 619.1 83.1 L 619.1 89.0 L 618.3 89.0 L 618.3 86.3 L 615.3 86.3 L 615.3 89.0 L 614.5 89.0 L 614.5 83.1 " fill="#FF0000"/>
<path class="atom-12" d="M 620.3 86.1 Q 620.3 84.6, 621.0 83.8 Q 621.7 83.1, 623.0 83.1 Q 624.3 83.1, 625.0 83.8 Q 625.7 84.6, 625.7 86.1 Q 625.7 87.5, 625.0 88.3 Q 624.3 89.1, 623.0 89.1 Q 621.7 89.1, 621.0 88.3 Q 620.3 87.5, 620.3 86.1 M 623.0 88.4 Q 623.9 88.4, 624.4 87.8 Q 624.9 87.2, 624.9 86.1 Q 624.9 84.9, 624.4 84.3 Q 623.9 83.7, 623.0 83.7 Q 622.1 83.7, 621.6 84.3 Q 621.2 84.9, 621.2 86.1 Q 621.2 87.2, 621.6 87.8 Q 622.1 88.4, 623.0 88.4 " fill="#FF0000"/>
<path class="atom-14" d="M 640.7 50.8 L 641.5 50.8 L 641.5 53.3 L 644.5 53.3 L 644.5 50.8 L 645.3 50.8 L 645.3 56.7 L 644.5 56.7 L 644.5 54.0 L 641.5 54.0 L 641.5 56.7 L 640.7 56.7 L 640.7 50.8 " fill="#FF0000"/>
<path class="atom-14" d="M 646.5 53.7 Q 646.5 52.3, 647.2 51.5 Q 647.9 50.7, 649.2 50.7 Q 650.5 50.7, 651.2 51.5 Q 651.9 52.3, 651.9 53.7 Q 651.9 55.2, 651.2 56.0 Q 650.5 56.8, 649.2 56.8 Q 647.9 56.8, 647.2 56.0 Q 646.5 55.2, 646.5 53.7 M 649.2 56.1 Q 650.1 56.1, 650.6 55.5 Q 651.1 54.9, 651.1 53.7 Q 651.1 52.6, 650.6 52.0 Q 650.1 51.4, 649.2 51.4 Q 648.3 51.4, 647.8 52.0 Q 647.3 52.6, 647.3 53.7 Q 647.3 54.9, 647.8 55.5 Q 648.3 56.1, 649.2 56.1 " fill="#FF0000"/>
<path class="atom-17" d="M 724.6 118.8 L 725.4 118.8 L 725.4 121.3 L 728.5 121.3 L 728.5 118.8 L 729.3 118.8 L 729.3 124.7 L 728.5 124.7 L 728.5 122.0 L 725.4 122.0 L 725.4 124.7 L 724.6 124.7 L 724.6 118.8 " fill="#FF0000"/>
<path class="atom-17" d="M 730.5 121.7 Q 730.5 120.3, 731.2 119.5 Q 731.9 118.7, 733.2 118.7 Q 734.5 118.7, 735.2 119.5 Q 735.9 120.3, 735.9 121.7 Q 735.9 123.1, 735.2 124.0 Q 734.5 124.8, 733.2 124.8 Q 731.9 124.8, 731.2 124.0 Q 730.5 123.2, 730.5 121.7 M 733.2 124.1 Q 734.1 124.1, 734.5 123.5 Q 735.0 122.9, 735.0 121.7 Q 735.0 120.6, 734.5 120.0 Q 734.1 119.4, 733.2 119.4 Q 732.3 119.4, 731.8 120.0 Q 731.3 120.5, 731.3 121.7 Q 731.3 122.9, 731.8 123.5 Q 732.3 124.1, 733.2 124.1 " fill="#FF0000"/>
<path class="atom-19" d="M 771.5 128.2 Q 771.5 126.8, 772.2 126.0 Q 772.9 125.2, 774.2 125.2 Q 775.5 125.2, 776.2 126.0 Q 776.9 126.8, 776.9 128.2 Q 776.9 129.6, 776.2 130.5 Q 775.5 131.3, 774.2 131.3 Q 772.9 131.3, 772.2 130.5 Q 771.5 129.7, 771.5 128.2 M 774.2 130.6 Q 775.1 130.6, 775.6 130.0 Q 776.1 129.4, 776.1 128.2 Q 776.1 127.1, 775.6 126.5 Q 775.1 125.9, 774.2 125.9 Q 773.3 125.9, 772.8 126.5 Q 772.4 127.0, 772.4 128.2 Q 772.4 129.4, 772.8 130.0 Q 773.3 130.6, 774.2 130.6 " fill="#FF0000"/>
<path class="atom-19" d="M 777.9 125.3 L 778.7 125.3 L 778.7 127.8 L 781.7 127.8 L 781.7 125.3 L 782.5 125.3 L 782.5 131.2 L 781.7 131.2 L 781.7 128.5 L 778.7 128.5 L 778.7 131.2 L 777.9 131.2 L 777.9 125.3 " fill="#FF0000"/>
<path class="legend" d="M 699.2 178.7 Q 701.7 178.7, 703.1 180.2 Q 704.4 181.6, 704.4 184.3 Q 704.4 187.0, 703.1 188.5 Q 701.7 190.0, 699.2 190.0 L 695.6 190.0 L 695.6 178.7 L 699.2 178.7 M 699.2 188.7 Q 701.0 188.7, 701.9 187.6 Q 702.8 186.5, 702.8 184.3 Q 702.8 182.1, 701.9 181.0 Q 701.0 180.0, 699.2 180.0 L 697.1 180.0 L 697.1 188.7 L 699.2 188.7 " fill="#000000"/>
</svg>