<?xml version="1.0" encoding="UTF-8" standalone="no"?>
<!-- Created with Inkscape (http://www.inkscape.org/) -->
<svg
   xmlns:svg="http://www.w3.org/2000/svg"
   xmlns="http://www.w3.org/2000/svg"
   version="1.0"
   width="620"
   height="345.92999"
   id="svg2">
  <defs
     id="defs4" />
  <g
     transform="translate(1325.1428,-763.57356)"
     id="layer1">
    <path
       d="M -749.3051,1092.6343 L -749.3051,1085.7625 L -748.12709,1085.7625 C -747.17938,1085.7625 -746.94908,1085.9295 -746.94908,1086.6163 L -746.94908,1087.4701 L -746.02372,1086.6008 C -744.83734,1085.4862 -742.60843,1085.1208 -741.01721,1085.7799 C -739.11343,1086.5684 -738.70301,1088.0604 -738.70301,1094.1923 L -738.70301,1099.506 L -739.88102,1099.506 L -741.05903,1099.506 L -741.05903,1094.4013 C -741.05903,1089.8201 -741.13957,1089.216 -741.84437,1088.5112 C -742.71963,1087.636 -744.46054,1087.4984 -745.41245,1088.2292 C -746.66777,1089.1931 -746.94908,1090.426 -746.94908,1094.9645 L -746.94908,1099.506 L -748.12709,1099.506 L -749.3051,1099.506 L -749.3051,1092.6343 z M -1236.2161,1097.9353 C -1236.2161,1097.7193 -1236.4806,1097.5426 -1236.8038,1097.5426 C -1237.3224,1097.5426 -1237.4031,1090.8669 -1237.4909,1040.727 L -1237.5904,983.91135 L -1242.532,982.55701 C -1247.223,981.27138 -1247.4647,981.15585 -1247.2972,980.27964 C -1247.16,979.5619 -1246.9343,979.40434 -1246.2823,979.5712 C -1245.8212,979.68922 -1243.6768,980.2768 -1241.5171,980.87693 L -1237.5904,981.96807 L -1237.4888,961.22135 C -1237.4003,943.1412 -1237.312,940.47462 -1236.8016,940.47462 C -1236.4796,940.47462 -1236.2161,940.20957 -1236.2161,939.88561 C -1236.2161,939.39347 -1235.4089,939.29661 -1231.3077,939.29661 L -1226.3993,939.29661 L -1226.3993,940.27828 L -1226.3993,941.25996 L -1230.9185,941.25996 L -1235.4377,941.25996 L -1235.336,961.94362 L -1235.2344,982.62728 L -1227.543,984.76738 C -1220.0462,986.85333 -1219.8562,986.93166 -1220.0342,987.86304 C -1220.1347,988.3886 -1220.4211,988.74022 -1220.6708,988.64442 C -1220.9204,988.54863 -1224.1226,987.6459 -1227.7869,986.63835 C -1231.4511,985.6308 -1234.67,984.73261 -1234.9399,984.64238 C -1235.3311,984.51165 -1235.4308,995.84124 -1235.4308,1040.4215 L -1235.4308,1096.3646 L -1230.9151,1096.3646 L -1226.3993,1096.3646 L -1226.3993,1097.3463 L -1226.3993,1098.328 L -1231.3077,1098.328 C -1234.3182,1098.328 -1236.2161,1098.1761 -1236.2161,1097.9353 z M -772.86531,1097.3463 L -772.86531,1096.3646 L -768.34827,1096.3646 L -763.83127,1096.3646 L -763.93073,1039.3439 L -764.03023,982.32314 L -773.06165,978.50681 C -778.02893,976.40783 -782.26976,974.67866 -782.48573,974.66422 C -782.7017,974.64978 -787.81434,984.66555 -793.84717,996.92148 C -799.87996,1009.1774 -804.94018,1019.3529 -805.09207,1019.5336 C -805.24395,1019.7144 -806.95466,1018.935 -808.89366,1017.8017 L -812.4191,1015.741 L -804.09834,1003.1406 C -799.52192,996.21029 -793.51419,987.13283 -790.74783,982.96842 C -787.98143,978.80402 -785.78593,975.34592 -785.8689,975.28375 C -785.95187,975.22158 -798.78386,979.51233 -814.38441,984.81875 L -842.74906,994.46677 L -842.75483,1004.1853 C -842.76044,1013.6402 -842.78192,1013.9039 -843.54594,1013.9039 C -844.31004,1013.9039 -844.3314,1013.6409 -844.33489,1004.1853 L -844.33855,994.46677 L -874.00776,984.49396 C -899.11222,976.05551 -903.75406,974.60557 -904.17783,975.06987 C -904.45328,975.37167 -911.09043,986.83915 -918.92703,1000.5531 C -926.76362,1014.2671 -933.24853,1025.6154 -933.33792,1025.7714 C -933.42732,1025.9275 -930.26821,1024.9333 -926.31771,1023.5621 C -922.36717,1022.1909 -909.77911,1017.8382 -898.3442,1013.8894 L -877.55342,1006.7099 L -853.18713,1013.7012 C -839.78565,1017.5464 -827.99609,1020.9346 -826.98806,1021.2305 L -825.15531,1021.7685 L -825.83934,1024.1941 C -826.21556,1025.5282 -826.70879,1026.6816 -826.9354,1026.7571 C -827.16205,1026.8327 -838.52086,1023.7002 -852.17722,1019.7961 L -877.00698,1012.6977 L -889.82491,1021.3075 C -907.20586,1032.9823 -909.72249,1034.7261 -909.63963,1035.0371 C -909.60048,1035.1841 -906.1991,1041.1356 -902.08105,1048.2625 C -895.2465,1060.0909 -894.65318,1061.2646 -895.27592,1061.725 C -895.84827,1062.1481 -896.0408,1062.1165 -896.4712,1061.5287 C -897.39119,1060.2722 -912.32722,1034.2554 -912.19525,1034.1394 C -912.12465,1034.0773 -906.50078,1030.2751 -899.69777,1025.69 C -892.89476,1021.1049 -887.68207,1017.454 -888.114,1017.5768 C -890.17116,1018.1619 -934.75431,1028.4873 -935.34455,1028.5154 C -935.89871,1028.5417 -963.61785,1013.228 -964.58799,1012.3596 C -964.75078,1012.2139 -964.65309,1011.779 -964.37092,1011.3931 C -963.89694,1010.7449 -962.81325,1011.2796 -950.13702,1018.4162 C -942.59055,1022.6648 -936.27981,1026.1706 -936.11316,1026.207 C -935.9465,1026.2433 -929.20517,1014.7432 -921.13242,1000.6513 C -913.05967,986.55937 -906.62251,975.02959 -906.8276,975.02959 C -907.0327,975.02959 -910.929,976.10034 -915.4861,977.40902 C -923.80937,979.79928 -924.40717,979.86319 -924.42999,978.36522 C -924.43328,978.14811 -919.91664,976.70159 -914.39298,975.15073 L -904.34997,972.33099 L -873.93233,982.56874 L -843.51468,992.80648 L -813.3489,982.54158 L -783.18311,972.27667 L -773.8325,976.20549 C -768.68966,978.36634 -764.33609,980.1343 -764.15789,980.1343 C -763.9797,980.1343 -763.8339,971.38758 -763.8339,960.69713 L -763.8339,941.25996 L -768.34961,941.25996 L -772.86531,941.25996 L -772.86531,940.27828 L -772.86531,939.29661 L -767.95694,939.29661 C -763.85573,939.29661 -763.04856,939.39347 -763.04856,939.88561 C -763.04856,940.20957 -762.78351,940.47462 -762.45955,940.47462 C -761.94355,940.47462 -761.87055,942.99917 -761.87055,960.83953 L -761.87055,981.20443 L -757.35484,983.10469 C -754.8712,984.14983 -752.84184,985.19014 -752.84514,985.41648 C -752.86466,986.7523 -753.53982,986.69855 -757.55361,985.04166 L -761.67421,983.3407 L -761.77368,1040.4417 C -761.86148,1090.8353 -761.94221,1097.5426 -762.46085,1097.5426 C -762.7841,1097.5426 -763.04856,1097.7193 -763.04856,1097.9353 C -763.04856,1098.1761 -764.94645,1098.328 -767.95694,1098.328 L -772.86531,1098.328 L -772.86531,1097.3463 z M -892.43338,1082.2046 C -894.12908,1081.7068 -896.44156,1079.6626 -897.4466,1077.773 C -898.68441,1075.4457 -898.69065,1070.1745 -897.45834,1067.8589 C -895.81411,1064.7693 -892.90376,1062.9921 -889.48835,1062.9921 C -886.07294,1062.9921 -883.16259,1064.7693 -881.51836,1067.8589 C -880.29904,1070.1501 -880.29213,1075.4516 -881.50552,1077.7128 C -883.63898,1081.6886 -888.03508,1083.4956 -892.43338,1082.2046 z M -886.02323,1079.2172 C -882.63555,1076.7504 -882.26133,1070.1362 -885.33555,1067.0619 C -887.52182,1064.8757 -891.15535,1064.8106 -893.55198,1066.9149 C -896.35478,1069.3758 -896.53399,1075.4698 -893.89093,1078.4392 C -892.18768,1080.3528 -888.13336,1080.7536 -886.02323,1079.2172 z M -877.70825,1072.8044 L -877.70825,1063.3803 L -876.3339,1063.3803 L -874.95955,1063.3803 L -874.95955,1067.1107 L -874.95955,1070.8411 L -870.24751,1070.8411 L -865.53547,1070.8411 L -865.53547,1067.1107 L -865.53547,1063.3803 L -864.16112,1063.3803 L -862.78678,1063.3803 L -862.78678,1072.8044 L -862.78678,1082.2285 L -864.16112,1082.2285 L -865.53547,1082.2285 L -865.53547,1077.7128 L -865.53547,1073.1971 L -870.24751,1073.1971 L -874.95955,1073.1971 L -874.95955,1077.7128 L -874.95955,1082.2285 L -876.3339,1082.2285 L -877.70825,1082.2285 L -877.70825,1072.8044 z M -846.88364,1064.5344 C -848.57934,1064.0367 -850.89182,1061.9925 -851.89686,1060.1028 C -853.13467,1057.7756 -853.14092,1052.5043 -851.9086,1050.1887 C -850.26437,1047.0991 -847.35402,1045.3219 -843.93861,1045.3219 C -840.52321,1045.3219 -837.61285,1047.0991 -835.96862,1050.1887 C -834.74931,1052.4799 -834.74239,1057.7814 -835.95578,1060.0427 C -838.08924,1064.0185 -842.48534,1065.8255 -846.88364,1064.5344 z M -840.47349,1061.547 C -837.08581,1059.0803 -836.7116,1052.466 -839.78581,1049.3918 C -841.97208,1047.2055 -845.60561,1047.1405 -848.00224,1049.2447 C -850.80504,1051.7056 -850.98425,1057.7997 -848.34119,1060.7691 C -846.63794,1062.6826 -842.58362,1063.0835 -840.47349,1061.547 z M -831.76584,1055.1343 L -831.76584,1045.7102 L -830.39149,1045.7102 L -829.01715,1045.7102 L -829.01715,1049.4406 L -829.01715,1053.1709 L -824.3051,1053.1709 L -819.59306,1053.1709 L -819.59306,1049.4406 L -819.59306,1045.7102 L -818.21872,1045.7102 L -816.84437,1045.7102 L -816.84437,1055.1343 L -816.84437,1064.5584 L -818.21872,1064.5584 L -819.59306,1064.5584 L -819.59306,1060.0427 L -819.59306,1055.5269 L -824.3051,1055.5269 L -829.01715,1055.5269 L -829.01715,1060.0427 L -829.01715,1064.5584 L -830.39149,1064.5584 L -831.76584,1064.5584 L -831.76584,1055.1343 z M -844.33128,1033.7705 C -844.33128,1024.7728 -844.31475,1024.5838 -843.54594,1024.7849 C -842.78946,1024.9827 -842.7606,1025.3205 -842.7606,1033.9759 C -842.7606,1042.6997 -842.78349,1042.9615 -843.54594,1042.9615 C -844.3089,1042.9615 -844.33128,1042.6997 -844.33128,1033.7705 z M -817.82605,1037.8329 C -819.52175,1037.3351 -821.83423,1035.2909 -822.83927,1033.4013 C -824.07708,1031.074 -824.08332,1025.8027 -822.85101,1023.4871 C -821.20678,1020.3975 -818.29643,1018.6203 -814.88102,1018.6203 C -811.46561,1018.6203 -808.55526,1020.3975 -806.91103,1023.4871 C -805.69171,1025.7783 -805.6848,1031.0799 -806.89819,1033.3411 C -809.03165,1037.3169 -813.42775,1039.1239 -817.82605,1037.8329 z M -811.4159,1034.8454 C -808.02822,1032.3787 -807.654,1025.7644 -810.72822,1022.6902 C -812.91449,1020.5039 -816.54802,1020.4389 -818.94465,1022.5432 C -821.74745,1025.0041 -821.92666,1031.0981 -819.2836,1034.0675 C -817.58035,1035.9811 -813.52603,1036.3819 -811.4159,1034.8454 z M -1175.5486,1025.2674 C -1177.2443,1024.7697 -1179.5567,1022.7255 -1180.5618,1020.8358 C -1181.7996,1018.5085 -1181.8058,1013.2373 -1180.5735,1010.9217 C -1178.9293,1007.8321 -1176.0189,1006.0549 -1172.6035,1006.0549 C -1169.1881,1006.0549 -1166.2778,1007.8321 -1164.6335,1010.9217 C -1163.4142,1013.2129 -1163.4073,1018.5144 -1164.6207,1020.7756 C -1166.7542,1024.7515 -1171.1503,1026.5584 -1175.5486,1025.2674 z M -1169.1384,1022.28 C -1165.7507,1019.8132 -1165.3765,1013.199 -1168.4507,1010.1248 C -1170.637,1007.9385 -1174.2706,1007.8735 -1176.6672,1009.9777 C -1179.47,1012.4386 -1179.6492,1018.5327 -1177.0061,1021.5021 C -1175.3029,1023.4156 -1171.2485,1023.8165 -1169.1384,1022.28 z M -1199.6978,1015.8673 L -1199.6978,1006.4432 L -1198.3234,1006.4432 L -1196.9491,1006.4432 L -1196.9491,1010.1735 L -1196.9491,1013.9039 L -1192.237,1013.9039 L -1187.525,1013.9039 L -1187.525,1010.1735 L -1187.525,1006.4432 L -1186.1507,1006.4432 L -1184.7763,1006.4432 L -1184.7763,1015.8673 L -1184.7763,1025.2913 L -1186.1507,1025.2913 L -1187.525,1025.2913 L -1187.525,1020.7756 L -1187.525,1016.2599 L -1192.237,1016.2599 L -1196.9491,1016.2599 L -1196.9491,1020.7756 L -1196.9491,1025.2913 L -1198.3234,1025.2913 L -1199.6978,1025.2913 L -1199.6978,1015.8673 z M -1149.1818,1021.9466 C -1155.629,1020.3583 -1160.9904,1018.9726 -1161.0959,1018.867 C -1161.2015,1018.7615 -1161.1796,1018.3341 -1161.0473,1017.9173 C -1160.817,1017.1917 -1160.5047,1017.2339 -1153.7187,1018.9065 C -1149.8202,1019.8673 -1146.5376,1020.5605 -1146.424,1020.4469 C -1146.3104,1020.3333 -1151.9273,1008.9509 -1158.906,995.15267 L -1171.5947,970.06503 L -1184.6741,977.91036 C -1196.993,985.29952 -1197.7848,985.71286 -1198.2921,985.01909 C -1198.7955,984.33072 -1197.9399,983.74822 -1185.2263,976.12296 C -1177.7439,971.63521 -1171.3995,967.96299 -1171.1277,967.96247 C -1170.8559,967.96195 -1158.6786,971.40757 -1144.067,975.6194 C -1129.4554,979.83123 -1117.433,983.20986 -1117.3506,983.12748 C -1117.2682,983.04509 -1124.1003,978.3418 -1132.5331,972.67571 C -1140.9658,967.00963 -1147.8653,962.29848 -1147.8653,962.20649 C -1147.8653,962.1145 -1144.3158,955.86402 -1139.9774,948.31653 C -1132.8256,935.87432 -1132.0195,934.63132 -1131.3387,934.99568 C -1130.9257,935.2167 -1130.5878,935.46527 -1130.5878,935.54805 C -1130.5878,935.63083 -1133.9304,941.49994 -1138.0158,948.59051 C -1143.6468,958.3637 -1145.333,961.59116 -1144.9857,961.93177 C -1144.7338,962.17889 -1136.9139,967.5088 -1127.6083,973.77601 L -1110.689,985.17095 L -1097.1764,981.28989 C -1089.7444,979.1553 -1083.4306,977.4036 -1083.1456,977.39722 C -1082.8323,977.3902 -1082.677,977.72989 -1082.7529,978.25656 C -1082.8669,979.0474 -1084.1658,979.49523 -1096.8752,983.12525 L -1110.872,987.12297 L -1137.1239,979.55483 C -1151.5624,975.39235 -1164.6529,971.62588 -1166.2137,971.18489 L -1169.0517,970.3831 L -1167.7515,972.41185 C -1154.3461,993.32817 -1137.8982,1018.8787 -1137.6966,1019.0997 C -1137.5524,1019.2578 -1124.6363,1015.0611 -1108.994,1009.7738 C -1093.3518,1004.4865 -1080.5024,1000.1605 -1080.4398,1000.1605 C -1080.3772,1000.1605 -1080.326,990.00014 -1080.326,977.58195 L -1080.326,955.00341 L -1079.3444,955.00341 L -1078.3627,955.00341 L -1078.3627,976.76192 L -1078.3627,998.52043 L -1050.974,1009.4174 C -1035.9101,1015.4108 -1022.9992,1020.558 -1022.283,1020.8557 L -1020.9808,1021.3969 L -1021.9624,1019.7119 C -1022.5023,1018.7852 -1027.7883,1009.6056 -1033.709,999.31285 C -1043.9976,981.42663 -1044.4362,980.58156 -1043.6221,980.21065 C -1042.8177,979.84414 -1042.0965,980.99521 -1030.6428,1000.9261 L -1018.5151,1022.0297 L -1006.5214,1017.1524 C -984.96752,1008.3874 -987.11117,1009.1554 -986.76395,1010.0746 C -986.59733,1010.5157 -986.51316,1010.9287 -986.57691,1010.9925 C -986.64065,1011.0562 -993.927,1014.0517 -1002.7689,1017.6491 L -1018.845,1024.1899 L -1050.1541,1015.2748 L -1081.4632,1006.3598 L -1108.9418,1015.6292 C -1124.0551,1020.7274 -1136.6542,1024.8842 -1136.94,1024.8664 C -1137.2258,1024.8487 -1142.7346,1023.5348 -1149.1818,1021.9466 z M -978.42814,1015.4507 C -980.12384,1014.9529 -982.43632,1012.9087 -983.44137,1011.0191 C -984.67917,1008.6918 -984.68541,1003.4206 -983.45311,1001.105 C -981.80889,998.01536 -978.89852,996.23816 -975.48311,996.23816 C -972.06771,996.23816 -969.15734,998.01536 -967.51312,1001.105 C -966.29382,1003.3962 -966.28691,1008.6977 -967.50029,1010.9589 C -969.63375,1014.9347 -974.02983,1016.7417 -978.42814,1015.4507 z M -972.018,1012.4632 C -968.63031,1009.9965 -968.25611,1003.3822 -971.33032,1000.308 C -973.51658,998.12178 -977.15014,998.05675 -979.54674,1000.161 C -982.34954,1002.6219 -982.52877,1008.7159 -979.88568,1011.6853 C -978.18245,1013.5989 -974.12812,1013.9997 -972.018,1012.4632 z M -1211.6742,1001.3146 C -1213.3699,1000.8168 -1215.6824,998.77263 -1216.6874,996.88297 C -1217.9252,994.55569 -1217.9315,989.28445 -1216.6992,986.96885 C -1215.0549,983.87923 -1212.1446,982.10203 -1208.7292,982.10203 C -1205.3138,982.10203 -1202.4034,983.87923 -1200.7592,986.96885 C -1199.5399,989.26003 -1199.533,994.56157 -1200.7464,996.82279 C -1202.8798,1000.7986 -1207.2759,1002.6056 -1211.6742,1001.3146 z M -1205.2641,998.32714 C -1201.8764,995.86039 -1201.5022,989.24613 -1204.5764,986.17192 C -1206.7627,983.98565 -1210.3962,983.92062 -1212.7928,986.02487 C -1215.5956,988.48576 -1215.7748,994.57981 -1213.1318,997.54924 C -1211.4285,999.46277 -1207.3742,999.86363 -1205.2641,998.32714 z M -745.18207,1000.5292 C -746.87777,1000.0315 -749.19025,997.98729 -750.19529,996.09763 C -751.4331,993.77035 -751.43934,988.49911 -750.20703,986.18351 C -748.5628,983.09389 -745.65245,981.31669 -742.23704,981.31669 C -738.82164,981.31669 -735.91128,983.09389 -734.26705,986.18351 C -733.04773,988.47469 -733.04082,993.77623 -734.25421,996.03745 C -736.38767,1000.0133 -740.78377,1001.8202 -745.18207,1000.5292 z M -738.77192,997.5418 C -735.38424,995.07505 -735.01003,988.46079 -738.08424,985.38658 C -740.27051,983.20031 -743.90404,983.13528 -746.30067,985.23953 C -749.10347,987.70042 -749.28268,993.79447 -746.63962,996.7639 C -744.93637,998.67743 -740.88205,999.07829 -738.77192,997.5418 z M -730.06427,991.12907 L -730.06427,981.70499 L -728.68992,981.70499 L -727.31557,981.70499 L -727.31557,985.43535 L -727.31557,989.16572 L -722.60353,989.16572 L -717.89149,989.16572 L -717.89149,985.43535 L -717.89149,981.70499 L -716.51715,981.70499 L -715.1428,981.70499 L -715.1428,991.12907 L -715.1428,1000.5531 L -716.51715,1000.5531 L -717.89149,1000.5531 L -717.89149,996.03745 L -717.89149,991.52174 L -722.60353,991.52174 L -727.31557,991.52174 L -727.31557,996.03745 L -727.31557,1000.5531 L -728.68992,1000.5531 L -730.06427,1000.5531 L -730.06427,991.12907 z M -937.98311,992.28314 C -939.67882,991.7854 -941.9913,989.74122 -942.99634,987.85156 C -944.23414,985.52428 -944.24038,980.25303 -943.00808,977.93744 C -941.36386,974.84782 -938.45349,973.07062 -935.03809,973.07062 C -931.62269,973.07062 -928.71232,974.84782 -927.06809,977.93744 C -925.84878,980.22862 -925.84187,985.53015 -927.05527,987.79137 C -929.18872,991.76721 -933.58481,993.57417 -937.98311,992.28314 z M -931.57297,989.29573 C -928.18528,986.82897 -927.81108,980.21472 -930.88529,977.1405 C -933.07156,974.95424 -936.70511,974.88921 -939.10172,976.99346 C -941.90451,979.45435 -942.08374,985.54839 -939.44065,988.51782 C -937.73742,990.43135 -933.68309,990.83222 -931.57297,989.29573 z M -962.13233,982.883 L -962.13233,973.45891 L -960.75798,973.45891 L -959.38364,973.45891 L -959.38364,977.18928 L -959.38364,980.91964 L -954.6716,980.91964 L -949.95955,980.91964 L -949.95955,977.18928 L -949.95955,973.45891 L -948.58521,973.45891 L -947.21086,973.45891 L -947.21086,982.883 L -947.21086,992.30708 L -948.58521,992.30708 L -949.95955,992.30708 L -949.95955,987.79137 L -949.95955,983.27567 L -954.6716,983.27567 L -959.38364,983.27567 L -959.38364,987.79137 L -959.38364,992.30708 L -960.75798,992.30708 L -962.13233,992.30708 L -962.13233,982.883 z M -1265.2737,978.17095 L -1265.2737,968.74687 L -1263.8993,968.74687 L -1262.525,968.74687 L -1262.525,972.47724 L -1262.525,976.2076 L -1257.813,976.2076 L -1253.1009,976.2076 L -1253.1009,972.47724 L -1253.1009,968.74687 L -1251.7266,968.74687 L -1250.3522,968.74687 L -1250.3522,978.17095 L -1250.3522,987.59504 L -1251.7266,987.59504 L -1253.1009,987.59504 L -1253.1009,983.07933 L -1253.1009,978.56362 L -1257.813,978.56362 L -1262.525,978.56362 L -1262.525,983.07933 L -1262.525,987.59504 L -1263.8993,987.59504 L -1265.2737,987.59504 L -1265.2737,978.17095 z M -1053.4281,978.93236 C -1055.1238,978.43462 -1057.4363,976.39043 -1058.4414,974.50077 C -1059.6792,972.17349 -1059.6854,966.90225 -1058.4531,964.58666 C -1056.8089,961.49703 -1053.8985,959.71983 -1050.4831,959.71983 C -1047.0677,959.71983 -1044.1573,961.49703 -1042.5131,964.58666 C -1041.2938,966.87783 -1041.2869,972.17937 -1042.5003,974.44059 C -1044.6337,978.41642 -1049.0298,980.22339 -1053.4281,978.93236 z M -1047.018,975.94494 C -1043.6303,973.47819 -1043.2561,966.86393 -1046.3303,963.78972 C -1048.5166,961.60345 -1052.1501,961.53842 -1054.5467,963.64267 C -1057.3495,966.10356 -1057.5288,972.19761 -1054.8857,975.16704 C -1053.1824,977.08057 -1049.1281,977.48143 -1047.018,975.94494 z M -1076.0067,976.11655 C -1076.0067,975.23771 -1075.5867,975.0595 -1069.4294,973.32544 C -1065.812,972.30666 -1062.7074,971.47816 -1062.5304,971.48433 C -1062.3534,971.49051 -1062.2651,971.89249 -1062.3341,972.37763 C -1062.4443,973.15278 -1063.1497,973.46064 -1068.1533,974.91756 C -1076.2671,977.2801 -1076.0067,977.24034 -1076.0067,976.11655 z M -1082.4857,952.23079 C -1084.1814,951.73305 -1086.4939,949.68886 -1087.499,947.7992 C -1088.7368,945.47192 -1088.743,940.20068 -1087.5107,937.88508 C -1085.8665,934.79546 -1082.9561,933.01826 -1079.5407,933.01826 C -1076.1253,933.01826 -1073.2149,934.79546 -1071.5707,937.88508 C -1070.3514,940.17626 -1070.3445,945.4778 -1071.5579,947.73902 C -1073.6913,951.71485 -1078.0874,953.52182 -1082.4857,952.23079 z M -1076.0756,949.24337 C -1072.6879,946.77662 -1072.3137,940.16236 -1075.3879,937.08815 C -1077.5742,934.90188 -1081.2077,934.83685 -1083.6043,936.9411 C -1086.4071,939.40199 -1086.5864,945.49604 -1083.9433,948.46547 C -1082.24,950.379 -1078.1857,950.77986 -1076.0756,949.24337 z M -1067.3679,942.83064 L -1067.3679,933.40656 L -1065.9936,933.40656 L -1064.6192,933.40656 L -1064.6192,937.13692 L -1064.6192,940.86729 L -1059.9072,940.86729 L -1055.1952,940.86729 L -1055.1952,937.13692 L -1055.1952,933.40656 L -1053.8208,933.40656 L -1052.4465,933.40656 L -1052.4465,942.83064 L -1052.4465,952.25472 L -1053.8208,952.25472 L -1055.1952,952.25472 L -1055.1952,947.73902 L -1055.1952,943.22331 L -1059.9072,943.22331 L -1064.6192,943.22331 L -1064.6192,947.73902 L -1064.6192,952.25472 L -1065.9936,952.25472 L -1067.3679,952.25472 L -1067.3679,942.83064 z M -1127.6428,933.77529 C -1129.3385,933.27755 -1131.651,931.23337 -1132.656,929.3437 C -1133.8938,927.01643 -1133.9001,921.74518 -1132.6678,919.42959 C -1131.0235,916.33996 -1128.1132,914.56277 -1124.6978,914.56277 C -1121.2824,914.56277 -1118.372,916.33996 -1116.7278,919.42959 C -1115.5085,921.72076 -1115.5016,927.0223 -1116.715,929.28352 C -1118.8484,933.25936 -1123.2445,935.06632 -1127.6428,933.77529 z M -1121.2327,930.78787 C -1117.845,928.32112 -1117.4708,921.70686 -1120.545,918.63265 C -1122.7312,916.44639 -1126.3648,916.38136 -1128.7614,918.4856 C -1131.5642,920.94649 -1131.7434,927.04054 -1129.1003,930.00997 C -1127.3971,931.9235 -1123.3428,932.32436 -1121.2327,930.78787 z M -1125.4857,896.59373 L -1125.4883,880.98509 L -1153.0698,874.63592 C -1168.2396,871.14388 -1180.6783,868.31666 -1180.7113,868.3532 C -1180.7443,868.38974 -1178.0556,873.10224 -1174.7364,878.8254 C -1171.4171,884.54857 -1168.6959,889.43314 -1168.6891,889.67999 C -1168.678,890.08627 -1169.8176,890.77478 -1170.0738,890.51658 C -1170.1325,890.45751 -1173.2971,885.01978 -1177.1063,878.43273 C -1180.9155,871.84569 -1184.1783,866.30969 -1184.3569,866.13051 C -1184.5356,865.95133 -1197.5703,869.46308 -1213.323,873.9344 L -1241.9641,882.06408 L -1259.2144,878.16927 C -1275.2961,874.53833 -1276.4733,874.21579 -1276.5903,873.40857 C -1276.6689,872.86583 -1276.5091,872.54268 -1276.162,872.54268 C -1275.8574,872.54268 -1270.2348,873.76364 -1263.6674,875.25593 C -1257.0999,876.74821 -1251.7063,877.94095 -1251.6815,877.90645 C -1251.6566,877.87195 -1257.532,866.20352 -1264.7377,851.97659 L -1277.8391,826.10945 L -1277.8391,810.84439 L -1277.8391,795.57933 L -1276.8575,795.57933 L -1275.8758,795.57933 L -1275.8699,810.40263 L -1275.8639,825.22593 L -1249.5097,832.79899 C -1235.0148,836.96418 -1223.0936,840.31027 -1223.0181,840.23475 C -1222.9426,840.15923 -1229.8129,835.4421 -1238.2854,829.75223 C -1246.7579,824.06237 -1253.7703,819.34005 -1253.8686,819.25821 C -1253.9669,819.17636 -1249.0265,814.08624 -1242.8899,807.94683 C -1232.2771,797.32917 -1231.6973,796.81614 -1231.0111,797.43712 C -1230.3231,798.05969 -1230.7718,798.57342 -1240.6859,808.51658 L -1251.082,818.94321 L -1233.7341,830.57664 L -1216.3863,842.21009 L -1192.6321,835.3816 C -1179.5673,831.62593 -1168.6429,828.64329 -1168.3557,828.75352 C -1168.0685,828.86374 -1167.8907,829.25084 -1167.9606,829.61373 C -1168.0597,830.12773 -1173.4418,831.8119 -1192.3135,837.2343 L -1216.5392,844.19505 L -1244.3423,836.17612 C -1259.634,831.76571 -1272.7217,827.99729 -1273.426,827.80186 C -1274.3761,827.53821 -1274.6362,827.56532 -1274.434,827.9069 C -1273.0812,830.19232 -1243.8523,875.616 -1243.4743,876.02028 C -1243.0585,876.46502 -1238.0424,875.15364 -1213.0597,868.06871 C -1196.6056,863.40243 -1182.9011,859.58457 -1182.6053,859.58457 C -1182.3095,859.58457 -1169.7357,863.81278 -1154.6635,868.98059 C -1139.5913,874.1484 -1127.1938,878.31092 -1127.1135,878.23064 C -1127.0332,878.15035 -1132.2183,868.95232 -1138.636,857.79056 C -1150.214,837.65396 -1150.6362,836.78719 -1148.847,836.83143 C -1148.631,836.83677 -1142.9324,846.47854 -1136.1834,858.25757 L -1123.9124,879.674 L -1123.9124,895.93819 C -1123.9124,911.94059 -1123.9251,912.20237 -1124.6978,912.20237 C -1125.4699,912.20237 -1125.4832,911.93972 -1125.4857,896.59373 z M -1166.5171,910.60775 C -1168.2128,910.11001 -1170.5253,908.06583 -1171.5304,906.17616 C -1172.7682,903.84889 -1172.7744,898.57764 -1171.5421,896.26205 C -1169.8979,893.17242 -1166.9875,891.39523 -1163.5721,891.39523 C -1160.1567,891.39523 -1157.2463,893.17242 -1155.6021,896.26205 C -1154.3828,898.55322 -1154.3759,903.85476 -1155.5893,906.11598 C -1157.7228,910.09182 -1162.1188,911.89878 -1166.5171,910.60775 z M -1160.107,907.62033 C -1156.7193,905.15358 -1156.3451,898.53932 -1159.4193,895.46511 C -1161.6056,893.27885 -1165.2391,893.21382 -1167.6357,895.31807 C -1170.4385,897.77895 -1170.6178,903.873 -1167.9747,906.84243 C -1166.2715,908.75596 -1162.2171,909.15683 -1160.107,907.62033 z M -1151.3993,901.2076 L -1151.3993,891.78352 L -1150.025,891.78352 L -1148.6507,891.78352 L -1148.6507,895.51389 L -1148.6507,899.24425 L -1143.9386,899.24425 L -1139.2266,899.24425 L -1139.2266,895.51389 L -1139.2266,891.78352 L -1137.8522,891.78352 L -1136.4779,891.78352 L -1136.4779,901.2076 L -1136.4779,910.63169 L -1137.8522,910.63169 L -1139.2266,910.63169 L -1139.2266,906.11598 L -1139.2266,901.60027 L -1143.9386,901.60027 L -1148.6507,901.60027 L -1148.6507,906.11598 L -1148.6507,910.63169 L -1150.025,910.63169 L -1151.3993,910.63169 L -1151.3993,901.2076 z M -1290.9936,880.76482 C -1292.6893,880.26708 -1295.0018,878.22289 -1296.0068,876.33323 C -1297.2446,874.00596 -1297.2509,868.73471 -1296.0185,866.41912 C -1294.3743,863.32949 -1291.464,861.5523 -1288.0486,861.5523 C -1284.6332,861.5523 -1281.7228,863.32949 -1280.0786,866.41912 C -1278.8593,868.71029 -1278.8523,874.01183 -1280.0657,876.27305 C -1282.1992,880.24888 -1286.5953,882.05585 -1290.9936,880.76482 z M -1284.5834,877.7774 C -1281.1958,875.31065 -1280.8215,868.69639 -1283.8958,865.62218 C -1286.082,863.43591 -1289.7156,863.37088 -1292.1122,865.47513 C -1294.915,867.93602 -1295.0942,874.03007 -1292.4511,876.9995 C -1290.7479,878.91303 -1286.6936,879.31389 -1284.5834,877.7774 z M -1315.1428,871.36467 L -1315.1428,861.94059 L -1313.7685,861.94059 L -1312.3941,861.94059 L -1312.3941,865.67095 L -1312.3941,869.40132 L -1307.6821,869.40132 L -1302.97,869.40132 L -1302.97,865.67095 L -1302.97,861.94059 L -1301.5957,861.94059 L -1300.2213,861.94059 L -1300.2213,871.36467 L -1300.2213,880.78875 L -1301.5957,880.78875 L -1302.97,880.78875 L -1302.97,876.27305 L -1302.97,871.75734 L -1307.6821,871.75734 L -1312.3941,871.75734 L -1312.3941,876.27305 L -1312.3941,880.78875 L -1313.7685,880.78875 L -1315.1428,880.78875 L -1315.1428,871.36467 z M -1159.0564,836.00042 C -1160.7521,835.50268 -1163.0646,833.4585 -1164.0696,831.56883 C -1165.3074,829.24156 -1165.3137,823.97031 -1164.0814,821.65472 C -1162.4372,818.5651 -1159.5268,816.7879 -1156.1114,816.7879 C -1152.696,816.7879 -1149.7856,818.5651 -1148.1414,821.65472 C -1146.9221,823.94589 -1146.9152,829.24743 -1148.1286,831.50865 C -1150.262,835.48449 -1154.6581,837.29145 -1159.0564,836.00042 z M -1152.6463,833.013 C -1149.2586,830.54625 -1148.8844,823.93199 -1151.9586,820.85778 C -1154.1449,818.67152 -1157.7784,818.60649 -1160.175,820.71074 C -1162.9778,823.17162 -1163.157,829.26567 -1160.5139,832.2351 C -1158.8107,834.14863 -1154.7564,834.5495 -1152.6463,833.013 z M -1225.025,798.69675 C -1226.7207,798.19901 -1229.0332,796.15483 -1230.0382,794.26517 C -1231.276,791.93789 -1231.2823,786.66664 -1230.05,784.35105 C -1228.4057,781.26143 -1225.4954,779.48423 -1222.08,779.48423 C -1218.6646,779.48423 -1215.7542,781.26143 -1214.11,784.35105 C -1212.8907,786.64223 -1212.8838,791.94377 -1214.0971,794.20499 C -1216.2306,798.18082 -1220.6267,799.98778 -1225.025,798.69675 z M -1218.6149,795.70934 C -1215.2272,793.24259 -1214.853,786.62833 -1217.9272,783.55412 C -1220.1134,781.36785 -1223.747,781.30282 -1226.1436,783.40707 C -1228.9464,785.86796 -1229.1256,791.96201 -1226.4826,794.93144 C -1224.7793,796.84497 -1220.725,797.24583 -1218.6149,795.70934 z M -1209.9072,789.29661 L -1209.9072,779.87252 L -1208.5329,779.87252 L -1207.1585,779.87252 L -1207.1585,783.60289 L -1207.1585,787.33326 L -1202.4465,787.33326 L -1197.7344,787.33326 L -1197.7344,783.60289 L -1197.7344,779.87252 L -1196.3601,779.87252 L -1194.9857,779.87252 L -1194.9857,789.29661 L -1194.9857,798.72069 L -1196.3601,798.72069 L -1197.7344,798.72069 L -1197.7344,794.20499 L -1197.7344,789.68928 L -1202.4465,789.68928 L -1207.1585,789.68928 L -1207.1585,794.20499 L -1207.1585,798.72069 L -1208.5329,798.72069 L -1209.9072,798.72069 L -1209.9072,789.29661 z M -1279.9988,792.8067 C -1281.6945,792.30896 -1284.007,790.26478 -1285.012,788.37512 C -1286.2499,786.04784 -1286.2561,780.77659 -1285.0238,778.461 C -1281.5541,771.94113 -1272.5535,771.94113 -1269.0838,778.461 C -1267.8645,780.75218 -1267.8576,786.05371 -1269.071,788.31493 C -1271.2044,792.29077 -1275.6005,794.09773 -1279.9988,792.8067 z M -1273.5887,789.81929 C -1270.201,787.35253 -1269.8268,780.73828 -1272.901,777.66407 C -1275.0873,775.4778 -1278.7208,775.41277 -1281.1174,777.51702 C -1283.9202,779.97791 -1284.0994,786.07195 -1281.4564,789.04138 C -1279.7531,790.95491 -1275.6988,791.35578 -1273.5887,789.81929 z M -1264.881,783.40656 L -1264.881,773.98247 L -1263.5067,773.98247 L -1262.1323,773.98247 L -1262.1323,777.71284 L -1262.1323,781.44321 L -1257.4203,781.44321 L -1252.7082,781.44321 L -1252.7082,777.71284 L -1252.7082,773.98247 L -1251.3339,773.98247 L -1249.9596,773.98247 L -1249.9596,783.40656 L -1249.9596,792.83064 L -1251.3339,792.83064 L -1252.7082,792.83064 L -1252.7082,788.31493 L -1252.7082,783.79923 L -1257.4203,783.79923 L -1262.1323,783.79923 L -1262.1323,788.31493 L -1262.1323,792.83064 L -1263.5067,792.83064 L -1264.881,792.83064 L -1264.881,783.40656 z"
       id="path2525"
       style="fill:#000000" />
  </g>
</svg>
