<svg xmlns="http://www.w3.org/2000/svg" xmlns:rdkit="http://www.rdkit.org/xml" xmlns:xlink="http://www.w3.org/1999/xlink" version="1.1" baseProfile="full" xml:space="preserve" width="800px" height="400px" viewBox="0 0 800 400">
<!-- END OF HEADER -->
<rect style="opacity:1.0;fill:#FFFFFF;stroke:none" width="800.0" height="400.0" x="0.0" y="0.0"> </rect>
<path class="bond-0 atom-0 atom-1" d="M 129.3,78.4 L 125.3,85.4" style="fill:none;fill-rule:evenodd;stroke:#FF0000;stroke-width:2.0px;stroke-linecap:butt;stroke-linejoin:miter;stroke-opacity:1"/>
<path class="bond-0 atom-0 atom-1" d="M 125.3,85.4 L 121.2,92.4" style="fill:none;fill-rule:evenodd;stroke:#000000;stroke-width:2.0px;stroke-linecap:butt;stroke-linejoin:miter;stroke-opacity:1"/>
<path class="bond-0 atom-0 atom-1" d="M 126.8,76.9 L 122.8,84.0" style="fill:none;fill-rule:evenodd;stroke:#FF0000;stroke-width:2.0px;stroke-linecap:butt;stroke-linejoin:miter;stroke-opacity:1"/>
<path class="bond-0 atom-0 atom-1" d="M 122.8,84.0 L 118.7,91.0" style="fill:none;fill-rule:evenodd;stroke:#000000;stroke-width:2.0px;stroke-linecap:butt;stroke-linejoin:miter;stroke-opacity:1"/>
<path class="bond-1 atom-1 atom-2" d="M 120.4,91.0 L 124.2,97.6" style="fill:none;fill-rule:evenodd;stroke:#000000;stroke-width:2.0px;stroke-linecap:butt;stroke-linejoin:miter;stroke-opacity:1"/>
<path class="bond-1 atom-1 atom-2" d="M 124.2,97.6 L 128.1,104.3" style="fill:none;fill-rule:evenodd;stroke:#FF0000;stroke-width:2.0px;stroke-linecap:butt;stroke-linejoin:miter;stroke-opacity:1"/>
<path class="bond-2 atom-1 atom-3" d="M 120.4,91.0 L 101.0,91.0" style="fill:none;fill-rule:evenodd;stroke:#000000;stroke-width:2.0px;stroke-linecap:butt;stroke-linejoin:miter;stroke-opacity:1"/>
<path class="bond-3 atom-3 atom-4" d="M 101.0,91.0 L 91.3,107.7" style="fill:none;fill-rule:evenodd;stroke:#000000;stroke-width:2.0px;stroke-linecap:butt;stroke-linejoin:miter;stroke-opacity:1"/>
<path class="bond-3 atom-3 atom-4" d="M 97.7,91.0 L 89.6,104.8" style="fill:none;fill-rule:evenodd;stroke:#000000;stroke-width:2.0px;stroke-linecap:butt;stroke-linejoin:miter;stroke-opacity:1"/>
<path class="bond-4 atom-4 atom-5" d="M 91.3,107.7 L 71.9,107.7" style="fill:none;fill-rule:evenodd;stroke:#000000;stroke-width:2.0px;stroke-linecap:butt;stroke-linejoin:miter;stroke-opacity:1"/>
<path class="bond-5 atom-5 atom-6" d="M 71.9,107.7 L 62.3,91.0" style="fill:none;fill-rule:evenodd;stroke:#000000;stroke-width:2.0px;stroke-linecap:butt;stroke-linejoin:miter;stroke-opacity:1"/>
<path class="bond-5 atom-5 atom-6" d="M 73.6,104.8 L 65.6,91.0" style="fill:none;fill-rule:evenodd;stroke:#000000;stroke-width:2.0px;stroke-linecap:butt;stroke-linejoin:miter;stroke-opacity:1"/>
<path class="bond-6 atom-6 atom-7" d="M 62.3,91.0 L 71.9,74.2" style="fill:none;fill-rule:evenodd;stroke:#000000;stroke-width:2.0px;stroke-linecap:butt;stroke-linejoin:miter;stroke-opacity:1"/>
<path class="bond-7 atom-7 atom-8" d="M 71.9,74.2 L 91.3,74.2" style="fill:none;fill-rule:evenodd;stroke:#000000;stroke-width:2.0px;stroke-linecap:butt;stroke-linejoin:miter;stroke-opacity:1"/>
<path class="bond-7 atom-7 atom-8" d="M 73.6,77.1 L 89.6,77.1" style="fill:none;fill-rule:evenodd;stroke:#000000;stroke-width:2.0px;stroke-linecap:butt;stroke-linejoin:miter;stroke-opacity:1"/>
<path class="bond-8 atom-8 atom-3" d="M 91.3,74.2 L 101.0,91.0" style="fill:none;fill-rule:evenodd;stroke:#000000;stroke-width:2.0px;stroke-linecap:butt;stroke-linejoin:miter;stroke-opacity:1"/>
<path d="M 120.6,91.3 L 120.4,91.0 L 119.4,91.0" style="fill:none;stroke:#000000;stroke-width:2.0px;stroke-linecap:butt;stroke-linejoin:miter;stroke-opacity:1;"/>
<path d="M 91.8,106.9 L 91.3,107.7 L 90.4,107.7" style="fill:none;stroke:#000000;stroke-width:2.0px;stroke-linecap:butt;stroke-linejoin:miter;stroke-opacity:1;"/>
<path d="M 72.9,107.7 L 71.9,107.7 L 71.5,106.9" style="fill:none;stroke:#000000;stroke-width:2.0px;stroke-linecap:butt;stroke-linejoin:miter;stroke-opacity:1;"/>
<path d="M 62.7,91.8 L 62.3,91.0 L 62.7,90.1" style="fill:none;stroke:#000000;stroke-width:2.0px;stroke-linecap:butt;stroke-linejoin:miter;stroke-opacity:1;"/>
<path d="M 71.5,75.0 L 71.9,74.2 L 72.9,74.2" style="fill:none;stroke:#000000;stroke-width:2.0px;stroke-linecap:butt;stroke-linejoin:miter;stroke-opacity:1;"/>
<path d="M 90.4,74.2 L 91.3,74.2 L 91.8,75.0" style="fill:none;stroke:#000000;stroke-width:2.0px;stroke-linecap:butt;stroke-linejoin:miter;stroke-opacity:1;"/>
<path class="atom-0" d="M 127.6 74.2 Q 127.6 72.9, 128.2 72.1 Q 128.9 71.4, 130.1 71.4 Q 131.3 71.4, 131.9 72.1 Q 132.6 72.9, 132.6 74.2 Q 132.6 75.5, 131.9 76.3 Q 131.3 77.0, 130.1 77.0 Q 128.9 77.0, 128.2 76.3 Q 127.6 75.5, 127.6 74.2 M 130.1 76.4 Q 130.9 76.4, 131.4 75.9 Q 131.8 75.3, 131.8 74.2 Q 131.8 73.1, 131.4 72.6 Q 130.9 72.0, 130.1 72.0 Q 129.2 72.0, 128.8 72.6 Q 128.3 73.1, 128.3 74.2 Q 128.3 75.3, 128.8 75.9 Q 129.2 76.4, 130.1 76.4 " fill="#FF0000"/>
<path class="atom-2" d="M 127.6 107.8 Q 127.6 106.4, 128.2 105.7 Q 128.9 105.0, 130.1 105.0 Q 131.3 105.0, 131.9 105.7 Q 132.6 106.4, 132.6 107.8 Q 132.6 109.1, 131.9 109.8 Q 131.3 110.6, 130.1 110.6 Q 128.9 110.6, 128.2 109.8 Q 127.6 109.1, 127.6 107.8 M 130.1 110.0 Q 130.9 110.0, 131.4 109.4 Q 131.8 108.9, 131.8 107.8 Q 131.8 106.7, 131.4 106.1 Q 130.9 105.6, 130.1 105.6 Q 129.2 105.6, 128.8 106.1 Q 128.3 106.7, 128.3 107.8 Q 128.3 108.9, 128.8 109.4 Q 129.2 110.0, 130.1 110.0 " fill="#FF0000"/>
<path class="atom-2" d="M 133.5 105.0 L 134.2 105.0 L 134.2 107.4 L 137.0 107.4 L 137.0 105.0 L 137.7 105.0 L 137.7 110.5 L 137.0 110.5 L 137.0 108.0 L 134.2 108.0 L 134.2 110.5 L 133.5 110.5 L 133.5 105.0 " fill="#FF0000"/>
<path class="legend" d="M 103.4 190.0 L 102.2 186.7 L 97.8 186.7 L 96.6 190.0 L 95.1 190.0 L 99.0 178.7 L 100.9 178.7 L 104.9 190.0 L 103.4 190.0 M 98.2 185.4 L 101.8 185.4 L 100.0 180.3 L 98.2 185.4 " fill="#000000"/>
<path class="bond-0 atom-0 atom-1" d="M 229.0,94.4 L 245.8,84.7" style="fill:none;fill-rule:evenodd;stroke:#000000;stroke-width:2.0px;stroke-linecap:butt;stroke-linejoin:miter;stroke-opacity:1"/>
<path class="bond-1 atom-1 atom-2" d="M 245.8,84.7 L 262.6,94.4" style="fill:none;fill-rule:evenodd;stroke:#000000;stroke-width:2.0px;stroke-linecap:butt;stroke-linejoin:miter;stroke-opacity:1"/>
<path class="bond-2 atom-2 atom-3" d="M 262.6,94.4 L 279.4,84.7" style="fill:none;fill-rule:evenodd;stroke:#000000;stroke-width:2.0px;stroke-linecap:butt;stroke-linejoin:miter;stroke-opacity:1"/>
<path class="bond-3 atom-3 atom-4" d="M 279.4,84.7 L 296.2,94.4" style="fill:none;fill-rule:evenodd;stroke:#000000;stroke-width:2.0px;stroke-linecap:butt;stroke-linejoin:miter;stroke-opacity:1"/>
<path class="bond-4 atom-4 atom-5" d="M 296.2,94.4 L 312.9,84.7" style="fill:none;fill-rule:evenodd;stroke:#000000;stroke-width:2.0px;stroke-linecap:butt;stroke-linejoin:miter;stroke-opacity:1"/>
<path class="bond-5 atom-5 atom-6" d="M 312.9,84.7 L 329.7,94.4" style="fill:none;fill-rule:evenodd;stroke:#000000;stroke-width:2.0px;stroke-linecap:butt;stroke-linejoin:miter;stroke-opacity:1"/>
<path class="bond-6 atom-6 atom-7" d="M 329.7,94.4 L 346.5,84.7" style="fill:none;fill-rule:evenodd;stroke:#000000;stroke-width:2.0px;stroke-linecap:butt;stroke-linejoin:miter;stroke-opacity:1"/>
<path class="bond-7 atom-7 atom-8" d="M 346.5,84.7 L 353.3,88.7" style="fill:none;fill-rule:evenodd;stroke:#000000;stroke-width:2.0px;stroke-linecap:butt;stroke-linejoin:miter;stroke-opacity:1"/>
<path class="bond-7 atom-7 atom-8" d="M 353.3,88.7 L 360.1,92.6" style="fill:none;fill-rule:evenodd;stroke:#FF0000;stroke-width:2.0px;stroke-linecap:butt;stroke-linejoin:miter;stroke-opacity:1"/>
<path d="M 245.0,85.2 L 245.8,84.7 L 246.7,85.2" style="fill:none;stroke:#000000;stroke-width:2.0px;stroke-linecap:butt;stroke-linejoin:miter;stroke-opacity:1;"/>
<path d="M 261.8,93.9 L 262.6,94.4 L 263.4,93.9" style="fill:none;stroke:#000000;stroke-width:2.0px;stroke-linecap:butt;stroke-linejoin:miter;stroke-opacity:1;"/>
<path d="M 278.5,85.2 L 279.4,84.7 L 280.2,85.2" style="fill:none;stroke:#000000;stroke-width:2.0px;stroke-linecap:butt;stroke-linejoin:miter;stroke-opacity:1;"/>
<path d="M 295.3,93.9 L 296.2,94.4 L 297.0,93.9" style="fill:none;stroke:#000000;stroke-width:2.0px;stroke-linecap:butt;stroke-linejoin:miter;stroke-opacity:1;"/>
<path d="M 312.1,85.2 L 312.9,84.7 L 313.8,85.2" style="fill:none;stroke:#000000;stroke-width:2.0px;stroke-linecap:butt;stroke-linejoin:miter;stroke-opacity:1;"/>
<path d="M 328.9,93.9 L 329.7,94.4 L 330.6,93.9" style="fill:none;stroke:#000000;stroke-width:2.0px;stroke-linecap:butt;stroke-linejoin:miter;stroke-opacity:1;"/>
<path d="M 345.7,85.2 L 346.5,84.7 L 346.9,84.9" style="fill:none;stroke:#000000;stroke-width:2.0px;stroke-linecap:butt;stroke-linejoin:miter;stroke-opacity:1;"/>
<path class="atom-8" d="M 360.8 94.4 Q 360.8 93.1, 361.4 92.4 Q 362.1 91.6, 363.3 91.6 Q 364.5 91.6, 365.2 92.4 Q 365.8 93.1, 365.8 94.4 Q 365.8 95.8, 365.2 96.5 Q 364.5 97.3, 363.3 97.3 Q 362.1 97.3, 361.4 96.5 Q 360.8 95.8, 360.8 94.4 M 363.3 96.7 Q 364.1 96.7, 364.6 96.1 Q 365.0 95.5, 365.0 94.4 Q 365.0 93.4, 364.6 92.8 Q 364.1 92.3, 363.3 92.3 Q 362.5 92.3, 362.0 92.8 Q 361.6 93.3, 361.6 94.4 Q 361.6 95.5, 362.0 96.1 Q 362.5 96.7, 363.3 96.7 " fill="#FF0000"/>
<path class="atom-8" d="M 366.7 91.7 L 367.4 91.7 L 367.4 94.0 L 370.2 94.0 L 370.2 91.7 L 371.0 91.7 L 371.0 97.2 L 370.2 97.2 L 370.2 94.7 L 367.4 94.7 L 367.4 97.2 L 366.7 97.2 L 366.7 91.7 " fill="#FF0000"/>
<path class="legend" d="M 301.7 184.0 Q 302.7 184.4, 303.3 185.0 Q 303.8 185.7, 303.8 186.7 Q 303.8 188.2, 302.8 189.1 Q 301.8 190.0, 300.0 190.0 L 296.2 190.0 L 296.2 178.7 L 299.5 178.7 Q 301.4 178.7, 302.4 179.5 Q 303.4 180.2, 303.4 181.7 Q 303.4 183.4, 301.7 184.0 M 297.7 180.0 L 297.7 183.5 L 299.5 183.5 Q 300.6 183.5, 301.2 183.1 Q 301.8 182.6, 301.8 181.7 Q 301.8 180.0, 299.5 180.0 L 297.7 180.0 M 300.0 188.7 Q 301.1 188.7, 301.7 188.2 Q 302.2 187.7, 302.2 186.7 Q 302.2 185.7, 301.6 185.3 Q 301.0 184.8, 299.7 184.8 L 297.7 184.8 L 297.7 188.7 L 300.0 188.7 " fill="#000000"/>
<path class="bond-0 atom-0 atom-1" d="M 538.6,58.2 L 555.0,68.5" style="fill:none;fill-rule:evenodd;stroke:#000000;stroke-width:2.0px;stroke-linecap:butt;stroke-linejoin:miter;stroke-opacity:1"/>
<path class="bond-1 atom-1 atom-2" d="M 555.0,68.5 L 562.0,64.8" style="fill:none;fill-rule:evenodd;stroke:#000000;stroke-width:2.0px;stroke-linecap:butt;stroke-linejoin:miter;stroke-opacity:1"/>
<path class="bond-1 atom-1 atom-2" d="M 562.0,64.8 L 569.0,61.1" style="fill:none;fill-rule:evenodd;stroke:#FF0000;stroke-width:2.0px;stroke-linecap:butt;stroke-linejoin:miter;stroke-opacity:1"/>
<path class="bond-2 atom-1 atom-3" d="M 555.0,68.5 L 554.3,87.9" style="fill:none;fill-rule:evenodd;stroke:#000000;stroke-width:2.0px;stroke-linecap:butt;stroke-linejoin:miter;stroke-opacity:1"/>
<path class="bond-3 atom-3 atom-4" d="M 554.3,87.9 L 570.8,98.1" style="fill:none;fill-rule:evenodd;stroke:#000000;stroke-width:2.0px;stroke-linecap:butt;stroke-linejoin:miter;stroke-opacity:1"/>
<path class="bond-3 atom-3 atom-4" d="M 554.2,91.2 L 567.8,99.7" style="fill:none;fill-rule:evenodd;stroke:#000000;stroke-width:2.0px;stroke-linecap:butt;stroke-linejoin:miter;stroke-opacity:1;stroke-dasharray:6,4"/>
<path class="bond-4 atom-4 atom-5" d="M 570.8,98.1 L 570.1,117.5" style="fill:none;fill-rule:evenodd;stroke:#000000;stroke-width:2.0px;stroke-linecap:butt;stroke-linejoin:miter;stroke-opacity:1"/>
<path class="bond-4 atom-4 atom-5" d="M 567.8,99.7 L 567.2,117.4" style="fill:none;fill-rule:evenodd;stroke:#000000;stroke-width:2.0px;stroke-linecap:butt;stroke-linejoin:miter;stroke-opacity:1;stroke-dasharray:6,4"/>
<path class="bond-5 atom-3 atom-6" d="M 554.3,87.9 L 537.2,96.9" style="fill:none;fill-rule:evenodd;stroke:#000000;stroke-width:2.0px;stroke-linecap:butt;stroke-linejoin:miter;stroke-opacity:1"/>
<path class="bond-5 atom-3 atom-6" d="M 551.5,86.1 L 537.3,93.6" style="fill:none;fill-rule:evenodd;stroke:#000000;stroke-width:2.0px;stroke-linecap:butt;stroke-linejoin:miter;stroke-opacity:1;stroke-dasharray:6,4"/>
<path class="bond-6 atom-6 atom-7" d="M 537.2,96.9 L 536.5,116.3" style="fill:none;fill-rule:evenodd;stroke:#000000;stroke-width:2.0px;stroke-linecap:butt;stroke-linejoin:miter;stroke-opacity:1"/>
<path class="bond-6 atom-6 atom-7" d="M 534.3,98.5 L 533.7,114.5" style="fill:none;fill-rule:evenodd;stroke:#000000;stroke-width:2.0px;stroke-linecap:butt;stroke-linejoin:miter;stroke-opacity:1;stroke-dasharray:6,4"/>
<path class="bond-7 atom-7 atom-8" d="M 536.5,116.3 L 519.4,125.4" style="fill:none;fill-rule:evenodd;stroke:#000000;stroke-width:2.0px;stroke-linecap:butt;stroke-linejoin:miter;stroke-opacity:1"/>
<path class="bond-7 atom-7 atom-8" d="M 533.7,114.5 L 518.0,122.8" style="fill:none;fill-rule:evenodd;stroke:#000000;stroke-width:2.0px;stroke-linecap:butt;stroke-linejoin:miter;stroke-opacity:1;stroke-dasharray:6,4"/>
<path class="bond-8 atom-6 atom-9" d="M 537.2,96.9 L 530.6,92.8" style="fill:none;fill-rule:evenodd;stroke:#000000;stroke-width:2.0px;stroke-linecap:butt;stroke-linejoin:miter;stroke-opacity:1"/>
<path class="bond-8 atom-6 atom-9" d="M 530.6,92.8 L 524.0,88.6" style="fill:none;fill-rule:evenodd;stroke:#FF0000;stroke-width:2.0px;stroke-linecap:butt;stroke-linejoin:miter;stroke-opacity:1"/>
<path class="bond-9 atom-9 atom-10" d="M 517.6,88.3 L 510.7,92.0" style="fill:none;fill-rule:evenodd;stroke:#FF0000;stroke-width:2.0px;stroke-linecap:butt;stroke-linejoin:miter;stroke-opacity:1"/>
<path class="bond-9 atom-9 atom-10" d="M 510.7,92.0 L 503.7,95.7" style="fill:none;fill-rule:evenodd;stroke:#000000;stroke-width:2.0px;stroke-linecap:butt;stroke-linejoin:miter;stroke-opacity:1"/>
<path class="bond-10 atom-10 atom-11" d="M 503.7,95.7 L 487.3,85.4" style="fill:none;fill-rule:evenodd;stroke:#000000;stroke-width:2.0px;stroke-linecap:butt;stroke-linejoin:miter;stroke-opacity:1"/>
<path class="bond-11 atom-11 atom-12" d="M 487.3,85.4 L 470.1,94.5" style="fill:none;fill-rule:evenodd;stroke:#000000;stroke-width:2.0px;stroke-linecap:butt;stroke-linejoin:miter;stroke-opacity:1"/>
<path class="bond-11 atom-11 atom-12" d="M 487.1,88.8 L 471.5,97.1" style="fill:none;fill-rule:evenodd;stroke:#000000;stroke-width:2.0px;stroke-linecap:butt;stroke-linejoin:miter;stroke-opacity:1;stroke-dasharray:6,4"/>
<path class="bond-12 atom-12 atom-13" d="M 470.1,94.5 L 453.7,84.2" style="fill:none;fill-rule:evenodd;stroke:#000000;stroke-width:2.0px;stroke-linecap:butt;stroke-linejoin:miter;stroke-opacity:1"/>
<path class="bond-12 atom-12 atom-13" d="M 470.2,91.1 L 455.3,81.7" style="fill:none;fill-rule:evenodd;stroke:#000000;stroke-width:2.0px;stroke-linecap:butt;stroke-linejoin:miter;stroke-opacity:1;stroke-dasharray:6,4"/>
<path class="bond-13 atom-13 atom-14" d="M 453.7,84.2 L 436.6,93.3" style="fill:none;fill-rule:evenodd;stroke:#000000;stroke-width:2.0px;stroke-linecap:butt;stroke-linejoin:miter;stroke-opacity:1"/>
<path class="bond-13 atom-13 atom-14" d="M 453.6,87.5 L 437.9,95.8" style="fill:none;fill-rule:evenodd;stroke:#000000;stroke-width:2.0px;stroke-linecap:butt;stroke-linejoin:miter;stroke-opacity:1;stroke-dasharray:6,4"/>
<path class="bond-14 atom-14 atom-15" d="M 436.6,93.3 L 420.2,83.0" style="fill:none;fill-rule:evenodd;stroke:#000000;stroke-width:2.0px;stroke-linecap:butt;stroke-linejoin:miter;stroke-opacity:1"/>
<path class="bond-14 atom-14 atom-15" d="M 436.7,89.9 L 421.7,80.5" style="fill:none;fill-rule:evenodd;stroke:#000000;stroke-width:2.0px;stroke-linecap:butt;stroke-linejoin:miter;stroke-opacity:1;stroke-dasharray:6,4"/>
<path d="M 569.9,97.6 L 570.8,98.1 L 570.7,99.1" style="fill:none;stroke:#000000;stroke-width:2.0px;stroke-linecap:butt;stroke-linejoin:miter;stroke-opacity:1;"/>
<path d="M 536.5,115.3 L 536.5,116.3 L 535.7,116.7" style="fill:none;stroke:#000000;stroke-width:2.0px;stroke-linecap:butt;stroke-linejoin:miter;stroke-opacity:1;"/>
<path d="M 504.0,95.5 L 503.7,95.7 L 502.9,95.2" style="fill:none;stroke:#000000;stroke-width:2.0px;stroke-linecap:butt;stroke-linejoin:miter;stroke-opacity:1;"/>
<path d="M 488.1,85.9 L 487.3,85.4 L 486.4,85.9" style="fill:none;stroke:#000000;stroke-width:2.0px;stroke-linecap:butt;stroke-linejoin:miter;stroke-opacity:1;"/>
<path d="M 471.0,94.0 L 470.1,94.5 L 469.3,94.0" style="fill:none;stroke:#000000;stroke-width:2.0px;stroke-linecap:butt;stroke-linejoin:miter;stroke-opacity:1;"/>
<path d="M 454.5,84.7 L 453.7,84.2 L 452.9,84.6" style="fill:none;stroke:#000000;stroke-width:2.0px;stroke-linecap:butt;stroke-linejoin:miter;stroke-opacity:1;"/>
<path d="M 437.4,92.8 L 436.6,93.3 L 435.8,92.8" style="fill:none;stroke:#000000;stroke-width:2.0px;stroke-linecap:butt;stroke-linejoin:miter;stroke-opacity:1;"/>
<path class="atom-2" d="M 569.6 59.4 Q 569.6 58.1, 570.3 57.4 Q 571.0 56.6, 572.2 56.6 Q 573.4 56.6, 574.0 57.4 Q 574.7 58.1, 574.7 59.4 Q 574.7 60.8, 574.0 61.5 Q 573.4 62.3, 572.2 62.3 Q 571.0 62.3, 570.3 61.5 Q 569.6 60.8, 569.6 59.4 M 572.2 61.6 Q 573.0 61.6, 573.5 61.1 Q 573.9 60.5, 573.9 59.4 Q 573.9 58.3, 573.5 57.8 Q 573.0 57.3, 572.2 57.3 Q 571.3 57.3, 570.9 57.8 Q 570.4 58.3, 570.4 59.4 Q 570.4 60.5, 570.9 61.1 Q 571.3 61.6, 572.2 61.6 " fill="#FF0000"/>
<path class="atom-2" d="M 575.5 56.7 L 576.3 56.7 L 576.3 59.0 L 579.1 59.0 L 579.1 56.7 L 579.8 56.7 L 579.8 62.2 L 579.1 62.2 L 579.1 59.6 L 576.3 59.6 L 576.3 62.2 L 575.5 62.2 L 575.5 56.7 " fill="#FF0000"/>
<path class="atom-9" d="M 518.3 86.6 Q 518.3 85.3, 518.9 84.6 Q 519.6 83.9, 520.8 83.9 Q 522.0 83.9, 522.7 84.6 Q 523.3 85.3, 523.3 86.6 Q 523.3 88.0, 522.7 88.7 Q 522.0 89.5, 520.8 89.5 Q 519.6 89.5, 518.9 88.7 Q 518.3 88.0, 518.3 86.6 M 520.8 88.9 Q 521.6 88.9, 522.1 88.3 Q 522.5 87.7, 522.5 86.6 Q 522.5 85.6, 522.1 85.0 Q 521.6 84.5, 520.8 84.5 Q 520.0 84.5, 519.5 85.0 Q 519.1 85.6, 519.1 86.6 Q 519.1 87.8, 519.5 88.3 Q 520.0 88.9, 520.8 88.9 " fill="#FF0000"/>
<path class="legend" d="M 495.6 184.2 Q 495.6 181.4, 496.9 179.9 Q 498.3 178.4, 500.8 178.4 Q 503.1 178.4, 504.4 180.0 L 503.3 180.9 Q 502.4 179.7, 500.8 179.7 Q 499.1 179.7, 498.2 180.9 Q 497.3 182.0, 497.3 184.2 Q 497.3 186.4, 498.2 187.6 Q 499.1 188.7, 501.0 188.7 Q 502.2 188.7, 503.7 188.0 L 504.1 189.2 Q 503.5 189.6, 502.6 189.8 Q 501.7 190.0, 500.7 190.0 Q 498.3 190.0, 496.9 188.5 Q 495.6 187.0, 495.6 184.2 " fill="#000000"/>
<path class="bond-0 atom-0 atom-1" d="M 674.4,92.8 L 692.3,85.2" style="fill:none;fill-rule:evenodd;stroke:#000000;stroke-width:2.0px;stroke-linecap:butt;stroke-linejoin:miter;stroke-opacity:1"/>
<path class="bond-1 atom-1 atom-2" d="M 692.3,85.2 L 707.7,96.8" style="fill:none;fill-rule:evenodd;stroke:#000000;stroke-width:2.0px;stroke-linecap:butt;stroke-linejoin:miter;stroke-opacity:1"/>
<path class="bond-2 atom-2 atom-3" d="M 707.7,96.8 L 725.6,89.2" style="fill:none;fill-rule:evenodd;stroke:#000000;stroke-width:2.0px;stroke-linecap:butt;stroke-linejoin:miter;stroke-opacity:1"/>
<path d="M 691.4,85.6 L 692.3,85.2 L 693.0,85.8" style="fill:none;stroke:#000000;stroke-width:2.0px;stroke-linecap:butt;stroke-linejoin:miter;stroke-opacity:1;"/>
<path d="M 707.0,96.2 L 707.7,96.8 L 708.6,96.4" style="fill:none;stroke:#000000;stroke-width:2.0px;stroke-linecap:butt;stroke-linejoin:miter;stroke-opacity:1;"/>
<path class="legend" d="M 699.2 178.7 Q 701.7 178.7, 703.1 180.2 Q 704.4 181.6, 704.4 184.3 Q 704.4 187.0, 703.1 188.5 Q 701.7 190.0, 699.2 190.0 L 695.6 190.0 L 695.6 178.7 L 699.2 178.7 M 699.2 188.7 Q 701.0 188.7, 701.9 187.6 Q 702.8 186.5, 702.8 184.3 Q 702.8 182.1, 701.9 181.0 Q 701.0 180.0, 699.2 180.0 L 697.1 180.0 L 697.1 188.7 L 699.2 188.7 " fill="#000000"/>
<path class="bond-0 atom-0 atom-1" d="M 66.4,295.8 L 83.2,286.2" style="fill:none;fill-rule:evenodd;stroke:#000000;stroke-width:2.0px;stroke-linecap:butt;stroke-linejoin:miter;stroke-opacity:1"/>
<path class="bond-1 atom-1 atom-2" d="M 83.2,286.2 L 100.0,295.8" style="fill:none;fill-rule:evenodd;stroke:#000000;stroke-width:2.0px;stroke-linecap:butt;stroke-linejoin:miter;stroke-opacity:1"/>
<path class="bond-2 atom-2 atom-3" d="M 100.0,295.8 L 116.8,286.2" style="fill:none;fill-rule:evenodd;stroke:#000000;stroke-width:2.0px;stroke-linecap:butt;stroke-linejoin:miter;stroke-opacity:1"/>
<path class="bond-3 atom-3 atom-4" d="M 116.8,286.2 L 133.6,295.8" style="fill:none;fill-rule:evenodd;stroke:#000000;stroke-width:2.0px;stroke-linecap:butt;stroke-linejoin:miter;stroke-opacity:1"/>
<path d="M 82.4,286.6 L 83.2,286.2 L 84.1,286.6" style="fill:none;stroke:#000000;stroke-width:2.0px;stroke-linecap:butt;stroke-linejoin:miter;stroke-opacity:1;"/>
<path d="M 99.2,295.4 L 100.0,295.8 L 100.8,295.4" style="fill:none;stroke:#000000;stroke-width:2.0px;stroke-linecap:butt;stroke-linejoin:miter;stroke-opacity:1;"/>
<path d="M 115.9,286.6 L 116.8,286.2 L 117.6,286.6" style="fill:none;stroke:#000000;stroke-width:2.0px;stroke-linecap:butt;stroke-linejoin:miter;stroke-opacity:1;"/>
<path class="legend" d="M 96.5 378.7 L 103.3 378.7 L 103.3 380.0 L 98.1 380.0 L 98.1 383.4 L 102.8 383.4 L 102.8 384.7 L 98.1 384.7 L 98.1 388.7 L 103.5 388.7 L 103.5 390.0 L 96.5 390.0 L 96.5 378.7 " fill="#000000"/>
<path class="bond-0 atom-0 atom-1" d="M 257.8,293.7 L 275.1,284.9" style="fill:none;fill-rule:evenodd;stroke:#000000;stroke-width:2.0px;stroke-linecap:butt;stroke-linejoin:miter;stroke-opacity:1"/>
<path class="bond-1 atom-1 atom-2" d="M 275.1,284.9 L 291.4,295.4" style="fill:none;fill-rule:evenodd;stroke:#000000;stroke-width:2.0px;stroke-linecap:butt;stroke-linejoin:miter;stroke-opacity:1"/>
<path class="bond-2 atom-2 atom-3" d="M 291.4,295.4 L 308.6,286.6" style="fill:none;fill-rule:evenodd;stroke:#000000;stroke-width:2.0px;stroke-linecap:butt;stroke-linejoin:miter;stroke-opacity:1"/>
<path class="bond-3 atom-3 atom-4" d="M 308.6,286.6 L 324.9,297.1" style="fill:none;fill-rule:evenodd;stroke:#000000;stroke-width:2.0px;stroke-linecap:butt;stroke-linejoin:miter;stroke-opacity:1"/>
<path class="bond-4 atom-4 atom-5" d="M 324.9,297.1 L 342.2,288.3" style="fill:none;fill-rule:evenodd;stroke:#000000;stroke-width:2.0px;stroke-linecap:butt;stroke-linejoin:miter;stroke-opacity:1"/>
<path d="M 274.2,285.3 L 275.1,284.9 L 275.9,285.4" style="fill:none;stroke:#000000;stroke-width:2.0px;stroke-linecap:butt;stroke-linejoin:miter;stroke-opacity:1;"/>
<path d="M 290.6,294.9 L 291.4,295.4 L 292.2,295.0" style="fill:none;stroke:#000000;stroke-width:2.0px;stroke-linecap:butt;stroke-linejoin:miter;stroke-opacity:1;"/>
<path d="M 307.8,287.0 L 308.6,286.6 L 309.4,287.1" style="fill:none;stroke:#000000;stroke-width:2.0px;stroke-linecap:butt;stroke-linejoin:miter;stroke-opacity:1;"/>
<path d="M 324.1,296.6 L 324.9,297.1 L 325.8,296.7" style="fill:none;stroke:#000000;stroke-width:2.0px;stroke-linecap:butt;stroke-linejoin:miter;stroke-opacity:1;"/>
<path class="legend" d="M 296.6 378.7 L 303.4 378.7 L 303.4 380.0 L 298.2 380.0 L 298.2 383.4 L 302.8 383.4 L 302.8 384.7 L 298.2 384.7 L 298.2 390.0 L 296.6 390.0 L 296.6 378.7 " fill="#000000"/>
<path class="bond-0 atom-0 atom-1" d="M 590.0,289.0 L 571.8,282.5" style="fill:none;fill-rule:evenodd;stroke:#000000;stroke-width:2.0px;stroke-linecap:butt;stroke-linejoin:miter;stroke-opacity:1"/>
<path class="bond-0 atom-0 atom-1" d="M 589.0,291.7 L 572.4,285.8" style="fill:none;fill-rule:evenodd;stroke:#000000;stroke-width:2.0px;stroke-linecap:butt;stroke-linejoin:miter;stroke-opacity:1;stroke-dasharray:6,4"/>
<path class="bond-1 atom-1 atom-2" d="M 571.8,282.5 L 557.0,295.0" style="fill:none;fill-rule:evenodd;stroke:#000000;stroke-width:2.0px;stroke-linecap:butt;stroke-linejoin:miter;stroke-opacity:1"/>
<path class="bond-1 atom-1 atom-2" d="M 572.4,285.8 L 560.1,296.1" style="fill:none;fill-rule:evenodd;stroke:#000000;stroke-width:2.0px;stroke-linecap:butt;stroke-linejoin:miter;stroke-opacity:1;stroke-dasharray:6,4"/>
<path class="bond-2 atom-2 atom-3" d="M 557.0,295.0 L 558.4,302.8" style="fill:none;fill-rule:evenodd;stroke:#000000;stroke-width:2.0px;stroke-linecap:butt;stroke-linejoin:miter;stroke-opacity:1"/>
<path class="bond-2 atom-2 atom-3" d="M 558.4,302.8 L 559.8,310.7" style="fill:none;fill-rule:evenodd;stroke:#FF0000;stroke-width:2.0px;stroke-linecap:butt;stroke-linejoin:miter;stroke-opacity:1"/>
<path class="bond-3 atom-2 atom-4" d="M 557.0,295.0 L 538.7,288.5" style="fill:none;fill-rule:evenodd;stroke:#000000;stroke-width:2.0px;stroke-linecap:butt;stroke-linejoin:miter;stroke-opacity:1"/>
<path class="bond-3 atom-2 atom-4" d="M 556.4,291.7 L 541.3,286.3" style="fill:none;fill-rule:evenodd;stroke:#000000;stroke-width:2.0px;stroke-linecap:butt;stroke-linejoin:miter;stroke-opacity:1;stroke-dasharray:6,4"/>
<path class="bond-4 atom-4 atom-5" d="M 538.7,288.5 L 537.3,280.7" style="fill:none;fill-rule:evenodd;stroke:#000000;stroke-width:2.0px;stroke-linecap:butt;stroke-linejoin:miter;stroke-opacity:1"/>
<path class="bond-4 atom-4 atom-5" d="M 537.3,280.7 L 535.9,272.9" style="fill:none;fill-rule:evenodd;stroke:#FF0000;stroke-width:2.0px;stroke-linecap:butt;stroke-linejoin:miter;stroke-opacity:1"/>
<path class="bond-5 atom-4 atom-6" d="M 538.7,288.5 L 523.9,301.0" style="fill:none;fill-rule:evenodd;stroke:#000000;stroke-width:2.0px;stroke-linecap:butt;stroke-linejoin:miter;stroke-opacity:1"/>
<path class="bond-5 atom-4 atom-6" d="M 535.6,287.3 L 523.3,297.7" style="fill:none;fill-rule:evenodd;stroke:#000000;stroke-width:2.0px;stroke-linecap:butt;stroke-linejoin:miter;stroke-opacity:1;stroke-dasharray:6,4"/>
<path class="bond-6 atom-6 atom-7" d="M 523.9,301.0 L 516.4,298.3" style="fill:none;fill-rule:evenodd;stroke:#000000;stroke-width:2.0px;stroke-linecap:butt;stroke-linejoin:miter;stroke-opacity:1"/>
<path class="bond-6 atom-6 atom-7" d="M 516.4,298.3 L 508.9,295.6" style="fill:none;fill-rule:evenodd;stroke:#FF0000;stroke-width:2.0px;stroke-linecap:butt;stroke-linejoin:miter;stroke-opacity:1"/>
<path class="bond-6 atom-6 atom-7" d="M 523.3,297.7 L 516.6,295.3" style="fill:none;fill-rule:evenodd;stroke:#000000;stroke-width:2.0px;stroke-linecap:butt;stroke-linejoin:miter;stroke-opacity:1;stroke-dasharray:6,4"/>
<path class="bond-6 atom-6 atom-7" d="M 516.6,295.3 L 509.8,292.9" style="fill:none;fill-rule:evenodd;stroke:#FF0000;stroke-width:2.0px;stroke-linecap:butt;stroke-linejoin:miter;stroke-opacity:1;stroke-dasharray:6,4"/>
<path class="bond-7 atom-7 atom-8" d="M 502.5,297.2 L 496.7,302.1" style="fill:none;fill-rule:evenodd;stroke:#FF0000;stroke-width:2.0px;stroke-linecap:butt;stroke-linejoin:miter;stroke-opacity:1"/>
<path class="bond-7 atom-7 atom-8" d="M 496.7,302.1 L 490.9,307.0" style="fill:none;fill-rule:evenodd;stroke:#000000;stroke-width:2.0px;stroke-linecap:butt;stroke-linejoin:miter;stroke-opacity:1"/>
<path class="bond-7 atom-7 atom-8" d="M 504.4,299.4 L 499.3,303.8" style="fill:none;fill-rule:evenodd;stroke:#FF0000;stroke-width:2.0px;stroke-linecap:butt;stroke-linejoin:miter;stroke-opacity:1;stroke-dasharray:6,4"/>
<path class="bond-7 atom-7 atom-8" d="M 499.3,303.8 L 494.1,308.2" style="fill:none;fill-rule:evenodd;stroke:#000000;stroke-width:2.0px;stroke-linecap:butt;stroke-linejoin:miter;stroke-opacity:1;stroke-dasharray:6,4"/>
<path class="bond-8 atom-8 atom-9" d="M 489.3,306.5 L 490.8,314.7" style="fill:none;fill-rule:evenodd;stroke:#000000;stroke-width:2.0px;stroke-linecap:butt;stroke-linejoin:miter;stroke-opacity:1"/>
<path class="bond-8 atom-8 atom-9" d="M 490.8,314.7 L 492.3,322.9" style="fill:none;fill-rule:evenodd;stroke:#FF0000;stroke-width:2.0px;stroke-linecap:butt;stroke-linejoin:miter;stroke-opacity:1"/>
<path class="bond-8 atom-8 atom-9" d="M 492.2,305.9 L 493.7,314.2" style="fill:none;fill-rule:evenodd;stroke:#000000;stroke-width:2.0px;stroke-linecap:butt;stroke-linejoin:miter;stroke-opacity:1"/>
<path class="bond-8 atom-8 atom-9" d="M 493.7,314.2 L 495.2,322.4" style="fill:none;fill-rule:evenodd;stroke:#FF0000;stroke-width:2.0px;stroke-linecap:butt;stroke-linejoin:miter;stroke-opacity:1"/>
<path class="bond-9 atom-8 atom-10" d="M 490.9,307.0 L 472.7,300.5" style="fill:none;fill-rule:evenodd;stroke:#000000;stroke-width:2.0px;stroke-linecap:butt;stroke-linejoin:miter;stroke-opacity:1"/>
<path class="bond-10 atom-10 atom-11" d="M 472.7,300.5 L 457.9,313.0" style="fill:none;fill-rule:evenodd;stroke:#000000;stroke-width:2.0px;stroke-linecap:butt;stroke-linejoin:miter;stroke-opacity:1"/>
<path class="bond-10 atom-10 atom-11" d="M 469.5,299.4 L 457.3,309.7" style="fill:none;fill-rule:evenodd;stroke:#000000;stroke-width:2.0px;stroke-linecap:butt;stroke-linejoin:miter;stroke-opacity:1"/>
<path class="bond-11 atom-11 atom-12" d="M 457.9,313.0 L 439.7,306.5" style="fill:none;fill-rule:evenodd;stroke:#000000;stroke-width:2.0px;stroke-linecap:butt;stroke-linejoin:miter;stroke-opacity:1"/>
<path class="bond-12 atom-12 atom-13" d="M 439.7,306.5 L 433.8,311.4" style="fill:none;fill-rule:evenodd;stroke:#000000;stroke-width:2.0px;stroke-linecap:butt;stroke-linejoin:miter;stroke-opacity:1"/>
<path class="bond-12 atom-12 atom-13" d="M 433.8,311.4 L 428.0,316.4" style="fill:none;fill-rule:evenodd;stroke:#FF0000;stroke-width:2.0px;stroke-linecap:butt;stroke-linejoin:miter;stroke-opacity:1"/>
<path class="bond-13 atom-12 atom-14" d="M 439.7,306.5 L 436.2,287.4" style="fill:none;fill-rule:evenodd;stroke:#000000;stroke-width:2.0px;stroke-linecap:butt;stroke-linejoin:miter;stroke-opacity:1"/>
<path class="bond-13 atom-12 atom-14" d="M 442.2,304.3 L 439.3,288.6" style="fill:none;fill-rule:evenodd;stroke:#000000;stroke-width:2.0px;stroke-linecap:butt;stroke-linejoin:miter;stroke-opacity:1"/>
<path class="bond-14 atom-14 atom-15" d="M 436.2,287.4 L 428.6,284.7" style="fill:none;fill-rule:evenodd;stroke:#000000;stroke-width:2.0px;stroke-linecap:butt;stroke-linejoin:miter;stroke-opacity:1"/>
<path class="bond-14 atom-14 atom-15" d="M 428.6,284.7 L 421.1,282.0" style="fill:none;fill-rule:evenodd;stroke:#FF0000;stroke-width:2.0px;stroke-linecap:butt;stroke-linejoin:miter;stroke-opacity:1"/>
<path class="bond-15 atom-14 atom-16" d="M 436.2,287.4 L 451.0,274.9" style="fill:none;fill-rule:evenodd;stroke:#000000;stroke-width:2.0px;stroke-linecap:butt;stroke-linejoin:miter;stroke-opacity:1"/>
<path class="bond-16 atom-16 atom-17" d="M 451.0,274.9 L 449.5,267.1" style="fill:none;fill-rule:evenodd;stroke:#000000;stroke-width:2.0px;stroke-linecap:butt;stroke-linejoin:miter;stroke-opacity:1"/>
<path class="bond-16 atom-16 atom-17" d="M 449.5,267.1 L 448.1,259.3" style="fill:none;fill-rule:evenodd;stroke:#FF0000;stroke-width:2.0px;stroke-linecap:butt;stroke-linejoin:miter;stroke-opacity:1"/>
<path class="bond-17 atom-16 atom-18" d="M 451.0,274.9 L 469.2,281.4" style="fill:none;fill-rule:evenodd;stroke:#000000;stroke-width:2.0px;stroke-linecap:butt;stroke-linejoin:miter;stroke-opacity:1"/>
<path class="bond-17 atom-16 atom-18" d="M 451.6,278.2 L 466.7,283.6" style="fill:none;fill-rule:evenodd;stroke:#000000;stroke-width:2.0px;stroke-linecap:butt;stroke-linejoin:miter;stroke-opacity:1"/>
<path class="bond-18 atom-18 atom-10" d="M 469.2,281.4 L 472.7,300.5" style="fill:none;fill-rule:evenodd;stroke:#000000;stroke-width:2.0px;stroke-linecap:butt;stroke-linejoin:miter;stroke-opacity:1"/>
<path d="M 572.7,282.8 L 571.8,282.5 L 571.0,283.1" style="fill:none;stroke:#000000;stroke-width:2.0px;stroke-linecap:butt;stroke-linejoin:miter;stroke-opacity:1;"/>
<path d="M 524.7,300.4 L 523.9,301.0 L 523.6,300.9" style="fill:none;stroke:#000000;stroke-width:2.0px;stroke-linecap:butt;stroke-linejoin:miter;stroke-opacity:1;"/>
<path d="M 491.2,306.8 L 490.9,307.0 L 490.0,306.7" style="fill:none;stroke:#000000;stroke-width:2.0px;stroke-linecap:butt;stroke-linejoin:miter;stroke-opacity:1;"/>
<path d="M 458.6,312.4 L 457.9,313.0 L 457.0,312.7" style="fill:none;stroke:#000000;stroke-width:2.0px;stroke-linecap:butt;stroke-linejoin:miter;stroke-opacity:1;"/>
<path d="M 468.3,281.1 L 469.2,281.4 L 469.4,282.4" style="fill:none;stroke:#000000;stroke-width:2.0px;stroke-linecap:butt;stroke-linejoin:miter;stroke-opacity:1;"/>
<path class="atom-3" d="M 557.9 314.1 Q 557.9 312.8, 558.6 312.0 Q 559.2 311.3, 560.4 311.3 Q 561.7 311.3, 562.3 312.0 Q 563.0 312.8, 563.0 314.1 Q 563.0 315.4, 562.3 316.2 Q 561.6 316.9, 560.4 316.9 Q 559.2 316.9, 558.6 316.2 Q 557.9 315.4, 557.9 314.1 M 560.4 316.3 Q 561.3 316.3, 561.7 315.8 Q 562.2 315.2, 562.2 314.1 Q 562.2 313.0, 561.7 312.5 Q 561.3 311.9, 560.4 311.9 Q 559.6 311.9, 559.1 312.5 Q 558.7 313.0, 558.7 314.1 Q 558.7 315.2, 559.1 315.8 Q 559.6 316.3, 560.4 316.3 " fill="#FF0000"/>
<path class="atom-3" d="M 563.8 311.4 L 564.6 311.4 L 564.6 313.7 L 567.4 313.7 L 567.4 311.4 L 568.1 311.4 L 568.1 316.9 L 567.4 316.9 L 567.4 314.3 L 564.6 314.3 L 564.6 316.9 L 563.8 316.9 L 563.8 311.4 " fill="#FF0000"/>
<path class="atom-5" d="M 532.7 269.4 Q 532.7 268.1, 533.4 267.4 Q 534.0 266.6, 535.3 266.6 Q 536.5 266.6, 537.1 267.4 Q 537.8 268.1, 537.8 269.4 Q 537.8 270.8, 537.1 271.5 Q 536.5 272.3, 535.3 272.3 Q 534.1 272.3, 533.4 271.5 Q 532.7 270.8, 532.7 269.4 M 535.3 271.7 Q 536.1 271.7, 536.5 271.1 Q 537.0 270.5, 537.0 269.4 Q 537.0 268.4, 536.5 267.8 Q 536.1 267.3, 535.3 267.3 Q 534.4 267.3, 534.0 267.8 Q 533.5 268.3, 533.5 269.4 Q 533.5 270.5, 534.0 271.1 Q 534.4 271.7, 535.3 271.7 " fill="#FF0000"/>
<path class="atom-5" d="M 538.6 266.7 L 539.4 266.7 L 539.4 269.0 L 542.2 269.0 L 542.2 266.7 L 542.9 266.7 L 542.9 272.2 L 542.2 272.2 L 542.2 269.7 L 539.4 269.7 L 539.4 272.2 L 538.6 272.2 L 538.6 266.7 " fill="#FF0000"/>
<path class="atom-7" d="M 503.2 294.5 Q 503.2 293.2, 503.8 292.4 Q 504.5 291.7, 505.7 291.7 Q 506.9 291.7, 507.6 292.4 Q 508.2 293.2, 508.2 294.5 Q 508.2 295.8, 507.6 296.6 Q 506.9 297.3, 505.7 297.3 Q 504.5 297.3, 503.8 296.6 Q 503.2 295.8, 503.2 294.5 M 505.7 296.7 Q 506.5 296.7, 507.0 296.2 Q 507.4 295.6, 507.4 294.5 Q 507.4 293.4, 507.0 292.9 Q 506.5 292.3, 505.7 292.3 Q 504.9 292.3, 504.4 292.9 Q 504.0 293.4, 504.0 294.5 Q 504.0 295.6, 504.4 296.2 Q 504.9 296.7, 505.7 296.7 " fill="#FF0000"/>
<path class="atom-9" d="M 491.9 326.1 Q 491.9 324.8, 492.5 324.1 Q 493.2 323.3, 494.4 323.3 Q 495.6 323.3, 496.3 324.1 Q 496.9 324.8, 496.9 326.1 Q 496.9 327.4, 496.3 328.2 Q 495.6 328.9, 494.4 328.9 Q 493.2 328.9, 492.5 328.2 Q 491.9 327.4, 491.9 326.1 M 494.4 328.3 Q 495.2 328.3, 495.7 327.8 Q 496.1 327.2, 496.1 326.1 Q 496.1 325.0, 495.7 324.5 Q 495.2 323.9, 494.4 323.9 Q 493.6 323.9, 493.1 324.5 Q 492.6 325.0, 492.6 326.1 Q 492.6 327.2, 493.1 327.8 Q 493.6 328.3, 494.4 328.3 " fill="#FF0000"/>
<path class="atom-13" d="M 416.9 316.3 L 417.7 316.3 L 417.7 318.7 L 420.5 318.7 L 420.5 316.3 L 421.2 316.3 L 421.2 321.8 L 420.5 321.8 L 420.5 319.3 L 417.7 319.3 L 417.7 321.8 L 416.9 321.8 L 416.9 316.3 " fill="#FF0000"/>
<path class="atom-13" d="M 422.4 319.0 Q 422.4 317.7, 423.0 317.0 Q 423.7 316.3, 424.9 316.3 Q 426.1 316.3, 426.7 317.0 Q 427.4 317.7, 427.4 319.0 Q 427.4 320.4, 426.7 321.1 Q 426.1 321.9, 424.9 321.9 Q 423.7 321.9, 423.0 321.1 Q 422.4 320.4, 422.4 319.0 M 424.9 321.3 Q 425.7 321.3, 426.2 320.7 Q 426.6 320.1, 426.6 319.0 Q 426.6 318.0, 426.2 317.4 Q 425.7 316.9, 424.9 316.9 Q 424.0 316.9, 423.6 317.4 Q 423.1 318.0, 423.1 319.0 Q 423.1 320.2, 423.6 320.7 Q 424.0 321.3, 424.9 321.3 " fill="#FF0000"/>
<path class="atom-15" d="M 410.0 278.2 L 410.7 278.2 L 410.7 280.5 L 413.6 280.5 L 413.6 278.2 L 414.3 278.2 L 414.3 283.7 L 413.6 283.7 L 413.6 281.1 L 410.7 281.1 L 410.7 283.7 L 410.0 283.7 L 410.0 278.2 " fill="#FF0000"/>
<path class="atom-15" d="M 415.4 280.9 Q 415.4 279.6, 416.1 278.9 Q 416.7 278.1, 417.9 278.1 Q 419.2 278.1, 419.8 278.9 Q 420.5 279.6, 420.5 280.9 Q 420.5 282.2, 419.8 283.0 Q 419.1 283.8, 417.9 283.8 Q 416.7 283.8, 416.1 283.0 Q 415.4 282.3, 415.4 280.9 M 417.9 283.1 Q 418.8 283.1, 419.2 282.6 Q 419.7 282.0, 419.7 280.9 Q 419.7 279.8, 419.2 279.3 Q 418.8 278.7, 417.9 278.7 Q 417.1 278.7, 416.6 279.3 Q 416.2 279.8, 416.2 280.9 Q 416.2 282.0, 416.6 282.6 Q 417.1 283.1, 417.9 283.1 " fill="#FF0000"/>
<path class="atom-17" d="M 445.0 255.8 Q 445.0 254.5, 445.6 253.8 Q 446.3 253.1, 447.5 253.1 Q 448.7 253.1, 449.4 253.8 Q 450.0 254.5, 450.0 255.8 Q 450.0 257.2, 449.4 257.9 Q 448.7 258.7, 447.5 258.7 Q 446.3 258.7, 445.6 257.9 Q 445.0 257.2, 445.0 255.8 M 447.5 258.1 Q 448.3 258.1, 448.8 257.5 Q 449.2 256.9, 449.2 255.8 Q 449.2 254.8, 448.8 254.2 Q 448.3 253.7, 447.5 253.7 Q 446.7 253.7, 446.2 254.2 Q 445.8 254.8, 445.8 255.8 Q 445.8 256.9, 446.2 257.5 Q 446.7 258.1, 447.5 258.1 " fill="#FF0000"/>
<path class="atom-17" d="M 450.9 253.1 L 451.6 253.1 L 451.6 255.4 L 454.4 255.4 L 454.4 253.1 L 455.2 253.1 L 455.2 258.6 L 454.4 258.6 L 454.4 256.1 L 451.6 256.1 L 451.6 258.6 L 450.9 258.6 L 450.9 253.1 " fill="#FF0000"/>
<path class="legend" d="M 504.6 384.3 L 504.6 389.1 Q 502.9 390.0, 500.6 390.0 Q 498.1 390.0, 496.8 388.5 Q 495.4 387.0, 495.4 384.2 Q 495.4 381.4, 496.8 379.9 Q 498.1 378.4, 500.6 378.4 Q 501.9 378.4, 502.9 378.8 Q 503.8 379.2, 504.5 380.0 L 503.5 380.9 Q 502.4 379.7, 500.6 379.7 Q 498.9 379.7, 498.0 380.8 Q 497.1 382.0, 497.1 384.2 Q 497.1 386.4, 498.0 387.6 Q 499.0 388.7, 500.8 388.7 Q 502.0 388.7, 503.0 388.3 L 503.0 384.3 L 504.6 384.3 " fill="#000000"/>
</svg>