<svg xmlns="http://www.w3.org/2000/svg" xmlns:rdkit="http://www.rdkit.org/xml" xmlns:xlink="http://www.w3.org/1999/xlink" version="1.1" baseProfile="full" xml:space="preserve" width="800px" height="200px" viewBox="0 0 800 200">
<!-- END OF HEADER -->
<rect style="opacity:1.0;fill:#FFFFFF;stroke:none" width="800.0" height="200.0" x="0.0" y="0.0"> </rect>
<path class="bond-0 atom-0 atom-1" d="M 190.0,93.9 L 171.5,106.7" style="fill:none;fill-rule:evenodd;stroke:#000000;stroke-width:2.0px;stroke-linecap:butt;stroke-linejoin:miter;stroke-opacity:1"/>
<path class="bond-0 atom-0 atom-1" d="M 188.2,91.3 L 169.6,104.1" style="fill:none;fill-rule:evenodd;stroke:#000000;stroke-width:2.0px;stroke-linecap:butt;stroke-linejoin:miter;stroke-opacity:1;stroke-dasharray:6,4"/>
<path class="bond-1 atom-1 atom-2" d="M 171.3,104.9 L 172.1,113.7" style="fill:none;fill-rule:evenodd;stroke:#000000;stroke-width:2.0px;stroke-linecap:butt;stroke-linejoin:miter;stroke-opacity:1"/>
<path class="bond-1 atom-1 atom-2" d="M 172.1,113.7 L 172.8,122.6" style="fill:none;fill-rule:evenodd;stroke:#FF0000;stroke-width:2.0px;stroke-linecap:butt;stroke-linejoin:miter;stroke-opacity:1"/>
<path class="bond-2 atom-1 atom-3" d="M 171.3,104.9 L 151.8,95.6" style="fill:none;fill-rule:evenodd;stroke:#000000;stroke-width:2.0px;stroke-linecap:butt;stroke-linejoin:miter;stroke-opacity:1"/>
<path class="bond-2 atom-1 atom-3" d="M 171.0,101.1 L 154.9,93.5" style="fill:none;fill-rule:evenodd;stroke:#000000;stroke-width:2.0px;stroke-linecap:butt;stroke-linejoin:miter;stroke-opacity:1;stroke-dasharray:6,4"/>
<path class="bond-3 atom-3 atom-4" d="M 151.8,95.6 L 134.1,107.9" style="fill:none;fill-rule:evenodd;stroke:#000000;stroke-width:2.0px;stroke-linecap:butt;stroke-linejoin:miter;stroke-opacity:1"/>
<path class="bond-3 atom-3 atom-4" d="M 148.5,94.0 L 133.8,104.2" style="fill:none;fill-rule:evenodd;stroke:#000000;stroke-width:2.0px;stroke-linecap:butt;stroke-linejoin:miter;stroke-opacity:1;stroke-dasharray:6,4"/>
<path class="bond-4 atom-4 atom-5" d="M 134.1,107.9 L 126.1,104.1" style="fill:none;fill-rule:evenodd;stroke:#000000;stroke-width:2.0px;stroke-linecap:butt;stroke-linejoin:miter;stroke-opacity:1"/>
<path class="bond-4 atom-4 atom-5" d="M 126.1,104.1 L 118.1,100.3" style="fill:none;fill-rule:evenodd;stroke:#FF0000;stroke-width:2.0px;stroke-linecap:butt;stroke-linejoin:miter;stroke-opacity:1"/>
<path class="bond-4 atom-4 atom-5" d="M 133.8,104.2 L 126.6,100.8" style="fill:none;fill-rule:evenodd;stroke:#000000;stroke-width:2.0px;stroke-linecap:butt;stroke-linejoin:miter;stroke-opacity:1;stroke-dasharray:6,4"/>
<path class="bond-4 atom-4 atom-5" d="M 126.6,100.8 L 119.5,97.4" style="fill:none;fill-rule:evenodd;stroke:#FF0000;stroke-width:2.0px;stroke-linecap:butt;stroke-linejoin:miter;stroke-opacity:1;stroke-dasharray:6,4"/>
<path class="bond-5 atom-5 atom-6" d="M 111.1,101.1 L 104.0,106.0" style="fill:none;fill-rule:evenodd;stroke:#FF0000;stroke-width:2.0px;stroke-linecap:butt;stroke-linejoin:miter;stroke-opacity:1"/>
<path class="bond-5 atom-5 atom-6" d="M 104.0,106.0 L 96.8,110.9" style="fill:none;fill-rule:evenodd;stroke:#000000;stroke-width:2.0px;stroke-linecap:butt;stroke-linejoin:miter;stroke-opacity:1"/>
<path class="bond-5 atom-5 atom-6" d="M 112.9,103.8 L 106.6,108.1" style="fill:none;fill-rule:evenodd;stroke:#FF0000;stroke-width:2.0px;stroke-linecap:butt;stroke-linejoin:miter;stroke-opacity:1;stroke-dasharray:6,4"/>
<path class="bond-5 atom-5 atom-6" d="M 106.6,108.1 L 100.2,112.5" style="fill:none;fill-rule:evenodd;stroke:#000000;stroke-width:2.0px;stroke-linecap:butt;stroke-linejoin:miter;stroke-opacity:1;stroke-dasharray:6,4"/>
<path class="bond-6 atom-6 atom-7" d="M 95.2,110.1 L 95.9,119.5" style="fill:none;fill-rule:evenodd;stroke:#000000;stroke-width:2.0px;stroke-linecap:butt;stroke-linejoin:miter;stroke-opacity:1"/>
<path class="bond-6 atom-6 atom-7" d="M 95.9,119.5 L 96.7,128.8" style="fill:none;fill-rule:evenodd;stroke:#FF0000;stroke-width:2.0px;stroke-linecap:butt;stroke-linejoin:miter;stroke-opacity:1"/>
<path class="bond-6 atom-6 atom-7" d="M 98.4,109.9 L 99.1,119.2" style="fill:none;fill-rule:evenodd;stroke:#000000;stroke-width:2.0px;stroke-linecap:butt;stroke-linejoin:miter;stroke-opacity:1"/>
<path class="bond-6 atom-6 atom-7" d="M 99.1,119.2 L 99.9,128.5" style="fill:none;fill-rule:evenodd;stroke:#FF0000;stroke-width:2.0px;stroke-linecap:butt;stroke-linejoin:miter;stroke-opacity:1"/>
<path class="bond-7 atom-6 atom-8" d="M 96.8,110.9 L 77.3,101.7" style="fill:none;fill-rule:evenodd;stroke:#000000;stroke-width:2.0px;stroke-linecap:butt;stroke-linejoin:miter;stroke-opacity:1"/>
<path class="bond-8 atom-8 atom-9" d="M 77.3,101.7 L 59.6,114.0" style="fill:none;fill-rule:evenodd;stroke:#000000;stroke-width:2.0px;stroke-linecap:butt;stroke-linejoin:miter;stroke-opacity:1"/>
<path class="bond-8 atom-8 atom-9" d="M 74.0,100.1 L 59.3,110.3" style="fill:none;fill-rule:evenodd;stroke:#000000;stroke-width:2.0px;stroke-linecap:butt;stroke-linejoin:miter;stroke-opacity:1"/>
<path class="bond-9 atom-9 atom-10" d="M 59.6,114.0 L 40.1,104.7" style="fill:none;fill-rule:evenodd;stroke:#000000;stroke-width:2.0px;stroke-linecap:butt;stroke-linejoin:miter;stroke-opacity:1"/>
<path class="bond-10 atom-10 atom-11" d="M 40.1,104.7 L 33.0,109.7" style="fill:none;fill-rule:evenodd;stroke:#000000;stroke-width:2.0px;stroke-linecap:butt;stroke-linejoin:miter;stroke-opacity:1"/>
<path class="bond-10 atom-10 atom-11" d="M 33.0,109.7 L 25.9,114.6" style="fill:none;fill-rule:evenodd;stroke:#FF0000;stroke-width:2.0px;stroke-linecap:butt;stroke-linejoin:miter;stroke-opacity:1"/>
<path class="bond-11 atom-10 atom-12" d="M 40.1,104.7 L 38.3,83.2" style="fill:none;fill-rule:evenodd;stroke:#000000;stroke-width:2.0px;stroke-linecap:butt;stroke-linejoin:miter;stroke-opacity:1"/>
<path class="bond-11 atom-10 atom-12" d="M 43.2,102.6 L 41.7,84.8" style="fill:none;fill-rule:evenodd;stroke:#000000;stroke-width:2.0px;stroke-linecap:butt;stroke-linejoin:miter;stroke-opacity:1"/>
<path class="bond-12 atom-12 atom-13" d="M 38.3,83.2 L 30.3,79.5" style="fill:none;fill-rule:evenodd;stroke:#000000;stroke-width:2.0px;stroke-linecap:butt;stroke-linejoin:miter;stroke-opacity:1"/>
<path class="bond-12 atom-12 atom-13" d="M 30.3,79.5 L 22.4,75.7" style="fill:none;fill-rule:evenodd;stroke:#FF0000;stroke-width:2.0px;stroke-linecap:butt;stroke-linejoin:miter;stroke-opacity:1"/>
<path class="bond-13 atom-12 atom-14" d="M 38.3,83.2 L 56.1,71.0" style="fill:none;fill-rule:evenodd;stroke:#000000;stroke-width:2.0px;stroke-linecap:butt;stroke-linejoin:miter;stroke-opacity:1"/>
<path class="bond-14 atom-14 atom-15" d="M 56.1,71.0 L 55.4,62.2" style="fill:none;fill-rule:evenodd;stroke:#000000;stroke-width:2.0px;stroke-linecap:butt;stroke-linejoin:miter;stroke-opacity:1"/>
<path class="bond-14 atom-14 atom-15" d="M 55.4,62.2 L 54.6,53.4" style="fill:none;fill-rule:evenodd;stroke:#FF0000;stroke-width:2.0px;stroke-linecap:butt;stroke-linejoin:miter;stroke-opacity:1"/>
<path class="bond-15 atom-14 atom-16" d="M 56.1,71.0 L 75.6,80.2" style="fill:none;fill-rule:evenodd;stroke:#000000;stroke-width:2.0px;stroke-linecap:butt;stroke-linejoin:miter;stroke-opacity:1"/>
<path class="bond-15 atom-14 atom-16" d="M 56.4,74.7 L 72.5,82.3" style="fill:none;fill-rule:evenodd;stroke:#000000;stroke-width:2.0px;stroke-linecap:butt;stroke-linejoin:miter;stroke-opacity:1"/>
<path class="bond-16 atom-16 atom-17" d="M 75.6,80.2 L 93.3,67.9" style="fill:none;fill-rule:evenodd;stroke:#000000;stroke-width:2.0px;stroke-linecap:butt;stroke-linejoin:miter;stroke-opacity:1"/>
<path class="bond-17 atom-17 atom-18" d="M 93.3,67.9 L 112.8,77.2" style="fill:none;fill-rule:evenodd;stroke:#000000;stroke-width:2.0px;stroke-linecap:butt;stroke-linejoin:miter;stroke-opacity:1"/>
<path class="bond-17 atom-17 atom-18" d="M 93.6,71.7 L 111.4,80.1" style="fill:none;fill-rule:evenodd;stroke:#000000;stroke-width:2.0px;stroke-linecap:butt;stroke-linejoin:miter;stroke-opacity:1;stroke-dasharray:6,4"/>
<path class="bond-18 atom-18 atom-19" d="M 112.8,77.2 L 130.6,64.9" style="fill:none;fill-rule:evenodd;stroke:#000000;stroke-width:2.0px;stroke-linecap:butt;stroke-linejoin:miter;stroke-opacity:1"/>
<path class="bond-18 atom-18 atom-19" d="M 112.5,73.4 L 128.7,62.2" style="fill:none;fill-rule:evenodd;stroke:#000000;stroke-width:2.0px;stroke-linecap:butt;stroke-linejoin:miter;stroke-opacity:1;stroke-dasharray:6,4"/>
<path class="bond-19 atom-19 atom-20" d="M 130.6,64.9 L 137.7,60.0" style="fill:none;fill-rule:evenodd;stroke:#000000;stroke-width:2.0px;stroke-linecap:butt;stroke-linejoin:miter;stroke-opacity:1"/>
<path class="bond-19 atom-19 atom-20" d="M 137.7,60.0 L 144.8,55.0" style="fill:none;fill-rule:evenodd;stroke:#FF0000;stroke-width:2.0px;stroke-linecap:butt;stroke-linejoin:miter;stroke-opacity:1"/>
<path class="bond-19 atom-19 atom-20" d="M 128.7,62.2 L 135.9,57.3" style="fill:none;fill-rule:evenodd;stroke:#000000;stroke-width:2.0px;stroke-linecap:butt;stroke-linejoin:miter;stroke-opacity:1"/>
<path class="bond-19 atom-19 atom-20" d="M 135.9,57.3 L 143.0,52.4" style="fill:none;fill-rule:evenodd;stroke:#FF0000;stroke-width:2.0px;stroke-linecap:butt;stroke-linejoin:miter;stroke-opacity:1"/>
<path class="bond-20 atom-3 atom-21" d="M 151.8,95.6 L 151.1,86.8" style="fill:none;fill-rule:evenodd;stroke:#000000;stroke-width:2.0px;stroke-linecap:butt;stroke-linejoin:miter;stroke-opacity:1"/>
<path class="bond-20 atom-3 atom-21" d="M 151.1,86.8 L 150.4,78.0" style="fill:none;fill-rule:evenodd;stroke:#FF0000;stroke-width:2.0px;stroke-linecap:butt;stroke-linejoin:miter;stroke-opacity:1"/>
<path class="bond-21 atom-21 atom-22" d="M 153.6,71.7 L 160.7,66.8" style="fill:none;fill-rule:evenodd;stroke:#FF0000;stroke-width:2.0px;stroke-linecap:butt;stroke-linejoin:miter;stroke-opacity:1"/>
<path class="bond-21 atom-21 atom-22" d="M 160.7,66.8 L 167.8,61.8" style="fill:none;fill-rule:evenodd;stroke:#000000;stroke-width:2.0px;stroke-linecap:butt;stroke-linejoin:miter;stroke-opacity:1"/>
<path class="bond-22 atom-16 atom-8" d="M 75.6,80.2 L 77.3,101.7" style="fill:none;fill-rule:evenodd;stroke:#000000;stroke-width:2.0px;stroke-linecap:butt;stroke-linejoin:miter;stroke-opacity:1"/>
<path d="M 135.0,107.3 L 134.1,107.9 L 133.7,107.7" style="fill:none;stroke:#000000;stroke-width:2.0px;stroke-linecap:butt;stroke-linejoin:miter;stroke-opacity:1;"/>
<path d="M 97.2,110.7 L 96.8,110.9 L 95.9,110.5" style="fill:none;stroke:#000000;stroke-width:2.0px;stroke-linecap:butt;stroke-linejoin:miter;stroke-opacity:1;"/>
<path d="M 60.5,113.4 L 59.6,114.0 L 58.6,113.5" style="fill:none;stroke:#000000;stroke-width:2.0px;stroke-linecap:butt;stroke-linejoin:miter;stroke-opacity:1;"/>
<path d="M 92.4,68.5 L 93.3,67.9 L 94.3,68.4" style="fill:none;stroke:#000000;stroke-width:2.0px;stroke-linecap:butt;stroke-linejoin:miter;stroke-opacity:1;"/>
<path d="M 111.9,76.7 L 112.8,77.2 L 113.7,76.5" style="fill:none;stroke:#000000;stroke-width:2.0px;stroke-linecap:butt;stroke-linejoin:miter;stroke-opacity:1;"/>
<path d="M 129.7,65.5 L 130.6,64.9 L 130.9,64.6" style="fill:none;stroke:#000000;stroke-width:2.0px;stroke-linecap:butt;stroke-linejoin:miter;stroke-opacity:1;"/>
<path class="atom-2" d="M 170.3 126.4 Q 170.3 124.9, 171.0 124.1 Q 171.7 123.3, 173.1 123.3 Q 174.4 123.3, 175.2 124.1 Q 175.9 124.9, 175.9 126.4 Q 175.9 127.9, 175.2 128.7 Q 174.4 129.5, 173.1 129.5 Q 171.7 129.5, 171.0 128.7 Q 170.3 127.9, 170.3 126.4 M 173.1 128.9 Q 174.0 128.9, 174.5 128.2 Q 175.0 127.6, 175.0 126.4 Q 175.0 125.2, 174.5 124.6 Q 174.0 124.0, 173.1 124.0 Q 172.2 124.0, 171.6 124.6 Q 171.1 125.2, 171.1 126.4 Q 171.1 127.6, 171.6 128.2 Q 172.2 128.9, 173.1 128.9 " fill="#FF0000"/>
<path class="atom-2" d="M 176.8 123.3 L 177.7 123.3 L 177.7 125.9 L 180.8 125.9 L 180.8 123.3 L 181.6 123.3 L 181.6 129.4 L 180.8 129.4 L 180.8 126.6 L 177.7 126.6 L 177.7 129.4 L 176.8 129.4 L 176.8 123.3 " fill="#FF0000"/>
<path class="atom-5" d="M 111.8 98.7 Q 111.8 97.2, 112.5 96.4 Q 113.2 95.6, 114.6 95.6 Q 115.9 95.6, 116.7 96.4 Q 117.4 97.2, 117.4 98.7 Q 117.4 100.2, 116.7 101.0 Q 115.9 101.8, 114.6 101.8 Q 113.2 101.8, 112.5 101.0 Q 111.8 100.2, 111.8 98.7 M 114.6 101.2 Q 115.5 101.2, 116.0 100.5 Q 116.5 99.9, 116.5 98.7 Q 116.5 97.5, 116.0 96.9 Q 115.5 96.3, 114.6 96.3 Q 113.7 96.3, 113.1 96.9 Q 112.6 97.5, 112.6 98.7 Q 112.6 99.9, 113.1 100.5 Q 113.7 101.2, 114.6 101.2 " fill="#FF0000"/>
<path class="atom-7" d="M 95.8 132.5 Q 95.8 131.0, 96.5 130.2 Q 97.2 129.4, 98.6 129.4 Q 100.0 129.4, 100.7 130.2 Q 101.4 131.0, 101.4 132.5 Q 101.4 133.9, 100.7 134.8 Q 99.9 135.6, 98.6 135.6 Q 97.3 135.6, 96.5 134.8 Q 95.8 134.0, 95.8 132.5 M 98.6 134.9 Q 99.5 134.9, 100.0 134.3 Q 100.5 133.7, 100.5 132.5 Q 100.5 131.3, 100.0 130.7 Q 99.5 130.0, 98.6 130.0 Q 97.7 130.0, 97.2 130.6 Q 96.7 131.2, 96.7 132.5 Q 96.7 133.7, 97.2 134.3 Q 97.7 134.9, 98.6 134.9 " fill="#FF0000"/>
<path class="atom-11" d="M 13.5 114.0 L 14.3 114.0 L 14.3 116.6 L 17.5 116.6 L 17.5 114.0 L 18.3 114.0 L 18.3 120.1 L 17.5 120.1 L 17.5 117.3 L 14.3 117.3 L 14.3 120.1 L 13.5 120.1 L 13.5 114.0 " fill="#FF0000"/>
<path class="atom-11" d="M 19.5 117.0 Q 19.5 115.6, 20.3 114.7 Q 21.0 113.9, 22.4 113.9 Q 23.7 113.9, 24.4 114.7 Q 25.2 115.6, 25.2 117.0 Q 25.2 118.5, 24.4 119.4 Q 23.7 120.2, 22.4 120.2 Q 21.0 120.2, 20.3 119.4 Q 19.5 118.5, 19.5 117.0 M 22.4 119.5 Q 23.3 119.5, 23.8 118.9 Q 24.3 118.3, 24.3 117.0 Q 24.3 115.8, 23.8 115.2 Q 23.3 114.6, 22.4 114.6 Q 21.4 114.6, 20.9 115.2 Q 20.4 115.8, 20.4 117.0 Q 20.4 118.3, 20.9 118.9 Q 21.4 119.5, 22.4 119.5 " fill="#FF0000"/>
<path class="atom-13" d="M 10.0 71.0 L 10.8 71.0 L 10.8 73.6 L 14.0 73.6 L 14.0 71.0 L 14.8 71.0 L 14.8 77.1 L 14.0 77.1 L 14.0 74.3 L 10.8 74.3 L 10.8 77.1 L 10.0 77.1 L 10.0 71.0 " fill="#FF0000"/>
<path class="atom-13" d="M 16.0 74.0 Q 16.0 72.6, 16.8 71.7 Q 17.5 70.9, 18.8 70.9 Q 20.2 70.9, 20.9 71.7 Q 21.6 72.6, 21.6 74.0 Q 21.6 75.5, 20.9 76.4 Q 20.2 77.2, 18.8 77.2 Q 17.5 77.2, 16.8 76.4 Q 16.0 75.5, 16.0 74.0 M 18.8 76.5 Q 19.8 76.5, 20.3 75.9 Q 20.8 75.3, 20.8 74.0 Q 20.8 72.8, 20.3 72.2 Q 19.8 71.6, 18.8 71.6 Q 17.9 71.6, 17.4 72.2 Q 16.9 72.8, 16.9 74.0 Q 16.9 75.3, 17.4 75.9 Q 17.9 76.5, 18.8 76.5 " fill="#FF0000"/>
<path class="atom-15" d="M 51.5 49.5 Q 51.5 48.0, 52.2 47.2 Q 53.0 46.4, 54.3 46.4 Q 55.7 46.4, 56.4 47.2 Q 57.1 48.0, 57.1 49.5 Q 57.1 51.0, 56.4 51.8 Q 55.7 52.6, 54.3 52.6 Q 53.0 52.6, 52.2 51.8 Q 51.5 51.0, 51.5 49.5 M 54.3 52.0 Q 55.3 52.0, 55.8 51.3 Q 56.3 50.7, 56.3 49.5 Q 56.3 48.3, 55.8 47.7 Q 55.3 47.1, 54.3 47.1 Q 53.4 47.1, 52.9 47.7 Q 52.4 48.3, 52.4 49.5 Q 52.4 50.7, 52.9 51.3 Q 53.4 52.0, 54.3 52.0 " fill="#FF0000"/>
<path class="atom-15" d="M 58.1 46.4 L 58.9 46.4 L 58.9 49.0 L 62.0 49.0 L 62.0 46.4 L 62.9 46.4 L 62.9 52.6 L 62.0 52.6 L 62.0 49.7 L 58.9 49.7 L 58.9 52.6 L 58.1 52.6 L 58.1 46.4 " fill="#FF0000"/>
<path class="atom-20" d="M 144.6 51.3 Q 144.6 49.8, 145.3 49.0 Q 146.0 48.2, 147.4 48.2 Q 148.8 48.2, 149.5 49.0 Q 150.2 49.8, 150.2 51.3 Q 150.2 52.8, 149.5 53.6 Q 148.7 54.5, 147.4 54.5 Q 146.1 54.5, 145.3 53.6 Q 144.6 52.8, 144.6 51.3 M 147.4 53.8 Q 148.3 53.8, 148.8 53.2 Q 149.3 52.5, 149.3 51.3 Q 149.3 50.1, 148.8 49.5 Q 148.3 48.9, 147.4 48.9 Q 146.5 48.9, 146.0 49.5 Q 145.5 50.1, 145.5 51.3 Q 145.5 52.5, 146.0 53.2 Q 146.5 53.8, 147.4 53.8 " fill="#FF0000"/>
<path class="atom-21" d="M 147.3 74.1 Q 147.3 72.7, 148.0 71.8 Q 148.7 71.0, 150.1 71.0 Q 151.4 71.0, 152.2 71.8 Q 152.9 72.7, 152.9 74.1 Q 152.9 75.6, 152.1 76.5 Q 151.4 77.3, 150.1 77.3 Q 148.7 77.3, 148.0 76.5 Q 147.3 75.6, 147.3 74.1 M 150.1 76.6 Q 151.0 76.6, 151.5 76.0 Q 152.0 75.4, 152.0 74.1 Q 152.0 72.9, 151.5 72.3 Q 151.0 71.7, 150.1 71.7 Q 149.1 71.7, 148.6 72.3 Q 148.1 72.9, 148.1 74.1 Q 148.1 75.4, 148.6 76.0 Q 149.1 76.6, 150.1 76.6 " fill="#FF0000"/>
<path class="legend" d="M 103.4 190.0 L 102.2 186.7 L 97.8 186.7 L 96.6 190.0 L 95.1 190.0 L 99.0 178.7 L 100.9 178.7 L 104.9 190.0 L 103.4 190.0 M 98.2 185.4 L 101.8 185.4 L 100.0 180.3 L 98.2 185.4 " fill="#000000"/>
</svg>