<svg xmlns="http://www.w3.org/2000/svg" xmlns:rdkit="http://www.rdkit.org/xml" xmlns:xlink="http://www.w3.org/1999/xlink" version="1.1" baseProfile="full" xml:space="preserve" width="800px" height="400px" viewBox="0 0 800 400">
<!-- END OF HEADER -->
<rect style="opacity:1.0;fill:#FFFFFF;stroke:none" width="800.0" height="400.0" x="0.0" y="0.0"> </rect>
<path class="bond-0 atom-0 atom-1" d="M 79.4,105.5 L 96.2,95.8" style="fill:none;fill-rule:evenodd;stroke:#000000;stroke-width:2.0px;stroke-linecap:butt;stroke-linejoin:miter;stroke-opacity:1"/>
<path class="bond-1 atom-1 atom-2" d="M 97.6,96.6 L 97.6,88.3" style="fill:none;fill-rule:evenodd;stroke:#000000;stroke-width:2.0px;stroke-linecap:butt;stroke-linejoin:miter;stroke-opacity:1"/>
<path class="bond-1 atom-1 atom-2" d="M 97.6,88.3 L 97.6,79.9" style="fill:none;fill-rule:evenodd;stroke:#FF0000;stroke-width:2.0px;stroke-linecap:butt;stroke-linejoin:miter;stroke-opacity:1"/>
<path class="bond-1 atom-1 atom-2" d="M 94.7,96.6 L 94.7,88.3" style="fill:none;fill-rule:evenodd;stroke:#000000;stroke-width:2.0px;stroke-linecap:butt;stroke-linejoin:miter;stroke-opacity:1"/>
<path class="bond-1 atom-1 atom-2" d="M 94.7,88.3 L 94.7,79.9" style="fill:none;fill-rule:evenodd;stroke:#FF0000;stroke-width:2.0px;stroke-linecap:butt;stroke-linejoin:miter;stroke-opacity:1"/>
<path class="bond-2 atom-1 atom-3" d="M 96.2,95.8 L 103.0,99.7" style="fill:none;fill-rule:evenodd;stroke:#000000;stroke-width:2.0px;stroke-linecap:butt;stroke-linejoin:miter;stroke-opacity:1"/>
<path class="bond-2 atom-1 atom-3" d="M 103.0,99.7 L 109.8,103.7" style="fill:none;fill-rule:evenodd;stroke:#FF0000;stroke-width:2.0px;stroke-linecap:butt;stroke-linejoin:miter;stroke-opacity:1"/>
<path d="M 95.3,96.3 L 96.2,95.8 L 96.5,96.0" style="fill:none;stroke:#000000;stroke-width:2.0px;stroke-linecap:butt;stroke-linejoin:miter;stroke-opacity:1;"/>
<path class="atom-2" d="M 93.6 76.4 Q 93.6 75.1, 94.3 74.4 Q 94.9 73.6, 96.2 73.6 Q 97.4 73.6, 98.0 74.4 Q 98.7 75.1, 98.7 76.4 Q 98.7 77.8, 98.0 78.5 Q 97.4 79.3, 96.2 79.3 Q 94.9 79.3, 94.3 78.5 Q 93.6 77.8, 93.6 76.4 M 96.2 78.6 Q 97.0 78.6, 97.4 78.1 Q 97.9 77.5, 97.9 76.4 Q 97.9 75.3, 97.4 74.8 Q 97.0 74.2, 96.2 74.2 Q 95.3 74.2, 94.9 74.8 Q 94.4 75.3, 94.4 76.4 Q 94.4 77.5, 94.9 78.1 Q 95.3 78.6, 96.2 78.6 " fill="#FF0000"/>
<path class="atom-3" d="M 110.4 105.5 Q 110.4 104.2, 111.1 103.5 Q 111.7 102.7, 113.0 102.7 Q 114.2 102.7, 114.8 103.5 Q 115.5 104.2, 115.5 105.5 Q 115.5 106.9, 114.8 107.6 Q 114.2 108.4, 113.0 108.4 Q 111.8 108.4, 111.1 107.6 Q 110.4 106.9, 110.4 105.5 M 113.0 107.8 Q 113.8 107.8, 114.3 107.2 Q 114.7 106.6, 114.7 105.5 Q 114.7 104.5, 114.3 103.9 Q 113.8 103.4, 113.0 103.4 Q 112.1 103.4, 111.7 103.9 Q 111.2 104.4, 111.2 105.5 Q 111.2 106.6, 111.7 107.2 Q 112.1 107.8, 113.0 107.8 " fill="#FF0000"/>
<path class="atom-3" d="M 116.3 102.8 L 117.1 102.8 L 117.1 105.1 L 119.9 105.1 L 119.9 102.8 L 120.6 102.8 L 120.6 108.3 L 119.9 108.3 L 119.9 105.8 L 117.1 105.8 L 117.1 108.3 L 116.3 108.3 L 116.3 102.8 " fill="#FF0000"/>
<path class="legend" d="M 103.4 190.0 L 102.2 186.7 L 97.8 186.7 L 96.6 190.0 L 95.1 190.0 L 99.0 178.7 L 100.9 178.7 L 104.9 190.0 L 103.4 190.0 M 98.2 185.4 L 101.8 185.4 L 100.0 180.3 L 98.2 185.4 " fill="#000000"/>
<path class="bond-0 atom-0 atom-1" d="M 303.0,122.8 L 298.1,117.1" style="fill:none;fill-rule:evenodd;stroke:#FF0000;stroke-width:2.0px;stroke-linecap:butt;stroke-linejoin:miter;stroke-opacity:1"/>
<path class="bond-0 atom-0 atom-1" d="M 298.1,117.1 L 293.3,111.4" style="fill:none;fill-rule:evenodd;stroke:#000000;stroke-width:2.0px;stroke-linecap:butt;stroke-linejoin:miter;stroke-opacity:1"/>
<path class="bond-1 atom-1 atom-2" d="M 293.3,111.4 L 274.2,114.9" style="fill:none;fill-rule:evenodd;stroke:#000000;stroke-width:2.0px;stroke-linecap:butt;stroke-linejoin:miter;stroke-opacity:1"/>
<path class="bond-2 atom-2 atom-3" d="M 274.2,114.9 L 261.7,100.1" style="fill:none;fill-rule:evenodd;stroke:#000000;stroke-width:2.0px;stroke-linecap:butt;stroke-linejoin:miter;stroke-opacity:1"/>
<path class="bond-3 atom-3 atom-4" d="M 261.7,100.1 L 242.6,103.6" style="fill:none;fill-rule:evenodd;stroke:#000000;stroke-width:2.0px;stroke-linecap:butt;stroke-linejoin:miter;stroke-opacity:1"/>
<path class="bond-3 atom-3 atom-4" d="M 259.5,97.5 L 243.7,100.4" style="fill:none;fill-rule:evenodd;stroke:#000000;stroke-width:2.0px;stroke-linecap:butt;stroke-linejoin:miter;stroke-opacity:1"/>
<path class="bond-4 atom-4 atom-5" d="M 242.6,103.6 L 239.9,111.0" style="fill:none;fill-rule:evenodd;stroke:#000000;stroke-width:2.0px;stroke-linecap:butt;stroke-linejoin:miter;stroke-opacity:1"/>
<path class="bond-4 atom-4 atom-5" d="M 239.9,111.0 L 237.2,118.4" style="fill:none;fill-rule:evenodd;stroke:#FF0000;stroke-width:2.0px;stroke-linecap:butt;stroke-linejoin:miter;stroke-opacity:1"/>
<path class="bond-5 atom-4 atom-6" d="M 242.6,103.6 L 230.0,88.8" style="fill:none;fill-rule:evenodd;stroke:#000000;stroke-width:2.0px;stroke-linecap:butt;stroke-linejoin:miter;stroke-opacity:1"/>
<path class="bond-6 atom-6 atom-7" d="M 230.0,88.8 L 236.6,70.5" style="fill:none;fill-rule:evenodd;stroke:#000000;stroke-width:2.0px;stroke-linecap:butt;stroke-linejoin:miter;stroke-opacity:1"/>
<path class="bond-6 atom-6 atom-7" d="M 233.3,88.2 L 238.7,73.0" style="fill:none;fill-rule:evenodd;stroke:#000000;stroke-width:2.0px;stroke-linecap:butt;stroke-linejoin:miter;stroke-opacity:1"/>
<path class="bond-7 atom-7 atom-8" d="M 236.6,70.5 L 231.8,64.8" style="fill:none;fill-rule:evenodd;stroke:#000000;stroke-width:2.0px;stroke-linecap:butt;stroke-linejoin:miter;stroke-opacity:1"/>
<path class="bond-7 atom-7 atom-8" d="M 231.8,64.8 L 227.0,59.2" style="fill:none;fill-rule:evenodd;stroke:#FF0000;stroke-width:2.0px;stroke-linecap:butt;stroke-linejoin:miter;stroke-opacity:1"/>
<path class="bond-8 atom-7 atom-9" d="M 236.6,70.5 L 255.7,67.0" style="fill:none;fill-rule:evenodd;stroke:#000000;stroke-width:2.0px;stroke-linecap:butt;stroke-linejoin:miter;stroke-opacity:1"/>
<path class="bond-9 atom-9 atom-10" d="M 255.7,67.0 L 268.2,81.8" style="fill:none;fill-rule:evenodd;stroke:#000000;stroke-width:2.0px;stroke-linecap:butt;stroke-linejoin:miter;stroke-opacity:1"/>
<path class="bond-9 atom-9 atom-10" d="M 254.5,70.2 L 264.9,82.4" style="fill:none;fill-rule:evenodd;stroke:#000000;stroke-width:2.0px;stroke-linecap:butt;stroke-linejoin:miter;stroke-opacity:1"/>
<path class="bond-10 atom-10 atom-11" d="M 268.2,81.8 L 276.2,80.4" style="fill:none;fill-rule:evenodd;stroke:#000000;stroke-width:2.0px;stroke-linecap:butt;stroke-linejoin:miter;stroke-opacity:1"/>
<path class="bond-10 atom-10 atom-11" d="M 276.2,80.4 L 284.1,78.9" style="fill:none;fill-rule:evenodd;stroke:#FF0000;stroke-width:2.0px;stroke-linecap:butt;stroke-linejoin:miter;stroke-opacity:1"/>
<path class="bond-11 atom-11 atom-12" d="M 290.3,81.9 L 295.1,87.5" style="fill:none;fill-rule:evenodd;stroke:#FF0000;stroke-width:2.0px;stroke-linecap:butt;stroke-linejoin:miter;stroke-opacity:1"/>
<path class="bond-11 atom-11 atom-12" d="M 295.1,87.5 L 299.9,93.2" style="fill:none;fill-rule:evenodd;stroke:#000000;stroke-width:2.0px;stroke-linecap:butt;stroke-linejoin:miter;stroke-opacity:1"/>
<path class="bond-12 atom-12 atom-13" d="M 299.9,93.2 L 319.0,89.7" style="fill:none;fill-rule:evenodd;stroke:#000000;stroke-width:2.0px;stroke-linecap:butt;stroke-linejoin:miter;stroke-opacity:1"/>
<path class="bond-13 atom-13 atom-14" d="M 319.0,89.7 L 331.5,104.5" style="fill:none;fill-rule:evenodd;stroke:#000000;stroke-width:2.0px;stroke-linecap:butt;stroke-linejoin:miter;stroke-opacity:1"/>
<path class="bond-13 atom-13 atom-14" d="M 322.3,89.1 L 332.6,101.3" style="fill:none;fill-rule:evenodd;stroke:#000000;stroke-width:2.0px;stroke-linecap:butt;stroke-linejoin:miter;stroke-opacity:1"/>
<path class="bond-14 atom-14 atom-15" d="M 331.5,104.5 L 350.6,101.0" style="fill:none;fill-rule:evenodd;stroke:#000000;stroke-width:2.0px;stroke-linecap:butt;stroke-linejoin:miter;stroke-opacity:1"/>
<path class="bond-15 atom-15 atom-16" d="M 350.6,101.0 L 357.2,82.8" style="fill:none;fill-rule:evenodd;stroke:#000000;stroke-width:2.0px;stroke-linecap:butt;stroke-linejoin:miter;stroke-opacity:1"/>
<path class="bond-15 atom-15 atom-16" d="M 348.4,98.5 L 353.8,83.4" style="fill:none;fill-rule:evenodd;stroke:#000000;stroke-width:2.0px;stroke-linecap:butt;stroke-linejoin:miter;stroke-opacity:1"/>
<path class="bond-16 atom-16 atom-17" d="M 357.2,82.8 L 365.1,81.3" style="fill:none;fill-rule:evenodd;stroke:#000000;stroke-width:2.0px;stroke-linecap:butt;stroke-linejoin:miter;stroke-opacity:1"/>
<path class="bond-16 atom-16 atom-17" d="M 365.1,81.3 L 373.1,79.9" style="fill:none;fill-rule:evenodd;stroke:#FF0000;stroke-width:2.0px;stroke-linecap:butt;stroke-linejoin:miter;stroke-opacity:1"/>
<path class="bond-17 atom-16 atom-18" d="M 357.2,82.8 L 344.6,68.0" style="fill:none;fill-rule:evenodd;stroke:#000000;stroke-width:2.0px;stroke-linecap:butt;stroke-linejoin:miter;stroke-opacity:1"/>
<path class="bond-18 atom-18 atom-19" d="M 344.6,68.0 L 325.5,71.4" style="fill:none;fill-rule:evenodd;stroke:#000000;stroke-width:2.0px;stroke-linecap:butt;stroke-linejoin:miter;stroke-opacity:1"/>
<path class="bond-18 atom-18 atom-19" d="M 343.5,71.1 L 327.7,74.0" style="fill:none;fill-rule:evenodd;stroke:#000000;stroke-width:2.0px;stroke-linecap:butt;stroke-linejoin:miter;stroke-opacity:1"/>
<path class="bond-19 atom-12 atom-1" d="M 299.9,93.2 L 293.3,111.4" style="fill:none;fill-rule:evenodd;stroke:#000000;stroke-width:2.0px;stroke-linecap:butt;stroke-linejoin:miter;stroke-opacity:1"/>
<path class="bond-20 atom-19 atom-13" d="M 325.5,71.4 L 319.0,89.7" style="fill:none;fill-rule:evenodd;stroke:#000000;stroke-width:2.0px;stroke-linecap:butt;stroke-linejoin:miter;stroke-opacity:1"/>
<path class="bond-21 atom-10 atom-3" d="M 268.2,81.8 L 261.7,100.1" style="fill:none;fill-rule:evenodd;stroke:#000000;stroke-width:2.0px;stroke-linecap:butt;stroke-linejoin:miter;stroke-opacity:1"/>
<path d="M 275.2,114.7 L 274.2,114.9 L 273.6,114.2" style="fill:none;stroke:#000000;stroke-width:2.0px;stroke-linecap:butt;stroke-linejoin:miter;stroke-opacity:1;"/>
<path d="M 230.6,89.5 L 230.0,88.8 L 230.3,87.8" style="fill:none;stroke:#000000;stroke-width:2.0px;stroke-linecap:butt;stroke-linejoin:miter;stroke-opacity:1;"/>
<path d="M 254.7,67.2 L 255.7,67.0 L 256.3,67.8" style="fill:none;stroke:#000000;stroke-width:2.0px;stroke-linecap:butt;stroke-linejoin:miter;stroke-opacity:1;"/>
<path d="M 330.9,103.8 L 331.5,104.5 L 332.5,104.3" style="fill:none;stroke:#000000;stroke-width:2.0px;stroke-linecap:butt;stroke-linejoin:miter;stroke-opacity:1;"/>
<path d="M 349.7,101.2 L 350.6,101.0 L 350.9,100.1" style="fill:none;stroke:#000000;stroke-width:2.0px;stroke-linecap:butt;stroke-linejoin:miter;stroke-opacity:1;"/>
<path d="M 345.2,68.7 L 344.6,68.0 L 343.7,68.1" style="fill:none;stroke:#000000;stroke-width:2.0px;stroke-linecap:butt;stroke-linejoin:miter;stroke-opacity:1;"/>
<path d="M 326.5,71.3 L 325.5,71.4 L 325.2,72.3" style="fill:none;stroke:#000000;stroke-width:2.0px;stroke-linecap:butt;stroke-linejoin:miter;stroke-opacity:1;"/>
<path class="atom-0" d="M 303.3 126.3 Q 303.3 124.9, 304.0 124.2 Q 304.6 123.5, 305.9 123.5 Q 307.1 123.5, 307.7 124.2 Q 308.4 124.9, 308.4 126.3 Q 308.4 127.6, 307.7 128.4 Q 307.1 129.1, 305.9 129.1 Q 304.7 129.1, 304.0 128.4 Q 303.3 127.6, 303.3 126.3 M 305.9 128.5 Q 306.7 128.5, 307.2 127.9 Q 307.6 127.4, 307.6 126.3 Q 307.6 125.2, 307.2 124.6 Q 306.7 124.1, 305.9 124.1 Q 305.0 124.1, 304.6 124.6 Q 304.1 125.2, 304.1 126.3 Q 304.1 127.4, 304.6 127.9 Q 305.0 128.5, 305.9 128.5 " fill="#FF0000"/>
<path class="atom-0" d="M 309.2 123.5 L 310.0 123.5 L 310.0 125.9 L 312.8 125.9 L 312.8 123.5 L 313.5 123.5 L 313.5 129.0 L 312.8 129.0 L 312.8 126.5 L 310.0 126.5 L 310.0 129.0 L 309.2 129.0 L 309.2 123.5 " fill="#FF0000"/>
<path class="atom-5" d="M 233.5 121.8 Q 233.5 120.5, 234.2 119.8 Q 234.8 119.0, 236.0 119.0 Q 237.2 119.0, 237.9 119.8 Q 238.5 120.5, 238.5 121.8 Q 238.5 123.2, 237.9 123.9 Q 237.2 124.7, 236.0 124.7 Q 234.8 124.7, 234.2 123.9 Q 233.5 123.2, 233.5 121.8 M 236.0 124.1 Q 236.9 124.1, 237.3 123.5 Q 237.8 122.9, 237.8 121.8 Q 237.8 120.8, 237.3 120.2 Q 236.9 119.7, 236.0 119.7 Q 235.2 119.7, 234.7 120.2 Q 234.3 120.8, 234.3 121.8 Q 234.3 123.0, 234.7 123.5 Q 235.2 124.1, 236.0 124.1 " fill="#FF0000"/>
<path class="atom-5" d="M 239.4 119.1 L 240.1 119.1 L 240.1 121.4 L 243.0 121.4 L 243.0 119.1 L 243.7 119.1 L 243.7 124.6 L 243.0 124.6 L 243.0 122.1 L 240.1 122.1 L 240.1 124.6 L 239.4 124.6 L 239.4 119.1 " fill="#FF0000"/>
<path class="atom-8" d="M 216.1 53.0 L 216.8 53.0 L 216.8 55.3 L 219.6 55.3 L 219.6 53.0 L 220.4 53.0 L 220.4 58.5 L 219.6 58.5 L 219.6 55.9 L 216.8 55.9 L 216.8 58.5 L 216.1 58.5 L 216.1 53.0 " fill="#FF0000"/>
<path class="atom-8" d="M 221.5 55.7 Q 221.5 54.4, 222.1 53.6 Q 222.8 52.9, 224.0 52.9 Q 225.2 52.9, 225.9 53.6 Q 226.5 54.4, 226.5 55.7 Q 226.5 57.0, 225.9 57.8 Q 225.2 58.5, 224.0 58.5 Q 222.8 58.5, 222.1 57.8 Q 221.5 57.0, 221.5 55.7 M 224.0 57.9 Q 224.9 57.9, 225.3 57.4 Q 225.8 56.8, 225.8 55.7 Q 225.8 54.6, 225.3 54.1 Q 224.9 53.5, 224.0 53.5 Q 223.2 53.5, 222.7 54.1 Q 222.3 54.6, 222.3 55.7 Q 222.3 56.8, 222.7 57.4 Q 223.2 57.9, 224.0 57.9 " fill="#FF0000"/>
<path class="atom-11" d="M 284.8 78.4 Q 284.8 77.1, 285.4 76.3 Q 286.1 75.6, 287.3 75.6 Q 288.5 75.6, 289.2 76.3 Q 289.8 77.1, 289.8 78.4 Q 289.8 79.7, 289.2 80.5 Q 288.5 81.2, 287.3 81.2 Q 286.1 81.2, 285.4 80.5 Q 284.8 79.7, 284.8 78.4 M 287.3 80.6 Q 288.2 80.6, 288.6 80.0 Q 289.1 79.5, 289.1 78.4 Q 289.1 77.3, 288.6 76.7 Q 288.2 76.2, 287.3 76.2 Q 286.5 76.2, 286.0 76.7 Q 285.6 77.3, 285.6 78.4 Q 285.6 79.5, 286.0 80.0 Q 286.5 80.6, 287.3 80.6 " fill="#FF0000"/>
<path class="atom-17" d="M 373.7 79.3 Q 373.7 78.0, 374.4 77.3 Q 375.0 76.5, 376.3 76.5 Q 377.5 76.5, 378.1 77.3 Q 378.8 78.0, 378.8 79.3 Q 378.8 80.7, 378.1 81.4 Q 377.5 82.2, 376.3 82.2 Q 375.0 82.2, 374.4 81.4 Q 373.7 80.7, 373.7 79.3 M 376.3 81.5 Q 377.1 81.5, 377.5 81.0 Q 378.0 80.4, 378.0 79.3 Q 378.0 78.2, 377.5 77.7 Q 377.1 77.1, 376.3 77.1 Q 375.4 77.1, 375.0 77.7 Q 374.5 78.2, 374.5 79.3 Q 374.5 80.4, 375.0 81.0 Q 375.4 81.5, 376.3 81.5 " fill="#FF0000"/>
<path class="atom-17" d="M 379.6 76.6 L 380.4 76.6 L 380.4 78.9 L 383.2 78.9 L 383.2 76.6 L 383.9 76.6 L 383.9 82.1 L 383.2 82.1 L 383.2 79.5 L 380.4 79.5 L 380.4 82.1 L 379.6 82.1 L 379.6 76.6 " fill="#FF0000"/>
<path class="legend" d="M 301.7 184.0 Q 302.7 184.4, 303.3 185.0 Q 303.8 185.7, 303.8 186.7 Q 303.8 188.2, 302.8 189.1 Q 301.8 190.0, 300.0 190.0 L 296.2 190.0 L 296.2 178.7 L 299.5 178.7 Q 301.4 178.7, 302.4 179.5 Q 303.4 180.2, 303.4 181.7 Q 303.4 183.4, 301.7 184.0 M 297.7 180.0 L 297.7 183.5 L 299.5 183.5 Q 300.6 183.5, 301.2 183.1 Q 301.8 182.6, 301.8 181.7 Q 301.8 180.0, 299.5 180.0 L 297.7 180.0 M 300.0 188.7 Q 301.1 188.7, 301.7 188.2 Q 302.2 187.7, 302.2 186.7 Q 302.2 185.7, 301.6 185.3 Q 301.0 184.8, 299.7 184.8 L 297.7 184.8 L 297.7 188.7 L 300.0 188.7 " fill="#000000"/>
<path class="bond-0 atom-0 atom-1" d="M 554.2,74.3 L 538.3,85.5" style="fill:none;fill-rule:evenodd;stroke:#000000;stroke-width:2.0px;stroke-linecap:butt;stroke-linejoin:miter;stroke-opacity:1"/>
<path class="bond-1 atom-1 atom-2" d="M 536.8,84.8 L 537.5,93.1" style="fill:none;fill-rule:evenodd;stroke:#000000;stroke-width:2.0px;stroke-linecap:butt;stroke-linejoin:miter;stroke-opacity:1"/>
<path class="bond-1 atom-1 atom-2" d="M 537.5,93.1 L 538.3,101.5" style="fill:none;fill-rule:evenodd;stroke:#FF0000;stroke-width:2.0px;stroke-linecap:butt;stroke-linejoin:miter;stroke-opacity:1"/>
<path class="bond-1 atom-1 atom-2" d="M 539.7,84.5 L 540.4,92.9" style="fill:none;fill-rule:evenodd;stroke:#000000;stroke-width:2.0px;stroke-linecap:butt;stroke-linejoin:miter;stroke-opacity:1;stroke-dasharray:6,4"/>
<path class="bond-1 atom-1 atom-2" d="M 540.4,92.9 L 541.2,101.3" style="fill:none;fill-rule:evenodd;stroke:#FF0000;stroke-width:2.0px;stroke-linecap:butt;stroke-linejoin:miter;stroke-opacity:1;stroke-dasharray:6,4"/>
<path class="bond-2 atom-1 atom-3" d="M 538.3,85.5 L 520.7,77.3" style="fill:none;fill-rule:evenodd;stroke:#000000;stroke-width:2.0px;stroke-linecap:butt;stroke-linejoin:miter;stroke-opacity:1"/>
<path class="bond-2 atom-1 atom-3" d="M 535.6,87.4 L 521.0,80.6" style="fill:none;fill-rule:evenodd;stroke:#000000;stroke-width:2.0px;stroke-linecap:butt;stroke-linejoin:miter;stroke-opacity:1;stroke-dasharray:6,4"/>
<path class="bond-3 atom-3 atom-4" d="M 520.7,77.3 L 504.8,88.5" style="fill:none;fill-rule:evenodd;stroke:#000000;stroke-width:2.0px;stroke-linecap:butt;stroke-linejoin:miter;stroke-opacity:1"/>
<path class="bond-3 atom-3 atom-4" d="M 521.0,80.6 L 506.5,90.8" style="fill:none;fill-rule:evenodd;stroke:#000000;stroke-width:2.0px;stroke-linecap:butt;stroke-linejoin:miter;stroke-opacity:1;stroke-dasharray:6,4"/>
<path class="bond-4 atom-4 atom-5" d="M 504.8,88.5 L 487.2,80.3" style="fill:none;fill-rule:evenodd;stroke:#000000;stroke-width:2.0px;stroke-linecap:butt;stroke-linejoin:miter;stroke-opacity:1"/>
<path class="bond-4 atom-4 atom-5" d="M 504.5,85.1 L 488.5,77.6" style="fill:none;fill-rule:evenodd;stroke:#000000;stroke-width:2.0px;stroke-linecap:butt;stroke-linejoin:miter;stroke-opacity:1;stroke-dasharray:6,4"/>
<path class="bond-5 atom-5 atom-6" d="M 487.2,80.3 L 471.3,91.4" style="fill:none;fill-rule:evenodd;stroke:#000000;stroke-width:2.0px;stroke-linecap:butt;stroke-linejoin:miter;stroke-opacity:1"/>
<path class="bond-6 atom-6 atom-7" d="M 471.3,91.4 L 464.1,88.1" style="fill:none;fill-rule:evenodd;stroke:#000000;stroke-width:2.0px;stroke-linecap:butt;stroke-linejoin:miter;stroke-opacity:1"/>
<path class="bond-6 atom-6 atom-7" d="M 464.1,88.1 L 456.9,84.7" style="fill:none;fill-rule:evenodd;stroke:#FF0000;stroke-width:2.0px;stroke-linecap:butt;stroke-linejoin:miter;stroke-opacity:1"/>
<path d="M 521.6,77.7 L 520.7,77.3 L 519.9,77.9" style="fill:none;stroke:#000000;stroke-width:2.0px;stroke-linecap:butt;stroke-linejoin:miter;stroke-opacity:1;"/>
<path d="M 505.6,87.9 L 504.8,88.5 L 504.0,88.0" style="fill:none;stroke:#000000;stroke-width:2.0px;stroke-linecap:butt;stroke-linejoin:miter;stroke-opacity:1;"/>
<path d="M 488.1,80.7 L 487.2,80.3 L 486.4,80.8" style="fill:none;stroke:#000000;stroke-width:2.0px;stroke-linecap:butt;stroke-linejoin:miter;stroke-opacity:1;"/>
<path d="M 472.1,90.9 L 471.3,91.4 L 471.0,91.3" style="fill:none;stroke:#000000;stroke-width:2.0px;stroke-linecap:butt;stroke-linejoin:miter;stroke-opacity:1;"/>
<path class="atom-2" d="M 537.5 104.8 Q 537.5 103.5, 538.2 102.8 Q 538.8 102.0, 540.0 102.0 Q 541.3 102.0, 541.9 102.8 Q 542.6 103.5, 542.6 104.8 Q 542.6 106.2, 541.9 106.9 Q 541.2 107.7, 540.0 107.7 Q 538.8 107.7, 538.2 106.9 Q 537.5 106.2, 537.5 104.8 M 540.0 107.1 Q 540.9 107.1, 541.3 106.5 Q 541.8 105.9, 541.8 104.8 Q 541.8 103.7, 541.3 103.2 Q 540.9 102.7, 540.0 102.7 Q 539.2 102.7, 538.7 103.2 Q 538.3 103.7, 538.3 104.8 Q 538.3 105.9, 538.7 106.5 Q 539.2 107.1, 540.0 107.1 " fill="#FF0000"/>
<path class="atom-7" d="M 445.8 80.5 L 446.5 80.5 L 446.5 82.9 L 449.4 82.9 L 449.4 80.5 L 450.1 80.5 L 450.1 86.0 L 449.4 86.0 L 449.4 83.5 L 446.5 83.5 L 446.5 86.0 L 445.8 86.0 L 445.8 80.5 " fill="#FF0000"/>
<path class="atom-7" d="M 451.2 83.3 Q 451.2 81.9, 451.9 81.2 Q 452.5 80.5, 453.7 80.5 Q 455.0 80.5, 455.6 81.2 Q 456.3 81.9, 456.3 83.3 Q 456.3 84.6, 455.6 85.4 Q 455.0 86.1, 453.7 86.1 Q 452.5 86.1, 451.9 85.4 Q 451.2 84.6, 451.2 83.3 M 453.7 85.5 Q 454.6 85.5, 455.0 84.9 Q 455.5 84.4, 455.5 83.3 Q 455.5 82.2, 455.0 81.6 Q 454.6 81.1, 453.7 81.1 Q 452.9 81.1, 452.5 81.6 Q 452.0 82.2, 452.0 83.3 Q 452.0 84.4, 452.5 84.9 Q 452.9 85.5, 453.7 85.5 " fill="#FF0000"/>
<path class="legend" d="M 495.6 184.2 Q 495.6 181.4, 496.9 179.9 Q 498.3 178.4, 500.8 178.4 Q 503.1 178.4, 504.4 180.0 L 503.3 180.9 Q 502.4 179.7, 500.8 179.7 Q 499.1 179.7, 498.2 180.9 Q 497.3 182.0, 497.3 184.2 Q 497.3 186.4, 498.2 187.6 Q 499.1 188.7, 501.0 188.7 Q 502.2 188.7, 503.7 188.0 L 504.1 189.2 Q 503.5 189.6, 502.6 189.8 Q 501.7 190.0, 500.7 190.0 Q 498.3 190.0, 496.9 188.5 Q 495.6 187.0, 495.6 184.2 " fill="#000000"/>
<path class="bond-0 atom-0 atom-1" d="M 666.4,95.9 L 683.2,86.1" style="fill:none;fill-rule:evenodd;stroke:#000000;stroke-width:2.0px;stroke-linecap:butt;stroke-linejoin:miter;stroke-opacity:1"/>
<path class="bond-1 atom-1 atom-2" d="M 683.2,86.1 L 700.0,95.9" style="fill:none;fill-rule:evenodd;stroke:#000000;stroke-width:2.0px;stroke-linecap:butt;stroke-linejoin:miter;stroke-opacity:1"/>
<path class="bond-2 atom-2 atom-3" d="M 700.0,95.9 L 716.8,86.1" style="fill:none;fill-rule:evenodd;stroke:#000000;stroke-width:2.0px;stroke-linecap:butt;stroke-linejoin:miter;stroke-opacity:1"/>
<path class="bond-3 atom-3 atom-4" d="M 716.8,86.1 L 733.6,95.9" style="fill:none;fill-rule:evenodd;stroke:#000000;stroke-width:2.0px;stroke-linecap:butt;stroke-linejoin:miter;stroke-opacity:1"/>
<path d="M 682.4,86.6 L 683.2,86.1 L 684.0,86.6" style="fill:none;stroke:#000000;stroke-width:2.0px;stroke-linecap:butt;stroke-linejoin:miter;stroke-opacity:1;"/>
<path d="M 699.2,95.4 L 700.0,95.9 L 700.8,95.4" style="fill:none;stroke:#000000;stroke-width:2.0px;stroke-linecap:butt;stroke-linejoin:miter;stroke-opacity:1;"/>
<path d="M 716.0,86.6 L 716.8,86.1 L 717.6,86.6" style="fill:none;stroke:#000000;stroke-width:2.0px;stroke-linecap:butt;stroke-linejoin:miter;stroke-opacity:1;"/>
<path class="legend" d="M 699.2 178.7 Q 701.7 178.7, 703.1 180.2 Q 704.4 181.6, 704.4 184.3 Q 704.4 187.0, 703.1 188.5 Q 701.7 190.0, 699.2 190.0 L 695.6 190.0 L 695.6 178.7 L 699.2 178.7 M 699.2 188.7 Q 701.0 188.7, 701.9 187.6 Q 702.8 186.5, 702.8 184.3 Q 702.8 182.1, 701.9 181.0 Q 701.0 180.0, 699.2 180.0 L 697.1 180.0 L 697.1 188.7 L 699.2 188.7 " fill="#000000"/>
<path class="bond-0 atom-0 atom-1" d="M 130.6,253.9 L 115.3,265.8" style="fill:none;fill-rule:evenodd;stroke:#000000;stroke-width:2.0px;stroke-linecap:butt;stroke-linejoin:miter;stroke-opacity:1"/>
<path class="bond-1 atom-1 atom-2" d="M 115.3,265.8 L 97.3,258.5" style="fill:none;fill-rule:evenodd;stroke:#000000;stroke-width:2.0px;stroke-linecap:butt;stroke-linejoin:miter;stroke-opacity:1"/>
<path class="bond-2 atom-2 atom-3" d="M 97.3,258.5 L 82.0,270.4" style="fill:none;fill-rule:evenodd;stroke:#000000;stroke-width:2.0px;stroke-linecap:butt;stroke-linejoin:miter;stroke-opacity:1"/>
<path class="bond-3 atom-3 atom-4" d="M 82.0,270.4 L 64.0,263.1" style="fill:none;fill-rule:evenodd;stroke:#000000;stroke-width:2.0px;stroke-linecap:butt;stroke-linejoin:miter;stroke-opacity:1"/>
<path class="bond-4 atom-4 atom-5" d="M 64.0,263.1 L 48.7,275.0" style="fill:none;fill-rule:evenodd;stroke:#000000;stroke-width:2.0px;stroke-linecap:butt;stroke-linejoin:miter;stroke-opacity:1"/>
<path class="bond-5 atom-5 atom-6" d="M 48.7,275.0 L 30.7,267.7" style="fill:none;fill-rule:evenodd;stroke:#000000;stroke-width:2.0px;stroke-linecap:butt;stroke-linejoin:miter;stroke-opacity:1"/>
<path class="bond-6 atom-5 atom-7" d="M 48.7,275.0 L 51.4,294.3" style="fill:none;fill-rule:evenodd;stroke:#000000;stroke-width:2.0px;stroke-linecap:butt;stroke-linejoin:miter;stroke-opacity:1"/>
<path class="bond-7 atom-7 atom-8" d="M 51.4,294.3 L 36.1,306.2" style="fill:none;fill-rule:evenodd;stroke:#000000;stroke-width:2.0px;stroke-linecap:butt;stroke-linejoin:miter;stroke-opacity:1"/>
<path class="bond-8 atom-8 atom-9" d="M 36.1,306.2 L 38.7,325.4" style="fill:none;fill-rule:evenodd;stroke:#000000;stroke-width:2.0px;stroke-linecap:butt;stroke-linejoin:miter;stroke-opacity:1"/>
<path class="bond-9 atom-7 atom-10" d="M 51.4,294.3 L 69.4,301.6" style="fill:none;fill-rule:evenodd;stroke:#000000;stroke-width:2.0px;stroke-linecap:butt;stroke-linejoin:miter;stroke-opacity:1"/>
<path class="bond-10 atom-10 atom-11" d="M 69.4,301.6 L 72.0,320.8" style="fill:none;fill-rule:evenodd;stroke:#000000;stroke-width:2.0px;stroke-linecap:butt;stroke-linejoin:miter;stroke-opacity:1"/>
<path class="bond-11 atom-11 atom-12" d="M 72.0,320.8 L 90.0,328.1" style="fill:none;fill-rule:evenodd;stroke:#000000;stroke-width:2.0px;stroke-linecap:butt;stroke-linejoin:miter;stroke-opacity:1"/>
<path class="bond-12 atom-10 atom-13" d="M 69.4,301.6 L 84.7,289.7" style="fill:none;fill-rule:evenodd;stroke:#000000;stroke-width:2.0px;stroke-linecap:butt;stroke-linejoin:miter;stroke-opacity:1"/>
<path class="bond-13 atom-13 atom-14" d="M 84.7,289.7 L 102.7,297.0" style="fill:none;fill-rule:evenodd;stroke:#000000;stroke-width:2.0px;stroke-linecap:butt;stroke-linejoin:miter;stroke-opacity:1"/>
<path class="bond-14 atom-14 atom-15" d="M 102.7,297.0 L 118.0,285.0" style="fill:none;fill-rule:evenodd;stroke:#000000;stroke-width:2.0px;stroke-linecap:butt;stroke-linejoin:miter;stroke-opacity:1"/>
<path class="bond-15 atom-15 atom-16" d="M 118.0,285.0 L 136.0,292.3" style="fill:none;fill-rule:evenodd;stroke:#000000;stroke-width:2.0px;stroke-linecap:butt;stroke-linejoin:miter;stroke-opacity:1"/>
<path class="bond-16 atom-16 atom-17" d="M 136.0,292.3 L 151.3,280.4" style="fill:none;fill-rule:evenodd;stroke:#000000;stroke-width:2.0px;stroke-linecap:butt;stroke-linejoin:miter;stroke-opacity:1"/>
<path class="bond-17 atom-17 atom-18" d="M 151.3,280.4 L 169.3,287.7" style="fill:none;fill-rule:evenodd;stroke:#000000;stroke-width:2.0px;stroke-linecap:butt;stroke-linejoin:miter;stroke-opacity:1"/>
<path class="bond-18 atom-16 atom-19" d="M 136.0,292.3 L 138.6,311.6" style="fill:none;fill-rule:evenodd;stroke:#000000;stroke-width:2.0px;stroke-linecap:butt;stroke-linejoin:miter;stroke-opacity:1"/>
<path class="bond-19 atom-19 atom-20" d="M 138.6,311.6 L 156.6,318.9" style="fill:none;fill-rule:evenodd;stroke:#000000;stroke-width:2.0px;stroke-linecap:butt;stroke-linejoin:miter;stroke-opacity:1"/>
<path class="bond-20 atom-19 atom-21" d="M 138.6,311.6 L 123.3,323.5" style="fill:none;fill-rule:evenodd;stroke:#000000;stroke-width:2.0px;stroke-linecap:butt;stroke-linejoin:miter;stroke-opacity:1"/>
<path d="M 116.1,265.2 L 115.3,265.8 L 114.4,265.4" style="fill:none;stroke:#000000;stroke-width:2.0px;stroke-linecap:butt;stroke-linejoin:miter;stroke-opacity:1;"/>
<path d="M 98.2,258.9 L 97.3,258.5 L 96.6,259.1" style="fill:none;stroke:#000000;stroke-width:2.0px;stroke-linecap:butt;stroke-linejoin:miter;stroke-opacity:1;"/>
<path d="M 82.8,269.8 L 82.0,270.4 L 81.1,270.1" style="fill:none;stroke:#000000;stroke-width:2.0px;stroke-linecap:butt;stroke-linejoin:miter;stroke-opacity:1;"/>
<path d="M 64.9,263.5 L 64.0,263.1 L 63.3,263.7" style="fill:none;stroke:#000000;stroke-width:2.0px;stroke-linecap:butt;stroke-linejoin:miter;stroke-opacity:1;"/>
<path d="M 36.8,305.6 L 36.1,306.2 L 36.2,307.2" style="fill:none;stroke:#000000;stroke-width:2.0px;stroke-linecap:butt;stroke-linejoin:miter;stroke-opacity:1;"/>
<path d="M 71.9,319.8 L 72.0,320.8 L 72.9,321.2" style="fill:none;stroke:#000000;stroke-width:2.0px;stroke-linecap:butt;stroke-linejoin:miter;stroke-opacity:1;"/>
<path d="M 83.9,290.3 L 84.7,289.7 L 85.6,290.0" style="fill:none;stroke:#000000;stroke-width:2.0px;stroke-linecap:butt;stroke-linejoin:miter;stroke-opacity:1;"/>
<path d="M 101.8,296.6 L 102.7,297.0 L 103.4,296.4" style="fill:none;stroke:#000000;stroke-width:2.0px;stroke-linecap:butt;stroke-linejoin:miter;stroke-opacity:1;"/>
<path d="M 117.2,285.6 L 118.0,285.0 L 118.9,285.4" style="fill:none;stroke:#000000;stroke-width:2.0px;stroke-linecap:butt;stroke-linejoin:miter;stroke-opacity:1;"/>
<path d="M 150.5,281.0 L 151.3,280.4 L 152.2,280.8" style="fill:none;stroke:#000000;stroke-width:2.0px;stroke-linecap:butt;stroke-linejoin:miter;stroke-opacity:1;"/>
<path class="legend" d="M 96.5 378.7 L 103.3 378.7 L 103.3 380.0 L 98.1 380.0 L 98.1 383.4 L 102.8 383.4 L 102.8 384.7 L 98.1 384.7 L 98.1 388.7 L 103.5 388.7 L 103.5 390.0 L 96.5 390.0 L 96.5 378.7 " fill="#000000"/>
<path class="bond-0 atom-0 atom-1" d="M 210.0,289.0 L 228.3,282.5" style="fill:none;fill-rule:evenodd;stroke:#000000;stroke-width:2.0px;stroke-linecap:butt;stroke-linejoin:miter;stroke-opacity:1"/>
<path class="bond-1 atom-1 atom-2" d="M 228.3,282.5 L 243.1,295.0" style="fill:none;fill-rule:evenodd;stroke:#000000;stroke-width:2.0px;stroke-linecap:butt;stroke-linejoin:miter;stroke-opacity:1"/>
<path class="bond-2 atom-2 atom-3" d="M 243.1,295.0 L 241.6,302.9" style="fill:none;fill-rule:evenodd;stroke:#000000;stroke-width:2.0px;stroke-linecap:butt;stroke-linejoin:miter;stroke-opacity:1"/>
<path class="bond-2 atom-2 atom-3" d="M 241.6,302.9 L 240.2,310.7" style="fill:none;fill-rule:evenodd;stroke:#FF0000;stroke-width:2.0px;stroke-linecap:butt;stroke-linejoin:miter;stroke-opacity:1"/>
<path class="bond-3 atom-2 atom-4" d="M 243.1,295.0 L 261.3,288.5" style="fill:none;fill-rule:evenodd;stroke:#000000;stroke-width:2.0px;stroke-linecap:butt;stroke-linejoin:miter;stroke-opacity:1"/>
<path class="bond-4 atom-4 atom-5" d="M 261.3,288.5 L 262.8,280.7" style="fill:none;fill-rule:evenodd;stroke:#000000;stroke-width:2.0px;stroke-linecap:butt;stroke-linejoin:miter;stroke-opacity:1"/>
<path class="bond-4 atom-4 atom-5" d="M 262.8,280.7 L 264.2,272.9" style="fill:none;fill-rule:evenodd;stroke:#FF0000;stroke-width:2.0px;stroke-linecap:butt;stroke-linejoin:miter;stroke-opacity:1"/>
<path class="bond-5 atom-4 atom-6" d="M 261.3,288.5 L 276.2,301.0" style="fill:none;fill-rule:evenodd;stroke:#000000;stroke-width:2.0px;stroke-linecap:butt;stroke-linejoin:miter;stroke-opacity:1"/>
<path class="bond-6 atom-6 atom-7" d="M 276.2,301.0 L 283.7,298.3" style="fill:none;fill-rule:evenodd;stroke:#000000;stroke-width:2.0px;stroke-linecap:butt;stroke-linejoin:miter;stroke-opacity:1"/>
<path class="bond-6 atom-6 atom-7" d="M 283.7,298.3 L 291.3,295.6" style="fill:none;fill-rule:evenodd;stroke:#FF0000;stroke-width:2.0px;stroke-linecap:butt;stroke-linejoin:miter;stroke-opacity:1"/>
<path class="bond-7 atom-7 atom-8" d="M 297.6,297.2 L 303.4,302.1" style="fill:none;fill-rule:evenodd;stroke:#FF0000;stroke-width:2.0px;stroke-linecap:butt;stroke-linejoin:miter;stroke-opacity:1"/>
<path class="bond-7 atom-7 atom-8" d="M 303.4,302.1 L 309.2,307.0" style="fill:none;fill-rule:evenodd;stroke:#000000;stroke-width:2.0px;stroke-linecap:butt;stroke-linejoin:miter;stroke-opacity:1"/>
<path class="bond-8 atom-8 atom-9" d="M 307.9,306.0 L 306.4,314.2" style="fill:none;fill-rule:evenodd;stroke:#000000;stroke-width:2.0px;stroke-linecap:butt;stroke-linejoin:miter;stroke-opacity:1"/>
<path class="bond-8 atom-8 atom-9" d="M 306.4,314.2 L 304.9,322.5" style="fill:none;fill-rule:evenodd;stroke:#FF0000;stroke-width:2.0px;stroke-linecap:butt;stroke-linejoin:miter;stroke-opacity:1"/>
<path class="bond-8 atom-8 atom-9" d="M 310.8,306.5 L 309.3,314.7" style="fill:none;fill-rule:evenodd;stroke:#000000;stroke-width:2.0px;stroke-linecap:butt;stroke-linejoin:miter;stroke-opacity:1"/>
<path class="bond-8 atom-8 atom-9" d="M 309.3,314.7 L 307.8,323.0" style="fill:none;fill-rule:evenodd;stroke:#FF0000;stroke-width:2.0px;stroke-linecap:butt;stroke-linejoin:miter;stroke-opacity:1"/>
<path class="bond-9 atom-8 atom-10" d="M 309.2,307.0 L 327.5,300.5" style="fill:none;fill-rule:evenodd;stroke:#000000;stroke-width:2.0px;stroke-linecap:butt;stroke-linejoin:miter;stroke-opacity:1"/>
<path class="bond-10 atom-10 atom-11" d="M 327.5,300.5 L 331.0,281.4" style="fill:none;fill-rule:evenodd;stroke:#000000;stroke-width:2.0px;stroke-linecap:butt;stroke-linejoin:miter;stroke-opacity:1"/>
<path class="bond-10 atom-10 atom-11" d="M 330.7,299.4 L 333.5,283.6" style="fill:none;fill-rule:evenodd;stroke:#000000;stroke-width:2.0px;stroke-linecap:butt;stroke-linejoin:miter;stroke-opacity:1"/>
<path class="bond-11 atom-11 atom-12" d="M 331.0,281.4 L 349.2,274.9" style="fill:none;fill-rule:evenodd;stroke:#000000;stroke-width:2.0px;stroke-linecap:butt;stroke-linejoin:miter;stroke-opacity:1"/>
<path class="bond-12 atom-12 atom-13" d="M 349.2,274.9 L 350.7,267.1" style="fill:none;fill-rule:evenodd;stroke:#000000;stroke-width:2.0px;stroke-linecap:butt;stroke-linejoin:miter;stroke-opacity:1"/>
<path class="bond-12 atom-12 atom-13" d="M 350.7,267.1 L 352.1,259.3" style="fill:none;fill-rule:evenodd;stroke:#FF0000;stroke-width:2.0px;stroke-linecap:butt;stroke-linejoin:miter;stroke-opacity:1"/>
<path class="bond-13 atom-12 atom-14" d="M 349.2,274.9 L 364.0,287.4" style="fill:none;fill-rule:evenodd;stroke:#000000;stroke-width:2.0px;stroke-linecap:butt;stroke-linejoin:miter;stroke-opacity:1"/>
<path class="bond-13 atom-12 atom-14" d="M 348.6,278.2 L 360.9,288.6" style="fill:none;fill-rule:evenodd;stroke:#000000;stroke-width:2.0px;stroke-linecap:butt;stroke-linejoin:miter;stroke-opacity:1"/>
<path class="bond-14 atom-14 atom-15" d="M 364.0,287.4 L 371.6,284.7" style="fill:none;fill-rule:evenodd;stroke:#000000;stroke-width:2.0px;stroke-linecap:butt;stroke-linejoin:miter;stroke-opacity:1"/>
<path class="bond-14 atom-14 atom-15" d="M 371.6,284.7 L 379.2,282.0" style="fill:none;fill-rule:evenodd;stroke:#FF0000;stroke-width:2.0px;stroke-linecap:butt;stroke-linejoin:miter;stroke-opacity:1"/>
<path class="bond-15 atom-14 atom-16" d="M 364.0,287.4 L 360.6,306.5" style="fill:none;fill-rule:evenodd;stroke:#000000;stroke-width:2.0px;stroke-linecap:butt;stroke-linejoin:miter;stroke-opacity:1"/>
<path class="bond-16 atom-16 atom-17" d="M 360.6,306.5 L 366.4,311.5" style="fill:none;fill-rule:evenodd;stroke:#000000;stroke-width:2.0px;stroke-linecap:butt;stroke-linejoin:miter;stroke-opacity:1"/>
<path class="bond-16 atom-16 atom-17" d="M 366.4,311.5 L 372.2,316.4" style="fill:none;fill-rule:evenodd;stroke:#FF0000;stroke-width:2.0px;stroke-linecap:butt;stroke-linejoin:miter;stroke-opacity:1"/>
<path class="bond-17 atom-16 atom-18" d="M 360.6,306.5 L 342.3,313.1" style="fill:none;fill-rule:evenodd;stroke:#000000;stroke-width:2.0px;stroke-linecap:butt;stroke-linejoin:miter;stroke-opacity:1"/>
<path class="bond-17 atom-16 atom-18" d="M 358.0,304.3 L 342.9,309.8" style="fill:none;fill-rule:evenodd;stroke:#000000;stroke-width:2.0px;stroke-linecap:butt;stroke-linejoin:miter;stroke-opacity:1"/>
<path class="bond-18 atom-18 atom-10" d="M 342.3,313.1 L 327.5,300.5" style="fill:none;fill-rule:evenodd;stroke:#000000;stroke-width:2.0px;stroke-linecap:butt;stroke-linejoin:miter;stroke-opacity:1"/>
<path d="M 227.4,282.8 L 228.3,282.5 L 229.0,283.1" style="fill:none;stroke:#000000;stroke-width:2.0px;stroke-linecap:butt;stroke-linejoin:miter;stroke-opacity:1;"/>
<path d="M 275.4,300.4 L 276.2,301.0 L 276.5,300.9" style="fill:none;stroke:#000000;stroke-width:2.0px;stroke-linecap:butt;stroke-linejoin:miter;stroke-opacity:1;"/>
<path d="M 308.9,306.8 L 309.2,307.0 L 310.1,306.7" style="fill:none;stroke:#000000;stroke-width:2.0px;stroke-linecap:butt;stroke-linejoin:miter;stroke-opacity:1;"/>
<path d="M 330.8,282.4 L 331.0,281.4 L 331.9,281.1" style="fill:none;stroke:#000000;stroke-width:2.0px;stroke-linecap:butt;stroke-linejoin:miter;stroke-opacity:1;"/>
<path d="M 343.2,312.7 L 342.3,313.1 L 341.6,312.4" style="fill:none;stroke:#000000;stroke-width:2.0px;stroke-linecap:butt;stroke-linejoin:miter;stroke-opacity:1;"/>
<path class="atom-3" d="M 237.1 314.1 Q 237.1 312.8, 237.7 312.1 Q 238.4 311.3, 239.6 311.3 Q 240.8 311.3, 241.5 312.1 Q 242.1 312.8, 242.1 314.1 Q 242.1 315.5, 241.5 316.2 Q 240.8 317.0, 239.6 317.0 Q 238.4 317.0, 237.7 316.2 Q 237.1 315.5, 237.1 314.1 M 239.6 316.4 Q 240.4 316.4, 240.9 315.8 Q 241.3 315.2, 241.3 314.1 Q 241.3 313.0, 240.9 312.5 Q 240.4 312.0, 239.6 312.0 Q 238.8 312.0, 238.3 312.5 Q 237.9 313.0, 237.9 314.1 Q 237.9 315.2, 238.3 315.8 Q 238.8 316.4, 239.6 316.4 " fill="#FF0000"/>
<path class="atom-3" d="M 243.0 311.4 L 243.7 311.4 L 243.7 313.7 L 246.5 313.7 L 246.5 311.4 L 247.3 311.4 L 247.3 316.9 L 246.5 316.9 L 246.5 314.4 L 243.7 314.4 L 243.7 316.9 L 243.0 316.9 L 243.0 311.4 " fill="#FF0000"/>
<path class="atom-5" d="M 262.3 269.4 Q 262.3 268.1, 263.0 267.3 Q 263.6 266.6, 264.8 266.6 Q 266.0 266.6, 266.7 267.3 Q 267.3 268.1, 267.3 269.4 Q 267.3 270.7, 266.7 271.5 Q 266.0 272.2, 264.8 272.2 Q 263.6 272.2, 263.0 271.5 Q 262.3 270.7, 262.3 269.4 M 264.8 271.6 Q 265.7 271.6, 266.1 271.1 Q 266.6 270.5, 266.6 269.4 Q 266.6 268.3, 266.1 267.8 Q 265.7 267.2, 264.8 267.2 Q 264.0 267.2, 263.5 267.8 Q 263.1 268.3, 263.1 269.4 Q 263.1 270.5, 263.5 271.1 Q 264.0 271.6, 264.8 271.6 " fill="#FF0000"/>
<path class="atom-5" d="M 268.2 266.7 L 268.9 266.7 L 268.9 269.0 L 271.8 269.0 L 271.8 266.7 L 272.5 266.7 L 272.5 272.2 L 271.8 272.2 L 271.8 269.6 L 268.9 269.6 L 268.9 272.2 L 268.2 272.2 L 268.2 266.7 " fill="#FF0000"/>
<path class="atom-7" d="M 291.9 294.5 Q 291.9 293.2, 292.6 292.4 Q 293.2 291.7, 294.4 291.7 Q 295.6 291.7, 296.3 292.4 Q 296.9 293.2, 296.9 294.5 Q 296.9 295.8, 296.3 296.6 Q 295.6 297.4, 294.4 297.4 Q 293.2 297.4, 292.6 296.6 Q 291.9 295.8, 291.9 294.5 M 294.4 296.7 Q 295.3 296.7, 295.7 296.2 Q 296.2 295.6, 296.2 294.5 Q 296.2 293.4, 295.7 292.9 Q 295.3 292.3, 294.4 292.3 Q 293.6 292.3, 293.1 292.9 Q 292.7 293.4, 292.7 294.5 Q 292.7 295.6, 293.1 296.2 Q 293.6 296.7, 294.4 296.7 " fill="#FF0000"/>
<path class="atom-9" d="M 303.2 326.2 Q 303.2 324.8, 303.9 324.1 Q 304.5 323.4, 305.8 323.4 Q 307.0 323.4, 307.6 324.1 Q 308.3 324.8, 308.3 326.2 Q 308.3 327.5, 307.6 328.3 Q 307.0 329.0, 305.8 329.0 Q 304.5 329.0, 303.9 328.3 Q 303.2 327.5, 303.2 326.2 M 305.8 328.4 Q 306.6 328.4, 307.0 327.8 Q 307.5 327.3, 307.5 326.2 Q 307.5 325.1, 307.0 324.5 Q 306.6 324.0, 305.8 324.0 Q 304.9 324.0, 304.5 324.5 Q 304.0 325.1, 304.0 326.2 Q 304.0 327.3, 304.5 327.8 Q 304.9 328.4, 305.8 328.4 " fill="#FF0000"/>
<path class="atom-13" d="M 350.2 255.8 Q 350.2 254.5, 350.8 253.7 Q 351.5 253.0, 352.7 253.0 Q 353.9 253.0, 354.6 253.7 Q 355.2 254.5, 355.2 255.8 Q 355.2 257.1, 354.6 257.9 Q 353.9 258.6, 352.7 258.6 Q 351.5 258.6, 350.8 257.9 Q 350.2 257.1, 350.2 255.8 M 352.7 258.0 Q 353.6 258.0, 354.0 257.5 Q 354.5 256.9, 354.5 255.8 Q 354.5 254.7, 354.0 254.2 Q 353.6 253.6, 352.7 253.6 Q 351.9 253.6, 351.4 254.2 Q 351.0 254.7, 351.0 255.8 Q 351.0 256.9, 351.4 257.5 Q 351.9 258.0, 352.7 258.0 " fill="#FF0000"/>
<path class="atom-13" d="M 356.1 253.1 L 356.8 253.1 L 356.8 255.4 L 359.7 255.4 L 359.7 253.1 L 360.4 253.1 L 360.4 258.6 L 359.7 258.6 L 359.7 256.0 L 356.8 256.0 L 356.8 258.6 L 356.1 258.6 L 356.1 253.1 " fill="#FF0000"/>
<path class="atom-15" d="M 379.8 280.9 Q 379.8 279.6, 380.4 278.8 Q 381.1 278.1, 382.3 278.1 Q 383.5 278.1, 384.2 278.8 Q 384.8 279.6, 384.8 280.9 Q 384.8 282.2, 384.2 283.0 Q 383.5 283.7, 382.3 283.7 Q 381.1 283.7, 380.4 283.0 Q 379.8 282.2, 379.8 280.9 M 382.3 283.1 Q 383.2 283.1, 383.6 282.6 Q 384.1 282.0, 384.1 280.9 Q 384.1 279.8, 383.6 279.3 Q 383.2 278.7, 382.3 278.7 Q 381.5 278.7, 381.0 279.3 Q 380.6 279.8, 380.6 280.9 Q 380.6 282.0, 381.0 282.6 Q 381.5 283.1, 382.3 283.1 " fill="#FF0000"/>
<path class="atom-15" d="M 385.7 278.2 L 386.4 278.2 L 386.4 280.5 L 389.3 280.5 L 389.3 278.2 L 390.0 278.2 L 390.0 283.7 L 389.3 283.7 L 389.3 281.1 L 386.4 281.1 L 386.4 283.7 L 385.7 283.7 L 385.7 278.2 " fill="#FF0000"/>
<path class="atom-17" d="M 372.9 319.1 Q 372.9 317.8, 373.5 317.0 Q 374.2 316.3, 375.4 316.3 Q 376.6 316.3, 377.2 317.0 Q 377.9 317.8, 377.9 319.1 Q 377.9 320.4, 377.2 321.2 Q 376.6 321.9, 375.4 321.9 Q 374.2 321.9, 373.5 321.2 Q 372.9 320.4, 372.9 319.1 M 375.4 321.3 Q 376.2 321.3, 376.7 320.8 Q 377.1 320.2, 377.1 319.1 Q 377.1 318.0, 376.7 317.5 Q 376.2 316.9, 375.4 316.9 Q 374.5 316.9, 374.1 317.5 Q 373.6 318.0, 373.6 319.1 Q 373.6 320.2, 374.1 320.8 Q 374.5 321.3, 375.4 321.3 " fill="#FF0000"/>
<path class="atom-17" d="M 378.8 316.4 L 379.5 316.4 L 379.5 318.7 L 382.3 318.7 L 382.3 316.4 L 383.1 316.4 L 383.1 321.9 L 382.3 321.9 L 382.3 319.3 L 379.5 319.3 L 379.5 321.9 L 378.8 321.9 L 378.8 316.4 " fill="#FF0000"/>
<path class="legend" d="M 296.6 378.7 L 303.4 378.7 L 303.4 380.0 L 298.2 380.0 L 298.2 383.4 L 302.8 383.4 L 302.8 384.7 L 298.2 384.7 L 298.2 390.0 L 296.6 390.0 L 296.6 378.7 " fill="#000000"/>
</svg>