<svg xmlns="http://www.w3.org/2000/svg" xmlns:rdkit="http://www.rdkit.org/xml" xmlns:xlink="http://www.w3.org/1999/xlink" version="1.1" baseProfile="full" xml:space="preserve" width="800px" height="400px" viewBox="0 0 800 400">
<!-- END OF HEADER -->
<rect style="opacity:1.0;fill:#FFFFFF;stroke:none" width="800.0" height="400.0" x="0.0" y="0.0"> </rect>
<path class="bond-0 atom-0 atom-1" d="M 190.0,112.6 L 187.2,104.9" style="fill:none;fill-rule:evenodd;stroke:#000000;stroke-width:2.0px;stroke-linecap:butt;stroke-linejoin:miter;stroke-opacity:1"/>
<path class="bond-0 atom-0 atom-1" d="M 187.2,104.9 L 184.4,97.2" style="fill:none;fill-rule:evenodd;stroke:#FF0000;stroke-width:2.0px;stroke-linecap:butt;stroke-linejoin:miter;stroke-opacity:1"/>
<path class="bond-1 atom-1 atom-2" d="M 179.8,93.0 L 171.4,91.5" style="fill:none;fill-rule:evenodd;stroke:#FF0000;stroke-width:2.0px;stroke-linecap:butt;stroke-linejoin:miter;stroke-opacity:1"/>
<path class="bond-1 atom-1 atom-2" d="M 171.4,91.5 L 163.1,90.0" style="fill:none;fill-rule:evenodd;stroke:#000000;stroke-width:2.0px;stroke-linecap:butt;stroke-linejoin:miter;stroke-opacity:1"/>
<path class="bond-2 atom-2 atom-3" d="M 163.1,90.0 L 150.0,105.5" style="fill:none;fill-rule:evenodd;stroke:#000000;stroke-width:2.0px;stroke-linecap:butt;stroke-linejoin:miter;stroke-opacity:1"/>
<path class="bond-2 atom-2 atom-3" d="M 159.6,89.4 L 148.8,102.2" style="fill:none;fill-rule:evenodd;stroke:#000000;stroke-width:2.0px;stroke-linecap:butt;stroke-linejoin:miter;stroke-opacity:1"/>
<path class="bond-3 atom-3 atom-4" d="M 150.0,105.5 L 130.0,102.0" style="fill:none;fill-rule:evenodd;stroke:#000000;stroke-width:2.0px;stroke-linecap:butt;stroke-linejoin:miter;stroke-opacity:1"/>
<path class="bond-4 atom-4 atom-5" d="M 130.0,102.0 L 116.9,117.5" style="fill:none;fill-rule:evenodd;stroke:#000000;stroke-width:2.0px;stroke-linecap:butt;stroke-linejoin:miter;stroke-opacity:1"/>
<path class="bond-5 atom-5 atom-6" d="M 116.9,117.5 L 96.9,114.0" style="fill:none;fill-rule:evenodd;stroke:#000000;stroke-width:2.0px;stroke-linecap:butt;stroke-linejoin:miter;stroke-opacity:1"/>
<path class="bond-6 atom-6 atom-7" d="M 96.9,114.0 L 83.9,129.5" style="fill:none;fill-rule:evenodd;stroke:#000000;stroke-width:2.0px;stroke-linecap:butt;stroke-linejoin:miter;stroke-opacity:1"/>
<path class="bond-7 atom-6 atom-8" d="M 96.9,114.0 L 94.1,106.3" style="fill:none;fill-rule:evenodd;stroke:#000000;stroke-width:2.0px;stroke-linecap:butt;stroke-linejoin:miter;stroke-opacity:1"/>
<path class="bond-7 atom-6 atom-8" d="M 94.1,106.3 L 91.3,98.6" style="fill:none;fill-rule:evenodd;stroke:#FF0000;stroke-width:2.0px;stroke-linecap:butt;stroke-linejoin:miter;stroke-opacity:1"/>
<path class="bond-8 atom-8 atom-9" d="M 86.7,94.3 L 78.3,92.8" style="fill:none;fill-rule:evenodd;stroke:#FF0000;stroke-width:2.0px;stroke-linecap:butt;stroke-linejoin:miter;stroke-opacity:1"/>
<path class="bond-8 atom-8 atom-9" d="M 78.3,92.8 L 70.0,91.4" style="fill:none;fill-rule:evenodd;stroke:#000000;stroke-width:2.0px;stroke-linecap:butt;stroke-linejoin:miter;stroke-opacity:1"/>
<path class="bond-9 atom-9 atom-10" d="M 70.0,91.4 L 63.1,72.3" style="fill:none;fill-rule:evenodd;stroke:#000000;stroke-width:2.0px;stroke-linecap:butt;stroke-linejoin:miter;stroke-opacity:1"/>
<path class="bond-9 atom-9 atom-10" d="M 66.5,90.7 L 60.8,75.0" style="fill:none;fill-rule:evenodd;stroke:#000000;stroke-width:2.0px;stroke-linecap:butt;stroke-linejoin:miter;stroke-opacity:1"/>
<path class="bond-10 atom-10 atom-11" d="M 63.1,72.3 L 43.1,68.7" style="fill:none;fill-rule:evenodd;stroke:#000000;stroke-width:2.0px;stroke-linecap:butt;stroke-linejoin:miter;stroke-opacity:1"/>
<path class="bond-11 atom-11 atom-12" d="M 43.1,68.7 L 30.0,84.3" style="fill:none;fill-rule:evenodd;stroke:#000000;stroke-width:2.0px;stroke-linecap:butt;stroke-linejoin:miter;stroke-opacity:1"/>
<path class="bond-11 atom-11 atom-12" d="M 44.3,72.0 L 33.5,84.9" style="fill:none;fill-rule:evenodd;stroke:#000000;stroke-width:2.0px;stroke-linecap:butt;stroke-linejoin:miter;stroke-opacity:1"/>
<path class="bond-12 atom-12 atom-13" d="M 30.0,84.3 L 10.0,80.7" style="fill:none;fill-rule:evenodd;stroke:#000000;stroke-width:2.0px;stroke-linecap:butt;stroke-linejoin:miter;stroke-opacity:1"/>
<path class="bond-13 atom-12 atom-14" d="M 30.0,84.3 L 36.9,103.4" style="fill:none;fill-rule:evenodd;stroke:#000000;stroke-width:2.0px;stroke-linecap:butt;stroke-linejoin:miter;stroke-opacity:1"/>
<path class="bond-14 atom-14 atom-15" d="M 36.9,103.4 L 56.9,106.9" style="fill:none;fill-rule:evenodd;stroke:#000000;stroke-width:2.0px;stroke-linecap:butt;stroke-linejoin:miter;stroke-opacity:1"/>
<path class="bond-14 atom-14 atom-15" d="M 39.2,100.7 L 55.7,103.6" style="fill:none;fill-rule:evenodd;stroke:#000000;stroke-width:2.0px;stroke-linecap:butt;stroke-linejoin:miter;stroke-opacity:1"/>
<path class="bond-15 atom-4 atom-16" d="M 130.0,102.0 L 123.1,82.9" style="fill:none;fill-rule:evenodd;stroke:#000000;stroke-width:2.0px;stroke-linecap:butt;stroke-linejoin:miter;stroke-opacity:1"/>
<path class="bond-15 atom-4 atom-16" d="M 132.3,99.3 L 126.5,83.5" style="fill:none;fill-rule:evenodd;stroke:#000000;stroke-width:2.0px;stroke-linecap:butt;stroke-linejoin:miter;stroke-opacity:1"/>
<path class="bond-16 atom-16 atom-17" d="M 123.1,82.9 L 136.1,67.4" style="fill:none;fill-rule:evenodd;stroke:#000000;stroke-width:2.0px;stroke-linecap:butt;stroke-linejoin:miter;stroke-opacity:1"/>
<path class="bond-17 atom-17 atom-18" d="M 136.1,67.4 L 156.1,70.9" style="fill:none;fill-rule:evenodd;stroke:#000000;stroke-width:2.0px;stroke-linecap:butt;stroke-linejoin:miter;stroke-opacity:1"/>
<path class="bond-17 atom-17 atom-18" d="M 137.3,70.7 L 153.9,73.6" style="fill:none;fill-rule:evenodd;stroke:#000000;stroke-width:2.0px;stroke-linecap:butt;stroke-linejoin:miter;stroke-opacity:1"/>
<path class="bond-18 atom-18 atom-19" d="M 156.1,70.9 L 161.1,65.0" style="fill:none;fill-rule:evenodd;stroke:#000000;stroke-width:2.0px;stroke-linecap:butt;stroke-linejoin:miter;stroke-opacity:1"/>
<path class="bond-18 atom-18 atom-19" d="M 161.1,65.0 L 166.1,59.0" style="fill:none;fill-rule:evenodd;stroke:#FF0000;stroke-width:2.0px;stroke-linecap:butt;stroke-linejoin:miter;stroke-opacity:1"/>
<path class="bond-19 atom-18 atom-2" d="M 156.1,70.9 L 163.1,90.0" style="fill:none;fill-rule:evenodd;stroke:#000000;stroke-width:2.0px;stroke-linecap:butt;stroke-linejoin:miter;stroke-opacity:1"/>
<path class="bond-20 atom-15 atom-9" d="M 56.9,106.9 L 70.0,91.4" style="fill:none;fill-rule:evenodd;stroke:#000000;stroke-width:2.0px;stroke-linecap:butt;stroke-linejoin:miter;stroke-opacity:1"/>
<path d="M 150.7,104.8 L 150.0,105.5 L 149.0,105.4" style="fill:none;stroke:#000000;stroke-width:2.0px;stroke-linecap:butt;stroke-linejoin:miter;stroke-opacity:1;"/>
<path d="M 117.6,116.8 L 116.9,117.5 L 115.9,117.4" style="fill:none;stroke:#000000;stroke-width:2.0px;stroke-linecap:butt;stroke-linejoin:miter;stroke-opacity:1;"/>
<path d="M 63.4,73.2 L 63.1,72.3 L 62.1,72.1" style="fill:none;stroke:#000000;stroke-width:2.0px;stroke-linecap:butt;stroke-linejoin:miter;stroke-opacity:1;"/>
<path d="M 44.1,68.9 L 43.1,68.7 L 42.4,69.5" style="fill:none;stroke:#000000;stroke-width:2.0px;stroke-linecap:butt;stroke-linejoin:miter;stroke-opacity:1;"/>
<path d="M 36.6,102.4 L 36.9,103.4 L 37.9,103.5" style="fill:none;stroke:#000000;stroke-width:2.0px;stroke-linecap:butt;stroke-linejoin:miter;stroke-opacity:1;"/>
<path d="M 55.9,106.7 L 56.9,106.9 L 57.6,106.1" style="fill:none;stroke:#000000;stroke-width:2.0px;stroke-linecap:butt;stroke-linejoin:miter;stroke-opacity:1;"/>
<path d="M 123.4,83.9 L 123.1,82.9 L 123.7,82.1" style="fill:none;stroke:#000000;stroke-width:2.0px;stroke-linecap:butt;stroke-linejoin:miter;stroke-opacity:1;"/>
<path d="M 135.5,68.1 L 136.1,67.4 L 137.1,67.5" style="fill:none;stroke:#000000;stroke-width:2.0px;stroke-linecap:butt;stroke-linejoin:miter;stroke-opacity:1;"/>
<path class="atom-1" d="M 180.4 93.6 Q 180.4 92.2, 181.1 91.4 Q 181.8 90.6, 183.1 90.6 Q 184.3 90.6, 185.0 91.4 Q 185.7 92.2, 185.7 93.6 Q 185.7 95.0, 185.0 95.8 Q 184.3 96.5, 183.1 96.5 Q 181.8 96.5, 181.1 95.8 Q 180.4 95.0, 180.4 93.6 M 183.1 95.9 Q 183.9 95.9, 184.4 95.3 Q 184.9 94.7, 184.9 93.6 Q 184.9 92.4, 184.4 91.9 Q 183.9 91.3, 183.1 91.3 Q 182.2 91.3, 181.7 91.9 Q 181.2 92.4, 181.2 93.6 Q 181.2 94.7, 181.7 95.3 Q 182.2 95.9, 183.1 95.9 " fill="#FF0000"/>
<path class="atom-8" d="M 87.4 94.9 Q 87.4 93.5, 88.0 92.8 Q 88.7 92.0, 90.0 92.0 Q 91.3 92.0, 92.0 92.8 Q 92.6 93.5, 92.6 94.9 Q 92.6 96.3, 91.9 97.1 Q 91.3 97.9, 90.0 97.9 Q 88.7 97.9, 88.0 97.1 Q 87.4 96.3, 87.4 94.9 M 90.0 97.3 Q 90.9 97.3, 91.3 96.7 Q 91.8 96.1, 91.8 94.9 Q 91.8 93.8, 91.3 93.2 Q 90.9 92.6, 90.0 92.6 Q 89.1 92.6, 88.6 93.2 Q 88.2 93.8, 88.2 94.9 Q 88.2 96.1, 88.6 96.7 Q 89.1 97.3, 90.0 97.3 " fill="#FF0000"/>
<path class="atom-19" d="M 166.6 55.4 Q 166.6 54.0, 167.3 53.2 Q 167.9 52.5, 169.2 52.5 Q 170.5 52.5, 171.2 53.2 Q 171.9 54.0, 171.9 55.4 Q 171.9 56.8, 171.2 57.6 Q 170.5 58.4, 169.2 58.4 Q 167.9 58.4, 167.3 57.6 Q 166.6 56.8, 166.6 55.4 M 169.2 57.7 Q 170.1 57.7, 170.6 57.1 Q 171.0 56.5, 171.0 55.4 Q 171.0 54.2, 170.6 53.7 Q 170.1 53.1, 169.2 53.1 Q 168.3 53.1, 167.9 53.7 Q 167.4 54.2, 167.4 55.4 Q 167.4 56.5, 167.9 57.1 Q 168.3 57.7, 169.2 57.7 " fill="#FF0000"/>
<path class="atom-19" d="M 172.8 52.5 L 173.5 52.5 L 173.5 55.0 L 176.5 55.0 L 176.5 52.5 L 177.3 52.5 L 177.3 58.3 L 176.5 58.3 L 176.5 55.6 L 173.5 55.6 L 173.5 58.3 L 172.8 58.3 L 172.8 52.5 " fill="#FF0000"/>
<path class="legend" d="M 103.4 190.0 L 102.2 186.7 L 97.8 186.7 L 96.6 190.0 L 95.1 190.0 L 99.0 178.7 L 100.9 178.7 L 104.9 190.0 L 103.4 190.0 M 98.2 185.4 L 101.8 185.4 L 100.0 180.3 L 98.2 185.4 " fill="#000000"/>
<path class="bond-0 atom-0 atom-1" d="M 330.5,91.0 L 310.2,91.0" style="fill:none;fill-rule:evenodd;stroke:#000000;stroke-width:2.0px;stroke-linecap:butt;stroke-linejoin:miter;stroke-opacity:1"/>
<path class="bond-1 atom-1 atom-2" d="M 310.2,91.0 L 300.0,108.6" style="fill:none;fill-rule:evenodd;stroke:#000000;stroke-width:2.0px;stroke-linecap:butt;stroke-linejoin:miter;stroke-opacity:1"/>
<path class="bond-1 atom-1 atom-2" d="M 306.6,91.0 L 298.2,105.5" style="fill:none;fill-rule:evenodd;stroke:#000000;stroke-width:2.0px;stroke-linecap:butt;stroke-linejoin:miter;stroke-opacity:1"/>
<path class="bond-2 atom-2 atom-3" d="M 300.0,108.6 L 279.7,108.6" style="fill:none;fill-rule:evenodd;stroke:#000000;stroke-width:2.0px;stroke-linecap:butt;stroke-linejoin:miter;stroke-opacity:1"/>
<path class="bond-3 atom-3 atom-4" d="M 279.7,108.6 L 269.5,91.0" style="fill:none;fill-rule:evenodd;stroke:#000000;stroke-width:2.0px;stroke-linecap:butt;stroke-linejoin:miter;stroke-opacity:1"/>
<path class="bond-3 atom-3 atom-4" d="M 281.4,105.5 L 273.0,91.0" style="fill:none;fill-rule:evenodd;stroke:#000000;stroke-width:2.0px;stroke-linecap:butt;stroke-linejoin:miter;stroke-opacity:1"/>
<path class="bond-4 atom-4 atom-5" d="M 269.5,91.0 L 279.7,73.4" style="fill:none;fill-rule:evenodd;stroke:#000000;stroke-width:2.0px;stroke-linecap:butt;stroke-linejoin:miter;stroke-opacity:1"/>
<path class="bond-5 atom-5 atom-6" d="M 279.7,73.4 L 300.0,73.4" style="fill:none;fill-rule:evenodd;stroke:#000000;stroke-width:2.0px;stroke-linecap:butt;stroke-linejoin:miter;stroke-opacity:1"/>
<path class="bond-5 atom-5 atom-6" d="M 281.4,76.5 L 298.2,76.5" style="fill:none;fill-rule:evenodd;stroke:#000000;stroke-width:2.0px;stroke-linecap:butt;stroke-linejoin:miter;stroke-opacity:1"/>
<path class="bond-6 atom-6 atom-1" d="M 300.0,73.4 L 310.2,91.0" style="fill:none;fill-rule:evenodd;stroke:#000000;stroke-width:2.0px;stroke-linecap:butt;stroke-linejoin:miter;stroke-opacity:1"/>
<path d="M 300.5,107.7 L 300.0,108.6 L 299.0,108.6" style="fill:none;stroke:#000000;stroke-width:2.0px;stroke-linecap:butt;stroke-linejoin:miter;stroke-opacity:1;"/>
<path d="M 280.7,108.6 L 279.7,108.6 L 279.2,107.7" style="fill:none;stroke:#000000;stroke-width:2.0px;stroke-linecap:butt;stroke-linejoin:miter;stroke-opacity:1;"/>
<path d="M 270.0,91.9 L 269.5,91.0 L 270.0,90.1" style="fill:none;stroke:#000000;stroke-width:2.0px;stroke-linecap:butt;stroke-linejoin:miter;stroke-opacity:1;"/>
<path d="M 279.2,74.3 L 279.7,73.4 L 280.7,73.4" style="fill:none;stroke:#000000;stroke-width:2.0px;stroke-linecap:butt;stroke-linejoin:miter;stroke-opacity:1;"/>
<path d="M 299.0,73.4 L 300.0,73.4 L 300.5,74.3" style="fill:none;stroke:#000000;stroke-width:2.0px;stroke-linecap:butt;stroke-linejoin:miter;stroke-opacity:1;"/>
<path class="legend" d="M 301.7 184.0 Q 302.7 184.4, 303.3 185.0 Q 303.8 185.7, 303.8 186.7 Q 303.8 188.2, 302.8 189.1 Q 301.8 190.0, 300.0 190.0 L 296.2 190.0 L 296.2 178.7 L 299.5 178.7 Q 301.4 178.7, 302.4 179.5 Q 303.4 180.2, 303.4 181.7 Q 303.4 183.4, 301.7 184.0 M 297.7 180.0 L 297.7 183.5 L 299.5 183.5 Q 300.6 183.5, 301.2 183.1 Q 301.8 182.6, 301.8 181.7 Q 301.8 180.0, 299.5 180.0 L 297.7 180.0 M 300.0 188.7 Q 301.1 188.7, 301.7 188.2 Q 302.2 187.7, 302.2 186.7 Q 302.2 185.7, 301.6 185.3 Q 301.0 184.8, 299.7 184.8 L 297.7 184.8 L 297.7 188.7 L 300.0 188.7 " fill="#000000"/>
<path class="bond-0 atom-0 atom-1" d="M 464.8,96.1 L 482.4,85.9" style="fill:none;fill-rule:evenodd;stroke:#000000;stroke-width:2.0px;stroke-linecap:butt;stroke-linejoin:miter;stroke-opacity:1"/>
<path class="bond-1 atom-1 atom-2" d="M 482.4,85.9 L 500.0,96.1" style="fill:none;fill-rule:evenodd;stroke:#000000;stroke-width:2.0px;stroke-linecap:butt;stroke-linejoin:miter;stroke-opacity:1"/>
<path class="bond-2 atom-2 atom-3" d="M 500.0,96.1 L 517.6,85.9" style="fill:none;fill-rule:evenodd;stroke:#000000;stroke-width:2.0px;stroke-linecap:butt;stroke-linejoin:miter;stroke-opacity:1"/>
<path class="bond-3 atom-3 atom-4" d="M 517.6,85.9 L 535.2,96.1" style="fill:none;fill-rule:evenodd;stroke:#000000;stroke-width:2.0px;stroke-linecap:butt;stroke-linejoin:miter;stroke-opacity:1"/>
<path d="M 481.5,86.4 L 482.4,85.9 L 483.3,86.4" style="fill:none;stroke:#000000;stroke-width:2.0px;stroke-linecap:butt;stroke-linejoin:miter;stroke-opacity:1;"/>
<path d="M 499.1,95.6 L 500.0,96.1 L 500.9,95.6" style="fill:none;stroke:#000000;stroke-width:2.0px;stroke-linecap:butt;stroke-linejoin:miter;stroke-opacity:1;"/>
<path d="M 516.7,86.4 L 517.6,85.9 L 518.5,86.4" style="fill:none;stroke:#000000;stroke-width:2.0px;stroke-linecap:butt;stroke-linejoin:miter;stroke-opacity:1;"/>
<path class="legend" d="M 495.6 184.2 Q 495.6 181.4, 496.9 179.9 Q 498.3 178.4, 500.8 178.4 Q 503.1 178.4, 504.4 180.0 L 503.3 180.9 Q 502.4 179.7, 500.8 179.7 Q 499.1 179.7, 498.2 180.9 Q 497.3 182.0, 497.3 184.2 Q 497.3 186.4, 498.2 187.6 Q 499.1 188.7, 501.0 188.7 Q 502.2 188.7, 503.7 188.0 L 504.1 189.2 Q 503.5 189.6, 502.6 189.8 Q 501.7 190.0, 500.7 190.0 Q 498.3 190.0, 496.9 188.5 Q 495.6 187.0, 495.6 184.2 " fill="#000000"/>
<path class="bond-0 atom-0 atom-1" d="M 626.3,69.6 L 647.5,70.4" style="fill:none;fill-rule:evenodd;stroke:#000000;stroke-width:2.0px;stroke-linecap:butt;stroke-linejoin:miter;stroke-opacity:1"/>
<path class="bond-0 atom-0 atom-1" d="M 626.2,72.6 L 647.4,73.4" style="fill:none;fill-rule:evenodd;stroke:#000000;stroke-width:2.0px;stroke-linecap:butt;stroke-linejoin:miter;stroke-opacity:1;stroke-dasharray:6,4"/>
<path class="bond-1 atom-1 atom-2" d="M 646.5,71.9 L 650.8,65.1" style="fill:none;fill-rule:evenodd;stroke:#000000;stroke-width:2.0px;stroke-linecap:butt;stroke-linejoin:miter;stroke-opacity:1"/>
<path class="bond-1 atom-1 atom-2" d="M 650.8,65.1 L 655.0,58.3" style="fill:none;fill-rule:evenodd;stroke:#FF0000;stroke-width:2.0px;stroke-linecap:butt;stroke-linejoin:miter;stroke-opacity:1"/>
<path class="bond-2 atom-1 atom-3" d="M 646.5,71.9 L 656.0,89.8" style="fill:none;fill-rule:evenodd;stroke:#000000;stroke-width:2.0px;stroke-linecap:butt;stroke-linejoin:miter;stroke-opacity:1"/>
<path class="bond-2 atom-1 atom-3" d="M 644.7,74.9 L 652.5,89.7" style="fill:none;fill-rule:evenodd;stroke:#000000;stroke-width:2.0px;stroke-linecap:butt;stroke-linejoin:miter;stroke-opacity:1;stroke-dasharray:6,4"/>
<path class="bond-3 atom-3 atom-4" d="M 656.0,89.8 L 676.3,90.6" style="fill:none;fill-rule:evenodd;stroke:#000000;stroke-width:2.0px;stroke-linecap:butt;stroke-linejoin:miter;stroke-opacity:1"/>
<path class="bond-3 atom-3 atom-4" d="M 657.7,92.9 L 674.5,93.6" style="fill:none;fill-rule:evenodd;stroke:#000000;stroke-width:2.0px;stroke-linecap:butt;stroke-linejoin:miter;stroke-opacity:1;stroke-dasharray:6,4"/>
<path class="bond-4 atom-4 atom-5" d="M 676.3,90.6 L 685.8,108.5" style="fill:none;fill-rule:evenodd;stroke:#000000;stroke-width:2.0px;stroke-linecap:butt;stroke-linejoin:miter;stroke-opacity:1"/>
<path class="bond-4 atom-4 atom-5" d="M 674.5,93.6 L 683.1,110.0" style="fill:none;fill-rule:evenodd;stroke:#000000;stroke-width:2.0px;stroke-linecap:butt;stroke-linejoin:miter;stroke-opacity:1;stroke-dasharray:6,4"/>
<path class="bond-5 atom-5 atom-6" d="M 685.8,108.5 L 706.1,109.3" style="fill:none;fill-rule:evenodd;stroke:#000000;stroke-width:2.0px;stroke-linecap:butt;stroke-linejoin:miter;stroke-opacity:1"/>
<path class="bond-6 atom-6 atom-7" d="M 706.1,109.3 L 715.6,127.2" style="fill:none;fill-rule:evenodd;stroke:#000000;stroke-width:2.0px;stroke-linecap:butt;stroke-linejoin:miter;stroke-opacity:1"/>
<path class="bond-7 atom-7 atom-8" d="M 715.6,127.2 L 704.8,144.4" style="fill:none;fill-rule:evenodd;stroke:#000000;stroke-width:2.0px;stroke-linecap:butt;stroke-linejoin:miter;stroke-opacity:1"/>
<path class="bond-8 atom-7 atom-9" d="M 715.6,127.2 L 735.9,128.0" style="fill:none;fill-rule:evenodd;stroke:#000000;stroke-width:2.0px;stroke-linecap:butt;stroke-linejoin:miter;stroke-opacity:1"/>
<path class="bond-9 atom-9 atom-10" d="M 735.9,128.0 L 745.4,145.9" style="fill:none;fill-rule:evenodd;stroke:#000000;stroke-width:2.0px;stroke-linecap:butt;stroke-linejoin:miter;stroke-opacity:1"/>
<path class="bond-10 atom-9 atom-11" d="M 735.9,128.0 L 746.7,110.8" style="fill:none;fill-rule:evenodd;stroke:#000000;stroke-width:2.0px;stroke-linecap:butt;stroke-linejoin:miter;stroke-opacity:1"/>
<path class="bond-11 atom-11 atom-12" d="M 746.7,110.8 L 755.2,111.1" style="fill:none;fill-rule:evenodd;stroke:#000000;stroke-width:2.0px;stroke-linecap:butt;stroke-linejoin:miter;stroke-opacity:1"/>
<path class="bond-11 atom-11 atom-12" d="M 755.2,111.1 L 763.7,111.4" style="fill:none;fill-rule:evenodd;stroke:#FF0000;stroke-width:2.0px;stroke-linecap:butt;stroke-linejoin:miter;stroke-opacity:1"/>
<path class="bond-12 atom-11 atom-13" d="M 746.7,110.8 L 737.2,92.8" style="fill:none;fill-rule:evenodd;stroke:#000000;stroke-width:2.0px;stroke-linecap:butt;stroke-linejoin:miter;stroke-opacity:1"/>
<path class="bond-13 atom-13 atom-14" d="M 737.2,92.8 L 716.9,92.1" style="fill:none;fill-rule:evenodd;stroke:#000000;stroke-width:2.0px;stroke-linecap:butt;stroke-linejoin:miter;stroke-opacity:1"/>
<path class="bond-13 atom-13 atom-14" d="M 735.6,89.7 L 718.8,89.1" style="fill:none;fill-rule:evenodd;stroke:#000000;stroke-width:2.0px;stroke-linecap:butt;stroke-linejoin:miter;stroke-opacity:1"/>
<path class="bond-14 atom-14 atom-15" d="M 716.9,92.1 L 707.4,74.1" style="fill:none;fill-rule:evenodd;stroke:#000000;stroke-width:2.0px;stroke-linecap:butt;stroke-linejoin:miter;stroke-opacity:1"/>
<path class="bond-15 atom-15 atom-16" d="M 707.4,74.1 L 718.2,56.9" style="fill:none;fill-rule:evenodd;stroke:#000000;stroke-width:2.0px;stroke-linecap:butt;stroke-linejoin:miter;stroke-opacity:1"/>
<path class="bond-15 atom-15 atom-16" d="M 710.9,74.3 L 719.9,60.0" style="fill:none;fill-rule:evenodd;stroke:#000000;stroke-width:2.0px;stroke-linecap:butt;stroke-linejoin:miter;stroke-opacity:1"/>
<path class="bond-16 atom-16 atom-17" d="M 718.2,56.9 L 714.4,49.8" style="fill:none;fill-rule:evenodd;stroke:#000000;stroke-width:2.0px;stroke-linecap:butt;stroke-linejoin:miter;stroke-opacity:1"/>
<path class="bond-16 atom-16 atom-17" d="M 714.4,49.8 L 710.7,42.6" style="fill:none;fill-rule:evenodd;stroke:#FF0000;stroke-width:2.0px;stroke-linecap:butt;stroke-linejoin:miter;stroke-opacity:1"/>
<path class="bond-17 atom-16 atom-18" d="M 718.2,56.9 L 738.5,57.7" style="fill:none;fill-rule:evenodd;stroke:#000000;stroke-width:2.0px;stroke-linecap:butt;stroke-linejoin:miter;stroke-opacity:1"/>
<path class="bond-18 atom-18 atom-19" d="M 738.5,57.7 L 742.8,50.9" style="fill:none;fill-rule:evenodd;stroke:#000000;stroke-width:2.0px;stroke-linecap:butt;stroke-linejoin:miter;stroke-opacity:1"/>
<path class="bond-18 atom-18 atom-19" d="M 742.8,50.9 L 747.0,44.1" style="fill:none;fill-rule:evenodd;stroke:#FF0000;stroke-width:2.0px;stroke-linecap:butt;stroke-linejoin:miter;stroke-opacity:1"/>
<path class="bond-19 atom-19 atom-20" d="M 752.6,40.6 L 761.1,40.9" style="fill:none;fill-rule:evenodd;stroke:#FF0000;stroke-width:2.0px;stroke-linecap:butt;stroke-linejoin:miter;stroke-opacity:1"/>
<path class="bond-19 atom-19 atom-20" d="M 761.1,40.9 L 769.6,41.2" style="fill:none;fill-rule:evenodd;stroke:#000000;stroke-width:2.0px;stroke-linecap:butt;stroke-linejoin:miter;stroke-opacity:1"/>
<path class="bond-20 atom-18 atom-21" d="M 738.5,57.7 L 748.0,75.6" style="fill:none;fill-rule:evenodd;stroke:#000000;stroke-width:2.0px;stroke-linecap:butt;stroke-linejoin:miter;stroke-opacity:1"/>
<path class="bond-20 atom-18 atom-21" d="M 736.7,60.7 L 744.5,75.5" style="fill:none;fill-rule:evenodd;stroke:#000000;stroke-width:2.0px;stroke-linecap:butt;stroke-linejoin:miter;stroke-opacity:1"/>
<path class="bond-21 atom-3 atom-22" d="M 656.0,89.8 L 651.8,96.6" style="fill:none;fill-rule:evenodd;stroke:#000000;stroke-width:2.0px;stroke-linecap:butt;stroke-linejoin:miter;stroke-opacity:1"/>
<path class="bond-21 atom-3 atom-22" d="M 651.8,96.6 L 647.5,103.5" style="fill:none;fill-rule:evenodd;stroke:#FF0000;stroke-width:2.0px;stroke-linecap:butt;stroke-linejoin:miter;stroke-opacity:1"/>
<path class="bond-22 atom-22 atom-23" d="M 641.9,106.9 L 633.4,106.6" style="fill:none;fill-rule:evenodd;stroke:#FF0000;stroke-width:2.0px;stroke-linecap:butt;stroke-linejoin:miter;stroke-opacity:1"/>
<path class="bond-22 atom-22 atom-23" d="M 633.4,106.6 L 624.9,106.3" style="fill:none;fill-rule:evenodd;stroke:#000000;stroke-width:2.0px;stroke-linecap:butt;stroke-linejoin:miter;stroke-opacity:1"/>
<path class="bond-23 atom-21 atom-13" d="M 748.0,75.6 L 737.2,92.8" style="fill:none;fill-rule:evenodd;stroke:#000000;stroke-width:2.0px;stroke-linecap:butt;stroke-linejoin:miter;stroke-opacity:1"/>
<path d="M 675.3,90.5 L 676.3,90.6 L 676.8,91.5" style="fill:none;stroke:#000000;stroke-width:2.0px;stroke-linecap:butt;stroke-linejoin:miter;stroke-opacity:1;"/>
<path d="M 685.4,107.6 L 685.8,108.5 L 686.8,108.6" style="fill:none;stroke:#000000;stroke-width:2.0px;stroke-linecap:butt;stroke-linejoin:miter;stroke-opacity:1;"/>
<path d="M 705.1,109.2 L 706.1,109.3 L 706.6,110.2" style="fill:none;stroke:#000000;stroke-width:2.0px;stroke-linecap:butt;stroke-linejoin:miter;stroke-opacity:1;"/>
<path d="M 717.9,92.1 L 716.9,92.1 L 716.5,91.2" style="fill:none;stroke:#000000;stroke-width:2.0px;stroke-linecap:butt;stroke-linejoin:miter;stroke-opacity:1;"/>
<path d="M 707.9,75.0 L 707.4,74.1 L 708.0,73.3" style="fill:none;stroke:#000000;stroke-width:2.0px;stroke-linecap:butt;stroke-linejoin:miter;stroke-opacity:1;"/>
<path d="M 747.6,74.7 L 748.0,75.6 L 747.5,76.5" style="fill:none;stroke:#000000;stroke-width:2.0px;stroke-linecap:butt;stroke-linejoin:miter;stroke-opacity:1;"/>
<path class="atom-2" d="M 654.7 54.7 Q 654.7 53.3, 655.4 52.5 Q 656.1 51.8, 657.3 51.8 Q 658.6 51.8, 659.3 52.5 Q 660.0 53.3, 660.0 54.7 Q 660.0 56.1, 659.3 56.9 Q 658.6 57.7, 657.3 57.7 Q 656.1 57.7, 655.4 56.9 Q 654.7 56.1, 654.7 54.7 M 657.3 57.0 Q 658.2 57.0, 658.7 56.4 Q 659.2 55.8, 659.2 54.7 Q 659.2 53.6, 658.7 53.0 Q 658.2 52.4, 657.3 52.4 Q 656.5 52.4, 656.0 53.0 Q 655.5 53.5, 655.5 54.7 Q 655.5 55.8, 656.0 56.4 Q 656.5 57.0, 657.3 57.0 " fill="#FF0000"/>
<path class="atom-2" d="M 660.9 51.8 L 661.6 51.8 L 661.6 54.3 L 664.6 54.3 L 664.6 51.8 L 665.4 51.8 L 665.4 57.6 L 664.6 57.6 L 664.6 54.9 L 661.6 54.9 L 661.6 57.6 L 660.9 57.6 L 660.9 51.8 " fill="#FF0000"/>
<path class="atom-12" d="M 764.4 111.5 Q 764.4 110.2, 765.1 109.4 Q 765.7 108.6, 767.0 108.6 Q 768.3 108.6, 769.0 109.4 Q 769.7 110.2, 769.7 111.5 Q 769.7 112.9, 769.0 113.7 Q 768.3 114.5, 767.0 114.5 Q 765.8 114.5, 765.1 113.7 Q 764.4 113.0, 764.4 111.5 M 767.0 113.9 Q 767.9 113.9, 768.4 113.3 Q 768.9 112.7, 768.9 111.5 Q 768.9 110.4, 768.4 109.9 Q 767.9 109.3, 767.0 109.3 Q 766.1 109.3, 765.7 109.8 Q 765.2 110.4, 765.2 111.5 Q 765.2 112.7, 765.7 113.3 Q 766.1 113.9, 767.0 113.9 " fill="#FF0000"/>
<path class="atom-12" d="M 770.6 108.7 L 771.3 108.7 L 771.3 111.1 L 774.3 111.1 L 774.3 108.7 L 775.1 108.7 L 775.1 114.4 L 774.3 114.4 L 774.3 111.8 L 771.3 111.8 L 771.3 114.4 L 770.6 114.4 L 770.6 108.7 " fill="#FF0000"/>
<path class="atom-17" d="M 700.4 36.1 L 701.2 36.1 L 701.2 38.6 L 704.1 38.6 L 704.1 36.1 L 704.9 36.1 L 704.9 41.9 L 704.1 41.9 L 704.1 39.2 L 701.2 39.2 L 701.2 41.9 L 700.4 41.9 L 700.4 36.1 " fill="#FF0000"/>
<path class="atom-17" d="M 706.1 39.0 Q 706.1 37.6, 706.8 36.8 Q 707.5 36.1, 708.7 36.1 Q 710.0 36.1, 710.7 36.8 Q 711.4 37.6, 711.4 39.0 Q 711.4 40.4, 710.7 41.2 Q 710.0 42.0, 708.7 42.0 Q 707.5 42.0, 706.8 41.2 Q 706.1 40.4, 706.1 39.0 M 708.7 41.3 Q 709.6 41.3, 710.1 40.7 Q 710.6 40.1, 710.6 39.0 Q 710.6 37.9, 710.1 37.3 Q 709.6 36.7, 708.7 36.7 Q 707.9 36.7, 707.4 37.3 Q 706.9 37.8, 706.9 39.0 Q 706.9 40.1, 707.4 40.7 Q 707.9 41.3, 708.7 41.3 " fill="#FF0000"/>
<path class="atom-19" d="M 746.7 40.5 Q 746.7 39.1, 747.4 38.3 Q 748.1 37.6, 749.3 37.6 Q 750.6 37.6, 751.3 38.3 Q 752.0 39.1, 752.0 40.5 Q 752.0 41.9, 751.3 42.7 Q 750.6 43.5, 749.3 43.5 Q 748.1 43.5, 747.4 42.7 Q 746.7 41.9, 746.7 40.5 M 749.3 42.8 Q 750.2 42.8, 750.7 42.2 Q 751.2 41.6, 751.2 40.5 Q 751.2 39.4, 750.7 38.8 Q 750.2 38.2, 749.3 38.2 Q 748.4 38.2, 748.0 38.8 Q 747.5 39.3, 747.5 40.5 Q 747.5 41.6, 748.0 42.2 Q 748.4 42.8, 749.3 42.8 " fill="#FF0000"/>
<path class="atom-22" d="M 642.6 107.0 Q 642.6 105.7, 643.3 104.9 Q 644.0 104.1, 645.2 104.1 Q 646.5 104.1, 647.2 104.9 Q 647.9 105.7, 647.9 107.0 Q 647.9 108.4, 647.2 109.2 Q 646.5 110.0, 645.2 110.0 Q 644.0 110.0, 643.3 109.2 Q 642.6 108.5, 642.6 107.0 M 645.2 109.4 Q 646.1 109.4, 646.6 108.8 Q 647.1 108.2, 647.1 107.0 Q 647.1 105.9, 646.6 105.4 Q 646.1 104.8, 645.2 104.8 Q 644.4 104.8, 643.9 105.3 Q 643.4 105.9, 643.4 107.0 Q 643.4 108.2, 643.9 108.8 Q 644.4 109.4, 645.2 109.4 " fill="#FF0000"/>
<path class="legend" d="M 699.2 178.7 Q 701.7 178.7, 703.1 180.2 Q 704.4 181.6, 704.4 184.3 Q 704.4 187.0, 703.1 188.5 Q 701.7 190.0, 699.2 190.0 L 695.6 190.0 L 695.6 178.7 L 699.2 178.7 M 699.2 188.7 Q 701.0 188.7, 701.9 187.6 Q 702.8 186.5, 702.8 184.3 Q 702.8 182.1, 701.9 181.0 Q 701.0 180.0, 699.2 180.0 L 697.1 180.0 L 697.1 188.7 L 699.2 188.7 " fill="#000000"/>
<path class="bond-0 atom-0 atom-1" d="M 82.4,294.8 L 100.0,284.6" style="fill:none;fill-rule:evenodd;stroke:#000000;stroke-width:2.0px;stroke-linecap:butt;stroke-linejoin:miter;stroke-opacity:1"/>
<path class="bond-0 atom-0 atom-1" d="M 83.9,297.4 L 100.0,288.1" style="fill:none;fill-rule:evenodd;stroke:#000000;stroke-width:2.0px;stroke-linecap:butt;stroke-linejoin:miter;stroke-opacity:1;stroke-dasharray:6,4"/>
<path class="bond-1 atom-1 atom-2" d="M 100.0,284.6 L 117.6,294.8" style="fill:none;fill-rule:evenodd;stroke:#000000;stroke-width:2.0px;stroke-linecap:butt;stroke-linejoin:miter;stroke-opacity:1"/>
<path d="M 99.1,285.1 L 100.0,284.6 L 100.9,285.1" style="fill:none;stroke:#000000;stroke-width:2.0px;stroke-linecap:butt;stroke-linejoin:miter;stroke-opacity:1;"/>
<path class="legend" d="M 96.5 378.7 L 103.3 378.7 L 103.3 380.0 L 98.1 380.0 L 98.1 383.4 L 102.8 383.4 L 102.8 384.7 L 98.1 384.7 L 98.1 388.7 L 103.5 388.7 L 103.5 390.0 L 96.5 390.0 L 96.5 378.7 " fill="#000000"/>
<path class="bond-0 atom-0 atom-1" d="M 253.7,260.2 L 258.3,266.8" style="fill:none;fill-rule:evenodd;stroke:#000000;stroke-width:2.0px;stroke-linecap:butt;stroke-linejoin:miter;stroke-opacity:1"/>
<path class="bond-0 atom-0 atom-1" d="M 258.3,266.8 L 262.8,273.3" style="fill:none;fill-rule:evenodd;stroke:#FF0000;stroke-width:2.0px;stroke-linecap:butt;stroke-linejoin:miter;stroke-opacity:1"/>
<path class="bond-1 atom-1 atom-2" d="M 268.6,276.6 L 277.1,275.9" style="fill:none;fill-rule:evenodd;stroke:#FF0000;stroke-width:2.0px;stroke-linecap:butt;stroke-linejoin:miter;stroke-opacity:1"/>
<path class="bond-1 atom-1 atom-2" d="M 277.1,275.9 L 285.6,275.2" style="fill:none;fill-rule:evenodd;stroke:#000000;stroke-width:2.0px;stroke-linecap:butt;stroke-linejoin:miter;stroke-opacity:1"/>
<path class="bond-2 atom-2 atom-3" d="M 285.6,275.2 L 294.2,256.8" style="fill:none;fill-rule:evenodd;stroke:#000000;stroke-width:2.0px;stroke-linecap:butt;stroke-linejoin:miter;stroke-opacity:1"/>
<path class="bond-2 atom-2 atom-3" d="M 289.1,274.9 L 296.2,259.7" style="fill:none;fill-rule:evenodd;stroke:#000000;stroke-width:2.0px;stroke-linecap:butt;stroke-linejoin:miter;stroke-opacity:1"/>
<path class="bond-3 atom-3 atom-4" d="M 294.2,256.8 L 314.4,255.1" style="fill:none;fill-rule:evenodd;stroke:#000000;stroke-width:2.0px;stroke-linecap:butt;stroke-linejoin:miter;stroke-opacity:1"/>
<path class="bond-4 atom-4 atom-5" d="M 314.4,255.1 L 326.0,271.8" style="fill:none;fill-rule:evenodd;stroke:#000000;stroke-width:2.0px;stroke-linecap:butt;stroke-linejoin:miter;stroke-opacity:1"/>
<path class="bond-4 atom-4 atom-5" d="M 312.9,258.3 L 322.5,272.1" style="fill:none;fill-rule:evenodd;stroke:#000000;stroke-width:2.0px;stroke-linecap:butt;stroke-linejoin:miter;stroke-opacity:1"/>
<path class="bond-5 atom-5 atom-6" d="M 326.0,271.8 L 346.3,270.1" style="fill:none;fill-rule:evenodd;stroke:#000000;stroke-width:2.0px;stroke-linecap:butt;stroke-linejoin:miter;stroke-opacity:1"/>
<path class="bond-6 atom-5 atom-7" d="M 326.0,271.8 L 317.4,290.1" style="fill:none;fill-rule:evenodd;stroke:#000000;stroke-width:2.0px;stroke-linecap:butt;stroke-linejoin:miter;stroke-opacity:1"/>
<path class="bond-7 atom-7 atom-8" d="M 317.4,290.1 L 297.2,291.9" style="fill:none;fill-rule:evenodd;stroke:#000000;stroke-width:2.0px;stroke-linecap:butt;stroke-linejoin:miter;stroke-opacity:1"/>
<path class="bond-7 atom-7 atom-8" d="M 315.4,287.3 L 298.7,288.7" style="fill:none;fill-rule:evenodd;stroke:#000000;stroke-width:2.0px;stroke-linecap:butt;stroke-linejoin:miter;stroke-opacity:1"/>
<path class="bond-8 atom-8 atom-9" d="M 297.2,291.9 L 293.7,299.3" style="fill:none;fill-rule:evenodd;stroke:#000000;stroke-width:2.0px;stroke-linecap:butt;stroke-linejoin:miter;stroke-opacity:1"/>
<path class="bond-8 atom-8 atom-9" d="M 293.7,299.3 L 290.2,306.7" style="fill:none;fill-rule:evenodd;stroke:#FF0000;stroke-width:2.0px;stroke-linecap:butt;stroke-linejoin:miter;stroke-opacity:1"/>
<path class="bond-9 atom-9 atom-10" d="M 291.1,313.9 L 295.6,320.4" style="fill:none;fill-rule:evenodd;stroke:#FF0000;stroke-width:2.0px;stroke-linecap:butt;stroke-linejoin:miter;stroke-opacity:1"/>
<path class="bond-9 atom-9 atom-10" d="M 295.6,320.4 L 300.1,326.9" style="fill:none;fill-rule:evenodd;stroke:#000000;stroke-width:2.0px;stroke-linecap:butt;stroke-linejoin:miter;stroke-opacity:1"/>
<path class="bond-10 atom-8 atom-2" d="M 297.2,291.9 L 285.6,275.2" style="fill:none;fill-rule:evenodd;stroke:#000000;stroke-width:2.0px;stroke-linecap:butt;stroke-linejoin:miter;stroke-opacity:1"/>
<path d="M 293.8,257.7 L 294.2,256.8 L 295.2,256.7" style="fill:none;stroke:#000000;stroke-width:2.0px;stroke-linecap:butt;stroke-linejoin:miter;stroke-opacity:1;"/>
<path d="M 313.4,255.2 L 314.4,255.1 L 315.0,255.9" style="fill:none;stroke:#000000;stroke-width:2.0px;stroke-linecap:butt;stroke-linejoin:miter;stroke-opacity:1;"/>
<path d="M 317.8,289.2 L 317.4,290.1 L 316.4,290.2" style="fill:none;stroke:#000000;stroke-width:2.0px;stroke-linecap:butt;stroke-linejoin:miter;stroke-opacity:1;"/>
<path class="atom-1" d="M 262.7 276.9 Q 262.7 275.5, 263.4 274.7 Q 264.0 274.0, 265.3 274.0 Q 266.6 274.0, 267.3 274.7 Q 268.0 275.5, 268.0 276.9 Q 268.0 278.3, 267.3 279.1 Q 266.6 279.9, 265.3 279.9 Q 264.1 279.9, 263.4 279.1 Q 262.7 278.3, 262.7 276.9 M 265.3 279.2 Q 266.2 279.2, 266.7 278.6 Q 267.1 278.1, 267.1 276.9 Q 267.1 275.8, 266.7 275.2 Q 266.2 274.6, 265.3 274.6 Q 264.4 274.6, 264.0 275.2 Q 263.5 275.8, 263.5 276.9 Q 263.5 278.1, 264.0 278.6 Q 264.4 279.2, 265.3 279.2 " fill="#FF0000"/>
<path class="atom-9" d="M 285.9 310.3 Q 285.9 308.9, 286.6 308.1 Q 287.2 307.3, 288.5 307.3 Q 289.8 307.3, 290.5 308.1 Q 291.2 308.9, 291.2 310.3 Q 291.2 311.6, 290.5 312.4 Q 289.8 313.2, 288.5 313.2 Q 287.2 313.2, 286.6 312.4 Q 285.9 311.7, 285.9 310.3 M 288.5 312.6 Q 289.4 312.6, 289.9 312.0 Q 290.3 311.4, 290.3 310.3 Q 290.3 309.1, 289.9 308.6 Q 289.4 308.0, 288.5 308.0 Q 287.6 308.0, 287.2 308.5 Q 286.7 309.1, 286.7 310.3 Q 286.7 311.4, 287.2 312.0 Q 287.6 312.6, 288.5 312.6 " fill="#FF0000"/>
<path class="legend" d="M 296.6 378.7 L 303.4 378.7 L 303.4 380.0 L 298.2 380.0 L 298.2 383.4 L 302.8 383.4 L 302.8 384.7 L 298.2 384.7 L 298.2 390.0 L 296.6 390.0 L 296.6 378.7 " fill="#000000"/>
<path class="bond-0 atom-0 atom-1" d="M 482.4,296.1 L 500.0,285.9" style="fill:none;fill-rule:evenodd;stroke:#000000;stroke-width:2.0px;stroke-linecap:butt;stroke-linejoin:miter;stroke-opacity:1"/>
<path class="bond-1 atom-1 atom-2" d="M 500.0,285.9 L 517.6,296.1" style="fill:none;fill-rule:evenodd;stroke:#000000;stroke-width:2.0px;stroke-linecap:butt;stroke-linejoin:miter;stroke-opacity:1"/>
<path d="M 499.1,286.4 L 500.0,285.9 L 500.9,286.4" style="fill:none;stroke:#000000;stroke-width:2.0px;stroke-linecap:butt;stroke-linejoin:miter;stroke-opacity:1;"/>
<path class="legend" d="M 504.6 384.3 L 504.6 389.1 Q 502.9 390.0, 500.6 390.0 Q 498.1 390.0, 496.8 388.5 Q 495.4 387.0, 495.4 384.2 Q 495.4 381.4, 496.8 379.9 Q 498.1 378.4, 500.6 378.4 Q 501.9 378.4, 502.9 378.8 Q 503.8 379.2, 504.5 380.0 L 503.5 380.9 Q 502.4 379.7, 500.6 379.7 Q 498.9 379.7, 498.0 380.8 Q 497.1 382.0, 497.1 384.2 Q 497.1 386.4, 498.0 387.6 Q 499.0 388.7, 500.8 388.7 Q 502.0 388.7, 503.0 388.3 L 503.0 384.3 L 504.6 384.3 " fill="#000000"/>
<path class="bond-0 atom-0 atom-1" d="M 789.1,319.9 L 777.5,303.3" style="fill:none;fill-rule:evenodd;stroke:#000000;stroke-width:2.0px;stroke-linecap:butt;stroke-linejoin:miter;stroke-opacity:1"/>
<path class="bond-1 atom-1 atom-2" d="M 777.5,303.3 L 757.3,305.0" style="fill:none;fill-rule:evenodd;stroke:#000000;stroke-width:2.0px;stroke-linecap:butt;stroke-linejoin:miter;stroke-opacity:1"/>
<path class="bond-2 atom-2 atom-3" d="M 757.3,305.0 L 745.7,288.3" style="fill:none;fill-rule:evenodd;stroke:#000000;stroke-width:2.0px;stroke-linecap:butt;stroke-linejoin:miter;stroke-opacity:1"/>
<path class="bond-3 atom-3 atom-4" d="M 745.7,288.3 L 725.4,290.1" style="fill:none;fill-rule:evenodd;stroke:#000000;stroke-width:2.0px;stroke-linecap:butt;stroke-linejoin:miter;stroke-opacity:1"/>
<path class="bond-4 atom-4 atom-5" d="M 725.4,290.1 L 727.1,310.3" style="fill:none;fill-rule:evenodd;stroke:#000000;stroke-width:2.0px;stroke-linecap:butt;stroke-linejoin:miter;stroke-opacity:1"/>
<path class="bond-5 atom-4 atom-6" d="M 725.4,290.1 L 723.7,269.8" style="fill:none;fill-rule:evenodd;stroke:#000000;stroke-width:2.0px;stroke-linecap:butt;stroke-linejoin:miter;stroke-opacity:1"/>
<path class="bond-6 atom-4 atom-7" d="M 725.4,290.1 L 705.2,291.8" style="fill:none;fill-rule:evenodd;stroke:#000000;stroke-width:2.0px;stroke-linecap:butt;stroke-linejoin:miter;stroke-opacity:1"/>
<path class="bond-7 atom-7 atom-8" d="M 705.2,291.8 L 696.6,310.2" style="fill:none;fill-rule:evenodd;stroke:#000000;stroke-width:2.0px;stroke-linecap:butt;stroke-linejoin:miter;stroke-opacity:1"/>
<path class="bond-8 atom-8 atom-9" d="M 696.6,310.2 L 676.3,311.9" style="fill:none;fill-rule:evenodd;stroke:#000000;stroke-width:2.0px;stroke-linecap:butt;stroke-linejoin:miter;stroke-opacity:1"/>
<path class="bond-9 atom-9 atom-10" d="M 676.3,311.9 L 664.7,295.2" style="fill:none;fill-rule:evenodd;stroke:#000000;stroke-width:2.0px;stroke-linecap:butt;stroke-linejoin:miter;stroke-opacity:1"/>
<path class="bond-10 atom-10 atom-11" d="M 664.7,295.2 L 654.2,312.6" style="fill:none;fill-rule:evenodd;stroke:#000000;stroke-width:2.0px;stroke-linecap:butt;stroke-linejoin:miter;stroke-opacity:1"/>
<path class="bond-11 atom-10 atom-12" d="M 664.7,295.2 L 644.5,292.7" style="fill:none;fill-rule:evenodd;stroke:#000000;stroke-width:2.0px;stroke-linecap:butt;stroke-linejoin:miter;stroke-opacity:1"/>
<path class="bond-12 atom-12 atom-13" d="M 644.5,292.7 L 630.7,307.6" style="fill:none;fill-rule:evenodd;stroke:#000000;stroke-width:2.0px;stroke-linecap:butt;stroke-linejoin:miter;stroke-opacity:1"/>
<path class="bond-13 atom-13 atom-14" d="M 630.7,307.6 L 610.9,302.9" style="fill:none;fill-rule:evenodd;stroke:#000000;stroke-width:2.0px;stroke-linecap:butt;stroke-linejoin:miter;stroke-opacity:1"/>
<path class="bond-14 atom-13 atom-15" d="M 630.7,307.6 L 636.6,327.0" style="fill:none;fill-rule:evenodd;stroke:#000000;stroke-width:2.0px;stroke-linecap:butt;stroke-linejoin:miter;stroke-opacity:1"/>
<path class="bond-15 atom-12 atom-16" d="M 644.5,292.7 L 640.7,272.8" style="fill:none;fill-rule:evenodd;stroke:#000000;stroke-width:2.0px;stroke-linecap:butt;stroke-linejoin:miter;stroke-opacity:1"/>
<path class="bond-16 atom-16 atom-17" d="M 640.7,272.8 L 658.5,263.0" style="fill:none;fill-rule:evenodd;stroke:#000000;stroke-width:2.0px;stroke-linecap:butt;stroke-linejoin:miter;stroke-opacity:1"/>
<path class="bond-17 atom-17 atom-18" d="M 658.5,263.0 L 673.3,276.9" style="fill:none;fill-rule:evenodd;stroke:#000000;stroke-width:2.0px;stroke-linecap:butt;stroke-linejoin:miter;stroke-opacity:1"/>
<path class="bond-18 atom-18 atom-19" d="M 673.3,276.9 L 693.6,275.1" style="fill:none;fill-rule:evenodd;stroke:#000000;stroke-width:2.0px;stroke-linecap:butt;stroke-linejoin:miter;stroke-opacity:1"/>
<path class="bond-19 atom-19 atom-20" d="M 693.6,275.1 L 702.2,256.7" style="fill:none;fill-rule:evenodd;stroke:#000000;stroke-width:2.0px;stroke-linecap:butt;stroke-linejoin:miter;stroke-opacity:1"/>
<path class="bond-20 atom-20 atom-21" d="M 702.2,256.7 L 722.4,255.0" style="fill:none;fill-rule:evenodd;stroke:#000000;stroke-width:2.0px;stroke-linecap:butt;stroke-linejoin:miter;stroke-opacity:1"/>
<path class="bond-21 atom-19 atom-7" d="M 693.6,275.1 L 705.2,291.8" style="fill:none;fill-rule:evenodd;stroke:#000000;stroke-width:2.0px;stroke-linecap:butt;stroke-linejoin:miter;stroke-opacity:1"/>
<path class="bond-22 atom-18 atom-10" d="M 673.3,276.9 L 664.7,295.2" style="fill:none;fill-rule:evenodd;stroke:#000000;stroke-width:2.0px;stroke-linecap:butt;stroke-linejoin:miter;stroke-opacity:1"/>
<path d="M 778.1,304.1 L 777.5,303.3 L 776.5,303.4" style="fill:none;stroke:#000000;stroke-width:2.0px;stroke-linecap:butt;stroke-linejoin:miter;stroke-opacity:1;"/>
<path d="M 758.3,304.9 L 757.3,305.0 L 756.7,304.2" style="fill:none;stroke:#000000;stroke-width:2.0px;stroke-linecap:butt;stroke-linejoin:miter;stroke-opacity:1;"/>
<path d="M 746.2,289.2 L 745.7,288.3 L 744.6,288.4" style="fill:none;stroke:#000000;stroke-width:2.0px;stroke-linecap:butt;stroke-linejoin:miter;stroke-opacity:1;"/>
<path d="M 697.0,309.3 L 696.6,310.2 L 695.5,310.3" style="fill:none;stroke:#000000;stroke-width:2.0px;stroke-linecap:butt;stroke-linejoin:miter;stroke-opacity:1;"/>
<path d="M 677.3,311.8 L 676.3,311.9 L 675.7,311.1" style="fill:none;stroke:#000000;stroke-width:2.0px;stroke-linecap:butt;stroke-linejoin:miter;stroke-opacity:1;"/>
<path d="M 640.9,273.8 L 640.7,272.8 L 641.6,272.3" style="fill:none;stroke:#000000;stroke-width:2.0px;stroke-linecap:butt;stroke-linejoin:miter;stroke-opacity:1;"/>
<path d="M 657.6,263.5 L 658.5,263.0 L 659.2,263.7" style="fill:none;stroke:#000000;stroke-width:2.0px;stroke-linecap:butt;stroke-linejoin:miter;stroke-opacity:1;"/>
<path d="M 701.8,257.7 L 702.2,256.7 L 703.2,256.7" style="fill:none;stroke:#000000;stroke-width:2.0px;stroke-linecap:butt;stroke-linejoin:miter;stroke-opacity:1;"/>
<path class="legend" d="M 695.6 378.7 L 697.1 378.7 L 697.1 383.5 L 702.9 383.5 L 702.9 378.7 L 704.4 378.7 L 704.4 390.0 L 702.9 390.0 L 702.9 384.8 L 697.1 384.8 L 697.1 390.0 L 695.6 390.0 L 695.6 378.7 " fill="#000000"/>
</svg>