<svg xmlns="http://www.w3.org/2000/svg" xmlns:rdkit="http://www.rdkit.org/xml" xmlns:xlink="http://www.w3.org/1999/xlink" version="1.1" baseProfile="full" xml:space="preserve" width="800px" height="200px" viewBox="0 0 800 200">
<!-- END OF HEADER -->
<rect style="opacity:1.0;fill:#FFFFFF;stroke:none" width="800.0" height="200.0" x="0.0" y="0.0"> </rect>
<path class="bond-0 atom-0 atom-1" d="M 60.3,89.9 L 69.1,87.8" style="fill:none;fill-rule:evenodd;stroke:#0000FF;stroke-width:2.0px;stroke-linecap:butt;stroke-linejoin:miter;stroke-opacity:1"/>
<path class="bond-0 atom-0 atom-1" d="M 69.1,87.8 L 77.9,85.6" style="fill:none;fill-rule:evenodd;stroke:#000000;stroke-width:2.0px;stroke-linecap:butt;stroke-linejoin:miter;stroke-opacity:1"/>
<path class="bond-1 atom-1 atom-2" d="M 77.9,85.6 L 92.5,101.0" style="fill:none;fill-rule:evenodd;stroke:#000000;stroke-width:2.0px;stroke-linecap:butt;stroke-linejoin:miter;stroke-opacity:1"/>
<path class="bond-2 atom-2 atom-3" d="M 92.5,101.0 L 113.1,96.0" style="fill:none;fill-rule:evenodd;stroke:#000000;stroke-width:2.0px;stroke-linecap:butt;stroke-linejoin:miter;stroke-opacity:1"/>
<path class="bond-3 atom-3 atom-4" d="M 113.1,96.0 L 119.0,75.7" style="fill:none;fill-rule:evenodd;stroke:#000000;stroke-width:2.0px;stroke-linecap:butt;stroke-linejoin:miter;stroke-opacity:1"/>
<path class="bond-3 atom-3 atom-4" d="M 116.6,95.1 L 121.6,78.3" style="fill:none;fill-rule:evenodd;stroke:#000000;stroke-width:2.0px;stroke-linecap:butt;stroke-linejoin:miter;stroke-opacity:1"/>
<path class="bond-4 atom-4 atom-5" d="M 119.0,75.7 L 139.6,70.7" style="fill:none;fill-rule:evenodd;stroke:#000000;stroke-width:2.0px;stroke-linecap:butt;stroke-linejoin:miter;stroke-opacity:1"/>
<path class="bond-5 atom-5 atom-6" d="M 139.6,70.7 L 154.2,86.0" style="fill:none;fill-rule:evenodd;stroke:#000000;stroke-width:2.0px;stroke-linecap:butt;stroke-linejoin:miter;stroke-opacity:1"/>
<path class="bond-5 atom-5 atom-6" d="M 138.6,74.2 L 150.6,86.9" style="fill:none;fill-rule:evenodd;stroke:#000000;stroke-width:2.0px;stroke-linecap:butt;stroke-linejoin:miter;stroke-opacity:1"/>
<path class="bond-6 atom-6 atom-7" d="M 154.2,86.0 L 148.2,106.3" style="fill:none;fill-rule:evenodd;stroke:#000000;stroke-width:2.0px;stroke-linecap:butt;stroke-linejoin:miter;stroke-opacity:1"/>
<path class="bond-7 atom-7 atom-8" d="M 148.2,106.3 L 127.7,111.3" style="fill:none;fill-rule:evenodd;stroke:#000000;stroke-width:2.0px;stroke-linecap:butt;stroke-linejoin:miter;stroke-opacity:1"/>
<path class="bond-7 atom-7 atom-8" d="M 145.7,103.7 L 128.7,107.8" style="fill:none;fill-rule:evenodd;stroke:#000000;stroke-width:2.0px;stroke-linecap:butt;stroke-linejoin:miter;stroke-opacity:1"/>
<path class="bond-8 atom-8 atom-3" d="M 127.7,111.3 L 113.1,96.0" style="fill:none;fill-rule:evenodd;stroke:#000000;stroke-width:2.0px;stroke-linecap:butt;stroke-linejoin:miter;stroke-opacity:1"/>
<path d="M 77.5,85.7 L 77.9,85.6 L 78.7,86.4" style="fill:none;stroke:#000000;stroke-width:2.0px;stroke-linecap:butt;stroke-linejoin:miter;stroke-opacity:1;"/>
<path d="M 91.8,100.2 L 92.5,101.0 L 93.5,100.7" style="fill:none;stroke:#000000;stroke-width:2.0px;stroke-linecap:butt;stroke-linejoin:miter;stroke-opacity:1;"/>
<path d="M 118.7,76.7 L 119.0,75.7 L 120.1,75.4" style="fill:none;stroke:#000000;stroke-width:2.0px;stroke-linecap:butt;stroke-linejoin:miter;stroke-opacity:1;"/>
<path d="M 138.6,71.0 L 139.6,70.7 L 140.3,71.5" style="fill:none;stroke:#000000;stroke-width:2.0px;stroke-linecap:butt;stroke-linejoin:miter;stroke-opacity:1;"/>
<path d="M 153.5,85.3 L 154.2,86.0 L 153.9,87.0" style="fill:none;stroke:#000000;stroke-width:2.0px;stroke-linecap:butt;stroke-linejoin:miter;stroke-opacity:1;"/>
<path d="M 148.5,105.3 L 148.2,106.3 L 147.2,106.6" style="fill:none;stroke:#000000;stroke-width:2.0px;stroke-linecap:butt;stroke-linejoin:miter;stroke-opacity:1;"/>
<path d="M 128.7,111.0 L 127.7,111.3 L 126.9,110.5" style="fill:none;stroke:#000000;stroke-width:2.0px;stroke-linecap:butt;stroke-linejoin:miter;stroke-opacity:1;"/>
<path class="atom-0" d="M 45.8 87.6 L 46.6 87.6 L 46.6 90.2 L 49.7 90.2 L 49.7 87.6 L 50.5 87.6 L 50.5 93.6 L 49.7 93.6 L 49.7 90.8 L 46.6 90.8 L 46.6 93.6 L 45.8 93.6 L 45.8 87.6 " fill="#0000FF"/>
<path class="atom-0" d="M 51.7 93.4 Q 51.8 93.0, 52.2 92.8 Q 52.5 92.6, 53.0 92.6 Q 53.6 92.6, 53.9 92.9 Q 54.3 93.3, 54.3 93.8 Q 54.3 94.4, 53.8 95.0 Q 53.4 95.5, 52.5 96.2 L 54.3 96.2 L 54.3 96.6 L 51.7 96.6 L 51.7 96.2 Q 52.4 95.7, 52.8 95.3 Q 53.3 94.9, 53.5 94.6 Q 53.7 94.2, 53.7 93.9 Q 53.7 93.5, 53.5 93.3 Q 53.3 93.1, 53.0 93.1 Q 52.7 93.1, 52.5 93.2 Q 52.2 93.3, 52.1 93.6 L 51.7 93.4 " fill="#0000FF"/>
<path class="atom-0" d="M 56.0 87.6 L 58.0 90.8 Q 58.2 91.1, 58.5 91.7 Q 58.8 92.2, 58.8 92.3 L 58.8 87.6 L 59.6 87.6 L 59.6 93.6 L 58.8 93.6 L 56.7 90.1 Q 56.5 89.7, 56.2 89.3 Q 56.0 88.8, 55.9 88.7 L 55.9 93.6 L 55.1 93.6 L 55.1 87.6 L 56.0 87.6 " fill="#0000FF"/>
<path class="legend" d="M 103.4 190.0 L 102.2 186.7 L 97.8 186.7 L 96.6 190.0 L 95.1 190.0 L 99.0 178.7 L 100.9 178.7 L 104.9 190.0 L 103.4 190.0 M 98.2 185.4 L 101.8 185.4 L 100.0 180.3 L 98.2 185.4 " fill="#000000"/>
<path class="bond-0 atom-0 atom-1" d="M 325.0,52.5 L 304.0,54.8" style="fill:none;fill-rule:evenodd;stroke:#000000;stroke-width:2.0px;stroke-linecap:butt;stroke-linejoin:miter;stroke-opacity:1"/>
<path class="bond-1 atom-1 atom-2" d="M 304.0,54.8 L 295.4,74.2" style="fill:none;fill-rule:evenodd;stroke:#000000;stroke-width:2.0px;stroke-linecap:butt;stroke-linejoin:miter;stroke-opacity:1"/>
<path class="bond-2 atom-2 atom-3" d="M 295.4,74.2 L 307.9,91.2" style="fill:none;fill-rule:evenodd;stroke:#000000;stroke-width:2.0px;stroke-linecap:butt;stroke-linejoin:miter;stroke-opacity:1"/>
<path class="bond-3 atom-3 atom-4" d="M 307.9,91.2 L 328.9,89.0" style="fill:none;fill-rule:evenodd;stroke:#000000;stroke-width:2.0px;stroke-linecap:butt;stroke-linejoin:miter;stroke-opacity:1"/>
<path class="bond-4 atom-4 atom-5" d="M 328.9,89.0 L 323.1,68.7" style="fill:none;fill-rule:evenodd;stroke:#000000;stroke-width:2.0px;stroke-linecap:butt;stroke-linejoin:miter;stroke-opacity:1"/>
<path class="bond-5 atom-4 atom-6" d="M 328.9,89.0 L 327.5,110.1" style="fill:none;fill-rule:evenodd;stroke:#000000;stroke-width:2.0px;stroke-linecap:butt;stroke-linejoin:miter;stroke-opacity:1"/>
<path class="bond-6 atom-6 atom-7" d="M 327.5,110.1 L 345.1,121.9" style="fill:none;fill-rule:evenodd;stroke:#000000;stroke-width:2.0px;stroke-linecap:butt;stroke-linejoin:miter;stroke-opacity:1"/>
<path class="bond-7 atom-7 atom-8" d="M 345.1,121.9 L 364.1,112.5" style="fill:none;fill-rule:evenodd;stroke:#000000;stroke-width:2.0px;stroke-linecap:butt;stroke-linejoin:miter;stroke-opacity:1"/>
<path class="bond-8 atom-8 atom-9" d="M 364.1,112.5 L 371.1,117.3" style="fill:none;fill-rule:evenodd;stroke:#000000;stroke-width:2.0px;stroke-linecap:butt;stroke-linejoin:miter;stroke-opacity:1"/>
<path class="bond-8 atom-8 atom-9" d="M 371.1,117.3 L 378.2,122.0" style="fill:none;fill-rule:evenodd;stroke:#FF0000;stroke-width:2.0px;stroke-linecap:butt;stroke-linejoin:miter;stroke-opacity:1"/>
<path class="bond-9 atom-8 atom-10" d="M 364.1,112.5 L 365.5,91.4" style="fill:none;fill-rule:evenodd;stroke:#000000;stroke-width:2.0px;stroke-linecap:butt;stroke-linejoin:miter;stroke-opacity:1"/>
<path class="bond-10 atom-10 atom-11" d="M 365.5,91.4 L 347.9,79.7" style="fill:none;fill-rule:evenodd;stroke:#000000;stroke-width:2.0px;stroke-linecap:butt;stroke-linejoin:miter;stroke-opacity:1"/>
<path class="bond-11 atom-3 atom-12" d="M 307.9,91.2 L 299.4,110.6" style="fill:none;fill-rule:evenodd;stroke:#000000;stroke-width:2.0px;stroke-linecap:butt;stroke-linejoin:miter;stroke-opacity:1"/>
<path class="bond-12 atom-12 atom-13" d="M 299.4,110.6 L 278.3,112.8" style="fill:none;fill-rule:evenodd;stroke:#000000;stroke-width:2.0px;stroke-linecap:butt;stroke-linejoin:miter;stroke-opacity:1"/>
<path class="bond-13 atom-13 atom-14" d="M 278.3,112.8 L 265.9,95.8" style="fill:none;fill-rule:evenodd;stroke:#000000;stroke-width:2.0px;stroke-linecap:butt;stroke-linejoin:miter;stroke-opacity:1"/>
<path class="bond-14 atom-14 atom-15" d="M 265.9,95.8 L 255.3,114.1" style="fill:none;fill-rule:evenodd;stroke:#000000;stroke-width:2.0px;stroke-linecap:butt;stroke-linejoin:miter;stroke-opacity:1"/>
<path class="bond-15 atom-14 atom-16" d="M 265.9,95.8 L 244.8,93.6" style="fill:none;fill-rule:evenodd;stroke:#000000;stroke-width:2.0px;stroke-linecap:butt;stroke-linejoin:miter;stroke-opacity:1"/>
<path class="bond-16 atom-16 atom-17" d="M 244.8,93.6 L 230.7,109.4" style="fill:none;fill-rule:evenodd;stroke:#000000;stroke-width:2.0px;stroke-linecap:butt;stroke-linejoin:miter;stroke-opacity:1"/>
<path class="bond-17 atom-17 atom-18" d="M 230.7,109.4 L 210.0,105.0" style="fill:none;fill-rule:evenodd;stroke:#000000;stroke-width:2.0px;stroke-linecap:butt;stroke-linejoin:miter;stroke-opacity:1"/>
<path class="bond-18 atom-17 atom-19" d="M 230.7,109.4 L 237.3,129.5" style="fill:none;fill-rule:evenodd;stroke:#000000;stroke-width:2.0px;stroke-linecap:butt;stroke-linejoin:miter;stroke-opacity:1"/>
<path class="bond-19 atom-16 atom-20" d="M 244.8,93.6 L 240.4,72.9" style="fill:none;fill-rule:evenodd;stroke:#000000;stroke-width:2.0px;stroke-linecap:butt;stroke-linejoin:miter;stroke-opacity:1"/>
<path class="bond-20 atom-20 atom-21" d="M 240.4,72.9 L 258.7,62.3" style="fill:none;fill-rule:evenodd;stroke:#000000;stroke-width:2.0px;stroke-linecap:butt;stroke-linejoin:miter;stroke-opacity:1"/>
<path class="bond-21 atom-21 atom-22" d="M 258.7,62.3 L 274.4,76.4" style="fill:none;fill-rule:evenodd;stroke:#000000;stroke-width:2.0px;stroke-linecap:butt;stroke-linejoin:miter;stroke-opacity:1"/>
<path class="bond-22 atom-22 atom-2" d="M 274.4,76.4 L 295.4,74.2" style="fill:none;fill-rule:evenodd;stroke:#000000;stroke-width:2.0px;stroke-linecap:butt;stroke-linejoin:miter;stroke-opacity:1"/>
<path class="bond-23 atom-11 atom-4" d="M 347.9,79.7 L 328.9,89.0" style="fill:none;fill-rule:evenodd;stroke:#000000;stroke-width:2.0px;stroke-linecap:butt;stroke-linejoin:miter;stroke-opacity:1"/>
<path class="bond-24 atom-22 atom-14" d="M 274.4,76.4 L 265.9,95.8" style="fill:none;fill-rule:evenodd;stroke:#000000;stroke-width:2.0px;stroke-linecap:butt;stroke-linejoin:miter;stroke-opacity:1"/>
<path d="M 305.0,54.7 L 304.0,54.8 L 303.6,55.8" style="fill:none;stroke:#000000;stroke-width:2.0px;stroke-linecap:butt;stroke-linejoin:miter;stroke-opacity:1;"/>
<path d="M 327.6,109.0 L 327.5,110.1 L 328.4,110.7" style="fill:none;stroke:#000000;stroke-width:2.0px;stroke-linecap:butt;stroke-linejoin:miter;stroke-opacity:1;"/>
<path d="M 344.2,121.3 L 345.1,121.9 L 346.0,121.4" style="fill:none;stroke:#000000;stroke-width:2.0px;stroke-linecap:butt;stroke-linejoin:miter;stroke-opacity:1;"/>
<path d="M 365.4,92.5 L 365.5,91.4 L 364.6,90.8" style="fill:none;stroke:#000000;stroke-width:2.0px;stroke-linecap:butt;stroke-linejoin:miter;stroke-opacity:1;"/>
<path d="M 348.8,80.2 L 347.9,79.7 L 347.0,80.1" style="fill:none;stroke:#000000;stroke-width:2.0px;stroke-linecap:butt;stroke-linejoin:miter;stroke-opacity:1;"/>
<path d="M 299.8,109.6 L 299.4,110.6 L 298.3,110.7" style="fill:none;stroke:#000000;stroke-width:2.0px;stroke-linecap:butt;stroke-linejoin:miter;stroke-opacity:1;"/>
<path d="M 279.4,112.7 L 278.3,112.8 L 277.7,112.0" style="fill:none;stroke:#000000;stroke-width:2.0px;stroke-linecap:butt;stroke-linejoin:miter;stroke-opacity:1;"/>
<path d="M 240.6,74.0 L 240.4,72.9 L 241.3,72.4" style="fill:none;stroke:#000000;stroke-width:2.0px;stroke-linecap:butt;stroke-linejoin:miter;stroke-opacity:1;"/>
<path d="M 257.7,62.8 L 258.7,62.3 L 259.4,63.0" style="fill:none;stroke:#000000;stroke-width:2.0px;stroke-linecap:butt;stroke-linejoin:miter;stroke-opacity:1;"/>
<path class="atom-9" d="M 378.9 124.3 Q 378.9 122.9, 379.6 122.1 Q 380.3 121.3, 381.6 121.3 Q 383.0 121.3, 383.7 122.1 Q 384.4 122.9, 384.4 124.3 Q 384.4 125.8, 383.7 126.6 Q 382.9 127.4, 381.6 127.4 Q 380.3 127.4, 379.6 126.6 Q 378.9 125.8, 378.9 124.3 M 381.6 126.8 Q 382.5 126.8, 383.0 126.2 Q 383.5 125.5, 383.5 124.3 Q 383.5 123.2, 383.0 122.6 Q 382.5 122.0, 381.6 122.0 Q 380.7 122.0, 380.2 122.6 Q 379.7 123.2, 379.7 124.3 Q 379.7 125.6, 380.2 126.2 Q 380.7 126.8, 381.6 126.8 " fill="#FF0000"/>
<path class="atom-9" d="M 385.3 121.4 L 386.1 121.4 L 386.1 123.9 L 389.2 123.9 L 389.2 121.4 L 390.0 121.4 L 390.0 127.4 L 389.2 127.4 L 389.2 124.6 L 386.1 124.6 L 386.1 127.4 L 385.3 127.4 L 385.3 121.4 " fill="#FF0000"/>
<path class="legend" d="M 301.7 184.0 Q 302.7 184.4, 303.3 185.0 Q 303.8 185.7, 303.8 186.7 Q 303.8 188.2, 302.8 189.1 Q 301.8 190.0, 300.0 190.0 L 296.2 190.0 L 296.2 178.7 L 299.5 178.7 Q 301.4 178.7, 302.4 179.5 Q 303.4 180.2, 303.4 181.7 Q 303.4 183.4, 301.7 184.0 M 297.7 180.0 L 297.7 183.5 L 299.5 183.5 Q 300.6 183.5, 301.2 183.1 Q 301.8 182.6, 301.8 181.7 Q 301.8 180.0, 299.5 180.0 L 297.7 180.0 M 300.0 188.7 Q 301.1 188.7, 301.7 188.2 Q 302.2 187.7, 302.2 186.7 Q 302.2 185.7, 301.6 185.3 Q 301.0 184.8, 299.7 184.8 L 297.7 184.8 L 297.7 188.7 L 300.0 188.7 " fill="#000000"/>
<path class="bond-0 atom-0 atom-1" d="M 451.5,48.7 L 451.5,57.4" style="fill:none;fill-rule:evenodd;stroke:#000000;stroke-width:2.0px;stroke-linecap:butt;stroke-linejoin:miter;stroke-opacity:1"/>
<path class="bond-0 atom-0 atom-1" d="M 451.5,57.4 L 451.5,66.1" style="fill:none;fill-rule:evenodd;stroke:#FF0000;stroke-width:2.0px;stroke-linecap:butt;stroke-linejoin:miter;stroke-opacity:1"/>
<path class="bond-1 atom-1 atom-2" d="M 455.0,71.8 L 462.4,76.1" style="fill:none;fill-rule:evenodd;stroke:#FF0000;stroke-width:2.0px;stroke-linecap:butt;stroke-linejoin:miter;stroke-opacity:1"/>
<path class="bond-1 atom-1 atom-2" d="M 462.4,76.1 L 469.8,80.4" style="fill:none;fill-rule:evenodd;stroke:#000000;stroke-width:2.0px;stroke-linecap:butt;stroke-linejoin:miter;stroke-opacity:1"/>
<path class="bond-2 atom-2 atom-3" d="M 469.8,80.4 L 488.2,69.8" style="fill:none;fill-rule:evenodd;stroke:#000000;stroke-width:2.0px;stroke-linecap:butt;stroke-linejoin:miter;stroke-opacity:1"/>
<path class="bond-2 atom-2 atom-3" d="M 473.0,82.3 L 488.2,73.5" style="fill:none;fill-rule:evenodd;stroke:#000000;stroke-width:2.0px;stroke-linecap:butt;stroke-linejoin:miter;stroke-opacity:1"/>
<path class="bond-3 atom-3 atom-4" d="M 488.2,69.8 L 506.5,80.4" style="fill:none;fill-rule:evenodd;stroke:#000000;stroke-width:2.0px;stroke-linecap:butt;stroke-linejoin:miter;stroke-opacity:1"/>
<path class="bond-4 atom-4 atom-5" d="M 506.5,80.4 L 506.5,101.6" style="fill:none;fill-rule:evenodd;stroke:#000000;stroke-width:2.0px;stroke-linecap:butt;stroke-linejoin:miter;stroke-opacity:1"/>
<path class="bond-4 atom-4 atom-5" d="M 503.3,82.3 L 503.3,99.7" style="fill:none;fill-rule:evenodd;stroke:#000000;stroke-width:2.0px;stroke-linecap:butt;stroke-linejoin:miter;stroke-opacity:1"/>
<path class="bond-5 atom-5 atom-6" d="M 506.5,101.6 L 488.2,112.2" style="fill:none;fill-rule:evenodd;stroke:#000000;stroke-width:2.0px;stroke-linecap:butt;stroke-linejoin:miter;stroke-opacity:1"/>
<path class="bond-6 atom-6 atom-7" d="M 488.2,112.2 L 469.8,101.6" style="fill:none;fill-rule:evenodd;stroke:#000000;stroke-width:2.0px;stroke-linecap:butt;stroke-linejoin:miter;stroke-opacity:1"/>
<path class="bond-6 atom-6 atom-7" d="M 488.2,108.5 L 473.0,99.7" style="fill:none;fill-rule:evenodd;stroke:#000000;stroke-width:2.0px;stroke-linecap:butt;stroke-linejoin:miter;stroke-opacity:1"/>
<path class="bond-7 atom-7 atom-8" d="M 469.8,101.6 L 462.4,105.9" style="fill:none;fill-rule:evenodd;stroke:#000000;stroke-width:2.0px;stroke-linecap:butt;stroke-linejoin:miter;stroke-opacity:1"/>
<path class="bond-7 atom-7 atom-8" d="M 462.4,105.9 L 455.0,110.2" style="fill:none;fill-rule:evenodd;stroke:#FF0000;stroke-width:2.0px;stroke-linecap:butt;stroke-linejoin:miter;stroke-opacity:1"/>
<path class="bond-8 atom-8 atom-9" d="M 451.5,116.0 L 451.5,124.6" style="fill:none;fill-rule:evenodd;stroke:#FF0000;stroke-width:2.0px;stroke-linecap:butt;stroke-linejoin:miter;stroke-opacity:1"/>
<path class="bond-8 atom-8 atom-9" d="M 451.5,124.6 L 451.5,133.3" style="fill:none;fill-rule:evenodd;stroke:#000000;stroke-width:2.0px;stroke-linecap:butt;stroke-linejoin:miter;stroke-opacity:1"/>
<path class="bond-9 atom-5 atom-10" d="M 506.5,101.6 L 524.8,112.2" style="fill:none;fill-rule:evenodd;stroke:#000000;stroke-width:2.0px;stroke-linecap:butt;stroke-linejoin:miter;stroke-opacity:1"/>
<path class="bond-10 atom-10 atom-11" d="M 524.8,112.2 L 532.5,107.7" style="fill:none;fill-rule:evenodd;stroke:#000000;stroke-width:2.0px;stroke-linecap:butt;stroke-linejoin:miter;stroke-opacity:1"/>
<path class="bond-10 atom-10 atom-11" d="M 532.5,107.7 L 540.1,103.3" style="fill:none;fill-rule:evenodd;stroke:#0000FF;stroke-width:2.0px;stroke-linecap:butt;stroke-linejoin:miter;stroke-opacity:1"/>
<path class="bond-11 atom-11 atom-12" d="M 543.1,97.9 L 543.1,89.2" style="fill:none;fill-rule:evenodd;stroke:#0000FF;stroke-width:2.0px;stroke-linecap:butt;stroke-linejoin:miter;stroke-opacity:1"/>
<path class="bond-11 atom-11 atom-12" d="M 543.1,89.2 L 543.1,80.4" style="fill:none;fill-rule:evenodd;stroke:#000000;stroke-width:2.0px;stroke-linecap:butt;stroke-linejoin:miter;stroke-opacity:1"/>
<path class="bond-12 atom-12 atom-13" d="M 543.1,80.4 L 524.8,69.8" style="fill:none;fill-rule:evenodd;stroke:#000000;stroke-width:2.0px;stroke-linecap:butt;stroke-linejoin:miter;stroke-opacity:1"/>
<path class="bond-13 atom-7 atom-2" d="M 469.8,101.6 L 469.8,80.4" style="fill:none;fill-rule:evenodd;stroke:#000000;stroke-width:2.0px;stroke-linecap:butt;stroke-linejoin:miter;stroke-opacity:1"/>
<path class="bond-14 atom-13 atom-4" d="M 524.8,69.8 L 506.5,80.4" style="fill:none;fill-rule:evenodd;stroke:#000000;stroke-width:2.0px;stroke-linecap:butt;stroke-linejoin:miter;stroke-opacity:1"/>
<path d="M 487.2,70.4 L 488.2,69.8 L 489.1,70.4" style="fill:none;stroke:#000000;stroke-width:2.0px;stroke-linecap:butt;stroke-linejoin:miter;stroke-opacity:1;"/>
<path d="M 489.1,111.6 L 488.2,112.2 L 487.2,111.6" style="fill:none;stroke:#000000;stroke-width:2.0px;stroke-linecap:butt;stroke-linejoin:miter;stroke-opacity:1;"/>
<path d="M 523.9,111.6 L 524.8,112.2 L 525.2,111.9" style="fill:none;stroke:#000000;stroke-width:2.0px;stroke-linecap:butt;stroke-linejoin:miter;stroke-opacity:1;"/>
<path d="M 543.1,80.9 L 543.1,80.4 L 542.2,79.9" style="fill:none;stroke:#000000;stroke-width:2.0px;stroke-linecap:butt;stroke-linejoin:miter;stroke-opacity:1;"/>
<path d="M 525.7,70.4 L 524.8,69.8 L 523.9,70.4" style="fill:none;stroke:#000000;stroke-width:2.0px;stroke-linecap:butt;stroke-linejoin:miter;stroke-opacity:1;"/>
<path class="atom-1" d="M 448.8 69.9 Q 448.8 68.4, 449.5 67.6 Q 450.2 66.8, 451.5 66.8 Q 452.8 66.8, 453.6 67.6 Q 454.3 68.4, 454.3 69.9 Q 454.3 71.3, 453.6 72.2 Q 452.8 73.0, 451.5 73.0 Q 450.2 73.0, 449.5 72.2 Q 448.8 71.3, 448.8 69.9 M 451.5 72.3 Q 452.4 72.3, 452.9 71.7 Q 453.4 71.1, 453.4 69.9 Q 453.4 68.7, 452.9 68.1 Q 452.4 67.5, 451.5 67.5 Q 450.6 67.5, 450.1 68.1 Q 449.6 68.7, 449.6 69.9 Q 449.6 71.1, 450.1 71.7 Q 450.6 72.3, 451.5 72.3 " fill="#FF0000"/>
<path class="atom-8" d="M 448.8 112.2 Q 448.8 110.7, 449.5 109.9 Q 450.2 109.1, 451.5 109.1 Q 452.8 109.1, 453.6 109.9 Q 454.3 110.7, 454.3 112.2 Q 454.3 113.6, 453.6 114.5 Q 452.8 115.3, 451.5 115.3 Q 450.2 115.3, 449.5 114.5 Q 448.8 113.6, 448.8 112.2 M 451.5 114.6 Q 452.4 114.6, 452.9 114.0 Q 453.4 113.4, 453.4 112.2 Q 453.4 111.0, 452.9 110.4 Q 452.4 109.8, 451.5 109.8 Q 450.6 109.8, 450.1 110.4 Q 449.6 111.0, 449.6 112.2 Q 449.6 113.4, 450.1 114.0 Q 450.6 114.6, 451.5 114.6 " fill="#FF0000"/>
<path class="atom-11" d="M 541.8 98.6 L 543.7 101.8 Q 543.9 102.1, 544.3 102.6 Q 544.6 103.2, 544.6 103.2 L 544.6 98.6 L 545.4 98.6 L 545.4 104.6 L 544.6 104.6 L 542.5 101.1 Q 542.2 100.7, 541.9 100.2 Q 541.7 99.8, 541.6 99.6 L 541.6 104.6 L 540.8 104.6 L 540.8 98.6 L 541.8 98.6 " fill="#0000FF"/>
<path class="atom-11" d="M 546.5 98.6 L 547.4 98.6 L 547.4 101.1 L 550.4 101.1 L 550.4 98.6 L 551.2 98.6 L 551.2 104.6 L 550.4 104.6 L 550.4 101.8 L 547.4 101.8 L 547.4 104.6 L 546.5 104.6 L 546.5 98.6 " fill="#0000FF"/>
<path class="legend" d="M 495.6 184.2 Q 495.6 181.4, 496.9 179.9 Q 498.3 178.4, 500.8 178.4 Q 503.1 178.4, 504.4 180.0 L 503.3 180.9 Q 502.4 179.7, 500.8 179.7 Q 499.1 179.7, 498.2 180.9 Q 497.3 182.0, 497.3 184.2 Q 497.3 186.4, 498.2 187.6 Q 499.1 188.7, 501.0 188.7 Q 502.2 188.7, 503.7 188.0 L 504.1 189.2 Q 503.5 189.6, 502.6 189.8 Q 501.7 190.0, 500.7 190.0 Q 498.3 190.0, 496.9 188.5 Q 495.6 187.0, 495.6 184.2 " fill="#000000"/>
</svg>