<svg xmlns="http://www.w3.org/2000/svg" xmlns:rdkit="http://www.rdkit.org/xml" xmlns:xlink="http://www.w3.org/1999/xlink" version="1.1" baseProfile="full" xml:space="preserve" width="800px" height="200px" viewBox="0 0 800 200">
<!-- END OF HEADER -->
<rect style="opacity:1.0;fill:#FFFFFF;stroke:none" width="800.0" height="200.0" x="0.0" y="0.0"> </rect>
<path class="bond-0 atom-0 atom-1" d="M 86.5,108.0 L 81.9,105.6" style="fill:none;fill-rule:evenodd;stroke:#FF0000;stroke-width:2.0px;stroke-linecap:butt;stroke-linejoin:miter;stroke-opacity:1"/>
<path class="bond-0 atom-0 atom-1" d="M 81.9,105.6 L 77.4,103.2" style="fill:none;fill-rule:evenodd;stroke:#000000;stroke-width:2.0px;stroke-linecap:butt;stroke-linejoin:miter;stroke-opacity:1"/>
<path class="bond-1 atom-1 atom-2" d="M 77.4,103.2 L 66.4,110.1" style="fill:none;fill-rule:evenodd;stroke:#000000;stroke-width:2.0px;stroke-linecap:butt;stroke-linejoin:miter;stroke-opacity:1"/>
<path class="bond-1 atom-1 atom-2" d="M 75.4,102.1 L 66.3,107.8" style="fill:none;fill-rule:evenodd;stroke:#000000;stroke-width:2.0px;stroke-linecap:butt;stroke-linejoin:miter;stroke-opacity:1"/>
<path class="bond-2 atom-2 atom-3" d="M 66.4,110.1 L 54.9,103.9" style="fill:none;fill-rule:evenodd;stroke:#000000;stroke-width:2.0px;stroke-linecap:butt;stroke-linejoin:miter;stroke-opacity:1"/>
<path class="bond-3 atom-3 atom-4" d="M 54.9,103.9 L 50.6,106.6" style="fill:none;fill-rule:evenodd;stroke:#000000;stroke-width:2.0px;stroke-linecap:butt;stroke-linejoin:miter;stroke-opacity:1"/>
<path class="bond-3 atom-3 atom-4" d="M 50.6,106.6 L 46.3,109.3" style="fill:none;fill-rule:evenodd;stroke:#FF0000;stroke-width:2.0px;stroke-linecap:butt;stroke-linejoin:miter;stroke-opacity:1"/>
<path class="bond-4 atom-3 atom-5" d="M 54.9,103.9 L 54.5,91.0" style="fill:none;fill-rule:evenodd;stroke:#000000;stroke-width:2.0px;stroke-linecap:butt;stroke-linejoin:miter;stroke-opacity:1"/>
<path class="bond-4 atom-3 atom-5" d="M 56.8,102.8 L 56.4,92.0" style="fill:none;fill-rule:evenodd;stroke:#000000;stroke-width:2.0px;stroke-linecap:butt;stroke-linejoin:miter;stroke-opacity:1"/>
<path class="bond-5 atom-5 atom-6" d="M 54.5,91.0 L 65.5,84.1" style="fill:none;fill-rule:evenodd;stroke:#000000;stroke-width:2.0px;stroke-linecap:butt;stroke-linejoin:miter;stroke-opacity:1"/>
<path class="bond-6 atom-6 atom-7" d="M 65.5,84.1 L 65.3,78.9" style="fill:none;fill-rule:evenodd;stroke:#000000;stroke-width:2.0px;stroke-linecap:butt;stroke-linejoin:miter;stroke-opacity:1"/>
<path class="bond-6 atom-6 atom-7" d="M 65.3,78.9 L 65.1,73.7" style="fill:none;fill-rule:evenodd;stroke:#FF0000;stroke-width:2.0px;stroke-linecap:butt;stroke-linejoin:miter;stroke-opacity:1"/>
<path class="bond-7 atom-6 atom-8" d="M 65.5,84.1 L 76.9,90.2" style="fill:none;fill-rule:evenodd;stroke:#000000;stroke-width:2.0px;stroke-linecap:butt;stroke-linejoin:miter;stroke-opacity:1"/>
<path class="bond-7 atom-6 atom-8" d="M 65.6,86.3 L 75.0,91.4" style="fill:none;fill-rule:evenodd;stroke:#000000;stroke-width:2.0px;stroke-linecap:butt;stroke-linejoin:miter;stroke-opacity:1"/>
<path class="bond-8 atom-8 atom-9" d="M 76.9,90.2 L 88.0,83.3" style="fill:none;fill-rule:evenodd;stroke:#000000;stroke-width:2.0px;stroke-linecap:butt;stroke-linejoin:miter;stroke-opacity:1"/>
<path class="bond-9 atom-9 atom-10" d="M 88.0,83.3 L 99.4,89.4" style="fill:none;fill-rule:evenodd;stroke:#000000;stroke-width:2.0px;stroke-linecap:butt;stroke-linejoin:miter;stroke-opacity:1"/>
<path class="bond-10 atom-10 atom-11" d="M 99.4,89.4 L 110.5,82.5" style="fill:none;fill-rule:evenodd;stroke:#000000;stroke-width:2.0px;stroke-linecap:butt;stroke-linejoin:miter;stroke-opacity:1"/>
<path class="bond-11 atom-11 atom-12" d="M 110.5,82.5 L 121.9,88.6" style="fill:none;fill-rule:evenodd;stroke:#000000;stroke-width:2.0px;stroke-linecap:butt;stroke-linejoin:miter;stroke-opacity:1"/>
<path class="bond-12 atom-12 atom-13" d="M 121.9,88.6 L 122.4,101.6" style="fill:none;fill-rule:evenodd;stroke:#000000;stroke-width:2.0px;stroke-linecap:butt;stroke-linejoin:miter;stroke-opacity:1"/>
<path class="bond-12 atom-12 atom-13" d="M 123.9,89.7 L 124.3,100.4" style="fill:none;fill-rule:evenodd;stroke:#000000;stroke-width:2.0px;stroke-linecap:butt;stroke-linejoin:miter;stroke-opacity:1"/>
<path class="bond-13 atom-13 atom-14" d="M 122.4,101.6 L 133.8,107.7" style="fill:none;fill-rule:evenodd;stroke:#000000;stroke-width:2.0px;stroke-linecap:butt;stroke-linejoin:miter;stroke-opacity:1"/>
<path class="bond-14 atom-14 atom-15" d="M 133.8,107.7 L 144.9,100.9" style="fill:none;fill-rule:evenodd;stroke:#000000;stroke-width:2.0px;stroke-linecap:butt;stroke-linejoin:miter;stroke-opacity:1"/>
<path class="bond-14 atom-14 atom-15" d="M 133.8,105.5 L 142.9,99.8" style="fill:none;fill-rule:evenodd;stroke:#000000;stroke-width:2.0px;stroke-linecap:butt;stroke-linejoin:miter;stroke-opacity:1"/>
<path class="bond-15 atom-15 atom-16" d="M 144.9,100.9 L 149.4,103.3" style="fill:none;fill-rule:evenodd;stroke:#000000;stroke-width:2.0px;stroke-linecap:butt;stroke-linejoin:miter;stroke-opacity:1"/>
<path class="bond-15 atom-15 atom-16" d="M 149.4,103.3 L 153.9,105.7" style="fill:none;fill-rule:evenodd;stroke:#FF0000;stroke-width:2.0px;stroke-linecap:butt;stroke-linejoin:miter;stroke-opacity:1"/>
<path class="bond-16 atom-15 atom-17" d="M 144.9,100.9 L 144.4,87.9" style="fill:none;fill-rule:evenodd;stroke:#000000;stroke-width:2.0px;stroke-linecap:butt;stroke-linejoin:miter;stroke-opacity:1"/>
<path class="bond-17 atom-17 atom-18" d="M 144.4,87.9 L 132.9,81.8" style="fill:none;fill-rule:evenodd;stroke:#000000;stroke-width:2.0px;stroke-linecap:butt;stroke-linejoin:miter;stroke-opacity:1"/>
<path class="bond-17 atom-17 atom-18" d="M 142.5,89.1 L 133.0,84.0" style="fill:none;fill-rule:evenodd;stroke:#000000;stroke-width:2.0px;stroke-linecap:butt;stroke-linejoin:miter;stroke-opacity:1"/>
<path class="bond-18 atom-8 atom-1" d="M 76.9,90.2 L 77.4,103.2" style="fill:none;fill-rule:evenodd;stroke:#000000;stroke-width:2.0px;stroke-linecap:butt;stroke-linejoin:miter;stroke-opacity:1"/>
<path class="bond-19 atom-18 atom-12" d="M 132.9,81.8 L 121.9,88.6" style="fill:none;fill-rule:evenodd;stroke:#000000;stroke-width:2.0px;stroke-linecap:butt;stroke-linejoin:miter;stroke-opacity:1"/>
<path d="M 66.9,109.7 L 66.4,110.1 L 65.8,109.7" style="fill:none;stroke:#000000;stroke-width:2.0px;stroke-linecap:butt;stroke-linejoin:miter;stroke-opacity:1;"/>
<path d="M 54.5,91.6 L 54.5,91.0 L 55.0,90.6" style="fill:none;stroke:#000000;stroke-width:2.0px;stroke-linecap:butt;stroke-linejoin:miter;stroke-opacity:1;"/>
<path d="M 87.4,83.7 L 88.0,83.3 L 88.5,83.6" style="fill:none;stroke:#000000;stroke-width:2.0px;stroke-linecap:butt;stroke-linejoin:miter;stroke-opacity:1;"/>
<path d="M 98.9,89.1 L 99.4,89.4 L 100.0,89.1" style="fill:none;stroke:#000000;stroke-width:2.0px;stroke-linecap:butt;stroke-linejoin:miter;stroke-opacity:1;"/>
<path d="M 109.9,82.9 L 110.5,82.5 L 111.0,82.8" style="fill:none;stroke:#000000;stroke-width:2.0px;stroke-linecap:butt;stroke-linejoin:miter;stroke-opacity:1;"/>
<path d="M 122.3,101.0 L 122.4,101.6 L 122.9,101.9" style="fill:none;stroke:#000000;stroke-width:2.0px;stroke-linecap:butt;stroke-linejoin:miter;stroke-opacity:1;"/>
<path d="M 133.3,107.4 L 133.8,107.7 L 134.4,107.4" style="fill:none;stroke:#000000;stroke-width:2.0px;stroke-linecap:butt;stroke-linejoin:miter;stroke-opacity:1;"/>
<path d="M 144.4,88.5 L 144.4,87.9 L 143.8,87.6" style="fill:none;stroke:#000000;stroke-width:2.0px;stroke-linecap:butt;stroke-linejoin:miter;stroke-opacity:1;"/>
<path d="M 133.5,82.1 L 132.9,81.8 L 132.4,82.1" style="fill:none;stroke:#000000;stroke-width:2.0px;stroke-linecap:butt;stroke-linejoin:miter;stroke-opacity:1;"/>
<path class="atom-0" d="M 86.9 109.3 Q 86.9 108.3, 87.4 107.7 Q 87.9 107.1, 88.9 107.1 Q 89.8 107.1, 90.3 107.7 Q 90.8 108.3, 90.8 109.3 Q 90.8 110.3, 90.3 110.9 Q 89.8 111.5, 88.9 111.5 Q 87.9 111.5, 87.4 110.9 Q 86.9 110.3, 86.9 109.3 M 88.9 111.0 Q 89.5 111.0, 89.9 110.6 Q 90.2 110.1, 90.2 109.3 Q 90.2 108.5, 89.9 108.0 Q 89.5 107.6, 88.9 107.6 Q 88.2 107.6, 87.9 108.0 Q 87.5 108.5, 87.5 109.3 Q 87.5 110.2, 87.9 110.6 Q 88.2 111.0, 88.9 111.0 " fill="#FF0000"/>
<path class="atom-0" d="M 91.5 107.2 L 92.0 107.2 L 92.0 109.0 L 94.2 109.0 L 94.2 107.2 L 94.8 107.2 L 94.8 111.4 L 94.2 111.4 L 94.2 109.5 L 92.0 109.5 L 92.0 111.4 L 91.5 111.4 L 91.5 107.2 " fill="#FF0000"/>
<path class="atom-4" d="M 37.7 108.7 L 38.3 108.7 L 38.3 110.5 L 40.5 110.5 L 40.5 108.7 L 41.1 108.7 L 41.1 113.0 L 40.5 113.0 L 40.5 111.0 L 38.3 111.0 L 38.3 113.0 L 37.7 113.0 L 37.7 108.7 " fill="#FF0000"/>
<path class="atom-4" d="M 41.9 110.8 Q 41.9 109.8, 42.4 109.2 Q 42.9 108.7, 43.9 108.7 Q 44.8 108.7, 45.3 109.2 Q 45.8 109.8, 45.8 110.8 Q 45.8 111.9, 45.3 112.5 Q 44.8 113.0, 43.9 113.0 Q 43.0 113.0, 42.4 112.5 Q 41.9 111.9, 41.9 110.8 M 43.9 112.6 Q 44.5 112.6, 44.9 112.1 Q 45.2 111.7, 45.2 110.8 Q 45.2 110.0, 44.9 109.6 Q 44.5 109.2, 43.9 109.2 Q 43.2 109.2, 42.9 109.6 Q 42.5 110.0, 42.5 110.8 Q 42.5 111.7, 42.9 112.1 Q 43.2 112.6, 43.9 112.6 " fill="#FF0000"/>
<path class="atom-7" d="M 63.1 71.1 Q 63.1 70.1, 63.6 69.5 Q 64.1 69.0, 65.0 69.0 Q 66.0 69.0, 66.5 69.5 Q 67.0 70.1, 67.0 71.1 Q 67.0 72.2, 66.5 72.7 Q 66.0 73.3, 65.0 73.3 Q 64.1 73.3, 63.6 72.7 Q 63.1 72.2, 63.1 71.1 M 65.0 72.8 Q 65.7 72.8, 66.0 72.4 Q 66.4 72.0, 66.4 71.1 Q 66.4 70.3, 66.0 69.9 Q 65.7 69.4, 65.0 69.4 Q 64.4 69.4, 64.0 69.9 Q 63.7 70.3, 63.7 71.1 Q 63.7 72.0, 64.0 72.4 Q 64.4 72.8, 65.0 72.8 " fill="#FF0000"/>
<path class="atom-7" d="M 67.6 69.0 L 68.2 69.0 L 68.2 70.8 L 70.4 70.8 L 70.4 69.0 L 71.0 69.0 L 71.0 73.3 L 70.4 73.3 L 70.4 71.3 L 68.2 71.3 L 68.2 73.3 L 67.6 73.3 L 67.6 69.0 " fill="#FF0000"/>
<path class="atom-16" d="M 154.4 107.0 Q 154.4 106.0, 154.9 105.4 Q 155.4 104.8, 156.3 104.8 Q 157.3 104.8, 157.8 105.4 Q 158.3 106.0, 158.3 107.0 Q 158.3 108.0, 157.8 108.6 Q 157.3 109.2, 156.3 109.2 Q 155.4 109.2, 154.9 108.6 Q 154.4 108.0, 154.4 107.0 M 156.3 108.7 Q 157.0 108.7, 157.3 108.3 Q 157.7 107.8, 157.7 107.0 Q 157.7 106.1, 157.3 105.7 Q 157.0 105.3, 156.3 105.3 Q 155.7 105.3, 155.3 105.7 Q 155.0 106.1, 155.0 107.0 Q 155.0 107.8, 155.3 108.3 Q 155.7 108.7, 156.3 108.7 " fill="#FF0000"/>
<path class="atom-16" d="M 158.9 104.9 L 159.5 104.9 L 159.5 106.7 L 161.7 106.7 L 161.7 104.9 L 162.3 104.9 L 162.3 109.1 L 161.7 109.1 L 161.7 107.1 L 159.5 107.1 L 159.5 109.1 L 158.9 109.1 L 158.9 104.9 " fill="#FF0000"/>
<path class="legend" d="M 103.4 190.0 L 102.2 186.7 L 97.8 186.7 L 96.6 190.0 L 95.1 190.0 L 99.0 178.7 L 100.9 178.7 L 104.9 190.0 L 103.4 190.0 M 98.2 185.4 L 101.8 185.4 L 100.0 180.3 L 98.2 185.4 " fill="#000000"/>
<path class="bond-0 atom-0 atom-1" d="M 210.0,94.2 L 221.3,87.8" style="fill:none;fill-rule:evenodd;stroke:#000000;stroke-width:2.0px;stroke-linecap:butt;stroke-linejoin:miter;stroke-opacity:1"/>
<path class="bond-1 atom-1 atom-2" d="M 221.3,87.8 L 232.5,94.2" style="fill:none;fill-rule:evenodd;stroke:#000000;stroke-width:2.0px;stroke-linecap:butt;stroke-linejoin:miter;stroke-opacity:1"/>
<path class="bond-2 atom-2 atom-3" d="M 232.5,94.2 L 243.8,87.8" style="fill:none;fill-rule:evenodd;stroke:#000000;stroke-width:2.0px;stroke-linecap:butt;stroke-linejoin:miter;stroke-opacity:1"/>
<path class="bond-3 atom-3 atom-4" d="M 243.8,87.8 L 255.0,94.2" style="fill:none;fill-rule:evenodd;stroke:#000000;stroke-width:2.0px;stroke-linecap:butt;stroke-linejoin:miter;stroke-opacity:1"/>
<path class="bond-4 atom-4 atom-5" d="M 255.0,94.2 L 266.3,87.8" style="fill:none;fill-rule:evenodd;stroke:#000000;stroke-width:2.0px;stroke-linecap:butt;stroke-linejoin:miter;stroke-opacity:1"/>
<path class="bond-5 atom-5 atom-6" d="M 266.3,87.8 L 277.5,94.2" style="fill:none;fill-rule:evenodd;stroke:#000000;stroke-width:2.0px;stroke-linecap:butt;stroke-linejoin:miter;stroke-opacity:1"/>
<path class="bond-6 atom-6 atom-7" d="M 277.5,94.2 L 288.8,87.8" style="fill:none;fill-rule:evenodd;stroke:#000000;stroke-width:2.0px;stroke-linecap:butt;stroke-linejoin:miter;stroke-opacity:1"/>
<path class="bond-7 atom-7 atom-8" d="M 288.8,87.8 L 300.0,94.2" style="fill:none;fill-rule:evenodd;stroke:#000000;stroke-width:2.0px;stroke-linecap:butt;stroke-linejoin:miter;stroke-opacity:1"/>
<path class="bond-8 atom-8 atom-9" d="M 300.0,94.2 L 311.3,87.8" style="fill:none;fill-rule:evenodd;stroke:#000000;stroke-width:2.0px;stroke-linecap:butt;stroke-linejoin:miter;stroke-opacity:1"/>
<path class="bond-9 atom-9 atom-10" d="M 311.3,87.8 L 322.5,94.2" style="fill:none;fill-rule:evenodd;stroke:#000000;stroke-width:2.0px;stroke-linecap:butt;stroke-linejoin:miter;stroke-opacity:1"/>
<path class="bond-10 atom-10 atom-11" d="M 322.5,94.2 L 333.8,87.8" style="fill:none;fill-rule:evenodd;stroke:#000000;stroke-width:2.0px;stroke-linecap:butt;stroke-linejoin:miter;stroke-opacity:1"/>
<path class="bond-11 atom-11 atom-12" d="M 333.8,87.8 L 345.0,94.2" style="fill:none;fill-rule:evenodd;stroke:#000000;stroke-width:2.0px;stroke-linecap:butt;stroke-linejoin:miter;stroke-opacity:1"/>
<path class="bond-12 atom-12 atom-13" d="M 345.0,94.2 L 356.3,87.8" style="fill:none;fill-rule:evenodd;stroke:#000000;stroke-width:2.0px;stroke-linecap:butt;stroke-linejoin:miter;stroke-opacity:1"/>
<path class="bond-13 atom-13 atom-14" d="M 356.3,87.8 L 367.5,94.2" style="fill:none;fill-rule:evenodd;stroke:#000000;stroke-width:2.0px;stroke-linecap:butt;stroke-linejoin:miter;stroke-opacity:1"/>
<path class="bond-14 atom-14 atom-15" d="M 367.5,94.2 L 378.8,87.8" style="fill:none;fill-rule:evenodd;stroke:#000000;stroke-width:2.0px;stroke-linecap:butt;stroke-linejoin:miter;stroke-opacity:1"/>
<path class="bond-15 atom-15 atom-16" d="M 378.8,87.8 L 390.0,94.2" style="fill:none;fill-rule:evenodd;stroke:#000000;stroke-width:2.0px;stroke-linecap:butt;stroke-linejoin:miter;stroke-opacity:1"/>
<path d="M 220.7,88.1 L 221.3,87.8 L 221.8,88.1" style="fill:none;stroke:#000000;stroke-width:2.0px;stroke-linecap:butt;stroke-linejoin:miter;stroke-opacity:1;"/>
<path d="M 231.9,93.9 L 232.5,94.2 L 233.1,93.9" style="fill:none;stroke:#000000;stroke-width:2.0px;stroke-linecap:butt;stroke-linejoin:miter;stroke-opacity:1;"/>
<path d="M 243.2,88.1 L 243.8,87.8 L 244.3,88.1" style="fill:none;stroke:#000000;stroke-width:2.0px;stroke-linecap:butt;stroke-linejoin:miter;stroke-opacity:1;"/>
<path d="M 254.4,93.9 L 255.0,94.2 L 255.6,93.9" style="fill:none;stroke:#000000;stroke-width:2.0px;stroke-linecap:butt;stroke-linejoin:miter;stroke-opacity:1;"/>
<path d="M 265.7,88.1 L 266.3,87.8 L 266.8,88.1" style="fill:none;stroke:#000000;stroke-width:2.0px;stroke-linecap:butt;stroke-linejoin:miter;stroke-opacity:1;"/>
<path d="M 276.9,93.9 L 277.5,94.2 L 278.1,93.9" style="fill:none;stroke:#000000;stroke-width:2.0px;stroke-linecap:butt;stroke-linejoin:miter;stroke-opacity:1;"/>
<path d="M 288.2,88.1 L 288.8,87.8 L 289.3,88.1" style="fill:none;stroke:#000000;stroke-width:2.0px;stroke-linecap:butt;stroke-linejoin:miter;stroke-opacity:1;"/>
<path d="M 299.4,93.9 L 300.0,94.2 L 300.6,93.9" style="fill:none;stroke:#000000;stroke-width:2.0px;stroke-linecap:butt;stroke-linejoin:miter;stroke-opacity:1;"/>
<path d="M 310.7,88.1 L 311.3,87.8 L 311.8,88.1" style="fill:none;stroke:#000000;stroke-width:2.0px;stroke-linecap:butt;stroke-linejoin:miter;stroke-opacity:1;"/>
<path d="M 321.9,93.9 L 322.5,94.2 L 323.1,93.9" style="fill:none;stroke:#000000;stroke-width:2.0px;stroke-linecap:butt;stroke-linejoin:miter;stroke-opacity:1;"/>
<path d="M 333.2,88.1 L 333.8,87.8 L 334.3,88.1" style="fill:none;stroke:#000000;stroke-width:2.0px;stroke-linecap:butt;stroke-linejoin:miter;stroke-opacity:1;"/>
<path d="M 344.4,93.9 L 345.0,94.2 L 345.6,93.9" style="fill:none;stroke:#000000;stroke-width:2.0px;stroke-linecap:butt;stroke-linejoin:miter;stroke-opacity:1;"/>
<path d="M 355.7,88.1 L 356.3,87.8 L 356.8,88.1" style="fill:none;stroke:#000000;stroke-width:2.0px;stroke-linecap:butt;stroke-linejoin:miter;stroke-opacity:1;"/>
<path d="M 366.9,93.9 L 367.5,94.2 L 368.1,93.9" style="fill:none;stroke:#000000;stroke-width:2.0px;stroke-linecap:butt;stroke-linejoin:miter;stroke-opacity:1;"/>
<path d="M 378.2,88.1 L 378.8,87.8 L 379.3,88.1" style="fill:none;stroke:#000000;stroke-width:2.0px;stroke-linecap:butt;stroke-linejoin:miter;stroke-opacity:1;"/>
<path class="legend" d="M 301.7 184.0 Q 302.7 184.4, 303.3 185.0 Q 303.8 185.7, 303.8 186.7 Q 303.8 188.2, 302.8 189.1 Q 301.8 190.0, 300.0 190.0 L 296.2 190.0 L 296.2 178.7 L 299.5 178.7 Q 301.4 178.7, 302.4 179.5 Q 303.4 180.2, 303.4 181.7 Q 303.4 183.4, 301.7 184.0 M 297.7 180.0 L 297.7 183.5 L 299.5 183.5 Q 300.6 183.5, 301.2 183.1 Q 301.8 182.6, 301.8 181.7 Q 301.8 180.0, 299.5 180.0 L 297.7 180.0 M 300.0 188.7 Q 301.1 188.7, 301.7 188.2 Q 302.2 187.7, 302.2 186.7 Q 302.2 185.7, 301.6 185.3 Q 301.0 184.8, 299.7 184.8 L 297.7 184.8 L 297.7 188.7 L 300.0 188.7 " fill="#000000"/>
</svg>