<svg xmlns="http://www.w3.org/2000/svg" xmlns:rdkit="http://www.rdkit.org/xml" xmlns:xlink="http://www.w3.org/1999/xlink" version="1.1" baseProfile="full" xml:space="preserve" width="800px" height="200px" viewBox="0 0 800 200">
<!-- END OF HEADER -->
<rect style="opacity:1.0;fill:#FFFFFF;stroke:none" width="800.0" height="200.0" x="0.0" y="0.0"> </rect>
<path class="bond-0 atom-0 atom-1" d="M 45.7,126.7 L 43.2,118.1" style="fill:none;fill-rule:evenodd;stroke:#FF0000;stroke-width:2.0px;stroke-linecap:butt;stroke-linejoin:miter;stroke-opacity:1"/>
<path class="bond-0 atom-0 atom-1" d="M 43.2,118.1 L 40.7,109.5" style="fill:none;fill-rule:evenodd;stroke:#000000;stroke-width:2.0px;stroke-linecap:butt;stroke-linejoin:miter;stroke-opacity:1"/>
<path class="bond-1 atom-1 atom-2" d="M 40.7,109.5 L 19.4,104.2" style="fill:none;fill-rule:evenodd;stroke:#000000;stroke-width:2.0px;stroke-linecap:butt;stroke-linejoin:miter;stroke-opacity:1"/>
<path class="bond-1 atom-1 atom-2" d="M 39.7,105.8 L 22.0,101.4" style="fill:none;fill-rule:evenodd;stroke:#000000;stroke-width:2.0px;stroke-linecap:butt;stroke-linejoin:miter;stroke-opacity:1"/>
<path class="bond-2 atom-2 atom-3" d="M 19.4,104.2 L 13.2,83.0" style="fill:none;fill-rule:evenodd;stroke:#000000;stroke-width:2.0px;stroke-linecap:butt;stroke-linejoin:miter;stroke-opacity:1"/>
<path class="bond-3 atom-3 atom-4" d="M 13.2,83.0 L 28.5,67.2" style="fill:none;fill-rule:evenodd;stroke:#000000;stroke-width:2.0px;stroke-linecap:butt;stroke-linejoin:miter;stroke-opacity:1"/>
<path class="bond-3 atom-3 atom-4" d="M 16.9,83.9 L 29.6,70.8" style="fill:none;fill-rule:evenodd;stroke:#000000;stroke-width:2.0px;stroke-linecap:butt;stroke-linejoin:miter;stroke-opacity:1"/>
<path class="bond-4 atom-4 atom-5" d="M 28.5,67.2 L 49.9,72.5" style="fill:none;fill-rule:evenodd;stroke:#000000;stroke-width:2.0px;stroke-linecap:butt;stroke-linejoin:miter;stroke-opacity:1"/>
<path class="bond-5 atom-5 atom-6" d="M 49.9,72.5 L 56.0,93.6" style="fill:none;fill-rule:evenodd;stroke:#000000;stroke-width:2.0px;stroke-linecap:butt;stroke-linejoin:miter;stroke-opacity:1"/>
<path class="bond-5 atom-5 atom-6" d="M 47.2,75.2 L 52.3,92.7" style="fill:none;fill-rule:evenodd;stroke:#000000;stroke-width:2.0px;stroke-linecap:butt;stroke-linejoin:miter;stroke-opacity:1"/>
<path class="bond-6 atom-6 atom-7" d="M 56.0,93.6 L 77.3,98.9" style="fill:none;fill-rule:evenodd;stroke:#000000;stroke-width:2.0px;stroke-linecap:butt;stroke-linejoin:miter;stroke-opacity:1"/>
<path class="bond-7 atom-7 atom-8" d="M 77.3,98.9 L 83.4,120.0" style="fill:none;fill-rule:evenodd;stroke:#000000;stroke-width:2.0px;stroke-linecap:butt;stroke-linejoin:miter;stroke-opacity:1"/>
<path class="bond-7 atom-7 atom-8" d="M 81.0,99.8 L 86.1,117.3" style="fill:none;fill-rule:evenodd;stroke:#000000;stroke-width:2.0px;stroke-linecap:butt;stroke-linejoin:miter;stroke-opacity:1"/>
<path class="bond-8 atom-8 atom-9" d="M 83.4,120.0 L 92.3,122.2" style="fill:none;fill-rule:evenodd;stroke:#000000;stroke-width:2.0px;stroke-linecap:butt;stroke-linejoin:miter;stroke-opacity:1"/>
<path class="bond-8 atom-8 atom-9" d="M 92.3,122.2 L 101.2,124.4" style="fill:none;fill-rule:evenodd;stroke:#FF0000;stroke-width:2.0px;stroke-linecap:butt;stroke-linejoin:miter;stroke-opacity:1"/>
<path class="bond-9 atom-9 atom-10" d="M 108.4,121.6 L 114.2,115.5" style="fill:none;fill-rule:evenodd;stroke:#FF0000;stroke-width:2.0px;stroke-linecap:butt;stroke-linejoin:miter;stroke-opacity:1"/>
<path class="bond-9 atom-9 atom-10" d="M 114.2,115.5 L 120.1,109.4" style="fill:none;fill-rule:evenodd;stroke:#000000;stroke-width:2.0px;stroke-linecap:butt;stroke-linejoin:miter;stroke-opacity:1"/>
<path class="bond-10 atom-10 atom-11" d="M 120.1,109.4 L 141.4,114.7" style="fill:none;fill-rule:evenodd;stroke:#000000;stroke-width:2.0px;stroke-linecap:butt;stroke-linejoin:miter;stroke-opacity:1"/>
<path class="bond-10 atom-10 atom-11" d="M 122.7,106.7 L 140.4,111.1" style="fill:none;fill-rule:evenodd;stroke:#000000;stroke-width:2.0px;stroke-linecap:butt;stroke-linejoin:miter;stroke-opacity:1"/>
<path class="bond-11 atom-11 atom-12" d="M 141.4,114.7 L 156.7,98.9" style="fill:none;fill-rule:evenodd;stroke:#000000;stroke-width:2.0px;stroke-linecap:butt;stroke-linejoin:miter;stroke-opacity:1"/>
<path class="bond-12 atom-12 atom-13" d="M 156.7,98.9 L 165.6,101.1" style="fill:none;fill-rule:evenodd;stroke:#000000;stroke-width:2.0px;stroke-linecap:butt;stroke-linejoin:miter;stroke-opacity:1"/>
<path class="bond-12 atom-12 atom-13" d="M 165.6,101.1 L 174.5,103.3" style="fill:none;fill-rule:evenodd;stroke:#FF0000;stroke-width:2.0px;stroke-linecap:butt;stroke-linejoin:miter;stroke-opacity:1"/>
<path class="bond-13 atom-12 atom-14" d="M 156.7,98.9 L 150.6,77.7" style="fill:none;fill-rule:evenodd;stroke:#000000;stroke-width:2.0px;stroke-linecap:butt;stroke-linejoin:miter;stroke-opacity:1"/>
<path class="bond-13 atom-12 atom-14" d="M 153.0,98.0 L 147.9,80.5" style="fill:none;fill-rule:evenodd;stroke:#000000;stroke-width:2.0px;stroke-linecap:butt;stroke-linejoin:miter;stroke-opacity:1"/>
<path class="bond-14 atom-14 atom-15" d="M 150.6,77.7 L 129.2,72.4" style="fill:none;fill-rule:evenodd;stroke:#000000;stroke-width:2.0px;stroke-linecap:butt;stroke-linejoin:miter;stroke-opacity:1"/>
<path class="bond-15 atom-15 atom-16" d="M 129.2,72.4 L 126.7,63.9" style="fill:none;fill-rule:evenodd;stroke:#000000;stroke-width:2.0px;stroke-linecap:butt;stroke-linejoin:miter;stroke-opacity:1"/>
<path class="bond-15 atom-15 atom-16" d="M 126.7,63.9 L 124.3,55.3" style="fill:none;fill-rule:evenodd;stroke:#FF0000;stroke-width:2.0px;stroke-linecap:butt;stroke-linejoin:miter;stroke-opacity:1"/>
<path class="bond-16 atom-15 atom-17" d="M 129.2,72.4 L 114.0,88.3" style="fill:none;fill-rule:evenodd;stroke:#000000;stroke-width:2.0px;stroke-linecap:butt;stroke-linejoin:miter;stroke-opacity:1"/>
<path class="bond-16 atom-15 atom-17" d="M 130.3,76.1 L 117.7,89.2" style="fill:none;fill-rule:evenodd;stroke:#000000;stroke-width:2.0px;stroke-linecap:butt;stroke-linejoin:miter;stroke-opacity:1"/>
<path class="bond-17 atom-17 atom-18" d="M 114.0,88.3 L 92.6,83.0" style="fill:none;fill-rule:evenodd;stroke:#000000;stroke-width:2.0px;stroke-linecap:butt;stroke-linejoin:miter;stroke-opacity:1"/>
<path class="bond-18 atom-18 atom-19" d="M 94.4,83.5 L 91.8,74.4" style="fill:none;fill-rule:evenodd;stroke:#000000;stroke-width:2.0px;stroke-linecap:butt;stroke-linejoin:miter;stroke-opacity:1"/>
<path class="bond-18 atom-18 atom-19" d="M 91.8,74.4 L 89.2,65.4" style="fill:none;fill-rule:evenodd;stroke:#FF0000;stroke-width:2.0px;stroke-linecap:butt;stroke-linejoin:miter;stroke-opacity:1"/>
<path class="bond-18 atom-18 atom-19" d="M 91.3,84.4 L 88.7,75.4" style="fill:none;fill-rule:evenodd;stroke:#000000;stroke-width:2.0px;stroke-linecap:butt;stroke-linejoin:miter;stroke-opacity:1"/>
<path class="bond-18 atom-18 atom-19" d="M 88.7,75.4 L 86.0,66.3" style="fill:none;fill-rule:evenodd;stroke:#FF0000;stroke-width:2.0px;stroke-linecap:butt;stroke-linejoin:miter;stroke-opacity:1"/>
<path class="bond-19 atom-6 atom-1" d="M 56.0,93.6 L 40.7,109.5" style="fill:none;fill-rule:evenodd;stroke:#000000;stroke-width:2.0px;stroke-linecap:butt;stroke-linejoin:miter;stroke-opacity:1"/>
<path class="bond-20 atom-18 atom-7" d="M 92.6,83.0 L 77.3,98.9" style="fill:none;fill-rule:evenodd;stroke:#000000;stroke-width:2.0px;stroke-linecap:butt;stroke-linejoin:miter;stroke-opacity:1"/>
<path class="bond-21 atom-17 atom-10" d="M 114.0,88.3 L 120.1,109.4" style="fill:none;fill-rule:evenodd;stroke:#000000;stroke-width:2.0px;stroke-linecap:butt;stroke-linejoin:miter;stroke-opacity:1"/>
<path d="M 20.4,104.4 L 19.4,104.2 L 19.0,103.1" style="fill:none;stroke:#000000;stroke-width:2.0px;stroke-linecap:butt;stroke-linejoin:miter;stroke-opacity:1;"/>
<path d="M 13.6,84.1 L 13.2,83.0 L 14.0,82.2" style="fill:none;stroke:#000000;stroke-width:2.0px;stroke-linecap:butt;stroke-linejoin:miter;stroke-opacity:1;"/>
<path d="M 27.7,68.0 L 28.5,67.2 L 29.6,67.4" style="fill:none;stroke:#000000;stroke-width:2.0px;stroke-linecap:butt;stroke-linejoin:miter;stroke-opacity:1;"/>
<path d="M 48.8,72.2 L 49.9,72.5 L 50.2,73.5" style="fill:none;stroke:#000000;stroke-width:2.0px;stroke-linecap:butt;stroke-linejoin:miter;stroke-opacity:1;"/>
<path d="M 83.1,119.0 L 83.4,120.0 L 83.9,120.1" style="fill:none;stroke:#000000;stroke-width:2.0px;stroke-linecap:butt;stroke-linejoin:miter;stroke-opacity:1;"/>
<path d="M 140.4,114.5 L 141.4,114.7 L 142.2,113.9" style="fill:none;stroke:#000000;stroke-width:2.0px;stroke-linecap:butt;stroke-linejoin:miter;stroke-opacity:1;"/>
<path d="M 150.9,78.8 L 150.6,77.7 L 149.5,77.5" style="fill:none;stroke:#000000;stroke-width:2.0px;stroke-linecap:butt;stroke-linejoin:miter;stroke-opacity:1;"/>
<path d="M 93.7,83.3 L 92.6,83.0 L 91.8,83.8" style="fill:none;stroke:#000000;stroke-width:2.0px;stroke-linecap:butt;stroke-linejoin:miter;stroke-opacity:1;"/>
<path class="atom-0" d="M 44.0 130.6 Q 44.0 129.1, 44.7 128.3 Q 45.4 127.5, 46.8 127.5 Q 48.2 127.5, 48.9 128.3 Q 49.7 129.1, 49.7 130.6 Q 49.7 132.1, 48.9 133.0 Q 48.2 133.9, 46.8 133.9 Q 45.4 133.9, 44.7 133.0 Q 44.0 132.1, 44.0 130.6 M 46.8 133.1 Q 47.8 133.1, 48.3 132.5 Q 48.8 131.9, 48.8 130.6 Q 48.8 129.4, 48.3 128.8 Q 47.8 128.2, 46.8 128.2 Q 45.9 128.2, 45.4 128.8 Q 44.8 129.4, 44.8 130.6 Q 44.8 131.9, 45.4 132.5 Q 45.9 133.1, 46.8 133.1 " fill="#FF0000"/>
<path class="atom-0" d="M 50.7 127.5 L 51.5 127.5 L 51.5 130.2 L 54.7 130.2 L 54.7 127.5 L 55.5 127.5 L 55.5 133.8 L 54.7 133.8 L 54.7 130.9 L 51.5 130.9 L 51.5 133.8 L 50.7 133.8 L 50.7 127.5 " fill="#FF0000"/>
<path class="atom-9" d="M 101.9 125.3 Q 101.9 123.8, 102.7 123.0 Q 103.4 122.2, 104.8 122.2 Q 106.2 122.2, 106.9 123.0 Q 107.7 123.8, 107.7 125.3 Q 107.7 126.8, 106.9 127.7 Q 106.2 128.6, 104.8 128.6 Q 103.4 128.6, 102.7 127.7 Q 101.9 126.8, 101.9 125.3 M 104.8 127.9 Q 105.8 127.9, 106.3 127.2 Q 106.8 126.6, 106.8 125.3 Q 106.8 124.1, 106.3 123.5 Q 105.8 122.9, 104.8 122.9 Q 103.9 122.9, 103.3 123.5 Q 102.8 124.1, 102.8 125.3 Q 102.8 126.6, 103.3 127.2 Q 103.9 127.9, 104.8 127.9 " fill="#FF0000"/>
<path class="atom-13" d="M 175.2 104.2 Q 175.2 102.7, 175.9 101.8 Q 176.7 101.0, 178.0 101.0 Q 179.4 101.0, 180.2 101.8 Q 180.9 102.7, 180.9 104.2 Q 180.9 105.7, 180.2 106.5 Q 179.4 107.4, 178.0 107.4 Q 176.7 107.4, 175.9 106.5 Q 175.2 105.7, 175.2 104.2 M 178.0 106.7 Q 179.0 106.7, 179.5 106.1 Q 180.0 105.4, 180.0 104.2 Q 180.0 102.9, 179.5 102.3 Q 179.0 101.7, 178.0 101.7 Q 177.1 101.7, 176.6 102.3 Q 176.1 102.9, 176.1 104.2 Q 176.1 105.4, 176.6 106.1 Q 177.1 106.7, 178.0 106.7 " fill="#FF0000"/>
<path class="atom-13" d="M 181.9 101.1 L 182.7 101.1 L 182.7 103.7 L 185.9 103.7 L 185.9 101.1 L 186.8 101.1 L 186.8 107.3 L 185.9 107.3 L 185.9 104.4 L 182.7 104.4 L 182.7 107.3 L 181.9 107.3 L 181.9 101.1 " fill="#FF0000"/>
<path class="atom-16" d="M 120.2 51.3 Q 120.2 49.8, 121.0 49.0 Q 121.7 48.1, 123.1 48.1 Q 124.5 48.1, 125.2 49.0 Q 126.0 49.8, 126.0 51.3 Q 126.0 52.8, 125.2 53.7 Q 124.5 54.5, 123.1 54.5 Q 121.7 54.5, 121.0 53.7 Q 120.2 52.8, 120.2 51.3 M 123.1 53.8 Q 124.1 53.8, 124.6 53.2 Q 125.1 52.6, 125.1 51.3 Q 125.1 50.1, 124.6 49.5 Q 124.1 48.9, 123.1 48.9 Q 122.2 48.9, 121.6 49.5 Q 121.1 50.1, 121.1 51.3 Q 121.1 52.6, 121.6 53.2 Q 122.2 53.8, 123.1 53.8 " fill="#FF0000"/>
<path class="atom-16" d="M 126.9 48.2 L 127.8 48.2 L 127.8 50.9 L 131.0 50.9 L 131.0 48.2 L 131.8 48.2 L 131.8 54.5 L 131.0 54.5 L 131.0 51.6 L 127.8 51.6 L 127.8 54.5 L 126.9 54.5 L 126.9 48.2 " fill="#FF0000"/>
<path class="atom-19" d="M 83.6 61.9 Q 83.6 60.4, 84.4 59.6 Q 85.1 58.7, 86.5 58.7 Q 87.9 58.7, 88.6 59.6 Q 89.3 60.4, 89.3 61.9 Q 89.3 63.4, 88.6 64.3 Q 87.9 65.1, 86.5 65.1 Q 85.1 65.1, 84.4 64.3 Q 83.6 63.4, 83.6 61.9 M 86.5 64.4 Q 87.4 64.4, 87.9 63.8 Q 88.5 63.1, 88.5 61.9 Q 88.5 60.7, 87.9 60.1 Q 87.4 59.4, 86.5 59.4 Q 85.5 59.4, 85.0 60.0 Q 84.5 60.7, 84.5 61.9 Q 84.5 63.2, 85.0 63.8 Q 85.5 64.4, 86.5 64.4 " fill="#FF0000"/>
<path class="legend" d="M 103.4 190.0 L 102.2 186.7 L 97.8 186.7 L 96.6 190.0 L 95.1 190.0 L 99.0 178.7 L 100.9 178.7 L 104.9 190.0 L 103.4 190.0 M 98.2 185.4 L 101.8 185.4 L 100.0 180.3 L 98.2 185.4 " fill="#000000"/>
<path class="bond-0 atom-0 atom-1" d="M 280.9,96.5 L 300.0,85.5" style="fill:none;fill-rule:evenodd;stroke:#000000;stroke-width:2.0px;stroke-linecap:butt;stroke-linejoin:miter;stroke-opacity:1"/>
<path class="bond-1 atom-1 atom-2" d="M 300.0,85.5 L 319.1,96.5" style="fill:none;fill-rule:evenodd;stroke:#000000;stroke-width:2.0px;stroke-linecap:butt;stroke-linejoin:miter;stroke-opacity:1"/>
<path d="M 299.0,86.0 L 300.0,85.5 L 301.0,86.0" style="fill:none;stroke:#000000;stroke-width:2.0px;stroke-linecap:butt;stroke-linejoin:miter;stroke-opacity:1;"/>
<path class="legend" d="M 301.7 184.0 Q 302.7 184.4, 303.3 185.0 Q 303.8 185.7, 303.8 186.7 Q 303.8 188.2, 302.8 189.1 Q 301.8 190.0, 300.0 190.0 L 296.2 190.0 L 296.2 178.7 L 299.5 178.7 Q 301.4 178.7, 302.4 179.5 Q 303.4 180.2, 303.4 181.7 Q 303.4 183.4, 301.7 184.0 M 297.7 180.0 L 297.7 183.5 L 299.5 183.5 Q 300.6 183.5, 301.2 183.1 Q 301.8 182.6, 301.8 181.7 Q 301.8 180.0, 299.5 180.0 L 297.7 180.0 M 300.0 188.7 Q 301.1 188.7, 301.7 188.2 Q 302.2 187.7, 302.2 186.7 Q 302.2 185.7, 301.6 185.3 Q 301.0 184.8, 299.7 184.8 L 297.7 184.8 L 297.7 188.7 L 300.0 188.7 " fill="#000000"/>
<path class="bond-0 atom-0 atom-1" d="M 517.5,58.9 L 525.0,79.5" style="fill:none;fill-rule:evenodd;stroke:#000000;stroke-width:2.0px;stroke-linecap:butt;stroke-linejoin:miter;stroke-opacity:1"/>
<path class="bond-1 atom-1 atom-2" d="M 525.0,79.5 L 546.7,83.4" style="fill:none;fill-rule:evenodd;stroke:#000000;stroke-width:2.0px;stroke-linecap:butt;stroke-linejoin:miter;stroke-opacity:1"/>
<path class="bond-2 atom-2 atom-3" d="M 546.7,83.4 L 560.8,66.5" style="fill:none;fill-rule:evenodd;stroke:#000000;stroke-width:2.0px;stroke-linecap:butt;stroke-linejoin:miter;stroke-opacity:1"/>
<path class="bond-3 atom-2 atom-4" d="M 546.7,83.4 L 554.2,104.0" style="fill:none;fill-rule:evenodd;stroke:#000000;stroke-width:2.0px;stroke-linecap:butt;stroke-linejoin:miter;stroke-opacity:1"/>
<path class="bond-4 atom-4 atom-5" d="M 554.2,104.0 L 575.9,107.9" style="fill:none;fill-rule:evenodd;stroke:#000000;stroke-width:2.0px;stroke-linecap:butt;stroke-linejoin:miter;stroke-opacity:1"/>
<path class="bond-5 atom-5 atom-6" d="M 575.9,107.9 L 590.0,91.0" style="fill:none;fill-rule:evenodd;stroke:#000000;stroke-width:2.0px;stroke-linecap:butt;stroke-linejoin:miter;stroke-opacity:1"/>
<path class="bond-6 atom-4 atom-7" d="M 554.2,104.0 L 540.0,120.9" style="fill:none;fill-rule:evenodd;stroke:#000000;stroke-width:2.0px;stroke-linecap:butt;stroke-linejoin:miter;stroke-opacity:1"/>
<path class="bond-7 atom-7 atom-8" d="M 540.0,120.9 L 518.4,117.1" style="fill:none;fill-rule:evenodd;stroke:#000000;stroke-width:2.0px;stroke-linecap:butt;stroke-linejoin:miter;stroke-opacity:1"/>
<path class="bond-8 atom-8 atom-9" d="M 518.4,117.1 L 504.2,133.9" style="fill:none;fill-rule:evenodd;stroke:#000000;stroke-width:2.0px;stroke-linecap:butt;stroke-linejoin:miter;stroke-opacity:1"/>
<path class="bond-9 atom-9 atom-10" d="M 504.2,133.9 L 511.7,154.6" style="fill:none;fill-rule:evenodd;stroke:#000000;stroke-width:2.0px;stroke-linecap:butt;stroke-linejoin:miter;stroke-opacity:1"/>
<path class="bond-10 atom-9 atom-11" d="M 504.2,133.9 L 482.5,130.1" style="fill:none;fill-rule:evenodd;stroke:#000000;stroke-width:2.0px;stroke-linecap:butt;stroke-linejoin:miter;stroke-opacity:1"/>
<path class="bond-11 atom-11 atom-12" d="M 482.5,130.1 L 468.4,147.0" style="fill:none;fill-rule:evenodd;stroke:#000000;stroke-width:2.0px;stroke-linecap:butt;stroke-linejoin:miter;stroke-opacity:1"/>
<path class="bond-12 atom-12 atom-13" d="M 468.4,147.0 L 446.7,143.2" style="fill:none;fill-rule:evenodd;stroke:#000000;stroke-width:2.0px;stroke-linecap:butt;stroke-linejoin:miter;stroke-opacity:1"/>
<path class="bond-13 atom-13 atom-14" d="M 446.7,143.2 L 439.2,122.5" style="fill:none;fill-rule:evenodd;stroke:#000000;stroke-width:2.0px;stroke-linecap:butt;stroke-linejoin:miter;stroke-opacity:1"/>
<path class="bond-14 atom-14 atom-15" d="M 439.2,122.5 L 417.5,118.7" style="fill:none;fill-rule:evenodd;stroke:#000000;stroke-width:2.0px;stroke-linecap:butt;stroke-linejoin:miter;stroke-opacity:1"/>
<path class="bond-15 atom-15 atom-16" d="M 417.5,118.7 L 410.0,98.0" style="fill:none;fill-rule:evenodd;stroke:#000000;stroke-width:2.0px;stroke-linecap:butt;stroke-linejoin:miter;stroke-opacity:1"/>
<path class="bond-16 atom-14 atom-17" d="M 439.2,122.5 L 453.3,105.6" style="fill:none;fill-rule:evenodd;stroke:#000000;stroke-width:2.0px;stroke-linecap:butt;stroke-linejoin:miter;stroke-opacity:1"/>
<path class="bond-17 atom-17 atom-18" d="M 453.3,105.6 L 434.3,94.6" style="fill:none;fill-rule:evenodd;stroke:#000000;stroke-width:2.0px;stroke-linecap:butt;stroke-linejoin:miter;stroke-opacity:1"/>
<path class="bond-18 atom-17 atom-19" d="M 453.3,105.6 L 460.9,84.9" style="fill:none;fill-rule:evenodd;stroke:#000000;stroke-width:2.0px;stroke-linecap:butt;stroke-linejoin:miter;stroke-opacity:1"/>
<path class="bond-19 atom-19 atom-20" d="M 460.9,84.9 L 446.7,68.1" style="fill:none;fill-rule:evenodd;stroke:#000000;stroke-width:2.0px;stroke-linecap:butt;stroke-linejoin:miter;stroke-opacity:1"/>
<path class="bond-20 atom-20 atom-21" d="M 446.7,68.1 L 454.3,47.4" style="fill:none;fill-rule:evenodd;stroke:#000000;stroke-width:2.0px;stroke-linecap:butt;stroke-linejoin:miter;stroke-opacity:1"/>
<path class="bond-21 atom-21 atom-22" d="M 454.3,47.4 L 448.8,41.0" style="fill:none;fill-rule:evenodd;stroke:#000000;stroke-width:2.0px;stroke-linecap:butt;stroke-linejoin:miter;stroke-opacity:1"/>
<path class="bond-21 atom-21 atom-22" d="M 448.8,41.0 L 443.4,34.5" style="fill:none;fill-rule:evenodd;stroke:#FF0000;stroke-width:2.0px;stroke-linecap:butt;stroke-linejoin:miter;stroke-opacity:1"/>
<path class="bond-22 atom-17 atom-23" d="M 453.3,105.6 L 475.0,109.4" style="fill:none;fill-rule:evenodd;stroke:#000000;stroke-width:2.0px;stroke-linecap:butt;stroke-linejoin:miter;stroke-opacity:1"/>
<path class="bond-23 atom-23 atom-24" d="M 475.0,109.4 L 489.2,92.6" style="fill:none;fill-rule:evenodd;stroke:#000000;stroke-width:2.0px;stroke-linecap:butt;stroke-linejoin:miter;stroke-opacity:1"/>
<path class="bond-24 atom-24 atom-25" d="M 489.2,92.6 L 481.6,71.9" style="fill:none;fill-rule:evenodd;stroke:#000000;stroke-width:2.0px;stroke-linecap:butt;stroke-linejoin:miter;stroke-opacity:1"/>
<path class="bond-25 atom-23 atom-11" d="M 475.0,109.4 L 482.5,130.1" style="fill:none;fill-rule:evenodd;stroke:#000000;stroke-width:2.0px;stroke-linecap:butt;stroke-linejoin:miter;stroke-opacity:1"/>
<path d="M 524.6,78.5 L 525.0,79.5 L 526.1,79.7" style="fill:none;stroke:#000000;stroke-width:2.0px;stroke-linecap:butt;stroke-linejoin:miter;stroke-opacity:1;"/>
<path d="M 574.8,107.7 L 575.9,107.9 L 576.6,107.0" style="fill:none;stroke:#000000;stroke-width:2.0px;stroke-linecap:butt;stroke-linejoin:miter;stroke-opacity:1;"/>
<path d="M 540.7,120.1 L 540.0,120.9 L 539.0,120.7" style="fill:none;stroke:#000000;stroke-width:2.0px;stroke-linecap:butt;stroke-linejoin:miter;stroke-opacity:1;"/>
<path d="M 519.4,117.3 L 518.4,117.1 L 517.7,117.9" style="fill:none;stroke:#000000;stroke-width:2.0px;stroke-linecap:butt;stroke-linejoin:miter;stroke-opacity:1;"/>
<path d="M 469.1,146.1 L 468.4,147.0 L 467.3,146.8" style="fill:none;stroke:#000000;stroke-width:2.0px;stroke-linecap:butt;stroke-linejoin:miter;stroke-opacity:1;"/>
<path d="M 447.8,143.3 L 446.7,143.2 L 446.4,142.1" style="fill:none;stroke:#000000;stroke-width:2.0px;stroke-linecap:butt;stroke-linejoin:miter;stroke-opacity:1;"/>
<path d="M 418.6,118.8 L 417.5,118.7 L 417.2,117.6" style="fill:none;stroke:#000000;stroke-width:2.0px;stroke-linecap:butt;stroke-linejoin:miter;stroke-opacity:1;"/>
<path d="M 460.5,86.0 L 460.9,84.9 L 460.2,84.1" style="fill:none;stroke:#000000;stroke-width:2.0px;stroke-linecap:butt;stroke-linejoin:miter;stroke-opacity:1;"/>
<path d="M 447.4,68.9 L 446.7,68.1 L 447.1,67.0" style="fill:none;stroke:#000000;stroke-width:2.0px;stroke-linecap:butt;stroke-linejoin:miter;stroke-opacity:1;"/>
<path d="M 453.9,48.4 L 454.3,47.4 L 454.0,47.1" style="fill:none;stroke:#000000;stroke-width:2.0px;stroke-linecap:butt;stroke-linejoin:miter;stroke-opacity:1;"/>
<path d="M 488.5,93.4 L 489.2,92.6 L 488.8,91.5" style="fill:none;stroke:#000000;stroke-width:2.0px;stroke-linecap:butt;stroke-linejoin:miter;stroke-opacity:1;"/>
<path class="atom-22" d="M 431.1 27.5 L 431.9 27.5 L 431.9 30.1 L 435.1 30.1 L 435.1 27.5 L 436.0 27.5 L 436.0 33.7 L 435.1 33.7 L 435.1 30.8 L 431.9 30.8 L 431.9 33.7 L 431.1 33.7 L 431.1 27.5 " fill="#FF0000"/>
<path class="atom-22" d="M 437.2 30.6 Q 437.2 29.1, 438.0 28.2 Q 438.7 27.4, 440.1 27.4 Q 441.5 27.4, 442.2 28.2 Q 443.0 29.1, 443.0 30.6 Q 443.0 32.1, 442.2 32.9 Q 441.5 33.8, 440.1 33.8 Q 438.7 33.8, 438.0 32.9 Q 437.2 32.1, 437.2 30.6 M 440.1 33.1 Q 441.1 33.1, 441.6 32.4 Q 442.1 31.8, 442.1 30.6 Q 442.1 29.3, 441.6 28.7 Q 441.1 28.1, 440.1 28.1 Q 439.2 28.1, 438.6 28.7 Q 438.1 29.3, 438.1 30.6 Q 438.1 31.8, 438.6 32.4 Q 439.2 33.1, 440.1 33.1 " fill="#FF0000"/>
<path class="legend" d="M 495.6 184.2 Q 495.6 181.4, 496.9 179.9 Q 498.3 178.4, 500.8 178.4 Q 503.1 178.4, 504.4 180.0 L 503.3 180.9 Q 502.4 179.7, 500.8 179.7 Q 499.1 179.7, 498.2 180.9 Q 497.3 182.0, 497.3 184.2 Q 497.3 186.4, 498.2 187.6 Q 499.1 188.7, 501.0 188.7 Q 502.2 188.7, 503.7 188.0 L 504.1 189.2 Q 503.5 189.6, 502.6 189.8 Q 501.7 190.0, 500.7 190.0 Q 498.3 190.0, 496.9 188.5 Q 495.6 187.0, 495.6 184.2 " fill="#000000"/>
</svg>