<svg xmlns="http://www.w3.org/2000/svg" xmlns:rdkit="http://www.rdkit.org/xml" xmlns:xlink="http://www.w3.org/1999/xlink" version="1.1" baseProfile="full" xml:space="preserve" width="800px" height="200px" viewBox="0 0 800 200">
<!-- END OF HEADER -->
<rect style="opacity:1.0;fill:#FFFFFF;stroke:none" width="800.0" height="200.0" x="0.0" y="0.0"> </rect>
<path class="bond-0 atom-0 atom-1" d="M 68.6,100.6 L 71.1,94.5" style="fill:none;fill-rule:evenodd;stroke:#FF0000;stroke-width:2.0px;stroke-linecap:butt;stroke-linejoin:miter;stroke-opacity:1"/>
<path class="bond-0 atom-0 atom-1" d="M 71.1,94.5 L 73.5,88.3" style="fill:none;fill-rule:evenodd;stroke:#000000;stroke-width:2.0px;stroke-linecap:butt;stroke-linejoin:miter;stroke-opacity:1"/>
<path class="bond-0 atom-0 atom-1" d="M 70.8,101.4 L 73.2,95.3" style="fill:none;fill-rule:evenodd;stroke:#FF0000;stroke-width:2.0px;stroke-linecap:butt;stroke-linejoin:miter;stroke-opacity:1"/>
<path class="bond-0 atom-0 atom-1" d="M 73.2,95.3 L 75.7,89.2" style="fill:none;fill-rule:evenodd;stroke:#000000;stroke-width:2.0px;stroke-linecap:butt;stroke-linejoin:miter;stroke-opacity:1"/>
<path class="bond-1 atom-1 atom-2" d="M 74.3,89.4 L 70.7,84.7" style="fill:none;fill-rule:evenodd;stroke:#000000;stroke-width:2.0px;stroke-linecap:butt;stroke-linejoin:miter;stroke-opacity:1"/>
<path class="bond-1 atom-1 atom-2" d="M 70.7,84.7 L 67.0,80.1" style="fill:none;fill-rule:evenodd;stroke:#FF0000;stroke-width:2.0px;stroke-linecap:butt;stroke-linejoin:miter;stroke-opacity:1"/>
<path class="bond-2 atom-1 atom-3" d="M 74.3,89.4 L 89.6,87.2" style="fill:none;fill-rule:evenodd;stroke:#000000;stroke-width:2.0px;stroke-linecap:butt;stroke-linejoin:miter;stroke-opacity:1"/>
<path class="bond-3 atom-3 atom-4" d="M 89.6,87.2 L 95.3,72.8" style="fill:none;fill-rule:evenodd;stroke:#000000;stroke-width:2.0px;stroke-linecap:butt;stroke-linejoin:miter;stroke-opacity:1"/>
<path class="bond-3 atom-3 atom-4" d="M 92.3,86.8 L 97.0,74.9" style="fill:none;fill-rule:evenodd;stroke:#000000;stroke-width:2.0px;stroke-linecap:butt;stroke-linejoin:miter;stroke-opacity:1"/>
<path class="bond-4 atom-4 atom-5" d="M 95.3,72.8 L 110.6,70.6" style="fill:none;fill-rule:evenodd;stroke:#000000;stroke-width:2.0px;stroke-linecap:butt;stroke-linejoin:miter;stroke-opacity:1"/>
<path class="bond-5 atom-5 atom-6" d="M 110.6,70.6 L 120.2,82.7" style="fill:none;fill-rule:evenodd;stroke:#000000;stroke-width:2.0px;stroke-linecap:butt;stroke-linejoin:miter;stroke-opacity:1"/>
<path class="bond-5 atom-5 atom-6" d="M 109.6,73.1 L 117.5,83.1" style="fill:none;fill-rule:evenodd;stroke:#000000;stroke-width:2.0px;stroke-linecap:butt;stroke-linejoin:miter;stroke-opacity:1"/>
<path class="bond-6 atom-6 atom-7" d="M 120.2,82.7 L 126.6,81.8" style="fill:none;fill-rule:evenodd;stroke:#000000;stroke-width:2.0px;stroke-linecap:butt;stroke-linejoin:miter;stroke-opacity:1"/>
<path class="bond-6 atom-6 atom-7" d="M 126.6,81.8 L 132.9,80.8" style="fill:none;fill-rule:evenodd;stroke:#FF0000;stroke-width:2.0px;stroke-linecap:butt;stroke-linejoin:miter;stroke-opacity:1"/>
<path class="bond-7 atom-6 atom-8" d="M 120.2,82.7 L 114.5,97.0" style="fill:none;fill-rule:evenodd;stroke:#000000;stroke-width:2.0px;stroke-linecap:butt;stroke-linejoin:miter;stroke-opacity:1"/>
<path class="bond-8 atom-8 atom-9" d="M 114.5,97.0 L 118.2,101.7" style="fill:none;fill-rule:evenodd;stroke:#000000;stroke-width:2.0px;stroke-linecap:butt;stroke-linejoin:miter;stroke-opacity:1"/>
<path class="bond-8 atom-8 atom-9" d="M 118.2,101.7 L 121.9,106.4" style="fill:none;fill-rule:evenodd;stroke:#FF0000;stroke-width:2.0px;stroke-linecap:butt;stroke-linejoin:miter;stroke-opacity:1"/>
<path class="bond-9 atom-8 atom-10" d="M 114.5,97.0 L 99.2,99.3" style="fill:none;fill-rule:evenodd;stroke:#000000;stroke-width:2.0px;stroke-linecap:butt;stroke-linejoin:miter;stroke-opacity:1"/>
<path class="bond-9 atom-8 atom-10" d="M 112.8,94.9 L 100.2,96.8" style="fill:none;fill-rule:evenodd;stroke:#000000;stroke-width:2.0px;stroke-linecap:butt;stroke-linejoin:miter;stroke-opacity:1"/>
<path class="bond-10 atom-10 atom-3" d="M 99.2,99.3 L 89.6,87.2" style="fill:none;fill-rule:evenodd;stroke:#000000;stroke-width:2.0px;stroke-linecap:butt;stroke-linejoin:miter;stroke-opacity:1"/>
<path d="M 74.2,89.2 L 74.3,89.4 L 75.1,89.3" style="fill:none;stroke:#000000;stroke-width:2.0px;stroke-linecap:butt;stroke-linejoin:miter;stroke-opacity:1;"/>
<path d="M 95.0,73.5 L 95.3,72.8 L 96.1,72.7" style="fill:none;stroke:#000000;stroke-width:2.0px;stroke-linecap:butt;stroke-linejoin:miter;stroke-opacity:1;"/>
<path d="M 109.8,70.7 L 110.6,70.6 L 111.1,71.2" style="fill:none;stroke:#000000;stroke-width:2.0px;stroke-linecap:butt;stroke-linejoin:miter;stroke-opacity:1;"/>
<path d="M 100.0,99.2 L 99.2,99.3 L 98.7,98.7" style="fill:none;stroke:#000000;stroke-width:2.0px;stroke-linecap:butt;stroke-linejoin:miter;stroke-opacity:1;"/>
<path class="atom-0" d="M 66.6 103.7 Q 66.6 102.7, 67.1 102.1 Q 67.7 101.5, 68.6 101.5 Q 69.6 101.5, 70.1 102.1 Q 70.6 102.7, 70.6 103.7 Q 70.6 104.8, 70.1 105.4 Q 69.6 106.0, 68.6 106.0 Q 67.7 106.0, 67.1 105.4 Q 66.6 104.8, 66.6 103.7 M 68.6 105.5 Q 69.3 105.5, 69.7 105.1 Q 70.0 104.6, 70.0 103.7 Q 70.0 102.9, 69.7 102.5 Q 69.3 102.0, 68.6 102.0 Q 68.0 102.0, 67.6 102.4 Q 67.2 102.9, 67.2 103.7 Q 67.2 104.6, 67.6 105.1 Q 68.0 105.5, 68.6 105.5 " fill="#FF0000"/>
<path class="atom-2" d="M 58.4 75.1 L 59.0 75.1 L 59.0 77.0 L 61.3 77.0 L 61.3 75.1 L 61.9 75.1 L 61.9 79.5 L 61.3 79.5 L 61.3 77.5 L 59.0 77.5 L 59.0 79.5 L 58.4 79.5 L 58.4 75.1 " fill="#FF0000"/>
<path class="atom-2" d="M 62.8 77.3 Q 62.8 76.2, 63.3 75.6 Q 63.8 75.1, 64.8 75.1 Q 65.7 75.1, 66.3 75.6 Q 66.8 76.2, 66.8 77.3 Q 66.8 78.3, 66.2 78.9 Q 65.7 79.5, 64.8 79.5 Q 63.8 79.5, 63.3 78.9 Q 62.8 78.3, 62.8 77.3 M 64.8 79.1 Q 65.4 79.1, 65.8 78.6 Q 66.2 78.2, 66.2 77.3 Q 66.2 76.4, 65.8 76.0 Q 65.4 75.6, 64.8 75.6 Q 64.1 75.6, 63.7 76.0 Q 63.4 76.4, 63.4 77.3 Q 63.4 78.2, 63.7 78.6 Q 64.1 79.1, 64.8 79.1 " fill="#FF0000"/>
<path class="atom-7" d="M 133.4 80.5 Q 133.4 79.4, 134.0 78.8 Q 134.5 78.2, 135.5 78.2 Q 136.4 78.2, 136.9 78.8 Q 137.5 79.4, 137.5 80.5 Q 137.5 81.5, 136.9 82.1 Q 136.4 82.7, 135.5 82.7 Q 134.5 82.7, 134.0 82.1 Q 133.4 81.5, 133.4 80.5 M 135.5 82.2 Q 136.1 82.2, 136.5 81.8 Q 136.8 81.3, 136.8 80.5 Q 136.8 79.6, 136.5 79.2 Q 136.1 78.7, 135.5 78.7 Q 134.8 78.7, 134.4 79.2 Q 134.1 79.6, 134.1 80.5 Q 134.1 81.3, 134.4 81.8 Q 134.8 82.2, 135.5 82.2 " fill="#FF0000"/>
<path class="atom-7" d="M 138.1 78.3 L 138.7 78.3 L 138.7 80.2 L 141.0 80.2 L 141.0 78.3 L 141.6 78.3 L 141.6 82.7 L 141.0 82.7 L 141.0 80.6 L 138.7 80.6 L 138.7 82.7 L 138.1 82.7 L 138.1 78.3 " fill="#FF0000"/>
<path class="atom-9" d="M 122.0 109.2 Q 122.0 108.1, 122.6 107.5 Q 123.1 106.9, 124.0 106.9 Q 125.0 106.9, 125.5 107.5 Q 126.0 108.1, 126.0 109.2 Q 126.0 110.2, 125.5 110.8 Q 125.0 111.4, 124.0 111.4 Q 123.1 111.4, 122.6 110.8 Q 122.0 110.2, 122.0 109.2 M 124.0 110.9 Q 124.7 110.9, 125.1 110.5 Q 125.4 110.0, 125.4 109.2 Q 125.4 108.3, 125.1 107.9 Q 124.7 107.4, 124.0 107.4 Q 123.4 107.4, 123.0 107.9 Q 122.7 108.3, 122.7 109.2 Q 122.7 110.0, 123.0 110.5 Q 123.4 110.9, 124.0 110.9 " fill="#FF0000"/>
<path class="atom-9" d="M 126.7 107.0 L 127.3 107.0 L 127.3 108.8 L 129.6 108.8 L 129.6 107.0 L 130.1 107.0 L 130.1 111.4 L 129.6 111.4 L 129.6 109.3 L 127.3 109.3 L 127.3 111.4 L 126.7 111.4 L 126.7 107.0 " fill="#FF0000"/>
<path class="legend" d="M 103.4 190.0 L 102.2 186.7 L 97.8 186.7 L 96.6 190.0 L 95.1 190.0 L 99.0 178.7 L 100.9 178.7 L 104.9 190.0 L 103.4 190.0 M 98.2 185.4 L 101.8 185.4 L 100.0 180.3 L 98.2 185.4 " fill="#000000"/>
<path class="bond-0 atom-0 atom-1" d="M 210.0,94.2 L 223.4,86.6" style="fill:none;fill-rule:evenodd;stroke:#000000;stroke-width:2.0px;stroke-linecap:butt;stroke-linejoin:miter;stroke-opacity:1"/>
<path class="bond-1 atom-1 atom-2" d="M 223.4,86.6 L 236.7,94.4" style="fill:none;fill-rule:evenodd;stroke:#000000;stroke-width:2.0px;stroke-linecap:butt;stroke-linejoin:miter;stroke-opacity:1"/>
<path class="bond-2 atom-2 atom-3" d="M 236.7,94.4 L 250.2,86.8" style="fill:none;fill-rule:evenodd;stroke:#000000;stroke-width:2.0px;stroke-linecap:butt;stroke-linejoin:miter;stroke-opacity:1"/>
<path class="bond-3 atom-3 atom-4" d="M 250.2,86.8 L 250.2,80.4" style="fill:none;fill-rule:evenodd;stroke:#000000;stroke-width:2.0px;stroke-linecap:butt;stroke-linejoin:miter;stroke-opacity:1"/>
<path class="bond-3 atom-3 atom-4" d="M 250.2,80.4 L 250.3,74.1" style="fill:none;fill-rule:evenodd;stroke:#FF0000;stroke-width:2.0px;stroke-linecap:butt;stroke-linejoin:miter;stroke-opacity:1"/>
<path class="bond-4 atom-3 atom-5" d="M 250.2,86.8 L 263.5,94.6" style="fill:none;fill-rule:evenodd;stroke:#000000;stroke-width:2.0px;stroke-linecap:butt;stroke-linejoin:miter;stroke-opacity:1"/>
<path class="bond-5 atom-5 atom-6" d="M 263.5,94.6 L 263.4,100.9" style="fill:none;fill-rule:evenodd;stroke:#000000;stroke-width:2.0px;stroke-linecap:butt;stroke-linejoin:miter;stroke-opacity:1"/>
<path class="bond-5 atom-5 atom-6" d="M 263.4,100.9 L 263.4,107.3" style="fill:none;fill-rule:evenodd;stroke:#FF0000;stroke-width:2.0px;stroke-linecap:butt;stroke-linejoin:miter;stroke-opacity:1"/>
<path class="bond-6 atom-5 atom-7" d="M 263.5,94.6 L 276.9,87.0" style="fill:none;fill-rule:evenodd;stroke:#000000;stroke-width:2.0px;stroke-linecap:butt;stroke-linejoin:miter;stroke-opacity:1"/>
<path class="bond-7 atom-7 atom-8" d="M 276.9,87.0 L 282.3,90.1" style="fill:none;fill-rule:evenodd;stroke:#000000;stroke-width:2.0px;stroke-linecap:butt;stroke-linejoin:miter;stroke-opacity:1"/>
<path class="bond-7 atom-7 atom-8" d="M 282.3,90.1 L 287.7,93.3" style="fill:none;fill-rule:evenodd;stroke:#FF0000;stroke-width:2.0px;stroke-linecap:butt;stroke-linejoin:miter;stroke-opacity:1"/>
<path class="bond-8 atom-8 atom-9" d="M 292.7,93.3 L 298.2,90.3" style="fill:none;fill-rule:evenodd;stroke:#FF0000;stroke-width:2.0px;stroke-linecap:butt;stroke-linejoin:miter;stroke-opacity:1"/>
<path class="bond-8 atom-8 atom-9" d="M 298.2,90.3 L 303.7,87.2" style="fill:none;fill-rule:evenodd;stroke:#000000;stroke-width:2.0px;stroke-linecap:butt;stroke-linejoin:miter;stroke-opacity:1"/>
<path class="bond-9 atom-9 atom-10" d="M 303.7,87.2 L 317.0,95.0" style="fill:none;fill-rule:evenodd;stroke:#000000;stroke-width:2.0px;stroke-linecap:butt;stroke-linejoin:miter;stroke-opacity:1"/>
<path class="bond-10 atom-10 atom-11" d="M 317.0,95.0 L 330.4,87.4" style="fill:none;fill-rule:evenodd;stroke:#000000;stroke-width:2.0px;stroke-linecap:butt;stroke-linejoin:miter;stroke-opacity:1"/>
<path class="bond-10 atom-10 atom-11" d="M 317.0,92.3 L 329.3,85.3" style="fill:none;fill-rule:evenodd;stroke:#000000;stroke-width:2.0px;stroke-linecap:butt;stroke-linejoin:miter;stroke-opacity:1;stroke-dasharray:6,4"/>
<path class="bond-11 atom-11 atom-12" d="M 330.4,87.4 L 343.7,95.2" style="fill:none;fill-rule:evenodd;stroke:#000000;stroke-width:2.0px;stroke-linecap:butt;stroke-linejoin:miter;stroke-opacity:1"/>
<path class="bond-11 atom-11 atom-12" d="M 330.4,90.0 L 341.4,96.5" style="fill:none;fill-rule:evenodd;stroke:#000000;stroke-width:2.0px;stroke-linecap:butt;stroke-linejoin:miter;stroke-opacity:1;stroke-dasharray:6,4"/>
<path class="bond-12 atom-12 atom-13" d="M 343.7,95.2 L 343.7,101.5" style="fill:none;fill-rule:evenodd;stroke:#000000;stroke-width:2.0px;stroke-linecap:butt;stroke-linejoin:miter;stroke-opacity:1"/>
<path class="bond-12 atom-12 atom-13" d="M 343.7,101.5 L 343.6,107.9" style="fill:none;fill-rule:evenodd;stroke:#FF0000;stroke-width:2.0px;stroke-linecap:butt;stroke-linejoin:miter;stroke-opacity:1"/>
<path class="bond-13 atom-12 atom-14" d="M 343.7,95.2 L 357.1,87.6" style="fill:none;fill-rule:evenodd;stroke:#000000;stroke-width:2.0px;stroke-linecap:butt;stroke-linejoin:miter;stroke-opacity:1"/>
<path class="bond-13 atom-12 atom-14" d="M 343.7,92.5 L 354.8,86.2" style="fill:none;fill-rule:evenodd;stroke:#000000;stroke-width:2.0px;stroke-linecap:butt;stroke-linejoin:miter;stroke-opacity:1;stroke-dasharray:6,4"/>
<path class="bond-14 atom-14 atom-15" d="M 357.1,87.6 L 357.2,81.2" style="fill:none;fill-rule:evenodd;stroke:#000000;stroke-width:2.0px;stroke-linecap:butt;stroke-linejoin:miter;stroke-opacity:1"/>
<path class="bond-14 atom-14 atom-15" d="M 357.2,81.2 L 357.2,74.9" style="fill:none;fill-rule:evenodd;stroke:#FF0000;stroke-width:2.0px;stroke-linecap:butt;stroke-linejoin:miter;stroke-opacity:1"/>
<path class="bond-15 atom-14 atom-16" d="M 357.1,87.6 L 370.5,95.4" style="fill:none;fill-rule:evenodd;stroke:#000000;stroke-width:2.0px;stroke-linecap:butt;stroke-linejoin:miter;stroke-opacity:1"/>
<path class="bond-15 atom-14 atom-16" d="M 359.5,86.2 L 370.5,92.7" style="fill:none;fill-rule:evenodd;stroke:#000000;stroke-width:2.0px;stroke-linecap:butt;stroke-linejoin:miter;stroke-opacity:1;stroke-dasharray:6,4"/>
<path class="bond-16 atom-16 atom-17" d="M 370.5,95.4 L 375.9,92.3" style="fill:none;fill-rule:evenodd;stroke:#000000;stroke-width:2.0px;stroke-linecap:butt;stroke-linejoin:miter;stroke-opacity:1"/>
<path class="bond-16 atom-16 atom-17" d="M 375.9,92.3 L 381.4,89.2" style="fill:none;fill-rule:evenodd;stroke:#FF0000;stroke-width:2.0px;stroke-linecap:butt;stroke-linejoin:miter;stroke-opacity:1"/>
<path d="M 222.8,86.9 L 223.4,86.6 L 224.1,86.9" style="fill:none;stroke:#000000;stroke-width:2.0px;stroke-linecap:butt;stroke-linejoin:miter;stroke-opacity:1;"/>
<path d="M 236.1,94.0 L 236.7,94.4 L 237.4,94.0" style="fill:none;stroke:#000000;stroke-width:2.0px;stroke-linecap:butt;stroke-linejoin:miter;stroke-opacity:1;"/>
<path d="M 276.2,87.3 L 276.9,87.0 L 277.2,87.1" style="fill:none;stroke:#000000;stroke-width:2.0px;stroke-linecap:butt;stroke-linejoin:miter;stroke-opacity:1;"/>
<path d="M 303.4,87.3 L 303.7,87.2 L 304.3,87.5" style="fill:none;stroke:#000000;stroke-width:2.0px;stroke-linecap:butt;stroke-linejoin:miter;stroke-opacity:1;"/>
<path d="M 316.3,94.6 L 317.0,95.0 L 317.6,94.6" style="fill:none;stroke:#000000;stroke-width:2.0px;stroke-linecap:butt;stroke-linejoin:miter;stroke-opacity:1;"/>
<path d="M 329.7,87.7 L 330.4,87.4 L 331.1,87.7" style="fill:none;stroke:#000000;stroke-width:2.0px;stroke-linecap:butt;stroke-linejoin:miter;stroke-opacity:1;"/>
<path d="M 369.8,95.0 L 370.5,95.4 L 370.7,95.2" style="fill:none;stroke:#000000;stroke-width:2.0px;stroke-linecap:butt;stroke-linejoin:miter;stroke-opacity:1;"/>
<path class="atom-4" d="M 248.3 71.3 Q 248.3 70.3, 248.8 69.7 Q 249.3 69.1, 250.3 69.1 Q 251.3 69.1, 251.8 69.7 Q 252.3 70.3, 252.3 71.3 Q 252.3 72.4, 251.8 73.0 Q 251.2 73.6, 250.3 73.6 Q 249.3 73.6, 248.8 73.0 Q 248.3 72.4, 248.3 71.3 M 250.3 73.1 Q 251.0 73.1, 251.3 72.7 Q 251.7 72.2, 251.7 71.3 Q 251.7 70.5, 251.3 70.0 Q 251.0 69.6, 250.3 69.6 Q 249.6 69.6, 249.3 70.0 Q 248.9 70.5, 248.9 71.3 Q 248.9 72.2, 249.3 72.7 Q 249.6 73.1, 250.3 73.1 " fill="#FF0000"/>
<path class="atom-4" d="M 253.0 69.2 L 253.6 69.2 L 253.6 71.0 L 255.8 71.0 L 255.8 69.2 L 256.4 69.2 L 256.4 73.5 L 255.8 73.5 L 255.8 71.5 L 253.6 71.5 L 253.6 73.5 L 253.0 73.5 L 253.0 69.2 " fill="#FF0000"/>
<path class="atom-6" d="M 261.4 110.0 Q 261.4 109.0, 261.9 108.4 Q 262.4 107.8, 263.4 107.8 Q 264.3 107.8, 264.9 108.4 Q 265.4 109.0, 265.4 110.0 Q 265.4 111.1, 264.9 111.7 Q 264.3 112.3, 263.4 112.3 Q 262.4 112.3, 261.9 111.7 Q 261.4 111.1, 261.4 110.0 M 263.4 111.8 Q 264.0 111.8, 264.4 111.4 Q 264.8 110.9, 264.8 110.0 Q 264.8 109.2, 264.4 108.7 Q 264.0 108.3, 263.4 108.3 Q 262.7 108.3, 262.3 108.7 Q 262.0 109.2, 262.0 110.0 Q 262.0 110.9, 262.3 111.4 Q 262.7 111.8, 263.4 111.8 " fill="#FF0000"/>
<path class="atom-6" d="M 266.1 107.9 L 266.7 107.9 L 266.7 109.7 L 268.9 109.7 L 268.9 107.9 L 269.5 107.9 L 269.5 112.2 L 268.9 112.2 L 268.9 110.2 L 266.7 110.2 L 266.7 112.2 L 266.1 112.2 L 266.1 107.9 " fill="#FF0000"/>
<path class="atom-8" d="M 288.2 94.8 Q 288.2 93.7, 288.7 93.2 Q 289.3 92.6, 290.2 92.6 Q 291.2 92.6, 291.7 93.2 Q 292.2 93.7, 292.2 94.8 Q 292.2 95.9, 291.7 96.5 Q 291.2 97.1, 290.2 97.1 Q 289.3 97.1, 288.7 96.5 Q 288.2 95.9, 288.2 94.8 M 290.2 96.6 Q 290.9 96.6, 291.3 96.1 Q 291.6 95.7, 291.6 94.8 Q 291.6 93.9, 291.3 93.5 Q 290.9 93.1, 290.2 93.1 Q 289.6 93.1, 289.2 93.5 Q 288.8 93.9, 288.8 94.8 Q 288.8 95.7, 289.2 96.1 Q 289.6 96.6, 290.2 96.6 " fill="#FF0000"/>
<path class="atom-13" d="M 341.6 110.6 Q 341.6 109.6, 342.1 109.0 Q 342.6 108.4, 343.6 108.4 Q 344.6 108.4, 345.1 109.0 Q 345.6 109.6, 345.6 110.6 Q 345.6 111.7, 345.1 112.3 Q 344.6 112.9, 343.6 112.9 Q 342.6 112.9, 342.1 112.3 Q 341.6 111.7, 341.6 110.6 M 343.6 112.4 Q 344.3 112.4, 344.6 112.0 Q 345.0 111.5, 345.0 110.6 Q 345.0 109.8, 344.6 109.3 Q 344.3 108.9, 343.6 108.9 Q 342.9 108.9, 342.6 109.3 Q 342.2 109.8, 342.2 110.6 Q 342.2 111.5, 342.6 112.0 Q 342.9 112.4, 343.6 112.4 " fill="#FF0000"/>
<path class="atom-13" d="M 346.3 108.5 L 346.9 108.5 L 346.9 110.3 L 349.1 110.3 L 349.1 108.5 L 349.7 108.5 L 349.7 112.8 L 349.1 112.8 L 349.1 110.8 L 346.9 110.8 L 346.9 112.8 L 346.3 112.8 L 346.3 108.5 " fill="#FF0000"/>
<path class="atom-15" d="M 355.3 72.1 Q 355.3 71.1, 355.8 70.5 Q 356.3 69.9, 357.3 69.9 Q 358.2 69.9, 358.8 70.5 Q 359.3 71.1, 359.3 72.1 Q 359.3 73.2, 358.7 73.8 Q 358.2 74.4, 357.3 74.4 Q 356.3 74.4, 355.8 73.8 Q 355.3 73.2, 355.3 72.1 M 357.3 73.9 Q 357.9 73.9, 358.3 73.5 Q 358.7 73.0, 358.7 72.1 Q 358.7 71.3, 358.3 70.8 Q 357.9 70.4, 357.3 70.4 Q 356.6 70.4, 356.2 70.8 Q 355.9 71.3, 355.9 72.1 Q 355.9 73.0, 356.2 73.5 Q 356.6 73.9, 357.3 73.9 " fill="#FF0000"/>
<path class="atom-15" d="M 360.0 70.0 L 360.5 70.0 L 360.5 71.8 L 362.8 71.8 L 362.8 70.0 L 363.4 70.0 L 363.4 74.3 L 362.8 74.3 L 362.8 72.3 L 360.5 72.3 L 360.5 74.3 L 360.0 74.3 L 360.0 70.0 " fill="#FF0000"/>
<path class="atom-17" d="M 381.9 87.8 Q 381.9 86.7, 382.4 86.1 Q 382.9 85.5, 383.9 85.5 Q 384.9 85.5, 385.4 86.1 Q 385.9 86.7, 385.9 87.8 Q 385.9 88.8, 385.4 89.4 Q 384.8 90.0, 383.9 90.0 Q 382.9 90.0, 382.4 89.4 Q 381.9 88.8, 381.9 87.8 M 383.9 89.5 Q 384.6 89.5, 384.9 89.1 Q 385.3 88.6, 385.3 87.8 Q 385.3 86.9, 384.9 86.5 Q 384.6 86.0, 383.9 86.0 Q 383.2 86.0, 382.9 86.5 Q 382.5 86.9, 382.5 87.8 Q 382.5 88.7, 382.9 89.1 Q 383.2 89.5, 383.9 89.5 " fill="#FF0000"/>
<path class="atom-17" d="M 386.6 85.6 L 387.2 85.6 L 387.2 87.5 L 389.4 87.5 L 389.4 85.6 L 390.0 85.6 L 390.0 90.0 L 389.4 90.0 L 389.4 88.0 L 387.2 88.0 L 387.2 90.0 L 386.6 90.0 L 386.6 85.6 " fill="#FF0000"/>
<path class="legend" d="M 295.6 184.2 Q 295.6 181.4, 296.9 179.9 Q 298.3 178.4, 300.8 178.4 Q 303.1 178.4, 304.4 180.0 L 303.3 180.9 Q 302.4 179.7, 300.8 179.7 Q 299.1 179.7, 298.2 180.9 Q 297.3 182.0, 297.3 184.2 Q 297.3 186.4, 298.2 187.6 Q 299.1 188.7, 301.0 188.7 Q 302.2 188.7, 303.7 188.0 L 304.1 189.2 Q 303.5 189.6, 302.6 189.8 Q 301.7 190.0, 300.7 190.0 Q 298.3 190.0, 296.9 188.5 Q 295.6 187.0, 295.6 184.2 " fill="#000000"/>
</svg>