<svg width="1365" height="1024" xmlns="http://www.w3.org/2000/svg" xmlns:xlink="http://www.w3.org/1999/xlink" overflow="hidden"><defs><clipPath id="clip0"><rect x="0" y="0" width="1365" height="1024"/></clipPath></defs><g clip-path="url(#clip0)"><rect x="0" y="0" width="1365" height="1024.25" fill="#FFFFFF"/><text font-family="Arial,Arial_MSFontService,sans-serif" font-weight="400" font-size="109" transform="matrix(1 0 0 1.00024 78.6475 479)">Bát cương</text><text font-family="Arial,Arial_MSFontService,sans-serif" font-weight="400" font-size="109" transform="matrix(1 0 0 1.00024 78.6475 585)">eight principles</text><text font-family="Arial,Arial_MSFontService,sans-serif" font-weight="400" font-size="80" transform="matrix(1 0 0 1.00024 363.268 802)">biểu</text><text font-family="Arial,Arial_MSFontService,sans-serif" font-weight="400" font-size="80" transform="matrix(1 0 0 1.00024 528.794 802)">thực</text><text font-family="Arial,Arial_MSFontService,sans-serif" font-weight="400" font-size="80" transform="matrix(1 0 0 1.00024 703.151 802)">nhiệt</text><text font-family="Arial,Arial_MSFontService,sans-serif" font-weight="400" font-size="80" transform="matrix(1 0 0 1.00024 889.252 802)">là</text><text font-family="Arial,Arial_MSFontService,sans-serif" font-weight="400" font-size="80" transform="matrix(1 0 0 1.00024 968.973 802)">thuộc</text><text font-family="Arial,Arial_MSFontService,sans-serif" font-weight="400" font-size="80" transform="matrix(1 0 0 1.00024 363.268 889)">dương</text><text font-family="Arial,Arial_MSFontService,sans-serif" font-weight="400" font-size="80" transform="matrix(1 0 0 1.00024 615.353 889)">(Yang)</text><text font-family="Arial,Arial_MSFontService,sans-serif" font-weight="400" font-size="80" transform="matrix(1 0 0 1.00024 866.518 889)">còn</text><text font-family="Arial,Arial_MSFontService,sans-serif" font-weight="400" font-size="80" transform="matrix(1 0 0 1.00024 1011.3 889)">lý</text><text font-family="Arial,Arial_MSFontService,sans-serif" font-weight="400" font-size="80" transform="matrix(1 0 0 1.00024 1086.52 889)">hư</text><text font-family="Arial,Arial_MSFontService,sans-serif" font-weight="400" font-size="80" transform="matrix(1 0 0 1.00024 363.268 975)">hàn</text><text font-family="Arial,Arial_MSFontService,sans-serif" font-weight="400" font-size="80" transform="matrix(1 0 0 1.00024 512.551 975)">là</text><text font-family="Arial,Arial_MSFontService,sans-serif" font-weight="400" font-size="80" transform="matrix(1 0 0 1.00024 592.272 975)">thuộc</text><text font-family="Arial,Arial_MSFontService,sans-serif" font-weight="400" font-size="80" transform="matrix(1 0 0 1.00024 800.534 975)">âm</text><text font-family="Arial,Arial_MSFontService,sans-serif" font-weight="400" font-size="80" transform="matrix(1 0 0 1.00024 929.076 975)">(Yin)</text></g></svg>