<svg width="1365" height="1024" xmlns="http://www.w3.org/2000/svg" xmlns:xlink="http://www.w3.org/1999/xlink" overflow="hidden"><defs><clipPath id="clip0"><rect x="0" y="0" width="1365" height="1024"/></clipPath></defs><g clip-path="url(#clip0)"><rect x="0" y="0" width="1365" height="1024.25" fill="#FFFFFF"/><text font-family="Arial,Arial_MSFontService,sans-serif" font-weight="400" font-size="34" transform="matrix(1 0 0 1.00024 78.6475 278)">1.</text><text font-family="Arial,Arial_MSFontService,sans-serif" font-weight="400" font-size="34" transform="matrix(1 0 0 1.00024 116.472 278)">Đau cột sống thắt lưng (Yêu thống)</text><text font-family="Arial,Arial_MSFontService,sans-serif" font-weight="400" font-size="34" transform="matrix(1 0 0 1.00024 78.6475 315)">2.</text><text font-family="Arial,Arial_MSFontService,sans-serif" font-weight="400" font-size="34" transform="matrix(1 0 0 1.00024 116.472 315)">Thoái hóa khớp gối (Hạc tất phong)</text><text font-family="Arial,Arial_MSFontService,sans-serif" font-weight="400" font-size="34" transform="matrix(1 0 0 1.00024 78.6475 351)">3.</text><text font-family="Arial,Arial_MSFontService,sans-serif" font-weight="400" font-size="34" transform="matrix(1 0 0 1.00024 116.472 351)">Gout (Thống phong)</text><text font-family="Arial,Arial_MSFontService,sans-serif" font-weight="400" font-size="34" transform="matrix(1 0 0 1.00024 78.6475 388)">4.</text><text font-family="Arial,Arial_MSFontService,sans-serif" font-weight="400" font-size="34" transform="matrix(1 0 0 1.00024 116.472 388)">Viêm khớp dạng thấp (Chứng tý)</text><text font-family="Arial,Arial_MSFontService,sans-serif" font-weight="400" font-size="34" transform="matrix(1 0 0 1.00024 78.6475 425)">5.</text><text font-family="Arial,Arial_MSFontService,sans-serif" font-weight="400" font-size="34" transform="matrix(1 0 0 1.00024 116.472 425)">Hội chứng cổ vai cánh tay (Chứng tý)</text><text font-family="Arial,Arial_MSFontService,sans-serif" font-weight="400" font-size="34" transform="matrix(1 0 0 1.00024 78.6475 462)">6.</text><text font-family="Arial,Arial_MSFontService,sans-serif" font-weight="400" font-size="34" transform="matrix(1 0 0 1.00024 116.472 462)">Tăng huyết áp vô căn (Huyễn vựng)</text><text font-family="Arial,Arial_MSFontService,sans-serif" font-weight="400" font-size="34" transform="matrix(1 0 0 1.00024 78.6475 498)">7.</text><text font-family="Arial,Arial_MSFontService,sans-serif" font-weight="400" font-size="34" transform="matrix(1 0 0 1.00024 116.472 498)">Rối loạn chuyển hóa lipoprotein và tình trạng tăng lipid máu khác (Chứng</text><text font-family="Arial,Arial_MSFontService,sans-serif" font-weight="400" font-size="34" transform="matrix(1 0 0 1.00024 78.6475 535)">đàm)</text><text font-family="Arial,Arial_MSFontService,sans-serif" font-weight="400" font-size="34" transform="matrix(1 0 0 1.00024 78.6475 572)">8.</text><text font-family="Arial,Arial_MSFontService,sans-serif" font-weight="400" font-size="34" transform="matrix(1 0 0 1.00024 116.472 572)">Bệnh dây thần kinh mặt (Khẩu nhãn oa tà)</text><text font-family="Arial,Arial_MSFontService,sans-serif" font-weight="400" font-size="34" transform="matrix(1 0 0 1.00024 78.6475 608)">9.</text><text font-family="Arial,Arial_MSFontService,sans-serif" font-weight="400" font-size="34" transform="matrix(1 0 0 1.00024 116.472 608)">Đau dây thần kinh liên sườn (Hiếp thống)</text><text font-family="Arial,Arial_MSFontService,sans-serif" font-weight="400" font-size="34" transform="matrix(1 0 0 1.00024 78.6475 645)">10.</text><text font-family="Arial,Arial_MSFontService,sans-serif" font-weight="400" font-size="34" transform="matrix(1 0 0 1.00024 135.3 645)">Đau thần kinh tọa (Yêu cước thống)</text><text font-family="Arial,Arial_MSFontService,sans-serif" font-weight="400" font-size="34" transform="matrix(1 0 0 1.00024 78.6475 682)">11.</text><text font-family="Arial,Arial_MSFontService,sans-serif" font-weight="400" font-size="34" transform="matrix(1 0 0 1.00024 135.3 682)">Di chứng nhồi máu não (Bán thân bất toại)</text><text font-family="Arial,Arial_MSFontService,sans-serif" font-weight="400" font-size="34" transform="matrix(1 0 0 1.00024 78.6475 720)">12.</text><text font-family="Arial,Arial_MSFontService,sans-serif" font-weight="400" font-size="34" transform="matrix(1 0 0 1.00024 135.3 720)">Bại não trẻ em (Ngũ trì)</text><text font-family="Arial,Arial_MSFontService,sans-serif" font-weight="400" font-size="34" transform="matrix(1 0 0 1.00024 78.6475 756)">13.</text><text font-family="Arial,Arial_MSFontService,sans-serif" font-weight="400" font-size="34" transform="matrix(1 0 0 1.00024 135.3 756)">Di chứng viêm não do virus (Ôn bệnh)</text><text font-family="Arial,Arial_MSFontService,sans-serif" font-weight="400" font-size="34" transform="matrix(1 0 0 1.00024 78.6475 793)">14.</text><text font-family="Arial,Arial_MSFontService,sans-serif" font-weight="400" font-size="34" transform="matrix(1 0 0 1.00024 135.3 793)">Suy dinh dưỡng thể marasmus (Cam tích)</text><text font-family="Arial,Arial_MSFontService,sans-serif" font-weight="400" font-size="34" transform="matrix(1 0 0 1.00024 78.6475 830)">15.</text><text font-family="Arial,Arial_MSFontService,sans-serif" font-weight="400" font-size="34" transform="matrix(1 0 0 1.00024 135.3 830)">Viêm dạ dày và tá tràng (Vị quản thống)</text><text font-family="Arial,Arial_MSFontService,sans-serif" font-weight="400" font-size="34" transform="matrix(1 0 0 1.00024 78.6475 867)">16.</text><text font-family="Arial,Arial_MSFontService,sans-serif" font-weight="400" font-size="34" transform="matrix(1 0 0 1.00024 135.3 867)">Viêm gan virus mạn (Hiếp thống)</text><text font-family="Arial,Arial_MSFontService,sans-serif" font-weight="400" font-size="34" transform="matrix(1 0 0 1.00024 78.6475 903)">17.</text><text font-family="Arial,Arial_MSFontService,sans-serif" font-weight="400" font-size="34" transform="matrix(1 0 0 1.00024 135.3 903)">Bệnh phổi tắc nghẽn mạn tính (COPD) (Khái suyễn)</text><text font-family="Arial,Arial_MSFontService,sans-serif" font-weight="400" font-size="34" transform="matrix(1 0 0 1.00024 78.6475 940)">18.</text><text font-family="Arial,Arial_MSFontService,sans-serif" font-weight="400" font-size="34" transform="matrix(1 0 0 1.00024 135.3 940)">Mày đay (Ẩn chẩn)</text><text font-family="Arial,Arial_MSFontService,sans-serif" font-weight="400" font-size="34" transform="matrix(1 0 0 1.00024 78.6475 977)">19.</text><text font-family="Arial,Arial_MSFontService,sans-serif" font-weight="400" font-size="34" transform="matrix(1 0 0 1.00024 135.3 977)">Bí đái cơ năng (Long bế)</text><text font-family="Arial,Arial_MSFontService,sans-serif" font-weight="400" font-size="34" transform="matrix(1 0 0 1.00024 78.6475 1013)">20.</text><text font-family="Arial,Arial_MSFontService,sans-serif" font-weight="400" font-size="34" transform="matrix(1 0 0 1.00024 135.3 1013)">Bệnh trĩ (Hạ trĩ)</text><text font-family="Arial,Arial_MSFontService,sans-serif" font-weight="700" font-size="80" transform="matrix(1 0 0 1.00024 78.6475 110)">Quyết định 5013/QĐ</text><text font-family="Arial,Arial_MSFontService,sans-serif" font-weight="700" font-size="80" transform="matrix(1 0 0 1.00024 808.076 110)">-</text><text font-family="Arial,Arial_MSFontService,sans-serif" font-weight="700" font-size="80" transform="matrix(1 0 0 1.00024 832.983 110)">BYT</text></g></svg>