<svg width="1365" height="1024" xmlns="http://www.w3.org/2000/svg" xmlns:xlink="http://www.w3.org/1999/xlink" overflow="hidden"><defs><clipPath id="clip0"><rect x="0" y="0" width="1365" height="1024"/></clipPath></defs><g clip-path="url(#clip0)"><rect x="0" y="0" width="1365" height="1024.25" fill="#FFFFFF"/><text fill="#2B6529" font-family="Calibri,Calibri_MSFontService,sans-serif" font-weight="400" font-size="77" transform="matrix(1 0 0 1.00024 392.487 128)">Tác dụng (Actions)</text><text fill="#195587" font-family="Calibri,Calibri_MSFontService,sans-serif" font-weight="400" font-size="24" transform="matrix(1 0 0 1.00024 36.4662 213)">Bổ : Adaptogens (Tonics): A subdivition of the Qi tonic</text><text fill="#195587" font-family="Calibri,Calibri_MSFontService,sans-serif" font-weight="400" font-size="24" transform="matrix(1 0 0 1.00024 36.4662 242)">action: the balance between Yin and Yang</text><text fill="#195587" font-family="Calibri,Calibri_MSFontService,sans-serif" font-weight="400" font-size="24" transform="matrix(1 0 0 1.00024 36.4662 271)">Thanh lọc cơ thể Alteratives (Blood purifires and</text><text fill="#195587" font-family="Calibri,Calibri_MSFontService,sans-serif" font-weight="400" font-size="24" transform="matrix(1 0 0 1.00024 36.4662 299)">depurants): Clear retained heat, clear Damp Heat and</text><text fill="#195587" font-family="Calibri,Calibri_MSFontService,sans-serif" font-weight="400" font-size="24" transform="matrix(1 0 0 1.00024 36.4662 328)">Clear Heat Toxins. Assist in detoxification programs for</text><text fill="#195587" font-family="Calibri,Calibri_MSFontService,sans-serif" font-weight="400" font-size="24" transform="matrix(1 0 0 1.00024 36.4662 357)">alcohol, drugs or prolonged medication</text><text fill="#195587" font-family="Calibri,Calibri_MSFontService,sans-serif" font-weight="400" font-size="24" transform="matrix(1 0 0 1.00024 36.4662 385)">Hồi sức: Analeptics ~ Stimulants: clear Phlegm form</text><text fill="#195587" font-family="Calibri,Calibri_MSFontService,sans-serif" font-weight="400" font-size="24" transform="matrix(1 0 0 1.00024 36.4662 414)">sensory orifices and revive Heart spirit</text><text fill="#195587" font-family="Calibri,Calibri_MSFontService,sans-serif" font-weight="400" font-size="24" transform="matrix(1 0 0 1.00024 36.4662 443)">Analgesics (Anodynes)</text><text fill="#195587" font-family="Calibri,Calibri_MSFontService,sans-serif" font-weight="400" font-size="24" transform="matrix(1 0 0 1.00024 36.4662 471)">Anodynes</text><text fill="#195587" font-family="Calibri,Calibri_MSFontService,sans-serif" font-weight="400" font-size="24" transform="matrix(1 0 0 1.00024 36.4662 500)">Antacids</text><text fill="#195587" font-family="Calibri,Calibri_MSFontService,sans-serif" font-weight="400" font-size="24" transform="matrix(1 0 0 1.00024 36.4662 529)">Antiabortives</text><text fill="#195587" font-family="Calibri,Calibri_MSFontService,sans-serif" font-weight="400" font-size="24" transform="matrix(1 0 0 1.00024 36.4662 557)">Antianginals</text><text fill="#195587" font-family="Calibri,Calibri_MSFontService,sans-serif" font-weight="400" font-size="24" transform="matrix(1 0 0 1.00024 36.4662 586)">Antiarrhythmics</text><text fill="#195587" font-family="Calibri,Calibri_MSFontService,sans-serif" font-weight="400" font-size="24" transform="matrix(1 0 0 1.00024 36.4662 615)">Antiarthritics</text><text fill="#195587" font-family="Calibri,Calibri_MSFontService,sans-serif" font-weight="400" font-size="24" transform="matrix(1 0 0 1.00024 36.4662 643)">Antiassthmatics</text><text fill="#195587" font-family="Calibri,Calibri_MSFontService,sans-serif" font-weight="400" font-size="24" transform="matrix(1 0 0 1.00024 36.4662 672)">Antiatheromatics (Antilipdemics)</text><text fill="#195587" font-family="Calibri,Calibri_MSFontService,sans-serif" font-weight="400" font-size="24" transform="matrix(1 0 0 1.00024 36.4662 701)">Antibacterials (Antimicrobials)</text><text fill="#195587" font-family="Calibri,Calibri_MSFontService,sans-serif" font-weight="400" font-size="24" transform="matrix(1 0 0 1.00024 36.4662 729)">Antibiotics (Antimicrobials)</text><text fill="#195587" font-family="Calibri,Calibri_MSFontService,sans-serif" font-weight="400" font-size="24" transform="matrix(1 0 0 1.00024 36.4662 758)">Anticatarrhals</text><text fill="#195587" font-family="Calibri,Calibri_MSFontService,sans-serif" font-weight="400" font-size="24" transform="matrix(1 0 0 1.00024 36.4662 787)">Anticoagulants (Antithrombotics)</text><text fill="#195587" font-family="Calibri,Calibri_MSFontService,sans-serif" font-weight="400" font-size="24" transform="matrix(1 0 0 1.00024 36.4662 816)">Anticonvulsants</text><text fill="#195587" font-family="Calibri,Calibri_MSFontService,sans-serif" font-weight="400" font-size="24" transform="matrix(1 0 0 1.00024 36.4662 844)">Antidepressants (Stimulants)</text><text fill="#195587" font-family="Calibri,Calibri_MSFontService,sans-serif" font-weight="400" font-size="24" transform="matrix(1 0 0 1.00024 36.4662 873)">Antiemetics</text><text fill="#195587" font-family="Calibri,Calibri_MSFontService,sans-serif" font-weight="400" font-size="24" transform="matrix(1 0 0 1.00024 36.4662 902)">Antifungals</text><text fill="#195587" font-family="Calibri,Calibri_MSFontService,sans-serif" font-weight="400" font-size="24" transform="matrix(1 0 0 1.00024 36.4662 930)">Antigalactagoues (galactophygics)</text><text fill="#195587" font-family="Calibri,Calibri_MSFontService,sans-serif" font-weight="400" font-size="24" transform="matrix(1 0 0 1.00024 36.4662 959)">Antihelmintics (vermifuges)</text></g></svg>