<svg width="1365" height="1024" xmlns="http://www.w3.org/2000/svg" xmlns:xlink="http://www.w3.org/1999/xlink" overflow="hidden"><defs><clipPath id="clip0"><rect x="0" y="0" width="1365" height="1024"/></clipPath></defs><g clip-path="url(#clip0)"><rect x="0" y="0" width="1365" height="1024.25" fill="#FFFFFF"/><path d="M167.917 37.5857 167.917 755.087" stroke="#000000" stroke-width="0.466553" fill="none" fill-rule="evenodd"/><path d="M299.885 37.5857 299.885 755.087" stroke="#000000" stroke-width="0.466553" fill="none" fill-rule="evenodd"/><path d="M338.542 37.5857 338.542 755.087" stroke="#000000" stroke-width="0.466553" fill="none" fill-rule="evenodd"/><path d="M403.86 37.5857 403.86 755.087" stroke="#000000" stroke-width="0.466553" fill="none" fill-rule="evenodd"/><path d="M485.173 37.5857 485.173 755.087" stroke="#000000" stroke-width="0.466553" fill="none" fill-rule="evenodd"/><path d="M45.0475 58.3057 584.049 58.3057" stroke="#000000" stroke-width="0.466553" fill="none" fill-rule="evenodd"/><path d="M45.0475 78.7924 584.049 78.7924" stroke="#000000" stroke-width="0.466553" fill="none" fill-rule="evenodd"/><path d="M45.0475 99.2792 584.049 99.2792" stroke="#000000" stroke-width="0.466553" fill="none" fill-rule="evenodd"/><path d="M45.0475 119.766 584.049 119.766" stroke="#000000" stroke-width="0.466553" fill="none" fill-rule="evenodd"/><path d="M45.0475 140.253 584.049 140.253" stroke="#000000" stroke-width="0.466553" fill="none" fill-rule="evenodd"/><path d="M45.0475 160.739 584.049 160.739" stroke="#000000" stroke-width="0.466553" fill="none" fill-rule="evenodd"/><path d="M45.0475 181.226 584.049 181.226" stroke="#000000" stroke-width="0.466553" fill="none" fill-rule="evenodd"/><path d="M45.0475 201.713 584.049 201.713" stroke="#000000" stroke-width="0.466553" fill="none" fill-rule="evenodd"/><path d="M45.0475 222.199 584.049 222.199" stroke="#000000" stroke-width="0.466553" fill="none" fill-rule="evenodd"/><path d="M45.0475 242.686 584.049 242.686" stroke="#000000" stroke-width="0.466553" fill="none" fill-rule="evenodd"/><path d="M45.0475 263.173 584.049 263.173" stroke="#000000" stroke-width="0.466553" fill="none" fill-rule="evenodd"/><path d="M45.0475 283.66 584.049 283.66" stroke="#000000" stroke-width="0.466553" fill="none" fill-rule="evenodd"/><path d="M45.0475 304.146 584.049 304.146" stroke="#000000" stroke-width="0.466553" fill="none" fill-rule="evenodd"/><path d="M45.0475 324.633 584.049 324.633" stroke="#000000" stroke-width="0.466553" fill="none" fill-rule="evenodd"/><path d="M45.0475 345.12 584.049 345.12" stroke="#000000" stroke-width="0.466553" fill="none" fill-rule="evenodd"/><path d="M45.0475 365.607 584.049 365.607" stroke="#000000" stroke-width="0.466553" fill="none" fill-rule="evenodd"/><path d="M45.0475 386.093 584.049 386.093" stroke="#000000" stroke-width="0.466553" fill="none" fill-rule="evenodd"/><path d="M45.0475 406.58 584.049 406.58" stroke="#000000" stroke-width="0.466553" fill="none" fill-rule="evenodd"/><path d="M45.0475 427.067 584.049 427.067" stroke="#000000" stroke-width="0.466553" fill="none" fill-rule="evenodd"/><path d="M45.0475 447.553 584.049 447.553" stroke="#000000" stroke-width="0.466553" fill="none" fill-rule="evenodd"/><path d="M45.0475 468.04 584.049 468.04" stroke="#000000" stroke-width="0.466553" fill="none" fill-rule="evenodd"/><path d="M45.0475 488.527 584.049 488.527" stroke="#000000" stroke-width="0.466553" fill="none" fill-rule="evenodd"/><path d="M45.0475 509.014 584.049 509.014" stroke="#000000" stroke-width="0.466553" fill="none" fill-rule="evenodd"/><path d="M45.0475 529.5 584.049 529.5" stroke="#000000" stroke-width="0.466553" fill="none" fill-rule="evenodd"/><path d="M45.0475 549.987 584.049 549.987" stroke="#000000" stroke-width="0.466553" fill="none" fill-rule="evenodd"/><path d="M45.0475 570.474 584.049 570.474" stroke="#000000" stroke-width="0.466553" fill="none" fill-rule="evenodd"/><path d="M45.0475 590.96 584.049 590.96" stroke="#000000" stroke-width="0.466553" fill="none" fill-rule="evenodd"/><path d="M45.0475 611.447 584.049 611.447" stroke="#000000" stroke-width="0.466553" fill="none" fill-rule="evenodd"/><path d="M45.0475 631.934 584.049 631.934" stroke="#000000" stroke-width="0.466553" fill="none" fill-rule="evenodd"/><path d="M45.0475 652.421 584.049 652.421" stroke="#000000" stroke-width="0.466553" fill="none" fill-rule="evenodd"/><path d="M45.0475 672.907 584.049 672.907" stroke="#000000" stroke-width="0.466553" fill="none" fill-rule="evenodd"/><path d="M45.0475 693.394 584.049 693.394" stroke="#000000" stroke-width="0.466553" fill="none" fill-rule="evenodd"/><path d="M45.0475 713.881 584.049 713.881" stroke="#000000" stroke-width="0.466553" fill="none" fill-rule="evenodd"/><path d="M45.0475 734.367 584.049 734.367" stroke="#000000" stroke-width="0.466553" fill="none" fill-rule="evenodd"/><path d="M45.2807 37.5857 45.2807 755.087" stroke="#000000" stroke-width="0.466553" fill="none" fill-rule="evenodd"/><path d="M583.816 37.5857 583.816 755.087" stroke="#000000" stroke-width="0.466553" fill="none" fill-rule="evenodd"/><path d="M45.0475 37.819 584.049 37.819" stroke="#000000" stroke-width="0.466553" fill="none" fill-rule="evenodd"/><path d="M45.0475 754.854 584.049 754.854" stroke="#000000" stroke-width="0.466553" fill="none" fill-rule="evenodd"/><text font-family="Arial,Arial_MSFontService,sans-serif" font-weight="700" font-size="8" transform="matrix(1 0 0 1.00024 409.192 51)">Hoạt huyết, khứ ứ</text><text font-family="Arial,Arial_MSFontService,sans-serif" font-style="italic" font-weight="400" font-size="8" transform="matrix(1 0 0 1.00024 167.917 51)">Radix et Folium Plumbaginis</text><text font-family="Arial,Arial_MSFontService,sans-serif" font-weight="400" font-size="8" transform="matrix(1 0 0 1.00024 45.2807 51)">Bạch hoa xà</text><text font-family="Arial,Arial_MSFontService,sans-serif" font-weight="700" font-size="8" transform="matrix(1 0 0 1.00024 409.192 72)">Hoạt huyết, khứ ứ</text><text font-family="Arial,Arial_MSFontService,sans-serif" font-style="italic" font-weight="400" font-size="8" transform="matrix(1 0 0 1.00024 167.917 72)">Pollen Typhae</text><text font-family="Arial,Arial_MSFontService,sans-serif" font-weight="400" font-size="8" transform="matrix(1 0 0 1.00024 45.2807 72)">Bồ hoàng</text><text font-family="Arial,Arial_MSFontService,sans-serif" font-weight="700" font-size="8" transform="matrix(1 0 0 1.00024 409.192 92)">Hoạt huyết, khứ ứ</text><text font-family="Arial,Arial_MSFontService,sans-serif" font-style="italic" font-weight="400" font-size="8" transform="matrix(1 0 0 1.00024 167.917 92)">Radix Achyranthis asperae</text><text font-family="Arial,Arial_MSFontService,sans-serif" font-weight="400" font-size="8" transform="matrix(1 0 0 1.00024 45.2807 92)">Cỏ xước</text><text fill="#EE230C" font-family="Arial,Arial_MSFontService,sans-serif" font-weight="700" font-size="8" transform="matrix(1 0 0 1.00024 490.505 113)">Tâm, Can</text><text fill="#EE230C" font-family="Arial,Arial_MSFontService,sans-serif" font-weight="700" font-size="8" transform="matrix(1 0 0 1.00024 409.192 113)">Hoạt huyết, khứ ứ</text><text fill="#EE230C" font-family="Arial,Arial_MSFontService,sans-serif" font-weight="400" font-size="8" transform="matrix(1 0 0 1.00024 343.874 113)">Khổ</text><text fill="#EE230C" font-family="Arial,Arial_MSFontService,sans-serif" font-weight="400" font-size="8" transform="matrix(1 0 0 1.00024 305.217 113)">Hàn</text><text fill="#EE230C" font-family="Arial,Arial_MSFontService,sans-serif" font-style="italic" font-weight="400" font-size="8" transform="matrix(1 0 0 1.00024 167.917 113)">Radix Salviae miltiorrhizae</text><text fill="#EE230C" font-family="Arial,Arial_MSFontService,sans-serif" font-weight="400" font-size="8" transform="matrix(1 0 0 1.00024 45.2807 113)">Đan sâm</text><text font-family="Arial,Arial_MSFontService,sans-serif" font-weight="700" font-size="8" transform="matrix(1 0 0 1.00024 490.505 133)">Can, Thận</text><text font-family="Arial,Arial_MSFontService,sans-serif" font-weight="700" font-size="8" transform="matrix(1 0 0 1.00024 409.192 133)">Hoạt huyết, khứ ứ</text><text font-family="Arial,Arial_MSFontService,sans-serif" font-weight="400" font-size="8" transform="matrix(1 0 0 1.00024 343.874 133)">Cam</text><text font-family="Arial,Arial_MSFontService,sans-serif" font-weight="400" font-size="8" transform="matrix(1 0 0 1.00024 305.217 133)">Bình</text><text font-family="Arial,Arial_MSFontService,sans-serif" font-style="italic" font-weight="400" font-size="8" transform="matrix(1 0 0 1.00024 167.917 133)">Semen Pruni</text><text font-family="Arial,Arial_MSFontService,sans-serif" font-weight="400" font-size="8" transform="matrix(1 0 0 1.00024 45.2807 133)">Đào nhân</text><text font-family="Arial,Arial_MSFontService,sans-serif" font-weight="700" font-size="8" transform="matrix(1 0 0 1.00024 490.505 154)">Vị, Can, Tỳ, Thận</text><text font-family="Arial,Arial_MSFontService,sans-serif" font-weight="700" font-size="8" transform="matrix(1 0 0 1.00024 409.192 154)">Hoạt huyết, khứ ứ</text><text font-family="Arial,Arial_MSFontService,sans-serif" font-weight="400" font-size="8" transform="matrix(1 0 0 1.00024 343.874 154)">Mặn</text><text font-family="Arial,Arial_MSFontService,sans-serif" font-weight="400" font-size="8" transform="matrix(1 0 0 1.00024 305.217 154)">Hàn</text><text font-family="Arial,Arial_MSFontService,sans-serif" font-style="italic" font-weight="400" font-size="8" transform="matrix(1 0 0 1.00024 167.917 154)">Pheretima</text><text font-family="Arial,Arial_MSFontService,sans-serif" font-weight="400" font-size="8" transform="matrix(1 0 0 1.00024 45.2807 154)">Địa long</text><text font-family="Arial,Arial_MSFontService,sans-serif" font-weight="700" font-size="8" transform="matrix(1 0 0 1.00024 409.192 174)">Hoạt huyết, khứ ứ</text><text font-family="Arial,Arial_MSFontService,sans-serif" font-weight="400" font-size="8" transform="matrix(1 0 0 1.00024 343.874 174)">Ngọt</text><text font-family="Arial,Arial_MSFontService,sans-serif" font-weight="400" font-size="8" transform="matrix(1 0 0 1.00024 360.87 174)">-</text><text font-family="Arial,Arial_MSFontService,sans-serif" font-weight="400" font-size="8" transform="matrix(1 0 0 1.00024 363.536 174)">Hơi đắng</text><text font-family="Arial,Arial_MSFontService,sans-serif" font-weight="400" font-size="8" transform="matrix(1 0 0 1.00024 305.217 174)">Ấm</text><text font-family="Arial,Arial_MSFontService,sans-serif" font-style="italic" font-weight="400" font-size="8" transform="matrix(1 0 0 1.00024 167.917 174)">Radix Angelicae sinensis</text><text font-family="Arial,Arial_MSFontService,sans-serif" font-weight="400" font-size="8" transform="matrix(1 0 0 1.00024 45.2807 169)">Đương quy (Toàn quy, Quy đầu,</text><text font-family="Arial,Arial_MSFontService,sans-serif" font-weight="400" font-size="8" transform="matrix(1 0 0 1.00024 45.2807 180)">Quy vỹ/quy râu)</text><text font-family="Arial,Arial_MSFontService,sans-serif" font-weight="700" font-size="8" transform="matrix(1 0 0 1.00024 490.505 195)">Tâm, Can</text><text font-family="Arial,Arial_MSFontService,sans-serif" font-weight="700" font-size="8" transform="matrix(1 0 0 1.00024 409.192 195)">Hoạt huyết, khứ ứ</text><text font-family="Arial,Arial_MSFontService,sans-serif" font-weight="400" font-size="8" transform="matrix(1 0 0 1.00024 343.874 195)">Tân</text><text font-family="Arial,Arial_MSFontService,sans-serif" font-weight="400" font-size="8" transform="matrix(1 0 0 1.00024 305.217 195)">Ôn</text><text font-family="Arial,Arial_MSFontService,sans-serif" font-style="italic" font-weight="400" font-size="8" transform="matrix(1 0 0 1.00024 167.917 195)">Flos Carthami tinctorii</text><text font-family="Arial,Arial_MSFontService,sans-serif" font-weight="400" font-size="8" transform="matrix(1 0 0 1.00024 45.2807 195)">Hồng hoa</text><text font-family="Arial,Arial_MSFontService,sans-serif" font-weight="700" font-size="8" transform="matrix(1 0 0 1.00024 409.192 215)">Hoạt huyết, khứ ứ</text><text font-family="Arial,Arial_MSFontService,sans-serif" font-style="italic" font-weight="400" font-size="8" transform="matrix(1 0 0 1.00024 167.917 215)">Tuber Corydalis</text><text font-family="Arial,Arial_MSFontService,sans-serif" font-weight="400" font-size="8" transform="matrix(1 0 0 1.00024 45.2807 215)">Huyền hồ</text><text font-family="Arial,Arial_MSFontService,sans-serif" font-weight="700" font-size="8" transform="matrix(1 0 0 1.00024 409.192 236)">Hoạt huyết, khứ ứ</text><text font-family="Arial,Arial_MSFontService,sans-serif" font-style="italic" font-weight="400" font-size="8" transform="matrix(1 0 0 1.00024 167.917 236)">Lignum Dracaenae cambodianae</text><text font-family="Arial,Arial_MSFontService,sans-serif" font-weight="400" font-size="8" transform="matrix(1 0 0 1.00024 45.2807 236)">Huyết giác</text><text font-family="Arial,Arial_MSFontService,sans-serif" font-weight="700" font-size="8" transform="matrix(1 0 0 1.00024 490.505 256)">Can, Tâm bào</text><text font-family="Arial,Arial_MSFontService,sans-serif" font-weight="700" font-size="8" transform="matrix(1 0 0 1.00024 409.192 256)">Hoạt huyết, khứ ứ</text><text font-family="Arial,Arial_MSFontService,sans-serif" font-weight="400" font-size="8" transform="matrix(1 0 0 1.00024 343.874 256)">Khổ</text><text font-family="Arial,Arial_MSFontService,sans-serif" font-weight="400" font-size="8" transform="matrix(1 0 0 1.00024 305.217 256)">Cay</text><text font-family="Arial,Arial_MSFontService,sans-serif" font-style="italic" font-weight="400" font-size="8" transform="matrix(1 0 0 1.00024 167.917 256)">Herba Leonuri japonici</text><text font-family="Arial,Arial_MSFontService,sans-serif" font-weight="400" font-size="8" transform="matrix(1 0 0 1.00024 45.2807 256)">Ích mẫu</text><text font-family="Arial,Arial_MSFontService,sans-serif" font-weight="700" font-size="8" transform="matrix(1 0 0 1.00024 409.192 277)">Hoạt huyết, khứ ứ</text><text font-family="Arial,Arial_MSFontService,sans-serif" font-weight="400" font-size="8" transform="matrix(1 0 0 1.00024 343.874 277)">Khổ</text><text font-family="Arial,Arial_MSFontService,sans-serif" font-weight="400" font-size="8" transform="matrix(1 0 0 1.00024 358.204 277)">-</text><text font-family="Arial,Arial_MSFontService,sans-serif" font-weight="400" font-size="8" transform="matrix(1 0 0 1.00024 360.87 277)">Cam</text><text font-family="Arial,Arial_MSFontService,sans-serif" font-weight="400" font-size="8" transform="matrix(1 0 0 1.00024 305.217 277)">Ôn</text><text font-family="Arial,Arial_MSFontService,sans-serif" font-style="italic" font-weight="400" font-size="8" transform="matrix(1 0 0 1.00024 167.917 277)">Caulis Spatholobi</text><text font-family="Arial,Arial_MSFontService,sans-serif" font-weight="400" font-size="8" transform="matrix(1 0 0 1.00024 45.2807 277)">Kê huyết đằng</text><text font-family="Arial,Arial_MSFontService,sans-serif" font-weight="700" font-size="8" transform="matrix(1 0 0 1.00024 490.505 297)">Tâm, Phế, Can</text><text font-family="Arial,Arial_MSFontService,sans-serif" font-weight="700" font-size="8" transform="matrix(1 0 0 1.00024 409.192 297)">Hoạt huyết, khứ ứ</text><text font-family="Arial,Arial_MSFontService,sans-serif" font-weight="400" font-size="8" transform="matrix(1 0 0 1.00024 343.874 297)">Khổ</text><text font-family="Arial,Arial_MSFontService,sans-serif" font-weight="400" font-size="8" transform="matrix(1 0 0 1.00024 358.204 297)">-</text><text font-family="Arial,Arial_MSFontService,sans-serif" font-weight="400" font-size="8" transform="matrix(1 0 0 1.00024 360.87 297)">Tân</text><text font-family="Arial,Arial_MSFontService,sans-serif" font-weight="400" font-size="8" transform="matrix(1 0 0 1.00024 374.7 297)">-</text><text font-family="Arial,Arial_MSFontService,sans-serif" font-weight="400" font-size="8" transform="matrix(1 0 0 1.00024 377.366 297)">Cam</text><text font-family="Arial,Arial_MSFontService,sans-serif" font-weight="400" font-size="8" transform="matrix(1 0 0 1.00024 305.217 297)">Hàn</text><text font-family="Arial,Arial_MSFontService,sans-serif" font-style="italic" font-weight="400" font-size="8" transform="matrix(1 0 0 1.00024 167.917 297)">Rhizoma Curcumae longae</text><text font-family="Arial,Arial_MSFontService,sans-serif" font-weight="400" font-size="8" transform="matrix(1 0 0 1.00024 45.2807 297)">Khương hoàng</text><text font-family="Arial,Arial_MSFontService,sans-serif" font-weight="700" font-size="8" transform="matrix(1 0 0 1.00024 409.192 318)">Hoạt huyết, khứ ứ</text><text font-family="Arial,Arial_MSFontService,sans-serif" font-style="italic" font-weight="400" font-size="8" transform="matrix(1 0 0 1.00024 167.917 318)">Myrrha</text><text font-family="Arial,Arial_MSFontService,sans-serif" font-weight="400" font-size="8" transform="matrix(1 0 0 1.00024 45.2807 318)">Một dược</text><text font-family="Arial,Arial_MSFontService,sans-serif" font-weight="700" font-size="8" transform="matrix(1 0 0 1.00024 490.505 338)">Can</text><text font-family="Arial,Arial_MSFontService,sans-serif" font-weight="700" font-size="8" transform="matrix(1 0 0 1.00024 409.192 338)">Hoạt huyết, khứ ứ</text><text font-family="Arial,Arial_MSFontService,sans-serif" font-weight="400" font-size="8" transform="matrix(1 0 0 1.00024 343.874 338)">Khổ</text><text font-family="Arial,Arial_MSFontService,sans-serif" font-weight="400" font-size="8" transform="matrix(1 0 0 1.00024 358.204 338)">-</text><text font-family="Arial,Arial_MSFontService,sans-serif" font-weight="400" font-size="8" transform="matrix(1 0 0 1.00024 360.87 338)">Tân</text><text font-family="Arial,Arial_MSFontService,sans-serif" font-weight="400" font-size="8" transform="matrix(1 0 0 1.00024 305.217 338)">Ấm</text><text font-family="Arial,Arial_MSFontService,sans-serif" font-style="italic" font-weight="400" font-size="8" transform="matrix(1 0 0 1.00024 167.917 338)">Rhizoma Curcumae zedoariae</text><text font-family="Arial,Arial_MSFontService,sans-serif" font-weight="400" font-size="8" transform="matrix(1 0 0 1.00024 45.2807 338)">Nga truật</text><text font-family="Arial,Arial_MSFontService,sans-serif" font-weight="700" font-size="8" transform="matrix(1 0 0 1.00024 409.192 359)">Hoạt huyết, khứ ứ</text><text font-family="Arial,Arial_MSFontService,sans-serif" font-style="italic" font-weight="400" font-size="8" transform="matrix(1 0 0 1.00024 167.917 359)">Faeces Trogopteri</text><text font-family="Arial,Arial_MSFontService,sans-serif" font-weight="400" font-size="8" transform="matrix(1 0 0 1.00024 45.2807 359)">Ngũ linh chi</text><text fill="#EE230C" font-family="Arial,Arial_MSFontService,sans-serif" font-weight="700" font-size="8" transform="matrix(1 0 0 1.00024 490.505 379)">Can, Thận</text><text fill="#EE230C" font-family="Arial,Arial_MSFontService,sans-serif" font-weight="700" font-size="8" transform="matrix(1 0 0 1.00024 409.192 379)">Hoạt huyết, khứ ứ</text><text fill="#EE230C" font-family="Arial,Arial_MSFontService,sans-serif" font-weight="400" font-size="8" transform="matrix(1 0 0 1.00024 343.874 379)">Khổ</text><text fill="#EE230C" font-family="Arial,Arial_MSFontService,sans-serif" font-weight="400" font-size="8" transform="matrix(1 0 0 1.00024 358.204 379)">-</text><text fill="#EE230C" font-family="Arial,Arial_MSFontService,sans-serif" font-weight="400" font-size="8" transform="matrix(1 0 0 1.00024 360.87 379)">Cam</text><text fill="#EE230C" font-family="Arial,Arial_MSFontService,sans-serif" font-weight="400" font-size="8" transform="matrix(1 0 0 1.00024 305.217 379)">Bình</text><text fill="#EE230C" font-family="Arial,Arial_MSFontService,sans-serif" font-style="italic" font-weight="400" font-size="8" transform="matrix(1 0 0 1.00024 167.917 379)">Radix Achyranthis bidentatae</text><text fill="#EE230C" font-family="Arial,Arial_MSFontService,sans-serif" font-weight="400" font-size="8" transform="matrix(1 0 0 1.00024 45.2807 379)">Ngưu tất</text><text font-family="Arial,Arial_MSFontService,sans-serif" font-weight="700" font-size="8" transform="matrix(1 0 0 1.00024 490.505 400)">Tâm, Tỳ, Can</text><text font-family="Arial,Arial_MSFontService,sans-serif" font-weight="700" font-size="8" transform="matrix(1 0 0 1.00024 409.192 400)">Hoạt huyết, khứ ứ</text><text font-family="Arial,Arial_MSFontService,sans-serif" font-weight="400" font-size="8" transform="matrix(1 0 0 1.00024 343.874 400)">Khổ</text><text font-family="Arial,Arial_MSFontService,sans-serif" font-weight="400" font-size="8" transform="matrix(1 0 0 1.00024 305.217 400)">Ôn</text><text font-family="Arial,Arial_MSFontService,sans-serif" font-style="italic" font-weight="400" font-size="8" transform="matrix(1 0 0 1.00024 167.917 400)">Gummi resina Olibanum</text><text font-family="Arial,Arial_MSFontService,sans-serif" font-weight="400" font-size="8" transform="matrix(1 0 0 1.00024 45.2807 400)">Nhũ hương</text><text font-family="Arial,Arial_MSFontService,sans-serif" font-weight="700" font-size="8" transform="matrix(1 0 0 1.00024 409.192 420)">Hoạt huyết, khứ ứ</text><text font-family="Arial,Arial_MSFontService,sans-serif" font-style="italic" font-weight="400" font-size="8" transform="matrix(1 0 0 1.00024 167.917 420)">Herba et Radix Sarcandrae glabrae</text><text font-family="Arial,Arial_MSFontService,sans-serif" font-weight="400" font-size="8" transform="matrix(1 0 0 1.00024 45.2807 420)">Sói rừng</text><text font-family="Arial,Arial_MSFontService,sans-serif" font-weight="700" font-size="8" transform="matrix(1 0 0 1.00024 409.192 441)">Hoạt huyết, khứ ứ</text><text font-family="Arial,Arial_MSFontService,sans-serif" font-style="italic" font-weight="400" font-size="8" transform="matrix(1 0 0 1.00024 167.917 441)">Rhizoma Sparganii</text><text font-family="Arial,Arial_MSFontService,sans-serif" font-weight="400" font-size="8" transform="matrix(1 0 0 1.00024 45.2807 441)">Tam lăng</text><text font-family="Arial,Arial_MSFontService,sans-serif" font-weight="700" font-size="8" transform="matrix(1 0 0 1.00024 490.505 461)">Phế, Đại trường</text><text font-family="Arial,Arial_MSFontService,sans-serif" font-weight="700" font-size="8" transform="matrix(1 0 0 1.00024 409.192 461)">Hoạt huyết, khứ ứ</text><text font-family="Arial,Arial_MSFontService,sans-serif" font-weight="400" font-size="8" transform="matrix(1 0 0 1.00024 343.874 461)">Tân</text><text font-family="Arial,Arial_MSFontService,sans-serif" font-weight="400" font-size="8" transform="matrix(1 0 0 1.00024 357.704 461)">-</text><text font-family="Arial,Arial_MSFontService,sans-serif" font-weight="400" font-size="8" transform="matrix(1 0 0 1.00024 360.37 461)">Hàm</text><text font-family="Arial,Arial_MSFontService,sans-serif" font-weight="400" font-size="8" transform="matrix(1 0 0 1.00024 305.217 461)">Ôn</text><text font-family="Arial,Arial_MSFontService,sans-serif" font-style="italic" font-weight="400" font-size="8" transform="matrix(1 0 0 1.00024 167.917 461)">Spina Gledischiae australis</text><text font-family="Arial,Arial_MSFontService,sans-serif" font-weight="400" font-size="8" transform="matrix(1 0 0 1.00024 45.2807 461)">Tạo giác thích</text><text font-family="Arial,Arial_MSFontService,sans-serif" font-weight="700" font-size="8" transform="matrix(1 0 0 1.00024 490.505 481)">Tâm, Can, Tỳ</text><text font-family="Arial,Arial_MSFontService,sans-serif" font-weight="700" font-size="8" transform="matrix(1 0 0 1.00024 409.192 481)">Hoạt huyết, khứ ứ</text><text font-family="Arial,Arial_MSFontService,sans-serif" font-weight="400" font-size="8" transform="matrix(1 0 0 1.00024 343.874 481)">Hàm</text><text font-family="Arial,Arial_MSFontService,sans-serif" font-weight="400" font-size="8" transform="matrix(1 0 0 1.00024 305.217 481)">Bình</text><text font-family="Arial,Arial_MSFontService,sans-serif" font-style="italic" font-weight="400" font-size="8" transform="matrix(1 0 0 1.00024 167.917 481)">Lignum sappan</text><text font-family="Arial,Arial_MSFontService,sans-serif" font-weight="400" font-size="8" transform="matrix(1 0 0 1.00024 45.2807 481)">Tô mộc</text><text font-family="Arial,Arial_MSFontService,sans-serif" font-weight="700" font-size="8" transform="matrix(1 0 0 1.00024 490.505 502)">Tâm, Phế, Can, Đởm</text><text font-family="Arial,Arial_MSFontService,sans-serif" font-weight="700" font-size="8" transform="matrix(1 0 0 1.00024 409.192 502)">Hoạt huyết, khứ ứ</text><text font-family="Arial,Arial_MSFontService,sans-serif" font-weight="400" font-size="8" transform="matrix(1 0 0 1.00024 343.874 502)">Tân</text><text font-family="Arial,Arial_MSFontService,sans-serif" font-weight="400" font-size="8" transform="matrix(1 0 0 1.00024 357.704 502)">-</text><text font-family="Arial,Arial_MSFontService,sans-serif" font-weight="400" font-size="8" transform="matrix(1 0 0 1.00024 360.37 502)">Khổ</text><text font-family="Arial,Arial_MSFontService,sans-serif" font-weight="400" font-size="8" transform="matrix(1 0 0 1.00024 305.217 502)">Hàn</text><text font-family="Arial,Arial_MSFontService,sans-serif" font-style="italic" font-weight="400" font-size="8" transform="matrix(1 0 0 1.00024 167.917 502)">Radix Curcumae</text><text font-family="Arial,Arial_MSFontService,sans-serif" font-weight="400" font-size="8" transform="matrix(1 0 0 1.00024 45.2807 502)">Uất kim</text><text font-family="Arial,Arial_MSFontService,sans-serif" font-weight="700" font-size="8" transform="matrix(1 0 0 1.00024 409.192 522)">Hoạt huyết, khứ ứ</text><text font-family="Arial,Arial_MSFontService,sans-serif" font-style="italic" font-weight="400" font-size="8" transform="matrix(1 0 0 1.00024 167.917 522)">Caulis et Radix Gneti montani</text><text font-family="Arial,Arial_MSFontService,sans-serif" font-weight="400" font-size="8" transform="matrix(1 0 0 1.00024 45.2807 522)">Vương tôn (Gắm)</text><text font-family="Arial,Arial_MSFontService,sans-serif" font-weight="400" font-size="8" transform="matrix(1 0 0 1.00024 490.505 543)">Can, Tỳ</text><text font-family="Arial,Arial_MSFontService,sans-serif" font-weight="700" font-size="8" transform="matrix(1 0 0 1.00024 409.192 543)">Hoạt huyết, khứ ứ</text><text font-family="Arial,Arial_MSFontService,sans-serif" font-weight="400" font-size="8" transform="matrix(1 0 0 1.00024 343.874 543)">Khổ</text><text font-family="Arial,Arial_MSFontService,sans-serif" font-weight="400" font-size="8" transform="matrix(1 0 0 1.00024 305.217 543)">Hàn</text><text font-family="Arial,Arial_MSFontService,sans-serif" font-style="italic" font-weight="400" font-size="8" transform="matrix(1 0 0 1.00024 167.917 543)">Radix Paeoniae</text><text font-family="Arial,Arial_MSFontService,sans-serif" font-weight="400" font-size="8" transform="matrix(1 0 0 1.00024 45.2807 543)">Xích thược</text><text fill="#EE230C" font-family="Arial,Arial_MSFontService,sans-serif" font-weight="700" font-size="8" transform="matrix(1 0 0 1.00024 490.505 563)">Can, Tâm bào</text><text fill="#EE230C" font-family="Arial,Arial_MSFontService,sans-serif" font-weight="700" font-size="8" transform="matrix(1 0 0 1.00024 409.192 563)">Hoạt huyết, khứ ứ</text><text fill="#EE230C" font-family="Arial,Arial_MSFontService,sans-serif" font-weight="400" font-size="8" transform="matrix(1 0 0 1.00024 343.874 563)">Cay</text><text fill="#EE230C" font-family="Arial,Arial_MSFontService,sans-serif" font-weight="400" font-size="8" transform="matrix(1 0 0 1.00024 305.217 563)">Ôn</text><text fill="#EE230C" font-family="Arial,Arial_MSFontService,sans-serif" font-style="italic" font-weight="400" font-size="8" transform="matrix(1 0 0 1.00024 167.917 563)">Rhizoma Ligustici wallichii</text><text fill="#EE230C" font-family="Arial,Arial_MSFontService,sans-serif" font-weight="400" font-size="8" transform="matrix(1 0 0 1.00024 45.2807 563)">Xuyên khung</text><text font-family="Arial,Arial_MSFontService,sans-serif" font-weight="700" font-size="8" transform="matrix(1 0 0 1.00024 490.505 584)">Phế</text><text font-family="Arial,Arial_MSFontService,sans-serif" font-weight="700" font-size="8" transform="matrix(1 0 0 1.00024 409.192 584)">Chỉ huyết</text><text font-family="Arial,Arial_MSFontService,sans-serif" font-weight="400" font-size="8" transform="matrix(1 0 0 1.00024 343.874 584)">Khổ</text><text font-family="Arial,Arial_MSFontService,sans-serif" font-weight="400" font-size="8" transform="matrix(1 0 0 1.00024 305.217 584)">Bình</text><text font-family="Arial,Arial_MSFontService,sans-serif" font-style="italic" font-weight="400" font-size="8" transform="matrix(1 0 0 1.00024 167.917 584)">Rhizoma Bletillae striatae</text><text font-family="Arial,Arial_MSFontService,sans-serif" font-weight="400" font-size="8" transform="matrix(1 0 0 1.00024 45.2807 584)">Bạch cập</text><text font-family="Arial,Arial_MSFontService,sans-serif" font-weight="700" font-size="8" transform="matrix(1 0 0 1.00024 490.505 604)">Can, Thận</text><text font-family="Arial,Arial_MSFontService,sans-serif" font-weight="700" font-size="8" transform="matrix(1 0 0 1.00024 409.192 604)">Chỉ huyết</text><text font-family="Arial,Arial_MSFontService,sans-serif" font-weight="400" font-size="8" transform="matrix(1 0 0 1.00024 343.874 604)">Cam</text><text font-family="Arial,Arial_MSFontService,sans-serif" font-weight="400" font-size="8" transform="matrix(1 0 0 1.00024 360.87 604)">-</text><text font-family="Arial,Arial_MSFontService,sans-serif" font-weight="400" font-size="8" transform="matrix(1 0 0 1.00024 363.536 604)">Toan</text><text font-family="Arial,Arial_MSFontService,sans-serif" font-weight="400" font-size="8" transform="matrix(1 0 0 1.00024 305.217 604)">Lương</text><text font-family="Arial,Arial_MSFontService,sans-serif" font-style="italic" font-weight="400" font-size="8" transform="matrix(1 0 0 1.00024 167.917 604)">Herba Ecliptae</text><text font-family="Arial,Arial_MSFontService,sans-serif" font-weight="400" font-size="8" transform="matrix(1 0 0 1.00024 45.2807 604)">Cỏ nhọ nồi</text><text font-family="Arial,Arial_MSFontService,sans-serif" font-weight="700" font-size="8" transform="matrix(1 0 0 1.00024 409.192 625)">Chỉ huyết</text><text font-family="Arial,Arial_MSFontService,sans-serif" font-style="italic" font-weight="400" font-size="8" transform="matrix(1 0 0 1.00024 167.917 625)">Radix Sanguisorbae</text><text font-family="Arial,Arial_MSFontService,sans-serif" font-weight="400" font-size="8" transform="matrix(1 0 0 1.00024 45.2807 625)">Địa du</text><text font-family="Arial,Arial_MSFontService,sans-serif" font-weight="700" font-size="8" transform="matrix(1 0 0 1.00024 490.505 645)">Can, Đại trường</text><text font-family="Arial,Arial_MSFontService,sans-serif" font-weight="700" font-size="8" transform="matrix(1 0 0 1.00024 409.192 645)">Chỉ huyết</text><text font-family="Arial,Arial_MSFontService,sans-serif" font-weight="400" font-size="8" transform="matrix(1 0 0 1.00024 343.874 645)">Khổ</text><text font-family="Arial,Arial_MSFontService,sans-serif" font-weight="400" font-size="8" transform="matrix(1 0 0 1.00024 305.217 645)">Hàn</text><text font-family="Arial,Arial_MSFontService,sans-serif" font-style="italic" font-weight="400" font-size="8" transform="matrix(1 0 0 1.00024 167.917 645)">Flos Styphnolobii japonici</text><text font-family="Arial,Arial_MSFontService,sans-serif" font-weight="400" font-size="8" transform="matrix(1 0 0 1.00024 45.2807 645)">Hòe hoa</text><text font-family="Arial,Arial_MSFontService,sans-serif" font-weight="700" font-size="8" transform="matrix(1 0 0 1.00024 409.192 666)">Chỉ huyết</text><text font-family="Arial,Arial_MSFontService,sans-serif" font-style="italic" font-weight="400" font-size="8" transform="matrix(1 0 0 1.00024 167.917 666)">Folium Cordylines</text><text font-family="Arial,Arial_MSFontService,sans-serif" font-weight="400" font-size="8" transform="matrix(1 0 0 1.00024 45.2807 666)">Huyết dụ</text><text font-family="Arial,Arial_MSFontService,sans-serif" font-weight="700" font-size="8" transform="matrix(1 0 0 1.00024 490.505 686)">Can, Thận</text><text font-family="Arial,Arial_MSFontService,sans-serif" font-weight="700" font-size="8" transform="matrix(1 0 0 1.00024 409.192 686)">Chỉ huyết</text><text font-family="Arial,Arial_MSFontService,sans-serif" font-weight="400" font-size="8" transform="matrix(1 0 0 1.00024 343.874 686)">Khổ</text><text font-family="Arial,Arial_MSFontService,sans-serif" font-weight="400" font-size="8" transform="matrix(1 0 0 1.00024 358.204 686)">-</text><text font-family="Arial,Arial_MSFontService,sans-serif" font-weight="400" font-size="8" transform="matrix(1 0 0 1.00024 360.87 686)">Cam</text><text font-family="Arial,Arial_MSFontService,sans-serif" font-weight="400" font-size="8" transform="matrix(1 0 0 1.00024 305.217 686)">Ôn</text><text font-family="Arial,Arial_MSFontService,sans-serif" font-style="italic" font-weight="400" font-size="8" transform="matrix(1 0 0 1.00024 167.917 686)">Radix Panasis notoginseng</text><text font-family="Arial,Arial_MSFontService,sans-serif" font-weight="400" font-size="8" transform="matrix(1 0 0 1.00024 45.2807 686)">Tam thất</text><text font-family="Arial,Arial_MSFontService,sans-serif" font-weight="700" font-size="8" transform="matrix(1 0 0 1.00024 490.505 707)">Phế, Tỳ, Vị, Đại trường</text><text font-family="Arial,Arial_MSFontService,sans-serif" font-weight="700" font-size="8" transform="matrix(1 0 0 1.00024 409.192 707)">Chỉ huyết</text><text font-family="Arial,Arial_MSFontService,sans-serif" font-weight="400" font-size="8" transform="matrix(1 0 0 1.00024 343.874 707)">Khổ, chát</text><text font-family="Arial,Arial_MSFontService,sans-serif" font-weight="400" font-size="8" transform="matrix(1 0 0 1.00024 305.217 707)">Hàn</text><text font-family="Arial,Arial_MSFontService,sans-serif" font-style="italic" font-weight="400" font-size="8" transform="matrix(1 0 0 1.00024 167.917 707)">Herba Agrimoniae</text><text font-family="Arial,Arial_MSFontService,sans-serif" font-weight="400" font-size="8" transform="matrix(1 0 0 1.00024 45.2807 707)">Tiên hạc thảo</text><text font-family="Arial,Arial_MSFontService,sans-serif" font-weight="700" font-size="8" transform="matrix(1 0 0 1.00024 409.192 727)">Chỉ huyết</text><text font-family="Arial,Arial_MSFontService,sans-serif" font-style="italic" font-weight="400" font-size="8" transform="matrix(1 0 0 1.00024 167.917 727)">Cirsium setosum</text><text font-family="Arial,Arial_MSFontService,sans-serif" font-weight="400" font-size="8" transform="matrix(1 0 0 1.00024 45.2807 727)">Tiểu kế</text><text font-family="Arial,Arial_MSFontService,sans-serif" font-weight="700" font-size="8" transform="matrix(1 0 0 1.00024 409.192 748)">Chỉ huyết</text><text font-family="Arial,Arial_MSFontService,sans-serif" font-style="italic" font-weight="400" font-size="8" transform="matrix(1 0 0 1.00024 167.917 748)">Cacumen Platycladi</text><text font-family="Arial,Arial_MSFontService,sans-serif" font-weight="400" font-size="8" transform="matrix(1 0 0 1.00024 45.2807 748)">Trắc bách diệp</text></g></svg>