<svg width="1365" height="1024" xmlns="http://www.w3.org/2000/svg" xmlns:xlink="http://www.w3.org/1999/xlink" overflow="hidden"><defs><clipPath id="clip0"><rect x="0" y="0" width="1365" height="1024"/></clipPath></defs><g clip-path="url(#clip0)"><rect x="0" y="0" width="1365" height="1024.25" fill="#FFFFFF"/><text fill="#6868AC" font-family="Arial,Arial_MSFontService,sans-serif" font-weight="400" font-size="39" transform="matrix(1 0 0 1.00024 766.479 276)">•</text><text fill="#6868AC" font-family="Arial,Arial_MSFontService,sans-serif" font-weight="400" font-size="32" transform="matrix(1 0 0 1.00024 782.209 276)">Contraindications</text><text fill="#6868AC" font-family="Arial,Arial_MSFontService,sans-serif" font-weight="400" font-size="32" transform="matrix(1 0 0 1.00024 1083.02 276)">and</text><text fill="#6868AC" font-family="Arial,Arial_MSFontService,sans-serif" font-weight="400" font-size="32" transform="matrix(1 0 0 1.00024 1191.71 276)">cautions</text><text fill="#6868AC" font-family="Arial,Arial_MSFontService,sans-serif" font-weight="400" font-size="32" transform="matrix(1 0 0 1.00024 782.209 314)">relating</text><text fill="#6868AC" font-family="Arial,Arial_MSFontService,sans-serif" font-weight="400" font-size="32" transform="matrix(1 0 0 1.00024 895.015 314)">to</text><text fill="#6868AC" font-family="Arial,Arial_MSFontService,sans-serif" font-weight="400" font-size="32" transform="matrix(1 0 0 1.00024 930.339 314)">syndromes</text><text fill="#6868AC" font-family="Arial,Arial_MSFontService,sans-serif" font-weight="400" font-size="39" transform="matrix(1 0 0 1.00024 766.479 363)">•</text><text fill="#6868AC" font-family="Arial,Arial_MSFontService,sans-serif" font-weight="400" font-size="32" transform="matrix(1 0 0 1.00024 782.209 363)">Contraindications</text><text fill="#6868AC" font-family="Arial,Arial_MSFontService,sans-serif" font-weight="400" font-size="32" transform="matrix(1 0 0 1.00024 1048.62 363)">relating</text><text fill="#6868AC" font-family="Arial,Arial_MSFontService,sans-serif" font-weight="400" font-size="32" transform="matrix(1 0 0 1.00024 1173.91 363)">to</text><text fill="#6868AC" font-family="Arial,Arial_MSFontService,sans-serif" font-weight="400" font-size="32" transform="matrix(1 0 0 1.00024 1221.7 363)">herbal</text><text fill="#6868AC" font-family="Arial,Arial_MSFontService,sans-serif" font-weight="400" font-size="32" transform="matrix(1 0 0 1.00024 782.209 401)">combinations</text><text fill="#6868AC" font-family="Arial,Arial_MSFontService,sans-serif" font-weight="400" font-size="32" transform="matrix(1 0 0 1.00024 982.747 401)">which</text><text fill="#6868AC" font-family="Arial,Arial_MSFontService,sans-serif" font-weight="400" font-size="32" transform="matrix(1 0 0 1.00024 1077.48 401)">have</text><text fill="#6868AC" font-family="Arial,Arial_MSFontService,sans-serif" font-weight="400" font-size="32" transform="matrix(1 0 0 1.00024 1159.88 401)">dangerous</text><text fill="#6868AC" font-family="Arial,Arial_MSFontService,sans-serif" font-weight="400" font-size="32" transform="matrix(1 0 0 1.00024 782.209 439)">or</text><text fill="#6868AC" font-family="Arial,Arial_MSFontService,sans-serif" font-weight="400" font-size="32" transform="matrix(1 0 0 1.00024 819.2 439)">antagonistic</text><text fill="#6868AC" font-family="Arial,Arial_MSFontService,sans-serif" font-weight="400" font-size="32" transform="matrix(1 0 0 1.00024 997.323 439)">effects</text><text fill="#6868AC" font-family="Arial,Arial_MSFontService,sans-serif" font-weight="400" font-size="39" transform="matrix(1 0 0 1.00024 766.479 487)">•</text><text fill="#6868AC" font-family="Arial,Arial_MSFontService,sans-serif" font-weight="400" font-size="32" transform="matrix(1 0 0 1.00024 782.209 487)">Cautions</text><text fill="#6868AC" font-family="Arial,Arial_MSFontService,sans-serif" font-weight="400" font-size="32" transform="matrix(1 0 0 1.00024 916.343 487)">relating</text><text fill="#6868AC" font-family="Arial,Arial_MSFontService,sans-serif" font-weight="400" font-size="32" transform="matrix(1 0 0 1.00024 1029.15 487)">to</text><text fill="#6868AC" font-family="Arial,Arial_MSFontService,sans-serif" font-weight="400" font-size="32" transform="matrix(1 0 0 1.00024 1064.47 487)">dietary</text><text fill="#6868AC" font-family="Arial,Arial_MSFontService,sans-serif" font-weight="400" font-size="32" transform="matrix(1 0 0 1.00024 1168.45 487)">habits</text><text fill="#6868AC" font-family="Arial,Arial_MSFontService,sans-serif" font-weight="400" font-size="39" transform="matrix(1 0 0 1.00024 766.479 536)">•</text><text fill="#6868AC" font-family="Arial,Arial_MSFontService,sans-serif" font-weight="400" font-size="32" transform="matrix(1 0 0 1.00024 782.209 536)">Cautions</text><text fill="#6868AC" font-family="Arial,Arial_MSFontService,sans-serif" font-weight="400" font-size="32" transform="matrix(1 0 0 1.00024 916.343 536)">during</text><text fill="#6868AC" font-family="Arial,Arial_MSFontService,sans-serif" font-weight="400" font-size="32" transform="matrix(1 0 0 1.00024 1013.32 536)">pregnancy</text><text fill="#6868AC" font-family="Arial,Arial_MSFontService,sans-serif" font-weight="400" font-size="39" transform="matrix(1 0 0 1.00024 766.479 585)">•</text><text fill="#6868AC" font-family="Arial,Arial_MSFontService,sans-serif" font-weight="400" font-size="32" transform="matrix(1 0 0 1.00024 782.209 585)">Cautions</text><text fill="#6868AC" font-family="Arial,Arial_MSFontService,sans-serif" font-weight="400" font-size="32" transform="matrix(1 0 0 1.00024 916.343 585)">during</text><text fill="#6868AC" font-family="Arial,Arial_MSFontService,sans-serif" font-weight="400" font-size="32" transform="matrix(1 0 0 1.00024 1013.32 585)">breast</text><text fill="#6868AC" font-family="Arial,Arial_MSFontService,sans-serif" font-weight="400" font-size="32" transform="matrix(1 0 0 1.00024 1101.46 585)">-</text><text fill="#6868AC" font-family="Arial,Arial_MSFontService,sans-serif" font-weight="400" font-size="32" transform="matrix(1 0 0 1.00024 1111.96 585)">feeding</text><text fill="#6868AC" font-family="Arial,Arial_MSFontService,sans-serif" font-weight="400" font-size="39" transform="matrix(1 0 0 1.00024 766.479 634)">•</text><text fill="#6868AC" font-family="Arial,Arial_MSFontService,sans-serif" font-weight="400" font-size="32" transform="matrix(1 0 0 1.00024 782.209 634)">Cautions</text><text fill="#6868AC" font-family="Arial,Arial_MSFontService,sans-serif" font-weight="400" font-size="32" transform="matrix(1 0 0 1.00024 917.829 634)">relating</text><text fill="#6868AC" font-family="Arial,Arial_MSFontService,sans-serif" font-weight="400" font-size="32" transform="matrix(1 0 0 1.00024 1032.12 634)">to</text><text fill="#6868AC" font-family="Arial,Arial_MSFontService,sans-serif" font-weight="400" font-size="32" transform="matrix(1 0 0 1.00024 1068.93 634)">the</text><text fill="#6868AC" font-family="Arial,Arial_MSFontService,sans-serif" font-weight="400" font-size="32" transform="matrix(1 0 0 1.00024 1123.41 634)">use</text><text fill="#6868AC" font-family="Arial,Arial_MSFontService,sans-serif" font-weight="400" font-size="32" transform="matrix(1 0 0 1.00024 1184.88 634)">of</text><text fill="#6868AC" font-family="Arial,Arial_MSFontService,sans-serif" font-weight="400" font-size="32" transform="matrix(1 0 0 1.00024 1221.7 634)">herbal</text><text fill="#6868AC" font-family="Arial,Arial_MSFontService,sans-serif" font-weight="400" font-size="32" transform="matrix(1 0 0 1.00024 782.209 672)">formulas</text><text fill="#6868AC" font-family="Arial,Arial_MSFontService,sans-serif" font-weight="400" font-size="32" transform="matrix(1 0 0 1.00024 912.677 672)">alongside</text><text fill="#6868AC" font-family="Arial,Arial_MSFontService,sans-serif" font-weight="400" font-size="32" transform="matrix(1 0 0 1.00024 1057.31 672)">western</text><text fill="#6868AC" font-family="Arial,Arial_MSFontService,sans-serif" font-weight="400" font-size="32" transform="matrix(1 0 0 1.00024 1177.28 672)">drugs</text><text fill="#6868AC" font-family="Arial,Arial_MSFontService,sans-serif" font-weight="400" font-size="39" transform="matrix(1 0 0 1.00024 793.673 721)">•</text><text fill="#6868AC" font-family="Arial,Arial_MSFontService,sans-serif" font-weight="400" font-size="32" transform="matrix(1 0 0 1.00024 807.336 721)">Cautions</text><text fill="#6868AC" font-family="Arial,Arial_MSFontService,sans-serif" font-weight="400" font-size="32" transform="matrix(1 0 0 1.00024 946.709 721)">relating</text><text fill="#6868AC" font-family="Arial,Arial_MSFontService,sans-serif" font-weight="400" font-size="32" transform="matrix(1 0 0 1.00024 1064.75 721)">to</text><text fill="#6868AC" font-family="Arial,Arial_MSFontService,sans-serif" font-weight="400" font-size="32" transform="matrix(1 0 0 1.00024 1105.32 721)">western</text><text fill="#6868AC" font-family="Arial,Arial_MSFontService,sans-serif" font-weight="400" font-size="32" transform="matrix(1 0 0 1.00024 1230.53 721)">drugs</text><text fill="#6868AC" font-family="Arial,Arial_MSFontService,sans-serif" font-weight="400" font-size="32" transform="matrix(1 0 0 1.00024 806.936 759)">and</text><text fill="#6868AC" font-family="Arial,Arial_MSFontService,sans-serif" font-weight="400" font-size="32" transform="matrix(1 0 0 1.00024 882.971 759)">herbal</text><text fill="#6868AC" font-family="Arial,Arial_MSFontService,sans-serif" font-weight="400" font-size="32" transform="matrix(1 0 0 1.00024 994.164 759)">formulas</text><text fill="#6868AC" font-family="Arial,Arial_MSFontService,sans-serif" font-weight="400" font-size="32" transform="matrix(1 0 0 1.00024 1138.84 759)">with</text><text fill="#6868AC" font-family="Arial,Arial_MSFontService,sans-serif" font-weight="400" font-size="32" transform="matrix(1 0 0 1.00024 1218.37 759)">similar</text><text fill="#6868AC" font-family="Arial,Arial_MSFontService,sans-serif" font-weight="400" font-size="32" transform="matrix(1 0 0 1.00024 806.936 797)">effects</text><text fill="#6868AC" font-family="Arial,Arial_MSFontService,sans-serif" font-weight="400" font-size="39" transform="matrix(1 0 0 1.00024 793.673 846)">•</text><text fill="#6868AC" font-family="Arial,Arial_MSFontService,sans-serif" font-weight="400" font-size="32" transform="matrix(1 0 0 1.00024 807.336 846)">Cautions</text><text fill="#6868AC" font-family="Arial,Arial_MSFontService,sans-serif" font-weight="400" font-size="32" transform="matrix(1 0 0 1.00024 946.709 846)">relating</text><text fill="#6868AC" font-family="Arial,Arial_MSFontService,sans-serif" font-weight="400" font-size="32" transform="matrix(1 0 0 1.00024 1064.75 846)">to</text><text fill="#6868AC" font-family="Arial,Arial_MSFontService,sans-serif" font-weight="400" font-size="32" transform="matrix(1 0 0 1.00024 1105.32 846)">western</text><text fill="#6868AC" font-family="Arial,Arial_MSFontService,sans-serif" font-weight="400" font-size="32" transform="matrix(1 0 0 1.00024 1230.53 846)">drugs</text><text fill="#6868AC" font-family="Arial,Arial_MSFontService,sans-serif" font-weight="400" font-size="32" transform="matrix(1 0 0 1.00024 806.936 884)">and</text><text fill="#6868AC" font-family="Arial,Arial_MSFontService,sans-serif" font-weight="400" font-size="32" transform="matrix(1 0 0 1.00024 921.142 884)">herbal</text><text fill="#6868AC" font-family="Arial,Arial_MSFontService,sans-serif" font-weight="400" font-size="32" transform="matrix(1 0 0 1.00024 1070.51 884)">formulas</text><text fill="#6868AC" font-family="Arial,Arial_MSFontService,sans-serif" font-weight="400" font-size="32" transform="matrix(1 0 0 1.00024 1253.36 884)">with</text><text fill="#6868AC" font-family="Arial,Arial_MSFontService,sans-serif" font-weight="400" font-size="32" transform="matrix(1 0 0 1.00024 806.936 922)">antagonistic</text><text fill="#6868AC" font-family="Arial,Arial_MSFontService,sans-serif" font-weight="400" font-size="32" transform="matrix(1 0 0 1.00024 985.059 922)">effects</text><text font-family="Arial,Arial_MSFontService,sans-serif" font-weight="700" font-size="66" transform="matrix(1 0 0 1.00024 78.6475 100)">Treatment principles and their</text><text font-family="Arial,Arial_MSFontService,sans-serif" font-weight="700" font-size="66" transform="matrix(1 0 0 1.00024 78.6475 163)">sequence</text><text font-family="Arial,Arial_MSFontService,sans-serif" font-weight="400" font-size="33" transform="matrix(1 0 0 1.00024 19.1053 281)">•</text><text font-family="Arial,Arial_MSFontService,sans-serif" font-weight="400" font-size="27" transform="matrix(1 0 0 1.00024 46.2986 281)">Regarding the human body, the body and the mind, and</text><text font-family="Arial,Arial_MSFontService,sans-serif" font-weight="400" font-size="27" transform="matrix(1 0 0 1.00024 46.2986 311)">the body and the environment as integral parts</text><text font-family="Arial,Arial_MSFontService,sans-serif" font-weight="400" font-size="33" transform="matrix(1 0 0 1.00024 19.1053 340)">•</text><text font-family="Arial,Arial_MSFontService,sans-serif" font-weight="400" font-size="27" transform="matrix(1 0 0 1.00024 46.2986 340)">Treat the</text><text font-family="Arial,Arial_MSFontService,sans-serif" font-style="italic" font-weight="400" font-size="27" transform="matrix(1 0 0 1.00024 162.604 340)">Ben</text><text font-family="Arial,Arial_MSFontService,sans-serif" font-weight="400" font-size="27" transform="matrix(1 0 0 1.00024 218.59 340)">first (root) and the</text><text font-family="Arial,Arial_MSFontService,sans-serif" font-style="italic" font-weight="400" font-size="27" transform="matrix(1 0 0 1.00024 440.369 340)">Biao</text><text font-family="Arial,Arial_MSFontService,sans-serif" font-weight="400" font-size="27" transform="matrix(1 0 0 1.00024 502.354 340)">(Manifestation)</text><text font-family="Arial,Arial_MSFontService,sans-serif" font-weight="400" font-size="27" transform="matrix(1 0 0 1.00024 46.2986 369)">later</text><text font-family="Arial,Arial_MSFontService,sans-serif" font-weight="400" font-size="33" transform="matrix(1 0 0 1.00024 19.1053 399)">•</text><text font-family="Arial,Arial_MSFontService,sans-serif" font-weight="400" font-size="27" transform="matrix(1 0 0 1.00024 46.2986 399)">Making a clear differentiation of the relevant syndrome(s)</text><text font-family="Arial,Arial_MSFontService,sans-serif" font-weight="400" font-size="33" transform="matrix(1 0 0 1.00024 19.1053 428)">•</text><text font-family="Arial,Arial_MSFontService,sans-serif" font-weight="400" font-size="27" transform="matrix(1 0 0 1.00024 46.2986 428)">First making clear the relationship of</text><text font-family="Arial,Arial_MSFontService,sans-serif" font-style="italic" font-weight="400" font-size="27" transform="matrix(1 0 0 1.00024 490.523 428)">Ben</text><text font-family="Arial,Arial_MSFontService,sans-serif" font-weight="400" font-size="27" transform="matrix(1 0 0 1.00024 546.51 428)">(the root or</text><text font-family="Arial,Arial_MSFontService,sans-serif" font-weight="400" font-size="27" transform="matrix(1 0 0 1.00024 46.2986 457)">cause) and</text><text font-family="Arial,Arial_MSFontService,sans-serif" font-style="italic" font-weight="400" font-size="27" transform="matrix(1 0 0 1.00024 188.597 457)">Biao</text><text font-family="Arial,Arial_MSFontService,sans-serif" font-weight="400" font-size="27" transform="matrix(1 0 0 1.00024 250.582 457)">(the manifestation)</text><text font-family="Arial,Arial_MSFontService,sans-serif" font-weight="400" font-size="33" transform="matrix(1 0 0 1.00024 19.1053 487)">•</text><text font-family="Arial,Arial_MSFontService,sans-serif" font-weight="400" font-size="27" transform="matrix(1 0 0 1.00024 46.2986 487)">Treat the</text><text font-family="Arial,Arial_MSFontService,sans-serif" font-style="italic" font-weight="400" font-size="27" transform="matrix(1 0 0 1.00024 162.604 487)">Ben</text><text font-family="Arial,Arial_MSFontService,sans-serif" font-weight="400" font-size="27" transform="matrix(1 0 0 1.00024 218.59 487)">first and the</text><text font-family="Arial,Arial_MSFontService,sans-serif" font-style="italic" font-weight="400" font-size="27" transform="matrix(1 0 0 1.00024 368.053 487)">Biao</text><text font-family="Arial,Arial_MSFontService,sans-serif" font-weight="400" font-size="27" transform="matrix(1 0 0 1.00024 430.038 487)">later</text><text font-family="Arial,Arial_MSFontService,sans-serif" font-weight="400" font-size="33" transform="matrix(1 0 0 1.00024 19.1053 516)">•</text><text font-family="Arial,Arial_MSFontService,sans-serif" font-weight="400" font-size="27" transform="matrix(1 0 0 1.00024 46.2986 516)">Eliminating exogenous pathogenic factors</text><text font-family="Arial,Arial_MSFontService,sans-serif" font-weight="400" font-size="33" transform="matrix(1 0 0 1.00024 19.1053 545)">•</text><text font-family="Arial,Arial_MSFontService,sans-serif" font-weight="400" font-size="27" transform="matrix(1 0 0 1.00024 46.2986 545)">Strengthening the body’s resistance</text><text font-family="Arial,Arial_MSFontService,sans-serif" font-weight="400" font-size="33" transform="matrix(1 0 0 1.00024 19.1053 575)">•</text><text font-family="Arial,Arial_MSFontService,sans-serif" font-weight="400" font-size="27" transform="matrix(1 0 0 1.00024 46.2986 575)">Treating complicated syndromes</text><text font-family="Arial,Arial_MSFontService,sans-serif" font-weight="400" font-size="33" transform="matrix(1 0 0 1.00024 19.1053 604)">•</text><text font-family="Arial,Arial_MSFontService,sans-serif" font-weight="400" font-size="27" transform="matrix(1 0 0 1.00024 46.2986 604)">Stopping treatment in time</text><text font-family="Arial,Arial_MSFontService,sans-serif" font-weight="400" font-size="33" transform="matrix(1 0 0 1.00024 19.1053 634)">•</text><text font-family="Arial,Arial_MSFontService,sans-serif" font-weight="400" font-size="27" transform="matrix(1 0 0 1.00024 46.2986 634)">Paying close attention to protect the Stomach and Spleen</text><text font-family="Arial,Arial_MSFontService,sans-serif" font-weight="400" font-size="33" transform="matrix(1 0 0 1.00024 19.1053 663)">•</text><text font-family="Arial,Arial_MSFontService,sans-serif" font-weight="400" font-size="27" transform="matrix(1 0 0 1.00024 46.2986 663)">Paying attention to special groups of patients and their</text><text font-family="Arial,Arial_MSFontService,sans-serif" font-weight="400" font-size="27" transform="matrix(1 0 0 1.00024 46.2986 692)">physical characteristics</text><text font-family="Arial,Arial_MSFontService,sans-serif" font-weight="400" font-size="33" transform="matrix(1 0 0 1.00024 46.2986 722)">•</text><text font-family="Arial,Arial_MSFontService,sans-serif" font-weight="400" font-size="27" transform="matrix(1 0 0 1.00024 73.492 722)">Woman</text><text font-family="Arial,Arial_MSFontService,sans-serif" font-weight="400" font-size="33" transform="matrix(1 0 0 1.00024 46.2986 751)">•</text><text font-family="Arial,Arial_MSFontService,sans-serif" font-weight="400" font-size="27" transform="matrix(1 0 0 1.00024 73.492 751)">Children</text><text font-family="Arial,Arial_MSFontService,sans-serif" font-weight="400" font-size="33" transform="matrix(1 0 0 1.00024 46.2986 780)">•</text><text font-family="Arial,Arial_MSFontService,sans-serif" font-weight="400" font-size="27" transform="matrix(1 0 0 1.00024 73.492 780)">The elderly</text><text font-family="Arial,Arial_MSFontService,sans-serif" font-weight="400" font-size="33" transform="matrix(1 0 0 1.00024 46.2986 810)">•</text><text font-family="Arial,Arial_MSFontService,sans-serif" font-weight="400" font-size="27" transform="matrix(1 0 0 1.00024 73.492 810)">Postoperative patients and patients with chronic</text><text font-family="Arial,Arial_MSFontService,sans-serif" font-weight="400" font-size="27" transform="matrix(1 0 0 1.00024 73.492 839)">diseases</text><text font-family="Arial,Arial_MSFontService,sans-serif" font-weight="400" font-size="33" transform="matrix(1 0 0 1.00024 46.2986 868)">•</text><text font-family="Arial,Arial_MSFontService,sans-serif" font-weight="400" font-size="27" transform="matrix(1 0 0 1.00024 73.492 868)">Patients with special eating habits</text><text font-family="Arial,Arial_MSFontService,sans-serif" font-weight="400" font-size="33" transform="matrix(1 0 0 1.00024 46.2986 898)">•</text><text font-family="Arial,Arial_MSFontService,sans-serif" font-weight="400" font-size="27" transform="matrix(1 0 0 1.00024 73.492 898)">Patients suffering from stress, insomnia, emotional</text><text font-family="Arial,Arial_MSFontService,sans-serif" font-weight="400" font-size="27" transform="matrix(1 0 0 1.00024 73.492 927)">disturbance and exhaustion</text></g></svg>