<svg width="1365" height="1024" xmlns="http://www.w3.org/2000/svg" xmlns:xlink="http://www.w3.org/1999/xlink" overflow="hidden"><defs><clipPath id="clip0"><rect x="0" y="0" width="1365" height="1024"/></clipPath></defs><g clip-path="url(#clip0)"><rect x="0" y="0" width="1365" height="1024.25" fill="#FFFFFF"/><text font-family="Arial,Arial_MSFontService,sans-serif" font-weight="400" font-size="81" transform="matrix(1 0 0 1.00024 78.6475 416)">Vị thuốc cổ truyền</text><text font-family="Arial,Arial_MSFontService,sans-serif" font-weight="400" font-size="81" transform="matrix(1 0 0 1.00024 78.6475 494)">Tính</text><text font-family="Arial,Arial_MSFontService,sans-serif" font-weight="400" font-size="81" transform="matrix(1 0 0 1.00024 234.156 494)">-</text><text font-family="Arial,Arial_MSFontService,sans-serif" font-weight="400" font-size="81" transform="matrix(1 0 0 1.00024 259.537 494)">Temperature</text><text font-family="Arial,Arial_MSFontService,sans-serif" font-weight="400" font-size="81" transform="matrix(1 0 0 1.00024 78.6475 572)">Vị</text><text font-family="Arial,Arial_MSFontService,sans-serif" font-weight="400" font-size="81" transform="matrix(1 0 0 1.00024 147.404 572)">-</text><text font-family="Arial,Arial_MSFontService,sans-serif" font-weight="400" font-size="81" transform="matrix(1 0 0 1.00024 172.784 572)">Taste</text><text font-family="Arial,Arial_MSFontService,sans-serif" font-weight="400" font-size="81" transform="matrix(1 0 0 1.00024 78.6475 649)">Công năng</text><text font-family="Arial,Arial_MSFontService,sans-serif" font-weight="400" font-size="81" transform="matrix(1 0 0 1.00024 460.034 649)">-</text><text font-family="Arial,Arial_MSFontService,sans-serif" font-weight="400" font-size="81" transform="matrix(1 0 0 1.00024 485.415 649)">chủ trị</text><text font-family="Arial,Arial_MSFontService,sans-serif" font-weight="400" font-size="81" transform="matrix(1 0 0 1.00024 694.57 649)">-</text><text font-family="Arial,Arial_MSFontService,sans-serif" font-weight="400" font-size="81" transform="matrix(1 0 0 1.00024 740.832 649)">Actions</text></g></svg>