<svg width="1365" height="1024" xmlns="http://www.w3.org/2000/svg" xmlns:xlink="http://www.w3.org/1999/xlink" overflow="hidden"><defs><clipPath id="clip0"><rect x="0" y="0" width="1365" height="1024"/></clipPath></defs><g clip-path="url(#clip0)"><rect x="0" y="0" width="1365" height="1024.25" fill="#FFFFFF"/><text font-family="Arial,Arial_MSFontService,sans-serif" font-weight="700" font-size="51" transform="matrix(1 0 0 1.00024 78.6475 203)">Quyết định 5013/QĐ</text><text font-family="Arial,Arial_MSFontService,sans-serif" font-weight="700" font-size="51" transform="matrix(1 0 0 1.00024 559.697 203)">-</text><text font-family="Arial,Arial_MSFontService,sans-serif" font-weight="700" font-size="51" transform="matrix(1 0 0 1.00024 576.526 203)">BYT</text><text font-family="Arial,Arial_MSFontService,sans-serif" font-weight="700" font-size="79" transform="matrix(1 0 0 1.00024 78.6475 110)">Đau cột sống thắt lưng</text><text font-family="Arial,Arial_MSFontService,sans-serif" font-weight="700" font-size="41" transform="matrix(1 0 0 1.00024 73.9596 326)">-</text><text font-family="Arial,Arial_MSFontService,sans-serif" font-weight="700" font-size="41" transform="matrix(1 0 0 1.00024 99.2867 326)">Ngoại</text><text font-family="Arial,Arial_MSFontService,sans-serif" font-weight="700" font-size="41" transform="matrix(1 0 0 1.00024 225.423 326)">nhân</text><text font-family="Arial,Arial_MSFontService,sans-serif" font-weight="700" font-size="41" transform="matrix(1 0 0 1.00024 323.899 326)">:</text><text font-family="Arial,Arial_MSFontService,sans-serif" font-weight="400" font-size="41" transform="matrix(1 0 0 1.00024 73.9596 376)">+</text><text font-family="Arial,Arial_MSFontService,sans-serif" font-weight="700" font-size="41" transform="matrix(1 0 0 1.00024 113.01 376)">Hàn</text><text font-family="Arial,Arial_MSFontService,sans-serif" font-weight="700" font-size="41" transform="matrix(1 0 0 1.00024 205.881 376)">thấp</text><text font-family="Arial,Arial_MSFontService,sans-serif" font-weight="400" font-size="41" transform="matrix(1 0 0 1.00024 293.026 376)">:</text><text font-family="Arial,Arial_MSFontService,sans-serif" font-weight="400" font-size="41" transform="matrix(1 0 0 1.00024 319.413 376)">Thường</text><text font-family="Arial,Arial_MSFontService,sans-serif" font-weight="400" font-size="41" transform="matrix(1 0 0 1.00024 483.266 376)">gặp</text><text font-family="Arial,Arial_MSFontService,sans-serif" font-weight="400" font-size="41" transform="matrix(1 0 0 1.00024 567.139 376)">ở</text><text font-family="Arial,Arial_MSFontService,sans-serif" font-weight="400" font-size="41" transform="matrix(1 0 0 1.00024 609.196 376)">những</text><text font-family="Arial,Arial_MSFontService,sans-serif" font-weight="400" font-size="41" transform="matrix(1 0 0 1.00024 743.729 376)">người</text><text font-family="Arial,Arial_MSFontService,sans-serif" font-weight="400" font-size="41" transform="matrix(1 0 0 1.00024 868.599 376)">làm</text><text font-family="Arial,Arial_MSFontService,sans-serif" font-weight="400" font-size="41" transform="matrix(1 0 0 1.00024 950.146 376)">việc,</text><text font-family="Arial,Arial_MSFontService,sans-serif" font-weight="400" font-size="41" transform="matrix(1 0 0 1.00024 1050.02 376)">sinh</text><text font-family="Arial,Arial_MSFontService,sans-serif" font-weight="400" font-size="41" transform="matrix(1 0 0 1.00024 1140.73 376)">hoạt</text><text font-family="Arial,Arial_MSFontService,sans-serif" font-weight="400" font-size="41" transform="matrix(1 0 0 1.00024 1236.11 376)">ở</text><text font-family="Arial,Arial_MSFontService,sans-serif" font-weight="400" font-size="41" transform="matrix(1 0 0 1.00024 1278.17 376)">nơi</text><text font-family="Arial,Arial_MSFontService,sans-serif" font-weight="400" font-size="41" transform="matrix(1 0 0 1.00024 73.9596 426)">ẩm,</text><text font-family="Arial,Arial_MSFontService,sans-serif" font-weight="400" font-size="41" transform="matrix(1 0 0 1.00024 157.699 426)">lạnh</text><text font-family="Arial,Arial_MSFontService,sans-serif" font-weight="400" font-size="41" transform="matrix(1 0 0 1.00024 250.603 426)">lâu</text><text font-family="Arial,Arial_MSFontService,sans-serif" font-weight="400" font-size="41" transform="matrix(1 0 0 1.00024 320.513 426)">ngày</text><text font-family="Arial,Arial_MSFontService,sans-serif" font-weight="400" font-size="41" transform="matrix(1 0 0 1.00024 424.914 426)">hoặc</text><text font-family="Arial,Arial_MSFontService,sans-serif" font-weight="400" font-size="41" transform="matrix(1 0 0 1.00024 529.315 426)">bị</text><text font-family="Arial,Arial_MSFontService,sans-serif" font-weight="400" font-size="41" transform="matrix(1 0 0 1.00024 576.23 426)">cảm</text><text font-family="Arial,Arial_MSFontService,sans-serif" font-weight="400" font-size="41" transform="matrix(1 0 0 1.00024 669.134 426)">phải</text><text font-family="Arial,Arial_MSFontService,sans-serif" font-weight="400" font-size="41" transform="matrix(1 0 0 1.00024 762.038 426)">hàn</text><text font-family="Arial,Arial_MSFontService,sans-serif" font-weight="400" font-size="41" transform="matrix(1 0 0 1.00024 845.778 426)">thấp</text><text font-family="Arial,Arial_MSFontService,sans-serif" font-weight="400" font-size="41" transform="matrix(1 0 0 1.00024 941.015 426)">gây</text><text font-family="Arial,Arial_MSFontService,sans-serif" font-weight="400" font-size="41" transform="matrix(1 0 0 1.00024 1022.43 426)">trở</text><text font-family="Arial,Arial_MSFontService,sans-serif" font-weight="400" font-size="41" transform="matrix(1 0 0 1.00024 1089.68 426)">ngại</text><text font-family="Arial,Arial_MSFontService,sans-serif" font-weight="400" font-size="41" transform="matrix(1 0 0 1.00024 1182.59 426)">kinh</text><text font-family="Arial,Arial_MSFontService,sans-serif" font-weight="400" font-size="41" transform="matrix(1 0 0 1.00024 1273.17 426)">lạc,</text><text font-family="Arial,Arial_MSFontService,sans-serif" font-weight="400" font-size="41" transform="matrix(1 0 0 1.00024 73.9596 476)">khí</text><text font-family="Arial,Arial_MSFontService,sans-serif" font-weight="400" font-size="41" transform="matrix(1 0 0 1.00024 140.61 476)">huyết</text><text font-family="Arial,Arial_MSFontService,sans-serif" font-weight="400" font-size="41" transform="matrix(1 0 0 1.00024 253.249 476)">trong</text><text font-family="Arial,Arial_MSFontService,sans-serif" font-weight="400" font-size="41" transform="matrix(1 0 0 1.00024 359.057 476)">đường</text><text font-family="Arial,Arial_MSFontService,sans-serif" font-weight="400" font-size="41" transform="matrix(1 0 0 1.00024 494.357 476)">kinh</text><text font-family="Arial,Arial_MSFontService,sans-serif" font-weight="400" font-size="41" transform="matrix(1 0 0 1.00024 581.669 476)">mạch</text><text font-family="Arial,Arial_MSFontService,sans-serif" font-weight="400" font-size="41" transform="matrix(1 0 0 1.00024 694.308 476)">vùng</text><text font-family="Arial,Arial_MSFontService,sans-serif" font-weight="400" font-size="41" transform="matrix(1 0 0 1.00024 795.45 476)">thắt</text><text font-family="Arial,Arial_MSFontService,sans-serif" font-weight="400" font-size="41" transform="matrix(1 0 0 1.00024 875.93 476)">lưng</text><text font-family="Arial,Arial_MSFontService,sans-serif" font-weight="400" font-size="41" transform="matrix(1 0 0 1.00024 970.241 476)">bị</text><text font-family="Arial,Arial_MSFontService,sans-serif" font-weight="400" font-size="41" transform="matrix(1 0 0 1.00024 1013.9 476)">bế</text><text font-family="Arial,Arial_MSFontService,sans-serif" font-weight="400" font-size="41" transform="matrix(1 0 0 1.00024 1071.38 476)">tắc</text><text font-family="Arial,Arial_MSFontService,sans-serif" font-weight="400" font-size="41" transform="matrix(1 0 0 1.00024 1126.54 476)">.</text><text font-family="Arial,Arial_MSFontService,sans-serif" font-weight="400" font-size="41" transform="matrix(1 0 0 1.00024 73.9596 526)">+</text><text font-family="Arial,Arial_MSFontService,sans-serif" font-weight="700" font-size="41" transform="matrix(1 0 0 1.00024 110.591 526)">Thấp</text><text font-family="Arial,Arial_MSFontService,sans-serif" font-weight="700" font-size="41" transform="matrix(1 0 0 1.00024 221.537 526)">nhiệt</text><text font-family="Arial,Arial_MSFontService,sans-serif" font-weight="700" font-size="41" transform="matrix(1 0 0 1.00024 320.179 526)">:</text><text font-family="Arial,Arial_MSFontService,sans-serif" font-weight="400" font-size="41" transform="matrix(1 0 0 1.00024 346.48 526)">Do</text><text font-family="Arial,Arial_MSFontService,sans-serif" font-weight="400" font-size="41" transform="matrix(1 0 0 1.00024 411.77 526)">bị</text><text font-family="Arial,Arial_MSFontService,sans-serif" font-weight="400" font-size="41" transform="matrix(1 0 0 1.00024 456.4 526)">cảm</text><text font-family="Arial,Arial_MSFontService,sans-serif" font-weight="400" font-size="41" transform="matrix(1 0 0 1.00024 547.024 526)">phải</text><text font-family="Arial,Arial_MSFontService,sans-serif" font-weight="400" font-size="41" transform="matrix(1 0 0 1.00024 637.649 526)">tà</text><text font-family="Arial,Arial_MSFontService,sans-serif" font-weight="400" font-size="41" transform="matrix(1 0 0 1.00024 684.617 526)">khí</text><text font-family="Arial,Arial_MSFontService,sans-serif" font-weight="400" font-size="41" transform="matrix(1 0 0 1.00024 752.247 526)">thấp</text><text font-family="Arial,Arial_MSFontService,sans-serif" font-weight="400" font-size="41" transform="matrix(1 0 0 1.00024 845.205 526)">nhiệt</text><text font-family="Arial,Arial_MSFontService,sans-serif" font-weight="400" font-size="41" transform="matrix(1 0 0 1.00024 947.326 526)">hoặc</text><text font-family="Arial,Arial_MSFontService,sans-serif" font-weight="400" font-size="41" transform="matrix(1 0 0 1.00024 1049.45 526)">do</text><text font-family="Arial,Arial_MSFontService,sans-serif" font-weight="400" font-size="41" transform="matrix(1 0 0 1.00024 1107.91 526)">hàn</text><text font-family="Arial,Arial_MSFontService,sans-serif" font-weight="400" font-size="41" transform="matrix(1 0 0 1.00024 1189.37 526)">thấp</text><text font-family="Arial,Arial_MSFontService,sans-serif" font-weight="400" font-size="41" transform="matrix(1 0 0 1.00024 1282.33 526)">lâu</text><text font-family="Arial,Arial_MSFontService,sans-serif" font-weight="400" font-size="41" transform="matrix(1 0 0 1.00024 73.9596 575)">ngày</text><text font-family="Arial,Arial_MSFontService,sans-serif" font-weight="400" font-size="41" transform="matrix(1 0 0 1.00024 177.968 575)">không</text><text font-family="Arial,Arial_MSFontService,sans-serif" font-weight="400" font-size="41" transform="matrix(1 0 0 1.00024 304.97 575)">khỏi</text><text font-family="Arial,Arial_MSFontService,sans-serif" font-weight="400" font-size="41" transform="matrix(1 0 0 1.00024 395.148 575)">tà</text><text font-family="Arial,Arial_MSFontService,sans-serif" font-weight="400" font-size="41" transform="matrix(1 0 0 1.00024 444.003 575)">khí</text><text font-family="Arial,Arial_MSFontService,sans-serif" font-weight="400" font-size="41" transform="matrix(1 0 0 1.00024 513.519 575)">lưu</text><text font-family="Arial,Arial_MSFontService,sans-serif" font-weight="400" font-size="41" transform="matrix(1 0 0 1.00024 587.701 575)">lại</text><text font-family="Arial,Arial_MSFontService,sans-serif" font-weight="400" font-size="41" transform="matrix(1 0 0 1.00024 643.387 575)">kinh</text><text font-family="Arial,Arial_MSFontService,sans-serif" font-weight="400" font-size="41" transform="matrix(1 0 0 1.00024 733.565 575)">lạc</text><text font-family="Arial,Arial_MSFontService,sans-serif" font-weight="400" font-size="41" transform="matrix(1 0 0 1.00024 800.749 575)">uất</text><text font-family="Arial,Arial_MSFontService,sans-serif" font-weight="400" font-size="41" transform="matrix(1 0 0 1.00024 872.598 575)">lại</text><text font-family="Arial,Arial_MSFontService,sans-serif" font-weight="400" font-size="41" transform="matrix(1 0 0 1.00024 928.284 575)">hóa</text><text font-family="Arial,Arial_MSFontService,sans-serif" font-weight="400" font-size="41" transform="matrix(1 0 0 1.00024 1011.63 575)">nhiệt</text><text font-family="Arial,Arial_MSFontService,sans-serif" font-weight="400" font-size="41" transform="matrix(1 0 0 1.00024 1115.64 575)">mà</text><text font-family="Arial,Arial_MSFontService,sans-serif" font-weight="400" font-size="41" transform="matrix(1 0 0 1.00024 1187.49 575)">gây</text><text font-family="Arial,Arial_MSFontService,sans-serif" font-weight="400" font-size="41" transform="matrix(1 0 0 1.00024 1268.5 575)">ủng</text><text font-family="Arial,Arial_MSFontService,sans-serif" font-weight="400" font-size="41" transform="matrix(1 0 0 1.00024 73.9596 625)">trệ</text><text font-family="Arial,Arial_MSFontService,sans-serif" font-weight="400" font-size="41" transform="matrix(1 0 0 1.00024 133.778 625)">kinh</text><text font-family="Arial,Arial_MSFontService,sans-serif" font-weight="400" font-size="41" transform="matrix(1 0 0 1.00024 221.09 625)">lạc</text><text font-family="Arial,Arial_MSFontService,sans-serif" font-weight="400" font-size="41" transform="matrix(1 0 0 1.00024 273.911 625)">.</text><text font-family="Arial,Arial_MSFontService,sans-serif" font-weight="700" font-size="41" transform="matrix(1 0 0 1.00024 73.9596 674)">-</text><text font-family="Arial,Arial_MSFontService,sans-serif" font-weight="700" font-size="41" transform="matrix(1 0 0 1.00024 104.792 674)">Bất</text><text font-family="Arial,Arial_MSFontService,sans-serif" font-weight="700" font-size="41" transform="matrix(1 0 0 1.00024 188.452 674)">nội</text><text font-family="Arial,Arial_MSFontService,sans-serif" font-weight="700" font-size="41" transform="matrix(1 0 0 1.00024 267.279 674)">ngoại</text><text font-family="Arial,Arial_MSFontService,sans-serif" font-weight="700" font-size="41" transform="matrix(1 0 0 1.00024 394.261 674)">nhân</text><text font-family="Arial,Arial_MSFontService,sans-serif" font-weight="700" font-size="41" transform="matrix(1 0 0 1.00024 492.737 674)">:</text><text font-family="Arial,Arial_MSFontService,sans-serif" font-weight="400" font-size="41" transform="matrix(1 0 0 1.00024 523.576 674)">Do</text><text font-family="Arial,Arial_MSFontService,sans-serif" font-weight="400" font-size="41" transform="matrix(1 0 0 1.00024 593.406 674)">chấn</text><text font-family="Arial,Arial_MSFontService,sans-serif" font-weight="400" font-size="41" transform="matrix(1 0 0 1.00024 700.06 674)">thương</text><text font-family="Arial,Arial_MSFontService,sans-serif" font-weight="400" font-size="41" transform="matrix(1 0 0 1.00024 852.37 674)">vùng</text><text font-family="Arial,Arial_MSFontService,sans-serif" font-weight="400" font-size="41" transform="matrix(1 0 0 1.00024 959.023 674)">lưng,</text><text font-family="Arial,Arial_MSFontService,sans-serif" font-weight="400" font-size="41" transform="matrix(1 0 0 1.00024 1070.34 674)">sai</text><text font-family="Arial,Arial_MSFontService,sans-serif" font-weight="400" font-size="41" transform="matrix(1 0 0 1.00024 1140.17 674)">tư</text><text font-family="Arial,Arial_MSFontService,sans-serif" font-weight="400" font-size="41" transform="matrix(1 0 0 1.00024 1196.34 674)">thế</text><text font-family="Arial,Arial_MSFontService,sans-serif" font-weight="400" font-size="41" transform="matrix(1 0 0 1.00024 1270.83 674)">làm</text><text font-family="Arial,Arial_MSFontService,sans-serif" font-weight="400" font-size="41" transform="matrix(1 0 0 1.00024 73.9596 724)">cho</text><text font-family="Arial,Arial_MSFontService,sans-serif" font-weight="400" font-size="41" transform="matrix(1 0 0 1.00024 152.107 724)">khí</text><text font-family="Arial,Arial_MSFontService,sans-serif" font-weight="400" font-size="41" transform="matrix(1 0 0 1.00024 218.758 724)">trệ</text><text font-family="Arial,Arial_MSFontService,sans-serif" font-weight="400" font-size="41" transform="matrix(1 0 0 1.00024 278.576 724)">huyết</text><text font-family="Arial,Arial_MSFontService,sans-serif" font-weight="400" font-size="41" transform="matrix(1 0 0 1.00024 391.215 724)">ứ</text><text font-family="Arial,Arial_MSFontService,sans-serif" font-weight="400" font-size="41" transform="matrix(1 0 0 1.00024 430.373 724)">ảnh</text><text font-family="Arial,Arial_MSFontService,sans-serif" font-weight="400" font-size="41" transform="matrix(1 0 0 1.00024 510.853 724)">hưởng</text><text font-family="Arial,Arial_MSFontService,sans-serif" font-weight="400" font-size="41" transform="matrix(1 0 0 1.00024 646.153 724)">đến</text><text font-family="Arial,Arial_MSFontService,sans-serif" font-weight="400" font-size="41" transform="matrix(1 0 0 1.00024 726.634 724)">sự</text><text font-family="Arial,Arial_MSFontService,sans-serif" font-weight="400" font-size="41" transform="matrix(1 0 0 1.00024 786.452 724)">vận</text><text font-family="Arial,Arial_MSFontService,sans-serif" font-weight="400" font-size="41" transform="matrix(1 0 0 1.00024 864.6 724)">hành</text><text font-family="Arial,Arial_MSFontService,sans-serif" font-weight="400" font-size="41" transform="matrix(1 0 0 1.00024 968.075 724)">của</text><text font-family="Arial,Arial_MSFontService,sans-serif" font-weight="400" font-size="41" transform="matrix(1 0 0 1.00024 1046.22 724)">khí</text><text font-family="Arial,Arial_MSFontService,sans-serif" font-weight="400" font-size="41" transform="matrix(1 0 0 1.00024 1112.87 724)">huyết</text><text font-family="Arial,Arial_MSFontService,sans-serif" font-weight="400" font-size="41" transform="matrix(1 0 0 1.00024 1214.01 724)">.</text><text font-family="Arial,Arial_MSFontService,sans-serif" font-weight="700" font-size="41" transform="matrix(1 0 0 1.00024 73.9596 774)">-</text><text font-family="Arial,Arial_MSFontService,sans-serif" font-weight="700" font-size="41" transform="matrix(1 0 0 1.00024 103.892 774)">Nội</text><text font-family="Arial,Arial_MSFontService,sans-serif" font-weight="700" font-size="41" transform="matrix(1 0 0 1.00024 186.479 774)">thương</text><text font-family="Arial,Arial_MSFontService,sans-serif" font-weight="700" font-size="41" transform="matrix(1 0 0 1.00024 335.109 774)">:</text><text font-family="Arial,Arial_MSFontService,sans-serif" font-weight="400" font-size="41" transform="matrix(1 0 0 1.00024 365.042 774)">Can</text><text font-family="Arial,Arial_MSFontService,sans-serif" font-weight="400" font-size="41" transform="matrix(1 0 0 1.00024 456.959 774)">chủ</text><text font-family="Arial,Arial_MSFontService,sans-serif" font-weight="400" font-size="41" transform="matrix(1 0 0 1.00024 539.713 774)">cân,</text><text font-family="Arial,Arial_MSFontService,sans-serif" font-weight="400" font-size="41" transform="matrix(1 0 0 1.00024 633.963 774)">thận</text><text font-family="Arial,Arial_MSFontService,sans-serif" font-weight="400" font-size="41" transform="matrix(1 0 0 1.00024 730.546 774)">chủ</text><text font-family="Arial,Arial_MSFontService,sans-serif" font-weight="400" font-size="41" transform="matrix(1 0 0 1.00024 813.299 774)">cốt</text><text font-family="Arial,Arial_MSFontService,sans-serif" font-weight="400" font-size="41" transform="matrix(1 0 0 1.00024 884.555 774)">tủy,</text><text font-family="Arial,Arial_MSFontService,sans-serif" font-weight="400" font-size="41" transform="matrix(1 0 0 1.00024 967.308 774)">do</text><text font-family="Arial,Arial_MSFontService,sans-serif" font-weight="400" font-size="41" transform="matrix(1 0 0 1.00024 1029.4 774)">sức</text><text font-family="Arial,Arial_MSFontService,sans-serif" font-weight="400" font-size="41" transform="matrix(1 0 0 1.00024 1114.49 774)">yếu,</text><text font-family="Arial,Arial_MSFontService,sans-serif" font-weight="400" font-size="41" transform="matrix(1 0 0 1.00024 1208.74 774)">lao</text><text font-family="Arial,Arial_MSFontService,sans-serif" font-weight="400" font-size="41" transform="matrix(1 0 0 1.00024 1280 774)">lực</text><text font-family="Arial,Arial_MSFontService,sans-serif" font-weight="400" font-size="41" transform="matrix(1 0 0 1.00024 73.9596 823)">quá</text><text font-family="Arial,Arial_MSFontService,sans-serif" font-weight="400" font-size="41" transform="matrix(1 0 0 1.00024 156.546 823)">độ,</text><text font-family="Arial,Arial_MSFontService,sans-serif" font-weight="400" font-size="41" transform="matrix(1 0 0 1.00024 227.635 823)">người</text><text font-family="Arial,Arial_MSFontService,sans-serif" font-weight="400" font-size="41" transform="matrix(1 0 0 1.00024 351.212 823)">già</text><text font-family="Arial,Arial_MSFontService,sans-serif" font-weight="400" font-size="41" transform="matrix(1 0 0 1.00024 419.968 823)">yếu</text><text font-family="Arial,Arial_MSFontService,sans-serif" font-weight="400" font-size="41" transform="matrix(1 0 0 1.00024 500.222 823)">hoặc</text><text font-family="Arial,Arial_MSFontService,sans-serif" font-weight="400" font-size="41" transform="matrix(1 0 0 1.00024 603.47 823)">mắc</text><text font-family="Arial,Arial_MSFontService,sans-serif" font-weight="400" font-size="41" transform="matrix(1 0 0 1.00024 695.221 823)">bệnh</text><text font-family="Arial,Arial_MSFontService,sans-serif" font-weight="400" font-size="41" transform="matrix(1 0 0 1.00024 800.802 823)">lâu</text><text font-family="Arial,Arial_MSFontService,sans-serif" font-weight="400" font-size="41" transform="matrix(1 0 0 1.00024 869.559 823)">ngày</text><text font-family="Arial,Arial_MSFontService,sans-serif" font-weight="400" font-size="41" transform="matrix(1 0 0 1.00024 972.807 823)">làm</text><text font-family="Arial,Arial_MSFontService,sans-serif" font-weight="400" font-size="41" transform="matrix(1 0 0 1.00024 1053.06 823)">thận</text><text font-family="Arial,Arial_MSFontService,sans-serif" font-weight="400" font-size="41" transform="matrix(1 0 0 1.00024 1147.14 823)">tinh</text><text font-family="Arial,Arial_MSFontService,sans-serif" font-weight="400" font-size="41" transform="matrix(1 0 0 1.00024 1227.4 823)">bị</text><text font-family="Arial,Arial_MSFontService,sans-serif" font-weight="400" font-size="41" transform="matrix(1 0 0 1.00024 1273.17 823)">suy</text><text font-family="Arial,Arial_MSFontService,sans-serif" font-weight="400" font-size="41" transform="matrix(1 0 0 1.00024 73.9596 873)">tổn,</text><text font-family="Arial,Arial_MSFontService,sans-serif" font-weight="400" font-size="41" transform="matrix(1 0 0 1.00024 154.44 873)">can</text><text font-family="Arial,Arial_MSFontService,sans-serif" font-weight="400" font-size="41" transform="matrix(1 0 0 1.00024 232.588 873)">huyết</text><text font-family="Arial,Arial_MSFontService,sans-serif" font-weight="400" font-size="41" transform="matrix(1 0 0 1.00024 345.227 873)">hư</text><text font-family="Arial,Arial_MSFontService,sans-serif" font-weight="400" font-size="41" transform="matrix(1 0 0 1.00024 407.378 873)">không</text><text font-family="Arial,Arial_MSFontService,sans-serif" font-weight="400" font-size="41" transform="matrix(1 0 0 1.00024 531.515 873)">nuôi</text><text font-family="Arial,Arial_MSFontService,sans-serif" font-weight="400" font-size="41" transform="matrix(1 0 0 1.00024 621.159 873)">dưỡng</text><text font-family="Arial,Arial_MSFontService,sans-serif" font-weight="400" font-size="41" transform="matrix(1 0 0 1.00024 756.46 873)">được</text><text font-family="Arial,Arial_MSFontService,sans-serif" font-weight="400" font-size="41" transform="matrix(1 0 0 1.00024 866.433 873)">kinh</text><text font-family="Arial,Arial_MSFontService,sans-serif" font-weight="400" font-size="41" transform="matrix(1 0 0 1.00024 953.745 873)">mạch</text><text font-family="Arial,Arial_MSFontService,sans-serif" font-weight="400" font-size="41" transform="matrix(1 0 0 1.00024 1066.38 873)">mà</text><text font-family="Arial,Arial_MSFontService,sans-serif" font-weight="400" font-size="41" transform="matrix(1 0 0 1.00024 1135.37 873)">sinh</text><text font-family="Arial,Arial_MSFontService,sans-serif" font-weight="400" font-size="41" transform="matrix(1 0 0 1.00024 1222.68 873)">bệnh</text><text font-family="Arial,Arial_MSFontService,sans-serif" font-weight="400" font-size="41" transform="matrix(1 0 0 1.00024 1314.66 873)">.</text><text fill="#EE230C" font-family="Arial,Arial_MSFontService,sans-serif" font-weight="400" font-size="21" transform="matrix(1 0 0 1.00024 19.4952 331)">Cool</text><text fill="#EE230C" font-family="Arial,Arial_MSFontService,sans-serif" font-weight="400" font-size="21" transform="matrix(1 0 0 1.00024 4.63771 472)">Dampness</text></g></svg>