<svg width="1365" height="1024" xmlns="http://www.w3.org/2000/svg" xmlns:xlink="http://www.w3.org/1999/xlink" overflow="hidden"><defs><clipPath id="clip0"><rect x="0" y="0" width="1365" height="1024"/></clipPath></defs><g clip-path="url(#clip0)"><rect x="0" y="0" width="1365" height="1024.25" fill="#FFFFFF"/><path d="M633.251 92.4794 633.251 304.84" stroke="#000000" stroke-width="0.466553" fill="none" fill-rule="evenodd"/><path d="M633.251 338.86 633.251 969.346" stroke="#000000" stroke-width="0.466553" fill="none" fill-rule="evenodd"/><path d="M766.552 92.4794 766.552 304.84" stroke="#000000" stroke-width="0.466553" fill="none" fill-rule="evenodd"/><path d="M766.552 338.86 766.552 969.346" stroke="#000000" stroke-width="0.466553" fill="none" fill-rule="evenodd"/><path d="M802.543 92.4794 802.543 304.84" stroke="#000000" stroke-width="0.466553" fill="none" fill-rule="evenodd"/><path d="M802.543 338.86 802.543 969.346" stroke="#000000" stroke-width="0.466553" fill="none" fill-rule="evenodd"/><path d="M869.193 92.4794 869.193 304.84" stroke="#000000" stroke-width="0.466553" fill="none" fill-rule="evenodd"/><path d="M869.193 338.86 869.193 969.346" stroke="#000000" stroke-width="0.466553" fill="none" fill-rule="evenodd"/><path d="M525.044 92.7126 994.729 92.7126" stroke="#000000" stroke-width="0.466553" fill="none" fill-rule="evenodd"/><path d="M525.044 116.533 994.729 116.533" stroke="#000000" stroke-width="0.466553" fill="none" fill-rule="evenodd"/><path d="M525.044 140.353 994.729 140.353" stroke="#000000" stroke-width="0.466553" fill="none" fill-rule="evenodd"/><path d="M525.044 174.839 994.729 174.839" stroke="#000000" stroke-width="0.466553" fill="none" fill-rule="evenodd"/><path d="M525.044 209.326 994.729 209.326" stroke="#000000" stroke-width="0.466553" fill="none" fill-rule="evenodd"/><path d="M525.044 233.146 994.729 233.146" stroke="#000000" stroke-width="0.466553" fill="none" fill-rule="evenodd"/><path d="M525.044 256.966 994.729 256.966" stroke="#000000" stroke-width="0.466553" fill="none" fill-rule="evenodd"/><path d="M525.044 280.786 994.729 280.786" stroke="#000000" stroke-width="0.466553" fill="none" fill-rule="evenodd"/><path d="M525.044 304.606 994.729 304.606" stroke="#000000" stroke-width="0.466553" fill="none" fill-rule="evenodd"/><path d="M525.044 339.093 994.729 339.093" stroke="#000000" stroke-width="0.466553" fill="none" fill-rule="evenodd"/><path d="M525.044 362.913 994.729 362.913" stroke="#000000" stroke-width="0.466553" fill="none" fill-rule="evenodd"/><path d="M525.044 386.733 994.729 386.733" stroke="#000000" stroke-width="0.466553" fill="none" fill-rule="evenodd"/><path d="M525.044 410.553 994.729 410.553" stroke="#000000" stroke-width="0.466553" fill="none" fill-rule="evenodd"/><path d="M525.044 434.373 994.729 434.373" stroke="#000000" stroke-width="0.466553" fill="none" fill-rule="evenodd"/><path d="M525.044 458.193 994.729 458.193" stroke="#000000" stroke-width="0.466553" fill="none" fill-rule="evenodd"/><path d="M525.044 482.013 994.729 482.013" stroke="#000000" stroke-width="0.466553" fill="none" fill-rule="evenodd"/><path d="M525.044 505.833 994.729 505.833" stroke="#000000" stroke-width="0.466553" fill="none" fill-rule="evenodd"/><path d="M525.044 529.654 994.729 529.654" stroke="#000000" stroke-width="0.466553" fill="none" fill-rule="evenodd"/><path d="M525.044 553.474 994.729 553.474" stroke="#000000" stroke-width="0.466553" fill="none" fill-rule="evenodd"/><path d="M525.044 606.627 994.729 606.627" stroke="#000000" stroke-width="0.466553" fill="none" fill-rule="evenodd"/><path d="M525.044 630.447 994.729 630.447" stroke="#000000" stroke-width="0.466553" fill="none" fill-rule="evenodd"/><path d="M525.044 654.267 994.729 654.267" stroke="#000000" stroke-width="0.466553" fill="none" fill-rule="evenodd"/><path d="M525.044 678.087 994.729 678.087" stroke="#000000" stroke-width="0.466553" fill="none" fill-rule="evenodd"/><path d="M525.044 701.907 994.729 701.907" stroke="#000000" stroke-width="0.466553" fill="none" fill-rule="evenodd"/><path d="M525.044 725.727 994.729 725.727" stroke="#000000" stroke-width="0.466553" fill="none" fill-rule="evenodd"/><path d="M525.044 749.547 994.729 749.547" stroke="#000000" stroke-width="0.466553" fill="none" fill-rule="evenodd"/><path d="M525.044 773.367 994.729 773.367" stroke="#000000" stroke-width="0.466553" fill="none" fill-rule="evenodd"/><path d="M525.044 797.187 994.729 797.187" stroke="#000000" stroke-width="0.466553" fill="none" fill-rule="evenodd"/><path d="M525.044 821.007 994.729 821.007" stroke="#000000" stroke-width="0.466553" fill="none" fill-rule="evenodd"/><path d="M525.044 844.828 994.729 844.828" stroke="#000000" stroke-width="0.466553" fill="none" fill-rule="evenodd"/><path d="M525.044 868.648 994.729 868.648" stroke="#000000" stroke-width="0.466553" fill="none" fill-rule="evenodd"/><path d="M525.044 892.468 994.729 892.468" stroke="#000000" stroke-width="0.466553" fill="none" fill-rule="evenodd"/><path d="M525.044 921.473 994.729 921.473" stroke="#000000" stroke-width="0.466553" fill="none" fill-rule="evenodd"/><path d="M525.044 945.293 994.729 945.293" stroke="#000000" stroke-width="0.466553" fill="none" fill-rule="evenodd"/><path d="M525.277 57.9927 525.277 969.346" stroke="#000000" stroke-width="0.466553" fill="none" fill-rule="evenodd"/><path d="M994.496 57.9927 994.496 969.346" stroke="#000000" stroke-width="0.466553" fill="none" fill-rule="evenodd"/><path d="M525.044 58.2259 994.729 58.2259" stroke="#000000" stroke-width="0.466553" fill="none" fill-rule="evenodd"/><path d="M525.044 969.113 994.729 969.113" stroke="#000000" stroke-width="0.466553" fill="none" fill-rule="evenodd"/><text font-family="Arial,Arial_MSFontService,sans-serif" font-weight="700" font-size="8" transform="matrix(1 0 0 1.00024 530.609 86)">Thanh nhiệt tả hỏa</text><text font-family="Arial,Arial_MSFontService,sans-serif" font-weight="400" font-size="8" transform="matrix(1 0 0 1.00024 874.525 106)">Tâm, Phế, Tam tiêu</text><text font-family="Arial,Arial_MSFontService,sans-serif" font-weight="400" font-size="8" transform="matrix(1 0 0 1.00024 807.875 106)">Khổ</text><text font-family="Arial,Arial_MSFontService,sans-serif" font-weight="400" font-size="8" transform="matrix(1 0 0 1.00024 771.884 106)">Hàn</text><text font-family="Arial,Arial_MSFontService,sans-serif" font-style="italic" font-weight="400" font-size="8" transform="matrix(1 0 0 1.00024 633.251 115)">Fructus Gardeniae</text><text font-family="Arial,Arial_MSFontService,sans-serif" font-weight="400" font-size="8" transform="matrix(1 0 0 1.00024 525.277 115)">Chi tử</text><text font-family="Arial,Arial_MSFontService,sans-serif" font-weight="400" font-size="8" transform="matrix(1 0 0 1.00024 874.525 130)">Can, Đởm</text><text font-family="Arial,Arial_MSFontService,sans-serif" font-weight="400" font-size="8" transform="matrix(1 0 0 1.00024 807.875 130)">Tân</text><text font-family="Arial,Arial_MSFontService,sans-serif" font-weight="400" font-size="8" transform="matrix(1 0 0 1.00024 821.705 130)">-</text><text font-family="Arial,Arial_MSFontService,sans-serif" font-weight="400" font-size="8" transform="matrix(1 0 0 1.00024 824.371 130)">Khổ</text><text font-family="Arial,Arial_MSFontService,sans-serif" font-weight="400" font-size="8" transform="matrix(1 0 0 1.00024 771.884 130)">Hàn</text><text font-family="Arial,Arial_MSFontService,sans-serif" font-style="italic" font-weight="400" font-size="8" transform="matrix(1 0 0 1.00024 633.251 139)">Spica Prunellae</text><text font-family="Arial,Arial_MSFontService,sans-serif" font-weight="400" font-size="8" transform="matrix(1 0 0 1.00024 525.277 139)">Hạ khô thảo</text><text font-family="Arial,Arial_MSFontService,sans-serif" font-weight="700" font-size="8" transform="matrix(1 0 0 1.00024 874.525 168)">Phế, Vị</text><text font-family="Arial,Arial_MSFontService,sans-serif" font-weight="400" font-size="8" transform="matrix(1 0 0 1.00024 807.875 154)">Cam</text><text font-family="Arial,Arial_MSFontService,sans-serif" font-weight="400" font-size="8" transform="matrix(1 0 0 1.00024 771.884 154)">Hàn</text><text font-family="Arial,Arial_MSFontService,sans-serif" font-style="italic" font-weight="400" font-size="8" transform="matrix(1 0 0 1.00024 633.251 168)">Rhizoma Phragmitis</text><text font-family="Arial,Arial_MSFontService,sans-serif" font-weight="400" font-size="8" transform="matrix(1 0 0 1.00024 525.277 168)">Lô căn</text><text font-family="Arial,Arial_MSFontService,sans-serif" font-style="italic" font-weight="400" font-size="8" transform="matrix(1 0 0 1.00024 633.251 202)">Herba Momordicae charantiae</text><text font-family="Arial,Arial_MSFontService,sans-serif" font-weight="400" font-size="8" transform="matrix(1 0 0 1.00024 525.277 202)">Mướp đắng (Khổ qua)</text><text fill="#EE230C" font-family="Arial,Arial_MSFontService,sans-serif" font-weight="400" font-size="8" transform="matrix(1 0 0 1.00024 874.525 223)">Phế, Vị</text><text fill="#EE230C" font-family="Arial,Arial_MSFontService,sans-serif" font-weight="400" font-size="8" transform="matrix(1 0 0 1.00024 807.875 223)">Tân</text><text fill="#EE230C" font-family="Arial,Arial_MSFontService,sans-serif" font-weight="400" font-size="8" transform="matrix(1 0 0 1.00024 821.705 223)">-</text><text fill="#EE230C" font-family="Arial,Arial_MSFontService,sans-serif" font-weight="400" font-size="8" transform="matrix(1 0 0 1.00024 824.371 223)">Cam</text><text fill="#EE230C" font-family="Arial,Arial_MSFontService,sans-serif" font-weight="400" font-size="8" transform="matrix(1 0 0 1.00024 771.884 223)">Hàn</text><text fill="#EE230C" font-family="Arial,Arial_MSFontService,sans-serif" font-style="italic" font-weight="400" font-size="8" transform="matrix(1 0 0 1.00024 633.251 231)">Gypsum fibrosum</text><text fill="#EE230C" font-family="Arial,Arial_MSFontService,sans-serif" font-weight="400" font-size="8" transform="matrix(1 0 0 1.00024 525.277 231)">Thạch cao</text><text font-family="Arial,Arial_MSFontService,sans-serif" font-style="italic" font-weight="400" font-size="8" transform="matrix(1 0 0 1.00024 633.251 255)">Semen Celosiae</text><text font-family="Arial,Arial_MSFontService,sans-serif" font-weight="400" font-size="8" transform="matrix(1 0 0 1.00024 525.277 255)">Thanh tương tử</text><text font-family="Arial,Arial_MSFontService,sans-serif" font-weight="400" font-size="8" transform="matrix(1 0 0 1.00024 874.525 270)">Phế, Vị, Thận</text><text font-family="Arial,Arial_MSFontService,sans-serif" font-weight="400" font-size="8" transform="matrix(1 0 0 1.00024 807.875 270)">Khổ</text><text font-family="Arial,Arial_MSFontService,sans-serif" font-weight="400" font-size="8" transform="matrix(1 0 0 1.00024 771.884 270)">Hàn</text><text font-family="Arial,Arial_MSFontService,sans-serif" font-style="italic" font-weight="400" font-size="8" transform="matrix(1 0 0 1.00024 633.251 279)">Rhizoma Anemarrhenae</text><text font-family="Arial,Arial_MSFontService,sans-serif" font-weight="400" font-size="8" transform="matrix(1 0 0 1.00024 525.277 279)">Tri mẫu</text><text font-family="Arial,Arial_MSFontService,sans-serif" font-style="italic" font-weight="400" font-size="8" transform="matrix(1 0 0 1.00024 633.251 303)">Folium Bambusae vulgaris</text><text font-family="Arial,Arial_MSFontService,sans-serif" font-weight="400" font-size="8" transform="matrix(1 0 0 1.00024 525.277 303)">Trúc diệp (Lá tre)</text><text font-family="Arial,Arial_MSFontService,sans-serif" font-weight="700" font-size="8" transform="matrix(1 0 0 1.00024 530.609 332)">Thanh nhiệt táo thấp</text><text font-family="Arial,Arial_MSFontService,sans-serif" font-style="italic" font-weight="400" font-size="8" transform="matrix(1 0 0 1.00024 633.251 361)">Herba Lobeliae chinensis</text><text font-family="Arial,Arial_MSFontService,sans-serif" font-weight="400" font-size="8" transform="matrix(1 0 0 1.00024 525.277 361)">Bán biên liên</text><text font-family="Arial,Arial_MSFontService,sans-serif" font-style="italic" font-weight="400" font-size="8" transform="matrix(1 0 0 1.00024 633.251 385)">Radix Scutellariae barbatae</text><text font-family="Arial,Arial_MSFontService,sans-serif" font-weight="400" font-size="8" transform="matrix(1 0 0 1.00024 525.277 385)">Bán chi liên</text><text font-family="Arial,Arial_MSFontService,sans-serif" font-style="italic" font-weight="400" font-size="8" transform="matrix(1 0 0 1.00024 633.251 409)">Herba Euphorbiae thymifoliae</text><text font-family="Arial,Arial_MSFontService,sans-serif" font-weight="400" font-size="8" transform="matrix(1 0 0 1.00024 525.277 409)">Cỏ sữa</text><text font-family="Arial,Arial_MSFontService,sans-serif" font-weight="400" font-size="8" transform="matrix(1 0 0 1.00024 874.525 424)">Can, Thận, Phế</text><text font-family="Arial,Arial_MSFontService,sans-serif" font-weight="400" font-size="8" transform="matrix(1 0 0 1.00024 807.875 424)">Khổ</text><text font-family="Arial,Arial_MSFontService,sans-serif" font-weight="400" font-size="8" transform="matrix(1 0 0 1.00024 771.884 424)">Hàn</text><text font-family="Arial,Arial_MSFontService,sans-serif" font-style="italic" font-weight="400" font-size="8" transform="matrix(1 0 0 1.00024 633.251 433)">Cortex Lycii chinensis radicis</text><text font-family="Arial,Arial_MSFontService,sans-serif" font-weight="400" font-size="8" transform="matrix(1 0 0 1.00024 525.277 433)">Địa cốt bì</text><text font-family="Arial,Arial_MSFontService,sans-serif" font-weight="400" font-size="8" transform="matrix(1 0 0 1.00024 874.525 448)">Thận, Tỳ, Bàng Quang</text><text font-family="Arial,Arial_MSFontService,sans-serif" font-weight="400" font-size="8" transform="matrix(1 0 0 1.00024 807.875 448)">Khổ</text><text font-family="Arial,Arial_MSFontService,sans-serif" font-weight="400" font-size="8" transform="matrix(1 0 0 1.00024 771.884 448)">Hàn</text><text font-family="Arial,Arial_MSFontService,sans-serif" font-style="italic" font-weight="400" font-size="8" transform="matrix(1 0 0 1.00024 633.251 456)">Cortex Phellodendri</text><text font-family="Arial,Arial_MSFontService,sans-serif" font-weight="400" font-size="8" transform="matrix(1 0 0 1.00024 525.277 456)">Hoàng bá</text><text font-family="Arial,Arial_MSFontService,sans-serif" font-style="italic" font-weight="400" font-size="8" transform="matrix(1 0 0 1.00024 633.251 480)">Cortex Oroxyli indici</text><text font-family="Arial,Arial_MSFontService,sans-serif" font-weight="400" font-size="8" transform="matrix(1 0 0 1.00024 525.277 480)">Hoàng bá nam (núc nác)</text><text font-family="Arial,Arial_MSFontService,sans-serif" font-weight="400" font-size="8" transform="matrix(1 0 0 1.00024 874.525 495)">Phế, Can, Đởm, Đại trường</text><text font-family="Arial,Arial_MSFontService,sans-serif" font-weight="400" font-size="8" transform="matrix(1 0 0 1.00024 807.875 495)">Khổ</text><text font-family="Arial,Arial_MSFontService,sans-serif" font-weight="400" font-size="8" transform="matrix(1 0 0 1.00024 771.884 495)">Hàn</text><text font-family="Arial,Arial_MSFontService,sans-serif" font-style="italic" font-weight="400" font-size="8" transform="matrix(1 0 0 1.00024 633.251 504)">Radix Scutellariae</text><text font-family="Arial,Arial_MSFontService,sans-serif" font-weight="400" font-size="8" transform="matrix(1 0 0 1.00024 525.277 504)">Hoàng cầm</text><text font-family="Arial,Arial_MSFontService,sans-serif" font-style="italic" font-weight="400" font-size="8" transform="matrix(1 0 0 1.00024 633.251 528)">Caulis et Radix Fibraureae</text><text font-family="Arial,Arial_MSFontService,sans-serif" font-weight="400" font-size="8" transform="matrix(1 0 0 1.00024 525.277 528)">Hoàng đằng</text><text fill="#EE230C" font-family="Arial,Arial_MSFontService,sans-serif" font-weight="400" font-size="8" transform="matrix(1 0 0 1.00024 874.525 543)">Tâm, Tỳ, Can, Đởm, Đại trường</text><text fill="#EE230C" font-family="Arial,Arial_MSFontService,sans-serif" font-weight="400" font-size="8" transform="matrix(1 0 0 1.00024 807.875 543)">Khổ</text><text fill="#EE230C" font-family="Arial,Arial_MSFontService,sans-serif" font-weight="400" font-size="8" transform="matrix(1 0 0 1.00024 771.884 543)">Hàn</text><text fill="#EE230C" font-family="Arial,Arial_MSFontService,sans-serif" font-style="italic" font-weight="400" font-size="8" transform="matrix(1 0 0 1.00024 633.251 552)">Rhizoma Coptidis</text><text fill="#EE230C" font-family="Arial,Arial_MSFontService,sans-serif" font-weight="400" font-size="8" transform="matrix(1 0 0 1.00024 525.277 552)">Hoàng liên</text><text font-family="Arial,Arial_MSFontService,sans-serif" font-weight="400" font-size="8" transform="matrix(1 0 0 1.00024 874.525 567)">Can, Phế, Vị, Đại trường, Bàng</text><text font-family="Arial,Arial_MSFontService,sans-serif" font-weight="400" font-size="8" transform="matrix(1 0 0 1.00024 874.525 576)">quang</text><text font-family="Arial,Arial_MSFontService,sans-serif" font-weight="400" font-size="8" transform="matrix(1 0 0 1.00024 807.875 567)">Khổ</text><text font-family="Arial,Arial_MSFontService,sans-serif" font-weight="400" font-size="8" transform="matrix(1 0 0 1.00024 771.884 567)">Hàn</text><text font-family="Arial,Arial_MSFontService,sans-serif" font-style="italic" font-weight="400" font-size="8" transform="matrix(1 0 0 1.00024 633.251 576)">Folium et Ramulus Crotonis</text><text font-family="Arial,Arial_MSFontService,sans-serif" font-style="italic" font-weight="400" font-size="8" transform="matrix(1 0 0 1.00024 633.251 605)">tonkinensis</text><text font-family="Arial,Arial_MSFontService,sans-serif" font-weight="400" font-size="8" transform="matrix(1 0 0 1.00024 525.277 590)">Khổ sâm</text><text font-family="Arial,Arial_MSFontService,sans-serif" font-weight="400" font-size="8" transform="matrix(1 0 0 1.00024 874.525 620)">Can, Đởm</text><text font-family="Arial,Arial_MSFontService,sans-serif" font-weight="400" font-size="8" transform="matrix(1 0 0 1.00024 807.875 620)">Khổ</text><text font-family="Arial,Arial_MSFontService,sans-serif" font-weight="400" font-size="8" transform="matrix(1 0 0 1.00024 771.884 620)">Hàn</text><text font-family="Arial,Arial_MSFontService,sans-serif" font-style="italic" font-weight="400" font-size="8" transform="matrix(1 0 0 1.00024 633.251 629)">Radix et rhizoma Gentianae</text><text font-family="Arial,Arial_MSFontService,sans-serif" font-weight="400" font-size="8" transform="matrix(1 0 0 1.00024 525.277 629)">Long đởm thảo</text><text font-family="Arial,Arial_MSFontService,sans-serif" font-style="italic" font-weight="400" font-size="8" transform="matrix(1 0 0 1.00024 633.251 653)">Rhizoma Costi</text><text font-family="Arial,Arial_MSFontService,sans-serif" font-weight="400" font-size="8" transform="matrix(1 0 0 1.00024 525.277 653)">Mía dò</text><text font-family="Arial,Arial_MSFontService,sans-serif" font-style="italic" font-weight="400" font-size="8" transform="matrix(1 0 0 1.00024 633.251 676)">Herba Paederiae lanuginosae</text><text font-family="Arial,Arial_MSFontService,sans-serif" font-weight="400" font-size="8" transform="matrix(1 0 0 1.00024 525.277 676)">Mơ tam thể</text><text font-family="Arial,Arial_MSFontService,sans-serif" font-style="italic" font-weight="400" font-size="8" transform="matrix(1 0 0 1.00024 633.251 700)">Fructus Bruceae</text><text font-family="Arial,Arial_MSFontService,sans-serif" font-weight="400" font-size="8" transform="matrix(1 0 0 1.00024 525.277 700)">Nha đảm tử</text><text font-family="Arial,Arial_MSFontService,sans-serif" font-weight="400" font-size="8" transform="matrix(1 0 0 1.00024 874.525 715)">Tỳ, Vị, Can, Đởm</text><text font-family="Arial,Arial_MSFontService,sans-serif" font-weight="400" font-size="8" transform="matrix(1 0 0 1.00024 807.875 715)">Khổ</text><text font-family="Arial,Arial_MSFontService,sans-serif" font-weight="400" font-size="8" transform="matrix(1 0 0 1.00024 771.884 715)">Hàn</text><text font-family="Arial,Arial_MSFontService,sans-serif" font-style="italic" font-weight="400" font-size="8" transform="matrix(1 0 0 1.00024 633.251 724)">Herba Adenosmatis caerulei</text><text font-family="Arial,Arial_MSFontService,sans-serif" font-weight="400" font-size="8" transform="matrix(1 0 0 1.00024 525.277 724)">Nhân trần</text><text font-family="Arial,Arial_MSFontService,sans-serif" font-style="italic" font-weight="400" font-size="8" transform="matrix(1 0 0 1.00024 633.251 748)">Herba et radix Acanthi ilicifolii</text><text font-family="Arial,Arial_MSFontService,sans-serif" font-weight="400" font-size="8" transform="matrix(1 0 0 1.00024 525.277 748)">Ô rô</text><text font-family="Arial,Arial_MSFontService,sans-serif" font-style="italic" font-weight="400" font-size="8" transform="matrix(1 0 0 1.00024 633.251 772)">Rhizoma Thalictri</text><text font-family="Arial,Arial_MSFontService,sans-serif" font-weight="400" font-size="8" transform="matrix(1 0 0 1.00024 525.277 772)">Thổ hoàng liên</text><text font-family="Arial,Arial_MSFontService,sans-serif" font-style="italic" font-weight="400" font-size="8" transform="matrix(1 0 0 1.00024 633.251 796)">Caulis Coscinii fenestrati</text><text font-family="Arial,Arial_MSFontService,sans-serif" font-weight="400" font-size="8" transform="matrix(1 0 0 1.00024 525.277 796)">Vàng đắng</text><text font-family="Arial,Arial_MSFontService,sans-serif" font-style="italic" font-weight="400" font-size="8" transform="matrix(1 0 0 1.00024 633.251 819)">Herba Cynarae scolymi</text><text font-family="Arial,Arial_MSFontService,sans-serif" font-weight="400" font-size="8" transform="matrix(1 0 0 1.00024 525.277 819)">Actiso</text><text font-family="Arial,Arial_MSFontService,sans-serif" font-weight="400" font-size="8" transform="matrix(1 0 0 1.00024 874.525 835)">Phế, Vị, Bàng quang</text><text font-family="Arial,Arial_MSFontService,sans-serif" font-weight="400" font-size="8" transform="matrix(1 0 0 1.00024 807.875 835)">Cam</text><text font-family="Arial,Arial_MSFontService,sans-serif" font-weight="400" font-size="8" transform="matrix(1 0 0 1.00024 771.884 835)">Hàn</text><text font-family="Arial,Arial_MSFontService,sans-serif" font-style="italic" font-weight="400" font-size="8" transform="matrix(1 0 0 1.00024 633.251 843)">Rhizoma Imperratae cylindricae</text><text font-family="Arial,Arial_MSFontService,sans-serif" font-weight="400" font-size="8" transform="matrix(1 0 0 1.00024 525.277 843)">Bạch mao căn</text><text font-family="Arial,Arial_MSFontService,sans-serif" font-weight="400" font-size="8" transform="matrix(1 0 0 1.00024 874.525 858)">Phế, Vị, Thận</text><text font-family="Arial,Arial_MSFontService,sans-serif" font-weight="400" font-size="8" transform="matrix(1 0 0 1.00024 807.875 858)">Cam</text><text font-family="Arial,Arial_MSFontService,sans-serif" font-weight="400" font-size="8" transform="matrix(1 0 0 1.00024 824.871 858)">-</text><text font-family="Arial,Arial_MSFontService,sans-serif" font-weight="400" font-size="8" transform="matrix(1 0 0 1.00024 827.537 858)">Khổ</text><text font-family="Arial,Arial_MSFontService,sans-serif" font-weight="400" font-size="8" transform="matrix(1 0 0 1.00024 841.867 858)">-</text><text font-family="Arial,Arial_MSFontService,sans-serif" font-weight="400" font-size="8" transform="matrix(1 0 0 1.00024 844.533 858)">Hàm</text><text font-family="Arial,Arial_MSFontService,sans-serif" font-weight="400" font-size="8" transform="matrix(1 0 0 1.00024 771.884 858)">Hàn</text><text font-family="Arial,Arial_MSFontService,sans-serif" font-style="italic" font-weight="400" font-size="8" transform="matrix(1 0 0 1.00024 633.251 867)">Radix Scrophulariae</text><text font-family="Arial,Arial_MSFontService,sans-serif" font-weight="400" font-size="8" transform="matrix(1 0 0 1.00024 525.277 867)">Huyền sâm</text><text font-family="Arial,Arial_MSFontService,sans-serif" font-style="italic" font-weight="400" font-size="8" transform="matrix(1 0 0 1.00024 633.251 891)">Fructus Momordicae grosvenorii</text><text font-family="Arial,Arial_MSFontService,sans-serif" font-weight="400" font-size="8" transform="matrix(1 0 0 1.00024 525.277 891)">La hán</text><text font-family="Arial,Arial_MSFontService,sans-serif" font-weight="400" font-size="8" transform="matrix(1 0 0 1.00024 874.525 906)">Tâm, Can, Thận</text><text font-family="Arial,Arial_MSFontService,sans-serif" font-weight="400" font-size="8" transform="matrix(1 0 0 1.00024 807.875 906)">Khổ</text><text font-family="Arial,Arial_MSFontService,sans-serif" font-weight="400" font-size="8" transform="matrix(1 0 0 1.00024 771.884 906)">Hàn</text><text font-family="Arial,Arial_MSFontService,sans-serif" font-style="italic" font-weight="400" font-size="8" transform="matrix(1 0 0 1.00024 633.251 917)">Cortex Paeoniae suffruticosae radicis</text><text font-family="Arial,Arial_MSFontService,sans-serif" font-weight="400" font-size="8" transform="matrix(1 0 0 1.00024 525.277 917)">Mẫu đơn bì</text><text font-family="Arial,Arial_MSFontService,sans-serif" font-style="italic" font-weight="400" font-size="8" transform="matrix(1 0 0 1.00024 633.251 944)">Herba Centellae asiaticae</text><text font-family="Arial,Arial_MSFontService,sans-serif" font-weight="400" font-size="8" transform="matrix(1 0 0 1.00024 525.277 944)">Rau má</text><text fill="#EE230C" font-family="Arial,Arial_MSFontService,sans-serif" font-weight="400" font-size="8" transform="matrix(1 0 0 1.00024 874.525 959)">Tâm, Can, Thận</text><text fill="#EE230C" font-family="Arial,Arial_MSFontService,sans-serif" font-weight="400" font-size="8" transform="matrix(1 0 0 1.00024 807.875 959)">Cam</text><text fill="#EE230C" font-family="Arial,Arial_MSFontService,sans-serif" font-weight="400" font-size="8" transform="matrix(1 0 0 1.00024 824.871 959)">-</text><text fill="#EE230C" font-family="Arial,Arial_MSFontService,sans-serif" font-weight="400" font-size="8" transform="matrix(1 0 0 1.00024 827.537 959)">Khổ</text><text fill="#EE230C" font-family="Arial,Arial_MSFontService,sans-serif" font-weight="400" font-size="8" transform="matrix(1 0 0 1.00024 771.884 959)">Hàn</text><text fill="#EE230C" font-family="Arial,Arial_MSFontService,sans-serif" font-style="italic" font-weight="400" font-size="8" transform="matrix(1 0 0 1.00024 633.251 968)">Radix Rehmanniae glutinosae</text><text fill="#EE230C" font-family="Arial,Arial_MSFontService,sans-serif" font-weight="400" font-size="8" transform="matrix(1 0 0 1.00024 525.277 968)">Sinh địa</text><path d="M142.566 88.4747 142.566 226.888" stroke="#000000" stroke-width="0.466553" fill="none" fill-rule="evenodd"/><path d="M142.566 260.908 142.566 1465.2" stroke="#000000" stroke-width="0.466553" fill="none" fill-rule="evenodd"/><path d="M275.866 88.4747 275.866 226.888" stroke="#000000" stroke-width="0.466553" fill="none" fill-rule="evenodd"/><path d="M275.866 260.908 275.866 1465.2" stroke="#000000" stroke-width="0.466553" fill="none" fill-rule="evenodd"/><path d="M311.858 88.4747 311.858 226.888" stroke="#000000" stroke-width="0.466553" fill="none" fill-rule="evenodd"/><path d="M311.858 260.908 311.858 1465.2" stroke="#000000" stroke-width="0.466553" fill="none" fill-rule="evenodd"/><path d="M361.179 88.4747 361.179 226.888" stroke="#000000" stroke-width="0.466553" fill="none" fill-rule="evenodd"/><path d="M361.179 260.908 361.179 1465.2" stroke="#000000" stroke-width="0.466553" fill="none" fill-rule="evenodd"/><path d="M34.3587 88.708 454.723 88.708" stroke="#000000" stroke-width="0.466553" fill="none" fill-rule="evenodd"/><path d="M34.3587 123.195 454.723 123.195" stroke="#000000" stroke-width="0.466553" fill="none" fill-rule="evenodd"/><path d="M34.3587 157.681 454.723 157.681" stroke="#000000" stroke-width="0.466553" fill="none" fill-rule="evenodd"/><path d="M34.3587 192.168 454.723 192.168" stroke="#000000" stroke-width="0.466553" fill="none" fill-rule="evenodd"/><path d="M34.3587 226.655 454.723 226.655" stroke="#000000" stroke-width="0.466553" fill="none" fill-rule="evenodd"/><path d="M34.3587 261.142 454.723 261.142" stroke="#000000" stroke-width="0.466553" fill="none" fill-rule="evenodd"/><path d="M34.3587 295.628 454.723 295.628" stroke="#000000" stroke-width="0.466553" fill="none" fill-rule="evenodd"/><path d="M34.3587 330.115 454.723 330.115" stroke="#000000" stroke-width="0.466553" fill="none" fill-rule="evenodd"/><path d="M34.3587 364.602 454.723 364.602" stroke="#000000" stroke-width="0.466553" fill="none" fill-rule="evenodd"/><path d="M34.3587 399.089 454.723 399.089" stroke="#000000" stroke-width="0.466553" fill="none" fill-rule="evenodd"/><path d="M34.3587 433.575 454.723 433.575" stroke="#000000" stroke-width="0.466553" fill="none" fill-rule="evenodd"/><path d="M34.3587 457.395 454.723 457.395" stroke="#000000" stroke-width="0.466553" fill="none" fill-rule="evenodd"/><path d="M34.3587 491.882 454.723 491.882" stroke="#000000" stroke-width="0.466553" fill="none" fill-rule="evenodd"/><path d="M34.3587 526.369 454.723 526.369" stroke="#000000" stroke-width="0.466553" fill="none" fill-rule="evenodd"/><path d="M34.3587 560.855 454.723 560.855" stroke="#000000" stroke-width="0.466553" fill="none" fill-rule="evenodd"/><path d="M34.3587 595.342 454.723 595.342" stroke="#000000" stroke-width="0.466553" fill="none" fill-rule="evenodd"/><path d="M34.3587 629.829 454.723 629.829" stroke="#000000" stroke-width="0.466553" fill="none" fill-rule="evenodd"/><path d="M34.3587 653.649 454.723 653.649" stroke="#000000" stroke-width="0.466553" fill="none" fill-rule="evenodd"/><path d="M34.3587 688.136 454.723 688.136" stroke="#000000" stroke-width="0.466553" fill="none" fill-rule="evenodd"/><path d="M34.3587 722.622 454.723 722.622" stroke="#000000" stroke-width="0.466553" fill="none" fill-rule="evenodd"/><path d="M34.3587 757.109 454.723 757.109" stroke="#000000" stroke-width="0.466553" fill="none" fill-rule="evenodd"/><path d="M34.3587 791.596 454.723 791.596" stroke="#000000" stroke-width="0.466553" fill="none" fill-rule="evenodd"/><path d="M34.3587 826.083 454.723 826.083" stroke="#000000" stroke-width="0.466553" fill="none" fill-rule="evenodd"/><path d="M34.3587 849.903 454.723 849.903" stroke="#000000" stroke-width="0.466553" fill="none" fill-rule="evenodd"/><path d="M34.3587 873.723 454.723 873.723" stroke="#000000" stroke-width="0.466553" fill="none" fill-rule="evenodd"/><path d="M34.3587 897.543 454.723 897.543" stroke="#000000" stroke-width="0.466553" fill="none" fill-rule="evenodd"/><path d="M34.3587 921.363 454.723 921.363" stroke="#000000" stroke-width="0.466553" fill="none" fill-rule="evenodd"/><path d="M34.3587 955.849 454.723 955.849" stroke="#000000" stroke-width="0.466553" fill="none" fill-rule="evenodd"/><path d="M34.3587 990.336 454.723 990.336" stroke="#000000" stroke-width="0.466553" fill="none" fill-rule="evenodd"/><path d="M34.3587 1024.82 454.723 1024.82" stroke="#000000" stroke-width="0.466553" fill="none" fill-rule="evenodd"/><path d="M34.3587 1059.31 454.723 1059.31" stroke="#000000" stroke-width="0.466553" fill="none" fill-rule="evenodd"/><path d="M34.3587 1093.8 454.723 1093.8" stroke="#000000" stroke-width="0.466553" fill="none" fill-rule="evenodd"/><path d="M34.3587 1128.28 454.723 1128.28" stroke="#000000" stroke-width="0.466553" fill="none" fill-rule="evenodd"/><path d="M34.3587 1152.1 454.723 1152.1" stroke="#000000" stroke-width="0.466553" fill="none" fill-rule="evenodd"/><path d="M34.3587 1186.59 454.723 1186.59" stroke="#000000" stroke-width="0.466553" fill="none" fill-rule="evenodd"/><path d="M34.3587 1221.08 454.723 1221.08" stroke="#000000" stroke-width="0.466553" fill="none" fill-rule="evenodd"/><path d="M34.3587 1255.56 454.723 1255.56" stroke="#000000" stroke-width="0.466553" fill="none" fill-rule="evenodd"/><path d="M34.3587 1290.05 454.723 1290.05" stroke="#000000" stroke-width="0.466553" fill="none" fill-rule="evenodd"/><path d="M34.3587 1324.54 454.723 1324.54" stroke="#000000" stroke-width="0.466553" fill="none" fill-rule="evenodd"/><path d="M34.3587 1359.02 454.723 1359.02" stroke="#000000" stroke-width="0.466553" fill="none" fill-rule="evenodd"/><path d="M34.3587 1393.51 454.723 1393.51" stroke="#000000" stroke-width="0.466553" fill="none" fill-rule="evenodd"/><path d="M34.3587 1417.33 454.723 1417.33" stroke="#000000" stroke-width="0.466553" fill="none" fill-rule="evenodd"/><path d="M34.3587 1441.15 454.723 1441.15" stroke="#000000" stroke-width="0.466553" fill="none" fill-rule="evenodd"/><path d="M34.592 53.988 34.592 1465.2" stroke="#000000" stroke-width="0.466553" fill="none" fill-rule="evenodd"/><path d="M454.489 53.988 454.489 1465.2" stroke="#000000" stroke-width="0.466553" fill="none" fill-rule="evenodd"/><path d="M34.3587 54.2213 454.723 54.2213" stroke="#000000" stroke-width="0.466553" fill="none" fill-rule="evenodd"/><path d="M34.3587 1464.97 454.723 1464.97" stroke="#000000" stroke-width="0.466553" fill="none" fill-rule="evenodd"/><text font-family="Arial,Arial_MSFontService,sans-serif" font-weight="700" font-size="8" transform="matrix(1 0 0 1.00024 39.924 82)">Thanh nhiệt giải thử</text><text font-family="Arial,Arial_MSFontService,sans-serif" font-weight="700" font-size="8" transform="matrix(1 0 0 1.00024 366.511 116)">Tỳ, Vị</text><text font-family="Arial,Arial_MSFontService,sans-serif" font-weight="400" font-size="8" transform="matrix(1 0 0 1.00024 317.19 102)">Cam</text><text font-family="Arial,Arial_MSFontService,sans-serif" font-weight="400" font-size="8" transform="matrix(1 0 0 1.00024 334.185 102)">-</text><text font-family="Arial,Arial_MSFontService,sans-serif" font-weight="400" font-size="8" transform="matrix(1 0 0 1.00024 336.852 102)">Khổ</text><text font-family="Arial,Arial_MSFontService,sans-serif" font-weight="400" font-size="8" transform="matrix(1 0 0 1.00024 281.198 102)">Ôn</text><text font-family="Arial,Arial_MSFontService,sans-serif" font-style="italic" font-weight="400" font-size="8" transform="matrix(1 0 0 1.00024 142.566 116)">Semen Lablab</text><text font-family="Arial,Arial_MSFontService,sans-serif" font-weight="400" font-size="8" transform="matrix(1 0 0 1.00024 34.592 116)">Bạch biển đậu</text><text font-family="Arial,Arial_MSFontService,sans-serif" font-style="italic" font-weight="400" font-size="8" transform="matrix(1 0 0 1.00024 142.566 151)">Semen Vignae cylindricae</text><text font-family="Arial,Arial_MSFontService,sans-serif" font-weight="400" font-size="8" transform="matrix(1 0 0 1.00024 34.592 151)">Đậu quyển</text><text fill="#EE230C" font-family="Arial,Arial_MSFontService,sans-serif" font-weight="700" font-size="8" transform="matrix(1 0 0 1.00024 366.511 185)">Tâm, Can, Tỳ</text><text fill="#EE230C" font-family="Arial,Arial_MSFontService,sans-serif" font-weight="400" font-size="8" transform="matrix(1 0 0 1.00024 317.19 171)">Khổ</text><text fill="#EE230C" font-family="Arial,Arial_MSFontService,sans-serif" font-weight="400" font-size="8" transform="matrix(1 0 0 1.00024 281.198 171)">Bình</text><text fill="#EE230C" font-family="Arial,Arial_MSFontService,sans-serif" font-style="italic" font-weight="400" font-size="8" transform="matrix(1 0 0 1.00024 142.566 185)">Folium Nelumbinis</text><text fill="#EE230C" font-family="Arial,Arial_MSFontService,sans-serif" font-weight="400" font-size="8" transform="matrix(1 0 0 1.00024 34.592 185)">Hà diệp (lá sen)</text><text font-family="Arial,Arial_MSFontService,sans-serif" font-weight="700" font-size="8" transform="matrix(1 0 0 1.00024 366.511 220)">Phế, Vị, Tỳ</text><text font-family="Arial,Arial_MSFontService,sans-serif" font-weight="400" font-size="8" transform="matrix(1 0 0 1.00024 317.19 206)">Tân</text><text font-family="Arial,Arial_MSFontService,sans-serif" font-weight="400" font-size="8" transform="matrix(1 0 0 1.00024 281.198 206)">Ôn</text><text font-family="Arial,Arial_MSFontService,sans-serif" font-style="italic" font-weight="400" font-size="8" transform="matrix(1 0 0 1.00024 142.566 220)">Herba Ocimi</text><text font-family="Arial,Arial_MSFontService,sans-serif" font-weight="400" font-size="8" transform="matrix(1 0 0 1.00024 34.592 220)">Hương nhu</text><text font-family="Arial,Arial_MSFontService,sans-serif" font-weight="700" font-size="8" transform="matrix(1 0 0 1.00024 39.924 254)">Thanh nhiệt giải độc</text><text font-family="Arial,Arial_MSFontService,sans-serif" font-style="italic" font-weight="400" font-size="8" transform="matrix(1 0 0 1.00024 142.566 289)">Herba Argyreiae</text><text font-family="Arial,Arial_MSFontService,sans-serif" font-weight="400" font-size="8" transform="matrix(1 0 0 1.00024 34.592 289)">Bạc thau</text><text font-family="Arial,Arial_MSFontService,sans-serif" font-style="italic" font-weight="400" font-size="8" transform="matrix(1 0 0 1.00024 142.566 323)">Herba Clerodendri</text><text font-family="Arial,Arial_MSFontService,sans-serif" font-weight="400" font-size="8" transform="matrix(1 0 0 1.00024 34.592 323)">Bạch đồng nữ</text><text font-family="Arial,Arial_MSFontService,sans-serif" font-weight="400" font-size="8" transform="matrix(1 0 0 1.00024 317.19 344)">Cam</text><text font-family="Arial,Arial_MSFontService,sans-serif" font-weight="400" font-size="8" transform="matrix(1 0 0 1.00024 334.185 344)">-</text><text font-family="Arial,Arial_MSFontService,sans-serif" font-weight="400" font-size="8" transform="matrix(1 0 0 1.00024 336.852 344)">Đạm</text><text font-family="Arial,Arial_MSFontService,sans-serif" font-weight="400" font-size="8" transform="matrix(1 0 0 1.00024 281.198 344)">Lương</text><text font-family="Arial,Arial_MSFontService,sans-serif" font-style="italic" font-weight="400" font-size="8" transform="matrix(1 0 0 1.00024 142.566 358)">Herba Hedyotidis diffusae</text><text font-family="Arial,Arial_MSFontService,sans-serif" font-weight="400" font-size="8" transform="matrix(1 0 0 1.00024 34.592 358)">Bạch hoa xà thiệt thảo</text><text font-family="Arial,Arial_MSFontService,sans-serif" font-style="italic" font-weight="400" font-size="8" transform="matrix(1 0 0 1.00024 142.566 392)">Cortex Dictamni radicis</text><text font-family="Arial,Arial_MSFontService,sans-serif" font-weight="400" font-size="8" transform="matrix(1 0 0 1.00024 34.592 392)">Bạch tiễn bì</text><text font-family="Arial,Arial_MSFontService,sans-serif" font-style="italic" font-weight="400" font-size="8" transform="matrix(1 0 0 1.00024 142.566 427)">Herba Isatisis</text><text font-family="Arial,Arial_MSFontService,sans-serif" font-weight="400" font-size="8" transform="matrix(1 0 0 1.00024 34.592 427)">Bản lam căn</text><text font-family="Arial,Arial_MSFontService,sans-serif" font-weight="400" font-size="8" transform="matrix(1 0 0 1.00024 366.511 447)">Can, Vị</text><text font-family="Arial,Arial_MSFontService,sans-serif" font-weight="400" font-size="8" transform="matrix(1 0 0 1.00024 317.19 447)">Khổ</text><text font-family="Arial,Arial_MSFontService,sans-serif" font-weight="400" font-size="8" transform="matrix(1 0 0 1.00024 331.519 447)">-</text><text font-family="Arial,Arial_MSFontService,sans-serif" font-weight="400" font-size="8" transform="matrix(1 0 0 1.00024 334.185 447)">Cam</text><text font-family="Arial,Arial_MSFontService,sans-serif" font-weight="400" font-size="8" transform="matrix(1 0 0 1.00024 281.198 447)">Hàn</text><text font-family="Arial,Arial_MSFontService,sans-serif" font-style="italic" font-weight="400" font-size="8" transform="matrix(1 0 0 1.00024 142.566 456)">Herba Lactucae indicae</text><text font-family="Arial,Arial_MSFontService,sans-serif" font-weight="400" font-size="8" transform="matrix(1 0 0 1.00024 34.592 456)">Bồ công anh</text><text font-family="Arial,Arial_MSFontService,sans-serif" font-style="italic" font-weight="400" font-size="8" transform="matrix(1 0 0 1.00024 142.566 485)">Herba Mussaendae pubenscentis</text><text font-family="Arial,Arial_MSFontService,sans-serif" font-weight="400" font-size="8" transform="matrix(1 0 0 1.00024 34.592 485)">Bướm bạc (Hồ điệp)</text><text font-family="Arial,Arial_MSFontService,sans-serif" font-style="italic" font-weight="400" font-size="8" transform="matrix(1 0 0 1.00024 142.566 519)">Herba et radix Scopariae</text><text font-family="Arial,Arial_MSFontService,sans-serif" font-weight="400" font-size="8" transform="matrix(1 0 0 1.00024 34.592 519)">Cam thảo đất</text><text font-family="Arial,Arial_MSFontService,sans-serif" font-style="italic" font-weight="400" font-size="8" transform="matrix(1 0 0 1.00024 142.566 554)">Herba Elephantopi scarberis</text><text font-family="Arial,Arial_MSFontService,sans-serif" font-weight="400" font-size="8" transform="matrix(1 0 0 1.00024 34.592 554)">Chỉ thiên</text><text font-family="Arial,Arial_MSFontService,sans-serif" font-style="italic" font-weight="400" font-size="8" transform="matrix(1 0 0 1.00024 142.566 588)">Herba Abutili indici</text><text font-family="Arial,Arial_MSFontService,sans-serif" font-weight="400" font-size="8" transform="matrix(1 0 0 1.00024 34.592 588)">Cối xay</text><text font-family="Arial,Arial_MSFontService,sans-serif" font-style="italic" font-weight="400" font-size="8" transform="matrix(1 0 0 1.00024 142.566 623)">Herba Hedyotidis capitellatae</text><text font-family="Arial,Arial_MSFontService,sans-serif" font-weight="400" font-size="8" transform="matrix(1 0 0 1.00024 34.592 623)">Dạ cẩm</text><text font-family="Arial,Arial_MSFontService,sans-serif" font-weight="400" font-size="8" transform="matrix(1 0 0 1.00024 366.511 643)">Phế, Bàng Quang,</text><text font-family="Arial,Arial_MSFontService,sans-serif" font-weight="400" font-size="8" transform="matrix(1 0 0 1.00024 317.19 643)">Tân</text><text font-family="Arial,Arial_MSFontService,sans-serif" font-weight="400" font-size="8" transform="matrix(1 0 0 1.00024 281.198 643)">Hàn</text><text font-family="Arial,Arial_MSFontService,sans-serif" font-style="italic" font-weight="400" font-size="8" transform="matrix(1 0 0 1.00024 142.566 652)">Herba Houttuyniae cordatae</text><text font-family="Arial,Arial_MSFontService,sans-serif" font-weight="400" font-size="8" transform="matrix(1 0 0 1.00024 34.592 652)">Diếp cá (ngư tinh thảo)</text><text font-family="Arial,Arial_MSFontService,sans-serif" font-style="italic" font-weight="400" font-size="8" transform="matrix(1 0 0 1.00024 142.566 681)">Herba Phyllanthi amari</text><text font-family="Arial,Arial_MSFontService,sans-serif" font-weight="400" font-size="8" transform="matrix(1 0 0 1.00024 34.592 681)">Diệp hạ châu</text><text font-family="Arial,Arial_MSFontService,sans-serif" font-style="italic" font-weight="400" font-size="8" transform="matrix(1 0 0 1.00024 142.566 716)">Herba Excoecariae cochinchinensis</text><text font-family="Arial,Arial_MSFontService,sans-serif" font-weight="400" font-size="8" transform="matrix(1 0 0 1.00024 34.592 716)">Đơn lá đỏ (đơn mặt trời)</text><text font-family="Arial,Arial_MSFontService,sans-serif" font-style="italic" font-weight="400" font-size="8" transform="matrix(1 0 0 1.00024 142.566 750)">Fios Plumeriae rubrae</text><text font-family="Arial,Arial_MSFontService,sans-serif" font-weight="400" font-size="8" transform="matrix(1 0 0 1.00024 34.592 750)">Hoa dại</text><text font-family="Arial,Arial_MSFontService,sans-serif" font-style="italic" font-weight="400" font-size="8" transform="matrix(1 0 0 1.00024 142.566 785)">Fructus Momordicae charantiae</text><text font-family="Arial,Arial_MSFontService,sans-serif" font-weight="400" font-size="8" transform="matrix(1 0 0 1.00024 34.592 785)">Khổ qua</text><text font-family="Arial,Arial_MSFontService,sans-serif" font-style="italic" font-weight="400" font-size="8" transform="matrix(1 0 0 1.00024 142.566 819)">Caulis cum folium Lonicerae</text><text font-family="Arial,Arial_MSFontService,sans-serif" font-weight="400" font-size="8" transform="matrix(1 0 0 1.00024 34.592 819)">Kim ngân (cuộng)</text><text fill="#EE230C" font-family="Arial,Arial_MSFontService,sans-serif" font-weight="400" font-size="8" transform="matrix(1 0 0 1.00024 317.19 840)">Cam</text><text fill="#EE230C" font-family="Arial,Arial_MSFontService,sans-serif" font-weight="400" font-size="8" transform="matrix(1 0 0 1.00024 334.185 840)">-</text><text fill="#EE230C" font-family="Arial,Arial_MSFontService,sans-serif" font-weight="400" font-size="8" transform="matrix(1 0 0 1.00024 336.852 840)">Khổ</text><text fill="#EE230C" font-family="Arial,Arial_MSFontService,sans-serif" font-weight="400" font-size="8" transform="matrix(1 0 0 1.00024 281.198 840)">Hàn</text><text fill="#EE230C" font-family="Arial,Arial_MSFontService,sans-serif" font-style="italic" font-weight="400" font-size="8" transform="matrix(1 0 0 1.00024 142.566 848)">Flos Lonicerae</text><text fill="#EE230C" font-family="Arial,Arial_MSFontService,sans-serif" font-weight="400" font-size="8" transform="matrix(1 0 0 1.00024 34.592 848)">Kim ngân hoa</text><text font-family="Arial,Arial_MSFontService,sans-serif" font-weight="400" font-size="8" transform="matrix(1 0 0 1.00024 366.511 863)">Phế, Thận</text><text font-family="Arial,Arial_MSFontService,sans-serif" font-weight="400" font-size="8" transform="matrix(1 0 0 1.00024 317.19 863)">Khổ</text><text font-family="Arial,Arial_MSFontService,sans-serif" font-weight="400" font-size="8" transform="matrix(1 0 0 1.00024 331.519 863)">-</text><text font-family="Arial,Arial_MSFontService,sans-serif" font-weight="400" font-size="8" transform="matrix(1 0 0 1.00024 334.185 863)">Tân</text><text font-family="Arial,Arial_MSFontService,sans-serif" font-weight="400" font-size="8" transform="matrix(1 0 0 1.00024 281.198 863)">Lương</text><text font-family="Arial,Arial_MSFontService,sans-serif" font-style="italic" font-weight="400" font-size="8" transform="matrix(1 0 0 1.00024 142.566 872)">Folium Cudraniae</text><text font-family="Arial,Arial_MSFontService,sans-serif" font-weight="400" font-size="8" transform="matrix(1 0 0 1.00024 34.592 872)">Lá mỏ quạ</text><text font-family="Arial,Arial_MSFontService,sans-serif" font-style="italic" font-weight="400" font-size="8" transform="matrix(1 0 0 1.00024 142.566 896)">Folium Lawsoniae</text><text font-family="Arial,Arial_MSFontService,sans-serif" font-weight="400" font-size="8" transform="matrix(1 0 0 1.00024 34.592 896)">Lá móng</text><text font-family="Arial,Arial_MSFontService,sans-serif" font-weight="400" font-size="8" transform="matrix(1 0 0 1.00024 366.511 911)">Phế, Tâm, Tiểu trường</text><text font-family="Arial,Arial_MSFontService,sans-serif" font-weight="400" font-size="8" transform="matrix(1 0 0 1.00024 317.19 911)">Khổ</text><text font-family="Arial,Arial_MSFontService,sans-serif" font-weight="400" font-size="8" transform="matrix(1 0 0 1.00024 331.519 911)">-</text><text font-family="Arial,Arial_MSFontService,sans-serif" font-weight="400" font-size="8" transform="matrix(1 0 0 1.00024 334.185 911)">Tân</text><text font-family="Arial,Arial_MSFontService,sans-serif" font-weight="400" font-size="8" transform="matrix(1 0 0 1.00024 281.198 911)">Hàn</text><text font-family="Arial,Arial_MSFontService,sans-serif" font-style="italic" font-weight="400" font-size="8" transform="matrix(1 0 0 1.00024 142.566 920)">Fructus Forsythiae</text><text font-family="Arial,Arial_MSFontService,sans-serif" font-weight="400" font-size="8" transform="matrix(1 0 0 1.00024 34.592 920)">Liên kiều</text><text font-family="Arial,Arial_MSFontService,sans-serif" font-style="italic" font-weight="400" font-size="8" transform="matrix(1 0 0 1.00024 142.566 949)">Calamina</text><text font-family="Arial,Arial_MSFontService,sans-serif" font-weight="400" font-size="8" transform="matrix(1 0 0 1.00024 34.592 949)">Lô cam thạch</text><text font-family="Arial,Arial_MSFontService,sans-serif" font-style="italic" font-weight="400" font-size="8" transform="matrix(1 0 0 1.00024 142.566 983)">Eieusine Indica</text><text font-family="Arial,Arial_MSFontService,sans-serif" font-weight="400" font-size="8" transform="matrix(1 0 0 1.00024 34.592 983)">Mần trầu</text><text font-family="Arial,Arial_MSFontService,sans-serif" font-style="italic" font-weight="400" font-size="8" transform="matrix(1 0 0 1.00024 142.566 1018)">Herba Maclurae</text><text font-family="Arial,Arial_MSFontService,sans-serif" font-weight="400" font-size="8" transform="matrix(1 0 0 1.00024 34.592 1018)">Mỏ quạ</text></g></svg>