<svg width="1365" height="1024" xmlns="http://www.w3.org/2000/svg" xmlns:xlink="http://www.w3.org/1999/xlink" overflow="hidden"><defs><clipPath id="clip0"><rect x="0" y="0" width="1365" height="1024"/></clipPath></defs><g clip-path="url(#clip0)"><rect x="0" y="0" width="1365" height="1024.25" fill="#FFFFFF"/><text font-family="Arial,Arial_MSFontService,sans-serif" font-weight="700" font-size="94" transform="matrix(1 0 0 1.00024 25.9463 129)">SỰ PHỐI NGŨ CÁC VỊ THUỐC</text><text fill="#BA5263" font-family="Arial,Arial_MSFontService,sans-serif" font-weight="400" font-size="54" transform="matrix(1 0 0 1.00024 104.483 289)">•</text><text fill="#BA5263" font-family="Arial,Arial_MSFontService,sans-serif" font-weight="400" font-size="44" transform="matrix(1 0 0 1.00024 144.473 289)">Đơn</text><text fill="#BA5263" font-family="Arial,Arial_MSFontService,sans-serif" font-weight="400" font-size="44" transform="matrix(1 0 0 1.00024 242.582 289)">hành:</text><text font-family="Arial,Arial_MSFontService,sans-serif" font-weight="400" font-size="44" transform="matrix(1 0 0 1.00024 365.112 289)">Nhân</text><text font-family="Arial,Arial_MSFontService,sans-serif" font-weight="400" font-size="44" transform="matrix(1 0 0 1.00024 483.503 289)">Sâm,</text><text font-family="Arial,Arial_MSFontService,sans-serif" font-weight="400" font-size="44" transform="matrix(1 0 0 1.00024 598.082 289)">Tam</text><text font-family="Arial,Arial_MSFontService,sans-serif" font-weight="400" font-size="44" transform="matrix(1 0 0 1.00024 695.332 289)">Thất,</text><text font-family="Arial,Arial_MSFontService,sans-serif" font-weight="400" font-size="44" transform="matrix(1 0 0 1.00024 807.864 289)">Kim</text><text font-family="Arial,Arial_MSFontService,sans-serif" font-weight="400" font-size="44" transform="matrix(1 0 0 1.00024 896.642 289)">Ngân</text><text font-family="Arial,Arial_MSFontService,sans-serif" font-weight="400" font-size="44" transform="matrix(1 0 0 1.00024 1015.03 289)">Hoa</text><text fill="#BA5263" font-family="Arial,Arial_MSFontService,sans-serif" font-weight="400" font-size="54" transform="matrix(1 0 0 1.00024 104.483 341)">•</text><text fill="#BA5263" font-family="Arial,Arial_MSFontService,sans-serif" font-weight="400" font-size="44" transform="matrix(1 0 0 1.00024 144.473 341)">Tương</text><text fill="#BA5263" font-family="Arial,Arial_MSFontService,sans-serif" font-weight="400" font-size="44" transform="matrix(1 0 0 1.00024 291.117 341)">tu</text><text fill="#BA5263" font-family="Arial,Arial_MSFontService,sans-serif" font-weight="400" font-size="44" transform="matrix(1 0 0 1.00024 340.978 341)">(hiệp</text><text fill="#BA5263" font-family="Arial,Arial_MSFontService,sans-serif" font-weight="400" font-size="44" transform="matrix(1 0 0 1.00024 451.691 341)">đồng):</text><text font-family="Arial,Arial_MSFontService,sans-serif" font-weight="400" font-size="44" transform="matrix(1 0 0 1.00024 588.084 341)">Tính</text><text font-family="Arial,Arial_MSFontService,sans-serif" font-weight="400" font-size="44" transform="matrix(1 0 0 1.00024 689.026 341)">vị</text><text font-family="Arial,Arial_MSFontService,sans-serif" font-weight="400" font-size="44" transform="matrix(1 0 0 1.00024 733.935 341)">giống</text><text font-family="Arial,Arial_MSFontService,sans-serif" font-weight="400" font-size="44" transform="matrix(1 0 0 1.00024 854.479 341)">nhau</text><text fill="#BA5263" font-family="Arial,Arial_MSFontService,sans-serif" font-weight="400" font-size="54" transform="matrix(1 0 0 1.00024 104.483 394)">•</text><text fill="#BA5263" font-family="Arial,Arial_MSFontService,sans-serif" font-weight="400" font-size="44" transform="matrix(1 0 0 1.00024 144.473 394)">Tương</text><text fill="#BA5263" font-family="Arial,Arial_MSFontService,sans-serif" font-weight="400" font-size="44" transform="matrix(1 0 0 1.00024 290.877 394)">úy</text><text fill="#BA5263" font-family="Arial,Arial_MSFontService,sans-serif" font-weight="400" font-size="44" transform="matrix(1 0 0 1.00024 350.449 394)">(ức</text><text fill="#BA5263" font-family="Arial,Arial_MSFontService,sans-serif" font-weight="400" font-size="44" transform="matrix(1 0 0 1.00024 428.99 394)">chế</text><text fill="#BA5263" font-family="Arial,Arial_MSFontService,sans-serif" font-weight="400" font-size="44" transform="matrix(1 0 0 1.00024 513.056 394)">độc</text><text fill="#BA5263" font-family="Arial,Arial_MSFontService,sans-serif" font-weight="400" font-size="44" transform="matrix(1 0 0 1.00024 596.656 394)">tính):</text><text font-family="Arial,Arial_MSFontService,sans-serif" font-weight="400" font-size="44" transform="matrix(1 0 0 1.00024 708.855 394)">Bán</text><text font-family="Arial,Arial_MSFontService,sans-serif" font-weight="400" font-size="44" transform="matrix(1 0 0 1.00024 800.133 394)">Hạ</text><text font-family="Arial,Arial_MSFontService,sans-serif" font-weight="400" font-size="44" transform="matrix(1 0 0 1.00024 869.536 394)">+</text><text font-family="Arial,Arial_MSFontService,sans-serif" font-weight="400" font-size="44" transform="matrix(1 0 0 1.00024 907.933 394)">Sinh</text><text font-family="Arial,Arial_MSFontService,sans-serif" font-weight="400" font-size="44" transform="matrix(1 0 0 1.00024 1009.04 394)">Khương</text><text fill="#BA5263" font-family="Arial,Arial_MSFontService,sans-serif" font-weight="400" font-size="54" transform="matrix(1 0 0 1.00024 104.483 448)">•</text><text fill="#BA5263" font-family="Arial,Arial_MSFontService,sans-serif" font-weight="400" font-size="44" transform="matrix(1 0 0 1.00024 144.473 448)">Tương</text><text fill="#BA5263" font-family="Arial,Arial_MSFontService,sans-serif" font-weight="400" font-size="44" transform="matrix(1 0 0 1.00024 291.117 448)">ác</text><text fill="#BA5263" font-family="Arial,Arial_MSFontService,sans-serif" font-weight="400" font-size="44" transform="matrix(1 0 0 1.00024 350.916 448)">(kiềm</text><text fill="#BA5263" font-family="Arial,Arial_MSFontService,sans-serif" font-weight="400" font-size="44" transform="matrix(1 0 0 1.00024 471.173 448)">chế</text><text fill="#BA5263" font-family="Arial,Arial_MSFontService,sans-serif" font-weight="400" font-size="44" transform="matrix(1 0 0 1.00024 555.119 448)">tính</text><text fill="#BA5263" font-family="Arial,Arial_MSFontService,sans-serif" font-weight="400" font-size="44" transform="matrix(1 0 0 1.00024 641.171 448)">năng,</text><text fill="#BA5263" font-family="Arial,Arial_MSFontService,sans-serif" font-weight="400" font-size="44" transform="matrix(1 0 0 1.00024 763.928 448)">tác</text><text fill="#BA5263" font-family="Arial,Arial_MSFontService,sans-serif" font-weight="400" font-size="44" transform="matrix(1 0 0 1.00024 835.317 448)">dụng</text><text fill="#BA5263" font-family="Arial,Arial_MSFontService,sans-serif" font-weight="400" font-size="44" transform="matrix(1 0 0 1.00024 946.257 448)">của</text><text fill="#BA5263" font-family="Arial,Arial_MSFontService,sans-serif" font-weight="400" font-size="44" transform="matrix(1 0 0 1.00024 1030.55 448)">nhau):</text><text font-family="Arial,Arial_MSFontService,sans-serif" font-weight="400" font-size="44" transform="matrix(1 0 0 1.00024 144.473 500)">Hoàng</text><text font-family="Arial,Arial_MSFontService,sans-serif" font-weight="400" font-size="44" transform="matrix(1 0 0 1.00024 287.238 500)">Cầm</text><text font-family="Arial,Arial_MSFontService,sans-serif" font-weight="400" font-size="44" transform="matrix(1 0 0 1.00024 393.525 500)">+</text><text font-family="Arial,Arial_MSFontService,sans-serif" font-weight="400" font-size="44" transform="matrix(1 0 0 1.00024 432.149 500)">Sinh</text><text font-family="Arial,Arial_MSFontService,sans-serif" font-weight="400" font-size="44" transform="matrix(1 0 0 1.00024 533.498 500)">Khương</text><text fill="#BA5263" font-family="Arial,Arial_MSFontService,sans-serif" font-weight="400" font-size="54" transform="matrix(1 0 0 1.00024 104.483 554)">•</text><text fill="#BA5263" font-family="Arial,Arial_MSFontService,sans-serif" font-weight="400" font-size="44" transform="matrix(1 0 0 1.00024 144.473 554)">Tương</text><text fill="#BA5263" font-family="Arial,Arial_MSFontService,sans-serif" font-weight="400" font-size="44" transform="matrix(1 0 0 1.00024 290.997 554)">sử</text><text fill="#BA5263" font-family="Arial,Arial_MSFontService,sans-serif" font-weight="400" font-size="44" transform="matrix(1 0 0 1.00024 355.101 554)">(hiệp</text><text fill="#BA5263" font-family="Arial,Arial_MSFontService,sans-serif" font-weight="400" font-size="44" transform="matrix(1 0 0 1.00024 465.814 554)">đồng</text><text fill="#BA5263" font-family="Arial,Arial_MSFontService,sans-serif" font-weight="400" font-size="44" transform="matrix(1 0 0 1.00024 576.874 554)">2</text><text fill="#BA5263" font-family="Arial,Arial_MSFontService,sans-serif" font-weight="400" font-size="44" transform="matrix(1 0 0 1.00024 614.451 554)">thuốc</text><text fill="#BA5263" font-family="Arial,Arial_MSFontService,sans-serif" font-weight="400" font-size="44" transform="matrix(1 0 0 1.00024 734.482 554)">khác</text><text fill="#BA5263" font-family="Arial,Arial_MSFontService,sans-serif" font-weight="400" font-size="44" transform="matrix(1 0 0 1.00024 840.196 554)">tính</text><text fill="#BA5263" font-family="Arial,Arial_MSFontService,sans-serif" font-weight="400" font-size="44" transform="matrix(1 0 0 1.00024 925.902 554)">vị):</text><text font-family="Arial,Arial_MSFontService,sans-serif" font-weight="400" font-size="44" transform="matrix(1 0 0 1.00024 997.171 554)">Liên</text><text font-family="Arial,Arial_MSFontService,sans-serif" font-weight="400" font-size="44" transform="matrix(1 0 0 1.00024 1093.69 554)">Kiều</text><text font-family="Arial,Arial_MSFontService,sans-serif" font-weight="400" font-size="44" transform="matrix(1 0 0 1.00024 1194.92 554)">+</text><text font-family="Arial,Arial_MSFontService,sans-serif" font-weight="400" font-size="44" transform="matrix(1 0 0 1.00024 144.473 606)">Ngô Thù</text><text font-family="Arial,Arial_MSFontService,sans-serif" font-weight="400" font-size="44" transform="matrix(1 0 0 1.00024 326.348 606)">Du</text><text fill="#BA5263" font-family="Arial,Arial_MSFontService,sans-serif" font-weight="400" font-size="54" transform="matrix(1 0 0 1.00024 104.483 660)">•</text><text fill="#BA5263" font-family="Arial,Arial_MSFontService,sans-serif" font-weight="400" font-size="44" transform="matrix(1 0 0 1.00024 144.473 660)">Tương</text><text fill="#BA5263" font-family="Arial,Arial_MSFontService,sans-serif" font-weight="400" font-size="44" transform="matrix(1 0 0 1.00024 290.997 660)">sát</text><text fill="#BA5263" font-family="Arial,Arial_MSFontService,sans-serif" font-weight="400" font-size="44" transform="matrix(1 0 0 1.00024 362.506 660)">(tiêu</text><text fill="#BA5263" font-family="Arial,Arial_MSFontService,sans-serif" font-weight="400" font-size="44" transform="matrix(1 0 0 1.00024 460.889 660)">trừ</text><text fill="#BA5263" font-family="Arial,Arial_MSFontService,sans-serif" font-weight="400" font-size="44" transform="matrix(1 0 0 1.00024 529.479 660)">độc</text><text fill="#BA5263" font-family="Arial,Arial_MSFontService,sans-serif" font-weight="400" font-size="44" transform="matrix(1 0 0 1.00024 613.545 660)">tính</text><text fill="#BA5263" font-family="Arial,Arial_MSFontService,sans-serif" font-weight="400" font-size="44" transform="matrix(1 0 0 1.00024 699.371 660)">của</text><text fill="#BA5263" font-family="Arial,Arial_MSFontService,sans-serif" font-weight="400" font-size="44" transform="matrix(1 0 0 1.00024 783.21 660)">nhau):</text><text font-family="Arial,Arial_MSFontService,sans-serif" font-weight="400" font-size="44" transform="matrix(1 0 0 1.00024 920.75 660)">Đậu</text><text font-family="Arial,Arial_MSFontService,sans-serif" font-weight="400" font-size="44" transform="matrix(1 0 0 1.00024 1014.65 660)">Xanh</text><text font-family="Arial,Arial_MSFontService,sans-serif" font-weight="400" font-size="44" transform="matrix(1 0 0 1.00024 1130.54 660)">+</text><text font-family="Arial,Arial_MSFontService,sans-serif" font-weight="400" font-size="44" transform="matrix(1 0 0 1.00024 1169.06 660)">Ba</text><text font-family="Arial,Arial_MSFontService,sans-serif" font-weight="400" font-size="44" transform="matrix(1 0 0 1.00024 144.473 712)">Đậu</text><text fill="#BA5263" font-family="Arial,Arial_MSFontService,sans-serif" font-weight="400" font-size="54" transform="matrix(1 0 0 1.00024 104.483 765)">•</text><text fill="#BA5263" font-family="Arial,Arial_MSFontService,sans-serif" font-weight="400" font-size="44" transform="matrix(1 0 0 1.00024 144.473 765)">Tương</text><text fill="#BA5263" font-family="Arial,Arial_MSFontService,sans-serif" font-weight="400" font-size="44" transform="matrix(1 0 0 1.00024 291.224 765)">phản:</text><text font-family="Arial,Arial_MSFontService,sans-serif" font-weight="400" font-size="44" transform="matrix(1 0 0 1.00024 413.42 765)">Tác</text><text font-family="Arial,Arial_MSFontService,sans-serif" font-weight="400" font-size="44" transform="matrix(1 0 0 1.00024 499.699 765)">dụng</text><text font-family="Arial,Arial_MSFontService,sans-serif" font-weight="400" font-size="44" transform="matrix(1 0 0 1.00024 611.105 765)">không</text><text font-family="Arial,Arial_MSFontService,sans-serif" font-weight="400" font-size="44" transform="matrix(1 0 0 1.00024 743.813 765)">tốt</text><text font-family="Arial,Arial_MSFontService,sans-serif" font-weight="400" font-size="44" transform="matrix(1 0 0 1.00024 805.598 765)">cho</text><text font-family="Arial,Arial_MSFontService,sans-serif" font-weight="400" font-size="44" transform="matrix(1 0 0 1.00024 889.544 765)">sức</text><text font-family="Arial,Arial_MSFontService,sans-serif" font-weight="400" font-size="44" transform="matrix(1 0 0 1.00024 976.11 765)">khỏe</text><text font-family="Arial,Arial_MSFontService,sans-serif" font-weight="400" font-size="54" transform="matrix(1 0 0 1.00024 144.473 818)">•</text><text font-family="Arial,Arial_MSFontService,sans-serif" font-weight="400" font-size="44" transform="matrix(1 0 0 1.00024 184.463 818)">Qua</text><text font-family="Arial,Arial_MSFontService,sans-serif" font-weight="400" font-size="44" transform="matrix(1 0 0 1.00024 280.666 818)">Lâu</text><text font-family="Arial,Arial_MSFontService,sans-serif" font-weight="400" font-size="44" transform="matrix(1 0 0 1.00024 367.472 818)">Nhân</text><text font-family="Arial,Arial_MSFontService,sans-serif" font-weight="400" font-size="44" transform="matrix(1 0 0 1.00024 485.969 818)">phản</text><text font-family="Arial,Arial_MSFontService,sans-serif" font-weight="400" font-size="44" transform="matrix(1 0 0 1.00024 597.136 818)">Ô</text><text font-family="Arial,Arial_MSFontService,sans-serif" font-weight="400" font-size="44" transform="matrix(1 0 0 1.00024 644.351 818)">Đầu</text><text font-family="Arial,Arial_MSFontService,sans-serif" font-weight="400" font-size="54" transform="matrix(1 0 0 1.00024 144.473 870)">•</text><text font-family="Arial,Arial_MSFontService,sans-serif" font-weight="400" font-size="44" transform="matrix(1 0 0 1.00024 184.463 870)">Cam</text><text font-family="Arial,Arial_MSFontService,sans-serif" font-weight="400" font-size="44" transform="matrix(1 0 0 1.00024 289.857 870)">Thảo</text><text font-family="Arial,Arial_MSFontService,sans-serif" font-weight="400" font-size="44" transform="matrix(1 0 0 1.00024 404.009 870)">phản</text><text font-family="Arial,Arial_MSFontService,sans-serif" font-weight="400" font-size="44" transform="matrix(1 0 0 1.00024 515.442 870)">Cam</text><text font-family="Arial,Arial_MSFontService,sans-serif" font-weight="400" font-size="44" transform="matrix(1 0 0 1.00024 620.836 870)">Toại</text><text font-family="Arial,Arial_MSFontService,sans-serif" font-weight="400" font-size="54" transform="matrix(1 0 0 1.00024 144.473 923)">•</text><text font-family="Arial,Arial_MSFontService,sans-serif" font-weight="400" font-size="44" transform="matrix(1 0 0 1.00024 184.463 923)">Bạch</text><text font-family="Arial,Arial_MSFontService,sans-serif" font-weight="400" font-size="44" transform="matrix(1 0 0 1.00024 298.095 923)">Cập</text><text font-family="Arial,Arial_MSFontService,sans-serif" font-weight="400" font-size="44" transform="matrix(1 0 0 1.00024 391.846 923)">phản</text><text font-family="Arial,Arial_MSFontService,sans-serif" font-weight="400" font-size="44" transform="matrix(1 0 0 1.00024 503.145 923)">Bán</text><text font-family="Arial,Arial_MSFontService,sans-serif" font-weight="400" font-size="44" transform="matrix(1 0 0 1.00024 594.783 923)">Hạ</text><text font-family="Arial,Arial_MSFontService,sans-serif" font-weight="400" font-size="54" transform="matrix(1 0 0 1.00024 144.473 977)">•</text><text font-family="Arial,Arial_MSFontService,sans-serif" font-weight="400" font-size="44" transform="matrix(1 0 0 1.00024 184.463 977)">Tế Tân,</text><text font-family="Arial,Arial_MSFontService,sans-serif" font-weight="400" font-size="44" transform="matrix(1 0 0 1.00024 349.116 977)">Bạch</text><text font-family="Arial,Arial_MSFontService,sans-serif" font-weight="400" font-size="44" transform="matrix(1 0 0 1.00024 461.709 977)">Thược</text><text font-family="Arial,Arial_MSFontService,sans-serif" font-weight="400" font-size="44" transform="matrix(1 0 0 1.00024 606.8 977)">phản</text><text font-family="Arial,Arial_MSFontService,sans-serif" font-weight="400" font-size="44" transform="matrix(1 0 0 1.00024 717.966 977)">Lệ</text><text font-family="Arial,Arial_MSFontService,sans-serif" font-weight="400" font-size="44" transform="matrix(1 0 0 1.00024 780.011 977)">Lô…</text></g></svg>