<svg width="1365" height="1024" xmlns="http://www.w3.org/2000/svg" xmlns:xlink="http://www.w3.org/1999/xlink" overflow="hidden"><defs><clipPath id="clip0"><rect x="0" y="0" width="1365" height="1024"/></clipPath></defs><g clip-path="url(#clip0)"><rect x="0" y="0" width="1365" height="1024.25" fill="#FFFFFF"/><text font-family="Arial,Arial_MSFontService,sans-serif" font-weight="400" font-size="35" transform="matrix(1 0 0 1.00024 78.6475 322)">1.</text><text font-family="Arial,Arial_MSFontService,sans-serif" font-weight="400" font-size="35" transform="matrix(1 0 0 1.00024 131.834 322)">Thuốc</text><text font-family="Arial,Arial_MSFontService,sans-serif" font-weight="400" font-size="35" transform="matrix(1 0 0 1.00024 240.535 322)">giải</text><text font-family="Arial,Arial_MSFontService,sans-serif" font-weight="400" font-size="35" transform="matrix(1 0 0 1.00024 306.099 322)">biểu ~</text><text font-family="Arial,Arial_MSFontService,sans-serif" font-weight="400" font-size="35" transform="matrix(1 0 0 1.00024 401.169 322)">Inducing sweating</text><text font-family="Arial,Arial_MSFontService,sans-serif" font-weight="400" font-size="35" transform="matrix(1 0 0 1.00024 78.6475 360)">2.</text><text font-family="Arial,Arial_MSFontService,sans-serif" font-weight="400" font-size="35" transform="matrix(1 0 0 1.00024 131.834 360)">Thuốc</text><text font-family="Arial,Arial_MSFontService,sans-serif" font-weight="400" font-size="35" transform="matrix(1 0 0 1.00024 240.815 360)">thanh</text><text font-family="Arial,Arial_MSFontService,sans-serif" font-weight="400" font-size="35" transform="matrix(1 0 0 1.00024 339.684 360)">nhiệt ~</text><text font-family="Arial,Arial_MSFontService,sans-serif" font-weight="400" font-size="35" transform="matrix(1 0 0 1.00024 453.669 360)">Clearing internal heat</text><text font-family="Arial,Arial_MSFontService,sans-serif" font-weight="400" font-size="35" transform="matrix(1 0 0 1.00024 78.6475 399)">3.</text><text font-family="Arial,Arial_MSFontService,sans-serif" font-weight="400" font-size="35" transform="matrix(1 0 0 1.00024 131.834 399)">Thuốc</text><text font-family="Arial,Arial_MSFontService,sans-serif" font-weight="400" font-size="35" transform="matrix(1 0 0 1.00024 240.535 399)">khử</text><text font-family="Arial,Arial_MSFontService,sans-serif" font-weight="400" font-size="35" transform="matrix(1 0 0 1.00024 311.91 399)">hàn</text><text font-family="Arial,Arial_MSFontService,sans-serif" font-weight="400" font-size="35" transform="matrix(1 0 0 1.00024 381.194 399)">(thuốc</text><text font-family="Arial,Arial_MSFontService,sans-serif" font-weight="400" font-size="35" transform="matrix(1 0 0 1.00024 489.8 399)">ôn</text><text font-family="Arial,Arial_MSFontService,sans-serif" font-weight="400" font-size="35" transform="matrix(1 0 0 1.00024 539.795 399)">lý,</text><text font-family="Arial,Arial_MSFontService,sans-serif" font-weight="400" font-size="35" transform="matrix(1 0 0 1.00024 585.417 399)">trừ</text><text font-family="Arial,Arial_MSFontService,sans-serif" font-weight="400" font-size="35" transform="matrix(1 0 0 1.00024 641.13 399)">hàn) ~</text><text font-family="Arial,Arial_MSFontService,sans-serif" font-weight="400" font-size="35" transform="matrix(1 0 0 1.00024 749.657 399)">Warming the interior</text><text font-family="Arial,Arial_MSFontService,sans-serif" font-weight="400" font-size="35" transform="matrix(1 0 0 1.00024 78.6475 437)">4.</text><text font-family="Arial,Arial_MSFontService,sans-serif" font-weight="400" font-size="35" transform="matrix(1 0 0 1.00024 131.834 437)">Thuốc</text><text font-family="Arial,Arial_MSFontService,sans-serif" font-weight="400" font-size="35" transform="matrix(1 0 0 1.00024 240.535 437)">hóa</text><text font-family="Arial,Arial_MSFontService,sans-serif" font-weight="400" font-size="35" transform="matrix(1 0 0 1.00024 309.911 437)">đàm,</text><text font-family="Arial,Arial_MSFontService,sans-serif" font-weight="400" font-size="35" transform="matrix(1 0 0 1.00024 399.136 437)">chỉ</text><text font-family="Arial,Arial_MSFontService,sans-serif" font-weight="400" font-size="35" transform="matrix(1 0 0 1.00024 454.682 437)">ho,</text><text font-family="Arial,Arial_MSFontService,sans-serif" font-weight="400" font-size="35" transform="matrix(1 0 0 1.00024 514.228 437)">bình</text><text font-family="Arial,Arial_MSFontService,sans-serif" font-weight="400" font-size="35" transform="matrix(1 0 0 1.00024 593.515 437)">suyễn ~</text><text font-family="Arial,Arial_MSFontService,sans-serif" font-weight="400" font-size="35" transform="matrix(1 0 0 1.00024 717.012 437)">Eliminating phlegm</text><text font-family="Arial,Arial_MSFontService,sans-serif" font-weight="400" font-size="35" transform="matrix(1 0 0 1.00024 78.6475 475)">5.</text><text font-family="Arial,Arial_MSFontService,sans-serif" font-weight="400" font-size="35" transform="matrix(1 0 0 1.00024 131.834 475)">Thuốc</text><text font-family="Arial,Arial_MSFontService,sans-serif" font-weight="400" font-size="35" transform="matrix(1 0 0 1.00024 240.615 475)">tắt</text><text font-family="Arial,Arial_MSFontService,sans-serif" font-weight="400" font-size="35" transform="matrix(1 0 0 1.00024 290.329 475)">phong,</text><text font-family="Arial,Arial_MSFontService,sans-serif" font-weight="400" font-size="35" transform="matrix(1 0 0 1.00024 408.86 475)">an</text><text font-family="Arial,Arial_MSFontService,sans-serif" font-weight="400" font-size="35" transform="matrix(1 0 0 1.00024 458.948 475)">thần,</text><text font-family="Arial,Arial_MSFontService,sans-serif" font-weight="400" font-size="35" transform="matrix(1 0 0 1.00024 547.8 475)">khai</text><text font-family="Arial,Arial_MSFontService,sans-serif" font-weight="400" font-size="35" transform="matrix(1 0 0 1.00024 623.008 475)">khiếu ~Syndrome of internal wind ,</text><text font-family="Arial,Arial_MSFontService,sans-serif" font-weight="400" font-size="35" transform="matrix(1 0 0 1.00024 131.834 513)">Calming the mind</text><text font-family="Arial,Arial_MSFontService,sans-serif" font-weight="400" font-size="35" transform="matrix(1 0 0 1.00024 78.6475 552)">6.</text><text font-family="Arial,Arial_MSFontService,sans-serif" font-weight="400" font-size="35" transform="matrix(1 0 0 1.00024 131.834 552)">Thuốc</text><text font-family="Arial,Arial_MSFontService,sans-serif" font-weight="400" font-size="35" transform="matrix(1 0 0 1.00024 240.615 552)">phần</text><text font-family="Arial,Arial_MSFontService,sans-serif" font-weight="400" font-size="35" transform="matrix(1 0 0 1.00024 329.839 552)">khí</text><text font-family="Arial,Arial_MSFontService,sans-serif" font-weight="400" font-size="35" transform="matrix(1 0 0 1.00024 387.465 552)">(thuốc</text><text font-family="Arial,Arial_MSFontService,sans-serif" font-weight="400" font-size="35" transform="matrix(1 0 0 1.00024 496.165 552)">chữa</text><text font-family="Arial,Arial_MSFontService,sans-serif" font-weight="400" font-size="35" transform="matrix(1 0 0 1.00024 587.017 552)">bệnh</text><text font-family="Arial,Arial_MSFontService,sans-serif" font-weight="400" font-size="35" transform="matrix(1 0 0 1.00024 676.521 552)">về</text><text font-family="Arial,Arial_MSFontService,sans-serif" font-weight="400" font-size="35" transform="matrix(1 0 0 1.00024 724.316 552)">khí) ~</text><text font-family="Arial,Arial_MSFontService,sans-serif" font-weight="400" font-size="35" transform="matrix(1 0 0 1.00024 821.013 552)">Regulating Qi</text><text font-family="Arial,Arial_MSFontService,sans-serif" font-weight="400" font-size="35" transform="matrix(1 0 0 1.00024 78.6475 590)">7.</text><text font-family="Arial,Arial_MSFontService,sans-serif" font-weight="400" font-size="35" transform="matrix(1 0 0 1.00024 131.834 590)">Thuốc</text><text font-family="Arial,Arial_MSFontService,sans-serif" font-weight="400" font-size="35" transform="matrix(1 0 0 1.00024 240.721 590)">phần</text><text font-family="Arial,Arial_MSFontService,sans-serif" font-weight="400" font-size="35" transform="matrix(1 0 0 1.00024 330.039 590)">huyết</text><text font-family="Arial,Arial_MSFontService,sans-serif" font-weight="400" font-size="35" transform="matrix(1 0 0 1.00024 427.096 590)">(thuốc</text><text font-family="Arial,Arial_MSFontService,sans-serif" font-weight="400" font-size="35" transform="matrix(1 0 0 1.00024 535.876 590)">chữa</text><text font-family="Arial,Arial_MSFontService,sans-serif" font-weight="400" font-size="35" transform="matrix(1 0 0 1.00024 627.1 590)">bệnh</text><text font-family="Arial,Arial_MSFontService,sans-serif" font-weight="400" font-size="35" transform="matrix(1 0 0 1.00024 716.418 590)">về</text><text font-family="Arial,Arial_MSFontService,sans-serif" font-weight="400" font-size="35" transform="matrix(1 0 0 1.00024 762.174 590)">huyết) ~</text><text font-family="Arial,Arial_MSFontService,sans-serif" font-weight="400" font-size="35" transform="matrix(1 0 0 1.00024 899.127 590)">Regulating blood</text><text font-family="Arial,Arial_MSFontService,sans-serif" font-weight="400" font-size="35" transform="matrix(1 0 0 1.00024 78.6475 628)">8.</text><text font-family="Arial,Arial_MSFontService,sans-serif" font-weight="400" font-size="35" transform="matrix(1 0 0 1.00024 131.834 628)">Thuốc trừ</text><text font-family="Arial,Arial_MSFontService,sans-serif" font-weight="400" font-size="35" transform="matrix(1 0 0 1.00024 295.128 628)">thấp ~</text><text font-family="Arial,Arial_MSFontService,sans-serif" font-weight="400" font-size="35" transform="matrix(1 0 0 1.00024 391.204 628)">Reducing dampness</text><text font-family="Arial,Arial_MSFontService,sans-serif" font-weight="400" font-size="35" transform="matrix(1 0 0 1.00024 78.6475 667)">9.</text><text font-family="Arial,Arial_MSFontService,sans-serif" font-weight="400" font-size="35" transform="matrix(1 0 0 1.00024 131.834 667)">Thuốc bổ</text><text font-family="Arial,Arial_MSFontService,sans-serif" font-weight="400" font-size="35" transform="matrix(1 0 0 1.00024 289.129 667)">dưỡng ~</text><text font-family="Arial,Arial_MSFontService,sans-serif" font-weight="400" font-size="35" transform="matrix(1 0 0 1.00024 420.497 667)">Tonifying</text><text font-family="Arial,Arial_MSFontService,sans-serif" font-weight="400" font-size="35" transform="matrix(1 0 0 1.00024 78.6475 704)">10.</text><text font-family="Arial,Arial_MSFontService,sans-serif" font-weight="400" font-size="35" transform="matrix(1 0 0 1.00024 131.834 704)">Thuốc tiêu đạo (thuốc tiêu</text><text font-family="Arial,Arial_MSFontService,sans-serif" font-weight="400" font-size="35" transform="matrix(1 0 0 1.00024 550.566 704)">hóa) ~ Syndrome of food accumulation</text><text font-family="Arial,Arial_MSFontService,sans-serif" font-weight="400" font-size="35" transform="matrix(1 0 0 1.00024 78.6475 743)">11.</text><text font-family="Arial,Arial_MSFontService,sans-serif" font-weight="400" font-size="35" transform="matrix(1 0 0 1.00024 131.834 743)">Thuốc tả hạ (thuốc</text><text font-family="Arial,Arial_MSFontService,sans-serif" font-weight="400" font-size="35" transform="matrix(1 0 0 1.00024 436.593 743)">xổ) ~ Accumulation syndrome</text><text font-family="Arial,Arial_MSFontService,sans-serif" font-weight="400" font-size="35" transform="matrix(1 0 0 1.00024 78.6475 781)">12.</text><text font-family="Arial,Arial_MSFontService,sans-serif" font-weight="400" font-size="35" transform="matrix(1 0 0 1.00024 131.834 781)">Thuốc trục</text><text font-family="Arial,Arial_MSFontService,sans-serif" font-weight="400" font-size="35" transform="matrix(1 0 0 1.00024 308.791 781)">thủy</text><text font-family="Arial,Arial_MSFontService,sans-serif" font-weight="400" font-size="35" transform="matrix(1 0 0 1.00024 78.6475 819)">13.</text><text font-family="Arial,Arial_MSFontService,sans-serif" font-weight="400" font-size="35" transform="matrix(1 0 0 1.00024 131.834 819)">Thuốc cố</text><text font-family="Arial,Arial_MSFontService,sans-serif" font-weight="400" font-size="35" transform="matrix(1 0 0 1.00024 287.13 819)">sáp</text><text font-family="Arial,Arial_MSFontService,sans-serif" font-weight="400" font-size="35" transform="matrix(1 0 0 1.00024 346.482 819)">Moistening dryness</text><text font-family="Arial,Arial_MSFontService,sans-serif" font-weight="400" font-size="35" transform="matrix(1 0 0 1.00024 78.6475 858)">14.</text><text font-family="Arial,Arial_MSFontService,sans-serif" font-weight="400" font-size="35" transform="matrix(1 0 0 1.00024 131.834 858)">Thuốc trừ giun</text><text font-family="Arial,Arial_MSFontService,sans-serif" font-weight="400" font-size="35" transform="matrix(1 0 0 1.00024 371.776 858)">sán</text><text font-family="Arial,Arial_MSFontService,sans-serif" font-weight="400" font-size="35" transform="matrix(1 0 0 1.00024 78.6475 897)">15.</text><text font-family="Arial,Arial_MSFontService,sans-serif" font-weight="400" font-size="35" transform="matrix(1 0 0 1.00024 131.834 897)">Thuốc dùng</text><text font-family="Arial,Arial_MSFontService,sans-serif" font-weight="400" font-size="35" transform="matrix(1 0 0 1.00024 328.453 897)">ngoài ~</text><text font-family="Arial,Arial_MSFontService,sans-serif" font-weight="400" font-size="35" transform="matrix(1 0 0 1.00024 432.361 897)">Exterior syndrome</text><text font-family="Arial,Arial_MSFontService,sans-serif" font-weight="700" font-size="45" transform="matrix(1 0 0 1.00024 78.6475 187)">Commonly used treatment methods and their applications</text><text font-family="Arial,Arial_MSFontService,sans-serif" font-weight="700" font-size="61" transform="matrix(1 0 0 1.00024 79.3806 97)">PHÂN LOẠI VỊ THUỐC Y HỌC CỔ TRUYỀN</text></g></svg>