<svg width="1365" height="1024" xmlns="http://www.w3.org/2000/svg" xmlns:xlink="http://www.w3.org/1999/xlink" overflow="hidden"><defs><clipPath id="clip0"><rect x="0" y="0" width="1365" height="1024"/></clipPath></defs><g clip-path="url(#clip0)"><rect x="0" y="0" width="1365" height="1024.25" fill="#FFFFFF"/><text font-family="Arial,Arial_MSFontService,sans-serif" font-weight="700" font-size="29" transform="matrix(1 0 0 1.00024 28.4681 48)">Khuynh hướng tác dụng đa phần ngược chiều với bệnh</text><text font-family="Arial,Arial_MSFontService,sans-serif" font-weight="700" font-size="29" transform="matrix(1 0 0 1.00024 800.113 48)">tật</text><text fill="#BA5263" font-family="Arial,Arial_MSFontService,sans-serif" font-weight="400" font-size="35" transform="matrix(1 0 0 1.00024 28.4681 82)">•</text><text fill="#BA5263" font-family="Arial,Arial_MSFontService,sans-serif" font-weight="700" font-size="29" transform="matrix(1 0 0 1.00024 56.9945 82)">Thăng</text><text font-family="Arial,Arial_MSFontService,sans-serif" font-weight="400" font-size="35" transform="matrix(1 0 0 1.00024 65.659 115)">•</text><text font-family="Arial,Arial_MSFontService,sans-serif" font-weight="400" font-size="29" transform="matrix(1 0 0 1.00024 94.1854 115)">Thuốc lên thượng tiêu</text><text font-family="Arial,Arial_MSFontService,sans-serif" font-weight="400" font-size="29" transform="matrix(1 0 0 1.00024 382.782 115)">-</text><text font-family="Arial,Arial_MSFontService,sans-serif" font-weight="400" font-size="29" transform="matrix(1 0 0 1.00024 390.613 115)">&gt; điều trị bệnh sa</text><text font-family="Arial,Arial_MSFontService,sans-serif" font-weight="400" font-size="29" transform="matrix(1 0 0 1.00024 618.391 115)">giáng</text><text font-family="Arial,Arial_MSFontService,sans-serif" font-weight="400" font-size="35" transform="matrix(1 0 0 1.00024 65.659 150)">•</text><text font-family="Arial,Arial_MSFontService,sans-serif" font-weight="400" font-size="29" transform="matrix(1 0 0 1.00024 94.1854 150)">Vị</text><text font-family="Arial,Arial_MSFontService,sans-serif" font-weight="400" font-size="29" transform="matrix(1 0 0 1.00024 130.856 150)">thuốc</text><text font-family="Arial,Arial_MSFontService,sans-serif" font-weight="400" font-size="29" transform="matrix(1 0 0 1.00024 212.017 150)">chủ</text><text font-family="Arial,Arial_MSFontService,sans-serif" font-weight="400" font-size="29" transform="matrix(1 0 0 1.00024 269.349 150)">thăng</text><text font-family="Arial,Arial_MSFontService,sans-serif" font-weight="400" font-size="29" transform="matrix(1 0 0 1.00024 352.009 150)">-</text><text font-family="Arial,Arial_MSFontService,sans-serif" font-weight="400" font-size="29" transform="matrix(1 0 0 1.00024 359.841 150)">&gt;</text><text font-family="Arial,Arial_MSFontService,sans-serif" font-weight="400" font-size="29" transform="matrix(1 0 0 1.00024 387.847 150)">kiện</text><text font-family="Arial,Arial_MSFontService,sans-serif" font-weight="400" font-size="29" transform="matrix(1 0 0 1.00024 449.832 150)">tỳ,</text><text font-family="Arial,Arial_MSFontService,sans-serif" font-weight="400" font-size="29" transform="matrix(1 0 0 1.00024 491.502 150)">ích</text><text font-family="Arial,Arial_MSFontService,sans-serif" font-weight="400" font-size="29" transform="matrix(1 0 0 1.00024 541.003 150)">khí,</text><text font-family="Arial,Arial_MSFontService,sans-serif" font-weight="400" font-size="29" transform="matrix(1 0 0 1.00024 596.823 150)">thăng</text><text font-family="Arial,Arial_MSFontService,sans-serif" font-weight="400" font-size="29" transform="matrix(1 0 0 1.00024 679.482 150)">Dương</text><text font-family="Arial,Arial_MSFontService,sans-serif" font-weight="400" font-size="29" transform="matrix(1 0 0 1.00024 780.971 150)">khí:</text><text font-family="Arial,Arial_MSFontService,sans-serif" font-weight="400" font-size="29" transform="matrix(1 0 0 1.00024 838.47 150)">Hoàng</text><text font-family="Arial,Arial_MSFontService,sans-serif" font-weight="400" font-size="29" transform="matrix(1 0 0 1.00024 933.794 150)">Kỳ,</text><text font-family="Arial,Arial_MSFontService,sans-serif" font-weight="400" font-size="29" transform="matrix(1 0 0 1.00024 986.461 150)">Đẳng</text><text font-family="Arial,Arial_MSFontService,sans-serif" font-weight="400" font-size="29" transform="matrix(1 0 0 1.00024 1065.95 150)">Sâm,</text><text font-family="Arial,Arial_MSFontService,sans-serif" font-weight="400" font-size="29" transform="matrix(1 0 0 1.00024 1143.95 150)">Thăng</text><text font-family="Arial,Arial_MSFontService,sans-serif" font-weight="400" font-size="29" transform="matrix(1 0 0 1.00024 197.693 184)">Ma, Sài</text><text font-family="Arial,Arial_MSFontService,sans-serif" font-weight="400" font-size="29" transform="matrix(1 0 0 1.00024 302.501 184)">Hồ</text><text fill="#BA5263" font-family="Arial,Arial_MSFontService,sans-serif" font-weight="400" font-size="35" transform="matrix(1 0 0 1.00024 28.4681 219)">•</text><text fill="#BA5263" font-family="Arial,Arial_MSFontService,sans-serif" font-weight="700" font-size="29" transform="matrix(1 0 0 1.00024 56.9945 219)">Giáng</text><text font-family="Arial,Arial_MSFontService,sans-serif" font-weight="400" font-size="35" transform="matrix(1 0 0 1.00024 65.659 252)">•</text><text font-family="Arial,Arial_MSFontService,sans-serif" font-weight="400" font-size="29" transform="matrix(1 0 0 1.00024 94.1854 252)">Thuốc</text><text font-family="Arial,Arial_MSFontService,sans-serif" font-weight="400" font-size="29" transform="matrix(1 0 0 1.00024 183.164 252)">xuống</text><text font-family="Arial,Arial_MSFontService,sans-serif" font-weight="400" font-size="29" transform="matrix(1 0 0 1.00024 270.476 252)">hạ</text><text font-family="Arial,Arial_MSFontService,sans-serif" font-weight="400" font-size="29" transform="matrix(1 0 0 1.00024 311.799 252)">tiêu</text><text font-family="Arial,Arial_MSFontService,sans-serif" font-weight="400" font-size="29" transform="matrix(1 0 0 1.00024 367.452 252)">-</text><text font-family="Arial,Arial_MSFontService,sans-serif" font-weight="400" font-size="29" transform="matrix(1 0 0 1.00024 376.95 252)">&gt;</text><text font-family="Arial,Arial_MSFontService,sans-serif" font-weight="400" font-size="29" transform="matrix(1 0 0 1.00024 403.277 252)">điều</text><text font-family="Arial,Arial_MSFontService,sans-serif" font-weight="400" font-size="29" transform="matrix(1 0 0 1.00024 466.761 252)">trị</text><text font-family="Arial,Arial_MSFontService,sans-serif" font-weight="400" font-size="29" transform="matrix(1 0 0 1.00024 500.253 252)">bệnh</text><text font-family="Arial,Arial_MSFontService,sans-serif" font-weight="400" font-size="29" transform="matrix(1 0 0 1.00024 573.235 252)">thượng</text><text font-family="Arial,Arial_MSFontService,sans-serif" font-weight="400" font-size="29" transform="matrix(1 0 0 1.00024 676.21 252)">nghịch</text><text font-family="Arial,Arial_MSFontService,sans-serif" font-weight="400" font-size="29" transform="matrix(1 0 0 1.00024 769.854 252)">(hen</text><text font-family="Arial,Arial_MSFontService,sans-serif" font-weight="400" font-size="29" transform="matrix(1 0 0 1.00024 836.504 252)">suyễn,</text><text font-family="Arial,Arial_MSFontService,sans-serif" font-weight="400" font-size="29" transform="matrix(1 0 0 1.00024 930.315 252)">khó</text><text font-family="Arial,Arial_MSFontService,sans-serif" font-weight="400" font-size="29" transform="matrix(1 0 0 1.00024 985.968 252)">thở,</text><text font-family="Arial,Arial_MSFontService,sans-serif" font-weight="400" font-size="29" transform="matrix(1 0 0 1.00024 1046.12 252)">ho</text><text font-family="Arial,Arial_MSFontService,sans-serif" font-weight="400" font-size="29" transform="matrix(1 0 0 1.00024 1087.44 252)">đờm,</text><text font-family="Arial,Arial_MSFontService,sans-serif" font-weight="400" font-size="29" transform="matrix(1 0 0 1.00024 1163.42 252)">nôn</text><text font-family="Arial,Arial_MSFontService,sans-serif" font-weight="400" font-size="29" transform="matrix(1 0 0 1.00024 1213.05 252)">mửa)</text><text font-family="Arial,Arial_MSFontService,sans-serif" font-weight="400" font-size="35" transform="matrix(1 0 0 1.00024 65.659 287)">•</text><text font-family="Arial,Arial_MSFontService,sans-serif" font-weight="400" font-size="29" transform="matrix(1 0 0 1.00024 94.1854 287)">Vị thuốc chủ giáng</text><text font-family="Arial,Arial_MSFontService,sans-serif" font-weight="400" font-size="29" transform="matrix(1 0 0 1.00024 336.959 287)">-</text><text font-family="Arial,Arial_MSFontService,sans-serif" font-weight="400" font-size="29" transform="matrix(1 0 0 1.00024 344.791 287)">&gt; hạ khí, giáng khí, bình suyễn: Ma Hoàng, Hạnh Nhân, Cát</text><text font-family="Arial,Arial_MSFontService,sans-serif" font-weight="400" font-size="29" transform="matrix(1 0 0 1.00024 1111.1 287)">Cánh,…</text><text font-family="Arial,Arial_MSFontService,sans-serif" font-weight="400" font-size="29" transform="matrix(1 0 0 1.00024 1213.05 287)">(hạ phế</text><text font-family="Arial,Arial_MSFontService,sans-serif" font-weight="400" font-size="29" transform="matrix(1 0 0 1.00024 94.1854 321)">khí), Thị đế, Bán Hạ, Phục Long Can,… (hạ vị</text><text font-family="Arial,Arial_MSFontService,sans-serif" font-weight="400" font-size="29" transform="matrix(1 0 0 1.00024 683.208 321)">khí)</text><text fill="#BA5263" font-family="Arial,Arial_MSFontService,sans-serif" font-weight="400" font-size="35" transform="matrix(1 0 0 1.00024 28.4681 356)">•</text><text fill="#BA5263" font-family="Arial,Arial_MSFontService,sans-serif" font-weight="400" font-size="29" transform="matrix(1 0 0 1.00024 56.9945 356)">Phù</text><text font-family="Arial,Arial_MSFontService,sans-serif" font-weight="400" font-size="35" transform="matrix(1 0 0 1.00024 65.659 390)">•</text><text font-family="Arial,Arial_MSFontService,sans-serif" font-weight="400" font-size="29" transform="matrix(1 0 0 1.00024 94.1854 390)">Thuốc hướng ra phía ngoài (biểu)</text><text font-family="Arial,Arial_MSFontService,sans-serif" font-weight="400" font-size="29" transform="matrix(1 0 0 1.00024 530.079 390)">-</text><text font-family="Arial,Arial_MSFontService,sans-serif" font-weight="400" font-size="29" transform="matrix(1 0 0 1.00024 537.91 390)">&gt; bệnh có xu hướng vào trong lý (Cảm mạo</text><text font-family="Arial,Arial_MSFontService,sans-serif" font-weight="400" font-size="29" transform="matrix(1 0 0 1.00024 1100.44 390)">phong</text><text font-family="Arial,Arial_MSFontService,sans-serif" font-weight="400" font-size="29" transform="matrix(1 0 0 1.00024 1177.59 390)">Hàn, cảm</text><text font-family="Arial,Arial_MSFontService,sans-serif" font-weight="400" font-size="29" transform="matrix(1 0 0 1.00024 94.1854 424)">mạo phong</text><text font-family="Arial,Arial_MSFontService,sans-serif" font-weight="400" font-size="29" transform="matrix(1 0 0 1.00024 244.815 424)">nhiệt)</text><text font-family="Arial,Arial_MSFontService,sans-serif" font-weight="400" font-size="35" transform="matrix(1 0 0 1.00024 65.659 458)">•</text><text font-family="Arial,Arial_MSFontService,sans-serif" font-weight="400" font-size="29" transform="matrix(1 0 0 1.00024 94.1854 458)">Vị</text><text font-family="Arial,Arial_MSFontService,sans-serif" font-weight="400" font-size="29" transform="matrix(1 0 0 1.00024 131.11 458)">thuốc</text><text font-family="Arial,Arial_MSFontService,sans-serif" font-weight="400" font-size="29" transform="matrix(1 0 0 1.00024 212.696 458)">chủ</text><text font-family="Arial,Arial_MSFontService,sans-serif" font-weight="400" font-size="29" transform="matrix(1 0 0 1.00024 270.202 458)">phù</text><text font-family="Arial,Arial_MSFontService,sans-serif" font-weight="400" font-size="29" transform="matrix(1 0 0 1.00024 329.368 458)">-</text><text font-family="Arial,Arial_MSFontService,sans-serif" font-weight="400" font-size="29" transform="matrix(1 0 0 1.00024 338.706 458)">&gt;</text><text font-family="Arial,Arial_MSFontService,sans-serif" font-weight="400" font-size="29" transform="matrix(1 0 0 1.00024 366.965 458)">phát</text><text font-family="Arial,Arial_MSFontService,sans-serif" font-weight="400" font-size="29" transform="matrix(1 0 0 1.00024 434.222 458)">hãn,</text><text font-family="Arial,Arial_MSFontService,sans-serif" font-weight="400" font-size="29" transform="matrix(1 0 0 1.00024 501.306 458)">phát</text><text font-family="Arial,Arial_MSFontService,sans-serif" font-weight="400" font-size="29" transform="matrix(1 0 0 1.00024 568.563 458)">tán,</text><text font-family="Arial,Arial_MSFontService,sans-serif" font-weight="400" font-size="29" transform="matrix(1 0 0 1.00024 627.895 458)">giải</text><text font-family="Arial,Arial_MSFontService,sans-serif" font-weight="400" font-size="29" transform="matrix(1 0 0 1.00024 683.815 458)">biểu,</text><text font-family="Arial,Arial_MSFontService,sans-serif" font-weight="400" font-size="29" transform="matrix(1 0 0 1.00024 757.31 458)">hạ</text><text font-family="Arial,Arial_MSFontService,sans-serif" font-weight="400" font-size="29" transform="matrix(1 0 0 1.00024 800.646 458)">nhiệt,</text><text font-family="Arial,Arial_MSFontService,sans-serif" font-weight="400" font-size="29" transform="matrix(1 0 0 1.00024 882.14 458)">chỉ</text><text font-family="Arial,Arial_MSFontService,sans-serif" font-weight="400" font-size="29" transform="matrix(1 0 0 1.00024 930.041 458)">thống:</text><text font-family="Arial,Arial_MSFontService,sans-serif" font-weight="400" font-size="29" transform="matrix(1 0 0 1.00024 1021.13 458)">Quế</text><text font-family="Arial,Arial_MSFontService,sans-serif" font-weight="400" font-size="29" transform="matrix(1 0 0 1.00024 1086.46 458)">Chi,</text><text font-family="Arial,Arial_MSFontService,sans-serif" font-weight="400" font-size="29" transform="matrix(1 0 0 1.00024 1148.8 458)">Phòng</text><text font-family="Arial,Arial_MSFontService,sans-serif" font-weight="400" font-size="29" transform="matrix(1 0 0 1.00024 197.693 492)">Phong,</text><text font-family="Arial,Arial_MSFontService,sans-serif" font-weight="400" font-size="29" transform="matrix(1 0 0 1.00024 296.243 492)">Tế Tân,</text><text font-family="Arial,Arial_MSFontService,sans-serif" font-weight="400" font-size="29" transform="matrix(1 0 0 1.00024 403.383 492)">Bạch</text><text font-family="Arial,Arial_MSFontService,sans-serif" font-weight="400" font-size="29" transform="matrix(1 0 0 1.00024 476.779 492)">Chỉ,</text><text font-family="Arial,Arial_MSFontService,sans-serif" font-weight="400" font-size="29" transform="matrix(1 0 0 1.00024 536.344 492)">Cát</text><text font-family="Arial,Arial_MSFontService,sans-serif" font-weight="400" font-size="29" transform="matrix(1 0 0 1.00024 589.324 492)">Căn,</text><text font-family="Arial,Arial_MSFontService,sans-serif" font-weight="400" font-size="29" transform="matrix(1 0 0 1.00024 657.561 492)">Tang</text><text font-family="Arial,Arial_MSFontService,sans-serif" font-weight="400" font-size="29" transform="matrix(1 0 0 1.00024 729.957 492)">Diệp,</text><text font-family="Arial,Arial_MSFontService,sans-serif" font-weight="400" font-size="29" transform="matrix(1 0 0 1.00024 805.192 492)">Cúc</text><text font-family="Arial,Arial_MSFontService,sans-serif" font-weight="400" font-size="29" transform="matrix(1 0 0 1.00024 864.597 492)">Hoa,</text><text font-family="Arial,Arial_MSFontService,sans-serif" font-weight="400" font-size="29" transform="matrix(1 0 0 1.00024 933.5 492)">Mạn</text><text font-family="Arial,Arial_MSFontService,sans-serif" font-weight="400" font-size="29" transform="matrix(1 0 0 1.00024 997.651 492)">Kinh</text><text font-family="Arial,Arial_MSFontService,sans-serif" font-weight="400" font-size="29" transform="matrix(1 0 0 1.00024 1062.56 492)">T</text><text fill="#BA5263" font-family="Arial,Arial_MSFontService,sans-serif" font-weight="400" font-size="35" transform="matrix(1 0 0 1.00024 28.4681 526)">•</text><text fill="#BA5263" font-family="Arial,Arial_MSFontService,sans-serif" font-weight="400" font-size="29" transform="matrix(1 0 0 1.00024 56.9945 526)">Trầm</text><text font-family="Arial,Arial_MSFontService,sans-serif" font-weight="400" font-size="35" transform="matrix(1 0 0 1.00024 65.659 561)">•</text><text font-family="Arial,Arial_MSFontService,sans-serif" font-weight="400" font-size="29" transform="matrix(1 0 0 1.00024 94.1854 561)">Thuốc</text><text font-family="Arial,Arial_MSFontService,sans-serif" font-weight="400" font-size="29" transform="matrix(1 0 0 1.00024 187.029 561)">đi</text><text font-family="Arial,Arial_MSFontService,sans-serif" font-weight="400" font-size="29" transform="matrix(1 0 0 1.00024 222.627 561)">vào</text><text font-family="Arial,Arial_MSFontService,sans-serif" font-weight="400" font-size="29" transform="matrix(1 0 0 1.00024 282.226 561)">trong</text><text font-family="Arial,Arial_MSFontService,sans-serif" font-weight="400" font-size="29" transform="matrix(1 0 0 1.00024 360.994 561)">(lý)</text><text font-family="Arial,Arial_MSFontService,sans-serif" font-weight="400" font-size="29" transform="matrix(1 0 0 1.00024 414.181 561)">-</text><text font-family="Arial,Arial_MSFontService,sans-serif" font-weight="400" font-size="29" transform="matrix(1 0 0 1.00024 423.518 561)">&gt;</text><text font-family="Arial,Arial_MSFontService,sans-serif" font-weight="400" font-size="29" transform="matrix(1 0 0 1.00024 453.791 561)">bệnh</text><text font-family="Arial,Arial_MSFontService,sans-serif" font-weight="400" font-size="29" transform="matrix(1 0 0 1.00024 530.466 561)">có</text><text font-family="Arial,Arial_MSFontService,sans-serif" font-weight="400" font-size="29" transform="matrix(1 0 0 1.00024 574.062 561)">xu</text><text font-family="Arial,Arial_MSFontService,sans-serif" font-weight="400" font-size="29" transform="matrix(1 0 0 1.00024 617.751 561)">hướng</text><text font-family="Arial,Arial_MSFontService,sans-serif" font-weight="400" font-size="29" transform="matrix(1 0 0 1.00024 716.593 561)">phù</text><text font-family="Arial,Arial_MSFontService,sans-serif" font-weight="400" font-size="29" transform="matrix(1 0 0 1.00024 777.692 561)">nổi</text><text font-family="Arial,Arial_MSFontService,sans-serif" font-weight="400" font-size="29" transform="matrix(1 0 0 1.00024 829.119 561)">ra</text><text font-family="Arial,Arial_MSFontService,sans-serif" font-weight="400" font-size="29" transform="matrix(1 0 0 1.00024 868.136 561)">biểu</text><text font-family="Arial,Arial_MSFontService,sans-serif" font-weight="400" font-size="29" transform="matrix(1 0 0 1.00024 935.393 561)">(đạo</text><text font-family="Arial,Arial_MSFontService,sans-serif" font-weight="400" font-size="29" transform="matrix(1 0 0 1.00024 1005.91 561)">hãn,</text><text font-family="Arial,Arial_MSFontService,sans-serif" font-weight="400" font-size="29" transform="matrix(1 0 0 1.00024 1075.09 561)">tự</text><text font-family="Arial,Arial_MSFontService,sans-serif" font-weight="400" font-size="29" transform="matrix(1 0 0 1.00024 1115.78 561)">hãn,</text><text font-family="Arial,Arial_MSFontService,sans-serif" font-weight="400" font-size="29" transform="matrix(1 0 0 1.00024 1184.87 561)">phù</text><text font-family="Arial,Arial_MSFontService,sans-serif" font-weight="400" font-size="29" transform="matrix(1 0 0 1.00024 197.693 595)">thũng,</text><text font-family="Arial,Arial_MSFontService,sans-serif" font-weight="400" font-size="29" transform="matrix(1 0 0 1.00024 285.832 595)">mụn</text><text font-family="Arial,Arial_MSFontService,sans-serif" font-weight="400" font-size="29" transform="matrix(1 0 0 1.00024 350.063 595)">nhọt,</text><text font-family="Arial,Arial_MSFontService,sans-serif" font-weight="400" font-size="29" transform="matrix(1 0 0 1.00024 422.132 595)">ban</text><text font-family="Arial,Arial_MSFontService,sans-serif" font-weight="400" font-size="29" transform="matrix(1 0 0 1.00024 478.285 595)">chẩn,</text><text font-family="Arial,Arial_MSFontService,sans-serif" font-weight="400" font-size="29" transform="matrix(1 0 0 1.00024 556.766 595)">dị</text><text font-family="Arial,Arial_MSFontService,sans-serif" font-weight="400" font-size="29" transform="matrix(1 0 0 1.00024 587.418 595)">ứng,</text><text font-family="Arial,Arial_MSFontService,sans-serif" font-weight="400" font-size="29" transform="matrix(1 0 0 1.00024 654.822 595)">mẩn</text><text font-family="Arial,Arial_MSFontService,sans-serif" font-weight="400" font-size="29" transform="matrix(1 0 0 1.00024 718.973 595)">ngứa)</text><text font-family="Arial,Arial_MSFontService,sans-serif" font-weight="400" font-size="35" transform="matrix(1 0 0 1.00024 65.659 630)">•</text><text font-family="Arial,Arial_MSFontService,sans-serif" font-weight="400" font-size="29" transform="matrix(1 0 0 1.00024 94.1854 630)">Vị</text><text font-family="Arial,Arial_MSFontService,sans-serif" font-weight="400" font-size="29" transform="matrix(1 0 0 1.00024 129.35 630)">thuốc</text><text font-family="Arial,Arial_MSFontService,sans-serif" font-weight="400" font-size="29" transform="matrix(1 0 0 1.00024 209.257 630)">chủ</text><text font-family="Arial,Arial_MSFontService,sans-serif" font-weight="400" font-size="29" transform="matrix(1 0 0 1.00024 265.244 630)">trầm</text><text font-family="Arial,Arial_MSFontService,sans-serif" font-weight="400" font-size="29" transform="matrix(1 0 0 1.00024 332.487 630)">-</text><text font-family="Arial,Arial_MSFontService,sans-serif" font-weight="400" font-size="29" transform="matrix(1 0 0 1.00024 341.825 630)">&gt;</text><text font-family="Arial,Arial_MSFontService,sans-serif" font-weight="400" font-size="29" transform="matrix(1 0 0 1.00024 368.392 630)">lợi</text><text font-family="Arial,Arial_MSFontService,sans-serif" font-weight="400" font-size="29" transform="matrix(1 0 0 1.00024 409.808 630)">niệu,</text><text font-family="Arial,Arial_MSFontService,sans-serif" font-weight="400" font-size="29" transform="matrix(1 0 0 1.00024 481.797 630)">thẩm</text><text font-family="Arial,Arial_MSFontService,sans-serif" font-weight="400" font-size="29" transform="matrix(1 0 0 1.00024 555.279 630)">thấp</text><text font-family="Arial,Arial_MSFontService,sans-serif" font-weight="400" font-size="29" transform="matrix(1 0 0 1.00024 620.857 630)">(Kim</text><text font-family="Arial,Arial_MSFontService,sans-serif" font-weight="400" font-size="29" transform="matrix(1 0 0 1.00024 689.68 630)">Tiền</text><text font-family="Arial,Arial_MSFontService,sans-serif" font-weight="400" font-size="29" transform="matrix(1 0 0 1.00024 755.164 630)">Thảo,</text><text font-family="Arial,Arial_MSFontService,sans-serif" font-weight="400" font-size="29" transform="matrix(1 0 0 1.00024 838.144 630)">Xa</text><text font-family="Arial,Arial_MSFontService,sans-serif" font-weight="400" font-size="29" transform="matrix(1 0 0 1.00024 883.139 630)">Tiền</text><text font-family="Arial,Arial_MSFontService,sans-serif" font-weight="400" font-size="29" transform="matrix(1 0 0 1.00024 948.623 630)">Tử,</text><text font-family="Arial,Arial_MSFontService,sans-serif" font-weight="400" font-size="29" transform="matrix(1 0 0 1.00024 1003.28 630)">Tỳ</text><text font-family="Arial,Arial_MSFontService,sans-serif" font-weight="400" font-size="29" transform="matrix(1 0 0 1.00024 1044.86 630)">Giải,…),</text><text font-family="Arial,Arial_MSFontService,sans-serif" font-weight="400" font-size="29" transform="matrix(1 0 0 1.00024 1159.5 630)">thanh</text><text font-family="Arial,Arial_MSFontService,sans-serif" font-weight="400" font-size="29" transform="matrix(1 0 0 1.00024 197.693 664)">nhiệt,</text><text font-family="Arial,Arial_MSFontService,sans-serif" font-weight="400" font-size="29" transform="matrix(1 0 0 1.00024 280.36 664)">giải</text><text font-family="Arial,Arial_MSFontService,sans-serif" font-weight="400" font-size="29" transform="matrix(1 0 0 1.00024 337.626 664)">độc</text><text font-family="Arial,Arial_MSFontService,sans-serif" font-weight="400" font-size="29" transform="matrix(1 0 0 1.00024 396.891 664)">(Kim</text><text font-family="Arial,Arial_MSFontService,sans-serif" font-weight="400" font-size="29" transform="matrix(1 0 0 1.00024 468.487 664)">Ngân</text><text font-family="Arial,Arial_MSFontService,sans-serif" font-weight="400" font-size="29" transform="matrix(1 0 0 1.00024 549.408 664)">Hoa,</text><text font-family="Arial,Arial_MSFontService,sans-serif" font-weight="400" font-size="29" transform="matrix(1 0 0 1.00024 622.576 664)">Liên</text><text font-family="Arial,Arial_MSFontService,sans-serif" font-weight="400" font-size="29" transform="matrix(1 0 0 1.00024 689.167 664)">Kiều,</text><text font-family="Arial,Arial_MSFontService,sans-serif" font-weight="400" font-size="29" transform="matrix(1 0 0 1.00024 767.174 664)">Bồ</text><text font-family="Arial,Arial_MSFontService,sans-serif" font-weight="400" font-size="29" transform="matrix(1 0 0 1.00024 814.769 664)">Công</text><text font-family="Arial,Arial_MSFontService,sans-serif" font-weight="400" font-size="29" transform="matrix(1 0 0 1.00024 895.69 664)">Anh,</text><text font-family="Arial,Arial_MSFontService,sans-serif" font-weight="400" font-size="29" transform="matrix(1 0 0 1.00024 967.445 664)">Sài</text><text font-family="Arial,Arial_MSFontService,sans-serif" font-weight="400" font-size="29" transform="matrix(1 0 0 1.00024 1021.55 664)">Đất),</text><text font-family="Arial,Arial_MSFontService,sans-serif" font-weight="400" font-size="29" transform="matrix(1 0 0 1.00024 1096.38 664)">tả</text><text font-family="Arial,Arial_MSFontService,sans-serif" font-weight="400" font-size="29" transform="matrix(1 0 0 1.00024 1133.23 664)">hạ</text><text font-family="Arial,Arial_MSFontService,sans-serif" font-weight="400" font-size="29" transform="matrix(1 0 0 1.00024 1177.74 664)">(Đại</text><text font-family="Arial,Arial_MSFontService,sans-serif" font-weight="400" font-size="29" transform="matrix(1 0 0 1.00024 1243 664)">Hoàng,</text><text font-family="Arial,Arial_MSFontService,sans-serif" font-weight="400" font-size="29" transform="matrix(1 0 0 1.00024 197.693 697)">Mang</text><text font-family="Arial,Arial_MSFontService,sans-serif" font-weight="400" font-size="29" transform="matrix(1 0 0 1.00024 276.767 697)">Tiêu,</text><text font-family="Arial,Arial_MSFontService,sans-serif" font-weight="400" font-size="29" transform="matrix(1 0 0 1.00024 348.01 697)">Trầm</text><text font-family="Arial,Arial_MSFontService,sans-serif" font-weight="400" font-size="29" transform="matrix(1 0 0 1.00024 423.072 697)">Hương,</text><text font-family="Arial,Arial_MSFontService,sans-serif" font-weight="400" font-size="29" transform="matrix(1 0 0 1.00024 528.879 697)">Tô</text><text font-family="Arial,Arial_MSFontService,sans-serif" font-weight="400" font-size="29" transform="matrix(1 0 0 1.00024 570.362 697)">Mộc)</text><text fill="#BA5263" font-family="Calibri,Calibri_MSFontService,sans-serif" font-weight="400" font-size="35" transform="matrix(1 0 0 1.00024 28.4681 731)">•</text><text fill="#BA5263" font-family="Calibri,Calibri_MSFontService,sans-serif" font-weight="400" font-size="29" transform="matrix(1 0 0 1.00024 56.9945 731)">Thăng</text><text fill="#BA5263" font-family="Calibri,Calibri_MSFontService,sans-serif" font-weight="400" font-size="29" transform="matrix(1 0 0 1.00024 134.915 731)">Phù:</text><text font-family="Calibri,Calibri_MSFontService,sans-serif" font-weight="400" font-size="29" transform="matrix(1 0 0 1.00024 194.254 731)">phát</text><text font-family="Calibri,Calibri_MSFontService,sans-serif" font-weight="400" font-size="29" transform="matrix(1 0 0 1.00024 254.2 731)">biểu,</text><text font-family="Calibri,Calibri_MSFontService,sans-serif" font-weight="400" font-size="29" transform="matrix(1 0 0 1.00024 318.891 731)">thăng</text><text font-family="Calibri,Calibri_MSFontService,sans-serif" font-weight="400" font-size="29" transform="matrix(1 0 0 1.00024 392.413 731)">Dương,</text><text font-family="Calibri,Calibri_MSFontService,sans-serif" font-weight="400" font-size="29" transform="matrix(1 0 0 1.00024 486.016 731)">tán</text><text font-family="Calibri,Calibri_MSFontService,sans-serif" font-weight="400" font-size="29" transform="matrix(1 0 0 1.00024 531.045 731)">hàn</text><text fill="#BA5263" font-family="Calibri,Calibri_MSFontService,sans-serif" font-weight="400" font-size="35" transform="matrix(1 0 0 1.00024 28.4681 765)">•</text><text fill="#BA5263" font-family="Calibri,Calibri_MSFontService,sans-serif" font-weight="400" font-size="29" transform="matrix(1 0 0 1.00024 56.9945 765)">Giáng</text><text fill="#BA5263" font-family="Calibri,Calibri_MSFontService,sans-serif" font-weight="400" font-size="29" transform="matrix(1 0 0 1.00024 129.997 765)">Trầm:</text><text font-family="Calibri,Calibri_MSFontService,sans-serif" font-weight="400" font-size="29" transform="matrix(1 0 0 1.00024 204.998 765)">tiềm</text><text font-family="Calibri,Calibri_MSFontService,sans-serif" font-weight="400" font-size="29" transform="matrix(1 0 0 1.00024 264.857 765)">Dương,</text><text font-family="Calibri,Calibri_MSFontService,sans-serif" font-weight="400" font-size="29" transform="matrix(1 0 0 1.00024 358.461 765)">giáng</text><text font-family="Calibri,Calibri_MSFontService,sans-serif" font-weight="400" font-size="29" transform="matrix(1 0 0 1.00024 427.711 765)">nghịch,</text><text font-family="Calibri,Calibri_MSFontService,sans-serif" font-weight="400" font-size="29" transform="matrix(1 0 0 1.00024 518.568 765)">thanh</text><text font-family="Calibri,Calibri_MSFontService,sans-serif" font-weight="400" font-size="29" transform="matrix(1 0 0 1.00024 593.43 765)">nhiệt,</text><text font-family="Calibri,Calibri_MSFontService,sans-serif" font-weight="400" font-size="29" transform="matrix(1 0 0 1.00024 667.459 765)">thẩm</text><text font-family="Calibri,Calibri_MSFontService,sans-serif" font-weight="400" font-size="29" transform="matrix(1 0 0 1.00024 735.542 765)">thấp,</text><text font-family="Calibri,Calibri_MSFontService,sans-serif" font-weight="400" font-size="29" transform="matrix(1 0 0 1.00024 802.572 765)">tả</text><text font-family="Calibri,Calibri_MSFontService,sans-serif" font-weight="400" font-size="29" transform="matrix(1 0 0 1.00024 832.672 765)">hạ,</text><text font-family="Calibri,Calibri_MSFontService,sans-serif" font-weight="400" font-size="29" transform="matrix(1 0 0 1.00024 875.368 765)">thu</text><text font-family="Calibri,Calibri_MSFontService,sans-serif" font-weight="400" font-size="29" transform="matrix(1 0 0 1.00024 921.957 765)">liễm</text><text fill="#BA5263" font-family="Calibri,Calibri_MSFontService,sans-serif" font-weight="400" font-size="35" transform="matrix(1 0 0 1.00024 28.4681 800)">•</text><text fill="#BA5263" font-family="Calibri,Calibri_MSFontService,sans-serif" font-weight="400" font-size="29" transform="matrix(1 0 0 1.00024 56.9945 800)">Chế</text><text fill="#BA5263" font-family="Calibri,Calibri_MSFontService,sans-serif" font-weight="400" font-size="29" transform="matrix(1 0 0 1.00024 108.415 800)">biến</text><text fill="#BA5263" font-family="Calibri,Calibri_MSFontService,sans-serif" font-weight="400" font-size="29" transform="matrix(1 0 0 1.00024 166.088 800)">có</text><text fill="#BA5263" font-family="Calibri,Calibri_MSFontService,sans-serif" font-weight="400" font-size="29" transform="matrix(1 0 0 1.00024 199.873 800)">thể</text><text fill="#BA5263" font-family="Calibri,Calibri_MSFontService,sans-serif" font-weight="400" font-size="29" transform="matrix(1 0 0 1.00024 245.548 800)">làm</text><text fill="#BA5263" font-family="Calibri,Calibri_MSFontService,sans-serif" font-weight="400" font-size="29" transform="matrix(1 0 0 1.00024 295.556 800)">thay</text><text fill="#BA5263" font-family="Calibri,Calibri_MSFontService,sans-serif" font-weight="400" font-size="29" transform="matrix(1 0 0 1.00024 353.109 800)">đổi</text><text fill="#BA5263" font-family="Calibri,Calibri_MSFontService,sans-serif" font-weight="400" font-size="29" transform="matrix(1 0 0 1.00024 397.285 800)">khuynh</text><text fill="#BA5263" font-family="Calibri,Calibri_MSFontService,sans-serif" font-weight="400" font-size="29" transform="matrix(1 0 0 1.00024 489.889 800)">hướng</text><text fill="#BA5263" font-family="Calibri,Calibri_MSFontService,sans-serif" font-weight="400" font-size="29" transform="matrix(1 0 0 1.00024 573.602 800)">của</text><text fill="#BA5263" font-family="Calibri,Calibri_MSFontService,sans-serif" font-weight="400" font-size="29" transform="matrix(1 0 0 1.00024 621.13 800)">thuốc</text><text font-family="Arial,Arial_MSFontService,sans-serif" font-weight="400" font-size="35" transform="matrix(1 0 0 1.00024 140.041 834)">•</text><text font-family="Arial,Arial_MSFontService,sans-serif" font-weight="400" font-size="29" transform="matrix(1 0 0 1.00024 168.567 834)">Hoàng</text><text font-family="Arial,Arial_MSFontService,sans-serif" font-weight="400" font-size="29" transform="matrix(1 0 0 1.00024 261.371 834)">Liên</text><text font-family="Arial,Arial_MSFontService,sans-serif" font-weight="400" font-size="29" transform="matrix(1 0 0 1.00024 323.603 834)">(giáng)</text><text font-family="Arial,Arial_MSFontService,sans-serif" font-weight="400" font-size="29" transform="matrix(1 0 0 1.00024 421.419 834)">-</text><text font-family="Arial,Arial_MSFontService,sans-serif" font-weight="400" font-size="29" transform="matrix(1 0 0 1.00024 430.757 834)">&gt;</text><text font-family="Arial,Arial_MSFontService,sans-serif" font-weight="400" font-size="29" transform="matrix(1 0 0 1.00024 455.75 834)">sao</text><text font-family="Arial,Arial_MSFontService,sans-serif" font-weight="400" font-size="29" transform="matrix(1 0 0 1.00024 510.324 834)">rượu</text><text font-family="Arial,Arial_MSFontService,sans-serif" font-weight="400" font-size="29" transform="matrix(1 0 0 1.00024 582.06 834)">-</text><text font-family="Arial,Arial_MSFontService,sans-serif" font-weight="400" font-size="29" transform="matrix(1 0 0 1.00024 591.397 834)">&gt;</text><text font-family="Arial,Arial_MSFontService,sans-serif" font-weight="400" font-size="29" transform="matrix(1 0 0 1.00024 616.471 834)">thăng</text><text font-family="Arial,Arial_MSFontService,sans-serif" font-weight="400" font-size="35" transform="matrix(1 0 0 1.00024 140.041 868)">•</text><text font-family="Arial,Arial_MSFontService,sans-serif" font-weight="400" font-size="29" transform="matrix(1 0 0 1.00024 168.567 868)">Tri</text><text font-family="Arial,Arial_MSFontService,sans-serif" font-weight="400" font-size="29" transform="matrix(1 0 0 1.00024 210.304 868)">Mẫu</text><text font-family="Arial,Arial_MSFontService,sans-serif" font-weight="400" font-size="29" transform="matrix(1 0 0 1.00024 274.281 868)">(thăng)</text><text font-family="Arial,Arial_MSFontService,sans-serif" font-weight="400" font-size="29" transform="matrix(1 0 0 1.00024 373.257 868)">-</text><text font-family="Arial,Arial_MSFontService,sans-serif" font-weight="400" font-size="29" transform="matrix(1 0 0 1.00024 382.595 868)">&gt;</text><text font-family="Arial,Arial_MSFontService,sans-serif" font-weight="400" font-size="29" transform="matrix(1 0 0 1.00024 407.669 868)">sao</text><text font-family="Arial,Arial_MSFontService,sans-serif" font-weight="400" font-size="29" transform="matrix(1 0 0 1.00024 461.896 868)">muối</text><text font-family="Arial,Arial_MSFontService,sans-serif" font-weight="400" font-size="29" transform="matrix(1 0 0 1.00024 532.205 868)">-</text><text font-family="Arial,Arial_MSFontService,sans-serif" font-weight="400" font-size="29" transform="matrix(1 0 0 1.00024 541.543 868)">&gt;</text><text font-family="Arial,Arial_MSFontService,sans-serif" font-weight="400" font-size="29" transform="matrix(1 0 0 1.00024 566.617 868)">giáng</text><text font-family="Arial,Arial_MSFontService,sans-serif" font-weight="400" font-size="35" transform="matrix(1 0 0 1.00024 140.041 903)">•</text><text font-family="Arial,Arial_MSFontService,sans-serif" font-weight="400" font-size="29" transform="matrix(1 0 0 1.00024 168.567 903)">Bán</text><text font-family="Arial,Arial_MSFontService,sans-serif" font-weight="400" font-size="29" transform="matrix(1 0 0 1.00024 227.633 903)">hạ,</text><text font-family="Arial,Arial_MSFontService,sans-serif" font-weight="400" font-size="29" transform="matrix(1 0 0 1.00024 276.034 903)">tỳ</text><text font-family="Arial,Arial_MSFontService,sans-serif" font-weight="400" font-size="29" transform="matrix(1 0 0 1.00024 306.853 903)">bà</text><text font-family="Arial,Arial_MSFontService,sans-serif" font-weight="400" font-size="29" transform="matrix(1 0 0 1.00024 347.004 903)">diệp</text><text font-family="Arial,Arial_MSFontService,sans-serif" font-weight="400" font-size="29" transform="matrix(1 0 0 1.00024 409.408 903)">(trầm)</text><text font-family="Arial,Arial_MSFontService,sans-serif" font-weight="400" font-size="29" transform="matrix(1 0 0 1.00024 494.474 903)">-</text><text font-family="Arial,Arial_MSFontService,sans-serif" font-weight="400" font-size="29" transform="matrix(1 0 0 1.00024 503.812 903)">&gt;</text><text font-family="Arial,Arial_MSFontService,sans-serif" font-weight="400" font-size="29" transform="matrix(1 0 0 1.00024 528.886 903)">sao</text><text font-family="Arial,Arial_MSFontService,sans-serif" font-weight="400" font-size="29" transform="matrix(1 0 0 1.00024 583.539 903)">nước</text><text font-family="Arial,Arial_MSFontService,sans-serif" font-weight="400" font-size="29" transform="matrix(1 0 0 1.00024 659.934 903)">gừng</text><text font-family="Arial,Arial_MSFontService,sans-serif" font-weight="400" font-size="29" transform="matrix(1 0 0 1.00024 734.996 903)">-</text><text font-family="Arial,Arial_MSFontService,sans-serif" font-weight="400" font-size="29" transform="matrix(1 0 0 1.00024 744.333 903)">&gt;</text><text font-family="Arial,Arial_MSFontService,sans-serif" font-weight="400" font-size="29" transform="matrix(1 0 0 1.00024 769.66 903)">phù,…</text></g></svg>