<svg xmlns="http://www.w3.org/2000/svg" xmlns:rdkit="http://www.rdkit.org/xml" xmlns:xlink="http://www.w3.org/1999/xlink" version="1.1" baseProfile="full" xml:space="preserve" width="800px" height="200px" viewBox="0 0 800 200">
<!-- END OF HEADER -->
<rect style="opacity:1.0;fill:#FFFFFF;stroke:none" width="800.0" height="200.0" x="0.0" y="0.0"> </rect>
<path class="bond-0 atom-0 atom-1" d="M 155.9,34.3 L 125.6,86.8" style="fill:none;fill-rule:evenodd;stroke:#000000;stroke-width:2.0px;stroke-linecap:butt;stroke-linejoin:miter;stroke-opacity:1"/>
<path class="bond-1 atom-1 atom-2" d="M 125.6,86.8 L 137.7,107.7" style="fill:none;fill-rule:evenodd;stroke:#000000;stroke-width:2.0px;stroke-linecap:butt;stroke-linejoin:miter;stroke-opacity:1"/>
<path class="bond-1 atom-1 atom-2" d="M 137.7,107.7 L 149.8,128.6" style="fill:none;fill-rule:evenodd;stroke:#0000FF;stroke-width:2.0px;stroke-linecap:butt;stroke-linejoin:miter;stroke-opacity:1"/>
<path class="bond-2 atom-1 atom-3" d="M 125.6,86.8 L 65.1,86.8" style="fill:none;fill-rule:evenodd;stroke:#000000;stroke-width:2.0px;stroke-linecap:butt;stroke-linejoin:miter;stroke-opacity:1"/>
<path class="bond-3 atom-3 atom-4" d="M 70.3,86.8 L 57.7,64.9" style="fill:none;fill-rule:evenodd;stroke:#000000;stroke-width:2.0px;stroke-linecap:butt;stroke-linejoin:miter;stroke-opacity:1"/>
<path class="bond-3 atom-3 atom-4" d="M 57.7,64.9 L 45.0,43.0" style="fill:none;fill-rule:evenodd;stroke:#FF0000;stroke-width:2.0px;stroke-linecap:butt;stroke-linejoin:miter;stroke-opacity:1"/>
<path class="bond-3 atom-3 atom-4" d="M 62.4,91.3 L 49.8,69.4" style="fill:none;fill-rule:evenodd;stroke:#000000;stroke-width:2.0px;stroke-linecap:butt;stroke-linejoin:miter;stroke-opacity:1"/>
<path class="bond-3 atom-3 atom-4" d="M 49.8,69.4 L 37.2,47.5" style="fill:none;fill-rule:evenodd;stroke:#FF0000;stroke-width:2.0px;stroke-linecap:butt;stroke-linejoin:miter;stroke-opacity:1"/>
<path class="bond-4 atom-3 atom-5" d="M 65.1,86.8 L 53.0,107.6" style="fill:none;fill-rule:evenodd;stroke:#000000;stroke-width:2.0px;stroke-linecap:butt;stroke-linejoin:miter;stroke-opacity:1"/>
<path class="bond-4 atom-3 atom-5" d="M 53.0,107.6 L 41.0,128.5" style="fill:none;fill-rule:evenodd;stroke:#FF0000;stroke-width:2.0px;stroke-linecap:butt;stroke-linejoin:miter;stroke-opacity:1"/>
<path d="M 68.1,86.8 L 65.1,86.8 L 64.5,87.8" style="fill:none;stroke:#000000;stroke-width:2.0px;stroke-linecap:butt;stroke-linejoin:miter;stroke-opacity:1;"/>
<path class="atom-2" d="M 152.1 130.6 L 157.7 139.7 Q 158.2 140.6, 159.1 142.2 Q 160.0 143.8, 160.1 143.9 L 160.1 130.6 L 162.4 130.6 L 162.4 147.8 L 160.0 147.8 L 154.0 137.8 Q 153.3 136.7, 152.5 135.3 Q 151.8 134.0, 151.6 133.6 L 151.6 147.8 L 149.4 147.8 L 149.4 130.6 L 152.1 130.6 " fill="#0000FF"/>
<path class="atom-2" d="M 165.6 130.6 L 168.0 130.6 L 168.0 137.9 L 176.7 137.9 L 176.7 130.6 L 179.1 130.6 L 179.1 147.8 L 176.7 147.8 L 176.7 139.8 L 168.0 139.8 L 168.0 147.8 L 165.6 147.8 L 165.6 130.6 " fill="#0000FF"/>
<path class="atom-2" d="M 182.4 147.2 Q 182.8 146.1, 183.8 145.5 Q 184.8 144.9, 186.2 144.9 Q 187.9 144.9, 188.8 145.8 Q 189.8 146.7, 189.8 148.4 Q 189.8 150.1, 188.6 151.6 Q 187.3 153.2, 184.8 155.0 L 190.0 155.0 L 190.0 156.3 L 182.4 156.3 L 182.4 155.3 Q 184.5 153.8, 185.7 152.6 Q 187.0 151.5, 187.6 150.5 Q 188.2 149.5, 188.2 148.5 Q 188.2 147.4, 187.7 146.8 Q 187.1 146.2, 186.2 146.2 Q 185.3 146.2, 184.7 146.5 Q 184.1 146.9, 183.6 147.7 L 182.4 147.2 " fill="#0000FF"/>
<path class="atom-4" d="M 26.9 34.4 Q 26.9 30.3, 29.0 28.0 Q 31.0 25.7, 34.8 25.7 Q 38.6 25.7, 40.6 28.0 Q 42.7 30.3, 42.7 34.4 Q 42.7 38.6, 40.6 40.9 Q 38.6 43.3, 34.8 43.3 Q 31.0 43.3, 29.0 40.9 Q 26.9 38.6, 26.9 34.4 M 34.8 41.3 Q 37.4 41.3, 38.8 39.6 Q 40.2 37.8, 40.2 34.4 Q 40.2 31.0, 38.8 29.3 Q 37.4 27.6, 34.8 27.6 Q 32.2 27.6, 30.8 29.3 Q 29.4 31.0, 29.4 34.4 Q 29.4 37.9, 30.8 39.6 Q 32.2 41.3, 34.8 41.3 " fill="#FF0000"/>
<path class="atom-5" d="M 10.0 130.7 L 12.3 130.7 L 12.3 138.0 L 21.1 138.0 L 21.1 130.7 L 23.4 130.7 L 23.4 147.9 L 21.1 147.9 L 21.1 139.9 L 12.3 139.9 L 12.3 147.9 L 10.0 147.9 L 10.0 130.7 " fill="#FF0000"/>
<path class="atom-5" d="M 26.9 139.2 Q 26.9 135.1, 29.0 132.8 Q 31.0 130.5, 34.8 130.5 Q 38.6 130.5, 40.6 132.8 Q 42.7 135.1, 42.7 139.2 Q 42.7 143.4, 40.6 145.8 Q 38.6 148.1, 34.8 148.1 Q 31.0 148.1, 29.0 145.8 Q 26.9 143.4, 26.9 139.2 M 34.8 146.2 Q 37.4 146.2, 38.8 144.4 Q 40.2 142.7, 40.2 139.2 Q 40.2 135.9, 38.8 134.2 Q 37.4 132.5, 34.8 132.5 Q 32.2 132.5, 30.8 134.1 Q 29.4 135.8, 29.4 139.2 Q 29.4 142.7, 30.8 144.4 Q 32.2 146.2, 34.8 146.2 " fill="#FF0000"/>
<path class="legend" d="M 103.4 190.0 L 102.2 186.7 L 97.8 186.7 L 96.6 190.0 L 95.1 190.0 L 99.0 178.7 L 100.9 178.7 L 104.9 190.0 L 103.4 190.0 M 98.2 185.4 L 101.8 185.4 L 100.0 180.3 L 98.2 185.4 " fill="#000000"/>
</svg>