<svg xmlns="http://www.w3.org/2000/svg" xmlns:rdkit="http://www.rdkit.org/xml" xmlns:xlink="http://www.w3.org/1999/xlink" version="1.1" baseProfile="full" xml:space="preserve" width="800px" height="200px" viewBox="0 0 800 200">
<!-- END OF HEADER -->
<rect style="opacity:1.0;fill:#FFFFFF;stroke:none" width="800.0" height="200.0" x="0.0" y="0.0"> </rect>
<path class="bond-0 atom-0 atom-1" d="M 95.1,73.5 L 103.7,74.4" style="fill:none;fill-rule:evenodd;stroke:#FF0000;stroke-width:2.0px;stroke-linecap:butt;stroke-linejoin:miter;stroke-opacity:1"/>
<path class="bond-0 atom-0 atom-1" d="M 103.7,74.4 L 112.3,75.4" style="fill:none;fill-rule:evenodd;stroke:#000000;stroke-width:2.0px;stroke-linecap:butt;stroke-linejoin:miter;stroke-opacity:1"/>
<path class="bond-0 atom-0 atom-1" d="M 94.8,76.5 L 103.4,77.4" style="fill:none;fill-rule:evenodd;stroke:#FF0000;stroke-width:2.0px;stroke-linecap:butt;stroke-linejoin:miter;stroke-opacity:1"/>
<path class="bond-0 atom-0 atom-1" d="M 103.4,77.4 L 112.0,78.3" style="fill:none;fill-rule:evenodd;stroke:#000000;stroke-width:2.0px;stroke-linecap:butt;stroke-linejoin:miter;stroke-opacity:1"/>
<path class="bond-1 atom-1 atom-2" d="M 111.3,76.7 L 119.4,94.8" style="fill:none;fill-rule:evenodd;stroke:#000000;stroke-width:2.0px;stroke-linecap:butt;stroke-linejoin:miter;stroke-opacity:1"/>
<path class="bond-2 atom-2 atom-3" d="M 119.4,94.8 L 114.8,101.0" style="fill:none;fill-rule:evenodd;stroke:#000000;stroke-width:2.0px;stroke-linecap:butt;stroke-linejoin:miter;stroke-opacity:1"/>
<path class="bond-2 atom-2 atom-3" d="M 114.8,101.0 L 110.3,107.3" style="fill:none;fill-rule:evenodd;stroke:#FF0000;stroke-width:2.0px;stroke-linecap:butt;stroke-linejoin:miter;stroke-opacity:1"/>
<path class="bond-3 atom-3 atom-4" d="M 104.5,110.4 L 96.3,109.6" style="fill:none;fill-rule:evenodd;stroke:#FF0000;stroke-width:2.0px;stroke-linecap:butt;stroke-linejoin:miter;stroke-opacity:1"/>
<path class="bond-3 atom-3 atom-4" d="M 96.3,109.6 L 88.1,108.7" style="fill:none;fill-rule:evenodd;stroke:#000000;stroke-width:2.0px;stroke-linecap:butt;stroke-linejoin:miter;stroke-opacity:1"/>
<path class="bond-4 atom-4 atom-5" d="M 88.1,108.7 L 84.9,101.5" style="fill:none;fill-rule:evenodd;stroke:#000000;stroke-width:2.0px;stroke-linecap:butt;stroke-linejoin:miter;stroke-opacity:1"/>
<path class="bond-4 atom-4 atom-5" d="M 84.9,101.5 L 81.7,94.2" style="fill:none;fill-rule:evenodd;stroke:#FF0000;stroke-width:2.0px;stroke-linecap:butt;stroke-linejoin:miter;stroke-opacity:1"/>
<path class="bond-5 atom-5 atom-6" d="M 76.8,90.3 L 68.6,89.4" style="fill:none;fill-rule:evenodd;stroke:#FF0000;stroke-width:2.0px;stroke-linecap:butt;stroke-linejoin:miter;stroke-opacity:1"/>
<path class="bond-5 atom-5 atom-6" d="M 68.6,89.4 L 60.4,88.6" style="fill:none;fill-rule:evenodd;stroke:#000000;stroke-width:2.0px;stroke-linecap:butt;stroke-linejoin:miter;stroke-opacity:1"/>
<path class="bond-6 atom-6 atom-7" d="M 60.4,88.6 L 52.4,70.5" style="fill:none;fill-rule:evenodd;stroke:#000000;stroke-width:2.0px;stroke-linecap:butt;stroke-linejoin:miter;stroke-opacity:1"/>
<path class="bond-7 atom-7 atom-8" d="M 52.4,70.5 L 44.2,69.7" style="fill:none;fill-rule:evenodd;stroke:#000000;stroke-width:2.0px;stroke-linecap:butt;stroke-linejoin:miter;stroke-opacity:1"/>
<path class="bond-7 atom-7 atom-8" d="M 44.2,69.7 L 36.0,68.8" style="fill:none;fill-rule:evenodd;stroke:#FF0000;stroke-width:2.0px;stroke-linecap:butt;stroke-linejoin:miter;stroke-opacity:1"/>
<path class="bond-8 atom-6 atom-9" d="M 60.4,88.6 L 48.8,104.6" style="fill:none;fill-rule:evenodd;stroke:#000000;stroke-width:2.0px;stroke-linecap:butt;stroke-linejoin:miter;stroke-opacity:1"/>
<path class="bond-9 atom-9 atom-10" d="M 48.8,104.6 L 40.6,103.7" style="fill:none;fill-rule:evenodd;stroke:#000000;stroke-width:2.0px;stroke-linecap:butt;stroke-linejoin:miter;stroke-opacity:1"/>
<path class="bond-9 atom-9 atom-10" d="M 40.6,103.7 L 32.4,102.8" style="fill:none;fill-rule:evenodd;stroke:#FF0000;stroke-width:2.0px;stroke-linecap:butt;stroke-linejoin:miter;stroke-opacity:1"/>
<path class="bond-10 atom-9 atom-11" d="M 48.8,104.6 L 56.8,122.6" style="fill:none;fill-rule:evenodd;stroke:#000000;stroke-width:2.0px;stroke-linecap:butt;stroke-linejoin:miter;stroke-opacity:1"/>
<path class="bond-11 atom-11 atom-12" d="M 56.8,122.6 L 52.3,128.9" style="fill:none;fill-rule:evenodd;stroke:#000000;stroke-width:2.0px;stroke-linecap:butt;stroke-linejoin:miter;stroke-opacity:1"/>
<path class="bond-11 atom-11 atom-12" d="M 52.3,128.9 L 47.7,135.1" style="fill:none;fill-rule:evenodd;stroke:#FF0000;stroke-width:2.0px;stroke-linecap:butt;stroke-linejoin:miter;stroke-opacity:1"/>
<path class="bond-12 atom-11 atom-13" d="M 56.8,122.6 L 76.5,124.7" style="fill:none;fill-rule:evenodd;stroke:#000000;stroke-width:2.0px;stroke-linecap:butt;stroke-linejoin:miter;stroke-opacity:1"/>
<path class="bond-13 atom-13 atom-14" d="M 76.5,124.7 L 79.7,132.0" style="fill:none;fill-rule:evenodd;stroke:#000000;stroke-width:2.0px;stroke-linecap:butt;stroke-linejoin:miter;stroke-opacity:1"/>
<path class="bond-13 atom-13 atom-14" d="M 79.7,132.0 L 83.0,139.3" style="fill:none;fill-rule:evenodd;stroke:#FF0000;stroke-width:2.0px;stroke-linecap:butt;stroke-linejoin:miter;stroke-opacity:1"/>
<path class="bond-14 atom-2 atom-15" d="M 119.4,94.8 L 139.0,96.9" style="fill:none;fill-rule:evenodd;stroke:#000000;stroke-width:2.0px;stroke-linecap:butt;stroke-linejoin:miter;stroke-opacity:1"/>
<path class="bond-14 atom-2 atom-15" d="M 121.4,92.0 L 137.6,93.7" style="fill:none;fill-rule:evenodd;stroke:#000000;stroke-width:2.0px;stroke-linecap:butt;stroke-linejoin:miter;stroke-opacity:1"/>
<path class="bond-15 atom-15 atom-16" d="M 139.0,96.9 L 147.0,114.9" style="fill:none;fill-rule:evenodd;stroke:#000000;stroke-width:2.0px;stroke-linecap:butt;stroke-linejoin:miter;stroke-opacity:1"/>
<path class="bond-16 atom-16 atom-17" d="M 147.0,114.9 L 135.4,130.9" style="fill:none;fill-rule:evenodd;stroke:#000000;stroke-width:2.0px;stroke-linecap:butt;stroke-linejoin:miter;stroke-opacity:1"/>
<path class="bond-16 atom-16 atom-17" d="M 148.4,118.1 L 138.8,131.3" style="fill:none;fill-rule:evenodd;stroke:#000000;stroke-width:2.0px;stroke-linecap:butt;stroke-linejoin:miter;stroke-opacity:1"/>
<path class="bond-17 atom-17 atom-18" d="M 135.4,130.9 L 143.4,149.0" style="fill:none;fill-rule:evenodd;stroke:#000000;stroke-width:2.0px;stroke-linecap:butt;stroke-linejoin:miter;stroke-opacity:1"/>
<path class="bond-18 atom-18 atom-19" d="M 143.4,149.0 L 163.1,151.0" style="fill:none;fill-rule:evenodd;stroke:#000000;stroke-width:2.0px;stroke-linecap:butt;stroke-linejoin:miter;stroke-opacity:1"/>
<path class="bond-18 atom-18 atom-19" d="M 145.5,146.2 L 161.7,147.9" style="fill:none;fill-rule:evenodd;stroke:#000000;stroke-width:2.0px;stroke-linecap:butt;stroke-linejoin:miter;stroke-opacity:1"/>
<path class="bond-19 atom-19 atom-20" d="M 163.1,151.0 L 166.3,158.3" style="fill:none;fill-rule:evenodd;stroke:#000000;stroke-width:2.0px;stroke-linecap:butt;stroke-linejoin:miter;stroke-opacity:1"/>
<path class="bond-19 atom-19 atom-20" d="M 166.3,158.3 L 169.6,165.6" style="fill:none;fill-rule:evenodd;stroke:#FF0000;stroke-width:2.0px;stroke-linecap:butt;stroke-linejoin:miter;stroke-opacity:1"/>
<path class="bond-20 atom-19 atom-21" d="M 163.1,151.0 L 174.7,135.1" style="fill:none;fill-rule:evenodd;stroke:#000000;stroke-width:2.0px;stroke-linecap:butt;stroke-linejoin:miter;stroke-opacity:1"/>
<path class="bond-21 atom-21 atom-22" d="M 174.7,135.1 L 166.7,117.0" style="fill:none;fill-rule:evenodd;stroke:#000000;stroke-width:2.0px;stroke-linecap:butt;stroke-linejoin:miter;stroke-opacity:1"/>
<path class="bond-21 atom-21 atom-22" d="M 171.3,134.7 L 164.7,119.8" style="fill:none;fill-rule:evenodd;stroke:#000000;stroke-width:2.0px;stroke-linecap:butt;stroke-linejoin:miter;stroke-opacity:1"/>
<path class="bond-22 atom-15 atom-23" d="M 139.0,96.9 L 143.5,90.7" style="fill:none;fill-rule:evenodd;stroke:#000000;stroke-width:2.0px;stroke-linecap:butt;stroke-linejoin:miter;stroke-opacity:1"/>
<path class="bond-22 atom-15 atom-23" d="M 143.5,90.7 L 148.0,84.5" style="fill:none;fill-rule:evenodd;stroke:#FF0000;stroke-width:2.0px;stroke-linecap:butt;stroke-linejoin:miter;stroke-opacity:1"/>
<path class="bond-23 atom-23 atom-24" d="M 149.1,77.4 L 145.8,70.1" style="fill:none;fill-rule:evenodd;stroke:#FF0000;stroke-width:2.0px;stroke-linecap:butt;stroke-linejoin:miter;stroke-opacity:1"/>
<path class="bond-23 atom-23 atom-24" d="M 145.8,70.1 L 142.6,62.8" style="fill:none;fill-rule:evenodd;stroke:#000000;stroke-width:2.0px;stroke-linecap:butt;stroke-linejoin:miter;stroke-opacity:1"/>
<path class="bond-24 atom-24 atom-25" d="M 142.6,62.8 L 154.2,46.9" style="fill:none;fill-rule:evenodd;stroke:#000000;stroke-width:2.0px;stroke-linecap:butt;stroke-linejoin:miter;stroke-opacity:1"/>
<path class="bond-24 atom-24 atom-25" d="M 141.2,59.7 L 150.8,46.5" style="fill:none;fill-rule:evenodd;stroke:#000000;stroke-width:2.0px;stroke-linecap:butt;stroke-linejoin:miter;stroke-opacity:1"/>
<path class="bond-25 atom-25 atom-26" d="M 154.2,46.9 L 146.2,28.8" style="fill:none;fill-rule:evenodd;stroke:#000000;stroke-width:2.0px;stroke-linecap:butt;stroke-linejoin:miter;stroke-opacity:1"/>
<path class="bond-26 atom-26 atom-27" d="M 146.2,28.8 L 150.7,22.6" style="fill:none;fill-rule:evenodd;stroke:#000000;stroke-width:2.0px;stroke-linecap:butt;stroke-linejoin:miter;stroke-opacity:1"/>
<path class="bond-26 atom-26 atom-27" d="M 150.7,22.6 L 155.2,16.4" style="fill:none;fill-rule:evenodd;stroke:#FF0000;stroke-width:2.0px;stroke-linecap:butt;stroke-linejoin:miter;stroke-opacity:1"/>
<path class="bond-27 atom-26 atom-28" d="M 146.2,28.8 L 126.6,26.7" style="fill:none;fill-rule:evenodd;stroke:#000000;stroke-width:2.0px;stroke-linecap:butt;stroke-linejoin:miter;stroke-opacity:1"/>
<path class="bond-27 atom-26 atom-28" d="M 144.2,31.6 L 127.9,29.9" style="fill:none;fill-rule:evenodd;stroke:#000000;stroke-width:2.0px;stroke-linecap:butt;stroke-linejoin:miter;stroke-opacity:1"/>
<path class="bond-28 atom-28 atom-29" d="M 126.6,26.7 L 114.9,42.7" style="fill:none;fill-rule:evenodd;stroke:#000000;stroke-width:2.0px;stroke-linecap:butt;stroke-linejoin:miter;stroke-opacity:1"/>
<path class="bond-29 atom-29 atom-30" d="M 114.9,42.7 L 106.7,41.8" style="fill:none;fill-rule:evenodd;stroke:#000000;stroke-width:2.0px;stroke-linecap:butt;stroke-linejoin:miter;stroke-opacity:1"/>
<path class="bond-29 atom-29 atom-30" d="M 106.7,41.8 L 98.5,41.0" style="fill:none;fill-rule:evenodd;stroke:#FF0000;stroke-width:2.0px;stroke-linecap:butt;stroke-linejoin:miter;stroke-opacity:1"/>
<path class="bond-30 atom-29 atom-31" d="M 114.9,42.7 L 123.0,60.8" style="fill:none;fill-rule:evenodd;stroke:#000000;stroke-width:2.0px;stroke-linecap:butt;stroke-linejoin:miter;stroke-opacity:1"/>
<path class="bond-30 atom-29 atom-31" d="M 118.3,43.1 L 125.0,58.0" style="fill:none;fill-rule:evenodd;stroke:#000000;stroke-width:2.0px;stroke-linecap:butt;stroke-linejoin:miter;stroke-opacity:1"/>
<path class="bond-31 atom-31 atom-1" d="M 123.0,60.8 L 111.3,76.7" style="fill:none;fill-rule:evenodd;stroke:#000000;stroke-width:2.0px;stroke-linecap:butt;stroke-linejoin:miter;stroke-opacity:1"/>
<path class="bond-32 atom-13 atom-4" d="M 76.5,124.7 L 88.1,108.7" style="fill:none;fill-rule:evenodd;stroke:#000000;stroke-width:2.0px;stroke-linecap:butt;stroke-linejoin:miter;stroke-opacity:1"/>
<path class="bond-33 atom-22 atom-16" d="M 166.7,117.0 L 147.0,114.9" style="fill:none;fill-rule:evenodd;stroke:#000000;stroke-width:2.0px;stroke-linecap:butt;stroke-linejoin:miter;stroke-opacity:1"/>
<path class="bond-34 atom-31 atom-24" d="M 123.0,60.8 L 142.6,62.8" style="fill:none;fill-rule:evenodd;stroke:#000000;stroke-width:2.0px;stroke-linecap:butt;stroke-linejoin:miter;stroke-opacity:1"/>
<path d="M 111.7,77.6 L 111.3,76.7 L 111.9,75.9" style="fill:none;stroke:#000000;stroke-width:2.0px;stroke-linecap:butt;stroke-linejoin:miter;stroke-opacity:1;"/>
<path d="M 52.8,71.4 L 52.4,70.5 L 52.0,70.5" style="fill:none;stroke:#000000;stroke-width:2.0px;stroke-linecap:butt;stroke-linejoin:miter;stroke-opacity:1;"/>
<path d="M 136.0,130.1 L 135.4,130.9 L 135.8,131.8" style="fill:none;stroke:#000000;stroke-width:2.0px;stroke-linecap:butt;stroke-linejoin:miter;stroke-opacity:1;"/>
<path d="M 143.0,148.1 L 143.4,149.0 L 144.4,149.1" style="fill:none;stroke:#000000;stroke-width:2.0px;stroke-linecap:butt;stroke-linejoin:miter;stroke-opacity:1;"/>
<path d="M 174.1,135.9 L 174.7,135.1 L 174.3,134.1" style="fill:none;stroke:#000000;stroke-width:2.0px;stroke-linecap:butt;stroke-linejoin:miter;stroke-opacity:1;"/>
<path d="M 167.1,117.9 L 166.7,117.0 L 165.7,116.9" style="fill:none;stroke:#000000;stroke-width:2.0px;stroke-linecap:butt;stroke-linejoin:miter;stroke-opacity:1;"/>
<path d="M 153.6,47.7 L 154.2,46.9 L 153.8,46.0" style="fill:none;stroke:#000000;stroke-width:2.0px;stroke-linecap:butt;stroke-linejoin:miter;stroke-opacity:1;"/>
<path d="M 127.5,26.8 L 126.6,26.7 L 126.0,27.5" style="fill:none;stroke:#000000;stroke-width:2.0px;stroke-linecap:butt;stroke-linejoin:miter;stroke-opacity:1;"/>
<path class="atom-0" d="M 89.1 74.7 Q 89.1 73.3, 89.8 72.6 Q 90.4 71.8, 91.7 71.8 Q 92.9 71.8, 93.6 72.6 Q 94.3 73.3, 94.3 74.7 Q 94.3 76.0, 93.6 76.8 Q 92.9 77.6, 91.7 77.6 Q 90.5 77.6, 89.8 76.8 Q 89.1 76.1, 89.1 74.7 M 91.7 77.0 Q 92.5 77.0, 93.0 76.4 Q 93.5 75.8, 93.5 74.7 Q 93.5 73.6, 93.0 73.0 Q 92.5 72.5, 91.7 72.5 Q 90.8 72.5, 90.4 73.0 Q 89.9 73.6, 89.9 74.7 Q 89.9 75.8, 90.4 76.4 Q 90.8 77.0, 91.7 77.0 " fill="#FF0000"/>
<path class="atom-3" d="M 105.2 110.8 Q 105.2 109.4, 105.8 108.7 Q 106.5 107.9, 107.7 107.9 Q 109.0 107.9, 109.6 108.7 Q 110.3 109.4, 110.3 110.8 Q 110.3 112.2, 109.6 112.9 Q 109.0 113.7, 107.7 113.7 Q 106.5 113.7, 105.8 112.9 Q 105.2 112.2, 105.2 110.8 M 107.7 113.1 Q 108.6 113.1, 109.1 112.5 Q 109.5 111.9, 109.5 110.8 Q 109.5 109.7, 109.1 109.1 Q 108.6 108.6, 107.7 108.6 Q 106.9 108.6, 106.4 109.1 Q 106.0 109.7, 106.0 110.8 Q 106.0 111.9, 106.4 112.5 Q 106.9 113.1, 107.7 113.1 " fill="#FF0000"/>
<path class="atom-5" d="M 77.5 90.7 Q 77.5 89.3, 78.2 88.6 Q 78.8 87.8, 80.1 87.8 Q 81.3 87.8, 82.0 88.6 Q 82.6 89.3, 82.6 90.7 Q 82.6 92.0, 82.0 92.8 Q 81.3 93.6, 80.1 93.6 Q 78.8 93.6, 78.2 92.8 Q 77.5 92.0, 77.5 90.7 M 80.1 92.9 Q 80.9 92.9, 81.4 92.4 Q 81.8 91.8, 81.8 90.7 Q 81.8 89.6, 81.4 89.0 Q 80.9 88.5, 80.1 88.5 Q 79.2 88.5, 78.7 89.0 Q 78.3 89.6, 78.3 90.7 Q 78.3 91.8, 78.7 92.4 Q 79.2 92.9, 80.1 92.9 " fill="#FF0000"/>
<path class="atom-8" d="M 24.7 65.7 L 25.4 65.7 L 25.4 68.1 L 28.3 68.1 L 28.3 65.7 L 29.0 65.7 L 29.0 71.3 L 28.3 71.3 L 28.3 68.7 L 25.4 68.7 L 25.4 71.3 L 24.7 71.3 L 24.7 65.7 " fill="#FF0000"/>
<path class="atom-8" d="M 30.2 68.5 Q 30.2 67.1, 30.8 66.4 Q 31.5 65.6, 32.7 65.6 Q 34.0 65.6, 34.6 66.4 Q 35.3 67.1, 35.3 68.5 Q 35.3 69.8, 34.6 70.6 Q 34.0 71.4, 32.7 71.4 Q 31.5 71.4, 30.8 70.6 Q 30.2 69.8, 30.2 68.5 M 32.7 70.7 Q 33.6 70.7, 34.1 70.2 Q 34.5 69.6, 34.5 68.5 Q 34.5 67.4, 34.1 66.8 Q 33.6 66.2, 32.7 66.2 Q 31.9 66.2, 31.4 66.8 Q 31.0 67.4, 31.0 68.5 Q 31.0 69.6, 31.4 70.2 Q 31.9 70.7, 32.7 70.7 " fill="#FF0000"/>
<path class="atom-10" d="M 21.1 99.7 L 21.8 99.7 L 21.8 102.1 L 24.7 102.1 L 24.7 99.7 L 25.4 99.7 L 25.4 105.3 L 24.7 105.3 L 24.7 102.7 L 21.8 102.7 L 21.8 105.3 L 21.1 105.3 L 21.1 99.7 " fill="#FF0000"/>
<path class="atom-10" d="M 26.6 102.5 Q 26.6 101.2, 27.2 100.4 Q 27.9 99.6, 29.2 99.6 Q 30.4 99.6, 31.1 100.4 Q 31.7 101.2, 31.7 102.5 Q 31.7 103.9, 31.0 104.6 Q 30.4 105.4, 29.2 105.4 Q 27.9 105.4, 27.2 104.6 Q 26.6 103.9, 26.6 102.5 M 29.2 104.8 Q 30.0 104.8, 30.5 104.2 Q 30.9 103.6, 30.9 102.5 Q 30.9 101.4, 30.5 100.8 Q 30.0 100.3, 29.2 100.3 Q 28.3 100.3, 27.8 100.8 Q 27.4 101.4, 27.4 102.5 Q 27.4 103.6, 27.8 104.2 Q 28.3 104.8, 29.2 104.8 " fill="#FF0000"/>
<path class="atom-12" d="M 37.1 135.8 L 37.9 135.8 L 37.9 138.2 L 40.7 138.2 L 40.7 135.8 L 41.5 135.8 L 41.5 141.4 L 40.7 141.4 L 40.7 138.8 L 37.9 138.8 L 37.9 141.4 L 37.1 141.4 L 37.1 135.8 " fill="#FF0000"/>
<path class="atom-12" d="M 42.6 138.6 Q 42.6 137.3, 43.3 136.5 Q 44.0 135.8, 45.2 135.8 Q 46.4 135.8, 47.1 136.5 Q 47.8 137.3, 47.8 138.6 Q 47.8 140.0, 47.1 140.7 Q 46.4 141.5, 45.2 141.5 Q 44.0 141.5, 43.3 140.7 Q 42.6 140.0, 42.6 138.6 M 45.2 140.9 Q 46.1 140.9, 46.5 140.3 Q 47.0 139.7, 47.0 138.6 Q 47.0 137.5, 46.5 136.9 Q 46.1 136.4, 45.2 136.4 Q 44.4 136.4, 43.9 136.9 Q 43.4 137.5, 43.4 138.6 Q 43.4 139.7, 43.9 140.3 Q 44.4 140.9, 45.2 140.9 " fill="#FF0000"/>
<path class="atom-14" d="M 81.9 142.7 Q 81.9 141.4, 82.6 140.7 Q 83.3 139.9, 84.5 139.9 Q 85.7 139.9, 86.4 140.7 Q 87.1 141.4, 87.1 142.7 Q 87.1 144.1, 86.4 144.9 Q 85.7 145.6, 84.5 145.6 Q 83.3 145.6, 82.6 144.9 Q 81.9 144.1, 81.9 142.7 M 84.5 145.0 Q 85.4 145.0, 85.8 144.4 Q 86.3 143.9, 86.3 142.7 Q 86.3 141.7, 85.8 141.1 Q 85.4 140.5, 84.5 140.5 Q 83.7 140.5, 83.2 141.1 Q 82.7 141.6, 82.7 142.7 Q 82.7 143.9, 83.2 144.4 Q 83.7 145.0, 84.5 145.0 " fill="#FF0000"/>
<path class="atom-14" d="M 87.9 140.0 L 88.7 140.0 L 88.7 142.3 L 91.6 142.3 L 91.6 140.0 L 92.3 140.0 L 92.3 145.6 L 91.6 145.6 L 91.6 143.0 L 88.7 143.0 L 88.7 145.6 L 87.9 145.6 L 87.9 140.0 " fill="#FF0000"/>
<path class="atom-20" d="M 168.6 169.1 Q 168.6 167.8, 169.2 167.0 Q 169.9 166.3, 171.1 166.3 Q 172.4 166.3, 173.0 167.0 Q 173.7 167.8, 173.7 169.1 Q 173.7 170.5, 173.0 171.2 Q 172.3 172.0, 171.1 172.0 Q 169.9 172.0, 169.2 171.2 Q 168.6 170.5, 168.6 169.1 M 171.1 171.4 Q 172.0 171.4, 172.4 170.8 Q 172.9 170.2, 172.9 169.1 Q 172.9 168.0, 172.4 167.4 Q 172.0 166.9, 171.1 166.9 Q 170.3 166.9, 169.8 167.4 Q 169.3 168.0, 169.3 169.1 Q 169.3 170.2, 169.8 170.8 Q 170.3 171.4, 171.1 171.4 " fill="#FF0000"/>
<path class="atom-20" d="M 174.6 166.3 L 175.3 166.3 L 175.3 168.7 L 178.2 168.7 L 178.2 166.3 L 178.9 166.3 L 178.9 171.9 L 178.2 171.9 L 178.2 169.3 L 175.3 169.3 L 175.3 171.9 L 174.6 171.9 L 174.6 166.3 " fill="#FF0000"/>
<path class="atom-23" d="M 148.1 80.9 Q 148.1 79.6, 148.7 78.8 Q 149.4 78.1, 150.6 78.1 Q 151.9 78.1, 152.5 78.8 Q 153.2 79.6, 153.2 80.9 Q 153.2 82.3, 152.5 83.0 Q 151.9 83.8, 150.6 83.8 Q 149.4 83.8, 148.7 83.0 Q 148.1 82.3, 148.1 80.9 M 150.6 83.2 Q 151.5 83.2, 151.9 82.6 Q 152.4 82.0, 152.4 80.9 Q 152.4 79.8, 151.9 79.3 Q 151.5 78.7, 150.6 78.7 Q 149.8 78.7, 149.3 79.2 Q 148.9 79.8, 148.9 80.9 Q 148.9 82.0, 149.3 82.6 Q 149.8 83.2, 150.6 83.2 " fill="#FF0000"/>
<path class="atom-27" d="M 155.3 12.8 Q 155.3 11.5, 155.9 10.8 Q 156.6 10.0, 157.8 10.0 Q 159.1 10.0, 159.7 10.8 Q 160.4 11.5, 160.4 12.8 Q 160.4 14.2, 159.7 15.0 Q 159.0 15.7, 157.8 15.7 Q 156.6 15.7, 155.9 15.0 Q 155.3 14.2, 155.3 12.8 M 157.8 15.1 Q 158.7 15.1, 159.1 14.5 Q 159.6 14.0, 159.6 12.8 Q 159.6 11.7, 159.1 11.2 Q 158.7 10.6, 157.8 10.6 Q 157.0 10.6, 156.5 11.2 Q 156.0 11.7, 156.0 12.8 Q 156.0 14.0, 156.5 14.5 Q 157.0 15.1, 157.8 15.1 " fill="#FF0000"/>
<path class="atom-27" d="M 161.3 10.1 L 162.0 10.1 L 162.0 12.4 L 164.9 12.4 L 164.9 10.1 L 165.6 10.1 L 165.6 15.7 L 164.9 15.7 L 164.9 13.1 L 162.0 13.1 L 162.0 15.7 L 161.3 15.7 L 161.3 10.1 " fill="#FF0000"/>
<path class="atom-30" d="M 87.2 37.9 L 87.9 37.9 L 87.9 40.3 L 90.8 40.3 L 90.8 37.9 L 91.6 37.9 L 91.6 43.5 L 90.8 43.5 L 90.8 40.9 L 87.9 40.9 L 87.9 43.5 L 87.2 43.5 L 87.2 37.9 " fill="#FF0000"/>
<path class="atom-30" d="M 92.7 40.7 Q 92.7 39.3, 93.4 38.6 Q 94.0 37.8, 95.3 37.8 Q 96.5 37.8, 97.2 38.6 Q 97.9 39.3, 97.9 40.7 Q 97.9 42.0, 97.2 42.8 Q 96.5 43.6, 95.3 43.6 Q 94.1 43.6, 93.4 42.8 Q 92.7 42.0, 92.7 40.7 M 95.3 42.9 Q 96.1 42.9, 96.6 42.4 Q 97.1 41.8, 97.1 40.7 Q 97.1 39.6, 96.6 39.0 Q 96.1 38.4, 95.3 38.4 Q 94.4 38.4, 94.0 39.0 Q 93.5 39.5, 93.5 40.7 Q 93.5 41.8, 94.0 42.4 Q 94.4 42.9, 95.3 42.9 " fill="#FF0000"/>
<path class="legend" d="M 103.4 190.0 L 102.2 186.7 L 97.8 186.7 L 96.6 190.0 L 95.1 190.0 L 99.0 178.7 L 100.9 178.7 L 104.9 190.0 L 103.4 190.0 M 98.2 185.4 L 101.8 185.4 L 100.0 180.3 L 98.2 185.4 " fill="#000000"/>
</svg>