<svg xmlns="http://www.w3.org/2000/svg" xmlns:rdkit="http://www.rdkit.org/xml" xmlns:xlink="http://www.w3.org/1999/xlink" version="1.1" baseProfile="full" xml:space="preserve" width="800px" height="400px" viewBox="0 0 800 400">
<!-- END OF HEADER -->
<rect style="opacity:1.0;fill:#FFFFFF;stroke:none" width="800.0" height="400.0" x="0.0" y="0.0"> </rect>
<path class="bond-0 atom-0 atom-1" d="M 128.5,91.0 L 109.5,91.0" style="fill:none;fill-rule:evenodd;stroke:#000000;stroke-width:2.0px;stroke-linecap:butt;stroke-linejoin:miter;stroke-opacity:1"/>
<path class="bond-1 atom-1 atom-2" d="M 109.5,91.0 L 100.0,107.5" style="fill:none;fill-rule:evenodd;stroke:#000000;stroke-width:2.0px;stroke-linecap:butt;stroke-linejoin:miter;stroke-opacity:1"/>
<path class="bond-1 atom-1 atom-2" d="M 106.2,91.0 L 98.4,104.6" style="fill:none;fill-rule:evenodd;stroke:#000000;stroke-width:2.0px;stroke-linecap:butt;stroke-linejoin:miter;stroke-opacity:1"/>
<path class="bond-2 atom-2 atom-3" d="M 100.0,107.5 L 81.0,107.5" style="fill:none;fill-rule:evenodd;stroke:#000000;stroke-width:2.0px;stroke-linecap:butt;stroke-linejoin:miter;stroke-opacity:1"/>
<path class="bond-3 atom-3 atom-4" d="M 81.0,107.5 L 71.5,91.0" style="fill:none;fill-rule:evenodd;stroke:#000000;stroke-width:2.0px;stroke-linecap:butt;stroke-linejoin:miter;stroke-opacity:1"/>
<path class="bond-3 atom-3 atom-4" d="M 82.6,104.6 L 74.8,91.0" style="fill:none;fill-rule:evenodd;stroke:#000000;stroke-width:2.0px;stroke-linecap:butt;stroke-linejoin:miter;stroke-opacity:1"/>
<path class="bond-4 atom-4 atom-5" d="M 71.5,91.0 L 81.0,74.5" style="fill:none;fill-rule:evenodd;stroke:#000000;stroke-width:2.0px;stroke-linecap:butt;stroke-linejoin:miter;stroke-opacity:1"/>
<path class="bond-5 atom-5 atom-6" d="M 81.0,74.5 L 100.0,74.5" style="fill:none;fill-rule:evenodd;stroke:#000000;stroke-width:2.0px;stroke-linecap:butt;stroke-linejoin:miter;stroke-opacity:1"/>
<path class="bond-5 atom-5 atom-6" d="M 82.6,77.4 L 98.4,77.4" style="fill:none;fill-rule:evenodd;stroke:#000000;stroke-width:2.0px;stroke-linecap:butt;stroke-linejoin:miter;stroke-opacity:1"/>
<path class="bond-6 atom-6 atom-1" d="M 100.0,74.5 L 109.5,91.0" style="fill:none;fill-rule:evenodd;stroke:#000000;stroke-width:2.0px;stroke-linecap:butt;stroke-linejoin:miter;stroke-opacity:1"/>
<path d="M 100.5,106.6 L 100.0,107.5 L 99.0,107.5" style="fill:none;stroke:#000000;stroke-width:2.0px;stroke-linecap:butt;stroke-linejoin:miter;stroke-opacity:1;"/>
<path d="M 81.9,107.5 L 81.0,107.5 L 80.5,106.6" style="fill:none;stroke:#000000;stroke-width:2.0px;stroke-linecap:butt;stroke-linejoin:miter;stroke-opacity:1;"/>
<path d="M 72.0,91.8 L 71.5,91.0 L 72.0,90.2" style="fill:none;stroke:#000000;stroke-width:2.0px;stroke-linecap:butt;stroke-linejoin:miter;stroke-opacity:1;"/>
<path d="M 80.5,75.4 L 81.0,74.5 L 81.9,74.5" style="fill:none;stroke:#000000;stroke-width:2.0px;stroke-linecap:butt;stroke-linejoin:miter;stroke-opacity:1;"/>
<path d="M 99.0,74.5 L 100.0,74.5 L 100.5,75.4" style="fill:none;stroke:#000000;stroke-width:2.0px;stroke-linecap:butt;stroke-linejoin:miter;stroke-opacity:1;"/>
<path class="legend" d="M 103.4 190.0 L 102.2 186.7 L 97.8 186.7 L 96.6 190.0 L 95.1 190.0 L 99.0 178.7 L 100.9 178.7 L 104.9 190.0 L 103.4 190.0 M 98.2 185.4 L 101.8 185.4 L 100.0 180.3 L 98.2 185.4 " fill="#000000"/>
<path class="bond-0 atom-0 atom-1" d="M 215.2,71.4 L 234.2,70.7" style="fill:none;fill-rule:evenodd;stroke:#000000;stroke-width:2.0px;stroke-linecap:butt;stroke-linejoin:miter;stroke-opacity:1"/>
<path class="bond-0 atom-0 atom-1" d="M 215.3,74.2 L 232.6,73.6" style="fill:none;fill-rule:evenodd;stroke:#000000;stroke-width:2.0px;stroke-linecap:butt;stroke-linejoin:miter;stroke-opacity:1;stroke-dasharray:6,4"/>
<path class="bond-1 atom-1 atom-2" d="M 234.2,70.7 L 244.3,86.8" style="fill:none;fill-rule:evenodd;stroke:#000000;stroke-width:2.0px;stroke-linecap:butt;stroke-linejoin:miter;stroke-opacity:1"/>
<path class="bond-1 atom-1 atom-2" d="M 232.6,73.6 L 241.9,88.3" style="fill:none;fill-rule:evenodd;stroke:#000000;stroke-width:2.0px;stroke-linecap:butt;stroke-linejoin:miter;stroke-opacity:1;stroke-dasharray:6,4"/>
<path class="bond-2 atom-2 atom-3" d="M 244.3,86.8 L 263.3,86.1" style="fill:none;fill-rule:evenodd;stroke:#000000;stroke-width:2.0px;stroke-linecap:butt;stroke-linejoin:miter;stroke-opacity:1"/>
<path class="bond-2 atom-2 atom-3" d="M 245.8,83.9 L 263.2,83.2" style="fill:none;fill-rule:evenodd;stroke:#000000;stroke-width:2.0px;stroke-linecap:butt;stroke-linejoin:miter;stroke-opacity:1;stroke-dasharray:6,4"/>
<path class="bond-3 atom-3 atom-4" d="M 263.3,86.1 L 273.4,102.2" style="fill:none;fill-rule:evenodd;stroke:#000000;stroke-width:2.0px;stroke-linecap:butt;stroke-linejoin:miter;stroke-opacity:1"/>
<path class="bond-3 atom-3 atom-4" d="M 261.7,89.0 L 271.0,103.7" style="fill:none;fill-rule:evenodd;stroke:#000000;stroke-width:2.0px;stroke-linecap:butt;stroke-linejoin:miter;stroke-opacity:1;stroke-dasharray:6,4"/>
<path class="bond-4 atom-4 atom-5" d="M 273.4,102.2 L 292.4,101.5" style="fill:none;fill-rule:evenodd;stroke:#000000;stroke-width:2.0px;stroke-linecap:butt;stroke-linejoin:miter;stroke-opacity:1"/>
<path class="bond-4 atom-4 atom-5" d="M 274.9,99.3 L 290.6,98.7" style="fill:none;fill-rule:evenodd;stroke:#000000;stroke-width:2.0px;stroke-linecap:butt;stroke-linejoin:miter;stroke-opacity:1;stroke-dasharray:6,4"/>
<path class="bond-5 atom-5 atom-6" d="M 292.4,101.5 L 295.9,94.8" style="fill:none;fill-rule:evenodd;stroke:#000000;stroke-width:2.0px;stroke-linecap:butt;stroke-linejoin:miter;stroke-opacity:1"/>
<path class="bond-5 atom-5 atom-6" d="M 295.9,94.8 L 299.5,88.1" style="fill:none;fill-rule:evenodd;stroke:#FF0000;stroke-width:2.0px;stroke-linecap:butt;stroke-linejoin:miter;stroke-opacity:1"/>
<path class="bond-6 atom-5 atom-7" d="M 292.4,101.5 L 302.5,117.6" style="fill:none;fill-rule:evenodd;stroke:#000000;stroke-width:2.0px;stroke-linecap:butt;stroke-linejoin:miter;stroke-opacity:1"/>
<path class="bond-6 atom-5 atom-7" d="M 290.9,104.4 L 299.2,117.7" style="fill:none;fill-rule:evenodd;stroke:#000000;stroke-width:2.0px;stroke-linecap:butt;stroke-linejoin:miter;stroke-opacity:1;stroke-dasharray:6,4"/>
<path class="bond-7 atom-7 atom-8" d="M 301.6,116.2 L 292.3,133.7" style="fill:none;fill-rule:evenodd;stroke:#000000;stroke-width:2.0px;stroke-linecap:butt;stroke-linejoin:miter;stroke-opacity:1"/>
<path class="bond-7 atom-7 atom-8" d="M 304.1,117.5 L 294.9,135.1" style="fill:none;fill-rule:evenodd;stroke:#000000;stroke-width:2.0px;stroke-linecap:butt;stroke-linejoin:miter;stroke-opacity:1;stroke-dasharray:6,4"/>
<path class="bond-8 atom-7 atom-9" d="M 302.5,117.6 L 310.5,117.3" style="fill:none;fill-rule:evenodd;stroke:#000000;stroke-width:2.0px;stroke-linecap:butt;stroke-linejoin:miter;stroke-opacity:1"/>
<path class="bond-8 atom-7 atom-9" d="M 310.5,117.3 L 318.4,117.0" style="fill:none;fill-rule:evenodd;stroke:#FF0000;stroke-width:2.0px;stroke-linecap:butt;stroke-linejoin:miter;stroke-opacity:1"/>
<path class="bond-9 atom-9 atom-10" d="M 323.3,113.5 L 326.8,106.8" style="fill:none;fill-rule:evenodd;stroke:#FF0000;stroke-width:2.0px;stroke-linecap:butt;stroke-linejoin:miter;stroke-opacity:1"/>
<path class="bond-9 atom-9 atom-10" d="M 326.8,106.8 L 330.4,100.1" style="fill:none;fill-rule:evenodd;stroke:#000000;stroke-width:2.0px;stroke-linecap:butt;stroke-linejoin:miter;stroke-opacity:1"/>
<path class="bond-10 atom-10 atom-11" d="M 330.4,100.1 L 326.4,93.7" style="fill:none;fill-rule:evenodd;stroke:#000000;stroke-width:2.0px;stroke-linecap:butt;stroke-linejoin:miter;stroke-opacity:1"/>
<path class="bond-10 atom-10 atom-11" d="M 326.4,93.7 L 322.4,87.4" style="fill:none;fill-rule:evenodd;stroke:#FF0000;stroke-width:2.0px;stroke-linecap:butt;stroke-linejoin:miter;stroke-opacity:1"/>
<path class="bond-11 atom-11 atom-12" d="M 322.1,80.6 L 325.6,73.9" style="fill:none;fill-rule:evenodd;stroke:#FF0000;stroke-width:2.0px;stroke-linecap:butt;stroke-linejoin:miter;stroke-opacity:1"/>
<path class="bond-11 atom-11 atom-12" d="M 325.6,73.9 L 329.2,67.2" style="fill:none;fill-rule:evenodd;stroke:#000000;stroke-width:2.0px;stroke-linecap:butt;stroke-linejoin:miter;stroke-opacity:1"/>
<path class="bond-12 atom-12 atom-13" d="M 329.2,67.2 L 319.1,51.1" style="fill:none;fill-rule:evenodd;stroke:#000000;stroke-width:2.0px;stroke-linecap:butt;stroke-linejoin:miter;stroke-opacity:1"/>
<path class="bond-13 atom-13 atom-14" d="M 319.1,51.1 L 311.1,51.3" style="fill:none;fill-rule:evenodd;stroke:#000000;stroke-width:2.0px;stroke-linecap:butt;stroke-linejoin:miter;stroke-opacity:1"/>
<path class="bond-13 atom-13 atom-14" d="M 311.1,51.3 L 303.2,51.6" style="fill:none;fill-rule:evenodd;stroke:#FF0000;stroke-width:2.0px;stroke-linecap:butt;stroke-linejoin:miter;stroke-opacity:1"/>
<path class="bond-14 atom-12 atom-15" d="M 329.2,67.2 L 348.2,66.5" style="fill:none;fill-rule:evenodd;stroke:#000000;stroke-width:2.0px;stroke-linecap:butt;stroke-linejoin:miter;stroke-opacity:1"/>
<path class="bond-15 atom-15 atom-16" d="M 348.2,66.5 L 351.7,59.8" style="fill:none;fill-rule:evenodd;stroke:#000000;stroke-width:2.0px;stroke-linecap:butt;stroke-linejoin:miter;stroke-opacity:1"/>
<path class="bond-15 atom-15 atom-16" d="M 351.7,59.8 L 355.3,53.1" style="fill:none;fill-rule:evenodd;stroke:#FF0000;stroke-width:2.0px;stroke-linecap:butt;stroke-linejoin:miter;stroke-opacity:1"/>
<path class="bond-16 atom-15 atom-17" d="M 348.2,66.5 L 358.3,82.6" style="fill:none;fill-rule:evenodd;stroke:#000000;stroke-width:2.0px;stroke-linecap:butt;stroke-linejoin:miter;stroke-opacity:1"/>
<path class="bond-17 atom-17 atom-18" d="M 358.3,82.6 L 366.3,82.3" style="fill:none;fill-rule:evenodd;stroke:#000000;stroke-width:2.0px;stroke-linecap:butt;stroke-linejoin:miter;stroke-opacity:1"/>
<path class="bond-17 atom-17 atom-18" d="M 366.3,82.3 L 374.2,82.0" style="fill:none;fill-rule:evenodd;stroke:#FF0000;stroke-width:2.0px;stroke-linecap:butt;stroke-linejoin:miter;stroke-opacity:1"/>
<path class="bond-18 atom-17 atom-19" d="M 358.3,82.6 L 349.4,99.4" style="fill:none;fill-rule:evenodd;stroke:#000000;stroke-width:2.0px;stroke-linecap:butt;stroke-linejoin:miter;stroke-opacity:1"/>
<path class="bond-19 atom-19 atom-20" d="M 349.4,99.4 L 353.4,105.8" style="fill:none;fill-rule:evenodd;stroke:#000000;stroke-width:2.0px;stroke-linecap:butt;stroke-linejoin:miter;stroke-opacity:1"/>
<path class="bond-19 atom-19 atom-20" d="M 353.4,105.8 L 357.4,112.1" style="fill:none;fill-rule:evenodd;stroke:#FF0000;stroke-width:2.0px;stroke-linecap:butt;stroke-linejoin:miter;stroke-opacity:1"/>
<path class="bond-20 atom-19 atom-10" d="M 349.4,99.4 L 330.4,100.1" style="fill:none;fill-rule:evenodd;stroke:#000000;stroke-width:2.0px;stroke-linecap:butt;stroke-linejoin:miter;stroke-opacity:1"/>
<path d="M 233.2,70.7 L 234.2,70.7 L 234.7,71.5" style="fill:none;stroke:#000000;stroke-width:2.0px;stroke-linecap:butt;stroke-linejoin:miter;stroke-opacity:1;"/>
<path d="M 243.8,86.0 L 244.3,86.8 L 245.2,86.7" style="fill:none;stroke:#000000;stroke-width:2.0px;stroke-linecap:butt;stroke-linejoin:miter;stroke-opacity:1;"/>
<path d="M 262.3,86.1 L 263.3,86.1 L 263.8,86.9" style="fill:none;stroke:#000000;stroke-width:2.0px;stroke-linecap:butt;stroke-linejoin:miter;stroke-opacity:1;"/>
<path d="M 272.9,101.4 L 273.4,102.2 L 274.3,102.1" style="fill:none;stroke:#000000;stroke-width:2.0px;stroke-linecap:butt;stroke-linejoin:miter;stroke-opacity:1;"/>
<path d="M 319.6,51.9 L 319.1,51.1 L 318.7,51.1" style="fill:none;stroke:#000000;stroke-width:2.0px;stroke-linecap:butt;stroke-linejoin:miter;stroke-opacity:1;"/>
<path class="atom-6" d="M 298.8 84.7 Q 298.8 83.4, 299.5 82.7 Q 300.1 81.9, 301.3 81.9 Q 302.5 81.9, 303.1 82.7 Q 303.8 83.4, 303.8 84.7 Q 303.8 86.0, 303.1 86.7 Q 302.5 87.5, 301.3 87.5 Q 300.1 87.5, 299.5 86.7 Q 298.8 86.0, 298.8 84.7 M 301.3 86.9 Q 302.1 86.9, 302.6 86.3 Q 303.0 85.8, 303.0 84.7 Q 303.0 83.6, 302.6 83.1 Q 302.1 82.6, 301.3 82.6 Q 300.5 82.6, 300.0 83.1 Q 299.6 83.6, 299.6 84.7 Q 299.6 85.8, 300.0 86.3 Q 300.5 86.9, 301.3 86.9 " fill="#FF0000"/>
<path class="atom-6" d="M 304.6 82.0 L 305.3 82.0 L 305.3 84.3 L 308.1 84.3 L 308.1 82.0 L 308.8 82.0 L 308.8 87.4 L 308.1 87.4 L 308.1 84.9 L 305.3 84.9 L 305.3 87.4 L 304.6 87.4 L 304.6 82.0 " fill="#FF0000"/>
<path class="atom-9" d="M 319.0 116.9 Q 319.0 115.6, 319.7 114.9 Q 320.3 114.2, 321.5 114.2 Q 322.7 114.2, 323.3 114.9 Q 324.0 115.6, 324.0 116.9 Q 324.0 118.2, 323.3 119.0 Q 322.7 119.7, 321.5 119.7 Q 320.3 119.7, 319.7 119.0 Q 319.0 118.2, 319.0 116.9 M 321.5 119.1 Q 322.3 119.1, 322.8 118.5 Q 323.2 118.0, 323.2 116.9 Q 323.2 115.8, 322.8 115.3 Q 322.3 114.8, 321.5 114.8 Q 320.7 114.8, 320.2 115.3 Q 319.8 115.8, 319.8 116.9 Q 319.8 118.0, 320.2 118.5 Q 320.7 119.1, 321.5 119.1 " fill="#FF0000"/>
<path class="atom-11" d="M 317.8 84.0 Q 317.8 82.7, 318.5 82.0 Q 319.1 81.3, 320.3 81.3 Q 321.5 81.3, 322.1 82.0 Q 322.8 82.7, 322.8 84.0 Q 322.8 85.3, 322.1 86.0 Q 321.5 86.8, 320.3 86.8 Q 319.1 86.8, 318.5 86.0 Q 317.8 85.3, 317.8 84.0 M 320.3 86.2 Q 321.1 86.2, 321.6 85.6 Q 322.0 85.1, 322.0 84.0 Q 322.0 82.9, 321.6 82.4 Q 321.1 81.9, 320.3 81.9 Q 319.5 81.9, 319.0 82.4 Q 318.6 82.9, 318.6 84.0 Q 318.6 85.1, 319.0 85.6 Q 319.5 86.2, 320.3 86.2 " fill="#FF0000"/>
<path class="atom-14" d="M 292.3 49.1 L 293.0 49.1 L 293.0 51.4 L 295.8 51.4 L 295.8 49.1 L 296.5 49.1 L 296.5 54.5 L 295.8 54.5 L 295.8 52.0 L 293.0 52.0 L 293.0 54.5 L 292.3 54.5 L 292.3 49.1 " fill="#FF0000"/>
<path class="atom-14" d="M 297.6 51.8 Q 297.6 50.5, 298.2 49.8 Q 298.9 49.0, 300.1 49.0 Q 301.3 49.0, 301.9 49.8 Q 302.6 50.5, 302.6 51.8 Q 302.6 53.1, 301.9 53.8 Q 301.3 54.6, 300.1 54.6 Q 298.9 54.6, 298.2 53.8 Q 297.6 53.1, 297.6 51.8 M 300.1 54.0 Q 300.9 54.0, 301.3 53.4 Q 301.8 52.9, 301.8 51.8 Q 301.8 50.7, 301.3 50.2 Q 300.9 49.6, 300.1 49.6 Q 299.3 49.6, 298.8 50.2 Q 298.4 50.7, 298.4 51.8 Q 298.4 52.9, 298.8 53.4 Q 299.3 54.0, 300.1 54.0 " fill="#FF0000"/>
<path class="atom-16" d="M 354.6 49.7 Q 354.6 48.4, 355.3 47.7 Q 355.9 46.9, 357.1 46.9 Q 358.3 46.9, 358.9 47.7 Q 359.6 48.4, 359.6 49.7 Q 359.6 51.0, 358.9 51.7 Q 358.3 52.5, 357.1 52.5 Q 355.9 52.5, 355.3 51.7 Q 354.6 51.0, 354.6 49.7 M 357.1 51.9 Q 357.9 51.9, 358.4 51.3 Q 358.8 50.8, 358.8 49.7 Q 358.8 48.6, 358.4 48.1 Q 357.9 47.5, 357.1 47.5 Q 356.3 47.5, 355.8 48.1 Q 355.4 48.6, 355.4 49.7 Q 355.4 50.8, 355.8 51.3 Q 356.3 51.9, 357.1 51.9 " fill="#FF0000"/>
<path class="atom-16" d="M 360.4 47.0 L 361.1 47.0 L 361.1 49.3 L 363.9 49.3 L 363.9 47.0 L 364.6 47.0 L 364.6 52.4 L 363.9 52.4 L 363.9 49.9 L 361.1 49.9 L 361.1 52.4 L 360.4 52.4 L 360.4 47.0 " fill="#FF0000"/>
<path class="atom-18" d="M 374.8 81.9 Q 374.8 80.6, 375.5 79.9 Q 376.1 79.2, 377.3 79.2 Q 378.5 79.2, 379.1 79.9 Q 379.8 80.6, 379.8 81.9 Q 379.8 83.2, 379.1 83.9 Q 378.5 84.7, 377.3 84.7 Q 376.1 84.7, 375.5 83.9 Q 374.8 83.2, 374.8 81.9 M 377.3 84.1 Q 378.1 84.1, 378.6 83.5 Q 379.0 83.0, 379.0 81.9 Q 379.0 80.8, 378.6 80.3 Q 378.1 79.8, 377.3 79.8 Q 376.5 79.8, 376.0 80.3 Q 375.6 80.8, 375.6 81.9 Q 375.6 83.0, 376.0 83.5 Q 376.5 84.1, 377.3 84.1 " fill="#FF0000"/>
<path class="atom-18" d="M 380.6 79.2 L 381.3 79.2 L 381.3 81.5 L 384.1 81.5 L 384.1 79.2 L 384.8 79.2 L 384.8 84.6 L 384.1 84.6 L 384.1 82.1 L 381.3 82.1 L 381.3 84.6 L 380.6 84.6 L 380.6 79.2 " fill="#FF0000"/>
<path class="atom-20" d="M 357.0 115.5 Q 357.0 114.2, 357.7 113.5 Q 358.3 112.8, 359.5 112.8 Q 360.7 112.8, 361.3 113.5 Q 362.0 114.2, 362.0 115.5 Q 362.0 116.8, 361.3 117.6 Q 360.7 118.3, 359.5 118.3 Q 358.3 118.3, 357.7 117.6 Q 357.0 116.8, 357.0 115.5 M 359.5 117.7 Q 360.3 117.7, 360.8 117.1 Q 361.2 116.6, 361.2 115.5 Q 361.2 114.5, 360.8 113.9 Q 360.3 113.4, 359.5 113.4 Q 358.7 113.4, 358.2 113.9 Q 357.8 114.4, 357.8 115.5 Q 357.8 116.6, 358.2 117.1 Q 358.7 117.7, 359.5 117.7 " fill="#FF0000"/>
<path class="atom-20" d="M 362.8 112.8 L 363.6 112.8 L 363.6 115.1 L 366.3 115.1 L 366.3 112.8 L 367.0 112.8 L 367.0 118.2 L 366.3 118.2 L 366.3 115.7 L 363.6 115.7 L 363.6 118.2 L 362.8 118.2 L 362.8 112.8 " fill="#FF0000"/>
<path class="legend" d="M 301.7 184.0 Q 302.7 184.4, 303.3 185.0 Q 303.8 185.7, 303.8 186.7 Q 303.8 188.2, 302.8 189.1 Q 301.8 190.0, 300.0 190.0 L 296.2 190.0 L 296.2 178.7 L 299.5 178.7 Q 301.4 178.7, 302.4 179.5 Q 303.4 180.2, 303.4 181.7 Q 303.4 183.4, 301.7 184.0 M 297.7 180.0 L 297.7 183.5 L 299.5 183.5 Q 300.6 183.5, 301.2 183.1 Q 301.8 182.6, 301.8 181.7 Q 301.8 180.0, 299.5 180.0 L 297.7 180.0 M 300.0 188.7 Q 301.1 188.7, 301.7 188.2 Q 302.2 187.7, 302.2 186.7 Q 302.2 185.7, 301.6 185.3 Q 301.0 184.8, 299.7 184.8 L 297.7 184.8 L 297.7 188.7 L 300.0 188.7 " fill="#000000"/>
<path class="bond-0 atom-0 atom-1" d="M 480.6,106.6 L 473.9,102.6" style="fill:none;fill-rule:evenodd;stroke:#FF0000;stroke-width:2.0px;stroke-linecap:butt;stroke-linejoin:miter;stroke-opacity:1"/>
<path class="bond-0 atom-0 atom-1" d="M 473.9,102.6 L 467.3,98.7" style="fill:none;fill-rule:evenodd;stroke:#000000;stroke-width:2.0px;stroke-linecap:butt;stroke-linejoin:miter;stroke-opacity:1"/>
<path class="bond-1 atom-1 atom-2" d="M 467.3,98.7 L 450.7,108.1" style="fill:none;fill-rule:evenodd;stroke:#000000;stroke-width:2.0px;stroke-linecap:butt;stroke-linejoin:miter;stroke-opacity:1"/>
<path class="bond-1 atom-1 atom-2" d="M 464.4,97.1 L 450.8,104.8" style="fill:none;fill-rule:evenodd;stroke:#000000;stroke-width:2.0px;stroke-linecap:butt;stroke-linejoin:miter;stroke-opacity:1"/>
<path class="bond-2 atom-2 atom-3" d="M 450.7,108.1 L 434.3,98.5" style="fill:none;fill-rule:evenodd;stroke:#000000;stroke-width:2.0px;stroke-linecap:butt;stroke-linejoin:miter;stroke-opacity:1"/>
<path class="bond-3 atom-3 atom-4" d="M 434.3,98.5 L 427.6,102.3" style="fill:none;fill-rule:evenodd;stroke:#000000;stroke-width:2.0px;stroke-linecap:butt;stroke-linejoin:miter;stroke-opacity:1"/>
<path class="bond-3 atom-3 atom-4" d="M 427.6,102.3 L 420.9,106.1" style="fill:none;fill-rule:evenodd;stroke:#FF0000;stroke-width:2.0px;stroke-linecap:butt;stroke-linejoin:miter;stroke-opacity:1"/>
<path class="bond-4 atom-3 atom-5" d="M 434.3,98.5 L 434.5,79.5" style="fill:none;fill-rule:evenodd;stroke:#000000;stroke-width:2.0px;stroke-linecap:butt;stroke-linejoin:miter;stroke-opacity:1"/>
<path class="bond-4 atom-3 atom-5" d="M 437.2,96.9 L 437.3,81.2" style="fill:none;fill-rule:evenodd;stroke:#000000;stroke-width:2.0px;stroke-linecap:butt;stroke-linejoin:miter;stroke-opacity:1"/>
<path class="bond-5 atom-5 atom-6" d="M 434.5,79.5 L 451.0,70.1" style="fill:none;fill-rule:evenodd;stroke:#000000;stroke-width:2.0px;stroke-linecap:butt;stroke-linejoin:miter;stroke-opacity:1"/>
<path class="bond-6 atom-6 atom-7" d="M 451.0,70.1 L 467.4,79.7" style="fill:none;fill-rule:evenodd;stroke:#000000;stroke-width:2.0px;stroke-linecap:butt;stroke-linejoin:miter;stroke-opacity:1"/>
<path class="bond-6 atom-6 atom-7" d="M 451.0,73.4 L 464.5,81.4" style="fill:none;fill-rule:evenodd;stroke:#000000;stroke-width:2.0px;stroke-linecap:butt;stroke-linejoin:miter;stroke-opacity:1"/>
<path class="bond-7 atom-7 atom-8" d="M 467.4,79.7 L 483.9,70.3" style="fill:none;fill-rule:evenodd;stroke:#000000;stroke-width:2.0px;stroke-linecap:butt;stroke-linejoin:miter;stroke-opacity:1"/>
<path class="bond-8 atom-8 atom-9" d="M 483.9,70.3 L 500.3,80.0" style="fill:none;fill-rule:evenodd;stroke:#000000;stroke-width:2.0px;stroke-linecap:butt;stroke-linejoin:miter;stroke-opacity:1"/>
<path class="bond-9 atom-9 atom-10" d="M 500.3,80.0 L 516.9,70.6" style="fill:none;fill-rule:evenodd;stroke:#000000;stroke-width:2.0px;stroke-linecap:butt;stroke-linejoin:miter;stroke-opacity:1"/>
<path class="bond-10 atom-10 atom-11" d="M 516.9,70.6 L 533.3,80.2" style="fill:none;fill-rule:evenodd;stroke:#000000;stroke-width:2.0px;stroke-linecap:butt;stroke-linejoin:miter;stroke-opacity:1"/>
<path class="bond-11 atom-11 atom-12" d="M 533.3,80.2 L 533.1,99.2" style="fill:none;fill-rule:evenodd;stroke:#000000;stroke-width:2.0px;stroke-linecap:butt;stroke-linejoin:miter;stroke-opacity:1"/>
<path class="bond-11 atom-11 atom-12" d="M 536.1,81.9 L 536.0,97.6" style="fill:none;fill-rule:evenodd;stroke:#000000;stroke-width:2.0px;stroke-linecap:butt;stroke-linejoin:miter;stroke-opacity:1"/>
<path class="bond-12 atom-12 atom-13" d="M 533.1,99.2 L 549.5,108.9" style="fill:none;fill-rule:evenodd;stroke:#000000;stroke-width:2.0px;stroke-linecap:butt;stroke-linejoin:miter;stroke-opacity:1"/>
<path class="bond-13 atom-13 atom-14" d="M 549.5,108.9 L 566.1,99.5" style="fill:none;fill-rule:evenodd;stroke:#000000;stroke-width:2.0px;stroke-linecap:butt;stroke-linejoin:miter;stroke-opacity:1"/>
<path class="bond-13 atom-13 atom-14" d="M 549.6,105.6 L 563.2,97.8" style="fill:none;fill-rule:evenodd;stroke:#000000;stroke-width:2.0px;stroke-linecap:butt;stroke-linejoin:miter;stroke-opacity:1"/>
<path class="bond-14 atom-14 atom-15" d="M 566.1,99.5 L 572.7,103.4" style="fill:none;fill-rule:evenodd;stroke:#000000;stroke-width:2.0px;stroke-linecap:butt;stroke-linejoin:miter;stroke-opacity:1"/>
<path class="bond-14 atom-14 atom-15" d="M 572.7,103.4 L 579.4,107.3" style="fill:none;fill-rule:evenodd;stroke:#FF0000;stroke-width:2.0px;stroke-linecap:butt;stroke-linejoin:miter;stroke-opacity:1"/>
<path class="bond-15 atom-14 atom-16" d="M 566.1,99.5 L 566.2,80.4" style="fill:none;fill-rule:evenodd;stroke:#000000;stroke-width:2.0px;stroke-linecap:butt;stroke-linejoin:miter;stroke-opacity:1"/>
<path class="bond-16 atom-16 atom-17" d="M 566.2,80.4 L 549.8,70.8" style="fill:none;fill-rule:evenodd;stroke:#000000;stroke-width:2.0px;stroke-linecap:butt;stroke-linejoin:miter;stroke-opacity:1"/>
<path class="bond-16 atom-16 atom-17" d="M 563.4,82.1 L 549.8,74.1" style="fill:none;fill-rule:evenodd;stroke:#000000;stroke-width:2.0px;stroke-linecap:butt;stroke-linejoin:miter;stroke-opacity:1"/>
<path class="bond-17 atom-7 atom-1" d="M 467.4,79.7 L 467.3,98.7" style="fill:none;fill-rule:evenodd;stroke:#000000;stroke-width:2.0px;stroke-linecap:butt;stroke-linejoin:miter;stroke-opacity:1"/>
<path class="bond-18 atom-17 atom-11" d="M 549.8,70.8 L 533.3,80.2" style="fill:none;fill-rule:evenodd;stroke:#000000;stroke-width:2.0px;stroke-linecap:butt;stroke-linejoin:miter;stroke-opacity:1"/>
<path d="M 451.6,107.7 L 450.7,108.1 L 449.9,107.7" style="fill:none;stroke:#000000;stroke-width:2.0px;stroke-linecap:butt;stroke-linejoin:miter;stroke-opacity:1;"/>
<path d="M 434.5,80.4 L 434.5,79.5 L 435.3,79.0" style="fill:none;stroke:#000000;stroke-width:2.0px;stroke-linecap:butt;stroke-linejoin:miter;stroke-opacity:1;"/>
<path d="M 450.2,70.6 L 451.0,70.1 L 451.8,70.6" style="fill:none;stroke:#000000;stroke-width:2.0px;stroke-linecap:butt;stroke-linejoin:miter;stroke-opacity:1;"/>
<path d="M 483.1,70.8 L 483.9,70.3 L 484.8,70.8" style="fill:none;stroke:#000000;stroke-width:2.0px;stroke-linecap:butt;stroke-linejoin:miter;stroke-opacity:1;"/>
<path d="M 499.5,79.5 L 500.3,80.0 L 501.2,79.5" style="fill:none;stroke:#000000;stroke-width:2.0px;stroke-linecap:butt;stroke-linejoin:miter;stroke-opacity:1;"/>
<path d="M 516.1,71.0 L 516.9,70.6 L 517.7,71.1" style="fill:none;stroke:#000000;stroke-width:2.0px;stroke-linecap:butt;stroke-linejoin:miter;stroke-opacity:1;"/>
<path d="M 533.1,98.3 L 533.1,99.2 L 534.0,99.7" style="fill:none;stroke:#000000;stroke-width:2.0px;stroke-linecap:butt;stroke-linejoin:miter;stroke-opacity:1;"/>
<path d="M 548.7,108.4 L 549.5,108.9 L 550.4,108.4" style="fill:none;stroke:#000000;stroke-width:2.0px;stroke-linecap:butt;stroke-linejoin:miter;stroke-opacity:1;"/>
<path d="M 566.2,81.4 L 566.2,80.4 L 565.4,80.0" style="fill:none;stroke:#000000;stroke-width:2.0px;stroke-linecap:butt;stroke-linejoin:miter;stroke-opacity:1;"/>
<path d="M 550.6,71.3 L 549.8,70.8 L 549.0,71.3" style="fill:none;stroke:#000000;stroke-width:2.0px;stroke-linecap:butt;stroke-linejoin:miter;stroke-opacity:1;"/>
<path class="atom-0" d="M 481.2 108.4 Q 481.2 107.1, 481.8 106.4 Q 482.5 105.6, 483.7 105.6 Q 484.9 105.6, 485.5 106.4 Q 486.1 107.1, 486.1 108.4 Q 486.1 109.7, 485.5 110.4 Q 484.8 111.2, 483.7 111.2 Q 482.5 111.2, 481.8 110.4 Q 481.2 109.7, 481.2 108.4 M 483.7 110.6 Q 484.5 110.6, 484.9 110.0 Q 485.4 109.5, 485.4 108.4 Q 485.4 107.3, 484.9 106.8 Q 484.5 106.3, 483.7 106.3 Q 482.8 106.3, 482.4 106.8 Q 482.0 107.3, 482.0 108.4 Q 482.0 109.5, 482.4 110.0 Q 482.8 110.6, 483.7 110.6 " fill="#FF0000"/>
<path class="atom-0" d="M 487.0 105.7 L 487.7 105.7 L 487.7 108.0 L 490.5 108.0 L 490.5 105.7 L 491.2 105.7 L 491.2 111.1 L 490.5 111.1 L 490.5 108.6 L 487.7 108.6 L 487.7 111.1 L 487.0 111.1 L 487.0 105.7 " fill="#FF0000"/>
<path class="atom-4" d="M 410.0 105.2 L 410.7 105.2 L 410.7 107.5 L 413.5 107.5 L 413.5 105.2 L 414.2 105.2 L 414.2 110.6 L 413.5 110.6 L 413.5 108.1 L 410.7 108.1 L 410.7 110.6 L 410.0 110.6 L 410.0 105.2 " fill="#FF0000"/>
<path class="atom-4" d="M 415.3 107.9 Q 415.3 106.6, 416.0 105.9 Q 416.6 105.2, 417.8 105.2 Q 419.0 105.2, 419.6 105.9 Q 420.3 106.6, 420.3 107.9 Q 420.3 109.2, 419.6 110.0 Q 419.0 110.7, 417.8 110.7 Q 416.6 110.7, 416.0 110.0 Q 415.3 109.2, 415.3 107.9 M 417.8 110.1 Q 418.6 110.1, 419.1 109.5 Q 419.5 109.0, 419.5 107.9 Q 419.5 106.9, 419.1 106.3 Q 418.6 105.8, 417.8 105.8 Q 417.0 105.8, 416.5 106.3 Q 416.1 106.8, 416.1 107.9 Q 416.1 109.0, 416.5 109.5 Q 417.0 110.1, 417.8 110.1 " fill="#FF0000"/>
<path class="atom-15" d="M 580.0 109.1 Q 580.0 107.8, 580.6 107.1 Q 581.3 106.4, 582.5 106.4 Q 583.7 106.4, 584.3 107.1 Q 584.9 107.8, 584.9 109.1 Q 584.9 110.4, 584.3 111.2 Q 583.7 111.9, 582.5 111.9 Q 581.3 111.9, 580.6 111.2 Q 580.0 110.4, 580.0 109.1 M 582.5 111.3 Q 583.3 111.3, 583.7 110.7 Q 584.2 110.2, 584.2 109.1 Q 584.2 108.1, 583.7 107.5 Q 583.3 107.0, 582.5 107.0 Q 581.7 107.0, 581.2 107.5 Q 580.8 108.0, 580.8 109.1 Q 580.8 110.2, 581.2 110.7 Q 581.7 111.3, 582.5 111.3 " fill="#FF0000"/>
<path class="atom-15" d="M 585.8 106.4 L 586.5 106.4 L 586.5 108.7 L 589.3 108.7 L 589.3 106.4 L 590.0 106.4 L 590.0 111.8 L 589.3 111.8 L 589.3 109.3 L 586.5 109.3 L 586.5 111.8 L 585.8 111.8 L 585.8 106.4 " fill="#FF0000"/>
<path class="legend" d="M 495.6 184.2 Q 495.6 181.4, 496.9 179.9 Q 498.3 178.4, 500.8 178.4 Q 503.1 178.4, 504.4 180.0 L 503.3 180.9 Q 502.4 179.7, 500.8 179.7 Q 499.1 179.7, 498.2 180.9 Q 497.3 182.0, 497.3 184.2 Q 497.3 186.4, 498.2 187.6 Q 499.1 188.7, 501.0 188.7 Q 502.2 188.7, 503.7 188.0 L 504.1 189.2 Q 503.5 189.6, 502.6 189.8 Q 501.7 190.0, 500.7 190.0 Q 498.3 190.0, 496.9 188.5 Q 495.6 187.0, 495.6 184.2 " fill="#000000"/>
<path class="bond-0 atom-0 atom-1" d="M 674.9,92.7 L 692.4,85.3" style="fill:none;fill-rule:evenodd;stroke:#000000;stroke-width:2.0px;stroke-linecap:butt;stroke-linejoin:miter;stroke-opacity:1"/>
<path class="bond-1 atom-1 atom-2" d="M 692.4,85.3 L 707.6,96.7" style="fill:none;fill-rule:evenodd;stroke:#000000;stroke-width:2.0px;stroke-linecap:butt;stroke-linejoin:miter;stroke-opacity:1"/>
<path class="bond-2 atom-2 atom-3" d="M 707.6,96.7 L 725.1,89.3" style="fill:none;fill-rule:evenodd;stroke:#000000;stroke-width:2.0px;stroke-linecap:butt;stroke-linejoin:miter;stroke-opacity:1"/>
<path d="M 691.5,85.7 L 692.4,85.3 L 693.2,85.9" style="fill:none;stroke:#000000;stroke-width:2.0px;stroke-linecap:butt;stroke-linejoin:miter;stroke-opacity:1;"/>
<path d="M 706.8,96.1 L 707.6,96.7 L 708.5,96.3" style="fill:none;stroke:#000000;stroke-width:2.0px;stroke-linecap:butt;stroke-linejoin:miter;stroke-opacity:1;"/>
<path class="legend" d="M 699.2 178.7 Q 701.7 178.7, 703.1 180.2 Q 704.4 181.6, 704.4 184.3 Q 704.4 187.0, 703.1 188.5 Q 701.7 190.0, 699.2 190.0 L 695.6 190.0 L 695.6 178.7 L 699.2 178.7 M 699.2 188.7 Q 701.0 188.7, 701.9 187.6 Q 702.8 186.5, 702.8 184.3 Q 702.8 182.1, 701.9 181.0 Q 701.0 180.0, 699.2 180.0 L 697.1 180.0 L 697.1 188.7 L 699.2 188.7 " fill="#000000"/>
<path class="bond-0 atom-0 atom-1" d="M 67.1,295.8 L 83.5,286.2" style="fill:none;fill-rule:evenodd;stroke:#000000;stroke-width:2.0px;stroke-linecap:butt;stroke-linejoin:miter;stroke-opacity:1"/>
<path class="bond-0 atom-0 atom-1" d="M 68.5,298.2 L 83.5,289.5" style="fill:none;fill-rule:evenodd;stroke:#000000;stroke-width:2.0px;stroke-linecap:butt;stroke-linejoin:miter;stroke-opacity:1;stroke-dasharray:6,4"/>
<path class="bond-1 atom-1 atom-2" d="M 83.5,286.2 L 100.0,295.8" style="fill:none;fill-rule:evenodd;stroke:#000000;stroke-width:2.0px;stroke-linecap:butt;stroke-linejoin:miter;stroke-opacity:1"/>
<path class="bond-1 atom-1 atom-2" d="M 83.5,289.5 L 98.6,298.2" style="fill:none;fill-rule:evenodd;stroke:#000000;stroke-width:2.0px;stroke-linecap:butt;stroke-linejoin:miter;stroke-opacity:1;stroke-dasharray:6,4"/>
<path class="bond-2 atom-2 atom-3" d="M 100.0,295.8 L 116.5,286.2" style="fill:none;fill-rule:evenodd;stroke:#000000;stroke-width:2.0px;stroke-linecap:butt;stroke-linejoin:miter;stroke-opacity:1"/>
<path class="bond-2 atom-2 atom-3" d="M 100.0,292.5 L 115.0,283.8" style="fill:none;fill-rule:evenodd;stroke:#000000;stroke-width:2.0px;stroke-linecap:butt;stroke-linejoin:miter;stroke-opacity:1;stroke-dasharray:6,4"/>
<path class="bond-3 atom-3 atom-4" d="M 116.5,286.2 L 132.9,295.8" style="fill:none;fill-rule:evenodd;stroke:#000000;stroke-width:2.0px;stroke-linecap:butt;stroke-linejoin:miter;stroke-opacity:1"/>
<path d="M 82.7,286.7 L 83.5,286.2 L 84.4,286.7" style="fill:none;stroke:#000000;stroke-width:2.0px;stroke-linecap:butt;stroke-linejoin:miter;stroke-opacity:1;"/>
<path d="M 99.2,295.3 L 100.0,295.8 L 100.8,295.3" style="fill:none;stroke:#000000;stroke-width:2.0px;stroke-linecap:butt;stroke-linejoin:miter;stroke-opacity:1;"/>
<path d="M 115.6,286.7 L 116.5,286.2 L 117.3,286.7" style="fill:none;stroke:#000000;stroke-width:2.0px;stroke-linecap:butt;stroke-linejoin:miter;stroke-opacity:1;"/>
<path class="legend" d="M 96.5 378.7 L 103.3 378.7 L 103.3 380.0 L 98.1 380.0 L 98.1 383.4 L 102.8 383.4 L 102.8 384.7 L 98.1 384.7 L 98.1 388.7 L 103.5 388.7 L 103.5 390.0 L 96.5 390.0 L 96.5 378.7 " fill="#000000"/>
<path class="bond-0 atom-0 atom-1" d="M 218.8,281.5 L 237.6,278.3" style="fill:none;fill-rule:evenodd;stroke:#000000;stroke-width:2.0px;stroke-linecap:butt;stroke-linejoin:miter;stroke-opacity:1"/>
<path class="bond-1 atom-1 atom-2" d="M 237.6,278.3 L 244.2,260.5" style="fill:none;fill-rule:evenodd;stroke:#000000;stroke-width:2.0px;stroke-linecap:butt;stroke-linejoin:miter;stroke-opacity:1"/>
<path class="bond-2 atom-1 atom-3" d="M 237.6,278.3 L 249.7,292.9" style="fill:none;fill-rule:evenodd;stroke:#000000;stroke-width:2.0px;stroke-linecap:butt;stroke-linejoin:miter;stroke-opacity:1"/>
<path class="bond-3 atom-3 atom-4" d="M 249.7,292.9 L 245.0,311.4" style="fill:none;fill-rule:evenodd;stroke:#000000;stroke-width:2.0px;stroke-linecap:butt;stroke-linejoin:miter;stroke-opacity:1"/>
<path class="bond-4 atom-4 atom-5" d="M 245.0,311.4 L 261.1,321.5" style="fill:none;fill-rule:evenodd;stroke:#000000;stroke-width:2.0px;stroke-linecap:butt;stroke-linejoin:miter;stroke-opacity:1"/>
<path class="bond-5 atom-5 atom-6" d="M 261.1,321.5 L 275.7,309.4" style="fill:none;fill-rule:evenodd;stroke:#000000;stroke-width:2.0px;stroke-linecap:butt;stroke-linejoin:miter;stroke-opacity:1"/>
<path class="bond-6 atom-6 atom-7" d="M 275.7,309.4 L 294.5,312.1" style="fill:none;fill-rule:evenodd;stroke:#000000;stroke-width:2.0px;stroke-linecap:butt;stroke-linejoin:miter;stroke-opacity:1"/>
<path class="bond-7 atom-7 atom-8" d="M 294.5,312.1 L 306.3,297.2" style="fill:none;fill-rule:evenodd;stroke:#000000;stroke-width:2.0px;stroke-linecap:butt;stroke-linejoin:miter;stroke-opacity:1"/>
<path class="bond-8 atom-8 atom-9" d="M 306.3,297.2 L 325.1,300.0" style="fill:none;fill-rule:evenodd;stroke:#000000;stroke-width:2.0px;stroke-linecap:butt;stroke-linejoin:miter;stroke-opacity:1"/>
<path class="bond-9 atom-9 atom-10" d="M 325.1,300.0 L 319.1,318.0" style="fill:none;fill-rule:evenodd;stroke:#000000;stroke-width:2.0px;stroke-linecap:butt;stroke-linejoin:miter;stroke-opacity:1"/>
<path class="bond-10 atom-9 atom-11" d="M 325.1,300.0 L 324.6,281.0" style="fill:none;fill-rule:evenodd;stroke:#000000;stroke-width:2.0px;stroke-linecap:butt;stroke-linejoin:miter;stroke-opacity:1"/>
<path class="bond-11 atom-11 atom-12" d="M 324.6,281.0 L 340.7,271.0" style="fill:none;fill-rule:evenodd;stroke:#000000;stroke-width:2.0px;stroke-linecap:butt;stroke-linejoin:miter;stroke-opacity:1"/>
<path class="bond-12 atom-12 atom-13" d="M 340.7,271.0 L 357.5,280.0" style="fill:none;fill-rule:evenodd;stroke:#000000;stroke-width:2.0px;stroke-linecap:butt;stroke-linejoin:miter;stroke-opacity:1"/>
<path class="bond-13 atom-13 atom-14" d="M 357.5,280.0 L 364.0,276.0" style="fill:none;fill-rule:evenodd;stroke:#000000;stroke-width:2.0px;stroke-linecap:butt;stroke-linejoin:miter;stroke-opacity:1"/>
<path class="bond-13 atom-13 atom-14" d="M 364.0,276.0 L 370.6,271.9" style="fill:none;fill-rule:evenodd;stroke:#FF0000;stroke-width:2.0px;stroke-linecap:butt;stroke-linejoin:miter;stroke-opacity:1"/>
<path class="bond-14 atom-13 atom-15" d="M 357.5,280.0 L 358.0,299.0" style="fill:none;fill-rule:evenodd;stroke:#000000;stroke-width:2.0px;stroke-linecap:butt;stroke-linejoin:miter;stroke-opacity:1"/>
<path class="bond-15 atom-15 atom-16" d="M 358.0,299.0 L 341.9,309.0" style="fill:none;fill-rule:evenodd;stroke:#000000;stroke-width:2.0px;stroke-linecap:butt;stroke-linejoin:miter;stroke-opacity:1"/>
<path class="bond-16 atom-8 atom-17" d="M 306.3,297.2 L 299.3,279.6" style="fill:none;fill-rule:evenodd;stroke:#000000;stroke-width:2.0px;stroke-linecap:butt;stroke-linejoin:miter;stroke-opacity:1"/>
<path class="bond-17 atom-17 atom-18" d="M 299.3,279.6 L 280.5,276.8" style="fill:none;fill-rule:evenodd;stroke:#000000;stroke-width:2.0px;stroke-linecap:butt;stroke-linejoin:miter;stroke-opacity:1"/>
<path class="bond-18 atom-18 atom-19" d="M 280.5,276.8 L 268.7,291.7" style="fill:none;fill-rule:evenodd;stroke:#000000;stroke-width:2.0px;stroke-linecap:butt;stroke-linejoin:miter;stroke-opacity:1"/>
<path class="bond-19 atom-19 atom-20" d="M 268.7,291.7 L 259.8,274.9" style="fill:none;fill-rule:evenodd;stroke:#000000;stroke-width:2.0px;stroke-linecap:butt;stroke-linejoin:miter;stroke-opacity:1"/>
<path class="bond-20 atom-19 atom-3" d="M 268.7,291.7 L 249.7,292.9" style="fill:none;fill-rule:evenodd;stroke:#000000;stroke-width:2.0px;stroke-linecap:butt;stroke-linejoin:miter;stroke-opacity:1"/>
<path class="bond-21 atom-19 atom-6" d="M 268.7,291.7 L 275.7,309.4" style="fill:none;fill-rule:evenodd;stroke:#000000;stroke-width:2.0px;stroke-linecap:butt;stroke-linejoin:miter;stroke-opacity:1"/>
<path class="bond-22 atom-16 atom-9" d="M 341.9,309.0 L 325.1,300.0" style="fill:none;fill-rule:evenodd;stroke:#000000;stroke-width:2.0px;stroke-linecap:butt;stroke-linejoin:miter;stroke-opacity:1"/>
<path d="M 245.2,310.4 L 245.0,311.4 L 245.8,311.9" style="fill:none;stroke:#000000;stroke-width:2.0px;stroke-linecap:butt;stroke-linejoin:miter;stroke-opacity:1;"/>
<path d="M 260.3,321.0 L 261.1,321.5 L 261.8,320.9" style="fill:none;stroke:#000000;stroke-width:2.0px;stroke-linecap:butt;stroke-linejoin:miter;stroke-opacity:1;"/>
<path d="M 293.6,312.0 L 294.5,312.1 L 295.1,311.4" style="fill:none;stroke:#000000;stroke-width:2.0px;stroke-linecap:butt;stroke-linejoin:miter;stroke-opacity:1;"/>
<path d="M 324.6,281.9 L 324.6,281.0 L 325.4,280.5" style="fill:none;stroke:#000000;stroke-width:2.0px;stroke-linecap:butt;stroke-linejoin:miter;stroke-opacity:1;"/>
<path d="M 339.9,271.5 L 340.7,271.0 L 341.6,271.4" style="fill:none;stroke:#000000;stroke-width:2.0px;stroke-linecap:butt;stroke-linejoin:miter;stroke-opacity:1;"/>
<path d="M 358.0,298.1 L 358.0,299.0 L 357.2,299.5" style="fill:none;stroke:#000000;stroke-width:2.0px;stroke-linecap:butt;stroke-linejoin:miter;stroke-opacity:1;"/>
<path d="M 342.7,308.5 L 341.9,309.0 L 341.0,308.6" style="fill:none;stroke:#000000;stroke-width:2.0px;stroke-linecap:butt;stroke-linejoin:miter;stroke-opacity:1;"/>
<path d="M 299.6,280.4 L 299.3,279.6 L 298.3,279.4" style="fill:none;stroke:#000000;stroke-width:2.0px;stroke-linecap:butt;stroke-linejoin:miter;stroke-opacity:1;"/>
<path d="M 281.4,276.9 L 280.5,276.8 L 279.9,277.5" style="fill:none;stroke:#000000;stroke-width:2.0px;stroke-linecap:butt;stroke-linejoin:miter;stroke-opacity:1;"/>
<path class="atom-14" d="M 371.2 270.0 Q 371.2 268.7, 371.8 268.0 Q 372.5 267.3, 373.7 267.3 Q 374.9 267.3, 375.5 268.0 Q 376.1 268.7, 376.1 270.0 Q 376.1 271.3, 375.5 272.1 Q 374.8 272.8, 373.7 272.8 Q 372.5 272.8, 371.8 272.1 Q 371.2 271.4, 371.2 270.0 M 373.7 272.2 Q 374.5 272.2, 374.9 271.7 Q 375.4 271.1, 375.4 270.0 Q 375.4 269.0, 374.9 268.4 Q 374.5 267.9, 373.7 267.9 Q 372.8 267.9, 372.4 268.4 Q 372.0 269.0, 372.0 270.0 Q 372.0 271.1, 372.4 271.7 Q 372.8 272.2, 373.7 272.2 " fill="#FF0000"/>
<path class="atom-14" d="M 377.0 267.4 L 377.7 267.4 L 377.7 269.7 L 380.5 269.7 L 380.5 267.4 L 381.2 267.4 L 381.2 272.7 L 380.5 272.7 L 380.5 270.3 L 377.7 270.3 L 377.7 272.7 L 377.0 272.7 L 377.0 267.4 " fill="#FF0000"/>
<path class="legend" d="M 296.6 378.7 L 303.4 378.7 L 303.4 380.0 L 298.2 380.0 L 298.2 383.4 L 302.8 383.4 L 302.8 384.7 L 298.2 384.7 L 298.2 390.0 L 296.6 390.0 L 296.6 378.7 " fill="#000000"/>
</svg>