<svg xmlns="http://www.w3.org/2000/svg" xmlns:rdkit="http://www.rdkit.org/xml" xmlns:xlink="http://www.w3.org/1999/xlink" version="1.1" baseProfile="full" xml:space="preserve" width="800px" height="200px" viewBox="0 0 800 200">
<!-- END OF HEADER -->
<rect style="opacity:1.0;fill:#FFFFFF;stroke:none" width="800.0" height="200.0" x="0.0" y="0.0"> </rect>
<path class="bond-0 atom-0 atom-1" d="M 44.8,88.1 L 62.9,80.0" style="fill:none;fill-rule:evenodd;stroke:#000000;stroke-width:2.0px;stroke-linecap:butt;stroke-linejoin:miter;stroke-opacity:1"/>
<path class="bond-1 atom-1 atom-2" d="M 62.9,80.0 L 79.0,91.6" style="fill:none;fill-rule:evenodd;stroke:#000000;stroke-width:2.0px;stroke-linecap:butt;stroke-linejoin:miter;stroke-opacity:1"/>
<path class="bond-2 atom-2 atom-3" d="M 77.6,90.6 L 76.7,99.1" style="fill:none;fill-rule:evenodd;stroke:#000000;stroke-width:2.0px;stroke-linecap:butt;stroke-linejoin:miter;stroke-opacity:1"/>
<path class="bond-2 atom-2 atom-3" d="M 76.7,99.1 L 75.8,107.7" style="fill:none;fill-rule:evenodd;stroke:#FF0000;stroke-width:2.0px;stroke-linecap:butt;stroke-linejoin:miter;stroke-opacity:1"/>
<path class="bond-2 atom-2 atom-3" d="M 80.5,90.9 L 79.7,99.4" style="fill:none;fill-rule:evenodd;stroke:#000000;stroke-width:2.0px;stroke-linecap:butt;stroke-linejoin:miter;stroke-opacity:1"/>
<path class="bond-2 atom-2 atom-3" d="M 79.7,99.4 L 78.8,108.0" style="fill:none;fill-rule:evenodd;stroke:#FF0000;stroke-width:2.0px;stroke-linecap:butt;stroke-linejoin:miter;stroke-opacity:1"/>
<path class="bond-3 atom-2 atom-4" d="M 79.0,91.6 L 97.1,83.4" style="fill:none;fill-rule:evenodd;stroke:#000000;stroke-width:2.0px;stroke-linecap:butt;stroke-linejoin:miter;stroke-opacity:1"/>
<path class="bond-4 atom-4 atom-5" d="M 97.1,83.4 L 99.1,63.7" style="fill:none;fill-rule:evenodd;stroke:#000000;stroke-width:2.0px;stroke-linecap:butt;stroke-linejoin:miter;stroke-opacity:1"/>
<path class="bond-4 atom-4 atom-5" d="M 100.2,82.0 L 101.9,65.7" style="fill:none;fill-rule:evenodd;stroke:#000000;stroke-width:2.0px;stroke-linecap:butt;stroke-linejoin:miter;stroke-opacity:1"/>
<path class="bond-5 atom-5 atom-6" d="M 99.1,63.7 L 117.2,55.6" style="fill:none;fill-rule:evenodd;stroke:#000000;stroke-width:2.0px;stroke-linecap:butt;stroke-linejoin:miter;stroke-opacity:1"/>
<path class="bond-6 atom-6 atom-7" d="M 117.2,55.6 L 133.3,67.2" style="fill:none;fill-rule:evenodd;stroke:#000000;stroke-width:2.0px;stroke-linecap:butt;stroke-linejoin:miter;stroke-opacity:1"/>
<path class="bond-6 atom-6 atom-7" d="M 116.9,59.0 L 130.2,68.6" style="fill:none;fill-rule:evenodd;stroke:#000000;stroke-width:2.0px;stroke-linecap:butt;stroke-linejoin:miter;stroke-opacity:1"/>
<path class="bond-7 atom-7 atom-8" d="M 133.3,67.2 L 131.3,86.9" style="fill:none;fill-rule:evenodd;stroke:#000000;stroke-width:2.0px;stroke-linecap:butt;stroke-linejoin:miter;stroke-opacity:1"/>
<path class="bond-8 atom-8 atom-9" d="M 131.3,86.9 L 137.7,91.6" style="fill:none;fill-rule:evenodd;stroke:#000000;stroke-width:2.0px;stroke-linecap:butt;stroke-linejoin:miter;stroke-opacity:1"/>
<path class="bond-8 atom-8 atom-9" d="M 137.7,91.6 L 144.1,96.2" style="fill:none;fill-rule:evenodd;stroke:#FF0000;stroke-width:2.0px;stroke-linecap:butt;stroke-linejoin:miter;stroke-opacity:1"/>
<path class="bond-9 atom-8 atom-10" d="M 131.3,86.9 L 113.2,95.1" style="fill:none;fill-rule:evenodd;stroke:#000000;stroke-width:2.0px;stroke-linecap:butt;stroke-linejoin:miter;stroke-opacity:1"/>
<path class="bond-9 atom-8 atom-10" d="M 128.5,84.9 L 113.5,91.6" style="fill:none;fill-rule:evenodd;stroke:#000000;stroke-width:2.0px;stroke-linecap:butt;stroke-linejoin:miter;stroke-opacity:1"/>
<path class="bond-10 atom-10 atom-11" d="M 113.2,95.1 L 111.2,114.8" style="fill:none;fill-rule:evenodd;stroke:#000000;stroke-width:2.0px;stroke-linecap:butt;stroke-linejoin:miter;stroke-opacity:1"/>
<path class="bond-11 atom-11 atom-12" d="M 111.2,114.8 L 127.3,126.4" style="fill:none;fill-rule:evenodd;stroke:#000000;stroke-width:2.0px;stroke-linecap:butt;stroke-linejoin:miter;stroke-opacity:1"/>
<path class="bond-12 atom-11 atom-13" d="M 111.3,113.1 L 103.5,116.6" style="fill:none;fill-rule:evenodd;stroke:#000000;stroke-width:2.0px;stroke-linecap:butt;stroke-linejoin:miter;stroke-opacity:1"/>
<path class="bond-12 atom-11 atom-13" d="M 103.5,116.6 L 95.7,120.1" style="fill:none;fill-rule:evenodd;stroke:#FF0000;stroke-width:2.0px;stroke-linecap:butt;stroke-linejoin:miter;stroke-opacity:1"/>
<path class="bond-12 atom-11 atom-13" d="M 112.6,115.8 L 104.7,119.3" style="fill:none;fill-rule:evenodd;stroke:#000000;stroke-width:2.0px;stroke-linecap:butt;stroke-linejoin:miter;stroke-opacity:1"/>
<path class="bond-12 atom-11 atom-13" d="M 104.7,119.3 L 96.9,122.9" style="fill:none;fill-rule:evenodd;stroke:#FF0000;stroke-width:2.0px;stroke-linecap:butt;stroke-linejoin:miter;stroke-opacity:1"/>
<path class="bond-13 atom-10 atom-4" d="M 113.2,95.1 L 97.1,83.4" style="fill:none;fill-rule:evenodd;stroke:#000000;stroke-width:2.0px;stroke-linecap:butt;stroke-linejoin:miter;stroke-opacity:1"/>
<path d="M 62.0,80.4 L 62.9,80.0 L 63.7,80.5" style="fill:none;stroke:#000000;stroke-width:2.0px;stroke-linecap:butt;stroke-linejoin:miter;stroke-opacity:1;"/>
<path d="M 78.2,91.0 L 79.0,91.6 L 79.9,91.2" style="fill:none;stroke:#000000;stroke-width:2.0px;stroke-linecap:butt;stroke-linejoin:miter;stroke-opacity:1;"/>
<path d="M 99.0,64.7 L 99.1,63.7 L 100.0,63.3" style="fill:none;stroke:#000000;stroke-width:2.0px;stroke-linecap:butt;stroke-linejoin:miter;stroke-opacity:1;"/>
<path d="M 116.3,56.0 L 117.2,55.6 L 118.0,56.1" style="fill:none;stroke:#000000;stroke-width:2.0px;stroke-linecap:butt;stroke-linejoin:miter;stroke-opacity:1;"/>
<path d="M 132.5,66.6 L 133.3,67.2 L 133.2,68.2" style="fill:none;stroke:#000000;stroke-width:2.0px;stroke-linecap:butt;stroke-linejoin:miter;stroke-opacity:1;"/>
<path d="M 111.3,113.8 L 111.2,114.8 L 112.0,115.4" style="fill:none;stroke:#000000;stroke-width:2.0px;stroke-linecap:butt;stroke-linejoin:miter;stroke-opacity:1;"/>
<path class="atom-3" d="M 74.4 111.3 Q 74.4 110.0, 75.0 109.2 Q 75.7 108.5, 77.0 108.5 Q 78.2 108.5, 78.9 109.2 Q 79.5 110.0, 79.5 111.3 Q 79.5 112.7, 78.9 113.5 Q 78.2 114.3, 77.0 114.3 Q 75.7 114.3, 75.0 113.5 Q 74.4 112.7, 74.4 111.3 M 77.0 113.6 Q 77.8 113.6, 78.3 113.1 Q 78.7 112.5, 78.7 111.3 Q 78.7 110.2, 78.3 109.7 Q 77.8 109.1, 77.0 109.1 Q 76.1 109.1, 75.6 109.7 Q 75.2 110.2, 75.2 111.3 Q 75.2 112.5, 75.6 113.1 Q 76.1 113.6, 77.0 113.6 " fill="#FF0000"/>
<path class="atom-9" d="M 144.8 98.6 Q 144.8 97.2, 145.5 96.5 Q 146.1 95.7, 147.4 95.7 Q 148.6 95.7, 149.3 96.5 Q 150.0 97.2, 150.0 98.6 Q 150.0 99.9, 149.3 100.7 Q 148.6 101.5, 147.4 101.5 Q 146.1 101.5, 145.5 100.7 Q 144.8 99.9, 144.8 98.6 M 147.4 100.8 Q 148.2 100.8, 148.7 100.3 Q 149.2 99.7, 149.2 98.6 Q 149.2 97.5, 148.7 96.9 Q 148.2 96.3, 147.4 96.3 Q 146.5 96.3, 146.1 96.9 Q 145.6 97.5, 145.6 98.6 Q 145.6 99.7, 146.1 100.3 Q 146.5 100.8, 147.4 100.8 " fill="#FF0000"/>
<path class="atom-9" d="M 150.8 95.8 L 151.6 95.8 L 151.6 98.2 L 154.5 98.2 L 154.5 95.8 L 155.2 95.8 L 155.2 101.4 L 154.5 101.4 L 154.5 98.8 L 151.6 98.8 L 151.6 101.4 L 150.8 101.4 L 150.8 95.8 " fill="#FF0000"/>
<path class="atom-13" d="M 90.5 123.0 Q 90.5 121.6, 91.1 120.9 Q 91.8 120.1, 93.1 120.1 Q 94.3 120.1, 95.0 120.9 Q 95.6 121.6, 95.6 123.0 Q 95.6 124.3, 95.0 125.1 Q 94.3 125.9, 93.1 125.9 Q 91.8 125.9, 91.1 125.1 Q 90.5 124.3, 90.5 123.0 M 93.1 125.2 Q 93.9 125.2, 94.4 124.7 Q 94.8 124.1, 94.8 123.0 Q 94.8 121.9, 94.4 121.3 Q 93.9 120.7, 93.1 120.7 Q 92.2 120.7, 91.7 121.3 Q 91.3 121.9, 91.3 123.0 Q 91.3 124.1, 91.7 124.7 Q 92.2 125.2, 93.1 125.2 " fill="#FF0000"/>
<path class="legend" d="M 103.4 190.0 L 102.2 186.7 L 97.8 186.7 L 96.6 190.0 L 95.1 190.0 L 99.0 178.7 L 100.9 178.7 L 104.9 190.0 L 103.4 190.0 M 98.2 185.4 L 101.8 185.4 L 100.0 180.3 L 98.2 185.4 " fill="#000000"/>
<path class="bond-0 atom-0 atom-1" d="M 257.1,95.3 L 276.1,89.7" style="fill:none;fill-rule:evenodd;stroke:#000000;stroke-width:2.0px;stroke-linecap:butt;stroke-linejoin:miter;stroke-opacity:1"/>
<path class="bond-1 atom-1 atom-2" d="M 276.1,89.7 L 290.5,103.5" style="fill:none;fill-rule:evenodd;stroke:#000000;stroke-width:2.0px;stroke-linecap:butt;stroke-linejoin:miter;stroke-opacity:1"/>
<path class="bond-2 atom-2 atom-3" d="M 290.5,103.5 L 309.5,98.0" style="fill:none;fill-rule:evenodd;stroke:#000000;stroke-width:2.0px;stroke-linecap:butt;stroke-linejoin:miter;stroke-opacity:1"/>
<path class="bond-3 atom-3 atom-4" d="M 309.5,98.0 L 314.3,78.7" style="fill:none;fill-rule:evenodd;stroke:#000000;stroke-width:2.0px;stroke-linecap:butt;stroke-linejoin:miter;stroke-opacity:1"/>
<path class="bond-3 atom-3 atom-4" d="M 312.8,97.0 L 316.8,81.1" style="fill:none;fill-rule:evenodd;stroke:#000000;stroke-width:2.0px;stroke-linecap:butt;stroke-linejoin:miter;stroke-opacity:1;stroke-dasharray:6,4"/>
<path class="bond-4 atom-4 atom-5" d="M 314.3,78.7 L 322.2,76.4" style="fill:none;fill-rule:evenodd;stroke:#000000;stroke-width:2.0px;stroke-linecap:butt;stroke-linejoin:miter;stroke-opacity:1"/>
<path class="bond-4 atom-4 atom-5" d="M 322.2,76.4 L 330.1,74.1" style="fill:none;fill-rule:evenodd;stroke:#FF0000;stroke-width:2.0px;stroke-linecap:butt;stroke-linejoin:miter;stroke-opacity:1"/>
<path class="bond-5 atom-3 atom-6" d="M 309.5,98.0 L 323.9,111.7" style="fill:none;fill-rule:evenodd;stroke:#000000;stroke-width:2.0px;stroke-linecap:butt;stroke-linejoin:miter;stroke-opacity:1"/>
<path class="bond-5 atom-3 atom-6" d="M 312.8,97.0 L 324.7,108.4" style="fill:none;fill-rule:evenodd;stroke:#000000;stroke-width:2.0px;stroke-linecap:butt;stroke-linejoin:miter;stroke-opacity:1;stroke-dasharray:6,4"/>
<path class="bond-6 atom-6 atom-7" d="M 323.9,111.7 L 342.9,106.2" style="fill:none;fill-rule:evenodd;stroke:#000000;stroke-width:2.0px;stroke-linecap:butt;stroke-linejoin:miter;stroke-opacity:1"/>
<path class="bond-6 atom-6 atom-7" d="M 324.7,108.4 L 342.1,103.3" style="fill:none;fill-rule:evenodd;stroke:#000000;stroke-width:2.0px;stroke-linecap:butt;stroke-linejoin:miter;stroke-opacity:1;stroke-dasharray:6,4"/>
<path d="M 275.2,90.0 L 276.1,89.7 L 276.9,90.4" style="fill:none;stroke:#000000;stroke-width:2.0px;stroke-linecap:butt;stroke-linejoin:miter;stroke-opacity:1;"/>
<path d="M 289.8,102.8 L 290.5,103.5 L 291.4,103.2" style="fill:none;stroke:#000000;stroke-width:2.0px;stroke-linecap:butt;stroke-linejoin:miter;stroke-opacity:1;"/>
<path d="M 314.0,79.6 L 314.3,78.7 L 314.7,78.6" style="fill:none;stroke:#000000;stroke-width:2.0px;stroke-linecap:butt;stroke-linejoin:miter;stroke-opacity:1;"/>
<path d="M 323.1,111.0 L 323.9,111.7 L 324.8,111.4" style="fill:none;stroke:#000000;stroke-width:2.0px;stroke-linecap:butt;stroke-linejoin:miter;stroke-opacity:1;"/>
<path class="atom-5" d="M 330.8 73.2 Q 330.8 71.8, 331.4 71.1 Q 332.1 70.3, 333.3 70.3 Q 334.6 70.3, 335.3 71.1 Q 335.9 71.8, 335.9 73.2 Q 335.9 74.5, 335.2 75.3 Q 334.6 76.1, 333.3 76.1 Q 332.1 76.1, 331.4 75.3 Q 330.8 74.5, 330.8 73.2 M 333.3 75.4 Q 334.2 75.4, 334.7 74.9 Q 335.1 74.3, 335.1 73.2 Q 335.1 72.1, 334.7 71.5 Q 334.2 70.9, 333.3 70.9 Q 332.5 70.9, 332.0 71.5 Q 331.6 72.0, 331.6 73.2 Q 331.6 74.3, 332.0 74.9 Q 332.5 75.4, 333.3 75.4 " fill="#FF0000"/>
<path class="atom-5" d="M 336.8 70.4 L 337.6 70.4 L 337.6 72.8 L 340.4 72.8 L 340.4 70.4 L 341.2 70.4 L 341.2 76.0 L 340.4 76.0 L 340.4 73.4 L 337.6 73.4 L 337.6 76.0 L 336.8 76.0 L 336.8 70.4 " fill="#FF0000"/>
<path class="legend" d="M 301.7 184.0 Q 302.7 184.4, 303.3 185.0 Q 303.8 185.7, 303.8 186.7 Q 303.8 188.2, 302.8 189.1 Q 301.8 190.0, 300.0 190.0 L 296.2 190.0 L 296.2 178.7 L 299.5 178.7 Q 301.4 178.7, 302.4 179.5 Q 303.4 180.2, 303.4 181.7 Q 303.4 183.4, 301.7 184.0 M 297.7 180.0 L 297.7 183.5 L 299.5 183.5 Q 300.6 183.5, 301.2 183.1 Q 301.8 182.6, 301.8 181.7 Q 301.8 180.0, 299.5 180.0 L 297.7 180.0 M 300.0 188.7 Q 301.1 188.7, 301.7 188.2 Q 302.2 187.7, 302.2 186.7 Q 302.2 185.7, 301.6 185.3 Q 301.0 184.8, 299.7 184.8 L 297.7 184.8 L 297.7 188.7 L 300.0 188.7 " fill="#000000"/>
<path class="bond-0 atom-0 atom-1" d="M 410.0,87.5 L 428.6,80.6" style="fill:none;fill-rule:evenodd;stroke:#000000;stroke-width:2.0px;stroke-linecap:butt;stroke-linejoin:miter;stroke-opacity:1"/>
<path class="bond-1 atom-1 atom-2" d="M 428.6,80.6 L 431.9,61.0" style="fill:none;fill-rule:evenodd;stroke:#000000;stroke-width:2.0px;stroke-linecap:butt;stroke-linejoin:miter;stroke-opacity:1"/>
<path class="bond-2 atom-1 atom-3" d="M 428.6,80.6 L 443.9,93.2" style="fill:none;fill-rule:evenodd;stroke:#000000;stroke-width:2.0px;stroke-linecap:butt;stroke-linejoin:miter;stroke-opacity:1"/>
<path class="bond-3 atom-3 atom-4" d="M 443.9,93.2 L 442.6,113.0" style="fill:none;fill-rule:evenodd;stroke:#000000;stroke-width:2.0px;stroke-linecap:butt;stroke-linejoin:miter;stroke-opacity:1"/>
<path class="bond-4 atom-4 atom-5" d="M 442.6,113.0 L 461.1,120.4" style="fill:none;fill-rule:evenodd;stroke:#000000;stroke-width:2.0px;stroke-linecap:butt;stroke-linejoin:miter;stroke-opacity:1"/>
<path class="bond-5 atom-5 atom-6" d="M 461.1,120.4 L 473.8,105.1" style="fill:none;fill-rule:evenodd;stroke:#000000;stroke-width:2.0px;stroke-linecap:butt;stroke-linejoin:miter;stroke-opacity:1"/>
<path class="bond-6 atom-6 atom-7" d="M 473.8,105.1 L 493.6,104.2" style="fill:none;fill-rule:evenodd;stroke:#000000;stroke-width:2.0px;stroke-linecap:butt;stroke-linejoin:miter;stroke-opacity:1"/>
<path class="bond-7 atom-7 atom-8" d="M 493.6,104.2 L 504.2,121.0" style="fill:none;fill-rule:evenodd;stroke:#000000;stroke-width:2.0px;stroke-linecap:butt;stroke-linejoin:miter;stroke-opacity:1"/>
<path class="bond-8 atom-8 atom-9" d="M 504.2,121.0 L 524.1,120.2" style="fill:none;fill-rule:evenodd;stroke:#000000;stroke-width:2.0px;stroke-linecap:butt;stroke-linejoin:miter;stroke-opacity:1"/>
<path class="bond-9 atom-9 atom-10" d="M 524.1,120.2 L 533.3,102.6" style="fill:none;fill-rule:evenodd;stroke:#000000;stroke-width:2.0px;stroke-linecap:butt;stroke-linejoin:miter;stroke-opacity:1"/>
<path class="bond-9 atom-9 atom-10" d="M 522.2,117.3 L 529.8,102.7" style="fill:none;fill-rule:evenodd;stroke:#000000;stroke-width:2.0px;stroke-linecap:butt;stroke-linejoin:miter;stroke-opacity:1"/>
<path class="bond-10 atom-10 atom-11" d="M 533.3,102.6 L 553.1,101.8" style="fill:none;fill-rule:evenodd;stroke:#000000;stroke-width:2.0px;stroke-linecap:butt;stroke-linejoin:miter;stroke-opacity:1"/>
<path class="bond-11 atom-11 atom-12" d="M 553.1,101.8 L 562.3,84.2" style="fill:none;fill-rule:evenodd;stroke:#000000;stroke-width:2.0px;stroke-linecap:butt;stroke-linejoin:miter;stroke-opacity:1"/>
<path class="bond-12 atom-12 atom-13" d="M 562.3,84.2 L 570.6,83.8" style="fill:none;fill-rule:evenodd;stroke:#000000;stroke-width:2.0px;stroke-linecap:butt;stroke-linejoin:miter;stroke-opacity:1"/>
<path class="bond-12 atom-12 atom-13" d="M 570.6,83.8 L 578.9,83.5" style="fill:none;fill-rule:evenodd;stroke:#FF0000;stroke-width:2.0px;stroke-linecap:butt;stroke-linejoin:miter;stroke-opacity:1"/>
<path class="bond-13 atom-12 atom-14" d="M 562.3,84.2 L 551.7,67.4" style="fill:none;fill-rule:evenodd;stroke:#000000;stroke-width:2.0px;stroke-linecap:butt;stroke-linejoin:miter;stroke-opacity:1"/>
<path class="bond-14 atom-14 atom-15" d="M 551.7,67.4 L 531.8,68.2" style="fill:none;fill-rule:evenodd;stroke:#000000;stroke-width:2.0px;stroke-linecap:butt;stroke-linejoin:miter;stroke-opacity:1"/>
<path class="bond-15 atom-15 atom-16" d="M 531.8,68.2 L 522.6,85.8" style="fill:none;fill-rule:evenodd;stroke:#000000;stroke-width:2.0px;stroke-linecap:butt;stroke-linejoin:miter;stroke-opacity:1"/>
<path class="bond-16 atom-16 atom-17" d="M 522.6,85.8 L 512.0,69.1" style="fill:none;fill-rule:evenodd;stroke:#000000;stroke-width:2.0px;stroke-linecap:butt;stroke-linejoin:miter;stroke-opacity:1"/>
<path class="bond-17 atom-16 atom-18" d="M 522.6,85.8 L 502.8,86.7" style="fill:none;fill-rule:evenodd;stroke:#000000;stroke-width:2.0px;stroke-linecap:butt;stroke-linejoin:miter;stroke-opacity:1"/>
<path class="bond-18 atom-18 atom-19" d="M 502.8,86.7 L 492.2,69.9" style="fill:none;fill-rule:evenodd;stroke:#000000;stroke-width:2.0px;stroke-linecap:butt;stroke-linejoin:miter;stroke-opacity:1"/>
<path class="bond-19 atom-19 atom-20" d="M 492.2,69.9 L 472.3,70.7" style="fill:none;fill-rule:evenodd;stroke:#000000;stroke-width:2.0px;stroke-linecap:butt;stroke-linejoin:miter;stroke-opacity:1"/>
<path class="bond-20 atom-20 atom-21" d="M 472.3,70.7 L 463.1,88.3" style="fill:none;fill-rule:evenodd;stroke:#000000;stroke-width:2.0px;stroke-linecap:butt;stroke-linejoin:miter;stroke-opacity:1"/>
<path class="bond-21 atom-21 atom-22" d="M 463.1,88.3 L 450.8,72.7" style="fill:none;fill-rule:evenodd;stroke:#000000;stroke-width:2.0px;stroke-linecap:butt;stroke-linejoin:miter;stroke-opacity:1"/>
<path class="bond-22 atom-21 atom-3" d="M 463.1,88.3 L 443.9,93.2" style="fill:none;fill-rule:evenodd;stroke:#000000;stroke-width:2.0px;stroke-linecap:butt;stroke-linejoin:miter;stroke-opacity:1"/>
<path class="bond-23 atom-21 atom-6" d="M 463.1,88.3 L 473.8,105.1" style="fill:none;fill-rule:evenodd;stroke:#000000;stroke-width:2.0px;stroke-linecap:butt;stroke-linejoin:miter;stroke-opacity:1"/>
<path class="bond-24 atom-18 atom-7" d="M 502.8,86.7 L 493.6,104.2" style="fill:none;fill-rule:evenodd;stroke:#000000;stroke-width:2.0px;stroke-linecap:butt;stroke-linejoin:miter;stroke-opacity:1"/>
<path class="bond-25 atom-16 atom-10" d="M 522.6,85.8 L 533.3,102.6" style="fill:none;fill-rule:evenodd;stroke:#000000;stroke-width:2.0px;stroke-linecap:butt;stroke-linejoin:miter;stroke-opacity:1"/>
<path d="M 442.7,112.0 L 442.6,113.0 L 443.6,113.4" style="fill:none;stroke:#000000;stroke-width:2.0px;stroke-linecap:butt;stroke-linejoin:miter;stroke-opacity:1;"/>
<path d="M 460.2,120.0 L 461.1,120.4 L 461.7,119.6" style="fill:none;stroke:#000000;stroke-width:2.0px;stroke-linecap:butt;stroke-linejoin:miter;stroke-opacity:1;"/>
<path d="M 503.7,120.2 L 504.2,121.0 L 505.2,121.0" style="fill:none;stroke:#000000;stroke-width:2.0px;stroke-linecap:butt;stroke-linejoin:miter;stroke-opacity:1;"/>
<path d="M 523.1,120.2 L 524.1,120.2 L 524.5,119.3" style="fill:none;stroke:#000000;stroke-width:2.0px;stroke-linecap:butt;stroke-linejoin:miter;stroke-opacity:1;"/>
<path d="M 552.1,101.8 L 553.1,101.8 L 553.6,100.9" style="fill:none;stroke:#000000;stroke-width:2.0px;stroke-linecap:butt;stroke-linejoin:miter;stroke-opacity:1;"/>
<path d="M 552.2,68.3 L 551.7,67.4 L 550.7,67.5" style="fill:none;stroke:#000000;stroke-width:2.0px;stroke-linecap:butt;stroke-linejoin:miter;stroke-opacity:1;"/>
<path d="M 532.8,68.2 L 531.8,68.2 L 531.4,69.1" style="fill:none;stroke:#000000;stroke-width:2.0px;stroke-linecap:butt;stroke-linejoin:miter;stroke-opacity:1;"/>
<path d="M 492.7,70.7 L 492.2,69.9 L 491.2,69.9" style="fill:none;stroke:#000000;stroke-width:2.0px;stroke-linecap:butt;stroke-linejoin:miter;stroke-opacity:1;"/>
<path d="M 473.3,70.7 L 472.3,70.7 L 471.9,71.6" style="fill:none;stroke:#000000;stroke-width:2.0px;stroke-linecap:butt;stroke-linejoin:miter;stroke-opacity:1;"/>
<path class="atom-13" d="M 579.6 83.4 Q 579.6 82.0, 580.2 81.3 Q 580.9 80.5, 582.1 80.5 Q 583.4 80.5, 584.1 81.3 Q 584.7 82.0, 584.7 83.4 Q 584.7 84.7, 584.1 85.5 Q 583.4 86.3, 582.1 86.3 Q 580.9 86.3, 580.2 85.5 Q 579.6 84.8, 579.6 83.4 M 582.1 85.7 Q 583.0 85.7, 583.5 85.1 Q 583.9 84.5, 583.9 83.4 Q 583.9 82.3, 583.5 81.7 Q 583.0 81.2, 582.1 81.2 Q 581.3 81.2, 580.8 81.7 Q 580.4 82.3, 580.4 83.4 Q 580.4 84.5, 580.8 85.1 Q 581.3 85.7, 582.1 85.7 " fill="#FF0000"/>
<path class="atom-13" d="M 585.6 80.6 L 586.4 80.6 L 586.4 83.0 L 589.2 83.0 L 589.2 80.6 L 590.0 80.6 L 590.0 86.2 L 589.2 86.2 L 589.2 83.6 L 586.4 83.6 L 586.4 86.2 L 585.6 86.2 L 585.6 80.6 " fill="#FF0000"/>
<path class="legend" d="M 495.6 184.2 Q 495.6 181.4, 496.9 179.9 Q 498.3 178.4, 500.8 178.4 Q 503.1 178.4, 504.4 180.0 L 503.3 180.9 Q 502.4 179.7, 500.8 179.7 Q 499.1 179.7, 498.2 180.9 Q 497.3 182.0, 497.3 184.2 Q 497.3 186.4, 498.2 187.6 Q 499.1 188.7, 501.0 188.7 Q 502.2 188.7, 503.7 188.0 L 504.1 189.2 Q 503.5 189.6, 502.6 189.8 Q 501.7 190.0, 500.7 190.0 Q 498.3 190.0, 496.9 188.5 Q 495.6 187.0, 495.6 184.2 " fill="#000000"/>
<path class="bond-0 atom-0 atom-1" d="M 713.9,60.9 L 708.2,66.6" style="fill:none;fill-rule:evenodd;stroke:#FF0000;stroke-width:2.0px;stroke-linecap:butt;stroke-linejoin:miter;stroke-opacity:1"/>
<path class="bond-0 atom-0 atom-1" d="M 708.2,66.6 L 702.5,72.3" style="fill:none;fill-rule:evenodd;stroke:#000000;stroke-width:2.0px;stroke-linecap:butt;stroke-linejoin:miter;stroke-opacity:1"/>
<path class="bond-0 atom-0 atom-1" d="M 711.8,58.8 L 706.1,64.5" style="fill:none;fill-rule:evenodd;stroke:#FF0000;stroke-width:2.0px;stroke-linecap:butt;stroke-linejoin:miter;stroke-opacity:1"/>
<path class="bond-0 atom-0 atom-1" d="M 706.1,64.5 L 700.4,70.2" style="fill:none;fill-rule:evenodd;stroke:#000000;stroke-width:2.0px;stroke-linecap:butt;stroke-linejoin:miter;stroke-opacity:1"/>
<path class="bond-1 atom-1 atom-2" d="M 702.0,70.7 L 682.8,65.5" style="fill:none;fill-rule:evenodd;stroke:#000000;stroke-width:2.0px;stroke-linecap:butt;stroke-linejoin:miter;stroke-opacity:1"/>
<path class="bond-2 atom-2 atom-3" d="M 682.8,65.5 L 668.8,79.6" style="fill:none;fill-rule:evenodd;stroke:#000000;stroke-width:2.0px;stroke-linecap:butt;stroke-linejoin:miter;stroke-opacity:1"/>
<path class="bond-3 atom-3 atom-4" d="M 668.8,79.6 L 673.9,98.8" style="fill:none;fill-rule:evenodd;stroke:#000000;stroke-width:2.0px;stroke-linecap:butt;stroke-linejoin:miter;stroke-opacity:1"/>
<path class="bond-4 atom-4 atom-5" d="M 673.9,98.8 L 668.5,104.2" style="fill:none;fill-rule:evenodd;stroke:#000000;stroke-width:2.0px;stroke-linecap:butt;stroke-linejoin:miter;stroke-opacity:1"/>
<path class="bond-4 atom-4 atom-5" d="M 668.5,104.2 L 663.1,109.6" style="fill:none;fill-rule:evenodd;stroke:#FF0000;stroke-width:2.0px;stroke-linecap:butt;stroke-linejoin:miter;stroke-opacity:1"/>
<path class="bond-5 atom-4 atom-6" d="M 673.9,98.8 L 693.1,103.9" style="fill:none;fill-rule:evenodd;stroke:#000000;stroke-width:2.0px;stroke-linecap:butt;stroke-linejoin:miter;stroke-opacity:1"/>
<path class="bond-6 atom-6 atom-7" d="M 693.1,103.9 L 698.3,123.1" style="fill:none;fill-rule:evenodd;stroke:#000000;stroke-width:2.0px;stroke-linecap:butt;stroke-linejoin:miter;stroke-opacity:1"/>
<path class="bond-6 atom-6 atom-7" d="M 696.4,104.8 L 700.7,120.6" style="fill:none;fill-rule:evenodd;stroke:#000000;stroke-width:2.0px;stroke-linecap:butt;stroke-linejoin:miter;stroke-opacity:1"/>
<path class="bond-7 atom-7 atom-8" d="M 698.3,123.1 L 717.4,128.2" style="fill:none;fill-rule:evenodd;stroke:#000000;stroke-width:2.0px;stroke-linecap:butt;stroke-linejoin:miter;stroke-opacity:1"/>
<path class="bond-8 atom-8 atom-9" d="M 717.4,128.2 L 731.5,114.2" style="fill:none;fill-rule:evenodd;stroke:#000000;stroke-width:2.0px;stroke-linecap:butt;stroke-linejoin:miter;stroke-opacity:1"/>
<path class="bond-8 atom-8 atom-9" d="M 716.5,124.9 L 728.2,113.3" style="fill:none;fill-rule:evenodd;stroke:#000000;stroke-width:2.0px;stroke-linecap:butt;stroke-linejoin:miter;stroke-opacity:1"/>
<path class="bond-9 atom-9 atom-10" d="M 731.5,114.2 L 726.3,95.0" style="fill:none;fill-rule:evenodd;stroke:#000000;stroke-width:2.0px;stroke-linecap:butt;stroke-linejoin:miter;stroke-opacity:1"/>
<path class="bond-10 atom-10 atom-11" d="M 726.3,95.0 L 731.7,89.6" style="fill:none;fill-rule:evenodd;stroke:#000000;stroke-width:2.0px;stroke-linecap:butt;stroke-linejoin:miter;stroke-opacity:1"/>
<path class="bond-10 atom-10 atom-11" d="M 731.7,89.6 L 737.1,84.2" style="fill:none;fill-rule:evenodd;stroke:#FF0000;stroke-width:2.0px;stroke-linecap:butt;stroke-linejoin:miter;stroke-opacity:1"/>
<path class="bond-11 atom-10 atom-12" d="M 726.3,95.0 L 707.2,89.9" style="fill:none;fill-rule:evenodd;stroke:#000000;stroke-width:2.0px;stroke-linecap:butt;stroke-linejoin:miter;stroke-opacity:1"/>
<path class="bond-11 atom-10 atom-12" d="M 723.9,97.4 L 708.0,93.2" style="fill:none;fill-rule:evenodd;stroke:#000000;stroke-width:2.0px;stroke-linecap:butt;stroke-linejoin:miter;stroke-opacity:1"/>
<path class="bond-12 atom-12 atom-1" d="M 707.2,89.9 L 702.0,70.7" style="fill:none;fill-rule:evenodd;stroke:#000000;stroke-width:2.0px;stroke-linecap:butt;stroke-linejoin:miter;stroke-opacity:1"/>
<path class="bond-13 atom-12 atom-6" d="M 707.2,89.9 L 693.1,103.9" style="fill:none;fill-rule:evenodd;stroke:#000000;stroke-width:2.0px;stroke-linecap:butt;stroke-linejoin:miter;stroke-opacity:1"/>
<path d="M 701.1,70.4 L 702.0,70.7 L 702.3,71.6" style="fill:none;stroke:#000000;stroke-width:2.0px;stroke-linecap:butt;stroke-linejoin:miter;stroke-opacity:1;"/>
<path d="M 683.8,65.8 L 682.8,65.5 L 682.1,66.2" style="fill:none;stroke:#000000;stroke-width:2.0px;stroke-linecap:butt;stroke-linejoin:miter;stroke-opacity:1;"/>
<path d="M 669.5,78.9 L 668.8,79.6 L 669.1,80.5" style="fill:none;stroke:#000000;stroke-width:2.0px;stroke-linecap:butt;stroke-linejoin:miter;stroke-opacity:1;"/>
<path d="M 698.0,122.1 L 698.3,123.1 L 699.2,123.3" style="fill:none;stroke:#000000;stroke-width:2.0px;stroke-linecap:butt;stroke-linejoin:miter;stroke-opacity:1;"/>
<path d="M 716.5,127.9 L 717.4,128.2 L 718.1,127.5" style="fill:none;stroke:#000000;stroke-width:2.0px;stroke-linecap:butt;stroke-linejoin:miter;stroke-opacity:1;"/>
<path d="M 730.8,114.9 L 731.5,114.2 L 731.2,113.2" style="fill:none;stroke:#000000;stroke-width:2.0px;stroke-linecap:butt;stroke-linejoin:miter;stroke-opacity:1;"/>
<path class="atom-0" d="M 713.5 56.7 Q 713.5 55.3, 714.1 54.6 Q 714.8 53.8, 716.1 53.8 Q 717.3 53.8, 718.0 54.6 Q 718.6 55.3, 718.6 56.7 Q 718.6 58.0, 718.0 58.8 Q 717.3 59.6, 716.1 59.6 Q 714.8 59.6, 714.1 58.8 Q 713.5 58.0, 713.5 56.7 M 716.1 58.9 Q 716.9 58.9, 717.4 58.4 Q 717.8 57.8, 717.8 56.7 Q 717.8 55.6, 717.4 55.0 Q 716.9 54.4, 716.1 54.4 Q 715.2 54.4, 714.7 55.0 Q 714.3 55.5, 714.3 56.7 Q 714.3 57.8, 714.7 58.4 Q 715.2 58.9, 716.1 58.9 " fill="#FF0000"/>
<path class="atom-5" d="M 651.8 110.0 L 652.5 110.0 L 652.5 112.4 L 655.4 112.4 L 655.4 110.0 L 656.2 110.0 L 656.2 115.6 L 655.4 115.6 L 655.4 113.0 L 652.5 113.0 L 652.5 115.6 L 651.8 115.6 L 651.8 110.0 " fill="#FF0000"/>
<path class="atom-5" d="M 657.3 112.8 Q 657.3 111.5, 658.0 110.7 Q 658.7 109.9, 659.9 109.9 Q 661.2 109.9, 661.8 110.7 Q 662.5 111.5, 662.5 112.8 Q 662.5 114.2, 661.8 114.9 Q 661.1 115.7, 659.9 115.7 Q 658.7 115.7, 658.0 114.9 Q 657.3 114.2, 657.3 112.8 M 659.9 115.1 Q 660.8 115.1, 661.2 114.5 Q 661.7 113.9, 661.7 112.8 Q 661.7 111.7, 661.2 111.1 Q 660.8 110.6, 659.9 110.6 Q 659.0 110.6, 658.6 111.1 Q 658.1 111.7, 658.1 112.8 Q 658.1 113.9, 658.6 114.5 Q 659.0 115.1, 659.9 115.1 " fill="#FF0000"/>
<path class="atom-11" d="M 737.8 81.0 Q 737.8 79.6, 738.5 78.9 Q 739.1 78.1, 740.4 78.1 Q 741.6 78.1, 742.3 78.9 Q 743.0 79.6, 743.0 81.0 Q 743.0 82.3, 742.3 83.1 Q 741.6 83.9, 740.4 83.9 Q 739.1 83.9, 738.5 83.1 Q 737.8 82.3, 737.8 81.0 M 740.4 83.2 Q 741.2 83.2, 741.7 82.7 Q 742.2 82.1, 742.2 81.0 Q 742.2 79.9, 741.7 79.3 Q 741.2 78.7, 740.4 78.7 Q 739.5 78.7, 739.0 79.3 Q 738.6 79.9, 738.6 81.0 Q 738.6 82.1, 739.0 82.7 Q 739.5 83.2, 740.4 83.2 " fill="#FF0000"/>
<path class="atom-11" d="M 743.8 78.2 L 744.6 78.2 L 744.6 80.6 L 747.5 80.6 L 747.5 78.2 L 748.2 78.2 L 748.2 83.8 L 747.5 83.8 L 747.5 81.2 L 744.6 81.2 L 744.6 83.8 L 743.8 83.8 L 743.8 78.2 " fill="#FF0000"/>
<path class="legend" d="M 699.2 178.7 Q 701.7 178.7, 703.1 180.2 Q 704.4 181.6, 704.4 184.3 Q 704.4 187.0, 703.1 188.5 Q 701.7 190.0, 699.2 190.0 L 695.6 190.0 L 695.6 178.7 L 699.2 178.7 M 699.2 188.7 Q 701.0 188.7, 701.9 187.6 Q 702.8 186.5, 702.8 184.3 Q 702.8 182.1, 701.9 181.0 Q 701.0 180.0, 699.2 180.0 L 697.1 180.0 L 697.1 188.7 L 699.2 188.7 " fill="#000000"/>
</svg>