<svg xmlns="http://www.w3.org/2000/svg" xmlns:rdkit="http://www.rdkit.org/xml" xmlns:xlink="http://www.w3.org/1999/xlink" version="1.1" baseProfile="full" xml:space="preserve" width="800px" height="400px" viewBox="0 0 800 400">
<!-- END OF HEADER -->
<rect style="opacity:1.0;fill:#FFFFFF;stroke:none" width="800.0" height="400.0" x="0.0" y="0.0"> </rect>
<path class="bond-0 atom-0 atom-1" d="M 126.9,91.0 L 109.0,91.0" style="fill:none;fill-rule:evenodd;stroke:#000000;stroke-width:2.0px;stroke-linecap:butt;stroke-linejoin:miter;stroke-opacity:1"/>
<path class="bond-1 atom-1 atom-2" d="M 109.0,91.0 L 100.0,106.5" style="fill:none;fill-rule:evenodd;stroke:#000000;stroke-width:2.0px;stroke-linecap:butt;stroke-linejoin:miter;stroke-opacity:1"/>
<path class="bond-1 atom-1 atom-2" d="M 105.9,91.0 L 98.4,103.8" style="fill:none;fill-rule:evenodd;stroke:#000000;stroke-width:2.0px;stroke-linecap:butt;stroke-linejoin:miter;stroke-opacity:1"/>
<path class="bond-2 atom-2 atom-3" d="M 100.0,106.5 L 82.1,106.5" style="fill:none;fill-rule:evenodd;stroke:#000000;stroke-width:2.0px;stroke-linecap:butt;stroke-linejoin:miter;stroke-opacity:1"/>
<path class="bond-3 atom-3 atom-4" d="M 82.1,106.5 L 73.1,91.0" style="fill:none;fill-rule:evenodd;stroke:#000000;stroke-width:2.0px;stroke-linecap:butt;stroke-linejoin:miter;stroke-opacity:1"/>
<path class="bond-3 atom-3 atom-4" d="M 83.6,103.8 L 76.2,91.0" style="fill:none;fill-rule:evenodd;stroke:#000000;stroke-width:2.0px;stroke-linecap:butt;stroke-linejoin:miter;stroke-opacity:1"/>
<path class="bond-4 atom-4 atom-5" d="M 73.1,91.0 L 82.1,75.5" style="fill:none;fill-rule:evenodd;stroke:#000000;stroke-width:2.0px;stroke-linecap:butt;stroke-linejoin:miter;stroke-opacity:1"/>
<path class="bond-5 atom-5 atom-6" d="M 82.1,75.5 L 100.0,75.5" style="fill:none;fill-rule:evenodd;stroke:#000000;stroke-width:2.0px;stroke-linecap:butt;stroke-linejoin:miter;stroke-opacity:1"/>
<path class="bond-5 atom-5 atom-6" d="M 83.6,78.2 L 98.4,78.2" style="fill:none;fill-rule:evenodd;stroke:#000000;stroke-width:2.0px;stroke-linecap:butt;stroke-linejoin:miter;stroke-opacity:1"/>
<path class="bond-6 atom-6 atom-1" d="M 100.0,75.5 L 109.0,91.0" style="fill:none;fill-rule:evenodd;stroke:#000000;stroke-width:2.0px;stroke-linecap:butt;stroke-linejoin:miter;stroke-opacity:1"/>
<path d="M 100.4,105.8 L 100.0,106.5 L 99.1,106.5" style="fill:none;stroke:#000000;stroke-width:2.0px;stroke-linecap:butt;stroke-linejoin:miter;stroke-opacity:1;"/>
<path d="M 83.0,106.5 L 82.1,106.5 L 81.6,105.8" style="fill:none;stroke:#000000;stroke-width:2.0px;stroke-linecap:butt;stroke-linejoin:miter;stroke-opacity:1;"/>
<path d="M 73.6,91.8 L 73.1,91.0 L 73.6,90.2" style="fill:none;stroke:#000000;stroke-width:2.0px;stroke-linecap:butt;stroke-linejoin:miter;stroke-opacity:1;"/>
<path d="M 81.6,76.2 L 82.1,75.5 L 83.0,75.5" style="fill:none;stroke:#000000;stroke-width:2.0px;stroke-linecap:butt;stroke-linejoin:miter;stroke-opacity:1;"/>
<path d="M 99.1,75.5 L 100.0,75.5 L 100.4,76.2" style="fill:none;stroke:#000000;stroke-width:2.0px;stroke-linecap:butt;stroke-linejoin:miter;stroke-opacity:1;"/>
<path class="legend" d="M 103.4 190.0 L 102.2 186.7 L 97.8 186.7 L 96.6 190.0 L 95.1 190.0 L 99.0 178.7 L 100.9 178.7 L 104.9 190.0 L 103.4 190.0 M 98.2 185.4 L 101.8 185.4 L 100.0 180.3 L 98.2 185.4 " fill="#000000"/>
<path class="bond-0 atom-0 atom-1" d="M 268.9,95.5 L 284.5,86.5" style="fill:none;fill-rule:evenodd;stroke:#000000;stroke-width:2.0px;stroke-linecap:butt;stroke-linejoin:miter;stroke-opacity:1"/>
<path class="bond-1 atom-1 atom-2" d="M 284.5,86.5 L 300.0,95.5" style="fill:none;fill-rule:evenodd;stroke:#000000;stroke-width:2.0px;stroke-linecap:butt;stroke-linejoin:miter;stroke-opacity:1"/>
<path class="bond-2 atom-2 atom-3" d="M 300.0,95.5 L 315.5,86.5" style="fill:none;fill-rule:evenodd;stroke:#000000;stroke-width:2.0px;stroke-linecap:butt;stroke-linejoin:miter;stroke-opacity:1"/>
<path class="bond-3 atom-3 atom-4" d="M 315.5,86.5 L 331.1,95.5" style="fill:none;fill-rule:evenodd;stroke:#000000;stroke-width:2.0px;stroke-linecap:butt;stroke-linejoin:miter;stroke-opacity:1"/>
<path d="M 283.7,87.0 L 284.5,86.5 L 285.2,87.0" style="fill:none;stroke:#000000;stroke-width:2.0px;stroke-linecap:butt;stroke-linejoin:miter;stroke-opacity:1;"/>
<path d="M 299.2,95.0 L 300.0,95.5 L 300.8,95.0" style="fill:none;stroke:#000000;stroke-width:2.0px;stroke-linecap:butt;stroke-linejoin:miter;stroke-opacity:1;"/>
<path d="M 314.8,87.0 L 315.5,86.5 L 316.3,87.0" style="fill:none;stroke:#000000;stroke-width:2.0px;stroke-linecap:butt;stroke-linejoin:miter;stroke-opacity:1;"/>
<path class="legend" d="M 301.7 184.0 Q 302.7 184.4, 303.3 185.0 Q 303.8 185.7, 303.8 186.7 Q 303.8 188.2, 302.8 189.1 Q 301.8 190.0, 300.0 190.0 L 296.2 190.0 L 296.2 178.7 L 299.5 178.7 Q 301.4 178.7, 302.4 179.5 Q 303.4 180.2, 303.4 181.7 Q 303.4 183.4, 301.7 184.0 M 297.7 180.0 L 297.7 183.5 L 299.5 183.5 Q 300.6 183.5, 301.2 183.1 Q 301.8 182.6, 301.8 181.7 Q 301.8 180.0, 299.5 180.0 L 297.7 180.0 M 300.0 188.7 Q 301.1 188.7, 301.7 188.2 Q 302.2 187.7, 302.2 186.7 Q 302.2 185.7, 301.6 185.3 Q 301.0 184.8, 299.7 184.8 L 297.7 184.8 L 297.7 188.7 L 300.0 188.7 " fill="#000000"/>
<path class="bond-0 atom-0 atom-1" d="M 432.9,84.9 L 440.3,86.1" style="fill:none;fill-rule:evenodd;stroke:#FF0000;stroke-width:2.0px;stroke-linecap:butt;stroke-linejoin:miter;stroke-opacity:1"/>
<path class="bond-0 atom-0 atom-1" d="M 440.3,86.1 L 447.7,87.3" style="fill:none;fill-rule:evenodd;stroke:#000000;stroke-width:2.0px;stroke-linecap:butt;stroke-linejoin:miter;stroke-opacity:1"/>
<path class="bond-1 atom-1 atom-2" d="M 447.7,87.3 L 459.1,73.4" style="fill:none;fill-rule:evenodd;stroke:#000000;stroke-width:2.0px;stroke-linecap:butt;stroke-linejoin:miter;stroke-opacity:1"/>
<path class="bond-1 atom-1 atom-2" d="M 450.7,87.8 L 460.1,76.3" style="fill:none;fill-rule:evenodd;stroke:#000000;stroke-width:2.0px;stroke-linecap:butt;stroke-linejoin:miter;stroke-opacity:1"/>
<path class="bond-2 atom-2 atom-3" d="M 459.1,73.4 L 476.7,76.4" style="fill:none;fill-rule:evenodd;stroke:#000000;stroke-width:2.0px;stroke-linecap:butt;stroke-linejoin:miter;stroke-opacity:1"/>
<path class="bond-3 atom-3 atom-4" d="M 476.7,76.4 L 483.1,93.1" style="fill:none;fill-rule:evenodd;stroke:#000000;stroke-width:2.0px;stroke-linecap:butt;stroke-linejoin:miter;stroke-opacity:1"/>
<path class="bond-3 atom-3 atom-4" d="M 474.8,78.8 L 480.0,92.6" style="fill:none;fill-rule:evenodd;stroke:#000000;stroke-width:2.0px;stroke-linecap:butt;stroke-linejoin:miter;stroke-opacity:1"/>
<path class="bond-4 atom-4 atom-5" d="M 483.1,93.1 L 500.8,96.1" style="fill:none;fill-rule:evenodd;stroke:#000000;stroke-width:2.0px;stroke-linecap:butt;stroke-linejoin:miter;stroke-opacity:1"/>
<path class="bond-5 atom-5 atom-6" d="M 500.8,96.1 L 507.1,112.8" style="fill:none;fill-rule:evenodd;stroke:#000000;stroke-width:2.0px;stroke-linecap:butt;stroke-linejoin:miter;stroke-opacity:1"/>
<path class="bond-6 atom-6 atom-7" d="M 507.1,112.8 L 524.8,115.8" style="fill:none;fill-rule:evenodd;stroke:#000000;stroke-width:2.0px;stroke-linecap:butt;stroke-linejoin:miter;stroke-opacity:1"/>
<path class="bond-7 atom-7 atom-8" d="M 524.8,115.8 L 536.1,101.9" style="fill:none;fill-rule:evenodd;stroke:#000000;stroke-width:2.0px;stroke-linecap:butt;stroke-linejoin:miter;stroke-opacity:1"/>
<path class="bond-8 atom-8 atom-9" d="M 536.1,101.9 L 553.8,104.8" style="fill:none;fill-rule:evenodd;stroke:#000000;stroke-width:2.0px;stroke-linecap:butt;stroke-linejoin:miter;stroke-opacity:1"/>
<path class="bond-8 atom-8 atom-9" d="M 538.1,99.5 L 552.7,101.9" style="fill:none;fill-rule:evenodd;stroke:#000000;stroke-width:2.0px;stroke-linecap:butt;stroke-linejoin:miter;stroke-opacity:1"/>
<path class="bond-9 atom-9 atom-10" d="M 553.8,104.8 L 556.4,111.6" style="fill:none;fill-rule:evenodd;stroke:#000000;stroke-width:2.0px;stroke-linecap:butt;stroke-linejoin:miter;stroke-opacity:1"/>
<path class="bond-9 atom-9 atom-10" d="M 556.4,111.6 L 559.0,118.4" style="fill:none;fill-rule:evenodd;stroke:#FF0000;stroke-width:2.0px;stroke-linecap:butt;stroke-linejoin:miter;stroke-opacity:1"/>
<path class="bond-10 atom-9 atom-11" d="M 553.8,104.8 L 565.2,91.0" style="fill:none;fill-rule:evenodd;stroke:#000000;stroke-width:2.0px;stroke-linecap:butt;stroke-linejoin:miter;stroke-opacity:1"/>
<path class="bond-11 atom-11 atom-12" d="M 565.2,91.0 L 558.9,74.2" style="fill:none;fill-rule:evenodd;stroke:#000000;stroke-width:2.0px;stroke-linecap:butt;stroke-linejoin:miter;stroke-opacity:1"/>
<path class="bond-11 atom-11 atom-12" d="M 562.1,90.5 L 556.9,76.6" style="fill:none;fill-rule:evenodd;stroke:#000000;stroke-width:2.0px;stroke-linecap:butt;stroke-linejoin:miter;stroke-opacity:1"/>
<path class="bond-12 atom-12 atom-13" d="M 558.9,74.2 L 563.2,68.9" style="fill:none;fill-rule:evenodd;stroke:#000000;stroke-width:2.0px;stroke-linecap:butt;stroke-linejoin:miter;stroke-opacity:1"/>
<path class="bond-12 atom-12 atom-13" d="M 563.2,68.9 L 567.6,63.6" style="fill:none;fill-rule:evenodd;stroke:#FF0000;stroke-width:2.0px;stroke-linecap:butt;stroke-linejoin:miter;stroke-opacity:1"/>
<path class="bond-13 atom-12 atom-14" d="M 558.9,74.2 L 541.2,71.3" style="fill:none;fill-rule:evenodd;stroke:#000000;stroke-width:2.0px;stroke-linecap:butt;stroke-linejoin:miter;stroke-opacity:1"/>
<path class="bond-14 atom-14 atom-15" d="M 541.2,71.3 L 529.8,85.1" style="fill:none;fill-rule:evenodd;stroke:#000000;stroke-width:2.0px;stroke-linecap:butt;stroke-linejoin:miter;stroke-opacity:1"/>
<path class="bond-14 atom-14 atom-15" d="M 542.3,74.2 L 532.9,85.6" style="fill:none;fill-rule:evenodd;stroke:#000000;stroke-width:2.0px;stroke-linecap:butt;stroke-linejoin:miter;stroke-opacity:1"/>
<path class="bond-15 atom-15 atom-16" d="M 529.8,85.1 L 522.4,83.9" style="fill:none;fill-rule:evenodd;stroke:#000000;stroke-width:2.0px;stroke-linecap:butt;stroke-linejoin:miter;stroke-opacity:1"/>
<path class="bond-15 atom-15 atom-16" d="M 522.4,83.9 L 515.1,82.7" style="fill:none;fill-rule:evenodd;stroke:#FF0000;stroke-width:2.0px;stroke-linecap:butt;stroke-linejoin:miter;stroke-opacity:1"/>
<path class="bond-16 atom-4 atom-17" d="M 483.1,93.1 L 471.7,107.0" style="fill:none;fill-rule:evenodd;stroke:#000000;stroke-width:2.0px;stroke-linecap:butt;stroke-linejoin:miter;stroke-opacity:1"/>
<path class="bond-17 atom-17 atom-18" d="M 471.7,107.0 L 454.0,104.1" style="fill:none;fill-rule:evenodd;stroke:#000000;stroke-width:2.0px;stroke-linecap:butt;stroke-linejoin:miter;stroke-opacity:1"/>
<path class="bond-17 atom-17 atom-18" d="M 470.6,104.1 L 456.0,101.7" style="fill:none;fill-rule:evenodd;stroke:#000000;stroke-width:2.0px;stroke-linecap:butt;stroke-linejoin:miter;stroke-opacity:1"/>
<path class="bond-18 atom-18 atom-1" d="M 454.0,104.1 L 447.7,87.3" style="fill:none;fill-rule:evenodd;stroke:#000000;stroke-width:2.0px;stroke-linecap:butt;stroke-linejoin:miter;stroke-opacity:1"/>
<path class="bond-19 atom-16 atom-5" d="M 509.5,85.4 L 505.1,90.7" style="fill:none;fill-rule:evenodd;stroke:#FF0000;stroke-width:2.0px;stroke-linecap:butt;stroke-linejoin:miter;stroke-opacity:1"/>
<path class="bond-19 atom-16 atom-5" d="M 505.1,90.7 L 500.8,96.1" style="fill:none;fill-rule:evenodd;stroke:#000000;stroke-width:2.0px;stroke-linecap:butt;stroke-linejoin:miter;stroke-opacity:1"/>
<path class="bond-20 atom-15 atom-8" d="M 529.8,85.1 L 536.1,101.9" style="fill:none;fill-rule:evenodd;stroke:#000000;stroke-width:2.0px;stroke-linecap:butt;stroke-linejoin:miter;stroke-opacity:1"/>
<path d="M 458.5,74.1 L 459.1,73.4 L 459.9,73.6" style="fill:none;stroke:#000000;stroke-width:2.0px;stroke-linecap:butt;stroke-linejoin:miter;stroke-opacity:1;"/>
<path d="M 475.9,76.2 L 476.7,76.4 L 477.1,77.2" style="fill:none;stroke:#000000;stroke-width:2.0px;stroke-linecap:butt;stroke-linejoin:miter;stroke-opacity:1;"/>
<path d="M 506.8,112.0 L 507.1,112.8 L 508.0,113.0" style="fill:none;stroke:#000000;stroke-width:2.0px;stroke-linecap:butt;stroke-linejoin:miter;stroke-opacity:1;"/>
<path d="M 523.9,115.6 L 524.8,115.8 L 525.3,115.1" style="fill:none;stroke:#000000;stroke-width:2.0px;stroke-linecap:butt;stroke-linejoin:miter;stroke-opacity:1;"/>
<path d="M 564.6,91.7 L 565.2,91.0 L 564.9,90.1" style="fill:none;stroke:#000000;stroke-width:2.0px;stroke-linecap:butt;stroke-linejoin:miter;stroke-opacity:1;"/>
<path d="M 542.1,71.4 L 541.2,71.3 L 540.6,72.0" style="fill:none;stroke:#000000;stroke-width:2.0px;stroke-linecap:butt;stroke-linejoin:miter;stroke-opacity:1;"/>
<path d="M 472.3,106.3 L 471.7,107.0 L 470.8,106.9" style="fill:none;stroke:#000000;stroke-width:2.0px;stroke-linecap:butt;stroke-linejoin:miter;stroke-opacity:1;"/>
<path d="M 454.9,104.2 L 454.0,104.1 L 453.7,103.2" style="fill:none;stroke:#000000;stroke-width:2.0px;stroke-linecap:butt;stroke-linejoin:miter;stroke-opacity:1;"/>
<path class="atom-0" d="M 422.6 81.9 L 423.3 81.9 L 423.3 84.0 L 425.9 84.0 L 425.9 81.9 L 426.6 81.9 L 426.6 86.9 L 425.9 86.9 L 425.9 84.6 L 423.3 84.6 L 423.3 86.9 L 422.6 86.9 L 422.6 81.9 " fill="#FF0000"/>
<path class="atom-0" d="M 427.7 84.4 Q 427.7 83.2, 428.3 82.5 Q 428.9 81.8, 430.0 81.8 Q 431.1 81.8, 431.7 82.5 Q 432.3 83.2, 432.3 84.4 Q 432.3 85.6, 431.7 86.3 Q 431.1 87.0, 430.0 87.0 Q 428.9 87.0, 428.3 86.3 Q 427.7 85.6, 427.7 84.4 M 430.0 86.5 Q 430.8 86.5, 431.2 85.9 Q 431.6 85.4, 431.6 84.4 Q 431.6 83.4, 431.2 82.9 Q 430.8 82.4, 430.0 82.4 Q 429.2 82.4, 428.8 82.9 Q 428.4 83.4, 428.4 84.4 Q 428.4 85.4, 428.8 85.9 Q 429.2 86.5, 430.0 86.5 " fill="#FF0000"/>
<path class="atom-10" d="M 557.8 121.6 Q 557.8 120.4, 558.4 119.7 Q 559.0 119.0, 560.1 119.0 Q 561.3 119.0, 561.9 119.7 Q 562.5 120.4, 562.5 121.6 Q 562.5 122.9, 561.9 123.6 Q 561.3 124.2, 560.1 124.2 Q 559.0 124.2, 558.4 123.6 Q 557.8 122.9, 557.8 121.6 M 560.1 123.7 Q 560.9 123.7, 561.3 123.2 Q 561.8 122.6, 561.8 121.6 Q 561.8 120.6, 561.3 120.1 Q 560.9 119.6, 560.1 119.6 Q 559.4 119.6, 558.9 120.1 Q 558.5 120.6, 558.5 121.6 Q 558.5 122.6, 558.9 123.2 Q 559.4 123.7, 560.1 123.7 " fill="#FF0000"/>
<path class="atom-10" d="M 563.3 119.1 L 564.0 119.1 L 564.0 121.3 L 566.6 121.3 L 566.6 119.1 L 567.2 119.1 L 567.2 124.2 L 566.6 124.2 L 566.6 121.8 L 564.0 121.8 L 564.0 124.2 L 563.3 124.2 L 563.3 119.1 " fill="#FF0000"/>
<path class="atom-13" d="M 567.9 60.3 Q 567.9 59.1, 568.5 58.4 Q 569.1 57.8, 570.3 57.8 Q 571.4 57.8, 572.0 58.4 Q 572.6 59.1, 572.6 60.3 Q 572.6 61.6, 572.0 62.3 Q 571.4 63.0, 570.3 63.0 Q 569.1 63.0, 568.5 62.3 Q 567.9 61.6, 567.9 60.3 M 570.3 62.4 Q 571.0 62.4, 571.5 61.9 Q 571.9 61.4, 571.9 60.3 Q 571.9 59.3, 571.5 58.8 Q 571.0 58.3, 570.3 58.3 Q 569.5 58.3, 569.1 58.8 Q 568.6 59.3, 568.6 60.3 Q 568.6 61.4, 569.1 61.9 Q 569.5 62.4, 570.3 62.4 " fill="#FF0000"/>
<path class="atom-13" d="M 573.4 57.8 L 574.1 57.8 L 574.1 60.0 L 576.7 60.0 L 576.7 57.8 L 577.4 57.8 L 577.4 62.9 L 576.7 62.9 L 576.7 60.5 L 574.1 60.5 L 574.1 62.9 L 573.4 62.9 L 573.4 57.8 " fill="#FF0000"/>
<path class="atom-16" d="M 509.8 82.2 Q 509.8 81.0, 510.4 80.3 Q 511.0 79.6, 512.1 79.6 Q 513.3 79.6, 513.9 80.3 Q 514.5 81.0, 514.5 82.2 Q 514.5 83.4, 513.9 84.1 Q 513.2 84.8, 512.1 84.8 Q 511.0 84.8, 510.4 84.1 Q 509.8 83.5, 509.8 82.2 M 512.1 84.3 Q 512.9 84.3, 513.3 83.8 Q 513.7 83.2, 513.7 82.2 Q 513.7 81.2, 513.3 80.7 Q 512.9 80.2, 512.1 80.2 Q 511.4 80.2, 510.9 80.7 Q 510.5 81.2, 510.5 82.2 Q 510.5 83.2, 510.9 83.8 Q 511.4 84.3, 512.1 84.3 " fill="#FF0000"/>
<path class="legend" d="M 495.6 184.2 Q 495.6 181.4, 496.9 179.9 Q 498.3 178.4, 500.8 178.4 Q 503.1 178.4, 504.4 180.0 L 503.3 180.9 Q 502.4 179.7, 500.8 179.7 Q 499.1 179.7, 498.2 180.9 Q 497.3 182.0, 497.3 184.2 Q 497.3 186.4, 498.2 187.6 Q 499.1 188.7, 501.0 188.7 Q 502.2 188.7, 503.7 188.0 L 504.1 189.2 Q 503.5 189.6, 502.6 189.8 Q 501.7 190.0, 500.7 190.0 Q 498.3 190.0, 496.9 188.5 Q 495.6 187.0, 495.6 184.2 " fill="#000000"/>
<path class="bond-0 atom-0 atom-1" d="M 684.5,95.5 L 700.0,86.5" style="fill:none;fill-rule:evenodd;stroke:#000000;stroke-width:2.0px;stroke-linecap:butt;stroke-linejoin:miter;stroke-opacity:1"/>
<path class="bond-1 atom-1 atom-2" d="M 700.0,86.5 L 715.5,95.5" style="fill:none;fill-rule:evenodd;stroke:#000000;stroke-width:2.0px;stroke-linecap:butt;stroke-linejoin:miter;stroke-opacity:1"/>
<path d="M 699.2,87.0 L 700.0,86.5 L 700.8,87.0" style="fill:none;stroke:#000000;stroke-width:2.0px;stroke-linecap:butt;stroke-linejoin:miter;stroke-opacity:1;"/>
<path class="legend" d="M 699.2 178.7 Q 701.7 178.7, 703.1 180.2 Q 704.4 181.6, 704.4 184.3 Q 704.4 187.0, 703.1 188.5 Q 701.7 190.0, 699.2 190.0 L 695.6 190.0 L 695.6 178.7 L 699.2 178.7 M 699.2 188.7 Q 701.0 188.7, 701.9 187.6 Q 702.8 186.5, 702.8 184.3 Q 702.8 182.1, 701.9 181.0 Q 701.0 180.0, 699.2 180.0 L 697.1 180.0 L 697.1 188.7 L 699.2 188.7 " fill="#000000"/>
<path class="bond-0 atom-0 atom-1" d="M 84.5,295.5 L 100.0,286.5" style="fill:none;fill-rule:evenodd;stroke:#000000;stroke-width:2.0px;stroke-linecap:butt;stroke-linejoin:miter;stroke-opacity:1"/>
<path class="bond-1 atom-1 atom-2" d="M 100.0,286.5 L 115.5,295.5" style="fill:none;fill-rule:evenodd;stroke:#000000;stroke-width:2.0px;stroke-linecap:butt;stroke-linejoin:miter;stroke-opacity:1"/>
<path d="M 99.2,287.0 L 100.0,286.5 L 100.8,287.0" style="fill:none;stroke:#000000;stroke-width:2.0px;stroke-linecap:butt;stroke-linejoin:miter;stroke-opacity:1;"/>
<path class="legend" d="M 96.5 378.7 L 103.3 378.7 L 103.3 380.0 L 98.1 380.0 L 98.1 383.4 L 102.8 383.4 L 102.8 384.7 L 98.1 384.7 L 98.1 388.7 L 103.5 388.7 L 103.5 390.0 L 96.5 390.0 L 96.5 378.7 " fill="#000000"/>
<path class="bond-0 atom-0 atom-1" d="M 245.5,294.0 L 261.3,285.4" style="fill:none;fill-rule:evenodd;stroke:#000000;stroke-width:2.0px;stroke-linecap:butt;stroke-linejoin:miter;stroke-opacity:1"/>
<path class="bond-1 atom-1 atom-2" d="M 261.3,285.4 L 276.6,294.8" style="fill:none;fill-rule:evenodd;stroke:#000000;stroke-width:2.0px;stroke-linecap:butt;stroke-linejoin:miter;stroke-opacity:1"/>
<path class="bond-2 atom-2 atom-3" d="M 276.6,294.8 L 292.4,286.3" style="fill:none;fill-rule:evenodd;stroke:#000000;stroke-width:2.0px;stroke-linecap:butt;stroke-linejoin:miter;stroke-opacity:1"/>
<path class="bond-3 atom-3 atom-4" d="M 292.4,286.3 L 307.6,295.7" style="fill:none;fill-rule:evenodd;stroke:#000000;stroke-width:2.0px;stroke-linecap:butt;stroke-linejoin:miter;stroke-opacity:1"/>
<path class="bond-4 atom-4 atom-5" d="M 307.6,295.7 L 323.4,287.2" style="fill:none;fill-rule:evenodd;stroke:#000000;stroke-width:2.0px;stroke-linecap:butt;stroke-linejoin:miter;stroke-opacity:1"/>
<path class="bond-5 atom-5 atom-6" d="M 323.4,287.2 L 338.7,296.6" style="fill:none;fill-rule:evenodd;stroke:#000000;stroke-width:2.0px;stroke-linecap:butt;stroke-linejoin:miter;stroke-opacity:1"/>
<path class="bond-6 atom-6 atom-7" d="M 338.7,296.6 L 354.5,288.0" style="fill:none;fill-rule:evenodd;stroke:#000000;stroke-width:2.0px;stroke-linecap:butt;stroke-linejoin:miter;stroke-opacity:1"/>
<path d="M 260.5,285.9 L 261.3,285.4 L 262.1,285.9" style="fill:none;stroke:#000000;stroke-width:2.0px;stroke-linecap:butt;stroke-linejoin:miter;stroke-opacity:1;"/>
<path d="M 275.8,294.4 L 276.6,294.8 L 277.4,294.4" style="fill:none;stroke:#000000;stroke-width:2.0px;stroke-linecap:butt;stroke-linejoin:miter;stroke-opacity:1;"/>
<path d="M 291.6,286.7 L 292.4,286.3 L 293.1,286.8" style="fill:none;stroke:#000000;stroke-width:2.0px;stroke-linecap:butt;stroke-linejoin:miter;stroke-opacity:1;"/>
<path d="M 306.9,295.2 L 307.6,295.7 L 308.4,295.3" style="fill:none;stroke:#000000;stroke-width:2.0px;stroke-linecap:butt;stroke-linejoin:miter;stroke-opacity:1;"/>
<path d="M 322.6,287.6 L 323.4,287.2 L 324.2,287.6" style="fill:none;stroke:#000000;stroke-width:2.0px;stroke-linecap:butt;stroke-linejoin:miter;stroke-opacity:1;"/>
<path d="M 337.9,296.1 L 338.7,296.6 L 339.5,296.1" style="fill:none;stroke:#000000;stroke-width:2.0px;stroke-linecap:butt;stroke-linejoin:miter;stroke-opacity:1;"/>
<path class="legend" d="M 296.6 378.7 L 303.4 378.7 L 303.4 380.0 L 298.2 380.0 L 298.2 383.4 L 302.8 383.4 L 302.8 384.7 L 298.2 384.7 L 298.2 390.0 L 296.6 390.0 L 296.6 378.7 " fill="#000000"/>
<path class="bond-0 atom-0 atom-1" d="M 410.0,281.9 L 424.1,293.0" style="fill:none;fill-rule:evenodd;stroke:#000000;stroke-width:2.0px;stroke-linecap:butt;stroke-linejoin:miter;stroke-opacity:1"/>
<path class="bond-1 atom-1 atom-2" d="M 424.1,293.0 L 423.0,300.3" style="fill:none;fill-rule:evenodd;stroke:#000000;stroke-width:2.0px;stroke-linecap:butt;stroke-linejoin:miter;stroke-opacity:1"/>
<path class="bond-1 atom-1 atom-2" d="M 423.0,300.3 L 421.9,307.6" style="fill:none;fill-rule:evenodd;stroke:#FF0000;stroke-width:2.0px;stroke-linecap:butt;stroke-linejoin:miter;stroke-opacity:1"/>
<path class="bond-2 atom-1 atom-3" d="M 424.1,293.0 L 440.7,286.4" style="fill:none;fill-rule:evenodd;stroke:#000000;stroke-width:2.0px;stroke-linecap:butt;stroke-linejoin:miter;stroke-opacity:1"/>
<path class="bond-3 atom-3 atom-4" d="M 440.7,286.4 L 441.8,279.1" style="fill:none;fill-rule:evenodd;stroke:#000000;stroke-width:2.0px;stroke-linecap:butt;stroke-linejoin:miter;stroke-opacity:1"/>
<path class="bond-3 atom-3 atom-4" d="M 441.8,279.1 L 442.8,271.9" style="fill:none;fill-rule:evenodd;stroke:#FF0000;stroke-width:2.0px;stroke-linecap:butt;stroke-linejoin:miter;stroke-opacity:1"/>
<path class="bond-4 atom-3 atom-5" d="M 440.7,286.4 L 454.8,297.5" style="fill:none;fill-rule:evenodd;stroke:#000000;stroke-width:2.0px;stroke-linecap:butt;stroke-linejoin:miter;stroke-opacity:1"/>
<path class="bond-5 atom-5 atom-6" d="M 454.8,297.5 L 453.7,304.8" style="fill:none;fill-rule:evenodd;stroke:#000000;stroke-width:2.0px;stroke-linecap:butt;stroke-linejoin:miter;stroke-opacity:1"/>
<path class="bond-5 atom-5 atom-6" d="M 453.7,304.8 L 452.7,312.1" style="fill:none;fill-rule:evenodd;stroke:#FF0000;stroke-width:2.0px;stroke-linecap:butt;stroke-linejoin:miter;stroke-opacity:1"/>
<path class="bond-6 atom-5 atom-7" d="M 454.8,297.5 L 471.5,290.9" style="fill:none;fill-rule:evenodd;stroke:#000000;stroke-width:2.0px;stroke-linecap:butt;stroke-linejoin:miter;stroke-opacity:1"/>
<path class="bond-7 atom-7 atom-8" d="M 471.5,290.9 L 472.5,283.6" style="fill:none;fill-rule:evenodd;stroke:#000000;stroke-width:2.0px;stroke-linecap:butt;stroke-linejoin:miter;stroke-opacity:1"/>
<path class="bond-7 atom-7 atom-8" d="M 472.5,283.6 L 473.6,276.3" style="fill:none;fill-rule:evenodd;stroke:#FF0000;stroke-width:2.0px;stroke-linecap:butt;stroke-linejoin:miter;stroke-opacity:1"/>
<path class="bond-8 atom-7 atom-9" d="M 471.5,290.9 L 485.5,302.0" style="fill:none;fill-rule:evenodd;stroke:#000000;stroke-width:2.0px;stroke-linecap:butt;stroke-linejoin:miter;stroke-opacity:1"/>
<path class="bond-9 atom-9 atom-10" d="M 485.5,302.0 L 492.4,299.2" style="fill:none;fill-rule:evenodd;stroke:#000000;stroke-width:2.0px;stroke-linecap:butt;stroke-linejoin:miter;stroke-opacity:1"/>
<path class="bond-9 atom-9 atom-10" d="M 492.4,299.2 L 499.3,296.5" style="fill:none;fill-rule:evenodd;stroke:#FF0000;stroke-width:2.0px;stroke-linecap:butt;stroke-linejoin:miter;stroke-opacity:1"/>
<path class="bond-10 atom-10 atom-11" d="M 505.1,297.7 L 510.7,302.1" style="fill:none;fill-rule:evenodd;stroke:#FF0000;stroke-width:2.0px;stroke-linecap:butt;stroke-linejoin:miter;stroke-opacity:1"/>
<path class="bond-10 atom-10 atom-11" d="M 510.7,302.1 L 516.3,306.5" style="fill:none;fill-rule:evenodd;stroke:#000000;stroke-width:2.0px;stroke-linecap:butt;stroke-linejoin:miter;stroke-opacity:1"/>
<path class="bond-11 atom-11 atom-12" d="M 515.0,305.5 L 513.9,313.2" style="fill:none;fill-rule:evenodd;stroke:#000000;stroke-width:2.0px;stroke-linecap:butt;stroke-linejoin:miter;stroke-opacity:1"/>
<path class="bond-11 atom-11 atom-12" d="M 513.9,313.2 L 512.8,320.8" style="fill:none;fill-rule:evenodd;stroke:#FF0000;stroke-width:2.0px;stroke-linecap:butt;stroke-linejoin:miter;stroke-opacity:1"/>
<path class="bond-11 atom-11 atom-12" d="M 517.7,305.9 L 516.6,313.6" style="fill:none;fill-rule:evenodd;stroke:#000000;stroke-width:2.0px;stroke-linecap:butt;stroke-linejoin:miter;stroke-opacity:1"/>
<path class="bond-11 atom-11 atom-12" d="M 516.6,313.6 L 515.5,321.2" style="fill:none;fill-rule:evenodd;stroke:#FF0000;stroke-width:2.0px;stroke-linecap:butt;stroke-linejoin:miter;stroke-opacity:1"/>
<path class="bond-12 atom-11 atom-13" d="M 516.3,306.5 L 532.9,299.8" style="fill:none;fill-rule:evenodd;stroke:#000000;stroke-width:2.0px;stroke-linecap:butt;stroke-linejoin:miter;stroke-opacity:1"/>
<path class="bond-13 atom-13 atom-14" d="M 532.9,299.8 L 535.5,282.1" style="fill:none;fill-rule:evenodd;stroke:#000000;stroke-width:2.0px;stroke-linecap:butt;stroke-linejoin:miter;stroke-opacity:1"/>
<path class="bond-13 atom-13 atom-14" d="M 535.8,298.7 L 538.0,284.0" style="fill:none;fill-rule:evenodd;stroke:#000000;stroke-width:2.0px;stroke-linecap:butt;stroke-linejoin:miter;stroke-opacity:1"/>
<path class="bond-14 atom-14 atom-15" d="M 535.5,282.1 L 552.2,275.5" style="fill:none;fill-rule:evenodd;stroke:#000000;stroke-width:2.0px;stroke-linecap:butt;stroke-linejoin:miter;stroke-opacity:1"/>
<path class="bond-15 atom-15 atom-16" d="M 552.2,275.5 L 553.2,268.2" style="fill:none;fill-rule:evenodd;stroke:#000000;stroke-width:2.0px;stroke-linecap:butt;stroke-linejoin:miter;stroke-opacity:1"/>
<path class="bond-15 atom-15 atom-16" d="M 553.2,268.2 L 554.3,261.0" style="fill:none;fill-rule:evenodd;stroke:#FF0000;stroke-width:2.0px;stroke-linecap:butt;stroke-linejoin:miter;stroke-opacity:1"/>
<path class="bond-16 atom-15 atom-17" d="M 552.2,275.5 L 566.2,286.6" style="fill:none;fill-rule:evenodd;stroke:#000000;stroke-width:2.0px;stroke-linecap:butt;stroke-linejoin:miter;stroke-opacity:1"/>
<path class="bond-16 atom-15 atom-17" d="M 551.7,278.5 L 563.4,287.7" style="fill:none;fill-rule:evenodd;stroke:#000000;stroke-width:2.0px;stroke-linecap:butt;stroke-linejoin:miter;stroke-opacity:1"/>
<path class="bond-17 atom-17 atom-18" d="M 566.2,286.6 L 573.1,283.8" style="fill:none;fill-rule:evenodd;stroke:#000000;stroke-width:2.0px;stroke-linecap:butt;stroke-linejoin:miter;stroke-opacity:1"/>
<path class="bond-17 atom-17 atom-18" d="M 573.1,283.8 L 580.0,281.1" style="fill:none;fill-rule:evenodd;stroke:#FF0000;stroke-width:2.0px;stroke-linecap:butt;stroke-linejoin:miter;stroke-opacity:1"/>
<path class="bond-18 atom-17 atom-19" d="M 566.2,286.6 L 563.7,304.3" style="fill:none;fill-rule:evenodd;stroke:#000000;stroke-width:2.0px;stroke-linecap:butt;stroke-linejoin:miter;stroke-opacity:1"/>
<path class="bond-19 atom-19 atom-20" d="M 563.7,304.3 L 569.2,308.7" style="fill:none;fill-rule:evenodd;stroke:#000000;stroke-width:2.0px;stroke-linecap:butt;stroke-linejoin:miter;stroke-opacity:1"/>
<path class="bond-19 atom-19 atom-20" d="M 569.2,308.7 L 574.8,313.1" style="fill:none;fill-rule:evenodd;stroke:#FF0000;stroke-width:2.0px;stroke-linecap:butt;stroke-linejoin:miter;stroke-opacity:1"/>
<path class="bond-20 atom-19 atom-21" d="M 563.7,304.3 L 547.0,310.9" style="fill:none;fill-rule:evenodd;stroke:#000000;stroke-width:2.0px;stroke-linecap:butt;stroke-linejoin:miter;stroke-opacity:1"/>
<path class="bond-20 atom-19 atom-21" d="M 561.2,302.4 L 547.4,307.9" style="fill:none;fill-rule:evenodd;stroke:#000000;stroke-width:2.0px;stroke-linecap:butt;stroke-linejoin:miter;stroke-opacity:1"/>
<path class="bond-21 atom-21 atom-13" d="M 547.0,310.9 L 532.9,299.8" style="fill:none;fill-rule:evenodd;stroke:#000000;stroke-width:2.0px;stroke-linecap:butt;stroke-linejoin:miter;stroke-opacity:1"/>
<path d="M 484.8,301.4 L 485.5,302.0 L 485.9,301.8" style="fill:none;stroke:#000000;stroke-width:2.0px;stroke-linecap:butt;stroke-linejoin:miter;stroke-opacity:1;"/>
<path d="M 516.0,306.2 L 516.3,306.5 L 517.1,306.1" style="fill:none;stroke:#000000;stroke-width:2.0px;stroke-linecap:butt;stroke-linejoin:miter;stroke-opacity:1;"/>
<path d="M 535.4,283.0 L 535.5,282.1 L 536.3,281.8" style="fill:none;stroke:#000000;stroke-width:2.0px;stroke-linecap:butt;stroke-linejoin:miter;stroke-opacity:1;"/>
<path d="M 547.8,310.6 L 547.0,310.9 L 546.3,310.4" style="fill:none;stroke:#000000;stroke-width:2.0px;stroke-linecap:butt;stroke-linejoin:miter;stroke-opacity:1;"/>
<path class="atom-2" d="M 419.1 310.7 Q 419.1 309.5, 419.7 308.8 Q 420.3 308.2, 421.5 308.2 Q 422.6 308.2, 423.2 308.8 Q 423.8 309.5, 423.8 310.7 Q 423.8 312.0, 423.2 312.7 Q 422.6 313.4, 421.5 313.4 Q 420.4 313.4, 419.7 312.7 Q 419.1 312.0, 419.1 310.7 M 421.5 312.8 Q 422.3 312.8, 422.7 312.3 Q 423.1 311.8, 423.1 310.7 Q 423.1 309.7, 422.7 309.2 Q 422.3 308.7, 421.5 308.7 Q 420.7 308.7, 420.3 309.2 Q 419.9 309.7, 419.9 310.7 Q 419.9 311.8, 420.3 312.3 Q 420.7 312.8, 421.5 312.8 " fill="#FF0000"/>
<path class="atom-2" d="M 424.6 308.2 L 425.3 308.2 L 425.3 310.4 L 427.9 310.4 L 427.9 308.2 L 428.6 308.2 L 428.6 313.3 L 427.9 313.3 L 427.9 310.9 L 425.3 310.9 L 425.3 313.3 L 424.6 313.3 L 424.6 308.2 " fill="#FF0000"/>
<path class="atom-4" d="M 441.0 268.6 Q 441.0 267.4, 441.6 266.7 Q 442.2 266.0, 443.3 266.0 Q 444.4 266.0, 445.1 266.7 Q 445.7 267.4, 445.7 268.6 Q 445.7 269.9, 445.0 270.6 Q 444.4 271.3, 443.3 271.3 Q 442.2 271.3, 441.6 270.6 Q 441.0 269.9, 441.0 268.6 M 443.3 270.7 Q 444.1 270.7, 444.5 270.2 Q 444.9 269.7, 444.9 268.6 Q 444.9 267.6, 444.5 267.1 Q 444.1 266.6, 443.3 266.6 Q 442.5 266.6, 442.1 267.1 Q 441.7 267.6, 441.7 268.6 Q 441.7 269.7, 442.1 270.2 Q 442.5 270.7, 443.3 270.7 " fill="#FF0000"/>
<path class="atom-4" d="M 446.4 266.1 L 447.1 266.1 L 447.1 268.3 L 449.7 268.3 L 449.7 266.1 L 450.4 266.1 L 450.4 271.2 L 449.7 271.2 L 449.7 268.8 L 447.1 268.8 L 447.1 271.2 L 446.4 271.2 L 446.4 266.1 " fill="#FF0000"/>
<path class="atom-6" d="M 449.9 315.2 Q 449.9 314.0, 450.5 313.3 Q 451.1 312.7, 452.2 312.7 Q 453.3 312.7, 453.9 313.3 Q 454.5 314.0, 454.5 315.2 Q 454.5 316.5, 453.9 317.2 Q 453.3 317.9, 452.2 317.9 Q 451.1 317.9, 450.5 317.2 Q 449.9 316.5, 449.9 315.2 M 452.2 317.3 Q 453.0 317.3, 453.4 316.8 Q 453.8 316.3, 453.8 315.2 Q 453.8 314.2, 453.4 313.7 Q 453.0 313.2, 452.2 313.2 Q 451.4 313.2, 451.0 313.7 Q 450.6 314.2, 450.6 315.2 Q 450.6 316.3, 451.0 316.8 Q 451.4 317.3, 452.2 317.3 " fill="#FF0000"/>
<path class="atom-6" d="M 455.3 312.7 L 456.0 312.7 L 456.0 314.9 L 458.6 314.9 L 458.6 312.7 L 459.3 312.7 L 459.3 317.8 L 458.6 317.8 L 458.6 315.4 L 456.0 315.4 L 456.0 317.8 L 455.3 317.8 L 455.3 312.7 " fill="#FF0000"/>
<path class="atom-8" d="M 471.7 273.1 Q 471.7 271.9, 472.3 271.2 Q 472.9 270.5, 474.1 270.5 Q 475.2 270.5, 475.8 271.2 Q 476.4 271.9, 476.4 273.1 Q 476.4 274.4, 475.8 275.1 Q 475.2 275.8, 474.1 275.8 Q 472.9 275.8, 472.3 275.1 Q 471.7 274.4, 471.7 273.1 M 474.1 275.2 Q 474.8 275.2, 475.2 274.7 Q 475.7 274.1, 475.7 273.1 Q 475.7 272.1, 475.2 271.6 Q 474.8 271.1, 474.1 271.1 Q 473.3 271.1, 472.9 271.6 Q 472.4 272.1, 472.4 273.1 Q 472.4 274.1, 472.9 274.7 Q 473.3 275.2, 474.1 275.2 " fill="#FF0000"/>
<path class="atom-8" d="M 477.2 270.6 L 477.9 270.6 L 477.9 272.8 L 480.5 272.8 L 480.5 270.6 L 481.1 270.6 L 481.1 275.7 L 480.5 275.7 L 480.5 273.3 L 477.9 273.3 L 477.9 275.7 L 477.2 275.7 L 477.2 270.6 " fill="#FF0000"/>
<path class="atom-10" d="M 499.9 295.4 Q 499.9 294.1, 500.5 293.5 Q 501.1 292.8, 502.2 292.8 Q 503.3 292.8, 503.9 293.5 Q 504.5 294.1, 504.5 295.4 Q 504.5 296.6, 503.9 297.3 Q 503.3 298.0, 502.2 298.0 Q 501.1 298.0, 500.5 297.3 Q 499.9 296.6, 499.9 295.4 M 502.2 297.4 Q 503.0 297.4, 503.4 296.9 Q 503.8 296.4, 503.8 295.4 Q 503.8 294.4, 503.4 293.9 Q 503.0 293.3, 502.2 293.3 Q 501.4 293.3, 501.0 293.8 Q 500.6 294.4, 500.6 295.4 Q 500.6 296.4, 501.0 296.9 Q 501.4 297.4, 502.2 297.4 " fill="#FF0000"/>
<path class="atom-12" d="M 511.3 324.2 Q 511.3 323.0, 511.9 322.3 Q 512.5 321.6, 513.7 321.6 Q 514.8 321.6, 515.4 322.3 Q 516.0 323.0, 516.0 324.2 Q 516.0 325.4, 515.4 326.2 Q 514.8 326.8, 513.7 326.8 Q 512.5 326.8, 511.9 326.2 Q 511.3 325.5, 511.3 324.2 M 513.7 326.3 Q 514.4 326.3, 514.9 325.8 Q 515.3 325.2, 515.3 324.2 Q 515.3 323.2, 514.9 322.7 Q 514.4 322.2, 513.7 322.2 Q 512.9 322.2, 512.5 322.7 Q 512.1 323.2, 512.1 324.2 Q 512.1 325.2, 512.5 325.8 Q 512.9 326.3, 513.7 326.3 " fill="#FF0000"/>
<path class="atom-16" d="M 552.4 257.7 Q 552.4 256.5, 553.0 255.8 Q 553.6 255.2, 554.8 255.2 Q 555.9 255.2, 556.5 255.8 Q 557.1 256.5, 557.1 257.7 Q 557.1 259.0, 556.5 259.7 Q 555.9 260.4, 554.8 260.4 Q 553.6 260.4, 553.0 259.7 Q 552.4 259.0, 552.4 257.7 M 554.8 259.8 Q 555.5 259.8, 556.0 259.3 Q 556.4 258.8, 556.4 257.7 Q 556.4 256.7, 556.0 256.2 Q 555.5 255.7, 554.8 255.7 Q 554.0 255.7, 553.6 256.2 Q 553.2 256.7, 553.2 257.7 Q 553.2 258.8, 553.6 259.3 Q 554.0 259.8, 554.8 259.8 " fill="#FF0000"/>
<path class="atom-16" d="M 557.9 255.2 L 558.6 255.2 L 558.6 257.4 L 561.2 257.4 L 561.2 255.2 L 561.9 255.2 L 561.9 260.3 L 561.2 260.3 L 561.2 257.9 L 558.6 257.9 L 558.6 260.3 L 557.9 260.3 L 557.9 255.2 " fill="#FF0000"/>
<path class="atom-18" d="M 580.6 280.0 Q 580.6 278.7, 581.2 278.1 Q 581.8 277.4, 582.9 277.4 Q 584.0 277.4, 584.6 278.1 Q 585.2 278.7, 585.2 280.0 Q 585.2 281.2, 584.6 281.9 Q 584.0 282.6, 582.9 282.6 Q 581.8 282.6, 581.2 281.9 Q 580.6 281.2, 580.6 280.0 M 582.9 282.0 Q 583.7 282.0, 584.1 281.5 Q 584.5 281.0, 584.5 280.0 Q 584.5 279.0, 584.1 278.5 Q 583.7 278.0, 582.9 278.0 Q 582.1 278.0, 581.7 278.5 Q 581.3 279.0, 581.3 280.0 Q 581.3 281.0, 581.7 281.5 Q 582.1 282.0, 582.9 282.0 " fill="#FF0000"/>
<path class="atom-18" d="M 586.0 277.4 L 586.7 277.4 L 586.7 279.6 L 589.3 279.6 L 589.3 277.4 L 590.0 277.4 L 590.0 282.5 L 589.3 282.5 L 589.3 280.2 L 586.7 280.2 L 586.7 282.5 L 586.0 282.5 L 586.0 277.4 " fill="#FF0000"/>
<path class="atom-20" d="M 575.4 315.5 Q 575.4 314.2, 576.0 313.6 Q 576.6 312.9, 577.7 312.9 Q 578.8 312.9, 579.4 313.6 Q 580.1 314.2, 580.1 315.5 Q 580.1 316.7, 579.4 317.4 Q 578.8 318.1, 577.7 318.1 Q 576.6 318.1, 576.0 317.4 Q 575.4 316.7, 575.4 315.5 M 577.7 317.5 Q 578.5 317.5, 578.9 317.0 Q 579.3 316.5, 579.3 315.5 Q 579.3 314.5, 578.9 314.0 Q 578.5 313.4, 577.7 313.4 Q 576.9 313.4, 576.5 313.9 Q 576.1 314.4, 576.1 315.5 Q 576.1 316.5, 576.5 317.0 Q 576.9 317.5, 577.7 317.5 " fill="#FF0000"/>
<path class="atom-20" d="M 580.8 312.9 L 581.5 312.9 L 581.5 315.1 L 584.1 315.1 L 584.1 312.9 L 584.8 312.9 L 584.8 318.0 L 584.1 318.0 L 584.1 315.7 L 581.5 315.7 L 581.5 318.0 L 580.8 318.0 L 580.8 312.9 " fill="#FF0000"/>
<path class="legend" d="M 504.6 384.3 L 504.6 389.1 Q 502.9 390.0, 500.6 390.0 Q 498.1 390.0, 496.8 388.5 Q 495.4 387.0, 495.4 384.2 Q 495.4 381.4, 496.8 379.9 Q 498.1 378.4, 500.6 378.4 Q 501.9 378.4, 502.9 378.8 Q 503.8 379.2, 504.5 380.0 L 503.5 380.9 Q 502.4 379.7, 500.6 379.7 Q 498.9 379.7, 498.0 380.8 Q 497.1 382.0, 497.1 384.2 Q 497.1 386.4, 498.0 387.6 Q 499.0 388.7, 500.8 388.7 Q 502.0 388.7, 503.0 388.3 L 503.0 384.3 L 504.6 384.3 " fill="#000000"/>
<path class="bond-0 atom-0 atom-1" d="M 661.0,293.5 L 677.0,285.3" style="fill:none;fill-rule:evenodd;stroke:#000000;stroke-width:2.0px;stroke-linecap:butt;stroke-linejoin:miter;stroke-opacity:1"/>
<path class="bond-0 atom-0 atom-1" d="M 662.2,295.9 L 676.8,288.4" style="fill:none;fill-rule:evenodd;stroke:#000000;stroke-width:2.0px;stroke-linecap:butt;stroke-linejoin:miter;stroke-opacity:1"/>
<path class="bond-1 atom-1 atom-2" d="M 677.0,285.3 L 692.0,295.1" style="fill:none;fill-rule:evenodd;stroke:#000000;stroke-width:2.0px;stroke-linecap:butt;stroke-linejoin:miter;stroke-opacity:1"/>
<path class="bond-2 atom-2 atom-3" d="M 692.0,295.1 L 708.0,286.9" style="fill:none;fill-rule:evenodd;stroke:#000000;stroke-width:2.0px;stroke-linecap:butt;stroke-linejoin:miter;stroke-opacity:1"/>
<path class="bond-3 atom-3 atom-4" d="M 708.0,286.9 L 723.0,296.7" style="fill:none;fill-rule:evenodd;stroke:#000000;stroke-width:2.0px;stroke-linecap:butt;stroke-linejoin:miter;stroke-opacity:1"/>
<path class="bond-4 atom-4 atom-5" d="M 723.0,296.7 L 739.0,288.5" style="fill:none;fill-rule:evenodd;stroke:#000000;stroke-width:2.0px;stroke-linecap:butt;stroke-linejoin:miter;stroke-opacity:1"/>
<path d="M 676.2,285.7 L 677.0,285.3 L 677.7,285.8" style="fill:none;stroke:#000000;stroke-width:2.0px;stroke-linecap:butt;stroke-linejoin:miter;stroke-opacity:1;"/>
<path d="M 691.3,294.6 L 692.0,295.1 L 692.8,294.7" style="fill:none;stroke:#000000;stroke-width:2.0px;stroke-linecap:butt;stroke-linejoin:miter;stroke-opacity:1;"/>
<path d="M 707.2,287.3 L 708.0,286.9 L 708.7,287.4" style="fill:none;stroke:#000000;stroke-width:2.0px;stroke-linecap:butt;stroke-linejoin:miter;stroke-opacity:1;"/>
<path d="M 722.3,296.2 L 723.0,296.7 L 723.8,296.3" style="fill:none;stroke:#000000;stroke-width:2.0px;stroke-linecap:butt;stroke-linejoin:miter;stroke-opacity:1;"/>
<path class="legend" d="M 695.6 378.7 L 697.1 378.7 L 697.1 383.5 L 702.9 383.5 L 702.9 378.7 L 704.4 378.7 L 704.4 390.0 L 702.9 390.0 L 702.9 384.8 L 697.1 384.8 L 697.1 390.0 L 695.6 390.0 L 695.6 378.7 " fill="#000000"/>
</svg>