<svg xmlns="http://www.w3.org/2000/svg" xmlns:rdkit="http://www.rdkit.org/xml" xmlns:xlink="http://www.w3.org/1999/xlink" version="1.1" baseProfile="full" xml:space="preserve" width="800px" height="600px" viewBox="0 0 800 600">
<!-- END OF HEADER -->
<rect style="opacity:1.0;fill:#FFFFFF;stroke:none" width="800.0" height="600.0" x="0.0" y="0.0"> </rect>
<path class="bond-0 atom-0 atom-1" d="M 119.4,91.0 L 109.7,107.8" style="fill:none;fill-rule:evenodd;stroke:#000000;stroke-width:2.0px;stroke-linecap:butt;stroke-linejoin:miter;stroke-opacity:1"/>
<path class="bond-0 atom-0 atom-1" d="M 116.0,91.0 L 108.0,104.9" style="fill:none;fill-rule:evenodd;stroke:#000000;stroke-width:2.0px;stroke-linecap:butt;stroke-linejoin:miter;stroke-opacity:1"/>
<path class="bond-1 atom-1 atom-2" d="M 109.7,107.8 L 90.3,107.8" style="fill:none;fill-rule:evenodd;stroke:#000000;stroke-width:2.0px;stroke-linecap:butt;stroke-linejoin:miter;stroke-opacity:1"/>
<path class="bond-2 atom-2 atom-3" d="M 90.3,107.8 L 80.6,91.0" style="fill:none;fill-rule:evenodd;stroke:#000000;stroke-width:2.0px;stroke-linecap:butt;stroke-linejoin:miter;stroke-opacity:1"/>
<path class="bond-2 atom-2 atom-3" d="M 92.0,104.9 L 84.0,91.0" style="fill:none;fill-rule:evenodd;stroke:#000000;stroke-width:2.0px;stroke-linecap:butt;stroke-linejoin:miter;stroke-opacity:1"/>
<path class="bond-3 atom-3 atom-4" d="M 80.6,91.0 L 90.3,74.2" style="fill:none;fill-rule:evenodd;stroke:#000000;stroke-width:2.0px;stroke-linecap:butt;stroke-linejoin:miter;stroke-opacity:1"/>
<path class="bond-4 atom-4 atom-5" d="M 90.3,74.2 L 109.7,74.2" style="fill:none;fill-rule:evenodd;stroke:#000000;stroke-width:2.0px;stroke-linecap:butt;stroke-linejoin:miter;stroke-opacity:1"/>
<path class="bond-4 atom-4 atom-5" d="M 92.0,77.1 L 108.0,77.1" style="fill:none;fill-rule:evenodd;stroke:#000000;stroke-width:2.0px;stroke-linecap:butt;stroke-linejoin:miter;stroke-opacity:1"/>
<path class="bond-5 atom-5 atom-0" d="M 109.7,74.2 L 119.4,91.0" style="fill:none;fill-rule:evenodd;stroke:#000000;stroke-width:2.0px;stroke-linecap:butt;stroke-linejoin:miter;stroke-opacity:1"/>
<path d="M 118.9,91.8 L 119.4,91.0 L 118.9,90.2" style="fill:none;stroke:#000000;stroke-width:2.0px;stroke-linecap:butt;stroke-linejoin:miter;stroke-opacity:1;"/>
<path d="M 110.2,106.9 L 109.7,107.8 L 108.7,107.8" style="fill:none;stroke:#000000;stroke-width:2.0px;stroke-linecap:butt;stroke-linejoin:miter;stroke-opacity:1;"/>
<path d="M 91.3,107.8 L 90.3,107.8 L 89.8,106.9" style="fill:none;stroke:#000000;stroke-width:2.0px;stroke-linecap:butt;stroke-linejoin:miter;stroke-opacity:1;"/>
<path d="M 81.1,91.8 L 80.6,91.0 L 81.1,90.2" style="fill:none;stroke:#000000;stroke-width:2.0px;stroke-linecap:butt;stroke-linejoin:miter;stroke-opacity:1;"/>
<path d="M 89.8,75.1 L 90.3,74.2 L 91.3,74.2" style="fill:none;stroke:#000000;stroke-width:2.0px;stroke-linecap:butt;stroke-linejoin:miter;stroke-opacity:1;"/>
<path d="M 108.7,74.2 L 109.7,74.2 L 110.2,75.1" style="fill:none;stroke:#000000;stroke-width:2.0px;stroke-linecap:butt;stroke-linejoin:miter;stroke-opacity:1;"/>
<path class="legend" d="M 103.4 190.0 L 102.2 186.7 L 97.8 186.7 L 96.6 190.0 L 95.1 190.0 L 99.0 178.7 L 100.9 178.7 L 104.9 190.0 L 103.4 190.0 M 98.2 185.4 L 101.8 185.4 L 100.0 180.3 L 98.2 185.4 " fill="#000000"/>
<path class="bond-0 atom-0 atom-1" d="M 246.2,103.4 L 248.9,95.5" style="fill:none;fill-rule:evenodd;stroke:#FF0000;stroke-width:2.0px;stroke-linecap:butt;stroke-linejoin:miter;stroke-opacity:1"/>
<path class="bond-0 atom-0 atom-1" d="M 248.9,95.5 L 251.5,87.7" style="fill:none;fill-rule:evenodd;stroke:#000000;stroke-width:2.0px;stroke-linecap:butt;stroke-linejoin:miter;stroke-opacity:1"/>
<path class="bond-0 atom-0 atom-1" d="M 249.0,104.3 L 251.6,96.5" style="fill:none;fill-rule:evenodd;stroke:#FF0000;stroke-width:2.0px;stroke-linecap:butt;stroke-linejoin:miter;stroke-opacity:1"/>
<path class="bond-0 atom-0 atom-1" d="M 251.6,96.5 L 254.3,88.6" style="fill:none;fill-rule:evenodd;stroke:#000000;stroke-width:2.0px;stroke-linecap:butt;stroke-linejoin:miter;stroke-opacity:1"/>
<path class="bond-1 atom-1 atom-2" d="M 252.6,88.9 L 247.8,83.4" style="fill:none;fill-rule:evenodd;stroke:#000000;stroke-width:2.0px;stroke-linecap:butt;stroke-linejoin:miter;stroke-opacity:1"/>
<path class="bond-1 atom-1 atom-2" d="M 247.8,83.4 L 242.9,77.9" style="fill:none;fill-rule:evenodd;stroke:#FF0000;stroke-width:2.0px;stroke-linecap:butt;stroke-linejoin:miter;stroke-opacity:1"/>
<path class="bond-2 atom-1 atom-3" d="M 252.6,88.9 L 271.6,85.1" style="fill:none;fill-rule:evenodd;stroke:#000000;stroke-width:2.0px;stroke-linecap:butt;stroke-linejoin:miter;stroke-opacity:1"/>
<path class="bond-3 atom-3 atom-4" d="M 271.6,85.1 L 284.4,99.7" style="fill:none;fill-rule:evenodd;stroke:#000000;stroke-width:2.0px;stroke-linecap:butt;stroke-linejoin:miter;stroke-opacity:1"/>
<path class="bond-3 atom-3 atom-4" d="M 270.6,88.3 L 282.3,101.6" style="fill:none;fill-rule:evenodd;stroke:#000000;stroke-width:2.0px;stroke-linecap:butt;stroke-linejoin:miter;stroke-opacity:1"/>
<path class="bond-4 atom-4 atom-5" d="M 284.4,99.7 L 303.4,95.9" style="fill:none;fill-rule:evenodd;stroke:#000000;stroke-width:2.0px;stroke-linecap:butt;stroke-linejoin:miter;stroke-opacity:1"/>
<path class="bond-5 atom-5 atom-6" d="M 303.4,95.9 L 309.6,77.5" style="fill:none;fill-rule:evenodd;stroke:#000000;stroke-width:2.0px;stroke-linecap:butt;stroke-linejoin:miter;stroke-opacity:1"/>
<path class="bond-5 atom-5 atom-6" d="M 306.7,95.2 L 311.9,80.0" style="fill:none;fill-rule:evenodd;stroke:#000000;stroke-width:2.0px;stroke-linecap:butt;stroke-linejoin:miter;stroke-opacity:1"/>
<path class="bond-6 atom-6 atom-7" d="M 309.6,77.5 L 328.6,73.7" style="fill:none;fill-rule:evenodd;stroke:#000000;stroke-width:2.0px;stroke-linecap:butt;stroke-linejoin:miter;stroke-opacity:1"/>
<path class="bond-7 atom-7 atom-8" d="M 328.6,73.7 L 341.4,88.2" style="fill:none;fill-rule:evenodd;stroke:#000000;stroke-width:2.0px;stroke-linecap:butt;stroke-linejoin:miter;stroke-opacity:1"/>
<path class="bond-7 atom-7 atom-8" d="M 327.6,76.9 L 338.1,88.9" style="fill:none;fill-rule:evenodd;stroke:#000000;stroke-width:2.0px;stroke-linecap:butt;stroke-linejoin:miter;stroke-opacity:1"/>
<path class="bond-8 atom-8 atom-9" d="M 341.4,88.2 L 349.4,86.6" style="fill:none;fill-rule:evenodd;stroke:#000000;stroke-width:2.0px;stroke-linecap:butt;stroke-linejoin:miter;stroke-opacity:1"/>
<path class="bond-8 atom-8 atom-9" d="M 349.4,86.6 L 357.3,85.0" style="fill:none;fill-rule:evenodd;stroke:#FF0000;stroke-width:2.0px;stroke-linecap:butt;stroke-linejoin:miter;stroke-opacity:1"/>
<path class="bond-9 atom-8 atom-10" d="M 341.4,88.2 L 335.2,106.6" style="fill:none;fill-rule:evenodd;stroke:#000000;stroke-width:2.0px;stroke-linecap:butt;stroke-linejoin:miter;stroke-opacity:1"/>
<path class="bond-10 atom-10 atom-11" d="M 335.2,106.6 L 316.2,110.4" style="fill:none;fill-rule:evenodd;stroke:#000000;stroke-width:2.0px;stroke-linecap:butt;stroke-linejoin:miter;stroke-opacity:1"/>
<path class="bond-10 atom-10 atom-11" d="M 333.0,104.1 L 317.3,107.2" style="fill:none;fill-rule:evenodd;stroke:#000000;stroke-width:2.0px;stroke-linecap:butt;stroke-linejoin:miter;stroke-opacity:1"/>
<path class="bond-11 atom-11 atom-5" d="M 316.2,110.4 L 303.4,95.9" style="fill:none;fill-rule:evenodd;stroke:#000000;stroke-width:2.0px;stroke-linecap:butt;stroke-linejoin:miter;stroke-opacity:1"/>
<path d="M 252.4,88.6 L 252.6,88.9 L 253.6,88.7" style="fill:none;stroke:#000000;stroke-width:2.0px;stroke-linecap:butt;stroke-linejoin:miter;stroke-opacity:1;"/>
<path d="M 270.7,85.3 L 271.6,85.1 L 272.3,85.8" style="fill:none;stroke:#000000;stroke-width:2.0px;stroke-linecap:butt;stroke-linejoin:miter;stroke-opacity:1;"/>
<path d="M 283.8,98.9 L 284.4,99.7 L 285.4,99.5" style="fill:none;stroke:#000000;stroke-width:2.0px;stroke-linecap:butt;stroke-linejoin:miter;stroke-opacity:1;"/>
<path d="M 309.3,78.4 L 309.6,77.5 L 310.6,77.3" style="fill:none;stroke:#000000;stroke-width:2.0px;stroke-linecap:butt;stroke-linejoin:miter;stroke-opacity:1;"/>
<path d="M 327.7,73.9 L 328.6,73.7 L 329.3,74.4" style="fill:none;stroke:#000000;stroke-width:2.0px;stroke-linecap:butt;stroke-linejoin:miter;stroke-opacity:1;"/>
<path d="M 335.6,105.7 L 335.2,106.6 L 334.3,106.8" style="fill:none;stroke:#000000;stroke-width:2.0px;stroke-linecap:butt;stroke-linejoin:miter;stroke-opacity:1;"/>
<path d="M 317.2,110.2 L 316.2,110.4 L 315.6,109.7" style="fill:none;stroke:#000000;stroke-width:2.0px;stroke-linecap:butt;stroke-linejoin:miter;stroke-opacity:1;"/>
<path class="atom-0" d="M 243.9 107.3 Q 243.9 106.0, 244.6 105.2 Q 245.2 104.5, 246.4 104.5 Q 247.7 104.5, 248.3 105.2 Q 249.0 106.0, 249.0 107.3 Q 249.0 108.6, 248.3 109.4 Q 247.6 110.1, 246.4 110.1 Q 245.2 110.1, 244.6 109.4 Q 243.9 108.6, 243.9 107.3 M 246.4 109.5 Q 247.3 109.5, 247.7 109.0 Q 248.2 108.4, 248.2 107.3 Q 248.2 106.2, 247.7 105.7 Q 247.3 105.1, 246.4 105.1 Q 245.6 105.1, 245.1 105.7 Q 244.7 106.2, 244.7 107.3 Q 244.7 108.4, 245.1 109.0 Q 245.6 109.5, 246.4 109.5 " fill="#FF0000"/>
<path class="atom-2" d="M 231.9 71.7 L 232.6 71.7 L 232.6 74.0 L 235.4 74.0 L 235.4 71.7 L 236.2 71.7 L 236.2 77.2 L 235.4 77.2 L 235.4 74.6 L 232.6 74.6 L 232.6 77.2 L 231.9 77.2 L 231.9 71.7 " fill="#FF0000"/>
<path class="atom-2" d="M 237.3 74.4 Q 237.3 73.1, 238.0 72.3 Q 238.6 71.6, 239.8 71.6 Q 241.0 71.6, 241.7 72.3 Q 242.4 73.1, 242.4 74.4 Q 242.4 75.7, 241.7 76.5 Q 241.0 77.2, 239.8 77.2 Q 238.6 77.2, 238.0 76.5 Q 237.3 75.7, 237.3 74.4 M 239.8 76.6 Q 240.7 76.6, 241.1 76.1 Q 241.6 75.5, 241.6 74.4 Q 241.6 73.3, 241.1 72.8 Q 240.7 72.2, 239.8 72.2 Q 239.0 72.2, 238.5 72.8 Q 238.1 73.3, 238.1 74.4 Q 238.1 75.5, 238.5 76.1 Q 239.0 76.6, 239.8 76.6 " fill="#FF0000"/>
<path class="atom-9" d="M 357.9 84.4 Q 357.9 83.1, 358.6 82.4 Q 359.2 81.6, 360.4 81.6 Q 361.7 81.6, 362.3 82.4 Q 363.0 83.1, 363.0 84.4 Q 363.0 85.8, 362.3 86.5 Q 361.6 87.3, 360.4 87.3 Q 359.2 87.3, 358.6 86.5 Q 357.9 85.8, 357.9 84.4 M 360.4 86.7 Q 361.3 86.7, 361.7 86.1 Q 362.2 85.5, 362.2 84.4 Q 362.2 83.4, 361.7 82.8 Q 361.3 82.3, 360.4 82.3 Q 359.6 82.3, 359.1 82.8 Q 358.7 83.3, 358.7 84.4 Q 358.7 85.5, 359.1 86.1 Q 359.6 86.7, 360.4 86.7 " fill="#FF0000"/>
<path class="atom-9" d="M 363.8 81.7 L 364.6 81.7 L 364.6 84.0 L 367.4 84.0 L 367.4 81.7 L 368.1 81.7 L 368.1 87.2 L 367.4 87.2 L 367.4 84.7 L 364.6 84.7 L 364.6 87.2 L 363.8 87.2 L 363.8 81.7 " fill="#FF0000"/>
<path class="legend" d="M 301.7 184.0 Q 302.7 184.4, 303.3 185.0 Q 303.8 185.7, 303.8 186.7 Q 303.8 188.2, 302.8 189.1 Q 301.8 190.0, 300.0 190.0 L 296.2 190.0 L 296.2 178.7 L 299.5 178.7 Q 301.4 178.7, 302.4 179.5 Q 303.4 180.2, 303.4 181.7 Q 303.4 183.4, 301.7 184.0 M 297.7 180.0 L 297.7 183.5 L 299.5 183.5 Q 300.6 183.5, 301.2 183.1 Q 301.8 182.6, 301.8 181.7 Q 301.8 180.0, 299.5 180.0 L 297.7 180.0 M 300.0 188.7 Q 301.1 188.7, 301.7 188.2 Q 302.2 187.7, 302.2 186.7 Q 302.2 185.7, 301.6 185.3 Q 301.0 184.8, 299.7 184.8 L 297.7 184.8 L 297.7 188.7 L 300.0 188.7 " fill="#000000"/>
<path class="bond-0 atom-0 atom-1" d="M 442.7,89.4 L 461.3,83.8" style="fill:none;fill-rule:evenodd;stroke:#000000;stroke-width:2.0px;stroke-linecap:butt;stroke-linejoin:miter;stroke-opacity:1"/>
<path class="bond-1 atom-1 atom-2" d="M 461.3,83.8 L 475.4,97.0" style="fill:none;fill-rule:evenodd;stroke:#000000;stroke-width:2.0px;stroke-linecap:butt;stroke-linejoin:miter;stroke-opacity:1"/>
<path class="bond-2 atom-2 atom-3" d="M 475.4,97.0 L 494.0,91.4" style="fill:none;fill-rule:evenodd;stroke:#000000;stroke-width:2.0px;stroke-linecap:butt;stroke-linejoin:miter;stroke-opacity:1"/>
<path class="bond-3 atom-3 atom-4" d="M 494.0,91.4 L 498.4,72.5" style="fill:none;fill-rule:evenodd;stroke:#000000;stroke-width:2.0px;stroke-linecap:butt;stroke-linejoin:miter;stroke-opacity:1"/>
<path class="bond-3 atom-3 atom-4" d="M 497.2,90.4 L 500.8,74.8" style="fill:none;fill-rule:evenodd;stroke:#000000;stroke-width:2.0px;stroke-linecap:butt;stroke-linejoin:miter;stroke-opacity:1"/>
<path class="bond-4 atom-4 atom-5" d="M 498.4,72.5 L 516.9,66.9" style="fill:none;fill-rule:evenodd;stroke:#000000;stroke-width:2.0px;stroke-linecap:butt;stroke-linejoin:miter;stroke-opacity:1"/>
<path class="bond-5 atom-5 atom-6" d="M 516.9,66.9 L 531.1,80.1" style="fill:none;fill-rule:evenodd;stroke:#000000;stroke-width:2.0px;stroke-linecap:butt;stroke-linejoin:miter;stroke-opacity:1"/>
<path class="bond-5 atom-5 atom-6" d="M 516.1,70.2 L 527.8,81.1" style="fill:none;fill-rule:evenodd;stroke:#000000;stroke-width:2.0px;stroke-linecap:butt;stroke-linejoin:miter;stroke-opacity:1"/>
<path class="bond-6 atom-6 atom-7" d="M 531.1,80.1 L 538.7,77.8" style="fill:none;fill-rule:evenodd;stroke:#000000;stroke-width:2.0px;stroke-linecap:butt;stroke-linejoin:miter;stroke-opacity:1"/>
<path class="bond-6 atom-6 atom-7" d="M 538.7,77.8 L 546.4,75.5" style="fill:none;fill-rule:evenodd;stroke:#FF0000;stroke-width:2.0px;stroke-linecap:butt;stroke-linejoin:miter;stroke-opacity:1"/>
<path class="bond-7 atom-6 atom-8" d="M 531.1,80.1 L 526.7,99.0" style="fill:none;fill-rule:evenodd;stroke:#000000;stroke-width:2.0px;stroke-linecap:butt;stroke-linejoin:miter;stroke-opacity:1"/>
<path class="bond-8 atom-8 atom-9" d="M 526.7,99.0 L 532.2,104.2" style="fill:none;fill-rule:evenodd;stroke:#000000;stroke-width:2.0px;stroke-linecap:butt;stroke-linejoin:miter;stroke-opacity:1"/>
<path class="bond-8 atom-8 atom-9" d="M 532.2,104.2 L 537.6,109.3" style="fill:none;fill-rule:evenodd;stroke:#FF0000;stroke-width:2.0px;stroke-linecap:butt;stroke-linejoin:miter;stroke-opacity:1"/>
<path class="bond-9 atom-8 atom-10" d="M 526.7,99.0 L 508.1,104.6" style="fill:none;fill-rule:evenodd;stroke:#000000;stroke-width:2.0px;stroke-linecap:butt;stroke-linejoin:miter;stroke-opacity:1"/>
<path class="bond-9 atom-8 atom-10" d="M 524.2,96.7 L 508.9,101.4" style="fill:none;fill-rule:evenodd;stroke:#000000;stroke-width:2.0px;stroke-linecap:butt;stroke-linejoin:miter;stroke-opacity:1"/>
<path class="bond-10 atom-10 atom-3" d="M 508.1,104.6 L 494.0,91.4" style="fill:none;fill-rule:evenodd;stroke:#000000;stroke-width:2.0px;stroke-linecap:butt;stroke-linejoin:miter;stroke-opacity:1"/>
<path d="M 460.3,84.1 L 461.3,83.8 L 462.0,84.4" style="fill:none;stroke:#000000;stroke-width:2.0px;stroke-linecap:butt;stroke-linejoin:miter;stroke-opacity:1;"/>
<path d="M 474.7,96.4 L 475.4,97.0 L 476.3,96.7" style="fill:none;stroke:#000000;stroke-width:2.0px;stroke-linecap:butt;stroke-linejoin:miter;stroke-opacity:1;"/>
<path d="M 498.1,73.5 L 498.4,72.5 L 499.3,72.2" style="fill:none;stroke:#000000;stroke-width:2.0px;stroke-linecap:butt;stroke-linejoin:miter;stroke-opacity:1;"/>
<path d="M 516.0,67.2 L 516.9,66.9 L 517.6,67.5" style="fill:none;stroke:#000000;stroke-width:2.0px;stroke-linecap:butt;stroke-linejoin:miter;stroke-opacity:1;"/>
<path d="M 509.0,104.4 L 508.1,104.6 L 507.4,104.0" style="fill:none;stroke:#000000;stroke-width:2.0px;stroke-linecap:butt;stroke-linejoin:miter;stroke-opacity:1;"/>
<path class="atom-7" d="M 547.1 74.5 Q 547.1 73.2, 547.7 72.5 Q 548.4 71.7, 549.6 71.7 Q 550.8 71.7, 551.5 72.5 Q 552.1 73.2, 552.1 74.5 Q 552.1 75.9, 551.5 76.6 Q 550.8 77.4, 549.6 77.4 Q 548.4 77.4, 547.7 76.6 Q 547.1 75.9, 547.1 74.5 M 549.6 76.7 Q 550.4 76.7, 550.9 76.2 Q 551.3 75.6, 551.3 74.5 Q 551.3 73.4, 550.9 72.9 Q 550.4 72.3, 549.6 72.3 Q 548.8 72.3, 548.3 72.9 Q 547.9 73.4, 547.9 74.5 Q 547.9 75.6, 548.3 76.2 Q 548.8 76.7, 549.6 76.7 " fill="#FF0000"/>
<path class="atom-7" d="M 553.0 71.8 L 553.7 71.8 L 553.7 74.1 L 556.5 74.1 L 556.5 71.8 L 557.3 71.8 L 557.3 77.3 L 556.5 77.3 L 556.5 74.7 L 553.7 74.7 L 553.7 77.3 L 553.0 77.3 L 553.0 71.8 " fill="#FF0000"/>
<path class="atom-9" d="M 538.3 112.3 Q 538.3 111.0, 538.9 110.2 Q 539.6 109.5, 540.8 109.5 Q 542.0 109.5, 542.7 110.2 Q 543.3 111.0, 543.3 112.3 Q 543.3 113.6, 542.7 114.4 Q 542.0 115.1, 540.8 115.1 Q 539.6 115.1, 538.9 114.4 Q 538.3 113.6, 538.3 112.3 M 540.8 114.5 Q 541.6 114.5, 542.1 113.9 Q 542.5 113.4, 542.5 112.3 Q 542.5 111.2, 542.1 110.6 Q 541.6 110.1, 540.8 110.1 Q 540.0 110.1, 539.5 110.6 Q 539.1 111.2, 539.1 112.3 Q 539.1 113.4, 539.5 113.9 Q 540.0 114.5, 540.8 114.5 " fill="#FF0000"/>
<path class="atom-9" d="M 544.2 109.5 L 544.9 109.5 L 544.9 111.9 L 547.7 111.9 L 547.7 109.5 L 548.5 109.5 L 548.5 115.0 L 547.7 115.0 L 547.7 112.5 L 544.9 112.5 L 544.9 115.0 L 544.2 115.0 L 544.2 109.5 " fill="#FF0000"/>
<path class="legend" d="M 495.6 184.2 Q 495.6 181.4, 496.9 179.9 Q 498.3 178.4, 500.8 178.4 Q 503.1 178.4, 504.4 180.0 L 503.3 180.9 Q 502.4 179.7, 500.8 179.7 Q 499.1 179.7, 498.2 180.9 Q 497.3 182.0, 497.3 184.2 Q 497.3 186.4, 498.2 187.6 Q 499.1 188.7, 501.0 188.7 Q 502.2 188.7, 503.7 188.0 L 504.1 189.2 Q 503.5 189.6, 502.6 189.8 Q 501.7 190.0, 500.7 190.0 Q 498.3 190.0, 496.9 188.5 Q 495.6 187.0, 495.6 184.2 " fill="#000000"/>
<path class="bond-0 atom-0 atom-1" d="M 670.6,92.8 L 688.4,85.2" style="fill:none;fill-rule:evenodd;stroke:#000000;stroke-width:2.0px;stroke-linecap:butt;stroke-linejoin:miter;stroke-opacity:1"/>
<path class="bond-1 atom-1 atom-2" d="M 688.4,85.2 L 703.9,96.8" style="fill:none;fill-rule:evenodd;stroke:#000000;stroke-width:2.0px;stroke-linecap:butt;stroke-linejoin:miter;stroke-opacity:1"/>
<path class="bond-2 atom-2 atom-3" d="M 703.9,96.8 L 711.2,93.7" style="fill:none;fill-rule:evenodd;stroke:#000000;stroke-width:2.0px;stroke-linecap:butt;stroke-linejoin:miter;stroke-opacity:1"/>
<path class="bond-2 atom-2 atom-3" d="M 711.2,93.7 L 718.6,90.6" style="fill:none;fill-rule:evenodd;stroke:#FF0000;stroke-width:2.0px;stroke-linecap:butt;stroke-linejoin:miter;stroke-opacity:1"/>
<path d="M 687.5,85.6 L 688.4,85.2 L 689.2,85.8" style="fill:none;stroke:#000000;stroke-width:2.0px;stroke-linecap:butt;stroke-linejoin:miter;stroke-opacity:1;"/>
<path d="M 703.1,96.2 L 703.9,96.8 L 704.3,96.7" style="fill:none;stroke:#000000;stroke-width:2.0px;stroke-linecap:butt;stroke-linejoin:miter;stroke-opacity:1;"/>
<path class="atom-3" d="M 719.2 89.3 Q 719.2 87.9, 719.9 87.2 Q 720.5 86.5, 721.7 86.5 Q 723.0 86.5, 723.6 87.2 Q 724.3 87.9, 724.3 89.3 Q 724.3 90.6, 723.6 91.3 Q 722.9 92.1, 721.7 92.1 Q 720.5 92.1, 719.9 91.3 Q 719.2 90.6, 719.2 89.3 M 721.7 91.5 Q 722.6 91.5, 723.0 90.9 Q 723.5 90.4, 723.5 89.3 Q 723.5 88.2, 723.0 87.6 Q 722.6 87.1, 721.7 87.1 Q 720.9 87.1, 720.4 87.6 Q 720.0 88.2, 720.0 89.3 Q 720.0 90.4, 720.4 90.9 Q 720.9 91.5, 721.7 91.5 " fill="#FF0000"/>
<path class="atom-3" d="M 725.1 86.5 L 725.9 86.5 L 725.9 88.9 L 728.7 88.9 L 728.7 86.5 L 729.4 86.5 L 729.4 92.0 L 728.7 92.0 L 728.7 89.5 L 725.9 89.5 L 725.9 92.0 L 725.1 92.0 L 725.1 86.5 " fill="#FF0000"/>
<path class="legend" d="M 699.2 178.7 Q 701.7 178.7, 703.1 180.2 Q 704.4 181.6, 704.4 184.3 Q 704.4 187.0, 703.1 188.5 Q 701.7 190.0, 699.2 190.0 L 695.6 190.0 L 695.6 178.7 L 699.2 178.7 M 699.2 188.7 Q 701.0 188.7, 701.9 187.6 Q 702.8 186.5, 702.8 184.3 Q 702.8 182.1, 701.9 181.0 Q 701.0 180.0, 699.2 180.0 L 697.1 180.0 L 697.1 188.7 L 699.2 188.7 " fill="#000000"/>
<path class="bond-0 atom-0 atom-1" d="M 61.2,316.2 L 80.6,316.2" style="fill:none;fill-rule:evenodd;stroke:#000000;stroke-width:2.0px;stroke-linecap:butt;stroke-linejoin:miter;stroke-opacity:1"/>
<path class="bond-0 atom-0 atom-1" d="M 61.2,313.3 L 78.9,313.3" style="fill:none;fill-rule:evenodd;stroke:#000000;stroke-width:2.0px;stroke-linecap:butt;stroke-linejoin:miter;stroke-opacity:1;stroke-dasharray:6,4"/>
<path class="bond-1 atom-1 atom-2" d="M 80.6,316.2 L 90.3,299.4" style="fill:none;fill-rule:evenodd;stroke:#000000;stroke-width:2.0px;stroke-linecap:butt;stroke-linejoin:miter;stroke-opacity:1"/>
<path class="bond-2 atom-2 atom-3" d="M 90.3,299.4 L 80.6,282.6" style="fill:none;fill-rule:evenodd;stroke:#000000;stroke-width:2.0px;stroke-linecap:butt;stroke-linejoin:miter;stroke-opacity:1"/>
<path class="bond-2 atom-2 atom-3" d="M 92.0,296.5 L 84.0,282.6" style="fill:none;fill-rule:evenodd;stroke:#000000;stroke-width:2.0px;stroke-linecap:butt;stroke-linejoin:miter;stroke-opacity:1"/>
<path class="bond-3 atom-3 atom-4" d="M 80.6,282.6 L 90.3,265.8" style="fill:none;fill-rule:evenodd;stroke:#000000;stroke-width:2.0px;stroke-linecap:butt;stroke-linejoin:miter;stroke-opacity:1"/>
<path class="bond-4 atom-4 atom-5" d="M 90.3,265.8 L 109.7,265.8" style="fill:none;fill-rule:evenodd;stroke:#000000;stroke-width:2.0px;stroke-linecap:butt;stroke-linejoin:miter;stroke-opacity:1"/>
<path class="bond-4 atom-4 atom-5" d="M 92.0,268.7 L 108.0,268.7" style="fill:none;fill-rule:evenodd;stroke:#000000;stroke-width:2.0px;stroke-linecap:butt;stroke-linejoin:miter;stroke-opacity:1"/>
<path class="bond-5 atom-5 atom-6" d="M 109.7,265.8 L 119.4,282.6" style="fill:none;fill-rule:evenodd;stroke:#000000;stroke-width:2.0px;stroke-linecap:butt;stroke-linejoin:miter;stroke-opacity:1"/>
<path class="bond-6 atom-6 atom-7" d="M 119.4,282.6 L 109.7,299.4" style="fill:none;fill-rule:evenodd;stroke:#000000;stroke-width:2.0px;stroke-linecap:butt;stroke-linejoin:miter;stroke-opacity:1"/>
<path class="bond-6 atom-6 atom-7" d="M 116.0,282.6 L 108.0,296.5" style="fill:none;fill-rule:evenodd;stroke:#000000;stroke-width:2.0px;stroke-linecap:butt;stroke-linejoin:miter;stroke-opacity:1"/>
<path class="bond-7 atom-7 atom-8" d="M 109.7,299.4 L 119.4,316.2" style="fill:none;fill-rule:evenodd;stroke:#000000;stroke-width:2.0px;stroke-linecap:butt;stroke-linejoin:miter;stroke-opacity:1"/>
<path class="bond-8 atom-8 atom-9" d="M 119.4,316.2 L 138.8,316.2" style="fill:none;fill-rule:evenodd;stroke:#000000;stroke-width:2.0px;stroke-linecap:butt;stroke-linejoin:miter;stroke-opacity:1"/>
<path class="bond-8 atom-8 atom-9" d="M 121.1,313.3 L 138.8,313.3" style="fill:none;fill-rule:evenodd;stroke:#000000;stroke-width:2.0px;stroke-linecap:butt;stroke-linejoin:miter;stroke-opacity:1;stroke-dasharray:6,4"/>
<path class="bond-9 atom-7 atom-2" d="M 109.7,299.4 L 90.3,299.4" style="fill:none;fill-rule:evenodd;stroke:#000000;stroke-width:2.0px;stroke-linecap:butt;stroke-linejoin:miter;stroke-opacity:1"/>
<path d="M 79.7,316.2 L 80.6,316.2 L 81.1,315.3" style="fill:none;stroke:#000000;stroke-width:2.0px;stroke-linecap:butt;stroke-linejoin:miter;stroke-opacity:1;"/>
<path d="M 81.1,283.4 L 80.6,282.6 L 81.1,281.8" style="fill:none;stroke:#000000;stroke-width:2.0px;stroke-linecap:butt;stroke-linejoin:miter;stroke-opacity:1;"/>
<path d="M 89.8,266.7 L 90.3,265.8 L 91.3,265.8" style="fill:none;stroke:#000000;stroke-width:2.0px;stroke-linecap:butt;stroke-linejoin:miter;stroke-opacity:1;"/>
<path d="M 108.7,265.8 L 109.7,265.8 L 110.2,266.7" style="fill:none;stroke:#000000;stroke-width:2.0px;stroke-linecap:butt;stroke-linejoin:miter;stroke-opacity:1;"/>
<path d="M 118.9,281.8 L 119.4,282.6 L 118.9,283.4" style="fill:none;stroke:#000000;stroke-width:2.0px;stroke-linecap:butt;stroke-linejoin:miter;stroke-opacity:1;"/>
<path d="M 118.9,315.3 L 119.4,316.2 L 120.3,316.2" style="fill:none;stroke:#000000;stroke-width:2.0px;stroke-linecap:butt;stroke-linejoin:miter;stroke-opacity:1;"/>
<path class="legend" d="M 96.6 378.7 L 103.4 378.7 L 103.4 380.0 L 98.2 380.0 L 98.2 383.4 L 102.8 383.4 L 102.8 384.7 L 98.2 384.7 L 98.2 390.0 L 96.6 390.0 L 96.6 378.7 " fill="#000000"/>
<path class="bond-0 atom-0 atom-1" d="M 283.2,295.8 L 300.0,286.2" style="fill:none;fill-rule:evenodd;stroke:#000000;stroke-width:2.0px;stroke-linecap:butt;stroke-linejoin:miter;stroke-opacity:1"/>
<path class="bond-1 atom-1 atom-2" d="M 300.0,286.2 L 316.8,295.8" style="fill:none;fill-rule:evenodd;stroke:#000000;stroke-width:2.0px;stroke-linecap:butt;stroke-linejoin:miter;stroke-opacity:1"/>
<path d="M 299.2,286.6 L 300.0,286.2 L 300.8,286.6" style="fill:none;stroke:#000000;stroke-width:2.0px;stroke-linecap:butt;stroke-linejoin:miter;stroke-opacity:1;"/>
<path class="legend" d="M 304.6 384.3 L 304.6 389.1 Q 302.9 390.0, 300.6 390.0 Q 298.1 390.0, 296.8 388.5 Q 295.4 387.0, 295.4 384.2 Q 295.4 381.4, 296.8 379.9 Q 298.1 378.4, 300.6 378.4 Q 301.9 378.4, 302.9 378.8 Q 303.8 379.2, 304.5 380.0 L 303.5 380.9 Q 302.4 379.7, 300.6 379.7 Q 298.9 379.7, 298.0 380.8 Q 297.1 382.0, 297.1 384.2 Q 297.1 386.4, 298.0 387.6 Q 299.0 388.7, 300.8 388.7 Q 302.0 388.7, 303.0 388.3 L 303.0 384.3 L 304.6 384.3 " fill="#000000"/>
<path class="bond-0 atom-0 atom-1" d="M 483.2,295.8 L 500.0,286.2" style="fill:none;fill-rule:evenodd;stroke:#000000;stroke-width:2.0px;stroke-linecap:butt;stroke-linejoin:miter;stroke-opacity:1"/>
<path class="bond-1 atom-1 atom-2" d="M 500.0,286.2 L 516.8,295.8" style="fill:none;fill-rule:evenodd;stroke:#000000;stroke-width:2.0px;stroke-linecap:butt;stroke-linejoin:miter;stroke-opacity:1"/>
<path d="M 499.2,286.6 L 500.0,286.2 L 500.8,286.6" style="fill:none;stroke:#000000;stroke-width:2.0px;stroke-linecap:butt;stroke-linejoin:miter;stroke-opacity:1;"/>
<path class="legend" d="M 495.6 378.7 L 497.1 378.7 L 497.1 383.5 L 502.9 383.5 L 502.9 378.7 L 504.4 378.7 L 504.4 390.0 L 502.9 390.0 L 502.9 384.8 L 497.1 384.8 L 497.1 390.0 L 495.6 390.0 L 495.6 378.7 " fill="#000000"/>
<path class="bond-0 atom-0 atom-1" d="M 790.0,289.0 L 771.8,282.5" style="fill:none;fill-rule:evenodd;stroke:#000000;stroke-width:2.0px;stroke-linecap:butt;stroke-linejoin:miter;stroke-opacity:1"/>
<path class="bond-0 atom-0 atom-1" d="M 789.0,291.7 L 772.4,285.8" style="fill:none;fill-rule:evenodd;stroke:#000000;stroke-width:2.0px;stroke-linecap:butt;stroke-linejoin:miter;stroke-opacity:1;stroke-dasharray:6,4"/>
<path class="bond-1 atom-1 atom-2" d="M 771.8,282.5 L 757.0,295.0" style="fill:none;fill-rule:evenodd;stroke:#000000;stroke-width:2.0px;stroke-linecap:butt;stroke-linejoin:miter;stroke-opacity:1"/>
<path class="bond-1 atom-1 atom-2" d="M 772.4,285.8 L 760.1,296.1" style="fill:none;fill-rule:evenodd;stroke:#000000;stroke-width:2.0px;stroke-linecap:butt;stroke-linejoin:miter;stroke-opacity:1;stroke-dasharray:6,4"/>
<path class="bond-2 atom-2 atom-3" d="M 757.0,295.0 L 758.4,302.8" style="fill:none;fill-rule:evenodd;stroke:#000000;stroke-width:2.0px;stroke-linecap:butt;stroke-linejoin:miter;stroke-opacity:1"/>
<path class="bond-2 atom-2 atom-3" d="M 758.4,302.8 L 759.8,310.7" style="fill:none;fill-rule:evenodd;stroke:#FF0000;stroke-width:2.0px;stroke-linecap:butt;stroke-linejoin:miter;stroke-opacity:1"/>
<path class="bond-3 atom-2 atom-4" d="M 757.0,295.0 L 738.7,288.5" style="fill:none;fill-rule:evenodd;stroke:#000000;stroke-width:2.0px;stroke-linecap:butt;stroke-linejoin:miter;stroke-opacity:1"/>
<path class="bond-3 atom-2 atom-4" d="M 756.4,291.7 L 741.3,286.3" style="fill:none;fill-rule:evenodd;stroke:#000000;stroke-width:2.0px;stroke-linecap:butt;stroke-linejoin:miter;stroke-opacity:1;stroke-dasharray:6,4"/>
<path class="bond-4 atom-4 atom-5" d="M 738.7,288.5 L 737.3,280.7" style="fill:none;fill-rule:evenodd;stroke:#000000;stroke-width:2.0px;stroke-linecap:butt;stroke-linejoin:miter;stroke-opacity:1"/>
<path class="bond-4 atom-4 atom-5" d="M 737.3,280.7 L 735.9,272.9" style="fill:none;fill-rule:evenodd;stroke:#FF0000;stroke-width:2.0px;stroke-linecap:butt;stroke-linejoin:miter;stroke-opacity:1"/>
<path class="bond-5 atom-4 atom-6" d="M 738.7,288.5 L 723.9,301.0" style="fill:none;fill-rule:evenodd;stroke:#000000;stroke-width:2.0px;stroke-linecap:butt;stroke-linejoin:miter;stroke-opacity:1"/>
<path class="bond-5 atom-4 atom-6" d="M 735.6,287.3 L 723.3,297.7" style="fill:none;fill-rule:evenodd;stroke:#000000;stroke-width:2.0px;stroke-linecap:butt;stroke-linejoin:miter;stroke-opacity:1;stroke-dasharray:6,4"/>
<path class="bond-6 atom-6 atom-7" d="M 723.9,301.0 L 716.4,298.3" style="fill:none;fill-rule:evenodd;stroke:#000000;stroke-width:2.0px;stroke-linecap:butt;stroke-linejoin:miter;stroke-opacity:1"/>
<path class="bond-6 atom-6 atom-7" d="M 716.4,298.3 L 708.9,295.6" style="fill:none;fill-rule:evenodd;stroke:#FF0000;stroke-width:2.0px;stroke-linecap:butt;stroke-linejoin:miter;stroke-opacity:1"/>
<path class="bond-6 atom-6 atom-7" d="M 723.3,297.7 L 716.6,295.3" style="fill:none;fill-rule:evenodd;stroke:#000000;stroke-width:2.0px;stroke-linecap:butt;stroke-linejoin:miter;stroke-opacity:1;stroke-dasharray:6,4"/>
<path class="bond-6 atom-6 atom-7" d="M 716.6,295.3 L 709.8,292.9" style="fill:none;fill-rule:evenodd;stroke:#FF0000;stroke-width:2.0px;stroke-linecap:butt;stroke-linejoin:miter;stroke-opacity:1;stroke-dasharray:6,4"/>
<path class="bond-7 atom-7 atom-8" d="M 702.5,297.2 L 696.7,302.1" style="fill:none;fill-rule:evenodd;stroke:#FF0000;stroke-width:2.0px;stroke-linecap:butt;stroke-linejoin:miter;stroke-opacity:1"/>
<path class="bond-7 atom-7 atom-8" d="M 696.7,302.1 L 690.9,307.0" style="fill:none;fill-rule:evenodd;stroke:#000000;stroke-width:2.0px;stroke-linecap:butt;stroke-linejoin:miter;stroke-opacity:1"/>
<path class="bond-7 atom-7 atom-8" d="M 704.4,299.4 L 699.3,303.8" style="fill:none;fill-rule:evenodd;stroke:#FF0000;stroke-width:2.0px;stroke-linecap:butt;stroke-linejoin:miter;stroke-opacity:1;stroke-dasharray:6,4"/>
<path class="bond-7 atom-7 atom-8" d="M 699.3,303.8 L 694.1,308.2" style="fill:none;fill-rule:evenodd;stroke:#000000;stroke-width:2.0px;stroke-linecap:butt;stroke-linejoin:miter;stroke-opacity:1;stroke-dasharray:6,4"/>
<path class="bond-8 atom-8 atom-9" d="M 689.3,306.5 L 690.8,314.7" style="fill:none;fill-rule:evenodd;stroke:#000000;stroke-width:2.0px;stroke-linecap:butt;stroke-linejoin:miter;stroke-opacity:1"/>
<path class="bond-8 atom-8 atom-9" d="M 690.8,314.7 L 692.3,322.9" style="fill:none;fill-rule:evenodd;stroke:#FF0000;stroke-width:2.0px;stroke-linecap:butt;stroke-linejoin:miter;stroke-opacity:1"/>
<path class="bond-8 atom-8 atom-9" d="M 692.2,305.9 L 693.7,314.2" style="fill:none;fill-rule:evenodd;stroke:#000000;stroke-width:2.0px;stroke-linecap:butt;stroke-linejoin:miter;stroke-opacity:1"/>
<path class="bond-8 atom-8 atom-9" d="M 693.7,314.2 L 695.2,322.4" style="fill:none;fill-rule:evenodd;stroke:#FF0000;stroke-width:2.0px;stroke-linecap:butt;stroke-linejoin:miter;stroke-opacity:1"/>
<path class="bond-9 atom-8 atom-10" d="M 690.9,307.0 L 672.7,300.5" style="fill:none;fill-rule:evenodd;stroke:#000000;stroke-width:2.0px;stroke-linecap:butt;stroke-linejoin:miter;stroke-opacity:1"/>
<path class="bond-10 atom-10 atom-11" d="M 672.7,300.5 L 657.9,313.0" style="fill:none;fill-rule:evenodd;stroke:#000000;stroke-width:2.0px;stroke-linecap:butt;stroke-linejoin:miter;stroke-opacity:1"/>
<path class="bond-10 atom-10 atom-11" d="M 669.5,299.4 L 657.3,309.7" style="fill:none;fill-rule:evenodd;stroke:#000000;stroke-width:2.0px;stroke-linecap:butt;stroke-linejoin:miter;stroke-opacity:1"/>
<path class="bond-11 atom-11 atom-12" d="M 657.9,313.0 L 639.7,306.5" style="fill:none;fill-rule:evenodd;stroke:#000000;stroke-width:2.0px;stroke-linecap:butt;stroke-linejoin:miter;stroke-opacity:1"/>
<path class="bond-12 atom-12 atom-13" d="M 639.7,306.5 L 633.8,311.4" style="fill:none;fill-rule:evenodd;stroke:#000000;stroke-width:2.0px;stroke-linecap:butt;stroke-linejoin:miter;stroke-opacity:1"/>
<path class="bond-12 atom-12 atom-13" d="M 633.8,311.4 L 628.0,316.4" style="fill:none;fill-rule:evenodd;stroke:#FF0000;stroke-width:2.0px;stroke-linecap:butt;stroke-linejoin:miter;stroke-opacity:1"/>
<path class="bond-13 atom-12 atom-14" d="M 639.7,306.5 L 636.2,287.4" style="fill:none;fill-rule:evenodd;stroke:#000000;stroke-width:2.0px;stroke-linecap:butt;stroke-linejoin:miter;stroke-opacity:1"/>
<path class="bond-13 atom-12 atom-14" d="M 642.2,304.3 L 639.3,288.6" style="fill:none;fill-rule:evenodd;stroke:#000000;stroke-width:2.0px;stroke-linecap:butt;stroke-linejoin:miter;stroke-opacity:1"/>
<path class="bond-14 atom-14 atom-15" d="M 636.2,287.4 L 628.6,284.7" style="fill:none;fill-rule:evenodd;stroke:#000000;stroke-width:2.0px;stroke-linecap:butt;stroke-linejoin:miter;stroke-opacity:1"/>
<path class="bond-14 atom-14 atom-15" d="M 628.6,284.7 L 621.1,282.0" style="fill:none;fill-rule:evenodd;stroke:#FF0000;stroke-width:2.0px;stroke-linecap:butt;stroke-linejoin:miter;stroke-opacity:1"/>
<path class="bond-15 atom-14 atom-16" d="M 636.2,287.4 L 651.0,274.9" style="fill:none;fill-rule:evenodd;stroke:#000000;stroke-width:2.0px;stroke-linecap:butt;stroke-linejoin:miter;stroke-opacity:1"/>
<path class="bond-16 atom-16 atom-17" d="M 651.0,274.9 L 649.5,267.1" style="fill:none;fill-rule:evenodd;stroke:#000000;stroke-width:2.0px;stroke-linecap:butt;stroke-linejoin:miter;stroke-opacity:1"/>
<path class="bond-16 atom-16 atom-17" d="M 649.5,267.1 L 648.1,259.3" style="fill:none;fill-rule:evenodd;stroke:#FF0000;stroke-width:2.0px;stroke-linecap:butt;stroke-linejoin:miter;stroke-opacity:1"/>
<path class="bond-17 atom-16 atom-18" d="M 651.0,274.9 L 669.2,281.4" style="fill:none;fill-rule:evenodd;stroke:#000000;stroke-width:2.0px;stroke-linecap:butt;stroke-linejoin:miter;stroke-opacity:1"/>
<path class="bond-17 atom-16 atom-18" d="M 651.6,278.2 L 666.7,283.6" style="fill:none;fill-rule:evenodd;stroke:#000000;stroke-width:2.0px;stroke-linecap:butt;stroke-linejoin:miter;stroke-opacity:1"/>
<path class="bond-18 atom-18 atom-10" d="M 669.2,281.4 L 672.7,300.5" style="fill:none;fill-rule:evenodd;stroke:#000000;stroke-width:2.0px;stroke-linecap:butt;stroke-linejoin:miter;stroke-opacity:1"/>
<path d="M 772.7,282.8 L 771.8,282.5 L 771.0,283.1" style="fill:none;stroke:#000000;stroke-width:2.0px;stroke-linecap:butt;stroke-linejoin:miter;stroke-opacity:1;"/>
<path d="M 724.7,300.4 L 723.9,301.0 L 723.6,300.9" style="fill:none;stroke:#000000;stroke-width:2.0px;stroke-linecap:butt;stroke-linejoin:miter;stroke-opacity:1;"/>
<path d="M 691.2,306.8 L 690.9,307.0 L 690.0,306.7" style="fill:none;stroke:#000000;stroke-width:2.0px;stroke-linecap:butt;stroke-linejoin:miter;stroke-opacity:1;"/>
<path d="M 658.6,312.4 L 657.9,313.0 L 657.0,312.7" style="fill:none;stroke:#000000;stroke-width:2.0px;stroke-linecap:butt;stroke-linejoin:miter;stroke-opacity:1;"/>
<path d="M 668.3,281.1 L 669.2,281.4 L 669.4,282.4" style="fill:none;stroke:#000000;stroke-width:2.0px;stroke-linecap:butt;stroke-linejoin:miter;stroke-opacity:1;"/>
<path class="atom-3" d="M 757.9 314.1 Q 757.9 312.8, 758.6 312.0 Q 759.2 311.3, 760.4 311.3 Q 761.7 311.3, 762.3 312.0 Q 763.0 312.8, 763.0 314.1 Q 763.0 315.4, 762.3 316.2 Q 761.6 316.9, 760.4 316.9 Q 759.2 316.9, 758.6 316.2 Q 757.9 315.4, 757.9 314.1 M 760.4 316.3 Q 761.3 316.3, 761.7 315.8 Q 762.2 315.2, 762.2 314.1 Q 762.2 313.0, 761.7 312.5 Q 761.3 311.9, 760.4 311.9 Q 759.6 311.9, 759.1 312.5 Q 758.7 313.0, 758.7 314.1 Q 758.7 315.2, 759.1 315.8 Q 759.6 316.3, 760.4 316.3 " fill="#FF0000"/>
<path class="atom-3" d="M 763.8 311.4 L 764.6 311.4 L 764.6 313.7 L 767.4 313.7 L 767.4 311.4 L 768.1 311.4 L 768.1 316.9 L 767.4 316.9 L 767.4 314.3 L 764.6 314.3 L 764.6 316.9 L 763.8 316.9 L 763.8 311.4 " fill="#FF0000"/>
<path class="atom-5" d="M 732.7 269.4 Q 732.7 268.1, 733.4 267.4 Q 734.0 266.6, 735.3 266.6 Q 736.5 266.6, 737.1 267.4 Q 737.8 268.1, 737.8 269.4 Q 737.8 270.8, 737.1 271.5 Q 736.5 272.3, 735.3 272.3 Q 734.1 272.3, 733.4 271.5 Q 732.7 270.8, 732.7 269.4 M 735.3 271.7 Q 736.1 271.7, 736.5 271.1 Q 737.0 270.5, 737.0 269.4 Q 737.0 268.4, 736.5 267.8 Q 736.1 267.3, 735.3 267.3 Q 734.4 267.3, 734.0 267.8 Q 733.5 268.3, 733.5 269.4 Q 733.5 270.5, 734.0 271.1 Q 734.4 271.7, 735.3 271.7 " fill="#FF0000"/>
<path class="atom-5" d="M 738.6 266.7 L 739.4 266.7 L 739.4 269.0 L 742.2 269.0 L 742.2 266.7 L 742.9 266.7 L 742.9 272.2 L 742.2 272.2 L 742.2 269.7 L 739.4 269.7 L 739.4 272.2 L 738.6 272.2 L 738.6 266.7 " fill="#FF0000"/>
<path class="atom-7" d="M 703.2 294.5 Q 703.2 293.2, 703.8 292.4 Q 704.5 291.7, 705.7 291.7 Q 706.9 291.7, 707.6 292.4 Q 708.2 293.2, 708.2 294.5 Q 708.2 295.8, 707.6 296.6 Q 706.9 297.3, 705.7 297.3 Q 704.5 297.3, 703.8 296.6 Q 703.2 295.8, 703.2 294.5 M 705.7 296.7 Q 706.5 296.7, 707.0 296.2 Q 707.4 295.6, 707.4 294.5 Q 707.4 293.4, 707.0 292.9 Q 706.5 292.3, 705.7 292.3 Q 704.9 292.3, 704.4 292.9 Q 704.0 293.4, 704.0 294.5 Q 704.0 295.6, 704.4 296.2 Q 704.9 296.7, 705.7 296.7 " fill="#FF0000"/>
<path class="atom-9" d="M 691.9 326.1 Q 691.9 324.8, 692.5 324.1 Q 693.2 323.3, 694.4 323.3 Q 695.6 323.3, 696.3 324.1 Q 696.9 324.8, 696.9 326.1 Q 696.9 327.4, 696.3 328.2 Q 695.6 328.9, 694.4 328.9 Q 693.2 328.9, 692.5 328.2 Q 691.9 327.4, 691.9 326.1 M 694.4 328.3 Q 695.2 328.3, 695.7 327.8 Q 696.1 327.2, 696.1 326.1 Q 696.1 325.0, 695.7 324.5 Q 695.2 323.9, 694.4 323.9 Q 693.6 323.9, 693.1 324.5 Q 692.6 325.0, 692.6 326.1 Q 692.6 327.2, 693.1 327.8 Q 693.6 328.3, 694.4 328.3 " fill="#FF0000"/>
<path class="atom-13" d="M 616.9 316.3 L 617.7 316.3 L 617.7 318.7 L 620.5 318.7 L 620.5 316.3 L 621.2 316.3 L 621.2 321.8 L 620.5 321.8 L 620.5 319.3 L 617.7 319.3 L 617.7 321.8 L 616.9 321.8 L 616.9 316.3 " fill="#FF0000"/>
<path class="atom-13" d="M 622.4 319.0 Q 622.4 317.7, 623.0 317.0 Q 623.7 316.3, 624.9 316.3 Q 626.1 316.3, 626.7 317.0 Q 627.4 317.7, 627.4 319.0 Q 627.4 320.4, 626.7 321.1 Q 626.1 321.9, 624.9 321.9 Q 623.7 321.9, 623.0 321.1 Q 622.4 320.4, 622.4 319.0 M 624.9 321.3 Q 625.7 321.3, 626.2 320.7 Q 626.6 320.1, 626.6 319.0 Q 626.6 318.0, 626.2 317.4 Q 625.7 316.9, 624.9 316.9 Q 624.0 316.9, 623.6 317.4 Q 623.1 318.0, 623.1 319.0 Q 623.1 320.2, 623.6 320.7 Q 624.0 321.3, 624.9 321.3 " fill="#FF0000"/>
<path class="atom-15" d="M 610.0 278.2 L 610.7 278.2 L 610.7 280.5 L 613.6 280.5 L 613.6 278.2 L 614.3 278.2 L 614.3 283.7 L 613.6 283.7 L 613.6 281.1 L 610.7 281.1 L 610.7 283.7 L 610.0 283.7 L 610.0 278.2 " fill="#FF0000"/>
<path class="atom-15" d="M 615.4 280.9 Q 615.4 279.6, 616.1 278.9 Q 616.7 278.1, 617.9 278.1 Q 619.2 278.1, 619.8 278.9 Q 620.5 279.6, 620.5 280.9 Q 620.5 282.2, 619.8 283.0 Q 619.1 283.8, 617.9 283.8 Q 616.7 283.8, 616.1 283.0 Q 615.4 282.3, 615.4 280.9 M 617.9 283.1 Q 618.8 283.1, 619.2 282.6 Q 619.7 282.0, 619.7 280.9 Q 619.7 279.8, 619.2 279.3 Q 618.8 278.7, 617.9 278.7 Q 617.1 278.7, 616.6 279.3 Q 616.2 279.8, 616.2 280.9 Q 616.2 282.0, 616.6 282.6 Q 617.1 283.1, 617.9 283.1 " fill="#FF0000"/>
<path class="atom-17" d="M 645.0 255.8 Q 645.0 254.5, 645.6 253.8 Q 646.3 253.1, 647.5 253.1 Q 648.7 253.1, 649.4 253.8 Q 650.0 254.5, 650.0 255.8 Q 650.0 257.2, 649.4 257.9 Q 648.7 258.7, 647.5 258.7 Q 646.3 258.7, 645.6 257.9 Q 645.0 257.2, 645.0 255.8 M 647.5 258.1 Q 648.3 258.1, 648.8 257.5 Q 649.2 256.9, 649.2 255.8 Q 649.2 254.8, 648.8 254.2 Q 648.3 253.7, 647.5 253.7 Q 646.7 253.7, 646.2 254.2 Q 645.8 254.8, 645.8 255.8 Q 645.8 256.9, 646.2 257.5 Q 646.7 258.1, 647.5 258.1 " fill="#FF0000"/>
<path class="atom-17" d="M 650.9 253.1 L 651.6 253.1 L 651.6 255.4 L 654.4 255.4 L 654.4 253.1 L 655.2 253.1 L 655.2 258.6 L 654.4 258.6 L 654.4 256.1 L 651.6 256.1 L 651.6 258.6 L 650.9 258.6 L 650.9 253.1 " fill="#FF0000"/>
<path class="legend" d="M 699.2 378.6 L 700.8 378.6 L 700.8 390.0 L 699.2 390.0 L 699.2 378.6 " fill="#000000"/>
<path class="bond-0 atom-0 atom-1" d="M 84.7,455.7 L 84.7,464.1" style="fill:none;fill-rule:evenodd;stroke:#FF0000;stroke-width:2.0px;stroke-linecap:butt;stroke-linejoin:miter;stroke-opacity:1"/>
<path class="bond-0 atom-0 atom-1" d="M 84.7,464.1 L 84.7,472.4" style="fill:none;fill-rule:evenodd;stroke:#000000;stroke-width:2.0px;stroke-linecap:butt;stroke-linejoin:miter;stroke-opacity:1"/>
<path class="bond-0 atom-0 atom-1" d="M 81.8,455.7 L 81.8,464.1" style="fill:none;fill-rule:evenodd;stroke:#FF0000;stroke-width:2.0px;stroke-linecap:butt;stroke-linejoin:miter;stroke-opacity:1"/>
<path class="bond-0 atom-0 atom-1" d="M 81.8,464.1 L 81.8,472.4" style="fill:none;fill-rule:evenodd;stroke:#000000;stroke-width:2.0px;stroke-linecap:butt;stroke-linejoin:miter;stroke-opacity:1"/>
<path class="bond-1 atom-1 atom-2" d="M 83.2,471.6 L 66.4,481.3" style="fill:none;fill-rule:evenodd;stroke:#000000;stroke-width:2.0px;stroke-linecap:butt;stroke-linejoin:miter;stroke-opacity:1"/>
<path class="bond-2 atom-2 atom-3" d="M 66.4,481.3 L 66.4,500.6" style="fill:none;fill-rule:evenodd;stroke:#000000;stroke-width:2.0px;stroke-linecap:butt;stroke-linejoin:miter;stroke-opacity:1"/>
<path class="bond-3 atom-3 atom-4" d="M 66.4,500.6 L 83.2,510.3" style="fill:none;fill-rule:evenodd;stroke:#000000;stroke-width:2.0px;stroke-linecap:butt;stroke-linejoin:miter;stroke-opacity:1"/>
<path class="bond-4 atom-4 atom-5" d="M 83.2,510.3 L 83.2,518.3" style="fill:none;fill-rule:evenodd;stroke:#000000;stroke-width:2.0px;stroke-linecap:butt;stroke-linejoin:miter;stroke-opacity:1"/>
<path class="bond-4 atom-4 atom-5" d="M 83.2,518.3 L 83.2,526.3" style="fill:none;fill-rule:evenodd;stroke:#FF0000;stroke-width:2.0px;stroke-linecap:butt;stroke-linejoin:miter;stroke-opacity:1"/>
<path class="bond-5 atom-4 atom-6" d="M 83.2,510.3 L 100.0,500.6" style="fill:none;fill-rule:evenodd;stroke:#000000;stroke-width:2.0px;stroke-linecap:butt;stroke-linejoin:miter;stroke-opacity:1"/>
<path class="bond-6 atom-6 atom-7" d="M 100.0,500.6 L 116.8,510.3" style="fill:none;fill-rule:evenodd;stroke:#000000;stroke-width:2.0px;stroke-linecap:butt;stroke-linejoin:miter;stroke-opacity:1"/>
<path class="bond-6 atom-6 atom-7" d="M 102.9,499.0 L 116.8,507.0" style="fill:none;fill-rule:evenodd;stroke:#000000;stroke-width:2.0px;stroke-linecap:butt;stroke-linejoin:miter;stroke-opacity:1"/>
<path class="bond-7 atom-7 atom-8" d="M 116.8,510.3 L 133.6,500.6" style="fill:none;fill-rule:evenodd;stroke:#000000;stroke-width:2.0px;stroke-linecap:butt;stroke-linejoin:miter;stroke-opacity:1"/>
<path class="bond-8 atom-8 atom-9" d="M 133.6,500.6 L 133.6,481.3" style="fill:none;fill-rule:evenodd;stroke:#000000;stroke-width:2.0px;stroke-linecap:butt;stroke-linejoin:miter;stroke-opacity:1"/>
<path class="bond-8 atom-8 atom-9" d="M 130.7,499.0 L 130.7,482.9" style="fill:none;fill-rule:evenodd;stroke:#000000;stroke-width:2.0px;stroke-linecap:butt;stroke-linejoin:miter;stroke-opacity:1"/>
<path class="bond-9 atom-9 atom-10" d="M 133.6,481.3 L 116.8,471.6" style="fill:none;fill-rule:evenodd;stroke:#000000;stroke-width:2.0px;stroke-linecap:butt;stroke-linejoin:miter;stroke-opacity:1"/>
<path class="bond-10 atom-10 atom-11" d="M 116.8,471.6 L 100.0,481.3" style="fill:none;fill-rule:evenodd;stroke:#000000;stroke-width:2.0px;stroke-linecap:butt;stroke-linejoin:miter;stroke-opacity:1"/>
<path class="bond-10 atom-10 atom-11" d="M 116.8,474.9 L 102.9,482.9" style="fill:none;fill-rule:evenodd;stroke:#000000;stroke-width:2.0px;stroke-linecap:butt;stroke-linejoin:miter;stroke-opacity:1"/>
<path class="bond-11 atom-11 atom-1" d="M 100.0,481.3 L 83.2,471.6" style="fill:none;fill-rule:evenodd;stroke:#000000;stroke-width:2.0px;stroke-linecap:butt;stroke-linejoin:miter;stroke-opacity:1"/>
<path class="bond-12 atom-11 atom-6" d="M 100.0,481.3 L 100.0,500.6" style="fill:none;fill-rule:evenodd;stroke:#000000;stroke-width:2.0px;stroke-linecap:butt;stroke-linejoin:miter;stroke-opacity:1"/>
<path d="M 82.4,472.1 L 83.2,471.6 L 84.1,472.1" style="fill:none;stroke:#000000;stroke-width:2.0px;stroke-linecap:butt;stroke-linejoin:miter;stroke-opacity:1;"/>
<path d="M 67.3,480.8 L 66.4,481.3 L 66.4,482.2" style="fill:none;stroke:#000000;stroke-width:2.0px;stroke-linecap:butt;stroke-linejoin:miter;stroke-opacity:1;"/>
<path d="M 66.4,499.7 L 66.4,500.6 L 67.3,501.1" style="fill:none;stroke:#000000;stroke-width:2.0px;stroke-linecap:butt;stroke-linejoin:miter;stroke-opacity:1;"/>
<path d="M 115.9,509.9 L 116.8,510.3 L 117.6,509.9" style="fill:none;stroke:#000000;stroke-width:2.0px;stroke-linecap:butt;stroke-linejoin:miter;stroke-opacity:1;"/>
<path d="M 132.7,501.1 L 133.6,500.6 L 133.6,499.7" style="fill:none;stroke:#000000;stroke-width:2.0px;stroke-linecap:butt;stroke-linejoin:miter;stroke-opacity:1;"/>
<path d="M 133.6,482.2 L 133.6,481.3 L 132.7,480.8" style="fill:none;stroke:#000000;stroke-width:2.0px;stroke-linecap:butt;stroke-linejoin:miter;stroke-opacity:1;"/>
<path d="M 117.6,472.1 L 116.8,471.6 L 115.9,472.1" style="fill:none;stroke:#000000;stroke-width:2.0px;stroke-linecap:butt;stroke-linejoin:miter;stroke-opacity:1;"/>
<path class="atom-0" d="M 80.7 452.2 Q 80.7 450.9, 81.3 450.2 Q 82.0 449.4, 83.2 449.4 Q 84.4 449.4, 85.1 450.2 Q 85.7 450.9, 85.7 452.2 Q 85.7 453.5, 85.1 454.3 Q 84.4 455.1, 83.2 455.1 Q 82.0 455.1, 81.3 454.3 Q 80.7 453.6, 80.7 452.2 M 83.2 454.4 Q 84.1 454.4, 84.5 453.9 Q 85.0 453.3, 85.0 452.2 Q 85.0 451.1, 84.5 450.6 Q 84.1 450.0, 83.2 450.0 Q 82.4 450.0, 81.9 450.6 Q 81.5 451.1, 81.5 452.2 Q 81.5 453.3, 81.9 453.9 Q 82.4 454.4, 83.2 454.4 " fill="#FF0000"/>
<path class="atom-5" d="M 80.7 529.7 Q 80.7 528.4, 81.3 527.7 Q 82.0 526.9, 83.2 526.9 Q 84.4 526.9, 85.1 527.7 Q 85.7 528.4, 85.7 529.7 Q 85.7 531.1, 85.1 531.8 Q 84.4 532.6, 83.2 532.6 Q 82.0 532.6, 81.3 531.8 Q 80.7 531.1, 80.7 529.7 M 83.2 532.0 Q 84.1 532.0, 84.5 531.4 Q 85.0 530.8, 85.0 529.7 Q 85.0 528.7, 84.5 528.1 Q 84.1 527.6, 83.2 527.6 Q 82.4 527.6, 81.9 528.1 Q 81.5 528.6, 81.5 529.7 Q 81.5 530.8, 81.9 531.4 Q 82.4 532.0, 83.2 532.0 " fill="#FF0000"/>
<path class="atom-5" d="M 86.6 527.0 L 87.3 527.0 L 87.3 529.3 L 90.1 529.3 L 90.1 527.0 L 90.9 527.0 L 90.9 532.5 L 90.1 532.5 L 90.1 530.0 L 87.3 530.0 L 87.3 532.5 L 86.6 532.5 L 86.6 527.0 " fill="#FF0000"/>
<path class="legend" d="M 98.0 588.8 Q 98.0 588.8, 98.7 588.4 Q 99.4 588.0, 100.0 587.3 Q 100.5 586.7, 100.5 585.8 L 100.5 577.7 L 98.3 577.7 L 98.3 576.4 L 102.0 576.4 L 102.0 585.8 Q 102.0 587.1, 101.3 588.0 Q 100.5 589.0, 99.6 589.5 Q 98.6 590.1, 98.6 590.0 L 98.0 588.8 " fill="#000000"/>
</svg>