<svg xmlns="http://www.w3.org/2000/svg" xmlns:rdkit="http://www.rdkit.org/xml" xmlns:xlink="http://www.w3.org/1999/xlink" version="1.1" baseProfile="full" xml:space="preserve" width="800px" height="200px" viewBox="0 0 800 200">
<!-- END OF HEADER -->
<rect style="opacity:1.0;fill:#FFFFFF;stroke:none" width="800.0" height="200.0" x="0.0" y="0.0"> </rect>
<path class="bond-0 atom-0 atom-1" d="M 55.4,26.2 L 55.8,46.8" style="fill:none;fill-rule:evenodd;stroke:#000000;stroke-width:2.0px;stroke-linecap:butt;stroke-linejoin:miter;stroke-opacity:1"/>
<path class="bond-1 atom-1 atom-2" d="M 55.8,46.8 L 63.2,50.8" style="fill:none;fill-rule:evenodd;stroke:#000000;stroke-width:2.0px;stroke-linecap:butt;stroke-linejoin:miter;stroke-opacity:1"/>
<path class="bond-1 atom-1 atom-2" d="M 63.2,50.8 L 70.6,54.9" style="fill:none;fill-rule:evenodd;stroke:#FF0000;stroke-width:2.0px;stroke-linecap:butt;stroke-linejoin:miter;stroke-opacity:1"/>
<path class="bond-2 atom-2 atom-3" d="M 74.0,60.4 L 74.2,68.9" style="fill:none;fill-rule:evenodd;stroke:#FF0000;stroke-width:2.0px;stroke-linecap:butt;stroke-linejoin:miter;stroke-opacity:1"/>
<path class="bond-2 atom-2 atom-3" d="M 74.2,68.9 L 74.4,77.4" style="fill:none;fill-rule:evenodd;stroke:#000000;stroke-width:2.0px;stroke-linecap:butt;stroke-linejoin:miter;stroke-opacity:1"/>
<path class="bond-3 atom-3 atom-4" d="M 74.4,77.4 L 81.8,81.4" style="fill:none;fill-rule:evenodd;stroke:#000000;stroke-width:2.0px;stroke-linecap:butt;stroke-linejoin:miter;stroke-opacity:1"/>
<path class="bond-3 atom-3 atom-4" d="M 81.8,81.4 L 89.2,85.4" style="fill:none;fill-rule:evenodd;stroke:#FF0000;stroke-width:2.0px;stroke-linecap:butt;stroke-linejoin:miter;stroke-opacity:1"/>
<path class="bond-4 atom-4 atom-5" d="M 95.9,85.2 L 103.0,80.9" style="fill:none;fill-rule:evenodd;stroke:#FF0000;stroke-width:2.0px;stroke-linecap:butt;stroke-linejoin:miter;stroke-opacity:1"/>
<path class="bond-4 atom-4 atom-5" d="M 103.0,80.9 L 110.2,76.5" style="fill:none;fill-rule:evenodd;stroke:#000000;stroke-width:2.0px;stroke-linecap:butt;stroke-linejoin:miter;stroke-opacity:1"/>
<path class="bond-5 atom-5 atom-6" d="M 110.2,76.5 L 128.3,86.4" style="fill:none;fill-rule:evenodd;stroke:#000000;stroke-width:2.0px;stroke-linecap:butt;stroke-linejoin:miter;stroke-opacity:1"/>
<path class="bond-5 atom-5 atom-6" d="M 113.2,74.7 L 128.2,82.8" style="fill:none;fill-rule:evenodd;stroke:#000000;stroke-width:2.0px;stroke-linecap:butt;stroke-linejoin:miter;stroke-opacity:1"/>
<path class="bond-6 atom-6 atom-7" d="M 128.3,86.4 L 128.7,107.1" style="fill:none;fill-rule:evenodd;stroke:#000000;stroke-width:2.0px;stroke-linecap:butt;stroke-linejoin:miter;stroke-opacity:1"/>
<path class="bond-7 atom-7 atom-8" d="M 128.7,107.1 L 111.1,117.8" style="fill:none;fill-rule:evenodd;stroke:#000000;stroke-width:2.0px;stroke-linecap:butt;stroke-linejoin:miter;stroke-opacity:1"/>
<path class="bond-7 atom-7 atom-8" d="M 128.8,110.6 L 114.3,119.5" style="fill:none;fill-rule:evenodd;stroke:#000000;stroke-width:2.0px;stroke-linecap:butt;stroke-linejoin:miter;stroke-opacity:1"/>
<path class="bond-8 atom-8 atom-9" d="M 111.1,117.8 L 111.6,138.4" style="fill:none;fill-rule:evenodd;stroke:#000000;stroke-width:2.0px;stroke-linecap:butt;stroke-linejoin:miter;stroke-opacity:1"/>
<path class="bond-9 atom-9 atom-10" d="M 111.6,138.4 L 129.7,148.3" style="fill:none;fill-rule:evenodd;stroke:#000000;stroke-width:2.0px;stroke-linecap:butt;stroke-linejoin:miter;stroke-opacity:1"/>
<path class="bond-9 atom-9 atom-10" d="M 114.7,136.6 L 129.6,144.7" style="fill:none;fill-rule:evenodd;stroke:#000000;stroke-width:2.0px;stroke-linecap:butt;stroke-linejoin:miter;stroke-opacity:1"/>
<path class="bond-10 atom-10 atom-11" d="M 129.7,148.3 L 129.9,156.8" style="fill:none;fill-rule:evenodd;stroke:#000000;stroke-width:2.0px;stroke-linecap:butt;stroke-linejoin:miter;stroke-opacity:1"/>
<path class="bond-10 atom-10 atom-11" d="M 129.9,156.8 L 130.1,165.3" style="fill:none;fill-rule:evenodd;stroke:#FF0000;stroke-width:2.0px;stroke-linecap:butt;stroke-linejoin:miter;stroke-opacity:1"/>
<path class="bond-11 atom-10 atom-12" d="M 129.7,148.3 L 147.3,137.6" style="fill:none;fill-rule:evenodd;stroke:#000000;stroke-width:2.0px;stroke-linecap:butt;stroke-linejoin:miter;stroke-opacity:1"/>
<path class="bond-12 atom-12 atom-13" d="M 147.3,137.6 L 146.9,117.0" style="fill:none;fill-rule:evenodd;stroke:#000000;stroke-width:2.0px;stroke-linecap:butt;stroke-linejoin:miter;stroke-opacity:1"/>
<path class="bond-12 atom-12 atom-13" d="M 144.2,135.9 L 143.8,118.8" style="fill:none;fill-rule:evenodd;stroke:#000000;stroke-width:2.0px;stroke-linecap:butt;stroke-linejoin:miter;stroke-opacity:1"/>
<path class="bond-13 atom-6 atom-14" d="M 128.3,86.4 L 135.4,82.1" style="fill:none;fill-rule:evenodd;stroke:#000000;stroke-width:2.0px;stroke-linecap:butt;stroke-linejoin:miter;stroke-opacity:1"/>
<path class="bond-13 atom-6 atom-14" d="M 135.4,82.1 L 142.5,77.7" style="fill:none;fill-rule:evenodd;stroke:#FF0000;stroke-width:2.0px;stroke-linecap:butt;stroke-linejoin:miter;stroke-opacity:1"/>
<path class="bond-14 atom-14 atom-15" d="M 145.8,72.1 L 145.6,63.6" style="fill:none;fill-rule:evenodd;stroke:#FF0000;stroke-width:2.0px;stroke-linecap:butt;stroke-linejoin:miter;stroke-opacity:1"/>
<path class="bond-14 atom-14 atom-15" d="M 145.6,63.6 L 145.4,55.1" style="fill:none;fill-rule:evenodd;stroke:#000000;stroke-width:2.0px;stroke-linecap:butt;stroke-linejoin:miter;stroke-opacity:1"/>
<path class="bond-15 atom-15 atom-16" d="M 145.4,55.1 L 163.0,44.3" style="fill:none;fill-rule:evenodd;stroke:#000000;stroke-width:2.0px;stroke-linecap:butt;stroke-linejoin:miter;stroke-opacity:1"/>
<path class="bond-15 atom-15 atom-16" d="M 145.3,51.5 L 159.9,42.6" style="fill:none;fill-rule:evenodd;stroke:#000000;stroke-width:2.0px;stroke-linecap:butt;stroke-linejoin:miter;stroke-opacity:1"/>
<path class="bond-16 atom-16 atom-17" d="M 163.0,44.3 L 162.6,23.7" style="fill:none;fill-rule:evenodd;stroke:#000000;stroke-width:2.0px;stroke-linecap:butt;stroke-linejoin:miter;stroke-opacity:1"/>
<path class="bond-17 atom-17 atom-18" d="M 162.6,23.7 L 169.7,19.3" style="fill:none;fill-rule:evenodd;stroke:#000000;stroke-width:2.0px;stroke-linecap:butt;stroke-linejoin:miter;stroke-opacity:1"/>
<path class="bond-17 atom-17 atom-18" d="M 169.7,19.3 L 176.8,15.0" style="fill:none;fill-rule:evenodd;stroke:#FF0000;stroke-width:2.0px;stroke-linecap:butt;stroke-linejoin:miter;stroke-opacity:1"/>
<path class="bond-18 atom-17 atom-19" d="M 162.6,23.7 L 144.5,13.8" style="fill:none;fill-rule:evenodd;stroke:#000000;stroke-width:2.0px;stroke-linecap:butt;stroke-linejoin:miter;stroke-opacity:1"/>
<path class="bond-18 atom-17 atom-19" d="M 159.5,25.5 L 144.5,17.4" style="fill:none;fill-rule:evenodd;stroke:#000000;stroke-width:2.0px;stroke-linecap:butt;stroke-linejoin:miter;stroke-opacity:1"/>
<path class="bond-19 atom-19 atom-20" d="M 144.5,13.8 L 126.8,24.5" style="fill:none;fill-rule:evenodd;stroke:#000000;stroke-width:2.0px;stroke-linecap:butt;stroke-linejoin:miter;stroke-opacity:1"/>
<path class="bond-20 atom-20 atom-21" d="M 126.8,24.5 L 119.5,20.5" style="fill:none;fill-rule:evenodd;stroke:#000000;stroke-width:2.0px;stroke-linecap:butt;stroke-linejoin:miter;stroke-opacity:1"/>
<path class="bond-20 atom-20 atom-21" d="M 119.5,20.5 L 112.1,16.5" style="fill:none;fill-rule:evenodd;stroke:#FF0000;stroke-width:2.0px;stroke-linecap:butt;stroke-linejoin:miter;stroke-opacity:1"/>
<path class="bond-21 atom-20 atom-22" d="M 126.8,24.5 L 127.3,45.2" style="fill:none;fill-rule:evenodd;stroke:#000000;stroke-width:2.0px;stroke-linecap:butt;stroke-linejoin:miter;stroke-opacity:1"/>
<path class="bond-21 atom-20 atom-22" d="M 130.0,26.2 L 130.4,43.3" style="fill:none;fill-rule:evenodd;stroke:#000000;stroke-width:2.0px;stroke-linecap:butt;stroke-linejoin:miter;stroke-opacity:1"/>
<path class="bond-22 atom-22 atom-23" d="M 127.3,45.2 L 109.7,55.9" style="fill:none;fill-rule:evenodd;stroke:#000000;stroke-width:2.0px;stroke-linecap:butt;stroke-linejoin:miter;stroke-opacity:1"/>
<path class="bond-23 atom-23 atom-24" d="M 111.2,55.0 L 103.4,50.7" style="fill:none;fill-rule:evenodd;stroke:#000000;stroke-width:2.0px;stroke-linecap:butt;stroke-linejoin:miter;stroke-opacity:1"/>
<path class="bond-23 atom-23 atom-24" d="M 103.4,50.7 L 95.7,46.5" style="fill:none;fill-rule:evenodd;stroke:#FF0000;stroke-width:2.0px;stroke-linecap:butt;stroke-linejoin:miter;stroke-opacity:1"/>
<path class="bond-23 atom-23 atom-24" d="M 109.7,57.7 L 102.0,53.4" style="fill:none;fill-rule:evenodd;stroke:#000000;stroke-width:2.0px;stroke-linecap:butt;stroke-linejoin:miter;stroke-opacity:1"/>
<path class="bond-23 atom-23 atom-24" d="M 102.0,53.4 L 94.2,49.2" style="fill:none;fill-rule:evenodd;stroke:#FF0000;stroke-width:2.0px;stroke-linecap:butt;stroke-linejoin:miter;stroke-opacity:1"/>
<path class="bond-24 atom-3 atom-25" d="M 74.4,77.4 L 56.8,88.1" style="fill:none;fill-rule:evenodd;stroke:#000000;stroke-width:2.0px;stroke-linecap:butt;stroke-linejoin:miter;stroke-opacity:1"/>
<path class="bond-25 atom-25 atom-26" d="M 56.8,88.1 L 57.0,96.6" style="fill:none;fill-rule:evenodd;stroke:#000000;stroke-width:2.0px;stroke-linecap:butt;stroke-linejoin:miter;stroke-opacity:1"/>
<path class="bond-25 atom-25 atom-26" d="M 57.0,96.6 L 57.2,105.1" style="fill:none;fill-rule:evenodd;stroke:#FF0000;stroke-width:2.0px;stroke-linecap:butt;stroke-linejoin:miter;stroke-opacity:1"/>
<path class="bond-26 atom-25 atom-27" d="M 56.8,88.1 L 38.7,78.2" style="fill:none;fill-rule:evenodd;stroke:#000000;stroke-width:2.0px;stroke-linecap:butt;stroke-linejoin:miter;stroke-opacity:1"/>
<path class="bond-27 atom-27 atom-28" d="M 38.7,78.2 L 31.6,82.5" style="fill:none;fill-rule:evenodd;stroke:#000000;stroke-width:2.0px;stroke-linecap:butt;stroke-linejoin:miter;stroke-opacity:1"/>
<path class="bond-27 atom-27 atom-28" d="M 31.6,82.5 L 24.4,86.9" style="fill:none;fill-rule:evenodd;stroke:#FF0000;stroke-width:2.0px;stroke-linecap:butt;stroke-linejoin:miter;stroke-opacity:1"/>
<path class="bond-28 atom-27 atom-29" d="M 38.7,78.2 L 38.2,57.6" style="fill:none;fill-rule:evenodd;stroke:#000000;stroke-width:2.0px;stroke-linecap:butt;stroke-linejoin:miter;stroke-opacity:1"/>
<path class="bond-29 atom-29 atom-30" d="M 38.2,57.6 L 30.8,53.5" style="fill:none;fill-rule:evenodd;stroke:#000000;stroke-width:2.0px;stroke-linecap:butt;stroke-linejoin:miter;stroke-opacity:1"/>
<path class="bond-29 atom-29 atom-30" d="M 30.8,53.5 L 23.5,49.5" style="fill:none;fill-rule:evenodd;stroke:#FF0000;stroke-width:2.0px;stroke-linecap:butt;stroke-linejoin:miter;stroke-opacity:1"/>
<path class="bond-30 atom-29 atom-1" d="M 38.2,57.6 L 55.8,46.8" style="fill:none;fill-rule:evenodd;stroke:#000000;stroke-width:2.0px;stroke-linecap:butt;stroke-linejoin:miter;stroke-opacity:1"/>
<path class="bond-31 atom-23 atom-5" d="M 109.7,55.9 L 110.2,76.5" style="fill:none;fill-rule:evenodd;stroke:#000000;stroke-width:2.0px;stroke-linecap:butt;stroke-linejoin:miter;stroke-opacity:1"/>
<path class="bond-32 atom-13 atom-7" d="M 146.9,117.0 L 128.7,107.1" style="fill:none;fill-rule:evenodd;stroke:#000000;stroke-width:2.0px;stroke-linecap:butt;stroke-linejoin:miter;stroke-opacity:1"/>
<path class="bond-33 atom-22 atom-15" d="M 127.3,45.2 L 145.4,55.1" style="fill:none;fill-rule:evenodd;stroke:#000000;stroke-width:2.0px;stroke-linecap:butt;stroke-linejoin:miter;stroke-opacity:1"/>
<path d="M 112.0,117.2 L 111.1,117.8 L 111.1,118.8" style="fill:none;stroke:#000000;stroke-width:2.0px;stroke-linecap:butt;stroke-linejoin:miter;stroke-opacity:1;"/>
<path d="M 111.6,137.4 L 111.6,138.4 L 112.5,138.9" style="fill:none;stroke:#000000;stroke-width:2.0px;stroke-linecap:butt;stroke-linejoin:miter;stroke-opacity:1;"/>
<path d="M 146.5,138.1 L 147.3,137.6 L 147.3,136.6" style="fill:none;stroke:#000000;stroke-width:2.0px;stroke-linecap:butt;stroke-linejoin:miter;stroke-opacity:1;"/>
<path d="M 146.9,118.0 L 146.9,117.0 L 146.0,116.5" style="fill:none;stroke:#000000;stroke-width:2.0px;stroke-linecap:butt;stroke-linejoin:miter;stroke-opacity:1;"/>
<path d="M 162.2,44.9 L 163.0,44.3 L 163.0,43.3" style="fill:none;stroke:#000000;stroke-width:2.0px;stroke-linecap:butt;stroke-linejoin:miter;stroke-opacity:1;"/>
<path d="M 145.4,14.3 L 144.5,13.8 L 143.6,14.3" style="fill:none;stroke:#000000;stroke-width:2.0px;stroke-linecap:butt;stroke-linejoin:miter;stroke-opacity:1;"/>
<path d="M 110.6,55.4 L 109.7,55.9 L 109.7,56.9" style="fill:none;stroke:#000000;stroke-width:2.0px;stroke-linecap:butt;stroke-linejoin:miter;stroke-opacity:1;"/>
<path class="atom-2" d="M 71.3 56.7 Q 71.3 55.3, 72.0 54.5 Q 72.6 53.8, 73.9 53.8 Q 75.2 53.8, 75.9 54.5 Q 76.6 55.3, 76.6 56.7 Q 76.6 58.2, 75.9 59.0 Q 75.2 59.8, 73.9 59.8 Q 72.7 59.8, 72.0 59.0 Q 71.3 58.2, 71.3 56.7 M 73.9 59.1 Q 74.8 59.1, 75.3 58.5 Q 75.8 57.9, 75.8 56.7 Q 75.8 55.6, 75.3 55.0 Q 74.8 54.4, 73.9 54.4 Q 73.1 54.4, 72.6 55.0 Q 72.1 55.6, 72.1 56.7 Q 72.1 57.9, 72.6 58.5 Q 73.1 59.1, 73.9 59.1 " fill="#FF0000"/>
<path class="atom-4" d="M 89.8 87.3 Q 89.8 85.9, 90.5 85.1 Q 91.2 84.3, 92.5 84.3 Q 93.8 84.3, 94.5 85.1 Q 95.2 85.9, 95.2 87.3 Q 95.2 88.7, 94.5 89.5 Q 93.8 90.3, 92.5 90.3 Q 91.2 90.3, 90.5 89.5 Q 89.8 88.7, 89.8 87.3 M 92.5 89.6 Q 93.4 89.6, 93.9 89.0 Q 94.4 88.4, 94.4 87.3 Q 94.4 86.1, 93.9 85.5 Q 93.4 85.0, 92.5 85.0 Q 91.6 85.0, 91.2 85.5 Q 90.7 86.1, 90.7 87.3 Q 90.7 88.4, 91.2 89.0 Q 91.6 89.6, 92.5 89.6 " fill="#FF0000"/>
<path class="atom-11" d="M 127.5 169.0 Q 127.5 167.6, 128.2 166.8 Q 128.9 166.0, 130.2 166.0 Q 131.5 166.0, 132.2 166.8 Q 132.9 167.6, 132.9 169.0 Q 132.9 170.4, 132.2 171.2 Q 131.5 172.0, 130.2 172.0 Q 128.9 172.0, 128.2 171.2 Q 127.5 170.4, 127.5 169.0 M 130.2 171.3 Q 131.1 171.3, 131.6 170.7 Q 132.0 170.1, 132.0 169.0 Q 132.0 167.8, 131.6 167.2 Q 131.1 166.7, 130.2 166.7 Q 129.3 166.7, 128.8 167.2 Q 128.3 167.8, 128.3 169.0 Q 128.3 170.2, 128.8 170.7 Q 129.3 171.3, 130.2 171.3 " fill="#FF0000"/>
<path class="atom-11" d="M 133.8 166.1 L 134.6 166.1 L 134.6 168.5 L 137.6 168.5 L 137.6 166.1 L 138.4 166.1 L 138.4 171.9 L 137.6 171.9 L 137.6 169.2 L 134.6 169.2 L 134.6 171.9 L 133.8 171.9 L 133.8 166.1 " fill="#FF0000"/>
<path class="atom-14" d="M 143.2 75.7 Q 143.2 74.3, 143.9 73.5 Q 144.6 72.7, 145.9 72.7 Q 147.2 72.7, 147.9 73.5 Q 148.6 74.3, 148.6 75.7 Q 148.6 77.1, 147.9 77.9 Q 147.2 78.7, 145.9 78.7 Q 144.6 78.7, 143.9 77.9 Q 143.2 77.1, 143.2 75.7 M 145.9 78.1 Q 146.8 78.1, 147.3 77.5 Q 147.8 76.9, 147.8 75.7 Q 147.8 74.6, 147.3 74.0 Q 146.8 73.4, 145.9 73.4 Q 145.0 73.4, 144.5 74.0 Q 144.0 74.5, 144.0 75.7 Q 144.0 76.9, 144.5 77.5 Q 145.0 78.1, 145.9 78.1 " fill="#FF0000"/>
<path class="atom-18" d="M 177.5 13.0 Q 177.5 11.6, 178.2 10.8 Q 178.9 10.0, 180.2 10.0 Q 181.5 10.0, 182.2 10.8 Q 182.9 11.6, 182.9 13.0 Q 182.9 14.4, 182.2 15.2 Q 181.5 16.0, 180.2 16.0 Q 178.9 16.0, 178.2 15.2 Q 177.5 14.4, 177.5 13.0 M 180.2 15.3 Q 181.1 15.3, 181.6 14.7 Q 182.1 14.1, 182.1 13.0 Q 182.1 11.8, 181.6 11.2 Q 181.1 10.7, 180.2 10.7 Q 179.3 10.7, 178.8 11.2 Q 178.3 11.8, 178.3 13.0 Q 178.3 14.2, 178.8 14.7 Q 179.3 15.3, 180.2 15.3 " fill="#FF0000"/>
<path class="atom-18" d="M 183.8 10.1 L 184.6 10.1 L 184.6 12.6 L 187.6 12.6 L 187.6 10.1 L 188.4 10.1 L 188.4 15.9 L 187.6 15.9 L 187.6 13.2 L 184.6 13.2 L 184.6 15.9 L 183.8 15.9 L 183.8 10.1 " fill="#FF0000"/>
<path class="atom-21" d="M 100.3 11.7 L 101.1 11.7 L 101.1 14.2 L 104.0 14.2 L 104.0 11.7 L 104.8 11.7 L 104.8 17.6 L 104.0 17.6 L 104.0 14.9 L 101.1 14.9 L 101.1 17.6 L 100.3 17.6 L 100.3 11.7 " fill="#FF0000"/>
<path class="atom-21" d="M 106.0 14.6 Q 106.0 13.2, 106.7 12.4 Q 107.4 11.7, 108.7 11.7 Q 110.0 11.7, 110.7 12.4 Q 111.4 13.2, 111.4 14.6 Q 111.4 16.1, 110.7 16.9 Q 110.0 17.7, 108.7 17.7 Q 107.4 17.7, 106.7 16.9 Q 106.0 16.1, 106.0 14.6 M 108.7 17.0 Q 109.6 17.0, 110.1 16.4 Q 110.6 15.8, 110.6 14.6 Q 110.6 13.5, 110.1 12.9 Q 109.6 12.3, 108.7 12.3 Q 107.8 12.3, 107.3 12.9 Q 106.9 13.5, 106.9 14.6 Q 106.9 15.8, 107.3 16.4 Q 107.8 17.0, 108.7 17.0 " fill="#FF0000"/>
<path class="atom-24" d="M 88.9 46.0 Q 88.9 44.6, 89.6 43.8 Q 90.3 43.0, 91.6 43.0 Q 92.9 43.0, 93.6 43.8 Q 94.3 44.6, 94.3 46.0 Q 94.3 47.4, 93.6 48.2 Q 92.8 49.0, 91.6 49.0 Q 90.3 49.0, 89.6 48.2 Q 88.9 47.4, 88.9 46.0 M 91.6 48.4 Q 92.5 48.4, 92.9 47.8 Q 93.4 47.2, 93.4 46.0 Q 93.4 44.9, 92.9 44.3 Q 92.5 43.7, 91.6 43.7 Q 90.7 43.7, 90.2 44.3 Q 89.7 44.8, 89.7 46.0 Q 89.7 47.2, 90.2 47.8 Q 90.7 48.4, 91.6 48.4 " fill="#FF0000"/>
<path class="atom-26" d="M 54.6 108.7 Q 54.6 107.3, 55.3 106.5 Q 56.0 105.8, 57.3 105.8 Q 58.6 105.8, 59.3 106.5 Q 60.0 107.3, 60.0 108.7 Q 60.0 110.2, 59.3 111.0 Q 58.6 111.8, 57.3 111.8 Q 56.0 111.8, 55.3 111.0 Q 54.6 110.2, 54.6 108.7 M 57.3 111.1 Q 58.2 111.1, 58.6 110.5 Q 59.1 109.9, 59.1 108.7 Q 59.1 107.6, 58.6 107.0 Q 58.2 106.4, 57.3 106.4 Q 56.4 106.4, 55.9 107.0 Q 55.4 107.6, 55.4 108.7 Q 55.4 109.9, 55.9 110.5 Q 56.4 111.1, 57.3 111.1 " fill="#FF0000"/>
<path class="atom-26" d="M 60.9 105.8 L 61.7 105.8 L 61.7 108.3 L 64.6 108.3 L 64.6 105.8 L 65.4 105.8 L 65.4 111.7 L 64.6 111.7 L 64.6 109.0 L 61.7 109.0 L 61.7 111.7 L 60.9 111.7 L 60.9 105.8 " fill="#FF0000"/>
<path class="atom-28" d="M 12.6 86.0 L 13.4 86.0 L 13.4 88.5 L 16.4 88.5 L 16.4 86.0 L 17.2 86.0 L 17.2 91.9 L 16.4 91.9 L 16.4 89.2 L 13.4 89.2 L 13.4 91.9 L 12.6 91.9 L 12.6 86.0 " fill="#FF0000"/>
<path class="atom-28" d="M 18.4 88.9 Q 18.4 87.5, 19.1 86.7 Q 19.8 86.0, 21.1 86.0 Q 22.4 86.0, 23.0 86.7 Q 23.7 87.5, 23.7 88.9 Q 23.7 90.4, 23.0 91.2 Q 22.3 92.0, 21.1 92.0 Q 19.8 92.0, 19.1 91.2 Q 18.4 90.4, 18.4 88.9 M 21.1 91.3 Q 21.9 91.3, 22.4 90.7 Q 22.9 90.1, 22.9 88.9 Q 22.9 87.8, 22.4 87.2 Q 21.9 86.6, 21.1 86.6 Q 20.2 86.6, 19.7 87.2 Q 19.2 87.8, 19.2 88.9 Q 19.2 90.1, 19.7 90.7 Q 20.2 91.3, 21.1 91.3 " fill="#FF0000"/>
<path class="atom-30" d="M 11.6 44.8 L 12.4 44.8 L 12.4 47.2 L 15.4 47.2 L 15.4 44.8 L 16.2 44.8 L 16.2 50.6 L 15.4 50.6 L 15.4 47.9 L 12.4 47.9 L 12.4 50.6 L 11.6 50.6 L 11.6 44.8 " fill="#FF0000"/>
<path class="atom-30" d="M 17.4 47.7 Q 17.4 46.3, 18.1 45.5 Q 18.8 44.7, 20.1 44.7 Q 21.4 44.7, 22.1 45.5 Q 22.8 46.3, 22.8 47.7 Q 22.8 49.1, 22.1 49.9 Q 21.4 50.7, 20.1 50.7 Q 18.8 50.7, 18.1 49.9 Q 17.4 49.1, 17.4 47.7 M 20.1 50.0 Q 21.0 50.0, 21.5 49.4 Q 22.0 48.8, 22.0 47.7 Q 22.0 46.5, 21.5 45.9 Q 21.0 45.4, 20.1 45.4 Q 19.2 45.4, 18.7 45.9 Q 18.2 46.5, 18.2 47.7 Q 18.2 48.8, 18.7 49.4 Q 19.2 50.0, 20.1 50.0 " fill="#FF0000"/>
<path class="legend" d="M 103.4 190.0 L 102.2 186.7 L 97.8 186.7 L 96.6 190.0 L 95.1 190.0 L 99.0 178.7 L 100.9 178.7 L 104.9 190.0 L 103.4 190.0 M 98.2 185.4 L 101.8 185.4 L 100.0 180.3 L 98.2 185.4 " fill="#000000"/>
<path class="bond-0 atom-0 atom-1" d="M 365.7,78.4 L 349.2,90.7" style="fill:none;fill-rule:evenodd;stroke:#000000;stroke-width:2.0px;stroke-linecap:butt;stroke-linejoin:miter;stroke-opacity:1"/>
<path class="bond-1 atom-1 atom-2" d="M 349.2,90.7 L 350.2,99.2" style="fill:none;fill-rule:evenodd;stroke:#000000;stroke-width:2.0px;stroke-linecap:butt;stroke-linejoin:miter;stroke-opacity:1"/>
<path class="bond-1 atom-1 atom-2" d="M 350.2,99.2 L 351.2,107.6" style="fill:none;fill-rule:evenodd;stroke:#FF0000;stroke-width:2.0px;stroke-linecap:butt;stroke-linejoin:miter;stroke-opacity:1"/>
<path class="bond-2 atom-1 atom-3" d="M 349.2,90.7 L 330.2,82.6" style="fill:none;fill-rule:evenodd;stroke:#000000;stroke-width:2.0px;stroke-linecap:butt;stroke-linejoin:miter;stroke-opacity:1"/>
<path class="bond-3 atom-3 atom-4" d="M 330.2,82.6 L 313.7,95.0" style="fill:none;fill-rule:evenodd;stroke:#000000;stroke-width:2.0px;stroke-linecap:butt;stroke-linejoin:miter;stroke-opacity:1"/>
<path class="bond-4 atom-4 atom-5" d="M 313.7,95.0 L 294.7,86.9" style="fill:none;fill-rule:evenodd;stroke:#000000;stroke-width:2.0px;stroke-linecap:butt;stroke-linejoin:miter;stroke-opacity:1"/>
<path class="bond-5 atom-5 atom-6" d="M 294.7,86.9 L 278.2,99.3" style="fill:none;fill-rule:evenodd;stroke:#000000;stroke-width:2.0px;stroke-linecap:butt;stroke-linejoin:miter;stroke-opacity:1"/>
<path class="bond-6 atom-6 atom-7" d="M 278.2,99.3 L 259.2,91.2" style="fill:none;fill-rule:evenodd;stroke:#000000;stroke-width:2.0px;stroke-linecap:butt;stroke-linejoin:miter;stroke-opacity:1"/>
<path class="bond-7 atom-7 atom-8" d="M 260.9,91.9 L 259.8,83.0" style="fill:none;fill-rule:evenodd;stroke:#000000;stroke-width:2.0px;stroke-linecap:butt;stroke-linejoin:miter;stroke-opacity:1"/>
<path class="bond-7 atom-7 atom-8" d="M 259.8,83.0 L 258.8,74.2" style="fill:none;fill-rule:evenodd;stroke:#FF0000;stroke-width:2.0px;stroke-linecap:butt;stroke-linejoin:miter;stroke-opacity:1"/>
<path class="bond-7 atom-7 atom-8" d="M 257.8,92.2 L 256.8,83.4" style="fill:none;fill-rule:evenodd;stroke:#000000;stroke-width:2.0px;stroke-linecap:butt;stroke-linejoin:miter;stroke-opacity:1"/>
<path class="bond-7 atom-7 atom-8" d="M 256.8,83.4 L 255.7,74.6" style="fill:none;fill-rule:evenodd;stroke:#FF0000;stroke-width:2.0px;stroke-linecap:butt;stroke-linejoin:miter;stroke-opacity:1"/>
<path class="bond-8 atom-7 atom-9" d="M 259.2,91.2 L 252.7,96.1" style="fill:none;fill-rule:evenodd;stroke:#000000;stroke-width:2.0px;stroke-linecap:butt;stroke-linejoin:miter;stroke-opacity:1"/>
<path class="bond-8 atom-7 atom-9" d="M 252.7,96.1 L 246.1,101.0" style="fill:none;fill-rule:evenodd;stroke:#FF0000;stroke-width:2.0px;stroke-linecap:butt;stroke-linejoin:miter;stroke-opacity:1"/>
<path d="M 331.2,83.0 L 330.2,82.6 L 329.4,83.2" style="fill:none;stroke:#000000;stroke-width:2.0px;stroke-linecap:butt;stroke-linejoin:miter;stroke-opacity:1;"/>
<path d="M 314.5,94.4 L 313.7,95.0 L 312.8,94.6" style="fill:none;stroke:#000000;stroke-width:2.0px;stroke-linecap:butt;stroke-linejoin:miter;stroke-opacity:1;"/>
<path d="M 295.7,87.3 L 294.7,86.9 L 293.9,87.5" style="fill:none;stroke:#000000;stroke-width:2.0px;stroke-linecap:butt;stroke-linejoin:miter;stroke-opacity:1;"/>
<path d="M 279.1,98.7 L 278.2,99.3 L 277.3,98.9" style="fill:none;stroke:#000000;stroke-width:2.0px;stroke-linecap:butt;stroke-linejoin:miter;stroke-opacity:1;"/>
<path d="M 260.2,91.6 L 259.2,91.2 L 258.9,91.4" style="fill:none;stroke:#000000;stroke-width:2.0px;stroke-linecap:butt;stroke-linejoin:miter;stroke-opacity:1;"/>
<path class="atom-2" d="M 349.0 111.2 Q 349.0 109.8, 349.7 109.1 Q 350.4 108.3, 351.7 108.3 Q 353.0 108.3, 353.7 109.1 Q 354.4 109.8, 354.4 111.2 Q 354.4 112.7, 353.7 113.5 Q 353.0 114.3, 351.7 114.3 Q 350.4 114.3, 349.7 113.5 Q 349.0 112.7, 349.0 111.2 M 351.7 113.6 Q 352.6 113.6, 353.0 113.0 Q 353.5 112.4, 353.5 111.2 Q 353.5 110.1, 353.0 109.5 Q 352.6 108.9, 351.7 108.9 Q 350.8 108.9, 350.3 109.5 Q 349.8 110.1, 349.8 111.2 Q 349.8 112.4, 350.3 113.0 Q 350.8 113.6, 351.7 113.6 " fill="#FF0000"/>
<path class="atom-2" d="M 355.3 108.3 L 356.1 108.3 L 356.1 110.8 L 359.0 110.8 L 359.0 108.3 L 359.8 108.3 L 359.8 114.2 L 359.0 114.2 L 359.0 111.5 L 356.1 111.5 L 356.1 114.2 L 355.3 114.2 L 355.3 108.3 " fill="#FF0000"/>
<path class="atom-8" d="M 254.1 70.7 Q 254.1 69.3, 254.8 68.5 Q 255.5 67.7, 256.8 67.7 Q 258.1 67.7, 258.8 68.5 Q 259.5 69.3, 259.5 70.7 Q 259.5 72.1, 258.8 72.9 Q 258.1 73.7, 256.8 73.7 Q 255.5 73.7, 254.8 72.9 Q 254.1 72.1, 254.1 70.7 M 256.8 73.1 Q 257.7 73.1, 258.2 72.5 Q 258.6 71.9, 258.6 70.7 Q 258.6 69.5, 258.2 69.0 Q 257.7 68.4, 256.8 68.4 Q 255.9 68.4, 255.4 69.0 Q 254.9 69.5, 254.9 70.7 Q 254.9 71.9, 255.4 72.5 Q 255.9 73.1, 256.8 73.1 " fill="#FF0000"/>
<path class="atom-9" d="M 234.3 100.7 L 235.1 100.7 L 235.1 103.1 L 238.1 103.1 L 238.1 100.7 L 238.9 100.7 L 238.9 106.5 L 238.1 106.5 L 238.1 103.8 L 235.1 103.8 L 235.1 106.5 L 234.3 106.5 L 234.3 100.7 " fill="#FF0000"/>
<path class="atom-9" d="M 240.1 103.6 Q 240.1 102.2, 240.7 101.4 Q 241.4 100.6, 242.7 100.6 Q 244.0 100.6, 244.7 101.4 Q 245.4 102.2, 245.4 103.6 Q 245.4 105.0, 244.7 105.8 Q 244.0 106.6, 242.7 106.6 Q 241.4 106.6, 240.7 105.8 Q 240.1 105.0, 240.1 103.6 M 242.7 105.9 Q 243.6 105.9, 244.1 105.3 Q 244.6 104.7, 244.6 103.6 Q 244.6 102.4, 244.1 101.8 Q 243.6 101.3, 242.7 101.3 Q 241.8 101.3, 241.4 101.8 Q 240.9 102.4, 240.9 103.6 Q 240.9 104.7, 241.4 105.3 Q 241.8 105.9, 242.7 105.9 " fill="#FF0000"/>
<path class="legend" d="M 301.7 184.0 Q 302.7 184.4, 303.3 185.0 Q 303.8 185.7, 303.8 186.7 Q 303.8 188.2, 302.8 189.1 Q 301.8 190.0, 300.0 190.0 L 296.2 190.0 L 296.2 178.7 L 299.5 178.7 Q 301.4 178.7, 302.4 179.5 Q 303.4 180.2, 303.4 181.7 Q 303.4 183.4, 301.7 184.0 M 297.7 180.0 L 297.7 183.5 L 299.5 183.5 Q 300.6 183.5, 301.2 183.1 Q 301.8 182.6, 301.8 181.7 Q 301.8 180.0, 299.5 180.0 L 297.7 180.0 M 300.0 188.7 Q 301.1 188.7, 301.7 188.2 Q 302.2 187.7, 302.2 186.7 Q 302.2 185.7, 301.6 185.3 Q 301.0 184.8, 299.7 184.8 L 297.7 184.8 L 297.7 188.7 L 300.0 188.7 " fill="#000000"/>
<path class="bond-0 atom-0 atom-1" d="M 569.3,94.1 L 554.5,79.7" style="fill:none;fill-rule:evenodd;stroke:#000000;stroke-width:2.0px;stroke-linecap:butt;stroke-linejoin:miter;stroke-opacity:1"/>
<path class="bond-1 atom-1 atom-2" d="M 554.5,79.7 L 534.6,85.3" style="fill:none;fill-rule:evenodd;stroke:#000000;stroke-width:2.0px;stroke-linecap:butt;stroke-linejoin:miter;stroke-opacity:1"/>
<path class="bond-2 atom-2 atom-3" d="M 534.6,85.3 L 519.9,70.8" style="fill:none;fill-rule:evenodd;stroke:#000000;stroke-width:2.0px;stroke-linecap:butt;stroke-linejoin:miter;stroke-opacity:1"/>
<path class="bond-3 atom-3 atom-4" d="M 519.9,70.8 L 500.0,76.4" style="fill:none;fill-rule:evenodd;stroke:#000000;stroke-width:2.0px;stroke-linecap:butt;stroke-linejoin:miter;stroke-opacity:1"/>
<path class="bond-4 atom-4 atom-5" d="M 500.0,76.4 L 505.6,96.3" style="fill:none;fill-rule:evenodd;stroke:#000000;stroke-width:2.0px;stroke-linecap:butt;stroke-linejoin:miter;stroke-opacity:1"/>
<path class="bond-5 atom-4 atom-6" d="M 500.0,76.4 L 494.4,56.5" style="fill:none;fill-rule:evenodd;stroke:#000000;stroke-width:2.0px;stroke-linecap:butt;stroke-linejoin:miter;stroke-opacity:1"/>
<path class="bond-6 atom-6 atom-7" d="M 494.4,56.5 L 474.4,51.4" style="fill:none;fill-rule:evenodd;stroke:#000000;stroke-width:2.0px;stroke-linecap:butt;stroke-linejoin:miter;stroke-opacity:1"/>
<path class="bond-7 atom-4 atom-8" d="M 500.0,76.4 L 480.1,82.0" style="fill:none;fill-rule:evenodd;stroke:#000000;stroke-width:2.0px;stroke-linecap:butt;stroke-linejoin:miter;stroke-opacity:1"/>
<path class="bond-8 atom-8 atom-9" d="M 480.1,82.0 L 465.4,67.5" style="fill:none;fill-rule:evenodd;stroke:#000000;stroke-width:2.0px;stroke-linecap:butt;stroke-linejoin:miter;stroke-opacity:1"/>
<path class="bond-9 atom-9 atom-10" d="M 465.4,67.5 L 445.5,73.1" style="fill:none;fill-rule:evenodd;stroke:#000000;stroke-width:2.0px;stroke-linecap:butt;stroke-linejoin:miter;stroke-opacity:1"/>
<path class="bond-10 atom-10 atom-11" d="M 445.5,73.1 L 430.7,58.7" style="fill:none;fill-rule:evenodd;stroke:#000000;stroke-width:2.0px;stroke-linecap:butt;stroke-linejoin:miter;stroke-opacity:1"/>
<path class="bond-11 atom-8 atom-12" d="M 480.1,82.0 L 475.0,102.0" style="fill:none;fill-rule:evenodd;stroke:#000000;stroke-width:2.0px;stroke-linecap:butt;stroke-linejoin:miter;stroke-opacity:1"/>
<path class="bond-12 atom-12 atom-13" d="M 475.0,102.0 L 495.0,107.1" style="fill:none;fill-rule:evenodd;stroke:#000000;stroke-width:2.0px;stroke-linecap:butt;stroke-linejoin:miter;stroke-opacity:1"/>
<path class="bond-13 atom-12 atom-14" d="M 475.0,102.0 L 455.0,96.9" style="fill:none;fill-rule:evenodd;stroke:#000000;stroke-width:2.0px;stroke-linecap:butt;stroke-linejoin:miter;stroke-opacity:1"/>
<path class="bond-14 atom-12 atom-15" d="M 475.0,102.0 L 469.9,122.0" style="fill:none;fill-rule:evenodd;stroke:#000000;stroke-width:2.0px;stroke-linecap:butt;stroke-linejoin:miter;stroke-opacity:1"/>
<path class="bond-15 atom-15 atom-16" d="M 469.9,122.0 L 461.7,124.3" style="fill:none;fill-rule:evenodd;stroke:#000000;stroke-width:2.0px;stroke-linecap:butt;stroke-linejoin:miter;stroke-opacity:1"/>
<path class="bond-15 atom-15 atom-16" d="M 461.7,124.3 L 453.4,126.6" style="fill:none;fill-rule:evenodd;stroke:#FF0000;stroke-width:2.0px;stroke-linecap:butt;stroke-linejoin:miter;stroke-opacity:1"/>
<path d="M 555.2,80.4 L 554.5,79.7 L 553.5,80.0" style="fill:none;stroke:#000000;stroke-width:2.0px;stroke-linecap:butt;stroke-linejoin:miter;stroke-opacity:1;"/>
<path d="M 535.6,85.0 L 534.6,85.3 L 533.9,84.5" style="fill:none;stroke:#000000;stroke-width:2.0px;stroke-linecap:butt;stroke-linejoin:miter;stroke-opacity:1;"/>
<path d="M 520.6,71.5 L 519.9,70.8 L 518.9,71.1" style="fill:none;stroke:#000000;stroke-width:2.0px;stroke-linecap:butt;stroke-linejoin:miter;stroke-opacity:1;"/>
<path d="M 494.7,57.5 L 494.4,56.5 L 493.4,56.3" style="fill:none;stroke:#000000;stroke-width:2.0px;stroke-linecap:butt;stroke-linejoin:miter;stroke-opacity:1;"/>
<path d="M 466.1,68.3 L 465.4,67.5 L 464.4,67.8" style="fill:none;stroke:#000000;stroke-width:2.0px;stroke-linecap:butt;stroke-linejoin:miter;stroke-opacity:1;"/>
<path d="M 446.5,72.8 L 445.5,73.1 L 444.8,72.4" style="fill:none;stroke:#000000;stroke-width:2.0px;stroke-linecap:butt;stroke-linejoin:miter;stroke-opacity:1;"/>
<path d="M 470.2,121.0 L 469.9,122.0 L 469.5,122.1" style="fill:none;stroke:#000000;stroke-width:2.0px;stroke-linecap:butt;stroke-linejoin:miter;stroke-opacity:1;"/>
<path class="atom-16" d="M 441.6 124.6 L 442.4 124.6 L 442.4 127.1 L 445.4 127.1 L 445.4 124.6 L 446.2 124.6 L 446.2 130.5 L 445.4 130.5 L 445.4 127.8 L 442.4 127.8 L 442.4 130.5 L 441.6 130.5 L 441.6 124.6 " fill="#FF0000"/>
<path class="atom-16" d="M 447.4 127.6 Q 447.4 126.2, 448.0 125.4 Q 448.7 124.6, 450.0 124.6 Q 451.3 124.6, 452.0 125.4 Q 452.7 126.2, 452.7 127.6 Q 452.7 129.0, 452.0 129.8 Q 451.3 130.6, 450.0 130.6 Q 448.7 130.6, 448.0 129.8 Q 447.4 129.0, 447.4 127.6 M 450.0 129.9 Q 450.9 129.9, 451.4 129.3 Q 451.9 128.7, 451.9 127.6 Q 451.9 126.4, 451.4 125.8 Q 450.9 125.2, 450.0 125.2 Q 449.1 125.2, 448.7 125.8 Q 448.2 126.4, 448.2 127.6 Q 448.2 128.7, 448.7 129.3 Q 449.1 129.9, 450.0 129.9 " fill="#FF0000"/>
<path class="legend" d="M 495.6 184.2 Q 495.6 181.4, 496.9 179.9 Q 498.3 178.4, 500.8 178.4 Q 503.1 178.4, 504.4 180.0 L 503.3 180.9 Q 502.4 179.7, 500.8 179.7 Q 499.1 179.7, 498.2 180.9 Q 497.3 182.0, 497.3 184.2 Q 497.3 186.4, 498.2 187.6 Q 499.1 188.7, 501.0 188.7 Q 502.2 188.7, 503.7 188.0 L 504.1 189.2 Q 503.5 189.6, 502.6 189.8 Q 501.7 190.0, 500.7 190.0 Q 498.3 190.0, 496.9 188.5 Q 495.6 187.0, 495.6 184.2 " fill="#000000"/>
</svg>