<svg xmlns="http://www.w3.org/2000/svg" xmlns:rdkit="http://www.rdkit.org/xml" xmlns:xlink="http://www.w3.org/1999/xlink" version="1.1" baseProfile="full" xml:space="preserve" width="800px" height="200px" viewBox="0 0 800 200">
<!-- END OF HEADER -->
<rect style="opacity:1.0;fill:#FFFFFF;stroke:none" width="800.0" height="200.0" x="0.0" y="0.0"> </rect>
<path class="bond-0 atom-0 atom-1" d="M 71.1,76.4 L 85.5,87.7" style="fill:none;fill-rule:evenodd;stroke:#000000;stroke-width:2.0px;stroke-linecap:butt;stroke-linejoin:miter;stroke-opacity:1"/>
<path class="bond-0 atom-0 atom-1" d="M 69.5,78.4 L 83.9,89.8" style="fill:none;fill-rule:evenodd;stroke:#000000;stroke-width:2.0px;stroke-linecap:butt;stroke-linejoin:miter;stroke-opacity:1"/>
<path class="bond-1 atom-1 atom-2" d="M 84.1,88.2 L 81.6,105.6" style="fill:none;fill-rule:evenodd;stroke:#000000;stroke-width:2.0px;stroke-linecap:butt;stroke-linejoin:miter;stroke-opacity:1"/>
<path class="bond-2 atom-1 atom-3" d="M 84.1,88.2 L 100.4,81.7" style="fill:none;fill-rule:evenodd;stroke:#000000;stroke-width:2.0px;stroke-linecap:butt;stroke-linejoin:miter;stroke-opacity:1"/>
<path class="bond-3 atom-3 atom-4" d="M 100.4,81.7 L 114.2,92.6" style="fill:none;fill-rule:evenodd;stroke:#000000;stroke-width:2.0px;stroke-linecap:butt;stroke-linejoin:miter;stroke-opacity:1"/>
<path class="bond-4 atom-4 atom-5" d="M 114.2,92.6 L 130.5,86.0" style="fill:none;fill-rule:evenodd;stroke:#000000;stroke-width:2.0px;stroke-linecap:butt;stroke-linejoin:miter;stroke-opacity:1"/>
<path d="M 84.0,89.1 L 84.1,88.2 L 84.9,87.9" style="fill:none;stroke:#000000;stroke-width:2.0px;stroke-linecap:butt;stroke-linejoin:miter;stroke-opacity:1;"/>
<path d="M 99.6,82.0 L 100.4,81.7 L 101.1,82.3" style="fill:none;stroke:#000000;stroke-width:2.0px;stroke-linecap:butt;stroke-linejoin:miter;stroke-opacity:1;"/>
<path d="M 113.5,92.0 L 114.2,92.6 L 115.0,92.2" style="fill:none;stroke:#000000;stroke-width:2.0px;stroke-linecap:butt;stroke-linejoin:miter;stroke-opacity:1;"/>
<path class="legend" d="M 103.4 190.0 L 102.2 186.7 L 97.8 186.7 L 96.6 190.0 L 95.1 190.0 L 99.0 178.7 L 100.9 178.7 L 104.9 190.0 L 103.4 190.0 M 98.2 185.4 L 101.8 185.4 L 100.0 180.3 L 98.2 185.4 " fill="#000000"/>
<path class="bond-0 atom-0 atom-1" d="M 210.0,102.5 L 226.5,96.4" style="fill:none;fill-rule:evenodd;stroke:#000000;stroke-width:2.0px;stroke-linecap:butt;stroke-linejoin:miter;stroke-opacity:1"/>
<path class="bond-1 atom-1 atom-2" d="M 226.5,96.4 L 240.0,107.6" style="fill:none;fill-rule:evenodd;stroke:#000000;stroke-width:2.0px;stroke-linecap:butt;stroke-linejoin:miter;stroke-opacity:1"/>
<path class="bond-2 atom-2 atom-3" d="M 240.0,107.6 L 256.5,101.5" style="fill:none;fill-rule:evenodd;stroke:#000000;stroke-width:2.0px;stroke-linecap:butt;stroke-linejoin:miter;stroke-opacity:1"/>
<path class="bond-3 atom-3 atom-4" d="M 256.5,101.5 L 270.0,112.8" style="fill:none;fill-rule:evenodd;stroke:#000000;stroke-width:2.0px;stroke-linecap:butt;stroke-linejoin:miter;stroke-opacity:1"/>
<path class="bond-4 atom-4 atom-5" d="M 270.0,112.8 L 286.5,106.7" style="fill:none;fill-rule:evenodd;stroke:#000000;stroke-width:2.0px;stroke-linecap:butt;stroke-linejoin:miter;stroke-opacity:1"/>
<path class="bond-5 atom-5 atom-6" d="M 286.5,106.7 L 300.0,117.9" style="fill:none;fill-rule:evenodd;stroke:#000000;stroke-width:2.0px;stroke-linecap:butt;stroke-linejoin:miter;stroke-opacity:1"/>
<path class="bond-6 atom-5 atom-7" d="M 286.5,106.7 L 289.5,89.4" style="fill:none;fill-rule:evenodd;stroke:#000000;stroke-width:2.0px;stroke-linecap:butt;stroke-linejoin:miter;stroke-opacity:1"/>
<path class="bond-7 atom-7 atom-8" d="M 289.5,89.4 L 305.9,83.3" style="fill:none;fill-rule:evenodd;stroke:#000000;stroke-width:2.0px;stroke-linecap:butt;stroke-linejoin:miter;stroke-opacity:1"/>
<path class="bond-8 atom-8 atom-9" d="M 305.9,83.3 L 308.9,66.0" style="fill:none;fill-rule:evenodd;stroke:#000000;stroke-width:2.0px;stroke-linecap:butt;stroke-linejoin:miter;stroke-opacity:1"/>
<path class="bond-9 atom-9 atom-10" d="M 308.9,66.0 L 325.4,59.9" style="fill:none;fill-rule:evenodd;stroke:#000000;stroke-width:2.0px;stroke-linecap:butt;stroke-linejoin:miter;stroke-opacity:1"/>
<path class="bond-10 atom-10 atom-11" d="M 325.4,59.9 L 328.4,42.6" style="fill:none;fill-rule:evenodd;stroke:#000000;stroke-width:2.0px;stroke-linecap:butt;stroke-linejoin:miter;stroke-opacity:1"/>
<path class="bond-11 atom-11 atom-12" d="M 328.4,42.6 L 344.9,36.5" style="fill:none;fill-rule:evenodd;stroke:#000000;stroke-width:2.0px;stroke-linecap:butt;stroke-linejoin:miter;stroke-opacity:1"/>
<path class="bond-12 atom-10 atom-13" d="M 325.4,59.9 L 338.9,71.1" style="fill:none;fill-rule:evenodd;stroke:#000000;stroke-width:2.0px;stroke-linecap:butt;stroke-linejoin:miter;stroke-opacity:1"/>
<path class="bond-13 atom-13 atom-14" d="M 338.9,71.1 L 355.4,65.0" style="fill:none;fill-rule:evenodd;stroke:#000000;stroke-width:2.0px;stroke-linecap:butt;stroke-linejoin:miter;stroke-opacity:1"/>
<path class="bond-14 atom-14 atom-15" d="M 355.4,65.0 L 368.9,76.3" style="fill:none;fill-rule:evenodd;stroke:#000000;stroke-width:2.0px;stroke-linecap:butt;stroke-linejoin:miter;stroke-opacity:1"/>
<path class="bond-15 atom-13 atom-16" d="M 338.9,71.1 L 335.9,88.4" style="fill:none;fill-rule:evenodd;stroke:#000000;stroke-width:2.0px;stroke-linecap:butt;stroke-linejoin:miter;stroke-opacity:1"/>
<path class="bond-16 atom-16 atom-17" d="M 335.9,88.4 L 349.5,99.7" style="fill:none;fill-rule:evenodd;stroke:#000000;stroke-width:2.0px;stroke-linecap:butt;stroke-linejoin:miter;stroke-opacity:1"/>
<path class="bond-17 atom-17 atom-18" d="M 349.5,99.7 L 346.5,117.0" style="fill:none;fill-rule:evenodd;stroke:#000000;stroke-width:2.0px;stroke-linecap:butt;stroke-linejoin:miter;stroke-opacity:1"/>
<path class="bond-17 atom-17 atom-18" d="M 346.6,100.7 L 343.9,116.5" style="fill:none;fill-rule:evenodd;stroke:#000000;stroke-width:2.0px;stroke-linecap:butt;stroke-linejoin:miter;stroke-opacity:1"/>
<path class="bond-18 atom-18 atom-19" d="M 346.5,117.0 L 360.0,128.2" style="fill:none;fill-rule:evenodd;stroke:#000000;stroke-width:2.0px;stroke-linecap:butt;stroke-linejoin:miter;stroke-opacity:1"/>
<path class="bond-19 atom-19 atom-20" d="M 360.0,128.2 L 357.0,145.5" style="fill:none;fill-rule:evenodd;stroke:#000000;stroke-width:2.0px;stroke-linecap:butt;stroke-linejoin:miter;stroke-opacity:1"/>
<path class="bond-20 atom-19 atom-21" d="M 360.0,128.2 L 376.5,122.1" style="fill:none;fill-rule:evenodd;stroke:#000000;stroke-width:2.0px;stroke-linecap:butt;stroke-linejoin:miter;stroke-opacity:1"/>
<path class="bond-21 atom-21 atom-22" d="M 376.5,122.1 L 390.0,133.4" style="fill:none;fill-rule:evenodd;stroke:#000000;stroke-width:2.0px;stroke-linecap:butt;stroke-linejoin:miter;stroke-opacity:1"/>
<path d="M 225.7,96.7 L 226.5,96.4 L 227.2,97.0" style="fill:none;stroke:#000000;stroke-width:2.0px;stroke-linecap:butt;stroke-linejoin:miter;stroke-opacity:1;"/>
<path d="M 239.3,107.1 L 240.0,107.6 L 240.8,107.3" style="fill:none;stroke:#000000;stroke-width:2.0px;stroke-linecap:butt;stroke-linejoin:miter;stroke-opacity:1;"/>
<path d="M 255.7,101.8 L 256.5,101.5 L 257.2,102.1" style="fill:none;stroke:#000000;stroke-width:2.0px;stroke-linecap:butt;stroke-linejoin:miter;stroke-opacity:1;"/>
<path d="M 269.3,112.2 L 270.0,112.8 L 270.8,112.5" style="fill:none;stroke:#000000;stroke-width:2.0px;stroke-linecap:butt;stroke-linejoin:miter;stroke-opacity:1;"/>
<path d="M 289.3,90.2 L 289.5,89.4 L 290.3,89.1" style="fill:none;stroke:#000000;stroke-width:2.0px;stroke-linecap:butt;stroke-linejoin:miter;stroke-opacity:1;"/>
<path d="M 305.1,83.6 L 305.9,83.3 L 306.1,82.4" style="fill:none;stroke:#000000;stroke-width:2.0px;stroke-linecap:butt;stroke-linejoin:miter;stroke-opacity:1;"/>
<path d="M 308.8,66.8 L 308.9,66.0 L 309.7,65.7" style="fill:none;stroke:#000000;stroke-width:2.0px;stroke-linecap:butt;stroke-linejoin:miter;stroke-opacity:1;"/>
<path d="M 328.2,43.4 L 328.4,42.6 L 329.2,42.2" style="fill:none;stroke:#000000;stroke-width:2.0px;stroke-linecap:butt;stroke-linejoin:miter;stroke-opacity:1;"/>
<path d="M 354.6,65.3 L 355.4,65.0 L 356.1,65.6" style="fill:none;stroke:#000000;stroke-width:2.0px;stroke-linecap:butt;stroke-linejoin:miter;stroke-opacity:1;"/>
<path d="M 336.1,87.6 L 335.9,88.4 L 336.6,89.0" style="fill:none;stroke:#000000;stroke-width:2.0px;stroke-linecap:butt;stroke-linejoin:miter;stroke-opacity:1;"/>
<path d="M 348.8,99.1 L 349.5,99.7 L 349.3,100.5" style="fill:none;stroke:#000000;stroke-width:2.0px;stroke-linecap:butt;stroke-linejoin:miter;stroke-opacity:1;"/>
<path d="M 346.6,116.1 L 346.5,117.0 L 347.2,117.5" style="fill:none;stroke:#000000;stroke-width:2.0px;stroke-linecap:butt;stroke-linejoin:miter;stroke-opacity:1;"/>
<path d="M 375.7,122.4 L 376.5,122.1 L 377.2,122.7" style="fill:none;stroke:#000000;stroke-width:2.0px;stroke-linecap:butt;stroke-linejoin:miter;stroke-opacity:1;"/>
<path class="legend" d="M 301.7 184.0 Q 302.7 184.4, 303.3 185.0 Q 303.8 185.7, 303.8 186.7 Q 303.8 188.2, 302.8 189.1 Q 301.8 190.0, 300.0 190.0 L 296.2 190.0 L 296.2 178.7 L 299.5 178.7 Q 301.4 178.7, 302.4 179.5 Q 303.4 180.2, 303.4 181.7 Q 303.4 183.4, 301.7 184.0 M 297.7 180.0 L 297.7 183.5 L 299.5 183.5 Q 300.6 183.5, 301.2 183.1 Q 301.8 182.6, 301.8 181.7 Q 301.8 180.0, 299.5 180.0 L 297.7 180.0 M 300.0 188.7 Q 301.1 188.7, 301.7 188.2 Q 302.2 187.7, 302.2 186.7 Q 302.2 185.7, 301.6 185.3 Q 301.0 184.8, 299.7 184.8 L 297.7 184.8 L 297.7 188.7 L 300.0 188.7 " fill="#000000"/>
<path class="bond-0 atom-0 atom-1" d="M 510.6,135.5 L 507.5,128.8" style="fill:none;fill-rule:evenodd;stroke:#FF0000;stroke-width:2.0px;stroke-linecap:butt;stroke-linejoin:miter;stroke-opacity:1"/>
<path class="bond-0 atom-0 atom-1" d="M 507.5,128.8 L 504.4,122.0" style="fill:none;fill-rule:evenodd;stroke:#000000;stroke-width:2.0px;stroke-linecap:butt;stroke-linejoin:miter;stroke-opacity:1"/>
<path class="bond-0 atom-0 atom-1" d="M 513.0,134.5 L 509.9,127.7" style="fill:none;fill-rule:evenodd;stroke:#FF0000;stroke-width:2.0px;stroke-linecap:butt;stroke-linejoin:miter;stroke-opacity:1"/>
<path class="bond-0 atom-0 atom-1" d="M 509.9,127.7 L 506.8,120.9" style="fill:none;fill-rule:evenodd;stroke:#000000;stroke-width:2.0px;stroke-linecap:butt;stroke-linejoin:miter;stroke-opacity:1"/>
<path class="bond-1 atom-1 atom-2" d="M 505.9,122.1 L 498.6,121.4" style="fill:none;fill-rule:evenodd;stroke:#000000;stroke-width:2.0px;stroke-linecap:butt;stroke-linejoin:miter;stroke-opacity:1"/>
<path class="bond-1 atom-1 atom-2" d="M 498.6,121.4 L 491.3,120.7" style="fill:none;fill-rule:evenodd;stroke:#FF0000;stroke-width:2.0px;stroke-linecap:butt;stroke-linejoin:miter;stroke-opacity:1"/>
<path class="bond-2 atom-2 atom-3" d="M 487.0,117.3 L 484.1,110.9" style="fill:none;fill-rule:evenodd;stroke:#FF0000;stroke-width:2.0px;stroke-linecap:butt;stroke-linejoin:miter;stroke-opacity:1"/>
<path class="bond-2 atom-2 atom-3" d="M 484.1,110.9 L 481.2,104.4" style="fill:none;fill-rule:evenodd;stroke:#000000;stroke-width:2.0px;stroke-linecap:butt;stroke-linejoin:miter;stroke-opacity:1"/>
<path class="bond-3 atom-3 atom-4" d="M 481.2,104.4 L 463.7,102.7" style="fill:none;fill-rule:evenodd;stroke:#000000;stroke-width:2.0px;stroke-linecap:butt;stroke-linejoin:miter;stroke-opacity:1"/>
<path class="bond-3 atom-3 atom-4" d="M 479.9,101.6 L 465.4,100.3" style="fill:none;fill-rule:evenodd;stroke:#000000;stroke-width:2.0px;stroke-linecap:butt;stroke-linejoin:miter;stroke-opacity:1"/>
<path class="bond-4 atom-4 atom-5" d="M 463.7,102.7 L 459.7,108.3" style="fill:none;fill-rule:evenodd;stroke:#000000;stroke-width:2.0px;stroke-linecap:butt;stroke-linejoin:miter;stroke-opacity:1"/>
<path class="bond-4 atom-4 atom-5" d="M 459.7,108.3 L 455.7,113.9" style="fill:none;fill-rule:evenodd;stroke:#FF0000;stroke-width:2.0px;stroke-linecap:butt;stroke-linejoin:miter;stroke-opacity:1"/>
<path class="bond-5 atom-4 atom-6" d="M 463.7,102.7 L 456.4,86.7" style="fill:none;fill-rule:evenodd;stroke:#000000;stroke-width:2.0px;stroke-linecap:butt;stroke-linejoin:miter;stroke-opacity:1"/>
<path class="bond-6 atom-6 atom-7" d="M 456.4,86.7 L 449.1,86.0" style="fill:none;fill-rule:evenodd;stroke:#000000;stroke-width:2.0px;stroke-linecap:butt;stroke-linejoin:miter;stroke-opacity:1"/>
<path class="bond-6 atom-6 atom-7" d="M 449.1,86.0 L 441.8,85.3" style="fill:none;fill-rule:evenodd;stroke:#FF0000;stroke-width:2.0px;stroke-linecap:butt;stroke-linejoin:miter;stroke-opacity:1"/>
<path class="bond-7 atom-6 atom-8" d="M 456.4,86.7 L 466.6,72.4" style="fill:none;fill-rule:evenodd;stroke:#000000;stroke-width:2.0px;stroke-linecap:butt;stroke-linejoin:miter;stroke-opacity:1"/>
<path class="bond-7 atom-6 atom-8" d="M 459.4,87.0 L 467.9,75.2" style="fill:none;fill-rule:evenodd;stroke:#000000;stroke-width:2.0px;stroke-linecap:butt;stroke-linejoin:miter;stroke-opacity:1"/>
<path class="bond-8 atom-8 atom-9" d="M 466.6,72.4 L 484.1,74.1" style="fill:none;fill-rule:evenodd;stroke:#000000;stroke-width:2.0px;stroke-linecap:butt;stroke-linejoin:miter;stroke-opacity:1"/>
<path class="bond-9 atom-9 atom-10" d="M 484.1,74.1 L 494.3,59.8" style="fill:none;fill-rule:evenodd;stroke:#000000;stroke-width:2.0px;stroke-linecap:butt;stroke-linejoin:miter;stroke-opacity:1"/>
<path class="bond-10 atom-10 atom-11" d="M 495.8,60.0 L 492.7,53.2" style="fill:none;fill-rule:evenodd;stroke:#000000;stroke-width:2.0px;stroke-linecap:butt;stroke-linejoin:miter;stroke-opacity:1"/>
<path class="bond-10 atom-10 atom-11" d="M 492.7,53.2 L 489.7,46.5" style="fill:none;fill-rule:evenodd;stroke:#FF0000;stroke-width:2.0px;stroke-linecap:butt;stroke-linejoin:miter;stroke-opacity:1"/>
<path class="bond-10 atom-10 atom-11" d="M 493.4,61.1 L 490.3,54.3" style="fill:none;fill-rule:evenodd;stroke:#000000;stroke-width:2.0px;stroke-linecap:butt;stroke-linejoin:miter;stroke-opacity:1"/>
<path class="bond-10 atom-10 atom-11" d="M 490.3,54.3 L 487.3,47.5" style="fill:none;fill-rule:evenodd;stroke:#FF0000;stroke-width:2.0px;stroke-linecap:butt;stroke-linejoin:miter;stroke-opacity:1"/>
<path class="bond-11 atom-10 atom-12" d="M 494.3,59.8 L 501.6,60.5" style="fill:none;fill-rule:evenodd;stroke:#000000;stroke-width:2.0px;stroke-linecap:butt;stroke-linejoin:miter;stroke-opacity:1"/>
<path class="bond-11 atom-10 atom-12" d="M 501.6,60.5 L 508.9,61.2" style="fill:none;fill-rule:evenodd;stroke:#FF0000;stroke-width:2.0px;stroke-linecap:butt;stroke-linejoin:miter;stroke-opacity:1"/>
<path class="bond-12 atom-12 atom-13" d="M 513.2,64.7 L 516.2,71.1" style="fill:none;fill-rule:evenodd;stroke:#FF0000;stroke-width:2.0px;stroke-linecap:butt;stroke-linejoin:miter;stroke-opacity:1"/>
<path class="bond-12 atom-12 atom-13" d="M 516.2,71.1 L 519.1,77.5" style="fill:none;fill-rule:evenodd;stroke:#000000;stroke-width:2.0px;stroke-linecap:butt;stroke-linejoin:miter;stroke-opacity:1"/>
<path class="bond-13 atom-13 atom-14" d="M 519.1,77.5 L 536.6,79.2" style="fill:none;fill-rule:evenodd;stroke:#000000;stroke-width:2.0px;stroke-linecap:butt;stroke-linejoin:miter;stroke-opacity:1"/>
<path class="bond-14 atom-14 atom-15" d="M 536.6,79.2 L 540.5,73.6" style="fill:none;fill-rule:evenodd;stroke:#000000;stroke-width:2.0px;stroke-linecap:butt;stroke-linejoin:miter;stroke-opacity:1"/>
<path class="bond-14 atom-14 atom-15" d="M 540.5,73.6 L 544.5,68.1" style="fill:none;fill-rule:evenodd;stroke:#FF0000;stroke-width:2.0px;stroke-linecap:butt;stroke-linejoin:miter;stroke-opacity:1"/>
<path class="bond-15 atom-14 atom-16" d="M 536.6,79.2 L 543.9,95.2" style="fill:none;fill-rule:evenodd;stroke:#000000;stroke-width:2.0px;stroke-linecap:butt;stroke-linejoin:miter;stroke-opacity:1"/>
<path class="bond-15 atom-14 atom-16" d="M 534.8,81.7 L 540.8,94.9" style="fill:none;fill-rule:evenodd;stroke:#000000;stroke-width:2.0px;stroke-linecap:butt;stroke-linejoin:miter;stroke-opacity:1"/>
<path class="bond-16 atom-16 atom-17" d="M 543.9,95.2 L 551.2,95.9" style="fill:none;fill-rule:evenodd;stroke:#000000;stroke-width:2.0px;stroke-linecap:butt;stroke-linejoin:miter;stroke-opacity:1"/>
<path class="bond-16 atom-16 atom-17" d="M 551.2,95.9 L 558.5,96.6" style="fill:none;fill-rule:evenodd;stroke:#FF0000;stroke-width:2.0px;stroke-linecap:butt;stroke-linejoin:miter;stroke-opacity:1"/>
<path class="bond-17 atom-16 atom-18" d="M 543.9,95.2 L 533.6,109.5" style="fill:none;fill-rule:evenodd;stroke:#000000;stroke-width:2.0px;stroke-linecap:butt;stroke-linejoin:miter;stroke-opacity:1"/>
<path class="bond-18 atom-18 atom-19" d="M 533.6,109.5 L 516.2,107.8" style="fill:none;fill-rule:evenodd;stroke:#000000;stroke-width:2.0px;stroke-linecap:butt;stroke-linejoin:miter;stroke-opacity:1"/>
<path class="bond-18 atom-18 atom-19" d="M 532.4,106.7 L 517.9,105.3" style="fill:none;fill-rule:evenodd;stroke:#000000;stroke-width:2.0px;stroke-linecap:butt;stroke-linejoin:miter;stroke-opacity:1"/>
<path class="bond-19 atom-19 atom-20" d="M 516.2,107.8 L 508.9,91.8" style="fill:none;fill-rule:evenodd;stroke:#000000;stroke-width:2.0px;stroke-linecap:butt;stroke-linejoin:miter;stroke-opacity:1"/>
<path class="bond-20 atom-20 atom-21" d="M 508.9,91.8 L 491.4,90.1" style="fill:none;fill-rule:evenodd;stroke:#000000;stroke-width:2.0px;stroke-linecap:butt;stroke-linejoin:miter;stroke-opacity:1"/>
<path class="bond-21 atom-19 atom-1" d="M 516.2,107.8 L 505.9,122.1" style="fill:none;fill-rule:evenodd;stroke:#000000;stroke-width:2.0px;stroke-linecap:butt;stroke-linejoin:miter;stroke-opacity:1"/>
<path class="bond-22 atom-21 atom-3" d="M 491.4,90.1 L 481.2,104.4" style="fill:none;fill-rule:evenodd;stroke:#000000;stroke-width:2.0px;stroke-linecap:butt;stroke-linejoin:miter;stroke-opacity:1"/>
<path class="bond-23 atom-21 atom-9" d="M 491.4,90.1 L 484.1,74.1" style="fill:none;fill-rule:evenodd;stroke:#000000;stroke-width:2.0px;stroke-linecap:butt;stroke-linejoin:miter;stroke-opacity:1"/>
<path class="bond-23 atom-21 atom-9" d="M 488.3,89.8 L 482.3,76.6" style="fill:none;fill-rule:evenodd;stroke:#000000;stroke-width:2.0px;stroke-linecap:butt;stroke-linejoin:miter;stroke-opacity:1"/>
<path class="bond-24 atom-20 atom-13" d="M 508.9,91.8 L 519.1,77.5" style="fill:none;fill-rule:evenodd;stroke:#000000;stroke-width:2.0px;stroke-linecap:butt;stroke-linejoin:miter;stroke-opacity:1"/>
<path class="bond-24 atom-20 atom-13" d="M 507.6,89.0 L 516.0,77.2" style="fill:none;fill-rule:evenodd;stroke:#000000;stroke-width:2.0px;stroke-linecap:butt;stroke-linejoin:miter;stroke-opacity:1"/>
<path d="M 505.6,122.1 L 505.9,122.1 L 506.5,121.4" style="fill:none;stroke:#000000;stroke-width:2.0px;stroke-linecap:butt;stroke-linejoin:miter;stroke-opacity:1;"/>
<path d="M 466.1,73.1 L 466.6,72.4 L 467.5,72.5" style="fill:none;stroke:#000000;stroke-width:2.0px;stroke-linecap:butt;stroke-linejoin:miter;stroke-opacity:1;"/>
<path d="M 493.8,60.5 L 494.3,59.8 L 494.7,59.9" style="fill:none;stroke:#000000;stroke-width:2.0px;stroke-linecap:butt;stroke-linejoin:miter;stroke-opacity:1;"/>
<path d="M 534.2,108.8 L 533.6,109.5 L 532.8,109.4" style="fill:none;stroke:#000000;stroke-width:2.0px;stroke-linecap:butt;stroke-linejoin:miter;stroke-opacity:1;"/>
<path class="atom-0" d="M 510.9 138.1 Q 510.9 136.9, 511.5 136.2 Q 512.1 135.6, 513.2 135.6 Q 514.3 135.6, 514.9 136.2 Q 515.5 136.9, 515.5 138.1 Q 515.5 139.3, 514.9 140.0 Q 514.3 140.7, 513.2 140.7 Q 512.1 140.7, 511.5 140.0 Q 510.9 139.3, 510.9 138.1 M 513.2 140.1 Q 514.0 140.1, 514.4 139.6 Q 514.8 139.1, 514.8 138.1 Q 514.8 137.1, 514.4 136.6 Q 514.0 136.1, 513.2 136.1 Q 512.5 136.1, 512.0 136.6 Q 511.6 137.1, 511.6 138.1 Q 511.6 139.1, 512.0 139.6 Q 512.5 140.1, 513.2 140.1 " fill="#FF0000"/>
<path class="atom-2" d="M 486.2 120.4 Q 486.2 119.2, 486.8 118.6 Q 487.3 117.9, 488.4 117.9 Q 489.6 117.9, 490.1 118.6 Q 490.7 119.2, 490.7 120.4 Q 490.7 121.6, 490.1 122.3 Q 489.5 123.0, 488.4 123.0 Q 487.4 123.0, 486.8 122.3 Q 486.2 121.6, 486.2 120.4 M 488.4 122.4 Q 489.2 122.4, 489.6 121.9 Q 490.0 121.4, 490.0 120.4 Q 490.0 119.4, 489.6 119.0 Q 489.2 118.5, 488.4 118.5 Q 487.7 118.5, 487.3 119.0 Q 486.9 119.4, 486.9 120.4 Q 486.9 121.4, 487.3 121.9 Q 487.7 122.4, 488.4 122.4 " fill="#FF0000"/>
<path class="atom-5" d="M 446.3 114.6 L 446.9 114.6 L 446.9 116.7 L 449.5 116.7 L 449.5 114.6 L 450.2 114.6 L 450.2 119.5 L 449.5 119.5 L 449.5 117.2 L 446.9 117.2 L 446.9 119.5 L 446.3 119.5 L 446.3 114.6 " fill="#FF0000"/>
<path class="atom-5" d="M 451.2 117.0 Q 451.2 115.9, 451.8 115.2 Q 452.4 114.5, 453.5 114.5 Q 454.6 114.5, 455.2 115.2 Q 455.7 115.9, 455.7 117.0 Q 455.7 118.3, 455.2 118.9 Q 454.6 119.6, 453.5 119.6 Q 452.4 119.6, 451.8 118.9 Q 451.2 118.3, 451.2 117.0 M 453.5 119.1 Q 454.2 119.1, 454.6 118.6 Q 455.0 118.0, 455.0 117.0 Q 455.0 116.1, 454.6 115.6 Q 454.2 115.1, 453.5 115.1 Q 452.7 115.1, 452.3 115.6 Q 451.9 116.1, 451.9 117.0 Q 451.9 118.1, 452.3 118.6 Q 452.7 119.1, 453.5 119.1 " fill="#FF0000"/>
<path class="atom-7" d="M 431.7 82.6 L 432.4 82.6 L 432.4 84.7 L 434.9 84.7 L 434.9 82.6 L 435.6 82.6 L 435.6 87.6 L 434.9 87.6 L 434.9 85.3 L 432.4 85.3 L 432.4 87.6 L 431.7 87.6 L 431.7 82.6 " fill="#FF0000"/>
<path class="atom-7" d="M 436.6 85.1 Q 436.6 83.9, 437.2 83.2 Q 437.8 82.5, 438.9 82.5 Q 440.0 82.5, 440.6 83.2 Q 441.2 83.9, 441.2 85.1 Q 441.2 86.3, 440.6 87.0 Q 440.0 87.6, 438.9 87.6 Q 437.8 87.6, 437.2 87.0 Q 436.6 86.3, 436.6 85.1 M 438.9 87.1 Q 439.7 87.1, 440.1 86.6 Q 440.5 86.1, 440.5 85.1 Q 440.5 84.1, 440.1 83.6 Q 439.7 83.1, 438.9 83.1 Q 438.1 83.1, 437.7 83.6 Q 437.3 84.1, 437.3 85.1 Q 437.3 86.1, 437.7 86.6 Q 438.1 87.1, 438.9 87.1 " fill="#FF0000"/>
<path class="atom-11" d="M 484.7 43.8 Q 484.7 42.6, 485.3 42.0 Q 485.9 41.3, 487.0 41.3 Q 488.1 41.3, 488.7 42.0 Q 489.3 42.6, 489.3 43.8 Q 489.3 45.0, 488.7 45.7 Q 488.1 46.4, 487.0 46.4 Q 485.9 46.4, 485.3 45.7 Q 484.7 45.1, 484.7 43.8 M 487.0 45.9 Q 487.8 45.9, 488.2 45.4 Q 488.6 44.8, 488.6 43.8 Q 488.6 42.9, 488.2 42.4 Q 487.8 41.9, 487.0 41.9 Q 486.3 41.9, 485.9 42.4 Q 485.4 42.9, 485.4 43.8 Q 485.4 44.8, 485.9 45.4 Q 486.3 45.9, 487.0 45.9 " fill="#FF0000"/>
<path class="atom-12" d="M 509.5 61.5 Q 509.5 60.3, 510.1 59.7 Q 510.7 59.0, 511.8 59.0 Q 512.9 59.0, 513.5 59.7 Q 514.1 60.3, 514.1 61.5 Q 514.1 62.7, 513.5 63.4 Q 512.9 64.1, 511.8 64.1 Q 510.7 64.1, 510.1 63.4 Q 509.5 62.7, 509.5 61.5 M 511.8 63.5 Q 512.6 63.5, 513.0 63.0 Q 513.4 62.5, 513.4 61.5 Q 513.4 60.5, 513.0 60.1 Q 512.6 59.6, 511.8 59.6 Q 511.0 59.6, 510.6 60.0 Q 510.2 60.5, 510.2 61.5 Q 510.2 62.5, 510.6 63.0 Q 511.0 63.5, 511.8 63.5 " fill="#FF0000"/>
<path class="atom-15" d="M 544.5 64.9 Q 544.5 63.7, 545.1 63.0 Q 545.7 62.4, 546.8 62.4 Q 547.9 62.4, 548.5 63.0 Q 549.1 63.7, 549.1 64.9 Q 549.1 66.1, 548.5 66.8 Q 547.9 67.5, 546.8 67.5 Q 545.7 67.5, 545.1 66.8 Q 544.5 66.1, 544.5 64.9 M 546.8 66.9 Q 547.5 66.9, 547.9 66.4 Q 548.4 65.9, 548.4 64.9 Q 548.4 63.9, 547.9 63.4 Q 547.5 62.9, 546.8 62.9 Q 546.0 62.9, 545.6 63.4 Q 545.2 63.9, 545.2 64.9 Q 545.2 65.9, 545.6 66.4 Q 546.0 66.9, 546.8 66.9 " fill="#FF0000"/>
<path class="atom-15" d="M 549.8 62.4 L 550.5 62.4 L 550.5 64.5 L 553.1 64.5 L 553.1 62.4 L 553.7 62.4 L 553.7 67.4 L 553.1 67.4 L 553.1 65.1 L 550.5 65.1 L 550.5 67.4 L 549.8 67.4 L 549.8 62.4 " fill="#FF0000"/>
<path class="atom-17" d="M 559.1 96.9 Q 559.1 95.7, 559.7 95.0 Q 560.2 94.4, 561.3 94.4 Q 562.4 94.4, 563.0 95.0 Q 563.6 95.7, 563.6 96.9 Q 563.6 98.1, 563.0 98.8 Q 562.4 99.5, 561.3 99.5 Q 560.2 99.5, 559.7 98.8 Q 559.1 98.1, 559.1 96.9 M 561.3 98.9 Q 562.1 98.9, 562.5 98.4 Q 562.9 97.9, 562.9 96.9 Q 562.9 95.9, 562.5 95.4 Q 562.1 94.9, 561.3 94.9 Q 560.6 94.9, 560.2 95.4 Q 559.8 95.9, 559.8 96.9 Q 559.8 97.9, 560.2 98.4 Q 560.6 98.9, 561.3 98.9 " fill="#FF0000"/>
<path class="atom-17" d="M 564.4 94.4 L 565.1 94.4 L 565.1 96.5 L 567.6 96.5 L 567.6 94.4 L 568.3 94.4 L 568.3 99.4 L 567.6 99.4 L 567.6 97.1 L 565.1 97.1 L 565.1 99.4 L 564.4 99.4 L 564.4 94.4 " fill="#FF0000"/>
<path class="legend" d="M 495.6 184.2 Q 495.6 181.4, 496.9 179.9 Q 498.3 178.4, 500.8 178.4 Q 503.1 178.4, 504.4 180.0 L 503.3 180.9 Q 502.4 179.7, 500.8 179.7 Q 499.1 179.7, 498.2 180.9 Q 497.3 182.0, 497.3 184.2 Q 497.3 186.4, 498.2 187.6 Q 499.1 188.7, 501.0 188.7 Q 502.2 188.7, 503.7 188.0 L 504.1 189.2 Q 503.5 189.6, 502.6 189.8 Q 501.7 190.0, 500.7 190.0 Q 498.3 190.0, 496.9 188.5 Q 495.6 187.0, 495.6 184.2 " fill="#000000"/>
</svg>