<svg xmlns="http://www.w3.org/2000/svg" xmlns:rdkit="http://www.rdkit.org/xml" xmlns:xlink="http://www.w3.org/1999/xlink" version="1.1" baseProfile="full" xml:space="preserve" width="800px" height="400px" viewBox="0 0 800 400">
<!-- END OF HEADER -->
<rect style="opacity:1.0;fill:#FFFFFF;stroke:none" width="800.0" height="400.0" x="0.0" y="0.0"> </rect>
<path class="bond-0 atom-0 atom-1" d="M 44.9,94.5 L 61.9,84.6" style="fill:none;fill-rule:evenodd;stroke:#000000;stroke-width:2.0px;stroke-linecap:butt;stroke-linejoin:miter;stroke-opacity:1"/>
<path class="bond-1 atom-1 atom-2" d="M 61.9,84.6 L 79.0,94.5" style="fill:none;fill-rule:evenodd;stroke:#000000;stroke-width:2.0px;stroke-linecap:butt;stroke-linejoin:miter;stroke-opacity:1"/>
<path class="bond-2 atom-2 atom-3" d="M 79.0,94.5 L 96.1,84.6" style="fill:none;fill-rule:evenodd;stroke:#000000;stroke-width:2.0px;stroke-linecap:butt;stroke-linejoin:miter;stroke-opacity:1"/>
<path class="bond-3 atom-3 atom-4" d="M 96.1,84.6 L 113.2,94.5" style="fill:none;fill-rule:evenodd;stroke:#000000;stroke-width:2.0px;stroke-linecap:butt;stroke-linejoin:miter;stroke-opacity:1"/>
<path class="bond-4 atom-4 atom-5" d="M 113.2,94.5 L 130.3,84.6" style="fill:none;fill-rule:evenodd;stroke:#000000;stroke-width:2.0px;stroke-linecap:butt;stroke-linejoin:miter;stroke-opacity:1"/>
<path class="bond-5 atom-5 atom-6" d="M 130.3,84.6 L 137.2,88.6" style="fill:none;fill-rule:evenodd;stroke:#000000;stroke-width:2.0px;stroke-linecap:butt;stroke-linejoin:miter;stroke-opacity:1"/>
<path class="bond-5 atom-5 atom-6" d="M 137.2,88.6 L 144.1,92.6" style="fill:none;fill-rule:evenodd;stroke:#FF0000;stroke-width:2.0px;stroke-linecap:butt;stroke-linejoin:miter;stroke-opacity:1"/>
<path d="M 61.1,85.1 L 61.9,84.6 L 62.8,85.1" style="fill:none;stroke:#000000;stroke-width:2.0px;stroke-linecap:butt;stroke-linejoin:miter;stroke-opacity:1;"/>
<path d="M 78.2,94.0 L 79.0,94.5 L 79.9,94.0" style="fill:none;stroke:#000000;stroke-width:2.0px;stroke-linecap:butt;stroke-linejoin:miter;stroke-opacity:1;"/>
<path d="M 95.2,85.1 L 96.1,84.6 L 97.0,85.1" style="fill:none;stroke:#000000;stroke-width:2.0px;stroke-linecap:butt;stroke-linejoin:miter;stroke-opacity:1;"/>
<path d="M 112.3,94.0 L 113.2,94.5 L 114.0,94.0" style="fill:none;stroke:#000000;stroke-width:2.0px;stroke-linecap:butt;stroke-linejoin:miter;stroke-opacity:1;"/>
<path d="M 129.4,85.1 L 130.3,84.6 L 130.6,84.8" style="fill:none;stroke:#000000;stroke-width:2.0px;stroke-linecap:butt;stroke-linejoin:miter;stroke-opacity:1;"/>
<path class="atom-6" d="M 144.8 94.5 Q 144.8 93.1, 145.4 92.4 Q 146.1 91.7, 147.3 91.7 Q 148.6 91.7, 149.2 92.4 Q 149.9 93.1, 149.9 94.5 Q 149.9 95.8, 149.2 96.6 Q 148.6 97.4, 147.3 97.4 Q 146.1 97.4, 145.4 96.6 Q 144.8 95.9, 144.8 94.5 M 147.3 96.8 Q 148.2 96.8, 148.6 96.2 Q 149.1 95.6, 149.1 94.5 Q 149.1 93.4, 148.6 92.8 Q 148.2 92.3, 147.3 92.3 Q 146.5 92.3, 146.0 92.8 Q 145.6 93.4, 145.6 94.5 Q 145.6 95.6, 146.0 96.2 Q 146.5 96.8, 147.3 96.8 " fill="#FF0000"/>
<path class="atom-6" d="M 150.8 91.7 L 151.5 91.7 L 151.5 94.1 L 154.4 94.1 L 154.4 91.7 L 155.1 91.7 L 155.1 97.3 L 154.4 97.3 L 154.4 94.7 L 151.5 94.7 L 151.5 97.3 L 150.8 97.3 L 150.8 91.7 " fill="#FF0000"/>
<path class="legend" d="M 103.4 190.0 L 102.2 186.7 L 97.8 186.7 L 96.6 190.0 L 95.1 190.0 L 99.0 178.7 L 100.9 178.7 L 104.9 190.0 L 103.4 190.0 M 98.2 185.4 L 101.8 185.4 L 100.0 180.3 L 98.2 185.4 " fill="#000000"/>
<path class="bond-0 atom-0 atom-1" d="M 267.8,109.4 L 260.7,105.7" style="fill:none;fill-rule:evenodd;stroke:#FF0000;stroke-width:2.0px;stroke-linecap:butt;stroke-linejoin:miter;stroke-opacity:1"/>
<path class="bond-0 atom-0 atom-1" d="M 260.7,105.7 L 253.6,101.9" style="fill:none;fill-rule:evenodd;stroke:#000000;stroke-width:2.0px;stroke-linecap:butt;stroke-linejoin:miter;stroke-opacity:1"/>
<path class="bond-1 atom-1 atom-2" d="M 253.6,101.9 L 236.9,112.4" style="fill:none;fill-rule:evenodd;stroke:#000000;stroke-width:2.0px;stroke-linecap:butt;stroke-linejoin:miter;stroke-opacity:1"/>
<path class="bond-1 atom-1 atom-2" d="M 250.6,100.3 L 236.8,109.0" style="fill:none;fill-rule:evenodd;stroke:#000000;stroke-width:2.0px;stroke-linecap:butt;stroke-linejoin:miter;stroke-opacity:1"/>
<path class="bond-2 atom-2 atom-3" d="M 236.9,112.4 L 219.5,103.2" style="fill:none;fill-rule:evenodd;stroke:#000000;stroke-width:2.0px;stroke-linecap:butt;stroke-linejoin:miter;stroke-opacity:1"/>
<path class="bond-3 atom-3 atom-4" d="M 219.5,103.2 L 218.7,83.4" style="fill:none;fill-rule:evenodd;stroke:#000000;stroke-width:2.0px;stroke-linecap:butt;stroke-linejoin:miter;stroke-opacity:1"/>
<path class="bond-3 atom-3 atom-4" d="M 222.4,101.3 L 221.8,85.0" style="fill:none;fill-rule:evenodd;stroke:#000000;stroke-width:2.0px;stroke-linecap:butt;stroke-linejoin:miter;stroke-opacity:1"/>
<path class="bond-4 atom-4 atom-5" d="M 218.7,83.4 L 235.5,73.0" style="fill:none;fill-rule:evenodd;stroke:#000000;stroke-width:2.0px;stroke-linecap:butt;stroke-linejoin:miter;stroke-opacity:1"/>
<path class="bond-5 atom-5 atom-6" d="M 235.5,73.0 L 252.9,82.2" style="fill:none;fill-rule:evenodd;stroke:#000000;stroke-width:2.0px;stroke-linecap:butt;stroke-linejoin:miter;stroke-opacity:1"/>
<path class="bond-5 atom-5 atom-6" d="M 235.6,76.4 L 250.0,84.0" style="fill:none;fill-rule:evenodd;stroke:#000000;stroke-width:2.0px;stroke-linecap:butt;stroke-linejoin:miter;stroke-opacity:1"/>
<path class="bond-6 atom-6 atom-7" d="M 252.9,82.2 L 269.6,71.7" style="fill:none;fill-rule:evenodd;stroke:#000000;stroke-width:2.0px;stroke-linecap:butt;stroke-linejoin:miter;stroke-opacity:1"/>
<path class="bond-7 atom-7 atom-8" d="M 269.6,71.7 L 287.0,80.9" style="fill:none;fill-rule:evenodd;stroke:#000000;stroke-width:2.0px;stroke-linecap:butt;stroke-linejoin:miter;stroke-opacity:1"/>
<path class="bond-7 atom-7 atom-8" d="M 269.7,75.1 L 285.6,83.6" style="fill:none;fill-rule:evenodd;stroke:#000000;stroke-width:2.0px;stroke-linecap:butt;stroke-linejoin:miter;stroke-opacity:1;stroke-dasharray:6,4"/>
<path class="bond-8 atom-8 atom-9" d="M 287.0,80.9 L 303.7,70.5" style="fill:none;fill-rule:evenodd;stroke:#000000;stroke-width:2.0px;stroke-linecap:butt;stroke-linejoin:miter;stroke-opacity:1"/>
<path class="bond-8 atom-8 atom-9" d="M 286.9,77.5 L 302.2,68.0" style="fill:none;fill-rule:evenodd;stroke:#000000;stroke-width:2.0px;stroke-linecap:butt;stroke-linejoin:miter;stroke-opacity:1;stroke-dasharray:6,4"/>
<path class="bond-9 atom-9 atom-10" d="M 303.7,70.5 L 321.2,79.7" style="fill:none;fill-rule:evenodd;stroke:#000000;stroke-width:2.0px;stroke-linecap:butt;stroke-linejoin:miter;stroke-opacity:1"/>
<path class="bond-10 atom-10 atom-11" d="M 321.2,79.7 L 321.9,99.4" style="fill:none;fill-rule:evenodd;stroke:#000000;stroke-width:2.0px;stroke-linecap:butt;stroke-linejoin:miter;stroke-opacity:1"/>
<path class="bond-10 atom-10 atom-11" d="M 324.2,81.3 L 324.8,97.6" style="fill:none;fill-rule:evenodd;stroke:#000000;stroke-width:2.0px;stroke-linecap:butt;stroke-linejoin:miter;stroke-opacity:1"/>
<path class="bond-11 atom-11 atom-12" d="M 321.9,99.4 L 339.3,108.6" style="fill:none;fill-rule:evenodd;stroke:#000000;stroke-width:2.0px;stroke-linecap:butt;stroke-linejoin:miter;stroke-opacity:1"/>
<path class="bond-12 atom-12 atom-13" d="M 339.3,108.6 L 356.0,98.1" style="fill:none;fill-rule:evenodd;stroke:#000000;stroke-width:2.0px;stroke-linecap:butt;stroke-linejoin:miter;stroke-opacity:1"/>
<path class="bond-12 atom-12 atom-13" d="M 339.2,105.2 L 353.0,96.5" style="fill:none;fill-rule:evenodd;stroke:#000000;stroke-width:2.0px;stroke-linecap:butt;stroke-linejoin:miter;stroke-opacity:1"/>
<path class="bond-13 atom-13 atom-14" d="M 356.0,98.1 L 363.1,101.9" style="fill:none;fill-rule:evenodd;stroke:#000000;stroke-width:2.0px;stroke-linecap:butt;stroke-linejoin:miter;stroke-opacity:1"/>
<path class="bond-13 atom-13 atom-14" d="M 363.1,101.9 L 370.2,105.7" style="fill:none;fill-rule:evenodd;stroke:#FF0000;stroke-width:2.0px;stroke-linecap:butt;stroke-linejoin:miter;stroke-opacity:1"/>
<path class="bond-14 atom-13 atom-15" d="M 356.0,98.1 L 355.3,78.4" style="fill:none;fill-rule:evenodd;stroke:#000000;stroke-width:2.0px;stroke-linecap:butt;stroke-linejoin:miter;stroke-opacity:1"/>
<path class="bond-15 atom-15 atom-16" d="M 355.3,78.4 L 337.9,69.2" style="fill:none;fill-rule:evenodd;stroke:#000000;stroke-width:2.0px;stroke-linecap:butt;stroke-linejoin:miter;stroke-opacity:1"/>
<path class="bond-15 atom-15 atom-16" d="M 352.4,80.3 L 338.0,72.6" style="fill:none;fill-rule:evenodd;stroke:#000000;stroke-width:2.0px;stroke-linecap:butt;stroke-linejoin:miter;stroke-opacity:1"/>
<path class="bond-16 atom-6 atom-1" d="M 252.9,82.2 L 253.6,101.9" style="fill:none;fill-rule:evenodd;stroke:#000000;stroke-width:2.0px;stroke-linecap:butt;stroke-linejoin:miter;stroke-opacity:1"/>
<path class="bond-17 atom-16 atom-10" d="M 337.9,69.2 L 321.2,79.7" style="fill:none;fill-rule:evenodd;stroke:#000000;stroke-width:2.0px;stroke-linecap:butt;stroke-linejoin:miter;stroke-opacity:1"/>
<path d="M 237.7,111.9 L 236.9,112.4 L 236.0,111.9" style="fill:none;stroke:#000000;stroke-width:2.0px;stroke-linecap:butt;stroke-linejoin:miter;stroke-opacity:1;"/>
<path d="M 220.3,103.6 L 219.5,103.2 L 219.4,102.2" style="fill:none;stroke:#000000;stroke-width:2.0px;stroke-linecap:butt;stroke-linejoin:miter;stroke-opacity:1;"/>
<path d="M 218.8,84.4 L 218.7,83.4 L 219.6,82.9" style="fill:none;stroke:#000000;stroke-width:2.0px;stroke-linecap:butt;stroke-linejoin:miter;stroke-opacity:1;"/>
<path d="M 234.6,73.5 L 235.5,73.0 L 236.3,73.4" style="fill:none;stroke:#000000;stroke-width:2.0px;stroke-linecap:butt;stroke-linejoin:miter;stroke-opacity:1;"/>
<path d="M 268.8,72.2 L 269.6,71.7 L 270.5,72.2" style="fill:none;stroke:#000000;stroke-width:2.0px;stroke-linecap:butt;stroke-linejoin:miter;stroke-opacity:1;"/>
<path d="M 286.2,80.5 L 287.0,80.9 L 287.9,80.4" style="fill:none;stroke:#000000;stroke-width:2.0px;stroke-linecap:butt;stroke-linejoin:miter;stroke-opacity:1;"/>
<path d="M 302.9,71.0 L 303.7,70.5 L 304.6,70.9" style="fill:none;stroke:#000000;stroke-width:2.0px;stroke-linecap:butt;stroke-linejoin:miter;stroke-opacity:1;"/>
<path d="M 321.8,98.4 L 321.9,99.4 L 322.8,99.9" style="fill:none;stroke:#000000;stroke-width:2.0px;stroke-linecap:butt;stroke-linejoin:miter;stroke-opacity:1;"/>
<path d="M 338.4,108.2 L 339.3,108.6 L 340.1,108.1" style="fill:none;stroke:#000000;stroke-width:2.0px;stroke-linecap:butt;stroke-linejoin:miter;stroke-opacity:1;"/>
<path d="M 355.3,79.4 L 355.3,78.4 L 354.4,78.0" style="fill:none;stroke:#000000;stroke-width:2.0px;stroke-linecap:butt;stroke-linejoin:miter;stroke-opacity:1;"/>
<path d="M 338.7,69.7 L 337.9,69.2 L 337.0,69.7" style="fill:none;stroke:#000000;stroke-width:2.0px;stroke-linecap:butt;stroke-linejoin:miter;stroke-opacity:1;"/>
<path class="atom-0" d="M 268.5 111.1 Q 268.5 109.8, 269.1 109.1 Q 269.8 108.3, 271.0 108.3 Q 272.3 108.3, 272.9 109.1 Q 273.6 109.8, 273.6 111.1 Q 273.6 112.5, 272.9 113.3 Q 272.3 114.0, 271.0 114.0 Q 269.8 114.0, 269.1 113.3 Q 268.5 112.5, 268.5 111.1 M 271.0 113.4 Q 271.9 113.4, 272.3 112.8 Q 272.8 112.3, 272.8 111.1 Q 272.8 110.1, 272.3 109.5 Q 271.9 108.9, 271.0 108.9 Q 270.2 108.9, 269.7 109.5 Q 269.3 110.0, 269.3 111.1 Q 269.3 112.3, 269.7 112.8 Q 270.2 113.4, 271.0 113.4 " fill="#FF0000"/>
<path class="atom-0" d="M 274.5 108.4 L 275.2 108.4 L 275.2 110.7 L 278.1 110.7 L 278.1 108.4 L 278.8 108.4 L 278.8 114.0 L 278.1 114.0 L 278.1 111.4 L 275.2 111.4 L 275.2 114.0 L 274.5 114.0 L 274.5 108.4 " fill="#FF0000"/>
<path class="atom-14" d="M 370.9 107.4 Q 370.9 106.0, 371.5 105.3 Q 372.2 104.6, 373.4 104.6 Q 374.7 104.6, 375.3 105.3 Q 376.0 106.0, 376.0 107.4 Q 376.0 108.7, 375.3 109.5 Q 374.7 110.3, 373.4 110.3 Q 372.2 110.3, 371.5 109.5 Q 370.9 108.8, 370.9 107.4 M 373.4 109.7 Q 374.3 109.7, 374.8 109.1 Q 375.2 108.5, 375.2 107.4 Q 375.2 106.3, 374.8 105.7 Q 374.3 105.2, 373.4 105.2 Q 372.6 105.2, 372.1 105.7 Q 371.7 106.3, 371.7 107.4 Q 371.7 108.5, 372.1 109.1 Q 372.6 109.7, 373.4 109.7 " fill="#FF0000"/>
<path class="atom-14" d="M 376.9 104.6 L 377.6 104.6 L 377.6 107.0 L 380.5 107.0 L 380.5 104.6 L 381.3 104.6 L 381.3 110.2 L 380.5 110.2 L 380.5 107.6 L 377.6 107.6 L 377.6 110.2 L 376.9 110.2 L 376.9 104.6 " fill="#FF0000"/>
<path class="legend" d="M 301.7 184.0 Q 302.7 184.4, 303.3 185.0 Q 303.8 185.7, 303.8 186.7 Q 303.8 188.2, 302.8 189.1 Q 301.8 190.0, 300.0 190.0 L 296.2 190.0 L 296.2 178.7 L 299.5 178.7 Q 301.4 178.7, 302.4 179.5 Q 303.4 180.2, 303.4 181.7 Q 303.4 183.4, 301.7 184.0 M 297.7 180.0 L 297.7 183.5 L 299.5 183.5 Q 300.6 183.5, 301.2 183.1 Q 301.8 182.6, 301.8 181.7 Q 301.8 180.0, 299.5 180.0 L 297.7 180.0 M 300.0 188.7 Q 301.1 188.7, 301.7 188.2 Q 302.2 187.7, 302.2 186.7 Q 302.2 185.7, 301.6 185.3 Q 301.0 184.8, 299.7 184.8 L 297.7 184.8 L 297.7 188.7 L 300.0 188.7 " fill="#000000"/>
<path class="bond-0 atom-0 atom-1" d="M 537.9,73.7 L 522.3,85.9" style="fill:none;fill-rule:evenodd;stroke:#000000;stroke-width:2.0px;stroke-linecap:butt;stroke-linejoin:miter;stroke-opacity:1"/>
<path class="bond-1 atom-1 atom-2" d="M 522.3,85.9 L 523.5,93.9" style="fill:none;fill-rule:evenodd;stroke:#000000;stroke-width:2.0px;stroke-linecap:butt;stroke-linejoin:miter;stroke-opacity:1"/>
<path class="bond-1 atom-1 atom-2" d="M 523.5,93.9 L 524.6,101.9" style="fill:none;fill-rule:evenodd;stroke:#FF0000;stroke-width:2.0px;stroke-linecap:butt;stroke-linejoin:miter;stroke-opacity:1"/>
<path class="bond-2 atom-1 atom-3" d="M 522.3,85.9 L 504.0,78.5" style="fill:none;fill-rule:evenodd;stroke:#000000;stroke-width:2.0px;stroke-linecap:butt;stroke-linejoin:miter;stroke-opacity:1"/>
<path class="bond-3 atom-3 atom-4" d="M 504.0,78.5 L 488.5,90.7" style="fill:none;fill-rule:evenodd;stroke:#000000;stroke-width:2.0px;stroke-linecap:butt;stroke-linejoin:miter;stroke-opacity:1"/>
<path class="bond-4 atom-4 atom-5" d="M 488.5,90.7 L 481.0,87.7" style="fill:none;fill-rule:evenodd;stroke:#000000;stroke-width:2.0px;stroke-linecap:butt;stroke-linejoin:miter;stroke-opacity:1"/>
<path class="bond-4 atom-4 atom-5" d="M 481.0,87.7 L 473.4,84.7" style="fill:none;fill-rule:evenodd;stroke:#FF0000;stroke-width:2.0px;stroke-linecap:butt;stroke-linejoin:miter;stroke-opacity:1"/>
<path d="M 505.0,78.9 L 504.0,78.5 L 503.3,79.1" style="fill:none;stroke:#000000;stroke-width:2.0px;stroke-linecap:butt;stroke-linejoin:miter;stroke-opacity:1;"/>
<path d="M 489.3,90.1 L 488.5,90.7 L 488.2,90.6" style="fill:none;stroke:#000000;stroke-width:2.0px;stroke-linecap:butt;stroke-linejoin:miter;stroke-opacity:1;"/>
<path class="atom-2" d="M 522.6 105.4 Q 522.6 104.1, 523.2 103.3 Q 523.9 102.6, 525.1 102.6 Q 526.4 102.6, 527.0 103.3 Q 527.7 104.1, 527.7 105.4 Q 527.7 106.8, 527.0 107.5 Q 526.4 108.3, 525.1 108.3 Q 523.9 108.3, 523.2 107.5 Q 522.6 106.8, 522.6 105.4 M 525.1 107.7 Q 526.0 107.7, 526.5 107.1 Q 526.9 106.5, 526.9 105.4 Q 526.9 104.3, 526.5 103.8 Q 526.0 103.2, 525.1 103.2 Q 524.3 103.2, 523.8 103.8 Q 523.4 104.3, 523.4 105.4 Q 523.4 106.5, 523.8 107.1 Q 524.3 107.7, 525.1 107.7 " fill="#FF0000"/>
<path class="atom-2" d="M 528.6 102.6 L 529.3 102.6 L 529.3 105.0 L 532.2 105.0 L 532.2 102.6 L 532.9 102.6 L 532.9 108.2 L 532.2 108.2 L 532.2 105.6 L 529.3 105.6 L 529.3 108.2 L 528.6 108.2 L 528.6 102.6 " fill="#FF0000"/>
<path class="atom-5" d="M 462.1 80.6 L 462.9 80.6 L 462.9 83.0 L 465.8 83.0 L 465.8 80.6 L 466.5 80.6 L 466.5 86.2 L 465.8 86.2 L 465.8 83.6 L 462.9 83.6 L 462.9 86.2 L 462.1 86.2 L 462.1 80.6 " fill="#FF0000"/>
<path class="atom-5" d="M 467.7 83.4 Q 467.7 82.1, 468.3 81.3 Q 469.0 80.6, 470.2 80.6 Q 471.5 80.6, 472.1 81.3 Q 472.8 82.1, 472.8 83.4 Q 472.8 84.7, 472.1 85.5 Q 471.4 86.3, 470.2 86.3 Q 469.0 86.3, 468.3 85.5 Q 467.7 84.8, 467.7 83.4 M 470.2 85.7 Q 471.1 85.7, 471.5 85.1 Q 472.0 84.5, 472.0 83.4 Q 472.0 82.3, 471.5 81.7 Q 471.1 81.2, 470.2 81.2 Q 469.4 81.2, 468.9 81.7 Q 468.4 82.3, 468.4 83.4 Q 468.4 84.5, 468.9 85.1 Q 469.4 85.7, 470.2 85.7 " fill="#FF0000"/>
<path class="legend" d="M 495.6 184.2 Q 495.6 181.4, 496.9 179.9 Q 498.3 178.4, 500.8 178.4 Q 503.1 178.4, 504.4 180.0 L 503.3 180.9 Q 502.4 179.7, 500.8 179.7 Q 499.1 179.7, 498.2 180.9 Q 497.3 182.0, 497.3 184.2 Q 497.3 186.4, 498.2 187.6 Q 499.1 188.7, 501.0 188.7 Q 502.2 188.7, 503.7 188.0 L 504.1 189.2 Q 503.5 189.6, 502.6 189.8 Q 501.7 190.0, 500.7 190.0 Q 498.3 190.0, 496.9 188.5 Q 495.6 187.0, 495.6 184.2 " fill="#000000"/>
<path class="bond-0 atom-0 atom-1" d="M 721.2,85.0 L 703.9,94.6" style="fill:none;fill-rule:evenodd;stroke:#000000;stroke-width:2.0px;stroke-linecap:butt;stroke-linejoin:miter;stroke-opacity:1"/>
<path class="bond-1 atom-1 atom-2" d="M 703.9,94.6 L 687.0,84.4" style="fill:none;fill-rule:evenodd;stroke:#000000;stroke-width:2.0px;stroke-linecap:butt;stroke-linejoin:miter;stroke-opacity:1"/>
<path class="bond-2 atom-2 atom-3" d="M 687.0,84.4 L 669.8,94.0" style="fill:none;fill-rule:evenodd;stroke:#000000;stroke-width:2.0px;stroke-linecap:butt;stroke-linejoin:miter;stroke-opacity:1"/>
<path class="bond-3 atom-3 atom-4" d="M 669.8,94.0 L 686.7,104.1" style="fill:none;fill-rule:evenodd;stroke:#000000;stroke-width:2.0px;stroke-linecap:butt;stroke-linejoin:miter;stroke-opacity:1"/>
<path class="bond-4 atom-3 atom-5" d="M 669.8,94.0 L 669.5,113.7" style="fill:none;fill-rule:evenodd;stroke:#000000;stroke-width:2.0px;stroke-linecap:butt;stroke-linejoin:miter;stroke-opacity:1"/>
<path class="bond-5 atom-5 atom-6" d="M 669.5,113.7 L 652.2,123.3" style="fill:none;fill-rule:evenodd;stroke:#000000;stroke-width:2.0px;stroke-linecap:butt;stroke-linejoin:miter;stroke-opacity:1"/>
<path class="bond-6 atom-6 atom-7" d="M 652.2,123.3 L 635.3,113.2" style="fill:none;fill-rule:evenodd;stroke:#000000;stroke-width:2.0px;stroke-linecap:butt;stroke-linejoin:miter;stroke-opacity:1"/>
<path class="bond-7 atom-7 atom-8" d="M 635.3,113.2 L 628.3,117.1" style="fill:none;fill-rule:evenodd;stroke:#000000;stroke-width:2.0px;stroke-linecap:butt;stroke-linejoin:miter;stroke-opacity:1"/>
<path class="bond-7 atom-7 atom-8" d="M 628.3,117.1 L 621.3,121.0" style="fill:none;fill-rule:evenodd;stroke:#FF0000;stroke-width:2.0px;stroke-linecap:butt;stroke-linejoin:miter;stroke-opacity:1"/>
<path class="bond-8 atom-7 atom-9" d="M 635.3,113.2 L 635.6,93.5" style="fill:none;fill-rule:evenodd;stroke:#000000;stroke-width:2.0px;stroke-linecap:butt;stroke-linejoin:miter;stroke-opacity:1"/>
<path class="bond-9 atom-9 atom-10" d="M 635.6,93.5 L 629.2,74.8" style="fill:none;fill-rule:evenodd;stroke:#000000;stroke-width:2.0px;stroke-linecap:butt;stroke-linejoin:miter;stroke-opacity:1"/>
<path class="bond-10 atom-9 atom-11" d="M 635.6,93.5 L 616.2,96.6" style="fill:none;fill-rule:evenodd;stroke:#000000;stroke-width:2.0px;stroke-linecap:butt;stroke-linejoin:miter;stroke-opacity:1"/>
<path class="bond-11 atom-9 atom-12" d="M 635.6,93.5 L 652.9,83.9" style="fill:none;fill-rule:evenodd;stroke:#000000;stroke-width:2.0px;stroke-linecap:butt;stroke-linejoin:miter;stroke-opacity:1"/>
<path class="bond-12 atom-12 atom-13" d="M 652.9,83.9 L 653.2,64.2" style="fill:none;fill-rule:evenodd;stroke:#000000;stroke-width:2.0px;stroke-linecap:butt;stroke-linejoin:miter;stroke-opacity:1"/>
<path class="bond-13 atom-13 atom-14" d="M 653.2,64.2 L 670.4,54.6" style="fill:none;fill-rule:evenodd;stroke:#000000;stroke-width:2.0px;stroke-linecap:butt;stroke-linejoin:miter;stroke-opacity:1"/>
<path class="bond-14 atom-14 atom-15" d="M 670.4,54.6 L 687.3,64.7" style="fill:none;fill-rule:evenodd;stroke:#000000;stroke-width:2.0px;stroke-linecap:butt;stroke-linejoin:miter;stroke-opacity:1"/>
<path class="bond-15 atom-15 atom-16" d="M 687.3,64.7 L 694.4,46.3" style="fill:none;fill-rule:evenodd;stroke:#000000;stroke-width:2.0px;stroke-linecap:butt;stroke-linejoin:miter;stroke-opacity:1"/>
<path class="bond-16 atom-15 atom-17" d="M 687.3,64.7 L 706.7,68.4" style="fill:none;fill-rule:evenodd;stroke:#000000;stroke-width:2.0px;stroke-linecap:butt;stroke-linejoin:miter;stroke-opacity:1"/>
<path class="bond-17 atom-17 atom-18" d="M 706.7,68.4 L 707.0,48.7" style="fill:none;fill-rule:evenodd;stroke:#000000;stroke-width:2.0px;stroke-linecap:butt;stroke-linejoin:miter;stroke-opacity:1"/>
<path class="bond-18 atom-17 atom-19" d="M 706.7,68.4 L 699.7,86.9" style="fill:none;fill-rule:evenodd;stroke:#000000;stroke-width:2.0px;stroke-linecap:butt;stroke-linejoin:miter;stroke-opacity:1"/>
<path class="bond-19 atom-19 atom-20" d="M 699.7,86.9 L 712.1,102.2" style="fill:none;fill-rule:evenodd;stroke:#000000;stroke-width:2.0px;stroke-linecap:butt;stroke-linejoin:miter;stroke-opacity:1"/>
<path class="bond-20 atom-20 atom-21" d="M 712.1,102.2 L 731.6,99.1" style="fill:none;fill-rule:evenodd;stroke:#000000;stroke-width:2.0px;stroke-linecap:butt;stroke-linejoin:miter;stroke-opacity:1"/>
<path class="bond-21 atom-21 atom-22" d="M 731.6,99.1 L 724.5,117.5" style="fill:none;fill-rule:evenodd;stroke:#000000;stroke-width:2.0px;stroke-linecap:butt;stroke-linejoin:miter;stroke-opacity:1"/>
<path class="bond-22 atom-22 atom-23" d="M 725.1,115.9 L 716.6,117.3" style="fill:none;fill-rule:evenodd;stroke:#000000;stroke-width:2.0px;stroke-linecap:butt;stroke-linejoin:miter;stroke-opacity:1"/>
<path class="bond-22 atom-22 atom-23" d="M 716.6,117.3 L 708.0,118.6" style="fill:none;fill-rule:evenodd;stroke:#FF0000;stroke-width:2.0px;stroke-linecap:butt;stroke-linejoin:miter;stroke-opacity:1"/>
<path class="bond-22 atom-22 atom-23" d="M 725.6,118.8 L 717.1,120.2" style="fill:none;fill-rule:evenodd;stroke:#000000;stroke-width:2.0px;stroke-linecap:butt;stroke-linejoin:miter;stroke-opacity:1"/>
<path class="bond-22 atom-22 atom-23" d="M 717.1,120.2 L 708.5,121.5" style="fill:none;fill-rule:evenodd;stroke:#FF0000;stroke-width:2.0px;stroke-linecap:butt;stroke-linejoin:miter;stroke-opacity:1"/>
<path class="bond-23 atom-22 atom-24" d="M 724.5,117.5 L 729.3,123.4" style="fill:none;fill-rule:evenodd;stroke:#000000;stroke-width:2.0px;stroke-linecap:butt;stroke-linejoin:miter;stroke-opacity:1"/>
<path class="bond-23 atom-22 atom-24" d="M 729.3,123.4 L 734.1,129.3" style="fill:none;fill-rule:evenodd;stroke:#FF0000;stroke-width:2.0px;stroke-linecap:butt;stroke-linejoin:miter;stroke-opacity:1"/>
<path class="bond-24 atom-21 atom-25" d="M 731.6,99.1 L 744.0,114.4" style="fill:none;fill-rule:evenodd;stroke:#000000;stroke-width:2.0px;stroke-linecap:butt;stroke-linejoin:miter;stroke-opacity:1"/>
<path class="bond-25 atom-25 atom-26" d="M 744.0,114.4 L 763.5,111.3" style="fill:none;fill-rule:evenodd;stroke:#000000;stroke-width:2.0px;stroke-linecap:butt;stroke-linejoin:miter;stroke-opacity:1"/>
<path class="bond-26 atom-26 atom-27" d="M 763.5,111.3 L 770.5,92.8" style="fill:none;fill-rule:evenodd;stroke:#000000;stroke-width:2.0px;stroke-linecap:butt;stroke-linejoin:miter;stroke-opacity:1"/>
<path class="bond-27 atom-27 atom-28" d="M 770.5,92.8 L 790.0,89.7" style="fill:none;fill-rule:evenodd;stroke:#000000;stroke-width:2.0px;stroke-linecap:butt;stroke-linejoin:miter;stroke-opacity:1"/>
<path class="bond-28 atom-27 atom-29" d="M 770.5,92.8 L 758.1,77.5" style="fill:none;fill-rule:evenodd;stroke:#000000;stroke-width:2.0px;stroke-linecap:butt;stroke-linejoin:miter;stroke-opacity:1"/>
<path class="bond-29 atom-29 atom-30" d="M 758.1,77.5 L 738.6,80.6" style="fill:none;fill-rule:evenodd;stroke:#000000;stroke-width:2.0px;stroke-linecap:butt;stroke-linejoin:miter;stroke-opacity:1"/>
<path class="bond-30 atom-30 atom-31" d="M 738.6,80.6 L 726.2,65.3" style="fill:none;fill-rule:evenodd;stroke:#000000;stroke-width:2.0px;stroke-linecap:butt;stroke-linejoin:miter;stroke-opacity:1"/>
<path class="bond-31 atom-15 atom-2" d="M 687.3,64.7 L 687.0,84.4" style="fill:none;fill-rule:evenodd;stroke:#000000;stroke-width:2.0px;stroke-linecap:butt;stroke-linejoin:miter;stroke-opacity:1"/>
<path class="bond-32 atom-31 atom-17" d="M 726.2,65.3 L 706.7,68.4" style="fill:none;fill-rule:evenodd;stroke:#000000;stroke-width:2.0px;stroke-linecap:butt;stroke-linejoin:miter;stroke-opacity:1"/>
<path class="bond-33 atom-12 atom-3" d="M 652.9,83.9 L 669.8,94.0" style="fill:none;fill-rule:evenodd;stroke:#000000;stroke-width:2.0px;stroke-linecap:butt;stroke-linejoin:miter;stroke-opacity:1"/>
<path class="bond-34 atom-30 atom-21" d="M 738.6,80.6 L 731.6,99.1" style="fill:none;fill-rule:evenodd;stroke:#000000;stroke-width:2.0px;stroke-linecap:butt;stroke-linejoin:miter;stroke-opacity:1"/>
<path d="M 704.8,94.1 L 703.9,94.6 L 703.1,94.1" style="fill:none;stroke:#000000;stroke-width:2.0px;stroke-linecap:butt;stroke-linejoin:miter;stroke-opacity:1;"/>
<path d="M 669.5,112.7 L 669.5,113.7 L 668.6,114.2" style="fill:none;stroke:#000000;stroke-width:2.0px;stroke-linecap:butt;stroke-linejoin:miter;stroke-opacity:1;"/>
<path d="M 653.1,122.8 L 652.2,123.3 L 651.4,122.8" style="fill:none;stroke:#000000;stroke-width:2.0px;stroke-linecap:butt;stroke-linejoin:miter;stroke-opacity:1;"/>
<path d="M 653.2,65.1 L 653.2,64.2 L 654.1,63.7" style="fill:none;stroke:#000000;stroke-width:2.0px;stroke-linecap:butt;stroke-linejoin:miter;stroke-opacity:1;"/>
<path d="M 669.6,55.1 L 670.4,54.6 L 671.3,55.1" style="fill:none;stroke:#000000;stroke-width:2.0px;stroke-linecap:butt;stroke-linejoin:miter;stroke-opacity:1;"/>
<path d="M 700.0,85.9 L 699.7,86.9 L 700.3,87.6" style="fill:none;stroke:#000000;stroke-width:2.0px;stroke-linecap:butt;stroke-linejoin:miter;stroke-opacity:1;"/>
<path d="M 711.5,101.4 L 712.1,102.2 L 713.1,102.0" style="fill:none;stroke:#000000;stroke-width:2.0px;stroke-linecap:butt;stroke-linejoin:miter;stroke-opacity:1;"/>
<path d="M 724.9,116.6 L 724.5,117.5 L 724.8,117.8" style="fill:none;stroke:#000000;stroke-width:2.0px;stroke-linecap:butt;stroke-linejoin:miter;stroke-opacity:1;"/>
<path d="M 743.4,113.6 L 744.0,114.4 L 745.0,114.2" style="fill:none;stroke:#000000;stroke-width:2.0px;stroke-linecap:butt;stroke-linejoin:miter;stroke-opacity:1;"/>
<path d="M 762.5,111.4 L 763.5,111.3 L 763.8,110.3" style="fill:none;stroke:#000000;stroke-width:2.0px;stroke-linecap:butt;stroke-linejoin:miter;stroke-opacity:1;"/>
<path d="M 758.7,78.3 L 758.1,77.5 L 757.1,77.7" style="fill:none;stroke:#000000;stroke-width:2.0px;stroke-linecap:butt;stroke-linejoin:miter;stroke-opacity:1;"/>
<path d="M 726.8,66.1 L 726.2,65.3 L 725.2,65.5" style="fill:none;stroke:#000000;stroke-width:2.0px;stroke-linecap:butt;stroke-linejoin:miter;stroke-opacity:1;"/>
<path class="atom-8" d="M 610.0 120.0 L 610.8 120.0 L 610.8 122.4 L 613.6 122.4 L 613.6 120.0 L 614.4 120.0 L 614.4 125.6 L 613.6 125.6 L 613.6 123.0 L 610.8 123.0 L 610.8 125.6 L 610.0 125.6 L 610.0 120.0 " fill="#FF0000"/>
<path class="atom-8" d="M 615.5 122.8 Q 615.5 121.4, 616.2 120.7 Q 616.8 119.9, 618.1 119.9 Q 619.3 119.9, 620.0 120.7 Q 620.6 121.4, 620.6 122.8 Q 620.6 124.1, 620.0 124.9 Q 619.3 125.7, 618.1 125.7 Q 616.8 125.7, 616.2 124.9 Q 615.5 124.1, 615.5 122.8 M 618.1 125.0 Q 618.9 125.0, 619.4 124.5 Q 619.9 123.9, 619.9 122.8 Q 619.9 121.7, 619.4 121.1 Q 618.9 120.6, 618.1 120.6 Q 617.2 120.6, 616.8 121.1 Q 616.3 121.7, 616.3 122.8 Q 616.3 123.9, 616.8 124.5 Q 617.2 125.0, 618.1 125.0 " fill="#FF0000"/>
<path class="atom-23" d="M 702.5 120.6 Q 702.5 119.3, 703.2 118.5 Q 703.8 117.8, 705.1 117.8 Q 706.3 117.8, 707.0 118.5 Q 707.6 119.3, 707.6 120.6 Q 707.6 122.0, 706.9 122.7 Q 706.3 123.5, 705.1 123.5 Q 703.8 123.5, 703.2 122.7 Q 702.5 122.0, 702.5 120.6 M 705.1 122.9 Q 705.9 122.9, 706.4 122.3 Q 706.8 121.7, 706.8 120.6 Q 706.8 119.5, 706.4 119.0 Q 705.9 118.4, 705.1 118.4 Q 704.2 118.4, 703.7 119.0 Q 703.3 119.5, 703.3 120.6 Q 703.3 121.7, 703.7 122.3 Q 704.2 122.9, 705.1 122.9 " fill="#FF0000"/>
<path class="atom-24" d="M 734.4 132.8 Q 734.4 131.5, 735.1 130.7 Q 735.7 130.0, 737.0 130.0 Q 738.2 130.0, 738.9 130.7 Q 739.5 131.5, 739.5 132.8 Q 739.5 134.2, 738.9 134.9 Q 738.2 135.7, 737.0 135.7 Q 735.7 135.7, 735.1 134.9 Q 734.4 134.2, 734.4 132.8 M 737.0 135.1 Q 737.8 135.1, 738.3 134.5 Q 738.7 133.9, 738.7 132.8 Q 738.7 131.7, 738.3 131.2 Q 737.8 130.6, 737.0 130.6 Q 736.1 130.6, 735.6 131.2 Q 735.2 131.7, 735.2 132.8 Q 735.2 133.9, 735.6 134.5 Q 736.1 135.1, 737.0 135.1 " fill="#FF0000"/>
<path class="atom-24" d="M 740.4 130.0 L 741.2 130.0 L 741.2 132.4 L 744.0 132.4 L 744.0 130.0 L 744.8 130.0 L 744.8 135.6 L 744.0 135.6 L 744.0 133.0 L 741.2 133.0 L 741.2 135.6 L 740.4 135.6 L 740.4 130.0 " fill="#FF0000"/>
<path class="legend" d="M 699.2 178.7 Q 701.7 178.7, 703.1 180.2 Q 704.4 181.6, 704.4 184.3 Q 704.4 187.0, 703.1 188.5 Q 701.7 190.0, 699.2 190.0 L 695.6 190.0 L 695.6 178.7 L 699.2 178.7 M 699.2 188.7 Q 701.0 188.7, 701.9 187.6 Q 702.8 186.5, 702.8 184.3 Q 702.8 182.1, 701.9 181.0 Q 701.0 180.0, 699.2 180.0 L 697.1 180.0 L 697.1 188.7 L 699.2 188.7 " fill="#000000"/>
<path class="bond-0 atom-0 atom-1" d="M 171.6,314.1 L 162.1,295.9" style="fill:none;fill-rule:evenodd;stroke:#000000;stroke-width:2.0px;stroke-linecap:butt;stroke-linejoin:miter;stroke-opacity:1"/>
<path class="bond-0 atom-0 atom-1" d="M 174.3,312.8 L 164.7,294.5" style="fill:none;fill-rule:evenodd;stroke:#000000;stroke-width:2.0px;stroke-linecap:butt;stroke-linejoin:miter;stroke-opacity:1;stroke-dasharray:6,4"/>
<path class="bond-1 atom-1 atom-2" d="M 163.8,296.0 L 168.0,289.4" style="fill:none;fill-rule:evenodd;stroke:#000000;stroke-width:2.0px;stroke-linecap:butt;stroke-linejoin:miter;stroke-opacity:1"/>
<path class="bond-1 atom-1 atom-2" d="M 168.0,289.4 L 172.1,282.9" style="fill:none;fill-rule:evenodd;stroke:#FF0000;stroke-width:2.0px;stroke-linecap:butt;stroke-linejoin:miter;stroke-opacity:1"/>
<path class="bond-2 atom-1 atom-3" d="M 163.8,296.0 L 144.1,295.1" style="fill:none;fill-rule:evenodd;stroke:#000000;stroke-width:2.0px;stroke-linecap:butt;stroke-linejoin:miter;stroke-opacity:1"/>
<path class="bond-2 atom-1 atom-3" d="M 162.0,298.8 L 145.7,298.2" style="fill:none;fill-rule:evenodd;stroke:#000000;stroke-width:2.0px;stroke-linecap:butt;stroke-linejoin:miter;stroke-opacity:1;stroke-dasharray:6,4"/>
<path class="bond-3 atom-3 atom-4" d="M 144.1,295.1 L 139.9,301.7" style="fill:none;fill-rule:evenodd;stroke:#000000;stroke-width:2.0px;stroke-linecap:butt;stroke-linejoin:miter;stroke-opacity:1"/>
<path class="bond-3 atom-3 atom-4" d="M 139.9,301.7 L 135.7,308.3" style="fill:none;fill-rule:evenodd;stroke:#FF0000;stroke-width:2.0px;stroke-linecap:butt;stroke-linejoin:miter;stroke-opacity:1"/>
<path class="bond-4 atom-3 atom-5" d="M 144.1,295.1 L 135.0,277.6" style="fill:none;fill-rule:evenodd;stroke:#000000;stroke-width:2.0px;stroke-linecap:butt;stroke-linejoin:miter;stroke-opacity:1"/>
<path class="bond-4 atom-3 atom-5" d="M 145.9,292.2 L 138.4,277.8" style="fill:none;fill-rule:evenodd;stroke:#000000;stroke-width:2.0px;stroke-linecap:butt;stroke-linejoin:miter;stroke-opacity:1;stroke-dasharray:6,4"/>
<path class="bond-5 atom-5 atom-6" d="M 135.8,279.2 L 146.8,261.8" style="fill:none;fill-rule:evenodd;stroke:#000000;stroke-width:2.0px;stroke-linecap:butt;stroke-linejoin:miter;stroke-opacity:1"/>
<path class="bond-5 atom-5 atom-6" d="M 133.3,277.6 L 144.3,260.2" style="fill:none;fill-rule:evenodd;stroke:#000000;stroke-width:2.0px;stroke-linecap:butt;stroke-linejoin:miter;stroke-opacity:1;stroke-dasharray:6,4"/>
<path class="bond-6 atom-5 atom-7" d="M 135.0,277.6 L 126.7,277.3" style="fill:none;fill-rule:evenodd;stroke:#000000;stroke-width:2.0px;stroke-linecap:butt;stroke-linejoin:miter;stroke-opacity:1"/>
<path class="bond-6 atom-5 atom-7" d="M 126.7,277.3 L 118.5,276.9" style="fill:none;fill-rule:evenodd;stroke:#FF0000;stroke-width:2.0px;stroke-linecap:butt;stroke-linejoin:miter;stroke-opacity:1"/>
<path class="bond-6 atom-5 atom-7" d="M 133.2,280.5 L 125.8,280.2" style="fill:none;fill-rule:evenodd;stroke:#000000;stroke-width:2.0px;stroke-linecap:butt;stroke-linejoin:miter;stroke-opacity:1;stroke-dasharray:6,4"/>
<path class="bond-6 atom-5 atom-7" d="M 125.8,280.2 L 118.4,279.9" style="fill:none;fill-rule:evenodd;stroke:#FF0000;stroke-width:2.0px;stroke-linecap:butt;stroke-linejoin:miter;stroke-opacity:1;stroke-dasharray:6,4"/>
<path class="bond-7 atom-7 atom-8" d="M 113.0,280.4 L 108.9,286.9" style="fill:none;fill-rule:evenodd;stroke:#FF0000;stroke-width:2.0px;stroke-linecap:butt;stroke-linejoin:miter;stroke-opacity:1"/>
<path class="bond-7 atom-7 atom-8" d="M 108.9,286.9 L 104.7,293.5" style="fill:none;fill-rule:evenodd;stroke:#000000;stroke-width:2.0px;stroke-linecap:butt;stroke-linejoin:miter;stroke-opacity:1"/>
<path class="bond-7 atom-7 atom-8" d="M 115.5,282.0 L 111.8,287.8" style="fill:none;fill-rule:evenodd;stroke:#FF0000;stroke-width:2.0px;stroke-linecap:butt;stroke-linejoin:miter;stroke-opacity:1;stroke-dasharray:6,4"/>
<path class="bond-7 atom-7 atom-8" d="M 111.8,287.8 L 108.1,293.6" style="fill:none;fill-rule:evenodd;stroke:#000000;stroke-width:2.0px;stroke-linecap:butt;stroke-linejoin:miter;stroke-opacity:1;stroke-dasharray:6,4"/>
<path class="bond-8 atom-8 atom-9" d="M 103.0,293.4 L 106.9,300.8" style="fill:none;fill-rule:evenodd;stroke:#000000;stroke-width:2.0px;stroke-linecap:butt;stroke-linejoin:miter;stroke-opacity:1"/>
<path class="bond-8 atom-8 atom-9" d="M 106.9,300.8 L 110.7,308.1" style="fill:none;fill-rule:evenodd;stroke:#FF0000;stroke-width:2.0px;stroke-linecap:butt;stroke-linejoin:miter;stroke-opacity:1"/>
<path class="bond-8 atom-8 atom-9" d="M 105.6,292.0 L 109.5,299.4" style="fill:none;fill-rule:evenodd;stroke:#000000;stroke-width:2.0px;stroke-linecap:butt;stroke-linejoin:miter;stroke-opacity:1"/>
<path class="bond-8 atom-8 atom-9" d="M 109.5,299.4 L 113.3,306.8" style="fill:none;fill-rule:evenodd;stroke:#FF0000;stroke-width:2.0px;stroke-linecap:butt;stroke-linejoin:miter;stroke-opacity:1"/>
<path class="bond-9 atom-8 atom-10" d="M 104.7,293.5 L 85.0,292.6" style="fill:none;fill-rule:evenodd;stroke:#000000;stroke-width:2.0px;stroke-linecap:butt;stroke-linejoin:miter;stroke-opacity:1"/>
<path class="bond-10 atom-10 atom-11" d="M 85.0,292.6 L 74.4,309.3" style="fill:none;fill-rule:evenodd;stroke:#000000;stroke-width:2.0px;stroke-linecap:butt;stroke-linejoin:miter;stroke-opacity:1"/>
<path class="bond-10 atom-10 atom-11" d="M 81.6,292.5 L 72.8,306.2" style="fill:none;fill-rule:evenodd;stroke:#000000;stroke-width:2.0px;stroke-linecap:butt;stroke-linejoin:miter;stroke-opacity:1"/>
<path class="bond-11 atom-11 atom-12" d="M 74.4,309.3 L 54.7,308.4" style="fill:none;fill-rule:evenodd;stroke:#000000;stroke-width:2.0px;stroke-linecap:butt;stroke-linejoin:miter;stroke-opacity:1"/>
<path class="bond-12 atom-12 atom-13" d="M 54.7,308.4 L 50.5,315.0" style="fill:none;fill-rule:evenodd;stroke:#000000;stroke-width:2.0px;stroke-linecap:butt;stroke-linejoin:miter;stroke-opacity:1"/>
<path class="bond-12 atom-12 atom-13" d="M 50.5,315.0 L 46.4,321.6" style="fill:none;fill-rule:evenodd;stroke:#FF0000;stroke-width:2.0px;stroke-linecap:butt;stroke-linejoin:miter;stroke-opacity:1"/>
<path class="bond-13 atom-12 atom-14" d="M 54.7,308.4 L 45.6,291.0" style="fill:none;fill-rule:evenodd;stroke:#000000;stroke-width:2.0px;stroke-linecap:butt;stroke-linejoin:miter;stroke-opacity:1"/>
<path class="bond-13 atom-12 atom-14" d="M 56.6,305.6 L 49.0,291.1" style="fill:none;fill-rule:evenodd;stroke:#000000;stroke-width:2.0px;stroke-linecap:butt;stroke-linejoin:miter;stroke-opacity:1"/>
<path class="bond-14 atom-14 atom-15" d="M 45.6,291.0 L 37.3,290.6" style="fill:none;fill-rule:evenodd;stroke:#000000;stroke-width:2.0px;stroke-linecap:butt;stroke-linejoin:miter;stroke-opacity:1"/>
<path class="bond-14 atom-14 atom-15" d="M 37.3,290.6 L 29.1,290.3" style="fill:none;fill-rule:evenodd;stroke:#FF0000;stroke-width:2.0px;stroke-linecap:butt;stroke-linejoin:miter;stroke-opacity:1"/>
<path class="bond-15 atom-14 atom-16" d="M 45.6,291.0 L 56.2,274.3" style="fill:none;fill-rule:evenodd;stroke:#000000;stroke-width:2.0px;stroke-linecap:butt;stroke-linejoin:miter;stroke-opacity:1"/>
<path class="bond-16 atom-16 atom-17" d="M 56.2,274.3 L 52.5,267.3" style="fill:none;fill-rule:evenodd;stroke:#000000;stroke-width:2.0px;stroke-linecap:butt;stroke-linejoin:miter;stroke-opacity:1"/>
<path class="bond-16 atom-16 atom-17" d="M 52.5,267.3 L 48.9,260.4" style="fill:none;fill-rule:evenodd;stroke:#FF0000;stroke-width:2.0px;stroke-linecap:butt;stroke-linejoin:miter;stroke-opacity:1"/>
<path class="bond-17 atom-16 atom-18" d="M 56.2,274.3 L 75.9,275.1" style="fill:none;fill-rule:evenodd;stroke:#000000;stroke-width:2.0px;stroke-linecap:butt;stroke-linejoin:miter;stroke-opacity:1"/>
<path class="bond-17 atom-16 atom-18" d="M 57.7,277.3 L 74.0,278.0" style="fill:none;fill-rule:evenodd;stroke:#000000;stroke-width:2.0px;stroke-linecap:butt;stroke-linejoin:miter;stroke-opacity:1"/>
<path class="bond-18 atom-18 atom-10" d="M 75.9,275.1 L 85.0,292.6" style="fill:none;fill-rule:evenodd;stroke:#000000;stroke-width:2.0px;stroke-linecap:butt;stroke-linejoin:miter;stroke-opacity:1"/>
<path d="M 104.9,293.1 L 104.7,293.5 L 103.7,293.4" style="fill:none;stroke:#000000;stroke-width:2.0px;stroke-linecap:butt;stroke-linejoin:miter;stroke-opacity:1;"/>
<path d="M 75.0,308.4 L 74.4,309.3 L 73.4,309.2" style="fill:none;stroke:#000000;stroke-width:2.0px;stroke-linecap:butt;stroke-linejoin:miter;stroke-opacity:1;"/>
<path d="M 74.9,275.1 L 75.9,275.1 L 76.3,276.0" style="fill:none;stroke:#000000;stroke-width:2.0px;stroke-linecap:butt;stroke-linejoin:miter;stroke-opacity:1;"/>
<path class="atom-2" d="M 171.8 279.3 Q 171.8 278.0, 172.5 277.2 Q 173.2 276.5, 174.4 276.5 Q 175.6 276.5, 176.3 277.2 Q 177.0 278.0, 177.0 279.3 Q 177.0 280.7, 176.3 281.5 Q 175.6 282.2, 174.4 282.2 Q 173.2 282.2, 172.5 281.5 Q 171.8 280.7, 171.8 279.3 M 174.4 281.6 Q 175.2 281.6, 175.7 281.0 Q 176.2 280.4, 176.2 279.3 Q 176.2 278.2, 175.7 277.7 Q 175.2 277.1, 174.4 277.1 Q 173.5 277.1, 173.1 277.7 Q 172.6 278.2, 172.6 279.3 Q 172.6 280.5, 173.1 281.0 Q 173.5 281.6, 174.4 281.6 " fill="#FF0000"/>
<path class="atom-2" d="M 177.8 276.6 L 178.6 276.6 L 178.6 278.9 L 181.4 278.9 L 181.4 276.6 L 182.2 276.6 L 182.2 282.1 L 181.4 282.1 L 181.4 279.6 L 178.6 279.6 L 178.6 282.1 L 177.8 282.1 L 177.8 276.6 " fill="#FF0000"/>
<path class="atom-4" d="M 125.5 309.0 L 126.2 309.0 L 126.2 311.4 L 129.1 311.4 L 129.1 309.0 L 129.8 309.0 L 129.8 314.6 L 129.1 314.6 L 129.1 312.0 L 126.2 312.0 L 126.2 314.6 L 125.5 314.6 L 125.5 309.0 " fill="#FF0000"/>
<path class="atom-4" d="M 131.0 311.8 Q 131.0 310.4, 131.6 309.7 Q 132.3 308.9, 133.5 308.9 Q 134.8 308.9, 135.4 309.7 Q 136.1 310.4, 136.1 311.8 Q 136.1 313.1, 135.4 313.9 Q 134.8 314.7, 133.5 314.7 Q 132.3 314.7, 131.6 313.9 Q 131.0 313.2, 131.0 311.8 M 133.5 314.1 Q 134.4 314.1, 134.8 313.5 Q 135.3 312.9, 135.3 311.8 Q 135.3 310.7, 134.8 310.1 Q 134.4 309.6, 133.5 309.6 Q 132.7 309.6, 132.2 310.1 Q 131.8 310.7, 131.8 311.8 Q 131.8 312.9, 132.2 313.5 Q 132.7 314.1, 133.5 314.1 " fill="#FF0000"/>
<path class="atom-7" d="M 112.7 276.8 Q 112.7 275.5, 113.4 274.7 Q 114.0 274.0, 115.3 274.0 Q 116.5 274.0, 117.2 274.7 Q 117.8 275.5, 117.8 276.8 Q 117.8 278.2, 117.2 279.0 Q 116.5 279.7, 115.3 279.7 Q 114.0 279.7, 113.4 279.0 Q 112.7 278.2, 112.7 276.8 M 115.3 279.1 Q 116.1 279.1, 116.6 278.5 Q 117.1 277.9, 117.1 276.8 Q 117.1 275.7, 116.6 275.2 Q 116.1 274.6, 115.3 274.6 Q 114.4 274.6, 114.0 275.2 Q 113.5 275.7, 113.5 276.8 Q 113.5 278.0, 114.0 278.5 Q 114.4 279.1, 115.3 279.1 " fill="#FF0000"/>
<path class="atom-9" d="M 111.3 311.0 Q 111.3 309.6, 111.9 308.9 Q 112.6 308.1, 113.8 308.1 Q 115.1 308.1, 115.7 308.9 Q 116.4 309.6, 116.4 311.0 Q 116.4 312.3, 115.7 313.1 Q 115.1 313.9, 113.8 313.9 Q 112.6 313.9, 111.9 313.1 Q 111.3 312.3, 111.3 311.0 M 113.8 313.2 Q 114.7 313.2, 115.1 312.7 Q 115.6 312.1, 115.6 311.0 Q 115.6 309.9, 115.1 309.3 Q 114.7 308.7, 113.8 308.7 Q 113.0 308.7, 112.5 309.3 Q 112.1 309.9, 112.1 311.0 Q 112.1 312.1, 112.5 312.7 Q 113.0 313.2, 113.8 313.2 " fill="#FF0000"/>
<path class="atom-13" d="M 36.1 322.3 L 36.8 322.3 L 36.8 324.7 L 39.7 324.7 L 39.7 322.3 L 40.4 322.3 L 40.4 327.9 L 39.7 327.9 L 39.7 325.3 L 36.8 325.3 L 36.8 327.9 L 36.1 327.9 L 36.1 322.3 " fill="#FF0000"/>
<path class="atom-13" d="M 41.6 325.1 Q 41.6 323.8, 42.2 323.0 Q 42.9 322.3, 44.1 322.3 Q 45.4 322.3, 46.0 323.0 Q 46.7 323.8, 46.7 325.1 Q 46.7 326.5, 46.0 327.2 Q 45.4 328.0, 44.1 328.0 Q 42.9 328.0, 42.2 327.2 Q 41.6 326.5, 41.6 325.1 M 44.1 327.4 Q 45.0 327.4, 45.5 326.8 Q 45.9 326.2, 45.9 325.1 Q 45.9 324.0, 45.5 323.5 Q 45.0 322.9, 44.1 322.9 Q 43.3 322.9, 42.8 323.4 Q 42.4 324.0, 42.4 325.1 Q 42.4 326.2, 42.8 326.8 Q 43.3 327.4, 44.1 327.4 " fill="#FF0000"/>
<path class="atom-15" d="M 17.8 287.4 L 18.6 287.4 L 18.6 289.7 L 21.4 289.7 L 21.4 287.4 L 22.2 287.4 L 22.2 292.9 L 21.4 292.9 L 21.4 290.4 L 18.6 290.4 L 18.6 292.9 L 17.8 292.9 L 17.8 287.4 " fill="#FF0000"/>
<path class="atom-15" d="M 23.3 290.1 Q 23.3 288.8, 24.0 288.0 Q 24.6 287.3, 25.9 287.3 Q 27.1 287.3, 27.8 288.0 Q 28.4 288.8, 28.4 290.1 Q 28.4 291.5, 27.8 292.3 Q 27.1 293.0, 25.9 293.0 Q 24.7 293.0, 24.0 292.3 Q 23.3 291.5, 23.3 290.1 M 25.9 292.4 Q 26.7 292.4, 27.2 291.8 Q 27.7 291.3, 27.7 290.1 Q 27.7 289.0, 27.2 288.5 Q 26.7 287.9, 25.9 287.9 Q 25.0 287.9, 24.6 288.5 Q 24.1 289.0, 24.1 290.1 Q 24.1 291.3, 24.6 291.8 Q 25.0 292.4, 25.9 292.4 " fill="#FF0000"/>
<path class="atom-17" d="M 39.0 254.1 L 39.7 254.1 L 39.7 256.4 L 42.6 256.4 L 42.6 254.1 L 43.3 254.1 L 43.3 259.7 L 42.6 259.7 L 42.6 257.1 L 39.7 257.1 L 39.7 259.7 L 39.0 259.7 L 39.0 254.1 " fill="#FF0000"/>
<path class="atom-17" d="M 44.5 256.8 Q 44.5 255.5, 45.1 254.8 Q 45.8 254.0, 47.0 254.0 Q 48.3 254.0, 48.9 254.8 Q 49.6 255.5, 49.6 256.8 Q 49.6 258.2, 48.9 259.0 Q 48.3 259.7, 47.0 259.7 Q 45.8 259.7, 45.1 259.0 Q 44.5 258.2, 44.5 256.8 M 47.0 259.1 Q 47.9 259.1, 48.3 258.5 Q 48.8 258.0, 48.8 256.8 Q 48.8 255.7, 48.3 255.2 Q 47.9 254.6, 47.0 254.6 Q 46.2 254.6, 45.7 255.2 Q 45.3 255.7, 45.3 256.8 Q 45.3 258.0, 45.7 258.5 Q 46.2 259.1, 47.0 259.1 " fill="#FF0000"/>
<path class="legend" d="M 96.5 378.7 L 103.3 378.7 L 103.3 380.0 L 98.1 380.0 L 98.1 383.4 L 102.8 383.4 L 102.8 384.7 L 98.1 384.7 L 98.1 388.7 L 103.5 388.7 L 103.5 390.0 L 96.5 390.0 L 96.5 378.7 " fill="#000000"/>
</svg>