<svg xmlns="http://www.w3.org/2000/svg" xmlns:rdkit="http://www.rdkit.org/xml" xmlns:xlink="http://www.w3.org/1999/xlink" version="1.1" baseProfile="full" xml:space="preserve" width="800px" height="200px" viewBox="0 0 800 200">
<!-- END OF HEADER -->
<rect style="opacity:1.0;fill:#FFFFFF;stroke:none" width="800.0" height="200.0" x="0.0" y="0.0"> </rect>
<path class="bond-0 atom-0 atom-1" d="M 60.8,97.9 L 63.8,97.1" style="fill:none;fill-rule:evenodd;stroke:#000000;stroke-width:2.0px;stroke-linecap:butt;stroke-linejoin:miter;stroke-opacity:1"/>
<path class="bond-0 atom-0 atom-1" d="M 63.8,97.1 L 66.9,96.2" style="fill:none;fill-rule:evenodd;stroke:#FF0000;stroke-width:2.0px;stroke-linecap:butt;stroke-linejoin:miter;stroke-opacity:1"/>
<path class="bond-1 atom-1 atom-2" d="M 71.3,97.8 L 73.3,99.7" style="fill:none;fill-rule:evenodd;stroke:#FF0000;stroke-width:2.0px;stroke-linecap:butt;stroke-linejoin:miter;stroke-opacity:1"/>
<path class="bond-1 atom-1 atom-2" d="M 73.3,99.7 L 75.2,101.7" style="fill:none;fill-rule:evenodd;stroke:#000000;stroke-width:2.0px;stroke-linecap:butt;stroke-linejoin:miter;stroke-opacity:1"/>
<path class="bond-2 atom-2 atom-3" d="M 75.2,101.7 L 83.5,99.4" style="fill:none;fill-rule:evenodd;stroke:#000000;stroke-width:2.0px;stroke-linecap:butt;stroke-linejoin:miter;stroke-opacity:1"/>
<path class="bond-3 atom-3 atom-4" d="M 83.5,99.4 L 85.7,91.0" style="fill:none;fill-rule:evenodd;stroke:#000000;stroke-width:2.0px;stroke-linecap:butt;stroke-linejoin:miter;stroke-opacity:1"/>
<path class="bond-3 atom-3 atom-4" d="M 85.0,99.0 L 86.7,92.1" style="fill:none;fill-rule:evenodd;stroke:#000000;stroke-width:2.0px;stroke-linecap:butt;stroke-linejoin:miter;stroke-opacity:1"/>
<path class="bond-4 atom-4 atom-5" d="M 85.7,91.0 L 79.5,85.0" style="fill:none;fill-rule:evenodd;stroke:#000000;stroke-width:2.0px;stroke-linecap:butt;stroke-linejoin:miter;stroke-opacity:1"/>
<path class="bond-5 atom-5 atom-6" d="M 79.5,85.0 L 81.7,76.7" style="fill:none;fill-rule:evenodd;stroke:#000000;stroke-width:2.0px;stroke-linecap:butt;stroke-linejoin:miter;stroke-opacity:1"/>
<path class="bond-5 atom-5 atom-6" d="M 78.5,84.0 L 80.3,77.1" style="fill:none;fill-rule:evenodd;stroke:#000000;stroke-width:2.0px;stroke-linecap:butt;stroke-linejoin:miter;stroke-opacity:1;stroke-dasharray:6,4"/>
<path class="bond-6 atom-6 atom-7" d="M 81.7,76.7 L 75.6,70.6" style="fill:none;fill-rule:evenodd;stroke:#000000;stroke-width:2.0px;stroke-linecap:butt;stroke-linejoin:miter;stroke-opacity:1"/>
<path class="bond-6 atom-6 atom-7" d="M 80.3,77.1 L 74.7,71.6" style="fill:none;fill-rule:evenodd;stroke:#000000;stroke-width:2.0px;stroke-linecap:butt;stroke-linejoin:miter;stroke-opacity:1;stroke-dasharray:6,4"/>
<path class="bond-7 atom-7 atom-8" d="M 75.6,70.6 L 77.7,62.3" style="fill:none;fill-rule:evenodd;stroke:#000000;stroke-width:2.0px;stroke-linecap:butt;stroke-linejoin:miter;stroke-opacity:1"/>
<path class="bond-7 atom-7 atom-8" d="M 77.0,70.2 L 79.0,62.6" style="fill:none;fill-rule:evenodd;stroke:#000000;stroke-width:2.0px;stroke-linecap:butt;stroke-linejoin:miter;stroke-opacity:1;stroke-dasharray:6,4"/>
<path class="bond-8 atom-5 atom-9" d="M 79.5,85.0 L 76.5,85.8" style="fill:none;fill-rule:evenodd;stroke:#000000;stroke-width:2.0px;stroke-linecap:butt;stroke-linejoin:miter;stroke-opacity:1"/>
<path class="bond-8 atom-5 atom-9" d="M 76.5,85.8 L 73.5,86.7" style="fill:none;fill-rule:evenodd;stroke:#FF0000;stroke-width:2.0px;stroke-linecap:butt;stroke-linejoin:miter;stroke-opacity:1"/>
<path class="bond-8 atom-5 atom-9" d="M 79.2,83.8 L 76.2,84.6" style="fill:none;fill-rule:evenodd;stroke:#000000;stroke-width:2.0px;stroke-linecap:butt;stroke-linejoin:miter;stroke-opacity:1;stroke-dasharray:6,4"/>
<path class="bond-8 atom-5 atom-9" d="M 76.2,84.6 L 73.1,85.4" style="fill:none;fill-rule:evenodd;stroke:#FF0000;stroke-width:2.0px;stroke-linecap:butt;stroke-linejoin:miter;stroke-opacity:1;stroke-dasharray:6,4"/>
<path class="bond-9 atom-9 atom-10" d="M 69.5,84.6 L 67.5,82.7" style="fill:none;fill-rule:evenodd;stroke:#FF0000;stroke-width:2.0px;stroke-linecap:butt;stroke-linejoin:miter;stroke-opacity:1"/>
<path class="bond-9 atom-9 atom-10" d="M 67.5,82.7 L 65.6,80.8" style="fill:none;fill-rule:evenodd;stroke:#000000;stroke-width:2.0px;stroke-linecap:butt;stroke-linejoin:miter;stroke-opacity:1"/>
<path class="bond-9 atom-9 atom-10" d="M 68.6,85.6 L 66.6,83.6" style="fill:none;fill-rule:evenodd;stroke:#FF0000;stroke-width:2.0px;stroke-linecap:butt;stroke-linejoin:miter;stroke-opacity:1;stroke-dasharray:6,4"/>
<path class="bond-9 atom-9 atom-10" d="M 66.6,83.6 L 64.7,81.7" style="fill:none;fill-rule:evenodd;stroke:#000000;stroke-width:2.0px;stroke-linecap:butt;stroke-linejoin:miter;stroke-opacity:1;stroke-dasharray:6,4"/>
<path class="bond-10 atom-4 atom-11" d="M 85.7,91.0 L 88.7,90.2" style="fill:none;fill-rule:evenodd;stroke:#000000;stroke-width:2.0px;stroke-linecap:butt;stroke-linejoin:miter;stroke-opacity:1"/>
<path class="bond-10 atom-4 atom-11" d="M 88.7,90.2 L 91.7,89.4" style="fill:none;fill-rule:evenodd;stroke:#FF0000;stroke-width:2.0px;stroke-linecap:butt;stroke-linejoin:miter;stroke-opacity:1"/>
<path class="bond-11 atom-11 atom-12" d="M 96.2,90.9 L 98.1,92.9" style="fill:none;fill-rule:evenodd;stroke:#FF0000;stroke-width:2.0px;stroke-linecap:butt;stroke-linejoin:miter;stroke-opacity:1"/>
<path class="bond-11 atom-11 atom-12" d="M 98.1,92.9 L 100.1,94.8" style="fill:none;fill-rule:evenodd;stroke:#000000;stroke-width:2.0px;stroke-linecap:butt;stroke-linejoin:miter;stroke-opacity:1"/>
<path class="bond-12 atom-12 atom-13" d="M 100.1,94.8 L 108.4,92.5" style="fill:none;fill-rule:evenodd;stroke:#000000;stroke-width:2.0px;stroke-linecap:butt;stroke-linejoin:miter;stroke-opacity:1"/>
<path class="bond-13 atom-13 atom-14" d="M 108.4,92.5 L 114.5,98.5" style="fill:none;fill-rule:evenodd;stroke:#000000;stroke-width:2.0px;stroke-linecap:butt;stroke-linejoin:miter;stroke-opacity:1"/>
<path class="bond-13 atom-13 atom-14" d="M 109.8,92.1 L 114.9,97.1" style="fill:none;fill-rule:evenodd;stroke:#000000;stroke-width:2.0px;stroke-linecap:butt;stroke-linejoin:miter;stroke-opacity:1"/>
<path class="bond-14 atom-14 atom-15" d="M 114.5,98.5 L 122.8,96.2" style="fill:none;fill-rule:evenodd;stroke:#000000;stroke-width:2.0px;stroke-linecap:butt;stroke-linejoin:miter;stroke-opacity:1"/>
<path class="bond-15 atom-15 atom-16" d="M 122.8,96.2 L 125.0,87.9" style="fill:none;fill-rule:evenodd;stroke:#000000;stroke-width:2.0px;stroke-linecap:butt;stroke-linejoin:miter;stroke-opacity:1"/>
<path class="bond-15 atom-15 atom-16" d="M 121.7,95.2 L 123.5,88.3" style="fill:none;fill-rule:evenodd;stroke:#000000;stroke-width:2.0px;stroke-linecap:butt;stroke-linejoin:miter;stroke-opacity:1"/>
<path class="bond-16 atom-16 atom-17" d="M 125.0,87.9 L 128.0,87.1" style="fill:none;fill-rule:evenodd;stroke:#000000;stroke-width:2.0px;stroke-linecap:butt;stroke-linejoin:miter;stroke-opacity:1"/>
<path class="bond-16 atom-16 atom-17" d="M 128.0,87.1 L 131.0,86.2" style="fill:none;fill-rule:evenodd;stroke:#FF0000;stroke-width:2.0px;stroke-linecap:butt;stroke-linejoin:miter;stroke-opacity:1"/>
<path class="bond-17 atom-16 atom-18" d="M 125.0,87.9 L 118.8,81.9" style="fill:none;fill-rule:evenodd;stroke:#000000;stroke-width:2.0px;stroke-linecap:butt;stroke-linejoin:miter;stroke-opacity:1"/>
<path class="bond-18 atom-18 atom-19" d="M 118.8,81.9 L 119.6,79.0" style="fill:none;fill-rule:evenodd;stroke:#000000;stroke-width:2.0px;stroke-linecap:butt;stroke-linejoin:miter;stroke-opacity:1"/>
<path class="bond-18 atom-18 atom-19" d="M 119.6,79.0 L 120.4,76.0" style="fill:none;fill-rule:evenodd;stroke:#FF0000;stroke-width:2.0px;stroke-linecap:butt;stroke-linejoin:miter;stroke-opacity:1"/>
<path class="bond-19 atom-19 atom-20" d="M 118.8,71.3 L 116.8,69.4" style="fill:none;fill-rule:evenodd;stroke:#FF0000;stroke-width:2.0px;stroke-linecap:butt;stroke-linejoin:miter;stroke-opacity:1"/>
<path class="bond-19 atom-19 atom-20" d="M 116.8,69.4 L 114.9,67.5" style="fill:none;fill-rule:evenodd;stroke:#000000;stroke-width:2.0px;stroke-linecap:butt;stroke-linejoin:miter;stroke-opacity:1"/>
<path class="bond-20 atom-18 atom-21" d="M 118.8,81.9 L 110.5,84.2" style="fill:none;fill-rule:evenodd;stroke:#000000;stroke-width:2.0px;stroke-linecap:butt;stroke-linejoin:miter;stroke-opacity:1"/>
<path class="bond-20 atom-18 atom-21" d="M 118.5,83.3 L 111.6,85.2" style="fill:none;fill-rule:evenodd;stroke:#000000;stroke-width:2.0px;stroke-linecap:butt;stroke-linejoin:miter;stroke-opacity:1"/>
<path class="bond-21 atom-12 atom-22" d="M 100.1,94.8 L 97.9,103.1" style="fill:none;fill-rule:evenodd;stroke:#000000;stroke-width:2.0px;stroke-linecap:butt;stroke-linejoin:miter;stroke-opacity:1"/>
<path class="bond-22 atom-22 atom-23" d="M 97.9,103.1 L 104.1,109.1" style="fill:none;fill-rule:evenodd;stroke:#000000;stroke-width:2.0px;stroke-linecap:butt;stroke-linejoin:miter;stroke-opacity:1"/>
<path class="bond-23 atom-23 atom-24" d="M 104.1,109.1 L 103.3,112.1" style="fill:none;fill-rule:evenodd;stroke:#000000;stroke-width:2.0px;stroke-linecap:butt;stroke-linejoin:miter;stroke-opacity:1"/>
<path class="bond-23 atom-23 atom-24" d="M 103.3,112.1 L 102.5,115.0" style="fill:none;fill-rule:evenodd;stroke:#FF0000;stroke-width:2.0px;stroke-linecap:butt;stroke-linejoin:miter;stroke-opacity:1"/>
<path class="bond-24 atom-22 atom-25" d="M 97.9,103.1 L 94.9,103.9" style="fill:none;fill-rule:evenodd;stroke:#000000;stroke-width:2.0px;stroke-linecap:butt;stroke-linejoin:miter;stroke-opacity:1"/>
<path class="bond-24 atom-22 atom-25" d="M 94.9,103.9 L 91.9,104.8" style="fill:none;fill-rule:evenodd;stroke:#FF0000;stroke-width:2.0px;stroke-linecap:butt;stroke-linejoin:miter;stroke-opacity:1"/>
<path class="bond-25 atom-25 atom-3" d="M 87.4,103.2 L 85.5,101.3" style="fill:none;fill-rule:evenodd;stroke:#FF0000;stroke-width:2.0px;stroke-linecap:butt;stroke-linejoin:miter;stroke-opacity:1"/>
<path class="bond-25 atom-25 atom-3" d="M 85.5,101.3 L 83.5,99.4" style="fill:none;fill-rule:evenodd;stroke:#000000;stroke-width:2.0px;stroke-linecap:butt;stroke-linejoin:miter;stroke-opacity:1"/>
<path class="bond-26 atom-21 atom-13" d="M 110.5,84.2 L 108.4,92.5" style="fill:none;fill-rule:evenodd;stroke:#000000;stroke-width:2.0px;stroke-linecap:butt;stroke-linejoin:miter;stroke-opacity:1"/>
<path d="M 75.1,101.6 L 75.2,101.7 L 75.6,101.5" style="fill:none;stroke:#000000;stroke-width:2.0px;stroke-linecap:butt;stroke-linejoin:miter;stroke-opacity:1;"/>
<path d="M 81.6,77.1 L 81.7,76.7 L 81.4,76.4" style="fill:none;stroke:#000000;stroke-width:2.0px;stroke-linecap:butt;stroke-linejoin:miter;stroke-opacity:1;"/>
<path d="M 75.9,70.9 L 75.6,70.6 L 75.7,70.2" style="fill:none;stroke:#000000;stroke-width:2.0px;stroke-linecap:butt;stroke-linejoin:miter;stroke-opacity:1;"/>
<path d="M 114.2,98.2 L 114.5,98.5 L 114.9,98.4" style="fill:none;stroke:#000000;stroke-width:2.0px;stroke-linecap:butt;stroke-linejoin:miter;stroke-opacity:1;"/>
<path d="M 122.4,96.3 L 122.8,96.2 L 122.9,95.8" style="fill:none;stroke:#000000;stroke-width:2.0px;stroke-linecap:butt;stroke-linejoin:miter;stroke-opacity:1;"/>
<path d="M 111.0,84.1 L 110.5,84.2 L 110.4,84.6" style="fill:none;stroke:#000000;stroke-width:2.0px;stroke-linecap:butt;stroke-linejoin:miter;stroke-opacity:1;"/>
<path d="M 103.8,108.8 L 104.1,109.1 L 104.0,109.3" style="fill:none;stroke:#000000;stroke-width:2.0px;stroke-linecap:butt;stroke-linejoin:miter;stroke-opacity:1;"/>
<path class="atom-1" d="M 67.1 95.6 Q 67.1 94.6, 67.6 94.0 Q 68.2 93.5, 69.1 93.5 Q 70.0 93.5, 70.5 94.0 Q 71.0 94.6, 71.0 95.6 Q 71.0 96.7, 70.5 97.3 Q 70.0 97.8, 69.1 97.8 Q 68.2 97.8, 67.6 97.3 Q 67.1 96.7, 67.1 95.6 M 69.1 97.4 Q 69.7 97.4, 70.1 96.9 Q 70.4 96.5, 70.4 95.6 Q 70.4 94.8, 70.1 94.4 Q 69.7 94.0, 69.1 94.0 Q 68.4 94.0, 68.1 94.4 Q 67.7 94.8, 67.7 95.6 Q 67.7 96.5, 68.1 96.9 Q 68.4 97.4, 69.1 97.4 " fill="#FF0000"/>
<path class="atom-9" d="M 69.3 87.3 Q 69.3 86.3, 69.8 85.7 Q 70.3 85.1, 71.3 85.1 Q 72.2 85.1, 72.7 85.7 Q 73.2 86.3, 73.2 87.3 Q 73.2 88.3, 72.7 88.9 Q 72.2 89.5, 71.3 89.5 Q 70.3 89.5, 69.8 88.9 Q 69.3 88.3, 69.3 87.3 M 71.3 89.0 Q 71.9 89.0, 72.3 88.6 Q 72.6 88.2, 72.6 87.3 Q 72.6 86.5, 72.3 86.1 Q 71.9 85.6, 71.3 85.6 Q 70.6 85.6, 70.3 86.0 Q 69.9 86.5, 69.9 87.3 Q 69.9 88.2, 70.3 88.6 Q 70.6 89.0, 71.3 89.0 " fill="#FF0000"/>
<path class="atom-11" d="M 92.0 88.8 Q 92.0 87.7, 92.5 87.2 Q 93.0 86.6, 94.0 86.6 Q 94.9 86.6, 95.4 87.2 Q 95.9 87.7, 95.9 88.8 Q 95.9 89.8, 95.4 90.4 Q 94.9 91.0, 94.0 91.0 Q 93.0 91.0, 92.5 90.4 Q 92.0 89.8, 92.0 88.8 M 94.0 90.5 Q 94.6 90.5, 95.0 90.0 Q 95.3 89.6, 95.3 88.8 Q 95.3 87.9, 95.0 87.5 Q 94.6 87.1, 94.0 87.1 Q 93.3 87.1, 93.0 87.5 Q 92.6 87.9, 92.6 88.8 Q 92.6 89.6, 93.0 90.0 Q 93.3 90.5, 94.0 90.5 " fill="#FF0000"/>
<path class="atom-17" d="M 131.3 85.6 Q 131.3 84.6, 131.8 84.0 Q 132.3 83.5, 133.3 83.5 Q 134.2 83.5, 134.7 84.0 Q 135.2 84.6, 135.2 85.6 Q 135.2 86.7, 134.7 87.2 Q 134.2 87.8, 133.3 87.8 Q 132.3 87.8, 131.8 87.2 Q 131.3 86.7, 131.3 85.6 M 133.3 87.4 Q 133.9 87.4, 134.3 86.9 Q 134.6 86.5, 134.6 85.6 Q 134.6 84.8, 134.3 84.4 Q 133.9 83.9, 133.3 83.9 Q 132.6 83.9, 132.3 84.4 Q 131.9 84.8, 131.9 85.6 Q 131.9 86.5, 132.3 86.9 Q 132.6 87.4, 133.3 87.4 " fill="#FF0000"/>
<path class="atom-17" d="M 135.9 83.5 L 136.4 83.5 L 136.4 85.3 L 138.6 85.3 L 138.6 83.5 L 139.2 83.5 L 139.2 87.8 L 138.6 87.8 L 138.6 85.8 L 136.4 85.8 L 136.4 87.8 L 135.9 87.8 L 135.9 83.5 " fill="#FF0000"/>
<path class="atom-19" d="M 119.1 73.6 Q 119.1 72.5, 119.6 72.0 Q 120.1 71.4, 121.0 71.4 Q 121.9 71.4, 122.4 72.0 Q 123.0 72.5, 123.0 73.6 Q 123.0 74.6, 122.4 75.2 Q 121.9 75.8, 121.0 75.8 Q 120.1 75.8, 119.6 75.2 Q 119.1 74.6, 119.1 73.6 M 121.0 75.3 Q 121.6 75.3, 122.0 74.8 Q 122.4 74.4, 122.4 73.6 Q 122.4 72.7, 122.0 72.3 Q 121.6 71.9, 121.0 71.9 Q 120.4 71.9, 120.0 72.3 Q 119.7 72.7, 119.7 73.6 Q 119.7 74.4, 120.0 74.8 Q 120.4 75.3, 121.0 75.3 " fill="#FF0000"/>
<path class="atom-24" d="M 100.0 117.5 Q 100.0 116.5, 100.5 115.9 Q 101.0 115.3, 101.9 115.3 Q 102.8 115.3, 103.4 115.9 Q 103.9 116.5, 103.9 117.5 Q 103.9 118.5, 103.3 119.1 Q 102.8 119.7, 101.9 119.7 Q 101.0 119.7, 100.5 119.1 Q 100.0 118.5, 100.0 117.5 M 101.9 119.2 Q 102.6 119.2, 102.9 118.8 Q 103.3 118.3, 103.3 117.5 Q 103.3 116.6, 102.9 116.2 Q 102.6 115.8, 101.9 115.8 Q 101.3 115.8, 100.9 116.2 Q 100.6 116.6, 100.6 117.5 Q 100.6 118.3, 100.9 118.8 Q 101.3 119.2, 101.9 119.2 " fill="#FF0000"/>
<path class="atom-24" d="M 104.5 115.4 L 105.1 115.4 L 105.1 117.2 L 107.3 117.2 L 107.3 115.4 L 107.8 115.4 L 107.8 119.6 L 107.3 119.6 L 107.3 117.7 L 105.1 117.7 L 105.1 119.6 L 104.5 119.6 L 104.5 115.4 " fill="#FF0000"/>
<path class="atom-25" d="M 87.7 105.4 Q 87.7 104.4, 88.2 103.8 Q 88.7 103.3, 89.6 103.3 Q 90.6 103.3, 91.1 103.8 Q 91.6 104.4, 91.6 105.4 Q 91.6 106.4, 91.1 107.0 Q 90.6 107.6, 89.6 107.6 Q 88.7 107.6, 88.2 107.0 Q 87.7 106.4, 87.7 105.4 M 89.6 107.1 Q 90.3 107.1, 90.6 106.7 Q 91.0 106.3, 91.0 105.4 Q 91.0 104.6, 90.6 104.2 Q 90.3 103.7, 89.6 103.7 Q 89.0 103.7, 88.6 104.2 Q 88.3 104.6, 88.3 105.4 Q 88.3 106.3, 88.6 106.7 Q 89.0 107.1, 89.6 107.1 " fill="#FF0000"/>
<path class="legend" d="M 103.4 190.0 L 102.2 186.7 L 97.8 186.7 L 96.6 190.0 L 95.1 190.0 L 99.0 178.7 L 100.9 178.7 L 104.9 190.0 L 103.4 190.0 M 98.2 185.4 L 101.8 185.4 L 100.0 180.3 L 98.2 185.4 " fill="#000000"/>
<path class="bond-0 atom-0 atom-1" d="M 340.4,102.3 L 340.6,99.2" style="fill:none;fill-rule:evenodd;stroke:#FF0000;stroke-width:2.0px;stroke-linecap:butt;stroke-linejoin:miter;stroke-opacity:1"/>
<path class="bond-0 atom-0 atom-1" d="M 340.6,99.2 L 340.8,96.1" style="fill:none;fill-rule:evenodd;stroke:#000000;stroke-width:2.0px;stroke-linecap:butt;stroke-linejoin:miter;stroke-opacity:1"/>
<path class="bond-1 atom-1 atom-2" d="M 340.8,96.1 L 348.6,92.4" style="fill:none;fill-rule:evenodd;stroke:#000000;stroke-width:2.0px;stroke-linecap:butt;stroke-linejoin:miter;stroke-opacity:1"/>
<path class="bond-2 atom-2 atom-3" d="M 348.6,92.4 L 355.7,97.2" style="fill:none;fill-rule:evenodd;stroke:#000000;stroke-width:2.0px;stroke-linecap:butt;stroke-linejoin:miter;stroke-opacity:1"/>
<path class="bond-2 atom-2 atom-3" d="M 348.4,93.8 L 354.9,98.3" style="fill:none;fill-rule:evenodd;stroke:#000000;stroke-width:2.0px;stroke-linecap:butt;stroke-linejoin:miter;stroke-opacity:1"/>
<path class="bond-3 atom-3 atom-4" d="M 355.7,97.2 L 363.4,93.4" style="fill:none;fill-rule:evenodd;stroke:#000000;stroke-width:2.0px;stroke-linecap:butt;stroke-linejoin:miter;stroke-opacity:1"/>
<path class="bond-4 atom-4 atom-5" d="M 363.4,93.4 L 370.5,98.3" style="fill:none;fill-rule:evenodd;stroke:#000000;stroke-width:2.0px;stroke-linecap:butt;stroke-linejoin:miter;stroke-opacity:1"/>
<path class="bond-4 atom-4 atom-5" d="M 364.8,92.8 L 370.6,96.8" style="fill:none;fill-rule:evenodd;stroke:#000000;stroke-width:2.0px;stroke-linecap:butt;stroke-linejoin:miter;stroke-opacity:1"/>
<path class="bond-5 atom-5 atom-6" d="M 370.5,98.3 L 378.3,94.5" style="fill:none;fill-rule:evenodd;stroke:#000000;stroke-width:2.0px;stroke-linecap:butt;stroke-linejoin:miter;stroke-opacity:1"/>
<path class="bond-6 atom-6 atom-7" d="M 378.3,94.5 L 378.9,86.0" style="fill:none;fill-rule:evenodd;stroke:#000000;stroke-width:2.0px;stroke-linecap:butt;stroke-linejoin:miter;stroke-opacity:1"/>
<path class="bond-6 atom-6 atom-7" d="M 377.0,93.7 L 377.6,86.6" style="fill:none;fill-rule:evenodd;stroke:#000000;stroke-width:2.0px;stroke-linecap:butt;stroke-linejoin:miter;stroke-opacity:1"/>
<path class="bond-7 atom-7 atom-8" d="M 378.9,86.0 L 381.7,84.6" style="fill:none;fill-rule:evenodd;stroke:#000000;stroke-width:2.0px;stroke-linecap:butt;stroke-linejoin:miter;stroke-opacity:1"/>
<path class="bond-7 atom-7 atom-8" d="M 381.7,84.6 L 384.4,83.3" style="fill:none;fill-rule:evenodd;stroke:#FF0000;stroke-width:2.0px;stroke-linecap:butt;stroke-linejoin:miter;stroke-opacity:1"/>
<path class="bond-8 atom-7 atom-9" d="M 378.9,86.0 L 371.8,81.1" style="fill:none;fill-rule:evenodd;stroke:#000000;stroke-width:2.0px;stroke-linecap:butt;stroke-linejoin:miter;stroke-opacity:1"/>
<path class="bond-9 atom-9 atom-10" d="M 371.8,81.1 L 364.0,84.9" style="fill:none;fill-rule:evenodd;stroke:#000000;stroke-width:2.0px;stroke-linecap:butt;stroke-linejoin:miter;stroke-opacity:1"/>
<path class="bond-9 atom-9 atom-10" d="M 371.7,82.6 L 365.3,85.7" style="fill:none;fill-rule:evenodd;stroke:#000000;stroke-width:2.0px;stroke-linecap:butt;stroke-linejoin:miter;stroke-opacity:1"/>
<path class="bond-10 atom-1 atom-11" d="M 340.8,96.1 L 338.2,94.3" style="fill:none;fill-rule:evenodd;stroke:#000000;stroke-width:2.0px;stroke-linecap:butt;stroke-linejoin:miter;stroke-opacity:1"/>
<path class="bond-10 atom-1 atom-11" d="M 338.2,94.3 L 335.6,92.6" style="fill:none;fill-rule:evenodd;stroke:#0000FF;stroke-width:2.0px;stroke-linecap:butt;stroke-linejoin:miter;stroke-opacity:1"/>
<path class="bond-10 atom-1 atom-11" d="M 339.5,96.8 L 337.2,95.2" style="fill:none;fill-rule:evenodd;stroke:#000000;stroke-width:2.0px;stroke-linecap:butt;stroke-linejoin:miter;stroke-opacity:1"/>
<path class="bond-10 atom-1 atom-11" d="M 337.2,95.2 L 334.9,93.6" style="fill:none;fill-rule:evenodd;stroke:#0000FF;stroke-width:2.0px;stroke-linecap:butt;stroke-linejoin:miter;stroke-opacity:1"/>
<path class="bond-11 atom-11 atom-12" d="M 331.8,92.2 L 328.9,93.6" style="fill:none;fill-rule:evenodd;stroke:#0000FF;stroke-width:2.0px;stroke-linecap:butt;stroke-linejoin:miter;stroke-opacity:1"/>
<path class="bond-11 atom-11 atom-12" d="M 328.9,93.6 L 326.0,95.0" style="fill:none;fill-rule:evenodd;stroke:#000000;stroke-width:2.0px;stroke-linecap:butt;stroke-linejoin:miter;stroke-opacity:1"/>
<path class="bond-12 atom-12 atom-13" d="M 326.0,95.0 L 318.8,90.2" style="fill:none;fill-rule:evenodd;stroke:#000000;stroke-width:2.0px;stroke-linecap:butt;stroke-linejoin:miter;stroke-opacity:1"/>
<path class="bond-13 atom-13 atom-14" d="M 318.8,90.2 L 311.1,93.9" style="fill:none;fill-rule:evenodd;stroke:#000000;stroke-width:2.0px;stroke-linecap:butt;stroke-linejoin:miter;stroke-opacity:1"/>
<path class="bond-14 atom-14 atom-15" d="M 311.1,93.9 L 304.0,89.1" style="fill:none;fill-rule:evenodd;stroke:#000000;stroke-width:2.0px;stroke-linecap:butt;stroke-linejoin:miter;stroke-opacity:1"/>
<path class="bond-15 atom-15 atom-16" d="M 304.0,89.1 L 301.1,90.5" style="fill:none;fill-rule:evenodd;stroke:#000000;stroke-width:2.0px;stroke-linecap:butt;stroke-linejoin:miter;stroke-opacity:1"/>
<path class="bond-15 atom-15 atom-16" d="M 301.1,90.5 L 298.1,91.9" style="fill:none;fill-rule:evenodd;stroke:#0000FF;stroke-width:2.0px;stroke-linecap:butt;stroke-linejoin:miter;stroke-opacity:1"/>
<path class="bond-16 atom-16 atom-17" d="M 294.3,91.6 L 291.7,89.8" style="fill:none;fill-rule:evenodd;stroke:#0000FF;stroke-width:2.0px;stroke-linecap:butt;stroke-linejoin:miter;stroke-opacity:1"/>
<path class="bond-16 atom-16 atom-17" d="M 291.7,89.8 L 289.1,88.0" style="fill:none;fill-rule:evenodd;stroke:#000000;stroke-width:2.0px;stroke-linecap:butt;stroke-linejoin:miter;stroke-opacity:1"/>
<path class="bond-17 atom-17 atom-18" d="M 289.1,88.0 L 281.4,91.8" style="fill:none;fill-rule:evenodd;stroke:#000000;stroke-width:2.0px;stroke-linecap:butt;stroke-linejoin:miter;stroke-opacity:1"/>
<path class="bond-18 atom-18 atom-19" d="M 281.4,91.8 L 274.3,86.9" style="fill:none;fill-rule:evenodd;stroke:#000000;stroke-width:2.0px;stroke-linecap:butt;stroke-linejoin:miter;stroke-opacity:1"/>
<path class="bond-19 atom-19 atom-20" d="M 274.3,86.9 L 271.3,88.3" style="fill:none;fill-rule:evenodd;stroke:#000000;stroke-width:2.0px;stroke-linecap:butt;stroke-linejoin:miter;stroke-opacity:1"/>
<path class="bond-19 atom-19 atom-20" d="M 271.3,88.3 L 268.4,89.7" style="fill:none;fill-rule:evenodd;stroke:#0000FF;stroke-width:2.0px;stroke-linecap:butt;stroke-linejoin:miter;stroke-opacity:1"/>
<path class="bond-20 atom-20 atom-21" d="M 264.6,89.4 L 262.0,87.6" style="fill:none;fill-rule:evenodd;stroke:#0000FF;stroke-width:2.0px;stroke-linecap:butt;stroke-linejoin:miter;stroke-opacity:1"/>
<path class="bond-20 atom-20 atom-21" d="M 262.0,87.6 L 259.4,85.8" style="fill:none;fill-rule:evenodd;stroke:#000000;stroke-width:2.0px;stroke-linecap:butt;stroke-linejoin:miter;stroke-opacity:1"/>
<path class="bond-20 atom-20 atom-21" d="M 265.3,88.3 L 263.0,86.7" style="fill:none;fill-rule:evenodd;stroke:#0000FF;stroke-width:2.0px;stroke-linecap:butt;stroke-linejoin:miter;stroke-opacity:1"/>
<path class="bond-20 atom-20 atom-21" d="M 263.0,86.7 L 260.7,85.2" style="fill:none;fill-rule:evenodd;stroke:#000000;stroke-width:2.0px;stroke-linecap:butt;stroke-linejoin:miter;stroke-opacity:1"/>
<path class="bond-21 atom-21 atom-22" d="M 259.4,85.8 L 259.6,82.8" style="fill:none;fill-rule:evenodd;stroke:#000000;stroke-width:2.0px;stroke-linecap:butt;stroke-linejoin:miter;stroke-opacity:1"/>
<path class="bond-21 atom-21 atom-22" d="M 259.6,82.8 L 259.8,79.7" style="fill:none;fill-rule:evenodd;stroke:#FF0000;stroke-width:2.0px;stroke-linecap:butt;stroke-linejoin:miter;stroke-opacity:1"/>
<path class="bond-22 atom-21 atom-23" d="M 259.4,85.8 L 251.7,89.6" style="fill:none;fill-rule:evenodd;stroke:#000000;stroke-width:2.0px;stroke-linecap:butt;stroke-linejoin:miter;stroke-opacity:1"/>
<path class="bond-23 atom-23 atom-24" d="M 251.7,89.6 L 244.5,84.7" style="fill:none;fill-rule:evenodd;stroke:#000000;stroke-width:2.0px;stroke-linecap:butt;stroke-linejoin:miter;stroke-opacity:1"/>
<path class="bond-23 atom-23 atom-24" d="M 251.8,88.1 L 245.3,83.7" style="fill:none;fill-rule:evenodd;stroke:#000000;stroke-width:2.0px;stroke-linecap:butt;stroke-linejoin:miter;stroke-opacity:1"/>
<path class="bond-24 atom-24 atom-25" d="M 244.5,84.7 L 236.8,88.5" style="fill:none;fill-rule:evenodd;stroke:#000000;stroke-width:2.0px;stroke-linecap:butt;stroke-linejoin:miter;stroke-opacity:1"/>
<path class="bond-25 atom-25 atom-26" d="M 236.8,88.5 L 229.7,83.7" style="fill:none;fill-rule:evenodd;stroke:#000000;stroke-width:2.0px;stroke-linecap:butt;stroke-linejoin:miter;stroke-opacity:1"/>
<path class="bond-25 atom-25 atom-26" d="M 235.5,89.1 L 229.6,85.1" style="fill:none;fill-rule:evenodd;stroke:#000000;stroke-width:2.0px;stroke-linecap:butt;stroke-linejoin:miter;stroke-opacity:1"/>
<path class="bond-26 atom-26 atom-27" d="M 229.7,83.7 L 221.9,87.4" style="fill:none;fill-rule:evenodd;stroke:#000000;stroke-width:2.0px;stroke-linecap:butt;stroke-linejoin:miter;stroke-opacity:1"/>
<path class="bond-27 atom-27 atom-28" d="M 221.9,87.4 L 221.3,96.0" style="fill:none;fill-rule:evenodd;stroke:#000000;stroke-width:2.0px;stroke-linecap:butt;stroke-linejoin:miter;stroke-opacity:1"/>
<path class="bond-27 atom-27 atom-28" d="M 223.2,88.2 L 222.7,95.3" style="fill:none;fill-rule:evenodd;stroke:#000000;stroke-width:2.0px;stroke-linecap:butt;stroke-linejoin:miter;stroke-opacity:1"/>
<path class="bond-28 atom-28 atom-29" d="M 221.3,96.0 L 218.6,97.3" style="fill:none;fill-rule:evenodd;stroke:#000000;stroke-width:2.0px;stroke-linecap:butt;stroke-linejoin:miter;stroke-opacity:1"/>
<path class="bond-28 atom-28 atom-29" d="M 218.6,97.3 L 215.8,98.6" style="fill:none;fill-rule:evenodd;stroke:#FF0000;stroke-width:2.0px;stroke-linecap:butt;stroke-linejoin:miter;stroke-opacity:1"/>
<path class="bond-29 atom-28 atom-30" d="M 221.3,96.0 L 228.4,100.8" style="fill:none;fill-rule:evenodd;stroke:#000000;stroke-width:2.0px;stroke-linecap:butt;stroke-linejoin:miter;stroke-opacity:1"/>
<path class="bond-30 atom-30 atom-31" d="M 228.4,100.8 L 236.2,97.1" style="fill:none;fill-rule:evenodd;stroke:#000000;stroke-width:2.0px;stroke-linecap:butt;stroke-linejoin:miter;stroke-opacity:1"/>
<path class="bond-30 atom-30 atom-31" d="M 228.5,99.3 L 234.9,96.2" style="fill:none;fill-rule:evenodd;stroke:#000000;stroke-width:2.0px;stroke-linecap:butt;stroke-linejoin:miter;stroke-opacity:1"/>
<path class="bond-31 atom-10 atom-4" d="M 364.0,84.9 L 363.4,93.4" style="fill:none;fill-rule:evenodd;stroke:#000000;stroke-width:2.0px;stroke-linecap:butt;stroke-linejoin:miter;stroke-opacity:1"/>
<path class="bond-32 atom-31 atom-25" d="M 236.2,97.1 L 236.8,88.5" style="fill:none;fill-rule:evenodd;stroke:#000000;stroke-width:2.0px;stroke-linecap:butt;stroke-linejoin:miter;stroke-opacity:1"/>
<path d="M 348.2,92.5 L 348.6,92.4 L 348.9,92.6" style="fill:none;stroke:#000000;stroke-width:2.0px;stroke-linecap:butt;stroke-linejoin:miter;stroke-opacity:1;"/>
<path d="M 355.3,97.0 L 355.7,97.2 L 356.1,97.0" style="fill:none;stroke:#000000;stroke-width:2.0px;stroke-linecap:butt;stroke-linejoin:miter;stroke-opacity:1;"/>
<path d="M 370.2,98.0 L 370.5,98.3 L 370.9,98.1" style="fill:none;stroke:#000000;stroke-width:2.0px;stroke-linecap:butt;stroke-linejoin:miter;stroke-opacity:1;"/>
<path d="M 377.9,94.7 L 378.3,94.5 L 378.3,94.1" style="fill:none;stroke:#000000;stroke-width:2.0px;stroke-linecap:butt;stroke-linejoin:miter;stroke-opacity:1;"/>
<path d="M 372.1,81.4 L 371.8,81.1 L 371.4,81.3" style="fill:none;stroke:#000000;stroke-width:2.0px;stroke-linecap:butt;stroke-linejoin:miter;stroke-opacity:1;"/>
<path d="M 364.4,84.7 L 364.0,84.9 L 364.0,85.3" style="fill:none;stroke:#000000;stroke-width:2.0px;stroke-linecap:butt;stroke-linejoin:miter;stroke-opacity:1;"/>
<path d="M 326.1,94.9 L 326.0,95.0 L 325.6,94.8" style="fill:none;stroke:#000000;stroke-width:2.0px;stroke-linecap:butt;stroke-linejoin:miter;stroke-opacity:1;"/>
<path d="M 319.2,90.4 L 318.8,90.2 L 318.4,90.4" style="fill:none;stroke:#000000;stroke-width:2.0px;stroke-linecap:butt;stroke-linejoin:miter;stroke-opacity:1;"/>
<path d="M 311.5,93.7 L 311.1,93.9 L 310.7,93.7" style="fill:none;stroke:#000000;stroke-width:2.0px;stroke-linecap:butt;stroke-linejoin:miter;stroke-opacity:1;"/>
<path d="M 304.3,89.3 L 304.0,89.1 L 303.8,89.2" style="fill:none;stroke:#000000;stroke-width:2.0px;stroke-linecap:butt;stroke-linejoin:miter;stroke-opacity:1;"/>
<path d="M 289.2,88.1 L 289.1,88.0 L 288.7,88.2" style="fill:none;stroke:#000000;stroke-width:2.0px;stroke-linecap:butt;stroke-linejoin:miter;stroke-opacity:1;"/>
<path d="M 281.8,91.6 L 281.4,91.8 L 281.0,91.5" style="fill:none;stroke:#000000;stroke-width:2.0px;stroke-linecap:butt;stroke-linejoin:miter;stroke-opacity:1;"/>
<path d="M 274.6,87.2 L 274.3,86.9 L 274.1,87.0" style="fill:none;stroke:#000000;stroke-width:2.0px;stroke-linecap:butt;stroke-linejoin:miter;stroke-opacity:1;"/>
<path d="M 252.0,89.4 L 251.7,89.6 L 251.3,89.3" style="fill:none;stroke:#000000;stroke-width:2.0px;stroke-linecap:butt;stroke-linejoin:miter;stroke-opacity:1;"/>
<path d="M 244.9,85.0 L 244.5,84.7 L 244.2,84.9" style="fill:none;stroke:#000000;stroke-width:2.0px;stroke-linecap:butt;stroke-linejoin:miter;stroke-opacity:1;"/>
<path d="M 230.0,83.9 L 229.7,83.7 L 229.3,83.8" style="fill:none;stroke:#000000;stroke-width:2.0px;stroke-linecap:butt;stroke-linejoin:miter;stroke-opacity:1;"/>
<path d="M 222.3,87.2 L 221.9,87.4 L 221.9,87.8" style="fill:none;stroke:#000000;stroke-width:2.0px;stroke-linecap:butt;stroke-linejoin:miter;stroke-opacity:1;"/>
<path d="M 228.1,100.6 L 228.4,100.8 L 228.8,100.6" style="fill:none;stroke:#000000;stroke-width:2.0px;stroke-linecap:butt;stroke-linejoin:miter;stroke-opacity:1;"/>
<path d="M 235.8,97.3 L 236.2,97.1 L 236.2,96.6" style="fill:none;stroke:#000000;stroke-width:2.0px;stroke-linecap:butt;stroke-linejoin:miter;stroke-opacity:1;"/>
<path class="atom-0" d="M 338.2 104.7 Q 338.2 103.7, 338.7 103.1 Q 339.2 102.5, 340.2 102.5 Q 341.1 102.5, 341.6 103.1 Q 342.1 103.7, 342.1 104.7 Q 342.1 105.7, 341.6 106.3 Q 341.1 106.9, 340.2 106.9 Q 339.2 106.9, 338.7 106.3 Q 338.2 105.7, 338.2 104.7 M 340.2 106.4 Q 340.8 106.4, 341.2 106.0 Q 341.5 105.5, 341.5 104.7 Q 341.5 103.9, 341.2 103.4 Q 340.8 103.0, 340.2 103.0 Q 339.5 103.0, 339.2 103.4 Q 338.8 103.9, 338.8 104.7 Q 338.8 105.6, 339.2 106.0 Q 339.5 106.4, 340.2 106.4 " fill="#FF0000"/>
<path class="atom-0" d="M 342.8 102.6 L 343.4 102.6 L 343.4 104.4 L 345.5 104.4 L 345.5 102.6 L 346.1 102.6 L 346.1 106.8 L 345.5 106.8 L 345.5 104.9 L 343.4 104.9 L 343.4 106.8 L 342.8 106.8 L 342.8 102.6 " fill="#FF0000"/>
<path class="atom-8" d="M 384.7 82.2 Q 384.7 81.2, 385.2 80.6 Q 385.7 80.1, 386.6 80.1 Q 387.6 80.1, 388.1 80.6 Q 388.6 81.2, 388.6 82.2 Q 388.6 83.3, 388.1 83.8 Q 387.6 84.4, 386.6 84.4 Q 385.7 84.4, 385.2 83.8 Q 384.7 83.3, 384.7 82.2 M 386.6 83.9 Q 387.3 83.9, 387.6 83.5 Q 388.0 83.1, 388.0 82.2 Q 388.0 81.4, 387.6 81.0 Q 387.3 80.5, 386.6 80.5 Q 386.0 80.5, 385.6 81.0 Q 385.3 81.4, 385.3 82.2 Q 385.3 83.1, 385.6 83.5 Q 386.0 83.9, 386.6 83.9 " fill="#FF0000"/>
<path class="atom-8" d="M 389.3 80.1 L 389.8 80.1 L 389.8 81.9 L 392.0 81.9 L 392.0 80.1 L 392.6 80.1 L 392.6 84.4 L 392.0 84.4 L 392.0 82.4 L 389.8 82.4 L 389.8 84.4 L 389.3 84.4 L 389.3 80.1 " fill="#FF0000"/>
<path class="atom-11" d="M 332.8 89.1 L 334.1 91.4 Q 334.3 91.6, 334.5 92.0 Q 334.7 92.4, 334.7 92.4 L 334.7 89.1 L 335.3 89.1 L 335.3 93.4 L 334.7 93.4 L 333.2 90.9 Q 333.1 90.6, 332.9 90.3 Q 332.7 90.0, 332.6 89.9 L 332.6 93.4 L 332.1 93.4 L 332.1 89.1 L 332.8 89.1 " fill="#0000FF"/>
<path class="atom-16" d="M 295.3 90.7 L 296.7 93.0 Q 296.8 93.2, 297.0 93.6 Q 297.3 94.0, 297.3 94.0 L 297.3 90.7 L 297.8 90.7 L 297.8 95.0 L 297.3 95.0 L 295.8 92.5 Q 295.6 92.2, 295.4 91.9 Q 295.2 91.6, 295.2 91.5 L 295.2 95.0 L 294.6 95.0 L 294.6 90.7 L 295.3 90.7 " fill="#0000FF"/>
<path class="atom-16" d="M 294.6 95.4 L 295.1 95.4 L 295.1 97.2 L 297.3 97.2 L 297.3 95.4 L 297.9 95.4 L 297.9 99.6 L 297.3 99.6 L 297.3 97.7 L 295.1 97.7 L 295.1 99.6 L 294.6 99.6 L 294.6 95.4 " fill="#0000FF"/>
<path class="atom-20" d="M 265.6 88.5 L 267.0 90.8 Q 267.1 91.0, 267.3 91.4 Q 267.6 91.8, 267.6 91.8 L 267.6 88.5 L 268.1 88.5 L 268.1 92.8 L 267.5 92.8 L 266.1 90.3 Q 265.9 90.0, 265.7 89.7 Q 265.5 89.4, 265.5 89.3 L 265.5 92.8 L 264.9 92.8 L 264.9 88.5 L 265.6 88.5 " fill="#0000FF"/>
<path class="atom-22" d="M 258.1 77.3 Q 258.1 76.2, 258.6 75.7 Q 259.1 75.1, 260.0 75.1 Q 261.0 75.1, 261.5 75.7 Q 262.0 76.2, 262.0 77.3 Q 262.0 78.3, 261.5 78.9 Q 261.0 79.5, 260.0 79.5 Q 259.1 79.5, 258.6 78.9 Q 258.1 78.3, 258.1 77.3 M 260.0 79.0 Q 260.7 79.0, 261.0 78.6 Q 261.4 78.1, 261.4 77.3 Q 261.4 76.4, 261.0 76.0 Q 260.7 75.6, 260.0 75.6 Q 259.4 75.6, 259.0 76.0 Q 258.7 76.4, 258.7 77.3 Q 258.7 78.1, 259.0 78.6 Q 259.4 79.0, 260.0 79.0 " fill="#FF0000"/>
<path class="atom-22" d="M 262.6 75.2 L 263.2 75.2 L 263.2 77.0 L 265.4 77.0 L 265.4 75.2 L 266.0 75.2 L 266.0 79.4 L 265.4 79.4 L 265.4 77.4 L 263.2 77.4 L 263.2 79.4 L 262.6 79.4 L 262.6 75.2 " fill="#FF0000"/>
<path class="atom-29" d="M 207.4 97.6 L 208.0 97.6 L 208.0 99.4 L 210.2 99.4 L 210.2 97.6 L 210.7 97.6 L 210.7 101.9 L 210.2 101.9 L 210.2 99.9 L 208.0 99.9 L 208.0 101.9 L 207.4 101.9 L 207.4 97.6 " fill="#FF0000"/>
<path class="atom-29" d="M 211.6 99.7 Q 211.6 98.7, 212.1 98.1 Q 212.6 97.6, 213.6 97.6 Q 214.5 97.6, 215.0 98.1 Q 215.5 98.7, 215.5 99.7 Q 215.5 100.8, 215.0 101.4 Q 214.5 101.9, 213.6 101.9 Q 212.6 101.9, 212.1 101.4 Q 211.6 100.8, 211.6 99.7 M 213.6 101.5 Q 214.2 101.5, 214.6 101.0 Q 214.9 100.6, 214.9 99.7 Q 214.9 98.9, 214.6 98.5 Q 214.2 98.1, 213.6 98.1 Q 212.9 98.1, 212.6 98.5 Q 212.2 98.9, 212.2 99.7 Q 212.2 100.6, 212.6 101.0 Q 212.9 101.5, 213.6 101.5 " fill="#FF0000"/>
<path class="legend" d="M 301.7 184.0 Q 302.7 184.4, 303.3 185.0 Q 303.8 185.7, 303.8 186.7 Q 303.8 188.2, 302.8 189.1 Q 301.8 190.0, 300.0 190.0 L 296.2 190.0 L 296.2 178.7 L 299.5 178.7 Q 301.4 178.7, 302.4 179.5 Q 303.4 180.2, 303.4 181.7 Q 303.4 183.4, 301.7 184.0 M 297.7 180.0 L 297.7 183.5 L 299.5 183.5 Q 300.6 183.5, 301.2 183.1 Q 301.8 182.6, 301.8 181.7 Q 301.8 180.0, 299.5 180.0 L 297.7 180.0 M 300.0 188.7 Q 301.1 188.7, 301.7 188.2 Q 302.2 187.7, 302.2 186.7 Q 302.2 185.7, 301.6 185.3 Q 301.0 184.8, 299.7 184.8 L 297.7 184.8 L 297.7 188.7 L 300.0 188.7 " fill="#000000"/>
<path class="bond-0 atom-0 atom-1" d="M 488.6,91.8 L 496.6,88.4" style="fill:none;fill-rule:evenodd;stroke:#000000;stroke-width:2.0px;stroke-linecap:butt;stroke-linejoin:miter;stroke-opacity:1"/>
<path class="bond-1 atom-1 atom-2" d="M 496.6,88.4 L 503.4,93.6" style="fill:none;fill-rule:evenodd;stroke:#000000;stroke-width:2.0px;stroke-linecap:butt;stroke-linejoin:miter;stroke-opacity:1"/>
<path class="bond-2 atom-2 atom-3" d="M 503.4,93.6 L 511.4,90.2" style="fill:none;fill-rule:evenodd;stroke:#000000;stroke-width:2.0px;stroke-linecap:butt;stroke-linejoin:miter;stroke-opacity:1"/>
<path d="M 496.2,88.6 L 496.6,88.4 L 496.9,88.7" style="fill:none;stroke:#000000;stroke-width:2.0px;stroke-linecap:butt;stroke-linejoin:miter;stroke-opacity:1;"/>
<path d="M 503.1,93.3 L 503.4,93.6 L 503.8,93.4" style="fill:none;stroke:#000000;stroke-width:2.0px;stroke-linecap:butt;stroke-linejoin:miter;stroke-opacity:1;"/>
<path class="legend" d="M 495.6 184.2 Q 495.6 181.4, 496.9 179.9 Q 498.3 178.4, 500.8 178.4 Q 503.1 178.4, 504.4 180.0 L 503.3 180.9 Q 502.4 179.7, 500.8 179.7 Q 499.1 179.7, 498.2 180.9 Q 497.3 182.0, 497.3 184.2 Q 497.3 186.4, 498.2 187.6 Q 499.1 188.7, 501.0 188.7 Q 502.2 188.7, 503.7 188.0 L 504.1 189.2 Q 503.5 189.6, 502.6 189.8 Q 501.7 190.0, 500.7 190.0 Q 498.3 190.0, 496.9 188.5 Q 495.6 187.0, 495.6 184.2 " fill="#000000"/>
<path class="bond-0 atom-0 atom-1" d="M 685.3,93.7 L 693.2,90.5" style="fill:none;fill-rule:evenodd;stroke:#000000;stroke-width:2.0px;stroke-linecap:butt;stroke-linejoin:miter;stroke-opacity:1"/>
<path class="bond-1 atom-1 atom-2" d="M 693.2,90.5 L 700.0,95.8" style="fill:none;fill-rule:evenodd;stroke:#000000;stroke-width:2.0px;stroke-linecap:butt;stroke-linejoin:miter;stroke-opacity:1"/>
<path class="bond-2 atom-2 atom-3" d="M 700.0,95.8 L 708.0,92.6" style="fill:none;fill-rule:evenodd;stroke:#000000;stroke-width:2.0px;stroke-linecap:butt;stroke-linejoin:miter;stroke-opacity:1"/>
<path class="bond-3 atom-3 atom-4" d="M 708.0,92.6 L 714.7,97.9" style="fill:none;fill-rule:evenodd;stroke:#000000;stroke-width:2.0px;stroke-linecap:butt;stroke-linejoin:miter;stroke-opacity:1"/>
<path class="bond-4 atom-3 atom-5" d="M 708.0,92.6 L 709.2,84.1" style="fill:none;fill-rule:evenodd;stroke:#000000;stroke-width:2.0px;stroke-linecap:butt;stroke-linejoin:miter;stroke-opacity:1"/>
<path d="M 692.8,90.6 L 693.2,90.5 L 693.6,90.8" style="fill:none;stroke:#000000;stroke-width:2.0px;stroke-linecap:butt;stroke-linejoin:miter;stroke-opacity:1;"/>
<path d="M 699.7,95.5 L 700.0,95.8 L 700.4,95.6" style="fill:none;stroke:#000000;stroke-width:2.0px;stroke-linecap:butt;stroke-linejoin:miter;stroke-opacity:1;"/>
<path class="legend" d="M 699.2 178.7 Q 701.7 178.7, 703.1 180.2 Q 704.4 181.6, 704.4 184.3 Q 704.4 187.0, 703.1 188.5 Q 701.7 190.0, 699.2 190.0 L 695.6 190.0 L 695.6 178.7 L 699.2 178.7 M 699.2 188.7 Q 701.0 188.7, 701.9 187.6 Q 702.8 186.5, 702.8 184.3 Q 702.8 182.1, 701.9 181.0 Q 701.0 180.0, 699.2 180.0 L 697.1 180.0 L 697.1 188.7 L 699.2 188.7 " fill="#000000"/>
</svg>