<svg xmlns="http://www.w3.org/2000/svg" xmlns:rdkit="http://www.rdkit.org/xml" xmlns:xlink="http://www.w3.org/1999/xlink" version="1.1" baseProfile="full" xml:space="preserve" width="800px" height="200px" viewBox="0 0 800 200">
<!-- END OF HEADER -->
<rect style="opacity:1.0;fill:#FFFFFF;stroke:none" width="800.0" height="200.0" x="0.0" y="0.0"> </rect>
<path class="bond-0 atom-0 atom-1" d="M 102.9,122.0 L 98.2,116.5" style="fill:none;fill-rule:evenodd;stroke:#FF0000;stroke-width:2.0px;stroke-linecap:butt;stroke-linejoin:miter;stroke-opacity:1"/>
<path class="bond-0 atom-0 atom-1" d="M 98.2,116.5 L 93.5,110.9" style="fill:none;fill-rule:evenodd;stroke:#000000;stroke-width:2.0px;stroke-linecap:butt;stroke-linejoin:miter;stroke-opacity:1"/>
<path class="bond-1 atom-1 atom-2" d="M 93.5,110.9 L 74.8,114.3" style="fill:none;fill-rule:evenodd;stroke:#000000;stroke-width:2.0px;stroke-linecap:butt;stroke-linejoin:miter;stroke-opacity:1"/>
<path class="bond-2 atom-2 atom-3" d="M 74.8,114.3 L 62.6,99.9" style="fill:none;fill-rule:evenodd;stroke:#000000;stroke-width:2.0px;stroke-linecap:butt;stroke-linejoin:miter;stroke-opacity:1"/>
<path class="bond-3 atom-3 atom-4" d="M 62.6,99.9 L 44.0,103.3" style="fill:none;fill-rule:evenodd;stroke:#000000;stroke-width:2.0px;stroke-linecap:butt;stroke-linejoin:miter;stroke-opacity:1"/>
<path class="bond-3 atom-3 atom-4" d="M 60.5,97.4 L 45.1,100.2" style="fill:none;fill-rule:evenodd;stroke:#000000;stroke-width:2.0px;stroke-linecap:butt;stroke-linejoin:miter;stroke-opacity:1"/>
<path class="bond-4 atom-4 atom-5" d="M 44.0,103.3 L 41.4,110.5" style="fill:none;fill-rule:evenodd;stroke:#000000;stroke-width:2.0px;stroke-linecap:butt;stroke-linejoin:miter;stroke-opacity:1"/>
<path class="bond-4 atom-4 atom-5" d="M 41.4,110.5 L 38.8,117.7" style="fill:none;fill-rule:evenodd;stroke:#FF0000;stroke-width:2.0px;stroke-linecap:butt;stroke-linejoin:miter;stroke-opacity:1"/>
<path class="bond-5 atom-4 atom-6" d="M 44.0,103.3 L 31.7,88.8" style="fill:none;fill-rule:evenodd;stroke:#000000;stroke-width:2.0px;stroke-linecap:butt;stroke-linejoin:miter;stroke-opacity:1"/>
<path class="bond-6 atom-6 atom-7" d="M 31.7,88.8 L 38.1,71.0" style="fill:none;fill-rule:evenodd;stroke:#000000;stroke-width:2.0px;stroke-linecap:butt;stroke-linejoin:miter;stroke-opacity:1"/>
<path class="bond-6 atom-6 atom-7" d="M 35.0,88.2 L 40.2,73.5" style="fill:none;fill-rule:evenodd;stroke:#000000;stroke-width:2.0px;stroke-linecap:butt;stroke-linejoin:miter;stroke-opacity:1"/>
<path class="bond-7 atom-7 atom-8" d="M 38.1,71.0 L 33.4,65.5" style="fill:none;fill-rule:evenodd;stroke:#000000;stroke-width:2.0px;stroke-linecap:butt;stroke-linejoin:miter;stroke-opacity:1"/>
<path class="bond-7 atom-7 atom-8" d="M 33.4,65.5 L 28.8,60.0" style="fill:none;fill-rule:evenodd;stroke:#FF0000;stroke-width:2.0px;stroke-linecap:butt;stroke-linejoin:miter;stroke-opacity:1"/>
<path class="bond-8 atom-7 atom-9" d="M 38.1,71.0 L 56.7,67.6" style="fill:none;fill-rule:evenodd;stroke:#000000;stroke-width:2.0px;stroke-linecap:butt;stroke-linejoin:miter;stroke-opacity:1"/>
<path class="bond-9 atom-9 atom-10" d="M 56.7,67.6 L 69.0,82.0" style="fill:none;fill-rule:evenodd;stroke:#000000;stroke-width:2.0px;stroke-linecap:butt;stroke-linejoin:miter;stroke-opacity:1"/>
<path class="bond-9 atom-9 atom-10" d="M 55.6,70.7 L 65.8,82.6" style="fill:none;fill-rule:evenodd;stroke:#000000;stroke-width:2.0px;stroke-linecap:butt;stroke-linejoin:miter;stroke-opacity:1"/>
<path class="bond-10 atom-10 atom-11" d="M 69.0,82.0 L 76.8,80.6" style="fill:none;fill-rule:evenodd;stroke:#000000;stroke-width:2.0px;stroke-linecap:butt;stroke-linejoin:miter;stroke-opacity:1"/>
<path class="bond-10 atom-10 atom-11" d="M 76.8,80.6 L 84.5,79.2" style="fill:none;fill-rule:evenodd;stroke:#FF0000;stroke-width:2.0px;stroke-linecap:butt;stroke-linejoin:miter;stroke-opacity:1"/>
<path class="bond-11 atom-11 atom-12" d="M 90.5,82.1 L 95.2,87.6" style="fill:none;fill-rule:evenodd;stroke:#FF0000;stroke-width:2.0px;stroke-linecap:butt;stroke-linejoin:miter;stroke-opacity:1"/>
<path class="bond-11 atom-11 atom-12" d="M 95.2,87.6 L 99.9,93.1" style="fill:none;fill-rule:evenodd;stroke:#000000;stroke-width:2.0px;stroke-linecap:butt;stroke-linejoin:miter;stroke-opacity:1"/>
<path class="bond-12 atom-12 atom-13" d="M 99.9,93.1 L 118.5,89.7" style="fill:none;fill-rule:evenodd;stroke:#000000;stroke-width:2.0px;stroke-linecap:butt;stroke-linejoin:miter;stroke-opacity:1"/>
<path class="bond-13 atom-13 atom-14" d="M 118.5,89.7 L 130.7,104.2" style="fill:none;fill-rule:evenodd;stroke:#000000;stroke-width:2.0px;stroke-linecap:butt;stroke-linejoin:miter;stroke-opacity:1"/>
<path class="bond-13 atom-13 atom-14" d="M 121.7,89.1 L 131.8,101.1" style="fill:none;fill-rule:evenodd;stroke:#000000;stroke-width:2.0px;stroke-linecap:butt;stroke-linejoin:miter;stroke-opacity:1"/>
<path class="bond-14 atom-14 atom-15" d="M 130.7,104.2 L 149.4,100.8" style="fill:none;fill-rule:evenodd;stroke:#000000;stroke-width:2.0px;stroke-linecap:butt;stroke-linejoin:miter;stroke-opacity:1"/>
<path class="bond-15 atom-15 atom-16" d="M 149.4,100.8 L 155.8,83.0" style="fill:none;fill-rule:evenodd;stroke:#000000;stroke-width:2.0px;stroke-linecap:butt;stroke-linejoin:miter;stroke-opacity:1"/>
<path class="bond-15 atom-15 atom-16" d="M 147.3,98.3 L 152.5,83.6" style="fill:none;fill-rule:evenodd;stroke:#000000;stroke-width:2.0px;stroke-linecap:butt;stroke-linejoin:miter;stroke-opacity:1"/>
<path class="bond-16 atom-16 atom-17" d="M 155.8,83.0 L 163.5,81.6" style="fill:none;fill-rule:evenodd;stroke:#000000;stroke-width:2.0px;stroke-linecap:butt;stroke-linejoin:miter;stroke-opacity:1"/>
<path class="bond-16 atom-16 atom-17" d="M 163.5,81.6 L 171.3,80.1" style="fill:none;fill-rule:evenodd;stroke:#FF0000;stroke-width:2.0px;stroke-linecap:butt;stroke-linejoin:miter;stroke-opacity:1"/>
<path class="bond-17 atom-16 atom-18" d="M 155.8,83.0 L 143.5,68.5" style="fill:none;fill-rule:evenodd;stroke:#000000;stroke-width:2.0px;stroke-linecap:butt;stroke-linejoin:miter;stroke-opacity:1"/>
<path class="bond-18 atom-18 atom-19" d="M 143.5,68.5 L 124.9,71.9" style="fill:none;fill-rule:evenodd;stroke:#000000;stroke-width:2.0px;stroke-linecap:butt;stroke-linejoin:miter;stroke-opacity:1"/>
<path class="bond-18 atom-18 atom-19" d="M 142.4,71.6 L 127.0,74.4" style="fill:none;fill-rule:evenodd;stroke:#000000;stroke-width:2.0px;stroke-linecap:butt;stroke-linejoin:miter;stroke-opacity:1"/>
<path class="bond-19 atom-12 atom-1" d="M 99.9,93.1 L 93.5,110.9" style="fill:none;fill-rule:evenodd;stroke:#000000;stroke-width:2.0px;stroke-linecap:butt;stroke-linejoin:miter;stroke-opacity:1"/>
<path class="bond-20 atom-19 atom-13" d="M 124.9,71.9 L 118.5,89.7" style="fill:none;fill-rule:evenodd;stroke:#000000;stroke-width:2.0px;stroke-linecap:butt;stroke-linejoin:miter;stroke-opacity:1"/>
<path class="bond-21 atom-10 atom-3" d="M 69.0,82.0 L 62.6,99.9" style="fill:none;fill-rule:evenodd;stroke:#000000;stroke-width:2.0px;stroke-linecap:butt;stroke-linejoin:miter;stroke-opacity:1"/>
<path d="M 75.8,114.1 L 74.8,114.3 L 74.2,113.6" style="fill:none;stroke:#000000;stroke-width:2.0px;stroke-linecap:butt;stroke-linejoin:miter;stroke-opacity:1;"/>
<path d="M 32.3,89.5 L 31.7,88.8 L 32.0,87.9" style="fill:none;stroke:#000000;stroke-width:2.0px;stroke-linecap:butt;stroke-linejoin:miter;stroke-opacity:1;"/>
<path d="M 55.8,67.8 L 56.7,67.6 L 57.4,68.3" style="fill:none;stroke:#000000;stroke-width:2.0px;stroke-linecap:butt;stroke-linejoin:miter;stroke-opacity:1;"/>
<path d="M 130.1,103.5 L 130.7,104.2 L 131.7,104.0" style="fill:none;stroke:#000000;stroke-width:2.0px;stroke-linecap:butt;stroke-linejoin:miter;stroke-opacity:1;"/>
<path d="M 148.4,101.0 L 149.4,100.8 L 149.7,99.9" style="fill:none;stroke:#000000;stroke-width:2.0px;stroke-linecap:butt;stroke-linejoin:miter;stroke-opacity:1;"/>
<path d="M 144.1,69.2 L 143.5,68.5 L 142.6,68.7" style="fill:none;stroke:#000000;stroke-width:2.0px;stroke-linecap:butt;stroke-linejoin:miter;stroke-opacity:1;"/>
<path d="M 125.8,71.7 L 124.9,71.9 L 124.6,72.8" style="fill:none;stroke:#000000;stroke-width:2.0px;stroke-linecap:butt;stroke-linejoin:miter;stroke-opacity:1;"/>
<path class="atom-0" d="M 103.3 125.4 Q 103.3 124.1, 103.9 123.4 Q 104.5 122.7, 105.7 122.7 Q 106.9 122.7, 107.5 123.4 Q 108.2 124.1, 108.2 125.4 Q 108.2 126.7, 107.5 127.4 Q 106.9 128.2, 105.7 128.2 Q 104.5 128.2, 103.9 127.4 Q 103.3 126.7, 103.3 125.4 M 105.7 127.6 Q 106.5 127.6, 107.0 127.0 Q 107.4 126.5, 107.4 125.4 Q 107.4 124.3, 107.0 123.8 Q 106.5 123.3, 105.7 123.3 Q 104.9 123.3, 104.5 123.8 Q 104.0 124.3, 104.0 125.4 Q 104.0 126.5, 104.5 127.0 Q 104.9 127.6, 105.7 127.6 " fill="#FF0000"/>
<path class="atom-0" d="M 109.0 122.7 L 109.7 122.7 L 109.7 125.0 L 112.5 125.0 L 112.5 122.7 L 113.2 122.7 L 113.2 128.1 L 112.5 128.1 L 112.5 125.6 L 109.7 125.6 L 109.7 128.1 L 109.0 128.1 L 109.0 122.7 " fill="#FF0000"/>
<path class="atom-5" d="M 35.1 121.1 Q 35.1 119.8, 35.8 119.1 Q 36.4 118.4, 37.6 118.4 Q 38.8 118.4, 39.4 119.1 Q 40.0 119.8, 40.0 121.1 Q 40.0 122.4, 39.4 123.1 Q 38.8 123.9, 37.6 123.9 Q 36.4 123.9, 35.8 123.1 Q 35.1 122.4, 35.1 121.1 M 37.6 123.3 Q 38.4 123.3, 38.8 122.7 Q 39.3 122.2, 39.3 121.1 Q 39.3 120.0, 38.8 119.5 Q 38.4 119.0, 37.6 119.0 Q 36.8 119.0, 36.3 119.5 Q 35.9 120.0, 35.9 121.1 Q 35.9 122.2, 36.3 122.7 Q 36.8 123.3, 37.6 123.3 " fill="#FF0000"/>
<path class="atom-5" d="M 40.9 118.4 L 41.6 118.4 L 41.6 120.7 L 44.3 120.7 L 44.3 118.4 L 45.1 118.4 L 45.1 123.8 L 44.3 123.8 L 44.3 121.3 L 41.6 121.3 L 41.6 123.8 L 40.9 123.8 L 40.9 118.4 " fill="#FF0000"/>
<path class="atom-8" d="M 18.1 53.9 L 18.8 53.9 L 18.8 56.2 L 21.6 56.2 L 21.6 53.9 L 22.3 53.9 L 22.3 59.2 L 21.6 59.2 L 21.6 56.8 L 18.8 56.8 L 18.8 59.2 L 18.1 59.2 L 18.1 53.9 " fill="#FF0000"/>
<path class="atom-8" d="M 23.4 56.5 Q 23.4 55.3, 24.0 54.5 Q 24.7 53.8, 25.9 53.8 Q 27.1 53.8, 27.7 54.5 Q 28.3 55.3, 28.3 56.5 Q 28.3 57.9, 27.7 58.6 Q 27.0 59.3, 25.9 59.3 Q 24.7 59.3, 24.0 58.6 Q 23.4 57.9, 23.4 56.5 M 25.9 58.7 Q 26.7 58.7, 27.1 58.2 Q 27.6 57.6, 27.6 56.5 Q 27.6 55.5, 27.1 55.0 Q 26.7 54.4, 25.9 54.4 Q 25.1 54.4, 24.6 55.0 Q 24.2 55.5, 24.2 56.5 Q 24.2 57.6, 24.6 58.2 Q 25.1 58.7, 25.9 58.7 " fill="#FF0000"/>
<path class="atom-11" d="M 85.2 78.7 Q 85.2 77.4, 85.8 76.7 Q 86.4 76.0, 87.6 76.0 Q 88.8 76.0, 89.4 76.7 Q 90.1 77.4, 90.1 78.7 Q 90.1 80.0, 89.4 80.7 Q 88.8 81.5, 87.6 81.5 Q 86.4 81.5, 85.8 80.7 Q 85.2 80.0, 85.2 78.7 M 87.6 80.9 Q 88.4 80.9, 88.9 80.3 Q 89.3 79.8, 89.3 78.7 Q 89.3 77.6, 88.9 77.1 Q 88.4 76.6, 87.6 76.6 Q 86.8 76.6, 86.4 77.1 Q 85.9 77.6, 85.9 78.7 Q 85.9 79.8, 86.4 80.3 Q 86.8 80.9, 87.6 80.9 " fill="#FF0000"/>
<path class="atom-17" d="M 171.9 79.6 Q 171.9 78.3, 172.6 77.6 Q 173.2 76.9, 174.4 76.9 Q 175.6 76.9, 176.2 77.6 Q 176.9 78.3, 176.9 79.6 Q 176.9 80.9, 176.2 81.6 Q 175.6 82.4, 174.4 82.4 Q 173.2 82.4, 172.6 81.6 Q 171.9 80.9, 171.9 79.6 M 174.4 81.8 Q 175.2 81.8, 175.7 81.2 Q 176.1 80.7, 176.1 79.6 Q 176.1 78.6, 175.7 78.0 Q 175.2 77.5, 174.4 77.5 Q 173.6 77.5, 173.1 78.0 Q 172.7 78.5, 172.7 79.6 Q 172.7 80.7, 173.1 81.2 Q 173.6 81.8, 174.4 81.8 " fill="#FF0000"/>
<path class="atom-17" d="M 177.7 76.9 L 178.4 76.9 L 178.4 79.2 L 181.2 79.2 L 181.2 76.9 L 181.9 76.9 L 181.9 82.3 L 181.2 82.3 L 181.2 79.8 L 178.4 79.8 L 178.4 82.3 L 177.7 82.3 L 177.7 76.9 " fill="#FF0000"/>
<path class="legend" d="M 103.4 190.0 L 102.2 186.7 L 97.8 186.7 L 96.6 190.0 L 95.1 190.0 L 99.0 178.7 L 100.9 178.7 L 104.9 190.0 L 103.4 190.0 M 98.2 185.4 L 101.8 185.4 L 100.0 180.3 L 98.2 185.4 " fill="#000000"/>
<path class="bond-0 atom-0 atom-1" d="M 285.9,55.9 L 285.7,64.0" style="fill:none;fill-rule:evenodd;stroke:#FF0000;stroke-width:2.0px;stroke-linecap:butt;stroke-linejoin:miter;stroke-opacity:1"/>
<path class="bond-0 atom-0 atom-1" d="M 285.7,64.0 L 285.5,72.2" style="fill:none;fill-rule:evenodd;stroke:#000000;stroke-width:2.0px;stroke-linecap:butt;stroke-linejoin:miter;stroke-opacity:1"/>
<path class="bond-0 atom-0 atom-1" d="M 283.0,55.8 L 282.9,64.0" style="fill:none;fill-rule:evenodd;stroke:#FF0000;stroke-width:2.0px;stroke-linecap:butt;stroke-linejoin:miter;stroke-opacity:1"/>
<path class="bond-0 atom-0 atom-1" d="M 282.9,64.0 L 282.7,72.1" style="fill:none;fill-rule:evenodd;stroke:#000000;stroke-width:2.0px;stroke-linecap:butt;stroke-linejoin:miter;stroke-opacity:1"/>
<path class="bond-1 atom-1 atom-2" d="M 284.1,71.3 L 290.7,75.3" style="fill:none;fill-rule:evenodd;stroke:#000000;stroke-width:2.0px;stroke-linecap:butt;stroke-linejoin:miter;stroke-opacity:1"/>
<path class="bond-1 atom-1 atom-2" d="M 290.7,75.3 L 297.2,79.3" style="fill:none;fill-rule:evenodd;stroke:#FF0000;stroke-width:2.0px;stroke-linecap:butt;stroke-linejoin:miter;stroke-opacity:1"/>
<path class="bond-2 atom-2 atom-3" d="M 303.4,79.5 L 310.2,75.7" style="fill:none;fill-rule:evenodd;stroke:#FF0000;stroke-width:2.0px;stroke-linecap:butt;stroke-linejoin:miter;stroke-opacity:1"/>
<path class="bond-2 atom-2 atom-3" d="M 310.2,75.7 L 316.9,72.0" style="fill:none;fill-rule:evenodd;stroke:#000000;stroke-width:2.0px;stroke-linecap:butt;stroke-linejoin:miter;stroke-opacity:1"/>
<path class="bond-3 atom-3 atom-4" d="M 316.9,72.0 L 333.1,81.8" style="fill:none;fill-rule:evenodd;stroke:#000000;stroke-width:2.0px;stroke-linecap:butt;stroke-linejoin:miter;stroke-opacity:1"/>
<path class="bond-4 atom-4 atom-5" d="M 333.1,81.8 L 333.0,89.6" style="fill:none;fill-rule:evenodd;stroke:#000000;stroke-width:2.0px;stroke-linecap:butt;stroke-linejoin:miter;stroke-opacity:1"/>
<path class="bond-4 atom-4 atom-5" d="M 333.0,89.6 L 332.8,97.4" style="fill:none;fill-rule:evenodd;stroke:#FF0000;stroke-width:2.0px;stroke-linecap:butt;stroke-linejoin:miter;stroke-opacity:1"/>
<path class="bond-5 atom-5 atom-6" d="M 335.8,102.6 L 342.4,106.6" style="fill:none;fill-rule:evenodd;stroke:#FF0000;stroke-width:2.0px;stroke-linecap:butt;stroke-linejoin:miter;stroke-opacity:1"/>
<path class="bond-5 atom-5 atom-6" d="M 342.4,106.6 L 348.9,110.6" style="fill:none;fill-rule:evenodd;stroke:#000000;stroke-width:2.0px;stroke-linecap:butt;stroke-linejoin:miter;stroke-opacity:1"/>
<path class="bond-6 atom-6 atom-7" d="M 348.9,110.6 L 348.8,118.4" style="fill:none;fill-rule:evenodd;stroke:#000000;stroke-width:2.0px;stroke-linecap:butt;stroke-linejoin:miter;stroke-opacity:1"/>
<path class="bond-6 atom-6 atom-7" d="M 348.8,118.4 L 348.6,126.2" style="fill:none;fill-rule:evenodd;stroke:#FF0000;stroke-width:2.0px;stroke-linecap:butt;stroke-linejoin:miter;stroke-opacity:1"/>
<path class="bond-7 atom-6 atom-8" d="M 348.9,110.6 L 365.5,101.5" style="fill:none;fill-rule:evenodd;stroke:#000000;stroke-width:2.0px;stroke-linecap:butt;stroke-linejoin:miter;stroke-opacity:1"/>
<path class="bond-8 atom-8 atom-9" d="M 365.5,101.5 L 372.1,105.4" style="fill:none;fill-rule:evenodd;stroke:#000000;stroke-width:2.0px;stroke-linecap:butt;stroke-linejoin:miter;stroke-opacity:1"/>
<path class="bond-8 atom-8 atom-9" d="M 372.1,105.4 L 378.6,109.4" style="fill:none;fill-rule:evenodd;stroke:#FF0000;stroke-width:2.0px;stroke-linecap:butt;stroke-linejoin:miter;stroke-opacity:1"/>
<path class="bond-9 atom-8 atom-10" d="M 365.5,101.5 L 365.9,82.5" style="fill:none;fill-rule:evenodd;stroke:#000000;stroke-width:2.0px;stroke-linecap:butt;stroke-linejoin:miter;stroke-opacity:1"/>
<path class="bond-10 atom-10 atom-11" d="M 365.9,82.5 L 372.7,78.8" style="fill:none;fill-rule:evenodd;stroke:#000000;stroke-width:2.0px;stroke-linecap:butt;stroke-linejoin:miter;stroke-opacity:1"/>
<path class="bond-10 atom-10 atom-11" d="M 372.7,78.8 L 379.4,75.1" style="fill:none;fill-rule:evenodd;stroke:#FF0000;stroke-width:2.0px;stroke-linecap:butt;stroke-linejoin:miter;stroke-opacity:1"/>
<path class="bond-11 atom-10 atom-12" d="M 365.9,82.5 L 349.7,72.7" style="fill:none;fill-rule:evenodd;stroke:#000000;stroke-width:2.0px;stroke-linecap:butt;stroke-linejoin:miter;stroke-opacity:1"/>
<path class="bond-12 atom-12 atom-13" d="M 349.7,72.7 L 349.9,65.0" style="fill:none;fill-rule:evenodd;stroke:#000000;stroke-width:2.0px;stroke-linecap:butt;stroke-linejoin:miter;stroke-opacity:1"/>
<path class="bond-12 atom-12 atom-13" d="M 349.9,65.0 L 350.0,57.2" style="fill:none;fill-rule:evenodd;stroke:#FF0000;stroke-width:2.0px;stroke-linecap:butt;stroke-linejoin:miter;stroke-opacity:1"/>
<path class="bond-13 atom-1 atom-14" d="M 284.1,71.3 L 267.5,80.5" style="fill:none;fill-rule:evenodd;stroke:#000000;stroke-width:2.0px;stroke-linecap:butt;stroke-linejoin:miter;stroke-opacity:1"/>
<path class="bond-14 atom-14 atom-15" d="M 267.5,80.5 L 251.3,70.7" style="fill:none;fill-rule:evenodd;stroke:#000000;stroke-width:2.0px;stroke-linecap:butt;stroke-linejoin:miter;stroke-opacity:1"/>
<path class="bond-14 atom-14 atom-15" d="M 264.7,82.0 L 251.3,73.9" style="fill:none;fill-rule:evenodd;stroke:#000000;stroke-width:2.0px;stroke-linecap:butt;stroke-linejoin:miter;stroke-opacity:1"/>
<path class="bond-15 atom-15 atom-16" d="M 251.3,70.7 L 234.7,79.8" style="fill:none;fill-rule:evenodd;stroke:#000000;stroke-width:2.0px;stroke-linecap:butt;stroke-linejoin:miter;stroke-opacity:1"/>
<path class="bond-16 atom-16 atom-17" d="M 234.7,79.8 L 228.2,75.8" style="fill:none;fill-rule:evenodd;stroke:#000000;stroke-width:2.0px;stroke-linecap:butt;stroke-linejoin:miter;stroke-opacity:1"/>
<path class="bond-16 atom-16 atom-17" d="M 228.2,75.8 L 221.6,71.8" style="fill:none;fill-rule:evenodd;stroke:#FF0000;stroke-width:2.0px;stroke-linecap:butt;stroke-linejoin:miter;stroke-opacity:1"/>
<path class="bond-17 atom-16 atom-18" d="M 234.7,79.8 L 234.4,98.7" style="fill:none;fill-rule:evenodd;stroke:#000000;stroke-width:2.0px;stroke-linecap:butt;stroke-linejoin:miter;stroke-opacity:1"/>
<path class="bond-17 atom-16 atom-18" d="M 237.6,81.5 L 237.2,97.1" style="fill:none;fill-rule:evenodd;stroke:#000000;stroke-width:2.0px;stroke-linecap:butt;stroke-linejoin:miter;stroke-opacity:1"/>
<path class="bond-18 atom-18 atom-19" d="M 234.4,98.7 L 227.6,102.4" style="fill:none;fill-rule:evenodd;stroke:#000000;stroke-width:2.0px;stroke-linecap:butt;stroke-linejoin:miter;stroke-opacity:1"/>
<path class="bond-18 atom-18 atom-19" d="M 227.6,102.4 L 220.8,106.1" style="fill:none;fill-rule:evenodd;stroke:#FF0000;stroke-width:2.0px;stroke-linecap:butt;stroke-linejoin:miter;stroke-opacity:1"/>
<path class="bond-19 atom-18 atom-20" d="M 234.4,98.7 L 250.5,108.5" style="fill:none;fill-rule:evenodd;stroke:#000000;stroke-width:2.0px;stroke-linecap:butt;stroke-linejoin:miter;stroke-opacity:1"/>
<path class="bond-20 atom-20 atom-21" d="M 250.5,108.5 L 250.4,116.3" style="fill:none;fill-rule:evenodd;stroke:#000000;stroke-width:2.0px;stroke-linecap:butt;stroke-linejoin:miter;stroke-opacity:1"/>
<path class="bond-20 atom-20 atom-21" d="M 250.4,116.3 L 250.2,124.1" style="fill:none;fill-rule:evenodd;stroke:#FF0000;stroke-width:2.0px;stroke-linecap:butt;stroke-linejoin:miter;stroke-opacity:1"/>
<path class="bond-21 atom-20 atom-22" d="M 250.5,108.5 L 267.1,99.4" style="fill:none;fill-rule:evenodd;stroke:#000000;stroke-width:2.0px;stroke-linecap:butt;stroke-linejoin:miter;stroke-opacity:1"/>
<path class="bond-21 atom-20 atom-22" d="M 250.6,105.2 L 264.3,97.7" style="fill:none;fill-rule:evenodd;stroke:#000000;stroke-width:2.0px;stroke-linecap:butt;stroke-linejoin:miter;stroke-opacity:1"/>
<path class="bond-22 atom-12 atom-4" d="M 349.7,72.7 L 333.1,81.8" style="fill:none;fill-rule:evenodd;stroke:#000000;stroke-width:2.0px;stroke-linecap:butt;stroke-linejoin:miter;stroke-opacity:1"/>
<path class="bond-23 atom-22 atom-14" d="M 267.1,99.4 L 267.5,80.5" style="fill:none;fill-rule:evenodd;stroke:#000000;stroke-width:2.0px;stroke-linecap:butt;stroke-linejoin:miter;stroke-opacity:1"/>
<path d="M 284.5,71.5 L 284.1,71.3 L 283.3,71.8" style="fill:none;stroke:#000000;stroke-width:2.0px;stroke-linecap:butt;stroke-linejoin:miter;stroke-opacity:1;"/>
<path d="M 316.6,72.2 L 316.9,72.0 L 317.7,72.5" style="fill:none;stroke:#000000;stroke-width:2.0px;stroke-linecap:butt;stroke-linejoin:miter;stroke-opacity:1;"/>
<path d="M 252.2,71.1 L 251.3,70.7 L 250.5,71.1" style="fill:none;stroke:#000000;stroke-width:2.0px;stroke-linecap:butt;stroke-linejoin:miter;stroke-opacity:1;"/>
<path d="M 266.3,99.9 L 267.1,99.4 L 267.2,98.4" style="fill:none;stroke:#000000;stroke-width:2.0px;stroke-linecap:butt;stroke-linejoin:miter;stroke-opacity:1;"/>
<path class="atom-0" d="M 282.1 52.4 Q 282.1 51.1, 282.7 50.4 Q 283.3 49.7, 284.5 49.7 Q 285.7 49.7, 286.4 50.4 Q 287.0 51.1, 287.0 52.4 Q 287.0 53.7, 286.3 54.5 Q 285.7 55.2, 284.5 55.2 Q 283.3 55.2, 282.7 54.5 Q 282.1 53.7, 282.1 52.4 M 284.5 54.6 Q 285.3 54.6, 285.8 54.1 Q 286.2 53.5, 286.2 52.4 Q 286.2 51.4, 285.8 50.8 Q 285.3 50.3, 284.5 50.3 Q 283.7 50.3, 283.3 50.8 Q 282.8 51.4, 282.8 52.4 Q 282.8 53.5, 283.3 54.1 Q 283.7 54.6, 284.5 54.6 " fill="#FF0000"/>
<path class="atom-2" d="M 297.9 81.2 Q 297.9 79.9, 298.5 79.2 Q 299.1 78.4, 300.3 78.4 Q 301.5 78.4, 302.2 79.2 Q 302.8 79.9, 302.8 81.2 Q 302.8 82.5, 302.1 83.2 Q 301.5 83.9, 300.3 83.9 Q 299.1 83.9, 298.5 83.2 Q 297.9 82.5, 297.9 81.2 M 300.3 83.3 Q 301.1 83.3, 301.6 82.8 Q 302.0 82.2, 302.0 81.2 Q 302.0 80.1, 301.6 79.6 Q 301.1 79.0, 300.3 79.0 Q 299.5 79.0, 299.1 79.6 Q 298.6 80.1, 298.6 81.2 Q 298.6 82.2, 299.1 82.8 Q 299.5 83.3, 300.3 83.3 " fill="#FF0000"/>
<path class="atom-5" d="M 330.3 100.8 Q 330.3 99.5, 330.9 98.8 Q 331.5 98.1, 332.7 98.1 Q 333.9 98.1, 334.6 98.8 Q 335.2 99.5, 335.2 100.8 Q 335.2 102.1, 334.5 102.8 Q 333.9 103.6, 332.7 103.6 Q 331.5 103.6, 330.9 102.8 Q 330.3 102.1, 330.3 100.8 M 332.7 103.0 Q 333.5 103.0, 334.0 102.4 Q 334.4 101.9, 334.4 100.8 Q 334.4 99.7, 334.0 99.2 Q 333.5 98.7, 332.7 98.7 Q 331.9 98.7, 331.5 99.2 Q 331.0 99.7, 331.0 100.8 Q 331.0 101.9, 331.5 102.4 Q 331.9 103.0, 332.7 103.0 " fill="#FF0000"/>
<path class="atom-7" d="M 346.1 129.5 Q 346.1 128.2, 346.7 127.5 Q 347.3 126.8, 348.5 126.8 Q 349.7 126.8, 350.4 127.5 Q 351.0 128.2, 351.0 129.5 Q 351.0 130.8, 350.3 131.6 Q 349.7 132.3, 348.5 132.3 Q 347.3 132.3, 346.7 131.6 Q 346.1 130.8, 346.1 129.5 M 348.5 131.7 Q 349.3 131.7, 349.8 131.2 Q 350.2 130.6, 350.2 129.5 Q 350.2 128.5, 349.8 127.9 Q 349.3 127.4, 348.5 127.4 Q 347.7 127.4, 347.3 127.9 Q 346.8 128.5, 346.8 129.5 Q 346.8 130.6, 347.3 131.2 Q 347.7 131.7, 348.5 131.7 " fill="#FF0000"/>
<path class="atom-7" d="M 351.8 126.9 L 352.6 126.9 L 352.6 129.1 L 355.3 129.1 L 355.3 126.9 L 356.0 126.9 L 356.0 132.2 L 355.3 132.2 L 355.3 129.7 L 352.6 129.7 L 352.6 132.2 L 351.8 132.2 L 351.8 126.9 " fill="#FF0000"/>
<path class="atom-9" d="M 379.3 111.3 Q 379.3 110.0, 379.9 109.3 Q 380.5 108.6, 381.7 108.6 Q 382.9 108.6, 383.5 109.3 Q 384.2 110.0, 384.2 111.3 Q 384.2 112.6, 383.5 113.3 Q 382.9 114.1, 381.7 114.1 Q 380.5 114.1, 379.9 113.3 Q 379.3 112.6, 379.3 111.3 M 381.7 113.5 Q 382.5 113.5, 383.0 112.9 Q 383.4 112.4, 383.4 111.3 Q 383.4 110.2, 383.0 109.7 Q 382.5 109.2, 381.7 109.2 Q 380.9 109.2, 380.4 109.7 Q 380.0 110.2, 380.0 111.3 Q 380.0 112.4, 380.4 112.9 Q 380.9 113.5, 381.7 113.5 " fill="#FF0000"/>
<path class="atom-9" d="M 385.0 108.6 L 385.7 108.6 L 385.7 110.9 L 388.5 110.9 L 388.5 108.6 L 389.2 108.6 L 389.2 114.0 L 388.5 114.0 L 388.5 111.5 L 385.7 111.5 L 385.7 114.0 L 385.0 114.0 L 385.0 108.6 " fill="#FF0000"/>
<path class="atom-11" d="M 380.0 73.4 Q 380.0 72.1, 380.7 71.4 Q 381.3 70.7, 382.5 70.7 Q 383.7 70.7, 384.3 71.4 Q 385.0 72.1, 385.0 73.4 Q 385.0 74.7, 384.3 75.5 Q 383.7 76.2, 382.5 76.2 Q 381.3 76.2, 380.7 75.5 Q 380.0 74.7, 380.0 73.4 M 382.5 75.6 Q 383.3 75.6, 383.8 75.0 Q 384.2 74.5, 384.2 73.4 Q 384.2 72.4, 383.8 71.8 Q 383.3 71.3, 382.5 71.3 Q 381.7 71.3, 381.2 71.8 Q 380.8 72.4, 380.8 73.4 Q 380.8 74.5, 381.2 75.0 Q 381.7 75.6, 382.5 75.6 " fill="#FF0000"/>
<path class="atom-11" d="M 385.8 70.7 L 386.5 70.7 L 386.5 73.0 L 389.3 73.0 L 389.3 70.7 L 390.0 70.7 L 390.0 76.1 L 389.3 76.1 L 389.3 73.6 L 386.5 73.6 L 386.5 76.1 L 385.8 76.1 L 385.8 70.7 " fill="#FF0000"/>
<path class="atom-13" d="M 347.7 53.8 Q 347.7 52.5, 348.3 51.8 Q 348.9 51.1, 350.1 51.1 Q 351.3 51.1, 351.9 51.8 Q 352.6 52.5, 352.6 53.8 Q 352.6 55.1, 351.9 55.8 Q 351.3 56.6, 350.1 56.6 Q 348.9 56.6, 348.3 55.8 Q 347.7 55.1, 347.7 53.8 M 350.1 56.0 Q 350.9 56.0, 351.4 55.4 Q 351.8 54.9, 351.8 53.8 Q 351.8 52.7, 351.4 52.2 Q 350.9 51.7, 350.1 51.7 Q 349.3 51.7, 348.8 52.2 Q 348.4 52.7, 348.4 53.8 Q 348.4 54.9, 348.8 55.4 Q 349.3 56.0, 350.1 56.0 " fill="#FF0000"/>
<path class="atom-13" d="M 353.4 51.1 L 354.1 51.1 L 354.1 53.4 L 356.9 53.4 L 356.9 51.1 L 357.6 51.1 L 357.6 56.5 L 356.9 56.5 L 356.9 54.0 L 354.1 54.0 L 354.1 56.5 L 353.4 56.5 L 353.4 51.1 " fill="#FF0000"/>
<path class="atom-17" d="M 210.8 67.3 L 211.5 67.3 L 211.5 69.6 L 214.3 69.6 L 214.3 67.3 L 215.0 67.3 L 215.0 72.7 L 214.3 72.7 L 214.3 70.2 L 211.5 70.2 L 211.5 72.7 L 210.8 72.7 L 210.8 67.3 " fill="#FF0000"/>
<path class="atom-17" d="M 216.1 70.0 Q 216.1 68.7, 216.7 68.0 Q 217.4 67.3, 218.6 67.3 Q 219.7 67.3, 220.4 68.0 Q 221.0 68.7, 221.0 70.0 Q 221.0 71.3, 220.4 72.0 Q 219.7 72.8, 218.6 72.8 Q 217.4 72.8, 216.7 72.0 Q 216.1 71.3, 216.1 70.0 M 218.6 72.2 Q 219.4 72.2, 219.8 71.6 Q 220.3 71.1, 220.3 70.0 Q 220.3 68.9, 219.8 68.4 Q 219.4 67.9, 218.6 67.9 Q 217.7 67.9, 217.3 68.4 Q 216.8 68.9, 216.8 70.0 Q 216.8 71.1, 217.3 71.6 Q 217.7 72.2, 218.6 72.2 " fill="#FF0000"/>
<path class="atom-19" d="M 210.0 105.2 L 210.7 105.2 L 210.7 107.5 L 213.5 107.5 L 213.5 105.2 L 214.2 105.2 L 214.2 110.5 L 213.5 110.5 L 213.5 108.1 L 210.7 108.1 L 210.7 110.5 L 210.0 110.5 L 210.0 105.2 " fill="#FF0000"/>
<path class="atom-19" d="M 215.3 107.8 Q 215.3 106.6, 215.9 105.8 Q 216.6 105.1, 217.8 105.1 Q 218.9 105.1, 219.6 105.8 Q 220.2 106.6, 220.2 107.8 Q 220.2 109.1, 219.6 109.9 Q 218.9 110.6, 217.8 110.6 Q 216.6 110.6, 215.9 109.9 Q 215.3 109.2, 215.3 107.8 M 217.8 110.0 Q 218.6 110.0, 219.0 109.5 Q 219.5 108.9, 219.5 107.8 Q 219.5 106.8, 219.0 106.3 Q 218.6 105.7, 217.8 105.7 Q 216.9 105.7, 216.5 106.3 Q 216.1 106.8, 216.1 107.8 Q 216.1 108.9, 216.5 109.5 Q 216.9 110.0, 217.8 110.0 " fill="#FF0000"/>
<path class="atom-21" d="M 247.7 127.5 Q 247.7 126.2, 248.3 125.5 Q 249.0 124.7, 250.2 124.7 Q 251.3 124.7, 252.0 125.5 Q 252.6 126.2, 252.6 127.5 Q 252.6 128.8, 252.0 129.5 Q 251.3 130.2, 250.2 130.2 Q 249.0 130.2, 248.3 129.5 Q 247.7 128.8, 247.7 127.5 M 250.2 129.6 Q 251.0 129.6, 251.4 129.1 Q 251.9 128.5, 251.9 127.5 Q 251.9 126.4, 251.4 125.9 Q 251.0 125.3, 250.2 125.3 Q 249.3 125.3, 248.9 125.9 Q 248.4 126.4, 248.4 127.5 Q 248.4 128.5, 248.9 129.1 Q 249.3 129.6, 250.2 129.6 " fill="#FF0000"/>
<path class="atom-21" d="M 253.4 124.8 L 254.2 124.8 L 254.2 127.1 L 256.9 127.1 L 256.9 124.8 L 257.6 124.8 L 257.6 130.2 L 256.9 130.2 L 256.9 127.7 L 254.2 127.7 L 254.2 130.2 L 253.4 130.2 L 253.4 124.8 " fill="#FF0000"/>
<path class="legend" d="M 301.7 184.0 Q 302.7 184.4, 303.3 185.0 Q 303.8 185.7, 303.8 186.7 Q 303.8 188.2, 302.8 189.1 Q 301.8 190.0, 300.0 190.0 L 296.2 190.0 L 296.2 178.7 L 299.5 178.7 Q 301.4 178.7, 302.4 179.5 Q 303.4 180.2, 303.4 181.7 Q 303.4 183.4, 301.7 184.0 M 297.7 180.0 L 297.7 183.5 L 299.5 183.5 Q 300.6 183.5, 301.2 183.1 Q 301.8 182.6, 301.8 181.7 Q 301.8 180.0, 299.5 180.0 L 297.7 180.0 M 300.0 188.7 Q 301.1 188.7, 301.7 188.2 Q 302.2 187.7, 302.2 186.7 Q 302.2 185.7, 301.6 185.3 Q 301.0 184.8, 299.7 184.8 L 297.7 184.8 L 297.7 188.7 L 300.0 188.7 " fill="#000000"/>
</svg>