<svg xmlns="http://www.w3.org/2000/svg" xmlns:rdkit="http://www.rdkit.org/xml" xmlns:xlink="http://www.w3.org/1999/xlink" version="1.1" baseProfile="full" xml:space="preserve" width="800px" height="200px" viewBox="0 0 800 200">
<!-- END OF HEADER -->
<rect style="opacity:1.0;fill:#FFFFFF;stroke:none" width="800.0" height="200.0" x="0.0" y="0.0"> </rect>
<path class="bond-0 atom-0 atom-1" d="M 173.6,90.9 L 130.4,90.9" style="fill:none;fill-rule:evenodd;stroke:#000000;stroke-width:2.0px;stroke-linecap:butt;stroke-linejoin:miter;stroke-opacity:1"/>
<path class="bond-1 atom-1 atom-2" d="M 130.4,90.9 L 108.8,128.3" style="fill:none;fill-rule:evenodd;stroke:#000000;stroke-width:2.0px;stroke-linecap:butt;stroke-linejoin:miter;stroke-opacity:1"/>
<path class="bond-1 atom-1 atom-2" d="M 122.9,90.9 L 105.1,121.8" style="fill:none;fill-rule:evenodd;stroke:#000000;stroke-width:2.0px;stroke-linecap:butt;stroke-linejoin:miter;stroke-opacity:1"/>
<path class="bond-2 atom-2 atom-3" d="M 108.8,128.3 L 65.7,128.3" style="fill:none;fill-rule:evenodd;stroke:#000000;stroke-width:2.0px;stroke-linecap:butt;stroke-linejoin:miter;stroke-opacity:1"/>
<path class="bond-3 atom-3 atom-4" d="M 65.7,128.3 L 57.1,143.1" style="fill:none;fill-rule:evenodd;stroke:#000000;stroke-width:2.0px;stroke-linecap:butt;stroke-linejoin:miter;stroke-opacity:1"/>
<path class="bond-3 atom-3 atom-4" d="M 57.1,143.1 L 48.5,158.0" style="fill:none;fill-rule:evenodd;stroke:#FF0000;stroke-width:2.0px;stroke-linecap:butt;stroke-linejoin:miter;stroke-opacity:1"/>
<path class="bond-4 atom-3 atom-5" d="M 65.7,128.3 L 44.1,90.9" style="fill:none;fill-rule:evenodd;stroke:#000000;stroke-width:2.0px;stroke-linecap:butt;stroke-linejoin:miter;stroke-opacity:1"/>
<path class="bond-4 atom-3 atom-5" d="M 69.4,121.8 L 51.6,90.9" style="fill:none;fill-rule:evenodd;stroke:#000000;stroke-width:2.0px;stroke-linecap:butt;stroke-linejoin:miter;stroke-opacity:1"/>
<path class="bond-5 atom-5 atom-6" d="M 44.1,90.9 L 65.7,53.5" style="fill:none;fill-rule:evenodd;stroke:#000000;stroke-width:2.0px;stroke-linecap:butt;stroke-linejoin:miter;stroke-opacity:1"/>
<path class="bond-6 atom-6 atom-7" d="M 65.7,53.5 L 57.2,38.8" style="fill:none;fill-rule:evenodd;stroke:#000000;stroke-width:2.0px;stroke-linecap:butt;stroke-linejoin:miter;stroke-opacity:1"/>
<path class="bond-6 atom-6 atom-7" d="M 57.2,38.8 L 48.6,24.0" style="fill:none;fill-rule:evenodd;stroke:#FF0000;stroke-width:2.0px;stroke-linecap:butt;stroke-linejoin:miter;stroke-opacity:1"/>
<path class="bond-7 atom-6 atom-8" d="M 65.7,53.5 L 108.8,53.5" style="fill:none;fill-rule:evenodd;stroke:#000000;stroke-width:2.0px;stroke-linecap:butt;stroke-linejoin:miter;stroke-opacity:1"/>
<path class="bond-7 atom-6 atom-8" d="M 69.4,60.0 L 105.1,60.0" style="fill:none;fill-rule:evenodd;stroke:#000000;stroke-width:2.0px;stroke-linecap:butt;stroke-linejoin:miter;stroke-opacity:1"/>
<path class="bond-8 atom-8 atom-1" d="M 108.8,53.5 L 130.4,90.9" style="fill:none;fill-rule:evenodd;stroke:#000000;stroke-width:2.0px;stroke-linecap:butt;stroke-linejoin:miter;stroke-opacity:1"/>
<path d="M 109.9,126.4 L 108.8,128.3 L 106.7,128.3" style="fill:none;stroke:#000000;stroke-width:2.0px;stroke-linecap:butt;stroke-linejoin:miter;stroke-opacity:1;"/>
<path d="M 45.2,92.8 L 44.1,90.9 L 45.2,89.0" style="fill:none;stroke:#000000;stroke-width:2.0px;stroke-linecap:butt;stroke-linejoin:miter;stroke-opacity:1;"/>
<path d="M 106.7,53.5 L 108.8,53.5 L 109.9,55.4" style="fill:none;stroke:#000000;stroke-width:2.0px;stroke-linecap:butt;stroke-linejoin:miter;stroke-opacity:1;"/>
<path class="atom-4" d="M 26.4 159.6 L 28.1 159.6 L 28.1 164.8 L 34.4 164.8 L 34.4 159.6 L 36.0 159.6 L 36.0 171.8 L 34.4 171.8 L 34.4 166.2 L 28.1 166.2 L 28.1 171.8 L 26.4 171.8 L 26.4 159.6 " fill="#FF0000"/>
<path class="atom-4" d="M 38.5 165.7 Q 38.5 162.7, 40.0 161.1 Q 41.4 159.5, 44.1 159.5 Q 46.8 159.5, 48.3 161.1 Q 49.7 162.7, 49.7 165.7 Q 49.7 168.6, 48.3 170.3 Q 46.8 172.0, 44.1 172.0 Q 41.4 172.0, 40.0 170.3 Q 38.5 168.7, 38.5 165.7 M 44.1 170.6 Q 46.0 170.6, 47.0 169.4 Q 48.0 168.1, 48.0 165.7 Q 48.0 163.3, 47.0 162.1 Q 46.0 160.8, 44.1 160.8 Q 42.3 160.8, 41.2 162.0 Q 40.2 163.3, 40.2 165.7 Q 40.2 168.1, 41.2 169.4 Q 42.3 170.6, 44.1 170.6 " fill="#FF0000"/>
<path class="atom-7" d="M 26.4 10.1 L 28.1 10.1 L 28.1 15.3 L 34.4 15.3 L 34.4 10.1 L 36.0 10.1 L 36.0 22.4 L 34.4 22.4 L 34.4 16.7 L 28.1 16.7 L 28.1 22.4 L 26.4 22.4 L 26.4 10.1 " fill="#FF0000"/>
<path class="atom-7" d="M 38.5 16.2 Q 38.5 13.3, 40.0 11.6 Q 41.4 10.0, 44.1 10.0 Q 46.8 10.0, 48.3 11.6 Q 49.7 13.3, 49.7 16.2 Q 49.7 19.2, 48.3 20.9 Q 46.8 22.5, 44.1 22.5 Q 41.4 22.5, 40.0 20.9 Q 38.5 19.2, 38.5 16.2 M 44.1 21.2 Q 46.0 21.2, 47.0 19.9 Q 48.0 18.7, 48.0 16.2 Q 48.0 13.8, 47.0 12.6 Q 46.0 11.4, 44.1 11.4 Q 42.3 11.4, 41.2 12.6 Q 40.2 13.8, 40.2 16.2 Q 40.2 18.7, 41.2 19.9 Q 42.3 21.2, 44.1 21.2 " fill="#FF0000"/>
<path class="legend" d="M 103.4 190.0 L 102.2 186.7 L 97.8 186.7 L 96.6 190.0 L 95.1 190.0 L 99.0 178.7 L 100.9 178.7 L 104.9 190.0 L 103.4 190.0 M 98.2 185.4 L 101.8 185.4 L 100.0 180.3 L 98.2 185.4 " fill="#000000"/>
</svg>