<svg xmlns="http://www.w3.org/2000/svg" xmlns:rdkit="http://www.rdkit.org/xml" xmlns:xlink="http://www.w3.org/1999/xlink" version="1.1" baseProfile="full" xml:space="preserve" width="800px" height="400px" viewBox="0 0 800 400">
<!-- END OF HEADER -->
<rect style="opacity:1.0;fill:#FFFFFF;stroke:none" width="800.0" height="400.0" x="0.0" y="0.0"> </rect>
<path class="bond-0 atom-0 atom-1" d="M 147.6,91.0 L 115.9,91.0" style="fill:none;fill-rule:evenodd;stroke:#000000;stroke-width:2.0px;stroke-linecap:butt;stroke-linejoin:miter;stroke-opacity:1"/>
<path class="bond-1 atom-1 atom-2" d="M 115.9,91.0 L 100.0,118.5" style="fill:none;fill-rule:evenodd;stroke:#000000;stroke-width:2.0px;stroke-linecap:butt;stroke-linejoin:miter;stroke-opacity:1"/>
<path class="bond-1 atom-1 atom-2" d="M 110.4,91.0 L 97.3,113.7" style="fill:none;fill-rule:evenodd;stroke:#000000;stroke-width:2.0px;stroke-linecap:butt;stroke-linejoin:miter;stroke-opacity:1"/>
<path class="bond-2 atom-2 atom-3" d="M 100.0,118.5 L 68.3,118.5" style="fill:none;fill-rule:evenodd;stroke:#000000;stroke-width:2.0px;stroke-linecap:butt;stroke-linejoin:miter;stroke-opacity:1"/>
<path class="bond-3 atom-3 atom-4" d="M 68.3,118.5 L 52.4,91.0" style="fill:none;fill-rule:evenodd;stroke:#000000;stroke-width:2.0px;stroke-linecap:butt;stroke-linejoin:miter;stroke-opacity:1"/>
<path class="bond-3 atom-3 atom-4" d="M 71.0,113.7 L 57.9,91.0" style="fill:none;fill-rule:evenodd;stroke:#000000;stroke-width:2.0px;stroke-linecap:butt;stroke-linejoin:miter;stroke-opacity:1"/>
<path class="bond-4 atom-4 atom-5" d="M 52.4,91.0 L 68.3,63.5" style="fill:none;fill-rule:evenodd;stroke:#000000;stroke-width:2.0px;stroke-linecap:butt;stroke-linejoin:miter;stroke-opacity:1"/>
<path class="bond-5 atom-5 atom-6" d="M 68.3,63.5 L 100.0,63.5" style="fill:none;fill-rule:evenodd;stroke:#000000;stroke-width:2.0px;stroke-linecap:butt;stroke-linejoin:miter;stroke-opacity:1"/>
<path class="bond-5 atom-5 atom-6" d="M 71.0,68.3 L 97.3,68.3" style="fill:none;fill-rule:evenodd;stroke:#000000;stroke-width:2.0px;stroke-linecap:butt;stroke-linejoin:miter;stroke-opacity:1"/>
<path class="bond-6 atom-6 atom-1" d="M 100.0,63.5 L 115.9,91.0" style="fill:none;fill-rule:evenodd;stroke:#000000;stroke-width:2.0px;stroke-linecap:butt;stroke-linejoin:miter;stroke-opacity:1"/>
<path d="M 100.8,117.1 L 100.0,118.5 L 98.4,118.5" style="fill:none;stroke:#000000;stroke-width:2.0px;stroke-linecap:butt;stroke-linejoin:miter;stroke-opacity:1;"/>
<path d="M 69.9,118.5 L 68.3,118.5 L 67.5,117.1" style="fill:none;stroke:#000000;stroke-width:2.0px;stroke-linecap:butt;stroke-linejoin:miter;stroke-opacity:1;"/>
<path d="M 53.2,92.4 L 52.4,91.0 L 53.2,89.6" style="fill:none;stroke:#000000;stroke-width:2.0px;stroke-linecap:butt;stroke-linejoin:miter;stroke-opacity:1;"/>
<path d="M 67.5,64.9 L 68.3,63.5 L 69.9,63.5" style="fill:none;stroke:#000000;stroke-width:2.0px;stroke-linecap:butt;stroke-linejoin:miter;stroke-opacity:1;"/>
<path d="M 98.4,63.5 L 100.0,63.5 L 100.8,64.9" style="fill:none;stroke:#000000;stroke-width:2.0px;stroke-linecap:butt;stroke-linejoin:miter;stroke-opacity:1;"/>
<path class="legend" d="M 103.4 190.0 L 102.2 186.7 L 97.8 186.7 L 96.6 190.0 L 95.1 190.0 L 99.0 178.7 L 100.9 178.7 L 104.9 190.0 L 103.4 190.0 M 98.2 185.4 L 101.8 185.4 L 100.0 180.3 L 98.2 185.4 " fill="#000000"/>
<path class="bond-0 atom-0 atom-1" d="M 297.6,132.9 L 297.6,119.2" style="fill:none;fill-rule:evenodd;stroke:#FF0000;stroke-width:2.0px;stroke-linecap:butt;stroke-linejoin:miter;stroke-opacity:1"/>
<path class="bond-0 atom-0 atom-1" d="M 297.6,119.2 L 297.6,105.4" style="fill:none;fill-rule:evenodd;stroke:#000000;stroke-width:2.0px;stroke-linecap:butt;stroke-linejoin:miter;stroke-opacity:1"/>
<path class="bond-0 atom-0 atom-1" d="M 302.4,132.9 L 302.4,119.2" style="fill:none;fill-rule:evenodd;stroke:#FF0000;stroke-width:2.0px;stroke-linecap:butt;stroke-linejoin:miter;stroke-opacity:1"/>
<path class="bond-0 atom-0 atom-1" d="M 302.4,119.2 L 302.4,105.4" style="fill:none;fill-rule:evenodd;stroke:#000000;stroke-width:2.0px;stroke-linecap:butt;stroke-linejoin:miter;stroke-opacity:1"/>
<path class="bond-1 atom-1 atom-2" d="M 300.0,106.8 L 327.5,90.9" style="fill:none;fill-rule:evenodd;stroke:#000000;stroke-width:2.0px;stroke-linecap:butt;stroke-linejoin:miter;stroke-opacity:1"/>
<path class="bond-2 atom-2 atom-3" d="M 327.5,90.9 L 354.9,106.8" style="fill:none;fill-rule:evenodd;stroke:#000000;stroke-width:2.0px;stroke-linecap:butt;stroke-linejoin:miter;stroke-opacity:1"/>
<path class="bond-2 atom-2 atom-3" d="M 332.2,88.2 L 354.9,101.3" style="fill:none;fill-rule:evenodd;stroke:#000000;stroke-width:2.0px;stroke-linecap:butt;stroke-linejoin:miter;stroke-opacity:1"/>
<path class="bond-3 atom-3 atom-4" d="M 354.9,106.8 L 382.4,90.9" style="fill:none;fill-rule:evenodd;stroke:#000000;stroke-width:2.0px;stroke-linecap:butt;stroke-linejoin:miter;stroke-opacity:1"/>
<path class="bond-4 atom-4 atom-5" d="M 382.4,90.9 L 382.4,59.2" style="fill:none;fill-rule:evenodd;stroke:#000000;stroke-width:2.0px;stroke-linecap:butt;stroke-linejoin:miter;stroke-opacity:1"/>
<path class="bond-4 atom-4 atom-5" d="M 377.6,88.2 L 377.6,62.0" style="fill:none;fill-rule:evenodd;stroke:#000000;stroke-width:2.0px;stroke-linecap:butt;stroke-linejoin:miter;stroke-opacity:1"/>
<path class="bond-5 atom-5 atom-6" d="M 382.4,59.2 L 354.9,43.4" style="fill:none;fill-rule:evenodd;stroke:#000000;stroke-width:2.0px;stroke-linecap:butt;stroke-linejoin:miter;stroke-opacity:1"/>
<path class="bond-6 atom-6 atom-7" d="M 354.9,43.4 L 327.5,59.2" style="fill:none;fill-rule:evenodd;stroke:#000000;stroke-width:2.0px;stroke-linecap:butt;stroke-linejoin:miter;stroke-opacity:1"/>
<path class="bond-6 atom-6 atom-7" d="M 354.9,48.9 L 332.2,62.0" style="fill:none;fill-rule:evenodd;stroke:#000000;stroke-width:2.0px;stroke-linecap:butt;stroke-linejoin:miter;stroke-opacity:1"/>
<path class="bond-7 atom-7 atom-8" d="M 327.5,59.2 L 316.3,52.8" style="fill:none;fill-rule:evenodd;stroke:#000000;stroke-width:2.0px;stroke-linecap:butt;stroke-linejoin:miter;stroke-opacity:1"/>
<path class="bond-7 atom-7 atom-8" d="M 316.3,52.8 L 305.2,46.3" style="fill:none;fill-rule:evenodd;stroke:#FF0000;stroke-width:2.0px;stroke-linecap:butt;stroke-linejoin:miter;stroke-opacity:1"/>
<path class="bond-8 atom-8 atom-9" d="M 294.8,46.3 L 283.7,52.8" style="fill:none;fill-rule:evenodd;stroke:#FF0000;stroke-width:2.0px;stroke-linecap:butt;stroke-linejoin:miter;stroke-opacity:1"/>
<path class="bond-8 atom-8 atom-9" d="M 283.7,52.8 L 272.5,59.2" style="fill:none;fill-rule:evenodd;stroke:#000000;stroke-width:2.0px;stroke-linecap:butt;stroke-linejoin:miter;stroke-opacity:1"/>
<path class="bond-9 atom-9 atom-10" d="M 272.5,59.2 L 245.1,43.4" style="fill:none;fill-rule:evenodd;stroke:#000000;stroke-width:2.0px;stroke-linecap:butt;stroke-linejoin:miter;stroke-opacity:1"/>
<path class="bond-9 atom-9 atom-10" d="M 267.8,62.0 L 245.1,48.9" style="fill:none;fill-rule:evenodd;stroke:#000000;stroke-width:2.0px;stroke-linecap:butt;stroke-linejoin:miter;stroke-opacity:1"/>
<path class="bond-10 atom-10 atom-11" d="M 245.1,43.4 L 217.6,59.2" style="fill:none;fill-rule:evenodd;stroke:#000000;stroke-width:2.0px;stroke-linecap:butt;stroke-linejoin:miter;stroke-opacity:1"/>
<path class="bond-11 atom-11 atom-12" d="M 217.6,59.2 L 217.6,90.9" style="fill:none;fill-rule:evenodd;stroke:#000000;stroke-width:2.0px;stroke-linecap:butt;stroke-linejoin:miter;stroke-opacity:1"/>
<path class="bond-11 atom-11 atom-12" d="M 222.4,62.0 L 222.4,88.2" style="fill:none;fill-rule:evenodd;stroke:#000000;stroke-width:2.0px;stroke-linecap:butt;stroke-linejoin:miter;stroke-opacity:1"/>
<path class="bond-12 atom-12 atom-13" d="M 217.6,90.9 L 245.1,106.8" style="fill:none;fill-rule:evenodd;stroke:#000000;stroke-width:2.0px;stroke-linecap:butt;stroke-linejoin:miter;stroke-opacity:1"/>
<path class="bond-13 atom-13 atom-14" d="M 245.1,106.8 L 272.5,90.9" style="fill:none;fill-rule:evenodd;stroke:#000000;stroke-width:2.0px;stroke-linecap:butt;stroke-linejoin:miter;stroke-opacity:1"/>
<path class="bond-13 atom-13 atom-14" d="M 245.1,101.3 L 267.8,88.2" style="fill:none;fill-rule:evenodd;stroke:#000000;stroke-width:2.0px;stroke-linecap:butt;stroke-linejoin:miter;stroke-opacity:1"/>
<path class="bond-14 atom-14 atom-1" d="M 272.5,90.9 L 300.0,106.8" style="fill:none;fill-rule:evenodd;stroke:#000000;stroke-width:2.0px;stroke-linecap:butt;stroke-linejoin:miter;stroke-opacity:1"/>
<path class="bond-15 atom-7 atom-2" d="M 327.5,59.2 L 327.5,90.9" style="fill:none;fill-rule:evenodd;stroke:#000000;stroke-width:2.0px;stroke-linecap:butt;stroke-linejoin:miter;stroke-opacity:1"/>
<path class="bond-16 atom-14 atom-9" d="M 272.5,90.9 L 272.5,59.2" style="fill:none;fill-rule:evenodd;stroke:#000000;stroke-width:2.0px;stroke-linecap:butt;stroke-linejoin:miter;stroke-opacity:1"/>
<path d="M 301.4,106.0 L 300.0,106.8 L 298.6,106.0" style="fill:none;stroke:#000000;stroke-width:2.0px;stroke-linecap:butt;stroke-linejoin:miter;stroke-opacity:1;"/>
<path d="M 353.6,106.0 L 354.9,106.8 L 356.3,106.0" style="fill:none;stroke:#000000;stroke-width:2.0px;stroke-linecap:butt;stroke-linejoin:miter;stroke-opacity:1;"/>
<path d="M 381.0,91.7 L 382.4,90.9 L 382.4,89.3" style="fill:none;stroke:#000000;stroke-width:2.0px;stroke-linecap:butt;stroke-linejoin:miter;stroke-opacity:1;"/>
<path d="M 382.4,60.8 L 382.4,59.2 L 381.0,58.4" style="fill:none;stroke:#000000;stroke-width:2.0px;stroke-linecap:butt;stroke-linejoin:miter;stroke-opacity:1;"/>
<path d="M 356.3,44.2 L 354.9,43.4 L 353.6,44.2" style="fill:none;stroke:#000000;stroke-width:2.0px;stroke-linecap:butt;stroke-linejoin:miter;stroke-opacity:1;"/>
<path d="M 246.4,44.2 L 245.1,43.4 L 243.7,44.2" style="fill:none;stroke:#000000;stroke-width:2.0px;stroke-linecap:butt;stroke-linejoin:miter;stroke-opacity:1;"/>
<path d="M 219.0,58.4 L 217.6,59.2 L 217.6,60.8" style="fill:none;stroke:#000000;stroke-width:2.0px;stroke-linecap:butt;stroke-linejoin:miter;stroke-opacity:1;"/>
<path d="M 217.6,89.3 L 217.6,90.9 L 219.0,91.7" style="fill:none;stroke:#000000;stroke-width:2.0px;stroke-linecap:butt;stroke-linejoin:miter;stroke-opacity:1;"/>
<path d="M 243.7,106.0 L 245.1,106.8 L 246.4,106.0" style="fill:none;stroke:#000000;stroke-width:2.0px;stroke-linecap:butt;stroke-linejoin:miter;stroke-opacity:1;"/>
<path class="atom-0" d="M 295.9 138.5 Q 295.9 136.4, 296.9 135.2 Q 298.0 134.0, 300.0 134.0 Q 302.0 134.0, 303.1 135.2 Q 304.1 136.4, 304.1 138.5 Q 304.1 140.7, 303.0 142.0 Q 302.0 143.2, 300.0 143.2 Q 298.0 143.2, 296.9 142.0 Q 295.9 140.7, 295.9 138.5 M 300.0 142.2 Q 301.4 142.2, 302.1 141.3 Q 302.9 140.3, 302.9 138.5 Q 302.9 136.8, 302.1 135.9 Q 301.4 135.0, 300.0 135.0 Q 298.6 135.0, 297.9 135.9 Q 297.1 136.7, 297.1 138.5 Q 297.1 140.3, 297.9 141.3 Q 298.6 142.2, 300.0 142.2 " fill="#FF0000"/>
<path class="atom-8" d="M 295.9 43.4 Q 295.9 41.2, 296.9 40.0 Q 298.0 38.8, 300.0 38.8 Q 302.0 38.8, 303.1 40.0 Q 304.1 41.2, 304.1 43.4 Q 304.1 45.6, 303.0 46.8 Q 302.0 48.0, 300.0 48.0 Q 298.0 48.0, 296.9 46.8 Q 295.9 45.6, 295.9 43.4 M 300.0 47.0 Q 301.4 47.0, 302.1 46.1 Q 302.9 45.2, 302.9 43.4 Q 302.9 41.6, 302.1 40.7 Q 301.4 39.8, 300.0 39.8 Q 298.6 39.8, 297.9 40.7 Q 297.1 41.6, 297.1 43.4 Q 297.1 45.2, 297.9 46.1 Q 298.6 47.0, 300.0 47.0 " fill="#FF0000"/>
<path class="legend" d="M 301.7 184.0 Q 302.7 184.4, 303.3 185.0 Q 303.8 185.7, 303.8 186.7 Q 303.8 188.2, 302.8 189.1 Q 301.8 190.0, 300.0 190.0 L 296.2 190.0 L 296.2 178.7 L 299.5 178.7 Q 301.4 178.7, 302.4 179.5 Q 303.4 180.2, 303.4 181.7 Q 303.4 183.4, 301.7 184.0 M 297.7 180.0 L 297.7 183.5 L 299.5 183.5 Q 300.6 183.5, 301.2 183.1 Q 301.8 182.6, 301.8 181.7 Q 301.8 180.0, 299.5 180.0 L 297.7 180.0 M 300.0 188.7 Q 301.1 188.7, 301.7 188.2 Q 302.2 187.7, 302.2 186.7 Q 302.2 185.7, 301.6 185.3 Q 301.0 184.8, 299.7 184.8 L 297.7 184.8 L 297.7 188.7 L 300.0 188.7 " fill="#000000"/>
<path class="bond-0 atom-0 atom-1" d="M 466.3,114.7 L 493.7,98.9" style="fill:none;fill-rule:evenodd;stroke:#000000;stroke-width:2.0px;stroke-linecap:butt;stroke-linejoin:miter;stroke-opacity:1"/>
<path class="bond-1 atom-1 atom-2" d="M 496.1,100.2 L 496.1,86.6" style="fill:none;fill-rule:evenodd;stroke:#000000;stroke-width:2.0px;stroke-linecap:butt;stroke-linejoin:miter;stroke-opacity:1"/>
<path class="bond-1 atom-1 atom-2" d="M 496.1,86.6 L 496.1,72.9" style="fill:none;fill-rule:evenodd;stroke:#FF0000;stroke-width:2.0px;stroke-linecap:butt;stroke-linejoin:miter;stroke-opacity:1"/>
<path class="bond-1 atom-1 atom-2" d="M 491.3,100.2 L 491.3,86.6" style="fill:none;fill-rule:evenodd;stroke:#000000;stroke-width:2.0px;stroke-linecap:butt;stroke-linejoin:miter;stroke-opacity:1"/>
<path class="bond-1 atom-1 atom-2" d="M 491.3,86.6 L 491.3,72.9" style="fill:none;fill-rule:evenodd;stroke:#FF0000;stroke-width:2.0px;stroke-linecap:butt;stroke-linejoin:miter;stroke-opacity:1"/>
<path class="bond-2 atom-1 atom-3" d="M 493.7,98.9 L 504.9,105.3" style="fill:none;fill-rule:evenodd;stroke:#000000;stroke-width:2.0px;stroke-linecap:butt;stroke-linejoin:miter;stroke-opacity:1"/>
<path class="bond-2 atom-1 atom-3" d="M 504.9,105.3 L 516.0,111.7" style="fill:none;fill-rule:evenodd;stroke:#FF0000;stroke-width:2.0px;stroke-linecap:butt;stroke-linejoin:miter;stroke-opacity:1"/>
<path d="M 492.4,99.7 L 493.7,98.9 L 494.3,99.2" style="fill:none;stroke:#000000;stroke-width:2.0px;stroke-linecap:butt;stroke-linejoin:miter;stroke-opacity:1;"/>
<path class="atom-2" d="M 489.6 67.2 Q 489.6 65.0, 490.7 63.8 Q 491.7 62.6, 493.7 62.6 Q 495.7 62.6, 496.8 63.8 Q 497.8 65.0, 497.8 67.2 Q 497.8 69.4, 496.8 70.6 Q 495.7 71.8, 493.7 71.8 Q 491.7 71.8, 490.7 70.6 Q 489.6 69.4, 489.6 67.2 M 493.7 70.8 Q 495.1 70.8, 495.8 69.9 Q 496.6 69.0, 496.6 67.2 Q 496.6 65.4, 495.8 64.5 Q 495.1 63.6, 493.7 63.6 Q 492.4 63.6, 491.6 64.5 Q 490.9 65.4, 490.9 67.2 Q 490.9 69.0, 491.6 69.9 Q 492.4 70.8, 493.7 70.8 " fill="#FF0000"/>
<path class="atom-3" d="M 517.1 114.7 Q 517.1 112.6, 518.1 111.4 Q 519.2 110.2, 521.2 110.2 Q 523.2 110.2, 524.2 111.4 Q 525.3 112.6, 525.3 114.7 Q 525.3 116.9, 524.2 118.2 Q 523.2 119.4, 521.2 119.4 Q 519.2 119.4, 518.1 118.2 Q 517.1 116.9, 517.1 114.7 M 521.2 118.4 Q 522.6 118.4, 523.3 117.5 Q 524.0 116.5, 524.0 114.7 Q 524.0 113.0, 523.3 112.1 Q 522.6 111.2, 521.2 111.2 Q 519.8 111.2, 519.1 112.1 Q 518.3 113.0, 518.3 114.7 Q 518.3 116.6, 519.1 117.5 Q 519.8 118.4, 521.2 118.4 " fill="#FF0000"/>
<path class="atom-3" d="M 526.7 110.3 L 527.9 110.3 L 527.9 114.1 L 532.5 114.1 L 532.5 110.3 L 533.7 110.3 L 533.7 119.3 L 532.5 119.3 L 532.5 115.1 L 527.9 115.1 L 527.9 119.3 L 526.7 119.3 L 526.7 110.3 " fill="#FF0000"/>
<path class="legend" d="M 495.6 184.2 Q 495.6 181.4, 496.9 179.9 Q 498.3 178.4, 500.8 178.4 Q 503.1 178.4, 504.4 180.0 L 503.3 180.9 Q 502.4 179.7, 500.8 179.7 Q 499.1 179.7, 498.2 180.9 Q 497.3 182.0, 497.3 184.2 Q 497.3 186.4, 498.2 187.6 Q 499.1 188.7, 501.0 188.7 Q 502.2 188.7, 503.7 188.0 L 504.1 189.2 Q 503.5 189.6, 502.6 189.8 Q 501.7 190.0, 500.7 190.0 Q 498.3 190.0, 496.9 188.5 Q 495.6 187.0, 495.6 184.2 " fill="#000000"/>
<path class="bond-0 atom-0 atom-1" d="M 635.2,112.4 L 639.1,99.3" style="fill:none;fill-rule:evenodd;stroke:#FF0000;stroke-width:2.0px;stroke-linecap:butt;stroke-linejoin:miter;stroke-opacity:1"/>
<path class="bond-0 atom-0 atom-1" d="M 639.1,99.3 L 642.9,86.3" style="fill:none;fill-rule:evenodd;stroke:#000000;stroke-width:2.0px;stroke-linecap:butt;stroke-linejoin:miter;stroke-opacity:1"/>
<path class="bond-0 atom-0 atom-1" d="M 639.7,113.8 L 643.6,100.7" style="fill:none;fill-rule:evenodd;stroke:#FF0000;stroke-width:2.0px;stroke-linecap:butt;stroke-linejoin:miter;stroke-opacity:1"/>
<path class="bond-0 atom-0 atom-1" d="M 643.6,100.7 L 647.5,87.6" style="fill:none;fill-rule:evenodd;stroke:#000000;stroke-width:2.0px;stroke-linecap:butt;stroke-linejoin:miter;stroke-opacity:1"/>
<path class="bond-1 atom-1 atom-2" d="M 644.8,88.3 L 636.5,79.5" style="fill:none;fill-rule:evenodd;stroke:#000000;stroke-width:2.0px;stroke-linecap:butt;stroke-linejoin:miter;stroke-opacity:1"/>
<path class="bond-1 atom-1 atom-2" d="M 636.5,79.5 L 628.2,70.7" style="fill:none;fill-rule:evenodd;stroke:#FF0000;stroke-width:2.0px;stroke-linecap:butt;stroke-linejoin:miter;stroke-opacity:1"/>
<path class="bond-2 atom-1 atom-3" d="M 644.8,88.3 L 675.7,80.9" style="fill:none;fill-rule:evenodd;stroke:#000000;stroke-width:2.0px;stroke-linecap:butt;stroke-linejoin:miter;stroke-opacity:1"/>
<path class="bond-3 atom-3 atom-4" d="M 675.7,80.9 L 697.5,103.9" style="fill:none;fill-rule:evenodd;stroke:#000000;stroke-width:2.0px;stroke-linecap:butt;stroke-linejoin:miter;stroke-opacity:1"/>
<path class="bond-3 atom-3 atom-4" d="M 674.1,86.1 L 694.0,107.1" style="fill:none;fill-rule:evenodd;stroke:#000000;stroke-width:2.0px;stroke-linecap:butt;stroke-linejoin:miter;stroke-opacity:1"/>
<path class="bond-4 atom-4 atom-5" d="M 697.5,103.9 L 728.3,96.5" style="fill:none;fill-rule:evenodd;stroke:#000000;stroke-width:2.0px;stroke-linecap:butt;stroke-linejoin:miter;stroke-opacity:1"/>
<path class="bond-5 atom-5 atom-6" d="M 728.3,96.5 L 737.3,66.1" style="fill:none;fill-rule:evenodd;stroke:#000000;stroke-width:2.0px;stroke-linecap:butt;stroke-linejoin:miter;stroke-opacity:1"/>
<path class="bond-5 atom-5 atom-6" d="M 733.7,95.2 L 741.1,70.0" style="fill:none;fill-rule:evenodd;stroke:#000000;stroke-width:2.0px;stroke-linecap:butt;stroke-linejoin:miter;stroke-opacity:1"/>
<path class="bond-6 atom-6 atom-7" d="M 737.3,66.1 L 768.2,58.7" style="fill:none;fill-rule:evenodd;stroke:#000000;stroke-width:2.0px;stroke-linecap:butt;stroke-linejoin:miter;stroke-opacity:1"/>
<path class="bond-7 atom-7 atom-8" d="M 768.2,58.7 L 790.0,81.7" style="fill:none;fill-rule:evenodd;stroke:#000000;stroke-width:2.0px;stroke-linecap:butt;stroke-linejoin:miter;stroke-opacity:1"/>
<path class="bond-7 atom-7 atom-8" d="M 766.6,63.9 L 784.7,82.9" style="fill:none;fill-rule:evenodd;stroke:#000000;stroke-width:2.0px;stroke-linecap:butt;stroke-linejoin:miter;stroke-opacity:1"/>
<path class="bond-8 atom-8 atom-9" d="M 790.0,81.7 L 781.0,112.1" style="fill:none;fill-rule:evenodd;stroke:#000000;stroke-width:2.0px;stroke-linecap:butt;stroke-linejoin:miter;stroke-opacity:1"/>
<path class="bond-9 atom-9 atom-10" d="M 781.0,112.1 L 750.2,119.5" style="fill:none;fill-rule:evenodd;stroke:#000000;stroke-width:2.0px;stroke-linecap:butt;stroke-linejoin:miter;stroke-opacity:1"/>
<path class="bond-9 atom-9 atom-10" d="M 777.2,108.1 L 751.7,114.2" style="fill:none;fill-rule:evenodd;stroke:#000000;stroke-width:2.0px;stroke-linecap:butt;stroke-linejoin:miter;stroke-opacity:1"/>
<path class="bond-10 atom-10 atom-5" d="M 750.2,119.5 L 728.3,96.5" style="fill:none;fill-rule:evenodd;stroke:#000000;stroke-width:2.0px;stroke-linecap:butt;stroke-linejoin:miter;stroke-opacity:1"/>
<path d="M 644.4,87.8 L 644.8,88.3 L 646.4,87.9" style="fill:none;stroke:#000000;stroke-width:2.0px;stroke-linecap:butt;stroke-linejoin:miter;stroke-opacity:1;"/>
<path d="M 674.1,81.2 L 675.7,80.9 L 676.8,82.0" style="fill:none;stroke:#000000;stroke-width:2.0px;stroke-linecap:butt;stroke-linejoin:miter;stroke-opacity:1;"/>
<path d="M 696.4,102.7 L 697.5,103.9 L 699.0,103.5" style="fill:none;stroke:#000000;stroke-width:2.0px;stroke-linecap:butt;stroke-linejoin:miter;stroke-opacity:1;"/>
<path d="M 736.9,67.6 L 737.3,66.1 L 738.9,65.7" style="fill:none;stroke:#000000;stroke-width:2.0px;stroke-linecap:butt;stroke-linejoin:miter;stroke-opacity:1;"/>
<path d="M 766.6,59.0 L 768.2,58.7 L 769.3,59.8" style="fill:none;stroke:#000000;stroke-width:2.0px;stroke-linecap:butt;stroke-linejoin:miter;stroke-opacity:1;"/>
<path d="M 788.9,80.5 L 790.0,81.7 L 789.5,83.2" style="fill:none;stroke:#000000;stroke-width:2.0px;stroke-linecap:butt;stroke-linejoin:miter;stroke-opacity:1;"/>
<path d="M 781.4,110.5 L 781.0,112.1 L 779.4,112.4" style="fill:none;stroke:#000000;stroke-width:2.0px;stroke-linecap:butt;stroke-linejoin:miter;stroke-opacity:1;"/>
<path d="M 751.7,119.1 L 750.2,119.5 L 749.1,118.3" style="fill:none;stroke:#000000;stroke-width:2.0px;stroke-linecap:butt;stroke-linejoin:miter;stroke-opacity:1;"/>
<path class="atom-0" d="M 631.7 118.7 Q 631.7 116.5, 632.8 115.3 Q 633.8 114.1, 635.8 114.1 Q 637.8 114.1, 638.9 115.3 Q 639.9 116.5, 639.9 118.7 Q 639.9 120.9, 638.9 122.1 Q 637.8 123.3, 635.8 123.3 Q 633.8 123.3, 632.8 122.1 Q 631.7 120.9, 631.7 118.7 M 635.8 122.3 Q 637.2 122.3, 637.9 121.4 Q 638.7 120.5, 638.7 118.7 Q 638.7 116.9, 637.9 116.0 Q 637.2 115.1, 635.8 115.1 Q 634.4 115.1, 633.7 116.0 Q 633.0 116.9, 633.0 118.7 Q 633.0 120.5, 633.7 121.4 Q 634.4 122.3, 635.8 122.3 " fill="#FF0000"/>
<path class="atom-2" d="M 610.0 60.8 L 611.2 60.8 L 611.2 64.6 L 615.8 64.6 L 615.8 60.8 L 617.0 60.8 L 617.0 69.8 L 615.8 69.8 L 615.8 65.6 L 611.2 65.6 L 611.2 69.8 L 610.0 69.8 L 610.0 60.8 " fill="#FF0000"/>
<path class="atom-2" d="M 618.9 65.3 Q 618.9 63.1, 619.9 61.9 Q 621.0 60.7, 623.0 60.7 Q 625.0 60.7, 626.0 61.9 Q 627.1 63.1, 627.1 65.3 Q 627.1 67.5, 626.0 68.7 Q 625.0 69.9, 623.0 69.9 Q 621.0 69.9, 619.9 68.7 Q 618.9 67.5, 618.9 65.3 M 623.0 68.9 Q 624.4 68.9, 625.1 68.0 Q 625.8 67.1, 625.8 65.3 Q 625.8 63.5, 625.1 62.6 Q 624.4 61.7, 623.0 61.7 Q 621.6 61.7, 620.9 62.6 Q 620.1 63.5, 620.1 65.3 Q 620.1 67.1, 620.9 68.0 Q 621.6 68.9, 623.0 68.9 " fill="#FF0000"/>
<path class="legend" d="M 699.2 178.7 Q 701.7 178.7, 703.1 180.2 Q 704.4 181.6, 704.4 184.3 Q 704.4 187.0, 703.1 188.5 Q 701.7 190.0, 699.2 190.0 L 695.6 190.0 L 695.6 178.7 L 699.2 178.7 M 699.2 188.7 Q 701.0 188.7, 701.9 187.6 Q 702.8 186.5, 702.8 184.3 Q 702.8 182.1, 701.9 181.0 Q 701.0 180.0, 699.2 180.0 L 697.1 180.0 L 697.1 188.7 L 699.2 188.7 " fill="#000000"/>
<path class="bond-0 atom-0 atom-1" d="M 58.1,293.9 L 87.3,281.5" style="fill:none;fill-rule:evenodd;stroke:#000000;stroke-width:2.0px;stroke-linecap:butt;stroke-linejoin:miter;stroke-opacity:1"/>
<path class="bond-1 atom-1 atom-2" d="M 87.3,281.5 L 112.7,300.5" style="fill:none;fill-rule:evenodd;stroke:#000000;stroke-width:2.0px;stroke-linecap:butt;stroke-linejoin:miter;stroke-opacity:1"/>
<path class="bond-2 atom-2 atom-3" d="M 112.7,300.5 L 141.9,288.1" style="fill:none;fill-rule:evenodd;stroke:#000000;stroke-width:2.0px;stroke-linecap:butt;stroke-linejoin:miter;stroke-opacity:1"/>
<path d="M 85.9,282.1 L 87.3,281.5 L 88.6,282.4" style="fill:none;stroke:#000000;stroke-width:2.0px;stroke-linecap:butt;stroke-linejoin:miter;stroke-opacity:1;"/>
<path d="M 111.4,299.6 L 112.7,300.5 L 114.1,299.9" style="fill:none;stroke:#000000;stroke-width:2.0px;stroke-linecap:butt;stroke-linejoin:miter;stroke-opacity:1;"/>
<path class="legend" d="M 96.5 378.7 L 103.3 378.7 L 103.3 380.0 L 98.1 380.0 L 98.1 383.4 L 102.8 383.4 L 102.8 384.7 L 98.1 384.7 L 98.1 388.7 L 103.5 388.7 L 103.5 390.0 L 96.5 390.0 L 96.5 378.7 " fill="#000000"/>
<path class="bond-0 atom-0 atom-1" d="M 272.5,298.9 L 300.0,283.1" style="fill:none;fill-rule:evenodd;stroke:#000000;stroke-width:2.0px;stroke-linecap:butt;stroke-linejoin:miter;stroke-opacity:1"/>
<path class="bond-1 atom-1 atom-2" d="M 300.0,283.1 L 327.5,298.9" style="fill:none;fill-rule:evenodd;stroke:#000000;stroke-width:2.0px;stroke-linecap:butt;stroke-linejoin:miter;stroke-opacity:1"/>
<path d="M 298.6,283.9 L 300.0,283.1 L 301.4,283.9" style="fill:none;stroke:#000000;stroke-width:2.0px;stroke-linecap:butt;stroke-linejoin:miter;stroke-opacity:1;"/>
<path class="legend" d="M 296.6 378.7 L 303.4 378.7 L 303.4 380.0 L 298.2 380.0 L 298.2 383.4 L 302.8 383.4 L 302.8 384.7 L 298.2 384.7 L 298.2 390.0 L 296.6 390.0 L 296.6 378.7 " fill="#000000"/>
<path class="bond-0 atom-0 atom-1" d="M 445.1,298.9 L 472.5,283.1" style="fill:none;fill-rule:evenodd;stroke:#000000;stroke-width:2.0px;stroke-linecap:butt;stroke-linejoin:miter;stroke-opacity:1"/>
<path class="bond-1 atom-1 atom-2" d="M 472.5,283.1 L 500.0,298.9" style="fill:none;fill-rule:evenodd;stroke:#000000;stroke-width:2.0px;stroke-linecap:butt;stroke-linejoin:miter;stroke-opacity:1"/>
<path class="bond-2 atom-2 atom-3" d="M 500.0,298.9 L 527.5,283.1" style="fill:none;fill-rule:evenodd;stroke:#000000;stroke-width:2.0px;stroke-linecap:butt;stroke-linejoin:miter;stroke-opacity:1"/>
<path class="bond-3 atom-3 atom-4" d="M 527.5,283.1 L 554.9,298.9" style="fill:none;fill-rule:evenodd;stroke:#000000;stroke-width:2.0px;stroke-linecap:butt;stroke-linejoin:miter;stroke-opacity:1"/>
<path d="M 471.2,283.9 L 472.5,283.1 L 473.9,283.9" style="fill:none;stroke:#000000;stroke-width:2.0px;stroke-linecap:butt;stroke-linejoin:miter;stroke-opacity:1;"/>
<path d="M 498.6,298.1 L 500.0,298.9 L 501.4,298.1" style="fill:none;stroke:#000000;stroke-width:2.0px;stroke-linecap:butt;stroke-linejoin:miter;stroke-opacity:1;"/>
<path d="M 526.1,283.9 L 527.5,283.1 L 528.8,283.9" style="fill:none;stroke:#000000;stroke-width:2.0px;stroke-linecap:butt;stroke-linejoin:miter;stroke-opacity:1;"/>
<path class="legend" d="M 504.6 384.3 L 504.6 389.1 Q 502.9 390.0, 500.6 390.0 Q 498.1 390.0, 496.8 388.5 Q 495.4 387.0, 495.4 384.2 Q 495.4 381.4, 496.8 379.9 Q 498.1 378.4, 500.6 378.4 Q 501.9 378.4, 502.9 378.8 Q 503.8 379.2, 504.5 380.0 L 503.5 380.9 Q 502.4 379.7, 500.6 379.7 Q 498.9 379.7, 498.0 380.8 Q 497.1 382.0, 497.1 384.2 Q 497.1 386.4, 498.0 387.6 Q 499.0 388.7, 500.8 388.7 Q 502.0 388.7, 503.0 388.3 L 503.0 384.3 L 504.6 384.3 " fill="#000000"/>
</svg>