<?xml version="1.0" encoding="UTF-8" standalone="no"?>
<svg
   xmlns:dc="http://purl.org/dc/elements/1.1/"
   xmlns:cc="http://creativecommons.org/ns#"
   xmlns:rdf="http://www.w3.org/1999/02/22-rdf-syntax-ns#"
   xmlns:svg="http://www.w3.org/2000/svg"
   xmlns="http://www.w3.org/2000/svg"
   xmlns:xlink="http://www.w3.org/1999/xlink"
   id="svg8"
   version="1.1"
   viewBox="0 0 104.68499 206.82201"
   height="206.82201mm"
   width="104.68499mm">
  <defs
     id="defs2">
    <linearGradient
       id="linearGradient3880">
      <stop
         id="stop3882"
         style="stop-color :#67c021;stop-opacity :1"
         offset="0" />
      <stop
         id="stop3884"
         style="stop-color :#ffff00;stop-opacity :1"
         offset="1" />
    </linearGradient>
    <linearGradient
       id="linearGradient12741">
      <stop
         id="stop12743"
         style="stop-color :#ffff00;stop-opacity :0.50"
         offset="0" />
      <stop
         id="stop12745"
         style="stop-color :#ffff00;stop-opacity :0"
         offset="1" />
    </linearGradient>
    <linearGradient
       id="linearGradient10951">
      <stop
         id="stop10953"
         style="stop-color :#ff0000;stop-opacity :1"
         offset="0" />
      <stop
         id="stop11844"
         style="stop-color :#ff0000;stop-opacity :1"
         offset="0.786" />
      <stop
         id="stop10955"
         style="stop-color :#ff0000;stop-opacity :0"
         offset="1" />
    </linearGradient>
    <radialGradient
       cx="81"
       cy="620"
       r="95.699997"
       fx="81"
       fy="620"
       id="radialGradient10957"
       xlink:href="#linearGradient10951"
       gradientUnits="userSpaceOnUse"
       gradientTransform="matrix(-1,0,0,-0.997,162,1270)" />
    <linearGradient
       x1="291"
       y1="730"
       x2="291"
       y2="434"
       id="linearGradient12747"
       xlink:href="#linearGradient12741"
       gradientUnits="userSpaceOnUse"
       gradientTransform="translate(17.9,8.57)" />
    <linearGradient
       x1="296"
       y1="521"
       x2="296"
       y2="445"
       id="linearGradient3886"
       xlink:href="#linearGradient3880"
       gradientUnits="userSpaceOnUse"
       gradientTransform="translate(17.9,8.57)" />
    <radialGradient
       cx="300"
       cy="674"
       r="10.9"
       fx="300"
       fy="674"
       id="radialGradient13841"
       xlink:href="#linearGradient3880"
       gradientUnits="userSpaceOnUse"
       gradientTransform="matrix(1,0,0,2.05,17.9,-706)" />
  </defs>
  <metadata
     id="metadata5">
    <rdf:RDF>
      <cc:Work
         rdf:about="">
        <dc:format>image/svg+xml</dc:format>
        <dc:type
           rdf:resource="http://purl.org/dc/dcmitype/StillImage" />
        <dc:title></dc:title>
      </cc:Work>
    </rdf:RDF>
  </metadata>
  <g
     transform="translate(285.17582,33.196714)"
     id="layer1">
    <g
       transform="matrix(0.26458333,0,0,0.26458333,-288.51499,-37.832339)"
       id="g203">
      <path
         d="m 293,454 c 0,0 0,74 0,74 0,0 33,0 33,0 l 1,-74"
         id="path14519"
         style="fill:url(#linearGradient3886);fill-rule:evenodd;stroke:none" />
      <path
         d="m 325,594 c 0,3 2,4 5,5 43,11 69,56 57,99 -11,43 -56,69 -99,57 -43,-11 -69,-56 -57,-99 8,-29 28,-50 57,-57 3,-1 5,-3 5,-5 v -45 l -36,-26 c -3,-1 -3,-2 -3,-6 v -70 c 0,-3 1,-4 4,-6 l 34,-11 c 24,-14 22,18 -1,17 l -18,6 c -2,1 -3,2 -3,3 v 54 c 0,2 2,3 3,4 l 20,15 h 33 z"
         id="path11846"
         style="fill:url(#linearGradient12747);fill-rule:evenodd;stroke:none" />
      <path
         d="m 303,313 h -3 c -4,0 -7,-3 -7,-6 v -1 c 0,-3 -10,-4 -16,-4 -2,2 -3,2 -5,0 -1,1 -3,2 -4,0 -1,1 -3,2 -4,-1 -2,1 -3,2 -4,0 v -4 c 1,-1 2,-2 4,-1 1,-2 2,-1 4,0 1,-2 3,-2 4,-1 2,-1 3,-2 5,0 6,0 16,1 16,-4 V 146 c 0,-3 -9,-3 -16,-3 -2,1 -3,1 -5,-1 -1,2 -3,2 -4,0 -1,1 -3,3 -4,0 -2,0 -3,1 -4,-1 v -4 c 1,-1 2,-1 4,0 1,-2 2,-2 4,-1 1,-2 3,-2 4,0 2,-2 3,-3 5,-1 8,0 16,1 16,-3 v -2 c 0,-4 3,-7 7,-7 l 3,1 z m 15,0 c -4,0 -3,0 -3,0 V 124 l 3,-1 c 3,0 6,3 6,7 v 177 c 0,3 -3,6 -6,6 z"
         id="path7345"
         style="fill:#00ffff;fill-rule:nonzero;stroke:none" />
      <path
         d="M 88.7,240 H 86 c -3.6,0 -6.4,-3 -6.4,-6 v -4 c 0,-3 -10.3,-4 -16.7,-4 -1.4,2 -2.9,2 -4.4,0 -1.5,1 -3.1,2 -4.7,-1 -1.2,2 -2.4,3 -4,0 -1.3,0 -2.6,1 -3.9,0 v -4 c 1.1,-2 2.4,-2 3.9,-1 1.4,-2 2.8,-1 4.2,0 1.4,-3 2.9,-2 4.4,-1 1.3,-1 2.7,-3 4.7,0 5.5,0 16.5,1 16.5,-4 V 74.9 c 0,-3.5 -9.1,-3.4 -16.7,-3.4 -1.4,1.3 -2.9,1.3 -4.4,-0.4 -1.5,1.2 -3.1,2 -4.7,-0.4 -1.2,1.1 -2.4,2.6 -4,-0.4 -1.3,0.5 -2.6,1.3 -3.9,-0.4 V 66 c 1.1,-1.2 2.4,-1.6 3.9,-0.5 1.4,-2.3 2.8,-1.5 4.2,-0.5 1.5,-2.3 2.9,-2 4.4,-0.6 1.3,-1.6 2.7,-2.6 4.7,-0.6 7.6,0 16.5,0.8 16.5,-3.4 v -3.8 c 0,-3.6 2.8,-6.4 6.4,-6.4 l 2.7,0.1 z m 15.3,0 c -4,0 -3,0 -3,0 V 50.3 l 3,-0.1 c 3,0 6,2.8 6,6.4 V 234 c 0,3 -3,6 -6,6 z"
         id="path2854"
         style="fill:#00ffff;fill-rule:nonzero;stroke:none" />
      <path
         d="m 32,73 -7.7,-3 h -0.1 v 0 l -5.4,-2 5.4,-2 7.8,-3 c -0.7,1 -1.1,2 -1.3,3 h 11.6 v 4 H 30.7 c 0.2,1 0.6,2 1.3,3 z"
         id="pathArrowIn"
         style="fill:#00ffff;fill-rule:evenodd;stroke:none" />
      <path
         d="m 29.6,227.9 7.6,-2.8 h 0.1 V 225 l 5.4,-1.9 -5.4,-2 -7.7,-2.9 c 0.6,0.9 1,1.9 1.3,2.9 H 19.2 v 4 h 11.7 c -0.2,1 -0.7,1.9 -1.3,2.8 z"
         id="pathArrowOut"
         style="fill:#00ffff;fill-rule:evenodd;stroke:none" />
      <g
         transform="translate(60.7,210)"
         id="g3661">
        <path
           d="M 23.3,39.5 44.3,39.4 41.4,66 H 26.1 Z"
           id="path3663"
           style="fill:#f1f1f1;fill-rule:nonzero;stroke:#000000;stroke-width:1;stroke-linecap:round;stroke-linejoin:round" />
      </g>
      <g
         transform="translate(60.5,-12.3)"
         id="g3665">
        <path
           d="M 23.5,38.4 H 45 l -2.7,24 H 26 Z"
           id="path3667"
           style="fill:#f1f1f1;fill-rule:nonzero;stroke:#000000;stroke-width:1;stroke-linecap:round;stroke-linejoin:round" />
        <rect
           width="24.9"
           height="4.5500002"
           x="21.6"
           y="34.099998"
           id="rect3669"
           style="fill:#f1f1f1;fill-rule:nonzero;stroke:#000000;stroke-width:1;stroke-linecap:round;stroke-linejoin:round" />
      </g>
      <path
         d="m 104,240 v 9 M 62.9,227 c 6.4,0 16.7,0 16.7,3 v 4 c 0,3 2.8,6 6.4,6 h 18 c 3,0 6,-3 6,-6 V 56.6 c 0,-3.6 -3,-6.4 -6,-6.4 H 86 c -3.6,0 -6.4,2.8 -6.4,6.4 v 3.8 c 0,4.2 -8.9,3.5 -16.5,3.5 -2,-2.1 -3.4,-1 -4.7,0.6 C 56.9,63 55.5,62.8 54,65 52.6,64 51.2,63.2 49.8,65.5 48.3,64.4 47,64.8 45.9,66 v 3.9 c 1.3,1.8 2.6,0.9 3.9,0.4 1.6,3.1 2.8,1.6 4,0.4 1.6,2.4 3.2,1.7 4.7,0.4 1.5,1.8 3,1.8 4.4,0.5 7.6,0 16.7,-0.1 16.7,3.4 v 140 c 0,5 -11,4 -16.5,4 -2,-2 -3.4,-1 -4.7,0 -1.5,-1 -3,-1 -4.4,1 -1.4,-1 -2.8,-2 -4.2,0 -1.5,-1 -2.8,0 -3.9,1 v 4 c 1.3,2 2.6,1 3.9,0 1.6,3 2.8,2 4,1 1.6,2 3.2,1 4.7,0 1.5,2 3,2 4.4,1 z m 25.8,13 V 50.3 m 12.3,0 V 240 m -15.3,0 v 9"
         id="path2846"
         style="fill:none;stroke:#000000;stroke-width:1;stroke-linecap:round;stroke-linejoin:round" />
      <g
         transform="translate(63.9,258)"
         id="use6303">
        <path
           d="M 23.5,38.4 H 45 l -2.7,24 H 26 Z"
           id="path17025"
           style="fill:#f1f1f1;fill-rule:nonzero;stroke:#000000;stroke-width:1;stroke-linecap:round;stroke-linejoin:round" />
        <rect
           width="24.9"
           height="4.5500002"
           x="21.6"
           y="34.099998"
           id="rect17027"
           style="fill:#f1f1f1;fill-rule:nonzero;stroke:#000000;stroke-width:1;stroke-linecap:round;stroke-linejoin:round" />
      </g>
      <g
         transform="matrix(1.69,0,0,1,40.4,302)"
         id="g2090">
        <path
           d="M 23.5,38.4 H 45 l -2.7,24 H 26 Z"
           id="path2092"
           style="fill:#f1f1f1;fill-rule:nonzero;stroke:#000000;stroke-width:0.76999998;stroke-linecap:round;stroke-linejoin:round" />
        <rect
           width="24.9"
           height="4.5500002"
           x="21.6"
           y="34.099998"
           id="rect2094"
           style="fill:#f1f1f1;fill-rule:nonzero;stroke:#000000;stroke-width:0.76999998;stroke-linecap:round;stroke-linejoin:round" />
      </g>
      <path
         d="m 79.9,336 v -6 c 0,-4 3.5,-10 9.9,-10 m 26.2,16 v -6 c 0,-4 -4,-10 -10,-10"
         id="path6521"
         style="fill:none;stroke:#000000;stroke-width:1px;stroke-linecap:butt;stroke-linejoin:miter;stroke-opacity:1" />
      <g
         transform="matrix(1.69,0,0,1,37.1,339)"
         id="g6528">
        <path
           d="m 23.5,38.4 h 25.6 l -2.6,24 H 26 Z"
           id="path6530"
           style="fill:#f1f1f1;fill-rule:nonzero;stroke:#000000;stroke-width:0.76999998;stroke-linecap:round;stroke-linejoin:round" />
        <rect
           width="28.799999"
           height="4.5500002"
           x="21.6"
           y="34.099998"
           id="rect6532"
           style="fill:#f1f1f1;fill-rule:nonzero;stroke:#000000;stroke-width:0.76999998;stroke-linecap:round;stroke-linejoin:round" />
      </g>
      <path
         d="m 134,525 c 0,0 3,0 3,0 1,0 2,0 2,-1 v -75 c 0,-1 -1,-2 -3,-2 h -7 c 0,0 -1,1 -1,2 v 67 c 0,1 -1,2 -2,2 h -9 c -1,0 -2,-1 -2,-2 V 402 m 16,48 v 78 c 0,1 0,1 -1,2 l -15,8 v -13 c 0,0 16,0 16,0 M 82.2,402 v 25 c 0,2 -0.2,2 -1.5,3 l -33.6,11 c -3,2 -4.8,3 -4.8,6 v 70 c 0,4 0.8,5 3.4,6 l 36.5,26 v 4 H 115 v -10 c 0,-1 1,-2 2,-2 l 16,-10 c 1,0 1,-1 1,-2 v -79 m -19,79 H 82.2 L 61.8,514 c -1.5,-1 -2.6,-2 -2.6,-4 v -54 c 0,-1 0.7,-2 2.4,-3 l 18.2,-6 c 1.5,-1 2.4,0 2.4,1 0,0 0,80 0,80 0,0 32.8,0 32.8,0"
         id="path6534"
         style="fill:none;stroke:#000000;stroke-width:1px;stroke-linecap:butt;stroke-linejoin:miter;stroke-opacity:1" />
      <g
         transform="matrix(1.69,0,0,1,40.4,518)"
         id="g1898">
        <path
           d="M 23.5,35.4 H 45 l -2.7,24 H 26 Z"
           id="path1900"
           style="fill:#f1f1f1;fill-rule:nonzero;stroke:#000000;stroke-width:0.76999998;stroke-linecap:round;stroke-linejoin:round" />
      </g>
      <g
         transform="matrix(1.69,0,0,1,37.1,559)"
         id="g1904">
        <path
           d="m 23.5,38.4 h 25.6 l -2.6,24 H 26 Z"
           id="path1906"
           style="fill:#f1f1f1;fill-rule:nonzero;stroke:#000000;stroke-width:0.76999998;stroke-linecap:round;stroke-linejoin:round" />
        <rect
           width="28.799999"
           height="4.5500002"
           x="21.6"
           y="34.099998"
           id="rect1908"
           style="fill:#f1f1f1;fill-rule:nonzero;stroke:#000000;stroke-width:0.76999998;stroke-linecap:round;stroke-linejoin:round" />
      </g>
      <path
         d="m 82.2,621 v 10 c 0,2 -1.9,4 -5.3,5 -28.8,7 -49.5,28 -57.2,57 -11.62,43 14,87 57.2,99 43.1,12 88.1,-14 99.1,-57 12,-43 -14,-88 -57,-99 -3,-1 -5,-2 -5,-5 v -10"
         id="path2799"
         style="fill:none;stroke:#000000;stroke-width:1;stroke-linecap:butt;stroke-linejoin:miter" />
      <path
         d="m 162,650 c 0,45 -36,81 -81,81 C 36.3,731 0,695 0,650"
         transform="translate(16.9,63.5)"
         id="path3688"
         style="fill:#fefe43;fill-rule:nonzero;stroke:#000000;stroke-width:1;stroke-linecap:butt;stroke-linejoin:miter" />
      <path
         d="m 179,712 c 0,8 -36,14 -81,14 -44.7,0 -81,-6 -81,-14 0,-8 36.3,-15 81,-15 45,0 81,7 81,15"
         id="path3690"
         style="fill:#fefe43;fill-rule:nonzero;stroke:#000000;stroke-width:1;stroke-linecap:butt;stroke-linejoin:miter" />
      <rect
         width="25.6"
         height="8.1300001"
         ry="4.0700002"
         x="85.099998"
         y="776"
         id="rect4590"
         style="fill:#cccccc;fill-rule:nonzero;stroke:none" />
      <path
         d="m 112,497 v 26 c 0,1 -1,2 -2,2 H 87.5 c -1.1,0 -2.1,-1 -2.1,-2 v -26"
         id="path6365"
         style="fill:#829634;fill-rule:nonzero;stroke:none" />
      <path
         d="m 112,464 v 59 c 0,1 -1,2 -2,2 H 87.5 c -1.1,0 -2.1,-1 -2.1,-2 v -59"
         id="rect4592"
         style="fill:none;stroke:#999999;stroke-width:2;stroke-linecap:butt;stroke-linejoin:miter" />
      <path
         d="m 246,144 -8,-3 v 0 0 l -5,-2 5,-2 8,-3 c -1,1 -1,2 -1,3 h 11 v 4 h -11 c 0,1 0,2 1,3 z"
         id="pathArrowIn2"
         style="fill:#00ffff;fill-rule:evenodd;stroke:none" />
      <path
         d="m 244,304 7,-2 v 0 0 l 6,-2 -6,-2 -7,-3 c 0,1 1,2 1,3 h -12 v 4 h 12 c 0,1 -1,2 -1,2 z"
         id="pathArrowOut2"
         style="fill:#00ffff;fill-rule:evenodd;stroke:none" />
      <g
         transform="translate(275,283)"
         id="g7351">
        <path
           d="M 23.3,39.5 44.3,39.4 41.4,66 H 26.1 Z"
           id="path7353"
           style="fill:#f1f1f1;fill-rule:nonzero;stroke:#000000;stroke-width:1;stroke-linecap:round;stroke-linejoin:round" />
      </g>
      <g
         transform="translate(274,60.9)"
         id="g7355">
        <path
           d="M 23.5,38.4 H 45 l -2.7,24 H 26 Z"
           id="path7357"
           style="fill:#f1f1f1;fill-rule:nonzero;stroke:#000000;stroke-width:1;stroke-linecap:round;stroke-linejoin:round" />
        <rect
           width="24.9"
           height="4.5500002"
           x="21.6"
           y="34.099998"
           id="rect7359"
           style="fill:#f1f1f1;fill-rule:nonzero;stroke:#000000;stroke-width:1;stroke-linecap:round;stroke-linejoin:round" />
      </g>
      <g
         transform="translate(275,290)"
         id="g7363">
        <path
           d="M 23.5,38.4 H 45 l -2.7,24 H 26 Z"
           id="path7365"
           style="fill:#f1f1f1;fill-rule:nonzero;stroke:#000000;stroke-width:1;stroke-linecap:round;stroke-linejoin:round" />
        <rect
           width="24.9"
           height="4.5500002"
           x="21.6"
           y="34.099998"
           id="rect7367"
           style="fill:#f1f1f1;fill-rule:nonzero;stroke:#000000;stroke-width:1;stroke-linecap:round;stroke-linejoin:round" />
      </g>
      <path
         d="m 318,313 v 9 m -41,-20 c 6,0 16,0 16,4 v 1 c 0,3 3,6 7,6 h 18 c 3,0 6,-3 6,-6 V 130 c 0,-4 -3,-7 -6,-7 h -18 c -4,0 -7,3 -7,7 v 2 c 0,4 -8,3 -16,3 -2,-2 -3,-1 -5,1 -1,-2 -3,-2 -4,0 -2,-1 -3,-1 -4,1 -2,-1 -3,-1 -4,0 v 4 c 1,2 2,1 4,1 1,3 3,1 4,0 1,3 3,2 4,1 2,1 3,1 5,0 7,0 16,0 16,3 v 145 c 0,5 -10,3 -16,3 -2,-2 -3,-1 -5,1 -1,-1 -3,-2 -4,1 -2,-1 -3,-2 -4,0 -2,-1 -3,-1 -4,1 v 3 c 1,2 2,1 4,1 1,3 3,1 4,0 1,3 3,2 4,1 2,1 3,1 5,0 z m 26,11 V 124 m 12,0 v 189 m -15,0 v 9"
         id="path7361"
         style="fill:none;stroke:#000000;stroke-width:1;stroke-linecap:round;stroke-linejoin:round" />
      <path
         d="m 312,354 c 0,4 4,12 4,14 0,3 -2,5 -4,5 -2,0 -4,-2 -4,-4 0,-3 3,-10 4,-15 z"
         id="path14730"
         style="fill:#ffff00;fill-opacity:0.86699997;fill-rule:nonzero;stroke:none" />
      <rect
         width="42"
         height="4.5500002"
         x="288"
         y="369"
         id="rect7373"
         style="fill:#f1f1f1;fill-opacity:0.86699997;fill-rule:nonzero;stroke:#000000;stroke-width:1;stroke-linecap:round;stroke-linejoin:round" />
      <path
         d="m 291,369 v -7 c 0,-4 4,-9 10,-9 m 26,16 v -7 c 0,-4 -3,-9 -10,-9"
         id="path7375"
         style="fill:none;stroke:#000000;stroke-width:1px;stroke-linecap:butt;stroke-linejoin:miter;stroke-opacity:1" />
      <g
         transform="matrix(1.69,0,0,1,248,339)"
         id="g7377">
        <path
           d="m 23.5,38.4 h 25.6 l -2.6,24 H 26 Z"
           id="path7379"
           style="fill:#f1f1f1;fill-opacity:0.86699997;fill-rule:nonzero;stroke:#000000;stroke-width:0.76999998;stroke-linecap:round;stroke-linejoin:round" />
        <rect
           width="28.799999"
           height="4.5500002"
           x="21.6"
           y="34.099998"
           id="rect7381"
           style="fill:#f1f1f1;fill-opacity:0.86699997;fill-rule:nonzero;stroke:#000000;stroke-width:0.76999998;stroke-linecap:round;stroke-linejoin:round" />
      </g>
      <path
         d="m 293,584 v 10 c 0,2 -2,4 -5,5 -29,7 -49,28 -57,57 -12,43 14,88 57,99 43,12 88,-14 99,-57 12,-43 -14,-88 -57,-99 -3,-1 -5,-2 -5,-5 v -10"
         id="path7395"
         style="fill:none;stroke:#000000;stroke-width:1;stroke-linecap:butt;stroke-linejoin:miter" />
      <path
         d="m 162,650 c 0,45 -36,81 -81,81 C 36.3,731 0,695 0,650"
         transform="translate(228,26.7)"
         id="path7397"
         style="fill:#fefe43;fill-rule:nonzero;stroke:#000000;stroke-width:1;stroke-linecap:round;stroke-linejoin:round" />
      <path
         d="m 390,675 c 0,8 -36,15 -81,15 -45,0 -81,-7 -81,-15 0,-8 36,-15 81,-15 45,0 81,7 81,15"
         id="path7399"
         style="fill:#fefe43;fill-rule:nonzero;stroke:#000000;stroke-width:1;stroke-linecap:round;stroke-linejoin:round" />
      <path
         d="m 318,666 c 0,5 -3,11 -6,15 -4,7 -6,16 -3,23 3,7 13,8 18,3 3,-4 3,-10 0,-14 -5,-8 -8,-18 -9,-27 z"
         id="path12764"
         style="fill:url(#radialGradient13841);fill-rule:evenodd;stroke:none" />
      <rect
         width="25.6"
         height="8.1300001"
         ry="4.0700002"
         x="296"
         y="739"
         id="rect7401"
         style="fill:#cccccc;fill-rule:nonzero;stroke:none" />
      <path
         d="m 323,497 v 26 c 0,1 -1,2 -2,2 h -22 c -1,0 -2,-1 -2,-2 v -26"
         id="path7403"
         style="fill:#829634;fill-rule:nonzero;stroke:none" />
      <path
         d="m 323,464 v 59 c 0,1 -1,2 -2,2 h -22 c -1,0 -2,-1 -2,-2 v -59"
         id="path7405"
         style="fill:none;stroke:#999999;stroke-width:2;stroke-linecap:round;stroke-linejoin:round" />
      <path
         d="m 169,650 c 0,49 -39,88 -88,88 -48.7,0 -88.19,-39 -88.18,-88"
         transform="translate(228,26.7)"
         id="path8294"
         style="fill:none;stroke:url(#radialGradient10957);stroke-width:15;stroke-linecap:round;stroke-linejoin:round" />
      <path
         d="m 390,675 c 0,8 -36,15 -81,15 -45,0 -81,-7 -81,-15 0,-8 36,-15 81,-15 45,0 81,7 81,15"
         id="path13843"
         style="fill:none;stroke:#000000;stroke-width:1;stroke-linecap:round;stroke-linejoin:round" />
      <path
         d="m 326,525 v -9 c 0,1 1,2 2,2 h 9 c 2,0 2,-1 2,-2 v -67 c 0,-1 1,-2 1,-2 h 8 c 1,0 2,1 2,2 v 75 c 0,1 -1,1 -1,1 0,0 -4,0 -4,0 v 4 c 0,1 0,2 -1,2 l -16,10 c 0,0 -5,2 -6,4 -1,3 -2,128 -4,128 -3,0 0,-127 2,-130 1,-3 6,-5 6,-5 l 15,-8 c 1,-1 1,-1 1,-2 l 1,-3 c 0,0 -17,0 -17,0 z"
         id="path6543"
         style="fill:#67c021;fill-rule:evenodd;stroke:none" />
      <path
         d="m 291,554 h 37 l -5,24 h -27 z"
         id="path7387"
         style="fill:#f1f1f1;fill-opacity:0.86699997;fill-rule:nonzero;stroke:#000000;stroke-width:1;stroke-linecap:round;stroke-linejoin:round" />
      <g
         transform="matrix(1.69,0,0,1,248,522)"
         id="g89">
        <path
           d="m 23.5,38.4 h 25.6 l -2.6,24 H 26 Z"
           id="path7391"
           style="fill:#f1f1f1;fill-opacity:0.86699997;fill-rule:nonzero;stroke:#000000;stroke-width:0.76999998;stroke-linecap:round;stroke-linejoin:round" />
        <rect
           width="28.799999"
           height="4.5500002"
           x="21.6"
           y="34.099998"
           id="rect7393"
           style="fill:#f1f1f1;fill-opacity:0.86699997;fill-rule:nonzero;stroke:#000000;stroke-width:0.76999998;stroke-linecap:round;stroke-linejoin:round" />
      </g>
      <path
         d="m 346,525 c 0,0 3,0 3,0 0,0 1,0 1,-1 v -75 c 0,-1 -1,-2 -2,-2 h -8 c 0,0 -1,1 -1,2 v 67 c 0,1 0,2 -2,2 h -9 c -1,0 -1,-1 -1,-2 V 402 m 15,48 v 78 c 0,1 0,1 -1,2 l -15,8 v -13 c 0,0 17,0 17,0 M 293,402 v 25 c 0,2 0,2 -1,3 l -34,11 c -3,2 -4,3 -4,6 v 70 c 0,4 0,5 3,6 l 36,26 v 4 h 33 v -10 c 0,-1 1,-2 2,-2 l 16,-10 c 1,0 1,-1 1,-2 v -79 m -19,79 h -33 l -20,-15 c -1,-1 -3,-2 -3,-4 v -54 c 0,-1 1,-2 3,-3 l 18,-6 c 2,-1 2,0 2,1 0,0 0,80 0,80 0,0 33,0 33,0"
         id="path7383"
         style="fill:none;stroke:#000000;stroke-width:1px;stroke-linecap:round;stroke-linejoin:round" />
      <path
         d="m 313,416 c 0,5 4,13 4,15 0,2 -1,4 -4,4 -2,0 -4,-2 -4,-4 0,-2 4,-10 4,-15 z"
         id="path14733"
         style="fill:#ffff00;fill-opacity:0.86699997;fill-rule:nonzero;stroke:none" />
      <g
         id="textlayer"
         style="font-size:20px;font-family:sans-serif;text-anchor:middle;fill:#000000;stroke:none">
        <text
           x="98.620987"
           y="772.18695"
           id="text18276">1</text>
        <text
           x="96.116714"
           y="667.05359"
           id="text18280">2</text>
        <text
           x="33.82724"
           y="491.84631"
           id="text18284">3</text>
        <text
           x="96.788994"
           y="471.47214"
           id="text18288">4</text>
        <text
           x="98.049789"
           y="516.52124"
           id="text18292">5</text>
        <text
           x="133.27869"
           y="443.40164"
           id="text18296">6</text>
        <text
           x="133.57008"
           y="551.56427"
           id="text18300">7</text>
        <text
           x="126.45836"
           y="331.29712"
           id="text18304">8</text>
        <text
           x="120.85059"
           y="151.4162"
           id="text18308">9</text>
        <text
           x="47.124317"
           y="52.455887"
           id="text18316">10</text>
        <text
           x="45.05201"
           y="213.4205"
           id="text18312">11</text>
      </g>
    </g>
  </g>
</svg>
