<svg xmlns="http://www.w3.org/2000/svg" xmlns:rdkit="http://www.rdkit.org/xml" xmlns:xlink="http://www.w3.org/1999/xlink" version="1.1" baseProfile="full" xml:space="preserve" width="800px" height="200px" viewBox="0 0 800 200">
<!-- END OF HEADER -->
<rect style="opacity:1.0;fill:#FFFFFF;stroke:none" width="800.0" height="200.0" x="0.0" y="0.0"> </rect>
<path class="bond-0 atom-0 atom-1" d="M 9.9,88.8 L 23.1,82.2" style="fill:none;fill-rule:evenodd;stroke:#000000;stroke-width:2.0px;stroke-linecap:butt;stroke-linejoin:miter;stroke-opacity:1"/>
<path class="bond-1 atom-1 atom-2" d="M 23.1,82.2 L 35.4,90.3" style="fill:none;fill-rule:evenodd;stroke:#000000;stroke-width:2.0px;stroke-linecap:butt;stroke-linejoin:miter;stroke-opacity:1"/>
<path class="bond-2 atom-2 atom-3" d="M 35.4,90.3 L 36.1,105.0" style="fill:none;fill-rule:evenodd;stroke:#000000;stroke-width:2.0px;stroke-linecap:butt;stroke-linejoin:miter;stroke-opacity:1"/>
<path class="bond-3 atom-3 atom-4" d="M 36.1,105.0 L 31.6,108.6" style="fill:none;fill-rule:evenodd;stroke:#000000;stroke-width:2.0px;stroke-linecap:butt;stroke-linejoin:miter;stroke-opacity:1"/>
<path class="bond-3 atom-3 atom-4" d="M 31.6,108.6 L 27.1,112.3" style="fill:none;fill-rule:evenodd;stroke:#FF0000;stroke-width:2.0px;stroke-linecap:butt;stroke-linejoin:miter;stroke-opacity:1"/>
<path class="bond-4 atom-3 atom-5" d="M 36.1,105.0 L 50.4,108.9" style="fill:none;fill-rule:evenodd;stroke:#000000;stroke-width:2.0px;stroke-linecap:butt;stroke-linejoin:miter;stroke-opacity:1"/>
<path class="bond-5 atom-5 atom-6" d="M 50.4,108.9 L 58.4,96.5" style="fill:none;fill-rule:evenodd;stroke:#000000;stroke-width:2.0px;stroke-linecap:butt;stroke-linejoin:miter;stroke-opacity:1"/>
<path class="bond-6 atom-6 atom-7" d="M 58.4,96.5 L 73.0,94.3" style="fill:none;fill-rule:evenodd;stroke:#000000;stroke-width:2.0px;stroke-linecap:butt;stroke-linejoin:miter;stroke-opacity:1"/>
<path class="bond-7 atom-7 atom-8" d="M 73.0,94.3 L 82.2,105.8" style="fill:none;fill-rule:evenodd;stroke:#000000;stroke-width:2.0px;stroke-linecap:butt;stroke-linejoin:miter;stroke-opacity:1"/>
<path class="bond-8 atom-8 atom-9" d="M 82.2,105.8 L 96.8,103.5" style="fill:none;fill-rule:evenodd;stroke:#000000;stroke-width:2.0px;stroke-linecap:butt;stroke-linejoin:miter;stroke-opacity:1"/>
<path class="bond-9 atom-9 atom-10" d="M 96.8,103.5 L 102.1,89.8" style="fill:none;fill-rule:evenodd;stroke:#000000;stroke-width:2.0px;stroke-linecap:butt;stroke-linejoin:miter;stroke-opacity:1"/>
<path class="bond-9 atom-9 atom-10" d="M 95.2,101.5 L 99.6,90.2" style="fill:none;fill-rule:evenodd;stroke:#000000;stroke-width:2.0px;stroke-linecap:butt;stroke-linejoin:miter;stroke-opacity:1"/>
<path class="bond-10 atom-10 atom-11" d="M 102.1,89.8 L 116.7,87.5" style="fill:none;fill-rule:evenodd;stroke:#000000;stroke-width:2.0px;stroke-linecap:butt;stroke-linejoin:miter;stroke-opacity:1"/>
<path class="bond-11 atom-11 atom-12" d="M 116.7,87.5 L 122.0,73.8" style="fill:none;fill-rule:evenodd;stroke:#000000;stroke-width:2.0px;stroke-linecap:butt;stroke-linejoin:miter;stroke-opacity:1"/>
<path class="bond-12 atom-12 atom-13" d="M 122.0,73.8 L 128.0,72.9" style="fill:none;fill-rule:evenodd;stroke:#000000;stroke-width:2.0px;stroke-linecap:butt;stroke-linejoin:miter;stroke-opacity:1"/>
<path class="bond-12 atom-12 atom-13" d="M 128.0,72.9 L 134.1,71.9" style="fill:none;fill-rule:evenodd;stroke:#FF0000;stroke-width:2.0px;stroke-linecap:butt;stroke-linejoin:miter;stroke-opacity:1"/>
<path class="bond-13 atom-13 atom-14" d="M 138.7,74.2 L 142.2,78.6" style="fill:none;fill-rule:evenodd;stroke:#FF0000;stroke-width:2.0px;stroke-linecap:butt;stroke-linejoin:miter;stroke-opacity:1"/>
<path class="bond-13 atom-13 atom-14" d="M 142.2,78.6 L 145.8,83.0" style="fill:none;fill-rule:evenodd;stroke:#000000;stroke-width:2.0px;stroke-linecap:butt;stroke-linejoin:miter;stroke-opacity:1"/>
<path class="bond-14 atom-14 atom-15" d="M 145.8,83.0 L 143.6,88.6" style="fill:none;fill-rule:evenodd;stroke:#000000;stroke-width:2.0px;stroke-linecap:butt;stroke-linejoin:miter;stroke-opacity:1"/>
<path class="bond-14 atom-14 atom-15" d="M 143.6,88.6 L 141.5,94.1" style="fill:none;fill-rule:evenodd;stroke:#FF0000;stroke-width:2.0px;stroke-linecap:butt;stroke-linejoin:miter;stroke-opacity:1"/>
<path class="bond-15 atom-15 atom-16" d="M 142.6,99.5 L 146.1,103.9" style="fill:none;fill-rule:evenodd;stroke:#FF0000;stroke-width:2.0px;stroke-linecap:butt;stroke-linejoin:miter;stroke-opacity:1"/>
<path class="bond-15 atom-15 atom-16" d="M 146.1,103.9 L 149.7,108.2" style="fill:none;fill-rule:evenodd;stroke:#000000;stroke-width:2.0px;stroke-linecap:butt;stroke-linejoin:miter;stroke-opacity:1"/>
<path class="bond-16 atom-16 atom-17" d="M 149.7,108.2 L 164.2,106.0" style="fill:none;fill-rule:evenodd;stroke:#000000;stroke-width:2.0px;stroke-linecap:butt;stroke-linejoin:miter;stroke-opacity:1"/>
<path class="bond-17 atom-17 atom-18" d="M 164.2,106.0 L 167.8,110.4" style="fill:none;fill-rule:evenodd;stroke:#000000;stroke-width:2.0px;stroke-linecap:butt;stroke-linejoin:miter;stroke-opacity:1"/>
<path class="bond-17 atom-17 atom-18" d="M 167.8,110.4 L 171.3,114.8" style="fill:none;fill-rule:evenodd;stroke:#FF0000;stroke-width:2.0px;stroke-linecap:butt;stroke-linejoin:miter;stroke-opacity:1"/>
<path class="bond-18 atom-17 atom-19" d="M 164.2,106.0 L 169.6,92.3" style="fill:none;fill-rule:evenodd;stroke:#000000;stroke-width:2.0px;stroke-linecap:butt;stroke-linejoin:miter;stroke-opacity:1"/>
<path class="bond-19 atom-19 atom-20" d="M 169.6,92.3 L 175.6,91.3" style="fill:none;fill-rule:evenodd;stroke:#000000;stroke-width:2.0px;stroke-linecap:butt;stroke-linejoin:miter;stroke-opacity:1"/>
<path class="bond-19 atom-19 atom-20" d="M 175.6,91.3 L 181.7,90.4" style="fill:none;fill-rule:evenodd;stroke:#FF0000;stroke-width:2.0px;stroke-linecap:butt;stroke-linejoin:miter;stroke-opacity:1"/>
<path class="bond-20 atom-19 atom-21" d="M 169.6,92.3 L 160.3,80.8" style="fill:none;fill-rule:evenodd;stroke:#000000;stroke-width:2.0px;stroke-linecap:butt;stroke-linejoin:miter;stroke-opacity:1"/>
<path class="bond-21 atom-21 atom-22" d="M 160.3,80.8 L 162.5,75.3" style="fill:none;fill-rule:evenodd;stroke:#000000;stroke-width:2.0px;stroke-linecap:butt;stroke-linejoin:miter;stroke-opacity:1"/>
<path class="bond-21 atom-21 atom-22" d="M 162.5,75.3 L 164.6,69.7" style="fill:none;fill-rule:evenodd;stroke:#FF0000;stroke-width:2.0px;stroke-linecap:butt;stroke-linejoin:miter;stroke-opacity:1"/>
<path class="bond-22 atom-12 atom-23" d="M 122.0,73.8 L 112.8,62.3" style="fill:none;fill-rule:evenodd;stroke:#000000;stroke-width:2.0px;stroke-linecap:butt;stroke-linejoin:miter;stroke-opacity:1"/>
<path class="bond-23 atom-23 atom-24" d="M 112.8,62.3 L 98.2,64.6" style="fill:none;fill-rule:evenodd;stroke:#000000;stroke-width:2.0px;stroke-linecap:butt;stroke-linejoin:miter;stroke-opacity:1"/>
<path class="bond-24 atom-24 atom-25" d="M 98.2,64.6 L 92.9,78.3" style="fill:none;fill-rule:evenodd;stroke:#000000;stroke-width:2.0px;stroke-linecap:butt;stroke-linejoin:miter;stroke-opacity:1"/>
<path class="bond-25 atom-25 atom-26" d="M 92.9,78.3 L 83.6,66.8" style="fill:none;fill-rule:evenodd;stroke:#000000;stroke-width:2.0px;stroke-linecap:butt;stroke-linejoin:miter;stroke-opacity:1"/>
<path class="bond-26 atom-25 atom-27" d="M 92.9,78.3 L 78.3,80.5" style="fill:none;fill-rule:evenodd;stroke:#000000;stroke-width:2.0px;stroke-linecap:butt;stroke-linejoin:miter;stroke-opacity:1"/>
<path class="bond-27 atom-27 atom-28" d="M 78.3,80.5 L 69.1,69.1" style="fill:none;fill-rule:evenodd;stroke:#000000;stroke-width:2.0px;stroke-linecap:butt;stroke-linejoin:miter;stroke-opacity:1"/>
<path class="bond-28 atom-28 atom-29" d="M 69.1,69.1 L 54.5,71.3" style="fill:none;fill-rule:evenodd;stroke:#000000;stroke-width:2.0px;stroke-linecap:butt;stroke-linejoin:miter;stroke-opacity:1"/>
<path class="bond-29 atom-29 atom-30" d="M 54.5,71.3 L 49.2,85.0" style="fill:none;fill-rule:evenodd;stroke:#000000;stroke-width:2.0px;stroke-linecap:butt;stroke-linejoin:miter;stroke-opacity:1"/>
<path class="bond-30 atom-30 atom-31" d="M 49.2,85.0 L 38.8,74.6" style="fill:none;fill-rule:evenodd;stroke:#000000;stroke-width:2.0px;stroke-linecap:butt;stroke-linejoin:miter;stroke-opacity:1"/>
<path class="bond-31 atom-30 atom-2" d="M 49.2,85.0 L 35.4,90.3" style="fill:none;fill-rule:evenodd;stroke:#000000;stroke-width:2.0px;stroke-linecap:butt;stroke-linejoin:miter;stroke-opacity:1"/>
<path class="bond-32 atom-30 atom-6" d="M 49.2,85.0 L 58.4,96.5" style="fill:none;fill-rule:evenodd;stroke:#000000;stroke-width:2.0px;stroke-linecap:butt;stroke-linejoin:miter;stroke-opacity:1"/>
<path class="bond-33 atom-27 atom-7" d="M 78.3,80.5 L 73.0,94.3" style="fill:none;fill-rule:evenodd;stroke:#000000;stroke-width:2.0px;stroke-linecap:butt;stroke-linejoin:miter;stroke-opacity:1"/>
<path class="bond-34 atom-25 atom-10" d="M 92.9,78.3 L 102.1,89.8" style="fill:none;fill-rule:evenodd;stroke:#000000;stroke-width:2.0px;stroke-linecap:butt;stroke-linejoin:miter;stroke-opacity:1"/>
<path class="bond-35 atom-21 atom-14" d="M 160.3,80.8 L 145.8,83.0" style="fill:none;fill-rule:evenodd;stroke:#000000;stroke-width:2.0px;stroke-linecap:butt;stroke-linejoin:miter;stroke-opacity:1"/>
<path d="M 22.4,82.5 L 23.1,82.2 L 23.7,82.6" style="fill:none;stroke:#000000;stroke-width:2.0px;stroke-linecap:butt;stroke-linejoin:miter;stroke-opacity:1;"/>
<path d="M 49.6,108.7 L 50.4,108.9 L 50.8,108.2" style="fill:none;stroke:#000000;stroke-width:2.0px;stroke-linecap:butt;stroke-linejoin:miter;stroke-opacity:1;"/>
<path d="M 81.7,105.2 L 82.2,105.8 L 82.9,105.6" style="fill:none;stroke:#000000;stroke-width:2.0px;stroke-linecap:butt;stroke-linejoin:miter;stroke-opacity:1;"/>
<path d="M 96.0,103.6 L 96.8,103.5 L 97.0,102.8" style="fill:none;stroke:#000000;stroke-width:2.0px;stroke-linecap:butt;stroke-linejoin:miter;stroke-opacity:1;"/>
<path d="M 115.9,87.6 L 116.7,87.5 L 116.9,86.8" style="fill:none;stroke:#000000;stroke-width:2.0px;stroke-linecap:butt;stroke-linejoin:miter;stroke-opacity:1;"/>
<path d="M 149.5,108.0 L 149.7,108.2 L 150.4,108.1" style="fill:none;stroke:#000000;stroke-width:2.0px;stroke-linecap:butt;stroke-linejoin:miter;stroke-opacity:1;"/>
<path d="M 113.2,62.9 L 112.8,62.3 L 112.0,62.4" style="fill:none;stroke:#000000;stroke-width:2.0px;stroke-linecap:butt;stroke-linejoin:miter;stroke-opacity:1;"/>
<path d="M 98.9,64.4 L 98.2,64.6 L 97.9,65.2" style="fill:none;stroke:#000000;stroke-width:2.0px;stroke-linecap:butt;stroke-linejoin:miter;stroke-opacity:1;"/>
<path d="M 69.5,69.6 L 69.1,69.1 L 68.4,69.2" style="fill:none;stroke:#000000;stroke-width:2.0px;stroke-linecap:butt;stroke-linejoin:miter;stroke-opacity:1;"/>
<path d="M 55.3,71.2 L 54.5,71.3 L 54.3,72.0" style="fill:none;stroke:#000000;stroke-width:2.0px;stroke-linecap:butt;stroke-linejoin:miter;stroke-opacity:1;"/>
<path class="atom-4" d="M 18.5 112.1 L 19.1 112.1 L 19.1 113.9 L 21.3 113.9 L 21.3 112.1 L 21.8 112.1 L 21.8 116.4 L 21.3 116.4 L 21.3 114.4 L 19.1 114.4 L 19.1 116.4 L 18.5 116.4 L 18.5 112.1 " fill="#FF0000"/>
<path class="atom-4" d="M 22.7 114.2 Q 22.7 113.2, 23.2 112.6 Q 23.7 112.1, 24.7 112.1 Q 25.6 112.1, 26.1 112.6 Q 26.6 113.2, 26.6 114.2 Q 26.6 115.3, 26.1 115.8 Q 25.6 116.4, 24.7 116.4 Q 23.7 116.4, 23.2 115.8 Q 22.7 115.3, 22.7 114.2 M 24.7 116.0 Q 25.3 116.0, 25.7 115.5 Q 26.0 115.1, 26.0 114.2 Q 26.0 113.4, 25.7 113.0 Q 25.3 112.5, 24.7 112.5 Q 24.0 112.5, 23.7 113.0 Q 23.3 113.4, 23.3 114.2 Q 23.3 115.1, 23.7 115.5 Q 24.0 116.0, 24.7 116.0 " fill="#FF0000"/>
<path class="atom-13" d="M 134.6 71.6 Q 134.6 70.5, 135.1 70.0 Q 135.6 69.4, 136.5 69.4 Q 137.5 69.4, 138.0 70.0 Q 138.5 70.5, 138.5 71.6 Q 138.5 72.6, 138.0 73.2 Q 137.5 73.8, 136.5 73.8 Q 135.6 73.8, 135.1 73.2 Q 134.6 72.6, 134.6 71.6 M 136.5 73.3 Q 137.2 73.3, 137.5 72.8 Q 137.9 72.4, 137.9 71.6 Q 137.9 70.7, 137.5 70.3 Q 137.2 69.9, 136.5 69.9 Q 135.9 69.9, 135.5 70.3 Q 135.2 70.7, 135.2 71.6 Q 135.2 72.4, 135.5 72.8 Q 135.9 73.3, 136.5 73.3 " fill="#FF0000"/>
<path class="atom-15" d="M 138.5 96.8 Q 138.5 95.8, 139.0 95.2 Q 139.5 94.6, 140.4 94.6 Q 141.4 94.6, 141.9 95.2 Q 142.4 95.8, 142.4 96.8 Q 142.4 97.8, 141.9 98.4 Q 141.4 99.0, 140.4 99.0 Q 139.5 99.0, 139.0 98.4 Q 138.5 97.8, 138.5 96.8 M 140.4 98.5 Q 141.1 98.5, 141.4 98.1 Q 141.8 97.6, 141.8 96.8 Q 141.8 95.9, 141.4 95.5 Q 141.1 95.1, 140.4 95.1 Q 139.8 95.1, 139.4 95.5 Q 139.1 95.9, 139.1 96.8 Q 139.1 97.6, 139.4 98.1 Q 139.8 98.5, 140.4 98.5 " fill="#FF0000"/>
<path class="atom-18" d="M 171.5 117.5 Q 171.5 116.5, 172.0 115.9 Q 172.5 115.3, 173.5 115.3 Q 174.4 115.3, 174.9 115.9 Q 175.4 116.5, 175.4 117.5 Q 175.4 118.5, 174.9 119.1 Q 174.4 119.7, 173.5 119.7 Q 172.5 119.7, 172.0 119.1 Q 171.5 118.5, 171.5 117.5 M 173.5 119.2 Q 174.1 119.2, 174.5 118.8 Q 174.8 118.3, 174.8 117.5 Q 174.8 116.7, 174.5 116.2 Q 174.1 115.8, 173.5 115.8 Q 172.8 115.8, 172.5 116.2 Q 172.1 116.6, 172.1 117.5 Q 172.1 118.3, 172.5 118.8 Q 172.8 119.2, 173.5 119.2 " fill="#FF0000"/>
<path class="atom-18" d="M 176.1 115.4 L 176.6 115.4 L 176.6 117.2 L 178.8 117.2 L 178.8 115.4 L 179.4 115.4 L 179.4 119.6 L 178.8 119.6 L 178.8 117.7 L 176.6 117.7 L 176.6 119.6 L 176.1 119.6 L 176.1 115.4 " fill="#FF0000"/>
<path class="atom-20" d="M 182.2 90.0 Q 182.2 89.0, 182.7 88.4 Q 183.2 87.9, 184.1 87.9 Q 185.1 87.9, 185.6 88.4 Q 186.1 89.0, 186.1 90.0 Q 186.1 91.1, 185.6 91.6 Q 185.0 92.2, 184.1 92.2 Q 183.2 92.2, 182.7 91.6 Q 182.2 91.1, 182.2 90.0 M 184.1 91.7 Q 184.8 91.7, 185.1 91.3 Q 185.5 90.9, 185.5 90.0 Q 185.5 89.2, 185.1 88.8 Q 184.8 88.3, 184.1 88.3 Q 183.5 88.3, 183.1 88.8 Q 182.8 89.2, 182.8 90.0 Q 182.8 90.9, 183.1 91.3 Q 183.5 91.7, 184.1 91.7 " fill="#FF0000"/>
<path class="atom-20" d="M 186.7 87.9 L 187.3 87.9 L 187.3 89.7 L 189.5 89.7 L 189.5 87.9 L 190.1 87.9 L 190.1 92.2 L 189.5 92.2 L 189.5 90.2 L 187.3 90.2 L 187.3 92.2 L 186.7 92.2 L 186.7 87.9 " fill="#FF0000"/>
<path class="atom-22" d="M 163.7 67.1 Q 163.7 66.0, 164.2 65.5 Q 164.7 64.9, 165.7 64.9 Q 166.6 64.9, 167.1 65.5 Q 167.6 66.0, 167.6 67.1 Q 167.6 68.1, 167.1 68.7 Q 166.6 69.3, 165.7 69.3 Q 164.7 69.3, 164.2 68.7 Q 163.7 68.1, 163.7 67.1 M 165.7 68.8 Q 166.3 68.8, 166.7 68.3 Q 167.0 67.9, 167.0 67.1 Q 167.0 66.2, 166.7 65.8 Q 166.3 65.4, 165.7 65.4 Q 165.0 65.4, 164.7 65.8 Q 164.3 66.2, 164.3 67.1 Q 164.3 67.9, 164.7 68.3 Q 165.0 68.8, 165.7 68.8 " fill="#FF0000"/>
<path class="atom-22" d="M 168.3 64.9 L 168.8 64.9 L 168.8 66.7 L 171.0 66.7 L 171.0 64.9 L 171.6 64.9 L 171.6 69.2 L 171.0 69.2 L 171.0 67.2 L 168.8 67.2 L 168.8 69.2 L 168.3 69.2 L 168.3 64.9 " fill="#FF0000"/>
<path class="legend" d="M 103.4 190.0 L 102.2 186.7 L 97.8 186.7 L 96.6 190.0 L 95.1 190.0 L 99.0 178.7 L 100.9 178.7 L 104.9 190.0 L 103.4 190.0 M 98.2 185.4 L 101.8 185.4 L 100.0 180.3 L 98.2 185.4 " fill="#000000"/>
</svg>