<svg xmlns="http://www.w3.org/2000/svg" xmlns:rdkit="http://www.rdkit.org/xml" xmlns:xlink="http://www.w3.org/1999/xlink" version="1.1" baseProfile="full" xml:space="preserve" width="800px" height="200px" viewBox="0 0 800 200">
<!-- END OF HEADER -->
<rect style="opacity:1.0;fill:#FFFFFF;stroke:none" width="800.0" height="200.0" x="0.0" y="0.0"> </rect>
<path class="bond-0 atom-0 atom-1" d="M 145.7,71.4 L 139.4,82.3" style="fill:none;fill-rule:evenodd;stroke:#FF0000;stroke-width:2.0px;stroke-linecap:butt;stroke-linejoin:miter;stroke-opacity:1"/>
<path class="bond-0 atom-0 atom-1" d="M 139.4,82.3 L 133.1,93.2" style="fill:none;fill-rule:evenodd;stroke:#000000;stroke-width:2.0px;stroke-linecap:butt;stroke-linejoin:miter;stroke-opacity:1"/>
<path class="bond-0 atom-0 atom-1" d="M 141.8,69.1 L 135.5,80.0" style="fill:none;fill-rule:evenodd;stroke:#FF0000;stroke-width:2.0px;stroke-linecap:butt;stroke-linejoin:miter;stroke-opacity:1"/>
<path class="bond-0 atom-0 atom-1" d="M 135.5,80.0 L 129.2,90.9" style="fill:none;fill-rule:evenodd;stroke:#000000;stroke-width:2.0px;stroke-linecap:butt;stroke-linejoin:miter;stroke-opacity:1"/>
<path class="bond-1 atom-1 atom-2" d="M 131.8,90.9 L 137.8,101.4" style="fill:none;fill-rule:evenodd;stroke:#000000;stroke-width:2.0px;stroke-linecap:butt;stroke-linejoin:miter;stroke-opacity:1"/>
<path class="bond-1 atom-1 atom-2" d="M 137.8,101.4 L 143.8,111.8" style="fill:none;fill-rule:evenodd;stroke:#FF0000;stroke-width:2.0px;stroke-linecap:butt;stroke-linejoin:miter;stroke-opacity:1"/>
<path class="bond-2 atom-1 atom-3" d="M 131.8,90.9 L 101.6,90.9" style="fill:none;fill-rule:evenodd;stroke:#000000;stroke-width:2.0px;stroke-linecap:butt;stroke-linejoin:miter;stroke-opacity:1"/>
<path class="bond-3 atom-3 atom-4" d="M 101.6,90.9 L 86.5,117.1" style="fill:none;fill-rule:evenodd;stroke:#000000;stroke-width:2.0px;stroke-linecap:butt;stroke-linejoin:miter;stroke-opacity:1"/>
<path class="bond-3 atom-3 atom-4" d="M 96.3,90.9 L 83.9,112.6" style="fill:none;fill-rule:evenodd;stroke:#000000;stroke-width:2.0px;stroke-linecap:butt;stroke-linejoin:miter;stroke-opacity:1"/>
<path class="bond-4 atom-4 atom-5" d="M 86.5,117.1 L 56.3,117.1" style="fill:none;fill-rule:evenodd;stroke:#000000;stroke-width:2.0px;stroke-linecap:butt;stroke-linejoin:miter;stroke-opacity:1"/>
<path class="bond-5 atom-5 atom-6" d="M 56.3,117.1 L 41.2,90.9" style="fill:none;fill-rule:evenodd;stroke:#000000;stroke-width:2.0px;stroke-linecap:butt;stroke-linejoin:miter;stroke-opacity:1"/>
<path class="bond-5 atom-5 atom-6" d="M 58.9,112.6 L 46.4,90.9" style="fill:none;fill-rule:evenodd;stroke:#000000;stroke-width:2.0px;stroke-linecap:butt;stroke-linejoin:miter;stroke-opacity:1"/>
<path class="bond-6 atom-6 atom-7" d="M 41.2,90.9 L 56.3,64.8" style="fill:none;fill-rule:evenodd;stroke:#000000;stroke-width:2.0px;stroke-linecap:butt;stroke-linejoin:miter;stroke-opacity:1"/>
<path class="bond-7 atom-7 atom-8" d="M 56.3,64.8 L 86.5,64.8" style="fill:none;fill-rule:evenodd;stroke:#000000;stroke-width:2.0px;stroke-linecap:butt;stroke-linejoin:miter;stroke-opacity:1"/>
<path class="bond-7 atom-7 atom-8" d="M 58.9,69.3 L 83.9,69.3" style="fill:none;fill-rule:evenodd;stroke:#000000;stroke-width:2.0px;stroke-linecap:butt;stroke-linejoin:miter;stroke-opacity:1"/>
<path class="bond-8 atom-8 atom-3" d="M 86.5,64.8 L 101.6,90.9" style="fill:none;fill-rule:evenodd;stroke:#000000;stroke-width:2.0px;stroke-linecap:butt;stroke-linejoin:miter;stroke-opacity:1"/>
<path d="M 132.1,91.5 L 131.8,90.9 L 130.3,90.9" style="fill:none;stroke:#000000;stroke-width:2.0px;stroke-linecap:butt;stroke-linejoin:miter;stroke-opacity:1;"/>
<path d="M 87.2,115.8 L 86.5,117.1 L 85.0,117.1" style="fill:none;stroke:#000000;stroke-width:2.0px;stroke-linecap:butt;stroke-linejoin:miter;stroke-opacity:1;"/>
<path d="M 57.8,117.1 L 56.3,117.1 L 55.5,115.8" style="fill:none;stroke:#000000;stroke-width:2.0px;stroke-linecap:butt;stroke-linejoin:miter;stroke-opacity:1;"/>
<path d="M 41.9,92.2 L 41.2,90.9 L 41.9,89.6" style="fill:none;stroke:#000000;stroke-width:2.0px;stroke-linecap:butt;stroke-linejoin:miter;stroke-opacity:1;"/>
<path d="M 55.5,66.1 L 56.3,64.8 L 57.8,64.8" style="fill:none;stroke:#000000;stroke-width:2.0px;stroke-linecap:butt;stroke-linejoin:miter;stroke-opacity:1;"/>
<path d="M 85.0,64.8 L 86.5,64.8 L 87.2,66.1" style="fill:none;stroke:#000000;stroke-width:2.0px;stroke-linecap:butt;stroke-linejoin:miter;stroke-opacity:1;"/>
<path class="atom-0" d="M 143.0 64.8 Q 143.0 62.7, 144.0 61.6 Q 145.0 60.4, 146.9 60.4 Q 148.8 60.4, 149.8 61.6 Q 150.8 62.7, 150.8 64.8 Q 150.8 66.9, 149.8 68.1 Q 148.8 69.2, 146.9 69.2 Q 145.0 69.2, 144.0 68.1 Q 143.0 66.9, 143.0 64.8 M 146.9 68.3 Q 148.2 68.3, 148.9 67.4 Q 149.6 66.5, 149.6 64.8 Q 149.6 63.1, 148.9 62.3 Q 148.2 61.4, 146.9 61.4 Q 145.6 61.4, 144.9 62.3 Q 144.2 63.1, 144.2 64.8 Q 144.2 66.5, 144.9 67.4 Q 145.6 68.3, 146.9 68.3 " fill="#FF0000"/>
<path class="atom-2" d="M 143.0 117.1 Q 143.0 115.1, 144.0 113.9 Q 145.0 112.8, 146.9 112.8 Q 148.8 112.8, 149.8 113.9 Q 150.8 115.1, 150.8 117.1 Q 150.8 119.2, 149.8 120.4 Q 148.8 121.6, 146.9 121.6 Q 145.0 121.6, 144.0 120.4 Q 143.0 119.2, 143.0 117.1 M 146.9 120.6 Q 148.2 120.6, 148.9 119.7 Q 149.6 118.8, 149.6 117.1 Q 149.6 115.4, 148.9 114.6 Q 148.2 113.7, 146.9 113.7 Q 145.6 113.7, 144.9 114.6 Q 144.2 115.4, 144.2 117.1 Q 144.2 118.8, 144.9 119.7 Q 145.6 120.6, 146.9 120.6 " fill="#FF0000"/>
<path class="atom-2" d="M 152.1 112.9 L 153.3 112.9 L 153.3 116.5 L 157.7 116.5 L 157.7 112.9 L 158.8 112.9 L 158.8 121.4 L 157.7 121.4 L 157.7 117.5 L 153.3 117.5 L 153.3 121.4 L 152.1 121.4 L 152.1 112.9 " fill="#FF0000"/>
<path class="legend" d="M 103.4 190.0 L 102.2 186.7 L 97.8 186.7 L 96.6 190.0 L 95.1 190.0 L 99.0 178.7 L 100.9 178.7 L 104.9 190.0 L 103.4 190.0 M 98.2 185.4 L 101.8 185.4 L 100.0 180.3 L 98.2 185.4 " fill="#000000"/>
<path class="bond-0 atom-0 atom-1" d="M 210.0,89.0 L 240.0,85.6" style="fill:none;fill-rule:evenodd;stroke:#000000;stroke-width:2.0px;stroke-linecap:butt;stroke-linejoin:miter;stroke-opacity:1"/>
<path class="bond-1 atom-1 atom-2" d="M 240.0,85.6 L 247.0,95.1" style="fill:none;fill-rule:evenodd;stroke:#000000;stroke-width:2.0px;stroke-linecap:butt;stroke-linejoin:miter;stroke-opacity:1"/>
<path class="bond-1 atom-1 atom-2" d="M 247.0,95.1 L 254.0,104.6" style="fill:none;fill-rule:evenodd;stroke:#FF0000;stroke-width:2.0px;stroke-linecap:butt;stroke-linejoin:miter;stroke-opacity:1"/>
<path class="bond-2 atom-2 atom-3" d="M 262.9,109.3 L 275.5,107.9" style="fill:none;fill-rule:evenodd;stroke:#FF0000;stroke-width:2.0px;stroke-linecap:butt;stroke-linejoin:miter;stroke-opacity:1"/>
<path class="bond-2 atom-2 atom-3" d="M 275.5,107.9 L 288.0,106.5" style="fill:none;fill-rule:evenodd;stroke:#000000;stroke-width:2.0px;stroke-linecap:butt;stroke-linejoin:miter;stroke-opacity:1"/>
<path class="bond-3 atom-3 atom-4" d="M 288.0,106.5 L 292.8,95.4" style="fill:none;fill-rule:evenodd;stroke:#000000;stroke-width:2.0px;stroke-linecap:butt;stroke-linejoin:miter;stroke-opacity:1"/>
<path class="bond-3 atom-3 atom-4" d="M 292.8,95.4 L 297.7,84.2" style="fill:none;fill-rule:evenodd;stroke:#FF0000;stroke-width:2.0px;stroke-linecap:butt;stroke-linejoin:miter;stroke-opacity:1"/>
<path class="bond-4 atom-4 atom-5" d="M 305.0,78.2 L 317.5,76.8" style="fill:none;fill-rule:evenodd;stroke:#FF0000;stroke-width:2.0px;stroke-linecap:butt;stroke-linejoin:miter;stroke-opacity:1"/>
<path class="bond-4 atom-4 atom-5" d="M 317.5,76.8 L 330.1,75.4" style="fill:none;fill-rule:evenodd;stroke:#000000;stroke-width:2.0px;stroke-linecap:butt;stroke-linejoin:miter;stroke-opacity:1"/>
<path class="bond-5 atom-5 atom-6" d="M 330.1,75.4 L 342.1,47.7" style="fill:none;fill-rule:evenodd;stroke:#000000;stroke-width:2.0px;stroke-linecap:butt;stroke-linejoin:miter;stroke-opacity:1"/>
<path class="bond-6 atom-6 atom-7" d="M 342.1,47.7 L 335.1,38.3" style="fill:none;fill-rule:evenodd;stroke:#000000;stroke-width:2.0px;stroke-linecap:butt;stroke-linejoin:miter;stroke-opacity:1"/>
<path class="bond-6 atom-6 atom-7" d="M 335.1,38.3 L 328.2,28.8" style="fill:none;fill-rule:evenodd;stroke:#FF0000;stroke-width:2.0px;stroke-linecap:butt;stroke-linejoin:miter;stroke-opacity:1"/>
<path class="bond-7 atom-5 atom-8" d="M 330.1,75.4 L 348.0,99.7" style="fill:none;fill-rule:evenodd;stroke:#000000;stroke-width:2.0px;stroke-linecap:butt;stroke-linejoin:miter;stroke-opacity:1"/>
<path class="bond-8 atom-8 atom-9" d="M 348.0,99.7 L 360.6,98.2" style="fill:none;fill-rule:evenodd;stroke:#000000;stroke-width:2.0px;stroke-linecap:butt;stroke-linejoin:miter;stroke-opacity:1"/>
<path class="bond-8 atom-8 atom-9" d="M 360.6,98.2 L 373.1,96.8" style="fill:none;fill-rule:evenodd;stroke:#FF0000;stroke-width:2.0px;stroke-linecap:butt;stroke-linejoin:miter;stroke-opacity:1"/>
<path class="bond-9 atom-8 atom-10" d="M 348.0,99.7 L 336.0,127.4" style="fill:none;fill-rule:evenodd;stroke:#000000;stroke-width:2.0px;stroke-linecap:butt;stroke-linejoin:miter;stroke-opacity:1"/>
<path class="bond-10 atom-10 atom-11" d="M 336.0,127.4 L 343.0,136.8" style="fill:none;fill-rule:evenodd;stroke:#000000;stroke-width:2.0px;stroke-linecap:butt;stroke-linejoin:miter;stroke-opacity:1"/>
<path class="bond-10 atom-10 atom-11" d="M 343.0,136.8 L 350.0,146.3" style="fill:none;fill-rule:evenodd;stroke:#FF0000;stroke-width:2.0px;stroke-linecap:butt;stroke-linejoin:miter;stroke-opacity:1"/>
<path class="bond-11 atom-10 atom-12" d="M 336.0,127.4 L 306.0,130.8" style="fill:none;fill-rule:evenodd;stroke:#000000;stroke-width:2.0px;stroke-linecap:butt;stroke-linejoin:miter;stroke-opacity:1"/>
<path class="bond-12 atom-12 atom-13" d="M 306.0,130.8 L 301.1,142.0" style="fill:none;fill-rule:evenodd;stroke:#000000;stroke-width:2.0px;stroke-linecap:butt;stroke-linejoin:miter;stroke-opacity:1"/>
<path class="bond-12 atom-12 atom-13" d="M 301.1,142.0 L 296.2,153.2" style="fill:none;fill-rule:evenodd;stroke:#FF0000;stroke-width:2.0px;stroke-linecap:butt;stroke-linejoin:miter;stroke-opacity:1"/>
<path class="bond-13 atom-12 atom-3" d="M 306.0,130.8 L 288.0,106.5" style="fill:none;fill-rule:evenodd;stroke:#000000;stroke-width:2.0px;stroke-linecap:butt;stroke-linejoin:miter;stroke-opacity:1"/>
<path d="M 238.5,85.8 L 240.0,85.6 L 240.4,86.1" style="fill:none;stroke:#000000;stroke-width:2.0px;stroke-linecap:butt;stroke-linejoin:miter;stroke-opacity:1;"/>
<path d="M 341.5,49.1 L 342.1,47.7 L 341.8,47.2" style="fill:none;stroke:#000000;stroke-width:2.0px;stroke-linecap:butt;stroke-linejoin:miter;stroke-opacity:1;"/>
<path class="atom-2" d="M 254.1 109.9 Q 254.1 107.9, 255.1 106.7 Q 256.1 105.6, 258.0 105.6 Q 259.9 105.6, 260.9 106.7 Q 261.9 107.9, 261.9 109.9 Q 261.9 112.0, 260.9 113.2 Q 259.9 114.4, 258.0 114.4 Q 256.1 114.4, 255.1 113.2 Q 254.1 112.0, 254.1 109.9 M 258.0 113.4 Q 259.3 113.4, 260.0 112.5 Q 260.7 111.6, 260.7 109.9 Q 260.7 108.3, 260.0 107.4 Q 259.3 106.5, 258.0 106.5 Q 256.7 106.5, 256.0 107.4 Q 255.3 108.2, 255.3 109.9 Q 255.3 111.7, 256.0 112.5 Q 256.7 113.4, 258.0 113.4 " fill="#FF0000"/>
<path class="atom-4" d="M 296.1 78.8 Q 296.1 76.8, 297.1 75.6 Q 298.2 74.5, 300.0 74.5 Q 301.9 74.5, 303.0 75.6 Q 304.0 76.8, 304.0 78.8 Q 304.0 80.9, 302.9 82.1 Q 301.9 83.2, 300.0 83.2 Q 298.2 83.2, 297.1 82.1 Q 296.1 80.9, 296.1 78.8 M 300.0 82.3 Q 301.4 82.3, 302.1 81.4 Q 302.8 80.5, 302.8 78.8 Q 302.8 77.1, 302.1 76.3 Q 301.4 75.4, 300.0 75.4 Q 298.7 75.4, 298.0 76.3 Q 297.3 77.1, 297.3 78.8 Q 297.3 80.5, 298.0 81.4 Q 298.7 82.3, 300.0 82.3 " fill="#FF0000"/>
<path class="atom-7" d="M 311.8 19.2 L 312.9 19.2 L 312.9 22.8 L 317.3 22.8 L 317.3 19.2 L 318.5 19.2 L 318.5 27.7 L 317.3 27.7 L 317.3 23.8 L 312.9 23.8 L 312.9 27.7 L 311.8 27.7 L 311.8 19.2 " fill="#FF0000"/>
<path class="atom-7" d="M 320.2 23.4 Q 320.2 21.4, 321.2 20.2 Q 322.3 19.1, 324.1 19.1 Q 326.0 19.1, 327.1 20.2 Q 328.1 21.4, 328.1 23.4 Q 328.1 25.5, 327.0 26.7 Q 326.0 27.8, 324.1 27.8 Q 322.3 27.8, 321.2 26.7 Q 320.2 25.5, 320.2 23.4 M 324.1 26.9 Q 325.5 26.9, 326.2 26.0 Q 326.9 25.1, 326.9 23.4 Q 326.9 21.7, 326.2 20.9 Q 325.5 20.0, 324.1 20.0 Q 322.8 20.0, 322.1 20.9 Q 321.4 21.7, 321.4 23.4 Q 321.4 25.1, 322.1 26.0 Q 322.8 26.9, 324.1 26.9 " fill="#FF0000"/>
<path class="atom-9" d="M 374.1 96.3 Q 374.1 94.2, 375.1 93.1 Q 376.1 91.9, 378.0 91.9 Q 379.9 91.9, 381.0 93.1 Q 382.0 94.2, 382.0 96.3 Q 382.0 98.3, 380.9 99.5 Q 379.9 100.7, 378.0 100.7 Q 376.2 100.7, 375.1 99.5 Q 374.1 98.4, 374.1 96.3 M 378.0 99.7 Q 379.4 99.7, 380.1 98.9 Q 380.8 98.0, 380.8 96.3 Q 380.8 94.6, 380.1 93.7 Q 379.4 92.9, 378.0 92.9 Q 376.7 92.9, 376.0 93.7 Q 375.3 94.6, 375.3 96.3 Q 375.3 98.0, 376.0 98.9 Q 376.7 99.7, 378.0 99.7 " fill="#FF0000"/>
<path class="atom-9" d="M 383.3 92.0 L 384.5 92.0 L 384.5 95.7 L 388.8 95.7 L 388.8 92.0 L 390.0 92.0 L 390.0 100.6 L 388.8 100.6 L 388.8 96.6 L 384.5 96.6 L 384.5 100.6 L 383.3 100.6 L 383.3 92.0 " fill="#FF0000"/>
<path class="atom-11" d="M 350.0 151.7 Q 350.0 149.6, 351.0 148.5 Q 352.0 147.3, 353.9 147.3 Q 355.8 147.3, 356.9 148.5 Q 357.9 149.6, 357.9 151.7 Q 357.9 153.8, 356.8 154.9 Q 355.8 156.1, 353.9 156.1 Q 352.1 156.1, 351.0 154.9 Q 350.0 153.8, 350.0 151.7 M 353.9 155.1 Q 355.3 155.1, 356.0 154.3 Q 356.7 153.4, 356.7 151.7 Q 356.7 150.0, 356.0 149.1 Q 355.3 148.3, 353.9 148.3 Q 352.6 148.3, 351.9 149.1 Q 351.2 150.0, 351.2 151.7 Q 351.2 153.4, 351.9 154.3 Q 352.6 155.1, 353.9 155.1 " fill="#FF0000"/>
<path class="atom-11" d="M 359.2 147.4 L 360.4 147.4 L 360.4 151.1 L 364.7 151.1 L 364.7 147.4 L 365.9 147.4 L 365.9 156.0 L 364.7 156.0 L 364.7 152.0 L 360.4 152.0 L 360.4 156.0 L 359.2 156.0 L 359.2 147.4 " fill="#FF0000"/>
<path class="atom-13" d="M 281.5 154.3 L 282.7 154.3 L 282.7 157.9 L 287.1 157.9 L 287.1 154.3 L 288.2 154.3 L 288.2 162.8 L 287.1 162.8 L 287.1 158.9 L 282.7 158.9 L 282.7 162.8 L 281.5 162.8 L 281.5 154.3 " fill="#FF0000"/>
<path class="atom-13" d="M 290.0 158.5 Q 290.0 156.5, 291.0 155.3 Q 292.0 154.2, 293.9 154.2 Q 295.8 154.2, 296.8 155.3 Q 297.8 156.5, 297.8 158.5 Q 297.8 160.6, 296.8 161.8 Q 295.8 162.9, 293.9 162.9 Q 292.0 162.9, 291.0 161.8 Q 290.0 160.6, 290.0 158.5 M 293.9 162.0 Q 295.2 162.0, 295.9 161.1 Q 296.6 160.2, 296.6 158.5 Q 296.6 156.8, 295.9 156.0 Q 295.2 155.1, 293.9 155.1 Q 292.6 155.1, 291.9 156.0 Q 291.2 156.8, 291.2 158.5 Q 291.2 160.2, 291.9 161.1 Q 292.6 162.0, 293.9 162.0 " fill="#FF0000"/>
<path class="legend" d="M 301.7 184.0 Q 302.7 184.4, 303.3 185.0 Q 303.8 185.7, 303.8 186.7 Q 303.8 188.2, 302.8 189.1 Q 301.8 190.0, 300.0 190.0 L 296.2 190.0 L 296.2 178.7 L 299.5 178.7 Q 301.4 178.7, 302.4 179.5 Q 303.4 180.2, 303.4 181.7 Q 303.4 183.4, 301.7 184.0 M 297.7 180.0 L 297.7 183.5 L 299.5 183.5 Q 300.6 183.5, 301.2 183.1 Q 301.8 182.6, 301.8 181.7 Q 301.8 180.0, 299.5 180.0 L 297.7 180.0 M 300.0 188.7 Q 301.1 188.7, 301.7 188.2 Q 302.2 187.7, 302.2 186.7 Q 302.2 185.7, 301.6 185.3 Q 301.0 184.8, 299.7 184.8 L 297.7 184.8 L 297.7 188.7 L 300.0 188.7 " fill="#000000"/>
<path class="bond-0 atom-0 atom-1" d="M 447.7,100.7 L 473.8,85.6" style="fill:none;fill-rule:evenodd;stroke:#000000;stroke-width:2.0px;stroke-linecap:butt;stroke-linejoin:miter;stroke-opacity:1"/>
<path class="bond-1 atom-1 atom-2" d="M 473.8,85.6 L 500.0,100.7" style="fill:none;fill-rule:evenodd;stroke:#000000;stroke-width:2.0px;stroke-linecap:butt;stroke-linejoin:miter;stroke-opacity:1"/>
<path class="bond-2 atom-2 atom-3" d="M 500.0,100.7 L 510.6,94.6" style="fill:none;fill-rule:evenodd;stroke:#000000;stroke-width:2.0px;stroke-linecap:butt;stroke-linejoin:miter;stroke-opacity:1"/>
<path class="bond-2 atom-2 atom-3" d="M 510.6,94.6 L 521.2,88.5" style="fill:none;fill-rule:evenodd;stroke:#FF0000;stroke-width:2.0px;stroke-linecap:butt;stroke-linejoin:miter;stroke-opacity:1"/>
<path class="bond-3 atom-3 atom-4" d="M 531.1,88.5 L 541.7,94.6" style="fill:none;fill-rule:evenodd;stroke:#FF0000;stroke-width:2.0px;stroke-linecap:butt;stroke-linejoin:miter;stroke-opacity:1"/>
<path class="bond-3 atom-3 atom-4" d="M 541.7,94.6 L 552.3,100.7" style="fill:none;fill-rule:evenodd;stroke:#000000;stroke-width:2.0px;stroke-linecap:butt;stroke-linejoin:miter;stroke-opacity:1"/>
<path d="M 472.5,86.4 L 473.8,85.6 L 475.1,86.4" style="fill:none;stroke:#000000;stroke-width:2.0px;stroke-linecap:butt;stroke-linejoin:miter;stroke-opacity:1;"/>
<path d="M 498.7,100.0 L 500.0,100.7 L 500.5,100.4" style="fill:none;stroke:#000000;stroke-width:2.0px;stroke-linecap:butt;stroke-linejoin:miter;stroke-opacity:1;"/>
<path class="atom-3" d="M 522.2 85.6 Q 522.2 83.6, 523.3 82.4 Q 524.3 81.3, 526.2 81.3 Q 528.1 81.3, 529.1 82.4 Q 530.1 83.6, 530.1 85.6 Q 530.1 87.7, 529.1 88.9 Q 528.0 90.1, 526.2 90.1 Q 524.3 90.1, 523.3 88.9 Q 522.2 87.7, 522.2 85.6 M 526.2 89.1 Q 527.5 89.1, 528.2 88.2 Q 528.9 87.4, 528.9 85.6 Q 528.9 84.0, 528.2 83.1 Q 527.5 82.3, 526.2 82.3 Q 524.9 82.3, 524.1 83.1 Q 523.4 83.9, 523.4 85.6 Q 523.4 87.4, 524.1 88.2 Q 524.9 89.1, 526.2 89.1 " fill="#FF0000"/>
<path class="legend" d="M 499.2 178.7 Q 501.7 178.7, 503.1 180.2 Q 504.4 181.6, 504.4 184.3 Q 504.4 187.0, 503.1 188.5 Q 501.7 190.0, 499.2 190.0 L 495.6 190.0 L 495.6 178.7 L 499.2 178.7 M 499.2 188.7 Q 501.0 188.7, 501.9 187.6 Q 502.8 186.5, 502.8 184.3 Q 502.8 182.1, 501.9 181.0 Q 501.0 180.0, 499.2 180.0 L 497.1 180.0 L 497.1 188.7 L 499.2 188.7 " fill="#000000"/>
<path class="bond-0 atom-0 atom-1" d="M 760.1,55.4 L 755.9,85.4" style="fill:none;fill-rule:evenodd;stroke:#000000;stroke-width:2.0px;stroke-linecap:butt;stroke-linejoin:miter;stroke-opacity:1"/>
<path class="bond-1 atom-1 atom-2" d="M 755.9,85.4 L 727.9,96.6" style="fill:none;fill-rule:evenodd;stroke:#000000;stroke-width:2.0px;stroke-linecap:butt;stroke-linejoin:miter;stroke-opacity:1"/>
<path class="bond-2 atom-2 atom-3" d="M 727.9,96.6 L 723.6,126.6" style="fill:none;fill-rule:evenodd;stroke:#000000;stroke-width:2.0px;stroke-linecap:butt;stroke-linejoin:miter;stroke-opacity:1"/>
<path class="bond-3 atom-2 atom-4" d="M 727.9,96.6 L 704.1,78.0" style="fill:none;fill-rule:evenodd;stroke:#000000;stroke-width:2.0px;stroke-linecap:butt;stroke-linejoin:miter;stroke-opacity:1"/>
<path class="bond-4 atom-4 atom-5" d="M 704.1,78.0 L 676.1,89.3" style="fill:none;fill-rule:evenodd;stroke:#000000;stroke-width:2.0px;stroke-linecap:butt;stroke-linejoin:miter;stroke-opacity:1"/>
<path class="bond-5 atom-5 atom-6" d="M 676.1,89.3 L 666.6,81.9" style="fill:none;fill-rule:evenodd;stroke:#000000;stroke-width:2.0px;stroke-linecap:butt;stroke-linejoin:miter;stroke-opacity:1"/>
<path class="bond-5 atom-5 atom-6" d="M 666.6,81.9 L 657.2,74.6" style="fill:none;fill-rule:evenodd;stroke:#FF0000;stroke-width:2.0px;stroke-linecap:butt;stroke-linejoin:miter;stroke-opacity:1"/>
<path d="M 756.1,83.9 L 755.9,85.4 L 754.5,85.9" style="fill:none;stroke:#000000;stroke-width:2.0px;stroke-linecap:butt;stroke-linejoin:miter;stroke-opacity:1;"/>
<path d="M 705.3,79.0 L 704.1,78.0 L 702.7,78.6" style="fill:none;stroke:#000000;stroke-width:2.0px;stroke-linecap:butt;stroke-linejoin:miter;stroke-opacity:1;"/>
<path d="M 677.5,88.8 L 676.1,89.3 L 675.6,88.9" style="fill:none;stroke:#000000;stroke-width:2.0px;stroke-linecap:butt;stroke-linejoin:miter;stroke-opacity:1;"/>
<path class="atom-6" d="M 639.9 66.5 L 641.0 66.5 L 641.0 70.1 L 645.4 70.1 L 645.4 66.5 L 646.6 66.5 L 646.6 75.0 L 645.4 75.0 L 645.4 71.1 L 641.0 71.1 L 641.0 75.0 L 639.9 75.0 L 639.9 66.5 " fill="#FF0000"/>
<path class="atom-6" d="M 648.3 70.7 Q 648.3 68.7, 649.4 67.5 Q 650.4 66.4, 652.3 66.4 Q 654.2 66.4, 655.2 67.5 Q 656.2 68.7, 656.2 70.7 Q 656.2 72.8, 655.2 74.0 Q 654.1 75.2, 652.3 75.2 Q 650.4 75.2, 649.4 74.0 Q 648.3 72.8, 648.3 70.7 M 652.3 74.2 Q 653.6 74.2, 654.3 73.3 Q 655.0 72.4, 655.0 70.7 Q 655.0 69.0, 654.3 68.2 Q 653.6 67.3, 652.3 67.3 Q 651.0 67.3, 650.2 68.2 Q 649.5 69.0, 649.5 70.7 Q 649.5 72.4, 650.2 73.3 Q 651.0 74.2, 652.3 74.2 " fill="#FF0000"/>
<path class="legend" d="M 696.5 178.7 L 703.3 178.7 L 703.3 180.0 L 698.1 180.0 L 698.1 183.4 L 702.8 183.4 L 702.8 184.7 L 698.1 184.7 L 698.1 188.7 L 703.5 188.7 L 703.5 190.0 L 696.5 190.0 L 696.5 178.7 " fill="#000000"/>
</svg>