<svg xmlns="http://www.w3.org/2000/svg" xmlns:rdkit="http://www.rdkit.org/xml" xmlns:xlink="http://www.w3.org/1999/xlink" version="1.1" baseProfile="full" xml:space="preserve" width="800px" height="400px" viewBox="0 0 800 400">
<!-- END OF HEADER -->
<rect style="opacity:1.0;fill:#FFFFFF;stroke:none" width="800.0" height="400.0" x="0.0" y="0.0"> </rect>
<path class="bond-0 atom-0 atom-1" d="M 128.5,91.0 L 109.5,91.0" style="fill:none;fill-rule:evenodd;stroke:#000000;stroke-width:2.0px;stroke-linecap:butt;stroke-linejoin:miter;stroke-opacity:1"/>
<path class="bond-1 atom-1 atom-2" d="M 109.5,91.0 L 100.0,107.5" style="fill:none;fill-rule:evenodd;stroke:#000000;stroke-width:2.0px;stroke-linecap:butt;stroke-linejoin:miter;stroke-opacity:1"/>
<path class="bond-1 atom-1 atom-2" d="M 106.2,91.0 L 98.4,104.6" style="fill:none;fill-rule:evenodd;stroke:#000000;stroke-width:2.0px;stroke-linecap:butt;stroke-linejoin:miter;stroke-opacity:1"/>
<path class="bond-2 atom-2 atom-3" d="M 100.0,107.5 L 81.0,107.5" style="fill:none;fill-rule:evenodd;stroke:#000000;stroke-width:2.0px;stroke-linecap:butt;stroke-linejoin:miter;stroke-opacity:1"/>
<path class="bond-3 atom-3 atom-4" d="M 81.0,107.5 L 71.5,91.0" style="fill:none;fill-rule:evenodd;stroke:#000000;stroke-width:2.0px;stroke-linecap:butt;stroke-linejoin:miter;stroke-opacity:1"/>
<path class="bond-3 atom-3 atom-4" d="M 82.6,104.6 L 74.8,91.0" style="fill:none;fill-rule:evenodd;stroke:#000000;stroke-width:2.0px;stroke-linecap:butt;stroke-linejoin:miter;stroke-opacity:1"/>
<path class="bond-4 atom-4 atom-5" d="M 71.5,91.0 L 81.0,74.5" style="fill:none;fill-rule:evenodd;stroke:#000000;stroke-width:2.0px;stroke-linecap:butt;stroke-linejoin:miter;stroke-opacity:1"/>
<path class="bond-5 atom-5 atom-6" d="M 81.0,74.5 L 100.0,74.5" style="fill:none;fill-rule:evenodd;stroke:#000000;stroke-width:2.0px;stroke-linecap:butt;stroke-linejoin:miter;stroke-opacity:1"/>
<path class="bond-5 atom-5 atom-6" d="M 82.6,77.4 L 98.4,77.4" style="fill:none;fill-rule:evenodd;stroke:#000000;stroke-width:2.0px;stroke-linecap:butt;stroke-linejoin:miter;stroke-opacity:1"/>
<path class="bond-6 atom-6 atom-1" d="M 100.0,74.5 L 109.5,91.0" style="fill:none;fill-rule:evenodd;stroke:#000000;stroke-width:2.0px;stroke-linecap:butt;stroke-linejoin:miter;stroke-opacity:1"/>
<path d="M 100.5,106.6 L 100.0,107.5 L 99.1,107.5" style="fill:none;stroke:#000000;stroke-width:2.0px;stroke-linecap:butt;stroke-linejoin:miter;stroke-opacity:1;"/>
<path d="M 82.0,107.5 L 81.0,107.5 L 80.5,106.6" style="fill:none;stroke:#000000;stroke-width:2.0px;stroke-linecap:butt;stroke-linejoin:miter;stroke-opacity:1;"/>
<path d="M 72.0,91.8 L 71.5,91.0 L 72.0,90.2" style="fill:none;stroke:#000000;stroke-width:2.0px;stroke-linecap:butt;stroke-linejoin:miter;stroke-opacity:1;"/>
<path d="M 80.5,75.4 L 81.0,74.5 L 82.0,74.5" style="fill:none;stroke:#000000;stroke-width:2.0px;stroke-linecap:butt;stroke-linejoin:miter;stroke-opacity:1;"/>
<path d="M 99.1,74.5 L 100.0,74.5 L 100.5,75.4" style="fill:none;stroke:#000000;stroke-width:2.0px;stroke-linecap:butt;stroke-linejoin:miter;stroke-opacity:1;"/>
<path class="legend" d="M 103.4 190.0 L 102.2 186.7 L 97.8 186.7 L 96.6 190.0 L 95.1 190.0 L 99.0 178.7 L 100.9 178.7 L 104.9 190.0 L 103.4 190.0 M 98.2 185.4 L 101.8 185.4 L 100.0 180.3 L 98.2 185.4 " fill="#000000"/>
<path class="bond-0 atom-0 atom-1" d="M 279.8,105.2 L 296.2,95.7" style="fill:none;fill-rule:evenodd;stroke:#000000;stroke-width:2.0px;stroke-linecap:butt;stroke-linejoin:miter;stroke-opacity:1"/>
<path class="bond-1 atom-1 atom-2" d="M 297.7,96.5 L 297.7,88.3" style="fill:none;fill-rule:evenodd;stroke:#000000;stroke-width:2.0px;stroke-linecap:butt;stroke-linejoin:miter;stroke-opacity:1"/>
<path class="bond-1 atom-1 atom-2" d="M 297.7,88.3 L 297.7,80.1" style="fill:none;fill-rule:evenodd;stroke:#FF0000;stroke-width:2.0px;stroke-linecap:butt;stroke-linejoin:miter;stroke-opacity:1"/>
<path class="bond-1 atom-1 atom-2" d="M 294.8,96.5 L 294.8,88.3" style="fill:none;fill-rule:evenodd;stroke:#000000;stroke-width:2.0px;stroke-linecap:butt;stroke-linejoin:miter;stroke-opacity:1"/>
<path class="bond-1 atom-1 atom-2" d="M 294.8,88.3 L 294.8,80.1" style="fill:none;fill-rule:evenodd;stroke:#FF0000;stroke-width:2.0px;stroke-linecap:butt;stroke-linejoin:miter;stroke-opacity:1"/>
<path class="bond-2 atom-1 atom-3" d="M 296.2,95.7 L 302.9,99.6" style="fill:none;fill-rule:evenodd;stroke:#000000;stroke-width:2.0px;stroke-linecap:butt;stroke-linejoin:miter;stroke-opacity:1"/>
<path class="bond-2 atom-1 atom-3" d="M 302.9,99.6 L 309.6,103.4" style="fill:none;fill-rule:evenodd;stroke:#FF0000;stroke-width:2.0px;stroke-linecap:butt;stroke-linejoin:miter;stroke-opacity:1"/>
<path d="M 295.4,96.2 L 296.2,95.7 L 296.6,95.9" style="fill:none;stroke:#000000;stroke-width:2.0px;stroke-linecap:butt;stroke-linejoin:miter;stroke-opacity:1;"/>
<path class="atom-2" d="M 293.8 76.7 Q 293.8 75.4, 294.4 74.7 Q 295.0 74.0, 296.2 74.0 Q 297.4 74.0, 298.1 74.7 Q 298.7 75.4, 298.7 76.7 Q 298.7 78.0, 298.1 78.8 Q 297.4 79.5, 296.2 79.5 Q 295.1 79.5, 294.4 78.8 Q 293.8 78.0, 293.8 76.7 M 296.2 78.9 Q 297.1 78.9, 297.5 78.4 Q 298.0 77.8, 298.0 76.7 Q 298.0 75.7, 297.5 75.1 Q 297.1 74.6, 296.2 74.6 Q 295.4 74.6, 295.0 75.1 Q 294.5 75.7, 294.5 76.7 Q 294.5 77.8, 295.0 78.4 Q 295.4 78.9, 296.2 78.9 " fill="#FF0000"/>
<path class="atom-3" d="M 310.2 105.2 Q 310.2 103.9, 310.9 103.2 Q 311.5 102.5, 312.7 102.5 Q 313.9 102.5, 314.5 103.2 Q 315.2 103.9, 315.2 105.2 Q 315.2 106.5, 314.5 107.3 Q 313.9 108.0, 312.7 108.0 Q 311.5 108.0, 310.9 107.3 Q 310.2 106.5, 310.2 105.2 M 312.7 107.4 Q 313.5 107.4, 314.0 106.9 Q 314.4 106.3, 314.4 105.2 Q 314.4 104.2, 314.0 103.6 Q 313.5 103.1, 312.7 103.1 Q 311.9 103.1, 311.4 103.6 Q 311.0 104.2, 311.0 105.2 Q 311.0 106.3, 311.4 106.9 Q 311.9 107.4, 312.7 107.4 " fill="#FF0000"/>
<path class="atom-3" d="M 316.0 102.5 L 316.7 102.5 L 316.7 104.8 L 319.5 104.8 L 319.5 102.5 L 320.2 102.5 L 320.2 107.9 L 319.5 107.9 L 319.5 105.4 L 316.7 105.4 L 316.7 107.9 L 316.0 107.9 L 316.0 102.5 " fill="#FF0000"/>
<path class="legend" d="M 301.7 184.0 Q 302.7 184.4, 303.3 185.0 Q 303.8 185.7, 303.8 186.7 Q 303.8 188.2, 302.8 189.1 Q 301.8 190.0, 300.0 190.0 L 296.2 190.0 L 296.2 178.7 L 299.5 178.7 Q 301.4 178.7, 302.4 179.5 Q 303.4 180.2, 303.4 181.7 Q 303.4 183.4, 301.7 184.0 M 297.7 180.0 L 297.7 183.5 L 299.5 183.5 Q 300.6 183.5, 301.2 183.1 Q 301.8 182.6, 301.8 181.7 Q 301.8 180.0, 299.5 180.0 L 297.7 180.0 M 300.0 188.7 Q 301.1 188.7, 301.7 188.2 Q 302.2 187.7, 302.2 186.7 Q 302.2 185.7, 301.6 185.3 Q 301.0 184.8, 299.7 184.8 L 297.7 184.8 L 297.7 188.7 L 300.0 188.7 " fill="#000000"/>
<path class="bond-0 atom-0 atom-1" d="M 466.7,95.9 L 483.2,86.4" style="fill:none;fill-rule:evenodd;stroke:#000000;stroke-width:2.0px;stroke-linecap:butt;stroke-linejoin:miter;stroke-opacity:1"/>
<path class="bond-1 atom-1 atom-2" d="M 483.2,86.4 L 499.6,95.9" style="fill:none;fill-rule:evenodd;stroke:#000000;stroke-width:2.0px;stroke-linecap:butt;stroke-linejoin:miter;stroke-opacity:1"/>
<path class="bond-1 atom-1 atom-2" d="M 483.2,89.7 L 498.2,98.3" style="fill:none;fill-rule:evenodd;stroke:#000000;stroke-width:2.0px;stroke-linecap:butt;stroke-linejoin:miter;stroke-opacity:1;stroke-dasharray:6,4"/>
<path class="bond-2 atom-2 atom-3" d="M 499.6,95.9 L 506.5,91.9" style="fill:none;fill-rule:evenodd;stroke:#000000;stroke-width:2.0px;stroke-linecap:butt;stroke-linejoin:miter;stroke-opacity:1"/>
<path class="bond-2 atom-2 atom-3" d="M 506.5,91.9 L 513.4,87.9" style="fill:none;fill-rule:evenodd;stroke:#0000FF;stroke-width:2.0px;stroke-linecap:butt;stroke-linejoin:miter;stroke-opacity:1"/>
<path class="bond-2 atom-2 atom-3" d="M 499.6,92.6 L 505.8,89.0" style="fill:none;fill-rule:evenodd;stroke:#000000;stroke-width:2.0px;stroke-linecap:butt;stroke-linejoin:miter;stroke-opacity:1;stroke-dasharray:6,4"/>
<path class="bond-2 atom-2 atom-3" d="M 505.8,89.0 L 512.0,85.4" style="fill:none;fill-rule:evenodd;stroke:#0000FF;stroke-width:2.0px;stroke-linecap:butt;stroke-linejoin:miter;stroke-opacity:1;stroke-dasharray:6,4"/>
<path class="bond-3 atom-3 atom-4" d="M 518.1,89.1 L 524.9,93.1" style="fill:none;fill-rule:evenodd;stroke:#0000FF;stroke-width:2.0px;stroke-linecap:butt;stroke-linejoin:miter;stroke-opacity:1"/>
<path class="bond-3 atom-3 atom-4" d="M 524.9,93.1 L 531.8,97.1" style="fill:none;fill-rule:evenodd;stroke:#000000;stroke-width:2.0px;stroke-linecap:butt;stroke-linejoin:miter;stroke-opacity:1"/>
<path class="bond-3 atom-3 atom-4" d="M 519.5,86.7 L 526.4,90.6" style="fill:none;fill-rule:evenodd;stroke:#0000FF;stroke-width:2.0px;stroke-linecap:butt;stroke-linejoin:miter;stroke-opacity:1;stroke-dasharray:6,4"/>
<path class="bond-3 atom-3 atom-4" d="M 526.4,90.6 L 533.3,94.6" style="fill:none;fill-rule:evenodd;stroke:#000000;stroke-width:2.0px;stroke-linecap:butt;stroke-linejoin:miter;stroke-opacity:1;stroke-dasharray:6,4"/>
<path d="M 482.4,86.8 L 483.2,86.4 L 484.0,86.8" style="fill:none;stroke:#000000;stroke-width:2.0px;stroke-linecap:butt;stroke-linejoin:miter;stroke-opacity:1;"/>
<path d="M 498.8,95.4 L 499.6,95.9 L 500.0,95.7" style="fill:none;stroke:#000000;stroke-width:2.0px;stroke-linecap:butt;stroke-linejoin:miter;stroke-opacity:1;"/>
<path class="atom-3" d="M 514.9 83.7 L 516.7 86.5 Q 516.8 86.8, 517.1 87.3 Q 517.4 87.8, 517.4 87.9 L 517.4 83.7 L 518.1 83.7 L 518.1 89.1 L 517.4 89.1 L 515.5 85.9 Q 515.3 85.6, 515.1 85.2 Q 514.8 84.7, 514.8 84.6 L 514.8 89.1 L 514.1 89.1 L 514.1 83.7 L 514.9 83.7 " fill="#0000FF"/>
<path class="legend" d="M 495.6 184.2 Q 495.6 181.4, 496.9 179.9 Q 498.3 178.4, 500.8 178.4 Q 503.1 178.4, 504.4 180.0 L 503.3 180.9 Q 502.4 179.7, 500.8 179.7 Q 499.1 179.7, 498.2 180.9 Q 497.3 182.0, 497.3 184.2 Q 497.3 186.4, 498.2 187.6 Q 499.1 188.7, 501.0 188.7 Q 502.2 188.7, 503.7 188.0 L 504.1 189.2 Q 503.5 189.6, 502.6 189.8 Q 501.7 190.0, 500.7 190.0 Q 498.3 190.0, 496.9 188.5 Q 495.6 187.0, 495.6 184.2 " fill="#000000"/>
<path class="bond-0 atom-0 atom-1" d="M 667.1,95.7 L 683.5,86.3" style="fill:none;fill-rule:evenodd;stroke:#000000;stroke-width:2.0px;stroke-linecap:butt;stroke-linejoin:miter;stroke-opacity:1"/>
<path class="bond-1 atom-1 atom-2" d="M 683.5,86.3 L 700.0,95.7" style="fill:none;fill-rule:evenodd;stroke:#000000;stroke-width:2.0px;stroke-linecap:butt;stroke-linejoin:miter;stroke-opacity:1"/>
<path class="bond-2 atom-2 atom-3" d="M 700.0,95.7 L 716.5,86.3" style="fill:none;fill-rule:evenodd;stroke:#000000;stroke-width:2.0px;stroke-linecap:butt;stroke-linejoin:miter;stroke-opacity:1"/>
<path class="bond-3 atom-3 atom-4" d="M 716.5,86.3 L 732.9,95.7" style="fill:none;fill-rule:evenodd;stroke:#000000;stroke-width:2.0px;stroke-linecap:butt;stroke-linejoin:miter;stroke-opacity:1"/>
<path d="M 682.7,86.7 L 683.5,86.3 L 684.4,86.7" style="fill:none;stroke:#000000;stroke-width:2.0px;stroke-linecap:butt;stroke-linejoin:miter;stroke-opacity:1;"/>
<path d="M 699.2,95.3 L 700.0,95.7 L 700.8,95.3" style="fill:none;stroke:#000000;stroke-width:2.0px;stroke-linecap:butt;stroke-linejoin:miter;stroke-opacity:1;"/>
<path d="M 715.6,86.7 L 716.5,86.3 L 717.3,86.7" style="fill:none;stroke:#000000;stroke-width:2.0px;stroke-linecap:butt;stroke-linejoin:miter;stroke-opacity:1;"/>
<path class="legend" d="M 699.2 178.7 Q 701.7 178.7, 703.1 180.2 Q 704.4 181.6, 704.4 184.3 Q 704.4 187.0, 703.1 188.5 Q 701.7 190.0, 699.2 190.0 L 695.6 190.0 L 695.6 178.7 L 699.2 178.7 M 699.2 188.7 Q 701.0 188.7, 701.9 187.6 Q 702.8 186.5, 702.8 184.3 Q 702.8 182.1, 701.9 181.0 Q 701.0 180.0, 699.2 180.0 L 697.1 180.0 L 697.1 188.7 L 699.2 188.7 " fill="#000000"/>
<path class="bond-0 atom-0 atom-1" d="M 83.5,295.7 L 100.0,286.3" style="fill:none;fill-rule:evenodd;stroke:#000000;stroke-width:2.0px;stroke-linecap:butt;stroke-linejoin:miter;stroke-opacity:1"/>
<path class="bond-1 atom-1 atom-2" d="M 100.0,286.3 L 116.5,295.7" style="fill:none;fill-rule:evenodd;stroke:#000000;stroke-width:2.0px;stroke-linecap:butt;stroke-linejoin:miter;stroke-opacity:1"/>
<path d="M 99.2,286.7 L 100.0,286.3 L 100.8,286.7" style="fill:none;stroke:#000000;stroke-width:2.0px;stroke-linecap:butt;stroke-linejoin:miter;stroke-opacity:1;"/>
<path class="legend" d="M 96.6 378.7 L 103.4 378.7 L 103.4 380.0 L 98.2 380.0 L 98.2 383.4 L 102.8 383.4 L 102.8 384.7 L 98.2 384.7 L 98.2 390.0 L 96.6 390.0 L 96.6 378.7 " fill="#000000"/>
<path class="bond-0 atom-0 atom-1" d="M 267.1,295.7 L 283.5,286.3" style="fill:none;fill-rule:evenodd;stroke:#000000;stroke-width:2.0px;stroke-linecap:butt;stroke-linejoin:miter;stroke-opacity:1"/>
<path class="bond-1 atom-1 atom-2" d="M 283.5,286.3 L 300.0,295.7" style="fill:none;fill-rule:evenodd;stroke:#000000;stroke-width:2.0px;stroke-linecap:butt;stroke-linejoin:miter;stroke-opacity:1"/>
<path class="bond-2 atom-2 atom-3" d="M 300.0,295.7 L 316.5,286.3" style="fill:none;fill-rule:evenodd;stroke:#000000;stroke-width:2.0px;stroke-linecap:butt;stroke-linejoin:miter;stroke-opacity:1"/>
<path class="bond-3 atom-3 atom-4" d="M 316.5,286.3 L 332.9,295.7" style="fill:none;fill-rule:evenodd;stroke:#000000;stroke-width:2.0px;stroke-linecap:butt;stroke-linejoin:miter;stroke-opacity:1"/>
<path d="M 282.7,286.7 L 283.5,286.3 L 284.4,286.7" style="fill:none;stroke:#000000;stroke-width:2.0px;stroke-linecap:butt;stroke-linejoin:miter;stroke-opacity:1;"/>
<path d="M 299.2,295.3 L 300.0,295.7 L 300.8,295.3" style="fill:none;stroke:#000000;stroke-width:2.0px;stroke-linecap:butt;stroke-linejoin:miter;stroke-opacity:1;"/>
<path d="M 315.6,286.7 L 316.5,286.3 L 317.3,286.7" style="fill:none;stroke:#000000;stroke-width:2.0px;stroke-linecap:butt;stroke-linejoin:miter;stroke-opacity:1;"/>
<path class="legend" d="M 304.6 384.3 L 304.6 389.1 Q 302.9 390.0, 300.6 390.0 Q 298.1 390.0, 296.8 388.5 Q 295.4 387.0, 295.4 384.2 Q 295.4 381.4, 296.8 379.9 Q 298.1 378.4, 300.6 378.4 Q 301.9 378.4, 302.9 378.8 Q 303.8 379.2, 304.5 380.0 L 303.5 380.9 Q 302.4 379.7, 300.6 379.7 Q 298.9 379.7, 298.0 380.8 Q 297.1 382.0, 297.1 384.2 Q 297.1 386.4, 298.0 387.6 Q 299.0 388.7, 300.8 388.7 Q 302.0 388.7, 303.0 388.3 L 303.0 384.3 L 304.6 384.3 " fill="#000000"/>
<path class="bond-0 atom-0 atom-1" d="M 410.0,300.2 L 427.8,293.6" style="fill:none;fill-rule:evenodd;stroke:#000000;stroke-width:2.0px;stroke-linecap:butt;stroke-linejoin:miter;stroke-opacity:1"/>
<path class="bond-1 atom-1 atom-2" d="M 427.8,293.6 L 442.4,305.8" style="fill:none;fill-rule:evenodd;stroke:#000000;stroke-width:2.0px;stroke-linecap:butt;stroke-linejoin:miter;stroke-opacity:1"/>
<path class="bond-2 atom-2 atom-3" d="M 442.4,305.8 L 460.3,299.2" style="fill:none;fill-rule:evenodd;stroke:#000000;stroke-width:2.0px;stroke-linecap:butt;stroke-linejoin:miter;stroke-opacity:1"/>
<path class="bond-3 atom-3 atom-4" d="M 460.3,299.2 L 474.9,311.3" style="fill:none;fill-rule:evenodd;stroke:#000000;stroke-width:2.0px;stroke-linecap:butt;stroke-linejoin:miter;stroke-opacity:1"/>
<path class="bond-4 atom-4 atom-5" d="M 474.9,311.3 L 492.7,304.7" style="fill:none;fill-rule:evenodd;stroke:#000000;stroke-width:2.0px;stroke-linecap:butt;stroke-linejoin:miter;stroke-opacity:1"/>
<path class="bond-5 atom-5 atom-6" d="M 492.7,304.7 L 507.3,316.8" style="fill:none;fill-rule:evenodd;stroke:#000000;stroke-width:2.0px;stroke-linecap:butt;stroke-linejoin:miter;stroke-opacity:1"/>
<path class="bond-6 atom-5 atom-7" d="M 492.7,304.7 L 495.9,286.0" style="fill:none;fill-rule:evenodd;stroke:#000000;stroke-width:2.0px;stroke-linecap:butt;stroke-linejoin:miter;stroke-opacity:1"/>
<path class="bond-7 atom-7 atom-8" d="M 495.9,286.0 L 513.7,279.4" style="fill:none;fill-rule:evenodd;stroke:#000000;stroke-width:2.0px;stroke-linecap:butt;stroke-linejoin:miter;stroke-opacity:1"/>
<path class="bond-8 atom-8 atom-9" d="M 513.7,279.4 L 516.9,260.7" style="fill:none;fill-rule:evenodd;stroke:#000000;stroke-width:2.0px;stroke-linecap:butt;stroke-linejoin:miter;stroke-opacity:1"/>
<path class="bond-9 atom-9 atom-10" d="M 516.9,260.7 L 534.7,254.1" style="fill:none;fill-rule:evenodd;stroke:#000000;stroke-width:2.0px;stroke-linecap:butt;stroke-linejoin:miter;stroke-opacity:1"/>
<path class="bond-10 atom-10 atom-11" d="M 534.7,254.1 L 537.9,235.3" style="fill:none;fill-rule:evenodd;stroke:#000000;stroke-width:2.0px;stroke-linecap:butt;stroke-linejoin:miter;stroke-opacity:1"/>
<path class="bond-11 atom-10 atom-12" d="M 534.7,254.1 L 549.3,266.2" style="fill:none;fill-rule:evenodd;stroke:#000000;stroke-width:2.0px;stroke-linecap:butt;stroke-linejoin:miter;stroke-opacity:1"/>
<path class="bond-12 atom-12 atom-13" d="M 549.3,266.2 L 567.2,259.6" style="fill:none;fill-rule:evenodd;stroke:#000000;stroke-width:2.0px;stroke-linecap:butt;stroke-linejoin:miter;stroke-opacity:1"/>
<path class="bond-13 atom-12 atom-14" d="M 549.3,266.2 L 546.1,284.9" style="fill:none;fill-rule:evenodd;stroke:#000000;stroke-width:2.0px;stroke-linecap:butt;stroke-linejoin:miter;stroke-opacity:1"/>
<path class="bond-14 atom-14 atom-15" d="M 546.1,284.9 L 560.8,297.1" style="fill:none;fill-rule:evenodd;stroke:#000000;stroke-width:2.0px;stroke-linecap:butt;stroke-linejoin:miter;stroke-opacity:1"/>
<path class="bond-15 atom-15 atom-16" d="M 560.8,297.1 L 557.6,315.8" style="fill:none;fill-rule:evenodd;stroke:#000000;stroke-width:2.0px;stroke-linecap:butt;stroke-linejoin:miter;stroke-opacity:1"/>
<path class="bond-16 atom-16 atom-17" d="M 557.6,315.8 L 572.2,327.9" style="fill:none;fill-rule:evenodd;stroke:#000000;stroke-width:2.0px;stroke-linecap:butt;stroke-linejoin:miter;stroke-opacity:1"/>
<path class="bond-17 atom-17 atom-18" d="M 572.2,327.9 L 569.0,346.7" style="fill:none;fill-rule:evenodd;stroke:#000000;stroke-width:2.0px;stroke-linecap:butt;stroke-linejoin:miter;stroke-opacity:1"/>
<path class="bond-18 atom-17 atom-19" d="M 572.2,327.9 L 590.0,321.3" style="fill:none;fill-rule:evenodd;stroke:#000000;stroke-width:2.0px;stroke-linecap:butt;stroke-linejoin:miter;stroke-opacity:1"/>
<path d="M 426.9,294.0 L 427.8,293.6 L 428.5,294.2" style="fill:none;stroke:#000000;stroke-width:2.0px;stroke-linecap:butt;stroke-linejoin:miter;stroke-opacity:1;"/>
<path d="M 441.7,305.1 L 442.4,305.8 L 443.3,305.4" style="fill:none;stroke:#000000;stroke-width:2.0px;stroke-linecap:butt;stroke-linejoin:miter;stroke-opacity:1;"/>
<path d="M 459.4,299.5 L 460.3,299.2 L 461.0,299.8" style="fill:none;stroke:#000000;stroke-width:2.0px;stroke-linecap:butt;stroke-linejoin:miter;stroke-opacity:1;"/>
<path d="M 474.1,310.7 L 474.9,311.3 L 475.8,311.0" style="fill:none;stroke:#000000;stroke-width:2.0px;stroke-linecap:butt;stroke-linejoin:miter;stroke-opacity:1;"/>
<path d="M 495.7,286.9 L 495.9,286.0 L 496.8,285.7" style="fill:none;stroke:#000000;stroke-width:2.0px;stroke-linecap:butt;stroke-linejoin:miter;stroke-opacity:1;"/>
<path d="M 512.8,279.7 L 513.7,279.4 L 513.9,278.5" style="fill:none;stroke:#000000;stroke-width:2.0px;stroke-linecap:butt;stroke-linejoin:miter;stroke-opacity:1;"/>
<path d="M 516.8,261.6 L 516.9,260.7 L 517.8,260.3" style="fill:none;stroke:#000000;stroke-width:2.0px;stroke-linecap:butt;stroke-linejoin:miter;stroke-opacity:1;"/>
<path d="M 546.3,284.0 L 546.1,284.9 L 546.9,285.5" style="fill:none;stroke:#000000;stroke-width:2.0px;stroke-linecap:butt;stroke-linejoin:miter;stroke-opacity:1;"/>
<path d="M 560.0,296.5 L 560.8,297.1 L 560.6,298.0" style="fill:none;stroke:#000000;stroke-width:2.0px;stroke-linecap:butt;stroke-linejoin:miter;stroke-opacity:1;"/>
<path d="M 557.7,314.9 L 557.6,315.8 L 558.3,316.4" style="fill:none;stroke:#000000;stroke-width:2.0px;stroke-linecap:butt;stroke-linejoin:miter;stroke-opacity:1;"/>
<path class="legend" d="M 495.6 378.7 L 497.1 378.7 L 497.1 383.5 L 502.9 383.5 L 502.9 378.7 L 504.4 378.7 L 504.4 390.0 L 502.9 390.0 L 502.9 384.8 L 497.1 384.8 L 497.1 390.0 L 495.6 390.0 L 495.6 378.7 " fill="#000000"/>
</svg>