<svg xmlns="http://www.w3.org/2000/svg" xmlns:rdkit="http://www.rdkit.org/xml" xmlns:xlink="http://www.w3.org/1999/xlink" version="1.1" baseProfile="full" xml:space="preserve" width="800px" height="400px" viewBox="0 0 800 400">
<!-- END OF HEADER -->
<rect style="opacity:1.0;fill:#FFFFFF;stroke:none" width="800.0" height="400.0" x="0.0" y="0.0"> </rect>
<path class="bond-0 atom-0 atom-1" d="M 71.3,92.9 L 90.6,84.7" style="fill:none;fill-rule:evenodd;stroke:#000000;stroke-width:2.0px;stroke-linecap:butt;stroke-linejoin:miter;stroke-opacity:1"/>
<path class="bond-1 atom-1 atom-2" d="M 90.6,84.7 L 107.3,97.3" style="fill:none;fill-rule:evenodd;stroke:#000000;stroke-width:2.0px;stroke-linecap:butt;stroke-linejoin:miter;stroke-opacity:1"/>
<path class="bond-2 atom-2 atom-3" d="M 107.3,97.3 L 115.3,94.0" style="fill:none;fill-rule:evenodd;stroke:#000000;stroke-width:2.0px;stroke-linecap:butt;stroke-linejoin:miter;stroke-opacity:1"/>
<path class="bond-2 atom-2 atom-3" d="M 115.3,94.0 L 123.2,90.6" style="fill:none;fill-rule:evenodd;stroke:#FF0000;stroke-width:2.0px;stroke-linecap:butt;stroke-linejoin:miter;stroke-opacity:1"/>
<path class="bond-2 atom-2 atom-3" d="M 107.8,93.7 L 114.0,91.1" style="fill:none;fill-rule:evenodd;stroke:#000000;stroke-width:2.0px;stroke-linecap:butt;stroke-linejoin:miter;stroke-opacity:1"/>
<path class="bond-2 atom-2 atom-3" d="M 114.0,91.1 L 122.0,87.7" style="fill:none;fill-rule:evenodd;stroke:#FF0000;stroke-width:2.0px;stroke-linecap:butt;stroke-linejoin:miter;stroke-opacity:1"/>
<path d="M 89.6,85.1 L 90.6,84.7 L 91.4,85.4" style="fill:none;stroke:#000000;stroke-width:2.0px;stroke-linecap:butt;stroke-linejoin:miter;stroke-opacity:1;"/>
<path d="M 106.5,96.7 L 107.3,97.3 L 107.7,97.2" style="fill:none;stroke:#000000;stroke-width:2.0px;stroke-linecap:butt;stroke-linejoin:miter;stroke-opacity:1;"/>
<path class="atom-3" d="M 123.3 87.7 Q 123.3 86.3, 124.0 85.5 Q 124.7 84.7, 126.0 84.7 Q 127.3 84.7, 128.0 85.5 Q 128.7 86.3, 128.7 87.7 Q 128.7 89.1, 128.0 90.0 Q 127.3 90.8, 126.0 90.8 Q 124.7 90.8, 124.0 90.0 Q 123.3 89.1, 123.3 87.7 M 126.0 90.1 Q 126.9 90.1, 127.4 89.5 Q 127.9 88.9, 127.9 87.7 Q 127.9 86.5, 127.4 85.9 Q 126.9 85.3, 126.0 85.3 Q 125.1 85.3, 124.6 85.9 Q 124.1 86.5, 124.1 87.7 Q 124.1 88.9, 124.6 89.5 Q 125.1 90.1, 126.0 90.1 " fill="#FF0000"/>
<path class="legend" d="M 103.4 190.0 L 102.2 186.7 L 97.8 186.7 L 96.6 190.0 L 95.1 190.0 L 99.0 178.7 L 100.9 178.7 L 104.9 190.0 L 103.4 190.0 M 98.2 185.4 L 101.8 185.4 L 100.0 180.3 L 98.2 185.4 " fill="#000000"/>
<path class="bond-0 atom-0 atom-1" d="M 259.5,94.7 L 277.7,84.2" style="fill:none;fill-rule:evenodd;stroke:#000000;stroke-width:2.0px;stroke-linecap:butt;stroke-linejoin:miter;stroke-opacity:1"/>
<path class="bond-1 atom-1 atom-2" d="M 277.7,84.2 L 295.9,94.7" style="fill:none;fill-rule:evenodd;stroke:#000000;stroke-width:2.0px;stroke-linecap:butt;stroke-linejoin:miter;stroke-opacity:1"/>
<path class="bond-2 atom-2 atom-3" d="M 295.9,94.7 L 314.0,84.2" style="fill:none;fill-rule:evenodd;stroke:#000000;stroke-width:2.0px;stroke-linecap:butt;stroke-linejoin:miter;stroke-opacity:1"/>
<path class="bond-3 atom-3 atom-4" d="M 314.0,84.2 L 321.4,88.5" style="fill:none;fill-rule:evenodd;stroke:#000000;stroke-width:2.0px;stroke-linecap:butt;stroke-linejoin:miter;stroke-opacity:1"/>
<path class="bond-3 atom-3 atom-4" d="M 321.4,88.5 L 328.7,92.7" style="fill:none;fill-rule:evenodd;stroke:#FF0000;stroke-width:2.0px;stroke-linecap:butt;stroke-linejoin:miter;stroke-opacity:1"/>
<path d="M 276.8,84.7 L 277.7,84.2 L 278.6,84.7" style="fill:none;stroke:#000000;stroke-width:2.0px;stroke-linecap:butt;stroke-linejoin:miter;stroke-opacity:1;"/>
<path d="M 294.9,94.2 L 295.9,94.7 L 296.8,94.2" style="fill:none;stroke:#000000;stroke-width:2.0px;stroke-linecap:butt;stroke-linejoin:miter;stroke-opacity:1;"/>
<path d="M 313.1,84.7 L 314.0,84.2 L 314.4,84.4" style="fill:none;stroke:#000000;stroke-width:2.0px;stroke-linecap:butt;stroke-linejoin:miter;stroke-opacity:1;"/>
<path class="atom-4" d="M 329.4 94.7 Q 329.4 93.3, 330.1 92.5 Q 330.8 91.7, 332.2 91.7 Q 333.5 91.7, 334.2 92.5 Q 334.9 93.3, 334.9 94.7 Q 334.9 96.2, 334.2 97.0 Q 333.5 97.8, 332.2 97.8 Q 330.9 97.8, 330.1 97.0 Q 329.4 96.2, 329.4 94.7 M 332.2 97.1 Q 333.1 97.1, 333.6 96.5 Q 334.0 95.9, 334.0 94.7 Q 334.0 93.5, 333.6 93.0 Q 333.1 92.4, 332.2 92.4 Q 331.3 92.4, 330.8 92.9 Q 330.3 93.5, 330.3 94.7 Q 330.3 95.9, 330.8 96.5 Q 331.3 97.1, 332.2 97.1 " fill="#FF0000"/>
<path class="atom-4" d="M 335.8 91.8 L 336.6 91.8 L 336.6 94.3 L 339.7 94.3 L 339.7 91.8 L 340.5 91.8 L 340.5 97.7 L 339.7 97.7 L 339.7 95.0 L 336.6 95.0 L 336.6 97.7 L 335.8 97.7 L 335.8 91.8 " fill="#FF0000"/>
<path class="legend" d="M 301.7 184.0 Q 302.7 184.4, 303.3 185.0 Q 303.8 185.7, 303.8 186.7 Q 303.8 188.2, 302.8 189.1 Q 301.8 190.0, 300.0 190.0 L 296.2 190.0 L 296.2 178.7 L 299.5 178.7 Q 301.4 178.7, 302.4 179.5 Q 303.4 180.2, 303.4 181.7 Q 303.4 183.4, 301.7 184.0 M 297.7 180.0 L 297.7 183.5 L 299.5 183.5 Q 300.6 183.5, 301.2 183.1 Q 301.8 182.6, 301.8 181.7 Q 301.8 180.0, 299.5 180.0 L 297.7 180.0 M 300.0 188.7 Q 301.1 188.7, 301.7 188.2 Q 302.2 187.7, 302.2 186.7 Q 302.2 185.7, 301.6 185.3 Q 301.0 184.8, 299.7 184.8 L 297.7 184.8 L 297.7 188.7 L 300.0 188.7 " fill="#000000"/>
<path class="bond-0 atom-0 atom-1" d="M 535.4,130.7 L 532.0,122.4" style="fill:none;fill-rule:evenodd;stroke:#FF0000;stroke-width:2.0px;stroke-linecap:butt;stroke-linejoin:miter;stroke-opacity:1"/>
<path class="bond-0 atom-0 atom-1" d="M 532.0,122.4 L 528.6,114.2" style="fill:none;fill-rule:evenodd;stroke:#000000;stroke-width:2.0px;stroke-linecap:butt;stroke-linejoin:miter;stroke-opacity:1"/>
<path class="bond-0 atom-0 atom-1" d="M 538.3,129.5 L 534.9,121.3" style="fill:none;fill-rule:evenodd;stroke:#FF0000;stroke-width:2.0px;stroke-linecap:butt;stroke-linejoin:miter;stroke-opacity:1"/>
<path class="bond-0 atom-0 atom-1" d="M 534.9,121.3 L 531.5,113.0" style="fill:none;fill-rule:evenodd;stroke:#000000;stroke-width:2.0px;stroke-linecap:butt;stroke-linejoin:miter;stroke-opacity:1"/>
<path class="bond-1 atom-1 atom-2" d="M 530.4,114.4 L 509.6,111.6" style="fill:none;fill-rule:evenodd;stroke:#000000;stroke-width:2.0px;stroke-linecap:butt;stroke-linejoin:miter;stroke-opacity:1"/>
<path class="bond-2 atom-2 atom-3" d="M 509.6,111.6 L 501.7,92.2" style="fill:none;fill-rule:evenodd;stroke:#000000;stroke-width:2.0px;stroke-linecap:butt;stroke-linejoin:miter;stroke-opacity:1"/>
<path class="bond-2 atom-2 atom-3" d="M 511.8,108.7 L 505.3,92.7" style="fill:none;fill-rule:evenodd;stroke:#000000;stroke-width:2.0px;stroke-linecap:butt;stroke-linejoin:miter;stroke-opacity:1"/>
<path class="bond-3 atom-3 atom-4" d="M 501.7,92.2 L 480.9,89.4" style="fill:none;fill-rule:evenodd;stroke:#000000;stroke-width:2.0px;stroke-linecap:butt;stroke-linejoin:miter;stroke-opacity:1"/>
<path class="bond-4 atom-4 atom-5" d="M 480.9,89.4 L 473.0,70.0" style="fill:none;fill-rule:evenodd;stroke:#000000;stroke-width:2.0px;stroke-linecap:butt;stroke-linejoin:miter;stroke-opacity:1"/>
<path class="bond-4 atom-4 atom-5" d="M 477.3,88.9 L 470.7,72.9" style="fill:none;fill-rule:evenodd;stroke:#000000;stroke-width:2.0px;stroke-linecap:butt;stroke-linejoin:miter;stroke-opacity:1"/>
<path class="bond-5 atom-5 atom-6" d="M 473.0,70.0 L 452.2,67.2" style="fill:none;fill-rule:evenodd;stroke:#000000;stroke-width:2.0px;stroke-linecap:butt;stroke-linejoin:miter;stroke-opacity:1"/>
<path class="bond-6 atom-6 atom-7" d="M 452.2,67.2 L 439.4,83.7" style="fill:none;fill-rule:evenodd;stroke:#000000;stroke-width:2.0px;stroke-linecap:butt;stroke-linejoin:miter;stroke-opacity:1"/>
<path class="bond-6 atom-6 atom-7" d="M 453.6,70.5 L 443.0,84.2" style="fill:none;fill-rule:evenodd;stroke:#000000;stroke-width:2.0px;stroke-linecap:butt;stroke-linejoin:miter;stroke-opacity:1"/>
<path class="bond-7 atom-7 atom-8" d="M 439.4,83.7 L 430.7,82.6" style="fill:none;fill-rule:evenodd;stroke:#000000;stroke-width:2.0px;stroke-linecap:butt;stroke-linejoin:miter;stroke-opacity:1"/>
<path class="bond-7 atom-7 atom-8" d="M 430.7,82.6 L 422.0,81.4" style="fill:none;fill-rule:evenodd;stroke:#FF0000;stroke-width:2.0px;stroke-linecap:butt;stroke-linejoin:miter;stroke-opacity:1"/>
<path class="bond-8 atom-7 atom-9" d="M 439.4,83.7 L 447.3,103.1" style="fill:none;fill-rule:evenodd;stroke:#000000;stroke-width:2.0px;stroke-linecap:butt;stroke-linejoin:miter;stroke-opacity:1"/>
<path class="bond-9 atom-9 atom-10" d="M 447.3,103.1 L 468.1,106.0" style="fill:none;fill-rule:evenodd;stroke:#000000;stroke-width:2.0px;stroke-linecap:butt;stroke-linejoin:miter;stroke-opacity:1"/>
<path class="bond-9 atom-9 atom-10" d="M 449.5,100.3 L 466.7,102.6" style="fill:none;fill-rule:evenodd;stroke:#000000;stroke-width:2.0px;stroke-linecap:butt;stroke-linejoin:miter;stroke-opacity:1"/>
<path class="bond-10 atom-3 atom-11" d="M 501.7,92.2 L 506.6,85.8" style="fill:none;fill-rule:evenodd;stroke:#000000;stroke-width:2.0px;stroke-linecap:butt;stroke-linejoin:miter;stroke-opacity:1"/>
<path class="bond-10 atom-3 atom-11" d="M 506.6,85.8 L 511.6,79.4" style="fill:none;fill-rule:evenodd;stroke:#FF0000;stroke-width:2.0px;stroke-linecap:butt;stroke-linejoin:miter;stroke-opacity:1"/>
<path class="bond-11 atom-11 atom-12" d="M 517.9,76.1 L 526.6,77.3" style="fill:none;fill-rule:evenodd;stroke:#FF0000;stroke-width:2.0px;stroke-linecap:butt;stroke-linejoin:miter;stroke-opacity:1"/>
<path class="bond-11 atom-11 atom-12" d="M 526.6,77.3 L 535.3,78.4" style="fill:none;fill-rule:evenodd;stroke:#000000;stroke-width:2.0px;stroke-linecap:butt;stroke-linejoin:miter;stroke-opacity:1"/>
<path class="bond-12 atom-12 atom-13" d="M 535.3,78.4 L 548.1,61.9" style="fill:none;fill-rule:evenodd;stroke:#000000;stroke-width:2.0px;stroke-linecap:butt;stroke-linejoin:miter;stroke-opacity:1"/>
<path class="bond-12 atom-12 atom-13" d="M 538.9,78.9 L 549.5,65.2" style="fill:none;fill-rule:evenodd;stroke:#000000;stroke-width:2.0px;stroke-linecap:butt;stroke-linejoin:miter;stroke-opacity:1"/>
<path class="bond-13 atom-13 atom-14" d="M 548.1,61.9 L 568.9,64.7" style="fill:none;fill-rule:evenodd;stroke:#000000;stroke-width:2.0px;stroke-linecap:butt;stroke-linejoin:miter;stroke-opacity:1"/>
<path class="bond-14 atom-14 atom-15" d="M 568.9,64.7 L 573.8,58.3" style="fill:none;fill-rule:evenodd;stroke:#000000;stroke-width:2.0px;stroke-linecap:butt;stroke-linejoin:miter;stroke-opacity:1"/>
<path class="bond-14 atom-14 atom-15" d="M 573.8,58.3 L 578.8,51.9" style="fill:none;fill-rule:evenodd;stroke:#FF0000;stroke-width:2.0px;stroke-linecap:butt;stroke-linejoin:miter;stroke-opacity:1"/>
<path class="bond-15 atom-14 atom-16" d="M 568.9,64.7 L 576.8,84.1" style="fill:none;fill-rule:evenodd;stroke:#000000;stroke-width:2.0px;stroke-linecap:butt;stroke-linejoin:miter;stroke-opacity:1"/>
<path class="bond-15 atom-14 atom-16" d="M 566.7,67.5 L 573.2,83.6" style="fill:none;fill-rule:evenodd;stroke:#000000;stroke-width:2.0px;stroke-linecap:butt;stroke-linejoin:miter;stroke-opacity:1"/>
<path class="bond-16 atom-16 atom-17" d="M 576.8,84.1 L 564.0,100.7" style="fill:none;fill-rule:evenodd;stroke:#000000;stroke-width:2.0px;stroke-linecap:butt;stroke-linejoin:miter;stroke-opacity:1"/>
<path class="bond-17 atom-17 atom-18" d="M 564.0,100.7 L 567.2,108.5" style="fill:none;fill-rule:evenodd;stroke:#000000;stroke-width:2.0px;stroke-linecap:butt;stroke-linejoin:miter;stroke-opacity:1"/>
<path class="bond-17 atom-17 atom-18" d="M 567.2,108.5 L 570.4,116.4" style="fill:none;fill-rule:evenodd;stroke:#FF0000;stroke-width:2.0px;stroke-linecap:butt;stroke-linejoin:miter;stroke-opacity:1"/>
<path class="bond-18 atom-17 atom-19" d="M 564.0,100.7 L 543.2,97.8" style="fill:none;fill-rule:evenodd;stroke:#000000;stroke-width:2.0px;stroke-linecap:butt;stroke-linejoin:miter;stroke-opacity:1"/>
<path class="bond-18 atom-17 atom-19" d="M 562.6,97.3 L 545.4,95.0" style="fill:none;fill-rule:evenodd;stroke:#000000;stroke-width:2.0px;stroke-linecap:butt;stroke-linejoin:miter;stroke-opacity:1"/>
<path class="bond-19 atom-19 atom-1" d="M 543.2,97.8 L 530.4,114.4" style="fill:none;fill-rule:evenodd;stroke:#000000;stroke-width:2.0px;stroke-linecap:butt;stroke-linejoin:miter;stroke-opacity:1"/>
<path class="bond-20 atom-10 atom-4" d="M 468.1,106.0 L 480.9,89.4" style="fill:none;fill-rule:evenodd;stroke:#000000;stroke-width:2.0px;stroke-linecap:butt;stroke-linejoin:miter;stroke-opacity:1"/>
<path class="bond-21 atom-19 atom-12" d="M 543.2,97.8 L 535.3,78.4" style="fill:none;fill-rule:evenodd;stroke:#000000;stroke-width:2.0px;stroke-linecap:butt;stroke-linejoin:miter;stroke-opacity:1"/>
<path d="M 529.4,114.3 L 530.4,114.4 L 531.0,113.6" style="fill:none;stroke:#000000;stroke-width:2.0px;stroke-linecap:butt;stroke-linejoin:miter;stroke-opacity:1;"/>
<path d="M 510.7,111.7 L 509.6,111.6 L 509.2,110.6" style="fill:none;stroke:#000000;stroke-width:2.0px;stroke-linecap:butt;stroke-linejoin:miter;stroke-opacity:1;"/>
<path d="M 473.4,70.9 L 473.0,70.0 L 471.9,69.8" style="fill:none;stroke:#000000;stroke-width:2.0px;stroke-linecap:butt;stroke-linejoin:miter;stroke-opacity:1;"/>
<path d="M 453.2,67.3 L 452.2,67.2 L 451.5,68.0" style="fill:none;stroke:#000000;stroke-width:2.0px;stroke-linecap:butt;stroke-linejoin:miter;stroke-opacity:1;"/>
<path d="M 446.9,102.2 L 447.3,103.1 L 448.3,103.3" style="fill:none;stroke:#000000;stroke-width:2.0px;stroke-linecap:butt;stroke-linejoin:miter;stroke-opacity:1;"/>
<path d="M 467.0,105.8 L 468.1,106.0 L 468.7,105.1" style="fill:none;stroke:#000000;stroke-width:2.0px;stroke-linecap:butt;stroke-linejoin:miter;stroke-opacity:1;"/>
<path d="M 547.5,62.7 L 548.1,61.9 L 549.1,62.0" style="fill:none;stroke:#000000;stroke-width:2.0px;stroke-linecap:butt;stroke-linejoin:miter;stroke-opacity:1;"/>
<path d="M 576.4,83.1 L 576.8,84.1 L 576.2,84.9" style="fill:none;stroke:#000000;stroke-width:2.0px;stroke-linecap:butt;stroke-linejoin:miter;stroke-opacity:1;"/>
<path class="atom-0" d="M 535.6 133.8 Q 535.6 132.4, 536.3 131.6 Q 537.0 130.8, 538.3 130.8 Q 539.7 130.8, 540.4 131.6 Q 541.1 132.4, 541.1 133.8 Q 541.1 135.3, 540.4 136.1 Q 539.6 136.9, 538.3 136.9 Q 537.0 136.9, 536.3 136.1 Q 535.6 135.3, 535.6 133.8 M 538.3 136.2 Q 539.2 136.2, 539.7 135.6 Q 540.2 135.0, 540.2 133.8 Q 540.2 132.7, 539.7 132.1 Q 539.2 131.5, 538.3 131.5 Q 537.4 131.5, 536.9 132.1 Q 536.5 132.7, 536.5 133.8 Q 536.5 135.0, 536.9 135.6 Q 537.4 136.2, 538.3 136.2 " fill="#FF0000"/>
<path class="atom-8" d="M 410.0 78.0 L 410.8 78.0 L 410.8 80.5 L 413.8 80.5 L 413.8 78.0 L 414.6 78.0 L 414.6 83.9 L 413.8 83.9 L 413.8 81.2 L 410.8 81.2 L 410.8 83.9 L 410.0 83.9 L 410.0 78.0 " fill="#FF0000"/>
<path class="atom-8" d="M 415.9 80.9 Q 415.9 79.5, 416.6 78.7 Q 417.3 77.9, 418.6 77.9 Q 419.9 77.9, 420.6 78.7 Q 421.3 79.5, 421.3 80.9 Q 421.3 82.4, 420.6 83.2 Q 419.9 84.0, 418.6 84.0 Q 417.3 84.0, 416.6 83.2 Q 415.9 82.4, 415.9 80.9 M 418.6 83.3 Q 419.5 83.3, 420.0 82.7 Q 420.5 82.1, 420.5 80.9 Q 420.5 79.8, 420.0 79.2 Q 419.5 78.6, 418.6 78.6 Q 417.7 78.6, 417.2 79.2 Q 416.7 79.8, 416.7 80.9 Q 416.7 82.1, 417.2 82.7 Q 417.7 83.3, 418.6 83.3 " fill="#FF0000"/>
<path class="atom-11" d="M 511.8 75.6 Q 511.8 74.2, 512.5 73.4 Q 513.2 72.6, 514.5 72.6 Q 515.8 72.6, 516.5 73.4 Q 517.2 74.2, 517.2 75.6 Q 517.2 77.1, 516.5 77.9 Q 515.8 78.7, 514.5 78.7 Q 513.2 78.7, 512.5 77.9 Q 511.8 77.1, 511.8 75.6 M 514.5 78.0 Q 515.4 78.0, 515.9 77.4 Q 516.4 76.8, 516.4 75.6 Q 516.4 74.5, 515.9 73.9 Q 515.4 73.3, 514.5 73.3 Q 513.6 73.3, 513.1 73.9 Q 512.6 74.5, 512.6 75.6 Q 512.6 76.8, 513.1 77.4 Q 513.6 78.0, 514.5 78.0 " fill="#FF0000"/>
<path class="atom-15" d="M 579.0 48.1 Q 579.0 46.7, 579.7 45.9 Q 580.4 45.1, 581.7 45.1 Q 583.0 45.1, 583.7 45.9 Q 584.4 46.7, 584.4 48.1 Q 584.4 49.6, 583.7 50.4 Q 583.0 51.2, 581.7 51.2 Q 580.4 51.2, 579.7 50.4 Q 579.0 49.6, 579.0 48.1 M 581.7 50.5 Q 582.6 50.5, 583.1 49.9 Q 583.6 49.3, 583.6 48.1 Q 583.6 46.9, 583.1 46.4 Q 582.6 45.8, 581.7 45.8 Q 580.8 45.8, 580.3 46.3 Q 579.8 46.9, 579.8 48.1 Q 579.8 49.3, 580.3 49.9 Q 580.8 50.5, 581.7 50.5 " fill="#FF0000"/>
<path class="atom-15" d="M 585.4 45.2 L 586.2 45.2 L 586.2 47.7 L 589.2 47.7 L 589.2 45.2 L 590.0 45.2 L 590.0 51.1 L 589.2 51.1 L 589.2 48.4 L 586.2 48.4 L 586.2 51.1 L 585.4 51.1 L 585.4 45.2 " fill="#FF0000"/>
<path class="atom-18" d="M 569.2 120.1 Q 569.2 118.6, 569.9 117.8 Q 570.6 117.1, 571.9 117.1 Q 573.3 117.1, 574.0 117.8 Q 574.7 118.6, 574.7 120.1 Q 574.7 121.5, 574.0 122.3 Q 573.2 123.1, 571.9 123.1 Q 570.6 123.1, 569.9 122.3 Q 569.2 121.5, 569.2 120.1 M 571.9 122.5 Q 572.8 122.5, 573.3 121.9 Q 573.8 121.3, 573.8 120.1 Q 573.8 118.9, 573.3 118.3 Q 572.8 117.7, 571.9 117.7 Q 571.0 117.7, 570.5 118.3 Q 570.1 118.9, 570.1 120.1 Q 570.1 121.3, 570.5 121.9 Q 571.0 122.5, 571.9 122.5 " fill="#FF0000"/>
<path class="atom-18" d="M 575.6 117.1 L 576.4 117.1 L 576.4 119.6 L 579.4 119.6 L 579.4 117.1 L 580.2 117.1 L 580.2 123.1 L 579.4 123.1 L 579.4 120.3 L 576.4 120.3 L 576.4 123.1 L 575.6 123.1 L 575.6 117.1 " fill="#FF0000"/>
<path class="legend" d="M 495.6 184.2 Q 495.6 181.4, 496.9 179.9 Q 498.3 178.4, 500.8 178.4 Q 503.1 178.4, 504.4 180.0 L 503.3 180.9 Q 502.4 179.7, 500.8 179.7 Q 499.1 179.7, 498.2 180.9 Q 497.3 182.0, 497.3 184.2 Q 497.3 186.4, 498.2 187.6 Q 499.1 188.7, 501.0 188.7 Q 502.2 188.7, 503.7 188.0 L 504.1 189.2 Q 503.5 189.6, 502.6 189.8 Q 501.7 190.0, 500.7 190.0 Q 498.3 190.0, 496.9 188.5 Q 495.6 187.0, 495.6 184.2 " fill="#000000"/>
<path class="bond-0 atom-0 atom-1" d="M 663.7,96.2 L 681.8,85.8" style="fill:none;fill-rule:evenodd;stroke:#000000;stroke-width:2.0px;stroke-linecap:butt;stroke-linejoin:miter;stroke-opacity:1"/>
<path class="bond-1 atom-1 atom-2" d="M 681.8,85.8 L 700.0,96.2" style="fill:none;fill-rule:evenodd;stroke:#000000;stroke-width:2.0px;stroke-linecap:butt;stroke-linejoin:miter;stroke-opacity:1"/>
<path class="bond-2 atom-2 atom-3" d="M 700.0,96.2 L 718.2,85.8" style="fill:none;fill-rule:evenodd;stroke:#000000;stroke-width:2.0px;stroke-linecap:butt;stroke-linejoin:miter;stroke-opacity:1"/>
<path class="bond-3 atom-3 atom-4" d="M 718.2,85.8 L 736.3,96.2" style="fill:none;fill-rule:evenodd;stroke:#000000;stroke-width:2.0px;stroke-linecap:butt;stroke-linejoin:miter;stroke-opacity:1"/>
<path d="M 680.9,86.3 L 681.8,85.8 L 682.8,86.3" style="fill:none;stroke:#000000;stroke-width:2.0px;stroke-linecap:butt;stroke-linejoin:miter;stroke-opacity:1;"/>
<path d="M 699.1,95.7 L 700.0,96.2 L 700.9,95.7" style="fill:none;stroke:#000000;stroke-width:2.0px;stroke-linecap:butt;stroke-linejoin:miter;stroke-opacity:1;"/>
<path d="M 717.2,86.3 L 718.2,85.8 L 719.1,86.3" style="fill:none;stroke:#000000;stroke-width:2.0px;stroke-linecap:butt;stroke-linejoin:miter;stroke-opacity:1;"/>
<path class="legend" d="M 699.2 178.7 Q 701.7 178.7, 703.1 180.2 Q 704.4 181.6, 704.4 184.3 Q 704.4 187.0, 703.1 188.5 Q 701.7 190.0, 699.2 190.0 L 695.6 190.0 L 695.6 178.7 L 699.2 178.7 M 699.2 188.7 Q 701.0 188.7, 701.9 187.6 Q 702.8 186.5, 702.8 184.3 Q 702.8 182.1, 701.9 181.0 Q 701.0 180.0, 699.2 180.0 L 697.1 180.0 L 697.1 188.7 L 699.2 188.7 " fill="#000000"/>
<path class="bond-0 atom-0 atom-1" d="M 36.7,303.5 L 56.6,296.9" style="fill:none;fill-rule:evenodd;stroke:#000000;stroke-width:2.0px;stroke-linecap:butt;stroke-linejoin:miter;stroke-opacity:1"/>
<path class="bond-1 atom-1 atom-2" d="M 56.6,296.9 L 62.7,302.3" style="fill:none;fill-rule:evenodd;stroke:#000000;stroke-width:2.0px;stroke-linecap:butt;stroke-linejoin:miter;stroke-opacity:1"/>
<path class="bond-1 atom-1 atom-2" d="M 62.7,302.3 L 68.9,307.8" style="fill:none;fill-rule:evenodd;stroke:#FF0000;stroke-width:2.0px;stroke-linecap:butt;stroke-linejoin:miter;stroke-opacity:1"/>
<path class="bond-2 atom-2 atom-3" d="M 75.7,309.7 L 83.9,306.9" style="fill:none;fill-rule:evenodd;stroke:#FF0000;stroke-width:2.0px;stroke-linecap:butt;stroke-linejoin:miter;stroke-opacity:1"/>
<path class="bond-2 atom-2 atom-3" d="M 83.9,306.9 L 92.2,304.2" style="fill:none;fill-rule:evenodd;stroke:#000000;stroke-width:2.0px;stroke-linecap:butt;stroke-linejoin:miter;stroke-opacity:1"/>
<path class="bond-3 atom-3 atom-4" d="M 92.2,304.2 L 107.8,318.1" style="fill:none;fill-rule:evenodd;stroke:#000000;stroke-width:2.0px;stroke-linecap:butt;stroke-linejoin:miter;stroke-opacity:1"/>
<path class="bond-4 atom-4 atom-5" d="M 107.8,318.1 L 127.7,311.5" style="fill:none;fill-rule:evenodd;stroke:#000000;stroke-width:2.0px;stroke-linecap:butt;stroke-linejoin:miter;stroke-opacity:1"/>
<path class="bond-5 atom-5 atom-6" d="M 127.7,311.5 L 143.4,325.5" style="fill:none;fill-rule:evenodd;stroke:#000000;stroke-width:2.0px;stroke-linecap:butt;stroke-linejoin:miter;stroke-opacity:1"/>
<path class="bond-6 atom-6 atom-7" d="M 143.4,325.5 L 163.3,318.9" style="fill:none;fill-rule:evenodd;stroke:#000000;stroke-width:2.0px;stroke-linecap:butt;stroke-linejoin:miter;stroke-opacity:1"/>
<path class="bond-7 atom-5 atom-8" d="M 127.7,311.5 L 132.0,291.0" style="fill:none;fill-rule:evenodd;stroke:#000000;stroke-width:2.0px;stroke-linecap:butt;stroke-linejoin:miter;stroke-opacity:1"/>
<path class="bond-8 atom-8 atom-9" d="M 132.0,291.0 L 151.9,284.4" style="fill:none;fill-rule:evenodd;stroke:#000000;stroke-width:2.0px;stroke-linecap:butt;stroke-linejoin:miter;stroke-opacity:1"/>
<path class="bond-9 atom-8 atom-10" d="M 132.0,291.0 L 116.3,277.1" style="fill:none;fill-rule:evenodd;stroke:#000000;stroke-width:2.0px;stroke-linecap:butt;stroke-linejoin:miter;stroke-opacity:1"/>
<path class="bond-10 atom-10 atom-11" d="M 116.3,277.1 L 120.5,256.5" style="fill:none;fill-rule:evenodd;stroke:#000000;stroke-width:2.0px;stroke-linecap:butt;stroke-linejoin:miter;stroke-opacity:1"/>
<path d="M 55.6,297.2 L 56.6,296.9 L 56.9,297.1" style="fill:none;stroke:#000000;stroke-width:2.0px;stroke-linecap:butt;stroke-linejoin:miter;stroke-opacity:1;"/>
<path d="M 91.8,304.3 L 92.2,304.2 L 93.0,304.9" style="fill:none;stroke:#000000;stroke-width:2.0px;stroke-linecap:butt;stroke-linejoin:miter;stroke-opacity:1;"/>
<path d="M 107.0,317.4 L 107.8,318.1 L 108.8,317.8" style="fill:none;stroke:#000000;stroke-width:2.0px;stroke-linecap:butt;stroke-linejoin:miter;stroke-opacity:1;"/>
<path d="M 142.6,324.8 L 143.4,325.5 L 144.4,325.1" style="fill:none;stroke:#000000;stroke-width:2.0px;stroke-linecap:butt;stroke-linejoin:miter;stroke-opacity:1;"/>
<path d="M 117.1,277.8 L 116.3,277.1 L 116.5,276.0" style="fill:none;stroke:#000000;stroke-width:2.0px;stroke-linecap:butt;stroke-linejoin:miter;stroke-opacity:1;"/>
<path class="atom-2" d="M 69.5 310.8 Q 69.5 309.4, 70.3 308.6 Q 71.0 307.8, 72.3 307.8 Q 73.6 307.8, 74.3 308.6 Q 75.0 309.4, 75.0 310.8 Q 75.0 312.3, 74.3 313.1 Q 73.6 313.9, 72.3 313.9 Q 71.0 313.9, 70.3 313.1 Q 69.5 312.3, 69.5 310.8 M 72.3 313.2 Q 73.2 313.2, 73.7 312.6 Q 74.2 312.0, 74.2 310.8 Q 74.2 309.6, 73.7 309.1 Q 73.2 308.5, 72.3 308.5 Q 71.4 308.5, 70.9 309.0 Q 70.4 309.6, 70.4 310.8 Q 70.4 312.0, 70.9 312.6 Q 71.4 313.2, 72.3 313.2 " fill="#FF0000"/>
<path class="legend" d="M 96.5 378.7 L 103.3 378.7 L 103.3 380.0 L 98.1 380.0 L 98.1 383.4 L 102.8 383.4 L 102.8 384.7 L 98.1 384.7 L 98.1 388.7 L 103.5 388.7 L 103.5 390.0 L 96.5 390.0 L 96.5 378.7 " fill="#000000"/>
<path class="bond-0 atom-0 atom-1" d="M 263.7,296.2 L 281.8,285.8" style="fill:none;fill-rule:evenodd;stroke:#000000;stroke-width:2.0px;stroke-linecap:butt;stroke-linejoin:miter;stroke-opacity:1"/>
<path class="bond-1 atom-1 atom-2" d="M 281.8,285.8 L 300.0,296.2" style="fill:none;fill-rule:evenodd;stroke:#000000;stroke-width:2.0px;stroke-linecap:butt;stroke-linejoin:miter;stroke-opacity:1"/>
<path class="bond-2 atom-2 atom-3" d="M 300.0,296.2 L 318.2,285.8" style="fill:none;fill-rule:evenodd;stroke:#000000;stroke-width:2.0px;stroke-linecap:butt;stroke-linejoin:miter;stroke-opacity:1"/>
<path class="bond-3 atom-3 atom-4" d="M 318.2,285.8 L 336.3,296.2" style="fill:none;fill-rule:evenodd;stroke:#000000;stroke-width:2.0px;stroke-linecap:butt;stroke-linejoin:miter;stroke-opacity:1"/>
<path d="M 280.9,286.3 L 281.8,285.8 L 282.8,286.3" style="fill:none;stroke:#000000;stroke-width:2.0px;stroke-linecap:butt;stroke-linejoin:miter;stroke-opacity:1;"/>
<path d="M 299.1,295.7 L 300.0,296.2 L 300.9,295.7" style="fill:none;stroke:#000000;stroke-width:2.0px;stroke-linecap:butt;stroke-linejoin:miter;stroke-opacity:1;"/>
<path d="M 317.2,286.3 L 318.2,285.8 L 319.1,286.3" style="fill:none;stroke:#000000;stroke-width:2.0px;stroke-linecap:butt;stroke-linejoin:miter;stroke-opacity:1;"/>
<path class="legend" d="M 296.6 378.7 L 303.4 378.7 L 303.4 380.0 L 298.2 380.0 L 298.2 383.4 L 302.8 383.4 L 302.8 384.7 L 298.2 384.7 L 298.2 390.0 L 296.6 390.0 L 296.6 378.7 " fill="#000000"/>
</svg>