<svg xmlns="http://www.w3.org/2000/svg" xmlns:rdkit="http://www.rdkit.org/xml" xmlns:xlink="http://www.w3.org/1999/xlink" version="1.1" baseProfile="full" xml:space="preserve" width="800px" height="200px" viewBox="0 0 800 200">
<!-- END OF HEADER -->
<rect style="opacity:1.0;fill:#FFFFFF;stroke:none" width="800.0" height="200.0" x="0.0" y="0.0"> </rect>
<path class="bond-0 atom-0 atom-1" d="M 65.7,81.4 L 78.8,75.5" style="fill:none;fill-rule:evenodd;stroke:#000000;stroke-width:2.0px;stroke-linecap:butt;stroke-linejoin:miter;stroke-opacity:1"/>
<path class="bond-1 atom-1 atom-2" d="M 78.8,75.5 L 90.5,83.9" style="fill:none;fill-rule:evenodd;stroke:#000000;stroke-width:2.0px;stroke-linecap:butt;stroke-linejoin:miter;stroke-opacity:1"/>
<path class="bond-2 atom-2 atom-3" d="M 90.5,83.9 L 103.6,77.9" style="fill:none;fill-rule:evenodd;stroke:#000000;stroke-width:2.0px;stroke-linecap:butt;stroke-linejoin:miter;stroke-opacity:1"/>
<path class="bond-3 atom-3 atom-4" d="M 103.6,77.9 L 115.2,86.3" style="fill:none;fill-rule:evenodd;stroke:#000000;stroke-width:2.0px;stroke-linecap:butt;stroke-linejoin:miter;stroke-opacity:1"/>
<path class="bond-4 atom-4 atom-5" d="M 114.2,85.6 L 113.6,91.7" style="fill:none;fill-rule:evenodd;stroke:#000000;stroke-width:2.0px;stroke-linecap:butt;stroke-linejoin:miter;stroke-opacity:1"/>
<path class="bond-4 atom-4 atom-5" d="M 113.6,91.7 L 113.0,97.9" style="fill:none;fill-rule:evenodd;stroke:#FF0000;stroke-width:2.0px;stroke-linecap:butt;stroke-linejoin:miter;stroke-opacity:1"/>
<path class="bond-4 atom-4 atom-5" d="M 116.4,85.8 L 115.8,91.9" style="fill:none;fill-rule:evenodd;stroke:#000000;stroke-width:2.0px;stroke-linecap:butt;stroke-linejoin:miter;stroke-opacity:1"/>
<path class="bond-4 atom-4 atom-5" d="M 115.8,91.9 L 115.2,98.1" style="fill:none;fill-rule:evenodd;stroke:#FF0000;stroke-width:2.0px;stroke-linecap:butt;stroke-linejoin:miter;stroke-opacity:1"/>
<path class="bond-5 atom-4 atom-6" d="M 115.2,86.3 L 120.6,83.9" style="fill:none;fill-rule:evenodd;stroke:#000000;stroke-width:2.0px;stroke-linecap:butt;stroke-linejoin:miter;stroke-opacity:1"/>
<path class="bond-5 atom-4 atom-6" d="M 120.6,83.9 L 125.9,81.5" style="fill:none;fill-rule:evenodd;stroke:#FF0000;stroke-width:2.0px;stroke-linecap:butt;stroke-linejoin:miter;stroke-opacity:1"/>
<path class="bond-6 atom-2 atom-7" d="M 90.5,83.9 L 89.1,98.1" style="fill:none;fill-rule:evenodd;stroke:#000000;stroke-width:2.0px;stroke-linecap:butt;stroke-linejoin:miter;stroke-opacity:1"/>
<path class="bond-7 atom-7 atom-8" d="M 89.1,98.1 L 100.8,106.5" style="fill:none;fill-rule:evenodd;stroke:#000000;stroke-width:2.0px;stroke-linecap:butt;stroke-linejoin:miter;stroke-opacity:1"/>
<path class="bond-8 atom-7 atom-9" d="M 89.1,98.1 L 76.0,104.1" style="fill:none;fill-rule:evenodd;stroke:#000000;stroke-width:2.0px;stroke-linecap:butt;stroke-linejoin:miter;stroke-opacity:1"/>
<path d="M 78.2,75.8 L 78.8,75.5 L 79.4,75.9" style="fill:none;stroke:#000000;stroke-width:2.0px;stroke-linecap:butt;stroke-linejoin:miter;stroke-opacity:1;"/>
<path d="M 102.9,78.2 L 103.6,77.9 L 104.2,78.3" style="fill:none;stroke:#000000;stroke-width:2.0px;stroke-linecap:butt;stroke-linejoin:miter;stroke-opacity:1;"/>
<path d="M 114.7,85.9 L 115.2,86.3 L 115.5,86.2" style="fill:none;stroke:#000000;stroke-width:2.0px;stroke-linecap:butt;stroke-linejoin:miter;stroke-opacity:1;"/>
<path class="atom-5" d="M 111.9 100.6 Q 111.9 99.6, 112.4 99.0 Q 112.9 98.4, 113.8 98.4 Q 114.8 98.4, 115.3 99.0 Q 115.8 99.6, 115.8 100.6 Q 115.8 101.6, 115.3 102.2 Q 114.8 102.8, 113.8 102.8 Q 112.9 102.8, 112.4 102.2 Q 111.9 101.6, 111.9 100.6 M 113.8 102.3 Q 114.5 102.3, 114.8 101.9 Q 115.2 101.5, 115.2 100.6 Q 115.2 99.8, 114.8 99.4 Q 114.5 98.9, 113.8 98.9 Q 113.2 98.9, 112.8 99.3 Q 112.5 99.8, 112.5 100.6 Q 112.5 101.5, 112.8 101.9 Q 113.2 102.3, 113.8 102.3 " fill="#FF0000"/>
<path class="atom-6" d="M 126.4 80.4 Q 126.4 79.4, 126.9 78.8 Q 127.4 78.2, 128.3 78.2 Q 129.3 78.2, 129.8 78.8 Q 130.3 79.4, 130.3 80.4 Q 130.3 81.4, 129.8 82.0 Q 129.3 82.6, 128.3 82.6 Q 127.4 82.6, 126.9 82.0 Q 126.4 81.4, 126.4 80.4 M 128.3 82.1 Q 129.0 82.1, 129.3 81.7 Q 129.7 81.2, 129.7 80.4 Q 129.7 79.6, 129.3 79.1 Q 129.0 78.7, 128.3 78.7 Q 127.7 78.7, 127.3 79.1 Q 127.0 79.5, 127.0 80.4 Q 127.0 81.2, 127.3 81.7 Q 127.7 82.1, 128.3 82.1 " fill="#FF0000"/>
<path class="atom-6" d="M 130.9 78.3 L 131.5 78.3 L 131.5 80.1 L 133.7 80.1 L 133.7 78.3 L 134.3 78.3 L 134.3 82.5 L 133.7 82.5 L 133.7 80.6 L 131.5 80.6 L 131.5 82.5 L 130.9 82.5 L 130.9 78.3 " fill="#FF0000"/>
<path class="legend" d="M 103.4 190.0 L 102.2 186.7 L 97.8 186.7 L 96.6 190.0 L 95.1 190.0 L 99.0 178.7 L 100.9 178.7 L 104.9 190.0 L 103.4 190.0 M 98.2 185.4 L 101.8 185.4 L 100.0 180.3 L 98.2 185.4 " fill="#000000"/>
<path class="bond-0 atom-0 atom-1" d="M 273.7,65.3 L 272.5,71.3" style="fill:none;fill-rule:evenodd;stroke:#FF0000;stroke-width:2.0px;stroke-linecap:butt;stroke-linejoin:miter;stroke-opacity:1"/>
<path class="bond-0 atom-0 atom-1" d="M 272.5,71.3 L 271.3,77.3" style="fill:none;fill-rule:evenodd;stroke:#000000;stroke-width:2.0px;stroke-linecap:butt;stroke-linejoin:miter;stroke-opacity:1"/>
<path class="bond-0 atom-0 atom-1" d="M 271.6,64.8 L 270.3,70.8" style="fill:none;fill-rule:evenodd;stroke:#FF0000;stroke-width:2.0px;stroke-linecap:butt;stroke-linejoin:miter;stroke-opacity:1"/>
<path class="bond-0 atom-0 atom-1" d="M 270.3,70.8 L 269.1,76.8" style="fill:none;fill-rule:evenodd;stroke:#000000;stroke-width:2.0px;stroke-linecap:butt;stroke-linejoin:miter;stroke-opacity:1"/>
<path class="bond-1 atom-1 atom-2" d="M 270.3,76.4 L 274.5,80.1" style="fill:none;fill-rule:evenodd;stroke:#000000;stroke-width:2.0px;stroke-linecap:butt;stroke-linejoin:miter;stroke-opacity:1"/>
<path class="bond-1 atom-1 atom-2" d="M 274.5,80.1 L 278.7,83.8" style="fill:none;fill-rule:evenodd;stroke:#FF0000;stroke-width:2.0px;stroke-linecap:butt;stroke-linejoin:miter;stroke-opacity:1"/>
<path class="bond-2 atom-2 atom-3" d="M 283.5,85.1 L 289.1,83.2" style="fill:none;fill-rule:evenodd;stroke:#FF0000;stroke-width:2.0px;stroke-linecap:butt;stroke-linejoin:miter;stroke-opacity:1"/>
<path class="bond-2 atom-2 atom-3" d="M 289.1,83.2 L 294.7,81.3" style="fill:none;fill-rule:evenodd;stroke:#000000;stroke-width:2.0px;stroke-linecap:butt;stroke-linejoin:miter;stroke-opacity:1"/>
<path class="bond-3 atom-3 atom-4" d="M 294.7,81.3 L 305.5,90.8" style="fill:none;fill-rule:evenodd;stroke:#000000;stroke-width:2.0px;stroke-linecap:butt;stroke-linejoin:miter;stroke-opacity:1"/>
<path class="bond-4 atom-4 atom-5" d="M 305.5,90.8 L 311.1,88.9" style="fill:none;fill-rule:evenodd;stroke:#000000;stroke-width:2.0px;stroke-linecap:butt;stroke-linejoin:miter;stroke-opacity:1"/>
<path class="bond-4 atom-4 atom-5" d="M 311.1,88.9 L 316.7,87.0" style="fill:none;fill-rule:evenodd;stroke:#FF0000;stroke-width:2.0px;stroke-linecap:butt;stroke-linejoin:miter;stroke-opacity:1"/>
<path class="bond-5 atom-5 atom-6" d="M 321.5,88.4 L 325.7,92.0" style="fill:none;fill-rule:evenodd;stroke:#FF0000;stroke-width:2.0px;stroke-linecap:butt;stroke-linejoin:miter;stroke-opacity:1"/>
<path class="bond-5 atom-5 atom-6" d="M 325.7,92.0 L 329.9,95.7" style="fill:none;fill-rule:evenodd;stroke:#000000;stroke-width:2.0px;stroke-linecap:butt;stroke-linejoin:miter;stroke-opacity:1"/>
<path class="bond-6 atom-6 atom-7" d="M 329.0,94.9 L 327.7,100.9" style="fill:none;fill-rule:evenodd;stroke:#000000;stroke-width:2.0px;stroke-linecap:butt;stroke-linejoin:miter;stroke-opacity:1"/>
<path class="bond-6 atom-6 atom-7" d="M 327.7,100.9 L 326.5,107.0" style="fill:none;fill-rule:evenodd;stroke:#FF0000;stroke-width:2.0px;stroke-linecap:butt;stroke-linejoin:miter;stroke-opacity:1"/>
<path class="bond-6 atom-6 atom-7" d="M 331.1,95.3 L 329.9,101.3" style="fill:none;fill-rule:evenodd;stroke:#000000;stroke-width:2.0px;stroke-linecap:butt;stroke-linejoin:miter;stroke-opacity:1"/>
<path class="bond-6 atom-6 atom-7" d="M 329.9,101.3 L 328.6,107.4" style="fill:none;fill-rule:evenodd;stroke:#FF0000;stroke-width:2.0px;stroke-linecap:butt;stroke-linejoin:miter;stroke-opacity:1"/>
<path class="bond-7 atom-6 atom-8" d="M 329.9,95.7 L 343.5,91.1" style="fill:none;fill-rule:evenodd;stroke:#000000;stroke-width:2.0px;stroke-linecap:butt;stroke-linejoin:miter;stroke-opacity:1"/>
<path class="bond-8 atom-8 atom-9" d="M 343.5,91.1 L 354.3,100.6" style="fill:none;fill-rule:evenodd;stroke:#000000;stroke-width:2.0px;stroke-linecap:butt;stroke-linejoin:miter;stroke-opacity:1"/>
<path class="bond-8 atom-8 atom-9" d="M 345.9,90.3 L 354.8,98.2" style="fill:none;fill-rule:evenodd;stroke:#000000;stroke-width:2.0px;stroke-linecap:butt;stroke-linejoin:miter;stroke-opacity:1"/>
<path class="bond-9 atom-9 atom-10" d="M 354.3,100.6 L 367.9,96.0" style="fill:none;fill-rule:evenodd;stroke:#000000;stroke-width:2.0px;stroke-linecap:butt;stroke-linejoin:miter;stroke-opacity:1"/>
<path class="bond-10 atom-10 atom-11" d="M 367.9,96.0 L 372.1,99.7" style="fill:none;fill-rule:evenodd;stroke:#000000;stroke-width:2.0px;stroke-linecap:butt;stroke-linejoin:miter;stroke-opacity:1"/>
<path class="bond-10 atom-10 atom-11" d="M 372.1,99.7 L 376.2,103.4" style="fill:none;fill-rule:evenodd;stroke:#FF0000;stroke-width:2.0px;stroke-linecap:butt;stroke-linejoin:miter;stroke-opacity:1"/>
<path class="bond-11 atom-10 atom-12" d="M 367.9,96.0 L 370.7,81.9" style="fill:none;fill-rule:evenodd;stroke:#000000;stroke-width:2.0px;stroke-linecap:butt;stroke-linejoin:miter;stroke-opacity:1"/>
<path class="bond-11 atom-10 atom-12" d="M 366.0,94.4 L 368.4,82.7" style="fill:none;fill-rule:evenodd;stroke:#000000;stroke-width:2.0px;stroke-linecap:butt;stroke-linejoin:miter;stroke-opacity:1"/>
<path class="bond-12 atom-12 atom-13" d="M 370.7,81.9 L 376.3,80.0" style="fill:none;fill-rule:evenodd;stroke:#000000;stroke-width:2.0px;stroke-linecap:butt;stroke-linejoin:miter;stroke-opacity:1"/>
<path class="bond-12 atom-12 atom-13" d="M 376.3,80.0 L 381.9,78.1" style="fill:none;fill-rule:evenodd;stroke:#FF0000;stroke-width:2.0px;stroke-linecap:butt;stroke-linejoin:miter;stroke-opacity:1"/>
<path class="bond-13 atom-12 atom-14" d="M 370.7,81.9 L 359.9,72.4" style="fill:none;fill-rule:evenodd;stroke:#000000;stroke-width:2.0px;stroke-linecap:butt;stroke-linejoin:miter;stroke-opacity:1"/>
<path class="bond-14 atom-14 atom-15" d="M 359.9,72.4 L 361.1,66.7" style="fill:none;fill-rule:evenodd;stroke:#000000;stroke-width:2.0px;stroke-linecap:butt;stroke-linejoin:miter;stroke-opacity:1"/>
<path class="bond-14 atom-14 atom-15" d="M 361.1,66.7 L 362.2,61.0" style="fill:none;fill-rule:evenodd;stroke:#FF0000;stroke-width:2.0px;stroke-linecap:butt;stroke-linejoin:miter;stroke-opacity:1"/>
<path class="bond-15 atom-14 atom-16" d="M 359.9,72.4 L 346.3,77.0" style="fill:none;fill-rule:evenodd;stroke:#000000;stroke-width:2.0px;stroke-linecap:butt;stroke-linejoin:miter;stroke-opacity:1"/>
<path class="bond-15 atom-14 atom-16" d="M 359.4,74.9 L 348.2,78.7" style="fill:none;fill-rule:evenodd;stroke:#000000;stroke-width:2.0px;stroke-linecap:butt;stroke-linejoin:miter;stroke-opacity:1"/>
<path class="bond-16 atom-4 atom-17" d="M 305.5,90.8 L 302.7,104.9" style="fill:none;fill-rule:evenodd;stroke:#000000;stroke-width:2.0px;stroke-linecap:butt;stroke-linejoin:miter;stroke-opacity:1"/>
<path class="bond-17 atom-17 atom-18" d="M 302.7,104.9 L 306.9,108.6" style="fill:none;fill-rule:evenodd;stroke:#000000;stroke-width:2.0px;stroke-linecap:butt;stroke-linejoin:miter;stroke-opacity:1"/>
<path class="bond-17 atom-17 atom-18" d="M 306.9,108.6 L 311.0,112.3" style="fill:none;fill-rule:evenodd;stroke:#FF0000;stroke-width:2.0px;stroke-linecap:butt;stroke-linejoin:miter;stroke-opacity:1"/>
<path class="bond-18 atom-17 atom-19" d="M 302.7,104.9 L 289.1,109.5" style="fill:none;fill-rule:evenodd;stroke:#000000;stroke-width:2.0px;stroke-linecap:butt;stroke-linejoin:miter;stroke-opacity:1"/>
<path class="bond-19 atom-19 atom-20" d="M 289.1,109.5 L 287.9,115.2" style="fill:none;fill-rule:evenodd;stroke:#000000;stroke-width:2.0px;stroke-linecap:butt;stroke-linejoin:miter;stroke-opacity:1"/>
<path class="bond-19 atom-19 atom-20" d="M 287.9,115.2 L 286.8,121.0" style="fill:none;fill-rule:evenodd;stroke:#FF0000;stroke-width:2.0px;stroke-linecap:butt;stroke-linejoin:miter;stroke-opacity:1"/>
<path class="bond-20 atom-1 atom-21" d="M 270.3,76.4 L 256.7,81.0" style="fill:none;fill-rule:evenodd;stroke:#000000;stroke-width:2.0px;stroke-linecap:butt;stroke-linejoin:miter;stroke-opacity:1"/>
<path class="bond-21 atom-21 atom-22" d="M 256.7,81.0 L 245.9,71.5" style="fill:none;fill-rule:evenodd;stroke:#000000;stroke-width:2.0px;stroke-linecap:butt;stroke-linejoin:miter;stroke-opacity:1"/>
<path class="bond-21 atom-21 atom-22" d="M 254.4,81.8 L 245.4,74.0" style="fill:none;fill-rule:evenodd;stroke:#000000;stroke-width:2.0px;stroke-linecap:butt;stroke-linejoin:miter;stroke-opacity:1"/>
<path class="bond-22 atom-22 atom-23" d="M 245.9,71.5 L 232.3,76.1" style="fill:none;fill-rule:evenodd;stroke:#000000;stroke-width:2.0px;stroke-linecap:butt;stroke-linejoin:miter;stroke-opacity:1"/>
<path class="bond-23 atom-23 atom-24" d="M 232.3,76.1 L 228.1,72.5" style="fill:none;fill-rule:evenodd;stroke:#000000;stroke-width:2.0px;stroke-linecap:butt;stroke-linejoin:miter;stroke-opacity:1"/>
<path class="bond-23 atom-23 atom-24" d="M 228.1,72.5 L 224.0,68.8" style="fill:none;fill-rule:evenodd;stroke:#FF0000;stroke-width:2.0px;stroke-linecap:butt;stroke-linejoin:miter;stroke-opacity:1"/>
<path class="bond-24 atom-23 atom-25" d="M 232.3,76.1 L 229.5,90.2" style="fill:none;fill-rule:evenodd;stroke:#000000;stroke-width:2.0px;stroke-linecap:butt;stroke-linejoin:miter;stroke-opacity:1"/>
<path class="bond-24 atom-23 atom-25" d="M 234.2,77.8 L 231.9,89.4" style="fill:none;fill-rule:evenodd;stroke:#000000;stroke-width:2.0px;stroke-linecap:butt;stroke-linejoin:miter;stroke-opacity:1"/>
<path class="bond-25 atom-25 atom-26" d="M 229.5,90.2 L 223.9,92.1" style="fill:none;fill-rule:evenodd;stroke:#000000;stroke-width:2.0px;stroke-linecap:butt;stroke-linejoin:miter;stroke-opacity:1"/>
<path class="bond-25 atom-25 atom-26" d="M 223.9,92.1 L 218.3,94.0" style="fill:none;fill-rule:evenodd;stroke:#FF0000;stroke-width:2.0px;stroke-linecap:butt;stroke-linejoin:miter;stroke-opacity:1"/>
<path class="bond-26 atom-25 atom-27" d="M 229.5,90.2 L 240.3,99.7" style="fill:none;fill-rule:evenodd;stroke:#000000;stroke-width:2.0px;stroke-linecap:butt;stroke-linejoin:miter;stroke-opacity:1"/>
<path class="bond-27 atom-27 atom-28" d="M 240.3,99.7 L 239.1,105.4" style="fill:none;fill-rule:evenodd;stroke:#000000;stroke-width:2.0px;stroke-linecap:butt;stroke-linejoin:miter;stroke-opacity:1"/>
<path class="bond-27 atom-27 atom-28" d="M 239.1,105.4 L 238.0,111.2" style="fill:none;fill-rule:evenodd;stroke:#FF0000;stroke-width:2.0px;stroke-linecap:butt;stroke-linejoin:miter;stroke-opacity:1"/>
<path class="bond-28 atom-27 atom-29" d="M 240.3,99.7 L 253.9,95.1" style="fill:none;fill-rule:evenodd;stroke:#000000;stroke-width:2.0px;stroke-linecap:butt;stroke-linejoin:miter;stroke-opacity:1"/>
<path class="bond-28 atom-27 atom-29" d="M 240.8,97.3 L 252.0,93.5" style="fill:none;fill-rule:evenodd;stroke:#000000;stroke-width:2.0px;stroke-linecap:butt;stroke-linejoin:miter;stroke-opacity:1"/>
<path class="bond-29 atom-16 atom-8" d="M 346.3,77.0 L 343.5,91.1" style="fill:none;fill-rule:evenodd;stroke:#000000;stroke-width:2.0px;stroke-linecap:butt;stroke-linejoin:miter;stroke-opacity:1"/>
<path class="bond-30 atom-29 atom-21" d="M 253.9,95.1 L 256.7,81.0" style="fill:none;fill-rule:evenodd;stroke:#000000;stroke-width:2.0px;stroke-linecap:butt;stroke-linejoin:miter;stroke-opacity:1"/>
<path d="M 270.5,76.6 L 270.3,76.4 L 269.6,76.7" style="fill:none;stroke:#000000;stroke-width:2.0px;stroke-linecap:butt;stroke-linejoin:miter;stroke-opacity:1;"/>
<path d="M 294.4,81.4 L 294.7,81.3 L 295.3,81.8" style="fill:none;stroke:#000000;stroke-width:2.0px;stroke-linecap:butt;stroke-linejoin:miter;stroke-opacity:1;"/>
<path d="M 329.7,95.5 L 329.9,95.7 L 330.6,95.5" style="fill:none;stroke:#000000;stroke-width:2.0px;stroke-linecap:butt;stroke-linejoin:miter;stroke-opacity:1;"/>
<path d="M 353.7,100.1 L 354.3,100.6 L 355.0,100.4" style="fill:none;stroke:#000000;stroke-width:2.0px;stroke-linecap:butt;stroke-linejoin:miter;stroke-opacity:1;"/>
<path d="M 347.0,76.8 L 346.3,77.0 L 346.2,77.7" style="fill:none;stroke:#000000;stroke-width:2.0px;stroke-linecap:butt;stroke-linejoin:miter;stroke-opacity:1;"/>
<path d="M 289.7,109.3 L 289.1,109.5 L 289.0,109.8" style="fill:none;stroke:#000000;stroke-width:2.0px;stroke-linecap:butt;stroke-linejoin:miter;stroke-opacity:1;"/>
<path d="M 246.5,72.0 L 245.9,71.5 L 245.2,71.8" style="fill:none;stroke:#000000;stroke-width:2.0px;stroke-linecap:butt;stroke-linejoin:miter;stroke-opacity:1;"/>
<path d="M 253.2,95.3 L 253.9,95.1 L 254.0,94.4" style="fill:none;stroke:#000000;stroke-width:2.0px;stroke-linecap:butt;stroke-linejoin:miter;stroke-opacity:1;"/>
<path class="atom-0" d="M 271.2 62.4 Q 271.2 61.3, 271.7 60.8 Q 272.2 60.2, 273.1 60.2 Q 274.1 60.2, 274.6 60.8 Q 275.1 61.3, 275.1 62.4 Q 275.1 63.4, 274.6 64.0 Q 274.1 64.6, 273.1 64.6 Q 272.2 64.6, 271.7 64.0 Q 271.2 63.4, 271.2 62.4 M 273.1 64.1 Q 273.8 64.1, 274.1 63.7 Q 274.5 63.2, 274.5 62.4 Q 274.5 61.5, 274.1 61.1 Q 273.8 60.7, 273.1 60.7 Q 272.5 60.7, 272.1 61.1 Q 271.8 61.5, 271.8 62.4 Q 271.8 63.2, 272.1 63.7 Q 272.5 64.1, 273.1 64.1 " fill="#FF0000"/>
<path class="atom-2" d="M 279.2 85.9 Q 279.2 84.9, 279.7 84.3 Q 280.2 83.8, 281.1 83.8 Q 282.0 83.8, 282.6 84.3 Q 283.1 84.9, 283.1 85.9 Q 283.1 87.0, 282.5 87.6 Q 282.0 88.1, 281.1 88.1 Q 280.2 88.1, 279.7 87.6 Q 279.2 87.0, 279.2 85.9 M 281.1 87.7 Q 281.8 87.7, 282.1 87.2 Q 282.5 86.8, 282.5 85.9 Q 282.5 85.1, 282.1 84.7 Q 281.8 84.3, 281.1 84.3 Q 280.5 84.3, 280.1 84.7 Q 279.8 85.1, 279.8 85.9 Q 279.8 86.8, 280.1 87.2 Q 280.5 87.7, 281.1 87.7 " fill="#FF0000"/>
<path class="atom-5" d="M 317.2 86.2 Q 317.2 85.2, 317.7 84.6 Q 318.2 84.1, 319.1 84.1 Q 320.0 84.1, 320.6 84.6 Q 321.1 85.2, 321.1 86.2 Q 321.1 87.3, 320.5 87.9 Q 320.0 88.4, 319.1 88.4 Q 318.2 88.4, 317.7 87.9 Q 317.2 87.3, 317.2 86.2 M 319.1 88.0 Q 319.8 88.0, 320.1 87.5 Q 320.5 87.1, 320.5 86.2 Q 320.5 85.4, 320.1 85.0 Q 319.8 84.6, 319.1 84.6 Q 318.5 84.6, 318.1 85.0 Q 317.8 85.4, 317.8 86.2 Q 317.8 87.1, 318.1 87.5 Q 318.5 88.0, 319.1 88.0 " fill="#FF0000"/>
<path class="atom-7" d="M 325.1 109.8 Q 325.1 108.8, 325.6 108.2 Q 326.1 107.6, 327.1 107.6 Q 328.0 107.6, 328.5 108.2 Q 329.0 108.8, 329.0 109.8 Q 329.0 110.8, 328.5 111.4 Q 328.0 112.0, 327.1 112.0 Q 326.1 112.0, 325.6 111.4 Q 325.1 110.8, 325.1 109.8 M 327.1 111.5 Q 327.7 111.5, 328.1 111.1 Q 328.4 110.7, 328.4 109.8 Q 328.4 109.0, 328.1 108.6 Q 327.7 108.1, 327.1 108.1 Q 326.4 108.1, 326.1 108.5 Q 325.7 109.0, 325.7 109.8 Q 325.7 110.7, 326.1 111.1 Q 326.4 111.5, 327.1 111.5 " fill="#FF0000"/>
<path class="atom-11" d="M 376.7 105.5 Q 376.7 104.5, 377.2 103.9 Q 377.7 103.3, 378.7 103.3 Q 379.6 103.3, 380.1 103.9 Q 380.6 104.5, 380.6 105.5 Q 380.6 106.5, 380.1 107.1 Q 379.6 107.7, 378.7 107.7 Q 377.7 107.7, 377.2 107.1 Q 376.7 106.5, 376.7 105.5 M 378.7 107.2 Q 379.3 107.2, 379.7 106.8 Q 380.0 106.4, 380.0 105.5 Q 380.0 104.7, 379.7 104.3 Q 379.3 103.8, 378.7 103.8 Q 378.0 103.8, 377.7 104.2 Q 377.3 104.7, 377.3 105.5 Q 377.3 106.4, 377.7 106.8 Q 378.0 107.2, 378.7 107.2 " fill="#FF0000"/>
<path class="atom-11" d="M 381.3 103.4 L 381.9 103.4 L 381.9 105.2 L 384.0 105.2 L 384.0 103.4 L 384.6 103.4 L 384.6 107.6 L 384.0 107.6 L 384.0 105.7 L 381.9 105.7 L 381.9 107.6 L 381.3 107.6 L 381.3 103.4 " fill="#FF0000"/>
<path class="atom-13" d="M 382.4 77.3 Q 382.4 76.3, 382.9 75.8 Q 383.4 75.2, 384.3 75.2 Q 385.3 75.2, 385.8 75.8 Q 386.3 76.3, 386.3 77.3 Q 386.3 78.4, 385.8 79.0 Q 385.3 79.5, 384.3 79.5 Q 383.4 79.5, 382.9 79.0 Q 382.4 78.4, 382.4 77.3 M 384.3 79.1 Q 385.0 79.1, 385.3 78.6 Q 385.7 78.2, 385.7 77.3 Q 385.7 76.5, 385.3 76.1 Q 385.0 75.7, 384.3 75.7 Q 383.7 75.7, 383.3 76.1 Q 383.0 76.5, 383.0 77.3 Q 383.0 78.2, 383.3 78.6 Q 383.7 79.1, 384.3 79.1 " fill="#FF0000"/>
<path class="atom-13" d="M 386.9 75.2 L 387.5 75.2 L 387.5 77.0 L 389.7 77.0 L 389.7 75.2 L 390.3 75.2 L 390.3 79.5 L 389.7 79.5 L 389.7 77.5 L 387.5 77.5 L 387.5 79.5 L 386.9 79.5 L 386.9 75.2 " fill="#FF0000"/>
<path class="atom-15" d="M 360.8 58.4 Q 360.8 57.3, 361.3 56.8 Q 361.8 56.2, 362.8 56.2 Q 363.7 56.2, 364.2 56.8 Q 364.7 57.3, 364.7 58.4 Q 364.7 59.4, 364.2 60.0 Q 363.7 60.6, 362.8 60.6 Q 361.8 60.6, 361.3 60.0 Q 360.8 59.4, 360.8 58.4 M 362.8 60.1 Q 363.4 60.1, 363.8 59.7 Q 364.1 59.2, 364.1 58.4 Q 364.1 57.5, 363.8 57.1 Q 363.4 56.7, 362.8 56.7 Q 362.1 56.7, 361.8 57.1 Q 361.4 57.5, 361.4 58.4 Q 361.4 59.2, 361.8 59.7 Q 362.1 60.1, 362.8 60.1 " fill="#FF0000"/>
<path class="atom-15" d="M 365.4 56.3 L 365.9 56.3 L 365.9 58.1 L 368.1 58.1 L 368.1 56.3 L 368.7 56.3 L 368.7 60.5 L 368.1 60.5 L 368.1 58.5 L 365.9 58.5 L 365.9 60.5 L 365.4 60.5 L 365.4 56.3 " fill="#FF0000"/>
<path class="atom-18" d="M 311.5 114.4 Q 311.5 113.4, 312.0 112.8 Q 312.5 112.2, 313.5 112.2 Q 314.4 112.2, 314.9 112.8 Q 315.4 113.4, 315.4 114.4 Q 315.4 115.4, 314.9 116.0 Q 314.4 116.6, 313.5 116.6 Q 312.5 116.6, 312.0 116.0 Q 311.5 115.4, 311.5 114.4 M 313.5 116.1 Q 314.1 116.1, 314.5 115.7 Q 314.8 115.3, 314.8 114.4 Q 314.8 113.6, 314.5 113.1 Q 314.1 112.7, 313.5 112.7 Q 312.8 112.7, 312.5 113.1 Q 312.1 113.6, 312.1 114.4 Q 312.1 115.3, 312.5 115.7 Q 312.8 116.1, 313.5 116.1 " fill="#FF0000"/>
<path class="atom-18" d="M 316.1 112.3 L 316.6 112.3 L 316.6 114.1 L 318.8 114.1 L 318.8 112.3 L 319.4 112.3 L 319.4 116.5 L 318.8 116.5 L 318.8 114.6 L 316.6 114.6 L 316.6 116.5 L 316.1 116.5 L 316.1 112.3 " fill="#FF0000"/>
<path class="atom-20" d="M 284.3 123.6 Q 284.3 122.6, 284.8 122.0 Q 285.3 121.4, 286.2 121.4 Q 287.2 121.4, 287.7 122.0 Q 288.2 122.6, 288.2 123.6 Q 288.2 124.6, 287.7 125.2 Q 287.2 125.8, 286.2 125.8 Q 285.3 125.8, 284.8 125.2 Q 284.3 124.6, 284.3 123.6 M 286.2 125.3 Q 286.9 125.3, 287.2 124.9 Q 287.6 124.4, 287.6 123.6 Q 287.6 122.8, 287.2 122.3 Q 286.9 121.9, 286.2 121.9 Q 285.6 121.9, 285.2 122.3 Q 284.9 122.8, 284.9 123.6 Q 284.9 124.4, 285.2 124.9 Q 285.6 125.3, 286.2 125.3 " fill="#FF0000"/>
<path class="atom-20" d="M 288.9 121.5 L 289.4 121.5 L 289.4 123.3 L 291.6 123.3 L 291.6 121.5 L 292.2 121.5 L 292.2 125.7 L 291.6 125.7 L 291.6 123.8 L 289.4 123.8 L 289.4 125.7 L 288.9 125.7 L 288.9 121.5 " fill="#FF0000"/>
<path class="atom-24" d="M 215.4 64.6 L 216.0 64.6 L 216.0 66.4 L 218.1 66.4 L 218.1 64.6 L 218.7 64.6 L 218.7 68.8 L 218.1 68.8 L 218.1 66.8 L 216.0 66.8 L 216.0 68.8 L 215.4 68.8 L 215.4 64.6 " fill="#FF0000"/>
<path class="atom-24" d="M 219.6 66.7 Q 219.6 65.6, 220.1 65.1 Q 220.6 64.5, 221.5 64.5 Q 222.5 64.5, 223.0 65.1 Q 223.5 65.6, 223.5 66.7 Q 223.5 67.7, 223.0 68.3 Q 222.5 68.9, 221.5 68.9 Q 220.6 68.9, 220.1 68.3 Q 219.6 67.7, 219.6 66.7 M 221.5 68.4 Q 222.2 68.4, 222.5 68.0 Q 222.9 67.5, 222.9 66.7 Q 222.9 65.8, 222.5 65.4 Q 222.2 65.0, 221.5 65.0 Q 220.9 65.0, 220.5 65.4 Q 220.2 65.8, 220.2 66.7 Q 220.2 67.5, 220.5 68.0 Q 220.9 68.4, 221.5 68.4 " fill="#FF0000"/>
<path class="atom-26" d="M 209.7 92.7 L 210.3 92.7 L 210.3 94.5 L 212.5 94.5 L 212.5 92.7 L 213.1 92.7 L 213.1 97.0 L 212.5 97.0 L 212.5 95.0 L 210.3 95.0 L 210.3 97.0 L 209.7 97.0 L 209.7 92.7 " fill="#FF0000"/>
<path class="atom-26" d="M 213.9 94.8 Q 213.9 93.8, 214.4 93.2 Q 214.9 92.7, 215.9 92.7 Q 216.8 92.7, 217.3 93.2 Q 217.8 93.8, 217.8 94.8 Q 217.8 95.9, 217.3 96.5 Q 216.8 97.0, 215.9 97.0 Q 215.0 97.0, 214.4 96.5 Q 213.9 95.9, 213.9 94.8 M 215.9 96.6 Q 216.5 96.6, 216.9 96.1 Q 217.2 95.7, 217.2 94.8 Q 217.2 94.0, 216.9 93.6 Q 216.5 93.2, 215.9 93.2 Q 215.2 93.2, 214.9 93.6 Q 214.5 94.0, 214.5 94.8 Q 214.5 95.7, 214.9 96.1 Q 215.2 96.6, 215.9 96.6 " fill="#FF0000"/>
<path class="atom-28" d="M 235.5 113.8 Q 235.5 112.8, 236.0 112.2 Q 236.5 111.6, 237.5 111.6 Q 238.4 111.6, 238.9 112.2 Q 239.4 112.8, 239.4 113.8 Q 239.4 114.8, 238.9 115.4 Q 238.4 116.0, 237.5 116.0 Q 236.5 116.0, 236.0 115.4 Q 235.5 114.8, 235.5 113.8 M 237.5 115.5 Q 238.1 115.5, 238.5 115.1 Q 238.8 114.7, 238.8 113.8 Q 238.8 113.0, 238.5 112.6 Q 238.1 112.1, 237.5 112.1 Q 236.8 112.1, 236.5 112.5 Q 236.1 113.0, 236.1 113.8 Q 236.1 114.7, 236.5 115.1 Q 236.8 115.5, 237.5 115.5 " fill="#FF0000"/>
<path class="atom-28" d="M 240.1 111.7 L 240.6 111.7 L 240.6 113.5 L 242.8 113.5 L 242.8 111.7 L 243.4 111.7 L 243.4 115.9 L 242.8 115.9 L 242.8 114.0 L 240.6 114.0 L 240.6 115.9 L 240.1 115.9 L 240.1 111.7 " fill="#FF0000"/>
<path class="legend" d="M 301.7 184.0 Q 302.7 184.4, 303.3 185.0 Q 303.8 185.7, 303.8 186.7 Q 303.8 188.2, 302.8 189.1 Q 301.8 190.0, 300.0 190.0 L 296.2 190.0 L 296.2 178.7 L 299.5 178.7 Q 301.4 178.7, 302.4 179.5 Q 303.4 180.2, 303.4 181.7 Q 303.4 183.4, 301.7 184.0 M 297.7 180.0 L 297.7 183.5 L 299.5 183.5 Q 300.6 183.5, 301.2 183.1 Q 301.8 182.6, 301.8 181.7 Q 301.8 180.0, 299.5 180.0 L 297.7 180.0 M 300.0 188.7 Q 301.1 188.7, 301.7 188.2 Q 302.2 187.7, 302.2 186.7 Q 302.2 185.7, 301.6 185.3 Q 301.0 184.8, 299.7 184.8 L 297.7 184.8 L 297.7 188.7 L 300.0 188.7 " fill="#000000"/>
</svg>