<svg xmlns="http://www.w3.org/2000/svg" xmlns:rdkit="http://www.rdkit.org/xml" xmlns:xlink="http://www.w3.org/1999/xlink" version="1.1" baseProfile="full" xml:space="preserve" width="800px" height="200px" viewBox="0 0 800 200">
<!-- END OF HEADER -->
<rect style="opacity:1.0;fill:#FFFFFF;stroke:none" width="800.0" height="200.0" x="0.0" y="0.0"> </rect>
<path class="bond-0 atom-0 atom-1" d="M 190.0,90.8 L 171.3,102.5" style="fill:none;fill-rule:evenodd;stroke:#000000;stroke-width:2.0px;stroke-linecap:butt;stroke-linejoin:miter;stroke-opacity:1"/>
<path class="bond-1 atom-1 atom-2" d="M 171.3,102.5 L 151.9,92.2" style="fill:none;fill-rule:evenodd;stroke:#000000;stroke-width:2.0px;stroke-linecap:butt;stroke-linejoin:miter;stroke-opacity:1"/>
<path class="bond-2 atom-2 atom-3" d="M 151.9,92.2 L 133.3,103.8" style="fill:none;fill-rule:evenodd;stroke:#000000;stroke-width:2.0px;stroke-linecap:butt;stroke-linejoin:miter;stroke-opacity:1"/>
<path class="bond-3 atom-3 atom-4" d="M 133.3,103.8 L 113.8,93.5" style="fill:none;fill-rule:evenodd;stroke:#000000;stroke-width:2.0px;stroke-linecap:butt;stroke-linejoin:miter;stroke-opacity:1"/>
<path class="bond-4 atom-4 atom-5" d="M 113.8,93.5 L 95.2,105.1" style="fill:none;fill-rule:evenodd;stroke:#000000;stroke-width:2.0px;stroke-linecap:butt;stroke-linejoin:miter;stroke-opacity:1"/>
<path class="bond-5 atom-5 atom-6" d="M 95.2,105.1 L 75.8,94.8" style="fill:none;fill-rule:evenodd;stroke:#000000;stroke-width:2.0px;stroke-linecap:butt;stroke-linejoin:miter;stroke-opacity:1"/>
<path class="bond-6 atom-6 atom-7" d="M 75.8,94.8 L 57.1,106.5" style="fill:none;fill-rule:evenodd;stroke:#000000;stroke-width:2.0px;stroke-linecap:butt;stroke-linejoin:miter;stroke-opacity:1"/>
<path class="bond-7 atom-7 atom-8" d="M 57.1,106.5 L 37.7,96.1" style="fill:none;fill-rule:evenodd;stroke:#000000;stroke-width:2.0px;stroke-linecap:butt;stroke-linejoin:miter;stroke-opacity:1"/>
<path class="bond-8 atom-8 atom-9" d="M 39.4,97.0 L 39.0,87.5" style="fill:none;fill-rule:evenodd;stroke:#000000;stroke-width:2.0px;stroke-linecap:butt;stroke-linejoin:miter;stroke-opacity:1"/>
<path class="bond-8 atom-8 atom-9" d="M 39.0,87.5 L 38.7,78.0" style="fill:none;fill-rule:evenodd;stroke:#FF0000;stroke-width:2.0px;stroke-linecap:butt;stroke-linejoin:miter;stroke-opacity:1"/>
<path class="bond-8 atom-8 atom-9" d="M 36.1,97.1 L 35.7,87.6" style="fill:none;fill-rule:evenodd;stroke:#000000;stroke-width:2.0px;stroke-linecap:butt;stroke-linejoin:miter;stroke-opacity:1"/>
<path class="bond-8 atom-8 atom-9" d="M 35.7,87.6 L 35.4,78.2" style="fill:none;fill-rule:evenodd;stroke:#FF0000;stroke-width:2.0px;stroke-linecap:butt;stroke-linejoin:miter;stroke-opacity:1"/>
<path class="bond-9 atom-8 atom-10" d="M 37.7,96.1 L 30.1,100.8" style="fill:none;fill-rule:evenodd;stroke:#000000;stroke-width:2.0px;stroke-linecap:butt;stroke-linejoin:miter;stroke-opacity:1"/>
<path class="bond-9 atom-8 atom-10" d="M 30.1,100.8 L 22.6,105.5" style="fill:none;fill-rule:evenodd;stroke:#FF0000;stroke-width:2.0px;stroke-linecap:butt;stroke-linejoin:miter;stroke-opacity:1"/>
<path d="M 172.3,101.9 L 171.3,102.5 L 170.4,102.0" style="fill:none;stroke:#000000;stroke-width:2.0px;stroke-linecap:butt;stroke-linejoin:miter;stroke-opacity:1;"/>
<path d="M 152.9,92.7 L 151.9,92.2 L 151.0,92.7" style="fill:none;stroke:#000000;stroke-width:2.0px;stroke-linecap:butt;stroke-linejoin:miter;stroke-opacity:1;"/>
<path d="M 134.2,103.2 L 133.3,103.8 L 132.3,103.3" style="fill:none;stroke:#000000;stroke-width:2.0px;stroke-linecap:butt;stroke-linejoin:miter;stroke-opacity:1;"/>
<path d="M 114.8,94.0 L 113.8,93.5 L 112.9,94.1" style="fill:none;stroke:#000000;stroke-width:2.0px;stroke-linecap:butt;stroke-linejoin:miter;stroke-opacity:1;"/>
<path d="M 96.1,104.6 L 95.2,105.1 L 94.2,104.6" style="fill:none;stroke:#000000;stroke-width:2.0px;stroke-linecap:butt;stroke-linejoin:miter;stroke-opacity:1;"/>
<path d="M 76.7,95.3 L 75.8,94.8 L 74.8,95.4" style="fill:none;stroke:#000000;stroke-width:2.0px;stroke-linecap:butt;stroke-linejoin:miter;stroke-opacity:1;"/>
<path d="M 58.0,105.9 L 57.1,106.5 L 56.1,105.9" style="fill:none;stroke:#000000;stroke-width:2.0px;stroke-linecap:butt;stroke-linejoin:miter;stroke-opacity:1;"/>
<path d="M 38.6,96.6 L 37.7,96.1 L 37.3,96.4" style="fill:none;stroke:#000000;stroke-width:2.0px;stroke-linecap:butt;stroke-linejoin:miter;stroke-opacity:1;"/>
<path class="atom-9" d="M 34.1 74.1 Q 34.1 72.7, 34.8 71.8 Q 35.5 71.0, 36.9 71.0 Q 38.3 71.0, 39.0 71.8 Q 39.8 72.7, 39.8 74.1 Q 39.8 75.7, 39.0 76.5 Q 38.3 77.4, 36.9 77.4 Q 35.5 77.4, 34.8 76.5 Q 34.1 75.7, 34.1 74.1 M 36.9 76.7 Q 37.9 76.7, 38.4 76.0 Q 38.9 75.4, 38.9 74.1 Q 38.9 72.9, 38.4 72.3 Q 37.9 71.7, 36.9 71.7 Q 36.0 71.7, 35.4 72.3 Q 34.9 72.9, 34.9 74.1 Q 34.9 75.4, 35.4 76.0 Q 36.0 76.7, 36.9 76.7 " fill="#FF0000"/>
<path class="atom-10" d="M 10.0 104.7 L 10.8 104.7 L 10.8 107.3 L 14.0 107.3 L 14.0 104.7 L 14.9 104.7 L 14.9 110.9 L 14.0 110.9 L 14.0 108.0 L 10.8 108.0 L 10.8 110.9 L 10.0 110.9 L 10.0 104.7 " fill="#FF0000"/>
<path class="atom-10" d="M 16.2 107.8 Q 16.2 106.3, 16.9 105.5 Q 17.6 104.6, 19.0 104.6 Q 20.4 104.6, 21.1 105.5 Q 21.9 106.3, 21.9 107.8 Q 21.9 109.3, 21.1 110.2 Q 20.4 111.0, 19.0 111.0 Q 17.6 111.0, 16.9 110.2 Q 16.2 109.3, 16.2 107.8 M 19.0 110.3 Q 20.0 110.3, 20.5 109.7 Q 21.0 109.0, 21.0 107.8 Q 21.0 106.6, 20.5 105.9 Q 20.0 105.3, 19.0 105.3 Q 18.1 105.3, 17.5 105.9 Q 17.0 106.6, 17.0 107.8 Q 17.0 109.0, 17.5 109.7 Q 18.1 110.3, 19.0 110.3 " fill="#FF0000"/>
<path class="legend" d="M 103.4 190.0 L 102.2 186.7 L 97.8 186.7 L 96.6 190.0 L 95.1 190.0 L 99.0 178.7 L 100.9 178.7 L 104.9 190.0 L 103.4 190.0 M 98.2 185.4 L 101.8 185.4 L 100.0 180.3 L 98.2 185.4 " fill="#000000"/>
<path class="bond-0 atom-0 atom-1" d="M 319.9,132.0 L 316.6,123.2" style="fill:none;fill-rule:evenodd;stroke:#FF0000;stroke-width:2.0px;stroke-linecap:butt;stroke-linejoin:miter;stroke-opacity:1"/>
<path class="bond-0 atom-0 atom-1" d="M 316.6,123.2 L 313.2,114.4" style="fill:none;fill-rule:evenodd;stroke:#000000;stroke-width:2.0px;stroke-linecap:butt;stroke-linejoin:miter;stroke-opacity:1"/>
<path class="bond-0 atom-0 atom-1" d="M 323.0,130.8 L 319.6,122.0" style="fill:none;fill-rule:evenodd;stroke:#FF0000;stroke-width:2.0px;stroke-linecap:butt;stroke-linejoin:miter;stroke-opacity:1"/>
<path class="bond-0 atom-0 atom-1" d="M 319.6,122.0 L 316.3,113.2" style="fill:none;fill-rule:evenodd;stroke:#000000;stroke-width:2.0px;stroke-linecap:butt;stroke-linejoin:miter;stroke-opacity:1"/>
<path class="bond-1 atom-1 atom-2" d="M 315.1,114.7 L 293.4,111.2" style="fill:none;fill-rule:evenodd;stroke:#000000;stroke-width:2.0px;stroke-linecap:butt;stroke-linejoin:miter;stroke-opacity:1"/>
<path class="bond-2 atom-2 atom-3" d="M 293.4,111.2 L 285.6,90.6" style="fill:none;fill-rule:evenodd;stroke:#000000;stroke-width:2.0px;stroke-linecap:butt;stroke-linejoin:miter;stroke-opacity:1"/>
<path class="bond-3 atom-3 atom-4" d="M 285.6,90.6 L 263.9,87.0" style="fill:none;fill-rule:evenodd;stroke:#000000;stroke-width:2.0px;stroke-linecap:butt;stroke-linejoin:miter;stroke-opacity:1"/>
<path class="bond-4 atom-4 atom-5" d="M 263.9,87.0 L 256.1,66.5" style="fill:none;fill-rule:evenodd;stroke:#000000;stroke-width:2.0px;stroke-linecap:butt;stroke-linejoin:miter;stroke-opacity:1"/>
<path class="bond-4 atom-4 atom-5" d="M 260.1,86.4 L 253.7,69.4" style="fill:none;fill-rule:evenodd;stroke:#000000;stroke-width:2.0px;stroke-linecap:butt;stroke-linejoin:miter;stroke-opacity:1"/>
<path class="bond-5 atom-5 atom-6" d="M 256.1,66.5 L 234.4,62.9" style="fill:none;fill-rule:evenodd;stroke:#000000;stroke-width:2.0px;stroke-linecap:butt;stroke-linejoin:miter;stroke-opacity:1"/>
<path class="bond-6 atom-6 atom-7" d="M 234.4,62.9 L 220.5,80.0" style="fill:none;fill-rule:evenodd;stroke:#000000;stroke-width:2.0px;stroke-linecap:butt;stroke-linejoin:miter;stroke-opacity:1"/>
<path class="bond-6 atom-6 atom-7" d="M 235.8,66.5 L 224.2,80.6" style="fill:none;fill-rule:evenodd;stroke:#000000;stroke-width:2.0px;stroke-linecap:butt;stroke-linejoin:miter;stroke-opacity:1"/>
<path class="bond-7 atom-7 atom-8" d="M 220.5,80.0 L 228.3,100.5" style="fill:none;fill-rule:evenodd;stroke:#000000;stroke-width:2.0px;stroke-linecap:butt;stroke-linejoin:miter;stroke-opacity:1"/>
<path class="bond-8 atom-8 atom-9" d="M 228.3,100.5 L 250.0,104.1" style="fill:none;fill-rule:evenodd;stroke:#000000;stroke-width:2.0px;stroke-linecap:butt;stroke-linejoin:miter;stroke-opacity:1"/>
<path class="bond-8 atom-8 atom-9" d="M 230.7,97.6 L 248.6,100.5" style="fill:none;fill-rule:evenodd;stroke:#000000;stroke-width:2.0px;stroke-linecap:butt;stroke-linejoin:miter;stroke-opacity:1"/>
<path class="bond-9 atom-3 atom-10" d="M 285.6,90.6 L 290.9,84.1" style="fill:none;fill-rule:evenodd;stroke:#000000;stroke-width:2.0px;stroke-linecap:butt;stroke-linejoin:miter;stroke-opacity:1"/>
<path class="bond-9 atom-3 atom-10" d="M 290.9,84.1 L 296.3,77.5" style="fill:none;fill-rule:evenodd;stroke:#FF0000;stroke-width:2.0px;stroke-linecap:butt;stroke-linejoin:miter;stroke-opacity:1"/>
<path class="bond-10 atom-10 atom-11" d="M 303.1,74.2 L 312.2,75.6" style="fill:none;fill-rule:evenodd;stroke:#FF0000;stroke-width:2.0px;stroke-linecap:butt;stroke-linejoin:miter;stroke-opacity:1"/>
<path class="bond-10 atom-10 atom-11" d="M 312.2,75.6 L 321.3,77.1" style="fill:none;fill-rule:evenodd;stroke:#000000;stroke-width:2.0px;stroke-linecap:butt;stroke-linejoin:miter;stroke-opacity:1"/>
<path class="bond-11 atom-11 atom-12" d="M 321.3,77.1 L 335.2,60.1" style="fill:none;fill-rule:evenodd;stroke:#000000;stroke-width:2.0px;stroke-linecap:butt;stroke-linejoin:miter;stroke-opacity:1"/>
<path class="bond-11 atom-11 atom-12" d="M 325.0,77.7 L 336.5,63.7" style="fill:none;fill-rule:evenodd;stroke:#000000;stroke-width:2.0px;stroke-linecap:butt;stroke-linejoin:miter;stroke-opacity:1"/>
<path class="bond-12 atom-12 atom-13" d="M 335.2,60.1 L 356.9,63.6" style="fill:none;fill-rule:evenodd;stroke:#000000;stroke-width:2.0px;stroke-linecap:butt;stroke-linejoin:miter;stroke-opacity:1"/>
<path class="bond-13 atom-13 atom-14" d="M 356.9,63.6 L 362.2,57.1" style="fill:none;fill-rule:evenodd;stroke:#000000;stroke-width:2.0px;stroke-linecap:butt;stroke-linejoin:miter;stroke-opacity:1"/>
<path class="bond-13 atom-13 atom-14" d="M 362.2,57.1 L 367.6,50.6" style="fill:none;fill-rule:evenodd;stroke:#FF0000;stroke-width:2.0px;stroke-linecap:butt;stroke-linejoin:miter;stroke-opacity:1"/>
<path class="bond-14 atom-13 atom-15" d="M 356.9,63.6 L 364.7,84.2" style="fill:none;fill-rule:evenodd;stroke:#000000;stroke-width:2.0px;stroke-linecap:butt;stroke-linejoin:miter;stroke-opacity:1"/>
<path class="bond-14 atom-13 atom-15" d="M 354.5,66.6 L 360.9,83.6" style="fill:none;fill-rule:evenodd;stroke:#000000;stroke-width:2.0px;stroke-linecap:butt;stroke-linejoin:miter;stroke-opacity:1"/>
<path class="bond-15 atom-15 atom-16" d="M 364.7,84.2 L 350.7,101.2" style="fill:none;fill-rule:evenodd;stroke:#000000;stroke-width:2.0px;stroke-linecap:butt;stroke-linejoin:miter;stroke-opacity:1"/>
<path class="bond-16 atom-16 atom-17" d="M 350.7,101.2 L 353.9,109.6" style="fill:none;fill-rule:evenodd;stroke:#000000;stroke-width:2.0px;stroke-linecap:butt;stroke-linejoin:miter;stroke-opacity:1"/>
<path class="bond-16 atom-16 atom-17" d="M 353.9,109.6 L 357.1,117.9" style="fill:none;fill-rule:evenodd;stroke:#FF0000;stroke-width:2.0px;stroke-linecap:butt;stroke-linejoin:miter;stroke-opacity:1"/>
<path class="bond-17 atom-16 atom-18" d="M 350.7,101.2 L 329.0,97.7" style="fill:none;fill-rule:evenodd;stroke:#000000;stroke-width:2.0px;stroke-linecap:butt;stroke-linejoin:miter;stroke-opacity:1"/>
<path class="bond-17 atom-16 atom-18" d="M 349.4,97.7 L 331.4,94.7" style="fill:none;fill-rule:evenodd;stroke:#000000;stroke-width:2.0px;stroke-linecap:butt;stroke-linejoin:miter;stroke-opacity:1"/>
<path class="bond-18 atom-18 atom-1" d="M 329.0,97.7 L 315.1,114.7" style="fill:none;fill-rule:evenodd;stroke:#000000;stroke-width:2.0px;stroke-linecap:butt;stroke-linejoin:miter;stroke-opacity:1"/>
<path class="bond-19 atom-9 atom-4" d="M 250.0,104.1 L 263.9,87.0" style="fill:none;fill-rule:evenodd;stroke:#000000;stroke-width:2.0px;stroke-linecap:butt;stroke-linejoin:miter;stroke-opacity:1"/>
<path class="bond-20 atom-18 atom-11" d="M 329.0,97.7 L 321.3,77.1" style="fill:none;fill-rule:evenodd;stroke:#000000;stroke-width:2.0px;stroke-linecap:butt;stroke-linejoin:miter;stroke-opacity:1"/>
<path d="M 314.0,114.5 L 315.1,114.7 L 315.8,113.9" style="fill:none;stroke:#000000;stroke-width:2.0px;stroke-linecap:butt;stroke-linejoin:miter;stroke-opacity:1;"/>
<path d="M 294.5,111.3 L 293.4,111.2 L 293.0,110.1" style="fill:none;stroke:#000000;stroke-width:2.0px;stroke-linecap:butt;stroke-linejoin:miter;stroke-opacity:1;"/>
<path d="M 256.5,67.5 L 256.1,66.5 L 255.0,66.3" style="fill:none;stroke:#000000;stroke-width:2.0px;stroke-linecap:butt;stroke-linejoin:miter;stroke-opacity:1;"/>
<path d="M 235.5,63.1 L 234.4,62.9 L 233.7,63.8" style="fill:none;stroke:#000000;stroke-width:2.0px;stroke-linecap:butt;stroke-linejoin:miter;stroke-opacity:1;"/>
<path d="M 221.2,79.1 L 220.5,80.0 L 220.9,81.0" style="fill:none;stroke:#000000;stroke-width:2.0px;stroke-linecap:butt;stroke-linejoin:miter;stroke-opacity:1;"/>
<path d="M 227.9,99.5 L 228.3,100.5 L 229.3,100.7" style="fill:none;stroke:#000000;stroke-width:2.0px;stroke-linecap:butt;stroke-linejoin:miter;stroke-opacity:1;"/>
<path d="M 248.9,103.9 L 250.0,104.1 L 250.7,103.2" style="fill:none;stroke:#000000;stroke-width:2.0px;stroke-linecap:butt;stroke-linejoin:miter;stroke-opacity:1;"/>
<path d="M 334.5,60.9 L 335.2,60.1 L 336.3,60.3" style="fill:none;stroke:#000000;stroke-width:2.0px;stroke-linecap:butt;stroke-linejoin:miter;stroke-opacity:1;"/>
<path d="M 364.3,83.2 L 364.7,84.2 L 364.0,85.1" style="fill:none;stroke:#000000;stroke-width:2.0px;stroke-linecap:butt;stroke-linejoin:miter;stroke-opacity:1;"/>
<path class="atom-0" d="M 320.0 135.3 Q 320.0 133.8, 320.8 133.0 Q 321.5 132.1, 322.9 132.1 Q 324.3 132.1, 325.0 133.0 Q 325.7 133.8, 325.7 135.3 Q 325.7 136.8, 325.0 137.7 Q 324.3 138.5, 322.9 138.5 Q 321.5 138.5, 320.8 137.7 Q 320.0 136.8, 320.0 135.3 M 322.9 137.8 Q 323.8 137.8, 324.3 137.2 Q 324.9 136.6, 324.9 135.3 Q 324.9 134.1, 324.3 133.5 Q 323.8 132.9, 322.9 132.9 Q 321.9 132.9, 321.4 133.5 Q 320.9 134.1, 320.9 135.3 Q 320.9 136.6, 321.4 137.2 Q 321.9 137.8, 322.9 137.8 " fill="#FF0000"/>
<path class="atom-10" d="M 296.7 73.6 Q 296.7 72.1, 297.4 71.3 Q 298.2 70.4, 299.5 70.4 Q 300.9 70.4, 301.7 71.3 Q 302.4 72.1, 302.4 73.6 Q 302.4 75.1, 301.7 76.0 Q 300.9 76.8, 299.5 76.8 Q 298.2 76.8, 297.4 76.0 Q 296.7 75.1, 296.7 73.6 M 299.5 76.1 Q 300.5 76.1, 301.0 75.5 Q 301.5 74.8, 301.5 73.6 Q 301.5 72.4, 301.0 71.7 Q 300.5 71.1, 299.5 71.1 Q 298.6 71.1, 298.1 71.7 Q 297.6 72.4, 297.6 73.6 Q 297.6 74.8, 298.1 75.5 Q 298.6 76.1, 299.5 76.1 " fill="#FF0000"/>
<path class="atom-14" d="M 368.0 46.6 Q 368.0 45.1, 368.7 44.3 Q 369.4 43.5, 370.8 43.5 Q 372.2 43.5, 372.9 44.3 Q 373.7 45.1, 373.7 46.6 Q 373.7 48.1, 372.9 49.0 Q 372.2 49.9, 370.8 49.9 Q 369.4 49.9, 368.7 49.0 Q 368.0 48.1, 368.0 46.6 M 370.8 49.1 Q 371.8 49.1, 372.3 48.5 Q 372.8 47.9, 372.8 46.6 Q 372.8 45.4, 372.3 44.8 Q 371.8 44.2, 370.8 44.2 Q 369.9 44.2, 369.3 44.8 Q 368.8 45.4, 368.8 46.6 Q 368.8 47.9, 369.3 48.5 Q 369.9 49.1, 370.8 49.1 " fill="#FF0000"/>
<path class="atom-14" d="M 374.6 43.5 L 375.5 43.5 L 375.5 46.2 L 378.7 46.2 L 378.7 43.5 L 379.5 43.5 L 379.5 49.8 L 378.7 49.8 L 378.7 46.9 L 375.5 46.9 L 375.5 49.8 L 374.6 49.8 L 374.6 43.5 " fill="#FF0000"/>
<path class="atom-17" d="M 355.7 121.8 Q 355.7 120.3, 356.4 119.5 Q 357.1 118.7, 358.5 118.7 Q 359.9 118.7, 360.6 119.5 Q 361.4 120.3, 361.4 121.8 Q 361.4 123.3, 360.6 124.2 Q 359.9 125.1, 358.5 125.1 Q 357.2 125.1, 356.4 124.2 Q 355.7 123.4, 355.7 121.8 M 358.5 124.4 Q 359.5 124.4, 360.0 123.7 Q 360.5 123.1, 360.5 121.8 Q 360.5 120.6, 360.0 120.0 Q 359.5 119.4, 358.5 119.4 Q 357.6 119.4, 357.1 120.0 Q 356.5 120.6, 356.5 121.8 Q 356.5 123.1, 357.1 123.7 Q 357.6 124.4, 358.5 124.4 " fill="#FF0000"/>
<path class="atom-17" d="M 362.4 118.7 L 363.2 118.7 L 363.2 121.4 L 366.4 121.4 L 366.4 118.7 L 367.2 118.7 L 367.2 125.0 L 366.4 125.0 L 366.4 122.1 L 363.2 122.1 L 363.2 125.0 L 362.4 125.0 L 362.4 118.7 " fill="#FF0000"/>
<path class="legend" d="M 301.7 184.0 Q 302.7 184.4, 303.3 185.0 Q 303.8 185.7, 303.8 186.7 Q 303.8 188.2, 302.8 189.1 Q 301.8 190.0, 300.0 190.0 L 296.2 190.0 L 296.2 178.7 L 299.5 178.7 Q 301.4 178.7, 302.4 179.5 Q 303.4 180.2, 303.4 181.7 Q 303.4 183.4, 301.7 184.0 M 297.7 180.0 L 297.7 183.5 L 299.5 183.5 Q 300.6 183.5, 301.2 183.1 Q 301.8 182.6, 301.8 181.7 Q 301.8 180.0, 299.5 180.0 L 297.7 180.0 M 300.0 188.7 Q 301.1 188.7, 301.7 188.2 Q 302.2 187.7, 302.2 186.7 Q 302.2 185.7, 301.6 185.3 Q 301.0 184.8, 299.7 184.8 L 297.7 184.8 L 297.7 188.7 L 300.0 188.7 " fill="#000000"/>
<path class="bond-0 atom-0 atom-1" d="M 547.2,93.1 L 528.8,105.2" style="fill:none;fill-rule:evenodd;stroke:#000000;stroke-width:2.0px;stroke-linecap:butt;stroke-linejoin:miter;stroke-opacity:1"/>
<path class="bond-1 atom-1 atom-2" d="M 528.8,105.2 L 509.2,95.3" style="fill:none;fill-rule:evenodd;stroke:#000000;stroke-width:2.0px;stroke-linecap:butt;stroke-linejoin:miter;stroke-opacity:1"/>
<path class="bond-2 atom-2 atom-3" d="M 509.2,95.3 L 490.8,107.4" style="fill:none;fill-rule:evenodd;stroke:#000000;stroke-width:2.0px;stroke-linecap:butt;stroke-linejoin:miter;stroke-opacity:1"/>
<path class="bond-3 atom-3 atom-4" d="M 490.8,107.4 L 471.2,97.5" style="fill:none;fill-rule:evenodd;stroke:#000000;stroke-width:2.0px;stroke-linecap:butt;stroke-linejoin:miter;stroke-opacity:1"/>
<path class="bond-4 atom-4 atom-5" d="M 471.2,97.5 L 452.8,109.6" style="fill:none;fill-rule:evenodd;stroke:#000000;stroke-width:2.0px;stroke-linecap:butt;stroke-linejoin:miter;stroke-opacity:1"/>
<path class="bond-5 atom-4 atom-6" d="M 471.2,97.5 L 470.6,88.5" style="fill:none;fill-rule:evenodd;stroke:#000000;stroke-width:2.0px;stroke-linecap:butt;stroke-linejoin:miter;stroke-opacity:1"/>
<path class="bond-5 atom-4 atom-6" d="M 470.6,88.5 L 470.1,79.5" style="fill:none;fill-rule:evenodd;stroke:#FF0000;stroke-width:2.0px;stroke-linecap:butt;stroke-linejoin:miter;stroke-opacity:1"/>
<path d="M 529.8,104.6 L 528.8,105.2 L 527.9,104.7" style="fill:none;stroke:#000000;stroke-width:2.0px;stroke-linecap:butt;stroke-linejoin:miter;stroke-opacity:1;"/>
<path d="M 510.2,95.8 L 509.2,95.3 L 508.3,95.9" style="fill:none;stroke:#000000;stroke-width:2.0px;stroke-linecap:butt;stroke-linejoin:miter;stroke-opacity:1;"/>
<path d="M 491.7,106.8 L 490.8,107.4 L 489.8,106.9" style="fill:none;stroke:#000000;stroke-width:2.0px;stroke-linecap:butt;stroke-linejoin:miter;stroke-opacity:1;"/>
<path class="atom-6" d="M 467.0 75.6 Q 467.0 74.1, 467.8 73.2 Q 468.5 72.4, 469.9 72.4 Q 471.3 72.4, 472.0 73.2 Q 472.7 74.1, 472.7 75.6 Q 472.7 77.1, 472.0 77.9 Q 471.3 78.8, 469.9 78.8 Q 468.5 78.8, 467.8 77.9 Q 467.0 77.1, 467.0 75.6 M 469.9 78.1 Q 470.8 78.1, 471.3 77.5 Q 471.9 76.8, 471.9 75.6 Q 471.9 74.3, 471.3 73.7 Q 470.8 73.1, 469.9 73.1 Q 468.9 73.1, 468.4 73.7 Q 467.9 74.3, 467.9 75.6 Q 467.9 76.8, 468.4 77.5 Q 468.9 78.1, 469.9 78.1 " fill="#FF0000"/>
<path class="atom-6" d="M 473.7 72.5 L 474.6 72.5 L 474.6 75.1 L 477.7 75.1 L 477.7 72.5 L 478.6 72.5 L 478.6 78.7 L 477.7 78.7 L 477.7 75.8 L 474.6 75.8 L 474.6 78.7 L 473.7 78.7 L 473.7 72.5 " fill="#FF0000"/>
<path class="legend" d="M 495.6 184.2 Q 495.6 181.4, 496.9 179.9 Q 498.3 178.4, 500.8 178.4 Q 503.1 178.4, 504.4 180.0 L 503.3 180.9 Q 502.4 179.7, 500.8 179.7 Q 499.1 179.7, 498.2 180.9 Q 497.3 182.0, 497.3 184.2 Q 497.3 186.4, 498.2 187.6 Q 499.1 188.7, 501.0 188.7 Q 502.2 188.7, 503.7 188.0 L 504.1 189.2 Q 503.5 189.6, 502.6 189.8 Q 501.7 190.0, 500.7 190.0 Q 498.3 190.0, 496.9 188.5 Q 495.6 187.0, 495.6 184.2 " fill="#000000"/>
</svg>