<svg xmlns="http://www.w3.org/2000/svg" xmlns:rdkit="http://www.rdkit.org/xml" xmlns:xlink="http://www.w3.org/1999/xlink" version="1.1" baseProfile="full" xml:space="preserve" width="800px" height="200px" viewBox="0 0 800 200">
<!-- END OF HEADER -->
<rect style="opacity:1.0;fill:#FFFFFF;stroke:none" width="800.0" height="200.0" x="0.0" y="0.0"> </rect>
<path class="bond-0 atom-0 atom-1" d="M 10.0,97.1 L 18.6,92.1" style="fill:none;fill-rule:evenodd;stroke:#000000;stroke-width:2.0px;stroke-linecap:butt;stroke-linejoin:miter;stroke-opacity:1"/>
<path class="bond-0 atom-0 atom-1" d="M 18.6,92.1 L 27.3,87.1" style="fill:none;fill-rule:evenodd;stroke:#FF0000;stroke-width:2.0px;stroke-linecap:butt;stroke-linejoin:miter;stroke-opacity:1"/>
<path class="bond-1 atom-1 atom-2" d="M 35.3,87.1 L 43.9,92.1" style="fill:none;fill-rule:evenodd;stroke:#FF0000;stroke-width:2.0px;stroke-linecap:butt;stroke-linejoin:miter;stroke-opacity:1"/>
<path class="bond-1 atom-1 atom-2" d="M 43.9,92.1 L 52.6,97.1" style="fill:none;fill-rule:evenodd;stroke:#000000;stroke-width:2.0px;stroke-linecap:butt;stroke-linejoin:miter;stroke-opacity:1"/>
<path class="bond-2 atom-2 atom-3" d="M 52.6,97.1 L 73.9,84.8" style="fill:none;fill-rule:evenodd;stroke:#000000;stroke-width:2.0px;stroke-linecap:butt;stroke-linejoin:miter;stroke-opacity:1"/>
<path class="bond-2 atom-2 atom-3" d="M 52.6,92.8 L 72.0,81.6" style="fill:none;fill-rule:evenodd;stroke:#000000;stroke-width:2.0px;stroke-linecap:butt;stroke-linejoin:miter;stroke-opacity:1;stroke-dasharray:6,4"/>
<path class="bond-3 atom-3 atom-4" d="M 73.9,84.8 L 95.1,97.1" style="fill:none;fill-rule:evenodd;stroke:#000000;stroke-width:2.0px;stroke-linecap:butt;stroke-linejoin:miter;stroke-opacity:1"/>
<path class="bond-3 atom-3 atom-4" d="M 73.9,89.1 L 93.3,100.3" style="fill:none;fill-rule:evenodd;stroke:#000000;stroke-width:2.0px;stroke-linecap:butt;stroke-linejoin:miter;stroke-opacity:1;stroke-dasharray:6,4"/>
<path class="bond-4 atom-4 atom-5" d="M 95.1,97.1 L 116.4,84.8" style="fill:none;fill-rule:evenodd;stroke:#000000;stroke-width:2.0px;stroke-linecap:butt;stroke-linejoin:miter;stroke-opacity:1"/>
<path class="bond-4 atom-4 atom-5" d="M 95.1,92.8 L 114.6,81.6" style="fill:none;fill-rule:evenodd;stroke:#000000;stroke-width:2.0px;stroke-linecap:butt;stroke-linejoin:miter;stroke-opacity:1;stroke-dasharray:6,4"/>
<path class="bond-5 atom-5 atom-6" d="M 116.4,84.8 L 137.7,97.1" style="fill:none;fill-rule:evenodd;stroke:#000000;stroke-width:2.0px;stroke-linecap:butt;stroke-linejoin:miter;stroke-opacity:1"/>
<path class="bond-5 atom-5 atom-6" d="M 116.4,89.1 L 135.9,100.3" style="fill:none;fill-rule:evenodd;stroke:#000000;stroke-width:2.0px;stroke-linecap:butt;stroke-linejoin:miter;stroke-opacity:1;stroke-dasharray:6,4"/>
<path class="bond-6 atom-6 atom-7" d="M 137.7,97.1 L 159.0,84.8" style="fill:none;fill-rule:evenodd;stroke:#000000;stroke-width:2.0px;stroke-linecap:butt;stroke-linejoin:miter;stroke-opacity:1"/>
<path class="bond-6 atom-6 atom-7" d="M 137.7,92.8 L 157.1,81.6" style="fill:none;fill-rule:evenodd;stroke:#000000;stroke-width:2.0px;stroke-linecap:butt;stroke-linejoin:miter;stroke-opacity:1;stroke-dasharray:6,4"/>
<path class="bond-7 atom-7 atom-8" d="M 159.0,84.8 L 167.6,89.8" style="fill:none;fill-rule:evenodd;stroke:#000000;stroke-width:2.0px;stroke-linecap:butt;stroke-linejoin:miter;stroke-opacity:1"/>
<path class="bond-7 atom-7 atom-8" d="M 167.6,89.8 L 176.3,94.8" style="fill:none;fill-rule:evenodd;stroke:#FF0000;stroke-width:2.0px;stroke-linecap:butt;stroke-linejoin:miter;stroke-opacity:1"/>
<path d="M 52.1,96.8 L 52.6,97.1 L 53.6,96.5" style="fill:none;stroke:#000000;stroke-width:2.0px;stroke-linecap:butt;stroke-linejoin:miter;stroke-opacity:1;"/>
<path d="M 72.8,85.4 L 73.9,84.8 L 74.9,85.4" style="fill:none;stroke:#000000;stroke-width:2.0px;stroke-linecap:butt;stroke-linejoin:miter;stroke-opacity:1;"/>
<path d="M 94.1,96.5 L 95.1,97.1 L 96.2,96.5" style="fill:none;stroke:#000000;stroke-width:2.0px;stroke-linecap:butt;stroke-linejoin:miter;stroke-opacity:1;"/>
<path d="M 115.4,85.4 L 116.4,84.8 L 117.5,85.4" style="fill:none;stroke:#000000;stroke-width:2.0px;stroke-linecap:butt;stroke-linejoin:miter;stroke-opacity:1;"/>
<path d="M 136.6,96.5 L 137.7,97.1 L 138.8,96.5" style="fill:none;stroke:#000000;stroke-width:2.0px;stroke-linecap:butt;stroke-linejoin:miter;stroke-opacity:1;"/>
<path d="M 157.9,85.4 L 159.0,84.8 L 159.4,85.1" style="fill:none;stroke:#000000;stroke-width:2.0px;stroke-linecap:butt;stroke-linejoin:miter;stroke-opacity:1;"/>
<path class="atom-1" d="M 28.1 84.8 Q 28.1 83.2, 28.9 82.2 Q 29.7 81.3, 31.3 81.3 Q 32.8 81.3, 33.7 82.2 Q 34.5 83.2, 34.5 84.8 Q 34.5 86.5, 33.6 87.5 Q 32.8 88.4, 31.3 88.4 Q 29.8 88.4, 28.9 87.5 Q 28.1 86.5, 28.1 84.8 M 31.3 87.6 Q 32.3 87.6, 32.9 86.9 Q 33.5 86.2, 33.5 84.8 Q 33.5 83.5, 32.9 82.8 Q 32.3 82.1, 31.3 82.1 Q 30.2 82.1, 29.6 82.8 Q 29.1 83.4, 29.1 84.8 Q 29.1 86.2, 29.6 86.9 Q 30.2 87.6, 31.3 87.6 " fill="#FF0000"/>
<path class="atom-8" d="M 177.1 97.1 Q 177.1 95.4, 177.9 94.5 Q 178.7 93.6, 180.3 93.6 Q 181.8 93.6, 182.6 94.5 Q 183.5 95.4, 183.5 97.1 Q 183.5 98.8, 182.6 99.8 Q 181.8 100.7, 180.3 100.7 Q 178.7 100.7, 177.9 99.8 Q 177.1 98.8, 177.1 97.1 M 180.3 99.9 Q 181.3 99.9, 181.9 99.2 Q 182.5 98.5, 182.5 97.1 Q 182.5 95.7, 181.9 95.1 Q 181.3 94.4, 180.3 94.4 Q 179.2 94.4, 178.6 95.0 Q 178.1 95.7, 178.1 97.1 Q 178.1 98.5, 178.6 99.2 Q 179.2 99.9, 180.3 99.9 " fill="#FF0000"/>
<path class="atom-8" d="M 184.6 93.6 L 185.5 93.6 L 185.5 96.6 L 189.1 96.6 L 189.1 93.6 L 190.0 93.6 L 190.0 100.6 L 189.1 100.6 L 189.1 97.4 L 185.5 97.4 L 185.5 100.6 L 184.6 100.6 L 184.6 93.6 " fill="#FF0000"/>
<path class="legend" d="M 103.4 190.0 L 102.2 186.7 L 97.8 186.7 L 96.6 190.0 L 95.1 190.0 L 99.0 178.7 L 100.9 178.7 L 104.9 190.0 L 103.4 190.0 M 98.2 185.4 L 101.8 185.4 L 100.0 180.3 L 98.2 185.4 " fill="#000000"/>
</svg>