<svg xmlns="http://www.w3.org/2000/svg" xmlns:rdkit="http://www.rdkit.org/xml" xmlns:xlink="http://www.w3.org/1999/xlink" version="1.1" baseProfile="full" xml:space="preserve" width="800px" height="200px" viewBox="0 0 800 200">
<!-- END OF HEADER -->
<rect style="opacity:1.0;fill:#FFFFFF;stroke:none" width="800.0" height="200.0" x="0.0" y="0.0"> </rect>
<path class="bond-0 atom-0 atom-1" d="M 123.7,46.9 L 120.3,56.8" style="fill:none;fill-rule:evenodd;stroke:#FF0000;stroke-width:2.0px;stroke-linecap:butt;stroke-linejoin:miter;stroke-opacity:1"/>
<path class="bond-0 atom-0 atom-1" d="M 120.3,56.8 L 116.8,66.8" style="fill:none;fill-rule:evenodd;stroke:#000000;stroke-width:2.0px;stroke-linecap:butt;stroke-linejoin:miter;stroke-opacity:1"/>
<path class="bond-0 atom-0 atom-1" d="M 120.2,45.6 L 116.8,55.6" style="fill:none;fill-rule:evenodd;stroke:#FF0000;stroke-width:2.0px;stroke-linecap:butt;stroke-linejoin:miter;stroke-opacity:1"/>
<path class="bond-0 atom-0 atom-1" d="M 116.8,55.6 L 113.3,65.6" style="fill:none;fill-rule:evenodd;stroke:#000000;stroke-width:2.0px;stroke-linecap:butt;stroke-linejoin:miter;stroke-opacity:1"/>
<path class="bond-1 atom-1 atom-2" d="M 115.4,65.2 L 91.1,69.8" style="fill:none;fill-rule:evenodd;stroke:#000000;stroke-width:2.0px;stroke-linecap:butt;stroke-linejoin:miter;stroke-opacity:1"/>
<path class="bond-2 atom-2 atom-3" d="M 91.1,69.8 L 84.9,62.7" style="fill:none;fill-rule:evenodd;stroke:#000000;stroke-width:2.0px;stroke-linecap:butt;stroke-linejoin:miter;stroke-opacity:1"/>
<path class="bond-2 atom-2 atom-3" d="M 84.9,62.7 L 78.8,55.6" style="fill:none;fill-rule:evenodd;stroke:#FF0000;stroke-width:2.0px;stroke-linecap:butt;stroke-linejoin:miter;stroke-opacity:1"/>
<path class="bond-3 atom-2 atom-4" d="M 91.1,69.8 L 83.0,93.2" style="fill:none;fill-rule:evenodd;stroke:#000000;stroke-width:2.0px;stroke-linecap:butt;stroke-linejoin:miter;stroke-opacity:1"/>
<path class="bond-3 atom-2 atom-4" d="M 93.9,73.1 L 87.2,92.4" style="fill:none;fill-rule:evenodd;stroke:#000000;stroke-width:2.0px;stroke-linecap:butt;stroke-linejoin:miter;stroke-opacity:1"/>
<path class="bond-4 atom-4 atom-5" d="M 83.0,93.2 L 58.6,97.9" style="fill:none;fill-rule:evenodd;stroke:#000000;stroke-width:2.0px;stroke-linecap:butt;stroke-linejoin:miter;stroke-opacity:1"/>
<path class="bond-5 atom-5 atom-6" d="M 58.6,97.9 L 42.4,79.2" style="fill:none;fill-rule:evenodd;stroke:#000000;stroke-width:2.0px;stroke-linecap:butt;stroke-linejoin:miter;stroke-opacity:1"/>
<path class="bond-5 atom-5 atom-6" d="M 54.4,98.7 L 41.0,83.2" style="fill:none;fill-rule:evenodd;stroke:#000000;stroke-width:2.0px;stroke-linecap:butt;stroke-linejoin:miter;stroke-opacity:1"/>
<path class="bond-6 atom-6 atom-7" d="M 42.4,79.2 L 18.1,83.8" style="fill:none;fill-rule:evenodd;stroke:#000000;stroke-width:2.0px;stroke-linecap:butt;stroke-linejoin:miter;stroke-opacity:1"/>
<path class="bond-7 atom-7 atom-8" d="M 18.1,83.8 L 10.0,107.2" style="fill:none;fill-rule:evenodd;stroke:#000000;stroke-width:2.0px;stroke-linecap:butt;stroke-linejoin:miter;stroke-opacity:1"/>
<path class="bond-7 atom-7 atom-8" d="M 20.9,87.1 L 14.2,106.4" style="fill:none;fill-rule:evenodd;stroke:#000000;stroke-width:2.0px;stroke-linecap:butt;stroke-linejoin:miter;stroke-opacity:1"/>
<path class="bond-8 atom-8 atom-9" d="M 10.0,107.2 L 26.2,126.0" style="fill:none;fill-rule:evenodd;stroke:#000000;stroke-width:2.0px;stroke-linecap:butt;stroke-linejoin:miter;stroke-opacity:1"/>
<path class="bond-9 atom-9 atom-10" d="M 26.2,126.0 L 50.5,121.3" style="fill:none;fill-rule:evenodd;stroke:#000000;stroke-width:2.0px;stroke-linecap:butt;stroke-linejoin:miter;stroke-opacity:1"/>
<path class="bond-9 atom-9 atom-10" d="M 27.6,121.9 L 47.7,118.1" style="fill:none;fill-rule:evenodd;stroke:#000000;stroke-width:2.0px;stroke-linecap:butt;stroke-linejoin:miter;stroke-opacity:1"/>
<path class="bond-10 atom-4 atom-11" d="M 83.0,93.2 L 89.2,100.4" style="fill:none;fill-rule:evenodd;stroke:#000000;stroke-width:2.0px;stroke-linecap:butt;stroke-linejoin:miter;stroke-opacity:1"/>
<path class="bond-10 atom-4 atom-11" d="M 89.2,100.4 L 95.4,107.6" style="fill:none;fill-rule:evenodd;stroke:#FF0000;stroke-width:2.0px;stroke-linecap:butt;stroke-linejoin:miter;stroke-opacity:1"/>
<path class="bond-11 atom-11 atom-12" d="M 103.2,111.2 L 113.3,109.3" style="fill:none;fill-rule:evenodd;stroke:#FF0000;stroke-width:2.0px;stroke-linecap:butt;stroke-linejoin:miter;stroke-opacity:1"/>
<path class="bond-11 atom-11 atom-12" d="M 113.3,109.3 L 123.5,107.3" style="fill:none;fill-rule:evenodd;stroke:#000000;stroke-width:2.0px;stroke-linecap:butt;stroke-linejoin:miter;stroke-opacity:1"/>
<path class="bond-12 atom-12 atom-13" d="M 123.5,107.3 L 139.7,126.0" style="fill:none;fill-rule:evenodd;stroke:#000000;stroke-width:2.0px;stroke-linecap:butt;stroke-linejoin:miter;stroke-opacity:1"/>
<path class="bond-12 atom-12 atom-13" d="M 127.7,106.5 L 141.1,122.0" style="fill:none;fill-rule:evenodd;stroke:#000000;stroke-width:2.0px;stroke-linecap:butt;stroke-linejoin:miter;stroke-opacity:1"/>
<path class="bond-13 atom-13 atom-14" d="M 139.7,126.0 L 164.0,121.4" style="fill:none;fill-rule:evenodd;stroke:#000000;stroke-width:2.0px;stroke-linecap:butt;stroke-linejoin:miter;stroke-opacity:1"/>
<path class="bond-14 atom-14 atom-15" d="M 164.0,121.4 L 170.2,128.6" style="fill:none;fill-rule:evenodd;stroke:#000000;stroke-width:2.0px;stroke-linecap:butt;stroke-linejoin:miter;stroke-opacity:1"/>
<path class="bond-14 atom-14 atom-15" d="M 170.2,128.6 L 176.4,135.7" style="fill:none;fill-rule:evenodd;stroke:#FF0000;stroke-width:2.0px;stroke-linecap:butt;stroke-linejoin:miter;stroke-opacity:1"/>
<path class="bond-15 atom-14 atom-16" d="M 164.0,121.4 L 172.1,98.0" style="fill:none;fill-rule:evenodd;stroke:#000000;stroke-width:2.0px;stroke-linecap:butt;stroke-linejoin:miter;stroke-opacity:1"/>
<path class="bond-15 atom-14 atom-16" d="M 161.2,118.1 L 167.9,98.8" style="fill:none;fill-rule:evenodd;stroke:#000000;stroke-width:2.0px;stroke-linecap:butt;stroke-linejoin:miter;stroke-opacity:1"/>
<path class="bond-16 atom-16 atom-17" d="M 172.1,98.0 L 155.9,79.2" style="fill:none;fill-rule:evenodd;stroke:#000000;stroke-width:2.0px;stroke-linecap:butt;stroke-linejoin:miter;stroke-opacity:1"/>
<path class="bond-17 atom-17 atom-18" d="M 155.9,79.2 L 159.2,69.8" style="fill:none;fill-rule:evenodd;stroke:#000000;stroke-width:2.0px;stroke-linecap:butt;stroke-linejoin:miter;stroke-opacity:1"/>
<path class="bond-17 atom-17 atom-18" d="M 159.2,69.8 L 162.5,60.3" style="fill:none;fill-rule:evenodd;stroke:#FF0000;stroke-width:2.0px;stroke-linecap:butt;stroke-linejoin:miter;stroke-opacity:1"/>
<path class="bond-18 atom-17 atom-19" d="M 155.9,79.2 L 131.6,83.9" style="fill:none;fill-rule:evenodd;stroke:#000000;stroke-width:2.0px;stroke-linecap:butt;stroke-linejoin:miter;stroke-opacity:1"/>
<path class="bond-18 atom-17 atom-19" d="M 154.5,83.3 L 134.4,87.2" style="fill:none;fill-rule:evenodd;stroke:#000000;stroke-width:2.0px;stroke-linecap:butt;stroke-linejoin:miter;stroke-opacity:1"/>
<path class="bond-19 atom-19 atom-1" d="M 131.6,83.9 L 115.4,65.2" style="fill:none;fill-rule:evenodd;stroke:#000000;stroke-width:2.0px;stroke-linecap:butt;stroke-linejoin:miter;stroke-opacity:1"/>
<path class="bond-20 atom-10 atom-5" d="M 50.5,121.3 L 58.6,97.9" style="fill:none;fill-rule:evenodd;stroke:#000000;stroke-width:2.0px;stroke-linecap:butt;stroke-linejoin:miter;stroke-opacity:1"/>
<path class="bond-21 atom-19 atom-12" d="M 131.6,83.9 L 123.5,107.3" style="fill:none;fill-rule:evenodd;stroke:#000000;stroke-width:2.0px;stroke-linecap:butt;stroke-linejoin:miter;stroke-opacity:1"/>
<path d="M 114.2,65.4 L 115.4,65.2 L 116.2,66.1" style="fill:none;stroke:#000000;stroke-width:2.0px;stroke-linecap:butt;stroke-linejoin:miter;stroke-opacity:1;"/>
<path d="M 43.3,80.1 L 42.4,79.2 L 41.2,79.4" style="fill:none;stroke:#000000;stroke-width:2.0px;stroke-linecap:butt;stroke-linejoin:miter;stroke-opacity:1;"/>
<path d="M 19.3,83.6 L 18.1,83.8 L 17.7,85.0" style="fill:none;stroke:#000000;stroke-width:2.0px;stroke-linecap:butt;stroke-linejoin:miter;stroke-opacity:1;"/>
<path d="M 10.4,106.1 L 10.0,107.2 L 10.8,108.2" style="fill:none;stroke:#000000;stroke-width:2.0px;stroke-linecap:butt;stroke-linejoin:miter;stroke-opacity:1;"/>
<path d="M 25.4,125.0 L 26.2,126.0 L 27.4,125.7" style="fill:none;stroke:#000000;stroke-width:2.0px;stroke-linecap:butt;stroke-linejoin:miter;stroke-opacity:1;"/>
<path d="M 49.3,121.5 L 50.5,121.3 L 50.9,120.1" style="fill:none;stroke:#000000;stroke-width:2.0px;stroke-linecap:butt;stroke-linejoin:miter;stroke-opacity:1;"/>
<path d="M 138.9,125.1 L 139.7,126.0 L 140.9,125.8" style="fill:none;stroke:#000000;stroke-width:2.0px;stroke-linecap:butt;stroke-linejoin:miter;stroke-opacity:1;"/>
<path d="M 171.7,99.1 L 172.1,98.0 L 171.3,97.0" style="fill:none;stroke:#000000;stroke-width:2.0px;stroke-linecap:butt;stroke-linejoin:miter;stroke-opacity:1;"/>
<path class="atom-0" d="M 120.3 41.8 Q 120.3 40.1, 121.1 39.2 Q 122.0 38.2, 123.5 38.2 Q 125.1 38.2, 125.9 39.2 Q 126.7 40.1, 126.7 41.8 Q 126.7 43.5, 125.9 44.5 Q 125.1 45.4, 123.5 45.4 Q 122.0 45.4, 121.1 44.5 Q 120.3 43.5, 120.3 41.8 M 123.5 44.6 Q 124.6 44.6, 125.2 43.9 Q 125.8 43.2, 125.8 41.8 Q 125.8 40.4, 125.2 39.7 Q 124.6 39.0, 123.5 39.0 Q 122.5 39.0, 121.9 39.7 Q 121.3 40.4, 121.3 41.8 Q 121.3 43.2, 121.9 43.9 Q 122.5 44.6, 123.5 44.6 " fill="#FF0000"/>
<path class="atom-3" d="M 64.7 47.6 L 65.7 47.6 L 65.7 50.6 L 69.3 50.6 L 69.3 47.6 L 70.2 47.6 L 70.2 54.7 L 69.3 54.7 L 69.3 51.4 L 65.7 51.4 L 65.7 54.7 L 64.7 54.7 L 64.7 47.6 " fill="#FF0000"/>
<path class="atom-3" d="M 71.7 51.1 Q 71.7 49.4, 72.5 48.5 Q 73.3 47.6, 74.9 47.6 Q 76.4 47.6, 77.3 48.5 Q 78.1 49.4, 78.1 51.1 Q 78.1 52.8, 77.3 53.8 Q 76.4 54.8, 74.9 54.8 Q 73.3 54.8, 72.5 53.8 Q 71.7 52.8, 71.7 51.1 M 74.9 54.0 Q 76.0 54.0, 76.5 53.3 Q 77.1 52.5, 77.1 51.1 Q 77.1 49.8, 76.5 49.1 Q 76.0 48.4, 74.9 48.4 Q 73.8 48.4, 73.2 49.1 Q 72.7 49.7, 72.7 51.1 Q 72.7 52.5, 73.2 53.3 Q 73.8 54.0, 74.9 54.0 " fill="#FF0000"/>
<path class="atom-11" d="M 95.9 112.0 Q 95.9 110.3, 96.8 109.4 Q 97.6 108.4, 99.2 108.4 Q 100.7 108.4, 101.5 109.4 Q 102.4 110.3, 102.4 112.0 Q 102.4 113.7, 101.5 114.7 Q 100.7 115.6, 99.2 115.6 Q 97.6 115.6, 96.8 114.7 Q 95.9 113.7, 95.9 112.0 M 99.2 114.8 Q 100.2 114.8, 100.8 114.1 Q 101.4 113.4, 101.4 112.0 Q 101.4 110.6, 100.8 109.9 Q 100.2 109.2, 99.2 109.2 Q 98.1 109.2, 97.5 109.9 Q 96.9 110.6, 96.9 112.0 Q 96.9 113.4, 97.5 114.1 Q 98.1 114.8, 99.2 114.8 " fill="#FF0000"/>
<path class="atom-15" d="M 177.0 140.1 Q 177.0 138.4, 177.8 137.5 Q 178.6 136.6, 180.2 136.6 Q 181.8 136.6, 182.6 137.5 Q 183.4 138.4, 183.4 140.1 Q 183.4 141.8, 182.6 142.8 Q 181.7 143.8, 180.2 143.8 Q 178.7 143.8, 177.8 142.8 Q 177.0 141.8, 177.0 140.1 M 180.2 143.0 Q 181.3 143.0, 181.8 142.3 Q 182.4 141.5, 182.4 140.1 Q 182.4 138.7, 181.8 138.1 Q 181.3 137.4, 180.2 137.4 Q 179.1 137.4, 178.5 138.0 Q 178.0 138.7, 178.0 140.1 Q 178.0 141.5, 178.5 142.3 Q 179.1 143.0, 180.2 143.0 " fill="#FF0000"/>
<path class="atom-15" d="M 184.5 136.6 L 185.5 136.6 L 185.5 139.6 L 189.0 139.6 L 189.0 136.6 L 190.0 136.6 L 190.0 143.7 L 189.0 143.7 L 189.0 140.4 L 185.5 140.4 L 185.5 143.7 L 184.5 143.7 L 184.5 136.6 " fill="#FF0000"/>
<path class="atom-18" d="M 160.8 55.9 Q 160.8 54.2, 161.7 53.2 Q 162.5 52.3, 164.0 52.3 Q 165.6 52.3, 166.4 53.2 Q 167.3 54.2, 167.3 55.9 Q 167.3 57.6, 166.4 58.5 Q 165.6 59.5, 164.0 59.5 Q 162.5 59.5, 161.7 58.5 Q 160.8 57.6, 160.8 55.9 M 164.0 58.7 Q 165.1 58.7, 165.7 58.0 Q 166.3 57.3, 166.3 55.9 Q 166.3 54.5, 165.7 53.8 Q 165.1 53.1, 164.0 53.1 Q 163.0 53.1, 162.4 53.8 Q 161.8 54.5, 161.8 55.9 Q 161.8 57.3, 162.4 58.0 Q 163.0 58.7, 164.0 58.7 " fill="#FF0000"/>
<path class="atom-18" d="M 168.4 52.4 L 169.3 52.4 L 169.3 55.4 L 172.9 55.4 L 172.9 52.4 L 173.8 52.4 L 173.8 59.4 L 172.9 59.4 L 172.9 56.2 L 169.3 56.2 L 169.3 59.4 L 168.4 59.4 L 168.4 52.4 " fill="#FF0000"/>
<path class="legend" d="M 103.4 190.0 L 102.2 186.7 L 97.8 186.7 L 96.6 190.0 L 95.1 190.0 L 99.0 178.7 L 100.9 178.7 L 104.9 190.0 L 103.4 190.0 M 98.2 185.4 L 101.8 185.4 L 100.0 180.3 L 98.2 185.4 " fill="#000000"/>
</svg>