<svg xmlns="http://www.w3.org/2000/svg" xmlns:rdkit="http://www.rdkit.org/xml" xmlns:xlink="http://www.w3.org/1999/xlink" version="1.1" baseProfile="full" xml:space="preserve" width="800px" height="200px" viewBox="0 0 800 200">
<!-- END OF HEADER -->
<rect style="opacity:1.0;fill:#FFFFFF;stroke:none" width="800.0" height="200.0" x="0.0" y="0.0"> </rect>
<path class="bond-0 atom-0 atom-1" d="M 68.8,85.7 L 86.8,75.3" style="fill:none;fill-rule:evenodd;stroke:#000000;stroke-width:2.0px;stroke-linecap:butt;stroke-linejoin:miter;stroke-opacity:1"/>
<path class="bond-1 atom-1 atom-2" d="M 86.8,75.3 L 104.9,85.7" style="fill:none;fill-rule:evenodd;stroke:#000000;stroke-width:2.0px;stroke-linecap:butt;stroke-linejoin:miter;stroke-opacity:1"/>
<path class="bond-2 atom-2 atom-3" d="M 103.3,84.8 L 103.3,93.9" style="fill:none;fill-rule:evenodd;stroke:#000000;stroke-width:2.0px;stroke-linecap:butt;stroke-linejoin:miter;stroke-opacity:1"/>
<path class="bond-2 atom-2 atom-3" d="M 103.3,93.9 L 103.3,102.9" style="fill:none;fill-rule:evenodd;stroke:#FF0000;stroke-width:2.0px;stroke-linecap:butt;stroke-linejoin:miter;stroke-opacity:1"/>
<path class="bond-2 atom-2 atom-3" d="M 106.5,84.8 L 106.5,93.9" style="fill:none;fill-rule:evenodd;stroke:#000000;stroke-width:2.0px;stroke-linecap:butt;stroke-linejoin:miter;stroke-opacity:1"/>
<path class="bond-2 atom-2 atom-3" d="M 106.5,93.9 L 106.5,102.9" style="fill:none;fill-rule:evenodd;stroke:#FF0000;stroke-width:2.0px;stroke-linecap:butt;stroke-linejoin:miter;stroke-opacity:1"/>
<path class="bond-3 atom-2 atom-4" d="M 104.9,85.7 L 112.2,81.5" style="fill:none;fill-rule:evenodd;stroke:#000000;stroke-width:2.0px;stroke-linecap:butt;stroke-linejoin:miter;stroke-opacity:1"/>
<path class="bond-3 atom-2 atom-4" d="M 112.2,81.5 L 119.6,77.3" style="fill:none;fill-rule:evenodd;stroke:#FF0000;stroke-width:2.0px;stroke-linecap:butt;stroke-linejoin:miter;stroke-opacity:1"/>
<path d="M 85.9,75.8 L 86.8,75.3 L 87.7,75.8" style="fill:none;stroke:#000000;stroke-width:2.0px;stroke-linecap:butt;stroke-linejoin:miter;stroke-opacity:1;"/>
<path d="M 104.0,85.2 L 104.9,85.7 L 105.3,85.5" style="fill:none;stroke:#000000;stroke-width:2.0px;stroke-linecap:butt;stroke-linejoin:miter;stroke-opacity:1;"/>
<path class="atom-3" d="M 102.2 106.6 Q 102.2 105.2, 102.9 104.4 Q 103.6 103.6, 104.9 103.6 Q 106.2 103.6, 106.9 104.4 Q 107.6 105.2, 107.6 106.6 Q 107.6 108.1, 106.9 108.9 Q 106.2 109.7, 104.9 109.7 Q 103.6 109.7, 102.9 108.9 Q 102.2 108.1, 102.2 106.6 M 104.9 109.0 Q 105.8 109.0, 106.3 108.4 Q 106.8 107.8, 106.8 106.6 Q 106.8 105.5, 106.3 104.9 Q 105.8 104.3, 104.9 104.3 Q 104.0 104.3, 103.5 104.9 Q 103.0 105.4, 103.0 106.6 Q 103.0 107.8, 103.5 108.4 Q 104.0 109.0, 104.9 109.0 " fill="#FF0000"/>
<path class="atom-4" d="M 120.3 75.3 Q 120.3 73.9, 121.0 73.1 Q 121.7 72.3, 123.0 72.3 Q 124.3 72.3, 125.0 73.1 Q 125.7 73.9, 125.7 75.3 Q 125.7 76.8, 125.0 77.6 Q 124.3 78.4, 123.0 78.4 Q 121.7 78.4, 121.0 77.6 Q 120.3 76.8, 120.3 75.3 M 123.0 77.7 Q 123.9 77.7, 124.4 77.1 Q 124.9 76.5, 124.9 75.3 Q 124.9 74.2, 124.4 73.6 Q 123.9 73.0, 123.0 73.0 Q 122.1 73.0, 121.6 73.6 Q 121.1 74.2, 121.1 75.3 Q 121.1 76.5, 121.6 77.1 Q 122.1 77.7, 123.0 77.7 " fill="#FF0000"/>
<path class="atom-4" d="M 126.6 72.4 L 127.4 72.4 L 127.4 74.9 L 130.4 74.9 L 130.4 72.4 L 131.2 72.4 L 131.2 78.3 L 130.4 78.3 L 130.4 75.6 L 127.4 75.6 L 127.4 78.3 L 126.6 78.3 L 126.6 72.4 " fill="#FF0000"/>
<path class="legend" d="M 103.4 190.0 L 102.2 186.7 L 97.8 186.7 L 96.6 190.0 L 95.1 190.0 L 99.0 178.7 L 100.9 178.7 L 104.9 190.0 L 103.4 190.0 M 98.2 185.4 L 101.8 185.4 L 100.0 180.3 L 98.2 185.4 " fill="#000000"/>
<path class="bond-0 atom-0 atom-1" d="M 221.9,83.9 L 230.5,85.3" style="fill:none;fill-rule:evenodd;stroke:#FF0000;stroke-width:2.0px;stroke-linecap:butt;stroke-linejoin:miter;stroke-opacity:1"/>
<path class="bond-0 atom-0 atom-1" d="M 230.5,85.3 L 239.1,86.7" style="fill:none;fill-rule:evenodd;stroke:#000000;stroke-width:2.0px;stroke-linecap:butt;stroke-linejoin:miter;stroke-opacity:1"/>
<path class="bond-1 atom-1 atom-2" d="M 239.1,86.7 L 252.4,70.6" style="fill:none;fill-rule:evenodd;stroke:#000000;stroke-width:2.0px;stroke-linecap:butt;stroke-linejoin:miter;stroke-opacity:1"/>
<path class="bond-1 atom-1 atom-2" d="M 242.7,87.3 L 253.6,73.9" style="fill:none;fill-rule:evenodd;stroke:#000000;stroke-width:2.0px;stroke-linecap:butt;stroke-linejoin:miter;stroke-opacity:1"/>
<path class="bond-2 atom-2 atom-3" d="M 252.4,70.6 L 272.9,74.0" style="fill:none;fill-rule:evenodd;stroke:#000000;stroke-width:2.0px;stroke-linecap:butt;stroke-linejoin:miter;stroke-opacity:1"/>
<path class="bond-3 atom-3 atom-4" d="M 272.9,74.0 L 280.3,93.5" style="fill:none;fill-rule:evenodd;stroke:#000000;stroke-width:2.0px;stroke-linecap:butt;stroke-linejoin:miter;stroke-opacity:1"/>
<path class="bond-3 atom-3 atom-4" d="M 270.7,76.8 L 276.7,92.9" style="fill:none;fill-rule:evenodd;stroke:#000000;stroke-width:2.0px;stroke-linecap:butt;stroke-linejoin:miter;stroke-opacity:1"/>
<path class="bond-4 atom-4 atom-5" d="M 280.3,93.5 L 300.9,96.9" style="fill:none;fill-rule:evenodd;stroke:#000000;stroke-width:2.0px;stroke-linecap:butt;stroke-linejoin:miter;stroke-opacity:1"/>
<path class="bond-5 atom-5 atom-6" d="M 300.9,96.9 L 308.2,116.4" style="fill:none;fill-rule:evenodd;stroke:#000000;stroke-width:2.0px;stroke-linecap:butt;stroke-linejoin:miter;stroke-opacity:1"/>
<path class="bond-6 atom-6 atom-7" d="M 308.2,116.4 L 328.8,119.8" style="fill:none;fill-rule:evenodd;stroke:#000000;stroke-width:2.0px;stroke-linecap:butt;stroke-linejoin:miter;stroke-opacity:1"/>
<path class="bond-7 atom-7 atom-8" d="M 328.8,119.8 L 342.0,103.7" style="fill:none;fill-rule:evenodd;stroke:#000000;stroke-width:2.0px;stroke-linecap:butt;stroke-linejoin:miter;stroke-opacity:1"/>
<path class="bond-8 atom-8 atom-9" d="M 342.0,103.7 L 362.6,107.1" style="fill:none;fill-rule:evenodd;stroke:#000000;stroke-width:2.0px;stroke-linecap:butt;stroke-linejoin:miter;stroke-opacity:1"/>
<path class="bond-8 atom-8 atom-9" d="M 344.3,100.9 L 361.4,103.7" style="fill:none;fill-rule:evenodd;stroke:#000000;stroke-width:2.0px;stroke-linecap:butt;stroke-linejoin:miter;stroke-opacity:1"/>
<path class="bond-9 atom-9 atom-10" d="M 362.6,107.1 L 365.6,115.0" style="fill:none;fill-rule:evenodd;stroke:#000000;stroke-width:2.0px;stroke-linecap:butt;stroke-linejoin:miter;stroke-opacity:1"/>
<path class="bond-9 atom-9 atom-10" d="M 365.6,115.0 L 368.6,122.9" style="fill:none;fill-rule:evenodd;stroke:#FF0000;stroke-width:2.0px;stroke-linecap:butt;stroke-linejoin:miter;stroke-opacity:1"/>
<path class="bond-10 atom-9 atom-11" d="M 362.6,107.1 L 375.9,91.0" style="fill:none;fill-rule:evenodd;stroke:#000000;stroke-width:2.0px;stroke-linecap:butt;stroke-linejoin:miter;stroke-opacity:1"/>
<path class="bond-11 atom-11 atom-12" d="M 375.9,91.0 L 368.5,71.4" style="fill:none;fill-rule:evenodd;stroke:#000000;stroke-width:2.0px;stroke-linecap:butt;stroke-linejoin:miter;stroke-opacity:1"/>
<path class="bond-11 atom-11 atom-12" d="M 372.3,90.4 L 366.2,74.2" style="fill:none;fill-rule:evenodd;stroke:#000000;stroke-width:2.0px;stroke-linecap:butt;stroke-linejoin:miter;stroke-opacity:1"/>
<path class="bond-12 atom-12 atom-13" d="M 368.5,71.4 L 373.6,65.3" style="fill:none;fill-rule:evenodd;stroke:#000000;stroke-width:2.0px;stroke-linecap:butt;stroke-linejoin:miter;stroke-opacity:1"/>
<path class="bond-12 atom-12 atom-13" d="M 373.6,65.3 L 378.7,59.1" style="fill:none;fill-rule:evenodd;stroke:#FF0000;stroke-width:2.0px;stroke-linecap:butt;stroke-linejoin:miter;stroke-opacity:1"/>
<path class="bond-13 atom-12 atom-14" d="M 368.5,71.4 L 347.9,68.0" style="fill:none;fill-rule:evenodd;stroke:#000000;stroke-width:2.0px;stroke-linecap:butt;stroke-linejoin:miter;stroke-opacity:1"/>
<path class="bond-14 atom-14 atom-15" d="M 347.9,68.0 L 334.7,84.2" style="fill:none;fill-rule:evenodd;stroke:#000000;stroke-width:2.0px;stroke-linecap:butt;stroke-linejoin:miter;stroke-opacity:1"/>
<path class="bond-14 atom-14 atom-15" d="M 349.2,71.4 L 338.3,84.7" style="fill:none;fill-rule:evenodd;stroke:#000000;stroke-width:2.0px;stroke-linecap:butt;stroke-linejoin:miter;stroke-opacity:1"/>
<path class="bond-15 atom-15 atom-16" d="M 334.7,84.2 L 326.1,82.7" style="fill:none;fill-rule:evenodd;stroke:#000000;stroke-width:2.0px;stroke-linecap:butt;stroke-linejoin:miter;stroke-opacity:1"/>
<path class="bond-15 atom-15 atom-16" d="M 326.1,82.7 L 317.5,81.3" style="fill:none;fill-rule:evenodd;stroke:#FF0000;stroke-width:2.0px;stroke-linecap:butt;stroke-linejoin:miter;stroke-opacity:1"/>
<path class="bond-16 atom-4 atom-17" d="M 280.3,93.5 L 267.1,109.6" style="fill:none;fill-rule:evenodd;stroke:#000000;stroke-width:2.0px;stroke-linecap:butt;stroke-linejoin:miter;stroke-opacity:1"/>
<path class="bond-17 atom-17 atom-18" d="M 267.1,109.6 L 246.5,106.2" style="fill:none;fill-rule:evenodd;stroke:#000000;stroke-width:2.0px;stroke-linecap:butt;stroke-linejoin:miter;stroke-opacity:1"/>
<path class="bond-17 atom-17 atom-18" d="M 265.8,106.2 L 248.8,103.4" style="fill:none;fill-rule:evenodd;stroke:#000000;stroke-width:2.0px;stroke-linecap:butt;stroke-linejoin:miter;stroke-opacity:1"/>
<path class="bond-18 atom-18 atom-1" d="M 246.5,106.2 L 239.1,86.7" style="fill:none;fill-rule:evenodd;stroke:#000000;stroke-width:2.0px;stroke-linecap:butt;stroke-linejoin:miter;stroke-opacity:1"/>
<path class="bond-19 atom-16 atom-5" d="M 311.0,84.5 L 305.9,90.7" style="fill:none;fill-rule:evenodd;stroke:#FF0000;stroke-width:2.0px;stroke-linecap:butt;stroke-linejoin:miter;stroke-opacity:1"/>
<path class="bond-19 atom-16 atom-5" d="M 305.9,90.7 L 300.9,96.9" style="fill:none;fill-rule:evenodd;stroke:#000000;stroke-width:2.0px;stroke-linecap:butt;stroke-linejoin:miter;stroke-opacity:1"/>
<path class="bond-20 atom-15 atom-8" d="M 334.7,84.2 L 342.0,103.7" style="fill:none;fill-rule:evenodd;stroke:#000000;stroke-width:2.0px;stroke-linecap:butt;stroke-linejoin:miter;stroke-opacity:1"/>
<path d="M 251.7,71.4 L 252.4,70.6 L 253.4,70.7" style="fill:none;stroke:#000000;stroke-width:2.0px;stroke-linecap:butt;stroke-linejoin:miter;stroke-opacity:1;"/>
<path d="M 271.9,73.8 L 272.9,74.0 L 273.3,74.9" style="fill:none;stroke:#000000;stroke-width:2.0px;stroke-linecap:butt;stroke-linejoin:miter;stroke-opacity:1;"/>
<path d="M 307.9,115.4 L 308.2,116.4 L 309.3,116.6" style="fill:none;stroke:#000000;stroke-width:2.0px;stroke-linecap:butt;stroke-linejoin:miter;stroke-opacity:1;"/>
<path d="M 327.8,119.6 L 328.8,119.8 L 329.5,119.0" style="fill:none;stroke:#000000;stroke-width:2.0px;stroke-linecap:butt;stroke-linejoin:miter;stroke-opacity:1;"/>
<path d="M 375.2,91.8 L 375.9,91.0 L 375.5,90.0" style="fill:none;stroke:#000000;stroke-width:2.0px;stroke-linecap:butt;stroke-linejoin:miter;stroke-opacity:1;"/>
<path d="M 349.0,68.2 L 347.9,68.0 L 347.3,68.8" style="fill:none;stroke:#000000;stroke-width:2.0px;stroke-linecap:butt;stroke-linejoin:miter;stroke-opacity:1;"/>
<path d="M 267.7,108.8 L 267.1,109.6 L 266.0,109.4" style="fill:none;stroke:#000000;stroke-width:2.0px;stroke-linecap:butt;stroke-linejoin:miter;stroke-opacity:1;"/>
<path d="M 247.5,106.4 L 246.5,106.2 L 246.1,105.2" style="fill:none;stroke:#000000;stroke-width:2.0px;stroke-linecap:butt;stroke-linejoin:miter;stroke-opacity:1;"/>
<path class="atom-0" d="M 210.0 80.4 L 210.8 80.4 L 210.8 82.9 L 213.8 82.9 L 213.8 80.4 L 214.6 80.4 L 214.6 86.3 L 213.8 86.3 L 213.8 83.6 L 210.8 83.6 L 210.8 86.3 L 210.0 86.3 L 210.0 80.4 " fill="#FF0000"/>
<path class="atom-0" d="M 215.8 83.3 Q 215.8 81.9, 216.5 81.1 Q 217.2 80.3, 218.5 80.3 Q 219.9 80.3, 220.6 81.1 Q 221.3 81.9, 221.3 83.3 Q 221.3 84.7, 220.5 85.6 Q 219.8 86.4, 218.5 86.4 Q 217.2 86.4, 216.5 85.6 Q 215.8 84.8, 215.8 83.3 M 218.5 85.7 Q 219.4 85.7, 219.9 85.1 Q 220.4 84.5, 220.4 83.3 Q 220.4 82.2, 219.9 81.6 Q 219.4 81.0, 218.5 81.0 Q 217.6 81.0, 217.2 81.6 Q 216.7 82.1, 216.7 83.3 Q 216.7 84.5, 217.2 85.1 Q 217.6 85.7, 218.5 85.7 " fill="#FF0000"/>
<path class="atom-10" d="M 367.3 126.6 Q 367.3 125.2, 368.0 124.4 Q 368.7 123.6, 370.0 123.6 Q 371.3 123.6, 372.0 124.4 Q 372.7 125.2, 372.7 126.6 Q 372.7 128.1, 372.0 128.9 Q 371.3 129.7, 370.0 129.7 Q 368.7 129.7, 368.0 128.9 Q 367.3 128.1, 367.3 126.6 M 370.0 129.0 Q 370.9 129.0, 371.4 128.4 Q 371.9 127.8, 371.9 126.6 Q 371.9 125.5, 371.4 124.9 Q 370.9 124.3, 370.0 124.3 Q 369.1 124.3, 368.6 124.9 Q 368.1 125.5, 368.1 126.6 Q 368.1 127.8, 368.6 128.4 Q 369.1 129.0, 370.0 129.0 " fill="#FF0000"/>
<path class="atom-10" d="M 373.6 123.7 L 374.4 123.7 L 374.4 126.2 L 377.4 126.2 L 377.4 123.7 L 378.2 123.7 L 378.2 129.6 L 377.4 129.6 L 377.4 126.9 L 374.4 126.9 L 374.4 129.6 L 373.6 129.6 L 373.6 123.7 " fill="#FF0000"/>
<path class="atom-13" d="M 379.0 55.3 Q 379.0 53.9, 379.7 53.1 Q 380.4 52.3, 381.7 52.3 Q 383.1 52.3, 383.8 53.1 Q 384.5 53.9, 384.5 55.3 Q 384.5 56.8, 383.7 57.6 Q 383.0 58.4, 381.7 58.4 Q 380.4 58.4, 379.7 57.6 Q 379.0 56.8, 379.0 55.3 M 381.7 57.7 Q 382.6 57.7, 383.1 57.1 Q 383.6 56.5, 383.6 55.3 Q 383.6 54.2, 383.1 53.6 Q 382.6 53.0, 381.7 53.0 Q 380.8 53.0, 380.4 53.6 Q 379.9 54.2, 379.9 55.3 Q 379.9 56.5, 380.4 57.1 Q 380.8 57.7, 381.7 57.7 " fill="#FF0000"/>
<path class="atom-13" d="M 385.4 52.4 L 386.2 52.4 L 386.2 54.9 L 389.2 54.9 L 389.2 52.4 L 390.0 52.4 L 390.0 58.3 L 389.2 58.3 L 389.2 55.6 L 386.2 55.6 L 386.2 58.3 L 385.4 58.3 L 385.4 52.4 " fill="#FF0000"/>
<path class="atom-16" d="M 311.4 80.8 Q 311.4 79.4, 312.1 78.6 Q 312.8 77.8, 314.1 77.8 Q 315.4 77.8, 316.1 78.6 Q 316.8 79.4, 316.8 80.8 Q 316.8 82.2, 316.1 83.0 Q 315.4 83.8, 314.1 83.8 Q 312.8 83.8, 312.1 83.0 Q 311.4 82.2, 311.4 80.8 M 314.1 83.2 Q 315.0 83.2, 315.5 82.6 Q 316.0 82.0, 316.0 80.8 Q 316.0 79.6, 315.5 79.0 Q 315.0 78.4, 314.1 78.4 Q 313.2 78.4, 312.7 79.0 Q 312.2 79.6, 312.2 80.8 Q 312.2 82.0, 312.7 82.6 Q 313.2 83.2, 314.1 83.2 " fill="#FF0000"/>
<path class="legend" d="M 301.7 184.0 Q 302.7 184.4, 303.3 185.0 Q 303.8 185.7, 303.8 186.7 Q 303.8 188.2, 302.8 189.1 Q 301.8 190.0, 300.0 190.0 L 296.2 190.0 L 296.2 178.7 L 299.5 178.7 Q 301.4 178.7, 302.4 179.5 Q 303.4 180.2, 303.4 181.7 Q 303.4 183.4, 301.7 184.0 M 297.7 180.0 L 297.7 183.5 L 299.5 183.5 Q 300.6 183.5, 301.2 183.1 Q 301.8 182.6, 301.8 181.7 Q 301.8 180.0, 299.5 180.0 L 297.7 180.0 M 300.0 188.7 Q 301.1 188.7, 301.7 188.2 Q 302.2 187.7, 302.2 186.7 Q 302.2 185.7, 301.6 185.3 Q 301.0 184.8, 299.7 184.8 L 297.7 184.8 L 297.7 188.7 L 300.0 188.7 " fill="#000000"/>
</svg>