<svg xmlns="http://www.w3.org/2000/svg" xmlns:rdkit="http://www.rdkit.org/xml" xmlns:xlink="http://www.w3.org/1999/xlink" version="1.1" baseProfile="full" xml:space="preserve" width="800px" height="400px" viewBox="0 0 800 400">
<!-- END OF HEADER -->
<rect style="opacity:1.0;fill:#FFFFFF;stroke:none" width="800.0" height="400.0" x="0.0" y="0.0"> </rect>
<path class="bond-0 atom-0 atom-1" d="M 116.0,91.0 L 108.0,104.9" style="fill:none;fill-rule:evenodd;stroke:#000000;stroke-width:2.0px;stroke-linecap:butt;stroke-linejoin:miter;stroke-opacity:1"/>
<path class="bond-0 atom-0 atom-1" d="M 113.3,91.0 L 106.6,102.5" style="fill:none;fill-rule:evenodd;stroke:#000000;stroke-width:2.0px;stroke-linecap:butt;stroke-linejoin:miter;stroke-opacity:1"/>
<path class="bond-1 atom-1 atom-2" d="M 108.0,104.9 L 92.0,104.9" style="fill:none;fill-rule:evenodd;stroke:#000000;stroke-width:2.0px;stroke-linecap:butt;stroke-linejoin:miter;stroke-opacity:1"/>
<path class="bond-2 atom-2 atom-3" d="M 92.0,104.9 L 84.0,91.0" style="fill:none;fill-rule:evenodd;stroke:#000000;stroke-width:2.0px;stroke-linecap:butt;stroke-linejoin:miter;stroke-opacity:1"/>
<path class="bond-2 atom-2 atom-3" d="M 93.4,102.5 L 86.7,91.0" style="fill:none;fill-rule:evenodd;stroke:#000000;stroke-width:2.0px;stroke-linecap:butt;stroke-linejoin:miter;stroke-opacity:1"/>
<path class="bond-3 atom-3 atom-4" d="M 84.0,91.0 L 92.0,77.1" style="fill:none;fill-rule:evenodd;stroke:#000000;stroke-width:2.0px;stroke-linecap:butt;stroke-linejoin:miter;stroke-opacity:1"/>
<path class="bond-4 atom-4 atom-5" d="M 92.0,77.1 L 108.0,77.1" style="fill:none;fill-rule:evenodd;stroke:#000000;stroke-width:2.0px;stroke-linecap:butt;stroke-linejoin:miter;stroke-opacity:1"/>
<path class="bond-4 atom-4 atom-5" d="M 93.4,79.5 L 106.6,79.5" style="fill:none;fill-rule:evenodd;stroke:#000000;stroke-width:2.0px;stroke-linecap:butt;stroke-linejoin:miter;stroke-opacity:1"/>
<path class="bond-5 atom-5 atom-0" d="M 108.0,77.1 L 116.0,91.0" style="fill:none;fill-rule:evenodd;stroke:#000000;stroke-width:2.0px;stroke-linecap:butt;stroke-linejoin:miter;stroke-opacity:1"/>
<path d="M 115.6,91.7 L 116.0,91.0 L 115.6,90.3" style="fill:none;stroke:#000000;stroke-width:2.0px;stroke-linecap:butt;stroke-linejoin:miter;stroke-opacity:1;"/>
<path d="M 108.4,104.2 L 108.0,104.9 L 107.2,104.9" style="fill:none;stroke:#000000;stroke-width:2.0px;stroke-linecap:butt;stroke-linejoin:miter;stroke-opacity:1;"/>
<path d="M 92.8,104.9 L 92.0,104.9 L 91.6,104.2" style="fill:none;stroke:#000000;stroke-width:2.0px;stroke-linecap:butt;stroke-linejoin:miter;stroke-opacity:1;"/>
<path d="M 84.4,91.7 L 84.0,91.0 L 84.4,90.3" style="fill:none;stroke:#000000;stroke-width:2.0px;stroke-linecap:butt;stroke-linejoin:miter;stroke-opacity:1;"/>
<path d="M 91.6,77.8 L 92.0,77.1 L 92.8,77.1" style="fill:none;stroke:#000000;stroke-width:2.0px;stroke-linecap:butt;stroke-linejoin:miter;stroke-opacity:1;"/>
<path d="M 107.2,77.1 L 108.0,77.1 L 108.4,77.8" style="fill:none;stroke:#000000;stroke-width:2.0px;stroke-linecap:butt;stroke-linejoin:miter;stroke-opacity:1;"/>
<path class="legend" d="M 103.4 190.0 L 102.2 186.7 L 97.8 186.7 L 96.6 190.0 L 95.1 190.0 L 99.0 178.7 L 100.9 178.7 L 104.9 190.0 L 103.4 190.0 M 98.2 185.4 L 101.8 185.4 L 100.0 180.3 L 98.2 185.4 " fill="#000000"/>
<path class="bond-0 atom-0 atom-1" d="M 293.2,114.1 L 297.7,109.8" style="fill:none;fill-rule:evenodd;stroke:#FF0000;stroke-width:2.0px;stroke-linecap:butt;stroke-linejoin:miter;stroke-opacity:1"/>
<path class="bond-0 atom-0 atom-1" d="M 297.7,109.8 L 302.1,105.5" style="fill:none;fill-rule:evenodd;stroke:#000000;stroke-width:2.0px;stroke-linecap:butt;stroke-linejoin:miter;stroke-opacity:1"/>
<path class="bond-1 atom-1 atom-2" d="M 302.1,105.5 L 317.6,109.9" style="fill:none;fill-rule:evenodd;stroke:#000000;stroke-width:2.0px;stroke-linecap:butt;stroke-linejoin:miter;stroke-opacity:1"/>
<path class="bond-2 atom-2 atom-3" d="M 317.6,109.9 L 329.1,98.7" style="fill:none;fill-rule:evenodd;stroke:#000000;stroke-width:2.0px;stroke-linecap:butt;stroke-linejoin:miter;stroke-opacity:1"/>
<path class="bond-3 atom-3 atom-4" d="M 329.1,98.7 L 344.5,103.1" style="fill:none;fill-rule:evenodd;stroke:#000000;stroke-width:2.0px;stroke-linecap:butt;stroke-linejoin:miter;stroke-opacity:1"/>
<path class="bond-3 atom-3 atom-4" d="M 331.1,96.8 L 343.8,100.5" style="fill:none;fill-rule:evenodd;stroke:#000000;stroke-width:2.0px;stroke-linecap:butt;stroke-linejoin:miter;stroke-opacity:1"/>
<path class="bond-4 atom-4 atom-5" d="M 344.5,103.1 L 356.0,92.0" style="fill:none;fill-rule:evenodd;stroke:#000000;stroke-width:2.0px;stroke-linecap:butt;stroke-linejoin:miter;stroke-opacity:1"/>
<path class="bond-5 atom-5 atom-6" d="M 356.0,92.0 L 352.1,76.4" style="fill:none;fill-rule:evenodd;stroke:#000000;stroke-width:2.0px;stroke-linecap:butt;stroke-linejoin:miter;stroke-opacity:1"/>
<path class="bond-5 atom-5 atom-6" d="M 353.3,91.2 L 350.1,78.4" style="fill:none;fill-rule:evenodd;stroke:#000000;stroke-width:2.0px;stroke-linecap:butt;stroke-linejoin:miter;stroke-opacity:1"/>
<path class="bond-6 atom-6 atom-7" d="M 352.1,76.4 L 356.6,72.1" style="fill:none;fill-rule:evenodd;stroke:#000000;stroke-width:2.0px;stroke-linecap:butt;stroke-linejoin:miter;stroke-opacity:1"/>
<path class="bond-6 atom-6 atom-7" d="M 356.6,72.1 L 361.0,67.8" style="fill:none;fill-rule:evenodd;stroke:#FF0000;stroke-width:2.0px;stroke-linecap:butt;stroke-linejoin:miter;stroke-opacity:1"/>
<path class="bond-7 atom-6 atom-8" d="M 352.1,76.4 L 336.7,72.0" style="fill:none;fill-rule:evenodd;stroke:#000000;stroke-width:2.0px;stroke-linecap:butt;stroke-linejoin:miter;stroke-opacity:1"/>
<path class="bond-8 atom-8 atom-9" d="M 336.7,72.0 L 325.2,83.2" style="fill:none;fill-rule:evenodd;stroke:#000000;stroke-width:2.0px;stroke-linecap:butt;stroke-linejoin:miter;stroke-opacity:1"/>
<path class="bond-8 atom-8 atom-9" d="M 337.4,74.7 L 327.9,84.0" style="fill:none;fill-rule:evenodd;stroke:#000000;stroke-width:2.0px;stroke-linecap:butt;stroke-linejoin:miter;stroke-opacity:1"/>
<path class="bond-9 atom-9 atom-10" d="M 325.2,83.2 L 318.8,81.4" style="fill:none;fill-rule:evenodd;stroke:#000000;stroke-width:2.0px;stroke-linecap:butt;stroke-linejoin:miter;stroke-opacity:1"/>
<path class="bond-9 atom-9 atom-10" d="M 318.8,81.4 L 312.4,79.5" style="fill:none;fill-rule:evenodd;stroke:#FF0000;stroke-width:2.0px;stroke-linecap:butt;stroke-linejoin:miter;stroke-opacity:1"/>
<path class="bond-10 atom-10 atom-11" d="M 307.2,81.3 L 302.7,85.6" style="fill:none;fill-rule:evenodd;stroke:#FF0000;stroke-width:2.0px;stroke-linecap:butt;stroke-linejoin:miter;stroke-opacity:1"/>
<path class="bond-10 atom-10 atom-11" d="M 302.7,85.6 L 298.2,89.9" style="fill:none;fill-rule:evenodd;stroke:#000000;stroke-width:2.0px;stroke-linecap:butt;stroke-linejoin:miter;stroke-opacity:1"/>
<path class="bond-11 atom-11 atom-12" d="M 298.2,89.9 L 282.8,85.5" style="fill:none;fill-rule:evenodd;stroke:#000000;stroke-width:2.0px;stroke-linecap:butt;stroke-linejoin:miter;stroke-opacity:1"/>
<path class="bond-12 atom-12 atom-13" d="M 282.8,85.5 L 278.9,70.0" style="fill:none;fill-rule:evenodd;stroke:#000000;stroke-width:2.0px;stroke-linecap:butt;stroke-linejoin:miter;stroke-opacity:1"/>
<path class="bond-12 atom-12 atom-13" d="M 280.2,84.8 L 276.9,71.9" style="fill:none;fill-rule:evenodd;stroke:#000000;stroke-width:2.0px;stroke-linecap:butt;stroke-linejoin:miter;stroke-opacity:1"/>
<path class="bond-13 atom-13 atom-14" d="M 278.9,70.0 L 263.5,65.6" style="fill:none;fill-rule:evenodd;stroke:#000000;stroke-width:2.0px;stroke-linecap:butt;stroke-linejoin:miter;stroke-opacity:1"/>
<path class="bond-14 atom-14 atom-15" d="M 263.5,65.6 L 252.0,76.7" style="fill:none;fill-rule:evenodd;stroke:#000000;stroke-width:2.0px;stroke-linecap:butt;stroke-linejoin:miter;stroke-opacity:1"/>
<path class="bond-14 atom-14 atom-15" d="M 264.2,68.3 L 254.7,77.5" style="fill:none;fill-rule:evenodd;stroke:#000000;stroke-width:2.0px;stroke-linecap:butt;stroke-linejoin:miter;stroke-opacity:1"/>
<path class="bond-15 atom-15 atom-16" d="M 252.0,76.7 L 245.6,74.9" style="fill:none;fill-rule:evenodd;stroke:#000000;stroke-width:2.0px;stroke-linecap:butt;stroke-linejoin:miter;stroke-opacity:1"/>
<path class="bond-15 atom-15 atom-16" d="M 245.6,74.9 L 239.2,73.1" style="fill:none;fill-rule:evenodd;stroke:#FF0000;stroke-width:2.0px;stroke-linecap:butt;stroke-linejoin:miter;stroke-opacity:1"/>
<path class="bond-16 atom-15 atom-17" d="M 252.0,76.7 L 255.9,92.3" style="fill:none;fill-rule:evenodd;stroke:#000000;stroke-width:2.0px;stroke-linecap:butt;stroke-linejoin:miter;stroke-opacity:1"/>
<path class="bond-17 atom-17 atom-18" d="M 255.9,92.3 L 251.4,96.6" style="fill:none;fill-rule:evenodd;stroke:#000000;stroke-width:2.0px;stroke-linecap:butt;stroke-linejoin:miter;stroke-opacity:1"/>
<path class="bond-17 atom-17 atom-18" d="M 251.4,96.6 L 247.0,100.9" style="fill:none;fill-rule:evenodd;stroke:#FF0000;stroke-width:2.0px;stroke-linecap:butt;stroke-linejoin:miter;stroke-opacity:1"/>
<path class="bond-18 atom-17 atom-19" d="M 255.9,92.3 L 271.3,96.7" style="fill:none;fill-rule:evenodd;stroke:#000000;stroke-width:2.0px;stroke-linecap:butt;stroke-linejoin:miter;stroke-opacity:1"/>
<path class="bond-18 atom-17 atom-19" d="M 257.9,90.3 L 270.6,94.0" style="fill:none;fill-rule:evenodd;stroke:#000000;stroke-width:2.0px;stroke-linecap:butt;stroke-linejoin:miter;stroke-opacity:1"/>
<path class="bond-19 atom-11 atom-1" d="M 298.2,89.9 L 302.1,105.5" style="fill:none;fill-rule:evenodd;stroke:#000000;stroke-width:2.0px;stroke-linecap:butt;stroke-linejoin:miter;stroke-opacity:1"/>
<path class="bond-20 atom-19 atom-12" d="M 271.3,96.7 L 282.8,85.5" style="fill:none;fill-rule:evenodd;stroke:#000000;stroke-width:2.0px;stroke-linecap:butt;stroke-linejoin:miter;stroke-opacity:1"/>
<path class="bond-21 atom-9 atom-3" d="M 325.2,83.2 L 329.1,98.7" style="fill:none;fill-rule:evenodd;stroke:#000000;stroke-width:2.0px;stroke-linecap:butt;stroke-linejoin:miter;stroke-opacity:1"/>
<path d="M 316.8,109.7 L 317.6,109.9 L 318.1,109.3" style="fill:none;stroke:#000000;stroke-width:2.0px;stroke-linecap:butt;stroke-linejoin:miter;stroke-opacity:1;"/>
<path d="M 343.7,102.9 L 344.5,103.1 L 345.1,102.6" style="fill:none;stroke:#000000;stroke-width:2.0px;stroke-linecap:butt;stroke-linejoin:miter;stroke-opacity:1;"/>
<path d="M 355.4,92.6 L 356.0,92.0 L 355.8,91.2" style="fill:none;stroke:#000000;stroke-width:2.0px;stroke-linecap:butt;stroke-linejoin:miter;stroke-opacity:1;"/>
<path d="M 337.5,72.3 L 336.7,72.0 L 336.1,72.6" style="fill:none;stroke:#000000;stroke-width:2.0px;stroke-linecap:butt;stroke-linejoin:miter;stroke-opacity:1;"/>
<path d="M 279.1,70.8 L 278.9,70.0 L 278.2,69.8" style="fill:none;stroke:#000000;stroke-width:2.0px;stroke-linecap:butt;stroke-linejoin:miter;stroke-opacity:1;"/>
<path d="M 264.3,65.8 L 263.5,65.6 L 262.9,66.1" style="fill:none;stroke:#000000;stroke-width:2.0px;stroke-linecap:butt;stroke-linejoin:miter;stroke-opacity:1;"/>
<path d="M 270.5,96.5 L 271.3,96.7 L 271.9,96.1" style="fill:none;stroke:#000000;stroke-width:2.0px;stroke-linecap:butt;stroke-linejoin:miter;stroke-opacity:1;"/>
<path class="atom-0" d="M 284.0 114.4 L 284.7 114.4 L 284.7 116.3 L 287.0 116.3 L 287.0 114.4 L 287.6 114.4 L 287.6 118.9 L 287.0 118.9 L 287.0 116.8 L 284.7 116.8 L 284.7 118.9 L 284.0 118.9 L 284.0 114.4 " fill="#FF0000"/>
<path class="atom-0" d="M 288.5 116.6 Q 288.5 115.6, 289.1 114.9 Q 289.6 114.3, 290.6 114.3 Q 291.6 114.3, 292.2 114.9 Q 292.7 115.6, 292.7 116.6 Q 292.7 117.7, 292.2 118.4 Q 291.6 119.0, 290.6 119.0 Q 289.6 119.0, 289.1 118.4 Q 288.5 117.8, 288.5 116.6 M 290.6 118.5 Q 291.3 118.5, 291.7 118.0 Q 292.1 117.6, 292.1 116.6 Q 292.1 115.8, 291.7 115.3 Q 291.3 114.9, 290.6 114.9 Q 289.9 114.9, 289.5 115.3 Q 289.2 115.7, 289.2 116.6 Q 289.2 117.6, 289.5 118.0 Q 289.9 118.5, 290.6 118.5 " fill="#FF0000"/>
<path class="atom-7" d="M 361.6 65.3 Q 361.6 64.2, 362.1 63.6 Q 362.6 63.0, 363.6 63.0 Q 364.6 63.0, 365.2 63.6 Q 365.7 64.2, 365.7 65.3 Q 365.7 66.4, 365.2 67.0 Q 364.6 67.7, 363.6 67.7 Q 362.6 67.7, 362.1 67.0 Q 361.6 66.4, 361.6 65.3 M 363.6 67.1 Q 364.3 67.1, 364.7 66.7 Q 365.1 66.2, 365.1 65.3 Q 365.1 64.4, 364.7 64.0 Q 364.3 63.5, 363.6 63.5 Q 362.9 63.5, 362.6 64.0 Q 362.2 64.4, 362.2 65.3 Q 362.2 66.2, 362.6 66.7 Q 362.9 67.1, 363.6 67.1 " fill="#FF0000"/>
<path class="atom-7" d="M 366.4 63.1 L 367.0 63.1 L 367.0 65.0 L 369.4 65.0 L 369.4 63.1 L 370.0 63.1 L 370.0 67.6 L 369.4 67.6 L 369.4 65.5 L 367.0 65.5 L 367.0 67.6 L 366.4 67.6 L 366.4 63.1 " fill="#FF0000"/>
<path class="atom-10" d="M 307.7 78.8 Q 307.7 77.7, 308.2 77.1 Q 308.8 76.5, 309.8 76.5 Q 310.8 76.5, 311.3 77.1 Q 311.9 77.7, 311.9 78.8 Q 311.9 79.9, 311.3 80.5 Q 310.8 81.2, 309.8 81.2 Q 308.8 81.2, 308.2 80.5 Q 307.7 79.9, 307.7 78.8 M 309.8 80.6 Q 310.5 80.6, 310.8 80.2 Q 311.2 79.7, 311.2 78.8 Q 311.2 77.9, 310.8 77.5 Q 310.5 77.0, 309.8 77.0 Q 309.1 77.0, 308.7 77.5 Q 308.3 77.9, 308.3 78.8 Q 308.3 79.7, 308.7 80.2 Q 309.1 80.6, 309.8 80.6 " fill="#FF0000"/>
<path class="atom-16" d="M 230.0 70.1 L 230.6 70.1 L 230.6 72.0 L 233.0 72.0 L 233.0 70.1 L 233.6 70.1 L 233.6 74.6 L 233.0 74.6 L 233.0 72.5 L 230.6 72.5 L 230.6 74.6 L 230.0 74.6 L 230.0 70.1 " fill="#FF0000"/>
<path class="atom-16" d="M 234.5 72.3 Q 234.5 71.2, 235.0 70.6 Q 235.6 70.0, 236.6 70.0 Q 237.6 70.0, 238.1 70.6 Q 238.7 71.2, 238.7 72.3 Q 238.7 73.4, 238.1 74.1 Q 237.6 74.7, 236.6 74.7 Q 235.6 74.7, 235.0 74.1 Q 234.5 73.4, 234.5 72.3 M 236.6 74.2 Q 237.3 74.2, 237.6 73.7 Q 238.0 73.2, 238.0 72.3 Q 238.0 71.4, 237.6 71.0 Q 237.3 70.5, 236.6 70.5 Q 235.9 70.5, 235.5 71.0 Q 235.1 71.4, 235.1 72.3 Q 235.1 73.2, 235.5 73.7 Q 235.9 74.2, 236.6 74.2 " fill="#FF0000"/>
<path class="atom-18" d="M 237.8 101.2 L 238.4 101.2 L 238.4 103.1 L 240.7 103.1 L 240.7 101.2 L 241.4 101.2 L 241.4 105.7 L 240.7 105.7 L 240.7 103.6 L 238.4 103.6 L 238.4 105.7 L 237.8 105.7 L 237.8 101.2 " fill="#FF0000"/>
<path class="atom-18" d="M 242.3 103.4 Q 242.3 102.3, 242.8 101.7 Q 243.4 101.1, 244.4 101.1 Q 245.4 101.1, 245.9 101.7 Q 246.5 102.3, 246.5 103.4 Q 246.5 104.5, 245.9 105.2 Q 245.4 105.8, 244.4 105.8 Q 243.4 105.8, 242.8 105.2 Q 242.3 104.5, 242.3 103.4 M 244.4 105.3 Q 245.1 105.3, 245.4 104.8 Q 245.8 104.3, 245.8 103.4 Q 245.8 102.5, 245.4 102.1 Q 245.1 101.6, 244.4 101.6 Q 243.7 101.6, 243.3 102.1 Q 242.9 102.5, 242.9 103.4 Q 242.9 104.3, 243.3 104.8 Q 243.7 105.3, 244.4 105.3 " fill="#FF0000"/>
<path class="legend" d="M 301.7 184.0 Q 302.7 184.4, 303.3 185.0 Q 303.8 185.7, 303.8 186.7 Q 303.8 188.2, 302.8 189.1 Q 301.8 190.0, 300.0 190.0 L 296.2 190.0 L 296.2 178.7 L 299.5 178.7 Q 301.4 178.7, 302.4 179.5 Q 303.4 180.2, 303.4 181.7 Q 303.4 183.4, 301.7 184.0 M 297.7 180.0 L 297.7 183.5 L 299.5 183.5 Q 300.6 183.5, 301.2 183.1 Q 301.8 182.6, 301.8 181.7 Q 301.8 180.0, 299.5 180.0 L 297.7 180.0 M 300.0 188.7 Q 301.1 188.7, 301.7 188.2 Q 302.2 187.7, 302.2 186.7 Q 302.2 185.7, 301.6 185.3 Q 301.0 184.8, 299.7 184.8 L 297.7 184.8 L 297.7 188.7 L 300.0 188.7 " fill="#000000"/>
<path class="bond-0 atom-0 atom-1" d="M 478.8,92.5 L 493.6,86.2" style="fill:none;fill-rule:evenodd;stroke:#000000;stroke-width:2.0px;stroke-linecap:butt;stroke-linejoin:miter;stroke-opacity:1"/>
<path class="bond-1 atom-1 atom-2" d="M 493.6,86.2 L 506.4,95.8" style="fill:none;fill-rule:evenodd;stroke:#000000;stroke-width:2.0px;stroke-linecap:butt;stroke-linejoin:miter;stroke-opacity:1"/>
<path class="bond-2 atom-2 atom-3" d="M 506.4,95.8 L 521.2,89.5" style="fill:none;fill-rule:evenodd;stroke:#000000;stroke-width:2.0px;stroke-linecap:butt;stroke-linejoin:miter;stroke-opacity:1"/>
<path d="M 492.9,86.5 L 493.6,86.2 L 494.2,86.7" style="fill:none;stroke:#000000;stroke-width:2.0px;stroke-linecap:butt;stroke-linejoin:miter;stroke-opacity:1;"/>
<path d="M 505.8,95.3 L 506.4,95.8 L 507.1,95.5" style="fill:none;stroke:#000000;stroke-width:2.0px;stroke-linecap:butt;stroke-linejoin:miter;stroke-opacity:1;"/>
<path class="legend" d="M 495.6 184.2 Q 495.6 181.4, 496.9 179.9 Q 498.3 178.4, 500.8 178.4 Q 503.1 178.4, 504.4 180.0 L 503.3 180.9 Q 502.4 179.7, 500.8 179.7 Q 499.1 179.7, 498.2 180.9 Q 497.3 182.0, 497.3 184.2 Q 497.3 186.4, 498.2 187.6 Q 499.1 188.7, 501.0 188.7 Q 502.2 188.7, 503.7 188.0 L 504.1 189.2 Q 503.5 189.6, 502.6 189.8 Q 501.7 190.0, 500.7 190.0 Q 498.3 190.0, 496.9 188.5 Q 495.6 187.0, 495.6 184.2 " fill="#000000"/>
<path class="bond-0 atom-0 atom-1" d="M 739.9,75.9 L 730.8,89.1" style="fill:none;fill-rule:evenodd;stroke:#000000;stroke-width:2.0px;stroke-linecap:butt;stroke-linejoin:miter;stroke-opacity:1"/>
<path class="bond-1 atom-1 atom-2" d="M 730.8,89.1 L 714.8,87.8" style="fill:none;fill-rule:evenodd;stroke:#000000;stroke-width:2.0px;stroke-linecap:butt;stroke-linejoin:miter;stroke-opacity:1"/>
<path class="bond-2 atom-2 atom-3" d="M 714.8,87.8 L 705.7,100.9" style="fill:none;fill-rule:evenodd;stroke:#000000;stroke-width:2.0px;stroke-linecap:butt;stroke-linejoin:miter;stroke-opacity:1"/>
<path class="bond-3 atom-3 atom-4" d="M 705.7,100.9 L 689.7,99.6" style="fill:none;fill-rule:evenodd;stroke:#000000;stroke-width:2.0px;stroke-linecap:butt;stroke-linejoin:miter;stroke-opacity:1"/>
<path class="bond-4 atom-4 atom-5" d="M 689.7,99.6 L 680.5,112.8" style="fill:none;fill-rule:evenodd;stroke:#000000;stroke-width:2.0px;stroke-linecap:butt;stroke-linejoin:miter;stroke-opacity:1"/>
<path class="bond-5 atom-4 atom-6" d="M 689.7,99.6 L 682.9,85.1" style="fill:none;fill-rule:evenodd;stroke:#000000;stroke-width:2.0px;stroke-linecap:butt;stroke-linejoin:miter;stroke-opacity:1"/>
<path class="bond-6 atom-6 atom-7" d="M 682.9,85.1 L 666.9,83.7" style="fill:none;fill-rule:evenodd;stroke:#000000;stroke-width:2.0px;stroke-linecap:butt;stroke-linejoin:miter;stroke-opacity:1"/>
<path class="bond-7 atom-7 atom-8" d="M 666.9,83.7 L 660.1,69.2" style="fill:none;fill-rule:evenodd;stroke:#000000;stroke-width:2.0px;stroke-linecap:butt;stroke-linejoin:miter;stroke-opacity:1"/>
<path d="M 731.2,88.5 L 730.8,89.1 L 730.0,89.0" style="fill:none;stroke:#000000;stroke-width:2.0px;stroke-linecap:butt;stroke-linejoin:miter;stroke-opacity:1;"/>
<path d="M 715.6,87.8 L 714.8,87.8 L 714.4,88.4" style="fill:none;stroke:#000000;stroke-width:2.0px;stroke-linecap:butt;stroke-linejoin:miter;stroke-opacity:1;"/>
<path d="M 706.1,100.3 L 705.7,100.9 L 704.9,100.9" style="fill:none;stroke:#000000;stroke-width:2.0px;stroke-linecap:butt;stroke-linejoin:miter;stroke-opacity:1;"/>
<path d="M 683.2,85.8 L 682.9,85.1 L 682.1,85.0" style="fill:none;stroke:#000000;stroke-width:2.0px;stroke-linecap:butt;stroke-linejoin:miter;stroke-opacity:1;"/>
<path d="M 667.7,83.8 L 666.9,83.7 L 666.5,83.0" style="fill:none;stroke:#000000;stroke-width:2.0px;stroke-linecap:butt;stroke-linejoin:miter;stroke-opacity:1;"/>
<path class="legend" d="M 699.2 178.7 Q 701.7 178.7, 703.1 180.2 Q 704.4 181.6, 704.4 184.3 Q 704.4 187.0, 703.1 188.5 Q 701.7 190.0, 699.2 190.0 L 695.6 190.0 L 695.6 178.7 L 699.2 178.7 M 699.2 188.7 Q 701.0 188.7, 701.9 187.6 Q 702.8 186.5, 702.8 184.3 Q 702.8 182.1, 701.9 181.0 Q 701.0 180.0, 699.2 180.0 L 697.1 180.0 L 697.1 188.7 L 699.2 188.7 " fill="#000000"/>
<path class="bond-0 atom-0 atom-1" d="M 41.1,239.3 L 47.9,253.9" style="fill:none;fill-rule:evenodd;stroke:#000000;stroke-width:2.0px;stroke-linecap:butt;stroke-linejoin:miter;stroke-opacity:1"/>
<path class="bond-1 atom-1 atom-2" d="M 47.9,253.9 L 38.6,267.0" style="fill:none;fill-rule:evenodd;stroke:#000000;stroke-width:2.0px;stroke-linecap:butt;stroke-linejoin:miter;stroke-opacity:1"/>
<path class="bond-2 atom-2 atom-3" d="M 38.6,267.0 L 45.4,281.6" style="fill:none;fill-rule:evenodd;stroke:#000000;stroke-width:2.0px;stroke-linecap:butt;stroke-linejoin:miter;stroke-opacity:1"/>
<path class="bond-3 atom-3 atom-4" d="M 45.4,281.6 L 36.1,294.7" style="fill:none;fill-rule:evenodd;stroke:#000000;stroke-width:2.0px;stroke-linecap:butt;stroke-linejoin:miter;stroke-opacity:1"/>
<path class="bond-4 atom-4 atom-5" d="M 36.1,294.7 L 42.9,309.2" style="fill:none;fill-rule:evenodd;stroke:#000000;stroke-width:2.0px;stroke-linecap:butt;stroke-linejoin:miter;stroke-opacity:1"/>
<path class="bond-5 atom-5 atom-6" d="M 42.9,309.2 L 33.6,322.3" style="fill:none;fill-rule:evenodd;stroke:#000000;stroke-width:2.0px;stroke-linecap:butt;stroke-linejoin:miter;stroke-opacity:1"/>
<path class="bond-6 atom-5 atom-7" d="M 42.9,309.2 L 58.8,310.7" style="fill:none;fill-rule:evenodd;stroke:#000000;stroke-width:2.0px;stroke-linecap:butt;stroke-linejoin:miter;stroke-opacity:1"/>
<path class="bond-7 atom-7 atom-8" d="M 58.8,310.7 L 65.6,325.2" style="fill:none;fill-rule:evenodd;stroke:#000000;stroke-width:2.0px;stroke-linecap:butt;stroke-linejoin:miter;stroke-opacity:1"/>
<path class="bond-8 atom-8 atom-9" d="M 65.6,325.2 L 81.5,326.7" style="fill:none;fill-rule:evenodd;stroke:#000000;stroke-width:2.0px;stroke-linecap:butt;stroke-linejoin:miter;stroke-opacity:1"/>
<path class="bond-9 atom-9 atom-10" d="M 81.5,326.7 L 88.3,341.2" style="fill:none;fill-rule:evenodd;stroke:#000000;stroke-width:2.0px;stroke-linecap:butt;stroke-linejoin:miter;stroke-opacity:1"/>
<path class="bond-10 atom-10 atom-11" d="M 88.3,341.2 L 104.2,342.7" style="fill:none;fill-rule:evenodd;stroke:#000000;stroke-width:2.0px;stroke-linecap:butt;stroke-linejoin:miter;stroke-opacity:1"/>
<path class="bond-11 atom-9 atom-12" d="M 81.5,326.7 L 90.8,313.5" style="fill:none;fill-rule:evenodd;stroke:#000000;stroke-width:2.0px;stroke-linecap:butt;stroke-linejoin:miter;stroke-opacity:1"/>
<path class="bond-12 atom-12 atom-13" d="M 90.8,313.5 L 106.7,315.0" style="fill:none;fill-rule:evenodd;stroke:#000000;stroke-width:2.0px;stroke-linecap:butt;stroke-linejoin:miter;stroke-opacity:1"/>
<path class="bond-13 atom-13 atom-14" d="M 106.7,315.0 L 116.0,301.9" style="fill:none;fill-rule:evenodd;stroke:#000000;stroke-width:2.0px;stroke-linecap:butt;stroke-linejoin:miter;stroke-opacity:1"/>
<path class="bond-14 atom-14 atom-15" d="M 116.0,301.9 L 131.9,303.3" style="fill:none;fill-rule:evenodd;stroke:#000000;stroke-width:2.0px;stroke-linecap:butt;stroke-linejoin:miter;stroke-opacity:1"/>
<path class="bond-14 atom-14 atom-15" d="M 117.1,304.4 L 131.7,305.7" style="fill:none;fill-rule:evenodd;stroke:#000000;stroke-width:2.0px;stroke-linecap:butt;stroke-linejoin:miter;stroke-opacity:1"/>
<path class="bond-15 atom-15 atom-16" d="M 131.9,303.3 L 141.2,290.2" style="fill:none;fill-rule:evenodd;stroke:#000000;stroke-width:2.0px;stroke-linecap:butt;stroke-linejoin:miter;stroke-opacity:1"/>
<path class="bond-16 atom-16 atom-17" d="M 141.2,290.2 L 157.1,291.7" style="fill:none;fill-rule:evenodd;stroke:#000000;stroke-width:2.0px;stroke-linecap:butt;stroke-linejoin:miter;stroke-opacity:1"/>
<path class="bond-17 atom-17 atom-18" d="M 157.1,291.7 L 166.4,278.6" style="fill:none;fill-rule:evenodd;stroke:#000000;stroke-width:2.0px;stroke-linecap:butt;stroke-linejoin:miter;stroke-opacity:1"/>
<path class="bond-18 atom-16 atom-19" d="M 141.2,290.2 L 134.4,275.7" style="fill:none;fill-rule:evenodd;stroke:#000000;stroke-width:2.0px;stroke-linecap:butt;stroke-linejoin:miter;stroke-opacity:1"/>
<path class="bond-19 atom-19 atom-20" d="M 134.4,275.7 L 143.7,262.6" style="fill:none;fill-rule:evenodd;stroke:#000000;stroke-width:2.0px;stroke-linecap:butt;stroke-linejoin:miter;stroke-opacity:1"/>
<path d="M 47.5,253.2 L 47.9,253.9 L 47.4,254.6" style="fill:none;stroke:#000000;stroke-width:2.0px;stroke-linecap:butt;stroke-linejoin:miter;stroke-opacity:1;"/>
<path d="M 39.1,266.4 L 38.6,267.0 L 39.0,267.7" style="fill:none;stroke:#000000;stroke-width:2.0px;stroke-linecap:butt;stroke-linejoin:miter;stroke-opacity:1;"/>
<path d="M 45.0,280.8 L 45.4,281.6 L 44.9,282.2" style="fill:none;stroke:#000000;stroke-width:2.0px;stroke-linecap:butt;stroke-linejoin:miter;stroke-opacity:1;"/>
<path d="M 36.6,294.0 L 36.1,294.7 L 36.5,295.4" style="fill:none;stroke:#000000;stroke-width:2.0px;stroke-linecap:butt;stroke-linejoin:miter;stroke-opacity:1;"/>
<path d="M 58.0,310.6 L 58.8,310.7 L 59.2,311.4" style="fill:none;stroke:#000000;stroke-width:2.0px;stroke-linecap:butt;stroke-linejoin:miter;stroke-opacity:1;"/>
<path d="M 65.2,324.5 L 65.6,325.2 L 66.4,325.3" style="fill:none;stroke:#000000;stroke-width:2.0px;stroke-linecap:butt;stroke-linejoin:miter;stroke-opacity:1;"/>
<path d="M 87.9,340.5 L 88.3,341.2 L 89.1,341.3" style="fill:none;stroke:#000000;stroke-width:2.0px;stroke-linecap:butt;stroke-linejoin:miter;stroke-opacity:1;"/>
<path d="M 90.3,314.2 L 90.8,313.5 L 91.6,313.6" style="fill:none;stroke:#000000;stroke-width:2.0px;stroke-linecap:butt;stroke-linejoin:miter;stroke-opacity:1;"/>
<path d="M 105.9,314.9 L 106.7,315.0 L 107.2,314.3" style="fill:none;stroke:#000000;stroke-width:2.0px;stroke-linecap:butt;stroke-linejoin:miter;stroke-opacity:1;"/>
<path d="M 115.5,302.5 L 116.0,301.9 L 116.8,302.0" style="fill:none;stroke:#000000;stroke-width:2.0px;stroke-linecap:butt;stroke-linejoin:miter;stroke-opacity:1;"/>
<path d="M 131.1,303.3 L 131.9,303.3 L 132.4,302.7" style="fill:none;stroke:#000000;stroke-width:2.0px;stroke-linecap:butt;stroke-linejoin:miter;stroke-opacity:1;"/>
<path d="M 156.3,291.6 L 157.1,291.7 L 157.6,291.0" style="fill:none;stroke:#000000;stroke-width:2.0px;stroke-linecap:butt;stroke-linejoin:miter;stroke-opacity:1;"/>
<path d="M 134.8,276.4 L 134.4,275.7 L 134.9,275.0" style="fill:none;stroke:#000000;stroke-width:2.0px;stroke-linecap:butt;stroke-linejoin:miter;stroke-opacity:1;"/>
<path class="legend" d="M 96.5 378.7 L 103.3 378.7 L 103.3 380.0 L 98.1 380.0 L 98.1 383.4 L 102.8 383.4 L 102.8 384.7 L 98.1 384.7 L 98.1 388.7 L 103.5 388.7 L 103.5 390.0 L 96.5 390.0 L 96.5 378.7 " fill="#000000"/>
<path class="bond-0 atom-0 atom-1" d="M 383.2,284.7 L 369.4,276.4" style="fill:none;fill-rule:evenodd;stroke:#000000;stroke-width:2.0px;stroke-linecap:butt;stroke-linejoin:miter;stroke-opacity:1"/>
<path class="bond-1 atom-1 atom-2" d="M 369.4,276.4 L 363.7,279.6" style="fill:none;fill-rule:evenodd;stroke:#000000;stroke-width:2.0px;stroke-linecap:butt;stroke-linejoin:miter;stroke-opacity:1"/>
<path class="bond-1 atom-1 atom-2" d="M 363.7,279.6 L 358.0,282.8" style="fill:none;fill-rule:evenodd;stroke:#FF0000;stroke-width:2.0px;stroke-linecap:butt;stroke-linejoin:miter;stroke-opacity:1"/>
<path class="bond-2 atom-2 atom-3" d="M 352.8,282.7 L 347.2,279.3" style="fill:none;fill-rule:evenodd;stroke:#FF0000;stroke-width:2.0px;stroke-linecap:butt;stroke-linejoin:miter;stroke-opacity:1"/>
<path class="bond-2 atom-2 atom-3" d="M 347.2,279.3 L 341.6,276.0" style="fill:none;fill-rule:evenodd;stroke:#000000;stroke-width:2.0px;stroke-linecap:butt;stroke-linejoin:miter;stroke-opacity:1"/>
<path class="bond-3 atom-3 atom-4" d="M 341.6,276.0 L 335.9,279.2" style="fill:none;fill-rule:evenodd;stroke:#000000;stroke-width:2.0px;stroke-linecap:butt;stroke-linejoin:miter;stroke-opacity:1"/>
<path class="bond-3 atom-3 atom-4" d="M 335.9,279.2 L 330.2,282.4" style="fill:none;fill-rule:evenodd;stroke:#FF0000;stroke-width:2.0px;stroke-linecap:butt;stroke-linejoin:miter;stroke-opacity:1"/>
<path class="bond-4 atom-4 atom-5" d="M 327.6,286.7 L 327.5,293.3" style="fill:none;fill-rule:evenodd;stroke:#FF0000;stroke-width:2.0px;stroke-linecap:butt;stroke-linejoin:miter;stroke-opacity:1"/>
<path class="bond-4 atom-4 atom-5" d="M 327.5,293.3 L 327.4,299.8" style="fill:none;fill-rule:evenodd;stroke:#000000;stroke-width:2.0px;stroke-linecap:butt;stroke-linejoin:miter;stroke-opacity:1"/>
<path class="bond-5 atom-5 atom-6" d="M 327.4,299.8 L 313.4,307.6" style="fill:none;fill-rule:evenodd;stroke:#000000;stroke-width:2.0px;stroke-linecap:butt;stroke-linejoin:miter;stroke-opacity:1"/>
<path class="bond-6 atom-6 atom-7" d="M 313.4,307.6 L 307.8,304.3" style="fill:none;fill-rule:evenodd;stroke:#000000;stroke-width:2.0px;stroke-linecap:butt;stroke-linejoin:miter;stroke-opacity:1"/>
<path class="bond-6 atom-6 atom-7" d="M 307.8,304.3 L 302.2,301.0" style="fill:none;fill-rule:evenodd;stroke:#FF0000;stroke-width:2.0px;stroke-linecap:butt;stroke-linejoin:miter;stroke-opacity:1"/>
<path class="bond-7 atom-7 atom-8" d="M 297.0,300.9 L 291.3,304.0" style="fill:none;fill-rule:evenodd;stroke:#FF0000;stroke-width:2.0px;stroke-linecap:butt;stroke-linejoin:miter;stroke-opacity:1"/>
<path class="bond-7 atom-7 atom-8" d="M 291.3,304.0 L 285.6,307.2" style="fill:none;fill-rule:evenodd;stroke:#000000;stroke-width:2.0px;stroke-linecap:butt;stroke-linejoin:miter;stroke-opacity:1"/>
<path class="bond-8 atom-8 atom-9" d="M 285.6,307.2 L 280.0,303.9" style="fill:none;fill-rule:evenodd;stroke:#000000;stroke-width:2.0px;stroke-linecap:butt;stroke-linejoin:miter;stroke-opacity:1"/>
<path class="bond-8 atom-8 atom-9" d="M 280.0,303.9 L 274.5,300.5" style="fill:none;fill-rule:evenodd;stroke:#FF0000;stroke-width:2.0px;stroke-linecap:butt;stroke-linejoin:miter;stroke-opacity:1"/>
<path class="bond-9 atom-9 atom-10" d="M 271.9,296.2 L 272.0,289.6" style="fill:none;fill-rule:evenodd;stroke:#FF0000;stroke-width:2.0px;stroke-linecap:butt;stroke-linejoin:miter;stroke-opacity:1"/>
<path class="bond-9 atom-9 atom-10" d="M 272.0,289.6 L 272.1,282.9" style="fill:none;fill-rule:evenodd;stroke:#000000;stroke-width:2.0px;stroke-linecap:butt;stroke-linejoin:miter;stroke-opacity:1"/>
<path class="bond-10 atom-10 atom-11" d="M 272.1,284.3 L 278.1,281.0" style="fill:none;fill-rule:evenodd;stroke:#000000;stroke-width:2.0px;stroke-linecap:butt;stroke-linejoin:miter;stroke-opacity:1"/>
<path class="bond-10 atom-10 atom-11" d="M 278.1,281.0 L 284.1,277.7" style="fill:none;fill-rule:evenodd;stroke:#FF0000;stroke-width:2.0px;stroke-linecap:butt;stroke-linejoin:miter;stroke-opacity:1"/>
<path class="bond-10 atom-10 atom-11" d="M 270.9,282.2 L 276.9,278.9" style="fill:none;fill-rule:evenodd;stroke:#000000;stroke-width:2.0px;stroke-linecap:butt;stroke-linejoin:miter;stroke-opacity:1"/>
<path class="bond-10 atom-10 atom-11" d="M 276.9,278.9 L 282.9,275.6" style="fill:none;fill-rule:evenodd;stroke:#FF0000;stroke-width:2.0px;stroke-linecap:butt;stroke-linejoin:miter;stroke-opacity:1"/>
<path class="bond-11 atom-10 atom-12" d="M 272.1,282.9 L 258.3,274.7" style="fill:none;fill-rule:evenodd;stroke:#000000;stroke-width:2.0px;stroke-linecap:butt;stroke-linejoin:miter;stroke-opacity:1"/>
<path class="bond-12 atom-12 atom-13" d="M 258.3,274.7 L 258.6,258.7" style="fill:none;fill-rule:evenodd;stroke:#000000;stroke-width:2.0px;stroke-linecap:butt;stroke-linejoin:miter;stroke-opacity:1"/>
<path class="bond-12 atom-12 atom-13" d="M 256.0,273.3 L 256.2,260.0" style="fill:none;fill-rule:evenodd;stroke:#000000;stroke-width:2.0px;stroke-linecap:butt;stroke-linejoin:miter;stroke-opacity:1"/>
<path class="bond-13 atom-13 atom-14" d="M 258.6,258.7 L 244.8,250.5" style="fill:none;fill-rule:evenodd;stroke:#000000;stroke-width:2.0px;stroke-linecap:butt;stroke-linejoin:miter;stroke-opacity:1"/>
<path class="bond-14 atom-14 atom-15" d="M 244.8,250.5 L 244.9,243.9" style="fill:none;fill-rule:evenodd;stroke:#000000;stroke-width:2.0px;stroke-linecap:butt;stroke-linejoin:miter;stroke-opacity:1"/>
<path class="bond-14 atom-14 atom-15" d="M 244.9,243.9 L 245.0,237.3" style="fill:none;fill-rule:evenodd;stroke:#FF0000;stroke-width:2.0px;stroke-linecap:butt;stroke-linejoin:miter;stroke-opacity:1"/>
<path class="bond-15 atom-14 atom-16" d="M 244.8,250.5 L 230.8,258.3" style="fill:none;fill-rule:evenodd;stroke:#000000;stroke-width:2.0px;stroke-linecap:butt;stroke-linejoin:miter;stroke-opacity:1"/>
<path class="bond-15 atom-14 atom-16" d="M 244.8,253.2 L 233.2,259.7" style="fill:none;fill-rule:evenodd;stroke:#000000;stroke-width:2.0px;stroke-linecap:butt;stroke-linejoin:miter;stroke-opacity:1"/>
<path class="bond-16 atom-16 atom-17" d="M 230.8,258.3 L 225.2,254.9" style="fill:none;fill-rule:evenodd;stroke:#000000;stroke-width:2.0px;stroke-linecap:butt;stroke-linejoin:miter;stroke-opacity:1"/>
<path class="bond-16 atom-16 atom-17" d="M 225.2,254.9 L 219.7,251.6" style="fill:none;fill-rule:evenodd;stroke:#FF0000;stroke-width:2.0px;stroke-linecap:butt;stroke-linejoin:miter;stroke-opacity:1"/>
<path class="bond-17 atom-16 atom-18" d="M 230.8,258.3 L 230.6,274.3" style="fill:none;fill-rule:evenodd;stroke:#000000;stroke-width:2.0px;stroke-linecap:butt;stroke-linejoin:miter;stroke-opacity:1"/>
<path class="bond-18 atom-18 atom-19" d="M 230.6,274.3 L 224.9,277.5" style="fill:none;fill-rule:evenodd;stroke:#000000;stroke-width:2.0px;stroke-linecap:butt;stroke-linejoin:miter;stroke-opacity:1"/>
<path class="bond-18 atom-18 atom-19" d="M 224.9,277.5 L 219.2,280.6" style="fill:none;fill-rule:evenodd;stroke:#FF0000;stroke-width:2.0px;stroke-linecap:butt;stroke-linejoin:miter;stroke-opacity:1"/>
<path class="bond-19 atom-18 atom-20" d="M 230.6,274.3 L 244.3,282.5" style="fill:none;fill-rule:evenodd;stroke:#000000;stroke-width:2.0px;stroke-linecap:butt;stroke-linejoin:miter;stroke-opacity:1"/>
<path class="bond-19 atom-18 atom-20" d="M 233.0,272.9 L 244.4,279.7" style="fill:none;fill-rule:evenodd;stroke:#000000;stroke-width:2.0px;stroke-linecap:butt;stroke-linejoin:miter;stroke-opacity:1"/>
<path class="bond-20 atom-8 atom-21" d="M 285.6,307.2 L 285.4,323.2" style="fill:none;fill-rule:evenodd;stroke:#000000;stroke-width:2.0px;stroke-linecap:butt;stroke-linejoin:miter;stroke-opacity:1"/>
<path class="bond-21 atom-21 atom-22" d="M 285.4,323.2 L 279.7,326.4" style="fill:none;fill-rule:evenodd;stroke:#000000;stroke-width:2.0px;stroke-linecap:butt;stroke-linejoin:miter;stroke-opacity:1"/>
<path class="bond-21 atom-21 atom-22" d="M 279.7,326.4 L 274.0,329.6" style="fill:none;fill-rule:evenodd;stroke:#FF0000;stroke-width:2.0px;stroke-linecap:butt;stroke-linejoin:miter;stroke-opacity:1"/>
<path class="bond-22 atom-21 atom-23" d="M 285.4,323.2 L 299.1,331.5" style="fill:none;fill-rule:evenodd;stroke:#000000;stroke-width:2.0px;stroke-linecap:butt;stroke-linejoin:miter;stroke-opacity:1"/>
<path class="bond-23 atom-23 atom-24" d="M 299.1,331.5 L 299.0,338.1" style="fill:none;fill-rule:evenodd;stroke:#000000;stroke-width:2.0px;stroke-linecap:butt;stroke-linejoin:miter;stroke-opacity:1"/>
<path class="bond-23 atom-23 atom-24" d="M 299.0,338.1 L 298.9,344.7" style="fill:none;fill-rule:evenodd;stroke:#FF0000;stroke-width:2.0px;stroke-linecap:butt;stroke-linejoin:miter;stroke-opacity:1"/>
<path class="bond-24 atom-23 atom-25" d="M 299.1,331.5 L 313.1,323.7" style="fill:none;fill-rule:evenodd;stroke:#000000;stroke-width:2.0px;stroke-linecap:butt;stroke-linejoin:miter;stroke-opacity:1"/>
<path class="bond-25 atom-25 atom-26" d="M 313.1,323.7 L 318.7,327.0" style="fill:none;fill-rule:evenodd;stroke:#000000;stroke-width:2.0px;stroke-linecap:butt;stroke-linejoin:miter;stroke-opacity:1"/>
<path class="bond-25 atom-25 atom-26" d="M 318.7,327.0 L 324.3,330.3" style="fill:none;fill-rule:evenodd;stroke:#FF0000;stroke-width:2.0px;stroke-linecap:butt;stroke-linejoin:miter;stroke-opacity:1"/>
<path class="bond-26 atom-3 atom-27" d="M 341.6,276.0 L 341.9,260.0" style="fill:none;fill-rule:evenodd;stroke:#000000;stroke-width:2.0px;stroke-linecap:butt;stroke-linejoin:miter;stroke-opacity:1"/>
<path class="bond-27 atom-27 atom-28" d="M 341.9,260.0 L 336.3,256.6" style="fill:none;fill-rule:evenodd;stroke:#000000;stroke-width:2.0px;stroke-linecap:butt;stroke-linejoin:miter;stroke-opacity:1"/>
<path class="bond-27 atom-27 atom-28" d="M 336.3,256.6 L 330.7,253.3" style="fill:none;fill-rule:evenodd;stroke:#FF0000;stroke-width:2.0px;stroke-linecap:butt;stroke-linejoin:miter;stroke-opacity:1"/>
<path class="bond-28 atom-27 atom-29" d="M 341.9,260.0 L 355.9,252.2" style="fill:none;fill-rule:evenodd;stroke:#000000;stroke-width:2.0px;stroke-linecap:butt;stroke-linejoin:miter;stroke-opacity:1"/>
<path class="bond-29 atom-29 atom-30" d="M 355.9,252.2 L 356.0,245.6" style="fill:none;fill-rule:evenodd;stroke:#000000;stroke-width:2.0px;stroke-linecap:butt;stroke-linejoin:miter;stroke-opacity:1"/>
<path class="bond-29 atom-29 atom-30" d="M 356.0,245.6 L 356.1,239.0" style="fill:none;fill-rule:evenodd;stroke:#FF0000;stroke-width:2.0px;stroke-linecap:butt;stroke-linejoin:miter;stroke-opacity:1"/>
<path class="bond-30 atom-29 atom-31" d="M 355.9,252.2 L 369.6,260.4" style="fill:none;fill-rule:evenodd;stroke:#000000;stroke-width:2.0px;stroke-linecap:butt;stroke-linejoin:miter;stroke-opacity:1"/>
<path class="bond-31 atom-31 atom-32" d="M 369.6,260.4 L 375.3,257.2" style="fill:none;fill-rule:evenodd;stroke:#000000;stroke-width:2.0px;stroke-linecap:butt;stroke-linejoin:miter;stroke-opacity:1"/>
<path class="bond-31 atom-31 atom-32" d="M 375.3,257.2 L 381.0,254.1" style="fill:none;fill-rule:evenodd;stroke:#FF0000;stroke-width:2.0px;stroke-linecap:butt;stroke-linejoin:miter;stroke-opacity:1"/>
<path class="bond-32 atom-31 atom-1" d="M 369.6,260.4 L 369.4,276.4" style="fill:none;fill-rule:evenodd;stroke:#000000;stroke-width:2.0px;stroke-linecap:butt;stroke-linejoin:miter;stroke-opacity:1"/>
<path class="bond-33 atom-25 atom-6" d="M 313.1,323.7 L 313.4,307.6" style="fill:none;fill-rule:evenodd;stroke:#000000;stroke-width:2.0px;stroke-linecap:butt;stroke-linejoin:miter;stroke-opacity:1"/>
<path class="bond-34 atom-20 atom-12" d="M 244.3,282.5 L 258.3,274.7" style="fill:none;fill-rule:evenodd;stroke:#000000;stroke-width:2.0px;stroke-linecap:butt;stroke-linejoin:miter;stroke-opacity:1"/>
<path d="M 327.4,299.5 L 327.4,299.8 L 326.7,300.2" style="fill:none;stroke:#000000;stroke-width:2.0px;stroke-linecap:butt;stroke-linejoin:miter;stroke-opacity:1;"/>
<path d="M 272.1,283.3 L 272.1,282.9 L 271.4,282.5" style="fill:none;stroke:#000000;stroke-width:2.0px;stroke-linecap:butt;stroke-linejoin:miter;stroke-opacity:1;"/>
<path d="M 258.6,259.5 L 258.6,258.7 L 257.9,258.3" style="fill:none;stroke:#000000;stroke-width:2.0px;stroke-linecap:butt;stroke-linejoin:miter;stroke-opacity:1;"/>
<path d="M 243.6,282.1 L 244.3,282.5 L 245.0,282.1" style="fill:none;stroke:#000000;stroke-width:2.0px;stroke-linecap:butt;stroke-linejoin:miter;stroke-opacity:1;"/>
<path class="atom-2" d="M 353.3 284.2 Q 353.3 283.2, 353.9 282.5 Q 354.4 281.9, 355.4 281.9 Q 356.4 281.9, 356.9 282.5 Q 357.5 283.2, 357.5 284.2 Q 357.5 285.4, 356.9 286.0 Q 356.4 286.6, 355.4 286.6 Q 354.4 286.6, 353.9 286.0 Q 353.3 285.4, 353.3 284.2 M 355.4 286.1 Q 356.1 286.1, 356.5 285.6 Q 356.8 285.2, 356.8 284.2 Q 356.8 283.4, 356.5 282.9 Q 356.1 282.5, 355.4 282.5 Q 354.7 282.5, 354.3 282.9 Q 354.0 283.4, 354.0 284.2 Q 354.0 285.2, 354.3 285.6 Q 354.7 286.1, 355.4 286.1 " fill="#FF0000"/>
<path class="atom-4" d="M 325.5 283.8 Q 325.5 282.7, 326.1 282.1 Q 326.6 281.5, 327.6 281.5 Q 328.6 281.5, 329.2 282.1 Q 329.7 282.7, 329.7 283.8 Q 329.7 284.9, 329.2 285.6 Q 328.6 286.2, 327.6 286.2 Q 326.6 286.2, 326.1 285.6 Q 325.5 284.9, 325.5 283.8 M 327.6 285.7 Q 328.3 285.7, 328.7 285.2 Q 329.1 284.7, 329.1 283.8 Q 329.1 282.9, 328.7 282.5 Q 328.3 282.0, 327.6 282.0 Q 326.9 282.0, 326.6 282.5 Q 326.2 282.9, 326.2 283.8 Q 326.2 284.7, 326.6 285.2 Q 326.9 285.7, 327.6 285.7 " fill="#FF0000"/>
<path class="atom-7" d="M 297.5 299.4 Q 297.5 298.3, 298.1 297.7 Q 298.6 297.1, 299.6 297.1 Q 300.6 297.1, 301.2 297.7 Q 301.7 298.3, 301.7 299.4 Q 301.7 300.5, 301.2 301.2 Q 300.6 301.8, 299.6 301.8 Q 298.6 301.8, 298.1 301.2 Q 297.5 300.5, 297.5 299.4 M 299.6 301.3 Q 300.3 301.3, 300.7 300.8 Q 301.1 300.3, 301.1 299.4 Q 301.1 298.5, 300.7 298.1 Q 300.3 297.6, 299.6 297.6 Q 298.9 297.6, 298.5 298.1 Q 298.2 298.5, 298.2 299.4 Q 298.2 300.3, 298.5 300.8 Q 298.9 301.3, 299.6 301.3 " fill="#FF0000"/>
<path class="atom-9" d="M 269.8 299.0 Q 269.8 297.9, 270.3 297.3 Q 270.8 296.7, 271.9 296.7 Q 272.9 296.7, 273.4 297.3 Q 273.9 297.9, 273.9 299.0 Q 273.9 300.1, 273.4 300.7 Q 272.8 301.3, 271.9 301.3 Q 270.9 301.3, 270.3 300.7 Q 269.8 300.1, 269.8 299.0 M 271.9 300.8 Q 272.5 300.8, 272.9 300.4 Q 273.3 299.9, 273.3 299.0 Q 273.3 298.1, 272.9 297.7 Q 272.5 297.2, 271.9 297.2 Q 271.2 297.2, 270.8 297.6 Q 270.4 298.1, 270.4 299.0 Q 270.4 299.9, 270.8 300.4 Q 271.2 300.8, 271.9 300.8 " fill="#FF0000"/>
<path class="atom-11" d="M 284.0 275.2 Q 284.0 274.1, 284.6 273.5 Q 285.1 272.9, 286.1 272.9 Q 287.1 272.9, 287.7 273.5 Q 288.2 274.1, 288.2 275.2 Q 288.2 276.3, 287.6 276.9 Q 287.1 277.5, 286.1 277.5 Q 285.1 277.5, 284.6 276.9 Q 284.0 276.3, 284.0 275.2 M 286.1 277.0 Q 286.8 277.0, 287.2 276.5 Q 287.5 276.1, 287.5 275.2 Q 287.5 274.3, 287.2 273.8 Q 286.8 273.4, 286.1 273.4 Q 285.4 273.4, 285.0 273.8 Q 284.7 274.3, 284.7 275.2 Q 284.7 276.1, 285.0 276.5 Q 285.4 277.0, 286.1 277.0 " fill="#FF0000"/>
<path class="atom-15" d="M 243.0 234.4 Q 243.0 233.4, 243.5 232.7 Q 244.1 232.1, 245.1 232.1 Q 246.1 232.1, 246.6 232.7 Q 247.2 233.4, 247.2 234.4 Q 247.2 235.5, 246.6 236.2 Q 246.1 236.8, 245.1 236.8 Q 244.1 236.8, 243.5 236.2 Q 243.0 235.6, 243.0 234.4 M 245.1 236.3 Q 245.8 236.3, 246.1 235.8 Q 246.5 235.4, 246.5 234.4 Q 246.5 233.6, 246.1 233.1 Q 245.8 232.6, 245.1 232.6 Q 244.4 232.6, 244.0 233.1 Q 243.6 233.5, 243.6 234.4 Q 243.6 235.4, 244.0 235.8 Q 244.4 236.3, 245.1 236.3 " fill="#FF0000"/>
<path class="atom-15" d="M 247.9 232.2 L 248.5 232.2 L 248.5 234.1 L 250.8 234.1 L 250.8 232.2 L 251.4 232.2 L 251.4 236.7 L 250.8 236.7 L 250.8 234.6 L 248.5 234.6 L 248.5 236.7 L 247.9 236.7 L 247.9 232.2 " fill="#FF0000"/>
<path class="atom-17" d="M 210.5 247.8 L 211.1 247.8 L 211.1 249.7 L 213.4 249.7 L 213.4 247.8 L 214.0 247.8 L 214.0 252.3 L 213.4 252.3 L 213.4 250.2 L 211.1 250.2 L 211.1 252.3 L 210.5 252.3 L 210.5 247.8 " fill="#FF0000"/>
<path class="atom-17" d="M 215.0 250.0 Q 215.0 249.0, 215.5 248.3 Q 216.1 247.7, 217.1 247.7 Q 218.1 247.7, 218.6 248.3 Q 219.1 249.0, 219.1 250.0 Q 219.1 251.1, 218.6 251.8 Q 218.1 252.4, 217.1 252.4 Q 216.1 252.4, 215.5 251.8 Q 215.0 251.2, 215.0 250.0 M 217.1 251.9 Q 217.8 251.9, 218.1 251.4 Q 218.5 251.0, 218.5 250.0 Q 218.5 249.2, 218.1 248.7 Q 217.8 248.2, 217.1 248.2 Q 216.4 248.2, 216.0 248.7 Q 215.6 249.1, 215.6 250.0 Q 215.6 251.0, 216.0 251.4 Q 216.4 251.9, 217.1 251.9 " fill="#FF0000"/>
<path class="atom-19" d="M 210.0 279.8 L 210.6 279.8 L 210.6 281.8 L 212.9 281.8 L 212.9 279.8 L 213.6 279.8 L 213.6 284.4 L 212.9 284.4 L 212.9 282.3 L 210.6 282.3 L 210.6 284.4 L 210.0 284.4 L 210.0 279.8 " fill="#FF0000"/>
<path class="atom-19" d="M 214.5 282.1 Q 214.5 281.0, 215.0 280.4 Q 215.6 279.8, 216.6 279.8 Q 217.6 279.8, 218.1 280.4 Q 218.7 281.0, 218.7 282.1 Q 218.7 283.2, 218.1 283.8 Q 217.6 284.5, 216.6 284.5 Q 215.6 284.5, 215.0 283.8 Q 214.5 283.2, 214.5 282.1 M 216.6 283.9 Q 217.3 283.9, 217.6 283.5 Q 218.0 283.0, 218.0 282.1 Q 218.0 281.2, 217.6 280.8 Q 217.3 280.3, 216.6 280.3 Q 215.9 280.3, 215.5 280.8 Q 215.1 281.2, 215.1 282.1 Q 215.1 283.0, 215.5 283.5 Q 215.9 283.9, 216.6 283.9 " fill="#FF0000"/>
<path class="atom-22" d="M 264.8 328.8 L 265.4 328.8 L 265.4 330.7 L 267.7 330.7 L 267.7 328.8 L 268.3 328.8 L 268.3 333.3 L 267.7 333.3 L 267.7 331.2 L 265.4 331.2 L 265.4 333.3 L 264.8 333.3 L 264.8 328.8 " fill="#FF0000"/>
<path class="atom-22" d="M 269.3 331.1 Q 269.3 330.0, 269.8 329.4 Q 270.4 328.7, 271.4 328.7 Q 272.4 328.7, 272.9 329.4 Q 273.4 330.0, 273.4 331.1 Q 273.4 332.2, 272.9 332.8 Q 272.4 333.4, 271.4 333.4 Q 270.4 333.4, 269.8 332.8 Q 269.3 332.2, 269.3 331.1 M 271.4 332.9 Q 272.0 332.9, 272.4 332.4 Q 272.8 332.0, 272.8 331.1 Q 272.8 330.2, 272.4 329.7 Q 272.0 329.3, 271.4 329.3 Q 270.7 329.3, 270.3 329.7 Q 269.9 330.2, 269.9 331.1 Q 269.9 332.0, 270.3 332.4 Q 270.7 332.9, 271.4 332.9 " fill="#FF0000"/>
<path class="atom-24" d="M 296.8 347.5 Q 296.8 346.4, 297.3 345.8 Q 297.9 345.2, 298.9 345.2 Q 299.9 345.2, 300.4 345.8 Q 301.0 346.4, 301.0 347.5 Q 301.0 348.6, 300.4 349.2 Q 299.9 349.9, 298.9 349.9 Q 297.9 349.9, 297.3 349.2 Q 296.8 348.6, 296.8 347.5 M 298.9 349.4 Q 299.6 349.4, 299.9 348.9 Q 300.3 348.4, 300.3 347.5 Q 300.3 346.6, 299.9 346.2 Q 299.6 345.7, 298.9 345.7 Q 298.2 345.7, 297.8 346.2 Q 297.4 346.6, 297.4 347.5 Q 297.4 348.4, 297.8 348.9 Q 298.2 349.4, 298.9 349.4 " fill="#FF0000"/>
<path class="atom-24" d="M 301.7 345.3 L 302.3 345.3 L 302.3 347.2 L 304.6 347.2 L 304.6 345.3 L 305.2 345.3 L 305.2 349.8 L 304.6 349.8 L 304.6 347.7 L 302.3 347.7 L 302.3 349.8 L 301.7 349.8 L 301.7 345.3 " fill="#FF0000"/>
<path class="atom-26" d="M 324.8 331.9 Q 324.8 330.8, 325.3 330.2 Q 325.9 329.6, 326.9 329.6 Q 327.9 329.6, 328.4 330.2 Q 329.0 330.8, 329.0 331.9 Q 329.0 333.0, 328.4 333.6 Q 327.9 334.3, 326.9 334.3 Q 325.9 334.3, 325.3 333.6 Q 324.8 333.0, 324.8 331.9 M 326.9 333.8 Q 327.6 333.8, 328.0 333.3 Q 328.3 332.8, 328.3 331.9 Q 328.3 331.0, 328.0 330.6 Q 327.6 330.1, 326.9 330.1 Q 326.2 330.1, 325.8 330.6 Q 325.4 331.0, 325.4 331.9 Q 325.4 332.8, 325.8 333.3 Q 326.2 333.8, 326.9 333.8 " fill="#FF0000"/>
<path class="atom-26" d="M 329.7 329.7 L 330.3 329.7 L 330.3 331.6 L 332.6 331.6 L 332.6 329.7 L 333.2 329.7 L 333.2 334.2 L 332.6 334.2 L 332.6 332.1 L 330.3 332.1 L 330.3 334.2 L 329.7 334.2 L 329.7 329.7 " fill="#FF0000"/>
<path class="atom-28" d="M 321.6 249.5 L 322.2 249.5 L 322.2 251.4 L 324.5 251.4 L 324.5 249.5 L 325.1 249.5 L 325.1 254.0 L 324.5 254.0 L 324.5 251.9 L 322.2 251.9 L 322.2 254.0 L 321.6 254.0 L 321.6 249.5 " fill="#FF0000"/>
<path class="atom-28" d="M 326.0 251.8 Q 326.0 250.7, 326.6 250.1 Q 327.1 249.4, 328.1 249.4 Q 329.1 249.4, 329.7 250.1 Q 330.2 250.7, 330.2 251.8 Q 330.2 252.9, 329.7 253.5 Q 329.1 254.1, 328.1 254.1 Q 327.1 254.1, 326.6 253.5 Q 326.0 252.9, 326.0 251.8 M 328.1 253.6 Q 328.8 253.6, 329.2 253.1 Q 329.6 252.7, 329.6 251.8 Q 329.6 250.9, 329.2 250.4 Q 328.8 250.0, 328.1 250.0 Q 327.4 250.0, 327.1 250.4 Q 326.7 250.9, 326.7 251.8 Q 326.7 252.7, 327.1 253.1 Q 327.4 253.6, 328.1 253.6 " fill="#FF0000"/>
<path class="atom-30" d="M 354.1 236.2 Q 354.1 235.1, 354.6 234.5 Q 355.1 233.8, 356.1 233.8 Q 357.1 233.8, 357.7 234.5 Q 358.2 235.1, 358.2 236.2 Q 358.2 237.3, 357.7 237.9 Q 357.1 238.5, 356.1 238.5 Q 355.1 238.5, 354.6 237.9 Q 354.1 237.3, 354.1 236.2 M 356.1 238.0 Q 356.8 238.0, 357.2 237.5 Q 357.6 237.1, 357.6 236.2 Q 357.6 235.3, 357.2 234.8 Q 356.8 234.4, 356.1 234.4 Q 355.4 234.4, 355.1 234.8 Q 354.7 235.3, 354.7 236.2 Q 354.7 237.1, 355.1 237.5 Q 355.4 238.0, 356.1 238.0 " fill="#FF0000"/>
<path class="atom-30" d="M 358.9 233.9 L 359.5 233.9 L 359.5 235.8 L 361.9 235.8 L 361.9 233.9 L 362.5 233.9 L 362.5 238.4 L 361.9 238.4 L 361.9 236.3 L 359.5 236.3 L 359.5 238.4 L 358.9 238.4 L 358.9 233.9 " fill="#FF0000"/>
<path class="atom-32" d="M 381.6 252.6 Q 381.6 251.5, 382.1 250.9 Q 382.6 250.3, 383.7 250.3 Q 384.7 250.3, 385.2 250.9 Q 385.7 251.5, 385.7 252.6 Q 385.7 253.7, 385.2 254.3 Q 384.7 255.0, 383.7 255.0 Q 382.7 255.0, 382.1 254.3 Q 381.6 253.7, 381.6 252.6 M 383.7 254.5 Q 384.3 254.5, 384.7 254.0 Q 385.1 253.5, 385.1 252.6 Q 385.1 251.7, 384.7 251.3 Q 384.3 250.8, 383.7 250.8 Q 383.0 250.8, 382.6 251.3 Q 382.2 251.7, 382.2 252.6 Q 382.2 253.5, 382.6 254.0 Q 383.0 254.5, 383.7 254.5 " fill="#FF0000"/>
<path class="atom-32" d="M 386.4 250.4 L 387.1 250.4 L 387.1 252.3 L 389.4 252.3 L 389.4 250.4 L 390.0 250.4 L 390.0 254.9 L 389.4 254.9 L 389.4 252.8 L 387.1 252.8 L 387.1 254.9 L 386.4 254.9 L 386.4 250.4 " fill="#FF0000"/>
<path class="legend" d="M 296.6 378.7 L 303.4 378.7 L 303.4 380.0 L 298.2 380.0 L 298.2 383.4 L 302.8 383.4 L 302.8 384.7 L 298.2 384.7 L 298.2 390.0 L 296.6 390.0 L 296.6 378.7 " fill="#000000"/>
</svg>