<svg xmlns="http://www.w3.org/2000/svg" xmlns:rdkit="http://www.rdkit.org/xml" xmlns:xlink="http://www.w3.org/1999/xlink" version="1.1" baseProfile="full" xml:space="preserve" width="800px" height="600px" viewBox="0 0 800 600">
<!-- END OF HEADER -->
<rect style="opacity:1.0;fill:#FFFFFF;stroke:none" width="800.0" height="600.0" x="0.0" y="0.0"> </rect>
<path class="bond-0 atom-0 atom-1" d="M 124.7,91.0 L 108.2,91.0" style="fill:none;fill-rule:evenodd;stroke:#000000;stroke-width:2.0px;stroke-linecap:butt;stroke-linejoin:miter;stroke-opacity:1"/>
<path class="bond-1 atom-1 atom-2" d="M 108.2,91.0 L 100.0,105.3" style="fill:none;fill-rule:evenodd;stroke:#000000;stroke-width:2.0px;stroke-linecap:butt;stroke-linejoin:miter;stroke-opacity:1"/>
<path class="bond-1 atom-1 atom-2" d="M 105.4,91.0 L 98.6,102.8" style="fill:none;fill-rule:evenodd;stroke:#000000;stroke-width:2.0px;stroke-linecap:butt;stroke-linejoin:miter;stroke-opacity:1"/>
<path class="bond-2 atom-2 atom-3" d="M 100.0,105.3 L 83.5,105.3" style="fill:none;fill-rule:evenodd;stroke:#000000;stroke-width:2.0px;stroke-linecap:butt;stroke-linejoin:miter;stroke-opacity:1"/>
<path class="bond-3 atom-3 atom-4" d="M 83.5,105.3 L 75.3,91.0" style="fill:none;fill-rule:evenodd;stroke:#000000;stroke-width:2.0px;stroke-linecap:butt;stroke-linejoin:miter;stroke-opacity:1"/>
<path class="bond-3 atom-3 atom-4" d="M 85.0,102.8 L 78.1,91.0" style="fill:none;fill-rule:evenodd;stroke:#000000;stroke-width:2.0px;stroke-linecap:butt;stroke-linejoin:miter;stroke-opacity:1"/>
<path class="bond-4 atom-4 atom-5" d="M 75.3,91.0 L 83.5,76.7" style="fill:none;fill-rule:evenodd;stroke:#000000;stroke-width:2.0px;stroke-linecap:butt;stroke-linejoin:miter;stroke-opacity:1"/>
<path class="bond-5 atom-5 atom-6" d="M 83.5,76.7 L 100.0,76.7" style="fill:none;fill-rule:evenodd;stroke:#000000;stroke-width:2.0px;stroke-linecap:butt;stroke-linejoin:miter;stroke-opacity:1"/>
<path class="bond-5 atom-5 atom-6" d="M 85.0,79.2 L 98.6,79.2" style="fill:none;fill-rule:evenodd;stroke:#000000;stroke-width:2.0px;stroke-linecap:butt;stroke-linejoin:miter;stroke-opacity:1"/>
<path class="bond-6 atom-6 atom-1" d="M 100.0,76.7 L 108.2,91.0" style="fill:none;fill-rule:evenodd;stroke:#000000;stroke-width:2.0px;stroke-linecap:butt;stroke-linejoin:miter;stroke-opacity:1"/>
<path d="M 100.4,104.6 L 100.0,105.3 L 99.2,105.3" style="fill:none;stroke:#000000;stroke-width:2.0px;stroke-linecap:butt;stroke-linejoin:miter;stroke-opacity:1;"/>
<path d="M 84.4,105.3 L 83.5,105.3 L 83.1,104.6" style="fill:none;stroke:#000000;stroke-width:2.0px;stroke-linecap:butt;stroke-linejoin:miter;stroke-opacity:1;"/>
<path d="M 75.7,91.7 L 75.3,91.0 L 75.7,90.3" style="fill:none;stroke:#000000;stroke-width:2.0px;stroke-linecap:butt;stroke-linejoin:miter;stroke-opacity:1;"/>
<path d="M 83.1,77.4 L 83.5,76.7 L 84.4,76.7" style="fill:none;stroke:#000000;stroke-width:2.0px;stroke-linecap:butt;stroke-linejoin:miter;stroke-opacity:1;"/>
<path d="M 99.2,76.7 L 100.0,76.7 L 100.4,77.4" style="fill:none;stroke:#000000;stroke-width:2.0px;stroke-linecap:butt;stroke-linejoin:miter;stroke-opacity:1;"/>
<path class="legend" d="M 103.4 190.0 L 102.2 186.7 L 97.8 186.7 L 96.6 190.0 L 95.1 190.0 L 99.0 178.7 L 100.9 178.7 L 104.9 190.0 L 103.4 190.0 M 98.2 185.4 L 101.8 185.4 L 100.0 180.3 L 98.2 185.4 " fill="#000000"/>
<path class="bond-0 atom-0 atom-1" d="M 282.5,93.9 L 296.7,85.7" style="fill:none;fill-rule:evenodd;stroke:#000000;stroke-width:2.0px;stroke-linecap:butt;stroke-linejoin:miter;stroke-opacity:1"/>
<path class="bond-1 atom-1 atom-2" d="M 296.7,85.7 L 302.5,89.0" style="fill:none;fill-rule:evenodd;stroke:#000000;stroke-width:2.0px;stroke-linecap:butt;stroke-linejoin:miter;stroke-opacity:1"/>
<path class="bond-1 atom-1 atom-2" d="M 302.5,89.0 L 308.3,92.4" style="fill:none;fill-rule:evenodd;stroke:#FF0000;stroke-width:2.0px;stroke-linecap:butt;stroke-linejoin:miter;stroke-opacity:1"/>
<path d="M 296.0,86.1 L 296.7,85.7 L 297.0,85.8" style="fill:none;stroke:#000000;stroke-width:2.0px;stroke-linecap:butt;stroke-linejoin:miter;stroke-opacity:1;"/>
<path class="atom-2" d="M 308.9 93.9 Q 308.9 92.8, 309.4 92.2 Q 310.0 91.5, 311.0 91.5 Q 312.0 91.5, 312.6 92.2 Q 313.1 92.8, 313.1 93.9 Q 313.1 95.0, 312.6 95.7 Q 312.0 96.3, 311.0 96.3 Q 310.0 96.3, 309.4 95.7 Q 308.9 95.1, 308.9 93.9 M 311.0 95.8 Q 311.7 95.8, 312.1 95.3 Q 312.5 94.9, 312.5 93.9 Q 312.5 93.0, 312.1 92.5 Q 311.7 92.1, 311.0 92.1 Q 310.3 92.1, 309.9 92.5 Q 309.5 93.0, 309.5 93.9 Q 309.5 94.9, 309.9 95.3 Q 310.3 95.8, 311.0 95.8 " fill="#FF0000"/>
<path class="atom-2" d="M 313.9 91.6 L 314.5 91.6 L 314.5 93.6 L 316.9 93.6 L 316.9 91.6 L 317.5 91.6 L 317.5 96.3 L 316.9 96.3 L 316.9 94.1 L 314.5 94.1 L 314.5 96.3 L 313.9 96.3 L 313.9 91.6 " fill="#FF0000"/>
<path class="legend" d="M 301.7 184.0 Q 302.7 184.4, 303.3 185.0 Q 303.8 185.7, 303.8 186.7 Q 303.8 188.2, 302.8 189.1 Q 301.8 190.0, 300.0 190.0 L 296.2 190.0 L 296.2 178.7 L 299.5 178.7 Q 301.4 178.7, 302.4 179.5 Q 303.4 180.2, 303.4 181.7 Q 303.4 183.4, 301.7 184.0 M 297.7 180.0 L 297.7 183.5 L 299.5 183.5 Q 300.6 183.5, 301.2 183.1 Q 301.8 182.6, 301.8 181.7 Q 301.8 180.0, 299.5 180.0 L 297.7 180.0 M 300.0 188.7 Q 301.1 188.7, 301.7 188.2 Q 302.2 187.7, 302.2 186.7 Q 302.2 185.7, 301.6 185.3 Q 301.0 184.8, 299.7 184.8 L 297.7 184.8 L 297.7 188.7 L 300.0 188.7 " fill="#000000"/>
<path class="bond-0 atom-0 atom-1" d="M 466.3,102.1 L 468.3,95.3" style="fill:none;fill-rule:evenodd;stroke:#FF0000;stroke-width:2.0px;stroke-linecap:butt;stroke-linejoin:miter;stroke-opacity:1"/>
<path class="bond-0 atom-0 atom-1" d="M 468.3,95.3 L 470.4,88.5" style="fill:none;fill-rule:evenodd;stroke:#000000;stroke-width:2.0px;stroke-linecap:butt;stroke-linejoin:miter;stroke-opacity:1"/>
<path class="bond-0 atom-0 atom-1" d="M 468.7,102.8 L 470.7,96.0" style="fill:none;fill-rule:evenodd;stroke:#FF0000;stroke-width:2.0px;stroke-linecap:butt;stroke-linejoin:miter;stroke-opacity:1"/>
<path class="bond-0 atom-0 atom-1" d="M 470.7,96.0 L 472.7,89.2" style="fill:none;fill-rule:evenodd;stroke:#000000;stroke-width:2.0px;stroke-linecap:butt;stroke-linejoin:miter;stroke-opacity:1"/>
<path class="bond-1 atom-1 atom-2" d="M 471.3,89.6 L 467.0,85.0" style="fill:none;fill-rule:evenodd;stroke:#000000;stroke-width:2.0px;stroke-linecap:butt;stroke-linejoin:miter;stroke-opacity:1"/>
<path class="bond-1 atom-1 atom-2" d="M 467.0,85.0 L 462.7,80.5" style="fill:none;fill-rule:evenodd;stroke:#FF0000;stroke-width:2.0px;stroke-linecap:butt;stroke-linejoin:miter;stroke-opacity:1"/>
<path class="bond-2 atom-1 atom-3" d="M 471.3,89.6 L 487.4,85.7" style="fill:none;fill-rule:evenodd;stroke:#000000;stroke-width:2.0px;stroke-linecap:butt;stroke-linejoin:miter;stroke-opacity:1"/>
<path class="bond-3 atom-3 atom-4" d="M 487.4,85.7 L 498.7,97.7" style="fill:none;fill-rule:evenodd;stroke:#000000;stroke-width:2.0px;stroke-linecap:butt;stroke-linejoin:miter;stroke-opacity:1"/>
<path class="bond-3 atom-3 atom-4" d="M 486.5,88.5 L 496.9,99.4" style="fill:none;fill-rule:evenodd;stroke:#000000;stroke-width:2.0px;stroke-linecap:butt;stroke-linejoin:miter;stroke-opacity:1"/>
<path class="bond-4 atom-4 atom-5" d="M 498.7,97.7 L 514.7,93.8" style="fill:none;fill-rule:evenodd;stroke:#000000;stroke-width:2.0px;stroke-linecap:butt;stroke-linejoin:miter;stroke-opacity:1"/>
<path class="bond-5 atom-5 atom-6" d="M 514.7,93.8 L 519.4,78.0" style="fill:none;fill-rule:evenodd;stroke:#000000;stroke-width:2.0px;stroke-linecap:butt;stroke-linejoin:miter;stroke-opacity:1"/>
<path class="bond-5 atom-5 atom-6" d="M 517.5,93.2 L 521.4,80.1" style="fill:none;fill-rule:evenodd;stroke:#000000;stroke-width:2.0px;stroke-linecap:butt;stroke-linejoin:miter;stroke-opacity:1"/>
<path class="bond-6 atom-6 atom-7" d="M 519.4,78.0 L 535.4,74.2" style="fill:none;fill-rule:evenodd;stroke:#000000;stroke-width:2.0px;stroke-linecap:butt;stroke-linejoin:miter;stroke-opacity:1"/>
<path class="bond-7 atom-7 atom-8" d="M 535.4,74.2 L 546.7,86.1" style="fill:none;fill-rule:evenodd;stroke:#000000;stroke-width:2.0px;stroke-linecap:butt;stroke-linejoin:miter;stroke-opacity:1"/>
<path class="bond-7 atom-7 atom-8" d="M 534.6,76.9 L 544.0,86.8" style="fill:none;fill-rule:evenodd;stroke:#000000;stroke-width:2.0px;stroke-linecap:butt;stroke-linejoin:miter;stroke-opacity:1"/>
<path class="bond-8 atom-8 atom-9" d="M 546.7,86.1 L 542.1,101.9" style="fill:none;fill-rule:evenodd;stroke:#000000;stroke-width:2.0px;stroke-linecap:butt;stroke-linejoin:miter;stroke-opacity:1"/>
<path class="bond-9 atom-9 atom-10" d="M 542.1,101.9 L 526.0,105.8" style="fill:none;fill-rule:evenodd;stroke:#000000;stroke-width:2.0px;stroke-linecap:butt;stroke-linejoin:miter;stroke-opacity:1"/>
<path class="bond-9 atom-9 atom-10" d="M 540.1,99.9 L 526.9,103.0" style="fill:none;fill-rule:evenodd;stroke:#000000;stroke-width:2.0px;stroke-linecap:butt;stroke-linejoin:miter;stroke-opacity:1"/>
<path class="bond-10 atom-10 atom-5" d="M 526.0,105.8 L 514.7,93.8" style="fill:none;fill-rule:evenodd;stroke:#000000;stroke-width:2.0px;stroke-linecap:butt;stroke-linejoin:miter;stroke-opacity:1"/>
<path d="M 471.1,89.3 L 471.3,89.6 L 472.1,89.4" style="fill:none;stroke:#000000;stroke-width:2.0px;stroke-linecap:butt;stroke-linejoin:miter;stroke-opacity:1;"/>
<path d="M 486.6,85.9 L 487.4,85.7 L 487.9,86.3" style="fill:none;stroke:#000000;stroke-width:2.0px;stroke-linecap:butt;stroke-linejoin:miter;stroke-opacity:1;"/>
<path d="M 498.1,97.1 L 498.7,97.7 L 499.5,97.5" style="fill:none;stroke:#000000;stroke-width:2.0px;stroke-linecap:butt;stroke-linejoin:miter;stroke-opacity:1;"/>
<path d="M 519.2,78.8 L 519.4,78.0 L 520.2,77.9" style="fill:none;stroke:#000000;stroke-width:2.0px;stroke-linecap:butt;stroke-linejoin:miter;stroke-opacity:1;"/>
<path d="M 534.6,74.4 L 535.4,74.2 L 536.0,74.8" style="fill:none;stroke:#000000;stroke-width:2.0px;stroke-linecap:butt;stroke-linejoin:miter;stroke-opacity:1;"/>
<path d="M 546.2,85.6 L 546.7,86.1 L 546.5,86.9" style="fill:none;stroke:#000000;stroke-width:2.0px;stroke-linecap:butt;stroke-linejoin:miter;stroke-opacity:1;"/>
<path d="M 542.3,101.2 L 542.1,101.9 L 541.3,102.1" style="fill:none;stroke:#000000;stroke-width:2.0px;stroke-linecap:butt;stroke-linejoin:miter;stroke-opacity:1;"/>
<path d="M 526.8,105.6 L 526.0,105.8 L 525.5,105.2" style="fill:none;stroke:#000000;stroke-width:2.0px;stroke-linecap:butt;stroke-linejoin:miter;stroke-opacity:1;"/>
<path class="atom-0" d="M 464.5 105.4 Q 464.5 104.3, 465.1 103.6 Q 465.6 103.0, 466.7 103.0 Q 467.7 103.0, 468.3 103.6 Q 468.8 104.3, 468.8 105.4 Q 468.8 106.5, 468.2 107.2 Q 467.7 107.8, 466.7 107.8 Q 465.6 107.8, 465.1 107.2 Q 464.5 106.5, 464.5 105.4 M 466.7 107.3 Q 467.4 107.3, 467.8 106.8 Q 468.1 106.3, 468.1 105.4 Q 468.1 104.5, 467.8 104.0 Q 467.4 103.5, 466.7 103.5 Q 466.0 103.5, 465.6 104.0 Q 465.2 104.5, 465.2 105.4 Q 465.2 106.3, 465.6 106.8 Q 466.0 107.3, 466.7 107.3 " fill="#FF0000"/>
<path class="atom-2" d="M 453.3 75.3 L 453.9 75.3 L 453.9 77.3 L 456.3 77.3 L 456.3 75.3 L 456.9 75.3 L 456.9 80.0 L 456.3 80.0 L 456.3 77.8 L 453.9 77.8 L 453.9 80.0 L 453.3 80.0 L 453.3 75.3 " fill="#FF0000"/>
<path class="atom-2" d="M 457.9 77.6 Q 457.9 76.5, 458.4 75.9 Q 459.0 75.3, 460.0 75.3 Q 461.0 75.3, 461.6 75.9 Q 462.1 76.5, 462.1 77.6 Q 462.1 78.8, 461.6 79.4 Q 461.0 80.1, 460.0 80.1 Q 459.0 80.1, 458.4 79.4 Q 457.9 78.8, 457.9 77.6 M 460.0 79.5 Q 460.7 79.5, 461.1 79.1 Q 461.5 78.6, 461.5 77.6 Q 461.5 76.7, 461.1 76.3 Q 460.7 75.8, 460.0 75.8 Q 459.3 75.8, 458.9 76.3 Q 458.5 76.7, 458.5 77.6 Q 458.5 78.6, 458.9 79.1 Q 459.3 79.5, 460.0 79.5 " fill="#FF0000"/>
<path class="legend" d="M 495.6 184.2 Q 495.6 181.4, 496.9 179.9 Q 498.3 178.4, 500.8 178.4 Q 503.1 178.4, 504.4 180.0 L 503.3 180.9 Q 502.4 179.7, 500.8 179.7 Q 499.1 179.7, 498.2 180.9 Q 497.3 182.0, 497.3 184.2 Q 497.3 186.4, 498.2 187.6 Q 499.1 188.7, 501.0 188.7 Q 502.2 188.7, 503.7 188.0 L 504.1 189.2 Q 503.5 189.6, 502.6 189.8 Q 501.7 190.0, 500.7 190.0 Q 498.3 190.0, 496.9 188.5 Q 495.6 187.0, 495.6 184.2 " fill="#000000"/>
<path class="bond-0 atom-0 atom-1" d="M 769.8,127.8 L 771.6,121.4" style="fill:none;fill-rule:evenodd;stroke:#000000;stroke-width:2.0px;stroke-linecap:butt;stroke-linejoin:miter;stroke-opacity:1"/>
<path class="bond-0 atom-0 atom-1" d="M 771.6,121.4 L 773.5,114.9" style="fill:none;fill-rule:evenodd;stroke:#FF0000;stroke-width:2.0px;stroke-linecap:butt;stroke-linejoin:miter;stroke-opacity:1"/>
<path class="bond-1 atom-1 atom-2" d="M 771.7,109.2 L 767.3,104.6" style="fill:none;fill-rule:evenodd;stroke:#FF0000;stroke-width:2.0px;stroke-linecap:butt;stroke-linejoin:miter;stroke-opacity:1"/>
<path class="bond-1 atom-1 atom-2" d="M 767.3,104.6 L 762.9,100.1" style="fill:none;fill-rule:evenodd;stroke:#000000;stroke-width:2.0px;stroke-linecap:butt;stroke-linejoin:miter;stroke-opacity:1"/>
<path class="bond-2 atom-2 atom-3" d="M 762.9,100.1 L 746.9,104.0" style="fill:none;fill-rule:evenodd;stroke:#000000;stroke-width:2.0px;stroke-linecap:butt;stroke-linejoin:miter;stroke-opacity:1"/>
<path class="bond-2 atom-2 atom-3" d="M 761.0,98.0 L 747.7,101.3" style="fill:none;fill-rule:evenodd;stroke:#000000;stroke-width:2.0px;stroke-linecap:butt;stroke-linejoin:miter;stroke-opacity:1"/>
<path class="bond-3 atom-3 atom-4" d="M 746.9,104.0 L 735.5,92.2" style="fill:none;fill-rule:evenodd;stroke:#000000;stroke-width:2.0px;stroke-linecap:butt;stroke-linejoin:miter;stroke-opacity:1"/>
<path class="bond-4 atom-4 atom-5" d="M 735.5,92.2 L 719.5,96.1" style="fill:none;fill-rule:evenodd;stroke:#000000;stroke-width:2.0px;stroke-linecap:butt;stroke-linejoin:miter;stroke-opacity:1"/>
<path class="bond-5 atom-5 atom-6" d="M 719.5,96.1 L 708.1,84.3" style="fill:none;fill-rule:evenodd;stroke:#000000;stroke-width:2.0px;stroke-linecap:butt;stroke-linejoin:miter;stroke-opacity:1"/>
<path class="bond-6 atom-6 atom-7" d="M 708.1,84.3 L 712.7,68.4" style="fill:none;fill-rule:evenodd;stroke:#000000;stroke-width:2.0px;stroke-linecap:butt;stroke-linejoin:miter;stroke-opacity:1"/>
<path class="bond-7 atom-7 atom-8" d="M 712.7,68.4 L 708.3,63.9" style="fill:none;fill-rule:evenodd;stroke:#000000;stroke-width:2.0px;stroke-linecap:butt;stroke-linejoin:miter;stroke-opacity:1"/>
<path class="bond-7 atom-7 atom-8" d="M 708.3,63.9 L 703.9,59.4" style="fill:none;fill-rule:evenodd;stroke:#FF0000;stroke-width:2.0px;stroke-linecap:butt;stroke-linejoin:miter;stroke-opacity:1"/>
<path class="bond-8 atom-6 atom-9" d="M 708.1,84.3 L 692.1,88.2" style="fill:none;fill-rule:evenodd;stroke:#000000;stroke-width:2.0px;stroke-linecap:butt;stroke-linejoin:miter;stroke-opacity:1"/>
<path class="bond-9 atom-9 atom-10" d="M 692.1,88.2 L 687.6,104.1" style="fill:none;fill-rule:evenodd;stroke:#000000;stroke-width:2.0px;stroke-linecap:butt;stroke-linejoin:miter;stroke-opacity:1"/>
<path class="bond-10 atom-10 atom-11" d="M 687.6,104.1 L 680.9,105.7" style="fill:none;fill-rule:evenodd;stroke:#000000;stroke-width:2.0px;stroke-linecap:butt;stroke-linejoin:miter;stroke-opacity:1"/>
<path class="bond-10 atom-10 atom-11" d="M 680.9,105.7 L 674.3,107.4" style="fill:none;fill-rule:evenodd;stroke:#FF0000;stroke-width:2.0px;stroke-linecap:butt;stroke-linejoin:miter;stroke-opacity:1"/>
<path class="bond-11 atom-9 atom-12" d="M 692.1,88.2 L 680.7,76.4" style="fill:none;fill-rule:evenodd;stroke:#000000;stroke-width:2.0px;stroke-linecap:butt;stroke-linejoin:miter;stroke-opacity:1"/>
<path class="bond-12 atom-12 atom-13" d="M 680.7,76.4 L 664.7,80.3" style="fill:none;fill-rule:evenodd;stroke:#000000;stroke-width:2.0px;stroke-linecap:butt;stroke-linejoin:miter;stroke-opacity:1"/>
<path class="bond-13 atom-13 atom-14" d="M 664.7,80.3 L 653.3,68.5" style="fill:none;fill-rule:evenodd;stroke:#000000;stroke-width:2.0px;stroke-linecap:butt;stroke-linejoin:miter;stroke-opacity:1"/>
<path class="bond-13 atom-13 atom-14" d="M 661.9,81.0 L 652.5,71.2" style="fill:none;fill-rule:evenodd;stroke:#000000;stroke-width:2.0px;stroke-linecap:butt;stroke-linejoin:miter;stroke-opacity:1"/>
<path class="bond-14 atom-14 atom-15" d="M 653.3,68.5 L 637.3,72.4" style="fill:none;fill-rule:evenodd;stroke:#000000;stroke-width:2.0px;stroke-linecap:butt;stroke-linejoin:miter;stroke-opacity:1"/>
<path class="bond-15 atom-15 atom-16" d="M 637.3,72.4 L 632.7,88.2" style="fill:none;fill-rule:evenodd;stroke:#000000;stroke-width:2.0px;stroke-linecap:butt;stroke-linejoin:miter;stroke-opacity:1"/>
<path class="bond-15 atom-15 atom-16" d="M 639.3,74.5 L 635.5,87.6" style="fill:none;fill-rule:evenodd;stroke:#000000;stroke-width:2.0px;stroke-linecap:butt;stroke-linejoin:miter;stroke-opacity:1"/>
<path class="bond-16 atom-16 atom-17" d="M 632.7,88.2 L 626.1,89.9" style="fill:none;fill-rule:evenodd;stroke:#000000;stroke-width:2.0px;stroke-linecap:butt;stroke-linejoin:miter;stroke-opacity:1"/>
<path class="bond-16 atom-16 atom-17" d="M 626.1,89.9 L 619.4,91.5" style="fill:none;fill-rule:evenodd;stroke:#FF0000;stroke-width:2.0px;stroke-linecap:butt;stroke-linejoin:miter;stroke-opacity:1"/>
<path class="bond-17 atom-16 atom-18" d="M 632.7,88.2 L 644.2,100.1" style="fill:none;fill-rule:evenodd;stroke:#000000;stroke-width:2.0px;stroke-linecap:butt;stroke-linejoin:miter;stroke-opacity:1"/>
<path class="bond-18 atom-18 atom-19" d="M 644.2,100.1 L 642.3,106.6" style="fill:none;fill-rule:evenodd;stroke:#000000;stroke-width:2.0px;stroke-linecap:butt;stroke-linejoin:miter;stroke-opacity:1"/>
<path class="bond-18 atom-18 atom-19" d="M 642.3,106.6 L 640.4,113.0" style="fill:none;fill-rule:evenodd;stroke:#FF0000;stroke-width:2.0px;stroke-linecap:butt;stroke-linejoin:miter;stroke-opacity:1"/>
<path class="bond-19 atom-19 atom-20" d="M 636.9,116.6 L 630.3,118.2" style="fill:none;fill-rule:evenodd;stroke:#FF0000;stroke-width:2.0px;stroke-linecap:butt;stroke-linejoin:miter;stroke-opacity:1"/>
<path class="bond-19 atom-19 atom-20" d="M 630.3,118.2 L 623.6,119.9" style="fill:none;fill-rule:evenodd;stroke:#000000;stroke-width:2.0px;stroke-linecap:butt;stroke-linejoin:miter;stroke-opacity:1"/>
<path class="bond-20 atom-18 atom-21" d="M 644.2,100.1 L 660.1,96.1" style="fill:none;fill-rule:evenodd;stroke:#000000;stroke-width:2.0px;stroke-linecap:butt;stroke-linejoin:miter;stroke-opacity:1"/>
<path class="bond-20 atom-18 atom-21" d="M 644.9,97.4 L 658.2,94.1" style="fill:none;fill-rule:evenodd;stroke:#000000;stroke-width:2.0px;stroke-linecap:butt;stroke-linejoin:miter;stroke-opacity:1"/>
<path class="bond-21 atom-4 atom-22" d="M 735.5,92.2 L 740.1,76.4" style="fill:none;fill-rule:evenodd;stroke:#000000;stroke-width:2.0px;stroke-linecap:butt;stroke-linejoin:miter;stroke-opacity:1"/>
<path class="bond-21 atom-4 atom-22" d="M 738.3,91.5 L 742.1,78.4" style="fill:none;fill-rule:evenodd;stroke:#000000;stroke-width:2.0px;stroke-linecap:butt;stroke-linejoin:miter;stroke-opacity:1"/>
<path class="bond-22 atom-22 atom-23" d="M 740.1,76.4 L 756.1,72.4" style="fill:none;fill-rule:evenodd;stroke:#000000;stroke-width:2.0px;stroke-linecap:butt;stroke-linejoin:miter;stroke-opacity:1"/>
<path class="bond-23 atom-23 atom-24" d="M 756.1,72.4 L 767.5,84.3" style="fill:none;fill-rule:evenodd;stroke:#000000;stroke-width:2.0px;stroke-linecap:butt;stroke-linejoin:miter;stroke-opacity:1"/>
<path class="bond-23 atom-23 atom-24" d="M 755.3,75.1 L 764.7,84.9" style="fill:none;fill-rule:evenodd;stroke:#000000;stroke-width:2.0px;stroke-linecap:butt;stroke-linejoin:miter;stroke-opacity:1"/>
<path class="bond-24 atom-24 atom-25" d="M 767.5,84.3 L 774.1,82.6" style="fill:none;fill-rule:evenodd;stroke:#000000;stroke-width:2.0px;stroke-linecap:butt;stroke-linejoin:miter;stroke-opacity:1"/>
<path class="bond-24 atom-24 atom-25" d="M 774.1,82.6 L 780.8,81.0" style="fill:none;fill-rule:evenodd;stroke:#FF0000;stroke-width:2.0px;stroke-linecap:butt;stroke-linejoin:miter;stroke-opacity:1"/>
<path class="bond-25 atom-24 atom-2" d="M 767.5,84.3 L 762.9,100.1" style="fill:none;fill-rule:evenodd;stroke:#000000;stroke-width:2.0px;stroke-linecap:butt;stroke-linejoin:miter;stroke-opacity:1"/>
<path class="bond-26 atom-21 atom-13" d="M 660.1,96.1 L 664.7,80.3" style="fill:none;fill-rule:evenodd;stroke:#000000;stroke-width:2.0px;stroke-linecap:butt;stroke-linejoin:miter;stroke-opacity:1"/>
<path d="M 747.7,103.8 L 746.9,104.0 L 746.4,103.5" style="fill:none;stroke:#000000;stroke-width:2.0px;stroke-linecap:butt;stroke-linejoin:miter;stroke-opacity:1;"/>
<path d="M 720.3,95.9 L 719.5,96.1 L 719.0,95.5" style="fill:none;stroke:#000000;stroke-width:2.0px;stroke-linecap:butt;stroke-linejoin:miter;stroke-opacity:1;"/>
<path d="M 712.4,69.2 L 712.7,68.4 L 712.5,68.2" style="fill:none;stroke:#000000;stroke-width:2.0px;stroke-linecap:butt;stroke-linejoin:miter;stroke-opacity:1;"/>
<path d="M 687.8,103.3 L 687.6,104.1 L 687.2,104.1" style="fill:none;stroke:#000000;stroke-width:2.0px;stroke-linecap:butt;stroke-linejoin:miter;stroke-opacity:1;"/>
<path d="M 681.3,77.0 L 680.7,76.4 L 679.9,76.6" style="fill:none;stroke:#000000;stroke-width:2.0px;stroke-linecap:butt;stroke-linejoin:miter;stroke-opacity:1;"/>
<path d="M 653.9,69.1 L 653.3,68.5 L 652.5,68.7" style="fill:none;stroke:#000000;stroke-width:2.0px;stroke-linecap:butt;stroke-linejoin:miter;stroke-opacity:1;"/>
<path d="M 638.1,72.2 L 637.3,72.4 L 637.1,73.2" style="fill:none;stroke:#000000;stroke-width:2.0px;stroke-linecap:butt;stroke-linejoin:miter;stroke-opacity:1;"/>
<path d="M 659.3,96.3 L 660.1,96.1 L 660.4,95.4" style="fill:none;stroke:#000000;stroke-width:2.0px;stroke-linecap:butt;stroke-linejoin:miter;stroke-opacity:1;"/>
<path d="M 739.9,77.1 L 740.1,76.4 L 740.9,76.2" style="fill:none;stroke:#000000;stroke-width:2.0px;stroke-linecap:butt;stroke-linejoin:miter;stroke-opacity:1;"/>
<path d="M 755.3,72.6 L 756.1,72.4 L 756.6,73.0" style="fill:none;stroke:#000000;stroke-width:2.0px;stroke-linecap:butt;stroke-linejoin:miter;stroke-opacity:1;"/>
<path class="atom-1" d="M 772.2 112.0 Q 772.2 110.8, 772.8 110.2 Q 773.3 109.6, 774.4 109.6 Q 775.4 109.6, 775.9 110.2 Q 776.5 110.8, 776.5 112.0 Q 776.5 113.1, 775.9 113.7 Q 775.4 114.4, 774.4 114.4 Q 773.3 114.4, 772.8 113.7 Q 772.2 113.1, 772.2 112.0 M 774.4 113.9 Q 775.1 113.9, 775.4 113.4 Q 775.8 112.9, 775.8 112.0 Q 775.8 111.1, 775.4 110.6 Q 775.1 110.1, 774.4 110.1 Q 773.6 110.1, 773.3 110.6 Q 772.9 111.0, 772.9 112.0 Q 772.9 112.9, 773.3 113.4 Q 773.6 113.9, 774.4 113.9 " fill="#FF0000"/>
<path class="atom-8" d="M 694.5 54.3 L 695.1 54.3 L 695.1 56.3 L 697.5 56.3 L 697.5 54.3 L 698.2 54.3 L 698.2 58.9 L 697.5 58.9 L 697.5 56.8 L 695.1 56.8 L 695.1 58.9 L 694.5 58.9 L 694.5 54.3 " fill="#FF0000"/>
<path class="atom-8" d="M 699.1 56.6 Q 699.1 55.5, 699.7 54.8 Q 700.2 54.2, 701.3 54.2 Q 702.3 54.2, 702.8 54.8 Q 703.4 55.5, 703.4 56.6 Q 703.4 57.7, 702.8 58.4 Q 702.3 59.0, 701.3 59.0 Q 700.2 59.0, 699.7 58.4 Q 699.1 57.7, 699.1 56.6 M 701.3 58.5 Q 702.0 58.5, 702.3 58.0 Q 702.7 57.5, 702.7 56.6 Q 702.7 55.7, 702.3 55.2 Q 702.0 54.7, 701.3 54.7 Q 700.5 54.7, 700.2 55.2 Q 699.8 55.7, 699.8 56.6 Q 699.8 57.5, 700.2 58.0 Q 700.5 58.5, 701.3 58.5 " fill="#FF0000"/>
<path class="atom-11" d="M 664.8 105.7 L 665.5 105.7 L 665.5 107.7 L 667.8 107.7 L 667.8 105.7 L 668.5 105.7 L 668.5 110.4 L 667.8 110.4 L 667.8 108.2 L 665.5 108.2 L 665.5 110.4 L 664.8 110.4 L 664.8 105.7 " fill="#FF0000"/>
<path class="atom-11" d="M 669.4 108.0 Q 669.4 106.9, 670.0 106.3 Q 670.5 105.7, 671.6 105.7 Q 672.6 105.7, 673.2 106.3 Q 673.7 106.9, 673.7 108.0 Q 673.7 109.2, 673.1 109.8 Q 672.6 110.4, 671.6 110.4 Q 670.5 110.4, 670.0 109.8 Q 669.4 109.2, 669.4 108.0 M 671.6 109.9 Q 672.3 109.9, 672.7 109.4 Q 673.1 109.0, 673.1 108.0 Q 673.1 107.1, 672.7 106.7 Q 672.3 106.2, 671.6 106.2 Q 670.9 106.2, 670.5 106.6 Q 670.1 107.1, 670.1 108.0 Q 670.1 109.0, 670.5 109.4 Q 670.9 109.9, 671.6 109.9 " fill="#FF0000"/>
<path class="atom-17" d="M 610.0 89.9 L 610.6 89.9 L 610.6 91.9 L 613.0 91.9 L 613.0 89.9 L 613.6 89.9 L 613.6 94.6 L 613.0 94.6 L 613.0 92.4 L 610.6 92.4 L 610.6 94.6 L 610.0 94.6 L 610.0 89.9 " fill="#FF0000"/>
<path class="atom-17" d="M 614.6 92.2 Q 614.6 91.1, 615.2 90.5 Q 615.7 89.8, 616.7 89.8 Q 617.8 89.8, 618.3 90.5 Q 618.9 91.1, 618.9 92.2 Q 618.9 93.3, 618.3 94.0 Q 617.8 94.6, 616.7 94.6 Q 615.7 94.6, 615.2 94.0 Q 614.6 93.4, 614.6 92.2 M 616.7 94.1 Q 617.5 94.1, 617.8 93.6 Q 618.2 93.1, 618.2 92.2 Q 618.2 91.3, 617.8 90.8 Q 617.5 90.4, 616.7 90.4 Q 616.0 90.4, 615.6 90.8 Q 615.3 91.3, 615.3 92.2 Q 615.3 93.2, 615.6 93.6 Q 616.0 94.1, 616.7 94.1 " fill="#FF0000"/>
<path class="atom-19" d="M 637.5 115.9 Q 637.5 114.8, 638.0 114.2 Q 638.6 113.6, 639.6 113.6 Q 640.6 113.6, 641.2 114.2 Q 641.7 114.8, 641.7 115.9 Q 641.7 117.1, 641.2 117.7 Q 640.6 118.4, 639.6 118.4 Q 638.6 118.4, 638.0 117.7 Q 637.5 117.1, 637.5 115.9 M 639.6 117.8 Q 640.3 117.8, 640.7 117.4 Q 641.1 116.9, 641.1 115.9 Q 641.1 115.0, 640.7 114.6 Q 640.3 114.1, 639.6 114.1 Q 638.9 114.1, 638.5 114.6 Q 638.1 115.0, 638.1 115.9 Q 638.1 116.9, 638.5 117.4 Q 638.9 117.8, 639.6 117.8 " fill="#FF0000"/>
<path class="atom-25" d="M 781.3 80.3 Q 781.3 79.2, 781.9 78.6 Q 782.4 77.9, 783.5 77.9 Q 784.5 77.9, 785.1 78.6 Q 785.6 79.2, 785.6 80.3 Q 785.6 81.4, 785.1 82.1 Q 784.5 82.7, 783.5 82.7 Q 782.5 82.7, 781.9 82.1 Q 781.3 81.5, 781.3 80.3 M 783.5 82.2 Q 784.2 82.2, 784.6 81.7 Q 785.0 81.3, 785.0 80.3 Q 785.0 79.4, 784.6 78.9 Q 784.2 78.5, 783.5 78.5 Q 782.8 78.5, 782.4 78.9 Q 782.0 79.4, 782.0 80.3 Q 782.0 81.3, 782.4 81.7 Q 782.8 82.2, 783.5 82.2 " fill="#FF0000"/>
<path class="atom-25" d="M 786.4 78.0 L 787.0 78.0 L 787.0 80.0 L 789.4 80.0 L 789.4 78.0 L 790.0 78.0 L 790.0 82.7 L 789.4 82.7 L 789.4 80.5 L 787.0 80.5 L 787.0 82.7 L 786.4 82.7 L 786.4 78.0 " fill="#FF0000"/>
<path class="legend" d="M 699.2 178.7 Q 701.7 178.7, 703.1 180.2 Q 704.4 181.6, 704.4 184.3 Q 704.4 187.0, 703.1 188.5 Q 701.7 190.0, 699.2 190.0 L 695.6 190.0 L 695.6 178.7 L 699.2 178.7 M 699.2 188.7 Q 701.0 188.7, 701.9 187.6 Q 702.8 186.5, 702.8 184.3 Q 702.8 182.1, 701.9 181.0 Q 701.0 180.0, 699.2 180.0 L 697.1 180.0 L 697.1 188.7 L 699.2 188.7 " fill="#000000"/>
<path class="bond-0 atom-0 atom-1" d="M 85.7,295.1 L 100.0,286.9" style="fill:none;fill-rule:evenodd;stroke:#000000;stroke-width:2.0px;stroke-linecap:butt;stroke-linejoin:miter;stroke-opacity:1"/>
<path class="bond-1 atom-1 atom-2" d="M 100.0,286.9 L 114.3,295.1" style="fill:none;fill-rule:evenodd;stroke:#000000;stroke-width:2.0px;stroke-linecap:butt;stroke-linejoin:miter;stroke-opacity:1"/>
<path d="M 99.3,287.3 L 100.0,286.9 L 100.7,287.3" style="fill:none;stroke:#000000;stroke-width:2.0px;stroke-linecap:butt;stroke-linejoin:miter;stroke-opacity:1;"/>
<path class="legend" d="M 96.5 378.7 L 103.3 378.7 L 103.3 380.0 L 98.1 380.0 L 98.1 383.4 L 102.8 383.4 L 102.8 384.7 L 98.1 384.7 L 98.1 388.7 L 103.5 388.7 L 103.5 390.0 L 96.5 390.0 L 96.5 378.7 " fill="#000000"/>
<path class="bond-0 atom-0 atom-1" d="M 315.2,333.8 L 319.7,318.0" style="fill:none;fill-rule:evenodd;stroke:#000000;stroke-width:2.0px;stroke-linecap:butt;stroke-linejoin:miter;stroke-opacity:1"/>
<path class="bond-1 atom-1 atom-2" d="M 319.7,318.0 L 335.6,313.9" style="fill:none;fill-rule:evenodd;stroke:#000000;stroke-width:2.0px;stroke-linecap:butt;stroke-linejoin:miter;stroke-opacity:1"/>
<path class="bond-2 atom-2 atom-3" d="M 335.6,313.9 L 340.1,298.1" style="fill:none;fill-rule:evenodd;stroke:#000000;stroke-width:2.0px;stroke-linecap:butt;stroke-linejoin:miter;stroke-opacity:1"/>
<path class="bond-3 atom-3 atom-4" d="M 340.1,298.1 L 356.1,294.0" style="fill:none;fill-rule:evenodd;stroke:#000000;stroke-width:2.0px;stroke-linecap:butt;stroke-linejoin:miter;stroke-opacity:1"/>
<path class="bond-3 atom-3 atom-4" d="M 340.9,295.3 L 354.1,292.0" style="fill:none;fill-rule:evenodd;stroke:#000000;stroke-width:2.0px;stroke-linecap:butt;stroke-linejoin:miter;stroke-opacity:1"/>
<path class="bond-4 atom-4 atom-5" d="M 356.1,294.0 L 360.5,278.2" style="fill:none;fill-rule:evenodd;stroke:#000000;stroke-width:2.0px;stroke-linecap:butt;stroke-linejoin:miter;stroke-opacity:1"/>
<path class="bond-5 atom-5 atom-6" d="M 360.5,278.2 L 349.0,266.4" style="fill:none;fill-rule:evenodd;stroke:#000000;stroke-width:2.0px;stroke-linecap:butt;stroke-linejoin:miter;stroke-opacity:1"/>
<path class="bond-5 atom-5 atom-6" d="M 357.8,278.9 L 348.3,269.1" style="fill:none;fill-rule:evenodd;stroke:#000000;stroke-width:2.0px;stroke-linecap:butt;stroke-linejoin:miter;stroke-opacity:1"/>
<path class="bond-6 atom-6 atom-7" d="M 349.0,266.4 L 350.8,259.9" style="fill:none;fill-rule:evenodd;stroke:#000000;stroke-width:2.0px;stroke-linecap:butt;stroke-linejoin:miter;stroke-opacity:1"/>
<path class="bond-6 atom-6 atom-7" d="M 350.8,259.9 L 352.7,253.5" style="fill:none;fill-rule:evenodd;stroke:#FF0000;stroke-width:2.0px;stroke-linecap:butt;stroke-linejoin:miter;stroke-opacity:1"/>
<path class="bond-7 atom-6 atom-8" d="M 349.0,266.4 L 333.1,270.4" style="fill:none;fill-rule:evenodd;stroke:#000000;stroke-width:2.0px;stroke-linecap:butt;stroke-linejoin:miter;stroke-opacity:1"/>
<path class="bond-8 atom-8 atom-9" d="M 333.1,270.4 L 328.6,286.3" style="fill:none;fill-rule:evenodd;stroke:#000000;stroke-width:2.0px;stroke-linecap:butt;stroke-linejoin:miter;stroke-opacity:1"/>
<path class="bond-8 atom-8 atom-9" d="M 335.1,272.5 L 331.4,285.6" style="fill:none;fill-rule:evenodd;stroke:#000000;stroke-width:2.0px;stroke-linecap:butt;stroke-linejoin:miter;stroke-opacity:1"/>
<path class="bond-9 atom-1 atom-10" d="M 319.7,318.0 L 308.2,306.2" style="fill:none;fill-rule:evenodd;stroke:#000000;stroke-width:2.0px;stroke-linecap:butt;stroke-linejoin:miter;stroke-opacity:1"/>
<path class="bond-10 atom-10 atom-11" d="M 308.2,306.2 L 312.6,290.3" style="fill:none;fill-rule:evenodd;stroke:#000000;stroke-width:2.0px;stroke-linecap:butt;stroke-linejoin:miter;stroke-opacity:1"/>
<path class="bond-11 atom-11 atom-12" d="M 312.6,290.3 L 308.2,285.8" style="fill:none;fill-rule:evenodd;stroke:#000000;stroke-width:2.0px;stroke-linecap:butt;stroke-linejoin:miter;stroke-opacity:1"/>
<path class="bond-11 atom-11 atom-12" d="M 308.2,285.8 L 303.8,281.3" style="fill:none;fill-rule:evenodd;stroke:#FF0000;stroke-width:2.0px;stroke-linecap:butt;stroke-linejoin:miter;stroke-opacity:1"/>
<path class="bond-12 atom-10 atom-13" d="M 308.2,306.2 L 292.2,310.3" style="fill:none;fill-rule:evenodd;stroke:#000000;stroke-width:2.0px;stroke-linecap:butt;stroke-linejoin:miter;stroke-opacity:1"/>
<path class="bond-13 atom-13 atom-14" d="M 292.2,310.3 L 280.7,298.5" style="fill:none;fill-rule:evenodd;stroke:#000000;stroke-width:2.0px;stroke-linecap:butt;stroke-linejoin:miter;stroke-opacity:1"/>
<path class="bond-14 atom-14 atom-15" d="M 280.7,298.5 L 285.2,282.6" style="fill:none;fill-rule:evenodd;stroke:#000000;stroke-width:2.0px;stroke-linecap:butt;stroke-linejoin:miter;stroke-opacity:1"/>
<path class="bond-14 atom-14 atom-15" d="M 278.7,296.4 L 282.4,283.3" style="fill:none;fill-rule:evenodd;stroke:#000000;stroke-width:2.0px;stroke-linecap:butt;stroke-linejoin:miter;stroke-opacity:1"/>
<path class="bond-15 atom-15 atom-16" d="M 285.2,282.6 L 273.7,270.8" style="fill:none;fill-rule:evenodd;stroke:#000000;stroke-width:2.0px;stroke-linecap:butt;stroke-linejoin:miter;stroke-opacity:1"/>
<path class="bond-16 atom-16 atom-17" d="M 273.7,270.8 L 257.7,274.9" style="fill:none;fill-rule:evenodd;stroke:#000000;stroke-width:2.0px;stroke-linecap:butt;stroke-linejoin:miter;stroke-opacity:1"/>
<path class="bond-16 atom-16 atom-17" d="M 272.9,273.6 L 259.7,276.9" style="fill:none;fill-rule:evenodd;stroke:#000000;stroke-width:2.0px;stroke-linecap:butt;stroke-linejoin:miter;stroke-opacity:1"/>
<path class="bond-17 atom-17 atom-18" d="M 257.7,274.9 L 253.3,270.4" style="fill:none;fill-rule:evenodd;stroke:#000000;stroke-width:2.0px;stroke-linecap:butt;stroke-linejoin:miter;stroke-opacity:1"/>
<path class="bond-17 atom-17 atom-18" d="M 253.3,270.4 L 248.9,265.8" style="fill:none;fill-rule:evenodd;stroke:#FF0000;stroke-width:2.0px;stroke-linecap:butt;stroke-linejoin:miter;stroke-opacity:1"/>
<path class="bond-18 atom-17 atom-19" d="M 257.7,274.9 L 253.3,290.7" style="fill:none;fill-rule:evenodd;stroke:#000000;stroke-width:2.0px;stroke-linecap:butt;stroke-linejoin:miter;stroke-opacity:1"/>
<path class="bond-19 atom-19 atom-20" d="M 253.3,290.7 L 264.8,302.5" style="fill:none;fill-rule:evenodd;stroke:#000000;stroke-width:2.0px;stroke-linecap:butt;stroke-linejoin:miter;stroke-opacity:1"/>
<path class="bond-19 atom-19 atom-20" d="M 256.0,290.0 L 265.5,299.8" style="fill:none;fill-rule:evenodd;stroke:#000000;stroke-width:2.0px;stroke-linecap:butt;stroke-linejoin:miter;stroke-opacity:1"/>
<path class="bond-20 atom-9 atom-3" d="M 328.6,286.3 L 340.1,298.1" style="fill:none;fill-rule:evenodd;stroke:#000000;stroke-width:2.0px;stroke-linecap:butt;stroke-linejoin:miter;stroke-opacity:1"/>
<path class="bond-21 atom-20 atom-14" d="M 264.8,302.5 L 280.7,298.5" style="fill:none;fill-rule:evenodd;stroke:#000000;stroke-width:2.0px;stroke-linecap:butt;stroke-linejoin:miter;stroke-opacity:1"/>
<path d="M 334.8,314.1 L 335.6,313.9 L 335.9,313.1" style="fill:none;stroke:#000000;stroke-width:2.0px;stroke-linecap:butt;stroke-linejoin:miter;stroke-opacity:1;"/>
<path d="M 355.3,294.2 L 356.1,294.0 L 356.3,293.2" style="fill:none;stroke:#000000;stroke-width:2.0px;stroke-linecap:butt;stroke-linejoin:miter;stroke-opacity:1;"/>
<path d="M 360.3,279.0 L 360.5,278.2 L 360.0,277.6" style="fill:none;stroke:#000000;stroke-width:2.0px;stroke-linecap:butt;stroke-linejoin:miter;stroke-opacity:1;"/>
<path d="M 333.9,270.2 L 333.1,270.4 L 332.8,271.2" style="fill:none;stroke:#000000;stroke-width:2.0px;stroke-linecap:butt;stroke-linejoin:miter;stroke-opacity:1;"/>
<path d="M 328.8,285.5 L 328.6,286.3 L 329.2,286.9" style="fill:none;stroke:#000000;stroke-width:2.0px;stroke-linecap:butt;stroke-linejoin:miter;stroke-opacity:1;"/>
<path d="M 312.4,291.1 L 312.6,290.3 L 312.4,290.1" style="fill:none;stroke:#000000;stroke-width:2.0px;stroke-linecap:butt;stroke-linejoin:miter;stroke-opacity:1;"/>
<path d="M 293.0,310.1 L 292.2,310.3 L 291.6,309.7" style="fill:none;stroke:#000000;stroke-width:2.0px;stroke-linecap:butt;stroke-linejoin:miter;stroke-opacity:1;"/>
<path d="M 285.0,283.4 L 285.2,282.6 L 284.6,282.0" style="fill:none;stroke:#000000;stroke-width:2.0px;stroke-linecap:butt;stroke-linejoin:miter;stroke-opacity:1;"/>
<path d="M 274.3,271.4 L 273.7,270.8 L 272.9,271.0" style="fill:none;stroke:#000000;stroke-width:2.0px;stroke-linecap:butt;stroke-linejoin:miter;stroke-opacity:1;"/>
<path d="M 253.5,289.9 L 253.3,290.7 L 253.8,291.3" style="fill:none;stroke:#000000;stroke-width:2.0px;stroke-linecap:butt;stroke-linejoin:miter;stroke-opacity:1;"/>
<path d="M 264.2,301.9 L 264.8,302.5 L 265.6,302.3" style="fill:none;stroke:#000000;stroke-width:2.0px;stroke-linecap:butt;stroke-linejoin:miter;stroke-opacity:1;"/>
<path class="atom-7" d="M 351.4 250.5 Q 351.4 249.4, 351.9 248.8 Q 352.5 248.2, 353.5 248.2 Q 354.5 248.2, 355.1 248.8 Q 355.6 249.4, 355.6 250.5 Q 355.6 251.7, 355.1 252.3 Q 354.5 252.9, 353.5 252.9 Q 352.5 252.9, 351.9 252.3 Q 351.4 251.7, 351.4 250.5 M 353.5 252.4 Q 354.2 252.4, 354.6 251.9 Q 355.0 251.5, 355.0 250.5 Q 355.0 249.6, 354.6 249.1 Q 354.2 248.7, 353.5 248.7 Q 352.8 248.7, 352.4 249.1 Q 352.0 249.6, 352.0 250.5 Q 352.0 251.5, 352.4 251.9 Q 352.8 252.4, 353.5 252.4 " fill="#FF0000"/>
<path class="atom-7" d="M 356.4 248.2 L 357.0 248.2 L 357.0 250.2 L 359.4 250.2 L 359.4 248.2 L 360.0 248.2 L 360.0 252.9 L 359.4 252.9 L 359.4 250.7 L 357.0 250.7 L 357.0 252.9 L 356.4 252.9 L 356.4 248.2 " fill="#FF0000"/>
<path class="atom-12" d="M 294.4 276.2 L 295.0 276.2 L 295.0 278.2 L 297.4 278.2 L 297.4 276.2 L 298.0 276.2 L 298.0 280.9 L 297.4 280.9 L 297.4 278.8 L 295.0 278.8 L 295.0 280.9 L 294.4 280.9 L 294.4 276.2 " fill="#FF0000"/>
<path class="atom-12" d="M 299.0 278.6 Q 299.0 277.4, 299.6 276.8 Q 300.1 276.2, 301.1 276.2 Q 302.2 276.2, 302.7 276.8 Q 303.3 277.4, 303.3 278.6 Q 303.3 279.7, 302.7 280.3 Q 302.2 281.0, 301.1 281.0 Q 300.1 281.0, 299.6 280.3 Q 299.0 279.7, 299.0 278.6 M 301.1 280.5 Q 301.9 280.5, 302.2 280.0 Q 302.6 279.5, 302.6 278.6 Q 302.6 277.6, 302.2 277.2 Q 301.9 276.7, 301.1 276.7 Q 300.4 276.7, 300.0 277.2 Q 299.7 277.6, 299.7 278.6 Q 299.7 279.5, 300.0 280.0 Q 300.4 280.5, 301.1 280.5 " fill="#FF0000"/>
<path class="atom-18" d="M 239.5 260.8 L 240.1 260.8 L 240.1 262.8 L 242.5 262.8 L 242.5 260.8 L 243.1 260.8 L 243.1 265.4 L 242.5 265.4 L 242.5 263.3 L 240.1 263.3 L 240.1 265.4 L 239.5 265.4 L 239.5 260.8 " fill="#FF0000"/>
<path class="atom-18" d="M 244.1 263.1 Q 244.1 262.0, 244.6 261.4 Q 245.2 260.7, 246.2 260.7 Q 247.3 260.7, 247.8 261.4 Q 248.4 262.0, 248.4 263.1 Q 248.4 264.2, 247.8 264.9 Q 247.2 265.5, 246.2 265.5 Q 245.2 265.5, 244.6 264.9 Q 244.1 264.2, 244.1 263.1 M 246.2 265.0 Q 246.9 265.0, 247.3 264.5 Q 247.7 264.0, 247.7 263.1 Q 247.7 262.2, 247.3 261.7 Q 246.9 261.3, 246.2 261.3 Q 245.5 261.3, 245.1 261.7 Q 244.7 262.2, 244.7 263.1 Q 244.7 264.0, 245.1 264.5 Q 245.5 265.0, 246.2 265.0 " fill="#FF0000"/>
<path class="legend" d="M 304.6 384.3 L 304.6 389.1 Q 302.9 390.0, 300.6 390.0 Q 298.1 390.0, 296.8 388.5 Q 295.4 387.0, 295.4 384.2 Q 295.4 381.4, 296.8 379.9 Q 298.1 378.4, 300.6 378.4 Q 301.9 378.4, 302.9 378.8 Q 303.8 379.2, 304.5 380.0 L 303.5 380.9 Q 302.4 379.7, 300.6 379.7 Q 298.9 379.7, 298.0 380.8 Q 297.1 382.0, 297.1 384.2 Q 297.1 386.4, 298.0 387.6 Q 299.0 388.7, 300.8 388.7 Q 302.0 388.7, 303.0 388.3 L 303.0 384.3 L 304.6 384.3 " fill="#000000"/>
<path class="bond-0 atom-0 atom-1" d="M 485.7,295.1 L 500.0,286.9" style="fill:none;fill-rule:evenodd;stroke:#000000;stroke-width:2.0px;stroke-linecap:butt;stroke-linejoin:miter;stroke-opacity:1"/>
<path class="bond-1 atom-1 atom-2" d="M 500.0,286.9 L 514.3,295.1" style="fill:none;fill-rule:evenodd;stroke:#000000;stroke-width:2.0px;stroke-linecap:butt;stroke-linejoin:miter;stroke-opacity:1"/>
<path d="M 499.3,287.3 L 500.0,286.9 L 500.7,287.3" style="fill:none;stroke:#000000;stroke-width:2.0px;stroke-linecap:butt;stroke-linejoin:miter;stroke-opacity:1;"/>
<path class="legend" d="M 495.6 378.7 L 497.1 378.7 L 497.1 383.5 L 502.9 383.5 L 502.9 378.7 L 504.4 378.7 L 504.4 390.0 L 502.9 390.0 L 502.9 384.8 L 497.1 384.8 L 497.1 390.0 L 495.6 390.0 L 495.6 378.7 " fill="#000000"/>
<path class="bond-0 atom-0 atom-1" d="M 671.5,295.1 L 685.7,286.9" style="fill:none;fill-rule:evenodd;stroke:#000000;stroke-width:2.0px;stroke-linecap:butt;stroke-linejoin:miter;stroke-opacity:1"/>
<path class="bond-1 atom-1 atom-2" d="M 685.7,286.9 L 700.0,295.1" style="fill:none;fill-rule:evenodd;stroke:#000000;stroke-width:2.0px;stroke-linecap:butt;stroke-linejoin:miter;stroke-opacity:1"/>
<path class="bond-2 atom-2 atom-3" d="M 700.0,295.1 L 714.3,286.9" style="fill:none;fill-rule:evenodd;stroke:#000000;stroke-width:2.0px;stroke-linecap:butt;stroke-linejoin:miter;stroke-opacity:1"/>
<path class="bond-3 atom-3 atom-4" d="M 714.3,286.9 L 728.5,295.1" style="fill:none;fill-rule:evenodd;stroke:#000000;stroke-width:2.0px;stroke-linecap:butt;stroke-linejoin:miter;stroke-opacity:1"/>
<path d="M 685.0,287.3 L 685.7,286.9 L 686.4,287.3" style="fill:none;stroke:#000000;stroke-width:2.0px;stroke-linecap:butt;stroke-linejoin:miter;stroke-opacity:1;"/>
<path d="M 699.3,294.7 L 700.0,295.1 L 700.7,294.7" style="fill:none;stroke:#000000;stroke-width:2.0px;stroke-linecap:butt;stroke-linejoin:miter;stroke-opacity:1;"/>
<path d="M 713.6,287.3 L 714.3,286.9 L 715.0,287.3" style="fill:none;stroke:#000000;stroke-width:2.0px;stroke-linecap:butt;stroke-linejoin:miter;stroke-opacity:1;"/>
<path class="legend" d="M 699.2 378.6 L 700.8 378.6 L 700.8 390.0 L 699.2 390.0 L 699.2 378.6 " fill="#000000"/>
<path class="bond-0 atom-0 atom-1" d="M 170.8,460.8 L 158.6,471.9" style="fill:none;fill-rule:evenodd;stroke:#000000;stroke-width:2.0px;stroke-linecap:butt;stroke-linejoin:miter;stroke-opacity:1"/>
<path class="bond-1 atom-1 atom-2" d="M 158.6,471.9 L 143.0,466.9" style="fill:none;fill-rule:evenodd;stroke:#000000;stroke-width:2.0px;stroke-linecap:butt;stroke-linejoin:miter;stroke-opacity:1"/>
<path class="bond-2 atom-2 atom-3" d="M 143.0,466.9 L 130.8,477.9" style="fill:none;fill-rule:evenodd;stroke:#000000;stroke-width:2.0px;stroke-linecap:butt;stroke-linejoin:miter;stroke-opacity:1"/>
<path class="bond-3 atom-3 atom-4" d="M 130.8,477.9 L 118.6,489.0" style="fill:none;fill-rule:evenodd;stroke:#000000;stroke-width:2.0px;stroke-linecap:butt;stroke-linejoin:miter;stroke-opacity:1"/>
<path class="bond-4 atom-3 atom-5" d="M 130.8,477.9 L 141.8,490.1" style="fill:none;fill-rule:evenodd;stroke:#000000;stroke-width:2.0px;stroke-linecap:butt;stroke-linejoin:miter;stroke-opacity:1"/>
<path class="bond-5 atom-5 atom-6" d="M 141.8,490.1 L 136.8,505.8" style="fill:none;fill-rule:evenodd;stroke:#000000;stroke-width:2.0px;stroke-linecap:butt;stroke-linejoin:miter;stroke-opacity:1"/>
<path class="bond-6 atom-6 atom-7" d="M 136.8,505.8 L 147.9,518.0" style="fill:none;fill-rule:evenodd;stroke:#000000;stroke-width:2.0px;stroke-linecap:butt;stroke-linejoin:miter;stroke-opacity:1"/>
<path class="bond-7 atom-7 atom-8" d="M 147.9,518.0 L 142.8,533.7" style="fill:none;fill-rule:evenodd;stroke:#000000;stroke-width:2.0px;stroke-linecap:butt;stroke-linejoin:miter;stroke-opacity:1"/>
<path class="bond-8 atom-3 atom-9" d="M 130.8,477.9 L 119.7,465.7" style="fill:none;fill-rule:evenodd;stroke:#000000;stroke-width:2.0px;stroke-linecap:butt;stroke-linejoin:miter;stroke-opacity:1"/>
<path class="bond-9 atom-9 atom-10" d="M 119.7,465.7 L 103.6,469.2" style="fill:none;fill-rule:evenodd;stroke:#000000;stroke-width:2.0px;stroke-linecap:butt;stroke-linejoin:miter;stroke-opacity:1"/>
<path class="bond-10 atom-10 atom-11" d="M 103.6,469.2 L 92.5,457.0" style="fill:none;fill-rule:evenodd;stroke:#000000;stroke-width:2.0px;stroke-linecap:butt;stroke-linejoin:miter;stroke-opacity:1"/>
<path class="bond-11 atom-11 atom-12" d="M 92.5,457.0 L 76.4,460.5" style="fill:none;fill-rule:evenodd;stroke:#000000;stroke-width:2.0px;stroke-linecap:butt;stroke-linejoin:miter;stroke-opacity:1"/>
<path class="bond-12 atom-12 atom-13" d="M 76.4,460.5 L 65.4,448.3" style="fill:none;fill-rule:evenodd;stroke:#000000;stroke-width:2.0px;stroke-linecap:butt;stroke-linejoin:miter;stroke-opacity:1"/>
<path class="bond-13 atom-12 atom-14" d="M 76.4,460.5 L 71.4,476.2" style="fill:none;fill-rule:evenodd;stroke:#000000;stroke-width:2.0px;stroke-linecap:butt;stroke-linejoin:miter;stroke-opacity:1"/>
<path class="bond-14 atom-14 atom-15" d="M 71.4,476.2 L 55.3,479.7" style="fill:none;fill-rule:evenodd;stroke:#000000;stroke-width:2.0px;stroke-linecap:butt;stroke-linejoin:miter;stroke-opacity:1"/>
<path class="bond-15 atom-15 atom-16" d="M 55.3,479.7 L 50.3,495.4" style="fill:none;fill-rule:evenodd;stroke:#000000;stroke-width:2.0px;stroke-linecap:butt;stroke-linejoin:miter;stroke-opacity:1"/>
<path class="bond-16 atom-16 atom-17" d="M 50.3,495.4 L 34.2,498.8" style="fill:none;fill-rule:evenodd;stroke:#000000;stroke-width:2.0px;stroke-linecap:butt;stroke-linejoin:miter;stroke-opacity:1"/>
<path class="bond-17 atom-17 atom-18" d="M 34.2,498.8 L 29.2,514.5" style="fill:none;fill-rule:evenodd;stroke:#000000;stroke-width:2.0px;stroke-linecap:butt;stroke-linejoin:miter;stroke-opacity:1"/>
<path d="M 159.3,471.3 L 158.6,471.9 L 157.9,471.6" style="fill:none;stroke:#000000;stroke-width:2.0px;stroke-linecap:butt;stroke-linejoin:miter;stroke-opacity:1;"/>
<path d="M 143.7,467.1 L 143.0,466.9 L 142.4,467.4" style="fill:none;stroke:#000000;stroke-width:2.0px;stroke-linecap:butt;stroke-linejoin:miter;stroke-opacity:1;"/>
<path d="M 141.3,489.5 L 141.8,490.1 L 141.6,490.9" style="fill:none;stroke:#000000;stroke-width:2.0px;stroke-linecap:butt;stroke-linejoin:miter;stroke-opacity:1;"/>
<path d="M 137.1,505.0 L 136.8,505.8 L 137.4,506.4" style="fill:none;stroke:#000000;stroke-width:2.0px;stroke-linecap:butt;stroke-linejoin:miter;stroke-opacity:1;"/>
<path d="M 147.3,517.4 L 147.9,518.0 L 147.6,518.8" style="fill:none;stroke:#000000;stroke-width:2.0px;stroke-linecap:butt;stroke-linejoin:miter;stroke-opacity:1;"/>
<path d="M 120.3,466.3 L 119.7,465.7 L 118.9,465.9" style="fill:none;stroke:#000000;stroke-width:2.0px;stroke-linecap:butt;stroke-linejoin:miter;stroke-opacity:1;"/>
<path d="M 104.4,469.0 L 103.6,469.2 L 103.0,468.6" style="fill:none;stroke:#000000;stroke-width:2.0px;stroke-linecap:butt;stroke-linejoin:miter;stroke-opacity:1;"/>
<path d="M 93.1,457.6 L 92.5,457.0 L 91.7,457.2" style="fill:none;stroke:#000000;stroke-width:2.0px;stroke-linecap:butt;stroke-linejoin:miter;stroke-opacity:1;"/>
<path d="M 71.7,475.4 L 71.4,476.2 L 70.6,476.4" style="fill:none;stroke:#000000;stroke-width:2.0px;stroke-linecap:butt;stroke-linejoin:miter;stroke-opacity:1;"/>
<path d="M 56.1,479.5 L 55.3,479.7 L 55.1,480.5" style="fill:none;stroke:#000000;stroke-width:2.0px;stroke-linecap:butt;stroke-linejoin:miter;stroke-opacity:1;"/>
<path d="M 50.5,494.6 L 50.3,495.4 L 49.5,495.5" style="fill:none;stroke:#000000;stroke-width:2.0px;stroke-linecap:butt;stroke-linejoin:miter;stroke-opacity:1;"/>
<path d="M 35.0,498.7 L 34.2,498.8 L 33.9,499.6" style="fill:none;stroke:#000000;stroke-width:2.0px;stroke-linecap:butt;stroke-linejoin:miter;stroke-opacity:1;"/>
<path class="legend" d="M 98.0 588.8 Q 98.0 588.8, 98.7 588.4 Q 99.4 588.0, 100.0 587.3 Q 100.5 586.7, 100.5 585.8 L 100.5 577.7 L 98.3 577.7 L 98.3 576.4 L 102.0 576.4 L 102.0 585.8 Q 102.0 587.1, 101.3 588.0 Q 100.5 589.0, 99.6 589.5 Q 98.6 590.1, 98.6 590.0 L 98.0 588.8 " fill="#000000"/>
</svg>