<svg width="1365" height="1024" xmlns="http://www.w3.org/2000/svg" xmlns:xlink="http://www.w3.org/1999/xlink" overflow="hidden"><defs><clipPath id="clip0"><rect x="0" y="0" width="1365" height="1024"/></clipPath></defs><g clip-path="url(#clip0)"><rect x="0" y="0" width="1365" height="1024.25" fill="#FFFFFF"/><path d="M152.863 25.0532 152.863 63.8532" stroke="#000000" stroke-width="1.33301" fill="none" fill-rule="evenodd"/><path d="M152.863 63.8532 152.863 1157.39" stroke="#000000" stroke-width="2.66602" fill="none" fill-rule="evenodd"/><path d="M492.365 25.0532 492.365 1157.39" stroke="#000000" stroke-width="1.33301" fill="none" fill-rule="evenodd"/><path d="M941.013 25.0532 941.013 1157.39" stroke="#000000" stroke-width="1.33301" fill="none" fill-rule="evenodd"/><path d="M12.4327 65.1866 1352.57 65.1866" stroke="#000000" stroke-width="2.66602" fill="none" fill-rule="evenodd"/><path d="M151.53 104.653 941.679 104.653" stroke="#000000" stroke-width="1.33301" fill="none" fill-rule="evenodd"/><path d="M151.53 144.12 941.679 144.12" stroke="#000000" stroke-width="1.33301" fill="none" fill-rule="evenodd"/><path d="M151.53 183.587 941.679 183.587" stroke="#000000" stroke-width="1.33301" fill="none" fill-rule="evenodd"/><path d="M151.53 251.853 941.679 251.853" stroke="#000000" stroke-width="1.33301" fill="none" fill-rule="evenodd"/><path d="M12.4327 291.32 1352.57 291.32" stroke="#000000" stroke-width="1.33301" fill="none" fill-rule="evenodd"/><path d="M151.53 330.787 941.679 330.787" stroke="#000000" stroke-width="1.33301" fill="none" fill-rule="evenodd"/><path d="M151.53 371.448 941.679 371.448" stroke="#000000" stroke-width="1.33301" fill="none" fill-rule="evenodd"/><path d="M151.53 410.915 941.679 410.915" stroke="#000000" stroke-width="1.33301" fill="none" fill-rule="evenodd"/><path d="M12.4327 475.207 1352.57 475.207" stroke="#000000" stroke-width="1.33301" fill="none" fill-rule="evenodd"/><path d="M12.4327 659.093 1352.57 659.093" stroke="#000000" stroke-width="1.33301" fill="none" fill-rule="evenodd"/><path d="M151.53 704.455 941.679 704.455" stroke="#000000" stroke-width="1.33301" fill="none" fill-rule="evenodd"/><path d="M151.53 743.921 941.679 743.921" stroke="#000000" stroke-width="1.33301" fill="none" fill-rule="evenodd"/><path d="M151.53 783.388 941.679 783.388" stroke="#000000" stroke-width="1.33301" fill="none" fill-rule="evenodd"/><path d="M151.53 822.855 941.679 822.855" stroke="#000000" stroke-width="1.33301" fill="none" fill-rule="evenodd"/><path d="M12.4327 891.121 1352.57 891.121" stroke="#000000" stroke-width="1.33301" fill="none" fill-rule="evenodd"/><path d="M151.53 930.588 941.679 930.588" stroke="#000000" stroke-width="1.33301" fill="none" fill-rule="evenodd"/><path d="M151.53 970.055 941.679 970.055" stroke="#000000" stroke-width="1.33301" fill="none" fill-rule="evenodd"/><path d="M151.53 1009.52 941.679 1009.52" stroke="#000000" stroke-width="1.33301" fill="none" fill-rule="evenodd"/><path d="M151.53 1048.99 941.679 1048.99" stroke="#000000" stroke-width="1.33301" fill="none" fill-rule="evenodd"/><path d="M151.53 1088.45 941.679 1088.45" stroke="#000000" stroke-width="1.33301" fill="none" fill-rule="evenodd"/><path d="M13.0992 25.0532 13.0992 1157.39" stroke="#000000" stroke-width="1.33301" fill="none" fill-rule="evenodd"/><path d="M1351.9 25.0532 1351.9 1157.39" stroke="#000000" stroke-width="1.33301" fill="none" fill-rule="evenodd"/><path d="M12.4327 25.7199 1352.57 25.7199" stroke="#000000" stroke-width="1.33301" fill="none" fill-rule="evenodd"/><path d="M12.4327 1156.72 1352.57 1156.72" stroke="#000000" stroke-width="1.33301" fill="none" fill-rule="evenodd"/><text font-family="Arial,Arial_MSFontService,sans-serif" font-weight="700" font-size="24" transform="matrix(1 0 0 1.00024 1095.14 54)">Việt Nam</text><text font-family="Arial,Arial_MSFontService,sans-serif" font-weight="700" font-size="24" transform="matrix(1 0 0 1.00024 631.376 54)">Chinese action</text><text font-family="Arial,Arial_MSFontService,sans-serif" font-weight="700" font-size="24" transform="matrix(1 0 0 1.00024 229.97 54)">Western actions</text><text fill="#0070C0" font-family="Segoe UI Symbol,Segoe UI Symbol_MSFontService,sans-serif" font-weight="400" font-size="20" transform="matrix(1 0 0 1.00024 947.611 170)">❑</text><text fill="#0070C0" font-family="Calibri,Calibri_MSFontService,sans-serif" font-weight="400" font-size="24" transform="matrix(1 0 0 1.00024 979.403 170)">Nhiệt (Hot):</text><text font-family="Calibri,Calibri_MSFontService,sans-serif" font-weight="400" font-size="24" transform="matrix(1 0 0 1.00024 1101.11 170)">Dùng</text><text font-family="Calibri,Calibri_MSFontService,sans-serif" font-weight="400" font-size="24" transform="matrix(1 0 0 1.00024 1158.59 170)">để</text><text font-family="Calibri,Calibri_MSFontService,sans-serif" font-weight="400" font-size="24" transform="matrix(1 0 0 1.00024 1189.88 170)">điều</text><text font-family="Calibri,Calibri_MSFontService,sans-serif" font-weight="400" font-size="24" transform="matrix(1 0 0 1.00024 1239.26 170)">trị</text><text font-family="Calibri,Calibri_MSFontService,sans-serif" font-weight="400" font-size="24" transform="matrix(1 0 0 1.00024 1266.89 170)">bệnh</text><text font-family="Calibri,Calibri_MSFontService,sans-serif" font-weight="400" font-size="24" transform="matrix(1 0 0 1.00024 979.403 205)">thuộc</text><text font-family="Calibri,Calibri_MSFontService,sans-serif" font-weight="400" font-size="24" transform="matrix(1 0 0 1.00024 1041.24 205)">hàn</text><text font-family="Arial,Arial_MSFontService,sans-serif" font-weight="400" font-size="24" transform="matrix(1 0 0 1.00024 505.407 94)">Tonify Yang of Heart, Kidney, or Spleen</text><text font-family="Arial,Arial_MSFontService,sans-serif" font-weight="400" font-size="24" transform="matrix(1 0 0 1.00024 219.973 94)">Metabolic stimulant</text><text font-family="Arial,Arial_MSFontService,sans-serif" font-weight="700" font-size="24" transform="matrix(1 0 0 1.00024 62.9861 187)">Hot</text><text font-family="Arial,Arial_MSFontService,sans-serif" font-weight="400" font-size="24" transform="matrix(1 0 0 1.00024 556.061 133)">Warm and move Qi and Blood</text><text font-family="Arial,Arial_MSFontService,sans-serif" font-weight="400" font-size="24" transform="matrix(1 0 0 1.00024 213.974 133)">Circulatory stimulatn</text><text font-family="Arial,Arial_MSFontService,sans-serif" font-weight="400" font-size="24" transform="matrix(1 0 0 1.00024 596.718 172)">Clear Wind cold Damp</text><text font-family="Arial,Arial_MSFontService,sans-serif" font-weight="400" font-size="24" transform="matrix(1 0 0 1.00024 212.641 172)">Warming diaphoretic</text><text font-family="Arial,Arial_MSFontService,sans-serif" font-weight="400" font-size="24" transform="matrix(1 0 0 1.00024 504.741 212)">Clear wind cold Damp and move Qi and</text><text font-family="Arial,Arial_MSFontService,sans-serif" font-weight="400" font-size="24" transform="matrix(1 0 0 1.00024 686.03 241)">Blood</text><text font-family="Arial,Arial_MSFontService,sans-serif" font-weight="400" font-size="24" transform="matrix(1 0 0 1.00024 199.311 226)">Warming antirheumatic</text><text font-family="Arial,Arial_MSFontService,sans-serif" font-weight="400" font-size="24" transform="matrix(1 0 0 1.00024 641.374 280)">Topical irritant</text><text font-family="Arial,Arial_MSFontService,sans-serif" font-weight="400" font-size="24" transform="matrix(1 0 0 1.00024 246.633 280)">Counterirritant</text><text fill="#0070C0" font-family="Segoe UI Symbol,Segoe UI Symbol_MSFontService,sans-serif" font-weight="400" font-size="20" transform="matrix(1 0 0 1.00024 947.611 323)">❑</text><text fill="#0070C0" font-family="Calibri,Calibri_MSFontService,sans-serif" font-weight="400" font-size="24" transform="matrix(1 0 0 1.00024 979.403 323)">Lương (warm) :</text><text font-family="Calibri,Calibri_MSFontService,sans-serif" font-weight="400" font-size="24" transform="matrix(1 0 0 1.00024 1139.04 323)">thấp</text><text font-family="Calibri,Calibri_MSFontService,sans-serif" font-weight="400" font-size="24" transform="matrix(1 0 0 1.00024 1192.76 323)">nhiệt</text><text font-family="Calibri,Calibri_MSFontService,sans-serif" font-weight="400" font-size="24" transform="matrix(1 0 0 1.00024 1252.43 323)">gây</text><text font-family="Calibri,Calibri_MSFontService,sans-serif" font-weight="400" font-size="24" transform="matrix(1 0 0 1.00024 1294.79 323)">tiểu</text><text font-family="Calibri,Calibri_MSFontService,sans-serif" font-weight="400" font-size="24" transform="matrix(1 0 0 1.00024 979.403 358)">tiện</text><text font-family="Calibri,Calibri_MSFontService,sans-serif" font-weight="400" font-size="24" transform="matrix(1 0 0 1.00024 1023.43 358)">vàng,</text><text font-family="Calibri,Calibri_MSFontService,sans-serif" font-weight="400" font-size="24" transform="matrix(1 0 0 1.00024 1081.69 358)">đỏ,</text><text font-family="Calibri,Calibri_MSFontService,sans-serif" font-weight="400" font-size="24" transform="matrix(1 0 0 1.00024 1119.32 358)">tiểu</text><text font-family="Calibri,Calibri_MSFontService,sans-serif" font-weight="400" font-size="24" transform="matrix(1 0 0 1.00024 1163.42 358)">buốt,</text><text font-family="Calibri,Calibri_MSFontService,sans-serif" font-weight="400" font-size="24" transform="matrix(1 0 0 1.00024 1221.02 358)">tiểu</text><text font-family="Calibri,Calibri_MSFontService,sans-serif" font-weight="400" font-size="24" transform="matrix(1 0 0 1.00024 1265.12 358)">dắt,</text><text fill="#0070C0" font-family="Calibri,Calibri_MSFontService,sans-serif" font-weight="400" font-size="24" transform="matrix(1 0 0 1.00024 979.403 394)">Thanh</text><text fill="#0070C0" font-family="Calibri,Calibri_MSFontService,sans-serif" font-weight="400" font-size="24" transform="matrix(1 0 0 1.00024 1046.87 394)">nhiệt</text><text fill="#0070C0" font-family="Calibri,Calibri_MSFontService,sans-serif" font-weight="400" font-size="24" transform="matrix(1 0 0 1.00024 1104 394)">tả</text><text fill="#0070C0" font-family="Calibri,Calibri_MSFontService,sans-serif" font-weight="400" font-size="24" transform="matrix(1 0 0 1.00024 1129.94 394)">hỏa,</text><text fill="#0070C0" font-family="Calibri,Calibri_MSFontService,sans-serif" font-weight="400" font-size="24" transform="matrix(1 0 0 1.00024 1179.26 394)">lương</text><text fill="#0070C0" font-family="Calibri,Calibri_MSFontService,sans-serif" font-weight="400" font-size="24" transform="matrix(1 0 0 1.00024 1243.58 394)">huyết,</text><text fill="#0070C0" font-family="Calibri,Calibri_MSFontService,sans-serif" font-weight="400" font-size="24" transform="matrix(1 0 0 1.00024 1311.92 394)">giải</text><text fill="#0070C0" font-family="Calibri,Calibri_MSFontService,sans-serif" font-weight="400" font-size="24" transform="matrix(1 0 0 1.00024 979.403 429)">độc</text><text fill="#0070C0" font-family="Calibri,Calibri_MSFontService,sans-serif" font-weight="400" font-size="24" transform="matrix(1 0 0 1.00024 1021.71 429)">=&gt;</text><text fill="#0070C0" font-family="Calibri,Calibri_MSFontService,sans-serif" font-weight="400" font-size="24" transform="matrix(1 0 0 1.00024 1052.01 429)">trị</text><text fill="#0070C0" font-family="Calibri,Calibri_MSFontService,sans-serif" font-weight="400" font-size="24" transform="matrix(1 0 0 1.00024 1080.15 429)">sốt,</text><text fill="#0070C0" font-family="Calibri,Calibri_MSFontService,sans-serif" font-weight="400" font-size="24" transform="matrix(1 0 0 1.00024 1122.45 429)">âm</text><text fill="#0070C0" font-family="Calibri,Calibri_MSFontService,sans-serif" font-weight="400" font-size="24" transform="matrix(1 0 0 1.00024 1159.36 429)">hư,</text><text fill="#0070C0" font-family="Calibri,Calibri_MSFontService,sans-serif" font-weight="400" font-size="24" transform="matrix(1 0 0 1.00024 1198.71 429)">mụn</text><text fill="#0070C0" font-family="Calibri,Calibri_MSFontService,sans-serif" font-weight="400" font-size="24" transform="matrix(1 0 0 1.00024 1249.39 429)">nhọt,</text><text fill="#0070C0" font-family="Calibri,Calibri_MSFontService,sans-serif" font-weight="400" font-size="24" transform="matrix(1 0 0 1.00024 1307.62 429)">dị</text><text fill="#0070C0" font-family="Calibri,Calibri_MSFontService,sans-serif" font-weight="400" font-size="24" transform="matrix(1 0 0 1.00024 979.403 464)">ứng,…</text><text fill="#0070C0" font-family="Calibri,Calibri_MSFontService,sans-serif" font-weight="400" font-size="24" transform="matrix(1 0 0 1.00024 1046.77 464)">=&gt;</text><text fill="#0070C0" font-family="Calibri,Calibri_MSFontService,sans-serif" font-weight="400" font-size="24" transform="matrix(1 0 0 1.00024 1075.34 464)">tác</text><text fill="#0070C0" font-family="Calibri,Calibri_MSFontService,sans-serif" font-weight="400" font-size="24" transform="matrix(1 0 0 1.00024 1110.68 464)">dụng</text><text fill="#0070C0" font-family="Calibri,Calibri_MSFontService,sans-serif" font-weight="400" font-size="24" transform="matrix(1 0 0 1.00024 1165.94 464)">ức</text><text fill="#0070C0" font-family="Calibri,Calibri_MSFontService,sans-serif" font-weight="400" font-size="24" transform="matrix(1 0 0 1.00024 1196.41 464)">chế</text><text font-family="Arial,Arial_MSFontService,sans-serif" font-weight="400" font-size="24" transform="matrix(1 0 0 1.00024 614.047 320)">Tonify Qi and Yang</text><text font-family="Arial,Arial_MSFontService,sans-serif" font-weight="400" font-size="24" transform="matrix(1 0 0 1.00024 248.632 320)">warming tonic</text><text font-family="Arial,Arial_MSFontService,sans-serif" font-weight="700" font-size="24" transform="matrix(1 0 0 1.00024 49.6561 392)">Warm</text><text font-family="Arial,Arial_MSFontService,sans-serif" font-weight="400" font-size="24" transform="matrix(1 0 0 1.00024 546.064 360)">Move Qi of Spleen and Intestine</text><text font-family="Arial,Arial_MSFontService,sans-serif" font-weight="400" font-size="24" transform="matrix(1 0 0 1.00024 258.63 360)">Carminative</text><text font-family="Arial,Arial_MSFontService,sans-serif" font-weight="400" font-size="24" transform="matrix(1 0 0 1.00024 574.724 400)">Move Qi and relax spasms</text><text font-family="Arial,Arial_MSFontService,sans-serif" font-weight="400" font-size="24" transform="matrix(1 0 0 1.00024 194.645 400)">Warming antispasmodic</text><text font-family="Arial,Arial_MSFontService,sans-serif" font-weight="400" font-size="24" transform="matrix(1 0 0 1.00024 586.054 452)">Clear Lung Phlegm Cold</text><text font-family="Arial,Arial_MSFontService,sans-serif" font-weight="400" font-size="24" transform="matrix(1 0 0 1.00024 208.642 452)">Warming expectorant</text><text fill="#0070C0" font-family="Segoe UI Symbol,Segoe UI Symbol_MSFontService,sans-serif" font-weight="400" font-size="20" transform="matrix(1 0 0 1.00024 947.611 507)">❑</text><text fill="#0070C0" font-family="Calibri,Calibri_MSFontService,sans-serif" font-weight="400" font-size="24" transform="matrix(1 0 0 1.00024 979.403 507)">Ôn (cool):</text><text font-family="Calibri,Calibri_MSFontService,sans-serif" font-weight="400" font-size="24" transform="matrix(1 0 0 1.00024 1081.29 507)">Cảm</text><text font-family="Calibri,Calibri_MSFontService,sans-serif" font-weight="400" font-size="24" transform="matrix(1 0 0 1.00024 1130.83 507)">mạo</text><text font-family="Calibri,Calibri_MSFontService,sans-serif" font-weight="400" font-size="24" transform="matrix(1 0 0 1.00024 1180.15 507)">phong</text><text font-family="Calibri,Calibri_MSFontService,sans-serif" font-weight="400" font-size="24" transform="matrix(1 0 0 1.00024 1247.94 507)">hàn</text><text fill="#0070C0" font-family="Calibri,Calibri_MSFontService,sans-serif" font-weight="400" font-size="24" transform="matrix(1 0 0 1.00024 1289.03 507)">=&gt;</text><text fill="#0070C0" font-family="Calibri,Calibri_MSFontService,sans-serif" font-weight="400" font-size="24" transform="matrix(1 0 0 1.00024 979.403 542)">Giải</text><text fill="#0070C0" font-family="Calibri,Calibri_MSFontService,sans-serif" font-weight="400" font-size="24" transform="matrix(1 0 0 1.00024 1025.65 542)">cảm</text><text fill="#0070C0" font-family="Calibri,Calibri_MSFontService,sans-serif" font-weight="400" font-size="24" transform="matrix(1 0 0 1.00024 1074.85 542)">hàn,</text><text fill="#0070C0" font-family="Calibri,Calibri_MSFontService,sans-serif" font-weight="400" font-size="24" transform="matrix(1 0 0 1.00024 1126.27 542)">phát</text><text fill="#0070C0" font-family="Calibri,Calibri_MSFontService,sans-serif" font-weight="400" font-size="24" transform="matrix(1 0 0 1.00024 1179.73 542)">hãn,</text><text fill="#0070C0" font-family="Calibri,Calibri_MSFontService,sans-serif" font-weight="400" font-size="24" transform="matrix(1 0 0 1.00024 1231.08 542)">thông</text><text fill="#0070C0" font-family="Calibri,Calibri_MSFontService,sans-serif" font-weight="400" font-size="24" transform="matrix(1 0 0 1.00024 1297.05 542)">kinh</text><text fill="#0070C0" font-family="Calibri,Calibri_MSFontService,sans-serif" font-weight="400" font-size="24" transform="matrix(1 0 0 1.00024 979.403 578)">mạch,</text><text fill="#0070C0" font-family="Calibri,Calibri_MSFontService,sans-serif" font-weight="400" font-size="24" transform="matrix(1 0 0 1.00024 1047.41 578)">hoạt</text><text fill="#0070C0" font-family="Calibri,Calibri_MSFontService,sans-serif" font-weight="400" font-size="24" transform="matrix(1 0 0 1.00024 1100.76 578)">huyết,</text><text fill="#0070C0" font-family="Calibri,Calibri_MSFontService,sans-serif" font-weight="400" font-size="24" transform="matrix(1 0 0 1.00024 1171.44 578)">giảm</text><text fill="#0070C0" font-family="Calibri,Calibri_MSFontService,sans-serif" font-weight="400" font-size="24" transform="matrix(1 0 0 1.00024 1227.45 578)">đau,</text><text fill="#0070C0" font-family="Calibri,Calibri_MSFontService,sans-serif" font-weight="400" font-size="24" transform="matrix(1 0 0 1.00024 1279.36 578)">hồi</text><text fill="#0070C0" font-family="Calibri,Calibri_MSFontService,sans-serif" font-weight="400" font-size="24" transform="matrix(1 0 0 1.00024 979.403 613)">Dương</text><text fill="#0070C0" font-family="Calibri,Calibri_MSFontService,sans-serif" font-weight="400" font-size="24" transform="matrix(1 0 0 1.00024 1055.14 613)">cứu</text><text fill="#0070C0" font-family="Calibri,Calibri_MSFontService,sans-serif" font-weight="400" font-size="24" transform="matrix(1 0 0 1.00024 1096.74 613)">thoát</text><text fill="#0070C0" font-family="Calibri,Calibri_MSFontService,sans-serif" font-weight="400" font-size="24" transform="matrix(1 0 0 1.00024 1155.25 613)">=&gt;</text><text fill="#0070C0" font-family="Calibri,Calibri_MSFontService,sans-serif" font-weight="400" font-size="24" transform="matrix(1 0 0 1.00024 1185.11 613)">tác</text><text fill="#0070C0" font-family="Calibri,Calibri_MSFontService,sans-serif" font-weight="400" font-size="24" transform="matrix(1 0 0 1.00024 1220.58 613)">dụng</text><text fill="#0070C0" font-family="Calibri,Calibri_MSFontService,sans-serif" font-weight="400" font-size="24" transform="matrix(1 0 0 1.00024 1275.84 613)">hưng</text><text fill="#0070C0" font-family="Calibri,Calibri_MSFontService,sans-serif" font-weight="400" font-size="24" transform="matrix(1 0 0 1.00024 979.403 648)">phấn</text><text font-family="Arial,Arial_MSFontService,sans-serif" font-weight="400" font-size="24" transform="matrix(1 0 0 1.00024 267.961 576)">Like warm</text><text font-family="Arial,Arial_MSFontService,sans-serif" font-weight="700" font-size="24" transform="matrix(1 0 0 1.00024 39.6585 561)">Slightly</text><text font-family="Arial,Arial_MSFontService,sans-serif" font-weight="700" font-size="24" transform="matrix(1 0 0 1.00024 51.6556 590)">warm</text><text fill="#0070C0" font-family="Segoe UI Symbol,Segoe UI Symbol_MSFontService,sans-serif" font-weight="400" font-size="20" transform="matrix(1 0 0 1.00024 947.611 767)">❑</text><text fill="#0070C0" font-family="Calibri,Calibri_MSFontService,sans-serif" font-weight="400" font-size="24" transform="matrix(1 0 0 1.00024 979.403 767)">Bình:</text><text font-family="Calibri,Calibri_MSFontService,sans-serif" font-weight="400" font-size="24" transform="matrix(1 0 0 1.00024 1040.26 767)">Tác</text><text font-family="Calibri,Calibri_MSFontService,sans-serif" font-weight="400" font-size="24" transform="matrix(1 0 0 1.00024 1084.12 767)">dụng</text><text font-family="Calibri,Calibri_MSFontService,sans-serif" font-weight="400" font-size="24" transform="matrix(1 0 0 1.00024 1144.18 767)">lợi</text><text font-family="Calibri,Calibri_MSFontService,sans-serif" font-weight="400" font-size="24" transform="matrix(1 0 0 1.00024 1179.55 767)">thấp,</text><text font-family="Calibri,Calibri_MSFontService,sans-serif" font-weight="400" font-size="24" transform="matrix(1 0 0 1.00024 1240.85 767)">lợi</text><text font-family="Calibri,Calibri_MSFontService,sans-serif" font-weight="400" font-size="24" transform="matrix(1 0 0 1.00024 1276.16 767)">tiểu,</text><text font-family="Calibri,Calibri_MSFontService,sans-serif" font-weight="400" font-size="24" transform="matrix(1 0 0 1.00024 979.403 802)">long</text><text font-family="Calibri,Calibri_MSFontService,sans-serif" font-weight="400" font-size="24" transform="matrix(1 0 0 1.00024 1031.91 802)">đờm,</text><text font-family="Calibri,Calibri_MSFontService,sans-serif" font-weight="400" font-size="24" transform="matrix(1 0 0 1.00024 1094.55 802)">bổ</text><text font-family="Calibri,Calibri_MSFontService,sans-serif" font-weight="400" font-size="24" transform="matrix(1 0 0 1.00024 1130.41 802)">tỳ</text><text font-family="Calibri,Calibri_MSFontService,sans-serif" font-weight="400" font-size="24" transform="matrix(1 0 0 1.00024 1159.66 802)">vị</text><text font-family="Arial,Arial_MSFontService,sans-serif" font-weight="400" font-size="24" transform="matrix(1 0 0 1.00024 624.711 691)">Stablize and bind</text><text font-family="Arial,Arial_MSFontService,sans-serif" font-weight="400" font-size="24" transform="matrix(1 0 0 1.00024 268.627 691)">Astringetn</text><text font-family="Arial,Arial_MSFontService,sans-serif" font-weight="700" font-size="24" transform="matrix(1 0 0 1.00024 41.658 784)">Neutral</text><text font-family="Arial,Arial_MSFontService,sans-serif" font-weight="400" font-size="24" transform="matrix(1 0 0 1.00024 556.728 733)">No extract Chinese equivalent</text><text font-family="Arial,Arial_MSFontService,sans-serif" font-weight="400" font-size="24" transform="matrix(1 0 0 1.00024 268.627 733)">Astringetn</text><text font-family="Arial,Arial_MSFontService,sans-serif" font-weight="400" font-size="24" transform="matrix(1 0 0 1.00024 577.39 772)">Move qi and relax spasms</text><text font-family="Arial,Arial_MSFontService,sans-serif" font-weight="400" font-size="24" transform="matrix(1 0 0 1.00024 268.627 772)">Astringetn</text><text font-family="Arial,Arial_MSFontService,sans-serif" font-weight="400" font-size="24" transform="matrix(1 0 0 1.00024 556.728 812)">No extract Chinese equivalent</text><text font-family="Arial,Arial_MSFontService,sans-serif" font-weight="400" font-size="24" transform="matrix(1 0 0 1.00024 241.301 812)">Emmenagogue</text><text font-family="Arial,Arial_MSFontService,sans-serif" font-weight="400" font-size="24" transform="matrix(1 0 0 1.00024 500.742 851)">tonify Qi and blood rather than Yang and</text><text font-family="Arial,Arial_MSFontService,sans-serif" font-weight="400" font-size="24" transform="matrix(1 0 0 1.00024 699.36 880)">Yin</text><text font-family="Arial,Arial_MSFontService,sans-serif" font-weight="400" font-size="24" transform="matrix(1 0 0 1.00024 255.297 866)">Neutral tonic</text><text fill="#0070C0" font-family="Segoe UI Symbol,Segoe UI Symbol_MSFontService,sans-serif" font-weight="400" font-size="20" transform="matrix(1 0 0 1.00024 947.611 1016)">❑</text><text fill="#0070C0" font-family="Calibri,Calibri_MSFontService,sans-serif" font-weight="400" font-size="24" transform="matrix(1 0 0 1.00024 979.403 1016)">Hàn:</text><text font-family="Calibri,Calibri_MSFontService,sans-serif" font-weight="400" font-size="24" transform="matrix(1 0 0 1.00024 1030.56 1016)">Dùng</text><text font-family="Calibri,Calibri_MSFontService,sans-serif" font-weight="400" font-size="24" transform="matrix(1 0 0 1.00024 1092.7 1016)">để</text><text font-family="Calibri,Calibri_MSFontService,sans-serif" font-weight="400" font-size="24" transform="matrix(1 0 0 1.00024 1128.52 1016)">điều</text><text font-family="Calibri,Calibri_MSFontService,sans-serif" font-weight="400" font-size="24" transform="matrix(1 0 0 1.00024 1182.45 1016)">trị</text><text font-family="Calibri,Calibri_MSFontService,sans-serif" font-weight="400" font-size="24" transform="matrix(1 0 0 1.00024 1214.81 1016)">bệnh</text><text font-family="Calibri,Calibri_MSFontService,sans-serif" font-weight="400" font-size="24" transform="matrix(1 0 0 1.00024 1275.46 1016)">thuộc</text><text font-family="Calibri,Calibri_MSFontService,sans-serif" font-weight="400" font-size="24" transform="matrix(1 0 0 1.00024 979.403 1051)">nhiệt trừ</text><text font-family="Calibri,Calibri_MSFontService,sans-serif" font-weight="400" font-size="24" transform="matrix(1 0 0 1.00024 1072.49 1051)">nhiệt</text><text font-family="Calibri,Calibri_MSFontService,sans-serif" font-weight="400" font-size="24" transform="matrix(1 0 0 1.00024 1128.99 1051)">phục</text><text font-family="Calibri,Calibri_MSFontService,sans-serif" font-weight="400" font-size="24" transform="matrix(1 0 0 1.00024 1183.02 1051)">do</text><text font-family="Calibri,Calibri_MSFontService,sans-serif" font-weight="400" font-size="24" transform="matrix(1 0 0 1.00024 1214.47 1051)">Âm</text><text font-family="Calibri,Calibri_MSFontService,sans-serif" font-weight="400" font-size="24" transform="matrix(1 0 0 1.00024 1253.52 1051)">hư</text><text font-family="Arial,Arial_MSFontService,sans-serif" font-weight="400" font-size="24" transform="matrix(1 0 0 1.00024 624.045 920)">Clear Damp Heat</text><text font-family="Arial,Arial_MSFontService,sans-serif" font-weight="400" font-size="24" transform="matrix(1 0 0 1.00024 253.964 920)">Antimicrobial</text><text font-family="Arial,Arial_MSFontService,sans-serif" font-weight="700" font-size="24" transform="matrix(1 0 0 1.00024 56.3211 1033)">Cool</text><text font-family="Arial,Arial_MSFontService,sans-serif" font-weight="400" font-size="24" transform="matrix(1 0 0 1.00024 550.063 959)">Clear Damp or deficiency Heat</text><text font-family="Arial,Arial_MSFontService,sans-serif" font-weight="400" font-size="24" transform="matrix(1 0 0 1.00024 229.304 959)">Anti</text><text font-family="Arial,Arial_MSFontService,sans-serif" font-weight="400" font-size="24" transform="matrix(1 0 0 1.00024 270.627 959)">-</text><text font-family="Arial,Arial_MSFontService,sans-serif" font-weight="400" font-size="24" transform="matrix(1 0 0 1.00024 278.625 959)">inflammatory</text><text font-family="Arial,Arial_MSFontService,sans-serif" font-weight="400" font-size="24" transform="matrix(1 0 0 1.00024 556.728 999)">Clear Damp heat or heat toxin</text><text font-family="Arial,Arial_MSFontService,sans-serif" font-weight="400" font-size="24" transform="matrix(1 0 0 1.00024 229.97 999)">Cooling alterative</text><text font-family="Arial,Arial_MSFontService,sans-serif" font-weight="400" font-size="24" transform="matrix(1 0 0 1.00024 592.053 1038)">Clear Phlegm and Heat</text><text font-family="Arial,Arial_MSFontService,sans-serif" font-weight="400" font-size="24" transform="matrix(1 0 0 1.00024 212.641 1038)">Cooling anticatarrhal</text></g></svg>