<svg width="1365" height="1024" xmlns="http://www.w3.org/2000/svg" xmlns:xlink="http://www.w3.org/1999/xlink" overflow="hidden"><defs><clipPath id="clip0"><rect x="0" y="0" width="1365" height="1024"/></clipPath></defs><g clip-path="url(#clip0)"><rect x="0" y="0" width="1365" height="1024.25" fill="#FFFFFF"/><path d="M140.462 104.025C139.986 104.025 139.568 104.437 139.637 104.986 140.04 108.728 141.615 122.974 142.155 128.089 142.767 133.745 143.847 134.886 148.656 136.454 149.064 136.591 149.332 136.938 149.4 137.35 149.872 140.824 152.104 142.659 154.545 142.927 155.09 142.999 155.498 143.468 155.498 144.017 155.362 182.037 150.761 201.607 147.917 209.236 147.712 209.785 147.173 210.196 146.56 210.196L145.271 210.196C143.779 210.196 142.567 211.273 142.431 212.768 142.091 215.976 140.93 221.567 137.137 225.591 131.443 231.514 125 235.126 125 241.946 125 244.806 127.573 247.328 128.793 248.353 129.129 248.628 129.129 249.17 128.793 249.372L126.629 251.077C125.613 251.893 125 253.107 125 254.4L125 258.424C125 259.312 125.749 260.064 126.629 260.064L221.389 260.064C222.27 260.064 223 259.312 223 258.424L223 254.4C222.728 253.107 222.133 251.893 221.117 251.077L218.935 249.372C218.595 249.105 218.595 248.628 218.935 248.353 220.155 247.263 222.746 244.734 222.746 241.946 222.746 235.126 216.303 231.514 210.609 225.591 206.816 221.567 205.655 215.976 205.315 212.768 205.179 211.338 203.899 210.196 202.474 210.196L201.186 210.196C200.573 210.196 200.034 209.85 199.829 209.236 196.985 201.607 192.452 181.965 192.248 144.017 192.248 143.468 192.638 142.999 193.178 142.927 195.619 142.659 197.874 140.824 198.346 137.35 198.414 136.938 198.682 136.591 199.09 136.454 203.899 134.959 204.979 133.81 205.591 128.089 206.131 122.974 207.683 108.728 208.091 104.986 208.155 104.509 207.76 104.025 207.284 104.025L197.457 104.025C196.985 104.025 196.653 104.423 196.653 104.834L196.653 114.312C196.653 114.789 196.232 115.143 195.828 115.143L191.631 115.143C191.159 115.143 190.805 114.717 190.805 114.312L190.805 104.834C190.805 104.358 190.406 104.025 190.002 104.025L157.744 104.025C157.272 104.025 156.918 104.423 156.918 104.834L156.918 114.312C156.918 114.789 156.519 115.143 156.115 115.143L151.918 115.143C151.446 115.143 151.093 114.717 151.093 114.312L151.093 104.834C151.093 104.358 150.698 104.025 150.289 104.025L140.462 104.025Z" fill-rule="evenodd"/><path d="M393.957 103.047C390.212 103.467 379.031 105.25 370.06 112.853 369.524 113.332 368.824 113.583 368.112 113.583L357.344 113.583C354.254 113.583 352.834 117.399 355.15 119.432L360.09 123.624C360.683 124.103 360.851 124.943 360.552 125.658 358.592 130.329 357.417 135.898 357.417 142.661 357.417 180.132 379.092 178.99 364.117 214.78 363.761 215.62 364.355 216.578 365.308 216.578L369.356 216.578C370.187 216.578 370.776 217.293 370.6 218.074 369.708 222.921 365.795 228.66 362.762 231.895 357.831 237.162 354.147 240.161 354.147 246.15 354.147 248.663 356.402 250.88 357.471 251.779 357.769 252.015 357.712 252.494 357.417 252.678L355.502 254.174C354.614 254.888 354.074 255.949 354.074 257.091L354.074 260.627C354.074 261.401 354.733 262.064 355.502 262.064L438.445 262.064C439.214 262.064 439.873 261.401 439.873 260.627L439.873 257.091C439.992 255.949 439.464 254.888 438.572 254.174L436.66 252.678C436.366 252.435 436.366 252.015 436.66 251.779 437.729 250.821 440.004 248.604 440.004 246.15 440.004 240.161 436.259 237.162 431.389 231.895 428.356 228.66 426.69 222.921 425.798 218.074 425.68 217.293 426.269 216.578 427.042 216.578L430.959 216.578C431.495 216.578 431.97 216.217 432.15 215.738 433.992 210.706 441.236 183.779 402.793 151.642 402.318 151.222 402.392 150.5 402.867 150.198 409.583 145.77 418.419 144.341 424.779 150.088 425.311 150.567 426.101 150.559 426.633 150.147 430.435 147.332 432.51 145.299 433.579 144.157 434.053 143.678 433.881 142.846 433.227 142.61L424.722 138.772C424.304 138.595 424.431 137.932 424.906 137.932L436.439 137.932C436.971 137.932 437.381 137.571 437.442 137.033 437.618 135.294 437.561 131.36 433.877 128.487 433.46 128.126 433.227 127.581 433.227 127.043 433.521 122.254 429.24 120.692 424.37 119.432 415.755 117.222 405.593 114.717 402.089 113.826 401.258 113.642 400.612 113.045 400.194 112.323L395.852 104.057C395.492 103.342 394.731 102.929 393.957 103.047Z" fill-rule="evenodd"/><path d="M632.404 103.055C619.286 103.624 606.53 112.822 606.53 130.08 606.53 139.204 610.981 147.286 617.844 152.243 618.158 152.48 618.231 152.938 617.921 153.174 615.576 155.693 613.397 157.356 610.824 158.922 610.356 159.24 610.042 159.698 610.042 160.252L610.042 167.255C610.042 168.12 610.747 168.829 611.605 168.829L620.966 168.829C621.513 168.829 621.9 169.235 621.819 169.782 621.509 174.03 619.717 193.512 618.235 207.349 618.158 207.903 617.683 208.31 617.139 208.31L611.847 208.31C610.288 208.31 608.955 209.484 608.798 211.058 608.411 214.516 607.231 220.566 603.094 224.888 596.928 231.338 590.072 235.194 590.072 242.582 590.072 245.648 592.795 248.382 594.12 249.482 594.435 249.8 594.435 250.354 594.12 250.591L591.78 252.408C590.689 253.272 590 254.602 590 256.021L590 260.343C590 261.288 590.769 262.064 591.708 262.064L675.051 262.064C675.985 262.064 676.754 261.288 676.754 260.343L676.754 256.021C676.992 254.528 676.36 253.198 675.268 252.334L672.928 250.517C672.537 250.199 672.537 249.645 672.928 249.409 674.253 248.234 677 245.574 677 242.508 677 235.12 670.04 231.264 663.954 224.814 659.818 220.492 658.585 214.42 658.275 210.962 658.118 209.388 656.785 208.206 655.226 208.206L649.909 208.206C649.365 208.206 648.89 207.83 648.814 207.275 647.331 193.519 645.539 173.934 645.229 169.686 645.152 169.139 645.616 168.755 646.083 168.755L655.443 168.755C656.305 168.755 657.006 168.046 657.006 167.181L657.006 160.252C657.006 159.698 656.692 159.158 656.225 158.922 653.808 157.511 651.391 155.612 649.128 153.174 648.894 152.864 648.89 152.48 649.204 152.243 656.615 146.894 661.304 137.866 660.442 127.723 659 110.546 645.523 102.486 632.404 103.055Z" fill-rule="evenodd"/><path d="M870 102.025C866.197 102.025 863.09 105.111 863.09 108.884 863.09 110.584 863.679 112.082 864.695 113.305 864.963 113.618 864.963 114.095 864.695 114.416 859.447 120.261 848.164 134.121 848.164 144.857 848.164 150.277 851.483 154.803 854.055 157.516 854.269 157.725 854.206 158.053 853.938 158.21 852.651 158.851 851.851 160.275 852.279 161.863 852.657 163.25 854.001 164.159 855.393 164.159L855.443 164.159C855.818 164.159 856.129 164.487 856.129 164.853L856.129 168.893C856.129 169.154 855.978 169.371 855.711 169.423 854.533 169.743 851.108 170.862 851.108 172.614 851.108 173.889 851.901 174.791 852.597 175.32 852.918 175.589 852.877 176.125 852.449 176.282L847.412 178.243C846.984 178.399 846.66 178.824 846.66 179.309L846.66 183.029C846.66 183.663 847.189 184.192 847.831 184.192L859.51 184.192C859.832 184.192 860.046 184.453 860.046 184.722L860.046 201.526C860.046 213.008 857.152 221.082 856.029 223.684 855.922 223.953 855.648 224.169 855.327 224.169L852.012 224.169C850.834 224.169 849.877 225.004 849.77 226.174 849.502 228.672 848.586 233.041 845.586 236.172 841.091 240.802 836 243.613 836 248.929 836 251.165 838.031 253.133 838.994 253.931 839.262 254.14 839.262 254.565 838.994 254.729L837.288 256.056C836.485 256.69 836 257.652 836 258.665L836 261.782C836 262.475 836.592 263.064 837.288 263.064L902.712 263.064C903.408 263.064 904 262.475 904 261.782L904 258.665C904 257.652 903.569 256.69 902.712 256.056L901.006 254.729C900.739 254.513 900.739 254.14 901.006 253.931 901.969 253.081 904 251.106 904 248.929 904 243.613 898.909 240.802 894.414 236.172 891.414 233.041 890.513 228.672 890.246 226.174 890.139 225.063 889.112 224.169 887.989 224.169L884.674 224.169C884.352 224.169 884.079 223.953 883.972 223.684 882.901 221.082 879.954 213.008 879.954 201.526L879.954 184.722C879.954 184.401 880.222 184.192 880.49 184.192L892.169 184.192C892.812 184.192 893.34 183.663 893.34 183.029L893.34 179.309C893.34 178.824 893.089 178.399 892.607 178.243L887.57 176.282C887.195 176.125 887.082 175.589 887.403 175.32 888.045 174.791 888.908 173.889 888.908 172.614 888.908 170.862 885.483 169.796 884.305 169.423 884.038 169.371 883.871 169.154 883.871 168.893L883.871 164.853C883.871 164.487 884.198 164.159 884.573 164.159L884.623 164.159C886.068 164.159 887.343 163.25 887.721 161.863 888.149 160.275 887.349 158.799 886.062 158.21 885.794 158.053 885.747 157.725 885.961 157.516 888.533 154.803 891.851 150.337 891.851 144.857 891.851 137.632 886.71 129.036 881.73 122.341L874.502 142.001C874.341 142.479 873.812 142.747 873.331 142.531L870.752 141.569C870.271 141.412 870.003 140.883 870.217 140.406L878.415 118.017C877.238 116.638 876.161 115.37 875.305 114.416 875.037 114.095 875.037 113.618 875.305 113.305 876.322 112.135 876.91 110.584 876.91 108.884 876.91 105.111 873.803 102.025 870 102.025Z" fill-rule="evenodd"/><path d="M1095.96 102.025C1095.65 102.025 1095.34 102.099 1095.08 102.263L1091.38 104.403C1090.81 104.724 1090.49 105.283 1090.49 105.924L1090.49 109.786C1090.49 109.987 1090.33 110.189 1090.08 110.189L1085.24 110.189C1084.22 110.189 1083.37 111.039 1083.37 112.045L1083.37 118.636C1083.37 119.642 1084.22 120.5 1085.24 120.5L1089.96 120.5C1090.28 120.5 1090.53 120.731 1090.53 121.051L1090.53 124.839C1090.53 125.159 1090.37 125.443 1090.12 125.607 1089.23 126.129 1088.41 126.815 1087.72 127.612 1087.48 127.94 1087.07 128.097 1086.66 128.097L1079.79 128.097C1077.43 128.097 1075.8 130.393 1076.57 132.607L1083.37 151.686C1083.53 152.089 1083.28 152.573 1082.88 152.693 1081.7 153.051 1080.89 154.221 1081.01 155.548 1081.13 156.711 1081.98 157.591 1083.08 157.874 1083.49 157.949 1083.74 158.314 1083.74 158.679L1083.74 160.648C1083.74 161.132 1083.37 161.49 1082.88 161.49L1081.42 161.49C1080.32 161.49 1079.42 162.385 1079.42 163.466L1079.42 165.516C1079.42 166.001 1079.06 166.374 1078.57 166.374L1074.91 166.374C1074.3 166.374 1073.81 166.851 1073.81 167.455L1073.81 172.323C1073.81 172.927 1074.3 173.412 1074.91 173.412L1085.73 173.412C1086.21 173.412 1086.63 173.814 1086.63 174.299L1086.63 198.678C1086.63 207.655 1082.84 218.197 1080.73 223.423 1080.61 223.751 1080.32 223.953 1079.95 223.953L1079.14 223.953C1077.96 223.953 1076.99 224.802 1076.87 225.966 1076.58 228.463 1075.68 232.854 1072.63 235.993 1068.12 240.66 1063 243.464 1063 248.817 1063 251.031 1065.02 252.999 1066 253.849 1066.28 254.051 1066.28 254.453 1066 254.654L1064.3 255.981C1063.48 256.63 1063 257.592 1063.04 258.673L1063.04 261.819C1063.04 262.505 1063.6 263.064 1064.3 263.064L1089.14 263.064 1102.9 263.064 1127.74 263.064C1128.43 263.064 1129 262.505 1129 261.819L1129 258.673C1129 257.666 1128.52 256.705 1127.7 256.064L1125.99 254.736C1125.74 254.535 1125.74 254.133 1125.99 253.931 1126.96 253.126 1129 251.12 1129 248.906 1129 243.553 1123.88 240.735 1119.37 236.068 1116.32 232.929 1115.42 228.538 1115.13 226.003 1115.01 224.84 1114.04 223.99 1112.86 223.99L1112.05 223.99C1111.72 223.99 1111.39 223.789 1111.27 223.468 1109.16 218.234 1105.37 207.692 1105.37 198.716L1105.37 174.336C1105.37 173.851 1105.77 173.456 1106.26 173.456L1117.09 173.456C1117.7 173.456 1118.18 172.964 1118.18 172.36L1118.18 167.492C1118.18 166.888 1117.7 166.411 1117.09 166.411L1113.43 166.411C1112.94 166.411 1112.57 166.053 1112.57 165.568L1112.57 163.503C1112.57 162.422 1111.68 161.542 1110.58 161.542L1109.11 161.542C1108.62 161.542 1108.26 161.17 1108.26 160.685L1108.26 158.724C1108.26 158.366 1108.54 158.001 1108.91 157.919 1110.01 157.643 1110.87 156.748 1110.99 155.585 1111.15 154.258 1110.29 153.088 1109.11 152.73 1108.7 152.611 1108.46 152.126 1108.63 151.723L1115.41 132.645C1116.19 130.43 1114.57 128.142 1112.21 128.142L1105.33 128.142C1104.93 128.142 1104.56 127.978 1104.28 127.657 1103.55 126.852 1102.73 126.166 1101.84 125.607 1101.55 125.443 1101.38 125.159 1101.38 124.839L1101.38 121.051C1101.38 120.731 1101.63 120.5 1101.95 120.5L1106.67 120.5C1107.69 120.5 1108.55 119.642 1108.55 118.636L1108.55 112.045C1108.55 111.039 1107.69 110.189 1106.67 110.189L1101.84 110.189C1101.64 110.189 1101.43 110.025 1101.43 109.786L1101.43 105.924C1101.43 105.283 1101.06 104.724 1100.53 104.403L1096.83 102.263C1096.57 102.099 1096.26 102.025 1095.96 102.025Z" fill-rule="evenodd"/><text font-family="Arial,Arial_MSFontService,sans-serif" font-weight="700" font-size="24" transform="matrix(1 0 0 1.00024 733.154 346)">Giảng dậy</text><text font-family="Arial,Arial_MSFontService,sans-serif" font-weight="400" font-size="49" transform="matrix(1 0 0 1.00024 733.154 408)">•</text><text font-family="Arial,Arial_MSFontService,sans-serif" font-weight="400" font-size="40" transform="matrix(1 0 0 1.00024 773.145 408)">Chức năng từng bộ phận</text><text font-family="Arial,Arial_MSFontService,sans-serif" font-weight="400" font-size="49" transform="matrix(1 0 0 1.00024 733.154 494)">•</text><text font-family="Arial,Arial_MSFontService,sans-serif" font-weight="400" font-size="40" transform="matrix(1 0 0 1.00024 773.145 494)">Đặc điểm lâm sàng</text><text font-family="Arial,Arial_MSFontService,sans-serif" font-weight="400" font-size="49" transform="matrix(1 0 0 1.00024 733.154 580)">•</text><text font-family="Arial,Arial_MSFontService,sans-serif" font-weight="400" font-size="40" transform="matrix(1 0 0 1.00024 773.145 580)">Điều trị bệnh</text><text font-family="Arial,Arial_MSFontService,sans-serif" font-weight="700" font-size="24" transform="matrix(1 0 0 1.00024 733.154 650)">Kết hợp phương Đông và phương Tây</text><text font-family="Arial,Arial_MSFontService,sans-serif" font-weight="400" font-size="49" transform="matrix(1 0 0 1.00024 733.154 712)">•</text><text font-family="Arial,Arial_MSFontService,sans-serif" font-weight="400" font-size="40" transform="matrix(1 0 0 1.00024 773.145 712)">Gốc rễ chung từ triệu chứng</text><text font-family="Arial,Arial_MSFontService,sans-serif" font-weight="400" font-size="40" transform="matrix(1 0 0 1.00024 773.145 755)">trên lâm sàng</text><text font-family="Arial,Arial_MSFontService,sans-serif" font-weight="400" font-size="49" transform="matrix(1 0 0 1.00024 733.154 841)">•</text><text font-family="Arial,Arial_MSFontService,sans-serif" font-weight="400" font-size="40" transform="matrix(1 0 0 1.00024 773.145 841)">Ngôn ngữ Anh</text><text font-family="Arial,Arial_MSFontService,sans-serif" font-weight="400" font-size="40" transform="matrix(1 0 0 1.00024 1032.91 841)">-</text><text font-family="Arial,Arial_MSFontService,sans-serif" font-weight="400" font-size="40" transform="matrix(1 0 0 1.00024 1046.24 841)">Trung</text><text font-family="Arial,Arial_MSFontService,sans-serif" font-weight="400" font-size="40" transform="matrix(1 0 0 1.00024 1150.55 841)">-</text><text font-family="Arial,Arial_MSFontService,sans-serif" font-weight="400" font-size="40" transform="matrix(1 0 0 1.00024 1163.88 841)">(Hán</text><text font-family="Arial,Arial_MSFontService,sans-serif" font-weight="400" font-size="40" transform="matrix(1 0 0 1.00024 773.145 884)">Việt)</text><text font-family="Arial,Arial_MSFontService,sans-serif" font-weight="400" font-size="45" transform="matrix(1 0 0 1.00024 43.9893 406)">•</text><text font-family="Arial,Arial_MSFontService,sans-serif" font-weight="400" font-size="37" transform="matrix(1 0 0 1.00024 80.7803 406)">Khám bệnh ~ Tứ chẩn, bát</text><text font-family="Arial,Arial_MSFontService,sans-serif" font-weight="400" font-size="37" transform="matrix(1 0 0 1.00024 80.7803 446)">cương</text><text font-family="Arial,Arial_MSFontService,sans-serif" font-weight="400" font-size="45" transform="matrix(1 0 0 1.00024 43.9893 525)">•</text><text font-family="Arial,Arial_MSFontService,sans-serif" font-weight="400" font-size="37" transform="matrix(1 0 0 1.00024 80.7803 525)">Điều trị ~ Châm cứu, Sử dụng</text><text font-family="Arial,Arial_MSFontService,sans-serif" font-weight="400" font-size="37" transform="matrix(1 0 0 1.00024 80.7803 564)">thuốc cổ truyền, giác hơi</text><text font-family="Arial,Arial_MSFontService,sans-serif" font-weight="400" font-size="45" transform="matrix(1 0 0 1.00024 43.9893 643)">•</text><text font-family="Arial,Arial_MSFontService,sans-serif" font-weight="400" font-size="37" transform="matrix(1 0 0 1.00024 80.7803 643)">Hệ thống hóa thông tin</text><text font-family="Arial,Arial_MSFontService,sans-serif" font-weight="400" font-size="45" transform="matrix(1 0 0 1.00024 80.7803 721)">•</text><text font-family="Arial,Arial_MSFontService,sans-serif" font-weight="400" font-size="37" transform="matrix(1 0 0 1.00024 117.571 721)">Chức năng từng bộ phận</text><text font-family="Arial,Arial_MSFontService,sans-serif" font-weight="400" font-size="45" transform="matrix(1 0 0 1.00024 80.7803 800)">•</text><text font-family="Arial,Arial_MSFontService,sans-serif" font-weight="400" font-size="37" transform="matrix(1 0 0 1.00024 117.571 800)">Dự đoán mối liên hệ</text><text font-family="Arial,Arial_MSFontService,sans-serif" font-weight="400" font-size="37" transform="matrix(1 0 0 1.00024 448.99 800)">-</text><text font-family="Arial,Arial_MSFontService,sans-serif" font-weight="400" font-size="37" transform="matrix(1 0 0 1.00024 471.485 800)">đề xuất</text><text font-family="Arial,Arial_MSFontService,sans-serif" font-weight="400" font-size="37" transform="matrix(1 0 0 1.00024 117.571 839)">nguyên nhân gây bệnh</text><text font-family="Arial,Arial_MSFontService,sans-serif" font-weight="400" font-size="45" transform="matrix(1 0 0 1.00024 80.7803 918)">•</text><text font-family="Arial,Arial_MSFontService,sans-serif" font-weight="400" font-size="37" transform="matrix(1 0 0 1.00024 117.571 918)">Hệ thống hóa phương pháp</text><text font-family="Arial,Arial_MSFontService,sans-serif" font-weight="400" font-size="37" transform="matrix(1 0 0 1.00024 117.571 957)">chữa bệnh</text><text font-family="Arial,Arial_MSFontService,sans-serif" font-weight="700" font-size="24" transform="matrix(1 0 0 1.00024 48.2549 347)">Thực tiễn Y học Trung Hoa</text></g></svg>