<svg width="1365" height="1024" xmlns="http://www.w3.org/2000/svg" xmlns:xlink="http://www.w3.org/1999/xlink" overflow="hidden"><defs><clipPath id="clip0"><rect x="0" y="0" width="1365" height="1024"/></clipPath></defs><g clip-path="url(#clip0)"><rect x="0" y="0" width="1365" height="1024.25" fill="#FFFFFF"/><text font-family="Arial,Arial_MSFontService,sans-serif" font-weight="700" font-size="108" transform="matrix(1 0 0 1.00024 12.0239 107)">SỰ QUY KINH CỦA</text><text font-family="Arial,Arial_MSFontService,sans-serif" font-weight="700" font-size="108" transform="matrix(1 0 0 1.00024 10.6909 211)">THUỐC</text><text fill="#BA5263" font-family="Arial,Arial_MSFontService,sans-serif" font-weight="400" font-size="54" transform="matrix(1 0 0 1.00024 78.6657 306)">•</text><text fill="#BA5263" font-family="Arial,Arial_MSFontService,sans-serif" font-weight="400" font-size="44" transform="matrix(1 0 0 1.00024 118.656 306)">Định</text><text fill="#BA5263" font-family="Arial,Arial_MSFontService,sans-serif" font-weight="400" font-size="44" transform="matrix(1 0 0 1.00024 222.384 306)">nghĩa:</text><text font-family="Arial,Arial_MSFontService,sans-serif" font-weight="400" font-size="44" transform="matrix(1 0 0 1.00024 357.891 306)">Là</text><text font-family="Arial,Arial_MSFontService,sans-serif" font-weight="400" font-size="44" transform="matrix(1 0 0 1.00024 420.082 306)">sự</text><text font-family="Arial,Arial_MSFontService,sans-serif" font-weight="400" font-size="44" transform="matrix(1 0 0 1.00024 484.427 306)">quy</text><text font-family="Arial,Arial_MSFontService,sans-serif" font-weight="400" font-size="44" transform="matrix(1 0 0 1.00024 568.493 306)">nạp</text><text font-family="Arial,Arial_MSFontService,sans-serif" font-weight="400" font-size="44" transform="matrix(1 0 0 1.00024 654.832 306)">khí</text><text font-family="Arial,Arial_MSFontService,sans-serif" font-weight="400" font-size="44" transform="matrix(1 0 0 1.00024 726.341 306)">vị</text><text font-family="Arial,Arial_MSFontService,sans-serif" font-weight="400" font-size="44" transform="matrix(1 0 0 1.00024 771.023 306)">tinh</text><text font-family="Arial,Arial_MSFontService,sans-serif" font-weight="400" font-size="44" transform="matrix(1 0 0 1.00024 855.089 306)">hoa</text><text font-family="Arial,Arial_MSFontService,sans-serif" font-weight="400" font-size="44" transform="matrix(1 0 0 1.00024 941.308 306)">của</text><text font-family="Arial,Arial_MSFontService,sans-serif" font-weight="400" font-size="44" transform="matrix(1 0 0 1.00024 1025.37 306)">các</text><text font-family="Arial,Arial_MSFontService,sans-serif" font-weight="400" font-size="44" transform="matrix(1 0 0 1.00024 1106.82 306)">vị</text><text font-family="Arial,Arial_MSFontService,sans-serif" font-weight="400" font-size="44" transform="matrix(1 0 0 1.00024 1151.73 306)">thuốc</text><text font-family="Arial,Arial_MSFontService,sans-serif" font-weight="400" font-size="44" transform="matrix(1 0 0 1.00024 118.656 357)">vào</text><text font-family="Arial,Arial_MSFontService,sans-serif" font-weight="400" font-size="44" transform="matrix(1 0 0 1.00024 202.722 357)">tạng,</text><text font-family="Arial,Arial_MSFontService,sans-serif" font-weight="400" font-size="44" transform="matrix(1 0 0 1.00024 313.388 357)">phủ,</text><text font-family="Arial,Arial_MSFontService,sans-serif" font-weight="400" font-size="44" transform="matrix(1 0 0 1.00024 411.891 357)">kinh</text><text font-family="Arial,Arial_MSFontService,sans-serif" font-weight="400" font-size="44" transform="matrix(1 0 0 1.00024 505.788 357)">mạch</text><text font-family="Arial,Arial_MSFontService,sans-serif" font-weight="400" font-size="44" transform="matrix(1 0 0 1.00024 623.326 357)">nhất</text><text font-family="Arial,Arial_MSFontService,sans-serif" font-weight="400" font-size="44" transform="matrix(1 0 0 1.00024 721.935 357)">định</text><text fill="#BA5263" font-family="Arial,Arial_MSFontService,sans-serif" font-weight="400" font-size="54" transform="matrix(1 0 0 1.00024 78.6657 434)">•</text><text fill="#BA5263" font-family="Arial,Arial_MSFontService,sans-serif" font-weight="400" font-size="44" transform="matrix(1 0 0 1.00024 118.656 434)">Cơ</text><text fill="#BA5263" font-family="Arial,Arial_MSFontService,sans-serif" font-weight="400" font-size="44" transform="matrix(1 0 0 1.00024 192.045 434)">sở</text><text fill="#BA5263" font-family="Arial,Arial_MSFontService,sans-serif" font-weight="400" font-size="44" transform="matrix(1 0 0 1.00024 255.483 434)">của</text><text fill="#BA5263" font-family="Arial,Arial_MSFontService,sans-serif" font-weight="400" font-size="44" transform="matrix(1 0 0 1.00024 339.202 434)">sự</text><text fill="#BA5263" font-family="Arial,Arial_MSFontService,sans-serif" font-weight="400" font-size="44" transform="matrix(1 0 0 1.00024 403.306 434)">quy</text><text fill="#BA5263" font-family="Arial,Arial_MSFontService,sans-serif" font-weight="400" font-size="44" transform="matrix(1 0 0 1.00024 487.253 434)">kinh</text><text font-family="Arial,Arial_MSFontService,sans-serif" font-weight="400" font-size="54" transform="matrix(1 0 0 1.00024 118.656 512)">•</text><text font-family="Arial,Arial_MSFontService,sans-serif" font-weight="400" font-size="44" transform="matrix(1 0 0 1.00024 158.646 512)">Lý</text><text font-family="Arial,Arial_MSFontService,sans-serif" font-weight="400" font-size="44" transform="matrix(1 0 0 1.00024 217.805 512)">luận</text><text font-family="Arial,Arial_MSFontService,sans-serif" font-weight="400" font-size="44" transform="matrix(1 0 0 1.00024 313.282 512)">YHCT:</text><text font-family="Arial,Arial_MSFontService,sans-serif" font-weight="400" font-size="44" transform="matrix(1 0 0 1.00024 455.907 512)">Theo</text><text font-family="Arial,Arial_MSFontService,sans-serif" font-weight="400" font-size="44" transform="matrix(1 0 0 1.00024 569.153 512)">Ngũ</text><text font-family="Arial,Arial_MSFontService,sans-serif" font-weight="400" font-size="44" transform="matrix(1 0 0 1.00024 663.023 512)">Hành</text><text font-family="Arial,Arial_MSFontService,sans-serif" font-weight="400" font-size="44" transform="matrix(1 0 0 1.00024 781.387 512)">(màu</text><text font-family="Arial,Arial_MSFontService,sans-serif" font-weight="400" font-size="44" transform="matrix(1 0 0 1.00024 894.753 512)">sắc,</text><text font-family="Arial,Arial_MSFontService,sans-serif" font-weight="400" font-size="44" transform="matrix(1 0 0 1.00024 988.457 512)">mùi</text><text font-family="Arial,Arial_MSFontService,sans-serif" font-weight="400" font-size="44" transform="matrix(1 0 0 1.00024 1072.24 512)">vị),</text><text font-family="Arial,Arial_MSFontService,sans-serif" font-weight="400" font-size="44" transform="matrix(1 0 0 1.00024 1142.81 512)">Tạng</text><text font-family="Arial,Arial_MSFontService,sans-serif" font-weight="400" font-size="44" transform="matrix(1 0 0 1.00024 158.646 564)">Tượng,</text><text font-family="Arial,Arial_MSFontService,sans-serif" font-weight="400" font-size="44" transform="matrix(1 0 0 1.00024 318.001 564)">Kinh</text><text font-family="Arial,Arial_MSFontService,sans-serif" font-weight="400" font-size="44" transform="matrix(1 0 0 1.00024 419.083 564)">Lạc</text><text font-family="Arial,Arial_MSFontService,sans-serif" font-weight="400" font-size="44" transform="matrix(1 0 0 1.00024 503.389 564)">-</text><text font-family="Arial,Arial_MSFontService,sans-serif" font-weight="400" font-size="44" transform="matrix(1 0 0 1.00024 517.798 564)">&gt;</text><text font-family="Arial,Arial_MSFontService,sans-serif" font-weight="400" font-size="44" transform="matrix(1 0 0 1.00024 556.262 564)">tương</text><text font-family="Arial,Arial_MSFontService,sans-serif" font-weight="400" font-size="44" transform="matrix(1 0 0 1.00024 688.537 564)">đối</text><text font-family="Arial,Arial_MSFontService,sans-serif" font-weight="400" font-size="54" transform="matrix(1 0 0 1.00024 118.656 642)">•</text><text font-family="Arial,Arial_MSFontService,sans-serif" font-weight="400" font-size="44" transform="matrix(1 0 0 1.00024 158.646 642)">Thực</text><text font-family="Arial,Arial_MSFontService,sans-serif" font-weight="400" font-size="44" transform="matrix(1 0 0 1.00024 274.778 642)">tiễn</text><text font-family="Arial,Arial_MSFontService,sans-serif" font-weight="400" font-size="44" transform="matrix(1 0 0 1.00024 358.697 642)">lâm</text><text font-family="Arial,Arial_MSFontService,sans-serif" font-weight="400" font-size="44" transform="matrix(1 0 0 1.00024 443.003 642)">sàng:</text><text font-family="Arial,Arial_MSFontService,sans-serif" font-weight="400" font-size="44" transform="matrix(1 0 0 1.00024 563.061 642)">Tổng</text><text font-family="Arial,Arial_MSFontService,sans-serif" font-weight="400" font-size="44" transform="matrix(1 0 0 1.00024 676.946 642)">kết</text><text font-family="Arial,Arial_MSFontService,sans-serif" font-weight="400" font-size="44" transform="matrix(1 0 0 1.00024 748.655 642)">tác</text><text font-family="Arial,Arial_MSFontService,sans-serif" font-weight="400" font-size="44" transform="matrix(1 0 0 1.00024 820.245 642)">dụng</text><text font-family="Arial,Arial_MSFontService,sans-serif" font-weight="400" font-size="44" transform="matrix(1 0 0 1.00024 931.677 642)">vị</text><text font-family="Arial,Arial_MSFontService,sans-serif" font-weight="400" font-size="44" transform="matrix(1 0 0 1.00024 976.173 642)">thuốc</text><text font-family="Arial,Arial_MSFontService,sans-serif" font-weight="400" font-size="44" transform="matrix(1 0 0 1.00024 1097.14 642)">với</text><text font-family="Arial,Arial_MSFontService,sans-serif" font-weight="400" font-size="44" transform="matrix(1 0 0 1.00024 1169.7 642)">Tạng</text><text font-family="Arial,Arial_MSFontService,sans-serif" font-weight="400" font-size="44" transform="matrix(1 0 0 1.00024 158.646 693)">Phủ</text><text font-family="Arial,Arial_MSFontService,sans-serif" font-weight="400" font-size="44" transform="matrix(1 0 0 1.00024 250.017 693)">và</text><text font-family="Arial,Arial_MSFontService,sans-serif" font-weight="400" font-size="44" transform="matrix(1 0 0 1.00024 309.176 693)">Kinh</text><text font-family="Arial,Arial_MSFontService,sans-serif" font-weight="400" font-size="44" transform="matrix(1 0 0 1.00024 410.378 693)">Lạc</text><text font-family="Arial,Arial_MSFontService,sans-serif" font-weight="400" font-size="44" transform="matrix(1 0 0 1.00024 494.817 693)">nhất</text><text font-family="Arial,Arial_MSFontService,sans-serif" font-weight="400" font-size="44" transform="matrix(1 0 0 1.00024 593.653 693)">định</text><text font-family="Arial,Arial_MSFontService,sans-serif" font-weight="400" font-size="54" transform="matrix(1 0 0 1.00024 118.656 770)">•</text><text font-family="Arial,Arial_MSFontService,sans-serif" font-weight="400" font-size="44" transform="matrix(1 0 0 1.00024 158.646 770)">Chế</text><text font-family="Arial,Arial_MSFontService,sans-serif" font-weight="400" font-size="44" transform="matrix(1 0 0 1.00024 252.517 770)">biến</text><text font-family="Arial,Arial_MSFontService,sans-serif" font-weight="400" font-size="44" transform="matrix(1 0 0 1.00024 348.633 770)">làm</text><text font-family="Arial,Arial_MSFontService,sans-serif" font-weight="400" font-size="44" transform="matrix(1 0 0 1.00024 432.806 770)">tăng</text><text font-family="Arial,Arial_MSFontService,sans-serif" font-weight="400" font-size="44" transform="matrix(1 0 0 1.00024 531.642 770)">sự</text><text font-family="Arial,Arial_MSFontService,sans-serif" font-weight="400" font-size="44" transform="matrix(1 0 0 1.00024 595.933 770)">quy</text><text font-family="Arial,Arial_MSFontService,sans-serif" font-weight="400" font-size="44" transform="matrix(1 0 0 1.00024 680.239 770)">kinh</text><text font-family="Arial,Arial_MSFontService,sans-serif" font-weight="400" font-size="44" transform="matrix(1 0 0 1.00024 773.856 770)">thuốc</text><text font-family="Arial,Arial_MSFontService,sans-serif" font-weight="400" font-size="54" transform="matrix(1 0 0 1.00024 158.646 847)">•</text><text font-family="Arial,Arial_MSFontService,sans-serif" font-weight="400" font-size="44" transform="matrix(1 0 0 1.00024 198.636 847)">Chế</text><text font-family="Arial,Arial_MSFontService,sans-serif" font-weight="400" font-size="44" transform="matrix(1 0 0 1.00024 292.987 847)">biến</text><text font-family="Arial,Arial_MSFontService,sans-serif" font-weight="400" font-size="44" transform="matrix(1 0 0 1.00024 389.423 847)">với</text><text font-family="Arial,Arial_MSFontService,sans-serif" font-weight="400" font-size="44" transform="matrix(1 0 0 1.00024 463.332 847)">phụ</text><text font-family="Arial,Arial_MSFontService,sans-serif" font-weight="400" font-size="44" transform="matrix(1 0 0 1.00024 549.937 847)">liệu</text><text font-family="Arial,Arial_MSFontService,sans-serif" font-weight="400" font-size="44" transform="matrix(1 0 0 1.00024 632.124 847)">theo</text><text font-family="Arial,Arial_MSFontService,sans-serif" font-weight="400" font-size="44" transform="matrix(1 0 0 1.00024 731.026 847)">Ngũ</text><text font-family="Arial,Arial_MSFontService,sans-serif" font-weight="400" font-size="44" transform="matrix(1 0 0 1.00024 825.377 847)">Hành</text><text font-family="Arial,Arial_MSFontService,sans-serif" font-weight="400" font-size="54" transform="matrix(1 0 0 1.00024 158.646 925)">•</text><text font-family="Arial,Arial_MSFontService,sans-serif" font-weight="400" font-size="44" transform="matrix(1 0 0 1.00024 198.636 925)">Mối</text><text font-family="Arial,Arial_MSFontService,sans-serif" font-weight="400" font-size="44" transform="matrix(1 0 0 1.00024 283.156 925)">quan</text><text font-family="Arial,Arial_MSFontService,sans-serif" font-weight="400" font-size="44" transform="matrix(1 0 0 1.00024 393.975 925)">hệ</text><text font-family="Arial,Arial_MSFontService,sans-serif" font-weight="400" font-size="44" transform="matrix(1 0 0 1.00024 456.353 925)">giữa</text><text font-family="Arial,Arial_MSFontService,sans-serif" font-weight="400" font-size="44" transform="matrix(1 0 0 1.00024 557.789 925)">quy</text><text font-family="Arial,Arial_MSFontService,sans-serif" font-weight="400" font-size="44" transform="matrix(1 0 0 1.00024 641.895 925)">kinh,</text><text font-family="Arial,Arial_MSFontService,sans-serif" font-weight="400" font-size="44" transform="matrix(1 0 0 1.00024 748.262 925)">tính</text><text font-family="Arial,Arial_MSFontService,sans-serif" font-weight="400" font-size="44" transform="matrix(1 0 0 1.00024 834.968 925)">vị</text><text font-family="Arial,Arial_MSFontService,sans-serif" font-weight="400" font-size="44" transform="matrix(1 0 0 1.00024 879.917 925)">của</text><text font-family="Arial,Arial_MSFontService,sans-serif" font-weight="400" font-size="44" transform="matrix(1 0 0 1.00024 964.436 925)">thuốc</text><text font-family="Arial,Arial_MSFontService,sans-serif" font-weight="400" font-size="44" transform="matrix(1 0 0 1.00024 1084.92 925)">và</text><text font-family="Arial,Arial_MSFontService,sans-serif" font-weight="400" font-size="44" transform="matrix(1 0 0 1.00024 1144.53 925)">tính</text><text font-family="Arial,Arial_MSFontService,sans-serif" font-weight="400" font-size="44" transform="matrix(1 0 0 1.00024 198.636 978)">của</text><text font-family="Arial,Arial_MSFontService,sans-serif" font-weight="400" font-size="44" transform="matrix(1 0 0 1.00024 283.156 978)">bệnh</text></g></svg>