<svg xmlns="http://www.w3.org/2000/svg" xmlns:rdkit="http://www.rdkit.org/xml" xmlns:xlink="http://www.w3.org/1999/xlink" version="1.1" baseProfile="full" xml:space="preserve" width="800px" height="400px" viewBox="0 0 800 400">
<!-- END OF HEADER -->
<rect style="opacity:1.0;fill:#FFFFFF;stroke:none" width="800.0" height="400.0" x="0.0" y="0.0"> </rect>
<path class="bond-0 atom-0 atom-1" d="M 81.0,96.8 L 87.4,100.4" style="fill:none;fill-rule:evenodd;stroke:#0000FF;stroke-width:2.0px;stroke-linecap:butt;stroke-linejoin:miter;stroke-opacity:1"/>
<path class="bond-0 atom-0 atom-1" d="M 87.4,100.4 L 93.7,104.1" style="fill:none;fill-rule:evenodd;stroke:#000000;stroke-width:2.0px;stroke-linecap:butt;stroke-linejoin:miter;stroke-opacity:1"/>
<path class="bond-1 atom-1 atom-2" d="M 93.7,104.1 L 108.9,95.3" style="fill:none;fill-rule:evenodd;stroke:#000000;stroke-width:2.0px;stroke-linecap:butt;stroke-linejoin:miter;stroke-opacity:1"/>
<path class="bond-2 atom-2 atom-3" d="M 110.2,96.1 L 110.2,88.5" style="fill:none;fill-rule:evenodd;stroke:#000000;stroke-width:2.0px;stroke-linecap:butt;stroke-linejoin:miter;stroke-opacity:1"/>
<path class="bond-2 atom-2 atom-3" d="M 110.2,88.5 L 110.2,81.0" style="fill:none;fill-rule:evenodd;stroke:#FF0000;stroke-width:2.0px;stroke-linecap:butt;stroke-linejoin:miter;stroke-opacity:1"/>
<path class="bond-2 atom-2 atom-3" d="M 107.6,96.1 L 107.6,88.5" style="fill:none;fill-rule:evenodd;stroke:#000000;stroke-width:2.0px;stroke-linecap:butt;stroke-linejoin:miter;stroke-opacity:1"/>
<path class="bond-2 atom-2 atom-3" d="M 107.6,88.5 L 107.6,81.0" style="fill:none;fill-rule:evenodd;stroke:#FF0000;stroke-width:2.0px;stroke-linecap:butt;stroke-linejoin:miter;stroke-opacity:1"/>
<path class="bond-3 atom-2 atom-4" d="M 108.9,95.3 L 115.1,98.9" style="fill:none;fill-rule:evenodd;stroke:#000000;stroke-width:2.0px;stroke-linecap:butt;stroke-linejoin:miter;stroke-opacity:1"/>
<path class="bond-3 atom-2 atom-4" d="M 115.1,98.9 L 121.2,102.4" style="fill:none;fill-rule:evenodd;stroke:#FF0000;stroke-width:2.0px;stroke-linecap:butt;stroke-linejoin:miter;stroke-opacity:1"/>
<path d="M 93.4,103.9 L 93.7,104.1 L 94.5,103.7" style="fill:none;stroke:#000000;stroke-width:2.0px;stroke-linecap:butt;stroke-linejoin:miter;stroke-opacity:1;"/>
<path d="M 108.1,95.8 L 108.9,95.3 L 109.2,95.5" style="fill:none;stroke:#000000;stroke-width:2.0px;stroke-linecap:butt;stroke-linejoin:miter;stroke-opacity:1;"/>
<path class="atom-0" d="M 69.0 92.9 L 69.7 92.9 L 69.7 95.0 L 72.2 95.0 L 72.2 92.9 L 72.9 92.9 L 72.9 97.8 L 72.2 97.8 L 72.2 95.5 L 69.7 95.5 L 69.7 97.8 L 69.0 97.8 L 69.0 92.9 " fill="#0000FF"/>
<path class="atom-0" d="M 73.9 97.6 Q 74.0 97.3, 74.3 97.2 Q 74.5 97.0, 74.9 97.0 Q 75.4 97.0, 75.7 97.3 Q 76.0 97.5, 76.0 98.0 Q 76.0 98.5, 75.6 98.9 Q 75.3 99.4, 74.5 99.9 L 76.1 99.9 L 76.1 100.3 L 73.8 100.3 L 73.8 100.0 Q 74.5 99.6, 74.8 99.2 Q 75.2 98.9, 75.4 98.6 Q 75.5 98.3, 75.5 98.0 Q 75.5 97.7, 75.4 97.5 Q 75.2 97.4, 74.9 97.4 Q 74.7 97.4, 74.5 97.5 Q 74.3 97.6, 74.2 97.8 L 73.9 97.6 " fill="#0000FF"/>
<path class="atom-0" d="M 77.5 92.9 L 79.1 95.5 Q 79.3 95.7, 79.5 96.2 Q 79.8 96.7, 79.8 96.7 L 79.8 92.9 L 80.5 92.9 L 80.5 97.8 L 79.8 97.8 L 78.0 94.9 Q 77.8 94.6, 77.6 94.2 Q 77.4 93.8, 77.3 93.7 L 77.3 97.8 L 76.7 97.8 L 76.7 92.9 L 77.5 92.9 " fill="#0000FF"/>
<path class="atom-3" d="M 106.6 77.8 Q 106.6 76.7, 107.2 76.0 Q 107.8 75.3, 108.9 75.3 Q 110.0 75.3, 110.6 76.0 Q 111.2 76.7, 111.2 77.8 Q 111.2 79.0, 110.6 79.7 Q 110.0 80.4, 108.9 80.4 Q 107.8 80.4, 107.2 79.7 Q 106.6 79.1, 106.6 77.8 M 108.9 79.9 Q 109.7 79.9, 110.1 79.3 Q 110.5 78.8, 110.5 77.8 Q 110.5 76.9, 110.1 76.4 Q 109.7 75.9, 108.9 75.9 Q 108.1 75.9, 107.7 76.4 Q 107.3 76.9, 107.3 77.8 Q 107.3 78.8, 107.7 79.3 Q 108.1 79.9, 108.9 79.9 " fill="#FF0000"/>
<path class="atom-4" d="M 121.8 104.1 Q 121.8 102.9, 122.4 102.3 Q 123.0 101.6, 124.1 101.6 Q 125.2 101.6, 125.8 102.3 Q 126.3 102.9, 126.3 104.1 Q 126.3 105.3, 125.7 106.0 Q 125.2 106.7, 124.1 106.7 Q 123.0 106.7, 122.4 106.0 Q 121.8 105.3, 121.8 104.1 M 124.1 106.1 Q 124.8 106.1, 125.2 105.6 Q 125.6 105.1, 125.6 104.1 Q 125.6 103.1, 125.2 102.6 Q 124.8 102.1, 124.1 102.1 Q 123.3 102.1, 122.9 102.6 Q 122.5 103.1, 122.5 104.1 Q 122.5 105.1, 122.9 105.6 Q 123.3 106.1, 124.1 106.1 " fill="#FF0000"/>
<path class="atom-4" d="M 127.1 101.6 L 127.8 101.6 L 127.8 103.8 L 130.3 103.8 L 130.3 101.6 L 131.0 101.6 L 131.0 106.6 L 130.3 106.6 L 130.3 104.3 L 127.8 104.3 L 127.8 106.6 L 127.1 106.6 L 127.1 101.6 " fill="#FF0000"/>
<path class="legend" d="M 103.4 190.0 L 102.2 186.7 L 97.8 186.7 L 96.6 190.0 L 95.1 190.0 L 99.0 178.7 L 100.9 178.7 L 104.9 190.0 L 103.4 190.0 M 98.2 185.4 L 101.8 185.4 L 100.0 180.3 L 98.2 185.4 " fill="#000000"/>
<path class="bond-0 atom-0 atom-1" d="M 273.4,92.6 L 289.5,85.7" style="fill:none;fill-rule:evenodd;stroke:#000000;stroke-width:2.0px;stroke-linecap:butt;stroke-linejoin:miter;stroke-opacity:1"/>
<path class="bond-1 atom-1 atom-2" d="M 289.5,85.7 L 303.5,96.3" style="fill:none;fill-rule:evenodd;stroke:#000000;stroke-width:2.0px;stroke-linecap:butt;stroke-linejoin:miter;stroke-opacity:1"/>
<path class="bond-2 atom-2 atom-3" d="M 303.5,96.3 L 310.2,93.4" style="fill:none;fill-rule:evenodd;stroke:#000000;stroke-width:2.0px;stroke-linecap:butt;stroke-linejoin:miter;stroke-opacity:1"/>
<path class="bond-2 atom-2 atom-3" d="M 310.2,93.4 L 316.8,90.6" style="fill:none;fill-rule:evenodd;stroke:#FF0000;stroke-width:2.0px;stroke-linecap:butt;stroke-linejoin:miter;stroke-opacity:1"/>
<path d="M 288.7,86.1 L 289.5,85.7 L 290.2,86.3" style="fill:none;stroke:#000000;stroke-width:2.0px;stroke-linecap:butt;stroke-linejoin:miter;stroke-opacity:1;"/>
<path d="M 302.8,95.7 L 303.5,96.3 L 303.9,96.1" style="fill:none;stroke:#000000;stroke-width:2.0px;stroke-linecap:butt;stroke-linejoin:miter;stroke-opacity:1;"/>
<path class="atom-3" d="M 317.4 89.4 Q 317.4 88.2, 318.0 87.6 Q 318.5 86.9, 319.6 86.9 Q 320.7 86.9, 321.3 87.6 Q 321.9 88.2, 321.9 89.4 Q 321.9 90.6, 321.3 91.3 Q 320.7 92.0, 319.6 92.0 Q 318.6 92.0, 318.0 91.3 Q 317.4 90.6, 317.4 89.4 M 319.6 91.4 Q 320.4 91.4, 320.8 90.9 Q 321.2 90.4, 321.2 89.4 Q 321.2 88.4, 320.8 88.0 Q 320.4 87.5, 319.6 87.5 Q 318.9 87.5, 318.5 87.9 Q 318.1 88.4, 318.1 89.4 Q 318.1 90.4, 318.5 90.9 Q 318.9 91.4, 319.6 91.4 " fill="#FF0000"/>
<path class="atom-3" d="M 322.7 87.0 L 323.4 87.0 L 323.4 89.1 L 325.9 89.1 L 325.9 87.0 L 326.6 87.0 L 326.6 91.9 L 325.9 91.9 L 325.9 89.6 L 323.4 89.6 L 323.4 91.9 L 322.7 91.9 L 322.7 87.0 " fill="#FF0000"/>
<path class="legend" d="M 301.7 184.0 Q 302.7 184.4, 303.3 185.0 Q 303.8 185.7, 303.8 186.7 Q 303.8 188.2, 302.8 189.1 Q 301.8 190.0, 300.0 190.0 L 296.2 190.0 L 296.2 178.7 L 299.5 178.7 Q 301.4 178.7, 302.4 179.5 Q 303.4 180.2, 303.4 181.7 Q 303.4 183.4, 301.7 184.0 M 297.7 180.0 L 297.7 183.5 L 299.5 183.5 Q 300.6 183.5, 301.2 183.1 Q 301.8 182.6, 301.8 181.7 Q 301.8 180.0, 299.5 180.0 L 297.7 180.0 M 300.0 188.7 Q 301.1 188.7, 301.7 188.2 Q 302.2 187.7, 302.2 186.7 Q 302.2 185.7, 301.6 185.3 Q 301.0 184.8, 299.7 184.8 L 297.7 184.8 L 297.7 188.7 L 300.0 188.7 " fill="#000000"/>
<path class="bond-0 atom-0 atom-1" d="M 515.8,123.6 L 513.2,116.6" style="fill:none;fill-rule:evenodd;stroke:#FF0000;stroke-width:2.0px;stroke-linecap:butt;stroke-linejoin:miter;stroke-opacity:1"/>
<path class="bond-0 atom-0 atom-1" d="M 513.2,116.6 L 510.5,109.6" style="fill:none;fill-rule:evenodd;stroke:#000000;stroke-width:2.0px;stroke-linecap:butt;stroke-linejoin:miter;stroke-opacity:1"/>
<path class="bond-0 atom-0 atom-1" d="M 518.3,122.7 L 515.6,115.7" style="fill:none;fill-rule:evenodd;stroke:#FF0000;stroke-width:2.0px;stroke-linecap:butt;stroke-linejoin:miter;stroke-opacity:1"/>
<path class="bond-0 atom-0 atom-1" d="M 515.6,115.7 L 513.0,108.7" style="fill:none;fill-rule:evenodd;stroke:#000000;stroke-width:2.0px;stroke-linecap:butt;stroke-linejoin:miter;stroke-opacity:1"/>
<path class="bond-1 atom-1 atom-2" d="M 512.0,109.9 L 494.7,107.1" style="fill:none;fill-rule:evenodd;stroke:#000000;stroke-width:2.0px;stroke-linecap:butt;stroke-linejoin:miter;stroke-opacity:1"/>
<path class="bond-2 atom-2 atom-3" d="M 494.7,107.1 L 488.5,90.7" style="fill:none;fill-rule:evenodd;stroke:#000000;stroke-width:2.0px;stroke-linecap:butt;stroke-linejoin:miter;stroke-opacity:1"/>
<path class="bond-2 atom-2 atom-3" d="M 496.7,104.7 L 491.5,91.2" style="fill:none;fill-rule:evenodd;stroke:#000000;stroke-width:2.0px;stroke-linecap:butt;stroke-linejoin:miter;stroke-opacity:1"/>
<path class="bond-3 atom-3 atom-4" d="M 488.5,90.7 L 471.3,87.9" style="fill:none;fill-rule:evenodd;stroke:#000000;stroke-width:2.0px;stroke-linecap:butt;stroke-linejoin:miter;stroke-opacity:1"/>
<path class="bond-4 atom-4 atom-5" d="M 471.3,87.9 L 465.1,71.5" style="fill:none;fill-rule:evenodd;stroke:#000000;stroke-width:2.0px;stroke-linecap:butt;stroke-linejoin:miter;stroke-opacity:1"/>
<path class="bond-4 atom-4 atom-5" d="M 468.3,87.4 L 463.2,73.8" style="fill:none;fill-rule:evenodd;stroke:#000000;stroke-width:2.0px;stroke-linecap:butt;stroke-linejoin:miter;stroke-opacity:1"/>
<path class="bond-5 atom-5 atom-6" d="M 465.1,71.5 L 447.8,68.7" style="fill:none;fill-rule:evenodd;stroke:#000000;stroke-width:2.0px;stroke-linecap:butt;stroke-linejoin:miter;stroke-opacity:1"/>
<path class="bond-6 atom-6 atom-7" d="M 447.8,68.7 L 436.7,82.2" style="fill:none;fill-rule:evenodd;stroke:#000000;stroke-width:2.0px;stroke-linecap:butt;stroke-linejoin:miter;stroke-opacity:1"/>
<path class="bond-6 atom-6 atom-7" d="M 448.9,71.5 L 439.7,82.7" style="fill:none;fill-rule:evenodd;stroke:#000000;stroke-width:2.0px;stroke-linecap:butt;stroke-linejoin:miter;stroke-opacity:1"/>
<path class="bond-7 atom-7 atom-8" d="M 436.7,82.2 L 442.9,98.6" style="fill:none;fill-rule:evenodd;stroke:#000000;stroke-width:2.0px;stroke-linecap:butt;stroke-linejoin:miter;stroke-opacity:1"/>
<path class="bond-8 atom-8 atom-9" d="M 442.9,98.6 L 460.2,101.4" style="fill:none;fill-rule:evenodd;stroke:#000000;stroke-width:2.0px;stroke-linecap:butt;stroke-linejoin:miter;stroke-opacity:1"/>
<path class="bond-8 atom-8 atom-9" d="M 444.8,96.2 L 459.1,98.6" style="fill:none;fill-rule:evenodd;stroke:#000000;stroke-width:2.0px;stroke-linecap:butt;stroke-linejoin:miter;stroke-opacity:1"/>
<path class="bond-9 atom-3 atom-10" d="M 488.5,90.7 L 492.8,85.5" style="fill:none;fill-rule:evenodd;stroke:#000000;stroke-width:2.0px;stroke-linecap:butt;stroke-linejoin:miter;stroke-opacity:1"/>
<path class="bond-9 atom-3 atom-10" d="M 492.8,85.5 L 497.0,80.3" style="fill:none;fill-rule:evenodd;stroke:#FF0000;stroke-width:2.0px;stroke-linecap:butt;stroke-linejoin:miter;stroke-opacity:1"/>
<path class="bond-10 atom-10 atom-11" d="M 502.5,77.6 L 509.7,78.8" style="fill:none;fill-rule:evenodd;stroke:#FF0000;stroke-width:2.0px;stroke-linecap:butt;stroke-linejoin:miter;stroke-opacity:1"/>
<path class="bond-10 atom-10 atom-11" d="M 509.7,78.8 L 516.9,79.9" style="fill:none;fill-rule:evenodd;stroke:#000000;stroke-width:2.0px;stroke-linecap:butt;stroke-linejoin:miter;stroke-opacity:1"/>
<path class="bond-11 atom-11 atom-12" d="M 516.9,79.9 L 528.0,66.4" style="fill:none;fill-rule:evenodd;stroke:#000000;stroke-width:2.0px;stroke-linecap:butt;stroke-linejoin:miter;stroke-opacity:1"/>
<path class="bond-11 atom-11 atom-12" d="M 519.9,80.4 L 529.1,69.2" style="fill:none;fill-rule:evenodd;stroke:#000000;stroke-width:2.0px;stroke-linecap:butt;stroke-linejoin:miter;stroke-opacity:1"/>
<path class="bond-12 atom-12 atom-13" d="M 528.0,66.4 L 545.3,69.2" style="fill:none;fill-rule:evenodd;stroke:#000000;stroke-width:2.0px;stroke-linecap:butt;stroke-linejoin:miter;stroke-opacity:1"/>
<path class="bond-13 atom-13 atom-14" d="M 545.3,69.2 L 549.5,64.0" style="fill:none;fill-rule:evenodd;stroke:#000000;stroke-width:2.0px;stroke-linecap:butt;stroke-linejoin:miter;stroke-opacity:1"/>
<path class="bond-13 atom-13 atom-14" d="M 549.5,64.0 L 553.8,58.8" style="fill:none;fill-rule:evenodd;stroke:#FF0000;stroke-width:2.0px;stroke-linecap:butt;stroke-linejoin:miter;stroke-opacity:1"/>
<path class="bond-14 atom-13 atom-15" d="M 545.3,69.2 L 551.5,85.6" style="fill:none;fill-rule:evenodd;stroke:#000000;stroke-width:2.0px;stroke-linecap:butt;stroke-linejoin:miter;stroke-opacity:1"/>
<path class="bond-14 atom-13 atom-15" d="M 543.4,71.6 L 548.5,85.1" style="fill:none;fill-rule:evenodd;stroke:#000000;stroke-width:2.0px;stroke-linecap:butt;stroke-linejoin:miter;stroke-opacity:1"/>
<path class="bond-15 atom-15 atom-16" d="M 551.5,85.6 L 540.4,99.2" style="fill:none;fill-rule:evenodd;stroke:#000000;stroke-width:2.0px;stroke-linecap:butt;stroke-linejoin:miter;stroke-opacity:1"/>
<path class="bond-16 atom-16 atom-17" d="M 540.4,99.2 L 542.9,105.8" style="fill:none;fill-rule:evenodd;stroke:#000000;stroke-width:2.0px;stroke-linecap:butt;stroke-linejoin:miter;stroke-opacity:1"/>
<path class="bond-16 atom-16 atom-17" d="M 542.9,105.8 L 545.4,112.4" style="fill:none;fill-rule:evenodd;stroke:#FF0000;stroke-width:2.0px;stroke-linecap:butt;stroke-linejoin:miter;stroke-opacity:1"/>
<path class="bond-17 atom-16 atom-18" d="M 540.4,99.2 L 523.1,96.3" style="fill:none;fill-rule:evenodd;stroke:#000000;stroke-width:2.0px;stroke-linecap:butt;stroke-linejoin:miter;stroke-opacity:1"/>
<path class="bond-17 atom-16 atom-18" d="M 539.3,96.3 L 525.0,94.0" style="fill:none;fill-rule:evenodd;stroke:#000000;stroke-width:2.0px;stroke-linecap:butt;stroke-linejoin:miter;stroke-opacity:1"/>
<path class="bond-18 atom-18 atom-1" d="M 523.1,96.3 L 512.0,109.9" style="fill:none;fill-rule:evenodd;stroke:#000000;stroke-width:2.0px;stroke-linecap:butt;stroke-linejoin:miter;stroke-opacity:1"/>
<path class="bond-19 atom-9 atom-4" d="M 460.2,101.4 L 471.3,87.9" style="fill:none;fill-rule:evenodd;stroke:#000000;stroke-width:2.0px;stroke-linecap:butt;stroke-linejoin:miter;stroke-opacity:1"/>
<path class="bond-20 atom-18 atom-11" d="M 523.1,96.3 L 516.9,79.9" style="fill:none;fill-rule:evenodd;stroke:#000000;stroke-width:2.0px;stroke-linecap:butt;stroke-linejoin:miter;stroke-opacity:1"/>
<path d="M 511.2,109.7 L 512.0,109.9 L 512.6,109.2" style="fill:none;stroke:#000000;stroke-width:2.0px;stroke-linecap:butt;stroke-linejoin:miter;stroke-opacity:1;"/>
<path d="M 495.6,107.2 L 494.7,107.1 L 494.4,106.2" style="fill:none;stroke:#000000;stroke-width:2.0px;stroke-linecap:butt;stroke-linejoin:miter;stroke-opacity:1;"/>
<path d="M 465.4,72.3 L 465.1,71.5 L 464.2,71.3" style="fill:none;stroke:#000000;stroke-width:2.0px;stroke-linecap:butt;stroke-linejoin:miter;stroke-opacity:1;"/>
<path d="M 448.7,68.8 L 447.8,68.7 L 447.2,69.3" style="fill:none;stroke:#000000;stroke-width:2.0px;stroke-linecap:butt;stroke-linejoin:miter;stroke-opacity:1;"/>
<path d="M 437.3,81.5 L 436.7,82.2 L 437.0,83.0" style="fill:none;stroke:#000000;stroke-width:2.0px;stroke-linecap:butt;stroke-linejoin:miter;stroke-opacity:1;"/>
<path d="M 442.6,97.8 L 442.9,98.6 L 443.8,98.7" style="fill:none;stroke:#000000;stroke-width:2.0px;stroke-linecap:butt;stroke-linejoin:miter;stroke-opacity:1;"/>
<path d="M 459.3,101.3 L 460.2,101.4 L 460.7,100.7" style="fill:none;stroke:#000000;stroke-width:2.0px;stroke-linecap:butt;stroke-linejoin:miter;stroke-opacity:1;"/>
<path d="M 527.4,67.1 L 528.0,66.4 L 528.9,66.5" style="fill:none;stroke:#000000;stroke-width:2.0px;stroke-linecap:butt;stroke-linejoin:miter;stroke-opacity:1;"/>
<path d="M 551.2,84.8 L 551.5,85.6 L 550.9,86.3" style="fill:none;stroke:#000000;stroke-width:2.0px;stroke-linecap:butt;stroke-linejoin:miter;stroke-opacity:1;"/>
<path class="atom-0" d="M 515.9 126.3 Q 515.9 125.1, 516.5 124.4 Q 517.1 123.8, 518.2 123.8 Q 519.3 123.8, 519.9 124.4 Q 520.5 125.1, 520.5 126.3 Q 520.5 127.5, 519.9 128.2 Q 519.3 128.8, 518.2 128.8 Q 517.1 128.8, 516.5 128.2 Q 515.9 127.5, 515.9 126.3 M 518.2 128.3 Q 519.0 128.3, 519.4 127.8 Q 519.8 127.3, 519.8 126.3 Q 519.8 125.3, 519.4 124.8 Q 519.0 124.3, 518.2 124.3 Q 517.5 124.3, 517.0 124.8 Q 516.6 125.3, 516.6 126.3 Q 516.6 127.3, 517.0 127.8 Q 517.5 128.3, 518.2 128.3 " fill="#FF0000"/>
<path class="atom-10" d="M 497.4 77.1 Q 497.4 75.9, 497.9 75.3 Q 498.5 74.6, 499.6 74.6 Q 500.7 74.6, 501.3 75.3 Q 501.9 75.9, 501.9 77.1 Q 501.9 78.3, 501.3 79.0 Q 500.7 79.7, 499.6 79.7 Q 498.5 79.7, 497.9 79.0 Q 497.4 78.3, 497.4 77.1 M 499.6 79.1 Q 500.4 79.1, 500.8 78.6 Q 501.2 78.1, 501.2 77.1 Q 501.2 76.2, 500.8 75.7 Q 500.4 75.2, 499.6 75.2 Q 498.9 75.2, 498.5 75.7 Q 498.1 76.2, 498.1 77.1 Q 498.1 78.1, 498.5 78.6 Q 498.9 79.1, 499.6 79.1 " fill="#FF0000"/>
<path class="atom-14" d="M 554.1 55.7 Q 554.1 54.5, 554.7 53.8 Q 555.3 53.2, 556.4 53.2 Q 557.5 53.2, 558.1 53.8 Q 558.6 54.5, 558.6 55.7 Q 558.6 56.9, 558.0 57.6 Q 557.5 58.2, 556.4 58.2 Q 555.3 58.2, 554.7 57.6 Q 554.1 56.9, 554.1 55.7 M 556.4 57.7 Q 557.1 57.7, 557.5 57.2 Q 557.9 56.7, 557.9 55.7 Q 557.9 54.7, 557.5 54.2 Q 557.1 53.7, 556.4 53.7 Q 555.6 53.7, 555.2 54.2 Q 554.8 54.7, 554.8 55.7 Q 554.8 56.7, 555.2 57.2 Q 555.6 57.7, 556.4 57.7 " fill="#FF0000"/>
<path class="atom-14" d="M 559.4 53.2 L 560.1 53.2 L 560.1 55.3 L 562.6 55.3 L 562.6 53.2 L 563.3 53.2 L 563.3 58.2 L 562.6 58.2 L 562.6 55.9 L 560.1 55.9 L 560.1 58.2 L 559.4 58.2 L 559.4 53.2 " fill="#FF0000"/>
<path class="atom-17" d="M 544.3 115.5 Q 544.3 114.4, 544.9 113.7 Q 545.5 113.0, 546.6 113.0 Q 547.7 113.0, 548.3 113.7 Q 548.9 114.4, 548.9 115.5 Q 548.9 116.7, 548.3 117.4 Q 547.7 118.1, 546.6 118.1 Q 545.5 118.1, 544.9 117.4 Q 544.3 116.8, 544.3 115.5 M 546.6 117.6 Q 547.3 117.6, 547.7 117.0 Q 548.2 116.5, 548.2 115.5 Q 548.2 114.6, 547.7 114.1 Q 547.3 113.6, 546.6 113.6 Q 545.8 113.6, 545.4 114.1 Q 545.0 114.6, 545.0 115.5 Q 545.0 116.5, 545.4 117.0 Q 545.8 117.6, 546.6 117.6 " fill="#FF0000"/>
<path class="atom-17" d="M 549.6 113.1 L 550.3 113.1 L 550.3 115.2 L 552.8 115.2 L 552.8 113.1 L 553.5 113.1 L 553.5 118.0 L 552.8 118.0 L 552.8 115.7 L 550.3 115.7 L 550.3 118.0 L 549.6 118.0 L 549.6 113.1 " fill="#FF0000"/>
<path class="legend" d="M 495.6 184.2 Q 495.6 181.4, 496.9 179.9 Q 498.3 178.4, 500.8 178.4 Q 503.1 178.4, 504.4 180.0 L 503.3 180.9 Q 502.4 179.7, 500.8 179.7 Q 499.1 179.7, 498.2 180.9 Q 497.3 182.0, 497.3 184.2 Q 497.3 186.4, 498.2 187.6 Q 499.1 188.7, 501.0 188.7 Q 502.2 188.7, 503.7 188.0 L 504.1 189.2 Q 503.5 189.6, 502.6 189.8 Q 501.7 190.0, 500.7 190.0 Q 498.3 190.0, 496.9 188.5 Q 495.6 187.0, 495.6 184.2 " fill="#000000"/>
<path class="bond-0 atom-0 atom-1" d="M 669.7,95.4 L 684.8,86.6" style="fill:none;fill-rule:evenodd;stroke:#000000;stroke-width:2.0px;stroke-linecap:butt;stroke-linejoin:miter;stroke-opacity:1"/>
<path class="bond-1 atom-1 atom-2" d="M 684.8,86.6 L 700.0,95.4" style="fill:none;fill-rule:evenodd;stroke:#000000;stroke-width:2.0px;stroke-linecap:butt;stroke-linejoin:miter;stroke-opacity:1"/>
<path class="bond-2 atom-2 atom-3" d="M 700.0,95.4 L 715.2,86.6" style="fill:none;fill-rule:evenodd;stroke:#000000;stroke-width:2.0px;stroke-linecap:butt;stroke-linejoin:miter;stroke-opacity:1"/>
<path class="bond-3 atom-3 atom-4" d="M 715.2,86.6 L 730.3,95.4" style="fill:none;fill-rule:evenodd;stroke:#000000;stroke-width:2.0px;stroke-linecap:butt;stroke-linejoin:miter;stroke-opacity:1"/>
<path d="M 684.1,87.1 L 684.8,86.6 L 685.6,87.1" style="fill:none;stroke:#000000;stroke-width:2.0px;stroke-linecap:butt;stroke-linejoin:miter;stroke-opacity:1;"/>
<path d="M 699.2,94.9 L 700.0,95.4 L 700.8,94.9" style="fill:none;stroke:#000000;stroke-width:2.0px;stroke-linecap:butt;stroke-linejoin:miter;stroke-opacity:1;"/>
<path d="M 714.4,87.1 L 715.2,86.6 L 715.9,87.1" style="fill:none;stroke:#000000;stroke-width:2.0px;stroke-linecap:butt;stroke-linejoin:miter;stroke-opacity:1;"/>
<path class="legend" d="M 699.2 178.7 Q 701.7 178.7, 703.1 180.2 Q 704.4 181.6, 704.4 184.3 Q 704.4 187.0, 703.1 188.5 Q 701.7 190.0, 699.2 190.0 L 695.6 190.0 L 695.6 178.7 L 699.2 178.7 M 699.2 188.7 Q 701.0 188.7, 701.9 187.6 Q 702.8 186.5, 702.8 184.3 Q 702.8 182.1, 701.9 181.0 Q 701.0 180.0, 699.2 180.0 L 697.1 180.0 L 697.1 188.7 L 699.2 188.7 " fill="#000000"/>
<path class="bond-0 atom-0 atom-1" d="M 70.0,297.7 L 86.2,291.2" style="fill:none;fill-rule:evenodd;stroke:#000000;stroke-width:2.0px;stroke-linecap:butt;stroke-linejoin:miter;stroke-opacity:1"/>
<path class="bond-1 atom-1 atom-2" d="M 86.2,291.2 L 100.0,302.0" style="fill:none;fill-rule:evenodd;stroke:#000000;stroke-width:2.0px;stroke-linecap:butt;stroke-linejoin:miter;stroke-opacity:1"/>
<path class="bond-2 atom-2 atom-3" d="M 100.0,302.0 L 116.3,295.5" style="fill:none;fill-rule:evenodd;stroke:#000000;stroke-width:2.0px;stroke-linecap:butt;stroke-linejoin:miter;stroke-opacity:1"/>
<path class="bond-3 atom-3 atom-4" d="M 116.3,295.5 L 130.0,306.3" style="fill:none;fill-rule:evenodd;stroke:#000000;stroke-width:2.0px;stroke-linecap:butt;stroke-linejoin:miter;stroke-opacity:1"/>
<path class="bond-4 atom-3 atom-5" d="M 116.3,295.5 L 117.3,288.4" style="fill:none;fill-rule:evenodd;stroke:#000000;stroke-width:2.0px;stroke-linecap:butt;stroke-linejoin:miter;stroke-opacity:1"/>
<path class="bond-4 atom-3 atom-5" d="M 117.3,288.4 L 118.3,281.3" style="fill:none;fill-rule:evenodd;stroke:#FF0000;stroke-width:2.0px;stroke-linecap:butt;stroke-linejoin:miter;stroke-opacity:1"/>
<path d="M 85.4,291.5 L 86.2,291.2 L 86.9,291.8" style="fill:none;stroke:#000000;stroke-width:2.0px;stroke-linecap:butt;stroke-linejoin:miter;stroke-opacity:1;"/>
<path d="M 99.3,301.5 L 100.0,302.0 L 100.8,301.7" style="fill:none;stroke:#000000;stroke-width:2.0px;stroke-linecap:butt;stroke-linejoin:miter;stroke-opacity:1;"/>
<path class="atom-5" d="M 116.5 278.2 Q 116.5 277.0, 117.0 276.3 Q 117.6 275.7, 118.7 275.7 Q 119.8 275.7, 120.4 276.3 Q 121.0 277.0, 121.0 278.2 Q 121.0 279.4, 120.4 280.1 Q 119.8 280.8, 118.7 280.8 Q 117.6 280.8, 117.0 280.1 Q 116.5 279.4, 116.5 278.2 M 118.7 280.2 Q 119.5 280.2, 119.9 279.7 Q 120.3 279.2, 120.3 278.2 Q 120.3 277.2, 119.9 276.7 Q 119.5 276.2, 118.7 276.2 Q 118.0 276.2, 117.6 276.7 Q 117.2 277.2, 117.2 278.2 Q 117.2 279.2, 117.6 279.7 Q 118.0 280.2, 118.7 280.2 " fill="#FF0000"/>
<path class="atom-5" d="M 121.8 275.7 L 122.5 275.7 L 122.5 277.8 L 125.0 277.8 L 125.0 275.7 L 125.7 275.7 L 125.7 280.7 L 125.0 280.7 L 125.0 278.4 L 122.5 278.4 L 122.5 280.7 L 121.8 280.7 L 121.8 275.7 " fill="#FF0000"/>
<path class="legend" d="M 96.5 378.7 L 103.3 378.7 L 103.3 380.0 L 98.1 380.0 L 98.1 383.4 L 102.8 383.4 L 102.8 384.7 L 98.1 384.7 L 98.1 388.7 L 103.5 388.7 L 103.5 390.0 L 96.5 390.0 L 96.5 378.7 " fill="#000000"/>
<path class="bond-0 atom-0 atom-1" d="M 210.0,288.4 L 226.0,281.2" style="fill:none;fill-rule:evenodd;stroke:#000000;stroke-width:2.0px;stroke-linecap:butt;stroke-linejoin:miter;stroke-opacity:1"/>
<path class="bond-1 atom-1 atom-2" d="M 226.0,281.2 L 240.2,291.5" style="fill:none;fill-rule:evenodd;stroke:#000000;stroke-width:2.0px;stroke-linecap:butt;stroke-linejoin:miter;stroke-opacity:1"/>
<path class="bond-2 atom-2 atom-3" d="M 240.2,291.5 L 256.2,284.3" style="fill:none;fill-rule:evenodd;stroke:#000000;stroke-width:2.0px;stroke-linecap:butt;stroke-linejoin:miter;stroke-opacity:1"/>
<path class="bond-3 atom-3 atom-4" d="M 256.2,284.3 L 270.3,294.6" style="fill:none;fill-rule:evenodd;stroke:#000000;stroke-width:2.0px;stroke-linecap:butt;stroke-linejoin:miter;stroke-opacity:1"/>
<path class="bond-4 atom-4 atom-5" d="M 270.3,294.6 L 286.3,287.4" style="fill:none;fill-rule:evenodd;stroke:#000000;stroke-width:2.0px;stroke-linecap:butt;stroke-linejoin:miter;stroke-opacity:1"/>
<path class="bond-5 atom-5 atom-6" d="M 286.3,287.4 L 300.5,297.7" style="fill:none;fill-rule:evenodd;stroke:#000000;stroke-width:2.0px;stroke-linecap:butt;stroke-linejoin:miter;stroke-opacity:1"/>
<path class="bond-6 atom-6 atom-7" d="M 300.5,297.7 L 316.5,290.5" style="fill:none;fill-rule:evenodd;stroke:#000000;stroke-width:2.0px;stroke-linecap:butt;stroke-linejoin:miter;stroke-opacity:1"/>
<path class="bond-7 atom-7 atom-8" d="M 316.5,290.5 L 318.3,273.1" style="fill:none;fill-rule:evenodd;stroke:#000000;stroke-width:2.0px;stroke-linecap:butt;stroke-linejoin:miter;stroke-opacity:1"/>
<path class="bond-8 atom-8 atom-9" d="M 318.3,273.1 L 304.1,262.8" style="fill:none;fill-rule:evenodd;stroke:#000000;stroke-width:2.0px;stroke-linecap:butt;stroke-linejoin:miter;stroke-opacity:1"/>
<path class="bond-9 atom-7 atom-10" d="M 316.5,290.5 L 330.7,300.8" style="fill:none;fill-rule:evenodd;stroke:#000000;stroke-width:2.0px;stroke-linecap:butt;stroke-linejoin:miter;stroke-opacity:1"/>
<path class="bond-10 atom-10 atom-11" d="M 330.7,300.8 L 318.1,313.0" style="fill:none;fill-rule:evenodd;stroke:#000000;stroke-width:2.0px;stroke-linecap:butt;stroke-linejoin:miter;stroke-opacity:1"/>
<path class="bond-11 atom-10 atom-12" d="M 330.7,300.8 L 338.3,285.0" style="fill:none;fill-rule:evenodd;stroke:#000000;stroke-width:2.0px;stroke-linecap:butt;stroke-linejoin:miter;stroke-opacity:1"/>
<path class="bond-12 atom-12 atom-13" d="M 338.3,285.0 L 355.8,283.8" style="fill:none;fill-rule:evenodd;stroke:#000000;stroke-width:2.0px;stroke-linecap:butt;stroke-linejoin:miter;stroke-opacity:1"/>
<path class="bond-13 atom-13 atom-14" d="M 355.8,283.8 L 365.6,298.3" style="fill:none;fill-rule:evenodd;stroke:#000000;stroke-width:2.0px;stroke-linecap:butt;stroke-linejoin:miter;stroke-opacity:1"/>
<path class="bond-14 atom-14 atom-15" d="M 365.6,298.3 L 372.9,297.7" style="fill:none;fill-rule:evenodd;stroke:#000000;stroke-width:2.0px;stroke-linecap:butt;stroke-linejoin:miter;stroke-opacity:1"/>
<path class="bond-14 atom-14 atom-15" d="M 372.9,297.7 L 380.2,297.2" style="fill:none;fill-rule:evenodd;stroke:#FF0000;stroke-width:2.0px;stroke-linecap:butt;stroke-linejoin:miter;stroke-opacity:1"/>
<path class="bond-15 atom-14 atom-16" d="M 365.6,298.3 L 358.0,314.0" style="fill:none;fill-rule:evenodd;stroke:#000000;stroke-width:2.0px;stroke-linecap:butt;stroke-linejoin:miter;stroke-opacity:1"/>
<path class="bond-16 atom-16 atom-17" d="M 358.0,314.0 L 340.5,315.3" style="fill:none;fill-rule:evenodd;stroke:#000000;stroke-width:2.0px;stroke-linecap:butt;stroke-linejoin:miter;stroke-opacity:1"/>
<path class="bond-17 atom-2 atom-18" d="M 240.2,291.5 L 238.4,308.9" style="fill:none;fill-rule:evenodd;stroke:#000000;stroke-width:2.0px;stroke-linecap:butt;stroke-linejoin:miter;stroke-opacity:1"/>
<path class="bond-18 atom-18 atom-19" d="M 238.4,308.9 L 222.4,316.0" style="fill:none;fill-rule:evenodd;stroke:#000000;stroke-width:2.0px;stroke-linecap:butt;stroke-linejoin:miter;stroke-opacity:1"/>
<path class="bond-19 atom-18 atom-20" d="M 238.4,308.9 L 252.6,319.2" style="fill:none;fill-rule:evenodd;stroke:#000000;stroke-width:2.0px;stroke-linecap:butt;stroke-linejoin:miter;stroke-opacity:1"/>
<path class="bond-20 atom-17 atom-10" d="M 340.5,315.3 L 330.7,300.8" style="fill:none;fill-rule:evenodd;stroke:#000000;stroke-width:2.0px;stroke-linecap:butt;stroke-linejoin:miter;stroke-opacity:1"/>
<path d="M 225.2,281.6 L 226.0,281.2 L 226.7,281.7" style="fill:none;stroke:#000000;stroke-width:2.0px;stroke-linecap:butt;stroke-linejoin:miter;stroke-opacity:1;"/>
<path d="M 255.4,284.7 L 256.2,284.3 L 256.9,284.8" style="fill:none;stroke:#000000;stroke-width:2.0px;stroke-linecap:butt;stroke-linejoin:miter;stroke-opacity:1;"/>
<path d="M 269.6,294.1 L 270.3,294.6 L 271.1,294.2" style="fill:none;stroke:#000000;stroke-width:2.0px;stroke-linecap:butt;stroke-linejoin:miter;stroke-opacity:1;"/>
<path d="M 285.5,287.8 L 286.3,287.4 L 287.0,287.9" style="fill:none;stroke:#000000;stroke-width:2.0px;stroke-linecap:butt;stroke-linejoin:miter;stroke-opacity:1;"/>
<path d="M 299.8,297.2 L 300.5,297.7 L 301.3,297.3" style="fill:none;stroke:#000000;stroke-width:2.0px;stroke-linecap:butt;stroke-linejoin:miter;stroke-opacity:1;"/>
<path d="M 318.2,274.0 L 318.3,273.1 L 317.6,272.6" style="fill:none;stroke:#000000;stroke-width:2.0px;stroke-linecap:butt;stroke-linejoin:miter;stroke-opacity:1;"/>
<path d="M 337.9,285.8 L 338.3,285.0 L 339.2,285.0" style="fill:none;stroke:#000000;stroke-width:2.0px;stroke-linecap:butt;stroke-linejoin:miter;stroke-opacity:1;"/>
<path d="M 354.9,283.8 L 355.8,283.8 L 356.3,284.5" style="fill:none;stroke:#000000;stroke-width:2.0px;stroke-linecap:butt;stroke-linejoin:miter;stroke-opacity:1;"/>
<path d="M 358.3,313.2 L 358.0,314.0 L 357.1,314.1" style="fill:none;stroke:#000000;stroke-width:2.0px;stroke-linecap:butt;stroke-linejoin:miter;stroke-opacity:1;"/>
<path d="M 341.4,315.2 L 340.5,315.3 L 340.0,314.6" style="fill:none;stroke:#000000;stroke-width:2.0px;stroke-linecap:butt;stroke-linejoin:miter;stroke-opacity:1;"/>
<path class="atom-15" d="M 380.8 297.0 Q 380.8 295.8, 381.4 295.2 Q 382.0 294.5, 383.1 294.5 Q 384.2 294.5, 384.8 295.2 Q 385.3 295.8, 385.3 297.0 Q 385.3 298.2, 384.8 298.9 Q 384.2 299.6, 383.1 299.6 Q 382.0 299.6, 381.4 298.9 Q 380.8 298.2, 380.8 297.0 M 383.1 299.0 Q 383.8 299.0, 384.2 298.5 Q 384.6 298.0, 384.6 297.0 Q 384.6 296.1, 384.2 295.6 Q 383.8 295.1, 383.1 295.1 Q 382.3 295.1, 381.9 295.6 Q 381.5 296.0, 381.5 297.0 Q 381.5 298.0, 381.9 298.5 Q 382.3 299.0, 383.1 299.0 " fill="#FF0000"/>
<path class="atom-15" d="M 386.1 294.6 L 386.8 294.6 L 386.8 296.7 L 389.3 296.7 L 389.3 294.6 L 390.0 294.6 L 390.0 299.5 L 389.3 299.5 L 389.3 297.2 L 386.8 297.2 L 386.8 299.5 L 386.1 299.5 L 386.1 294.6 " fill="#FF0000"/>
<path class="legend" d="M 296.6 378.7 L 303.4 378.7 L 303.4 380.0 L 298.2 380.0 L 298.2 383.4 L 302.8 383.4 L 302.8 384.7 L 298.2 384.7 L 298.2 390.0 L 296.6 390.0 L 296.6 378.7 " fill="#000000"/>
</svg>