<?xml version="1.0" encoding="utf-8"?>
<!-- Generator: Adobe Illustrator 24.2.0, SVG Export Plug-In . SVG Version: 6.00 Build 0)  -->
<svg version="1.1" id="Layer_1" xmlns="http://www.w3.org/2000/svg" xmlns:xlink="http://www.w3.org/1999/xlink" x="0px" y="0px"
	 viewBox="0 0 542 491" enable-background="new 0 0 542 491" xml:space="preserve">
<g>
	<path fill="#F47322" d="M245.3,1.22c10.74,24.86,20.85,50,31.38,74.95c0.17-0.02,0.5-0.07,0.66-0.09
		c10.54-24.9,20.37-50.12,31.15-74.91c0.04,27.36-0.04,54.73,0.04,82.09c18.58-18.19,36.62-36.91,55.07-55.23
		c0.99-0.97,2.03-1.9,3.1-2.78c-10.36,25.32-20.77,50.64-31.3,75.9c25.31-10.48,50.53-21.19,75.9-31.48
		c-9.48,9.85-19.34,19.34-28.91,29.1c-9.31,9.98-19.47,19.15-28.69,29.2c10.11,0,20.23,0.2,30.33-0.22
		c17.17,0.01,34.33-0.04,51.5,0.03c-25.07,10.9-50.49,21.03-75.66,31.72c21.31,8.85,42.67,17.59,63.99,26.41
		c3.84,1.64,7.83,2.97,11.48,5.04c-27.23,0.16-54.47-0.08-81.71,0.12c6.43,6.84,13.18,13.39,19.96,19.87
		c12.71,12.82,25.61,25.44,38.21,38.36c-25.37-10.32-50.62-20.94-76-31.22c10.29,25.28,21.09,50.35,31.31,75.66
		c-19.68-18.97-38.54-38.79-58.33-57.65c0.49,22.45,0.09,44.93,0.22,67.39c-0.05,4.79,0.14,9.59-0.16,14.38
		c-10.66-25.1-20.94-50.37-31.55-75.5c-10.57,25.11-20.52,50.49-31.37,75.48c-0.4-27.28-0.05-54.58-0.17-81.86
		c-19.3,19.28-38.33,38.87-57.95,57.83c10.05-25.28,20.69-50.33,30.97-75.51c-25.39,10.21-50.48,21.17-75.88,31.34
		c19.06-19.67,38.95-38.54,57.84-58.37c-27.3,0.31-54.62,0.34-81.93,0.11c25.1-10.62,50.3-21.01,75.48-31.46
		c-20.95-9.19-42.3-17.5-63.39-26.37c-3.85-1.68-7.9-2.94-11.53-5.09c27.12-0.5,54.26-0.05,81.39-0.22
		c-19.08-19.56-38.95-38.33-57.96-57.96c1.11,0.34,2.21,0.72,3.29,1.13c24.17,9.93,48.29,19.96,72.48,29.83
		c-10.44-25.31-21.07-50.53-31.49-75.83c12.77,12.21,24.99,25.01,37.64,37.35c7.09,6.67,13.76,13.78,20.77,20.53
		C245.66,55.93,244.98,28.58,245.3,1.22z"/>
	<path fill="#F47322" d="M273.51,14.23c5.89-2.64,13.04,2.97,11.66,9.32c-0.74,6.43-9.57,9.34-14.13,4.88
		C266.49,24.52,267.84,16.33,273.51,14.23z"/>
	<path fill="#F47322" d="M221.13,24.76c4.79-1.93,10.94,1.56,11.34,6.81c0.76,4.29-2.29,8.68-6.55,9.51
		c-4.46,1.13-9.44-2.1-10.17-6.65C214.8,30.47,217.33,26.12,221.13,24.76z"/>
	<path fill="#F47322" d="M325.38,25.04c5.72-3.58,13.85,1.9,12.57,8.55c-0.45,6.34-8.94,9.79-13.68,5.56
		C319.5,35.77,320.13,27.62,325.38,25.04z"/>
	<path fill="#F47322" d="M176.5,54.21c6.05-3.77,14.5,2.42,12.47,9.32c-1.03,6.32-9.87,8.76-14.19,4.19
		C170.7,64.11,171.62,56.68,176.5,54.21z"/>
	<path fill="#F47322" d="M371.54,54.18c5.78-2.22,12.39,3.37,11.13,9.44c-0.64,6.38-9.28,9.44-13.95,5.14
		C363.71,64.85,365.46,55.98,371.54,54.18z"/>
	<path fill="#F47322" d="M147.46,98.1c6.21-2.64,13.43,3.94,11.18,10.35c-1.37,6.14-10.06,8.2-14.23,3.63
		C140.02,108.05,141.9,100.02,147.46,98.1z"/>
	<path fill="#F47322" d="M402.08,98.7c6.26-1.89,12.56,4.9,10.16,10.98c-1.74,6.1-10.54,7.79-14.5,2.9
		C393.66,108.11,396.04,99.9,402.08,98.7z"/>
	<path fill="#F47322" d="M137.13,150.61c5.52-1.99,11.83,3.16,10.89,8.97c-0.14,6.57-9.03,10.13-13.81,5.75
		C129.06,161.44,130.79,152.17,137.13,150.61z"/>
	<path fill="#F47322" d="M412.15,151.56c6.34-2.32,13.13,4.64,10.57,10.91c-1.82,6.33-11.31,7.74-14.91,2.26
		C404.39,160.31,406.67,152.99,412.15,151.56z"/>
	<path fill="#F47322" d="M146.24,203.79c5.68-2.94,12.99,2.38,12.01,8.67c-0.28,6.25-8.31,9.78-13.26,6.12
		C139.52,215.27,140.36,206.17,146.24,203.79z"/>
	<path fill="#F47322" d="M399.56,205.23c5.29-3.67,13.54,0.65,13.07,7.22c0.4,6.47-7.62,10.7-12.91,7.24
		C394.43,216.78,394.39,208.3,399.56,205.23z"/>
	<path fill="#F47322" d="M175.37,248.91c5.79-3.42,13.8,2.04,12.5,8.7c-0.62,6.22-8.69,9.49-13.54,5.64
		C169.42,259.87,170,251.55,175.37,248.91z"/>
	<path fill="#F47322" d="M371.31,249.09c6.02-2.59,13.08,3.76,11.18,10.01c-1.19,6.2-9.82,8.61-14.16,4.15
		C363.76,259.3,365.5,250.83,371.31,249.09z"/>
	<path fill="#F47322" d="M219.49,279.23c5.01-3.31,12.59,0.23,12.98,6.3c0.97,6.15-5.92,11.41-11.59,8.88
		C214.48,292.33,213.63,282.46,219.49,279.23z"/>
	<path fill="#F47322" d="M327.12,278.65c5.9-1.98,12.3,4.06,10.63,10.06c-1.02,6.31-9.86,8.85-14.19,4.25
		C318.83,288.87,320.94,280.01,327.12,278.65z"/>
	<path fill="#F47322" d="M274.32,288.98c6.37-2.13,12.98,4.86,10.37,11.08c-1.86,6.1-10.83,7.56-14.62,2.51
		C266.22,298.15,268.62,290.4,274.32,288.98z"/>
	<path fill="#F47322" d="M204.72,346.07c6.18-0.12,12.37-0.1,18.55-0.02c-0.05,26.31-0.01,52.63-0.02,78.94
		c-6.17,0.01-12.33,0.01-18.5,0.01C204.73,398.69,204.79,372.38,204.72,346.07z"/>
	<path fill="#F47322" d="M449.72,346.06c6.83-0.12,13.67-0.05,20.5-0.05c8.03,15.04,16.14,30.04,24.12,45.1
		c0.59,0.85,0.92,2.11,2.05,2.41c8.38-15.81,16.48-31.78,24.87-47.59c6.91,0.13,13.83,0.05,20.74,0.06V425c-6.17,0-12.33,0-18.5,0
		c0.02-14.87-0.05-29.74,0.04-44.61c-8.26,14.82-16.31,29.75-24.53,44.58c-1.78,0.03-3.55,0.06-5.31,0.11
		c-8.63-14.91-16.82-30.07-25.46-44.96c0.01,14.96,0.01,29.92,0.01,44.88c-6.17,0-12.33,0-18.5,0
		C449.73,398.68,449.79,372.37,449.72,346.06z"/>
	<g>
		<path fill="#F47322" d="M10.5,377.5c0.02-10.51-0.03-21.01,0.02-31.51c18.83,0.05,37.65-0.05,56.47,0.04
			c17.83,0.46,33.98,14.72,36.83,32.29c2.73,13.97-2.9,29.15-14.08,37.96c-6.95,5.63-15.84,8.65-24.77,8.72
			c-18.15,0.01-36.31-0.01-54.46,0c-0.02-10.58,0-21.16-0.01-31.75c-3.5,0-7,0-10.5,0V377.5C3.5,377.5,7,377.5,10.5,377.5z
			 M29.24,361.28c0.02,5.4,0.02,10.8,0,16.2c8.58,0.04,17.17,0.01,25.76,0.02c-0.01,5.26,0.03,10.52-0.04,15.78
			c-8.58-0.05-17.15-0.05-25.73,0c0.03,5.48,0.03,10.96,0,16.44c10.9,0.03,21.81,0.08,32.7-0.02c9.55-0.07,18.67-6.2,22.2-15.08
			c2.43-5.75,2.48-12.42,0.06-18.18c-3.5-8.86-12.61-15.22-22.18-15.19C51.09,361.26,40.16,361.22,29.24,361.28z"/>
	</g>
	<path fill="#F47322" d="M139.12,346.32c7.63-0.77,15.44-0.09,23.14-0.33c7.61,15.8,15.31,31.55,22.95,47.33
		c-6.77-4.58-15.19-3.71-22.94-3.87c-3.93-7.81-7.32-15.9-11.66-23.48c-4.37,9-8.78,17.98-13.07,27.02
		c10.18,0.02,20.36,0.04,30.53-0.09c7.57,0.35,16.3,2.05,20.95,8.64c4.13,7.55,7.58,15.47,11.41,23.18
		c-6.93,0.09-13.86-0.06-20.78,0.1c-2.91-4.9-4.83-10.31-7.72-15.2c-7.77-1.12-15.99,0.36-23.87-0.73
		c-6.16-1.04-10.59-6.11-12.67-11.74c-4.36,9.24-8.84,18.43-13.38,27.59c-6.98,0-13.97,0.06-20.96-0.05
		C113.74,398.57,126.4,372.43,139.12,346.32z"/>
	<path fill="#F47322" d="M258,346c6.67,0.04,13.35-0.08,20.02,0.03c2.76-0.04,4.22,2.63,5.85,4.42
		c14.42,17.18,28.74,34.45,43.3,51.51c0.24-18.67-0.1-37.35,0.17-56.02c6.15,0.14,12.3-0.02,18.45,0.11
		c-0.05,26.29-0.08,52.59,0.01,78.88c-6.61,0.1-13.22,0.11-19.82,0.04c-3.73,0.22-5.55-3.43-7.67-5.81
		c-13.94-16.85-27.78-33.8-41.84-50.55c0.07,18.8,0.01,37.59,0.03,56.38c-6.17,0.02-12.33,0.01-18.5,0.01
		C258,398.67,258,372.33,258,346z"/>
	<path fill="#F47322" d="M386.06,346.02c7.69-0.05,15.39-0.01,23.08-0.02c12.7,26.26,25.54,52.45,38.17,78.74
		c-6.92,0.07-13.84-0.09-20.76,0.09c-4.88-9.02-8.88-18.49-13.69-27.55c-2.12,6.41-7.93,11.7-14.86,11.92
		c-7.12,0.11-14.24,0.08-21.35-0.02c-2.76,5.08-5.13,10.36-7.65,15.56c-7.03-0.01-14.05,0.07-21.08-0.04
		c3.72-7.42,7.16-14.97,10.94-22.35c4.57-7.42,14.05-9.19,22.12-9.47c9.95,0.2,19.91,0.09,29.86,0.12
		c-4.36-9.11-8.63-18.27-13.32-27.22c-3.7,7.97-7.68,15.81-11.44,23.75c-7.69-0.07-15.91-0.61-22.76,3.58
		C370.81,377.37,378.63,361.79,386.06,346.02z"/>
	<path fill="#F47322" d="M142.25,424.75c5.32-0.01,10.64,0.01,15.96-0.02c0.07,5.34,0.04,10.68,0.03,16.02
		c-5.34-0.01-10.68,0.04-16.01-0.04C142.27,435.38,142.24,430.07,142.25,424.75z"/>
</g>
<g>
	<path d="M63.04,464.7c2.16,0.03,4.32,0.06,6.48,0.1c0.07,5.56-0.27,11.15,0.15,16.71c-0.47,6.55,11.4,7.31,11.91,0.85
		c0.47-5.87-0.03-11.77,0.26-17.65c2.11,0,4.22,0.01,6.34,0.03c0.13,6.89,0.11,13.8-0.31,20.68c-0.72,3.76-4.93,4.79-7.95,6.08H73.8
		c-4.34-0.26-9.71-2.19-10.43-7.1C62.57,477.87,63.15,471.26,63.04,464.7z"/>
	<path d="M113.04,464.73c1.94-0.01,3.89-0.01,5.83-0.03c4,5.55,7.51,11.44,11.68,16.87c-0.04-5.63-0.16-11.26,0.06-16.88
		c1.77,0.01,3.55,0.02,5.33,0.03c0.13,8.75,0.02,17.51,0.07,26.26c-2.01,0.01-4.01,0-6.02,0.01c-3.71-5.28-7.05-10.84-11.07-15.89
		c-0.37,5.33,0.03,10.69-0.33,16.03c-1.86-0.08-3.73-0.14-5.59-0.19C113.02,482.2,112.95,473.47,113.04,464.73z"/>
	<path d="M160.58,464.71c2.12,0.01,4.25,0.02,6.38,0.02c0.09,8.75,0.02,17.5,0.04,26.26c-2.16,0.01-4.32,0-6.48,0.02
		C160.52,482.24,160.41,473.47,160.58,464.71z"/>
	<path d="M190.13,464.8c2.25-0.05,4.5-0.05,6.75-0.08c2.64,6.16,4.54,12.64,7.54,18.65c2.19-6.25,4.59-12.41,6.88-18.62
		c2.2,0,4.41,0,6.61,0.01c-3.49,8.78-7.03,17.54-10.64,26.28c-2.15-0.03-4.3-0.03-6.45-0.03
		C197.14,482.32,193.77,473.51,190.13,464.8z"/>
	<path d="M241.1,464.67c7.2,0.14,14.41,0.06,21.62,0.07c0.03,1.57,0.06,3.14,0.08,4.72c-5.22,0.06-10.44,0.02-15.66,0.08
		c0.1,1.85,0.2,3.7,0.3,5.55c4.75-0.11,9.5-0.11,14.25-0.11c0.04,1.49,0.08,2.98,0.13,4.48c-4.81,0.04-9.61,0.04-14.4,0.06
		c-0.19,2.31-0.43,4.61-0.81,6.9c5.15,0.08,10.31-0.08,15.46,0.01c2.74-0.03,1.46,3.39,1.65,5.07h-0.36
		c0.04-0.16,0.12-0.48,0.16-0.64c-7.51,0.27-15.02,0.11-22.52,0.12C241.05,482.21,240.89,473.44,241.1,464.67z"/>
	<g>
		<path d="M286.82,464.72c6.04,0.28,12.16-0.52,18.15,0.53c4.81,0.68,6.97,6.94,4.44,10.82c-1.18,1.96-3.51,2.59-5.43,3.55
			c3.58,3.25,6.27,7.31,8.82,11.39c-2.5,0-5-0.04-7.49-0.14c-2.29-3.26-4.37-6.75-7.25-9.52c-1.42-1.36-3.52-0.98-5.29-1.2
			c-0.02,3.62-0.02,7.25-0.06,10.88c-1.98-0.02-3.97-0.04-5.95-0.05C286.78,482.23,286.67,473.47,286.82,464.72z M292.76,469.51
			c-0.01,2.07-0.01,4.13-0.01,6.21c3.07-0.02,6.21,0.33,9.23-0.37c2.43-0.55,2.92-4.39,0.53-5.28
			C299.42,468.95,295.99,469.66,292.76,469.51z"/>
	</g>
	<path d="M339.42,465.93c4.77-2.26,10.58-2.18,15.48-0.36c3,1.03,4.17,4.08,4.99,6.86c-2.15,0.05-4.3,0.1-6.45,0.12
		c-1.37-1.84-2.88-3.96-5.5-3.6c-2.22-0.24-6.75,0.36-5.24,3.59c4.54,2.45,10.09,1.98,14.54,4.66c3.31,1.9,4.29,6.68,2.16,9.82
		c-1.68,2.76-5,3.66-7.91,4.48h-6.22c-2.6-0.5-5.35-1.04-7.43-2.79c-1.97-1.57-2.58-4.13-3.5-6.34c2.1-0.2,4.21-0.38,6.32-0.54
		c1.67,4.99,8.19,6.52,12.21,3.45c1.39-1,1.1-3.4-0.53-3.95c-4.81-2.02-10.76-1.53-14.8-5.22
		C334.4,473.19,335.62,467.65,339.42,465.93z"/>
	<path d="M384.03,464.74c2.12-0.01,4.24-0.03,6.36-0.05c0.24,8.77,0.06,17.54,0.1,26.32c-2.17-0.02-4.33-0.01-6.49-0.02
		C384.02,482.24,383.96,473.49,384.03,464.74z"/>
	<path d="M414.27,464.74c8.49,0.01,16.98,0,25.46,0.01c0.02,1.56,0.04,3.12,0.08,4.69c-3.2,0.05-6.4,0.07-9.6,0.11
		c0.08,7.15,0.03,14.3,0.03,21.45c-2.17-0.02-4.33-0.01-6.49-0.02c0.01-7.15-0.04-14.29,0.03-21.43c-3.2-0.05-6.39-0.06-9.58-0.1
		C414.22,467.87,414.24,466.31,414.27,464.74z"/>
	<path d="M460.61,464.79c2.5-0.05,5-0.06,7.51-0.1c2.55,3.33,4.85,6.83,7.52,10.06c2.35-3.22,4.41-6.66,6.94-9.74
		c2.52-0.52,5.14-0.24,7.7-0.27c-3.69,5.22-7.74,10.17-11.55,15.3c0.04,3.66,0.03,7.32-0.01,10.99c-2.25-0.04-4.49-0.02-6.73-0.06
		c-0.52-4.43,1.5-9.78-1.8-13.43C466.95,473.32,463.57,469.21,460.61,464.79z"/>
</g>
</svg>
