<svg xmlns="http://www.w3.org/2000/svg" xmlns:rdkit="http://www.rdkit.org/xml" xmlns:xlink="http://www.w3.org/1999/xlink" version="1.1" baseProfile="full" xml:space="preserve" width="800px" height="200px" viewBox="0 0 800 200">
<!-- END OF HEADER -->
<rect style="opacity:1.0;fill:#FFFFFF;stroke:none" width="800.0" height="200.0" x="0.0" y="0.0"> </rect>
<path class="bond-0 atom-0 atom-1" d="M 182.5,89.7 L 163.0,82.5" style="fill:none;fill-rule:evenodd;stroke:#000000;stroke-width:2.0px;stroke-linecap:butt;stroke-linejoin:miter;stroke-opacity:1"/>
<path class="bond-1 atom-1 atom-2" d="M 163.0,82.5 L 147.0,95.8" style="fill:none;fill-rule:evenodd;stroke:#000000;stroke-width:2.0px;stroke-linecap:butt;stroke-linejoin:miter;stroke-opacity:1"/>
<path class="bond-2 atom-2 atom-3" d="M 147.0,95.8 L 127.5,88.6" style="fill:none;fill-rule:evenodd;stroke:#000000;stroke-width:2.0px;stroke-linecap:butt;stroke-linejoin:miter;stroke-opacity:1"/>
<path class="bond-3 atom-3 atom-4" d="M 127.5,88.6 L 111.5,101.9" style="fill:none;fill-rule:evenodd;stroke:#000000;stroke-width:2.0px;stroke-linecap:butt;stroke-linejoin:miter;stroke-opacity:1"/>
<path class="bond-4 atom-3 atom-5" d="M 127.5,88.6 L 126.1,80.2" style="fill:none;fill-rule:evenodd;stroke:#000000;stroke-width:2.0px;stroke-linecap:butt;stroke-linejoin:miter;stroke-opacity:1"/>
<path class="bond-4 atom-3 atom-5" d="M 126.1,80.2 L 124.6,71.9" style="fill:none;fill-rule:evenodd;stroke:#FF0000;stroke-width:2.0px;stroke-linecap:butt;stroke-linejoin:miter;stroke-opacity:1"/>
<path class="bond-5 atom-5 atom-6" d="M 120.6,66.9 L 112.5,63.9" style="fill:none;fill-rule:evenodd;stroke:#FF0000;stroke-width:2.0px;stroke-linecap:butt;stroke-linejoin:miter;stroke-opacity:1"/>
<path class="bond-5 atom-5 atom-6" d="M 112.5,63.9 L 104.5,60.9" style="fill:none;fill-rule:evenodd;stroke:#000000;stroke-width:2.0px;stroke-linecap:butt;stroke-linejoin:miter;stroke-opacity:1"/>
<path class="bond-6 atom-6 atom-7" d="M 106.1,61.6 L 102.5,40.2" style="fill:none;fill-rule:evenodd;stroke:#000000;stroke-width:2.0px;stroke-linecap:butt;stroke-linejoin:miter;stroke-opacity:1"/>
<path class="bond-6 atom-6 atom-7" d="M 103.1,62.1 L 99.4,40.7" style="fill:none;fill-rule:evenodd;stroke:#000000;stroke-width:2.0px;stroke-linecap:butt;stroke-linejoin:miter;stroke-opacity:1;stroke-dasharray:6,4"/>
<path class="bond-7 atom-6 atom-8" d="M 104.5,60.9 L 88.5,74.2" style="fill:none;fill-rule:evenodd;stroke:#000000;stroke-width:2.0px;stroke-linecap:butt;stroke-linejoin:miter;stroke-opacity:1"/>
<path class="bond-7 atom-6 atom-8" d="M 105.1,64.5 L 91.9,75.5" style="fill:none;fill-rule:evenodd;stroke:#000000;stroke-width:2.0px;stroke-linecap:butt;stroke-linejoin:miter;stroke-opacity:1;stroke-dasharray:6,4"/>
<path class="bond-8 atom-8 atom-9" d="M 88.5,74.2 L 92.0,94.7" style="fill:none;fill-rule:evenodd;stroke:#000000;stroke-width:2.0px;stroke-linecap:butt;stroke-linejoin:miter;stroke-opacity:1"/>
<path class="bond-9 atom-9 atom-10" d="M 92.0,94.7 L 76.0,108.0" style="fill:none;fill-rule:evenodd;stroke:#000000;stroke-width:2.0px;stroke-linecap:butt;stroke-linejoin:miter;stroke-opacity:1"/>
<path class="bond-10 atom-10 atom-11" d="M 76.0,108.0 L 79.6,128.5" style="fill:none;fill-rule:evenodd;stroke:#000000;stroke-width:2.0px;stroke-linecap:butt;stroke-linejoin:miter;stroke-opacity:1"/>
<path class="bond-11 atom-11 atom-12" d="M 79.6,128.5 L 63.6,141.8" style="fill:none;fill-rule:evenodd;stroke:#000000;stroke-width:2.0px;stroke-linecap:butt;stroke-linejoin:miter;stroke-opacity:1"/>
<path class="bond-12 atom-11 atom-13" d="M 79.6,128.5 L 99.1,135.7" style="fill:none;fill-rule:evenodd;stroke:#000000;stroke-width:2.0px;stroke-linecap:butt;stroke-linejoin:miter;stroke-opacity:1"/>
<path class="bond-13 atom-8 atom-14" d="M 88.5,74.2 L 69.0,67.0" style="fill:none;fill-rule:evenodd;stroke:#000000;stroke-width:2.0px;stroke-linecap:butt;stroke-linejoin:miter;stroke-opacity:1"/>
<path class="bond-13 atom-8 atom-14" d="M 87.9,70.7 L 71.7,64.7" style="fill:none;fill-rule:evenodd;stroke:#000000;stroke-width:2.0px;stroke-linecap:butt;stroke-linejoin:miter;stroke-opacity:1;stroke-dasharray:6,4"/>
<path class="bond-14 atom-14 atom-15" d="M 69.0,67.0 L 67.5,58.7" style="fill:none;fill-rule:evenodd;stroke:#000000;stroke-width:2.0px;stroke-linecap:butt;stroke-linejoin:miter;stroke-opacity:1"/>
<path class="bond-14 atom-14 atom-15" d="M 67.5,58.7 L 66.1,50.3" style="fill:none;fill-rule:evenodd;stroke:#FF0000;stroke-width:2.0px;stroke-linecap:butt;stroke-linejoin:miter;stroke-opacity:1"/>
<path class="bond-15 atom-14 atom-16" d="M 69.0,67.0 L 53.0,80.4" style="fill:none;fill-rule:evenodd;stroke:#000000;stroke-width:2.0px;stroke-linecap:butt;stroke-linejoin:miter;stroke-opacity:1"/>
<path class="bond-15 atom-14 atom-16" d="M 65.6,65.8 L 52.4,76.8" style="fill:none;fill-rule:evenodd;stroke:#000000;stroke-width:2.0px;stroke-linecap:butt;stroke-linejoin:miter;stroke-opacity:1;stroke-dasharray:6,4"/>
<path class="bond-16 atom-16 atom-17" d="M 53.0,80.4 L 33.5,73.2" style="fill:none;fill-rule:evenodd;stroke:#000000;stroke-width:2.0px;stroke-linecap:butt;stroke-linejoin:miter;stroke-opacity:1"/>
<path class="bond-16 atom-16 atom-17" d="M 52.4,76.8 L 34.6,70.2" style="fill:none;fill-rule:evenodd;stroke:#000000;stroke-width:2.0px;stroke-linecap:butt;stroke-linejoin:miter;stroke-opacity:1;stroke-dasharray:6,4"/>
<path class="bond-17 atom-17 atom-18" d="M 33.5,73.2 L 17.5,86.5" style="fill:none;fill-rule:evenodd;stroke:#000000;stroke-width:2.0px;stroke-linecap:butt;stroke-linejoin:miter;stroke-opacity:1"/>
<path d="M 164.0,82.8 L 163.0,82.5 L 162.2,83.1" style="fill:none;stroke:#000000;stroke-width:2.0px;stroke-linecap:butt;stroke-linejoin:miter;stroke-opacity:1;"/>
<path d="M 147.8,95.1 L 147.0,95.8 L 146.0,95.4" style="fill:none;stroke:#000000;stroke-width:2.0px;stroke-linecap:butt;stroke-linejoin:miter;stroke-opacity:1;"/>
<path d="M 91.8,93.7 L 92.0,94.7 L 91.2,95.4" style="fill:none;stroke:#000000;stroke-width:2.0px;stroke-linecap:butt;stroke-linejoin:miter;stroke-opacity:1;"/>
<path d="M 76.8,107.4 L 76.0,108.0 L 76.2,109.1" style="fill:none;stroke:#000000;stroke-width:2.0px;stroke-linecap:butt;stroke-linejoin:miter;stroke-opacity:1;"/>
<path d="M 53.8,79.7 L 53.0,80.4 L 52.0,80.0" style="fill:none;stroke:#000000;stroke-width:2.0px;stroke-linecap:butt;stroke-linejoin:miter;stroke-opacity:1;"/>
<path d="M 34.5,73.5 L 33.5,73.2 L 32.7,73.8" style="fill:none;stroke:#000000;stroke-width:2.0px;stroke-linecap:butt;stroke-linejoin:miter;stroke-opacity:1;"/>
<path class="atom-5" d="M 121.3 68.1 Q 121.3 66.7, 122.0 65.9 Q 122.7 65.1, 124.0 65.1 Q 125.3 65.1, 126.0 65.9 Q 126.7 66.7, 126.7 68.1 Q 126.7 69.6, 126.0 70.4 Q 125.3 71.2, 124.0 71.2 Q 122.7 71.2, 122.0 70.4 Q 121.3 69.6, 121.3 68.1 M 124.0 70.5 Q 124.9 70.5, 125.3 69.9 Q 125.8 69.3, 125.8 68.1 Q 125.8 67.0, 125.3 66.4 Q 124.9 65.8, 124.0 65.8 Q 123.1 65.8, 122.6 66.4 Q 122.1 67.0, 122.1 68.1 Q 122.1 69.3, 122.6 69.9 Q 123.1 70.5, 124.0 70.5 " fill="#FF0000"/>
<path class="atom-15" d="M 62.7 46.6 Q 62.7 45.2, 63.4 44.4 Q 64.1 43.6, 65.4 43.6 Q 66.7 43.6, 67.4 44.4 Q 68.1 45.2, 68.1 46.6 Q 68.1 48.0, 67.4 48.8 Q 66.7 49.6, 65.4 49.6 Q 64.1 49.6, 63.4 48.8 Q 62.7 48.0, 62.7 46.6 M 65.4 49.0 Q 66.3 49.0, 66.8 48.4 Q 67.3 47.8, 67.3 46.6 Q 67.3 45.4, 66.8 44.8 Q 66.3 44.2, 65.4 44.2 Q 64.5 44.2, 64.0 44.8 Q 63.6 45.4, 63.6 46.6 Q 63.6 47.8, 64.0 48.4 Q 64.5 49.0, 65.4 49.0 " fill="#FF0000"/>
<path class="atom-15" d="M 69.1 43.6 L 69.8 43.6 L 69.8 46.2 L 72.9 46.2 L 72.9 43.6 L 73.7 43.6 L 73.7 49.5 L 72.9 49.5 L 72.9 46.8 L 69.8 46.8 L 69.8 49.5 L 69.1 49.5 L 69.1 43.6 " fill="#FF0000"/>
<path class="legend" d="M 103.4 190.0 L 102.2 186.7 L 97.8 186.7 L 96.6 190.0 L 95.1 190.0 L 99.0 178.7 L 100.9 178.7 L 104.9 190.0 L 103.4 190.0 M 98.2 185.4 L 101.8 185.4 L 100.0 180.3 L 98.2 185.4 " fill="#000000"/>
<path class="bond-0 atom-0 atom-1" d="M 334.6,53.9 L 331.7,62.2" style="fill:none;fill-rule:evenodd;stroke:#FF0000;stroke-width:2.0px;stroke-linecap:butt;stroke-linejoin:miter;stroke-opacity:1"/>
<path class="bond-0 atom-0 atom-1" d="M 331.7,62.2 L 328.7,70.6" style="fill:none;fill-rule:evenodd;stroke:#000000;stroke-width:2.0px;stroke-linecap:butt;stroke-linejoin:miter;stroke-opacity:1"/>
<path class="bond-0 atom-0 atom-1" d="M 331.7,52.8 L 328.7,61.2" style="fill:none;fill-rule:evenodd;stroke:#FF0000;stroke-width:2.0px;stroke-linecap:butt;stroke-linejoin:miter;stroke-opacity:1"/>
<path class="bond-0 atom-0 atom-1" d="M 328.7,61.2 L 325.8,69.6" style="fill:none;fill-rule:evenodd;stroke:#000000;stroke-width:2.0px;stroke-linecap:butt;stroke-linejoin:miter;stroke-opacity:1"/>
<path class="bond-1 atom-1 atom-2" d="M 327.6,69.2 L 307.1,73.1" style="fill:none;fill-rule:evenodd;stroke:#000000;stroke-width:2.0px;stroke-linecap:butt;stroke-linejoin:miter;stroke-opacity:1"/>
<path class="bond-2 atom-2 atom-3" d="M 307.1,73.1 L 300.3,92.7" style="fill:none;fill-rule:evenodd;stroke:#000000;stroke-width:2.0px;stroke-linecap:butt;stroke-linejoin:miter;stroke-opacity:1"/>
<path class="bond-2 atom-2 atom-3" d="M 309.5,75.8 L 303.8,92.0" style="fill:none;fill-rule:evenodd;stroke:#000000;stroke-width:2.0px;stroke-linecap:butt;stroke-linejoin:miter;stroke-opacity:1"/>
<path class="bond-3 atom-3 atom-4" d="M 300.3,92.7 L 279.8,96.5" style="fill:none;fill-rule:evenodd;stroke:#000000;stroke-width:2.0px;stroke-linecap:butt;stroke-linejoin:miter;stroke-opacity:1"/>
<path class="bond-4 atom-4 atom-5" d="M 279.8,96.5 L 266.3,80.8" style="fill:none;fill-rule:evenodd;stroke:#000000;stroke-width:2.0px;stroke-linecap:butt;stroke-linejoin:miter;stroke-opacity:1"/>
<path class="bond-4 atom-4 atom-5" d="M 276.3,97.2 L 265.1,84.2" style="fill:none;fill-rule:evenodd;stroke:#000000;stroke-width:2.0px;stroke-linecap:butt;stroke-linejoin:miter;stroke-opacity:1"/>
<path class="bond-5 atom-5 atom-6" d="M 266.3,80.8 L 245.8,84.6" style="fill:none;fill-rule:evenodd;stroke:#000000;stroke-width:2.0px;stroke-linecap:butt;stroke-linejoin:miter;stroke-opacity:1"/>
<path class="bond-6 atom-6 atom-7" d="M 245.8,84.6 L 239.0,104.2" style="fill:none;fill-rule:evenodd;stroke:#000000;stroke-width:2.0px;stroke-linecap:butt;stroke-linejoin:miter;stroke-opacity:1"/>
<path class="bond-6 atom-6 atom-7" d="M 248.2,87.4 L 242.5,103.6" style="fill:none;fill-rule:evenodd;stroke:#000000;stroke-width:2.0px;stroke-linecap:butt;stroke-linejoin:miter;stroke-opacity:1"/>
<path class="bond-7 atom-7 atom-8" d="M 239.0,104.2 L 230.4,105.9" style="fill:none;fill-rule:evenodd;stroke:#000000;stroke-width:2.0px;stroke-linecap:butt;stroke-linejoin:miter;stroke-opacity:1"/>
<path class="bond-7 atom-7 atom-8" d="M 230.4,105.9 L 221.9,107.5" style="fill:none;fill-rule:evenodd;stroke:#FF0000;stroke-width:2.0px;stroke-linecap:butt;stroke-linejoin:miter;stroke-opacity:1"/>
<path class="bond-8 atom-7 atom-9" d="M 239.0,104.2 L 252.5,120.0" style="fill:none;fill-rule:evenodd;stroke:#000000;stroke-width:2.0px;stroke-linecap:butt;stroke-linejoin:miter;stroke-opacity:1"/>
<path class="bond-9 atom-9 atom-10" d="M 252.5,120.0 L 272.9,116.2" style="fill:none;fill-rule:evenodd;stroke:#000000;stroke-width:2.0px;stroke-linecap:butt;stroke-linejoin:miter;stroke-opacity:1"/>
<path class="bond-9 atom-9 atom-10" d="M 253.7,116.6 L 270.6,113.4" style="fill:none;fill-rule:evenodd;stroke:#000000;stroke-width:2.0px;stroke-linecap:butt;stroke-linejoin:miter;stroke-opacity:1"/>
<path class="bond-10 atom-3 atom-11" d="M 300.3,92.7 L 305.5,98.7" style="fill:none;fill-rule:evenodd;stroke:#000000;stroke-width:2.0px;stroke-linecap:butt;stroke-linejoin:miter;stroke-opacity:1"/>
<path class="bond-10 atom-3 atom-11" d="M 305.5,98.7 L 310.7,104.8" style="fill:none;fill-rule:evenodd;stroke:#FF0000;stroke-width:2.0px;stroke-linecap:butt;stroke-linejoin:miter;stroke-opacity:1"/>
<path class="bond-11 atom-11 atom-12" d="M 317.2,107.8 L 325.7,106.2" style="fill:none;fill-rule:evenodd;stroke:#FF0000;stroke-width:2.0px;stroke-linecap:butt;stroke-linejoin:miter;stroke-opacity:1"/>
<path class="bond-11 atom-11 atom-12" d="M 325.7,106.2 L 334.2,104.6" style="fill:none;fill-rule:evenodd;stroke:#000000;stroke-width:2.0px;stroke-linecap:butt;stroke-linejoin:miter;stroke-opacity:1"/>
<path class="bond-12 atom-12 atom-13" d="M 334.2,104.6 L 347.8,120.4" style="fill:none;fill-rule:evenodd;stroke:#000000;stroke-width:2.0px;stroke-linecap:butt;stroke-linejoin:miter;stroke-opacity:1"/>
<path class="bond-12 atom-12 atom-13" d="M 337.8,103.9 L 349.0,117.0" style="fill:none;fill-rule:evenodd;stroke:#000000;stroke-width:2.0px;stroke-linecap:butt;stroke-linejoin:miter;stroke-opacity:1"/>
<path class="bond-13 atom-13 atom-14" d="M 347.8,120.4 L 368.2,116.5" style="fill:none;fill-rule:evenodd;stroke:#000000;stroke-width:2.0px;stroke-linecap:butt;stroke-linejoin:miter;stroke-opacity:1"/>
<path class="bond-14 atom-14 atom-15" d="M 368.2,116.5 L 373.4,122.6" style="fill:none;fill-rule:evenodd;stroke:#000000;stroke-width:2.0px;stroke-linecap:butt;stroke-linejoin:miter;stroke-opacity:1"/>
<path class="bond-14 atom-14 atom-15" d="M 373.4,122.6 L 378.6,128.6" style="fill:none;fill-rule:evenodd;stroke:#FF0000;stroke-width:2.0px;stroke-linecap:butt;stroke-linejoin:miter;stroke-opacity:1"/>
<path class="bond-15 atom-14 atom-16" d="M 368.2,116.5 L 375.1,96.9" style="fill:none;fill-rule:evenodd;stroke:#000000;stroke-width:2.0px;stroke-linecap:butt;stroke-linejoin:miter;stroke-opacity:1"/>
<path class="bond-15 atom-14 atom-16" d="M 365.9,113.8 L 371.6,97.6" style="fill:none;fill-rule:evenodd;stroke:#000000;stroke-width:2.0px;stroke-linecap:butt;stroke-linejoin:miter;stroke-opacity:1"/>
<path class="bond-16 atom-16 atom-17" d="M 375.1,96.9 L 361.6,81.1" style="fill:none;fill-rule:evenodd;stroke:#000000;stroke-width:2.0px;stroke-linecap:butt;stroke-linejoin:miter;stroke-opacity:1"/>
<path class="bond-17 atom-17 atom-18" d="M 361.6,81.1 L 341.1,85.0" style="fill:none;fill-rule:evenodd;stroke:#000000;stroke-width:2.0px;stroke-linecap:butt;stroke-linejoin:miter;stroke-opacity:1"/>
<path class="bond-17 atom-17 atom-18" d="M 360.4,84.5 L 343.5,87.7" style="fill:none;fill-rule:evenodd;stroke:#000000;stroke-width:2.0px;stroke-linecap:butt;stroke-linejoin:miter;stroke-opacity:1"/>
<path class="bond-18 atom-18 atom-1" d="M 341.1,85.0 L 327.6,69.2" style="fill:none;fill-rule:evenodd;stroke:#000000;stroke-width:2.0px;stroke-linecap:butt;stroke-linejoin:miter;stroke-opacity:1"/>
<path class="bond-19 atom-10 atom-4" d="M 272.9,116.2 L 279.8,96.5" style="fill:none;fill-rule:evenodd;stroke:#000000;stroke-width:2.0px;stroke-linecap:butt;stroke-linejoin:miter;stroke-opacity:1"/>
<path class="bond-20 atom-18 atom-12" d="M 341.1,85.0 L 334.2,104.6" style="fill:none;fill-rule:evenodd;stroke:#000000;stroke-width:2.0px;stroke-linecap:butt;stroke-linejoin:miter;stroke-opacity:1"/>
<path d="M 326.5,69.4 L 327.6,69.2 L 328.2,70.0" style="fill:none;stroke:#000000;stroke-width:2.0px;stroke-linecap:butt;stroke-linejoin:miter;stroke-opacity:1;"/>
<path d="M 308.2,72.9 L 307.1,73.1 L 306.8,74.1" style="fill:none;stroke:#000000;stroke-width:2.0px;stroke-linecap:butt;stroke-linejoin:miter;stroke-opacity:1;"/>
<path d="M 266.9,81.6 L 266.3,80.8 L 265.2,81.0" style="fill:none;stroke:#000000;stroke-width:2.0px;stroke-linecap:butt;stroke-linejoin:miter;stroke-opacity:1;"/>
<path d="M 246.9,84.4 L 245.8,84.6 L 245.5,85.6" style="fill:none;stroke:#000000;stroke-width:2.0px;stroke-linecap:butt;stroke-linejoin:miter;stroke-opacity:1;"/>
<path d="M 251.8,119.2 L 252.5,120.0 L 253.5,119.8" style="fill:none;stroke:#000000;stroke-width:2.0px;stroke-linecap:butt;stroke-linejoin:miter;stroke-opacity:1;"/>
<path d="M 271.9,116.4 L 272.9,116.2 L 273.3,115.2" style="fill:none;stroke:#000000;stroke-width:2.0px;stroke-linecap:butt;stroke-linejoin:miter;stroke-opacity:1;"/>
<path d="M 347.1,119.6 L 347.8,120.4 L 348.8,120.2" style="fill:none;stroke:#000000;stroke-width:2.0px;stroke-linecap:butt;stroke-linejoin:miter;stroke-opacity:1;"/>
<path d="M 374.8,97.9 L 375.1,96.9 L 374.4,96.1" style="fill:none;stroke:#000000;stroke-width:2.0px;stroke-linecap:butt;stroke-linejoin:miter;stroke-opacity:1;"/>
<path d="M 362.2,81.9 L 361.6,81.1 L 360.5,81.3" style="fill:none;stroke:#000000;stroke-width:2.0px;stroke-linecap:butt;stroke-linejoin:miter;stroke-opacity:1;"/>
<path class="atom-0" d="M 331.7 49.6 Q 331.7 48.2, 332.4 47.4 Q 333.1 46.6, 334.4 46.6 Q 335.8 46.6, 336.5 47.4 Q 337.2 48.2, 337.2 49.6 Q 337.2 51.1, 336.4 51.9 Q 335.7 52.7, 334.4 52.7 Q 333.2 52.7, 332.4 51.9 Q 331.7 51.1, 331.7 49.6 M 334.4 52.0 Q 335.3 52.0, 335.8 51.4 Q 336.3 50.8, 336.3 49.6 Q 336.3 48.5, 335.8 47.9 Q 335.3 47.3, 334.4 47.3 Q 333.5 47.3, 333.1 47.9 Q 332.6 48.5, 332.6 49.6 Q 332.6 50.8, 333.1 51.4 Q 333.5 52.0, 334.4 52.0 " fill="#FF0000"/>
<path class="atom-8" d="M 210.0 105.2 L 210.8 105.2 L 210.8 107.7 L 213.8 107.7 L 213.8 105.2 L 214.6 105.2 L 214.6 111.1 L 213.8 111.1 L 213.8 108.4 L 210.8 108.4 L 210.8 111.1 L 210.0 111.1 L 210.0 105.2 " fill="#FF0000"/>
<path class="atom-8" d="M 215.8 108.1 Q 215.8 106.7, 216.5 105.9 Q 217.2 105.1, 218.5 105.1 Q 219.8 105.1, 220.5 105.9 Q 221.2 106.7, 221.2 108.1 Q 221.2 109.5, 220.5 110.4 Q 219.8 111.2, 218.5 111.2 Q 217.2 111.2, 216.5 110.4 Q 215.8 109.6, 215.8 108.1 M 218.5 110.5 Q 219.4 110.5, 219.9 109.9 Q 220.4 109.3, 220.4 108.1 Q 220.4 107.0, 219.9 106.4 Q 219.4 105.8, 218.5 105.8 Q 217.6 105.8, 217.1 106.4 Q 216.6 107.0, 216.6 108.1 Q 216.6 109.3, 217.1 109.9 Q 217.6 110.5, 218.5 110.5 " fill="#FF0000"/>
<path class="atom-11" d="M 311.1 108.5 Q 311.1 107.1, 311.8 106.3 Q 312.5 105.5, 313.8 105.5 Q 315.1 105.5, 315.8 106.3 Q 316.5 107.1, 316.5 108.5 Q 316.5 109.9, 315.8 110.7 Q 315.1 111.5, 313.8 111.5 Q 312.5 111.5, 311.8 110.7 Q 311.1 109.9, 311.1 108.5 M 313.8 110.9 Q 314.7 110.9, 315.2 110.3 Q 315.7 109.7, 315.7 108.5 Q 315.7 107.3, 315.2 106.7 Q 314.7 106.2, 313.8 106.2 Q 312.9 106.2, 312.4 106.7 Q 311.9 107.3, 311.9 108.5 Q 311.9 109.7, 312.4 110.3 Q 312.9 110.9, 313.8 110.9 " fill="#FF0000"/>
<path class="atom-15" d="M 379.1 132.3 Q 379.1 130.9, 379.8 130.1 Q 380.5 129.3, 381.8 129.3 Q 383.1 129.3, 383.8 130.1 Q 384.5 130.9, 384.5 132.3 Q 384.5 133.8, 383.8 134.6 Q 383.1 135.4, 381.8 135.4 Q 380.5 135.4, 379.8 134.6 Q 379.1 133.8, 379.1 132.3 M 381.8 134.7 Q 382.7 134.7, 383.2 134.1 Q 383.6 133.5, 383.6 132.3 Q 383.6 131.2, 383.2 130.6 Q 382.7 130.0, 381.8 130.0 Q 380.9 130.0, 380.4 130.6 Q 379.9 131.2, 379.9 132.3 Q 379.9 133.5, 380.4 134.1 Q 380.9 134.7, 381.8 134.7 " fill="#FF0000"/>
<path class="atom-15" d="M 385.4 129.4 L 386.2 129.4 L 386.2 131.9 L 389.2 131.9 L 389.2 129.4 L 390.0 129.4 L 390.0 135.3 L 389.2 135.3 L 389.2 132.6 L 386.2 132.6 L 386.2 135.3 L 385.4 135.3 L 385.4 129.4 " fill="#FF0000"/>
<path class="legend" d="M 301.7 184.0 Q 302.7 184.4, 303.3 185.0 Q 303.8 185.7, 303.8 186.7 Q 303.8 188.2, 302.8 189.1 Q 301.8 190.0, 300.0 190.0 L 296.2 190.0 L 296.2 178.7 L 299.5 178.7 Q 301.4 178.7, 302.4 179.5 Q 303.4 180.2, 303.4 181.7 Q 303.4 183.4, 301.7 184.0 M 297.7 180.0 L 297.7 183.5 L 299.5 183.5 Q 300.6 183.5, 301.2 183.1 Q 301.8 182.6, 301.8 181.7 Q 301.8 180.0, 299.5 180.0 L 297.7 180.0 M 300.0 188.7 Q 301.1 188.7, 301.7 188.2 Q 302.2 187.7, 302.2 186.7 Q 302.2 185.7, 301.6 185.3 Q 301.0 184.8, 299.7 184.8 L 297.7 184.8 L 297.7 188.7 L 300.0 188.7 " fill="#000000"/>
</svg>