<svg xmlns="http://www.w3.org/2000/svg" xmlns:rdkit="http://www.rdkit.org/xml" xmlns:xlink="http://www.w3.org/1999/xlink" version="1.1" baseProfile="full" xml:space="preserve" width="800px" height="200px" viewBox="0 0 800 200">
<!-- END OF HEADER -->
<rect style="opacity:1.0;fill:#FFFFFF;stroke:none" width="800.0" height="200.0" x="0.0" y="0.0"> </rect>
<path class="bond-0 atom-0 atom-1" d="M 190.0,74.3 L 157.7,94.7" style="fill:none;fill-rule:evenodd;stroke:#000000;stroke-width:2.0px;stroke-linecap:butt;stroke-linejoin:miter;stroke-opacity:1"/>
<path class="bond-1 atom-1 atom-2" d="M 157.7,94.7 L 124.0,76.9" style="fill:none;fill-rule:evenodd;stroke:#000000;stroke-width:2.0px;stroke-linecap:butt;stroke-linejoin:miter;stroke-opacity:1"/>
<path class="bond-2 atom-2 atom-3" d="M 124.0,76.9 L 91.7,97.2" style="fill:none;fill-rule:evenodd;stroke:#000000;stroke-width:2.0px;stroke-linecap:butt;stroke-linejoin:miter;stroke-opacity:1"/>
<path class="bond-3 atom-3 atom-4" d="M 91.7,97.2 L 92.3,113.0" style="fill:none;fill-rule:evenodd;stroke:#000000;stroke-width:2.0px;stroke-linecap:butt;stroke-linejoin:miter;stroke-opacity:1"/>
<path class="bond-3 atom-3 atom-4" d="M 92.3,113.0 L 92.9,128.7" style="fill:none;fill-rule:evenodd;stroke:#0000FF;stroke-width:2.0px;stroke-linecap:butt;stroke-linejoin:miter;stroke-opacity:1"/>
<path class="bond-4 atom-3 atom-5" d="M 91.7,97.2 L 57.9,79.4" style="fill:none;fill-rule:evenodd;stroke:#000000;stroke-width:2.0px;stroke-linecap:butt;stroke-linejoin:miter;stroke-opacity:1"/>
<path class="bond-5 atom-5 atom-6" d="M 60.8,81.0 L 60.2,64.5" style="fill:none;fill-rule:evenodd;stroke:#000000;stroke-width:2.0px;stroke-linecap:butt;stroke-linejoin:miter;stroke-opacity:1"/>
<path class="bond-5 atom-5 atom-6" d="M 60.2,64.5 L 59.6,48.1" style="fill:none;fill-rule:evenodd;stroke:#FF0000;stroke-width:2.0px;stroke-linecap:butt;stroke-linejoin:miter;stroke-opacity:1"/>
<path class="bond-5 atom-5 atom-6" d="M 55.1,81.2 L 54.5,64.8" style="fill:none;fill-rule:evenodd;stroke:#000000;stroke-width:2.0px;stroke-linecap:butt;stroke-linejoin:miter;stroke-opacity:1"/>
<path class="bond-5 atom-5 atom-6" d="M 54.5,64.8 L 53.8,48.3" style="fill:none;fill-rule:evenodd;stroke:#FF0000;stroke-width:2.0px;stroke-linecap:butt;stroke-linejoin:miter;stroke-opacity:1"/>
<path class="bond-6 atom-5 atom-7" d="M 57.9,79.4 L 44.9,87.7" style="fill:none;fill-rule:evenodd;stroke:#000000;stroke-width:2.0px;stroke-linecap:butt;stroke-linejoin:miter;stroke-opacity:1"/>
<path class="bond-6 atom-5 atom-7" d="M 44.9,87.7 L 31.9,95.9" style="fill:none;fill-rule:evenodd;stroke:#FF0000;stroke-width:2.0px;stroke-linecap:butt;stroke-linejoin:miter;stroke-opacity:1"/>
<path d="M 159.3,93.6 L 157.7,94.7 L 156.0,93.8" style="fill:none;stroke:#000000;stroke-width:2.0px;stroke-linecap:butt;stroke-linejoin:miter;stroke-opacity:1;"/>
<path d="M 125.6,77.8 L 124.0,76.9 L 122.3,77.9" style="fill:none;stroke:#000000;stroke-width:2.0px;stroke-linecap:butt;stroke-linejoin:miter;stroke-opacity:1;"/>
<path d="M 59.6,80.3 L 57.9,79.4 L 57.3,79.8" style="fill:none;stroke:#000000;stroke-width:2.0px;stroke-linecap:butt;stroke-linejoin:miter;stroke-opacity:1;"/>
<path class="atom-4" d="M 90.8 129.9 L 94.3 135.7 Q 94.7 136.2, 95.2 137.3 Q 95.8 138.3, 95.8 138.3 L 95.8 129.9 L 97.3 129.9 L 97.3 140.8 L 95.8 140.8 L 92.0 134.5 Q 91.5 133.8, 91.1 132.9 Q 90.6 132.1, 90.5 131.8 L 90.5 140.8 L 89.1 140.8 L 89.1 129.9 L 90.8 129.9 " fill="#0000FF"/>
<path class="atom-4" d="M 99.3 129.9 L 100.8 129.9 L 100.8 134.5 L 106.3 134.5 L 106.3 129.9 L 107.8 129.9 L 107.8 140.8 L 106.3 140.8 L 106.3 135.8 L 100.8 135.8 L 100.8 140.8 L 99.3 140.8 L 99.3 129.9 " fill="#0000FF"/>
<path class="atom-4" d="M 109.9 140.4 Q 110.2 139.7, 110.8 139.3 Q 111.4 138.9, 112.3 138.9 Q 113.3 138.9, 114.0 139.5 Q 114.6 140.1, 114.6 141.1 Q 114.6 142.2, 113.8 143.2 Q 113.0 144.2, 111.4 145.4 L 114.7 145.4 L 114.7 146.2 L 109.9 146.2 L 109.9 145.5 Q 111.2 144.5, 112.0 143.8 Q 112.8 143.1, 113.2 142.5 Q 113.5 141.9, 113.5 141.2 Q 113.5 140.5, 113.2 140.1 Q 112.9 139.7, 112.3 139.7 Q 111.7 139.7, 111.3 140.0 Q 110.9 140.2, 110.7 140.7 L 109.9 140.4 " fill="#0000FF"/>
<path class="atom-6" d="M 51.5 41.3 Q 51.5 38.7, 52.8 37.3 Q 54.0 35.8, 56.4 35.8 Q 58.8 35.8, 60.1 37.3 Q 61.4 38.7, 61.4 41.3 Q 61.4 44.0, 60.1 45.5 Q 58.8 46.9, 56.4 46.9 Q 54.1 46.9, 52.8 45.5 Q 51.5 44.0, 51.5 41.3 M 56.4 45.7 Q 58.1 45.7, 59.0 44.6 Q 59.9 43.5, 59.9 41.3 Q 59.9 39.2, 59.0 38.1 Q 58.1 37.1, 56.4 37.1 Q 54.8 37.1, 53.9 38.1 Q 53.0 39.2, 53.0 41.3 Q 53.0 43.5, 53.9 44.6 Q 54.8 45.7, 56.4 45.7 " fill="#FF0000"/>
<path class="atom-7" d="M 10.0 94.4 L 11.5 94.4 L 11.5 99.0 L 17.0 99.0 L 17.0 94.4 L 18.5 94.4 L 18.5 105.3 L 17.0 105.3 L 17.0 100.3 L 11.5 100.3 L 11.5 105.3 L 10.0 105.3 L 10.0 94.4 " fill="#FF0000"/>
<path class="atom-7" d="M 20.7 99.8 Q 20.7 97.2, 22.0 95.8 Q 23.2 94.3, 25.6 94.3 Q 28.0 94.3, 29.3 95.8 Q 30.6 97.2, 30.6 99.8 Q 30.6 102.4, 29.3 103.9 Q 28.0 105.4, 25.6 105.4 Q 23.3 105.4, 22.0 103.9 Q 20.7 102.5, 20.7 99.8 M 25.6 104.2 Q 27.3 104.2, 28.2 103.1 Q 29.1 102.0, 29.1 99.8 Q 29.1 97.7, 28.2 96.6 Q 27.3 95.5, 25.6 95.5 Q 24.0 95.5, 23.1 96.6 Q 22.2 97.7, 22.2 99.8 Q 22.2 102.0, 23.1 103.1 Q 24.0 104.2, 25.6 104.2 " fill="#FF0000"/>
<path class="legend" d="M 103.4 190.0 L 102.2 186.7 L 97.8 186.7 L 96.6 190.0 L 95.1 190.0 L 99.0 178.7 L 100.9 178.7 L 104.9 190.0 L 103.4 190.0 M 98.2 185.4 L 101.8 185.4 L 100.0 180.3 L 98.2 185.4 " fill="#000000"/>
</svg>