<svg xmlns="http://www.w3.org/2000/svg" xmlns:rdkit="http://www.rdkit.org/xml" xmlns:xlink="http://www.w3.org/1999/xlink" version="1.1" baseProfile="full" xml:space="preserve" width="800px" height="400px" viewBox="0 0 800 400">
<!-- END OF HEADER -->
<rect style="opacity:1.0;fill:#FFFFFF;stroke:none" width="800.0" height="400.0" x="0.0" y="0.0"> </rect>
<path class="bond-0 atom-0 atom-1" d="M 47.0,97.2 L 64.2,89.1" style="fill:none;fill-rule:evenodd;stroke:#000000;stroke-width:2.0px;stroke-linecap:butt;stroke-linejoin:miter;stroke-opacity:1"/>
<path class="bond-0 atom-0 atom-1" d="M 48.2,99.7 L 63.9,92.4" style="fill:none;fill-rule:evenodd;stroke:#000000;stroke-width:2.0px;stroke-linecap:butt;stroke-linejoin:miter;stroke-opacity:1;stroke-dasharray:6,4"/>
<path class="bond-1 atom-1 atom-2" d="M 64.2,89.1 L 79.8,100.1" style="fill:none;fill-rule:evenodd;stroke:#000000;stroke-width:2.0px;stroke-linecap:butt;stroke-linejoin:miter;stroke-opacity:1"/>
<path class="bond-1 atom-1 atom-2" d="M 63.9,92.4 L 78.2,102.4" style="fill:none;fill-rule:evenodd;stroke:#000000;stroke-width:2.0px;stroke-linecap:butt;stroke-linejoin:miter;stroke-opacity:1;stroke-dasharray:6,4"/>
<path class="bond-2 atom-2 atom-3" d="M 79.8,100.1 L 97.1,92.1" style="fill:none;fill-rule:evenodd;stroke:#000000;stroke-width:2.0px;stroke-linecap:butt;stroke-linejoin:miter;stroke-opacity:1"/>
<path class="bond-2 atom-2 atom-3" d="M 80.1,96.8 L 95.9,89.5" style="fill:none;fill-rule:evenodd;stroke:#000000;stroke-width:2.0px;stroke-linecap:butt;stroke-linejoin:miter;stroke-opacity:1;stroke-dasharray:6,4"/>
<path class="bond-3 atom-3 atom-4" d="M 97.1,92.1 L 112.7,103.0" style="fill:none;fill-rule:evenodd;stroke:#000000;stroke-width:2.0px;stroke-linecap:butt;stroke-linejoin:miter;stroke-opacity:1"/>
<path class="bond-3 atom-3 atom-4" d="M 96.8,95.3 L 111.0,105.3" style="fill:none;fill-rule:evenodd;stroke:#000000;stroke-width:2.0px;stroke-linecap:butt;stroke-linejoin:miter;stroke-opacity:1;stroke-dasharray:6,4"/>
<path class="bond-4 atom-4 atom-5" d="M 112.7,103.0 L 129.9,95.0" style="fill:none;fill-rule:evenodd;stroke:#000000;stroke-width:2.0px;stroke-linecap:butt;stroke-linejoin:miter;stroke-opacity:1"/>
<path class="bond-5 atom-5 atom-6" d="M 129.9,95.0 L 136.2,99.4" style="fill:none;fill-rule:evenodd;stroke:#000000;stroke-width:2.0px;stroke-linecap:butt;stroke-linejoin:miter;stroke-opacity:1"/>
<path class="bond-5 atom-5 atom-6" d="M 136.2,99.4 L 142.4,103.7" style="fill:none;fill-rule:evenodd;stroke:#FF0000;stroke-width:2.0px;stroke-linecap:butt;stroke-linejoin:miter;stroke-opacity:1"/>
<path class="bond-6 atom-5 atom-7" d="M 131.3,95.9 L 132.0,87.7" style="fill:none;fill-rule:evenodd;stroke:#000000;stroke-width:2.0px;stroke-linecap:butt;stroke-linejoin:miter;stroke-opacity:1"/>
<path class="bond-6 atom-5 atom-7" d="M 132.0,87.7 L 132.7,79.6" style="fill:none;fill-rule:evenodd;stroke:#FF0000;stroke-width:2.0px;stroke-linecap:butt;stroke-linejoin:miter;stroke-opacity:1"/>
<path class="bond-6 atom-5 atom-7" d="M 128.4,95.7 L 129.2,87.5" style="fill:none;fill-rule:evenodd;stroke:#000000;stroke-width:2.0px;stroke-linecap:butt;stroke-linejoin:miter;stroke-opacity:1"/>
<path class="bond-6 atom-5 atom-7" d="M 129.2,87.5 L 129.9,79.3" style="fill:none;fill-rule:evenodd;stroke:#FF0000;stroke-width:2.0px;stroke-linecap:butt;stroke-linejoin:miter;stroke-opacity:1"/>
<path d="M 63.4,89.5 L 64.2,89.1 L 65.0,89.7" style="fill:none;stroke:#000000;stroke-width:2.0px;stroke-linecap:butt;stroke-linejoin:miter;stroke-opacity:1;"/>
<path d="M 79.0,99.5 L 79.8,100.1 L 80.7,99.7" style="fill:none;stroke:#000000;stroke-width:2.0px;stroke-linecap:butt;stroke-linejoin:miter;stroke-opacity:1;"/>
<path d="M 96.2,92.5 L 97.1,92.1 L 97.9,92.6" style="fill:none;stroke:#000000;stroke-width:2.0px;stroke-linecap:butt;stroke-linejoin:miter;stroke-opacity:1;"/>
<path d="M 111.9,102.4 L 112.7,103.0 L 113.5,102.6" style="fill:none;stroke:#000000;stroke-width:2.0px;stroke-linecap:butt;stroke-linejoin:miter;stroke-opacity:1;"/>
<path d="M 129.1,95.4 L 129.9,95.0 L 130.2,95.2" style="fill:none;stroke:#000000;stroke-width:2.0px;stroke-linecap:butt;stroke-linejoin:miter;stroke-opacity:1;"/>
<path class="atom-6" d="M 143.0 105.9 Q 143.0 104.6, 143.7 103.9 Q 144.3 103.2, 145.5 103.2 Q 146.7 103.2, 147.3 103.9 Q 148.0 104.6, 148.0 105.9 Q 148.0 107.2, 147.3 108.0 Q 146.7 108.7, 145.5 108.7 Q 144.3 108.7, 143.7 108.0 Q 143.0 107.2, 143.0 105.9 M 145.5 108.1 Q 146.3 108.1, 146.8 107.6 Q 147.2 107.0, 147.2 105.9 Q 147.2 104.9, 146.8 104.3 Q 146.3 103.8, 145.5 103.8 Q 144.7 103.8, 144.2 104.3 Q 143.8 104.9, 143.8 105.9 Q 143.8 107.0, 144.2 107.6 Q 144.7 108.1, 145.5 108.1 " fill="#FF0000"/>
<path class="atom-6" d="M 148.8 103.2 L 149.6 103.2 L 149.6 105.5 L 152.3 105.5 L 152.3 103.2 L 153.0 103.2 L 153.0 108.6 L 152.3 108.6 L 152.3 106.2 L 149.6 106.2 L 149.6 108.6 L 148.8 108.6 L 148.8 103.2 " fill="#FF0000"/>
<path class="atom-7" d="M 129.1 76.0 Q 129.1 74.7, 129.8 74.0 Q 130.4 73.3, 131.6 73.3 Q 132.8 73.3, 133.5 74.0 Q 134.1 74.7, 134.1 76.0 Q 134.1 77.3, 133.4 78.1 Q 132.8 78.8, 131.6 78.8 Q 130.4 78.8, 129.8 78.1 Q 129.1 77.3, 129.1 76.0 M 131.6 78.2 Q 132.4 78.2, 132.9 77.7 Q 133.3 77.1, 133.3 76.0 Q 133.3 75.0, 132.9 74.4 Q 132.4 73.9, 131.6 73.9 Q 130.8 73.9, 130.3 74.4 Q 129.9 75.0, 129.9 76.0 Q 129.9 77.1, 130.3 77.7 Q 130.8 78.2, 131.6 78.2 " fill="#FF0000"/>
<path class="legend" d="M 103.4 190.0 L 102.2 186.7 L 97.8 186.7 L 96.6 190.0 L 95.1 190.0 L 99.0 178.7 L 100.9 178.7 L 104.9 190.0 L 103.4 190.0 M 98.2 185.4 L 101.8 185.4 L 100.0 180.3 L 98.2 185.4 " fill="#000000"/>
<path class="bond-0 atom-0 atom-1" d="M 247.1,103.2 L 249.8,95.5" style="fill:none;fill-rule:evenodd;stroke:#FF0000;stroke-width:2.0px;stroke-linecap:butt;stroke-linejoin:miter;stroke-opacity:1"/>
<path class="bond-0 atom-0 atom-1" d="M 249.8,95.5 L 252.4,87.7" style="fill:none;fill-rule:evenodd;stroke:#000000;stroke-width:2.0px;stroke-linecap:butt;stroke-linejoin:miter;stroke-opacity:1"/>
<path class="bond-0 atom-0 atom-1" d="M 249.9,104.1 L 252.5,96.4" style="fill:none;fill-rule:evenodd;stroke:#FF0000;stroke-width:2.0px;stroke-linecap:butt;stroke-linejoin:miter;stroke-opacity:1"/>
<path class="bond-0 atom-0 atom-1" d="M 252.5,96.4 L 255.1,88.6" style="fill:none;fill-rule:evenodd;stroke:#000000;stroke-width:2.0px;stroke-linecap:butt;stroke-linejoin:miter;stroke-opacity:1"/>
<path class="bond-1 atom-1 atom-2" d="M 253.5,89.0 L 248.7,83.5" style="fill:none;fill-rule:evenodd;stroke:#000000;stroke-width:2.0px;stroke-linecap:butt;stroke-linejoin:miter;stroke-opacity:1"/>
<path class="bond-1 atom-1 atom-2" d="M 248.7,83.5 L 243.9,78.1" style="fill:none;fill-rule:evenodd;stroke:#FF0000;stroke-width:2.0px;stroke-linecap:butt;stroke-linejoin:miter;stroke-opacity:1"/>
<path class="bond-2 atom-1 atom-3" d="M 253.5,89.0 L 272.1,85.2" style="fill:none;fill-rule:evenodd;stroke:#000000;stroke-width:2.0px;stroke-linecap:butt;stroke-linejoin:miter;stroke-opacity:1"/>
<path class="bond-3 atom-3 atom-4" d="M 272.1,85.2 L 284.7,99.5" style="fill:none;fill-rule:evenodd;stroke:#000000;stroke-width:2.0px;stroke-linecap:butt;stroke-linejoin:miter;stroke-opacity:1"/>
<path class="bond-3 atom-3 atom-4" d="M 271.1,88.3 L 282.6,101.4" style="fill:none;fill-rule:evenodd;stroke:#000000;stroke-width:2.0px;stroke-linecap:butt;stroke-linejoin:miter;stroke-opacity:1"/>
<path class="bond-4 atom-4 atom-5" d="M 284.7,99.5 L 303.4,95.8" style="fill:none;fill-rule:evenodd;stroke:#000000;stroke-width:2.0px;stroke-linecap:butt;stroke-linejoin:miter;stroke-opacity:1"/>
<path class="bond-5 atom-5 atom-6" d="M 303.4,95.8 L 309.5,77.7" style="fill:none;fill-rule:evenodd;stroke:#000000;stroke-width:2.0px;stroke-linecap:butt;stroke-linejoin:miter;stroke-opacity:1"/>
<path class="bond-5 atom-5 atom-6" d="M 306.6,95.1 L 311.6,80.2" style="fill:none;fill-rule:evenodd;stroke:#000000;stroke-width:2.0px;stroke-linecap:butt;stroke-linejoin:miter;stroke-opacity:1"/>
<path class="bond-6 atom-6 atom-7" d="M 309.5,77.7 L 328.1,74.0" style="fill:none;fill-rule:evenodd;stroke:#000000;stroke-width:2.0px;stroke-linecap:butt;stroke-linejoin:miter;stroke-opacity:1"/>
<path class="bond-7 atom-7 atom-8" d="M 328.1,74.0 L 340.7,88.3" style="fill:none;fill-rule:evenodd;stroke:#000000;stroke-width:2.0px;stroke-linecap:butt;stroke-linejoin:miter;stroke-opacity:1"/>
<path class="bond-7 atom-7 atom-8" d="M 327.1,77.1 L 337.5,88.9" style="fill:none;fill-rule:evenodd;stroke:#000000;stroke-width:2.0px;stroke-linecap:butt;stroke-linejoin:miter;stroke-opacity:1"/>
<path class="bond-8 atom-8 atom-9" d="M 340.7,88.3 L 348.5,86.7" style="fill:none;fill-rule:evenodd;stroke:#000000;stroke-width:2.0px;stroke-linecap:butt;stroke-linejoin:miter;stroke-opacity:1"/>
<path class="bond-8 atom-8 atom-9" d="M 348.5,86.7 L 356.3,85.2" style="fill:none;fill-rule:evenodd;stroke:#FF0000;stroke-width:2.0px;stroke-linecap:butt;stroke-linejoin:miter;stroke-opacity:1"/>
<path class="bond-9 atom-8 atom-10" d="M 340.7,88.3 L 334.6,106.3" style="fill:none;fill-rule:evenodd;stroke:#000000;stroke-width:2.0px;stroke-linecap:butt;stroke-linejoin:miter;stroke-opacity:1"/>
<path class="bond-10 atom-10 atom-11" d="M 334.6,106.3 L 316.0,110.1" style="fill:none;fill-rule:evenodd;stroke:#000000;stroke-width:2.0px;stroke-linecap:butt;stroke-linejoin:miter;stroke-opacity:1"/>
<path class="bond-10 atom-10 atom-11" d="M 332.4,103.8 L 317.0,106.9" style="fill:none;fill-rule:evenodd;stroke:#000000;stroke-width:2.0px;stroke-linecap:butt;stroke-linejoin:miter;stroke-opacity:1"/>
<path class="bond-11 atom-11 atom-5" d="M 316.0,110.1 L 303.4,95.8" style="fill:none;fill-rule:evenodd;stroke:#000000;stroke-width:2.0px;stroke-linecap:butt;stroke-linejoin:miter;stroke-opacity:1"/>
<path d="M 253.2,88.7 L 253.5,89.0 L 254.4,88.8" style="fill:none;stroke:#000000;stroke-width:2.0px;stroke-linecap:butt;stroke-linejoin:miter;stroke-opacity:1;"/>
<path d="M 271.2,85.4 L 272.1,85.2 L 272.8,85.9" style="fill:none;stroke:#000000;stroke-width:2.0px;stroke-linecap:butt;stroke-linejoin:miter;stroke-opacity:1;"/>
<path d="M 284.1,98.8 L 284.7,99.5 L 285.6,99.3" style="fill:none;stroke:#000000;stroke-width:2.0px;stroke-linecap:butt;stroke-linejoin:miter;stroke-opacity:1;"/>
<path d="M 309.2,78.6 L 309.5,77.7 L 310.4,77.5" style="fill:none;stroke:#000000;stroke-width:2.0px;stroke-linecap:butt;stroke-linejoin:miter;stroke-opacity:1;"/>
<path d="M 327.2,74.2 L 328.1,74.0 L 328.8,74.7" style="fill:none;stroke:#000000;stroke-width:2.0px;stroke-linecap:butt;stroke-linejoin:miter;stroke-opacity:1;"/>
<path d="M 334.9,105.4 L 334.6,106.3 L 333.7,106.5" style="fill:none;stroke:#000000;stroke-width:2.0px;stroke-linecap:butt;stroke-linejoin:miter;stroke-opacity:1;"/>
<path d="M 316.9,109.9 L 316.0,110.1 L 315.3,109.3" style="fill:none;stroke:#000000;stroke-width:2.0px;stroke-linecap:butt;stroke-linejoin:miter;stroke-opacity:1;"/>
<path class="atom-0" d="M 244.9 107.0 Q 244.9 105.7, 245.5 105.0 Q 246.2 104.3, 247.4 104.3 Q 248.6 104.3, 249.2 105.0 Q 249.8 105.7, 249.8 107.0 Q 249.8 108.3, 249.2 109.1 Q 248.5 109.8, 247.4 109.8 Q 246.2 109.8, 245.5 109.1 Q 244.9 108.3, 244.9 107.0 M 247.4 109.2 Q 248.2 109.2, 248.6 108.7 Q 249.1 108.1, 249.1 107.0 Q 249.1 106.0, 248.6 105.4 Q 248.2 104.9, 247.4 104.9 Q 246.5 104.9, 246.1 105.4 Q 245.7 106.0, 245.7 107.0 Q 245.7 108.1, 246.1 108.7 Q 246.5 109.2, 247.4 109.2 " fill="#FF0000"/>
<path class="atom-2" d="M 233.1 72.0 L 233.8 72.0 L 233.8 74.3 L 236.6 74.3 L 236.6 72.0 L 237.3 72.0 L 237.3 77.4 L 236.6 77.4 L 236.6 74.9 L 233.8 74.9 L 233.8 77.4 L 233.1 77.4 L 233.1 72.0 " fill="#FF0000"/>
<path class="atom-2" d="M 238.4 74.7 Q 238.4 73.4, 239.0 72.7 Q 239.7 71.9, 240.9 71.9 Q 242.1 71.9, 242.7 72.7 Q 243.4 73.4, 243.4 74.7 Q 243.4 76.0, 242.7 76.7 Q 242.1 77.5, 240.9 77.5 Q 239.7 77.5, 239.0 76.7 Q 238.4 76.0, 238.4 74.7 M 240.9 76.9 Q 241.7 76.9, 242.1 76.3 Q 242.6 75.8, 242.6 74.7 Q 242.6 73.6, 242.1 73.1 Q 241.7 72.5, 240.9 72.5 Q 240.1 72.5, 239.6 73.1 Q 239.2 73.6, 239.2 74.7 Q 239.2 75.8, 239.6 76.3 Q 240.1 76.9, 240.9 76.9 " fill="#FF0000"/>
<path class="atom-9" d="M 356.9 84.5 Q 356.9 83.2, 357.6 82.5 Q 358.2 81.8, 359.4 81.8 Q 360.6 81.8, 361.2 82.5 Q 361.9 83.2, 361.9 84.5 Q 361.9 85.9, 361.2 86.6 Q 360.6 87.3, 359.4 87.3 Q 358.2 87.3, 357.6 86.6 Q 356.9 85.9, 356.9 84.5 M 359.4 86.7 Q 360.2 86.7, 360.7 86.2 Q 361.1 85.6, 361.1 84.5 Q 361.1 83.5, 360.7 83.0 Q 360.2 82.4, 359.4 82.4 Q 358.6 82.4, 358.1 82.9 Q 357.7 83.5, 357.7 84.5 Q 357.7 85.6, 358.1 86.2 Q 358.6 86.7, 359.4 86.7 " fill="#FF0000"/>
<path class="atom-9" d="M 362.7 81.9 L 363.4 81.9 L 363.4 84.2 L 366.2 84.2 L 366.2 81.9 L 366.9 81.9 L 366.9 87.3 L 366.2 87.3 L 366.2 84.8 L 363.4 84.8 L 363.4 87.3 L 362.7 87.3 L 362.7 81.9 " fill="#FF0000"/>
<path class="legend" d="M 301.7 184.0 Q 302.7 184.4, 303.3 185.0 Q 303.8 185.7, 303.8 186.7 Q 303.8 188.2, 302.8 189.1 Q 301.8 190.0, 300.0 190.0 L 296.2 190.0 L 296.2 178.7 L 299.5 178.7 Q 301.4 178.7, 302.4 179.5 Q 303.4 180.2, 303.4 181.7 Q 303.4 183.4, 301.7 184.0 M 297.7 180.0 L 297.7 183.5 L 299.5 183.5 Q 300.6 183.5, 301.2 183.1 Q 301.8 182.6, 301.8 181.7 Q 301.8 180.0, 299.5 180.0 L 297.7 180.0 M 300.0 188.7 Q 301.1 188.7, 301.7 188.2 Q 302.2 187.7, 302.2 186.7 Q 302.2 185.7, 301.6 185.3 Q 301.0 184.8, 299.7 184.8 L 297.7 184.8 L 297.7 188.7 L 300.0 188.7 " fill="#000000"/>
<path class="bond-0 atom-0 atom-1" d="M 454.8,93.7 L 471.8,85.0" style="fill:none;fill-rule:evenodd;stroke:#000000;stroke-width:2.0px;stroke-linecap:butt;stroke-linejoin:miter;stroke-opacity:1"/>
<path class="bond-1 atom-1 atom-2" d="M 471.8,85.0 L 487.8,95.3" style="fill:none;fill-rule:evenodd;stroke:#000000;stroke-width:2.0px;stroke-linecap:butt;stroke-linejoin:miter;stroke-opacity:1"/>
<path class="bond-2 atom-2 atom-3" d="M 487.8,95.3 L 504.7,86.7" style="fill:none;fill-rule:evenodd;stroke:#000000;stroke-width:2.0px;stroke-linecap:butt;stroke-linejoin:miter;stroke-opacity:1"/>
<path class="bond-3 atom-3 atom-4" d="M 504.7,86.7 L 520.7,97.0" style="fill:none;fill-rule:evenodd;stroke:#000000;stroke-width:2.0px;stroke-linecap:butt;stroke-linejoin:miter;stroke-opacity:1"/>
<path class="bond-4 atom-4 atom-5" d="M 520.7,97.0 L 527.6,93.5" style="fill:none;fill-rule:evenodd;stroke:#000000;stroke-width:2.0px;stroke-linecap:butt;stroke-linejoin:miter;stroke-opacity:1"/>
<path class="bond-4 atom-4 atom-5" d="M 527.6,93.5 L 534.5,89.9" style="fill:none;fill-rule:evenodd;stroke:#FF0000;stroke-width:2.0px;stroke-linecap:butt;stroke-linejoin:miter;stroke-opacity:1"/>
<path d="M 470.9,85.4 L 471.8,85.0 L 472.6,85.5" style="fill:none;stroke:#000000;stroke-width:2.0px;stroke-linecap:butt;stroke-linejoin:miter;stroke-opacity:1;"/>
<path d="M 487.0,94.8 L 487.8,95.3 L 488.6,94.9" style="fill:none;stroke:#000000;stroke-width:2.0px;stroke-linecap:butt;stroke-linejoin:miter;stroke-opacity:1;"/>
<path d="M 503.9,87.1 L 504.7,86.7 L 505.5,87.2" style="fill:none;stroke:#000000;stroke-width:2.0px;stroke-linecap:butt;stroke-linejoin:miter;stroke-opacity:1;"/>
<path d="M 519.9,96.5 L 520.7,97.0 L 521.0,96.8" style="fill:none;stroke:#000000;stroke-width:2.0px;stroke-linecap:butt;stroke-linejoin:miter;stroke-opacity:1;"/>
<path class="atom-5" d="M 535.2 88.4 Q 535.2 87.1, 535.8 86.3 Q 536.5 85.6, 537.7 85.6 Q 538.8 85.6, 539.5 86.3 Q 540.1 87.1, 540.1 88.4 Q 540.1 89.7, 539.5 90.4 Q 538.8 91.1, 537.7 91.1 Q 536.5 91.1, 535.8 90.4 Q 535.2 89.7, 535.2 88.4 M 537.7 90.5 Q 538.5 90.5, 538.9 90.0 Q 539.4 89.4, 539.4 88.4 Q 539.4 87.3, 538.9 86.8 Q 538.5 86.2, 537.7 86.2 Q 536.8 86.2, 536.4 86.8 Q 535.9 87.3, 535.9 88.4 Q 535.9 89.4, 536.4 90.0 Q 536.8 90.5, 537.7 90.5 " fill="#FF0000"/>
<path class="atom-5" d="M 541.0 85.7 L 541.7 85.7 L 541.7 88.0 L 544.5 88.0 L 544.5 85.7 L 545.2 85.7 L 545.2 91.1 L 544.5 91.1 L 544.5 88.6 L 541.7 88.6 L 541.7 91.1 L 541.0 91.1 L 541.0 85.7 " fill="#FF0000"/>
<path class="legend" d="M 495.6 184.2 Q 495.6 181.4, 496.9 179.9 Q 498.3 178.4, 500.8 178.4 Q 503.1 178.4, 504.4 180.0 L 503.3 180.9 Q 502.4 179.7, 500.8 179.7 Q 499.1 179.7, 498.2 180.9 Q 497.3 182.0, 497.3 184.2 Q 497.3 186.4, 498.2 187.6 Q 499.1 188.7, 501.0 188.7 Q 502.2 188.7, 503.7 188.0 L 504.1 189.2 Q 503.5 189.6, 502.6 189.8 Q 501.7 190.0, 500.7 190.0 Q 498.3 190.0, 496.9 188.5 Q 495.6 187.0, 495.6 184.2 " fill="#000000"/>
<path class="bond-0 atom-0 atom-1" d="M 732.1,127.1 L 729.1,119.6" style="fill:none;fill-rule:evenodd;stroke:#FF0000;stroke-width:2.0px;stroke-linecap:butt;stroke-linejoin:miter;stroke-opacity:1"/>
<path class="bond-0 atom-0 atom-1" d="M 729.1,119.6 L 726.0,112.0" style="fill:none;fill-rule:evenodd;stroke:#000000;stroke-width:2.0px;stroke-linecap:butt;stroke-linejoin:miter;stroke-opacity:1"/>
<path class="bond-0 atom-0 atom-1" d="M 734.8,126.0 L 731.7,118.5" style="fill:none;fill-rule:evenodd;stroke:#FF0000;stroke-width:2.0px;stroke-linecap:butt;stroke-linejoin:miter;stroke-opacity:1"/>
<path class="bond-0 atom-0 atom-1" d="M 731.7,118.5 L 728.6,111.0" style="fill:none;fill-rule:evenodd;stroke:#000000;stroke-width:2.0px;stroke-linecap:butt;stroke-linejoin:miter;stroke-opacity:1"/>
<path class="bond-1 atom-1 atom-2" d="M 727.6,112.3 L 708.7,109.7" style="fill:none;fill-rule:evenodd;stroke:#000000;stroke-width:2.0px;stroke-linecap:butt;stroke-linejoin:miter;stroke-opacity:1"/>
<path class="bond-2 atom-2 atom-3" d="M 708.7,109.7 L 701.5,92.1" style="fill:none;fill-rule:evenodd;stroke:#000000;stroke-width:2.0px;stroke-linecap:butt;stroke-linejoin:miter;stroke-opacity:1"/>
<path class="bond-3 atom-3 atom-4" d="M 701.5,92.1 L 682.7,89.5" style="fill:none;fill-rule:evenodd;stroke:#000000;stroke-width:2.0px;stroke-linecap:butt;stroke-linejoin:miter;stroke-opacity:1"/>
<path class="bond-4 atom-4 atom-5" d="M 682.7,89.5 L 675.4,71.9" style="fill:none;fill-rule:evenodd;stroke:#000000;stroke-width:2.0px;stroke-linecap:butt;stroke-linejoin:miter;stroke-opacity:1"/>
<path class="bond-4 atom-4 atom-5" d="M 679.4,89.1 L 673.4,74.5" style="fill:none;fill-rule:evenodd;stroke:#000000;stroke-width:2.0px;stroke-linecap:butt;stroke-linejoin:miter;stroke-opacity:1"/>
<path class="bond-5 atom-5 atom-6" d="M 675.4,71.9 L 656.6,69.3" style="fill:none;fill-rule:evenodd;stroke:#000000;stroke-width:2.0px;stroke-linecap:butt;stroke-linejoin:miter;stroke-opacity:1"/>
<path class="bond-6 atom-6 atom-7" d="M 656.6,69.3 L 644.9,84.4" style="fill:none;fill-rule:evenodd;stroke:#000000;stroke-width:2.0px;stroke-linecap:butt;stroke-linejoin:miter;stroke-opacity:1"/>
<path class="bond-6 atom-6 atom-7" d="M 657.8,72.4 L 648.2,84.8" style="fill:none;fill-rule:evenodd;stroke:#000000;stroke-width:2.0px;stroke-linecap:butt;stroke-linejoin:miter;stroke-opacity:1"/>
<path class="bond-7 atom-7 atom-8" d="M 644.9,84.4 L 637.0,83.3" style="fill:none;fill-rule:evenodd;stroke:#000000;stroke-width:2.0px;stroke-linecap:butt;stroke-linejoin:miter;stroke-opacity:1"/>
<path class="bond-7 atom-7 atom-8" d="M 637.0,83.3 L 629.1,82.3" style="fill:none;fill-rule:evenodd;stroke:#FF0000;stroke-width:2.0px;stroke-linecap:butt;stroke-linejoin:miter;stroke-opacity:1"/>
<path class="bond-8 atom-7 atom-9" d="M 644.9,84.4 L 652.1,102.0" style="fill:none;fill-rule:evenodd;stroke:#000000;stroke-width:2.0px;stroke-linecap:butt;stroke-linejoin:miter;stroke-opacity:1"/>
<path class="bond-9 atom-9 atom-10" d="M 652.1,102.0 L 671.0,104.6" style="fill:none;fill-rule:evenodd;stroke:#000000;stroke-width:2.0px;stroke-linecap:butt;stroke-linejoin:miter;stroke-opacity:1"/>
<path class="bond-9 atom-9 atom-10" d="M 654.1,99.4 L 669.8,101.5" style="fill:none;fill-rule:evenodd;stroke:#000000;stroke-width:2.0px;stroke-linecap:butt;stroke-linejoin:miter;stroke-opacity:1"/>
<path class="bond-10 atom-3 atom-11" d="M 701.5,92.1 L 706.0,86.3" style="fill:none;fill-rule:evenodd;stroke:#000000;stroke-width:2.0px;stroke-linecap:butt;stroke-linejoin:miter;stroke-opacity:1"/>
<path class="bond-10 atom-3 atom-11" d="M 706.0,86.3 L 710.5,80.5" style="fill:none;fill-rule:evenodd;stroke:#FF0000;stroke-width:2.0px;stroke-linecap:butt;stroke-linejoin:miter;stroke-opacity:1"/>
<path class="bond-11 atom-11 atom-12" d="M 716.3,77.4 L 724.2,78.5" style="fill:none;fill-rule:evenodd;stroke:#FF0000;stroke-width:2.0px;stroke-linecap:butt;stroke-linejoin:miter;stroke-opacity:1"/>
<path class="bond-11 atom-11 atom-12" d="M 724.2,78.5 L 732.0,79.6" style="fill:none;fill-rule:evenodd;stroke:#000000;stroke-width:2.0px;stroke-linecap:butt;stroke-linejoin:miter;stroke-opacity:1"/>
<path class="bond-12 atom-12 atom-13" d="M 732.0,79.6 L 743.7,64.5" style="fill:none;fill-rule:evenodd;stroke:#000000;stroke-width:2.0px;stroke-linecap:butt;stroke-linejoin:miter;stroke-opacity:1"/>
<path class="bond-12 atom-12 atom-13" d="M 735.3,80.0 L 745.0,67.6" style="fill:none;fill-rule:evenodd;stroke:#000000;stroke-width:2.0px;stroke-linecap:butt;stroke-linejoin:miter;stroke-opacity:1"/>
<path class="bond-13 atom-13 atom-14" d="M 743.7,64.5 L 762.6,67.1" style="fill:none;fill-rule:evenodd;stroke:#000000;stroke-width:2.0px;stroke-linecap:butt;stroke-linejoin:miter;stroke-opacity:1"/>
<path class="bond-14 atom-14 atom-15" d="M 762.6,67.1 L 767.1,61.3" style="fill:none;fill-rule:evenodd;stroke:#000000;stroke-width:2.0px;stroke-linecap:butt;stroke-linejoin:miter;stroke-opacity:1"/>
<path class="bond-14 atom-14 atom-15" d="M 767.1,61.3 L 771.6,55.5" style="fill:none;fill-rule:evenodd;stroke:#FF0000;stroke-width:2.0px;stroke-linecap:butt;stroke-linejoin:miter;stroke-opacity:1"/>
<path class="bond-15 atom-14 atom-16" d="M 762.6,67.1 L 769.8,84.7" style="fill:none;fill-rule:evenodd;stroke:#000000;stroke-width:2.0px;stroke-linecap:butt;stroke-linejoin:miter;stroke-opacity:1"/>
<path class="bond-15 atom-14 atom-16" d="M 760.6,69.7 L 766.5,84.3" style="fill:none;fill-rule:evenodd;stroke:#000000;stroke-width:2.0px;stroke-linecap:butt;stroke-linejoin:miter;stroke-opacity:1"/>
<path class="bond-16 atom-16 atom-17" d="M 769.8,84.7 L 758.1,99.8" style="fill:none;fill-rule:evenodd;stroke:#000000;stroke-width:2.0px;stroke-linecap:butt;stroke-linejoin:miter;stroke-opacity:1"/>
<path class="bond-17 atom-17 atom-18" d="M 758.1,99.8 L 761.1,106.9" style="fill:none;fill-rule:evenodd;stroke:#000000;stroke-width:2.0px;stroke-linecap:butt;stroke-linejoin:miter;stroke-opacity:1"/>
<path class="bond-17 atom-17 atom-18" d="M 761.1,106.9 L 764.0,114.0" style="fill:none;fill-rule:evenodd;stroke:#FF0000;stroke-width:2.0px;stroke-linecap:butt;stroke-linejoin:miter;stroke-opacity:1"/>
<path class="bond-18 atom-17 atom-19" d="M 758.1,99.8 L 739.3,97.2" style="fill:none;fill-rule:evenodd;stroke:#000000;stroke-width:2.0px;stroke-linecap:butt;stroke-linejoin:miter;stroke-opacity:1"/>
<path class="bond-18 atom-17 atom-19" d="M 756.9,96.7 L 741.3,94.6" style="fill:none;fill-rule:evenodd;stroke:#000000;stroke-width:2.0px;stroke-linecap:butt;stroke-linejoin:miter;stroke-opacity:1"/>
<path class="bond-19 atom-19 atom-1" d="M 739.3,97.2 L 727.6,112.3" style="fill:none;fill-rule:evenodd;stroke:#000000;stroke-width:2.0px;stroke-linecap:butt;stroke-linejoin:miter;stroke-opacity:1"/>
<path class="bond-20 atom-10 atom-4" d="M 671.0,104.6 L 682.7,89.5" style="fill:none;fill-rule:evenodd;stroke:#000000;stroke-width:2.0px;stroke-linecap:butt;stroke-linejoin:miter;stroke-opacity:1"/>
<path class="bond-21 atom-19 atom-12" d="M 739.3,97.2 L 732.0,79.6" style="fill:none;fill-rule:evenodd;stroke:#000000;stroke-width:2.0px;stroke-linecap:butt;stroke-linejoin:miter;stroke-opacity:1"/>
<path d="M 726.7,112.1 L 727.6,112.3 L 728.2,111.5" style="fill:none;stroke:#000000;stroke-width:2.0px;stroke-linecap:butt;stroke-linejoin:miter;stroke-opacity:1;"/>
<path d="M 709.7,109.8 L 708.7,109.7 L 708.4,108.8" style="fill:none;stroke:#000000;stroke-width:2.0px;stroke-linecap:butt;stroke-linejoin:miter;stroke-opacity:1;"/>
<path d="M 675.8,72.8 L 675.4,71.9 L 674.5,71.8" style="fill:none;stroke:#000000;stroke-width:2.0px;stroke-linecap:butt;stroke-linejoin:miter;stroke-opacity:1;"/>
<path d="M 657.5,69.5 L 656.6,69.3 L 656.0,70.1" style="fill:none;stroke:#000000;stroke-width:2.0px;stroke-linecap:butt;stroke-linejoin:miter;stroke-opacity:1;"/>
<path d="M 651.8,101.1 L 652.1,102.0 L 653.1,102.2" style="fill:none;stroke:#000000;stroke-width:2.0px;stroke-linecap:butt;stroke-linejoin:miter;stroke-opacity:1;"/>
<path d="M 670.1,104.5 L 671.0,104.6 L 671.6,103.8" style="fill:none;stroke:#000000;stroke-width:2.0px;stroke-linecap:butt;stroke-linejoin:miter;stroke-opacity:1;"/>
<path d="M 743.1,65.3 L 743.7,64.5 L 744.6,64.7" style="fill:none;stroke:#000000;stroke-width:2.0px;stroke-linecap:butt;stroke-linejoin:miter;stroke-opacity:1;"/>
<path d="M 769.4,83.8 L 769.8,84.7 L 769.2,85.5" style="fill:none;stroke:#000000;stroke-width:2.0px;stroke-linecap:butt;stroke-linejoin:miter;stroke-opacity:1;"/>
<path class="atom-0" d="M 732.4 129.9 Q 732.4 128.6, 733.0 127.9 Q 733.6 127.2, 734.8 127.2 Q 736.0 127.2, 736.7 127.9 Q 737.3 128.6, 737.3 129.9 Q 737.3 131.2, 736.7 132.0 Q 736.0 132.7, 734.8 132.7 Q 733.6 132.7, 733.0 132.0 Q 732.4 131.2, 732.4 129.9 M 734.8 132.1 Q 735.7 132.1, 736.1 131.5 Q 736.5 131.0, 736.5 129.9 Q 736.5 128.8, 736.1 128.3 Q 735.7 127.8, 734.8 127.8 Q 734.0 127.8, 733.6 128.3 Q 733.1 128.8, 733.1 129.9 Q 733.1 131.0, 733.6 131.5 Q 734.0 132.1, 734.8 132.1 " fill="#FF0000"/>
<path class="atom-8" d="M 618.2 79.2 L 619.0 79.2 L 619.0 81.5 L 621.7 81.5 L 621.7 79.2 L 622.5 79.2 L 622.5 84.6 L 621.7 84.6 L 621.7 82.1 L 619.0 82.1 L 619.0 84.6 L 618.2 84.6 L 618.2 79.2 " fill="#FF0000"/>
<path class="atom-8" d="M 623.6 81.9 Q 623.6 80.6, 624.2 79.8 Q 624.8 79.1, 626.0 79.1 Q 627.2 79.1, 627.9 79.8 Q 628.5 80.6, 628.5 81.9 Q 628.5 83.2, 627.9 83.9 Q 627.2 84.7, 626.0 84.7 Q 624.9 84.7, 624.2 83.9 Q 623.6 83.2, 623.6 81.9 M 626.0 84.0 Q 626.9 84.0, 627.3 83.5 Q 627.8 82.9, 627.8 81.9 Q 627.8 80.8, 627.3 80.3 Q 626.9 79.7, 626.0 79.7 Q 625.2 79.7, 624.8 80.3 Q 624.3 80.8, 624.3 81.9 Q 624.3 83.0, 624.8 83.5 Q 625.2 84.0, 626.0 84.0 " fill="#FF0000"/>
<path class="atom-11" d="M 710.7 77.0 Q 710.7 75.7, 711.3 75.0 Q 712.0 74.3, 713.2 74.3 Q 714.4 74.3, 715.0 75.0 Q 715.7 75.7, 715.7 77.0 Q 715.7 78.4, 715.0 79.1 Q 714.4 79.8, 713.2 79.8 Q 712.0 79.8, 711.3 79.1 Q 710.7 78.4, 710.7 77.0 M 713.2 79.2 Q 714.0 79.2, 714.4 78.7 Q 714.9 78.1, 714.9 77.0 Q 714.9 76.0, 714.4 75.4 Q 714.0 74.9, 713.2 74.9 Q 712.4 74.9, 711.9 75.4 Q 711.5 76.0, 711.5 77.0 Q 711.5 78.1, 711.9 78.7 Q 712.4 79.2, 713.2 79.2 " fill="#FF0000"/>
<path class="atom-15" d="M 771.7 52.0 Q 771.7 50.7, 772.4 50.0 Q 773.0 49.3, 774.2 49.3 Q 775.4 49.3, 776.1 50.0 Q 776.7 50.7, 776.7 52.0 Q 776.7 53.3, 776.1 54.1 Q 775.4 54.8, 774.2 54.8 Q 773.0 54.8, 772.4 54.1 Q 771.7 53.4, 771.7 52.0 M 774.2 54.2 Q 775.0 54.2, 775.5 53.7 Q 775.9 53.1, 775.9 52.0 Q 775.9 51.0, 775.5 50.4 Q 775.0 49.9, 774.2 49.9 Q 773.4 49.9, 773.0 50.4 Q 772.5 51.0, 772.5 52.0 Q 772.5 53.1, 773.0 53.7 Q 773.4 54.2, 774.2 54.2 " fill="#FF0000"/>
<path class="atom-15" d="M 777.5 49.4 L 778.3 49.4 L 778.3 51.6 L 781.0 51.6 L 781.0 49.4 L 781.8 49.4 L 781.8 54.8 L 781.0 54.8 L 781.0 52.3 L 778.3 52.3 L 778.3 54.8 L 777.5 54.8 L 777.5 49.4 " fill="#FF0000"/>
<path class="atom-18" d="M 762.9 117.4 Q 762.9 116.1, 763.5 115.4 Q 764.2 114.7, 765.4 114.7 Q 766.5 114.7, 767.2 115.4 Q 767.8 116.1, 767.8 117.4 Q 767.8 118.7, 767.2 119.5 Q 766.5 120.2, 765.4 120.2 Q 764.2 120.2, 763.5 119.5 Q 762.9 118.7, 762.9 117.4 M 765.4 119.6 Q 766.2 119.6, 766.6 119.0 Q 767.1 118.5, 767.1 117.4 Q 767.1 116.3, 766.6 115.8 Q 766.2 115.3, 765.4 115.3 Q 764.5 115.3, 764.1 115.8 Q 763.6 116.3, 763.6 117.4 Q 763.6 118.5, 764.1 119.0 Q 764.5 119.6, 765.4 119.6 " fill="#FF0000"/>
<path class="atom-18" d="M 768.7 114.7 L 769.4 114.7 L 769.4 117.0 L 772.2 117.0 L 772.2 114.7 L 772.9 114.7 L 772.9 120.1 L 772.2 120.1 L 772.2 117.6 L 769.4 117.6 L 769.4 120.1 L 768.7 120.1 L 768.7 114.7 " fill="#FF0000"/>
<path class="legend" d="M 699.2 178.7 Q 701.7 178.7, 703.1 180.2 Q 704.4 181.6, 704.4 184.3 Q 704.4 187.0, 703.1 188.5 Q 701.7 190.0, 699.2 190.0 L 695.6 190.0 L 695.6 178.7 L 699.2 178.7 M 699.2 188.7 Q 701.0 188.7, 701.9 187.6 Q 702.8 186.5, 702.8 184.3 Q 702.8 182.1, 701.9 181.0 Q 701.0 180.0, 699.2 180.0 L 697.1 180.0 L 697.1 188.7 L 699.2 188.7 " fill="#000000"/>
<path class="bond-0 atom-0 atom-1" d="M 153.2,274.6 L 137.6,285.6" style="fill:none;fill-rule:evenodd;stroke:#000000;stroke-width:2.0px;stroke-linecap:butt;stroke-linejoin:miter;stroke-opacity:1"/>
<path class="bond-1 atom-1 atom-2" d="M 136.1,284.9 L 136.8,293.1" style="fill:none;fill-rule:evenodd;stroke:#000000;stroke-width:2.0px;stroke-linecap:butt;stroke-linejoin:miter;stroke-opacity:1"/>
<path class="bond-1 atom-1 atom-2" d="M 136.8,293.1 L 137.6,301.3" style="fill:none;fill-rule:evenodd;stroke:#FF0000;stroke-width:2.0px;stroke-linecap:butt;stroke-linejoin:miter;stroke-opacity:1"/>
<path class="bond-1 atom-1 atom-2" d="M 138.9,284.6 L 139.7,292.9" style="fill:none;fill-rule:evenodd;stroke:#000000;stroke-width:2.0px;stroke-linecap:butt;stroke-linejoin:miter;stroke-opacity:1;stroke-dasharray:6,4"/>
<path class="bond-1 atom-1 atom-2" d="M 139.7,292.9 L 140.4,301.1" style="fill:none;fill-rule:evenodd;stroke:#FF0000;stroke-width:2.0px;stroke-linecap:butt;stroke-linejoin:miter;stroke-opacity:1;stroke-dasharray:6,4"/>
<path class="bond-2 atom-1 atom-3" d="M 137.6,285.6 L 120.3,277.6" style="fill:none;fill-rule:evenodd;stroke:#000000;stroke-width:2.0px;stroke-linecap:butt;stroke-linejoin:miter;stroke-opacity:1"/>
<path class="bond-2 atom-1 atom-3" d="M 134.9,287.5 L 120.6,280.8" style="fill:none;fill-rule:evenodd;stroke:#000000;stroke-width:2.0px;stroke-linecap:butt;stroke-linejoin:miter;stroke-opacity:1;stroke-dasharray:6,4"/>
<path class="bond-3 atom-3 atom-4" d="M 120.3,277.6 L 104.7,288.5" style="fill:none;fill-rule:evenodd;stroke:#000000;stroke-width:2.0px;stroke-linecap:butt;stroke-linejoin:miter;stroke-opacity:1"/>
<path class="bond-3 atom-3 atom-4" d="M 120.6,280.8 L 106.4,290.8" style="fill:none;fill-rule:evenodd;stroke:#000000;stroke-width:2.0px;stroke-linecap:butt;stroke-linejoin:miter;stroke-opacity:1;stroke-dasharray:6,4"/>
<path class="bond-4 atom-4 atom-5" d="M 104.7,288.5 L 87.5,280.5" style="fill:none;fill-rule:evenodd;stroke:#000000;stroke-width:2.0px;stroke-linecap:butt;stroke-linejoin:miter;stroke-opacity:1"/>
<path class="bond-4 atom-4 atom-5" d="M 104.5,285.2 L 88.7,277.9" style="fill:none;fill-rule:evenodd;stroke:#000000;stroke-width:2.0px;stroke-linecap:butt;stroke-linejoin:miter;stroke-opacity:1;stroke-dasharray:6,4"/>
<path class="bond-5 atom-5 atom-6" d="M 87.5,280.5 L 71.9,291.4" style="fill:none;fill-rule:evenodd;stroke:#000000;stroke-width:2.0px;stroke-linecap:butt;stroke-linejoin:miter;stroke-opacity:1"/>
<path class="bond-6 atom-6 atom-7" d="M 71.9,291.4 L 64.8,288.1" style="fill:none;fill-rule:evenodd;stroke:#000000;stroke-width:2.0px;stroke-linecap:butt;stroke-linejoin:miter;stroke-opacity:1"/>
<path class="bond-6 atom-6 atom-7" d="M 64.8,288.1 L 57.7,284.8" style="fill:none;fill-rule:evenodd;stroke:#FF0000;stroke-width:2.0px;stroke-linecap:butt;stroke-linejoin:miter;stroke-opacity:1"/>
<path d="M 121.2,278.0 L 120.3,277.6 L 119.5,278.1" style="fill:none;stroke:#000000;stroke-width:2.0px;stroke-linecap:butt;stroke-linejoin:miter;stroke-opacity:1;"/>
<path d="M 105.5,288.0 L 104.7,288.5 L 103.9,288.1" style="fill:none;stroke:#000000;stroke-width:2.0px;stroke-linecap:butt;stroke-linejoin:miter;stroke-opacity:1;"/>
<path d="M 88.3,280.9 L 87.5,280.5 L 86.7,281.0" style="fill:none;stroke:#000000;stroke-width:2.0px;stroke-linecap:butt;stroke-linejoin:miter;stroke-opacity:1;"/>
<path d="M 72.7,290.9 L 71.9,291.4 L 71.5,291.3" style="fill:none;stroke:#000000;stroke-width:2.0px;stroke-linecap:butt;stroke-linejoin:miter;stroke-opacity:1;"/>
<path class="atom-2" d="M 136.8 304.6 Q 136.8 303.3, 137.4 302.5 Q 138.1 301.8, 139.3 301.8 Q 140.5 301.8, 141.1 302.5 Q 141.8 303.3, 141.8 304.6 Q 141.8 305.9, 141.1 306.6 Q 140.5 307.4, 139.3 307.4 Q 138.1 307.4, 137.4 306.6 Q 136.8 305.9, 136.8 304.6 M 139.3 306.8 Q 140.1 306.8, 140.5 306.2 Q 141.0 305.6, 141.0 304.6 Q 141.0 303.5, 140.5 303.0 Q 140.1 302.4, 139.3 302.4 Q 138.5 302.4, 138.0 303.0 Q 137.6 303.5, 137.6 304.6 Q 137.6 305.7, 138.0 306.2 Q 138.5 306.8, 139.3 306.8 " fill="#FF0000"/>
<path class="atom-7" d="M 46.8 280.7 L 47.5 280.7 L 47.5 283.0 L 50.3 283.0 L 50.3 280.7 L 51.0 280.7 L 51.0 286.1 L 50.3 286.1 L 50.3 283.6 L 47.5 283.6 L 47.5 286.1 L 46.8 286.1 L 46.8 280.7 " fill="#FF0000"/>
<path class="atom-7" d="M 52.1 283.4 Q 52.1 282.1, 52.8 281.4 Q 53.4 280.7, 54.6 280.7 Q 55.8 280.7, 56.5 281.4 Q 57.1 282.1, 57.1 283.4 Q 57.1 284.7, 56.4 285.5 Q 55.8 286.2, 54.6 286.2 Q 53.4 286.2, 52.8 285.5 Q 52.1 284.7, 52.1 283.4 M 54.6 285.6 Q 55.4 285.6, 55.9 285.1 Q 56.3 284.5, 56.3 283.4 Q 56.3 282.4, 55.9 281.8 Q 55.4 281.3, 54.6 281.3 Q 53.8 281.3, 53.3 281.8 Q 52.9 282.3, 52.9 283.4 Q 52.9 284.5, 53.3 285.1 Q 53.8 285.6, 54.6 285.6 " fill="#FF0000"/>
<path class="legend" d="M 96.5 378.7 L 103.3 378.7 L 103.3 380.0 L 98.1 380.0 L 98.1 383.4 L 102.8 383.4 L 102.8 384.7 L 98.1 384.7 L 98.1 388.7 L 103.5 388.7 L 103.5 390.0 L 96.5 390.0 L 96.5 378.7 " fill="#000000"/>
<path class="bond-0 atom-0 atom-1" d="M 258.6,293.7 L 275.5,285.0" style="fill:none;fill-rule:evenodd;stroke:#000000;stroke-width:2.0px;stroke-linecap:butt;stroke-linejoin:miter;stroke-opacity:1"/>
<path class="bond-0 atom-0 atom-1" d="M 259.9,296.2 L 275.4,288.3" style="fill:none;fill-rule:evenodd;stroke:#000000;stroke-width:2.0px;stroke-linecap:butt;stroke-linejoin:miter;stroke-opacity:1"/>
<path class="bond-1 atom-1 atom-2" d="M 275.5,285.0 L 291.5,295.3" style="fill:none;fill-rule:evenodd;stroke:#000000;stroke-width:2.0px;stroke-linecap:butt;stroke-linejoin:miter;stroke-opacity:1"/>
<path class="bond-2 atom-2 atom-3" d="M 291.5,295.3 L 308.5,286.7" style="fill:none;fill-rule:evenodd;stroke:#000000;stroke-width:2.0px;stroke-linecap:butt;stroke-linejoin:miter;stroke-opacity:1"/>
<path class="bond-3 atom-3 atom-4" d="M 308.5,286.7 L 324.5,297.0" style="fill:none;fill-rule:evenodd;stroke:#000000;stroke-width:2.0px;stroke-linecap:butt;stroke-linejoin:miter;stroke-opacity:1"/>
<path class="bond-4 atom-4 atom-5" d="M 324.5,297.0 L 341.4,288.3" style="fill:none;fill-rule:evenodd;stroke:#000000;stroke-width:2.0px;stroke-linecap:butt;stroke-linejoin:miter;stroke-opacity:1"/>
<path d="M 274.7,285.4 L 275.5,285.0 L 276.3,285.5" style="fill:none;stroke:#000000;stroke-width:2.0px;stroke-linecap:butt;stroke-linejoin:miter;stroke-opacity:1;"/>
<path d="M 290.7,294.8 L 291.5,295.3 L 292.4,294.9" style="fill:none;stroke:#000000;stroke-width:2.0px;stroke-linecap:butt;stroke-linejoin:miter;stroke-opacity:1;"/>
<path d="M 307.6,287.1 L 308.5,286.7 L 309.3,287.2" style="fill:none;stroke:#000000;stroke-width:2.0px;stroke-linecap:butt;stroke-linejoin:miter;stroke-opacity:1;"/>
<path d="M 323.7,296.5 L 324.5,297.0 L 325.3,296.6" style="fill:none;stroke:#000000;stroke-width:2.0px;stroke-linecap:butt;stroke-linejoin:miter;stroke-opacity:1;"/>
<path class="legend" d="M 296.6 378.7 L 303.4 378.7 L 303.4 380.0 L 298.2 380.0 L 298.2 383.4 L 302.8 383.4 L 302.8 384.7 L 298.2 384.7 L 298.2 390.0 L 296.6 390.0 L 296.6 378.7 " fill="#000000"/>
<path class="bond-0 atom-0 atom-1" d="M 577.1,340.0 L 574.8,321.1" style="fill:none;fill-rule:evenodd;stroke:#000000;stroke-width:2.0px;stroke-linecap:butt;stroke-linejoin:miter;stroke-opacity:1"/>
<path class="bond-1 atom-1 atom-2" d="M 574.8,321.1 L 590.0,309.7" style="fill:none;fill-rule:evenodd;stroke:#000000;stroke-width:2.0px;stroke-linecap:butt;stroke-linejoin:miter;stroke-opacity:1"/>
<path class="bond-2 atom-1 atom-3" d="M 574.8,321.1 L 557.3,313.7" style="fill:none;fill-rule:evenodd;stroke:#000000;stroke-width:2.0px;stroke-linecap:butt;stroke-linejoin:miter;stroke-opacity:1"/>
<path class="bond-3 atom-3 atom-4" d="M 557.3,313.7 L 554.9,294.8" style="fill:none;fill-rule:evenodd;stroke:#000000;stroke-width:2.0px;stroke-linecap:butt;stroke-linejoin:miter;stroke-opacity:1"/>
<path class="bond-4 atom-4 atom-5" d="M 554.9,294.8 L 537.4,287.3" style="fill:none;fill-rule:evenodd;stroke:#000000;stroke-width:2.0px;stroke-linecap:butt;stroke-linejoin:miter;stroke-opacity:1"/>
<path class="bond-5 atom-5 atom-6" d="M 537.4,287.3 L 535.1,268.4" style="fill:none;fill-rule:evenodd;stroke:#000000;stroke-width:2.0px;stroke-linecap:butt;stroke-linejoin:miter;stroke-opacity:1"/>
<path class="bond-6 atom-6 atom-7" d="M 535.1,268.4 L 550.3,257.0" style="fill:none;fill-rule:evenodd;stroke:#000000;stroke-width:2.0px;stroke-linecap:butt;stroke-linejoin:miter;stroke-opacity:1"/>
<path class="bond-7 atom-6 atom-8" d="M 535.1,268.4 L 517.6,261.0" style="fill:none;fill-rule:evenodd;stroke:#000000;stroke-width:2.0px;stroke-linecap:butt;stroke-linejoin:miter;stroke-opacity:1"/>
<path class="bond-8 atom-8 atom-9" d="M 517.6,261.0 L 513.3,242.5" style="fill:none;fill-rule:evenodd;stroke:#000000;stroke-width:2.0px;stroke-linecap:butt;stroke-linejoin:miter;stroke-opacity:1"/>
<path class="bond-9 atom-9 atom-10" d="M 513.3,242.5 L 494.3,240.8" style="fill:none;fill-rule:evenodd;stroke:#000000;stroke-width:2.0px;stroke-linecap:butt;stroke-linejoin:miter;stroke-opacity:1"/>
<path class="bond-10 atom-10 atom-11" d="M 494.3,240.8 L 486.9,258.3" style="fill:none;fill-rule:evenodd;stroke:#000000;stroke-width:2.0px;stroke-linecap:butt;stroke-linejoin:miter;stroke-opacity:1"/>
<path class="bond-11 atom-11 atom-12" d="M 486.9,258.3 L 468.9,264.5" style="fill:none;fill-rule:evenodd;stroke:#000000;stroke-width:2.0px;stroke-linecap:butt;stroke-linejoin:miter;stroke-opacity:1"/>
<path class="bond-12 atom-12 atom-13" d="M 468.9,264.5 L 454.5,252.0" style="fill:none;fill-rule:evenodd;stroke:#000000;stroke-width:2.0px;stroke-linecap:butt;stroke-linejoin:miter;stroke-opacity:1"/>
<path class="bond-13 atom-12 atom-14" d="M 468.9,264.5 L 465.2,283.2" style="fill:none;fill-rule:evenodd;stroke:#000000;stroke-width:2.0px;stroke-linecap:butt;stroke-linejoin:miter;stroke-opacity:1"/>
<path class="bond-14 atom-14 atom-15" d="M 465.2,283.2 L 447.2,289.4" style="fill:none;fill-rule:evenodd;stroke:#000000;stroke-width:2.0px;stroke-linecap:butt;stroke-linejoin:miter;stroke-opacity:1"/>
<path class="bond-15 atom-15 atom-16" d="M 447.2,289.4 L 444.2,270.6" style="fill:none;fill-rule:evenodd;stroke:#000000;stroke-width:2.0px;stroke-linecap:butt;stroke-linejoin:miter;stroke-opacity:1"/>
<path class="bond-16 atom-15 atom-17" d="M 447.2,289.4 L 456.5,306.1" style="fill:none;fill-rule:evenodd;stroke:#000000;stroke-width:2.0px;stroke-linecap:butt;stroke-linejoin:miter;stroke-opacity:1"/>
<path class="bond-17 atom-17 atom-18" d="M 456.5,306.1 L 446.6,322.4" style="fill:none;fill-rule:evenodd;stroke:#000000;stroke-width:2.0px;stroke-linecap:butt;stroke-linejoin:miter;stroke-opacity:1"/>
<path class="bond-18 atom-18 atom-19" d="M 446.6,322.4 L 427.6,322.1" style="fill:none;fill-rule:evenodd;stroke:#000000;stroke-width:2.0px;stroke-linecap:butt;stroke-linejoin:miter;stroke-opacity:1"/>
<path class="bond-19 atom-19 atom-20" d="M 427.6,322.1 L 423.7,328.6" style="fill:none;fill-rule:evenodd;stroke:#000000;stroke-width:2.0px;stroke-linecap:butt;stroke-linejoin:miter;stroke-opacity:1"/>
<path class="bond-19 atom-19 atom-20" d="M 423.7,328.6 L 419.8,335.0" style="fill:none;fill-rule:evenodd;stroke:#FF0000;stroke-width:2.0px;stroke-linecap:butt;stroke-linejoin:miter;stroke-opacity:1"/>
<path class="bond-20 atom-19 atom-21" d="M 427.6,322.1 L 418.4,305.4" style="fill:none;fill-rule:evenodd;stroke:#000000;stroke-width:2.0px;stroke-linecap:butt;stroke-linejoin:miter;stroke-opacity:1"/>
<path class="bond-21 atom-21 atom-22" d="M 418.4,305.4 L 428.2,289.1" style="fill:none;fill-rule:evenodd;stroke:#000000;stroke-width:2.0px;stroke-linecap:butt;stroke-linejoin:miter;stroke-opacity:1"/>
<path class="bond-22 atom-14 atom-23" d="M 465.2,283.2 L 479.6,295.7" style="fill:none;fill-rule:evenodd;stroke:#000000;stroke-width:2.0px;stroke-linecap:butt;stroke-linejoin:miter;stroke-opacity:1"/>
<path class="bond-23 atom-23 atom-24" d="M 479.6,295.7 L 497.6,289.5" style="fill:none;fill-rule:evenodd;stroke:#000000;stroke-width:2.0px;stroke-linecap:butt;stroke-linejoin:miter;stroke-opacity:1"/>
<path class="bond-24 atom-24 atom-25" d="M 497.6,289.5 L 501.2,270.8" style="fill:none;fill-rule:evenodd;stroke:#000000;stroke-width:2.0px;stroke-linecap:butt;stroke-linejoin:miter;stroke-opacity:1"/>
<path class="bond-25 atom-25 atom-26" d="M 501.2,270.8 L 516.8,281.7" style="fill:none;fill-rule:evenodd;stroke:#000000;stroke-width:2.0px;stroke-linecap:butt;stroke-linejoin:miter;stroke-opacity:1"/>
<path class="bond-26 atom-25 atom-8" d="M 501.2,270.8 L 517.6,261.0" style="fill:none;fill-rule:evenodd;stroke:#000000;stroke-width:2.0px;stroke-linecap:butt;stroke-linejoin:miter;stroke-opacity:1"/>
<path class="bond-27 atom-25 atom-11" d="M 501.2,270.8 L 486.9,258.3" style="fill:none;fill-rule:evenodd;stroke:#000000;stroke-width:2.0px;stroke-linecap:butt;stroke-linejoin:miter;stroke-opacity:1"/>
<path class="bond-28 atom-22 atom-15" d="M 428.2,289.1 L 447.2,289.4" style="fill:none;fill-rule:evenodd;stroke:#000000;stroke-width:2.0px;stroke-linecap:butt;stroke-linejoin:miter;stroke-opacity:1"/>
<path d="M 558.1,314.1 L 557.3,313.7 L 557.1,312.7" style="fill:none;stroke:#000000;stroke-width:2.0px;stroke-linecap:butt;stroke-linejoin:miter;stroke-opacity:1;"/>
<path d="M 555.1,295.7 L 554.9,294.8 L 554.1,294.4" style="fill:none;stroke:#000000;stroke-width:2.0px;stroke-linecap:butt;stroke-linejoin:miter;stroke-opacity:1;"/>
<path d="M 538.3,287.7 L 537.4,287.3 L 537.3,286.4" style="fill:none;stroke:#000000;stroke-width:2.0px;stroke-linecap:butt;stroke-linejoin:miter;stroke-opacity:1;"/>
<path d="M 513.5,243.4 L 513.3,242.5 L 512.3,242.4" style="fill:none;stroke:#000000;stroke-width:2.0px;stroke-linecap:butt;stroke-linejoin:miter;stroke-opacity:1;"/>
<path d="M 495.2,240.9 L 494.3,240.8 L 493.9,241.7" style="fill:none;stroke:#000000;stroke-width:2.0px;stroke-linecap:butt;stroke-linejoin:miter;stroke-opacity:1;"/>
<path d="M 456.0,305.2 L 456.5,306.1 L 456.0,306.9" style="fill:none;stroke:#000000;stroke-width:2.0px;stroke-linecap:butt;stroke-linejoin:miter;stroke-opacity:1;"/>
<path d="M 447.1,321.6 L 446.6,322.4 L 445.7,322.4" style="fill:none;stroke:#000000;stroke-width:2.0px;stroke-linecap:butt;stroke-linejoin:miter;stroke-opacity:1;"/>
<path d="M 418.8,306.2 L 418.4,305.4 L 418.9,304.6" style="fill:none;stroke:#000000;stroke-width:2.0px;stroke-linecap:butt;stroke-linejoin:miter;stroke-opacity:1;"/>
<path d="M 427.7,289.9 L 428.2,289.1 L 429.1,289.1" style="fill:none;stroke:#000000;stroke-width:2.0px;stroke-linecap:butt;stroke-linejoin:miter;stroke-opacity:1;"/>
<path d="M 478.9,295.1 L 479.6,295.7 L 480.5,295.4" style="fill:none;stroke:#000000;stroke-width:2.0px;stroke-linecap:butt;stroke-linejoin:miter;stroke-opacity:1;"/>
<path d="M 496.7,289.8 L 497.6,289.5 L 497.8,288.6" style="fill:none;stroke:#000000;stroke-width:2.0px;stroke-linecap:butt;stroke-linejoin:miter;stroke-opacity:1;"/>
<path class="atom-20" d="M 410.0 335.7 L 410.7 335.7 L 410.7 338.0 L 413.5 338.0 L 413.5 335.7 L 414.2 335.7 L 414.2 341.1 L 413.5 341.1 L 413.5 338.6 L 410.7 338.6 L 410.7 341.1 L 410.0 341.1 L 410.0 335.7 " fill="#FF0000"/>
<path class="atom-20" d="M 415.3 338.4 Q 415.3 337.1, 416.0 336.4 Q 416.6 335.7, 417.8 335.7 Q 419.0 335.7, 419.6 336.4 Q 420.3 337.1, 420.3 338.4 Q 420.3 339.7, 419.6 340.5 Q 419.0 341.2, 417.8 341.2 Q 416.6 341.2, 416.0 340.5 Q 415.3 339.7, 415.3 338.4 M 417.8 340.6 Q 418.6 340.6, 419.1 340.0 Q 419.5 339.5, 419.5 338.4 Q 419.5 337.4, 419.1 336.8 Q 418.6 336.3, 417.8 336.3 Q 417.0 336.3, 416.5 336.8 Q 416.1 337.3, 416.1 338.4 Q 416.1 339.5, 416.5 340.0 Q 417.0 340.6, 417.8 340.6 " fill="#FF0000"/>
<path class="legend" d="M 504.6 384.3 L 504.6 389.1 Q 502.9 390.0, 500.6 390.0 Q 498.1 390.0, 496.8 388.5 Q 495.4 387.0, 495.4 384.2 Q 495.4 381.4, 496.8 379.9 Q 498.1 378.4, 500.6 378.4 Q 501.9 378.4, 502.9 378.8 Q 503.8 379.2, 504.5 380.0 L 503.5 380.9 Q 502.4 379.7, 500.6 379.7 Q 498.9 379.7, 498.0 380.8 Q 497.1 382.0, 497.1 384.2 Q 497.1 386.4, 498.0 387.6 Q 499.0 388.7, 500.8 388.7 Q 502.0 388.7, 503.0 388.3 L 503.0 384.3 L 504.6 384.3 " fill="#000000"/>
</svg>