<svg xmlns="http://www.w3.org/2000/svg" xmlns:rdkit="http://www.rdkit.org/xml" xmlns:xlink="http://www.w3.org/1999/xlink" version="1.1" baseProfile="full" xml:space="preserve" width="800px" height="200px" viewBox="0 0 800 200">
<!-- END OF HEADER -->
<rect style="opacity:1.0;fill:#FFFFFF;stroke:none" width="800.0" height="200.0" x="0.0" y="0.0"> </rect>
<path class="bond-0 atom-0 atom-1" d="M 189.5,95.1 L 160.5,113.7" style="fill:none;fill-rule:evenodd;stroke:#000000;stroke-width:2.0px;stroke-linecap:butt;stroke-linejoin:miter;stroke-opacity:1"/>
<path class="bond-1 atom-1 atom-2" d="M 160.5,113.7 L 129.8,97.8" style="fill:none;fill-rule:evenodd;stroke:#000000;stroke-width:2.0px;stroke-linecap:butt;stroke-linejoin:miter;stroke-opacity:1"/>
<path class="bond-1 atom-1 atom-2" d="M 160.2,107.7 L 132.2,93.2" style="fill:none;fill-rule:evenodd;stroke:#000000;stroke-width:2.0px;stroke-linecap:butt;stroke-linejoin:miter;stroke-opacity:1;stroke-dasharray:6,4"/>
<path class="bond-2 atom-2 atom-3" d="M 129.8,97.8 L 100.8,116.4" style="fill:none;fill-rule:evenodd;stroke:#000000;stroke-width:2.0px;stroke-linecap:butt;stroke-linejoin:miter;stroke-opacity:1"/>
<path class="bond-2 atom-2 atom-3" d="M 130.1,103.8 L 103.6,120.8" style="fill:none;fill-rule:evenodd;stroke:#000000;stroke-width:2.0px;stroke-linecap:butt;stroke-linejoin:miter;stroke-opacity:1;stroke-dasharray:6,4"/>
<path class="bond-3 atom-3 atom-4" d="M 100.8,116.4 L 70.2,100.6" style="fill:none;fill-rule:evenodd;stroke:#000000;stroke-width:2.0px;stroke-linecap:butt;stroke-linejoin:miter;stroke-opacity:1"/>
<path class="bond-3 atom-3 atom-4" d="M 100.5,110.5 L 75.2,97.4" style="fill:none;fill-rule:evenodd;stroke:#000000;stroke-width:2.0px;stroke-linecap:butt;stroke-linejoin:miter;stroke-opacity:1;stroke-dasharray:6,4"/>
<path class="bond-4 atom-4 atom-5" d="M 70.2,100.6 L 69.5,86.5" style="fill:none;fill-rule:evenodd;stroke:#000000;stroke-width:2.0px;stroke-linecap:butt;stroke-linejoin:miter;stroke-opacity:1"/>
<path class="bond-4 atom-4 atom-5" d="M 69.5,86.5 L 68.9,72.4" style="fill:none;fill-rule:evenodd;stroke:#FF0000;stroke-width:2.0px;stroke-linecap:butt;stroke-linejoin:miter;stroke-opacity:1"/>
<path class="bond-5 atom-4 atom-6" d="M 70.2,100.6 L 41.1,119.2" style="fill:none;fill-rule:evenodd;stroke:#000000;stroke-width:2.0px;stroke-linecap:butt;stroke-linejoin:miter;stroke-opacity:1"/>
<path class="bond-5 atom-4 atom-6" d="M 64.9,97.8 L 40.8,113.2" style="fill:none;fill-rule:evenodd;stroke:#000000;stroke-width:2.0px;stroke-linecap:butt;stroke-linejoin:miter;stroke-opacity:1;stroke-dasharray:6,4"/>
<path class="bond-6 atom-6 atom-7" d="M 41.1,119.2 L 10.5,103.3" style="fill:none;fill-rule:evenodd;stroke:#000000;stroke-width:2.0px;stroke-linecap:butt;stroke-linejoin:miter;stroke-opacity:1"/>
<path class="bond-6 atom-6 atom-7" d="M 40.8,113.2 L 12.9,98.7" style="fill:none;fill-rule:evenodd;stroke:#000000;stroke-width:2.0px;stroke-linecap:butt;stroke-linejoin:miter;stroke-opacity:1;stroke-dasharray:6,4"/>
<path d="M 161.9,112.8 L 160.5,113.7 L 158.9,112.9" style="fill:none;stroke:#000000;stroke-width:2.0px;stroke-linecap:butt;stroke-linejoin:miter;stroke-opacity:1;"/>
<path d="M 131.4,98.6 L 129.8,97.8 L 128.4,98.8" style="fill:none;stroke:#000000;stroke-width:2.0px;stroke-linecap:butt;stroke-linejoin:miter;stroke-opacity:1;"/>
<path d="M 102.2,115.5 L 100.8,116.4 L 99.3,115.7" style="fill:none;stroke:#000000;stroke-width:2.0px;stroke-linecap:butt;stroke-linejoin:miter;stroke-opacity:1;"/>
<path d="M 42.6,118.3 L 41.1,119.2 L 39.6,118.4" style="fill:none;stroke:#000000;stroke-width:2.0px;stroke-linecap:butt;stroke-linejoin:miter;stroke-opacity:1;"/>
<path class="atom-5" d="M 64.1 66.2 Q 64.1 63.8, 65.3 62.5 Q 66.4 61.2, 68.6 61.2 Q 70.7 61.2, 71.9 62.5 Q 73.1 63.8, 73.1 66.2 Q 73.1 68.5, 71.9 69.9 Q 70.7 71.2, 68.6 71.2 Q 66.4 71.2, 65.3 69.9 Q 64.1 68.6, 64.1 66.2 M 68.6 70.1 Q 70.1 70.1, 70.9 69.1 Q 71.7 68.1, 71.7 66.2 Q 71.7 64.2, 70.9 63.3 Q 70.1 62.3, 68.6 62.3 Q 67.1 62.3, 66.3 63.3 Q 65.5 64.2, 65.5 66.2 Q 65.5 68.1, 66.3 69.1 Q 67.1 70.1, 68.6 70.1 " fill="#FF0000"/>
<path class="atom-5" d="M 74.6 61.3 L 75.9 61.3 L 75.9 65.5 L 80.9 65.5 L 80.9 61.3 L 82.2 61.3 L 82.2 71.1 L 80.9 71.1 L 80.9 66.6 L 75.9 66.6 L 75.9 71.1 L 74.6 71.1 L 74.6 61.3 " fill="#FF0000"/>
<path class="legend" d="M 103.4 190.0 L 102.2 186.7 L 97.8 186.7 L 96.6 190.0 L 95.1 190.0 L 99.0 178.7 L 100.9 178.7 L 104.9 190.0 L 103.4 190.0 M 98.2 185.4 L 101.8 185.4 L 100.0 180.3 L 98.2 185.4 " fill="#000000"/>
<path class="bond-0 atom-0 atom-1" d="M 331.8,58.7 L 314.6,88.6" style="fill:none;fill-rule:evenodd;stroke:#000000;stroke-width:2.0px;stroke-linecap:butt;stroke-linejoin:miter;stroke-opacity:1"/>
<path class="bond-1 atom-1 atom-2" d="M 314.6,88.6 L 321.5,100.5" style="fill:none;fill-rule:evenodd;stroke:#000000;stroke-width:2.0px;stroke-linecap:butt;stroke-linejoin:miter;stroke-opacity:1"/>
<path class="bond-1 atom-1 atom-2" d="M 321.5,100.5 L 328.4,112.4" style="fill:none;fill-rule:evenodd;stroke:#0000FF;stroke-width:2.0px;stroke-linecap:butt;stroke-linejoin:miter;stroke-opacity:1"/>
<path class="bond-2 atom-1 atom-3" d="M 314.6,88.6 L 280.1,88.6" style="fill:none;fill-rule:evenodd;stroke:#000000;stroke-width:2.0px;stroke-linecap:butt;stroke-linejoin:miter;stroke-opacity:1"/>
<path class="bond-3 atom-3 atom-4" d="M 283.1,88.6 L 275.9,76.1" style="fill:none;fill-rule:evenodd;stroke:#000000;stroke-width:2.0px;stroke-linecap:butt;stroke-linejoin:miter;stroke-opacity:1"/>
<path class="bond-3 atom-3 atom-4" d="M 275.9,76.1 L 268.7,63.7" style="fill:none;fill-rule:evenodd;stroke:#FF0000;stroke-width:2.0px;stroke-linecap:butt;stroke-linejoin:miter;stroke-opacity:1"/>
<path class="bond-3 atom-3 atom-4" d="M 278.6,91.2 L 271.4,78.7" style="fill:none;fill-rule:evenodd;stroke:#000000;stroke-width:2.0px;stroke-linecap:butt;stroke-linejoin:miter;stroke-opacity:1"/>
<path class="bond-3 atom-3 atom-4" d="M 271.4,78.7 L 264.2,66.2" style="fill:none;fill-rule:evenodd;stroke:#FF0000;stroke-width:2.0px;stroke-linecap:butt;stroke-linejoin:miter;stroke-opacity:1"/>
<path class="bond-4 atom-3 atom-5" d="M 280.1,88.6 L 273.2,100.5" style="fill:none;fill-rule:evenodd;stroke:#000000;stroke-width:2.0px;stroke-linecap:butt;stroke-linejoin:miter;stroke-opacity:1"/>
<path class="bond-4 atom-3 atom-5" d="M 273.2,100.5 L 266.4,112.4" style="fill:none;fill-rule:evenodd;stroke:#FF0000;stroke-width:2.0px;stroke-linecap:butt;stroke-linejoin:miter;stroke-opacity:1"/>
<path d="M 281.8,88.6 L 280.1,88.6 L 279.8,89.2" style="fill:none;stroke:#000000;stroke-width:2.0px;stroke-linecap:butt;stroke-linejoin:miter;stroke-opacity:1;"/>
<path class="atom-2" d="M 329.7 113.6 L 332.9 118.7 Q 333.2 119.3, 333.7 120.2 Q 334.2 121.1, 334.2 121.2 L 334.2 113.6 L 335.5 113.6 L 335.5 123.3 L 334.2 123.3 L 330.8 117.7 Q 330.4 117.0, 329.9 116.3 Q 329.5 115.5, 329.4 115.3 L 329.4 123.3 L 328.1 123.3 L 328.1 113.6 L 329.7 113.6 " fill="#0000FF"/>
<path class="atom-2" d="M 337.4 113.6 L 338.7 113.6 L 338.7 117.7 L 343.7 117.7 L 343.7 113.6 L 345.0 113.6 L 345.0 123.3 L 343.7 123.3 L 343.7 118.8 L 338.7 118.8 L 338.7 123.3 L 337.4 123.3 L 337.4 113.6 " fill="#0000FF"/>
<path class="atom-2" d="M 347.0 123.0 Q 347.2 122.4, 347.8 122.0 Q 348.3 121.7, 349.1 121.7 Q 350.1 121.7, 350.6 122.2 Q 351.2 122.8, 351.2 123.7 Q 351.2 124.7, 350.5 125.5 Q 349.8 126.4, 348.3 127.5 L 351.3 127.5 L 351.3 128.2 L 346.9 128.2 L 346.9 127.6 Q 348.1 126.8, 348.8 126.1 Q 349.6 125.5, 349.9 124.9 Q 350.3 124.3, 350.3 123.7 Q 350.3 123.1, 350.0 122.8 Q 349.6 122.4, 349.1 122.4 Q 348.6 122.4, 348.2 122.6 Q 347.9 122.9, 347.6 123.3 L 347.0 123.0 " fill="#0000FF"/>
<path class="atom-4" d="M 258.4 58.7 Q 258.4 56.4, 259.5 55.1 Q 260.7 53.8, 262.8 53.8 Q 265.0 53.8, 266.2 55.1 Q 267.3 56.4, 267.3 58.7 Q 267.3 61.1, 266.2 62.5 Q 265.0 63.8, 262.8 63.8 Q 260.7 63.8, 259.5 62.5 Q 258.4 61.1, 258.4 58.7 M 262.8 62.7 Q 264.3 62.7, 265.1 61.7 Q 266.0 60.7, 266.0 58.7 Q 266.0 56.8, 265.1 55.9 Q 264.3 54.9, 262.8 54.9 Q 261.4 54.9, 260.5 55.8 Q 259.7 56.8, 259.7 58.7 Q 259.7 60.7, 260.5 61.7 Q 261.4 62.7, 262.8 62.7 " fill="#FF0000"/>
<path class="atom-5" d="M 248.7 113.6 L 250.0 113.6 L 250.0 117.8 L 255.0 117.8 L 255.0 113.6 L 256.4 113.6 L 256.4 123.4 L 255.0 123.4 L 255.0 118.9 L 250.0 118.9 L 250.0 123.4 L 248.7 123.4 L 248.7 113.6 " fill="#FF0000"/>
<path class="atom-5" d="M 258.4 118.5 Q 258.4 116.1, 259.5 114.8 Q 260.7 113.5, 262.8 113.5 Q 265.0 113.5, 266.2 114.8 Q 267.3 116.1, 267.3 118.5 Q 267.3 120.9, 266.2 122.2 Q 265.0 123.5, 262.8 123.5 Q 260.7 123.5, 259.5 122.2 Q 258.4 120.9, 258.4 118.5 M 262.8 122.4 Q 264.3 122.4, 265.1 121.4 Q 266.0 120.4, 266.0 118.5 Q 266.0 116.6, 265.1 115.6 Q 264.3 114.6, 262.8 114.6 Q 261.4 114.6, 260.5 115.6 Q 259.7 116.6, 259.7 118.5 Q 259.7 120.5, 260.5 121.4 Q 261.4 122.4, 262.8 122.4 " fill="#FF0000"/>
<path class="legend" d="M 301.7 184.0 Q 302.7 184.4, 303.3 185.0 Q 303.8 185.7, 303.8 186.7 Q 303.8 188.2, 302.8 189.1 Q 301.8 190.0, 300.0 190.0 L 296.2 190.0 L 296.2 178.7 L 299.5 178.7 Q 301.4 178.7, 302.4 179.5 Q 303.4 180.2, 303.4 181.7 Q 303.4 183.4, 301.7 184.0 M 297.7 180.0 L 297.7 183.5 L 299.5 183.5 Q 300.6 183.5, 301.2 183.1 Q 301.8 182.6, 301.8 181.7 Q 301.8 180.0, 299.5 180.0 L 297.7 180.0 M 300.0 188.7 Q 301.1 188.7, 301.7 188.2 Q 302.2 187.7, 302.2 186.7 Q 302.2 185.7, 301.6 185.3 Q 301.0 184.8, 299.7 184.8 L 297.7 184.8 L 297.7 188.7 L 300.0 188.7 " fill="#000000"/>
<path class="bond-0 atom-0 atom-1" d="M 590.0,64.5 L 560.6,85.2" style="fill:none;fill-rule:evenodd;stroke:#000000;stroke-width:2.0px;stroke-linecap:butt;stroke-linejoin:miter;stroke-opacity:1"/>
<path class="bond-0 atom-0 atom-1" d="M 587.0,60.3 L 557.6,81.0" style="fill:none;fill-rule:evenodd;stroke:#000000;stroke-width:2.0px;stroke-linecap:butt;stroke-linejoin:miter;stroke-opacity:1;stroke-dasharray:6,4"/>
<path class="bond-1 atom-1 atom-2" d="M 560.3,82.2 L 561.5,96.4" style="fill:none;fill-rule:evenodd;stroke:#000000;stroke-width:2.0px;stroke-linecap:butt;stroke-linejoin:miter;stroke-opacity:1"/>
<path class="bond-1 atom-1 atom-2" d="M 561.5,96.4 L 562.8,110.5" style="fill:none;fill-rule:evenodd;stroke:#FF0000;stroke-width:2.0px;stroke-linecap:butt;stroke-linejoin:miter;stroke-opacity:1"/>
<path class="bond-2 atom-1 atom-3" d="M 560.3,82.2 L 529.0,67.7" style="fill:none;fill-rule:evenodd;stroke:#000000;stroke-width:2.0px;stroke-linecap:butt;stroke-linejoin:miter;stroke-opacity:1"/>
<path class="bond-2 atom-1 atom-3" d="M 555.4,85.7 L 529.5,73.7" style="fill:none;fill-rule:evenodd;stroke:#000000;stroke-width:2.0px;stroke-linecap:butt;stroke-linejoin:miter;stroke-opacity:1;stroke-dasharray:6,4"/>
<path class="bond-3 atom-3 atom-4" d="M 529.0,67.7 L 500.8,87.5" style="fill:none;fill-rule:evenodd;stroke:#000000;stroke-width:2.0px;stroke-linecap:butt;stroke-linejoin:miter;stroke-opacity:1"/>
<path class="bond-3 atom-3 atom-4" d="M 529.5,73.7 L 503.8,91.8" style="fill:none;fill-rule:evenodd;stroke:#000000;stroke-width:2.0px;stroke-linecap:butt;stroke-linejoin:miter;stroke-opacity:1;stroke-dasharray:6,4"/>
<path class="bond-4 atom-4 atom-5" d="M 500.8,87.5 L 469.5,73.0" style="fill:none;fill-rule:evenodd;stroke:#000000;stroke-width:2.0px;stroke-linecap:butt;stroke-linejoin:miter;stroke-opacity:1"/>
<path class="bond-4 atom-4 atom-5" d="M 500.3,81.6 L 471.7,68.3" style="fill:none;fill-rule:evenodd;stroke:#000000;stroke-width:2.0px;stroke-linecap:butt;stroke-linejoin:miter;stroke-opacity:1;stroke-dasharray:6,4"/>
<path class="bond-5 atom-5 atom-6" d="M 469.5,73.0 L 441.3,92.8" style="fill:none;fill-rule:evenodd;stroke:#000000;stroke-width:2.0px;stroke-linecap:butt;stroke-linejoin:miter;stroke-opacity:1"/>
<path class="bond-5 atom-5 atom-6" d="M 470.0,79.0 L 444.3,97.1" style="fill:none;fill-rule:evenodd;stroke:#000000;stroke-width:2.0px;stroke-linecap:butt;stroke-linejoin:miter;stroke-opacity:1;stroke-dasharray:6,4"/>
<path class="bond-6 atom-6 atom-7" d="M 441.3,92.8 L 410.0,78.3" style="fill:none;fill-rule:evenodd;stroke:#000000;stroke-width:2.0px;stroke-linecap:butt;stroke-linejoin:miter;stroke-opacity:1"/>
<path d="M 530.6,68.4 L 529.0,67.7 L 527.6,68.7" style="fill:none;stroke:#000000;stroke-width:2.0px;stroke-linecap:butt;stroke-linejoin:miter;stroke-opacity:1;"/>
<path d="M 502.2,86.5 L 500.8,87.5 L 499.2,86.8" style="fill:none;stroke:#000000;stroke-width:2.0px;stroke-linecap:butt;stroke-linejoin:miter;stroke-opacity:1;"/>
<path d="M 471.1,73.7 L 469.5,73.0 L 468.1,74.0" style="fill:none;stroke:#000000;stroke-width:2.0px;stroke-linecap:butt;stroke-linejoin:miter;stroke-opacity:1;"/>
<path d="M 442.7,91.8 L 441.3,92.8 L 439.7,92.1" style="fill:none;stroke:#000000;stroke-width:2.0px;stroke-linecap:butt;stroke-linejoin:miter;stroke-opacity:1;"/>
<path class="atom-2" d="M 558.9 116.6 Q 558.9 114.3, 560.0 113.0 Q 561.2 111.7, 563.3 111.7 Q 565.5 111.7, 566.7 113.0 Q 567.8 114.3, 567.8 116.6 Q 567.8 119.0, 566.7 120.4 Q 565.5 121.7, 563.3 121.7 Q 561.2 121.7, 560.0 120.4 Q 558.9 119.0, 558.9 116.6 M 563.3 120.6 Q 564.8 120.6, 565.6 119.6 Q 566.4 118.6, 566.4 116.6 Q 566.4 114.7, 565.6 113.7 Q 564.8 112.8, 563.3 112.8 Q 561.9 112.8, 561.0 113.7 Q 560.2 114.7, 560.2 116.6 Q 560.2 118.6, 561.0 119.6 Q 561.9 120.6, 563.3 120.6 " fill="#FF0000"/>
<path class="atom-2" d="M 569.3 111.8 L 570.7 111.8 L 570.7 115.9 L 575.7 115.9 L 575.7 111.8 L 577.0 111.8 L 577.0 121.5 L 575.7 121.5 L 575.7 117.0 L 570.7 117.0 L 570.7 121.5 L 569.3 121.5 L 569.3 111.8 " fill="#FF0000"/>
<path class="legend" d="M 499.2 178.7 Q 501.7 178.7, 503.1 180.2 Q 504.4 181.6, 504.4 184.3 Q 504.4 187.0, 503.1 188.5 Q 501.7 190.0, 499.2 190.0 L 495.6 190.0 L 495.6 178.7 L 499.2 178.7 M 499.2 188.7 Q 501.0 188.7, 501.9 187.6 Q 502.8 186.5, 502.8 184.3 Q 502.8 182.1, 501.9 181.0 Q 501.0 180.0, 499.2 180.0 L 497.1 180.0 L 497.1 188.7 L 499.2 188.7 " fill="#000000"/>
<path class="bond-0 atom-0 atom-1" d="M 777.2,49.9 L 773.2,84.2" style="fill:none;fill-rule:evenodd;stroke:#000000;stroke-width:2.0px;stroke-linecap:butt;stroke-linejoin:miter;stroke-opacity:1"/>
<path class="bond-1 atom-1 atom-2" d="M 773.2,84.2 L 741.5,97.8" style="fill:none;fill-rule:evenodd;stroke:#000000;stroke-width:2.0px;stroke-linecap:butt;stroke-linejoin:miter;stroke-opacity:1"/>
<path class="bond-2 atom-2 atom-3" d="M 741.5,97.8 L 737.4,132.1" style="fill:none;fill-rule:evenodd;stroke:#000000;stroke-width:2.0px;stroke-linecap:butt;stroke-linejoin:miter;stroke-opacity:1"/>
<path class="bond-3 atom-2 atom-4" d="M 741.5,97.8 L 713.8,77.2" style="fill:none;fill-rule:evenodd;stroke:#000000;stroke-width:2.0px;stroke-linecap:butt;stroke-linejoin:miter;stroke-opacity:1"/>
<path class="bond-4 atom-4 atom-5" d="M 713.8,77.2 L 682.1,90.8" style="fill:none;fill-rule:evenodd;stroke:#000000;stroke-width:2.0px;stroke-linecap:butt;stroke-linejoin:miter;stroke-opacity:1"/>
<path class="bond-5 atom-5 atom-6" d="M 682.1,90.8 L 654.5,70.2" style="fill:none;fill-rule:evenodd;stroke:#000000;stroke-width:2.0px;stroke-linecap:butt;stroke-linejoin:miter;stroke-opacity:1"/>
<path class="bond-6 atom-6 atom-7" d="M 654.5,70.2 L 622.8,83.8" style="fill:none;fill-rule:evenodd;stroke:#000000;stroke-width:2.0px;stroke-linecap:butt;stroke-linejoin:miter;stroke-opacity:1"/>
<path d="M 773.4,82.5 L 773.2,84.2 L 771.6,84.9" style="fill:none;stroke:#000000;stroke-width:2.0px;stroke-linecap:butt;stroke-linejoin:miter;stroke-opacity:1;"/>
<path d="M 715.2,78.2 L 713.8,77.2 L 712.2,77.9" style="fill:none;stroke:#000000;stroke-width:2.0px;stroke-linecap:butt;stroke-linejoin:miter;stroke-opacity:1;"/>
<path d="M 683.7,90.1 L 682.1,90.8 L 680.8,89.8" style="fill:none;stroke:#000000;stroke-width:2.0px;stroke-linecap:butt;stroke-linejoin:miter;stroke-opacity:1;"/>
<path d="M 655.9,71.2 L 654.5,70.2 L 652.9,70.9" style="fill:none;stroke:#000000;stroke-width:2.0px;stroke-linecap:butt;stroke-linejoin:miter;stroke-opacity:1;"/>
<path class="legend" d="M 696.5 178.7 L 703.3 178.7 L 703.3 180.0 L 698.1 180.0 L 698.1 183.4 L 702.8 183.4 L 702.8 184.7 L 698.1 184.7 L 698.1 188.7 L 703.5 188.7 L 703.5 190.0 L 696.5 190.0 L 696.5 178.7 " fill="#000000"/>
</svg>