<svg xmlns="http://www.w3.org/2000/svg" xmlns:rdkit="http://www.rdkit.org/xml" xmlns:xlink="http://www.w3.org/1999/xlink" version="1.1" baseProfile="full" xml:space="preserve" width="800px" height="200px" viewBox="0 0 800 200">
<!-- END OF HEADER -->
<rect style="opacity:1.0;fill:#FFFFFF;stroke:none" width="800.0" height="200.0" x="0.0" y="0.0"> </rect>
<path class="bond-0 atom-0 atom-1" d="M 126.5,120.2 L 122.9,112.7" style="fill:none;fill-rule:evenodd;stroke:#FF0000;stroke-width:2.0px;stroke-linecap:butt;stroke-linejoin:miter;stroke-opacity:1"/>
<path class="bond-0 atom-0 atom-1" d="M 122.9,112.7 L 119.4,105.2" style="fill:none;fill-rule:evenodd;stroke:#000000;stroke-width:2.0px;stroke-linecap:butt;stroke-linejoin:miter;stroke-opacity:1"/>
<path class="bond-0 atom-0 atom-1" d="M 129.1,118.9 L 125.6,111.4" style="fill:none;fill-rule:evenodd;stroke:#FF0000;stroke-width:2.0px;stroke-linecap:butt;stroke-linejoin:miter;stroke-opacity:1"/>
<path class="bond-0 atom-0 atom-1" d="M 125.6,111.4 L 122.0,103.9" style="fill:none;fill-rule:evenodd;stroke:#000000;stroke-width:2.0px;stroke-linecap:butt;stroke-linejoin:miter;stroke-opacity:1"/>
<path class="bond-1 atom-1 atom-2" d="M 121.1,105.3 L 112.9,104.7" style="fill:none;fill-rule:evenodd;stroke:#000000;stroke-width:2.0px;stroke-linecap:butt;stroke-linejoin:miter;stroke-opacity:1"/>
<path class="bond-1 atom-1 atom-2" d="M 112.9,104.7 L 104.8,104.0" style="fill:none;fill-rule:evenodd;stroke:#FF0000;stroke-width:2.0px;stroke-linecap:butt;stroke-linejoin:miter;stroke-opacity:1"/>
<path class="bond-2 atom-2 atom-3" d="M 99.1,107.3 L 94.8,113.5" style="fill:none;fill-rule:evenodd;stroke:#FF0000;stroke-width:2.0px;stroke-linecap:butt;stroke-linejoin:miter;stroke-opacity:1"/>
<path class="bond-2 atom-2 atom-3" d="M 94.8,113.5 L 90.5,119.8" style="fill:none;fill-rule:evenodd;stroke:#000000;stroke-width:2.0px;stroke-linecap:butt;stroke-linejoin:miter;stroke-opacity:1"/>
<path class="bond-3 atom-3 atom-4" d="M 90.5,119.8 L 98.8,137.5" style="fill:none;fill-rule:evenodd;stroke:#000000;stroke-width:2.0px;stroke-linecap:butt;stroke-linejoin:miter;stroke-opacity:1"/>
<path class="bond-4 atom-4 atom-5" d="M 98.8,137.5 L 107.0,138.2" style="fill:none;fill-rule:evenodd;stroke:#000000;stroke-width:2.0px;stroke-linecap:butt;stroke-linejoin:miter;stroke-opacity:1"/>
<path class="bond-4 atom-4 atom-5" d="M 107.0,138.2 L 115.1,138.8" style="fill:none;fill-rule:evenodd;stroke:#FF0000;stroke-width:2.0px;stroke-linecap:butt;stroke-linejoin:miter;stroke-opacity:1"/>
<path class="bond-5 atom-3 atom-6" d="M 90.5,119.8 L 71.0,118.2" style="fill:none;fill-rule:evenodd;stroke:#000000;stroke-width:2.0px;stroke-linecap:butt;stroke-linejoin:miter;stroke-opacity:1"/>
<path class="bond-6 atom-6 atom-7" d="M 71.0,118.2 L 67.6,111.2" style="fill:none;fill-rule:evenodd;stroke:#000000;stroke-width:2.0px;stroke-linecap:butt;stroke-linejoin:miter;stroke-opacity:1"/>
<path class="bond-6 atom-6 atom-7" d="M 67.6,111.2 L 64.3,104.1" style="fill:none;fill-rule:evenodd;stroke:#FF0000;stroke-width:2.0px;stroke-linecap:butt;stroke-linejoin:miter;stroke-opacity:1"/>
<path class="bond-7 atom-7 atom-8" d="M 65.0,97.1 L 69.4,90.8" style="fill:none;fill-rule:evenodd;stroke:#FF0000;stroke-width:2.0px;stroke-linecap:butt;stroke-linejoin:miter;stroke-opacity:1"/>
<path class="bond-7 atom-7 atom-8" d="M 69.4,90.8 L 73.7,84.5" style="fill:none;fill-rule:evenodd;stroke:#000000;stroke-width:2.0px;stroke-linecap:butt;stroke-linejoin:miter;stroke-opacity:1"/>
<path class="bond-8 atom-8 atom-9" d="M 72.8,85.9 L 81.3,86.6" style="fill:none;fill-rule:evenodd;stroke:#000000;stroke-width:2.0px;stroke-linecap:butt;stroke-linejoin:miter;stroke-opacity:1"/>
<path class="bond-8 atom-8 atom-9" d="M 81.3,86.6 L 89.9,87.3" style="fill:none;fill-rule:evenodd;stroke:#FF0000;stroke-width:2.0px;stroke-linecap:butt;stroke-linejoin:miter;stroke-opacity:1"/>
<path class="bond-8 atom-8 atom-9" d="M 73.0,83.0 L 81.6,83.7" style="fill:none;fill-rule:evenodd;stroke:#000000;stroke-width:2.0px;stroke-linecap:butt;stroke-linejoin:miter;stroke-opacity:1"/>
<path class="bond-8 atom-8 atom-9" d="M 81.6,83.7 L 90.1,84.4" style="fill:none;fill-rule:evenodd;stroke:#FF0000;stroke-width:2.0px;stroke-linecap:butt;stroke-linejoin:miter;stroke-opacity:1"/>
<path class="bond-9 atom-8 atom-10" d="M 73.7,84.5 L 65.4,66.8" style="fill:none;fill-rule:evenodd;stroke:#000000;stroke-width:2.0px;stroke-linecap:butt;stroke-linejoin:miter;stroke-opacity:1"/>
<path class="bond-10 atom-10 atom-11" d="M 65.4,66.8 L 76.5,50.7" style="fill:none;fill-rule:evenodd;stroke:#000000;stroke-width:2.0px;stroke-linecap:butt;stroke-linejoin:miter;stroke-opacity:1"/>
<path class="bond-10 atom-10 atom-11" d="M 63.9,63.8 L 73.1,50.5" style="fill:none;fill-rule:evenodd;stroke:#000000;stroke-width:2.0px;stroke-linecap:butt;stroke-linejoin:miter;stroke-opacity:1"/>
<path class="bond-11 atom-11 atom-12" d="M 76.5,50.7 L 68.1,33.1" style="fill:none;fill-rule:evenodd;stroke:#000000;stroke-width:2.0px;stroke-linecap:butt;stroke-linejoin:miter;stroke-opacity:1"/>
<path class="bond-12 atom-12 atom-13" d="M 68.1,33.1 L 72.4,26.8" style="fill:none;fill-rule:evenodd;stroke:#000000;stroke-width:2.0px;stroke-linecap:butt;stroke-linejoin:miter;stroke-opacity:1"/>
<path class="bond-12 atom-12 atom-13" d="M 72.4,26.8 L 76.8,20.5" style="fill:none;fill-rule:evenodd;stroke:#FF0000;stroke-width:2.0px;stroke-linecap:butt;stroke-linejoin:miter;stroke-opacity:1"/>
<path class="bond-13 atom-12 atom-14" d="M 68.1,33.1 L 48.6,31.5" style="fill:none;fill-rule:evenodd;stroke:#000000;stroke-width:2.0px;stroke-linecap:butt;stroke-linejoin:miter;stroke-opacity:1"/>
<path class="bond-13 atom-12 atom-14" d="M 66.2,35.9 L 50.1,34.6" style="fill:none;fill-rule:evenodd;stroke:#000000;stroke-width:2.0px;stroke-linecap:butt;stroke-linejoin:miter;stroke-opacity:1"/>
<path class="bond-14 atom-14 atom-15" d="M 48.6,31.5 L 45.3,24.4" style="fill:none;fill-rule:evenodd;stroke:#000000;stroke-width:2.0px;stroke-linecap:butt;stroke-linejoin:miter;stroke-opacity:1"/>
<path class="bond-14 atom-14 atom-15" d="M 45.3,24.4 L 41.9,17.4" style="fill:none;fill-rule:evenodd;stroke:#FF0000;stroke-width:2.0px;stroke-linecap:butt;stroke-linejoin:miter;stroke-opacity:1"/>
<path class="bond-15 atom-14 atom-16" d="M 48.6,31.5 L 37.5,47.6" style="fill:none;fill-rule:evenodd;stroke:#000000;stroke-width:2.0px;stroke-linecap:butt;stroke-linejoin:miter;stroke-opacity:1"/>
<path class="bond-16 atom-16 atom-17" d="M 37.5,47.6 L 29.3,46.9" style="fill:none;fill-rule:evenodd;stroke:#000000;stroke-width:2.0px;stroke-linecap:butt;stroke-linejoin:miter;stroke-opacity:1"/>
<path class="bond-16 atom-16 atom-17" d="M 29.3,46.9 L 21.2,46.3" style="fill:none;fill-rule:evenodd;stroke:#FF0000;stroke-width:2.0px;stroke-linecap:butt;stroke-linejoin:miter;stroke-opacity:1"/>
<path class="bond-17 atom-16 atom-18" d="M 37.5,47.6 L 45.9,65.2" style="fill:none;fill-rule:evenodd;stroke:#000000;stroke-width:2.0px;stroke-linecap:butt;stroke-linejoin:miter;stroke-opacity:1"/>
<path class="bond-17 atom-16 atom-18" d="M 40.9,47.9 L 47.8,62.5" style="fill:none;fill-rule:evenodd;stroke:#000000;stroke-width:2.0px;stroke-linecap:butt;stroke-linejoin:miter;stroke-opacity:1"/>
<path class="bond-18 atom-6 atom-19" d="M 71.0,118.2 L 59.9,134.3" style="fill:none;fill-rule:evenodd;stroke:#000000;stroke-width:2.0px;stroke-linecap:butt;stroke-linejoin:miter;stroke-opacity:1"/>
<path class="bond-19 atom-19 atom-20" d="M 59.9,134.3 L 51.7,133.7" style="fill:none;fill-rule:evenodd;stroke:#000000;stroke-width:2.0px;stroke-linecap:butt;stroke-linejoin:miter;stroke-opacity:1"/>
<path class="bond-19 atom-19 atom-20" d="M 51.7,133.7 L 43.6,133.0" style="fill:none;fill-rule:evenodd;stroke:#FF0000;stroke-width:2.0px;stroke-linecap:butt;stroke-linejoin:miter;stroke-opacity:1"/>
<path class="bond-20 atom-19 atom-21" d="M 59.9,134.3 L 68.3,152.0" style="fill:none;fill-rule:evenodd;stroke:#000000;stroke-width:2.0px;stroke-linecap:butt;stroke-linejoin:miter;stroke-opacity:1"/>
<path class="bond-21 atom-21 atom-22" d="M 68.3,152.0 L 63.9,158.3" style="fill:none;fill-rule:evenodd;stroke:#000000;stroke-width:2.0px;stroke-linecap:butt;stroke-linejoin:miter;stroke-opacity:1"/>
<path class="bond-21 atom-21 atom-22" d="M 63.9,158.3 L 59.5,164.6" style="fill:none;fill-rule:evenodd;stroke:#FF0000;stroke-width:2.0px;stroke-linecap:butt;stroke-linejoin:miter;stroke-opacity:1"/>
<path class="bond-22 atom-1 atom-23" d="M 121.1,105.3 L 132.2,89.2" style="fill:none;fill-rule:evenodd;stroke:#000000;stroke-width:2.0px;stroke-linecap:butt;stroke-linejoin:miter;stroke-opacity:1"/>
<path class="bond-23 atom-23 atom-24" d="M 132.2,89.2 L 151.7,90.8" style="fill:none;fill-rule:evenodd;stroke:#000000;stroke-width:2.0px;stroke-linecap:butt;stroke-linejoin:miter;stroke-opacity:1"/>
<path class="bond-23 atom-23 atom-24" d="M 134.1,86.5 L 150.2,87.8" style="fill:none;fill-rule:evenodd;stroke:#000000;stroke-width:2.0px;stroke-linecap:butt;stroke-linejoin:miter;stroke-opacity:1"/>
<path class="bond-24 atom-24 atom-25" d="M 151.7,90.8 L 162.8,74.7" style="fill:none;fill-rule:evenodd;stroke:#000000;stroke-width:2.0px;stroke-linecap:butt;stroke-linejoin:miter;stroke-opacity:1"/>
<path class="bond-25 atom-25 atom-26" d="M 162.8,74.7 L 170.9,75.4" style="fill:none;fill-rule:evenodd;stroke:#000000;stroke-width:2.0px;stroke-linecap:butt;stroke-linejoin:miter;stroke-opacity:1"/>
<path class="bond-25 atom-25 atom-26" d="M 170.9,75.4 L 179.1,76.1" style="fill:none;fill-rule:evenodd;stroke:#FF0000;stroke-width:2.0px;stroke-linecap:butt;stroke-linejoin:miter;stroke-opacity:1"/>
<path class="bond-26 atom-25 atom-27" d="M 162.8,74.7 L 154.4,57.1" style="fill:none;fill-rule:evenodd;stroke:#000000;stroke-width:2.0px;stroke-linecap:butt;stroke-linejoin:miter;stroke-opacity:1"/>
<path class="bond-26 atom-25 atom-27" d="M 159.4,74.5 L 152.5,59.9" style="fill:none;fill-rule:evenodd;stroke:#000000;stroke-width:2.0px;stroke-linecap:butt;stroke-linejoin:miter;stroke-opacity:1"/>
<path class="bond-27 atom-27 atom-28" d="M 154.4,57.1 L 158.7,50.8" style="fill:none;fill-rule:evenodd;stroke:#000000;stroke-width:2.0px;stroke-linecap:butt;stroke-linejoin:miter;stroke-opacity:1"/>
<path class="bond-27 atom-27 atom-28" d="M 158.7,50.8 L 163.1,44.5" style="fill:none;fill-rule:evenodd;stroke:#FF0000;stroke-width:2.0px;stroke-linecap:butt;stroke-linejoin:miter;stroke-opacity:1"/>
<path class="bond-28 atom-27 atom-29" d="M 154.4,57.1 L 134.9,55.5" style="fill:none;fill-rule:evenodd;stroke:#000000;stroke-width:2.0px;stroke-linecap:butt;stroke-linejoin:miter;stroke-opacity:1"/>
<path class="bond-29 atom-29 atom-30" d="M 134.9,55.5 L 131.6,48.4" style="fill:none;fill-rule:evenodd;stroke:#000000;stroke-width:2.0px;stroke-linecap:butt;stroke-linejoin:miter;stroke-opacity:1"/>
<path class="bond-29 atom-29 atom-30" d="M 131.6,48.4 L 128.2,41.4" style="fill:none;fill-rule:evenodd;stroke:#FF0000;stroke-width:2.0px;stroke-linecap:butt;stroke-linejoin:miter;stroke-opacity:1"/>
<path class="bond-30 atom-29 atom-31" d="M 134.9,55.5 L 123.8,71.6" style="fill:none;fill-rule:evenodd;stroke:#000000;stroke-width:2.0px;stroke-linecap:butt;stroke-linejoin:miter;stroke-opacity:1"/>
<path class="bond-30 atom-29 atom-31" d="M 136.4,58.5 L 127.2,71.8" style="fill:none;fill-rule:evenodd;stroke:#000000;stroke-width:2.0px;stroke-linecap:butt;stroke-linejoin:miter;stroke-opacity:1"/>
<path class="bond-31 atom-18 atom-10" d="M 45.9,65.2 L 65.4,66.8" style="fill:none;fill-rule:evenodd;stroke:#000000;stroke-width:2.0px;stroke-linecap:butt;stroke-linejoin:miter;stroke-opacity:1"/>
<path class="bond-32 atom-31 atom-23" d="M 123.8,71.6 L 132.2,89.2" style="fill:none;fill-rule:evenodd;stroke:#000000;stroke-width:2.0px;stroke-linecap:butt;stroke-linejoin:miter;stroke-opacity:1"/>
<path d="M 120.7,105.3 L 121.1,105.3 L 121.6,104.5" style="fill:none;stroke:#000000;stroke-width:2.0px;stroke-linecap:butt;stroke-linejoin:miter;stroke-opacity:1;"/>
<path d="M 98.4,136.6 L 98.8,137.5 L 99.3,137.5" style="fill:none;stroke:#000000;stroke-width:2.0px;stroke-linecap:butt;stroke-linejoin:miter;stroke-opacity:1;"/>
<path d="M 73.5,84.8 L 73.7,84.5 L 73.3,83.6" style="fill:none;stroke:#000000;stroke-width:2.0px;stroke-linecap:butt;stroke-linejoin:miter;stroke-opacity:1;"/>
<path d="M 75.9,51.6 L 76.5,50.7 L 76.0,49.9" style="fill:none;stroke:#000000;stroke-width:2.0px;stroke-linecap:butt;stroke-linejoin:miter;stroke-opacity:1;"/>
<path d="M 45.4,64.4 L 45.9,65.2 L 46.8,65.3" style="fill:none;stroke:#000000;stroke-width:2.0px;stroke-linecap:butt;stroke-linejoin:miter;stroke-opacity:1;"/>
<path d="M 67.8,151.1 L 68.3,152.0 L 68.0,152.3" style="fill:none;stroke:#000000;stroke-width:2.0px;stroke-linecap:butt;stroke-linejoin:miter;stroke-opacity:1;"/>
<path d="M 150.7,90.7 L 151.7,90.8 L 152.2,90.0" style="fill:none;stroke:#000000;stroke-width:2.0px;stroke-linecap:butt;stroke-linejoin:miter;stroke-opacity:1;"/>
<path d="M 124.4,70.8 L 123.8,71.6 L 124.2,72.5" style="fill:none;stroke:#000000;stroke-width:2.0px;stroke-linecap:butt;stroke-linejoin:miter;stroke-opacity:1;"/>
<path class="atom-0" d="M 126.9 123.0 Q 126.9 121.7, 127.6 120.9 Q 128.2 120.2, 129.4 120.2 Q 130.7 120.2, 131.3 120.9 Q 132.0 121.7, 132.0 123.0 Q 132.0 124.3, 131.3 125.1 Q 130.7 125.9, 129.4 125.9 Q 128.2 125.9, 127.6 125.1 Q 126.9 124.4, 126.9 123.0 M 129.4 125.2 Q 130.3 125.2, 130.7 124.7 Q 131.2 124.1, 131.2 123.0 Q 131.2 121.9, 130.7 121.4 Q 130.3 120.8, 129.4 120.8 Q 128.6 120.8, 128.1 121.4 Q 127.7 121.9, 127.7 123.0 Q 127.7 124.1, 128.1 124.7 Q 128.6 125.2, 129.4 125.2 " fill="#FF0000"/>
<path class="atom-2" d="M 99.0 103.8 Q 99.0 102.4, 99.7 101.7 Q 100.4 100.9, 101.6 100.9 Q 102.8 100.9, 103.5 101.7 Q 104.1 102.4, 104.1 103.8 Q 104.1 105.1, 103.5 105.9 Q 102.8 106.6, 101.6 106.6 Q 100.4 106.6, 99.7 105.9 Q 99.0 105.1, 99.0 103.8 M 101.6 106.0 Q 102.4 106.0, 102.9 105.4 Q 103.3 104.9, 103.3 103.8 Q 103.3 102.7, 102.9 102.1 Q 102.4 101.6, 101.6 101.6 Q 100.7 101.6, 100.3 102.1 Q 99.8 102.7, 99.8 103.8 Q 99.8 104.9, 100.3 105.4 Q 100.7 106.0, 101.6 106.0 " fill="#FF0000"/>
<path class="atom-5" d="M 115.8 139.1 Q 115.8 137.8, 116.4 137.0 Q 117.1 136.3, 118.3 136.3 Q 119.6 136.3, 120.2 137.0 Q 120.9 137.8, 120.9 139.1 Q 120.9 140.4, 120.2 141.2 Q 119.5 142.0, 118.3 142.0 Q 117.1 142.0, 116.4 141.2 Q 115.8 140.4, 115.8 139.1 M 118.3 141.3 Q 119.2 141.3, 119.6 140.8 Q 120.1 140.2, 120.1 139.1 Q 120.1 138.0, 119.6 137.5 Q 119.2 136.9, 118.3 136.9 Q 117.5 136.9, 117.0 137.4 Q 116.6 138.0, 116.6 139.1 Q 116.6 140.2, 117.0 140.8 Q 117.5 141.3, 118.3 141.3 " fill="#FF0000"/>
<path class="atom-5" d="M 121.7 136.3 L 122.5 136.3 L 122.5 138.7 L 125.3 138.7 L 125.3 136.3 L 126.1 136.3 L 126.1 141.9 L 125.3 141.9 L 125.3 139.3 L 122.5 139.3 L 122.5 141.9 L 121.7 141.9 L 121.7 136.3 " fill="#FF0000"/>
<path class="atom-7" d="M 60.1 100.6 Q 60.1 99.3, 60.7 98.5 Q 61.4 97.8, 62.6 97.8 Q 63.8 97.8, 64.5 98.5 Q 65.2 99.3, 65.2 100.6 Q 65.2 101.9, 64.5 102.7 Q 63.8 103.5, 62.6 103.5 Q 61.4 103.5, 60.7 102.7 Q 60.1 101.9, 60.1 100.6 M 62.6 102.8 Q 63.5 102.8, 63.9 102.3 Q 64.4 101.7, 64.4 100.6 Q 64.4 99.5, 63.9 99.0 Q 63.5 98.4, 62.6 98.4 Q 61.8 98.4, 61.3 99.0 Q 60.9 99.5, 60.9 100.6 Q 60.9 101.7, 61.3 102.3 Q 61.8 102.8, 62.6 102.8 " fill="#FF0000"/>
<path class="atom-9" d="M 90.7 86.1 Q 90.7 84.8, 91.3 84.0 Q 92.0 83.3, 93.2 83.3 Q 94.4 83.3, 95.1 84.0 Q 95.8 84.8, 95.8 86.1 Q 95.8 87.4, 95.1 88.2 Q 94.4 89.0, 93.2 89.0 Q 92.0 89.0, 91.3 88.2 Q 90.7 87.4, 90.7 86.1 M 93.2 88.3 Q 94.1 88.3, 94.5 87.8 Q 95.0 87.2, 95.0 86.1 Q 95.0 85.0, 94.5 84.5 Q 94.1 83.9, 93.2 83.9 Q 92.4 83.9, 91.9 84.4 Q 91.5 85.0, 91.5 86.1 Q 91.5 87.2, 91.9 87.8 Q 92.4 88.3, 93.2 88.3 " fill="#FF0000"/>
<path class="atom-13" d="M 76.7 17.0 Q 76.7 15.7, 77.3 14.9 Q 78.0 14.2, 79.2 14.2 Q 80.4 14.2, 81.1 14.9 Q 81.7 15.7, 81.7 17.0 Q 81.7 18.4, 81.1 19.1 Q 80.4 19.9, 79.2 19.9 Q 78.0 19.9, 77.3 19.1 Q 76.7 18.4, 76.7 17.0 M 79.2 19.3 Q 80.0 19.3, 80.5 18.7 Q 81.0 18.1, 81.0 17.0 Q 81.0 15.9, 80.5 15.4 Q 80.0 14.8, 79.2 14.8 Q 78.4 14.8, 77.9 15.4 Q 77.4 15.9, 77.4 17.0 Q 77.4 18.1, 77.9 18.7 Q 78.4 19.3, 79.2 19.3 " fill="#FF0000"/>
<path class="atom-13" d="M 82.6 14.3 L 83.4 14.3 L 83.4 16.6 L 86.2 16.6 L 86.2 14.3 L 86.9 14.3 L 86.9 19.8 L 86.2 19.8 L 86.2 17.2 L 83.4 17.2 L 83.4 19.8 L 82.6 19.8 L 82.6 14.3 " fill="#FF0000"/>
<path class="atom-15" d="M 32.2 11.1 L 33.0 11.1 L 33.0 13.5 L 35.8 13.5 L 35.8 11.1 L 36.6 11.1 L 36.6 16.6 L 35.8 16.6 L 35.8 14.1 L 33.0 14.1 L 33.0 16.6 L 32.2 16.6 L 32.2 11.1 " fill="#FF0000"/>
<path class="atom-15" d="M 37.7 13.9 Q 37.7 12.5, 38.3 11.8 Q 39.0 11.0, 40.2 11.0 Q 41.5 11.0, 42.1 11.8 Q 42.8 12.5, 42.8 13.9 Q 42.8 15.2, 42.1 16.0 Q 41.4 16.7, 40.2 16.7 Q 39.0 16.7, 38.3 16.0 Q 37.7 15.2, 37.7 13.9 M 40.2 16.1 Q 41.1 16.1, 41.5 15.5 Q 42.0 15.0, 42.0 13.9 Q 42.0 12.8, 41.5 12.2 Q 41.1 11.7, 40.2 11.7 Q 39.4 11.7, 38.9 12.2 Q 38.5 12.8, 38.5 13.9 Q 38.5 15.0, 38.9 15.5 Q 39.4 16.1, 40.2 16.1 " fill="#FF0000"/>
<path class="atom-17" d="M 10.0 43.3 L 10.8 43.3 L 10.8 45.6 L 13.6 45.6 L 13.6 43.3 L 14.3 43.3 L 14.3 48.8 L 13.6 48.8 L 13.6 46.2 L 10.8 46.2 L 10.8 48.8 L 10.0 48.8 L 10.0 43.3 " fill="#FF0000"/>
<path class="atom-17" d="M 15.5 46.0 Q 15.5 44.7, 16.1 43.9 Q 16.8 43.2, 18.0 43.2 Q 19.2 43.2, 19.9 43.9 Q 20.6 44.7, 20.6 46.0 Q 20.6 47.4, 19.9 48.1 Q 19.2 48.9, 18.0 48.9 Q 16.8 48.9, 16.1 48.1 Q 15.5 47.4, 15.5 46.0 M 18.0 48.3 Q 18.9 48.3, 19.3 47.7 Q 19.8 47.1, 19.8 46.0 Q 19.8 44.9, 19.3 44.4 Q 18.9 43.8, 18.0 43.8 Q 17.2 43.8, 16.7 44.4 Q 16.2 44.9, 16.2 46.0 Q 16.2 47.1, 16.7 47.7 Q 17.2 48.3, 18.0 48.3 " fill="#FF0000"/>
<path class="atom-20" d="M 32.4 130.0 L 33.1 130.0 L 33.1 132.4 L 36.0 132.4 L 36.0 130.0 L 36.7 130.0 L 36.7 135.5 L 36.0 135.5 L 36.0 133.0 L 33.1 133.0 L 33.1 135.5 L 32.4 135.5 L 32.4 130.0 " fill="#FF0000"/>
<path class="atom-20" d="M 37.9 132.8 Q 37.9 131.4, 38.5 130.7 Q 39.2 129.9, 40.4 129.9 Q 41.6 129.9, 42.3 130.7 Q 42.9 131.4, 42.9 132.8 Q 42.9 134.1, 42.3 134.9 Q 41.6 135.6, 40.4 135.6 Q 39.2 135.6, 38.5 134.9 Q 37.9 134.1, 37.9 132.8 M 40.4 135.0 Q 41.2 135.0, 41.7 134.4 Q 42.2 133.9, 42.2 132.8 Q 42.2 131.7, 41.7 131.1 Q 41.2 130.6, 40.4 130.6 Q 39.5 130.6, 39.1 131.1 Q 38.6 131.7, 38.6 132.8 Q 38.6 133.9, 39.1 134.4 Q 39.5 135.0, 40.4 135.0 " fill="#FF0000"/>
<path class="atom-22" d="M 49.1 165.3 L 49.9 165.3 L 49.9 167.7 L 52.7 167.7 L 52.7 165.3 L 53.5 165.3 L 53.5 170.9 L 52.7 170.9 L 52.7 168.3 L 49.9 168.3 L 49.9 170.9 L 49.1 170.9 L 49.1 165.3 " fill="#FF0000"/>
<path class="atom-22" d="M 54.6 168.1 Q 54.6 166.8, 55.3 166.0 Q 55.9 165.3, 57.1 165.3 Q 58.4 165.3, 59.0 166.0 Q 59.7 166.8, 59.7 168.1 Q 59.7 169.4, 59.0 170.2 Q 58.4 171.0, 57.1 171.0 Q 55.9 171.0, 55.3 170.2 Q 54.6 169.4, 54.6 168.1 M 57.1 170.3 Q 58.0 170.3, 58.4 169.8 Q 58.9 169.2, 58.9 168.1 Q 58.9 167.0, 58.4 166.5 Q 58.0 165.9, 57.1 165.9 Q 56.3 165.9, 55.8 166.5 Q 55.4 167.0, 55.4 168.1 Q 55.4 169.2, 55.8 169.8 Q 56.3 170.3, 57.1 170.3 " fill="#FF0000"/>
<path class="atom-26" d="M 179.7 76.3 Q 179.7 75.0, 180.4 74.3 Q 181.0 73.5, 182.3 73.5 Q 183.5 73.5, 184.1 74.3 Q 184.8 75.0, 184.8 76.3 Q 184.8 77.7, 184.1 78.4 Q 183.5 79.2, 182.3 79.2 Q 181.0 79.2, 180.4 78.4 Q 179.7 77.7, 179.7 76.3 M 182.3 78.6 Q 183.1 78.6, 183.6 78.0 Q 184.0 77.4, 184.0 76.3 Q 184.0 75.2, 183.6 74.7 Q 183.1 74.1, 182.3 74.1 Q 181.4 74.1, 181.0 74.7 Q 180.5 75.2, 180.5 76.3 Q 180.5 77.4, 181.0 78.0 Q 181.4 78.6, 182.3 78.6 " fill="#FF0000"/>
<path class="atom-26" d="M 185.7 73.6 L 186.4 73.6 L 186.4 75.9 L 189.2 75.9 L 189.2 73.6 L 190.0 73.6 L 190.0 79.1 L 189.2 79.1 L 189.2 76.6 L 186.4 76.6 L 186.4 79.1 L 185.7 79.1 L 185.7 73.6 " fill="#FF0000"/>
<path class="atom-28" d="M 163.0 41.0 Q 163.0 39.7, 163.6 38.9 Q 164.3 38.2, 165.5 38.2 Q 166.7 38.2, 167.4 38.9 Q 168.1 39.7, 168.1 41.0 Q 168.1 42.3, 167.4 43.1 Q 166.7 43.9, 165.5 43.9 Q 164.3 43.9, 163.6 43.1 Q 163.0 42.4, 163.0 41.0 M 165.5 43.2 Q 166.4 43.2, 166.8 42.7 Q 167.3 42.1, 167.3 41.0 Q 167.3 39.9, 166.8 39.4 Q 166.4 38.8, 165.5 38.8 Q 164.7 38.8, 164.2 39.4 Q 163.8 39.9, 163.8 41.0 Q 163.8 42.1, 164.2 42.7 Q 164.7 43.2, 165.5 43.2 " fill="#FF0000"/>
<path class="atom-28" d="M 168.9 38.2 L 169.7 38.2 L 169.7 40.6 L 172.5 40.6 L 172.5 38.2 L 173.3 38.2 L 173.3 43.8 L 172.5 43.8 L 172.5 41.2 L 169.7 41.2 L 169.7 43.8 L 168.9 43.8 L 168.9 38.2 " fill="#FF0000"/>
<path class="atom-30" d="M 118.5 35.1 L 119.3 35.1 L 119.3 37.4 L 122.1 37.4 L 122.1 35.1 L 122.9 35.1 L 122.9 40.6 L 122.1 40.6 L 122.1 38.1 L 119.3 38.1 L 119.3 40.6 L 118.5 40.6 L 118.5 35.1 " fill="#FF0000"/>
<path class="atom-30" d="M 124.0 37.8 Q 124.0 36.5, 124.7 35.8 Q 125.3 35.0, 126.5 35.0 Q 127.8 35.0, 128.4 35.8 Q 129.1 36.5, 129.1 37.8 Q 129.1 39.2, 128.4 40.0 Q 127.8 40.7, 126.5 40.7 Q 125.3 40.7, 124.7 40.0 Q 124.0 39.2, 124.0 37.8 M 126.5 40.1 Q 127.4 40.1, 127.8 39.5 Q 128.3 38.9, 128.3 37.8 Q 128.3 36.8, 127.8 36.2 Q 127.4 35.6, 126.5 35.6 Q 125.7 35.6, 125.2 36.2 Q 124.8 36.7, 124.8 37.8 Q 124.8 39.0, 125.2 39.5 Q 125.7 40.1, 126.5 40.1 " fill="#FF0000"/>
<path class="legend" d="M 103.4 190.0 L 102.2 186.7 L 97.8 186.7 L 96.6 190.0 L 95.1 190.0 L 99.0 178.7 L 100.9 178.7 L 104.9 190.0 L 103.4 190.0 M 98.2 185.4 L 101.8 185.4 L 100.0 180.3 L 98.2 185.4 " fill="#000000"/>
</svg>